<?xml version="1.0" encoding="utf-8" standalone="no"?>
<!DOCTYPE svg PUBLIC "-//W3C//DTD SVG 1.1//EN"
  "http://www.w3.org/Graphics/SVG/1.1/DTD/svg11.dtd">
<!-- Created with matplotlib (https://matplotlib.org/) -->
<svg height="288pt" version="1.1" viewBox="0 0 1152 288" width="1152pt" xmlns="http://www.w3.org/2000/svg" xmlns:xlink="http://www.w3.org/1999/xlink">
 <defs>
  <style type="text/css">
*{stroke-linecap:butt;stroke-linejoin:round;}
  </style>
 </defs>
 <g id="figure_1">
  <g id="patch_1">
   <path d="M 0 288 
L 1152 288 
L 1152 0 
L 0 0 
z
" style="fill:#ffffff;"/>
  </g>
  <g id="axes_1">
   <g id="patch_2">
    <path d="M 33.64 260.12 
L 1133.28 260.12 
L 1133.28 14.76 
L 33.64 14.76 
z
" style="fill:#ffffff;"/>
   </g>
   <g id="matplotlib.axis_1">
    <g id="xtick_1">
     <g id="line2d_1">
      <defs>
       <path d="M 0 0 
L 0 3.5 
" id="m84f76b3034" style="stroke:#000000;stroke-width:0.8;"/>
      </defs>
      <g>
       <use style="stroke:#000000;stroke-width:0.8;" x="219.905162" xlink:href="#m84f76b3034" y="260.12"/>
      </g>
     </g>
     <g id="text_1">
      <!-- Tue 00:00 -->
      <defs>
       <path d="M -0.296875 72.90625 
L 61.375 72.90625 
L 61.375 64.59375 
L 35.5 64.59375 
L 35.5 0 
L 25.59375 0 
L 25.59375 64.59375 
L -0.296875 64.59375 
z
" id="DejaVuSans-84"/>
       <path d="M 8.5 21.578125 
L 8.5 54.6875 
L 17.484375 54.6875 
L 17.484375 21.921875 
Q 17.484375 14.15625 20.5 10.265625 
Q 23.53125 6.390625 29.59375 6.390625 
Q 36.859375 6.390625 41.078125 11.03125 
Q 45.3125 15.671875 45.3125 23.6875 
L 45.3125 54.6875 
L 54.296875 54.6875 
L 54.296875 0 
L 45.3125 0 
L 45.3125 8.40625 
Q 42.046875 3.421875 37.71875 1 
Q 33.40625 -1.421875 27.6875 -1.421875 
Q 18.265625 -1.421875 13.375 4.4375 
Q 8.5 10.296875 8.5 21.578125 
z
M 31.109375 56 
z
" id="DejaVuSans-117"/>
       <path d="M 56.203125 29.59375 
L 56.203125 25.203125 
L 14.890625 25.203125 
Q 15.484375 15.921875 20.484375 11.0625 
Q 25.484375 6.203125 34.421875 6.203125 
Q 39.59375 6.203125 44.453125 7.46875 
Q 49.3125 8.734375 54.109375 11.28125 
L 54.109375 2.78125 
Q 49.265625 0.734375 44.1875 -0.34375 
Q 39.109375 -1.421875 33.890625 -1.421875 
Q 20.796875 -1.421875 13.15625 6.1875 
Q 5.515625 13.8125 5.515625 26.8125 
Q 5.515625 40.234375 12.765625 48.109375 
Q 20.015625 56 32.328125 56 
Q 43.359375 56 49.78125 48.890625 
Q 56.203125 41.796875 56.203125 29.59375 
z
M 47.21875 32.234375 
Q 47.125 39.59375 43.09375 43.984375 
Q 39.0625 48.390625 32.421875 48.390625 
Q 24.90625 48.390625 20.390625 44.140625 
Q 15.875 39.890625 15.1875 32.171875 
z
" id="DejaVuSans-101"/>
       <path id="DejaVuSans-32"/>
       <path d="M 31.78125 66.40625 
Q 24.171875 66.40625 20.328125 58.90625 
Q 16.5 51.421875 16.5 36.375 
Q 16.5 21.390625 20.328125 13.890625 
Q 24.171875 6.390625 31.78125 6.390625 
Q 39.453125 6.390625 43.28125 13.890625 
Q 47.125 21.390625 47.125 36.375 
Q 47.125 51.421875 43.28125 58.90625 
Q 39.453125 66.40625 31.78125 66.40625 
z
M 31.78125 74.21875 
Q 44.046875 74.21875 50.515625 64.515625 
Q 56.984375 54.828125 56.984375 36.375 
Q 56.984375 17.96875 50.515625 8.265625 
Q 44.046875 -1.421875 31.78125 -1.421875 
Q 19.53125 -1.421875 13.0625 8.265625 
Q 6.59375 17.96875 6.59375 36.375 
Q 6.59375 54.828125 13.0625 64.515625 
Q 19.53125 74.21875 31.78125 74.21875 
z
" id="DejaVuSans-48"/>
       <path d="M 11.71875 12.40625 
L 22.015625 12.40625 
L 22.015625 0 
L 11.71875 0 
z
M 11.71875 51.703125 
L 22.015625 51.703125 
L 22.015625 39.3125 
L 11.71875 39.3125 
z
" id="DejaVuSans-58"/>
      </defs>
      <g transform="translate(194.619224 274.718437)scale(0.1 -0.1)">
       <use xlink:href="#DejaVuSans-84"/>
       <use x="60.849609" xlink:href="#DejaVuSans-117"/>
       <use x="124.228516" xlink:href="#DejaVuSans-101"/>
       <use x="185.751953" xlink:href="#DejaVuSans-32"/>
       <use x="217.539062" xlink:href="#DejaVuSans-48"/>
       <use x="281.162109" xlink:href="#DejaVuSans-48"/>
       <use x="344.785156" xlink:href="#DejaVuSans-58"/>
       <use x="378.476562" xlink:href="#DejaVuSans-48"/>
       <use x="442.099609" xlink:href="#DejaVuSans-48"/>
      </g>
     </g>
    </g>
    <g id="xtick_2">
     <g id="line2d_2">
      <g>
       <use style="stroke:#000000;stroke-width:0.8;" x="406.253742" xlink:href="#m84f76b3034" y="260.12"/>
      </g>
     </g>
     <g id="text_2">
      <!-- Wed 00:00 -->
      <defs>
       <path d="M 3.328125 72.90625 
L 13.28125 72.90625 
L 28.609375 11.28125 
L 43.890625 72.90625 
L 54.984375 72.90625 
L 70.3125 11.28125 
L 85.59375 72.90625 
L 95.609375 72.90625 
L 77.296875 0 
L 64.890625 0 
L 49.515625 63.28125 
L 33.984375 0 
L 21.578125 0 
z
" id="DejaVuSans-87"/>
       <path d="M 45.40625 46.390625 
L 45.40625 75.984375 
L 54.390625 75.984375 
L 54.390625 0 
L 45.40625 0 
L 45.40625 8.203125 
Q 42.578125 3.328125 38.25 0.953125 
Q 33.9375 -1.421875 27.875 -1.421875 
Q 17.96875 -1.421875 11.734375 6.484375 
Q 5.515625 14.40625 5.515625 27.296875 
Q 5.515625 40.1875 11.734375 48.09375 
Q 17.96875 56 27.875 56 
Q 33.9375 56 38.25 53.625 
Q 42.578125 51.265625 45.40625 46.390625 
z
M 14.796875 27.296875 
Q 14.796875 17.390625 18.875 11.75 
Q 22.953125 6.109375 30.078125 6.109375 
Q 37.203125 6.109375 41.296875 11.75 
Q 45.40625 17.390625 45.40625 27.296875 
Q 45.40625 37.203125 41.296875 42.84375 
Q 37.203125 48.484375 30.078125 48.484375 
Q 22.953125 48.484375 18.875 42.84375 
Q 14.796875 37.203125 14.796875 27.296875 
z
" id="DejaVuSans-100"/>
      </defs>
      <g transform="translate(379.06468 274.718437)scale(0.1 -0.1)">
       <use xlink:href="#DejaVuSans-87"/>
       <use x="98.798828" xlink:href="#DejaVuSans-101"/>
       <use x="160.322266" xlink:href="#DejaVuSans-100"/>
       <use x="223.798828" xlink:href="#DejaVuSans-32"/>
       <use x="255.585938" xlink:href="#DejaVuSans-48"/>
       <use x="319.208984" xlink:href="#DejaVuSans-48"/>
       <use x="382.832031" xlink:href="#DejaVuSans-58"/>
       <use x="416.523438" xlink:href="#DejaVuSans-48"/>
       <use x="480.146484" xlink:href="#DejaVuSans-48"/>
      </g>
     </g>
    </g>
    <g id="xtick_3">
     <g id="line2d_3">
      <g>
       <use style="stroke:#000000;stroke-width:0.8;" x="592.602322" xlink:href="#m84f76b3034" y="260.12"/>
      </g>
     </g>
     <g id="text_3">
      <!-- Thu 00:00 -->
      <defs>
       <path d="M 54.890625 33.015625 
L 54.890625 0 
L 45.90625 0 
L 45.90625 32.71875 
Q 45.90625 40.484375 42.875 44.328125 
Q 39.84375 48.1875 33.796875 48.1875 
Q 26.515625 48.1875 22.3125 43.546875 
Q 18.109375 38.921875 18.109375 30.90625 
L 18.109375 0 
L 9.078125 0 
L 9.078125 75.984375 
L 18.109375 75.984375 
L 18.109375 46.1875 
Q 21.34375 51.125 25.703125 53.5625 
Q 30.078125 56 35.796875 56 
Q 45.21875 56 50.046875 50.171875 
Q 54.890625 44.34375 54.890625 33.015625 
z
" id="DejaVuSans-104"/>
      </defs>
      <g transform="translate(567.212478 274.718437)scale(0.1 -0.1)">
       <use xlink:href="#DejaVuSans-84"/>
       <use x="61.083984" xlink:href="#DejaVuSans-104"/>
       <use x="124.462891" xlink:href="#DejaVuSans-117"/>
       <use x="187.841797" xlink:href="#DejaVuSans-32"/>
       <use x="219.628906" xlink:href="#DejaVuSans-48"/>
       <use x="283.251953" xlink:href="#DejaVuSans-48"/>
       <use x="346.875" xlink:href="#DejaVuSans-58"/>
       <use x="380.566406" xlink:href="#DejaVuSans-48"/>
       <use x="444.189453" xlink:href="#DejaVuSans-48"/>
      </g>
     </g>
    </g>
    <g id="xtick_4">
     <g id="line2d_4">
      <g>
       <use style="stroke:#000000;stroke-width:0.8;" x="778.950902" xlink:href="#m84f76b3034" y="260.12"/>
      </g>
     </g>
     <g id="text_4">
      <!-- Fri 00:00 -->
      <defs>
       <path d="M 9.8125 72.90625 
L 51.703125 72.90625 
L 51.703125 64.59375 
L 19.671875 64.59375 
L 19.671875 43.109375 
L 48.578125 43.109375 
L 48.578125 34.8125 
L 19.671875 34.8125 
L 19.671875 0 
L 9.8125 0 
z
" id="DejaVuSans-70"/>
       <path d="M 41.109375 46.296875 
Q 39.59375 47.171875 37.8125 47.578125 
Q 36.03125 48 33.890625 48 
Q 26.265625 48 22.1875 43.046875 
Q 18.109375 38.09375 18.109375 28.8125 
L 18.109375 0 
L 9.078125 0 
L 9.078125 54.6875 
L 18.109375 54.6875 
L 18.109375 46.1875 
Q 20.953125 51.171875 25.484375 53.578125 
Q 30.03125 56 36.53125 56 
Q 37.453125 56 38.578125 55.875 
Q 39.703125 55.765625 41.0625 55.515625 
z
" id="DejaVuSans-114"/>
       <path d="M 9.421875 54.6875 
L 18.40625 54.6875 
L 18.40625 0 
L 9.421875 0 
z
M 9.421875 75.984375 
L 18.40625 75.984375 
L 18.40625 64.59375 
L 9.421875 64.59375 
z
" id="DejaVuSans-105"/>
      </defs>
      <g transform="translate(756.637621 274.718437)scale(0.1 -0.1)">
       <use xlink:href="#DejaVuSans-70"/>
       <use x="57.410156" xlink:href="#DejaVuSans-114"/>
       <use x="98.523438" xlink:href="#DejaVuSans-105"/>
       <use x="126.306641" xlink:href="#DejaVuSans-32"/>
       <use x="158.09375" xlink:href="#DejaVuSans-48"/>
       <use x="221.716797" xlink:href="#DejaVuSans-48"/>
       <use x="285.339844" xlink:href="#DejaVuSans-58"/>
       <use x="319.03125" xlink:href="#DejaVuSans-48"/>
       <use x="382.654297" xlink:href="#DejaVuSans-48"/>
      </g>
     </g>
    </g>
    <g id="xtick_5">
     <g id="line2d_5">
      <g>
       <use style="stroke:#000000;stroke-width:0.8;" x="965.299482" xlink:href="#m84f76b3034" y="260.12"/>
      </g>
     </g>
     <g id="text_5">
      <!-- Sat 00:00 -->
      <defs>
       <path d="M 53.515625 70.515625 
L 53.515625 60.890625 
Q 47.90625 63.578125 42.921875 64.890625 
Q 37.9375 66.21875 33.296875 66.21875 
Q 25.25 66.21875 20.875 63.09375 
Q 16.5 59.96875 16.5 54.203125 
Q 16.5 49.359375 19.40625 46.890625 
Q 22.3125 44.4375 30.421875 42.921875 
L 36.375 41.703125 
Q 47.40625 39.59375 52.65625 34.296875 
Q 57.90625 29 57.90625 20.125 
Q 57.90625 9.515625 50.796875 4.046875 
Q 43.703125 -1.421875 29.984375 -1.421875 
Q 24.8125 -1.421875 18.96875 -0.25 
Q 13.140625 0.921875 6.890625 3.21875 
L 6.890625 13.375 
Q 12.890625 10.015625 18.65625 8.296875 
Q 24.421875 6.59375 29.984375 6.59375 
Q 38.421875 6.59375 43.015625 9.90625 
Q 47.609375 13.234375 47.609375 19.390625 
Q 47.609375 24.75 44.3125 27.78125 
Q 41.015625 30.8125 33.5 32.328125 
L 27.484375 33.5 
Q 16.453125 35.6875 11.515625 40.375 
Q 6.59375 45.0625 6.59375 53.421875 
Q 6.59375 63.09375 13.40625 68.65625 
Q 20.21875 74.21875 32.171875 74.21875 
Q 37.3125 74.21875 42.625 73.28125 
Q 47.953125 72.359375 53.515625 70.515625 
z
" id="DejaVuSans-83"/>
       <path d="M 34.28125 27.484375 
Q 23.390625 27.484375 19.1875 25 
Q 14.984375 22.515625 14.984375 16.5 
Q 14.984375 11.71875 18.140625 8.90625 
Q 21.296875 6.109375 26.703125 6.109375 
Q 34.1875 6.109375 38.703125 11.40625 
Q 43.21875 16.703125 43.21875 25.484375 
L 43.21875 27.484375 
z
M 52.203125 31.203125 
L 52.203125 0 
L 43.21875 0 
L 43.21875 8.296875 
Q 40.140625 3.328125 35.546875 0.953125 
Q 30.953125 -1.421875 24.3125 -1.421875 
Q 15.921875 -1.421875 10.953125 3.296875 
Q 6 8.015625 6 15.921875 
Q 6 25.140625 12.171875 29.828125 
Q 18.359375 34.515625 30.609375 34.515625 
L 43.21875 34.515625 
L 43.21875 35.40625 
Q 43.21875 41.609375 39.140625 45 
Q 35.0625 48.390625 27.6875 48.390625 
Q 23 48.390625 18.546875 47.265625 
Q 14.109375 46.140625 10.015625 43.890625 
L 10.015625 52.203125 
Q 14.9375 54.109375 19.578125 55.046875 
Q 24.21875 56 28.609375 56 
Q 40.484375 56 46.34375 49.84375 
Q 52.203125 43.703125 52.203125 31.203125 
z
" id="DejaVuSans-97"/>
       <path d="M 18.3125 70.21875 
L 18.3125 54.6875 
L 36.8125 54.6875 
L 36.8125 47.703125 
L 18.3125 47.703125 
L 18.3125 18.015625 
Q 18.3125 11.328125 20.140625 9.421875 
Q 21.96875 7.515625 27.59375 7.515625 
L 36.8125 7.515625 
L 36.8125 0 
L 27.59375 0 
Q 17.1875 0 13.234375 3.875 
Q 9.28125 7.765625 9.28125 18.015625 
L 9.28125 47.703125 
L 2.6875 47.703125 
L 2.6875 54.6875 
L 9.28125 54.6875 
L 9.28125 70.21875 
z
" id="DejaVuSans-116"/>
      </defs>
      <g transform="translate(941.102607 274.718437)scale(0.1 -0.1)">
       <use xlink:href="#DejaVuSans-83"/>
       <use x="63.476562" xlink:href="#DejaVuSans-97"/>
       <use x="124.755859" xlink:href="#DejaVuSans-116"/>
       <use x="163.964844" xlink:href="#DejaVuSans-32"/>
       <use x="195.751953" xlink:href="#DejaVuSans-48"/>
       <use x="259.375" xlink:href="#DejaVuSans-48"/>
       <use x="322.998047" xlink:href="#DejaVuSans-58"/>
       <use x="356.689453" xlink:href="#DejaVuSans-48"/>
       <use x="420.3125" xlink:href="#DejaVuSans-48"/>
      </g>
     </g>
    </g>
   </g>
   <g id="matplotlib.axis_2">
    <g id="ytick_1">
     <g id="line2d_6">
      <defs>
       <path d="M 0 0 
L -3.5 0 
" id="maabfd2dd09" style="stroke:#000000;stroke-width:0.8;"/>
      </defs>
      <g>
       <use style="stroke:#000000;stroke-width:0.8;" x="33.64" xlink:href="#maabfd2dd09" y="260.12"/>
      </g>
     </g>
     <g id="text_6">
      <!-- 0 -->
      <g transform="translate(20.2775 263.919219)scale(0.1 -0.1)">
       <use xlink:href="#DejaVuSans-48"/>
      </g>
     </g>
    </g>
    <g id="ytick_2">
     <g id="line2d_7">
      <g>
       <use style="stroke:#000000;stroke-width:0.8;" x="33.64" xlink:href="#maabfd2dd09" y="232.857778"/>
      </g>
     </g>
     <g id="text_7">
      <!-- 20 -->
      <defs>
       <path d="M 19.1875 8.296875 
L 53.609375 8.296875 
L 53.609375 0 
L 7.328125 0 
L 7.328125 8.296875 
Q 12.9375 14.109375 22.625 23.890625 
Q 32.328125 33.6875 34.8125 36.53125 
Q 39.546875 41.84375 41.421875 45.53125 
Q 43.3125 49.21875 43.3125 52.78125 
Q 43.3125 58.59375 39.234375 62.25 
Q 35.15625 65.921875 28.609375 65.921875 
Q 23.96875 65.921875 18.8125 64.3125 
Q 13.671875 62.703125 7.8125 59.421875 
L 7.8125 69.390625 
Q 13.765625 71.78125 18.9375 73 
Q 24.125 74.21875 28.421875 74.21875 
Q 39.75 74.21875 46.484375 68.546875 
Q 53.21875 62.890625 53.21875 53.421875 
Q 53.21875 48.921875 51.53125 44.890625 
Q 49.859375 40.875 45.40625 35.40625 
Q 44.1875 33.984375 37.640625 27.21875 
Q 31.109375 20.453125 19.1875 8.296875 
z
" id="DejaVuSans-50"/>
      </defs>
      <g transform="translate(13.915 236.656997)scale(0.1 -0.1)">
       <use xlink:href="#DejaVuSans-50"/>
       <use x="63.623047" xlink:href="#DejaVuSans-48"/>
      </g>
     </g>
    </g>
    <g id="ytick_3">
     <g id="line2d_8">
      <g>
       <use style="stroke:#000000;stroke-width:0.8;" x="33.64" xlink:href="#maabfd2dd09" y="205.595556"/>
      </g>
     </g>
     <g id="text_8">
      <!-- 40 -->
      <defs>
       <path d="M 37.796875 64.3125 
L 12.890625 25.390625 
L 37.796875 25.390625 
z
M 35.203125 72.90625 
L 47.609375 72.90625 
L 47.609375 25.390625 
L 58.015625 25.390625 
L 58.015625 17.1875 
L 47.609375 17.1875 
L 47.609375 0 
L 37.796875 0 
L 37.796875 17.1875 
L 4.890625 17.1875 
L 4.890625 26.703125 
z
" id="DejaVuSans-52"/>
      </defs>
      <g transform="translate(13.915 209.394774)scale(0.1 -0.1)">
       <use xlink:href="#DejaVuSans-52"/>
       <use x="63.623047" xlink:href="#DejaVuSans-48"/>
      </g>
     </g>
    </g>
    <g id="ytick_4">
     <g id="line2d_9">
      <g>
       <use style="stroke:#000000;stroke-width:0.8;" x="33.64" xlink:href="#maabfd2dd09" y="178.333333"/>
      </g>
     </g>
     <g id="text_9">
      <!-- 60 -->
      <defs>
       <path d="M 33.015625 40.375 
Q 26.375 40.375 22.484375 35.828125 
Q 18.609375 31.296875 18.609375 23.390625 
Q 18.609375 15.53125 22.484375 10.953125 
Q 26.375 6.390625 33.015625 6.390625 
Q 39.65625 6.390625 43.53125 10.953125 
Q 47.40625 15.53125 47.40625 23.390625 
Q 47.40625 31.296875 43.53125 35.828125 
Q 39.65625 40.375 33.015625 40.375 
z
M 52.59375 71.296875 
L 52.59375 62.3125 
Q 48.875 64.0625 45.09375 64.984375 
Q 41.3125 65.921875 37.59375 65.921875 
Q 27.828125 65.921875 22.671875 59.328125 
Q 17.53125 52.734375 16.796875 39.40625 
Q 19.671875 43.65625 24.015625 45.921875 
Q 28.375 48.1875 33.59375 48.1875 
Q 44.578125 48.1875 50.953125 41.515625 
Q 57.328125 34.859375 57.328125 23.390625 
Q 57.328125 12.15625 50.6875 5.359375 
Q 44.046875 -1.421875 33.015625 -1.421875 
Q 20.359375 -1.421875 13.671875 8.265625 
Q 6.984375 17.96875 6.984375 36.375 
Q 6.984375 53.65625 15.1875 63.9375 
Q 23.390625 74.21875 37.203125 74.21875 
Q 40.921875 74.21875 44.703125 73.484375 
Q 48.484375 72.75 52.59375 71.296875 
z
" id="DejaVuSans-54"/>
      </defs>
      <g transform="translate(13.915 182.132552)scale(0.1 -0.1)">
       <use xlink:href="#DejaVuSans-54"/>
       <use x="63.623047" xlink:href="#DejaVuSans-48"/>
      </g>
     </g>
    </g>
    <g id="ytick_5">
     <g id="line2d_10">
      <g>
       <use style="stroke:#000000;stroke-width:0.8;" x="33.64" xlink:href="#maabfd2dd09" y="151.071111"/>
      </g>
     </g>
     <g id="text_10">
      <!-- 80 -->
      <defs>
       <path d="M 31.78125 34.625 
Q 24.75 34.625 20.71875 30.859375 
Q 16.703125 27.09375 16.703125 20.515625 
Q 16.703125 13.921875 20.71875 10.15625 
Q 24.75 6.390625 31.78125 6.390625 
Q 38.8125 6.390625 42.859375 10.171875 
Q 46.921875 13.96875 46.921875 20.515625 
Q 46.921875 27.09375 42.890625 30.859375 
Q 38.875 34.625 31.78125 34.625 
z
M 21.921875 38.8125 
Q 15.578125 40.375 12.03125 44.71875 
Q 8.5 49.078125 8.5 55.328125 
Q 8.5 64.0625 14.71875 69.140625 
Q 20.953125 74.21875 31.78125 74.21875 
Q 42.671875 74.21875 48.875 69.140625 
Q 55.078125 64.0625 55.078125 55.328125 
Q 55.078125 49.078125 51.53125 44.71875 
Q 48 40.375 41.703125 38.8125 
Q 48.828125 37.15625 52.796875 32.3125 
Q 56.78125 27.484375 56.78125 20.515625 
Q 56.78125 9.90625 50.3125 4.234375 
Q 43.84375 -1.421875 31.78125 -1.421875 
Q 19.734375 -1.421875 13.25 4.234375 
Q 6.78125 9.90625 6.78125 20.515625 
Q 6.78125 27.484375 10.78125 32.3125 
Q 14.796875 37.15625 21.921875 38.8125 
z
M 18.3125 54.390625 
Q 18.3125 48.734375 21.84375 45.5625 
Q 25.390625 42.390625 31.78125 42.390625 
Q 38.140625 42.390625 41.71875 45.5625 
Q 45.3125 48.734375 45.3125 54.390625 
Q 45.3125 60.0625 41.71875 63.234375 
Q 38.140625 66.40625 31.78125 66.40625 
Q 25.390625 66.40625 21.84375 63.234375 
Q 18.3125 60.0625 18.3125 54.390625 
z
" id="DejaVuSans-56"/>
      </defs>
      <g transform="translate(13.915 154.87033)scale(0.1 -0.1)">
       <use xlink:href="#DejaVuSans-56"/>
       <use x="63.623047" xlink:href="#DejaVuSans-48"/>
      </g>
     </g>
    </g>
    <g id="ytick_6">
     <g id="line2d_11">
      <g>
       <use style="stroke:#000000;stroke-width:0.8;" x="33.64" xlink:href="#maabfd2dd09" y="123.808889"/>
      </g>
     </g>
     <g id="text_11">
      <!-- 100 -->
      <defs>
       <path d="M 12.40625 8.296875 
L 28.515625 8.296875 
L 28.515625 63.921875 
L 10.984375 60.40625 
L 10.984375 69.390625 
L 28.421875 72.90625 
L 38.28125 72.90625 
L 38.28125 8.296875 
L 54.390625 8.296875 
L 54.390625 0 
L 12.40625 0 
z
" id="DejaVuSans-49"/>
      </defs>
      <g transform="translate(7.5525 127.608108)scale(0.1 -0.1)">
       <use xlink:href="#DejaVuSans-49"/>
       <use x="63.623047" xlink:href="#DejaVuSans-48"/>
       <use x="127.246094" xlink:href="#DejaVuSans-48"/>
      </g>
     </g>
    </g>
    <g id="ytick_7">
     <g id="line2d_12">
      <g>
       <use style="stroke:#000000;stroke-width:0.8;" x="33.64" xlink:href="#maabfd2dd09" y="96.546667"/>
      </g>
     </g>
     <g id="text_12">
      <!-- 120 -->
      <g transform="translate(7.5525 100.345885)scale(0.1 -0.1)">
       <use xlink:href="#DejaVuSans-49"/>
       <use x="63.623047" xlink:href="#DejaVuSans-50"/>
       <use x="127.246094" xlink:href="#DejaVuSans-48"/>
      </g>
     </g>
    </g>
    <g id="ytick_8">
     <g id="line2d_13">
      <g>
       <use style="stroke:#000000;stroke-width:0.8;" x="33.64" xlink:href="#maabfd2dd09" y="69.284444"/>
      </g>
     </g>
     <g id="text_13">
      <!-- 140 -->
      <g transform="translate(7.5525 73.083663)scale(0.1 -0.1)">
       <use xlink:href="#DejaVuSans-49"/>
       <use x="63.623047" xlink:href="#DejaVuSans-52"/>
       <use x="127.246094" xlink:href="#DejaVuSans-48"/>
      </g>
     </g>
    </g>
    <g id="ytick_9">
     <g id="line2d_14">
      <g>
       <use style="stroke:#000000;stroke-width:0.8;" x="33.64" xlink:href="#maabfd2dd09" y="42.022222"/>
      </g>
     </g>
     <g id="text_14">
      <!-- 160 -->
      <g transform="translate(7.5525 45.821441)scale(0.1 -0.1)">
       <use xlink:href="#DejaVuSans-49"/>
       <use x="63.623047" xlink:href="#DejaVuSans-54"/>
       <use x="127.246094" xlink:href="#DejaVuSans-48"/>
      </g>
     </g>
    </g>
    <g id="ytick_10">
     <g id="line2d_15">
      <g>
       <use style="stroke:#000000;stroke-width:0.8;" x="33.64" xlink:href="#maabfd2dd09" y="14.76"/>
      </g>
     </g>
     <g id="text_15">
      <!-- 180 -->
      <g transform="translate(7.5525 18.559219)scale(0.1 -0.1)">
       <use xlink:href="#DejaVuSans-49"/>
       <use x="63.623047" xlink:href="#DejaVuSans-56"/>
       <use x="127.246094" xlink:href="#DejaVuSans-48"/>
      </g>
     </g>
    </g>
   </g>
   <g id="line2d_16">
    <path clip-path="url(#p9ca5448d17)" d="M 33.64 260.12 
L 103.040015 260.12 
L 104.349351 257.393778 
L 105.684339 257.393778 
L 107.015015 253.304444 
L 108.345458 251.941333 
L 109.679002 249.215111 
L 111.01082 249.215111 
L 112.344515 246.488889 
L 113.676463 242.399556 
L 115.007572 242.399556 
L 116.339349 236.947111 
L 117.672812 235.584 
L 119.00548 235.584 
L 120.339043 232.857778 
L 121.669556 228.768444 
L 124.332811 228.768444 
L 125.663531 224.679111 
L 126.995688 221.952889 
L 128.327857 221.952889 
L 129.66242 219.226667 
L 130.994769 219.226667 
L 132.328059 221.952889 
L 133.658471 228.768444 
L 136.31911 228.768444 
L 138.980422 239.673333 
L 140.315383 239.673333 
L 141.647994 238.310222 
L 142.981784 235.584 
L 144.312187 235.584 
L 145.642702 227.405333 
L 146.972829 226.042222 
L 148.303892 223.316 
L 149.634329 223.316 
L 150.96757 221.952889 
L 153.629666 221.952889 
L 154.962705 209.684889 
L 156.293148 209.684889 
L 157.624866 208.321778 
L 158.955836 198.78 
L 160.28994 197.416889 
L 161.620862 197.416889 
L 162.951738 191.964444 
L 165.613918 191.964444 
L 166.947439 187.875111 
L 168.277967 189.238222 
L 169.608839 189.238222 
L 170.939596 174.244 
L 172.270891 166.065333 
L 173.602777 166.065333 
L 174.936001 141.529333 
L 176.269918 126.535111 
L 177.602376 126.535111 
L 181.601826 63.832 
L 182.935579 63.832 
L 184.268965 61.105778 
L 185.602189 61.105778 
L 186.935872 57.016444 
L 188.270502 76.1 
L 189.604872 84.278667 
L 190.938654 84.278667 
L 192.270125 87.004889 
L 194.932017 87.004889 
L 196.263677 92.457333 
L 197.594765 100.636 
L 198.928017 101.999111 
L 200.261295 101.999111 
L 201.592341 116.993333 
L 202.923646 116.993333 
L 204.255598 133.350667 
L 205.5871 157.886667 
L 206.918844 166.065333 
L 208.251042 166.065333 
L 209.58211 176.970222 
L 210.913638 190.601333 
L 213.579278 190.601333 
L 214.911189 260.12 
L 289.637614 260.12 
L 290.946978 258.756889 
L 292.278637 245.125778 
L 293.609503 245.125778 
L 294.939582 236.947111 
L 296.27363 236.947111 
L 297.604724 232.857778 
L 298.935597 227.405333 
L 300.266432 227.405333 
L 301.598614 224.679111 
L 302.931333 223.316 
L 306.929034 223.316 
L 308.259848 227.405333 
L 309.593751 227.405333 
L 310.930322 234.220889 
L 312.26115 235.584 
L 314.927353 235.584 
L 316.260798 232.857778 
L 317.593239 232.857778 
L 318.923768 228.768444 
L 320.254617 234.220889 
L 321.584746 231.494667 
L 322.919544 231.494667 
L 324.250105 232.857778 
L 325.580622 230.131556 
L 326.911589 230.131556 
L 328.242302 228.768444 
L 330.906057 215.137333 
L 332.237513 215.137333 
L 333.568857 204.232444 
L 334.899572 204.232444 
L 336.231194 208.321778 
L 337.561779 204.232444 
L 338.892126 204.232444 
L 340.222525 202.869333 
L 341.552936 206.958667 
L 342.886003 206.958667 
L 344.227522 201.506222 
L 345.560116 202.869333 
L 346.890915 193.327556 
L 348.222265 193.327556 
L 349.554564 179.696444 
L 350.888443 168.791556 
L 352.220508 168.791556 
L 353.554741 152.434222 
L 354.888792 130.624444 
L 356.21906 121.082667 
L 357.551239 121.082667 
L 358.882193 104.725333 
L 360.213766 99.272889 
L 361.544979 99.272889 
L 362.876944 82.915556 
L 364.209989 82.915556 
L 365.541057 69.284444 
L 366.873296 63.832 
L 368.20507 51.564 
L 369.536906 51.564 
L 370.867873 58.379556 
L 372.199739 37.932889 
L 373.532699 37.932889 
L 374.863416 46.111556 
L 376.195113 32.480444 
L 377.526805 32.480444 
L 378.858474 36.569778 
L 380.188914 31.117333 
L 381.520786 31.117333 
L 382.85272 29.754222 
L 384.186223 44.748444 
L 385.517885 63.832 
L 386.849832 63.832 
L 388.181297 77.463111 
L 389.515371 92.457333 
L 390.846384 92.457333 
L 392.177686 101.999111 
L 393.509339 108.814667 
L 394.84057 108.814667 
L 396.173114 134.713778 
L 397.504993 136.076889 
L 398.836253 136.076889 
L 400.168286 142.892444 
L 401.499912 260.12 
L 476.225596 260.12 
L 477.556721 258.756889 
L 478.887801 246.488889 
L 480.221073 246.488889 
L 481.55148 235.584 
L 482.882422 228.768444 
L 484.214085 220.589778 
L 485.544876 220.589778 
L 486.876894 215.137333 
L 488.210066 215.137333 
L 490.874633 204.232444 
L 492.207918 211.048 
L 493.539854 211.048 
L 496.203627 205.595556 
L 497.534957 205.595556 
L 498.866791 211.048 
L 500.19858 211.048 
L 501.532003 224.679111 
L 502.863145 224.679111 
L 504.194824 220.589778 
L 505.526152 220.589778 
L 506.862375 223.316 
L 508.193597 221.952889 
L 509.52756 221.952889 
L 510.860399 227.405333 
L 512.192045 223.316 
L 513.523698 223.316 
L 516.190307 215.137333 
L 517.52326 215.137333 
L 518.856515 212.411111 
L 520.188584 211.048 
L 521.520474 205.595556 
L 522.851833 205.595556 
L 524.184289 201.506222 
L 525.515771 200.143111 
L 526.847208 200.143111 
L 528.178981 197.416889 
L 529.510951 198.78 
L 530.842865 198.78 
L 532.174487 189.238222 
L 533.506073 183.785778 
L 534.838508 174.244 
L 536.169017 175.607111 
L 537.505547 172.880889 
L 538.837723 172.880889 
L 540.170433 167.428444 
L 541.506004 152.434222 
L 542.836886 144.255556 
L 544.167605 144.255556 
L 545.499415 121.082667 
L 546.831749 103.362222 
L 548.164003 103.362222 
L 549.498328 76.1 
L 550.829801 54.290222 
L 552.15999 54.290222 
L 553.490706 35.206667 
L 554.825286 32.480444 
L 556.156073 32.480444 
L 557.487048 28.391111 
L 558.82016 39.296 
L 560.154154 39.296 
L 561.484453 40.659111 
L 562.818035 54.290222 
L 564.15551 63.832 
L 565.487748 63.832 
L 568.154679 108.814667 
L 569.489236 108.814667 
L 570.822475 126.535111 
L 572.154825 141.529333 
L 573.486911 160.612889 
L 574.819046 160.612889 
L 576.150331 172.880889 
L 577.482178 172.880889 
L 578.815901 189.238222 
L 581.480791 200.143111 
L 582.813025 200.143111 
L 584.145674 201.506222 
L 589.472607 201.506222 
L 590.805211 260.12 
L 661.569608 260.12 
L 662.879315 257.393778 
L 664.210577 257.393778 
L 665.544199 249.215111 
L 666.87483 249.215111 
L 668.205073 247.852 
L 669.53532 239.673333 
L 672.19736 239.673333 
L 674.861943 234.220889 
L 676.192522 234.220889 
L 677.523502 238.310222 
L 678.854769 239.673333 
L 680.184971 239.673333 
L 682.846978 236.947111 
L 684.177741 236.947111 
L 685.509032 235.584 
L 686.840141 231.494667 
L 688.170358 232.857778 
L 690.835608 232.857778 
L 692.166104 234.220889 
L 693.498098 234.220889 
L 694.828451 227.405333 
L 696.159853 223.316 
L 697.490722 223.316 
L 698.824182 217.863556 
L 701.486421 217.863556 
L 702.817434 215.137333 
L 704.149547 217.863556 
L 705.483285 217.863556 
L 706.814956 228.768444 
L 708.148957 226.042222 
L 709.482156 219.226667 
L 710.813104 219.226667 
L 712.144899 215.137333 
L 713.478382 209.684889 
L 714.810954 209.684889 
L 716.14216 206.958667 
L 717.478024 206.958667 
L 718.811443 201.506222 
L 720.142756 204.232444 
L 721.476183 190.601333 
L 722.807533 190.601333 
L 724.139248 171.517778 
L 725.471722 161.976 
L 726.804677 161.976 
L 728.138052 144.255556 
L 729.47025 122.445778 
L 730.803597 122.445778 
L 732.135218 100.636 
L 733.466971 101.999111 
L 734.798794 91.094222 
L 736.131981 91.094222 
L 737.463347 88.368 
L 738.794937 72.010667 
L 740.126639 72.010667 
L 741.45849 50.200889 
L 742.790661 35.206667 
L 744.122637 35.206667 
L 745.454444 40.659111 
L 746.78598 31.117333 
L 748.118025 31.117333 
L 749.450068 39.296 
L 750.782491 50.200889 
L 752.113618 50.200889 
L 753.445393 51.564 
L 756.108973 67.921333 
L 760.103491 67.921333 
L 761.435537 87.004889 
L 762.767974 96.546667 
L 764.100522 96.546667 
L 765.431955 127.898222 
L 766.763385 146.981778 
L 768.096898 163.339111 
L 769.428476 163.339111 
L 770.760216 168.791556 
L 772.092525 176.970222 
L 773.424674 179.696444 
L 777.41966 179.696444 
L 778.751223 260.12 
L 848.207081 260.12 
L 849.516043 257.393778 
L 850.847234 257.393778 
L 852.177695 243.762667 
L 853.508713 223.316 
L 854.842095 216.500444 
L 856.172748 216.500444 
L 857.506192 208.321778 
L 860.171012 208.321778 
L 861.504265 197.416889 
L 864.171226 197.416889 
L 865.50563 193.327556 
L 869.500384 193.327556 
L 870.832298 189.238222 
L 872.164647 189.238222 
L 873.496689 191.964444 
L 874.82827 198.78 
L 876.159867 198.78 
L 877.491713 194.690667 
L 881.486539 194.690667 
L 882.816735 196.053778 
L 884.148174 196.053778 
L 885.480342 190.601333 
L 886.811178 200.143111 
L 888.142987 200.143111 
L 890.80458 202.869333 
L 892.135687 196.053778 
L 893.467278 196.053778 
L 894.798658 194.690667 
L 896.130293 197.416889 
L 897.462892 197.416889 
L 898.796093 190.601333 
L 900.128439 194.690667 
L 901.460215 194.690667 
L 902.791951 186.512 
L 904.124241 185.148889 
L 905.454636 185.148889 
L 906.785201 189.238222 
L 908.118665 182.422667 
L 909.449433 174.244 
L 910.780926 174.244 
L 912.111935 191.964444 
L 913.443626 191.964444 
L 914.775524 181.059556 
L 916.108181 164.702222 
L 917.439474 146.981778 
L 918.773407 146.981778 
L 920.104815 133.350667 
L 921.436607 130.624444 
L 922.767395 130.624444 
L 924.098445 140.166222 
L 925.429695 137.44 
L 926.762919 131.987556 
L 928.094436 131.987556 
L 929.425227 123.808889 
L 930.758956 123.808889 
L 932.092648 108.814667 
L 933.424468 101.999111 
L 934.755079 97.909778 
L 936.089749 97.909778 
L 937.421229 96.546667 
L 938.751721 96.546667 
L 940.082817 95.183556 
L 941.414371 104.725333 
L 942.745234 119.719556 
L 944.075953 119.719556 
L 945.407096 121.082667 
L 946.737753 123.808889 
L 948.068016 123.808889 
L 949.399079 134.713778 
L 950.729565 140.166222 
L 952.060735 140.166222 
L 953.391531 155.160444 
L 954.722075 161.976 
L 956.056139 161.976 
L 957.387134 163.339111 
L 958.720639 167.428444 
L 960.054583 167.428444 
L 961.388924 179.696444 
L 962.722902 260.12 
L 1037.419531 260.12 
L 1038.749582 250.578222 
L 1040.080295 246.488889 
L 1041.413272 238.310222 
L 1042.746346 238.310222 
L 1045.40751 224.679111 
L 1046.739399 224.679111 
L 1048.069761 220.589778 
L 1049.400761 211.048 
L 1050.731734 211.048 
L 1052.062503 206.958667 
L 1053.39267 200.143111 
L 1054.722837 200.143111 
L 1056.053116 191.964444 
L 1057.383144 186.512 
L 1058.712909 186.512 
L 1061.374133 178.333333 
L 1062.704734 171.517778 
L 1064.034868 171.517778 
L 1065.367723 164.702222 
L 1066.697559 164.702222 
L 1068.030349 163.339111 
L 1069.361621 151.071111 
L 1070.693661 153.797333 
L 1072.024746 153.797333 
L 1073.354809 148.344889 
L 1074.68776 146.981778 
L 1076.020899 146.981778 
L 1077.351688 149.708 
L 1078.684725 153.797333 
L 1080.014524 166.065333 
L 1081.345324 166.065333 
L 1082.675718 171.517778 
L 1084.006957 171.517778 
L 1085.338201 178.333333 
L 1086.668753 176.970222 
L 1089.332275 176.970222 
L 1090.662432 178.333333 
L 1091.995988 187.875111 
L 1093.326781 187.875111 
L 1094.656666 178.333333 
L 1095.987753 178.333333 
L 1097.320292 166.065333 
L 1098.65164 176.970222 
L 1099.98411 174.244 
L 1102.646326 174.244 
L 1103.976016 166.065333 
L 1105.308868 166.065333 
L 1106.642271 170.154667 
L 1107.974496 168.791556 
L 1109.307027 171.517778 
L 1110.639108 171.517778 
L 1111.971622 157.886667 
L 1113.301477 167.428444 
L 1114.634204 167.428444 
L 1115.964733 164.702222 
L 1117.297759 164.702222 
L 1118.629083 156.523556 
L 1119.95943 202.869333 
L 1121.292999 202.869333 
L 1122.624329 194.690667 
L 1123.956916 191.964444 
L 1125.290262 197.416889 
L 1126.622934 197.416889 
L 1129.284614 202.869333 
L 1130.617153 209.684889 
L 1131.947155 209.684889 
L 1133.28 208.321778 
L 1133.28 208.321778 
" style="fill:none;stroke:#1f77b4;stroke-linecap:square;stroke-width:1.5;"/>
   </g>
   <g id="patch_3">
    <path d="M 33.64 260.12 
L 33.64 14.76 
" style="fill:none;stroke:#000000;stroke-linecap:square;stroke-linejoin:miter;stroke-width:0.8;"/>
   </g>
   <g id="patch_4">
    <path d="M 1133.28 260.12 
L 1133.28 14.76 
" style="fill:none;stroke:#000000;stroke-linecap:square;stroke-linejoin:miter;stroke-width:0.8;"/>
   </g>
   <g id="patch_5">
    <path d="M 33.64 260.12 
L 1133.28 260.12 
" style="fill:none;stroke:#000000;stroke-linecap:square;stroke-linejoin:miter;stroke-width:0.8;"/>
   </g>
   <g id="patch_6">
    <path d="M 33.64 14.76 
L 1133.28 14.76 
" style="fill:none;stroke:#000000;stroke-linecap:square;stroke-linejoin:miter;stroke-width:0.8;"/>
   </g>
  </g>
 </g>
 <defs>
  <clipPath id="p9ca5448d17">
   <rect height="245.36" width="1099.64" x="33.64" y="14.76"/>
  </clipPath>
 </defs>
</svg>
