<?xml version="1.0" encoding="utf-8" standalone="no"?>
<!DOCTYPE svg PUBLIC "-//W3C//DTD SVG 1.1//EN"
  "http://www.w3.org/Graphics/SVG/1.1/DTD/svg11.dtd">
<!-- Created with matplotlib (https://matplotlib.org/) -->
<svg height="288pt" version="1.1" viewBox="0 0 1152 288" width="1152pt" xmlns="http://www.w3.org/2000/svg" xmlns:xlink="http://www.w3.org/1999/xlink">
 <defs>
  <style type="text/css">
*{stroke-linecap:butt;stroke-linejoin:round;}
  </style>
 </defs>
 <g id="figure_1">
  <g id="patch_1">
   <path d="M 0 288 
L 1152 288 
L 1152 0 
L 0 0 
z
" style="fill:#ffffff;"/>
  </g>
  <g id="axes_1">
   <g id="patch_2">
    <path d="M 33.64 260.12 
L 1133.28 260.12 
L 1133.28 14.76 
L 33.64 14.76 
z
" style="fill:#ffffff;"/>
   </g>
   <g id="matplotlib.axis_1">
    <g id="xtick_1">
     <g id="line2d_1">
      <defs>
       <path d="M 0 0 
L 0 3.5 
" id="m00290462e9" style="stroke:#000000;stroke-width:0.8;"/>
      </defs>
      <g>
       <use style="stroke:#000000;stroke-width:0.8;" x="221.284296" xlink:href="#m00290462e9" y="260.12"/>
      </g>
     </g>
     <g id="text_1">
      <!-- Tue 00:00 -->
      <defs>
       <path d="M -0.296875 72.90625 
L 61.375 72.90625 
L 61.375 64.59375 
L 35.5 64.59375 
L 35.5 0 
L 25.59375 0 
L 25.59375 64.59375 
L -0.296875 64.59375 
z
" id="DejaVuSans-84"/>
       <path d="M 8.5 21.578125 
L 8.5 54.6875 
L 17.484375 54.6875 
L 17.484375 21.921875 
Q 17.484375 14.15625 20.5 10.265625 
Q 23.53125 6.390625 29.59375 6.390625 
Q 36.859375 6.390625 41.078125 11.03125 
Q 45.3125 15.671875 45.3125 23.6875 
L 45.3125 54.6875 
L 54.296875 54.6875 
L 54.296875 0 
L 45.3125 0 
L 45.3125 8.40625 
Q 42.046875 3.421875 37.71875 1 
Q 33.40625 -1.421875 27.6875 -1.421875 
Q 18.265625 -1.421875 13.375 4.4375 
Q 8.5 10.296875 8.5 21.578125 
z
M 31.109375 56 
z
" id="DejaVuSans-117"/>
       <path d="M 56.203125 29.59375 
L 56.203125 25.203125 
L 14.890625 25.203125 
Q 15.484375 15.921875 20.484375 11.0625 
Q 25.484375 6.203125 34.421875 6.203125 
Q 39.59375 6.203125 44.453125 7.46875 
Q 49.3125 8.734375 54.109375 11.28125 
L 54.109375 2.78125 
Q 49.265625 0.734375 44.1875 -0.34375 
Q 39.109375 -1.421875 33.890625 -1.421875 
Q 20.796875 -1.421875 13.15625 6.1875 
Q 5.515625 13.8125 5.515625 26.8125 
Q 5.515625 40.234375 12.765625 48.109375 
Q 20.015625 56 32.328125 56 
Q 43.359375 56 49.78125 48.890625 
Q 56.203125 41.796875 56.203125 29.59375 
z
M 47.21875 32.234375 
Q 47.125 39.59375 43.09375 43.984375 
Q 39.0625 48.390625 32.421875 48.390625 
Q 24.90625 48.390625 20.390625 44.140625 
Q 15.875 39.890625 15.1875 32.171875 
z
" id="DejaVuSans-101"/>
       <path id="DejaVuSans-32"/>
       <path d="M 31.78125 66.40625 
Q 24.171875 66.40625 20.328125 58.90625 
Q 16.5 51.421875 16.5 36.375 
Q 16.5 21.390625 20.328125 13.890625 
Q 24.171875 6.390625 31.78125 6.390625 
Q 39.453125 6.390625 43.28125 13.890625 
Q 47.125 21.390625 47.125 36.375 
Q 47.125 51.421875 43.28125 58.90625 
Q 39.453125 66.40625 31.78125 66.40625 
z
M 31.78125 74.21875 
Q 44.046875 74.21875 50.515625 64.515625 
Q 56.984375 54.828125 56.984375 36.375 
Q 56.984375 17.96875 50.515625 8.265625 
Q 44.046875 -1.421875 31.78125 -1.421875 
Q 19.53125 -1.421875 13.0625 8.265625 
Q 6.59375 17.96875 6.59375 36.375 
Q 6.59375 54.828125 13.0625 64.515625 
Q 19.53125 74.21875 31.78125 74.21875 
z
" id="DejaVuSans-48"/>
       <path d="M 11.71875 12.40625 
L 22.015625 12.40625 
L 22.015625 0 
L 11.71875 0 
z
M 11.71875 51.703125 
L 22.015625 51.703125 
L 22.015625 39.3125 
L 11.71875 39.3125 
z
" id="DejaVuSans-58"/>
      </defs>
      <g transform="translate(195.998359 274.718437)scale(0.1 -0.1)">
       <use xlink:href="#DejaVuSans-84"/>
       <use x="60.849609" xlink:href="#DejaVuSans-117"/>
       <use x="124.228516" xlink:href="#DejaVuSans-101"/>
       <use x="185.751953" xlink:href="#DejaVuSans-32"/>
       <use x="217.539062" xlink:href="#DejaVuSans-48"/>
       <use x="281.162109" xlink:href="#DejaVuSans-48"/>
       <use x="344.785156" xlink:href="#DejaVuSans-58"/>
       <use x="378.476562" xlink:href="#DejaVuSans-48"/>
       <use x="442.099609" xlink:href="#DejaVuSans-48"/>
      </g>
     </g>
    </g>
    <g id="xtick_2">
     <g id="line2d_2">
      <g>
       <use style="stroke:#000000;stroke-width:0.8;" x="409.611528" xlink:href="#m00290462e9" y="260.12"/>
      </g>
     </g>
     <g id="text_2">
      <!-- Wed 00:00 -->
      <defs>
       <path d="M 3.328125 72.90625 
L 13.28125 72.90625 
L 28.609375 11.28125 
L 43.890625 72.90625 
L 54.984375 72.90625 
L 70.3125 11.28125 
L 85.59375 72.90625 
L 95.609375 72.90625 
L 77.296875 0 
L 64.890625 0 
L 49.515625 63.28125 
L 33.984375 0 
L 21.578125 0 
z
" id="DejaVuSans-87"/>
       <path d="M 45.40625 46.390625 
L 45.40625 75.984375 
L 54.390625 75.984375 
L 54.390625 0 
L 45.40625 0 
L 45.40625 8.203125 
Q 42.578125 3.328125 38.25 0.953125 
Q 33.9375 -1.421875 27.875 -1.421875 
Q 17.96875 -1.421875 11.734375 6.484375 
Q 5.515625 14.40625 5.515625 27.296875 
Q 5.515625 40.1875 11.734375 48.09375 
Q 17.96875 56 27.875 56 
Q 33.9375 56 38.25 53.625 
Q 42.578125 51.265625 45.40625 46.390625 
z
M 14.796875 27.296875 
Q 14.796875 17.390625 18.875 11.75 
Q 22.953125 6.109375 30.078125 6.109375 
Q 37.203125 6.109375 41.296875 11.75 
Q 45.40625 17.390625 45.40625 27.296875 
Q 45.40625 37.203125 41.296875 42.84375 
Q 37.203125 48.484375 30.078125 48.484375 
Q 22.953125 48.484375 18.875 42.84375 
Q 14.796875 37.203125 14.796875 27.296875 
z
" id="DejaVuSans-100"/>
      </defs>
      <g transform="translate(382.422466 274.718437)scale(0.1 -0.1)">
       <use xlink:href="#DejaVuSans-87"/>
       <use x="98.798828" xlink:href="#DejaVuSans-101"/>
       <use x="160.322266" xlink:href="#DejaVuSans-100"/>
       <use x="223.798828" xlink:href="#DejaVuSans-32"/>
       <use x="255.585938" xlink:href="#DejaVuSans-48"/>
       <use x="319.208984" xlink:href="#DejaVuSans-48"/>
       <use x="382.832031" xlink:href="#DejaVuSans-58"/>
       <use x="416.523438" xlink:href="#DejaVuSans-48"/>
       <use x="480.146484" xlink:href="#DejaVuSans-48"/>
      </g>
     </g>
    </g>
    <g id="xtick_3">
     <g id="line2d_3">
      <g>
       <use style="stroke:#000000;stroke-width:0.8;" x="597.938761" xlink:href="#m00290462e9" y="260.12"/>
      </g>
     </g>
     <g id="text_3">
      <!-- Thu 00:00 -->
      <defs>
       <path d="M 54.890625 33.015625 
L 54.890625 0 
L 45.90625 0 
L 45.90625 32.71875 
Q 45.90625 40.484375 42.875 44.328125 
Q 39.84375 48.1875 33.796875 48.1875 
Q 26.515625 48.1875 22.3125 43.546875 
Q 18.109375 38.921875 18.109375 30.90625 
L 18.109375 0 
L 9.078125 0 
L 9.078125 75.984375 
L 18.109375 75.984375 
L 18.109375 46.1875 
Q 21.34375 51.125 25.703125 53.5625 
Q 30.078125 56 35.796875 56 
Q 45.21875 56 50.046875 50.171875 
Q 54.890625 44.34375 54.890625 33.015625 
z
" id="DejaVuSans-104"/>
      </defs>
      <g transform="translate(572.548917 274.718437)scale(0.1 -0.1)">
       <use xlink:href="#DejaVuSans-84"/>
       <use x="61.083984" xlink:href="#DejaVuSans-104"/>
       <use x="124.462891" xlink:href="#DejaVuSans-117"/>
       <use x="187.841797" xlink:href="#DejaVuSans-32"/>
       <use x="219.628906" xlink:href="#DejaVuSans-48"/>
       <use x="283.251953" xlink:href="#DejaVuSans-48"/>
       <use x="346.875" xlink:href="#DejaVuSans-58"/>
       <use x="380.566406" xlink:href="#DejaVuSans-48"/>
       <use x="444.189453" xlink:href="#DejaVuSans-48"/>
      </g>
     </g>
    </g>
    <g id="xtick_4">
     <g id="line2d_4">
      <g>
       <use style="stroke:#000000;stroke-width:0.8;" x="786.265993" xlink:href="#m00290462e9" y="260.12"/>
      </g>
     </g>
     <g id="text_4">
      <!-- Fri 00:00 -->
      <defs>
       <path d="M 9.8125 72.90625 
L 51.703125 72.90625 
L 51.703125 64.59375 
L 19.671875 64.59375 
L 19.671875 43.109375 
L 48.578125 43.109375 
L 48.578125 34.8125 
L 19.671875 34.8125 
L 19.671875 0 
L 9.8125 0 
z
" id="DejaVuSans-70"/>
       <path d="M 41.109375 46.296875 
Q 39.59375 47.171875 37.8125 47.578125 
Q 36.03125 48 33.890625 48 
Q 26.265625 48 22.1875 43.046875 
Q 18.109375 38.09375 18.109375 28.8125 
L 18.109375 0 
L 9.078125 0 
L 9.078125 54.6875 
L 18.109375 54.6875 
L 18.109375 46.1875 
Q 20.953125 51.171875 25.484375 53.578125 
Q 30.03125 56 36.53125 56 
Q 37.453125 56 38.578125 55.875 
Q 39.703125 55.765625 41.0625 55.515625 
z
" id="DejaVuSans-114"/>
       <path d="M 9.421875 54.6875 
L 18.40625 54.6875 
L 18.40625 0 
L 9.421875 0 
z
M 9.421875 75.984375 
L 18.40625 75.984375 
L 18.40625 64.59375 
L 9.421875 64.59375 
z
" id="DejaVuSans-105"/>
      </defs>
      <g transform="translate(763.952712 274.718437)scale(0.1 -0.1)">
       <use xlink:href="#DejaVuSans-70"/>
       <use x="57.410156" xlink:href="#DejaVuSans-114"/>
       <use x="98.523438" xlink:href="#DejaVuSans-105"/>
       <use x="126.306641" xlink:href="#DejaVuSans-32"/>
       <use x="158.09375" xlink:href="#DejaVuSans-48"/>
       <use x="221.716797" xlink:href="#DejaVuSans-48"/>
       <use x="285.339844" xlink:href="#DejaVuSans-58"/>
       <use x="319.03125" xlink:href="#DejaVuSans-48"/>
       <use x="382.654297" xlink:href="#DejaVuSans-48"/>
      </g>
     </g>
    </g>
    <g id="xtick_5">
     <g id="line2d_5">
      <g>
       <use style="stroke:#000000;stroke-width:0.8;" x="974.593225" xlink:href="#m00290462e9" y="260.12"/>
      </g>
     </g>
     <g id="text_5">
      <!-- Sat 00:00 -->
      <defs>
       <path d="M 53.515625 70.515625 
L 53.515625 60.890625 
Q 47.90625 63.578125 42.921875 64.890625 
Q 37.9375 66.21875 33.296875 66.21875 
Q 25.25 66.21875 20.875 63.09375 
Q 16.5 59.96875 16.5 54.203125 
Q 16.5 49.359375 19.40625 46.890625 
Q 22.3125 44.4375 30.421875 42.921875 
L 36.375 41.703125 
Q 47.40625 39.59375 52.65625 34.296875 
Q 57.90625 29 57.90625 20.125 
Q 57.90625 9.515625 50.796875 4.046875 
Q 43.703125 -1.421875 29.984375 -1.421875 
Q 24.8125 -1.421875 18.96875 -0.25 
Q 13.140625 0.921875 6.890625 3.21875 
L 6.890625 13.375 
Q 12.890625 10.015625 18.65625 8.296875 
Q 24.421875 6.59375 29.984375 6.59375 
Q 38.421875 6.59375 43.015625 9.90625 
Q 47.609375 13.234375 47.609375 19.390625 
Q 47.609375 24.75 44.3125 27.78125 
Q 41.015625 30.8125 33.5 32.328125 
L 27.484375 33.5 
Q 16.453125 35.6875 11.515625 40.375 
Q 6.59375 45.0625 6.59375 53.421875 
Q 6.59375 63.09375 13.40625 68.65625 
Q 20.21875 74.21875 32.171875 74.21875 
Q 37.3125 74.21875 42.625 73.28125 
Q 47.953125 72.359375 53.515625 70.515625 
z
" id="DejaVuSans-83"/>
       <path d="M 34.28125 27.484375 
Q 23.390625 27.484375 19.1875 25 
Q 14.984375 22.515625 14.984375 16.5 
Q 14.984375 11.71875 18.140625 8.90625 
Q 21.296875 6.109375 26.703125 6.109375 
Q 34.1875 6.109375 38.703125 11.40625 
Q 43.21875 16.703125 43.21875 25.484375 
L 43.21875 27.484375 
z
M 52.203125 31.203125 
L 52.203125 0 
L 43.21875 0 
L 43.21875 8.296875 
Q 40.140625 3.328125 35.546875 0.953125 
Q 30.953125 -1.421875 24.3125 -1.421875 
Q 15.921875 -1.421875 10.953125 3.296875 
Q 6 8.015625 6 15.921875 
Q 6 25.140625 12.171875 29.828125 
Q 18.359375 34.515625 30.609375 34.515625 
L 43.21875 34.515625 
L 43.21875 35.40625 
Q 43.21875 41.609375 39.140625 45 
Q 35.0625 48.390625 27.6875 48.390625 
Q 23 48.390625 18.546875 47.265625 
Q 14.109375 46.140625 10.015625 43.890625 
L 10.015625 52.203125 
Q 14.9375 54.109375 19.578125 55.046875 
Q 24.21875 56 28.609375 56 
Q 40.484375 56 46.34375 49.84375 
Q 52.203125 43.703125 52.203125 31.203125 
z
" id="DejaVuSans-97"/>
       <path d="M 18.3125 70.21875 
L 18.3125 54.6875 
L 36.8125 54.6875 
L 36.8125 47.703125 
L 18.3125 47.703125 
L 18.3125 18.015625 
Q 18.3125 11.328125 20.140625 9.421875 
Q 21.96875 7.515625 27.59375 7.515625 
L 36.8125 7.515625 
L 36.8125 0 
L 27.59375 0 
Q 17.1875 0 13.234375 3.875 
Q 9.28125 7.765625 9.28125 18.015625 
L 9.28125 47.703125 
L 2.6875 47.703125 
L 2.6875 54.6875 
L 9.28125 54.6875 
L 9.28125 70.21875 
z
" id="DejaVuSans-116"/>
      </defs>
      <g transform="translate(950.39635 274.718437)scale(0.1 -0.1)">
       <use xlink:href="#DejaVuSans-83"/>
       <use x="63.476562" xlink:href="#DejaVuSans-97"/>
       <use x="124.755859" xlink:href="#DejaVuSans-116"/>
       <use x="163.964844" xlink:href="#DejaVuSans-32"/>
       <use x="195.751953" xlink:href="#DejaVuSans-48"/>
       <use x="259.375" xlink:href="#DejaVuSans-48"/>
       <use x="322.998047" xlink:href="#DejaVuSans-58"/>
       <use x="356.689453" xlink:href="#DejaVuSans-48"/>
       <use x="420.3125" xlink:href="#DejaVuSans-48"/>
      </g>
     </g>
    </g>
   </g>
   <g id="matplotlib.axis_2">
    <g id="ytick_1">
     <g id="line2d_6">
      <defs>
       <path d="M 0 0 
L -3.5 0 
" id="m9e902c2f40" style="stroke:#000000;stroke-width:0.8;"/>
      </defs>
      <g>
       <use style="stroke:#000000;stroke-width:0.8;" x="33.64" xlink:href="#m9e902c2f40" y="260.12"/>
      </g>
     </g>
     <g id="text_6">
      <!-- 0 -->
      <g transform="translate(20.2775 263.919219)scale(0.1 -0.1)">
       <use xlink:href="#DejaVuSans-48"/>
      </g>
     </g>
    </g>
    <g id="ytick_2">
     <g id="line2d_7">
      <g>
       <use style="stroke:#000000;stroke-width:0.8;" x="33.64" xlink:href="#m9e902c2f40" y="230.910476"/>
      </g>
     </g>
     <g id="text_7">
      <!-- 25 -->
      <defs>
       <path d="M 19.1875 8.296875 
L 53.609375 8.296875 
L 53.609375 0 
L 7.328125 0 
L 7.328125 8.296875 
Q 12.9375 14.109375 22.625 23.890625 
Q 32.328125 33.6875 34.8125 36.53125 
Q 39.546875 41.84375 41.421875 45.53125 
Q 43.3125 49.21875 43.3125 52.78125 
Q 43.3125 58.59375 39.234375 62.25 
Q 35.15625 65.921875 28.609375 65.921875 
Q 23.96875 65.921875 18.8125 64.3125 
Q 13.671875 62.703125 7.8125 59.421875 
L 7.8125 69.390625 
Q 13.765625 71.78125 18.9375 73 
Q 24.125 74.21875 28.421875 74.21875 
Q 39.75 74.21875 46.484375 68.546875 
Q 53.21875 62.890625 53.21875 53.421875 
Q 53.21875 48.921875 51.53125 44.890625 
Q 49.859375 40.875 45.40625 35.40625 
Q 44.1875 33.984375 37.640625 27.21875 
Q 31.109375 20.453125 19.1875 8.296875 
z
" id="DejaVuSans-50"/>
       <path d="M 10.796875 72.90625 
L 49.515625 72.90625 
L 49.515625 64.59375 
L 19.828125 64.59375 
L 19.828125 46.734375 
Q 21.96875 47.46875 24.109375 47.828125 
Q 26.265625 48.1875 28.421875 48.1875 
Q 40.625 48.1875 47.75 41.5 
Q 54.890625 34.8125 54.890625 23.390625 
Q 54.890625 11.625 47.5625 5.09375 
Q 40.234375 -1.421875 26.90625 -1.421875 
Q 22.3125 -1.421875 17.546875 -0.640625 
Q 12.796875 0.140625 7.71875 1.703125 
L 7.71875 11.625 
Q 12.109375 9.234375 16.796875 8.0625 
Q 21.484375 6.890625 26.703125 6.890625 
Q 35.15625 6.890625 40.078125 11.328125 
Q 45.015625 15.765625 45.015625 23.390625 
Q 45.015625 31 40.078125 35.4375 
Q 35.15625 39.890625 26.703125 39.890625 
Q 22.75 39.890625 18.8125 39.015625 
Q 14.890625 38.140625 10.796875 36.28125 
z
" id="DejaVuSans-53"/>
      </defs>
      <g transform="translate(13.915 234.709695)scale(0.1 -0.1)">
       <use xlink:href="#DejaVuSans-50"/>
       <use x="63.623047" xlink:href="#DejaVuSans-53"/>
      </g>
     </g>
    </g>
    <g id="ytick_3">
     <g id="line2d_8">
      <g>
       <use style="stroke:#000000;stroke-width:0.8;" x="33.64" xlink:href="#m9e902c2f40" y="201.700952"/>
      </g>
     </g>
     <g id="text_8">
      <!-- 50 -->
      <g transform="translate(13.915 205.500171)scale(0.1 -0.1)">
       <use xlink:href="#DejaVuSans-53"/>
       <use x="63.623047" xlink:href="#DejaVuSans-48"/>
      </g>
     </g>
    </g>
    <g id="ytick_4">
     <g id="line2d_9">
      <g>
       <use style="stroke:#000000;stroke-width:0.8;" x="33.64" xlink:href="#m9e902c2f40" y="172.491429"/>
      </g>
     </g>
     <g id="text_9">
      <!-- 75 -->
      <defs>
       <path d="M 8.203125 72.90625 
L 55.078125 72.90625 
L 55.078125 68.703125 
L 28.609375 0 
L 18.3125 0 
L 43.21875 64.59375 
L 8.203125 64.59375 
z
" id="DejaVuSans-55"/>
      </defs>
      <g transform="translate(13.915 176.290647)scale(0.1 -0.1)">
       <use xlink:href="#DejaVuSans-55"/>
       <use x="63.623047" xlink:href="#DejaVuSans-53"/>
      </g>
     </g>
    </g>
    <g id="ytick_5">
     <g id="line2d_10">
      <g>
       <use style="stroke:#000000;stroke-width:0.8;" x="33.64" xlink:href="#m9e902c2f40" y="143.281905"/>
      </g>
     </g>
     <g id="text_10">
      <!-- 100 -->
      <defs>
       <path d="M 12.40625 8.296875 
L 28.515625 8.296875 
L 28.515625 63.921875 
L 10.984375 60.40625 
L 10.984375 69.390625 
L 28.421875 72.90625 
L 38.28125 72.90625 
L 38.28125 8.296875 
L 54.390625 8.296875 
L 54.390625 0 
L 12.40625 0 
z
" id="DejaVuSans-49"/>
      </defs>
      <g transform="translate(7.5525 147.081124)scale(0.1 -0.1)">
       <use xlink:href="#DejaVuSans-49"/>
       <use x="63.623047" xlink:href="#DejaVuSans-48"/>
       <use x="127.246094" xlink:href="#DejaVuSans-48"/>
      </g>
     </g>
    </g>
    <g id="ytick_6">
     <g id="line2d_11">
      <g>
       <use style="stroke:#000000;stroke-width:0.8;" x="33.64" xlink:href="#m9e902c2f40" y="114.072381"/>
      </g>
     </g>
     <g id="text_11">
      <!-- 125 -->
      <g transform="translate(7.5525 117.8716)scale(0.1 -0.1)">
       <use xlink:href="#DejaVuSans-49"/>
       <use x="63.623047" xlink:href="#DejaVuSans-50"/>
       <use x="127.246094" xlink:href="#DejaVuSans-53"/>
      </g>
     </g>
    </g>
    <g id="ytick_7">
     <g id="line2d_12">
      <g>
       <use style="stroke:#000000;stroke-width:0.8;" x="33.64" xlink:href="#m9e902c2f40" y="84.862857"/>
      </g>
     </g>
     <g id="text_12">
      <!-- 150 -->
      <g transform="translate(7.5525 88.662076)scale(0.1 -0.1)">
       <use xlink:href="#DejaVuSans-49"/>
       <use x="63.623047" xlink:href="#DejaVuSans-53"/>
       <use x="127.246094" xlink:href="#DejaVuSans-48"/>
      </g>
     </g>
    </g>
    <g id="ytick_8">
     <g id="line2d_13">
      <g>
       <use style="stroke:#000000;stroke-width:0.8;" x="33.64" xlink:href="#m9e902c2f40" y="55.653333"/>
      </g>
     </g>
     <g id="text_13">
      <!-- 175 -->
      <g transform="translate(7.5525 59.452552)scale(0.1 -0.1)">
       <use xlink:href="#DejaVuSans-49"/>
       <use x="63.623047" xlink:href="#DejaVuSans-55"/>
       <use x="127.246094" xlink:href="#DejaVuSans-53"/>
      </g>
     </g>
    </g>
    <g id="ytick_9">
     <g id="line2d_14">
      <g>
       <use style="stroke:#000000;stroke-width:0.8;" x="33.64" xlink:href="#m9e902c2f40" y="26.44381"/>
      </g>
     </g>
     <g id="text_14">
      <!-- 200 -->
      <g transform="translate(7.5525 30.243028)scale(0.1 -0.1)">
       <use xlink:href="#DejaVuSans-50"/>
       <use x="63.623047" xlink:href="#DejaVuSans-48"/>
       <use x="127.246094" xlink:href="#DejaVuSans-48"/>
      </g>
     </g>
    </g>
   </g>
   <g id="line2d_15">
    <path clip-path="url(#pcde94c8279)" d="M 33.64 225.068571 
L 103.775854 225.068571 
L 105.124845 220.395048 
L 106.472573 220.395048 
L 107.819637 218.058286 
L 109.164225 218.058286 
L 110.508666 211.048 
L 111.855967 211.048 
L 113.200916 200.532571 
L 114.545389 195.859048 
L 115.891147 195.859048 
L 117.236592 186.512 
L 118.581377 179.501714 
L 119.9291 177.164952 
L 126.667926 177.164952 
L 128.013582 183.006857 
L 129.361665 190.017143 
L 130.706158 190.017143 
L 132.05062 195.859048 
L 133.397851 195.859048 
L 134.742783 200.532571 
L 136.089304 195.859048 
L 137.436244 195.859048 
L 138.781381 193.522286 
L 140.126103 192.353905 
L 141.470707 188.848762 
L 142.815442 188.848762 
L 144.161303 187.680381 
L 145.508021 191.185524 
L 146.85256 191.185524 
L 148.200466 188.848762 
L 149.54538 185.343619 
L 150.88993 185.343619 
L 152.237184 183.006857 
L 153.58222 185.343619 
L 156.271491 185.343619 
L 157.618835 178.333333 
L 158.964519 177.164952 
L 160.312104 177.164952 
L 161.65946 179.501714 
L 163.006994 173.65981 
L 164.356483 173.65981 
L 165.704445 170.154667 
L 167.055431 170.154667 
L 168.402812 175.996571 
L 169.747422 165.481143 
L 171.092267 153.797333 
L 172.436835 153.797333 
L 173.781476 147.955429 
L 175.126652 138.608381 
L 176.471444 138.608381 
L 177.816913 124.58781 
L 179.163373 108.230476 
L 180.508057 108.230476 
L 181.856266 90.704762 
L 183.201723 79.020952 
L 184.546242 60.326857 
L 185.891897 60.326857 
L 187.236705 52.14819 
L 188.581103 83.694476 
L 191.27237 83.694476 
L 192.620073 86.031238 
L 193.96508 86.031238 
L 195.312914 88.368 
L 196.658736 89.536381 
L 198.003718 89.536381 
L 199.350572 105.893714 
L 200.700679 119.914286 
L 202.046252 119.914286 
L 203.393327 133.934857 
L 204.74085 153.797333 
L 206.08929 153.797333 
L 207.435047 161.976 
L 208.782048 168.986286 
L 210.127033 172.491429 
L 211.474785 172.491429 
L 212.822855 184.175238 
L 214.168243 192.353905 
L 215.513321 192.353905 
L 216.862638 260.12 
L 293.725744 260.12 
L 295.072694 241.425905 
L 296.420279 236.752381 
L 297.767665 236.752381 
L 299.113503 233.247238 
L 300.4587 222.73181 
L 301.805472 222.73181 
L 303.152117 213.384762 
L 304.499778 211.048 
L 305.847894 211.048 
L 307.198869 207.542857 
L 308.54815 205.206095 
L 309.895882 205.206095 
L 311.240425 202.869333 
L 312.590736 201.700952 
L 315.286767 201.700952 
L 316.631051 215.721524 
L 317.977402 216.889905 
L 319.325331 214.553143 
L 320.670492 216.889905 
L 322.016318 216.889905 
L 324.795688 205.206095 
L 327.57312 208.711238 
L 330.397618 208.711238 
L 331.742005 211.048 
L 333.088173 211.048 
L 334.433082 213.384762 
L 335.777675 212.216381 
L 337.125079 212.216381 
L 338.4723 207.542857 
L 341.163398 207.542857 
L 342.508152 202.869333 
L 343.856262 205.206095 
L 345.201072 205.206095 
L 346.546796 201.700952 
L 347.89219 191.185524 
L 349.237503 186.512 
L 350.582052 186.512 
L 351.927183 185.343619 
L 353.272324 173.65981 
L 354.620194 173.65981 
L 355.966524 172.491429 
L 357.313942 181.838476 
L 358.658995 181.838476 
L 361.350284 158.470857 
L 362.695662 158.470857 
L 364.043122 153.797333 
L 365.38885 150.29219 
L 366.734105 150.29219 
L 368.081074 154.965714 
L 369.427074 158.470857 
L 370.772371 158.470857 
L 372.120149 144.450286 
L 373.468137 135.103238 
L 374.813984 130.429714 
L 376.159438 130.429714 
L 377.505156 116.409143 
L 378.850684 116.409143 
L 381.545752 114.072381 
L 382.893233 110.567238 
L 384.241548 110.567238 
L 385.587646 112.904 
L 386.934848 117.577524 
L 388.280332 117.577524 
L 389.627971 126.924571 
L 390.97341 142.113524 
L 392.32035 152.628952 
L 393.667048 152.628952 
L 395.011573 159.639238 
L 396.361609 159.639238 
L 397.706252 170.154667 
L 399.053085 178.333333 
L 400.400704 178.333333 
L 401.745898 186.512 
L 403.093788 187.680381 
L 404.440639 190.017143 
L 405.785599 190.017143 
L 407.130024 260.12 
L 479.97185 260.12 
L 482.639378 248.43619 
L 483.983843 248.43619 
L 485.328914 242.594286 
L 486.674064 237.920762 
L 488.018524 237.920762 
L 489.363957 228.573714 
L 490.709658 228.573714 
L 492.054695 223.90019 
L 493.398999 220.395048 
L 494.744578 220.395048 
L 496.089539 225.068571 
L 497.435871 225.068571 
L 498.781991 227.405333 
L 500.129708 227.405333 
L 501.478012 226.236952 
L 502.825623 223.90019 
L 504.170556 223.90019 
L 505.515976 220.395048 
L 506.860811 229.742095 
L 509.552501 229.742095 
L 510.90014 227.405333 
L 512.246531 227.405333 
L 513.591663 218.058286 
L 514.9387 218.058286 
L 516.284855 212.216381 
L 518.976961 212.216381 
L 521.669236 207.542857 
L 523.02241 207.542857 
L 524.371028 201.700952 
L 525.72029 201.700952 
L 527.065438 202.869333 
L 528.410457 200.532571 
L 529.754719 200.532571 
L 531.099273 191.185524 
L 533.789613 191.185524 
L 535.156609 188.848762 
L 536.501927 188.848762 
L 537.84641 179.501714 
L 539.195976 179.501714 
L 540.542473 177.164952 
L 541.88794 171.323048 
L 543.236021 171.323048 
L 544.580482 161.976 
L 545.926856 145.618667 
L 547.271543 117.577524 
L 548.616935 117.577524 
L 549.963186 109.398857 
L 551.30795 88.368 
L 552.653181 88.368 
L 554.001807 66.168762 
L 555.34787 52.14819 
L 556.693124 52.14819 
L 558.037771 42.801143 
L 559.383121 48.643048 
L 560.730997 48.643048 
L 562.078494 35.790857 
L 563.423044 33.454095 
L 564.770309 33.454095 
L 566.119533 34.622476 
L 567.467215 27.61219 
L 568.818314 27.61219 
L 570.163052 33.454095 
L 571.510566 38.127619 
L 572.854976 38.127619 
L 574.203538 48.643048 
L 575.547637 50.97981 
L 576.892876 72.010667 
L 578.237389 72.010667 
L 579.584904 89.536381 
L 580.929964 89.536381 
L 582.275703 104.725333 
L 583.621521 132.766476 
L 584.967885 140.945143 
L 586.316604 140.945143 
L 587.663889 165.481143 
L 589.007989 177.164952 
L 590.353483 177.164952 
L 591.701625 183.006857 
L 593.047791 194.690667 
L 595.741203 194.690667 
L 597.087075 260.12 
L 669.921696 260.12 
L 671.267836 253.109714 
L 672.614832 253.109714 
L 673.960189 249.604571 
L 675.308 244.931048 
L 676.652297 244.931048 
L 677.997791 239.089143 
L 679.344262 236.752381 
L 680.689617 236.752381 
L 683.379362 229.742095 
L 684.727183 229.742095 
L 686.073834 233.247238 
L 687.422067 232.078857 
L 688.767982 228.573714 
L 690.114871 228.573714 
L 691.460116 229.742095 
L 692.804936 227.405333 
L 694.153532 227.405333 
L 695.499418 221.563429 
L 696.843819 219.226667 
L 698.194732 219.226667 
L 699.539186 214.553143 
L 700.884322 208.711238 
L 702.22933 208.711238 
L 703.57458 212.216381 
L 704.920206 214.553143 
L 706.268079 214.553143 
L 707.614731 208.711238 
L 708.959777 213.384762 
L 711.651008 213.384762 
L 712.99691 209.879619 
L 714.345275 199.36419 
L 715.689622 199.36419 
L 718.384122 197.027429 
L 719.729446 197.027429 
L 722.423548 185.343619 
L 725.117963 185.343619 
L 726.462717 180.670095 
L 727.808944 180.670095 
L 729.154903 170.154667 
L 730.501447 165.481143 
L 731.846062 165.481143 
L 733.191561 158.470857 
L 734.536312 142.113524 
L 735.881421 128.092952 
L 737.225973 128.092952 
L 738.574644 103.556952 
L 739.925209 107.062095 
L 741.273211 107.062095 
L 742.62051 102.388571 
L 743.968085 80.189333 
L 745.31284 80.189333 
L 746.658536 66.168762 
L 748.003056 60.326857 
L 749.347692 60.326857 
L 750.695032 61.495238 
L 752.041503 48.643048 
L 753.386721 45.137905 
L 754.734437 45.137905 
L 756.079509 63.832 
L 757.424518 72.010667 
L 758.770303 72.010667 
L 760.116217 83.694476 
L 761.461814 90.704762 
L 762.809476 90.704762 
L 764.153896 95.378286 
L 765.50862 107.062095 
L 766.857962 107.062095 
L 768.203266 114.072381 
L 769.547773 129.261333 
L 770.893874 129.261333 
L 773.58346 157.302476 
L 774.932425 157.302476 
L 776.280504 161.976 
L 777.627785 177.164952 
L 778.974743 177.164952 
L 780.32145 184.175238 
L 781.667593 260.12 
L 858.55114 260.12 
L 859.896032 248.43619 
L 861.243706 242.594286 
L 862.592215 242.594286 
L 863.936795 234.415619 
L 865.281002 234.415619 
L 866.626328 222.73181 
L 867.97089 219.226667 
L 869.317919 214.553143 
L 870.66593 214.553143 
L 873.362829 205.206095 
L 874.710451 205.206095 
L 876.056323 201.700952 
L 877.4035 199.36419 
L 878.749259 205.206095 
L 880.094961 205.206095 
L 881.439895 207.542857 
L 882.787866 211.048 
L 884.134795 211.048 
L 885.484183 219.226667 
L 886.829811 219.226667 
L 888.175173 218.058286 
L 890.866095 218.058286 
L 892.210805 221.563429 
L 893.556199 218.058286 
L 896.247018 218.058286 
L 897.592538 221.563429 
L 898.938121 222.73181 
L 900.282831 222.73181 
L 902.975117 211.048 
L 904.319686 208.711238 
L 905.666503 208.711238 
L 907.01076 205.206095 
L 908.35555 209.879619 
L 909.700242 209.879619 
L 911.045513 202.869333 
L 912.392139 202.869333 
L 913.738148 195.859048 
L 915.083307 197.027429 
L 916.429243 192.353905 
L 917.774884 192.353905 
L 919.120618 187.680381 
L 920.467145 181.838476 
L 921.811976 181.838476 
L 923.157782 183.006857 
L 924.503957 178.333333 
L 925.851705 183.006857 
L 927.199228 183.006857 
L 928.544539 177.164952 
L 929.890436 177.164952 
L 931.238425 186.512 
L 932.586587 181.838476 
L 933.932314 181.838476 
L 935.27792 184.175238 
L 936.624923 188.848762 
L 937.970429 186.512 
L 939.318398 186.512 
L 940.662763 183.006857 
L 942.010437 177.164952 
L 943.357422 177.164952 
L 944.702346 178.333333 
L 946.046937 187.680381 
L 947.391409 187.680381 
L 948.737494 186.512 
L 951.432296 186.512 
L 952.779873 188.848762 
L 955.472722 188.848762 
L 956.820475 200.532571 
L 958.166277 200.532571 
L 959.511705 205.206095 
L 960.858534 205.206095 
L 962.206254 206.374476 
L 963.554184 206.374476 
L 964.901542 207.542857 
L 966.248675 209.879619 
L 970.292863 209.879619 
L 971.638381 260.12 
L 1045.817877 260.12 
L 1047.163045 258.951619 
L 1048.508243 254.278095 
L 1049.854713 243.762667 
L 1051.201479 243.762667 
L 1053.894708 236.752381 
L 1055.241662 236.752381 
L 1056.588448 229.742095 
L 1057.935405 220.395048 
L 1059.280847 220.395048 
L 1060.625682 218.058286 
L 1061.970705 216.889905 
L 1063.318704 216.889905 
L 1064.665572 206.374476 
L 1066.010866 206.374476 
L 1067.355603 198.19581 
L 1068.701869 198.19581 
L 1070.046735 195.859048 
L 1072.735336 195.859048 
L 1074.085148 197.027429 
L 1075.430438 204.037714 
L 1076.779538 204.037714 
L 1078.12386 200.532571 
L 1079.46894 199.36419 
L 1080.813926 199.36419 
L 1082.158957 194.690667 
L 1083.504036 192.353905 
L 1084.848709 192.353905 
L 1086.193586 199.36419 
L 1087.538763 198.19581 
L 1088.885392 198.19581 
L 1090.230279 199.36419 
L 1091.574553 204.037714 
L 1092.91935 204.037714 
L 1094.266577 206.374476 
L 1096.959414 197.027429 
L 1098.305923 197.027429 
L 1099.649772 198.19581 
L 1100.995173 197.027429 
L 1102.342302 197.027429 
L 1103.687379 205.206095 
L 1105.032853 211.048 
L 1106.377663 201.700952 
L 1109.067381 201.700952 
L 1110.412415 191.185524 
L 1111.758814 191.185524 
L 1113.103728 186.512 
L 1114.449702 186.512 
L 1115.794327 191.185524 
L 1117.139283 194.690667 
L 1118.484368 193.522286 
L 1119.829128 193.522286 
L 1121.173963 200.532571 
L 1122.518976 197.027429 
L 1123.864123 197.027429 
L 1125.209405 201.700952 
L 1126.554496 202.869333 
L 1127.89965 201.700952 
L 1129.244481 201.700952 
L 1130.58983 200.532571 
L 1131.934869 200.532571 
L 1133.28 199.36419 
L 1133.28 199.36419 
" style="fill:none;stroke:#1f77b4;stroke-linecap:square;stroke-width:1.5;"/>
   </g>
   <g id="patch_3">
    <path d="M 33.64 260.12 
L 33.64 14.76 
" style="fill:none;stroke:#000000;stroke-linecap:square;stroke-linejoin:miter;stroke-width:0.8;"/>
   </g>
   <g id="patch_4">
    <path d="M 1133.28 260.12 
L 1133.28 14.76 
" style="fill:none;stroke:#000000;stroke-linecap:square;stroke-linejoin:miter;stroke-width:0.8;"/>
   </g>
   <g id="patch_5">
    <path d="M 33.64 260.12 
L 1133.28 260.12 
" style="fill:none;stroke:#000000;stroke-linecap:square;stroke-linejoin:miter;stroke-width:0.8;"/>
   </g>
   <g id="patch_6">
    <path d="M 33.64 14.76 
L 1133.28 14.76 
" style="fill:none;stroke:#000000;stroke-linecap:square;stroke-linejoin:miter;stroke-width:0.8;"/>
   </g>
  </g>
 </g>
 <defs>
  <clipPath id="pcde94c8279">
   <rect height="245.36" width="1099.64" x="33.64" y="14.76"/>
  </clipPath>
 </defs>
</svg>
