<?xml version="1.0" encoding="utf-8" standalone="no"?>
<!DOCTYPE svg PUBLIC "-//W3C//DTD SVG 1.1//EN"
  "http://www.w3.org/Graphics/SVG/1.1/DTD/svg11.dtd">
<!-- Created with matplotlib (https://matplotlib.org/) -->
<svg height="288pt" version="1.1" viewBox="0 0 1152 288" width="1152pt" xmlns="http://www.w3.org/2000/svg" xmlns:xlink="http://www.w3.org/1999/xlink">
 <defs>
  <style type="text/css">
*{stroke-linecap:butt;stroke-linejoin:round;}
  </style>
 </defs>
 <g id="figure_1">
  <g id="patch_1">
   <path d="M 0 288 
L 1152 288 
L 1152 0 
L 0 0 
z
" style="fill:#ffffff;"/>
  </g>
  <g id="axes_1">
   <g id="patch_2">
    <path d="M 33.64 260.12 
L 1133.28 260.12 
L 1133.28 14.76 
L 33.64 14.76 
z
" style="fill:#ffffff;"/>
   </g>
   <g id="matplotlib.axis_1">
    <g id="xtick_1">
     <g id="line2d_1">
      <defs>
       <path d="M 0 0 
L 0 3.5 
" id="mf01c7846a6" style="stroke:#000000;stroke-width:0.8;"/>
      </defs>
      <g>
       <use style="stroke:#000000;stroke-width:0.8;" x="197.515892" xlink:href="#mf01c7846a6" y="260.12"/>
      </g>
     </g>
     <g id="text_1">
      <!-- Tue 00:00 -->
      <defs>
       <path d="M -0.296875 72.90625 
L 61.375 72.90625 
L 61.375 64.59375 
L 35.5 64.59375 
L 35.5 0 
L 25.59375 0 
L 25.59375 64.59375 
L -0.296875 64.59375 
z
" id="DejaVuSans-84"/>
       <path d="M 8.5 21.578125 
L 8.5 54.6875 
L 17.484375 54.6875 
L 17.484375 21.921875 
Q 17.484375 14.15625 20.5 10.265625 
Q 23.53125 6.390625 29.59375 6.390625 
Q 36.859375 6.390625 41.078125 11.03125 
Q 45.3125 15.671875 45.3125 23.6875 
L 45.3125 54.6875 
L 54.296875 54.6875 
L 54.296875 0 
L 45.3125 0 
L 45.3125 8.40625 
Q 42.046875 3.421875 37.71875 1 
Q 33.40625 -1.421875 27.6875 -1.421875 
Q 18.265625 -1.421875 13.375 4.4375 
Q 8.5 10.296875 8.5 21.578125 
z
M 31.109375 56 
z
" id="DejaVuSans-117"/>
       <path d="M 56.203125 29.59375 
L 56.203125 25.203125 
L 14.890625 25.203125 
Q 15.484375 15.921875 20.484375 11.0625 
Q 25.484375 6.203125 34.421875 6.203125 
Q 39.59375 6.203125 44.453125 7.46875 
Q 49.3125 8.734375 54.109375 11.28125 
L 54.109375 2.78125 
Q 49.265625 0.734375 44.1875 -0.34375 
Q 39.109375 -1.421875 33.890625 -1.421875 
Q 20.796875 -1.421875 13.15625 6.1875 
Q 5.515625 13.8125 5.515625 26.8125 
Q 5.515625 40.234375 12.765625 48.109375 
Q 20.015625 56 32.328125 56 
Q 43.359375 56 49.78125 48.890625 
Q 56.203125 41.796875 56.203125 29.59375 
z
M 47.21875 32.234375 
Q 47.125 39.59375 43.09375 43.984375 
Q 39.0625 48.390625 32.421875 48.390625 
Q 24.90625 48.390625 20.390625 44.140625 
Q 15.875 39.890625 15.1875 32.171875 
z
" id="DejaVuSans-101"/>
       <path id="DejaVuSans-32"/>
       <path d="M 31.78125 66.40625 
Q 24.171875 66.40625 20.328125 58.90625 
Q 16.5 51.421875 16.5 36.375 
Q 16.5 21.390625 20.328125 13.890625 
Q 24.171875 6.390625 31.78125 6.390625 
Q 39.453125 6.390625 43.28125 13.890625 
Q 47.125 21.390625 47.125 36.375 
Q 47.125 51.421875 43.28125 58.90625 
Q 39.453125 66.40625 31.78125 66.40625 
z
M 31.78125 74.21875 
Q 44.046875 74.21875 50.515625 64.515625 
Q 56.984375 54.828125 56.984375 36.375 
Q 56.984375 17.96875 50.515625 8.265625 
Q 44.046875 -1.421875 31.78125 -1.421875 
Q 19.53125 -1.421875 13.0625 8.265625 
Q 6.59375 17.96875 6.59375 36.375 
Q 6.59375 54.828125 13.0625 64.515625 
Q 19.53125 74.21875 31.78125 74.21875 
z
" id="DejaVuSans-48"/>
       <path d="M 11.71875 12.40625 
L 22.015625 12.40625 
L 22.015625 0 
L 11.71875 0 
z
M 11.71875 51.703125 
L 22.015625 51.703125 
L 22.015625 39.3125 
L 11.71875 39.3125 
z
" id="DejaVuSans-58"/>
      </defs>
      <g transform="translate(172.229955 274.718437)scale(0.1 -0.1)">
       <use xlink:href="#DejaVuSans-84"/>
       <use x="60.849609" xlink:href="#DejaVuSans-117"/>
       <use x="124.228516" xlink:href="#DejaVuSans-101"/>
       <use x="185.751953" xlink:href="#DejaVuSans-32"/>
       <use x="217.539062" xlink:href="#DejaVuSans-48"/>
       <use x="281.162109" xlink:href="#DejaVuSans-48"/>
       <use x="344.785156" xlink:href="#DejaVuSans-58"/>
       <use x="378.476562" xlink:href="#DejaVuSans-48"/>
       <use x="442.099609" xlink:href="#DejaVuSans-48"/>
      </g>
     </g>
    </g>
    <g id="xtick_2">
     <g id="line2d_2">
      <g>
       <use style="stroke:#000000;stroke-width:0.8;" x="362.29616" xlink:href="#mf01c7846a6" y="260.12"/>
      </g>
     </g>
     <g id="text_2">
      <!-- Wed 00:00 -->
      <defs>
       <path d="M 3.328125 72.90625 
L 13.28125 72.90625 
L 28.609375 11.28125 
L 43.890625 72.90625 
L 54.984375 72.90625 
L 70.3125 11.28125 
L 85.59375 72.90625 
L 95.609375 72.90625 
L 77.296875 0 
L 64.890625 0 
L 49.515625 63.28125 
L 33.984375 0 
L 21.578125 0 
z
" id="DejaVuSans-87"/>
       <path d="M 45.40625 46.390625 
L 45.40625 75.984375 
L 54.390625 75.984375 
L 54.390625 0 
L 45.40625 0 
L 45.40625 8.203125 
Q 42.578125 3.328125 38.25 0.953125 
Q 33.9375 -1.421875 27.875 -1.421875 
Q 17.96875 -1.421875 11.734375 6.484375 
Q 5.515625 14.40625 5.515625 27.296875 
Q 5.515625 40.1875 11.734375 48.09375 
Q 17.96875 56 27.875 56 
Q 33.9375 56 38.25 53.625 
Q 42.578125 51.265625 45.40625 46.390625 
z
M 14.796875 27.296875 
Q 14.796875 17.390625 18.875 11.75 
Q 22.953125 6.109375 30.078125 6.109375 
Q 37.203125 6.109375 41.296875 11.75 
Q 45.40625 17.390625 45.40625 27.296875 
Q 45.40625 37.203125 41.296875 42.84375 
Q 37.203125 48.484375 30.078125 48.484375 
Q 22.953125 48.484375 18.875 42.84375 
Q 14.796875 37.203125 14.796875 27.296875 
z
" id="DejaVuSans-100"/>
      </defs>
      <g transform="translate(335.107098 274.718437)scale(0.1 -0.1)">
       <use xlink:href="#DejaVuSans-87"/>
       <use x="98.798828" xlink:href="#DejaVuSans-101"/>
       <use x="160.322266" xlink:href="#DejaVuSans-100"/>
       <use x="223.798828" xlink:href="#DejaVuSans-32"/>
       <use x="255.585938" xlink:href="#DejaVuSans-48"/>
       <use x="319.208984" xlink:href="#DejaVuSans-48"/>
       <use x="382.832031" xlink:href="#DejaVuSans-58"/>
       <use x="416.523438" xlink:href="#DejaVuSans-48"/>
       <use x="480.146484" xlink:href="#DejaVuSans-48"/>
      </g>
     </g>
    </g>
    <g id="xtick_3">
     <g id="line2d_3">
      <g>
       <use style="stroke:#000000;stroke-width:0.8;" x="527.076428" xlink:href="#mf01c7846a6" y="260.12"/>
      </g>
     </g>
     <g id="text_3">
      <!-- Thu 00:00 -->
      <defs>
       <path d="M 54.890625 33.015625 
L 54.890625 0 
L 45.90625 0 
L 45.90625 32.71875 
Q 45.90625 40.484375 42.875 44.328125 
Q 39.84375 48.1875 33.796875 48.1875 
Q 26.515625 48.1875 22.3125 43.546875 
Q 18.109375 38.921875 18.109375 30.90625 
L 18.109375 0 
L 9.078125 0 
L 9.078125 75.984375 
L 18.109375 75.984375 
L 18.109375 46.1875 
Q 21.34375 51.125 25.703125 53.5625 
Q 30.078125 56 35.796875 56 
Q 45.21875 56 50.046875 50.171875 
Q 54.890625 44.34375 54.890625 33.015625 
z
" id="DejaVuSans-104"/>
      </defs>
      <g transform="translate(501.686584 274.718437)scale(0.1 -0.1)">
       <use xlink:href="#DejaVuSans-84"/>
       <use x="61.083984" xlink:href="#DejaVuSans-104"/>
       <use x="124.462891" xlink:href="#DejaVuSans-117"/>
       <use x="187.841797" xlink:href="#DejaVuSans-32"/>
       <use x="219.628906" xlink:href="#DejaVuSans-48"/>
       <use x="283.251953" xlink:href="#DejaVuSans-48"/>
       <use x="346.875" xlink:href="#DejaVuSans-58"/>
       <use x="380.566406" xlink:href="#DejaVuSans-48"/>
       <use x="444.189453" xlink:href="#DejaVuSans-48"/>
      </g>
     </g>
    </g>
    <g id="xtick_4">
     <g id="line2d_4">
      <g>
       <use style="stroke:#000000;stroke-width:0.8;" x="691.856696" xlink:href="#mf01c7846a6" y="260.12"/>
      </g>
     </g>
     <g id="text_4">
      <!-- Fri 00:00 -->
      <defs>
       <path d="M 9.8125 72.90625 
L 51.703125 72.90625 
L 51.703125 64.59375 
L 19.671875 64.59375 
L 19.671875 43.109375 
L 48.578125 43.109375 
L 48.578125 34.8125 
L 19.671875 34.8125 
L 19.671875 0 
L 9.8125 0 
z
" id="DejaVuSans-70"/>
       <path d="M 41.109375 46.296875 
Q 39.59375 47.171875 37.8125 47.578125 
Q 36.03125 48 33.890625 48 
Q 26.265625 48 22.1875 43.046875 
Q 18.109375 38.09375 18.109375 28.8125 
L 18.109375 0 
L 9.078125 0 
L 9.078125 54.6875 
L 18.109375 54.6875 
L 18.109375 46.1875 
Q 20.953125 51.171875 25.484375 53.578125 
Q 30.03125 56 36.53125 56 
Q 37.453125 56 38.578125 55.875 
Q 39.703125 55.765625 41.0625 55.515625 
z
" id="DejaVuSans-114"/>
       <path d="M 9.421875 54.6875 
L 18.40625 54.6875 
L 18.40625 0 
L 9.421875 0 
z
M 9.421875 75.984375 
L 18.40625 75.984375 
L 18.40625 64.59375 
L 9.421875 64.59375 
z
" id="DejaVuSans-105"/>
      </defs>
      <g transform="translate(669.543415 274.718437)scale(0.1 -0.1)">
       <use xlink:href="#DejaVuSans-70"/>
       <use x="57.410156" xlink:href="#DejaVuSans-114"/>
       <use x="98.523438" xlink:href="#DejaVuSans-105"/>
       <use x="126.306641" xlink:href="#DejaVuSans-32"/>
       <use x="158.09375" xlink:href="#DejaVuSans-48"/>
       <use x="221.716797" xlink:href="#DejaVuSans-48"/>
       <use x="285.339844" xlink:href="#DejaVuSans-58"/>
       <use x="319.03125" xlink:href="#DejaVuSans-48"/>
       <use x="382.654297" xlink:href="#DejaVuSans-48"/>
      </g>
     </g>
    </g>
    <g id="xtick_5">
     <g id="line2d_5">
      <g>
       <use style="stroke:#000000;stroke-width:0.8;" x="856.636964" xlink:href="#mf01c7846a6" y="260.12"/>
      </g>
     </g>
     <g id="text_5">
      <!-- Sat 00:00 -->
      <defs>
       <path d="M 53.515625 70.515625 
L 53.515625 60.890625 
Q 47.90625 63.578125 42.921875 64.890625 
Q 37.9375 66.21875 33.296875 66.21875 
Q 25.25 66.21875 20.875 63.09375 
Q 16.5 59.96875 16.5 54.203125 
Q 16.5 49.359375 19.40625 46.890625 
Q 22.3125 44.4375 30.421875 42.921875 
L 36.375 41.703125 
Q 47.40625 39.59375 52.65625 34.296875 
Q 57.90625 29 57.90625 20.125 
Q 57.90625 9.515625 50.796875 4.046875 
Q 43.703125 -1.421875 29.984375 -1.421875 
Q 24.8125 -1.421875 18.96875 -0.25 
Q 13.140625 0.921875 6.890625 3.21875 
L 6.890625 13.375 
Q 12.890625 10.015625 18.65625 8.296875 
Q 24.421875 6.59375 29.984375 6.59375 
Q 38.421875 6.59375 43.015625 9.90625 
Q 47.609375 13.234375 47.609375 19.390625 
Q 47.609375 24.75 44.3125 27.78125 
Q 41.015625 30.8125 33.5 32.328125 
L 27.484375 33.5 
Q 16.453125 35.6875 11.515625 40.375 
Q 6.59375 45.0625 6.59375 53.421875 
Q 6.59375 63.09375 13.40625 68.65625 
Q 20.21875 74.21875 32.171875 74.21875 
Q 37.3125 74.21875 42.625 73.28125 
Q 47.953125 72.359375 53.515625 70.515625 
z
" id="DejaVuSans-83"/>
       <path d="M 34.28125 27.484375 
Q 23.390625 27.484375 19.1875 25 
Q 14.984375 22.515625 14.984375 16.5 
Q 14.984375 11.71875 18.140625 8.90625 
Q 21.296875 6.109375 26.703125 6.109375 
Q 34.1875 6.109375 38.703125 11.40625 
Q 43.21875 16.703125 43.21875 25.484375 
L 43.21875 27.484375 
z
M 52.203125 31.203125 
L 52.203125 0 
L 43.21875 0 
L 43.21875 8.296875 
Q 40.140625 3.328125 35.546875 0.953125 
Q 30.953125 -1.421875 24.3125 -1.421875 
Q 15.921875 -1.421875 10.953125 3.296875 
Q 6 8.015625 6 15.921875 
Q 6 25.140625 12.171875 29.828125 
Q 18.359375 34.515625 30.609375 34.515625 
L 43.21875 34.515625 
L 43.21875 35.40625 
Q 43.21875 41.609375 39.140625 45 
Q 35.0625 48.390625 27.6875 48.390625 
Q 23 48.390625 18.546875 47.265625 
Q 14.109375 46.140625 10.015625 43.890625 
L 10.015625 52.203125 
Q 14.9375 54.109375 19.578125 55.046875 
Q 24.21875 56 28.609375 56 
Q 40.484375 56 46.34375 49.84375 
Q 52.203125 43.703125 52.203125 31.203125 
z
" id="DejaVuSans-97"/>
       <path d="M 18.3125 70.21875 
L 18.3125 54.6875 
L 36.8125 54.6875 
L 36.8125 47.703125 
L 18.3125 47.703125 
L 18.3125 18.015625 
Q 18.3125 11.328125 20.140625 9.421875 
Q 21.96875 7.515625 27.59375 7.515625 
L 36.8125 7.515625 
L 36.8125 0 
L 27.59375 0 
Q 17.1875 0 13.234375 3.875 
Q 9.28125 7.765625 9.28125 18.015625 
L 9.28125 47.703125 
L 2.6875 47.703125 
L 2.6875 54.6875 
L 9.28125 54.6875 
L 9.28125 70.21875 
z
" id="DejaVuSans-116"/>
      </defs>
      <g transform="translate(832.440089 274.718437)scale(0.1 -0.1)">
       <use xlink:href="#DejaVuSans-83"/>
       <use x="63.476562" xlink:href="#DejaVuSans-97"/>
       <use x="124.755859" xlink:href="#DejaVuSans-116"/>
       <use x="163.964844" xlink:href="#DejaVuSans-32"/>
       <use x="195.751953" xlink:href="#DejaVuSans-48"/>
       <use x="259.375" xlink:href="#DejaVuSans-48"/>
       <use x="322.998047" xlink:href="#DejaVuSans-58"/>
       <use x="356.689453" xlink:href="#DejaVuSans-48"/>
       <use x="420.3125" xlink:href="#DejaVuSans-48"/>
      </g>
     </g>
    </g>
    <g id="xtick_6">
     <g id="line2d_6">
      <g>
       <use style="stroke:#000000;stroke-width:0.8;" x="1021.417232" xlink:href="#mf01c7846a6" y="260.12"/>
      </g>
     </g>
     <g id="text_6">
      <!-- Sun 00:00 -->
      <defs>
       <path d="M 54.890625 33.015625 
L 54.890625 0 
L 45.90625 0 
L 45.90625 32.71875 
Q 45.90625 40.484375 42.875 44.328125 
Q 39.84375 48.1875 33.796875 48.1875 
Q 26.515625 48.1875 22.3125 43.546875 
Q 18.109375 38.921875 18.109375 30.90625 
L 18.109375 0 
L 9.078125 0 
L 9.078125 54.6875 
L 18.109375 54.6875 
L 18.109375 46.1875 
Q 21.34375 51.125 25.703125 53.5625 
Q 30.078125 56 35.796875 56 
Q 45.21875 56 50.046875 50.171875 
Q 54.890625 44.34375 54.890625 33.015625 
z
" id="DejaVuSans-110"/>
      </defs>
      <g transform="translate(995.907076 274.718437)scale(0.1 -0.1)">
       <use xlink:href="#DejaVuSans-83"/>
       <use x="63.476562" xlink:href="#DejaVuSans-117"/>
       <use x="126.855469" xlink:href="#DejaVuSans-110"/>
       <use x="190.234375" xlink:href="#DejaVuSans-32"/>
       <use x="222.021484" xlink:href="#DejaVuSans-48"/>
       <use x="285.644531" xlink:href="#DejaVuSans-48"/>
       <use x="349.267578" xlink:href="#DejaVuSans-58"/>
       <use x="382.958984" xlink:href="#DejaVuSans-48"/>
       <use x="446.582031" xlink:href="#DejaVuSans-48"/>
      </g>
     </g>
    </g>
   </g>
   <g id="matplotlib.axis_2">
    <g id="ytick_1">
     <g id="line2d_7">
      <defs>
       <path d="M 0 0 
L -3.5 0 
" id="me2d720d4af" style="stroke:#000000;stroke-width:0.8;"/>
      </defs>
      <g>
       <use style="stroke:#000000;stroke-width:0.8;" x="33.64" xlink:href="#me2d720d4af" y="260.12"/>
      </g>
     </g>
     <g id="text_7">
      <!-- 0 -->
      <g transform="translate(20.2775 263.919219)scale(0.1 -0.1)">
       <use xlink:href="#DejaVuSans-48"/>
      </g>
     </g>
    </g>
    <g id="ytick_2">
     <g id="line2d_8">
      <g>
       <use style="stroke:#000000;stroke-width:0.8;" x="33.64" xlink:href="#me2d720d4af" y="232.857778"/>
      </g>
     </g>
     <g id="text_8">
      <!-- 20 -->
      <defs>
       <path d="M 19.1875 8.296875 
L 53.609375 8.296875 
L 53.609375 0 
L 7.328125 0 
L 7.328125 8.296875 
Q 12.9375 14.109375 22.625 23.890625 
Q 32.328125 33.6875 34.8125 36.53125 
Q 39.546875 41.84375 41.421875 45.53125 
Q 43.3125 49.21875 43.3125 52.78125 
Q 43.3125 58.59375 39.234375 62.25 
Q 35.15625 65.921875 28.609375 65.921875 
Q 23.96875 65.921875 18.8125 64.3125 
Q 13.671875 62.703125 7.8125 59.421875 
L 7.8125 69.390625 
Q 13.765625 71.78125 18.9375 73 
Q 24.125 74.21875 28.421875 74.21875 
Q 39.75 74.21875 46.484375 68.546875 
Q 53.21875 62.890625 53.21875 53.421875 
Q 53.21875 48.921875 51.53125 44.890625 
Q 49.859375 40.875 45.40625 35.40625 
Q 44.1875 33.984375 37.640625 27.21875 
Q 31.109375 20.453125 19.1875 8.296875 
z
" id="DejaVuSans-50"/>
      </defs>
      <g transform="translate(13.915 236.656997)scale(0.1 -0.1)">
       <use xlink:href="#DejaVuSans-50"/>
       <use x="63.623047" xlink:href="#DejaVuSans-48"/>
      </g>
     </g>
    </g>
    <g id="ytick_3">
     <g id="line2d_9">
      <g>
       <use style="stroke:#000000;stroke-width:0.8;" x="33.64" xlink:href="#me2d720d4af" y="205.595556"/>
      </g>
     </g>
     <g id="text_9">
      <!-- 40 -->
      <defs>
       <path d="M 37.796875 64.3125 
L 12.890625 25.390625 
L 37.796875 25.390625 
z
M 35.203125 72.90625 
L 47.609375 72.90625 
L 47.609375 25.390625 
L 58.015625 25.390625 
L 58.015625 17.1875 
L 47.609375 17.1875 
L 47.609375 0 
L 37.796875 0 
L 37.796875 17.1875 
L 4.890625 17.1875 
L 4.890625 26.703125 
z
" id="DejaVuSans-52"/>
      </defs>
      <g transform="translate(13.915 209.394774)scale(0.1 -0.1)">
       <use xlink:href="#DejaVuSans-52"/>
       <use x="63.623047" xlink:href="#DejaVuSans-48"/>
      </g>
     </g>
    </g>
    <g id="ytick_4">
     <g id="line2d_10">
      <g>
       <use style="stroke:#000000;stroke-width:0.8;" x="33.64" xlink:href="#me2d720d4af" y="178.333333"/>
      </g>
     </g>
     <g id="text_10">
      <!-- 60 -->
      <defs>
       <path d="M 33.015625 40.375 
Q 26.375 40.375 22.484375 35.828125 
Q 18.609375 31.296875 18.609375 23.390625 
Q 18.609375 15.53125 22.484375 10.953125 
Q 26.375 6.390625 33.015625 6.390625 
Q 39.65625 6.390625 43.53125 10.953125 
Q 47.40625 15.53125 47.40625 23.390625 
Q 47.40625 31.296875 43.53125 35.828125 
Q 39.65625 40.375 33.015625 40.375 
z
M 52.59375 71.296875 
L 52.59375 62.3125 
Q 48.875 64.0625 45.09375 64.984375 
Q 41.3125 65.921875 37.59375 65.921875 
Q 27.828125 65.921875 22.671875 59.328125 
Q 17.53125 52.734375 16.796875 39.40625 
Q 19.671875 43.65625 24.015625 45.921875 
Q 28.375 48.1875 33.59375 48.1875 
Q 44.578125 48.1875 50.953125 41.515625 
Q 57.328125 34.859375 57.328125 23.390625 
Q 57.328125 12.15625 50.6875 5.359375 
Q 44.046875 -1.421875 33.015625 -1.421875 
Q 20.359375 -1.421875 13.671875 8.265625 
Q 6.984375 17.96875 6.984375 36.375 
Q 6.984375 53.65625 15.1875 63.9375 
Q 23.390625 74.21875 37.203125 74.21875 
Q 40.921875 74.21875 44.703125 73.484375 
Q 48.484375 72.75 52.59375 71.296875 
z
" id="DejaVuSans-54"/>
      </defs>
      <g transform="translate(13.915 182.132552)scale(0.1 -0.1)">
       <use xlink:href="#DejaVuSans-54"/>
       <use x="63.623047" xlink:href="#DejaVuSans-48"/>
      </g>
     </g>
    </g>
    <g id="ytick_5">
     <g id="line2d_11">
      <g>
       <use style="stroke:#000000;stroke-width:0.8;" x="33.64" xlink:href="#me2d720d4af" y="151.071111"/>
      </g>
     </g>
     <g id="text_11">
      <!-- 80 -->
      <defs>
       <path d="M 31.78125 34.625 
Q 24.75 34.625 20.71875 30.859375 
Q 16.703125 27.09375 16.703125 20.515625 
Q 16.703125 13.921875 20.71875 10.15625 
Q 24.75 6.390625 31.78125 6.390625 
Q 38.8125 6.390625 42.859375 10.171875 
Q 46.921875 13.96875 46.921875 20.515625 
Q 46.921875 27.09375 42.890625 30.859375 
Q 38.875 34.625 31.78125 34.625 
z
M 21.921875 38.8125 
Q 15.578125 40.375 12.03125 44.71875 
Q 8.5 49.078125 8.5 55.328125 
Q 8.5 64.0625 14.71875 69.140625 
Q 20.953125 74.21875 31.78125 74.21875 
Q 42.671875 74.21875 48.875 69.140625 
Q 55.078125 64.0625 55.078125 55.328125 
Q 55.078125 49.078125 51.53125 44.71875 
Q 48 40.375 41.703125 38.8125 
Q 48.828125 37.15625 52.796875 32.3125 
Q 56.78125 27.484375 56.78125 20.515625 
Q 56.78125 9.90625 50.3125 4.234375 
Q 43.84375 -1.421875 31.78125 -1.421875 
Q 19.734375 -1.421875 13.25 4.234375 
Q 6.78125 9.90625 6.78125 20.515625 
Q 6.78125 27.484375 10.78125 32.3125 
Q 14.796875 37.15625 21.921875 38.8125 
z
M 18.3125 54.390625 
Q 18.3125 48.734375 21.84375 45.5625 
Q 25.390625 42.390625 31.78125 42.390625 
Q 38.140625 42.390625 41.71875 45.5625 
Q 45.3125 48.734375 45.3125 54.390625 
Q 45.3125 60.0625 41.71875 63.234375 
Q 38.140625 66.40625 31.78125 66.40625 
Q 25.390625 66.40625 21.84375 63.234375 
Q 18.3125 60.0625 18.3125 54.390625 
z
" id="DejaVuSans-56"/>
      </defs>
      <g transform="translate(13.915 154.87033)scale(0.1 -0.1)">
       <use xlink:href="#DejaVuSans-56"/>
       <use x="63.623047" xlink:href="#DejaVuSans-48"/>
      </g>
     </g>
    </g>
    <g id="ytick_6">
     <g id="line2d_12">
      <g>
       <use style="stroke:#000000;stroke-width:0.8;" x="33.64" xlink:href="#me2d720d4af" y="123.808889"/>
      </g>
     </g>
     <g id="text_12">
      <!-- 100 -->
      <defs>
       <path d="M 12.40625 8.296875 
L 28.515625 8.296875 
L 28.515625 63.921875 
L 10.984375 60.40625 
L 10.984375 69.390625 
L 28.421875 72.90625 
L 38.28125 72.90625 
L 38.28125 8.296875 
L 54.390625 8.296875 
L 54.390625 0 
L 12.40625 0 
z
" id="DejaVuSans-49"/>
      </defs>
      <g transform="translate(7.5525 127.608108)scale(0.1 -0.1)">
       <use xlink:href="#DejaVuSans-49"/>
       <use x="63.623047" xlink:href="#DejaVuSans-48"/>
       <use x="127.246094" xlink:href="#DejaVuSans-48"/>
      </g>
     </g>
    </g>
    <g id="ytick_7">
     <g id="line2d_13">
      <g>
       <use style="stroke:#000000;stroke-width:0.8;" x="33.64" xlink:href="#me2d720d4af" y="96.546667"/>
      </g>
     </g>
     <g id="text_13">
      <!-- 120 -->
      <g transform="translate(7.5525 100.345885)scale(0.1 -0.1)">
       <use xlink:href="#DejaVuSans-49"/>
       <use x="63.623047" xlink:href="#DejaVuSans-50"/>
       <use x="127.246094" xlink:href="#DejaVuSans-48"/>
      </g>
     </g>
    </g>
    <g id="ytick_8">
     <g id="line2d_14">
      <g>
       <use style="stroke:#000000;stroke-width:0.8;" x="33.64" xlink:href="#me2d720d4af" y="69.284444"/>
      </g>
     </g>
     <g id="text_14">
      <!-- 140 -->
      <g transform="translate(7.5525 73.083663)scale(0.1 -0.1)">
       <use xlink:href="#DejaVuSans-49"/>
       <use x="63.623047" xlink:href="#DejaVuSans-52"/>
       <use x="127.246094" xlink:href="#DejaVuSans-48"/>
      </g>
     </g>
    </g>
    <g id="ytick_9">
     <g id="line2d_15">
      <g>
       <use style="stroke:#000000;stroke-width:0.8;" x="33.64" xlink:href="#me2d720d4af" y="42.022222"/>
      </g>
     </g>
     <g id="text_15">
      <!-- 160 -->
      <g transform="translate(7.5525 45.821441)scale(0.1 -0.1)">
       <use xlink:href="#DejaVuSans-49"/>
       <use x="63.623047" xlink:href="#DejaVuSans-54"/>
       <use x="127.246094" xlink:href="#DejaVuSans-48"/>
      </g>
     </g>
    </g>
    <g id="ytick_10">
     <g id="line2d_16">
      <g>
       <use style="stroke:#000000;stroke-width:0.8;" x="33.64" xlink:href="#me2d720d4af" y="14.76"/>
      </g>
     </g>
     <g id="text_16">
      <!-- 180 -->
      <g transform="translate(7.5525 18.559219)scale(0.1 -0.1)">
       <use xlink:href="#DejaVuSans-49"/>
       <use x="63.623047" xlink:href="#DejaVuSans-56"/>
       <use x="127.246094" xlink:href="#DejaVuSans-48"/>
      </g>
     </g>
    </g>
   </g>
   <g id="line2d_17">
    <path clip-path="url(#p08c49d5e7a)" d="M 33.64 260.12 
L 96.180515 260.12 
L 97.35792 254.667556 
L 98.534769 254.667556 
L 99.714197 242.399556 
L 100.89032 241.036444 
L 102.066736 230.131556 
L 103.246621 230.131556 
L 104.427287 226.042222 
L 105.60442 224.679111 
L 107.957937 224.679111 
L 110.310567 216.500444 
L 111.486937 216.500444 
L 112.663186 221.952889 
L 113.840121 221.952889 
L 115.016107 231.494667 
L 116.193805 235.584 
L 118.547099 235.584 
L 120.902644 227.405333 
L 122.078843 227.405333 
L 123.255399 231.494667 
L 124.432504 224.679111 
L 125.608603 224.679111 
L 126.784499 227.405333 
L 127.965657 224.679111 
L 129.142847 226.042222 
L 130.319777 226.042222 
L 131.496283 231.494667 
L 132.673156 231.494667 
L 133.849019 230.131556 
L 135.024716 227.405333 
L 136.20123 227.405333 
L 137.379185 226.042222 
L 138.557084 221.952889 
L 139.734795 223.316 
L 140.913675 223.316 
L 142.09079 219.226667 
L 143.267669 216.500444 
L 144.444065 216.500444 
L 145.620773 206.958667 
L 146.797873 208.321778 
L 147.974709 205.595556 
L 149.152265 205.595556 
L 150.328975 198.78 
L 151.505455 198.78 
L 152.682088 197.416889 
L 155.0366 197.416889 
L 156.212956 193.327556 
L 158.565948 159.249778 
L 159.744009 159.249778 
L 160.923579 149.708 
L 162.101339 136.076889 
L 164.456449 136.076889 
L 165.633779 140.166222 
L 166.810307 140.166222 
L 167.988228 141.529333 
L 169.165659 137.44 
L 170.342607 137.44 
L 171.521178 131.987556 
L 172.702301 111.540889 
L 173.879585 116.993333 
L 175.058519 116.993333 
L 176.236194 121.082667 
L 177.416386 126.535111 
L 180.946833 126.535111 
L 182.123381 142.892444 
L 184.475797 153.797333 
L 185.654632 153.797333 
L 186.831141 168.791556 
L 188.008764 179.696444 
L 189.18522 179.696444 
L 190.362508 185.148889 
L 191.539616 193.327556 
L 193.895587 193.327556 
L 195.072815 260.12 
L 258.81924 260.12 
L 259.977213 258.756889 
L 261.157186 258.756889 
L 262.333704 251.941333 
L 263.51019 246.488889 
L 264.689741 246.488889 
L 265.871327 243.762667 
L 267.048772 224.679111 
L 268.226749 216.500444 
L 269.403681 216.500444 
L 270.580994 213.774222 
L 271.757669 213.774222 
L 272.934989 211.048 
L 275.289387 211.048 
L 276.467355 204.232444 
L 277.6452 211.048 
L 279.99844 211.048 
L 282.35403 213.774222 
L 283.533506 213.774222 
L 284.711287 215.137333 
L 285.888356 226.042222 
L 287.065709 226.042222 
L 288.242613 236.947111 
L 289.421117 242.399556 
L 290.597281 242.399556 
L 292.951191 239.673333 
L 294.129137 236.947111 
L 298.841179 236.947111 
L 301.197078 231.494667 
L 302.375788 227.405333 
L 303.553189 227.405333 
L 304.731053 226.042222 
L 305.907523 226.042222 
L 307.084806 220.589778 
L 308.323186 217.863556 
L 309.501796 217.863556 
L 310.679608 211.048 
L 311.856616 197.416889 
L 313.034288 194.690667 
L 314.213345 194.690667 
L 315.393944 183.785778 
L 316.574593 175.607111 
L 317.753634 175.607111 
L 318.933156 151.071111 
L 320.112256 129.261333 
L 321.290509 129.261333 
L 322.467418 121.082667 
L 323.64431 103.362222 
L 324.821588 103.362222 
L 325.999261 93.820444 
L 327.181087 88.368 
L 328.358193 88.368 
L 329.534963 74.736889 
L 330.713922 77.463111 
L 331.894613 73.373778 
L 333.071496 73.373778 
L 334.249006 88.368 
L 335.427693 89.731111 
L 336.604827 89.731111 
L 337.784095 93.820444 
L 338.961096 115.630222 
L 340.139006 115.630222 
L 341.316449 131.987556 
L 342.493296 140.166222 
L 343.670193 140.166222 
L 344.846919 148.344889 
L 347.19971 148.344889 
L 348.378316 157.886667 
L 349.555398 163.339111 
L 350.73448 163.339111 
L 351.910816 168.791556 
L 353.089984 185.148889 
L 354.266752 185.148889 
L 356.628493 204.232444 
L 357.807595 260.12 
L 423.895597 260.12 
L 425.053666 258.756889 
L 426.230604 258.756889 
L 427.408538 241.036444 
L 428.588176 232.857778 
L 429.765831 230.131556 
L 430.9433 230.131556 
L 432.126686 226.042222 
L 434.482648 226.042222 
L 435.662798 224.679111 
L 436.840699 217.863556 
L 438.018494 217.863556 
L 439.196018 219.226667 
L 440.375853 216.500444 
L 441.554796 216.500444 
L 442.731895 219.226667 
L 443.909329 228.768444 
L 448.624862 228.768444 
L 449.802157 231.494667 
L 450.979006 238.310222 
L 452.158125 242.399556 
L 453.337586 242.399556 
L 454.515146 243.762667 
L 455.693957 242.399556 
L 456.870606 242.399556 
L 459.226664 236.947111 
L 460.404044 235.584 
L 461.58076 235.584 
L 462.75861 231.494667 
L 463.935814 231.494667 
L 465.113246 223.316 
L 466.290151 223.316 
L 467.467777 216.500444 
L 468.645089 216.500444 
L 469.824171 219.226667 
L 472.177536 219.226667 
L 473.356793 205.595556 
L 474.536208 204.232444 
L 475.71641 204.232444 
L 478.074796 190.601333 
L 479.251473 182.422667 
L 480.433362 182.422667 
L 481.611164 189.238222 
L 482.787646 189.238222 
L 483.96383 182.422667 
L 485.14136 167.428444 
L 486.318017 167.428444 
L 487.499102 164.702222 
L 488.675575 159.249778 
L 489.852643 151.071111 
L 491.029144 151.071111 
L 492.205833 155.160444 
L 493.384497 144.255556 
L 494.562522 144.255556 
L 495.740721 140.166222 
L 496.918217 126.535111 
L 498.097141 126.535111 
L 499.27457 125.172 
L 500.45361 131.987556 
L 501.630033 131.987556 
L 502.807566 111.540889 
L 503.984745 101.999111 
L 505.162158 97.909778 
L 506.339526 97.909778 
L 507.51635 101.999111 
L 508.693865 101.999111 
L 509.871407 108.814667 
L 512.22742 137.44 
L 513.405619 137.44 
L 514.583313 153.797333 
L 515.762996 159.249778 
L 516.93964 159.249778 
L 518.117021 175.607111 
L 519.295663 187.875111 
L 520.476182 187.875111 
L 521.652754 196.053778 
L 522.829877 209.684889 
L 524.008912 209.684889 
L 525.187752 260.12 
L 590.094287 260.12 
L 591.271371 254.667556 
L 592.448172 254.667556 
L 593.625175 236.947111 
L 594.802122 227.405333 
L 595.978822 224.679111 
L 597.155575 224.679111 
L 598.332174 227.405333 
L 599.508507 227.405333 
L 600.684538 221.952889 
L 601.861588 220.589778 
L 603.040537 217.863556 
L 604.218046 217.863556 
L 605.395121 221.952889 
L 606.57138 220.589778 
L 607.74888 220.589778 
L 608.924831 224.679111 
L 610.101247 231.494667 
L 612.459455 231.494667 
L 613.636131 232.857778 
L 614.812673 232.857778 
L 615.990134 235.584 
L 617.167268 234.220889 
L 618.343681 234.220889 
L 619.519816 235.584 
L 620.696416 238.310222 
L 621.873368 243.762667 
L 625.403211 243.762667 
L 627.757408 238.310222 
L 628.936972 234.220889 
L 630.113497 234.220889 
L 631.290076 232.857778 
L 632.467472 228.768444 
L 637.178302 228.768444 
L 639.53415 226.042222 
L 640.711467 223.316 
L 641.888322 223.316 
L 644.244611 198.78 
L 645.422823 198.78 
L 646.601113 204.232444 
L 647.779326 204.232444 
L 648.958479 201.506222 
L 650.135334 189.238222 
L 651.312784 186.512 
L 652.489536 186.512 
L 654.843557 142.892444 
L 656.021643 142.892444 
L 657.199094 131.987556 
L 658.377066 136.076889 
L 659.554374 136.076889 
L 660.731783 119.719556 
L 661.909315 116.993333 
L 663.086516 116.993333 
L 664.263676 107.451556 
L 665.442454 108.814667 
L 666.620312 108.814667 
L 667.797256 103.362222 
L 668.974928 88.368 
L 670.153298 84.278667 
L 671.331457 84.278667 
L 672.509373 100.636 
L 673.686538 107.451556 
L 674.863541 107.451556 
L 676.040593 122.445778 
L 677.218603 160.612889 
L 678.39581 160.612889 
L 679.57347 163.339111 
L 680.750913 168.791556 
L 681.928031 168.791556 
L 683.105704 190.601333 
L 684.283105 198.78 
L 685.460928 211.048 
L 686.63813 211.048 
L 687.815796 260.12 
L 753.897385 260.12 
L 755.07514 256.030667 
L 756.252619 250.578222 
L 757.430059 250.578222 
L 758.608663 238.310222 
L 759.787403 234.220889 
L 760.967451 234.220889 
L 762.14469 228.768444 
L 763.322238 226.042222 
L 764.501239 220.589778 
L 766.860112 220.589778 
L 768.039665 221.952889 
L 769.216076 221.952889 
L 770.392941 220.589778 
L 773.925784 220.589778 
L 775.102573 223.316 
L 776.280116 223.316 
L 777.458035 224.679111 
L 778.635153 227.405333 
L 779.814156 227.405333 
L 780.991496 220.589778 
L 783.347902 217.863556 
L 784.526652 217.863556 
L 785.707859 215.137333 
L 786.888468 215.137333 
L 788.067686 213.774222 
L 789.244345 211.048 
L 790.422919 213.774222 
L 791.600393 213.774222 
L 793.954123 216.500444 
L 795.130072 216.500444 
L 796.306376 205.595556 
L 797.482933 212.411111 
L 798.65965 213.774222 
L 799.836157 213.774222 
L 801.012515 205.595556 
L 802.190979 205.595556 
L 803.367778 206.958667 
L 804.543909 213.774222 
L 805.720805 197.416889 
L 806.898748 197.416889 
L 808.07744 191.964444 
L 809.254365 183.785778 
L 810.433791 183.785778 
L 811.610563 170.154667 
L 812.786929 178.333333 
L 813.966473 178.333333 
L 815.142966 181.059556 
L 816.320588 166.065333 
L 817.497116 166.065333 
L 818.676603 163.339111 
L 819.855818 156.523556 
L 821.034108 140.166222 
L 822.211117 140.166222 
L 823.387763 145.618667 
L 824.56743 145.618667 
L 825.744709 148.344889 
L 826.92448 146.981778 
L 828.103416 159.249778 
L 829.282851 159.249778 
L 830.459788 156.523556 
L 831.639227 159.249778 
L 832.815822 159.249778 
L 835.172785 170.154667 
L 836.35009 176.970222 
L 837.527897 176.970222 
L 838.70533 179.696444 
L 839.883191 179.696444 
L 841.059524 190.601333 
L 842.23641 197.416889 
L 843.415445 197.416889 
L 844.592615 206.958667 
L 845.772768 215.137333 
L 846.950056 217.863556 
L 848.129016 217.863556 
L 849.306875 221.952889 
L 850.483726 227.405333 
L 851.66242 227.405333 
L 852.839248 260.12 
L 920.086665 260.12 
L 921.263732 258.756889 
L 922.442451 238.310222 
L 923.620895 238.310222 
L 924.800659 221.952889 
L 925.976904 212.411111 
L 927.155321 212.411111 
L 928.331591 208.321778 
L 929.510202 201.506222 
L 930.686729 201.506222 
L 931.865135 190.601333 
L 933.043942 181.059556 
L 934.220887 182.422667 
L 935.397307 182.422667 
L 936.57395 179.696444 
L 937.749724 187.875111 
L 938.926534 187.875111 
L 940.102596 197.416889 
L 941.279754 197.416889 
L 942.455554 194.690667 
L 943.631472 197.416889 
L 944.807838 194.690667 
L 945.984659 194.690667 
L 947.160928 197.416889 
L 948.336742 201.506222 
L 949.51272 201.506222 
L 950.689426 200.143111 
L 951.868035 197.416889 
L 953.044377 202.869333 
L 954.220749 202.869333 
L 955.396906 206.958667 
L 956.572763 206.958667 
L 957.748849 194.690667 
L 958.924877 206.958667 
L 960.102335 208.321778 
L 961.278411 208.321778 
L 962.454305 211.048 
L 963.630273 211.048 
L 964.806193 206.958667 
L 965.984783 209.684889 
L 967.160716 209.684889 
L 968.33953 212.411111 
L 969.516721 209.684889 
L 970.692953 211.048 
L 971.87147 211.048 
L 973.047787 205.595556 
L 974.227465 208.321778 
L 975.404008 208.321778 
L 976.580066 212.411111 
L 977.756153 220.589778 
L 978.932312 217.863556 
L 980.108048 217.863556 
L 981.286933 234.220889 
L 982.462912 234.220889 
L 983.639133 236.947111 
L 984.817846 241.036444 
L 985.99423 236.947111 
L 988.351412 236.947111 
L 989.528789 234.220889 
L 990.70644 234.220889 
L 991.882643 230.131556 
L 993.058649 236.947111 
L 994.235361 236.947111 
L 995.414163 235.584 
L 996.590276 231.494667 
L 997.76664 230.131556 
L 1002.474003 230.131556 
L 1003.650315 228.768444 
L 1004.826228 231.494667 
L 1006.002197 231.494667 
L 1007.178101 230.131556 
L 1009.530494 230.131556 
L 1010.706127 231.494667 
L 1013.059033 231.494667 
L 1014.235182 232.857778 
L 1016.587682 232.857778 
L 1017.764641 260.12 
L 1082.675445 260.12 
L 1083.833488 258.756889 
L 1085.010611 258.756889 
L 1086.18662 236.947111 
L 1087.362817 224.679111 
L 1088.539293 213.774222 
L 1089.715605 213.774222 
L 1092.071147 194.690667 
L 1093.247569 194.690667 
L 1094.423956 178.333333 
L 1095.600429 178.333333 
L 1096.776847 153.797333 
L 1097.953112 144.255556 
L 1099.130139 144.255556 
L 1100.306668 140.166222 
L 1101.483375 134.713778 
L 1102.66025 125.172 
L 1103.839367 125.172 
L 1105.017908 114.267111 
L 1106.194562 119.719556 
L 1107.373638 119.719556 
L 1108.549905 122.445778 
L 1109.726346 126.535111 
L 1110.902808 126.535111 
L 1112.079351 133.350667 
L 1113.257766 131.987556 
L 1114.43398 131.987556 
L 1116.787576 137.44 
L 1119.142768 137.44 
L 1120.320393 133.350667 
L 1121.498948 140.166222 
L 1122.677758 140.166222 
L 1123.856313 134.713778 
L 1125.035143 145.618667 
L 1126.213741 145.618667 
L 1127.3909 142.892444 
L 1129.750346 142.892444 
L 1130.927112 144.255556 
L 1132.103663 136.076889 
L 1133.28 155.160444 
L 1133.28 155.160444 
" style="fill:none;stroke:#1f77b4;stroke-linecap:square;stroke-width:1.5;"/>
   </g>
   <g id="patch_3">
    <path d="M 33.64 260.12 
L 33.64 14.76 
" style="fill:none;stroke:#000000;stroke-linecap:square;stroke-linejoin:miter;stroke-width:0.8;"/>
   </g>
   <g id="patch_4">
    <path d="M 1133.28 260.12 
L 1133.28 14.76 
" style="fill:none;stroke:#000000;stroke-linecap:square;stroke-linejoin:miter;stroke-width:0.8;"/>
   </g>
   <g id="patch_5">
    <path d="M 33.64 260.12 
L 1133.28 260.12 
" style="fill:none;stroke:#000000;stroke-linecap:square;stroke-linejoin:miter;stroke-width:0.8;"/>
   </g>
   <g id="patch_6">
    <path d="M 33.64 14.76 
L 1133.28 14.76 
" style="fill:none;stroke:#000000;stroke-linecap:square;stroke-linejoin:miter;stroke-width:0.8;"/>
   </g>
  </g>
 </g>
 <defs>
  <clipPath id="p08c49d5e7a">
   <rect height="245.36" width="1099.64" x="33.64" y="14.76"/>
  </clipPath>
 </defs>
</svg>
