<?xml version="1.0" encoding="utf-8" standalone="no"?>
<!DOCTYPE svg PUBLIC "-//W3C//DTD SVG 1.1//EN"
  "http://www.w3.org/Graphics/SVG/1.1/DTD/svg11.dtd">
<!-- Created with matplotlib (https://matplotlib.org/) -->
<svg height="288pt" version="1.1" viewBox="0 0 1152 288" width="1152pt" xmlns="http://www.w3.org/2000/svg" xmlns:xlink="http://www.w3.org/1999/xlink">
 <defs>
  <style type="text/css">
*{stroke-linecap:butt;stroke-linejoin:round;}
  </style>
 </defs>
 <g id="figure_1">
  <g id="patch_1">
   <path d="M 0 288 
L 1152 288 
L 1152 0 
L 0 0 
z
" style="fill:#ffffff;"/>
  </g>
  <g id="axes_1">
   <g id="patch_2">
    <path d="M 33.64 260.12 
L 1133.28 260.12 
L 1133.28 14.76 
L 33.64 14.76 
z
" style="fill:#ffffff;"/>
   </g>
   <g id="matplotlib.axis_1">
    <g id="xtick_1">
     <g id="line2d_1">
      <defs>
       <path d="M 0 0 
L 0 3.5 
" id="me0f3b7e760" style="stroke:#000000;stroke-width:0.8;"/>
      </defs>
      <g>
       <use style="stroke:#000000;stroke-width:0.8;" x="234.497158" xlink:href="#me0f3b7e760" y="260.12"/>
      </g>
     </g>
     <g id="text_1">
      <!-- Tue 00:00 -->
      <defs>
       <path d="M -0.296875 72.90625 
L 61.375 72.90625 
L 61.375 64.59375 
L 35.5 64.59375 
L 35.5 0 
L 25.59375 0 
L 25.59375 64.59375 
L -0.296875 64.59375 
z
" id="DejaVuSans-84"/>
       <path d="M 8.5 21.578125 
L 8.5 54.6875 
L 17.484375 54.6875 
L 17.484375 21.921875 
Q 17.484375 14.15625 20.5 10.265625 
Q 23.53125 6.390625 29.59375 6.390625 
Q 36.859375 6.390625 41.078125 11.03125 
Q 45.3125 15.671875 45.3125 23.6875 
L 45.3125 54.6875 
L 54.296875 54.6875 
L 54.296875 0 
L 45.3125 0 
L 45.3125 8.40625 
Q 42.046875 3.421875 37.71875 1 
Q 33.40625 -1.421875 27.6875 -1.421875 
Q 18.265625 -1.421875 13.375 4.4375 
Q 8.5 10.296875 8.5 21.578125 
z
M 31.109375 56 
z
" id="DejaVuSans-117"/>
       <path d="M 56.203125 29.59375 
L 56.203125 25.203125 
L 14.890625 25.203125 
Q 15.484375 15.921875 20.484375 11.0625 
Q 25.484375 6.203125 34.421875 6.203125 
Q 39.59375 6.203125 44.453125 7.46875 
Q 49.3125 8.734375 54.109375 11.28125 
L 54.109375 2.78125 
Q 49.265625 0.734375 44.1875 -0.34375 
Q 39.109375 -1.421875 33.890625 -1.421875 
Q 20.796875 -1.421875 13.15625 6.1875 
Q 5.515625 13.8125 5.515625 26.8125 
Q 5.515625 40.234375 12.765625 48.109375 
Q 20.015625 56 32.328125 56 
Q 43.359375 56 49.78125 48.890625 
Q 56.203125 41.796875 56.203125 29.59375 
z
M 47.21875 32.234375 
Q 47.125 39.59375 43.09375 43.984375 
Q 39.0625 48.390625 32.421875 48.390625 
Q 24.90625 48.390625 20.390625 44.140625 
Q 15.875 39.890625 15.1875 32.171875 
z
" id="DejaVuSans-101"/>
       <path id="DejaVuSans-32"/>
       <path d="M 31.78125 66.40625 
Q 24.171875 66.40625 20.328125 58.90625 
Q 16.5 51.421875 16.5 36.375 
Q 16.5 21.390625 20.328125 13.890625 
Q 24.171875 6.390625 31.78125 6.390625 
Q 39.453125 6.390625 43.28125 13.890625 
Q 47.125 21.390625 47.125 36.375 
Q 47.125 51.421875 43.28125 58.90625 
Q 39.453125 66.40625 31.78125 66.40625 
z
M 31.78125 74.21875 
Q 44.046875 74.21875 50.515625 64.515625 
Q 56.984375 54.828125 56.984375 36.375 
Q 56.984375 17.96875 50.515625 8.265625 
Q 44.046875 -1.421875 31.78125 -1.421875 
Q 19.53125 -1.421875 13.0625 8.265625 
Q 6.59375 17.96875 6.59375 36.375 
Q 6.59375 54.828125 13.0625 64.515625 
Q 19.53125 74.21875 31.78125 74.21875 
z
" id="DejaVuSans-48"/>
       <path d="M 11.71875 12.40625 
L 22.015625 12.40625 
L 22.015625 0 
L 11.71875 0 
z
M 11.71875 51.703125 
L 22.015625 51.703125 
L 22.015625 39.3125 
L 11.71875 39.3125 
z
" id="DejaVuSans-58"/>
      </defs>
      <g transform="translate(209.21122 274.718437)scale(0.1 -0.1)">
       <use xlink:href="#DejaVuSans-84"/>
       <use x="60.849609" xlink:href="#DejaVuSans-117"/>
       <use x="124.228516" xlink:href="#DejaVuSans-101"/>
       <use x="185.751953" xlink:href="#DejaVuSans-32"/>
       <use x="217.539062" xlink:href="#DejaVuSans-48"/>
       <use x="281.162109" xlink:href="#DejaVuSans-48"/>
       <use x="344.785156" xlink:href="#DejaVuSans-58"/>
       <use x="378.476562" xlink:href="#DejaVuSans-48"/>
       <use x="442.099609" xlink:href="#DejaVuSans-48"/>
      </g>
     </g>
    </g>
    <g id="xtick_2">
     <g id="line2d_2">
      <g>
       <use style="stroke:#000000;stroke-width:0.8;" x="435.444268" xlink:href="#me0f3b7e760" y="260.12"/>
      </g>
     </g>
     <g id="text_2">
      <!-- Wed 00:00 -->
      <defs>
       <path d="M 3.328125 72.90625 
L 13.28125 72.90625 
L 28.609375 11.28125 
L 43.890625 72.90625 
L 54.984375 72.90625 
L 70.3125 11.28125 
L 85.59375 72.90625 
L 95.609375 72.90625 
L 77.296875 0 
L 64.890625 0 
L 49.515625 63.28125 
L 33.984375 0 
L 21.578125 0 
z
" id="DejaVuSans-87"/>
       <path d="M 45.40625 46.390625 
L 45.40625 75.984375 
L 54.390625 75.984375 
L 54.390625 0 
L 45.40625 0 
L 45.40625 8.203125 
Q 42.578125 3.328125 38.25 0.953125 
Q 33.9375 -1.421875 27.875 -1.421875 
Q 17.96875 -1.421875 11.734375 6.484375 
Q 5.515625 14.40625 5.515625 27.296875 
Q 5.515625 40.1875 11.734375 48.09375 
Q 17.96875 56 27.875 56 
Q 33.9375 56 38.25 53.625 
Q 42.578125 51.265625 45.40625 46.390625 
z
M 14.796875 27.296875 
Q 14.796875 17.390625 18.875 11.75 
Q 22.953125 6.109375 30.078125 6.109375 
Q 37.203125 6.109375 41.296875 11.75 
Q 45.40625 17.390625 45.40625 27.296875 
Q 45.40625 37.203125 41.296875 42.84375 
Q 37.203125 48.484375 30.078125 48.484375 
Q 22.953125 48.484375 18.875 42.84375 
Q 14.796875 37.203125 14.796875 27.296875 
z
" id="DejaVuSans-100"/>
      </defs>
      <g transform="translate(408.255206 274.718437)scale(0.1 -0.1)">
       <use xlink:href="#DejaVuSans-87"/>
       <use x="98.798828" xlink:href="#DejaVuSans-101"/>
       <use x="160.322266" xlink:href="#DejaVuSans-100"/>
       <use x="223.798828" xlink:href="#DejaVuSans-32"/>
       <use x="255.585938" xlink:href="#DejaVuSans-48"/>
       <use x="319.208984" xlink:href="#DejaVuSans-48"/>
       <use x="382.832031" xlink:href="#DejaVuSans-58"/>
       <use x="416.523438" xlink:href="#DejaVuSans-48"/>
       <use x="480.146484" xlink:href="#DejaVuSans-48"/>
      </g>
     </g>
    </g>
    <g id="xtick_3">
     <g id="line2d_3">
      <g>
       <use style="stroke:#000000;stroke-width:0.8;" x="636.391379" xlink:href="#me0f3b7e760" y="260.12"/>
      </g>
     </g>
     <g id="text_3">
      <!-- Thu 00:00 -->
      <defs>
       <path d="M 54.890625 33.015625 
L 54.890625 0 
L 45.90625 0 
L 45.90625 32.71875 
Q 45.90625 40.484375 42.875 44.328125 
Q 39.84375 48.1875 33.796875 48.1875 
Q 26.515625 48.1875 22.3125 43.546875 
Q 18.109375 38.921875 18.109375 30.90625 
L 18.109375 0 
L 9.078125 0 
L 9.078125 75.984375 
L 18.109375 75.984375 
L 18.109375 46.1875 
Q 21.34375 51.125 25.703125 53.5625 
Q 30.078125 56 35.796875 56 
Q 45.21875 56 50.046875 50.171875 
Q 54.890625 44.34375 54.890625 33.015625 
z
" id="DejaVuSans-104"/>
      </defs>
      <g transform="translate(611.001535 274.718437)scale(0.1 -0.1)">
       <use xlink:href="#DejaVuSans-84"/>
       <use x="61.083984" xlink:href="#DejaVuSans-104"/>
       <use x="124.462891" xlink:href="#DejaVuSans-117"/>
       <use x="187.841797" xlink:href="#DejaVuSans-32"/>
       <use x="219.628906" xlink:href="#DejaVuSans-48"/>
       <use x="283.251953" xlink:href="#DejaVuSans-48"/>
       <use x="346.875" xlink:href="#DejaVuSans-58"/>
       <use x="380.566406" xlink:href="#DejaVuSans-48"/>
       <use x="444.189453" xlink:href="#DejaVuSans-48"/>
      </g>
     </g>
    </g>
    <g id="xtick_4">
     <g id="line2d_4">
      <g>
       <use style="stroke:#000000;stroke-width:0.8;" x="837.338489" xlink:href="#me0f3b7e760" y="260.12"/>
      </g>
     </g>
     <g id="text_4">
      <!-- Fri 00:00 -->
      <defs>
       <path d="M 9.8125 72.90625 
L 51.703125 72.90625 
L 51.703125 64.59375 
L 19.671875 64.59375 
L 19.671875 43.109375 
L 48.578125 43.109375 
L 48.578125 34.8125 
L 19.671875 34.8125 
L 19.671875 0 
L 9.8125 0 
z
" id="DejaVuSans-70"/>
       <path d="M 41.109375 46.296875 
Q 39.59375 47.171875 37.8125 47.578125 
Q 36.03125 48 33.890625 48 
Q 26.265625 48 22.1875 43.046875 
Q 18.109375 38.09375 18.109375 28.8125 
L 18.109375 0 
L 9.078125 0 
L 9.078125 54.6875 
L 18.109375 54.6875 
L 18.109375 46.1875 
Q 20.953125 51.171875 25.484375 53.578125 
Q 30.03125 56 36.53125 56 
Q 37.453125 56 38.578125 55.875 
Q 39.703125 55.765625 41.0625 55.515625 
z
" id="DejaVuSans-114"/>
       <path d="M 9.421875 54.6875 
L 18.40625 54.6875 
L 18.40625 0 
L 9.421875 0 
z
M 9.421875 75.984375 
L 18.40625 75.984375 
L 18.40625 64.59375 
L 9.421875 64.59375 
z
" id="DejaVuSans-105"/>
      </defs>
      <g transform="translate(815.025208 274.718437)scale(0.1 -0.1)">
       <use xlink:href="#DejaVuSans-70"/>
       <use x="57.410156" xlink:href="#DejaVuSans-114"/>
       <use x="98.523438" xlink:href="#DejaVuSans-105"/>
       <use x="126.306641" xlink:href="#DejaVuSans-32"/>
       <use x="158.09375" xlink:href="#DejaVuSans-48"/>
       <use x="221.716797" xlink:href="#DejaVuSans-48"/>
       <use x="285.339844" xlink:href="#DejaVuSans-58"/>
       <use x="319.03125" xlink:href="#DejaVuSans-48"/>
       <use x="382.654297" xlink:href="#DejaVuSans-48"/>
      </g>
     </g>
    </g>
    <g id="xtick_5">
     <g id="line2d_5">
      <g>
       <use style="stroke:#000000;stroke-width:0.8;" x="1038.2856" xlink:href="#me0f3b7e760" y="260.12"/>
      </g>
     </g>
     <g id="text_5">
      <!-- Sat 00:00 -->
      <defs>
       <path d="M 53.515625 70.515625 
L 53.515625 60.890625 
Q 47.90625 63.578125 42.921875 64.890625 
Q 37.9375 66.21875 33.296875 66.21875 
Q 25.25 66.21875 20.875 63.09375 
Q 16.5 59.96875 16.5 54.203125 
Q 16.5 49.359375 19.40625 46.890625 
Q 22.3125 44.4375 30.421875 42.921875 
L 36.375 41.703125 
Q 47.40625 39.59375 52.65625 34.296875 
Q 57.90625 29 57.90625 20.125 
Q 57.90625 9.515625 50.796875 4.046875 
Q 43.703125 -1.421875 29.984375 -1.421875 
Q 24.8125 -1.421875 18.96875 -0.25 
Q 13.140625 0.921875 6.890625 3.21875 
L 6.890625 13.375 
Q 12.890625 10.015625 18.65625 8.296875 
Q 24.421875 6.59375 29.984375 6.59375 
Q 38.421875 6.59375 43.015625 9.90625 
Q 47.609375 13.234375 47.609375 19.390625 
Q 47.609375 24.75 44.3125 27.78125 
Q 41.015625 30.8125 33.5 32.328125 
L 27.484375 33.5 
Q 16.453125 35.6875 11.515625 40.375 
Q 6.59375 45.0625 6.59375 53.421875 
Q 6.59375 63.09375 13.40625 68.65625 
Q 20.21875 74.21875 32.171875 74.21875 
Q 37.3125 74.21875 42.625 73.28125 
Q 47.953125 72.359375 53.515625 70.515625 
z
" id="DejaVuSans-83"/>
       <path d="M 34.28125 27.484375 
Q 23.390625 27.484375 19.1875 25 
Q 14.984375 22.515625 14.984375 16.5 
Q 14.984375 11.71875 18.140625 8.90625 
Q 21.296875 6.109375 26.703125 6.109375 
Q 34.1875 6.109375 38.703125 11.40625 
Q 43.21875 16.703125 43.21875 25.484375 
L 43.21875 27.484375 
z
M 52.203125 31.203125 
L 52.203125 0 
L 43.21875 0 
L 43.21875 8.296875 
Q 40.140625 3.328125 35.546875 0.953125 
Q 30.953125 -1.421875 24.3125 -1.421875 
Q 15.921875 -1.421875 10.953125 3.296875 
Q 6 8.015625 6 15.921875 
Q 6 25.140625 12.171875 29.828125 
Q 18.359375 34.515625 30.609375 34.515625 
L 43.21875 34.515625 
L 43.21875 35.40625 
Q 43.21875 41.609375 39.140625 45 
Q 35.0625 48.390625 27.6875 48.390625 
Q 23 48.390625 18.546875 47.265625 
Q 14.109375 46.140625 10.015625 43.890625 
L 10.015625 52.203125 
Q 14.9375 54.109375 19.578125 55.046875 
Q 24.21875 56 28.609375 56 
Q 40.484375 56 46.34375 49.84375 
Q 52.203125 43.703125 52.203125 31.203125 
z
" id="DejaVuSans-97"/>
       <path d="M 18.3125 70.21875 
L 18.3125 54.6875 
L 36.8125 54.6875 
L 36.8125 47.703125 
L 18.3125 47.703125 
L 18.3125 18.015625 
Q 18.3125 11.328125 20.140625 9.421875 
Q 21.96875 7.515625 27.59375 7.515625 
L 36.8125 7.515625 
L 36.8125 0 
L 27.59375 0 
Q 17.1875 0 13.234375 3.875 
Q 9.28125 7.765625 9.28125 18.015625 
L 9.28125 47.703125 
L 2.6875 47.703125 
L 2.6875 54.6875 
L 9.28125 54.6875 
L 9.28125 70.21875 
z
" id="DejaVuSans-116"/>
      </defs>
      <g transform="translate(1014.088725 274.718437)scale(0.1 -0.1)">
       <use xlink:href="#DejaVuSans-83"/>
       <use x="63.476562" xlink:href="#DejaVuSans-97"/>
       <use x="124.755859" xlink:href="#DejaVuSans-116"/>
       <use x="163.964844" xlink:href="#DejaVuSans-32"/>
       <use x="195.751953" xlink:href="#DejaVuSans-48"/>
       <use x="259.375" xlink:href="#DejaVuSans-48"/>
       <use x="322.998047" xlink:href="#DejaVuSans-58"/>
       <use x="356.689453" xlink:href="#DejaVuSans-48"/>
       <use x="420.3125" xlink:href="#DejaVuSans-48"/>
      </g>
     </g>
    </g>
   </g>
   <g id="matplotlib.axis_2">
    <g id="ytick_1">
     <g id="line2d_6">
      <defs>
       <path d="M 0 0 
L -3.5 0 
" id="mdecca29149" style="stroke:#000000;stroke-width:0.8;"/>
      </defs>
      <g>
       <use style="stroke:#000000;stroke-width:0.8;" x="33.64" xlink:href="#mdecca29149" y="260.12"/>
      </g>
     </g>
     <g id="text_6">
      <!-- 0 -->
      <g transform="translate(20.2775 263.919219)scale(0.1 -0.1)">
       <use xlink:href="#DejaVuSans-48"/>
      </g>
     </g>
    </g>
    <g id="ytick_2">
     <g id="line2d_7">
      <g>
       <use style="stroke:#000000;stroke-width:0.8;" x="33.64" xlink:href="#mdecca29149" y="232.857778"/>
      </g>
     </g>
     <g id="text_7">
      <!-- 20 -->
      <defs>
       <path d="M 19.1875 8.296875 
L 53.609375 8.296875 
L 53.609375 0 
L 7.328125 0 
L 7.328125 8.296875 
Q 12.9375 14.109375 22.625 23.890625 
Q 32.328125 33.6875 34.8125 36.53125 
Q 39.546875 41.84375 41.421875 45.53125 
Q 43.3125 49.21875 43.3125 52.78125 
Q 43.3125 58.59375 39.234375 62.25 
Q 35.15625 65.921875 28.609375 65.921875 
Q 23.96875 65.921875 18.8125 64.3125 
Q 13.671875 62.703125 7.8125 59.421875 
L 7.8125 69.390625 
Q 13.765625 71.78125 18.9375 73 
Q 24.125 74.21875 28.421875 74.21875 
Q 39.75 74.21875 46.484375 68.546875 
Q 53.21875 62.890625 53.21875 53.421875 
Q 53.21875 48.921875 51.53125 44.890625 
Q 49.859375 40.875 45.40625 35.40625 
Q 44.1875 33.984375 37.640625 27.21875 
Q 31.109375 20.453125 19.1875 8.296875 
z
" id="DejaVuSans-50"/>
      </defs>
      <g transform="translate(13.915 236.656997)scale(0.1 -0.1)">
       <use xlink:href="#DejaVuSans-50"/>
       <use x="63.623047" xlink:href="#DejaVuSans-48"/>
      </g>
     </g>
    </g>
    <g id="ytick_3">
     <g id="line2d_8">
      <g>
       <use style="stroke:#000000;stroke-width:0.8;" x="33.64" xlink:href="#mdecca29149" y="205.595556"/>
      </g>
     </g>
     <g id="text_8">
      <!-- 40 -->
      <defs>
       <path d="M 37.796875 64.3125 
L 12.890625 25.390625 
L 37.796875 25.390625 
z
M 35.203125 72.90625 
L 47.609375 72.90625 
L 47.609375 25.390625 
L 58.015625 25.390625 
L 58.015625 17.1875 
L 47.609375 17.1875 
L 47.609375 0 
L 37.796875 0 
L 37.796875 17.1875 
L 4.890625 17.1875 
L 4.890625 26.703125 
z
" id="DejaVuSans-52"/>
      </defs>
      <g transform="translate(13.915 209.394774)scale(0.1 -0.1)">
       <use xlink:href="#DejaVuSans-52"/>
       <use x="63.623047" xlink:href="#DejaVuSans-48"/>
      </g>
     </g>
    </g>
    <g id="ytick_4">
     <g id="line2d_9">
      <g>
       <use style="stroke:#000000;stroke-width:0.8;" x="33.64" xlink:href="#mdecca29149" y="178.333333"/>
      </g>
     </g>
     <g id="text_9">
      <!-- 60 -->
      <defs>
       <path d="M 33.015625 40.375 
Q 26.375 40.375 22.484375 35.828125 
Q 18.609375 31.296875 18.609375 23.390625 
Q 18.609375 15.53125 22.484375 10.953125 
Q 26.375 6.390625 33.015625 6.390625 
Q 39.65625 6.390625 43.53125 10.953125 
Q 47.40625 15.53125 47.40625 23.390625 
Q 47.40625 31.296875 43.53125 35.828125 
Q 39.65625 40.375 33.015625 40.375 
z
M 52.59375 71.296875 
L 52.59375 62.3125 
Q 48.875 64.0625 45.09375 64.984375 
Q 41.3125 65.921875 37.59375 65.921875 
Q 27.828125 65.921875 22.671875 59.328125 
Q 17.53125 52.734375 16.796875 39.40625 
Q 19.671875 43.65625 24.015625 45.921875 
Q 28.375 48.1875 33.59375 48.1875 
Q 44.578125 48.1875 50.953125 41.515625 
Q 57.328125 34.859375 57.328125 23.390625 
Q 57.328125 12.15625 50.6875 5.359375 
Q 44.046875 -1.421875 33.015625 -1.421875 
Q 20.359375 -1.421875 13.671875 8.265625 
Q 6.984375 17.96875 6.984375 36.375 
Q 6.984375 53.65625 15.1875 63.9375 
Q 23.390625 74.21875 37.203125 74.21875 
Q 40.921875 74.21875 44.703125 73.484375 
Q 48.484375 72.75 52.59375 71.296875 
z
" id="DejaVuSans-54"/>
      </defs>
      <g transform="translate(13.915 182.132552)scale(0.1 -0.1)">
       <use xlink:href="#DejaVuSans-54"/>
       <use x="63.623047" xlink:href="#DejaVuSans-48"/>
      </g>
     </g>
    </g>
    <g id="ytick_5">
     <g id="line2d_10">
      <g>
       <use style="stroke:#000000;stroke-width:0.8;" x="33.64" xlink:href="#mdecca29149" y="151.071111"/>
      </g>
     </g>
     <g id="text_10">
      <!-- 80 -->
      <defs>
       <path d="M 31.78125 34.625 
Q 24.75 34.625 20.71875 30.859375 
Q 16.703125 27.09375 16.703125 20.515625 
Q 16.703125 13.921875 20.71875 10.15625 
Q 24.75 6.390625 31.78125 6.390625 
Q 38.8125 6.390625 42.859375 10.171875 
Q 46.921875 13.96875 46.921875 20.515625 
Q 46.921875 27.09375 42.890625 30.859375 
Q 38.875 34.625 31.78125 34.625 
z
M 21.921875 38.8125 
Q 15.578125 40.375 12.03125 44.71875 
Q 8.5 49.078125 8.5 55.328125 
Q 8.5 64.0625 14.71875 69.140625 
Q 20.953125 74.21875 31.78125 74.21875 
Q 42.671875 74.21875 48.875 69.140625 
Q 55.078125 64.0625 55.078125 55.328125 
Q 55.078125 49.078125 51.53125 44.71875 
Q 48 40.375 41.703125 38.8125 
Q 48.828125 37.15625 52.796875 32.3125 
Q 56.78125 27.484375 56.78125 20.515625 
Q 56.78125 9.90625 50.3125 4.234375 
Q 43.84375 -1.421875 31.78125 -1.421875 
Q 19.734375 -1.421875 13.25 4.234375 
Q 6.78125 9.90625 6.78125 20.515625 
Q 6.78125 27.484375 10.78125 32.3125 
Q 14.796875 37.15625 21.921875 38.8125 
z
M 18.3125 54.390625 
Q 18.3125 48.734375 21.84375 45.5625 
Q 25.390625 42.390625 31.78125 42.390625 
Q 38.140625 42.390625 41.71875 45.5625 
Q 45.3125 48.734375 45.3125 54.390625 
Q 45.3125 60.0625 41.71875 63.234375 
Q 38.140625 66.40625 31.78125 66.40625 
Q 25.390625 66.40625 21.84375 63.234375 
Q 18.3125 60.0625 18.3125 54.390625 
z
" id="DejaVuSans-56"/>
      </defs>
      <g transform="translate(13.915 154.87033)scale(0.1 -0.1)">
       <use xlink:href="#DejaVuSans-56"/>
       <use x="63.623047" xlink:href="#DejaVuSans-48"/>
      </g>
     </g>
    </g>
    <g id="ytick_6">
     <g id="line2d_11">
      <g>
       <use style="stroke:#000000;stroke-width:0.8;" x="33.64" xlink:href="#mdecca29149" y="123.808889"/>
      </g>
     </g>
     <g id="text_11">
      <!-- 100 -->
      <defs>
       <path d="M 12.40625 8.296875 
L 28.515625 8.296875 
L 28.515625 63.921875 
L 10.984375 60.40625 
L 10.984375 69.390625 
L 28.421875 72.90625 
L 38.28125 72.90625 
L 38.28125 8.296875 
L 54.390625 8.296875 
L 54.390625 0 
L 12.40625 0 
z
" id="DejaVuSans-49"/>
      </defs>
      <g transform="translate(7.5525 127.608108)scale(0.1 -0.1)">
       <use xlink:href="#DejaVuSans-49"/>
       <use x="63.623047" xlink:href="#DejaVuSans-48"/>
       <use x="127.246094" xlink:href="#DejaVuSans-48"/>
      </g>
     </g>
    </g>
    <g id="ytick_7">
     <g id="line2d_12">
      <g>
       <use style="stroke:#000000;stroke-width:0.8;" x="33.64" xlink:href="#mdecca29149" y="96.546667"/>
      </g>
     </g>
     <g id="text_12">
      <!-- 120 -->
      <g transform="translate(7.5525 100.345885)scale(0.1 -0.1)">
       <use xlink:href="#DejaVuSans-49"/>
       <use x="63.623047" xlink:href="#DejaVuSans-50"/>
       <use x="127.246094" xlink:href="#DejaVuSans-48"/>
      </g>
     </g>
    </g>
    <g id="ytick_8">
     <g id="line2d_13">
      <g>
       <use style="stroke:#000000;stroke-width:0.8;" x="33.64" xlink:href="#mdecca29149" y="69.284444"/>
      </g>
     </g>
     <g id="text_13">
      <!-- 140 -->
      <g transform="translate(7.5525 73.083663)scale(0.1 -0.1)">
       <use xlink:href="#DejaVuSans-49"/>
       <use x="63.623047" xlink:href="#DejaVuSans-52"/>
       <use x="127.246094" xlink:href="#DejaVuSans-48"/>
      </g>
     </g>
    </g>
    <g id="ytick_9">
     <g id="line2d_14">
      <g>
       <use style="stroke:#000000;stroke-width:0.8;" x="33.64" xlink:href="#mdecca29149" y="42.022222"/>
      </g>
     </g>
     <g id="text_14">
      <!-- 160 -->
      <g transform="translate(7.5525 45.821441)scale(0.1 -0.1)">
       <use xlink:href="#DejaVuSans-49"/>
       <use x="63.623047" xlink:href="#DejaVuSans-54"/>
       <use x="127.246094" xlink:href="#DejaVuSans-48"/>
      </g>
     </g>
    </g>
    <g id="ytick_10">
     <g id="line2d_15">
      <g>
       <use style="stroke:#000000;stroke-width:0.8;" x="33.64" xlink:href="#mdecca29149" y="14.76"/>
      </g>
     </g>
     <g id="text_15">
      <!-- 180 -->
      <g transform="translate(7.5525 18.559219)scale(0.1 -0.1)">
       <use xlink:href="#DejaVuSans-49"/>
       <use x="63.623047" xlink:href="#DejaVuSans-56"/>
       <use x="127.246094" xlink:href="#DejaVuSans-48"/>
      </g>
     </g>
    </g>
   </g>
   <g id="line2d_16">
    <path clip-path="url(#p01ae1465f2)" d="M 33.64 260.12 
L 108.476806 260.12 
L 109.888715 257.393778 
L 111.328286 257.393778 
L 112.763207 253.304444 
L 114.197876 251.941333 
L 115.635891 249.215111 
L 117.072043 249.215111 
L 118.51022 246.488889 
L 119.946512 242.399556 
L 121.381901 242.399556 
L 122.818008 236.947111 
L 124.255935 235.584 
L 125.693004 235.584 
L 127.131038 232.857778 
L 128.565784 228.768444 
L 131.437678 228.768444 
L 132.872646 224.679111 
L 134.309164 221.952889 
L 135.745695 221.952889 
L 137.184807 219.226667 
L 138.621533 219.226667 
L 140.059273 221.952889 
L 141.493909 228.768444 
L 144.362982 228.768444 
L 147.232781 239.673333 
L 148.672323 239.673333 
L 150.109331 238.310222 
L 151.54761 235.584 
L 152.982236 235.584 
L 154.416984 227.405333 
L 155.851313 226.042222 
L 157.286651 223.316 
L 158.721314 223.316 
L 160.159001 221.952889 
L 163.029645 221.952889 
L 164.467114 209.684889 
L 165.901784 209.684889 
L 167.337829 208.321778 
L 168.773067 198.78 
L 170.211685 197.416889 
L 171.646871 197.416889 
L 173.082007 191.964444 
L 175.952742 191.964444 
L 177.390731 187.875111 
L 178.825493 189.238222 
L 180.260625 189.238222 
L 181.695634 174.244 
L 183.131223 166.065333 
L 184.567448 166.065333 
L 186.005116 141.529333 
L 187.443533 126.535111 
L 188.880376 126.535111 
L 193.193142 63.832 
L 194.631381 63.832 
L 196.069224 61.105778 
L 197.506893 61.105778 
L 198.945057 57.016444 
L 200.384241 76.1 
L 201.823146 84.278667 
L 203.261416 84.278667 
L 204.697194 87.004889 
L 207.567618 87.004889 
L 209.003601 92.457333 
L 210.438966 100.636 
L 211.876665 101.999111 
L 213.314392 101.999111 
L 214.749712 116.993333 
L 216.185311 116.993333 
L 217.621608 133.350667 
L 219.05742 157.886667 
L 220.493493 166.065333 
L 221.930054 166.065333 
L 223.365399 176.970222 
L 224.801239 190.601333 
L 227.675704 190.601333 
L 229.111957 260.12 
L 309.692444 260.12 
L 311.104383 258.756889 
L 312.540364 245.125778 
L 313.97549 245.125778 
L 315.409768 236.947111 
L 316.848325 236.947111 
L 318.283696 232.857778 
L 319.71883 227.405333 
L 321.153923 227.405333 
L 322.590467 224.679111 
L 324.027592 223.316 
L 328.338471 223.316 
L 329.773542 227.405333 
L 331.211942 227.405333 
L 332.65322 234.220889 
L 334.088305 235.584 
L 336.963378 235.584 
L 338.401285 232.857778 
L 339.838109 232.857778 
L 341.272872 228.768444 
L 342.70798 234.220889 
L 344.142311 231.494667 
L 345.581677 231.494667 
L 347.016473 232.857778 
L 348.451223 230.131556 
L 349.886459 230.131556 
L 351.32142 228.768444 
L 354.193852 215.137333 
L 355.629614 215.137333 
L 357.065255 204.232444 
L 358.500219 204.232444 
L 359.93616 208.321778 
L 361.370983 204.232444 
L 362.805549 204.232444 
L 364.240171 202.869333 
L 365.674806 206.958667 
L 367.112307 206.958667 
L 368.55892 201.506222 
L 369.995909 202.869333 
L 371.430962 193.327556 
L 372.86661 193.327556 
L 374.303281 179.696444 
L 375.741657 168.791556 
L 377.178075 168.791556 
L 378.616832 152.434222 
L 380.055393 130.624444 
L 381.489874 121.082667 
L 382.926416 121.082667 
L 384.361636 104.725333 
L 385.797525 99.272889 
L 387.233025 99.272889 
L 388.669336 82.915556 
L 390.106811 82.915556 
L 391.542155 69.284444 
L 392.978761 63.832 
L 394.414866 51.564 
L 395.851039 51.564 
L 397.286273 58.379556 
L 398.722478 37.932889 
L 400.159861 37.932889 
L 401.594827 46.111556 
L 403.030849 32.480444 
L 404.466866 32.480444 
L 405.902857 36.569778 
L 407.337524 31.117333 
L 408.773734 31.117333 
L 410.210012 29.754222 
L 411.647981 44.748444 
L 413.083966 63.832 
L 414.520257 63.832 
L 415.95603 77.463111 
L 417.394615 92.457333 
L 418.829899 92.457333 
L 420.265495 101.999111 
L 421.70147 108.814667 
L 423.136989 108.814667 
L 424.573925 134.713778 
L 426.010143 136.076889 
L 427.445693 136.076889 
L 428.882078 142.892444 
L 430.318023 260.12 
L 510.897711 260.12 
L 512.333116 258.756889 
L 513.768473 246.488889 
L 515.206193 246.488889 
L 516.640824 235.584 
L 518.076032 228.768444 
L 519.512017 220.589778 
L 520.947063 220.589778 
L 522.38343 215.137333 
L 523.821043 215.137333 
L 526.694352 204.232444 
L 528.132087 211.048 
L 529.568366 211.048 
L 532.440819 205.595556 
L 533.876445 205.595556 
L 535.312615 211.048 
L 536.748736 211.048 
L 538.186619 224.679111 
L 539.622042 224.679111 
L 541.058045 220.589778 
L 542.493669 220.589778 
L 543.934572 223.316 
L 545.370081 221.952889 
L 546.808548 221.952889 
L 548.245801 227.405333 
L 549.681768 223.316 
L 551.117742 223.316 
L 553.993253 215.137333 
L 555.43063 215.137333 
L 556.868332 212.411111 
L 558.304755 211.048 
L 559.740985 205.595556 
L 561.176643 205.595556 
L 562.613483 201.506222 
L 564.049274 200.143111 
L 565.485015 200.143111 
L 566.921119 197.416889 
L 568.357435 198.78 
L 569.793691 198.78 
L 571.229633 189.238222 
L 572.665535 183.785778 
L 574.102353 174.244 
L 575.537094 175.607111 
L 576.978327 172.880889 
L 578.414866 172.880889 
L 579.85198 167.428444 
L 581.292179 152.434222 
L 582.727323 144.255556 
L 584.16229 144.255556 
L 585.598434 121.082667 
L 587.035144 103.362222 
L 588.471766 103.362222 
L 589.910622 76.1 
L 591.346402 54.290222 
L 592.780798 54.290222 
L 594.215762 35.206667 
L 595.654893 32.480444 
L 597.089934 32.480444 
L 598.525177 28.391111 
L 599.962725 39.296 
L 601.401224 39.296 
L 602.835739 40.659111 
L 604.273794 54.290222 
L 605.716046 63.832 
L 607.152651 63.832 
L 610.02851 108.814667 
L 611.467616 108.814667 
L 612.905301 126.535111 
L 614.342027 141.529333 
L 615.778468 160.612889 
L 617.214962 160.612889 
L 618.65054 172.880889 
L 620.086724 172.880889 
L 621.52493 189.238222 
L 624.398588 200.143111 
L 625.835189 200.143111 
L 627.272237 201.506222 
L 633.016482 201.506222 
L 634.453482 260.12 
L 710.761556 260.12 
L 712.173865 257.393778 
L 713.609418 257.393778 
L 715.047516 249.215111 
L 716.482388 249.215111 
L 717.916842 247.852 
L 719.3513 239.673333 
L 722.221885 239.673333 
L 725.09521 234.220889 
L 726.530027 234.220889 
L 727.965276 238.310222 
L 729.400834 239.673333 
L 730.835244 239.673333 
L 733.705792 236.947111 
L 735.140808 236.947111 
L 736.576392 235.584 
L 738.01178 231.494667 
L 739.446205 232.857778 
L 742.320251 232.857778 
L 743.754978 234.220889 
L 745.19132 234.220889 
L 746.625893 227.405333 
L 748.061597 223.316 
L 749.496726 223.316 
L 750.934649 217.863556 
L 753.805448 217.863556 
L 755.240733 215.137333 
L 756.677203 217.863556 
L 758.115426 217.863556 
L 759.551419 228.768444 
L 760.989926 226.042222 
L 762.427568 219.226667 
L 763.862783 219.226667 
L 765.29891 215.137333 
L 766.736858 209.684889 
L 768.173823 209.684889 
L 769.609316 206.958667 
L 771.049831 206.958667 
L 772.487711 201.506222 
L 773.923319 204.232444 
L 775.361206 190.601333 
L 776.796854 190.601333 
L 778.232895 171.517778 
L 779.669755 161.976 
L 781.107134 161.976 
L 782.544965 144.255556 
L 783.981528 122.445778 
L 785.419329 122.445778 
L 786.855269 100.636 
L 788.291352 101.999111 
L 789.72751 91.094222 
L 791.165138 91.094222 
L 792.600803 88.368 
L 794.036709 72.010667 
L 795.472737 72.010667 
L 796.908925 50.200889 
L 798.345458 35.206667 
L 799.781781 35.206667 
L 801.217922 40.659111 
L 802.65377 31.117333 
L 804.090167 31.117333 
L 805.526563 39.296 
L 806.963367 50.200889 
L 808.398775 50.200889 
L 809.83488 51.564 
L 812.707126 67.921333 
L 817.014573 67.921333 
L 818.450972 87.004889 
L 819.887792 96.546667 
L 821.324732 96.546667 
L 822.760469 127.898222 
L 824.196203 146.981778 
L 825.634184 163.339111 
L 827.070077 163.339111 
L 828.506146 168.791556 
L 829.942827 176.970222 
L 831.379337 179.696444 
L 835.687289 179.696444 
L 837.123167 260.12 
L 912.020191 260.12 
L 913.431697 257.393778 
L 914.867173 257.393778 
L 916.301862 243.762667 
L 917.737152 223.316 
L 919.174992 216.500444 
L 920.609887 216.500444 
L 922.047793 208.321778 
L 924.921375 208.321778 
L 926.359075 197.416889 
L 929.234966 197.416889 
L 930.673907 193.327556 
L 934.981609 193.327556 
L 936.417865 189.238222 
L 937.854591 189.238222 
L 939.290984 191.964444 
L 940.726881 198.78 
L 942.162796 198.78 
L 943.598978 194.690667 
L 947.906759 194.690667 
L 949.341162 196.053778 
L 950.776906 196.053778 
L 952.213436 190.601333 
L 953.648529 200.143111 
L 955.084672 200.143111 
L 957.954774 202.869333 
L 959.39016 196.053778 
L 960.826067 196.053778 
L 962.261748 194.690667 
L 963.697702 197.416889 
L 965.134697 197.416889 
L 966.572341 190.601333 
L 968.009063 194.690667 
L 969.445171 194.690667 
L 970.881235 186.512 
L 972.317895 185.148889 
L 973.752514 185.148889 
L 975.187316 189.238222 
L 976.625243 182.422667 
L 978.060263 174.244 
L 979.496065 174.244 
L 980.931346 191.964444 
L 982.367361 191.964444 
L 983.803599 181.059556 
L 985.240656 164.702222 
L 986.676243 146.981778 
L 988.114676 146.981778 
L 989.550387 133.350667 
L 990.986511 130.624444 
L 992.421553 130.624444 
L 993.856877 140.166222 
L 995.292417 137.44 
L 996.730086 131.987556 
L 998.165914 131.987556 
L 999.600959 123.808889 
L 1001.039172 123.808889 
L 1002.477345 108.814667 
L 1003.9135 101.999111 
L 1005.348351 97.909778 
L 1006.787579 97.909778 
L 1008.223367 96.546667 
L 1009.65809 96.546667 
L 1011.093463 95.183556 
L 1012.529332 104.725333 
L 1013.964454 119.719556 
L 1015.399421 119.719556 
L 1016.834846 121.082667 
L 1018.269746 123.808889 
L 1019.704222 123.808889 
L 1021.13956 134.713778 
L 1022.574277 140.166222 
L 1024.009731 140.166222 
L 1025.444781 155.160444 
L 1026.879559 161.976 
L 1028.318134 161.976 
L 1029.753399 163.339111 
L 1031.191371 167.428444 
L 1032.629816 167.428444 
L 1034.068689 179.696444 
L 1035.50717 260.12 
L 1116.055526 260.12 
L 1117.489773 250.578222 
L 1118.924735 246.488889 
L 1120.362137 238.310222 
L 1121.799644 238.310222 
L 1124.669284 224.679111 
L 1126.105512 224.679111 
L 1127.540094 220.589778 
L 1128.975365 211.048 
L 1130.410606 211.048 
L 1131.845628 206.958667 
L 1133.28 200.143111 
L 1133.28 200.143111 
" style="fill:none;stroke:#1f77b4;stroke-linecap:square;stroke-width:1.5;"/>
   </g>
   <g id="patch_3">
    <path d="M 33.64 260.12 
L 33.64 14.76 
" style="fill:none;stroke:#000000;stroke-linecap:square;stroke-linejoin:miter;stroke-width:0.8;"/>
   </g>
   <g id="patch_4">
    <path d="M 1133.28 260.12 
L 1133.28 14.76 
" style="fill:none;stroke:#000000;stroke-linecap:square;stroke-linejoin:miter;stroke-width:0.8;"/>
   </g>
   <g id="patch_5">
    <path d="M 33.64 260.12 
L 1133.28 260.12 
" style="fill:none;stroke:#000000;stroke-linecap:square;stroke-linejoin:miter;stroke-width:0.8;"/>
   </g>
   <g id="patch_6">
    <path d="M 33.64 14.76 
L 1133.28 14.76 
" style="fill:none;stroke:#000000;stroke-linecap:square;stroke-linejoin:miter;stroke-width:0.8;"/>
   </g>
  </g>
 </g>
 <defs>
  <clipPath id="p01ae1465f2">
   <rect height="245.36" width="1099.64" x="33.64" y="14.76"/>
  </clipPath>
 </defs>
</svg>
