<?xml version="1.0" encoding="utf-8" standalone="no"?>
<!DOCTYPE svg PUBLIC "-//W3C//DTD SVG 1.1//EN"
  "http://www.w3.org/Graphics/SVG/1.1/DTD/svg11.dtd">
<!-- Created with matplotlib (https://matplotlib.org/) -->
<svg height="288pt" version="1.1" viewBox="0 0 1152 288" width="1152pt" xmlns="http://www.w3.org/2000/svg" xmlns:xlink="http://www.w3.org/1999/xlink">
 <defs>
  <style type="text/css">
*{stroke-linecap:butt;stroke-linejoin:round;}
  </style>
 </defs>
 <g id="figure_1">
  <g id="patch_1">
   <path d="M 0 288 
L 1152 288 
L 1152 0 
L 0 0 
z
" style="fill:#ffffff;"/>
  </g>
  <g id="axes_1">
   <g id="patch_2">
    <path d="M 33.64 260.12 
L 1133.28 260.12 
L 1133.28 14.76 
L 33.64 14.76 
z
" style="fill:#ffffff;"/>
   </g>
   <g id="matplotlib.axis_1">
    <g id="xtick_1">
     <g id="line2d_1">
      <defs>
       <path d="M 0 0 
L 0 3.5 
" id="m96207609ee" style="stroke:#000000;stroke-width:0.8;"/>
      </defs>
      <g>
       <use style="stroke:#000000;stroke-width:0.8;" x="230.903665" xlink:href="#m96207609ee" y="260.12"/>
      </g>
     </g>
     <g id="text_1">
      <!-- Tue 00:00 -->
      <defs>
       <path d="M -0.296875 72.90625 
L 61.375 72.90625 
L 61.375 64.59375 
L 35.5 64.59375 
L 35.5 0 
L 25.59375 0 
L 25.59375 64.59375 
L -0.296875 64.59375 
z
" id="DejaVuSans-84"/>
       <path d="M 8.5 21.578125 
L 8.5 54.6875 
L 17.484375 54.6875 
L 17.484375 21.921875 
Q 17.484375 14.15625 20.5 10.265625 
Q 23.53125 6.390625 29.59375 6.390625 
Q 36.859375 6.390625 41.078125 11.03125 
Q 45.3125 15.671875 45.3125 23.6875 
L 45.3125 54.6875 
L 54.296875 54.6875 
L 54.296875 0 
L 45.3125 0 
L 45.3125 8.40625 
Q 42.046875 3.421875 37.71875 1 
Q 33.40625 -1.421875 27.6875 -1.421875 
Q 18.265625 -1.421875 13.375 4.4375 
Q 8.5 10.296875 8.5 21.578125 
z
M 31.109375 56 
z
" id="DejaVuSans-117"/>
       <path d="M 56.203125 29.59375 
L 56.203125 25.203125 
L 14.890625 25.203125 
Q 15.484375 15.921875 20.484375 11.0625 
Q 25.484375 6.203125 34.421875 6.203125 
Q 39.59375 6.203125 44.453125 7.46875 
Q 49.3125 8.734375 54.109375 11.28125 
L 54.109375 2.78125 
Q 49.265625 0.734375 44.1875 -0.34375 
Q 39.109375 -1.421875 33.890625 -1.421875 
Q 20.796875 -1.421875 13.15625 6.1875 
Q 5.515625 13.8125 5.515625 26.8125 
Q 5.515625 40.234375 12.765625 48.109375 
Q 20.015625 56 32.328125 56 
Q 43.359375 56 49.78125 48.890625 
Q 56.203125 41.796875 56.203125 29.59375 
z
M 47.21875 32.234375 
Q 47.125 39.59375 43.09375 43.984375 
Q 39.0625 48.390625 32.421875 48.390625 
Q 24.90625 48.390625 20.390625 44.140625 
Q 15.875 39.890625 15.1875 32.171875 
z
" id="DejaVuSans-101"/>
       <path id="DejaVuSans-32"/>
       <path d="M 31.78125 66.40625 
Q 24.171875 66.40625 20.328125 58.90625 
Q 16.5 51.421875 16.5 36.375 
Q 16.5 21.390625 20.328125 13.890625 
Q 24.171875 6.390625 31.78125 6.390625 
Q 39.453125 6.390625 43.28125 13.890625 
Q 47.125 21.390625 47.125 36.375 
Q 47.125 51.421875 43.28125 58.90625 
Q 39.453125 66.40625 31.78125 66.40625 
z
M 31.78125 74.21875 
Q 44.046875 74.21875 50.515625 64.515625 
Q 56.984375 54.828125 56.984375 36.375 
Q 56.984375 17.96875 50.515625 8.265625 
Q 44.046875 -1.421875 31.78125 -1.421875 
Q 19.53125 -1.421875 13.0625 8.265625 
Q 6.59375 17.96875 6.59375 36.375 
Q 6.59375 54.828125 13.0625 64.515625 
Q 19.53125 74.21875 31.78125 74.21875 
z
" id="DejaVuSans-48"/>
       <path d="M 11.71875 12.40625 
L 22.015625 12.40625 
L 22.015625 0 
L 11.71875 0 
z
M 11.71875 51.703125 
L 22.015625 51.703125 
L 22.015625 39.3125 
L 11.71875 39.3125 
z
" id="DejaVuSans-58"/>
      </defs>
      <g transform="translate(205.617727 274.718437)scale(0.1 -0.1)">
       <use xlink:href="#DejaVuSans-84"/>
       <use x="60.849609" xlink:href="#DejaVuSans-117"/>
       <use x="124.228516" xlink:href="#DejaVuSans-101"/>
       <use x="185.751953" xlink:href="#DejaVuSans-32"/>
       <use x="217.539062" xlink:href="#DejaVuSans-48"/>
       <use x="281.162109" xlink:href="#DejaVuSans-48"/>
       <use x="344.785156" xlink:href="#DejaVuSans-58"/>
       <use x="378.476562" xlink:href="#DejaVuSans-48"/>
       <use x="442.099609" xlink:href="#DejaVuSans-48"/>
      </g>
     </g>
    </g>
    <g id="xtick_2">
     <g id="line2d_2">
      <g>
       <use style="stroke:#000000;stroke-width:0.8;" x="429.255961" xlink:href="#m96207609ee" y="260.12"/>
      </g>
     </g>
     <g id="text_2">
      <!-- Wed 00:00 -->
      <defs>
       <path d="M 3.328125 72.90625 
L 13.28125 72.90625 
L 28.609375 11.28125 
L 43.890625 72.90625 
L 54.984375 72.90625 
L 70.3125 11.28125 
L 85.59375 72.90625 
L 95.609375 72.90625 
L 77.296875 0 
L 64.890625 0 
L 49.515625 63.28125 
L 33.984375 0 
L 21.578125 0 
z
" id="DejaVuSans-87"/>
       <path d="M 45.40625 46.390625 
L 45.40625 75.984375 
L 54.390625 75.984375 
L 54.390625 0 
L 45.40625 0 
L 45.40625 8.203125 
Q 42.578125 3.328125 38.25 0.953125 
Q 33.9375 -1.421875 27.875 -1.421875 
Q 17.96875 -1.421875 11.734375 6.484375 
Q 5.515625 14.40625 5.515625 27.296875 
Q 5.515625 40.1875 11.734375 48.09375 
Q 17.96875 56 27.875 56 
Q 33.9375 56 38.25 53.625 
Q 42.578125 51.265625 45.40625 46.390625 
z
M 14.796875 27.296875 
Q 14.796875 17.390625 18.875 11.75 
Q 22.953125 6.109375 30.078125 6.109375 
Q 37.203125 6.109375 41.296875 11.75 
Q 45.40625 17.390625 45.40625 27.296875 
Q 45.40625 37.203125 41.296875 42.84375 
Q 37.203125 48.484375 30.078125 48.484375 
Q 22.953125 48.484375 18.875 42.84375 
Q 14.796875 37.203125 14.796875 27.296875 
z
" id="DejaVuSans-100"/>
      </defs>
      <g transform="translate(402.066899 274.718437)scale(0.1 -0.1)">
       <use xlink:href="#DejaVuSans-87"/>
       <use x="98.798828" xlink:href="#DejaVuSans-101"/>
       <use x="160.322266" xlink:href="#DejaVuSans-100"/>
       <use x="223.798828" xlink:href="#DejaVuSans-32"/>
       <use x="255.585938" xlink:href="#DejaVuSans-48"/>
       <use x="319.208984" xlink:href="#DejaVuSans-48"/>
       <use x="382.832031" xlink:href="#DejaVuSans-58"/>
       <use x="416.523438" xlink:href="#DejaVuSans-48"/>
       <use x="480.146484" xlink:href="#DejaVuSans-48"/>
      </g>
     </g>
    </g>
    <g id="xtick_3">
     <g id="line2d_3">
      <g>
       <use style="stroke:#000000;stroke-width:0.8;" x="627.608258" xlink:href="#m96207609ee" y="260.12"/>
      </g>
     </g>
     <g id="text_3">
      <!-- Thu 00:00 -->
      <defs>
       <path d="M 54.890625 33.015625 
L 54.890625 0 
L 45.90625 0 
L 45.90625 32.71875 
Q 45.90625 40.484375 42.875 44.328125 
Q 39.84375 48.1875 33.796875 48.1875 
Q 26.515625 48.1875 22.3125 43.546875 
Q 18.109375 38.921875 18.109375 30.90625 
L 18.109375 0 
L 9.078125 0 
L 9.078125 75.984375 
L 18.109375 75.984375 
L 18.109375 46.1875 
Q 21.34375 51.125 25.703125 53.5625 
Q 30.078125 56 35.796875 56 
Q 45.21875 56 50.046875 50.171875 
Q 54.890625 44.34375 54.890625 33.015625 
z
" id="DejaVuSans-104"/>
      </defs>
      <g transform="translate(602.218414 274.718437)scale(0.1 -0.1)">
       <use xlink:href="#DejaVuSans-84"/>
       <use x="61.083984" xlink:href="#DejaVuSans-104"/>
       <use x="124.462891" xlink:href="#DejaVuSans-117"/>
       <use x="187.841797" xlink:href="#DejaVuSans-32"/>
       <use x="219.628906" xlink:href="#DejaVuSans-48"/>
       <use x="283.251953" xlink:href="#DejaVuSans-48"/>
       <use x="346.875" xlink:href="#DejaVuSans-58"/>
       <use x="380.566406" xlink:href="#DejaVuSans-48"/>
       <use x="444.189453" xlink:href="#DejaVuSans-48"/>
      </g>
     </g>
    </g>
    <g id="xtick_4">
     <g id="line2d_4">
      <g>
       <use style="stroke:#000000;stroke-width:0.8;" x="825.960554" xlink:href="#m96207609ee" y="260.12"/>
      </g>
     </g>
     <g id="text_4">
      <!-- Fri 00:00 -->
      <defs>
       <path d="M 9.8125 72.90625 
L 51.703125 72.90625 
L 51.703125 64.59375 
L 19.671875 64.59375 
L 19.671875 43.109375 
L 48.578125 43.109375 
L 48.578125 34.8125 
L 19.671875 34.8125 
L 19.671875 0 
L 9.8125 0 
z
" id="DejaVuSans-70"/>
       <path d="M 41.109375 46.296875 
Q 39.59375 47.171875 37.8125 47.578125 
Q 36.03125 48 33.890625 48 
Q 26.265625 48 22.1875 43.046875 
Q 18.109375 38.09375 18.109375 28.8125 
L 18.109375 0 
L 9.078125 0 
L 9.078125 54.6875 
L 18.109375 54.6875 
L 18.109375 46.1875 
Q 20.953125 51.171875 25.484375 53.578125 
Q 30.03125 56 36.53125 56 
Q 37.453125 56 38.578125 55.875 
Q 39.703125 55.765625 41.0625 55.515625 
z
" id="DejaVuSans-114"/>
       <path d="M 9.421875 54.6875 
L 18.40625 54.6875 
L 18.40625 0 
L 9.421875 0 
z
M 9.421875 75.984375 
L 18.40625 75.984375 
L 18.40625 64.59375 
L 9.421875 64.59375 
z
" id="DejaVuSans-105"/>
      </defs>
      <g transform="translate(803.647273 274.718437)scale(0.1 -0.1)">
       <use xlink:href="#DejaVuSans-70"/>
       <use x="57.410156" xlink:href="#DejaVuSans-114"/>
       <use x="98.523438" xlink:href="#DejaVuSans-105"/>
       <use x="126.306641" xlink:href="#DejaVuSans-32"/>
       <use x="158.09375" xlink:href="#DejaVuSans-48"/>
       <use x="221.716797" xlink:href="#DejaVuSans-48"/>
       <use x="285.339844" xlink:href="#DejaVuSans-58"/>
       <use x="319.03125" xlink:href="#DejaVuSans-48"/>
       <use x="382.654297" xlink:href="#DejaVuSans-48"/>
      </g>
     </g>
    </g>
    <g id="xtick_5">
     <g id="line2d_5">
      <g>
       <use style="stroke:#000000;stroke-width:0.8;" x="1024.31285" xlink:href="#m96207609ee" y="260.12"/>
      </g>
     </g>
     <g id="text_5">
      <!-- Sat 00:00 -->
      <defs>
       <path d="M 53.515625 70.515625 
L 53.515625 60.890625 
Q 47.90625 63.578125 42.921875 64.890625 
Q 37.9375 66.21875 33.296875 66.21875 
Q 25.25 66.21875 20.875 63.09375 
Q 16.5 59.96875 16.5 54.203125 
Q 16.5 49.359375 19.40625 46.890625 
Q 22.3125 44.4375 30.421875 42.921875 
L 36.375 41.703125 
Q 47.40625 39.59375 52.65625 34.296875 
Q 57.90625 29 57.90625 20.125 
Q 57.90625 9.515625 50.796875 4.046875 
Q 43.703125 -1.421875 29.984375 -1.421875 
Q 24.8125 -1.421875 18.96875 -0.25 
Q 13.140625 0.921875 6.890625 3.21875 
L 6.890625 13.375 
Q 12.890625 10.015625 18.65625 8.296875 
Q 24.421875 6.59375 29.984375 6.59375 
Q 38.421875 6.59375 43.015625 9.90625 
Q 47.609375 13.234375 47.609375 19.390625 
Q 47.609375 24.75 44.3125 27.78125 
Q 41.015625 30.8125 33.5 32.328125 
L 27.484375 33.5 
Q 16.453125 35.6875 11.515625 40.375 
Q 6.59375 45.0625 6.59375 53.421875 
Q 6.59375 63.09375 13.40625 68.65625 
Q 20.21875 74.21875 32.171875 74.21875 
Q 37.3125 74.21875 42.625 73.28125 
Q 47.953125 72.359375 53.515625 70.515625 
z
" id="DejaVuSans-83"/>
       <path d="M 34.28125 27.484375 
Q 23.390625 27.484375 19.1875 25 
Q 14.984375 22.515625 14.984375 16.5 
Q 14.984375 11.71875 18.140625 8.90625 
Q 21.296875 6.109375 26.703125 6.109375 
Q 34.1875 6.109375 38.703125 11.40625 
Q 43.21875 16.703125 43.21875 25.484375 
L 43.21875 27.484375 
z
M 52.203125 31.203125 
L 52.203125 0 
L 43.21875 0 
L 43.21875 8.296875 
Q 40.140625 3.328125 35.546875 0.953125 
Q 30.953125 -1.421875 24.3125 -1.421875 
Q 15.921875 -1.421875 10.953125 3.296875 
Q 6 8.015625 6 15.921875 
Q 6 25.140625 12.171875 29.828125 
Q 18.359375 34.515625 30.609375 34.515625 
L 43.21875 34.515625 
L 43.21875 35.40625 
Q 43.21875 41.609375 39.140625 45 
Q 35.0625 48.390625 27.6875 48.390625 
Q 23 48.390625 18.546875 47.265625 
Q 14.109375 46.140625 10.015625 43.890625 
L 10.015625 52.203125 
Q 14.9375 54.109375 19.578125 55.046875 
Q 24.21875 56 28.609375 56 
Q 40.484375 56 46.34375 49.84375 
Q 52.203125 43.703125 52.203125 31.203125 
z
" id="DejaVuSans-97"/>
       <path d="M 18.3125 70.21875 
L 18.3125 54.6875 
L 36.8125 54.6875 
L 36.8125 47.703125 
L 18.3125 47.703125 
L 18.3125 18.015625 
Q 18.3125 11.328125 20.140625 9.421875 
Q 21.96875 7.515625 27.59375 7.515625 
L 36.8125 7.515625 
L 36.8125 0 
L 27.59375 0 
Q 17.1875 0 13.234375 3.875 
Q 9.28125 7.765625 9.28125 18.015625 
L 9.28125 47.703125 
L 2.6875 47.703125 
L 2.6875 54.6875 
L 9.28125 54.6875 
L 9.28125 70.21875 
z
" id="DejaVuSans-116"/>
      </defs>
      <g transform="translate(1000.115975 274.718437)scale(0.1 -0.1)">
       <use xlink:href="#DejaVuSans-83"/>
       <use x="63.476562" xlink:href="#DejaVuSans-97"/>
       <use x="124.755859" xlink:href="#DejaVuSans-116"/>
       <use x="163.964844" xlink:href="#DejaVuSans-32"/>
       <use x="195.751953" xlink:href="#DejaVuSans-48"/>
       <use x="259.375" xlink:href="#DejaVuSans-48"/>
       <use x="322.998047" xlink:href="#DejaVuSans-58"/>
       <use x="356.689453" xlink:href="#DejaVuSans-48"/>
       <use x="420.3125" xlink:href="#DejaVuSans-48"/>
      </g>
     </g>
    </g>
   </g>
   <g id="matplotlib.axis_2">
    <g id="ytick_1">
     <g id="line2d_6">
      <defs>
       <path d="M 0 0 
L -3.5 0 
" id="mbd400a6d15" style="stroke:#000000;stroke-width:0.8;"/>
      </defs>
      <g>
       <use style="stroke:#000000;stroke-width:0.8;" x="33.64" xlink:href="#mbd400a6d15" y="260.12"/>
      </g>
     </g>
     <g id="text_6">
      <!-- 0 -->
      <g transform="translate(20.2775 263.919219)scale(0.1 -0.1)">
       <use xlink:href="#DejaVuSans-48"/>
      </g>
     </g>
    </g>
    <g id="ytick_2">
     <g id="line2d_7">
      <g>
       <use style="stroke:#000000;stroke-width:0.8;" x="33.64" xlink:href="#mbd400a6d15" y="232.857778"/>
      </g>
     </g>
     <g id="text_7">
      <!-- 20 -->
      <defs>
       <path d="M 19.1875 8.296875 
L 53.609375 8.296875 
L 53.609375 0 
L 7.328125 0 
L 7.328125 8.296875 
Q 12.9375 14.109375 22.625 23.890625 
Q 32.328125 33.6875 34.8125 36.53125 
Q 39.546875 41.84375 41.421875 45.53125 
Q 43.3125 49.21875 43.3125 52.78125 
Q 43.3125 58.59375 39.234375 62.25 
Q 35.15625 65.921875 28.609375 65.921875 
Q 23.96875 65.921875 18.8125 64.3125 
Q 13.671875 62.703125 7.8125 59.421875 
L 7.8125 69.390625 
Q 13.765625 71.78125 18.9375 73 
Q 24.125 74.21875 28.421875 74.21875 
Q 39.75 74.21875 46.484375 68.546875 
Q 53.21875 62.890625 53.21875 53.421875 
Q 53.21875 48.921875 51.53125 44.890625 
Q 49.859375 40.875 45.40625 35.40625 
Q 44.1875 33.984375 37.640625 27.21875 
Q 31.109375 20.453125 19.1875 8.296875 
z
" id="DejaVuSans-50"/>
      </defs>
      <g transform="translate(13.915 236.656997)scale(0.1 -0.1)">
       <use xlink:href="#DejaVuSans-50"/>
       <use x="63.623047" xlink:href="#DejaVuSans-48"/>
      </g>
     </g>
    </g>
    <g id="ytick_3">
     <g id="line2d_8">
      <g>
       <use style="stroke:#000000;stroke-width:0.8;" x="33.64" xlink:href="#mbd400a6d15" y="205.595556"/>
      </g>
     </g>
     <g id="text_8">
      <!-- 40 -->
      <defs>
       <path d="M 37.796875 64.3125 
L 12.890625 25.390625 
L 37.796875 25.390625 
z
M 35.203125 72.90625 
L 47.609375 72.90625 
L 47.609375 25.390625 
L 58.015625 25.390625 
L 58.015625 17.1875 
L 47.609375 17.1875 
L 47.609375 0 
L 37.796875 0 
L 37.796875 17.1875 
L 4.890625 17.1875 
L 4.890625 26.703125 
z
" id="DejaVuSans-52"/>
      </defs>
      <g transform="translate(13.915 209.394774)scale(0.1 -0.1)">
       <use xlink:href="#DejaVuSans-52"/>
       <use x="63.623047" xlink:href="#DejaVuSans-48"/>
      </g>
     </g>
    </g>
    <g id="ytick_4">
     <g id="line2d_9">
      <g>
       <use style="stroke:#000000;stroke-width:0.8;" x="33.64" xlink:href="#mbd400a6d15" y="178.333333"/>
      </g>
     </g>
     <g id="text_9">
      <!-- 60 -->
      <defs>
       <path d="M 33.015625 40.375 
Q 26.375 40.375 22.484375 35.828125 
Q 18.609375 31.296875 18.609375 23.390625 
Q 18.609375 15.53125 22.484375 10.953125 
Q 26.375 6.390625 33.015625 6.390625 
Q 39.65625 6.390625 43.53125 10.953125 
Q 47.40625 15.53125 47.40625 23.390625 
Q 47.40625 31.296875 43.53125 35.828125 
Q 39.65625 40.375 33.015625 40.375 
z
M 52.59375 71.296875 
L 52.59375 62.3125 
Q 48.875 64.0625 45.09375 64.984375 
Q 41.3125 65.921875 37.59375 65.921875 
Q 27.828125 65.921875 22.671875 59.328125 
Q 17.53125 52.734375 16.796875 39.40625 
Q 19.671875 43.65625 24.015625 45.921875 
Q 28.375 48.1875 33.59375 48.1875 
Q 44.578125 48.1875 50.953125 41.515625 
Q 57.328125 34.859375 57.328125 23.390625 
Q 57.328125 12.15625 50.6875 5.359375 
Q 44.046875 -1.421875 33.015625 -1.421875 
Q 20.359375 -1.421875 13.671875 8.265625 
Q 6.984375 17.96875 6.984375 36.375 
Q 6.984375 53.65625 15.1875 63.9375 
Q 23.390625 74.21875 37.203125 74.21875 
Q 40.921875 74.21875 44.703125 73.484375 
Q 48.484375 72.75 52.59375 71.296875 
z
" id="DejaVuSans-54"/>
      </defs>
      <g transform="translate(13.915 182.132552)scale(0.1 -0.1)">
       <use xlink:href="#DejaVuSans-54"/>
       <use x="63.623047" xlink:href="#DejaVuSans-48"/>
      </g>
     </g>
    </g>
    <g id="ytick_5">
     <g id="line2d_10">
      <g>
       <use style="stroke:#000000;stroke-width:0.8;" x="33.64" xlink:href="#mbd400a6d15" y="151.071111"/>
      </g>
     </g>
     <g id="text_10">
      <!-- 80 -->
      <defs>
       <path d="M 31.78125 34.625 
Q 24.75 34.625 20.71875 30.859375 
Q 16.703125 27.09375 16.703125 20.515625 
Q 16.703125 13.921875 20.71875 10.15625 
Q 24.75 6.390625 31.78125 6.390625 
Q 38.8125 6.390625 42.859375 10.171875 
Q 46.921875 13.96875 46.921875 20.515625 
Q 46.921875 27.09375 42.890625 30.859375 
Q 38.875 34.625 31.78125 34.625 
z
M 21.921875 38.8125 
Q 15.578125 40.375 12.03125 44.71875 
Q 8.5 49.078125 8.5 55.328125 
Q 8.5 64.0625 14.71875 69.140625 
Q 20.953125 74.21875 31.78125 74.21875 
Q 42.671875 74.21875 48.875 69.140625 
Q 55.078125 64.0625 55.078125 55.328125 
Q 55.078125 49.078125 51.53125 44.71875 
Q 48 40.375 41.703125 38.8125 
Q 48.828125 37.15625 52.796875 32.3125 
Q 56.78125 27.484375 56.78125 20.515625 
Q 56.78125 9.90625 50.3125 4.234375 
Q 43.84375 -1.421875 31.78125 -1.421875 
Q 19.734375 -1.421875 13.25 4.234375 
Q 6.78125 9.90625 6.78125 20.515625 
Q 6.78125 27.484375 10.78125 32.3125 
Q 14.796875 37.15625 21.921875 38.8125 
z
M 18.3125 54.390625 
Q 18.3125 48.734375 21.84375 45.5625 
Q 25.390625 42.390625 31.78125 42.390625 
Q 38.140625 42.390625 41.71875 45.5625 
Q 45.3125 48.734375 45.3125 54.390625 
Q 45.3125 60.0625 41.71875 63.234375 
Q 38.140625 66.40625 31.78125 66.40625 
Q 25.390625 66.40625 21.84375 63.234375 
Q 18.3125 60.0625 18.3125 54.390625 
z
" id="DejaVuSans-56"/>
      </defs>
      <g transform="translate(13.915 154.87033)scale(0.1 -0.1)">
       <use xlink:href="#DejaVuSans-56"/>
       <use x="63.623047" xlink:href="#DejaVuSans-48"/>
      </g>
     </g>
    </g>
    <g id="ytick_6">
     <g id="line2d_11">
      <g>
       <use style="stroke:#000000;stroke-width:0.8;" x="33.64" xlink:href="#mbd400a6d15" y="123.808889"/>
      </g>
     </g>
     <g id="text_11">
      <!-- 100 -->
      <defs>
       <path d="M 12.40625 8.296875 
L 28.515625 8.296875 
L 28.515625 63.921875 
L 10.984375 60.40625 
L 10.984375 69.390625 
L 28.421875 72.90625 
L 38.28125 72.90625 
L 38.28125 8.296875 
L 54.390625 8.296875 
L 54.390625 0 
L 12.40625 0 
z
" id="DejaVuSans-49"/>
      </defs>
      <g transform="translate(7.5525 127.608108)scale(0.1 -0.1)">
       <use xlink:href="#DejaVuSans-49"/>
       <use x="63.623047" xlink:href="#DejaVuSans-48"/>
       <use x="127.246094" xlink:href="#DejaVuSans-48"/>
      </g>
     </g>
    </g>
    <g id="ytick_7">
     <g id="line2d_12">
      <g>
       <use style="stroke:#000000;stroke-width:0.8;" x="33.64" xlink:href="#mbd400a6d15" y="96.546667"/>
      </g>
     </g>
     <g id="text_12">
      <!-- 120 -->
      <g transform="translate(7.5525 100.345885)scale(0.1 -0.1)">
       <use xlink:href="#DejaVuSans-49"/>
       <use x="63.623047" xlink:href="#DejaVuSans-50"/>
       <use x="127.246094" xlink:href="#DejaVuSans-48"/>
      </g>
     </g>
    </g>
    <g id="ytick_8">
     <g id="line2d_13">
      <g>
       <use style="stroke:#000000;stroke-width:0.8;" x="33.64" xlink:href="#mbd400a6d15" y="69.284444"/>
      </g>
     </g>
     <g id="text_13">
      <!-- 140 -->
      <g transform="translate(7.5525 73.083663)scale(0.1 -0.1)">
       <use xlink:href="#DejaVuSans-49"/>
       <use x="63.623047" xlink:href="#DejaVuSans-52"/>
       <use x="127.246094" xlink:href="#DejaVuSans-48"/>
      </g>
     </g>
    </g>
    <g id="ytick_9">
     <g id="line2d_14">
      <g>
       <use style="stroke:#000000;stroke-width:0.8;" x="33.64" xlink:href="#mbd400a6d15" y="42.022222"/>
      </g>
     </g>
     <g id="text_14">
      <!-- 160 -->
      <g transform="translate(7.5525 45.821441)scale(0.1 -0.1)">
       <use xlink:href="#DejaVuSans-49"/>
       <use x="63.623047" xlink:href="#DejaVuSans-54"/>
       <use x="127.246094" xlink:href="#DejaVuSans-48"/>
      </g>
     </g>
    </g>
    <g id="ytick_10">
     <g id="line2d_15">
      <g>
       <use style="stroke:#000000;stroke-width:0.8;" x="33.64" xlink:href="#mbd400a6d15" y="14.76"/>
      </g>
     </g>
     <g id="text_15">
      <!-- 180 -->
      <g transform="translate(7.5525 18.559219)scale(0.1 -0.1)">
       <use xlink:href="#DejaVuSans-49"/>
       <use x="63.623047" xlink:href="#DejaVuSans-56"/>
       <use x="127.246094" xlink:href="#DejaVuSans-48"/>
      </g>
     </g>
    </g>
   </g>
   <g id="line2d_16">
    <path clip-path="url(#pcaafca070e)" d="M 33.64 260.12 
L 108.922404 260.12 
L 110.339692 254.667556 
L 111.756309 254.667556 
L 113.176032 242.399556 
L 114.591777 241.036444 
L 116.007874 230.131556 
L 117.428145 230.131556 
L 118.849358 226.042222 
L 120.266318 224.679111 
L 123.099337 224.679111 
L 125.931287 216.500444 
L 127.347328 216.500444 
L 128.763224 221.952889 
L 130.179946 221.952889 
L 131.595525 231.494667 
L 133.013165 235.584 
L 135.845915 235.584 
L 138.681374 227.405333 
L 140.09721 227.405333 
L 141.513475 231.494667 
L 142.930402 224.679111 
L 144.346117 224.679111 
L 145.761588 227.405333 
L 147.183392 224.679111 
L 148.600422 226.042222 
L 150.017136 226.042222 
L 151.433342 231.494667 
L 152.849989 231.494667 
L 154.26542 230.131556 
L 155.680651 227.405333 
L 157.096866 227.405333 
L 158.514815 226.042222 
L 159.932697 221.952889 
L 161.350353 223.316 
L 162.769416 223.316 
L 164.186355 219.226667 
L 165.603008 216.500444 
L 167.019081 216.500444 
L 168.43553 206.958667 
L 169.85245 208.321778 
L 171.269052 205.595556 
L 172.686521 205.595556 
L 174.102972 198.78 
L 175.519145 198.78 
L 176.935504 197.416889 
L 179.76972 197.416889 
L 181.185744 193.327556 
L 182.602003 176.970222 
L 184.01813 159.249778 
L 185.436208 159.249778 
L 186.856102 149.708 
L 188.273815 136.076889 
L 191.108751 136.076889 
L 192.525949 140.166222 
L 193.94218 140.166222 
L 195.360088 141.529333 
L 196.777408 137.44 
L 198.194145 137.44 
L 199.612835 131.987556 
L 201.034598 111.540889 
L 202.45174 116.993333 
L 203.870868 116.993333 
L 205.28848 121.082667 
L 206.709122 126.535111 
L 210.958856 126.535111 
L 212.375112 142.892444 
L 215.206805 153.797333 
L 216.625813 153.797333 
L 218.042022 168.791556 
L 219.459572 179.696444 
L 220.875717 179.696444 
L 222.292863 185.148889 
L 223.709793 193.327556 
L 226.545765 193.327556 
L 227.96284 260.12 
L 304.696844 260.12 
L 306.09074 258.756889 
L 307.511118 258.756889 
L 308.927339 251.941333 
L 310.343519 246.488889 
L 311.76339 246.488889 
L 313.18571 243.762667 
L 314.603045 224.679111 
L 316.021022 216.500444 
L 317.437739 216.500444 
L 318.854916 213.774222 
L 320.271325 213.774222 
L 321.688509 211.048 
L 324.522588 211.048 
L 325.940553 204.232444 
L 327.35837 211.048 
L 330.191055 211.048 
L 333.026568 213.774222 
L 334.446348 213.774222 
L 335.864089 215.137333 
L 337.280972 226.042222 
L 338.698196 226.042222 
L 340.11488 236.947111 
L 341.53349 242.399556 
L 342.949285 242.399556 
L 345.782775 239.673333 
L 347.200715 236.947111 
L 352.87278 236.947111 
L 355.708664 231.494667 
L 357.127523 227.405333 
L 358.544805 227.405333 
L 359.962645 226.042222 
L 361.378806 226.042222 
L 362.795947 220.589778 
L 364.286632 217.863556 
L 365.70537 217.863556 
L 367.123148 211.048 
L 368.539957 197.416889 
L 369.957566 194.690667 
L 371.376841 194.690667 
L 372.797974 183.785778 
L 374.219166 175.607111 
L 375.638422 175.607111 
L 377.058259 151.071111 
L 378.477586 129.261333 
L 379.895894 129.261333 
L 381.312585 121.082667 
L 382.729254 103.362222 
L 384.146389 103.362222 
L 385.563999 93.820444 
L 386.986608 88.368 
L 388.403535 88.368 
L 389.820058 74.736889 
L 391.239216 77.463111 
L 392.660459 73.373778 
L 394.077118 73.373778 
L 395.494531 88.368 
L 396.913361 89.731111 
L 398.330323 89.731111 
L 399.749853 93.820444 
L 401.166654 115.630222 
L 402.584549 115.630222 
L 404.001883 131.987556 
L 405.418498 140.166222 
L 406.835174 140.166222 
L 408.251644 148.344889 
L 411.083788 148.344889 
L 412.502521 157.886667 
L 413.919419 163.339111 
L 415.338725 163.339111 
L 416.754726 168.791556 
L 418.174135 185.148889 
L 419.590656 185.148889 
L 422.433574 204.232444 
L 423.852904 260.12 
L 503.405554 260.12 
L 504.799565 258.756889 
L 506.216291 258.756889 
L 507.634215 241.036444 
L 509.054191 232.857778 
L 510.471779 230.131556 
L 511.889143 230.131556 
L 513.31363 226.042222 
L 516.149591 226.042222 
L 517.570183 224.679111 
L 518.988068 217.863556 
L 520.405824 217.863556 
L 521.823254 219.226667 
L 523.243467 216.500444 
L 524.662605 216.500444 
L 526.079525 219.226667 
L 527.496847 228.768444 
L 533.173114 228.768444 
L 534.590269 231.494667 
L 536.006887 238.310222 
L 537.426237 242.399556 
L 538.846 242.399556 
L 540.263474 243.762667 
L 541.682453 242.399556 
L 543.09883 242.399556 
L 545.934907 236.947111 
L 547.352165 235.584 
L 548.768623 235.584 
L 550.186446 231.494667 
L 551.603491 231.494667 
L 553.020811 223.316 
L 554.437496 223.316 
L 555.85505 216.500444 
L 557.272225 216.500444 
L 558.691531 219.226667 
L 561.524367 219.226667 
L 562.943883 205.595556 
L 564.36359 204.232444 
L 565.784244 204.232444 
L 568.623123 190.601333 
L 570.039534 182.422667 
L 571.462219 182.422667 
L 572.879984 189.238222 
L 574.29616 189.238222 
L 575.711978 182.422667 
L 577.129415 167.428444 
L 578.545803 167.428444 
L 579.967519 164.702222 
L 581.383685 159.249778 
L 582.800567 151.071111 
L 584.216766 151.071111 
L 585.633192 155.160444 
L 587.051995 144.255556 
L 588.470028 144.255556 
L 589.888271 140.166222 
L 591.305668 126.535111 
L 592.724783 126.535111 
L 594.1421 125.172 
L 595.561355 131.987556 
L 596.97746 131.987556 
L 598.394903 111.540889 
L 599.811917 101.999111 
L 601.229214 97.909778 
L 602.646458 97.909778 
L 604.063045 101.999111 
L 605.480465 101.999111 
L 606.897917 108.814667 
L 608.317494 123.808889 
L 609.73394 137.44 
L 611.152183 137.44 
L 612.569819 153.797333 
L 613.989847 159.249778 
L 615.406218 159.249778 
L 616.823477 175.607111 
L 618.242254 187.875111 
L 619.663289 187.875111 
L 621.079575 196.053778 
L 622.496522 209.684889 
L 623.915771 209.684889 
L 625.334786 260.12 
L 703.465259 260.12 
L 704.88216 254.667556 
L 706.29872 254.667556 
L 707.715524 236.947111 
L 709.13226 227.405333 
L 710.548698 224.679111 
L 711.965201 224.679111 
L 713.381518 227.405333 
L 714.797515 227.405333 
L 716.213149 221.952889 
L 717.630008 220.589778 
L 719.049154 217.863556 
L 720.466566 217.863556 
L 721.883456 221.952889 
L 723.299364 220.589778 
L 724.716766 220.589778 
L 726.132303 224.679111 
L 727.5484 231.494667 
L 730.387065 231.494667 
L 731.803475 232.857778 
L 733.219723 232.857778 
L 734.637078 235.584 
L 736.05404 234.220889 
L 737.470132 234.220889 
L 738.885891 235.584 
L 740.30221 238.310222 
L 741.718952 243.762667 
L 745.967958 243.762667 
L 748.801795 238.310222 
L 750.221681 234.220889 
L 751.637909 234.220889 
L 753.054202 232.857778 
L 754.471479 228.768444 
L 760.142084 228.768444 
L 762.977908 226.042222 
L 764.39509 223.316 
L 765.811715 223.316 
L 768.64807 198.78 
L 770.066329 198.78 
L 771.484682 204.232444 
L 772.902942 204.232444 
L 774.322333 201.506222 
L 775.738958 189.238222 
L 777.156299 186.512 
L 778.572801 186.512 
L 781.406426 142.892444 
L 782.824533 142.892444 
L 784.241875 131.987556 
L 785.659846 136.076889 
L 787.077016 136.076889 
L 788.494308 119.719556 
L 789.911748 116.993333 
L 791.328791 116.993333 
L 792.745783 107.451556 
L 794.164723 108.814667 
L 795.582555 108.814667 
L 796.999287 103.362222 
L 798.416897 88.368 
L 799.835346 84.278667 
L 801.253541 84.278667 
L 802.671443 100.636 
L 804.088441 107.451556 
L 805.505244 107.451556 
L 806.922107 122.445778 
L 808.340122 160.612889 
L 809.757172 160.612889 
L 811.174766 163.339111 
L 812.592099 168.791556 
L 814.00904 168.791556 
L 815.42665 190.601333 
L 816.843933 198.78 
L 818.261724 211.048 
L 819.678767 211.048 
L 821.096368 260.12 
L 900.641299 260.12 
L 902.059007 256.030667 
L 903.476383 250.578222 
L 904.893713 250.578222 
L 906.312444 238.310222 
L 907.731338 234.220889 
L 909.151806 234.220889 
L 910.568895 228.768444 
L 911.986354 226.042222 
L 913.405563 220.589778 
L 916.245028 220.589778 
L 917.6649 221.952889 
L 919.080992 221.952889 
L 920.497628 220.589778 
L 924.750247 220.589778 
L 926.166792 223.316 
L 927.584246 223.316 
L 929.002152 224.679111 
L 930.419093 227.405333 
L 931.838304 227.405333 
L 933.255513 220.589778 
L 936.09201 217.863556 
L 937.510916 217.863556 
L 938.93278 215.137333 
L 940.353924 215.137333 
L 941.773394 213.774222 
L 943.189783 211.048 
L 944.608478 213.774222 
L 946.025848 213.774222 
L 948.859122 216.500444 
L 950.274657 216.500444 
L 951.690619 205.595556 
L 953.106886 212.411111 
L 954.523345 213.774222 
L 955.939552 213.774222 
L 957.355579 205.595556 
L 958.77414 205.595556 
L 960.190699 206.958667 
L 961.606453 213.774222 
L 963.023126 197.416889 
L 964.441062 197.416889 
L 965.859898 191.964444 
L 967.276608 183.785778 
L 968.696328 183.785778 
L 970.112853 170.154667 
L 971.528889 178.333333 
L 972.948752 178.333333 
L 974.364941 181.059556 
L 975.78249 166.065333 
L 977.198722 166.065333 
L 978.618515 163.339111 
L 980.037981 156.523556 
L 981.456334 140.166222 
L 982.873144 140.166222 
L 984.289519 145.618667 
L 985.709529 145.618667 
L 987.126664 148.344889 
L 988.546799 146.981778 
L 989.96593 159.249778 
L 991.385661 159.249778 
L 992.802385 156.523556 
L 994.22212 159.249778 
L 995.638433 159.249778 
L 998.475599 170.154667 
L 999.892766 176.970222 
L 1001.310537 176.970222 
L 1002.727858 179.696444 
L 1004.145694 179.696444 
L 1005.561691 190.601333 
L 1006.978354 197.416889 
L 1008.397604 197.416889 
L 1009.814608 206.958667 
L 1011.235203 215.137333 
L 1012.652349 217.863556 
L 1014.071508 217.863556 
L 1015.489342 221.952889 
L 1016.905962 227.405333 
L 1018.324802 227.405333 
L 1019.741395 260.12 
L 1100.689676 260.12 
L 1102.106557 258.756889 
L 1103.525426 238.310222 
L 1104.943964 238.310222 
L 1106.36409 221.952889 
L 1107.779982 212.411111 
L 1109.198488 212.411111 
L 1110.614408 208.321778 
L 1112.033148 201.506222 
L 1113.449378 201.506222 
L 1114.86787 190.601333 
L 1116.286845 181.059556 
L 1117.703579 182.422667 
L 1119.11968 182.422667 
L 1120.536051 179.696444 
L 1121.951375 187.875111 
L 1123.367945 187.875111 
L 1124.783617 197.416889 
L 1126.200607 197.416889 
L 1127.615962 194.690667 
L 1129.031459 197.416889 
L 1130.447495 194.690667 
L 1131.86408 194.690667 
L 1133.28 197.416889 
L 1133.28 197.416889 
" style="fill:none;stroke:#1f77b4;stroke-linecap:square;stroke-width:1.5;"/>
   </g>
   <g id="patch_3">
    <path d="M 33.64 260.12 
L 33.64 14.76 
" style="fill:none;stroke:#000000;stroke-linecap:square;stroke-linejoin:miter;stroke-width:0.8;"/>
   </g>
   <g id="patch_4">
    <path d="M 1133.28 260.12 
L 1133.28 14.76 
" style="fill:none;stroke:#000000;stroke-linecap:square;stroke-linejoin:miter;stroke-width:0.8;"/>
   </g>
   <g id="patch_5">
    <path d="M 33.64 260.12 
L 1133.28 260.12 
" style="fill:none;stroke:#000000;stroke-linecap:square;stroke-linejoin:miter;stroke-width:0.8;"/>
   </g>
   <g id="patch_6">
    <path d="M 33.64 14.76 
L 1133.28 14.76 
" style="fill:none;stroke:#000000;stroke-linecap:square;stroke-linejoin:miter;stroke-width:0.8;"/>
   </g>
  </g>
 </g>
 <defs>
  <clipPath id="pcaafca070e">
   <rect height="245.36" width="1099.64" x="33.64" y="14.76"/>
  </clipPath>
 </defs>
</svg>
