<?xml version="1.0" encoding="utf-8" standalone="no"?>
<!DOCTYPE svg PUBLIC "-//W3C//DTD SVG 1.1//EN"
  "http://www.w3.org/Graphics/SVG/1.1/DTD/svg11.dtd">
<!-- Created with matplotlib (https://matplotlib.org/) -->
<svg height="288pt" version="1.1" viewBox="0 0 1152 288" width="1152pt" xmlns="http://www.w3.org/2000/svg" xmlns:xlink="http://www.w3.org/1999/xlink">
 <defs>
  <style type="text/css">
*{stroke-linecap:butt;stroke-linejoin:round;}
  </style>
 </defs>
 <g id="figure_1">
  <g id="patch_1">
   <path d="M 0 288 
L 1152 288 
L 1152 0 
L 0 0 
z
" style="fill:#ffffff;"/>
  </g>
  <g id="axes_1">
   <g id="patch_2">
    <path d="M 33.64 260.12 
L 1133.28 260.12 
L 1133.28 14.76 
L 33.64 14.76 
z
" style="fill:#ffffff;"/>
   </g>
   <g id="matplotlib.axis_1">
    <g id="xtick_1">
     <g id="line2d_1">
      <defs>
       <path d="M 0 0 
L 0 3.5 
" id="m6ed9c13f2b" style="stroke:#000000;stroke-width:0.8;"/>
      </defs>
      <g>
       <use style="stroke:#000000;stroke-width:0.8;" x="201.209306" xlink:href="#m6ed9c13f2b" y="260.12"/>
      </g>
     </g>
     <g id="text_1">
      <!-- Tue 00:00 -->
      <defs>
       <path d="M -0.296875 72.90625 
L 61.375 72.90625 
L 61.375 64.59375 
L 35.5 64.59375 
L 35.5 0 
L 25.59375 0 
L 25.59375 64.59375 
L -0.296875 64.59375 
z
" id="DejaVuSans-84"/>
       <path d="M 8.5 21.578125 
L 8.5 54.6875 
L 17.484375 54.6875 
L 17.484375 21.921875 
Q 17.484375 14.15625 20.5 10.265625 
Q 23.53125 6.390625 29.59375 6.390625 
Q 36.859375 6.390625 41.078125 11.03125 
Q 45.3125 15.671875 45.3125 23.6875 
L 45.3125 54.6875 
L 54.296875 54.6875 
L 54.296875 0 
L 45.3125 0 
L 45.3125 8.40625 
Q 42.046875 3.421875 37.71875 1 
Q 33.40625 -1.421875 27.6875 -1.421875 
Q 18.265625 -1.421875 13.375 4.4375 
Q 8.5 10.296875 8.5 21.578125 
z
M 31.109375 56 
z
" id="DejaVuSans-117"/>
       <path d="M 56.203125 29.59375 
L 56.203125 25.203125 
L 14.890625 25.203125 
Q 15.484375 15.921875 20.484375 11.0625 
Q 25.484375 6.203125 34.421875 6.203125 
Q 39.59375 6.203125 44.453125 7.46875 
Q 49.3125 8.734375 54.109375 11.28125 
L 54.109375 2.78125 
Q 49.265625 0.734375 44.1875 -0.34375 
Q 39.109375 -1.421875 33.890625 -1.421875 
Q 20.796875 -1.421875 13.15625 6.1875 
Q 5.515625 13.8125 5.515625 26.8125 
Q 5.515625 40.234375 12.765625 48.109375 
Q 20.015625 56 32.328125 56 
Q 43.359375 56 49.78125 48.890625 
Q 56.203125 41.796875 56.203125 29.59375 
z
M 47.21875 32.234375 
Q 47.125 39.59375 43.09375 43.984375 
Q 39.0625 48.390625 32.421875 48.390625 
Q 24.90625 48.390625 20.390625 44.140625 
Q 15.875 39.890625 15.1875 32.171875 
z
" id="DejaVuSans-101"/>
       <path id="DejaVuSans-32"/>
       <path d="M 31.78125 66.40625 
Q 24.171875 66.40625 20.328125 58.90625 
Q 16.5 51.421875 16.5 36.375 
Q 16.5 21.390625 20.328125 13.890625 
Q 24.171875 6.390625 31.78125 6.390625 
Q 39.453125 6.390625 43.28125 13.890625 
Q 47.125 21.390625 47.125 36.375 
Q 47.125 51.421875 43.28125 58.90625 
Q 39.453125 66.40625 31.78125 66.40625 
z
M 31.78125 74.21875 
Q 44.046875 74.21875 50.515625 64.515625 
Q 56.984375 54.828125 56.984375 36.375 
Q 56.984375 17.96875 50.515625 8.265625 
Q 44.046875 -1.421875 31.78125 -1.421875 
Q 19.53125 -1.421875 13.0625 8.265625 
Q 6.59375 17.96875 6.59375 36.375 
Q 6.59375 54.828125 13.0625 64.515625 
Q 19.53125 74.21875 31.78125 74.21875 
z
" id="DejaVuSans-48"/>
       <path d="M 11.71875 12.40625 
L 22.015625 12.40625 
L 22.015625 0 
L 11.71875 0 
z
M 11.71875 51.703125 
L 22.015625 51.703125 
L 22.015625 39.3125 
L 11.71875 39.3125 
z
" id="DejaVuSans-58"/>
      </defs>
      <g transform="translate(175.923368 274.718437)scale(0.1 -0.1)">
       <use xlink:href="#DejaVuSans-84"/>
       <use x="60.849609" xlink:href="#DejaVuSans-117"/>
       <use x="124.228516" xlink:href="#DejaVuSans-101"/>
       <use x="185.751953" xlink:href="#DejaVuSans-32"/>
       <use x="217.539062" xlink:href="#DejaVuSans-48"/>
       <use x="281.162109" xlink:href="#DejaVuSans-48"/>
       <use x="344.785156" xlink:href="#DejaVuSans-58"/>
       <use x="378.476562" xlink:href="#DejaVuSans-48"/>
       <use x="442.099609" xlink:href="#DejaVuSans-48"/>
      </g>
     </g>
    </g>
    <g id="xtick_2">
     <g id="line2d_2">
      <g>
       <use style="stroke:#000000;stroke-width:0.8;" x="368.948642" xlink:href="#m6ed9c13f2b" y="260.12"/>
      </g>
     </g>
     <g id="text_2">
      <!-- Wed 00:00 -->
      <defs>
       <path d="M 3.328125 72.90625 
L 13.28125 72.90625 
L 28.609375 11.28125 
L 43.890625 72.90625 
L 54.984375 72.90625 
L 70.3125 11.28125 
L 85.59375 72.90625 
L 95.609375 72.90625 
L 77.296875 0 
L 64.890625 0 
L 49.515625 63.28125 
L 33.984375 0 
L 21.578125 0 
z
" id="DejaVuSans-87"/>
       <path d="M 45.40625 46.390625 
L 45.40625 75.984375 
L 54.390625 75.984375 
L 54.390625 0 
L 45.40625 0 
L 45.40625 8.203125 
Q 42.578125 3.328125 38.25 0.953125 
Q 33.9375 -1.421875 27.875 -1.421875 
Q 17.96875 -1.421875 11.734375 6.484375 
Q 5.515625 14.40625 5.515625 27.296875 
Q 5.515625 40.1875 11.734375 48.09375 
Q 17.96875 56 27.875 56 
Q 33.9375 56 38.25 53.625 
Q 42.578125 51.265625 45.40625 46.390625 
z
M 14.796875 27.296875 
Q 14.796875 17.390625 18.875 11.75 
Q 22.953125 6.109375 30.078125 6.109375 
Q 37.203125 6.109375 41.296875 11.75 
Q 45.40625 17.390625 45.40625 27.296875 
Q 45.40625 37.203125 41.296875 42.84375 
Q 37.203125 48.484375 30.078125 48.484375 
Q 22.953125 48.484375 18.875 42.84375 
Q 14.796875 37.203125 14.796875 27.296875 
z
" id="DejaVuSans-100"/>
      </defs>
      <g transform="translate(341.759579 274.718437)scale(0.1 -0.1)">
       <use xlink:href="#DejaVuSans-87"/>
       <use x="98.798828" xlink:href="#DejaVuSans-101"/>
       <use x="160.322266" xlink:href="#DejaVuSans-100"/>
       <use x="223.798828" xlink:href="#DejaVuSans-32"/>
       <use x="255.585938" xlink:href="#DejaVuSans-48"/>
       <use x="319.208984" xlink:href="#DejaVuSans-48"/>
       <use x="382.832031" xlink:href="#DejaVuSans-58"/>
       <use x="416.523438" xlink:href="#DejaVuSans-48"/>
       <use x="480.146484" xlink:href="#DejaVuSans-48"/>
      </g>
     </g>
    </g>
    <g id="xtick_3">
     <g id="line2d_3">
      <g>
       <use style="stroke:#000000;stroke-width:0.8;" x="536.687978" xlink:href="#m6ed9c13f2b" y="260.12"/>
      </g>
     </g>
     <g id="text_3">
      <!-- Thu 00:00 -->
      <defs>
       <path d="M 54.890625 33.015625 
L 54.890625 0 
L 45.90625 0 
L 45.90625 32.71875 
Q 45.90625 40.484375 42.875 44.328125 
Q 39.84375 48.1875 33.796875 48.1875 
Q 26.515625 48.1875 22.3125 43.546875 
Q 18.109375 38.921875 18.109375 30.90625 
L 18.109375 0 
L 9.078125 0 
L 9.078125 75.984375 
L 18.109375 75.984375 
L 18.109375 46.1875 
Q 21.34375 51.125 25.703125 53.5625 
Q 30.078125 56 35.796875 56 
Q 45.21875 56 50.046875 50.171875 
Q 54.890625 44.34375 54.890625 33.015625 
z
" id="DejaVuSans-104"/>
      </defs>
      <g transform="translate(511.298134 274.718437)scale(0.1 -0.1)">
       <use xlink:href="#DejaVuSans-84"/>
       <use x="61.083984" xlink:href="#DejaVuSans-104"/>
       <use x="124.462891" xlink:href="#DejaVuSans-117"/>
       <use x="187.841797" xlink:href="#DejaVuSans-32"/>
       <use x="219.628906" xlink:href="#DejaVuSans-48"/>
       <use x="283.251953" xlink:href="#DejaVuSans-48"/>
       <use x="346.875" xlink:href="#DejaVuSans-58"/>
       <use x="380.566406" xlink:href="#DejaVuSans-48"/>
       <use x="444.189453" xlink:href="#DejaVuSans-48"/>
      </g>
     </g>
    </g>
    <g id="xtick_4">
     <g id="line2d_4">
      <g>
       <use style="stroke:#000000;stroke-width:0.8;" x="704.427313" xlink:href="#m6ed9c13f2b" y="260.12"/>
      </g>
     </g>
     <g id="text_4">
      <!-- Fri 00:00 -->
      <defs>
       <path d="M 9.8125 72.90625 
L 51.703125 72.90625 
L 51.703125 64.59375 
L 19.671875 64.59375 
L 19.671875 43.109375 
L 48.578125 43.109375 
L 48.578125 34.8125 
L 19.671875 34.8125 
L 19.671875 0 
L 9.8125 0 
z
" id="DejaVuSans-70"/>
       <path d="M 41.109375 46.296875 
Q 39.59375 47.171875 37.8125 47.578125 
Q 36.03125 48 33.890625 48 
Q 26.265625 48 22.1875 43.046875 
Q 18.109375 38.09375 18.109375 28.8125 
L 18.109375 0 
L 9.078125 0 
L 9.078125 54.6875 
L 18.109375 54.6875 
L 18.109375 46.1875 
Q 20.953125 51.171875 25.484375 53.578125 
Q 30.03125 56 36.53125 56 
Q 37.453125 56 38.578125 55.875 
Q 39.703125 55.765625 41.0625 55.515625 
z
" id="DejaVuSans-114"/>
       <path d="M 9.421875 54.6875 
L 18.40625 54.6875 
L 18.40625 0 
L 9.421875 0 
z
M 9.421875 75.984375 
L 18.40625 75.984375 
L 18.40625 64.59375 
L 9.421875 64.59375 
z
" id="DejaVuSans-105"/>
      </defs>
      <g transform="translate(682.114032 274.718437)scale(0.1 -0.1)">
       <use xlink:href="#DejaVuSans-70"/>
       <use x="57.410156" xlink:href="#DejaVuSans-114"/>
       <use x="98.523438" xlink:href="#DejaVuSans-105"/>
       <use x="126.306641" xlink:href="#DejaVuSans-32"/>
       <use x="158.09375" xlink:href="#DejaVuSans-48"/>
       <use x="221.716797" xlink:href="#DejaVuSans-48"/>
       <use x="285.339844" xlink:href="#DejaVuSans-58"/>
       <use x="319.03125" xlink:href="#DejaVuSans-48"/>
       <use x="382.654297" xlink:href="#DejaVuSans-48"/>
      </g>
     </g>
    </g>
    <g id="xtick_5">
     <g id="line2d_5">
      <g>
       <use style="stroke:#000000;stroke-width:0.8;" x="872.166649" xlink:href="#m6ed9c13f2b" y="260.12"/>
      </g>
     </g>
     <g id="text_5">
      <!-- Sat 00:00 -->
      <defs>
       <path d="M 53.515625 70.515625 
L 53.515625 60.890625 
Q 47.90625 63.578125 42.921875 64.890625 
Q 37.9375 66.21875 33.296875 66.21875 
Q 25.25 66.21875 20.875 63.09375 
Q 16.5 59.96875 16.5 54.203125 
Q 16.5 49.359375 19.40625 46.890625 
Q 22.3125 44.4375 30.421875 42.921875 
L 36.375 41.703125 
Q 47.40625 39.59375 52.65625 34.296875 
Q 57.90625 29 57.90625 20.125 
Q 57.90625 9.515625 50.796875 4.046875 
Q 43.703125 -1.421875 29.984375 -1.421875 
Q 24.8125 -1.421875 18.96875 -0.25 
Q 13.140625 0.921875 6.890625 3.21875 
L 6.890625 13.375 
Q 12.890625 10.015625 18.65625 8.296875 
Q 24.421875 6.59375 29.984375 6.59375 
Q 38.421875 6.59375 43.015625 9.90625 
Q 47.609375 13.234375 47.609375 19.390625 
Q 47.609375 24.75 44.3125 27.78125 
Q 41.015625 30.8125 33.5 32.328125 
L 27.484375 33.5 
Q 16.453125 35.6875 11.515625 40.375 
Q 6.59375 45.0625 6.59375 53.421875 
Q 6.59375 63.09375 13.40625 68.65625 
Q 20.21875 74.21875 32.171875 74.21875 
Q 37.3125 74.21875 42.625 73.28125 
Q 47.953125 72.359375 53.515625 70.515625 
z
" id="DejaVuSans-83"/>
       <path d="M 34.28125 27.484375 
Q 23.390625 27.484375 19.1875 25 
Q 14.984375 22.515625 14.984375 16.5 
Q 14.984375 11.71875 18.140625 8.90625 
Q 21.296875 6.109375 26.703125 6.109375 
Q 34.1875 6.109375 38.703125 11.40625 
Q 43.21875 16.703125 43.21875 25.484375 
L 43.21875 27.484375 
z
M 52.203125 31.203125 
L 52.203125 0 
L 43.21875 0 
L 43.21875 8.296875 
Q 40.140625 3.328125 35.546875 0.953125 
Q 30.953125 -1.421875 24.3125 -1.421875 
Q 15.921875 -1.421875 10.953125 3.296875 
Q 6 8.015625 6 15.921875 
Q 6 25.140625 12.171875 29.828125 
Q 18.359375 34.515625 30.609375 34.515625 
L 43.21875 34.515625 
L 43.21875 35.40625 
Q 43.21875 41.609375 39.140625 45 
Q 35.0625 48.390625 27.6875 48.390625 
Q 23 48.390625 18.546875 47.265625 
Q 14.109375 46.140625 10.015625 43.890625 
L 10.015625 52.203125 
Q 14.9375 54.109375 19.578125 55.046875 
Q 24.21875 56 28.609375 56 
Q 40.484375 56 46.34375 49.84375 
Q 52.203125 43.703125 52.203125 31.203125 
z
" id="DejaVuSans-97"/>
       <path d="M 18.3125 70.21875 
L 18.3125 54.6875 
L 36.8125 54.6875 
L 36.8125 47.703125 
L 18.3125 47.703125 
L 18.3125 18.015625 
Q 18.3125 11.328125 20.140625 9.421875 
Q 21.96875 7.515625 27.59375 7.515625 
L 36.8125 7.515625 
L 36.8125 0 
L 27.59375 0 
Q 17.1875 0 13.234375 3.875 
Q 9.28125 7.765625 9.28125 18.015625 
L 9.28125 47.703125 
L 2.6875 47.703125 
L 2.6875 54.6875 
L 9.28125 54.6875 
L 9.28125 70.21875 
z
" id="DejaVuSans-116"/>
      </defs>
      <g transform="translate(847.969774 274.718437)scale(0.1 -0.1)">
       <use xlink:href="#DejaVuSans-83"/>
       <use x="63.476562" xlink:href="#DejaVuSans-97"/>
       <use x="124.755859" xlink:href="#DejaVuSans-116"/>
       <use x="163.964844" xlink:href="#DejaVuSans-32"/>
       <use x="195.751953" xlink:href="#DejaVuSans-48"/>
       <use x="259.375" xlink:href="#DejaVuSans-48"/>
       <use x="322.998047" xlink:href="#DejaVuSans-58"/>
       <use x="356.689453" xlink:href="#DejaVuSans-48"/>
       <use x="420.3125" xlink:href="#DejaVuSans-48"/>
      </g>
     </g>
    </g>
    <g id="xtick_6">
     <g id="line2d_6">
      <g>
       <use style="stroke:#000000;stroke-width:0.8;" x="1039.905985" xlink:href="#m6ed9c13f2b" y="260.12"/>
      </g>
     </g>
     <g id="text_6">
      <!-- Sun 00:00 -->
      <defs>
       <path d="M 54.890625 33.015625 
L 54.890625 0 
L 45.90625 0 
L 45.90625 32.71875 
Q 45.90625 40.484375 42.875 44.328125 
Q 39.84375 48.1875 33.796875 48.1875 
Q 26.515625 48.1875 22.3125 43.546875 
Q 18.109375 38.921875 18.109375 30.90625 
L 18.109375 0 
L 9.078125 0 
L 9.078125 54.6875 
L 18.109375 54.6875 
L 18.109375 46.1875 
Q 21.34375 51.125 25.703125 53.5625 
Q 30.078125 56 35.796875 56 
Q 45.21875 56 50.046875 50.171875 
Q 54.890625 44.34375 54.890625 33.015625 
z
" id="DejaVuSans-110"/>
      </defs>
      <g transform="translate(1014.395829 274.718437)scale(0.1 -0.1)">
       <use xlink:href="#DejaVuSans-83"/>
       <use x="63.476562" xlink:href="#DejaVuSans-117"/>
       <use x="126.855469" xlink:href="#DejaVuSans-110"/>
       <use x="190.234375" xlink:href="#DejaVuSans-32"/>
       <use x="222.021484" xlink:href="#DejaVuSans-48"/>
       <use x="285.644531" xlink:href="#DejaVuSans-48"/>
       <use x="349.267578" xlink:href="#DejaVuSans-58"/>
       <use x="382.958984" xlink:href="#DejaVuSans-48"/>
       <use x="446.582031" xlink:href="#DejaVuSans-48"/>
      </g>
     </g>
    </g>
   </g>
   <g id="matplotlib.axis_2">
    <g id="ytick_1">
     <g id="line2d_7">
      <defs>
       <path d="M 0 0 
L -3.5 0 
" id="m024f0923ad" style="stroke:#000000;stroke-width:0.8;"/>
      </defs>
      <g>
       <use style="stroke:#000000;stroke-width:0.8;" x="33.64" xlink:href="#m024f0923ad" y="260.12"/>
      </g>
     </g>
     <g id="text_7">
      <!-- 0 -->
      <g transform="translate(20.2775 263.919219)scale(0.1 -0.1)">
       <use xlink:href="#DejaVuSans-48"/>
      </g>
     </g>
    </g>
    <g id="ytick_2">
     <g id="line2d_8">
      <g>
       <use style="stroke:#000000;stroke-width:0.8;" x="33.64" xlink:href="#m024f0923ad" y="230.910476"/>
      </g>
     </g>
     <g id="text_8">
      <!-- 25 -->
      <defs>
       <path d="M 19.1875 8.296875 
L 53.609375 8.296875 
L 53.609375 0 
L 7.328125 0 
L 7.328125 8.296875 
Q 12.9375 14.109375 22.625 23.890625 
Q 32.328125 33.6875 34.8125 36.53125 
Q 39.546875 41.84375 41.421875 45.53125 
Q 43.3125 49.21875 43.3125 52.78125 
Q 43.3125 58.59375 39.234375 62.25 
Q 35.15625 65.921875 28.609375 65.921875 
Q 23.96875 65.921875 18.8125 64.3125 
Q 13.671875 62.703125 7.8125 59.421875 
L 7.8125 69.390625 
Q 13.765625 71.78125 18.9375 73 
Q 24.125 74.21875 28.421875 74.21875 
Q 39.75 74.21875 46.484375 68.546875 
Q 53.21875 62.890625 53.21875 53.421875 
Q 53.21875 48.921875 51.53125 44.890625 
Q 49.859375 40.875 45.40625 35.40625 
Q 44.1875 33.984375 37.640625 27.21875 
Q 31.109375 20.453125 19.1875 8.296875 
z
" id="DejaVuSans-50"/>
       <path d="M 10.796875 72.90625 
L 49.515625 72.90625 
L 49.515625 64.59375 
L 19.828125 64.59375 
L 19.828125 46.734375 
Q 21.96875 47.46875 24.109375 47.828125 
Q 26.265625 48.1875 28.421875 48.1875 
Q 40.625 48.1875 47.75 41.5 
Q 54.890625 34.8125 54.890625 23.390625 
Q 54.890625 11.625 47.5625 5.09375 
Q 40.234375 -1.421875 26.90625 -1.421875 
Q 22.3125 -1.421875 17.546875 -0.640625 
Q 12.796875 0.140625 7.71875 1.703125 
L 7.71875 11.625 
Q 12.109375 9.234375 16.796875 8.0625 
Q 21.484375 6.890625 26.703125 6.890625 
Q 35.15625 6.890625 40.078125 11.328125 
Q 45.015625 15.765625 45.015625 23.390625 
Q 45.015625 31 40.078125 35.4375 
Q 35.15625 39.890625 26.703125 39.890625 
Q 22.75 39.890625 18.8125 39.015625 
Q 14.890625 38.140625 10.796875 36.28125 
z
" id="DejaVuSans-53"/>
      </defs>
      <g transform="translate(13.915 234.709695)scale(0.1 -0.1)">
       <use xlink:href="#DejaVuSans-50"/>
       <use x="63.623047" xlink:href="#DejaVuSans-53"/>
      </g>
     </g>
    </g>
    <g id="ytick_3">
     <g id="line2d_9">
      <g>
       <use style="stroke:#000000;stroke-width:0.8;" x="33.64" xlink:href="#m024f0923ad" y="201.700952"/>
      </g>
     </g>
     <g id="text_9">
      <!-- 50 -->
      <g transform="translate(13.915 205.500171)scale(0.1 -0.1)">
       <use xlink:href="#DejaVuSans-53"/>
       <use x="63.623047" xlink:href="#DejaVuSans-48"/>
      </g>
     </g>
    </g>
    <g id="ytick_4">
     <g id="line2d_10">
      <g>
       <use style="stroke:#000000;stroke-width:0.8;" x="33.64" xlink:href="#m024f0923ad" y="172.491429"/>
      </g>
     </g>
     <g id="text_10">
      <!-- 75 -->
      <defs>
       <path d="M 8.203125 72.90625 
L 55.078125 72.90625 
L 55.078125 68.703125 
L 28.609375 0 
L 18.3125 0 
L 43.21875 64.59375 
L 8.203125 64.59375 
z
" id="DejaVuSans-55"/>
      </defs>
      <g transform="translate(13.915 176.290647)scale(0.1 -0.1)">
       <use xlink:href="#DejaVuSans-55"/>
       <use x="63.623047" xlink:href="#DejaVuSans-53"/>
      </g>
     </g>
    </g>
    <g id="ytick_5">
     <g id="line2d_11">
      <g>
       <use style="stroke:#000000;stroke-width:0.8;" x="33.64" xlink:href="#m024f0923ad" y="143.281905"/>
      </g>
     </g>
     <g id="text_11">
      <!-- 100 -->
      <defs>
       <path d="M 12.40625 8.296875 
L 28.515625 8.296875 
L 28.515625 63.921875 
L 10.984375 60.40625 
L 10.984375 69.390625 
L 28.421875 72.90625 
L 38.28125 72.90625 
L 38.28125 8.296875 
L 54.390625 8.296875 
L 54.390625 0 
L 12.40625 0 
z
" id="DejaVuSans-49"/>
      </defs>
      <g transform="translate(7.5525 147.081124)scale(0.1 -0.1)">
       <use xlink:href="#DejaVuSans-49"/>
       <use x="63.623047" xlink:href="#DejaVuSans-48"/>
       <use x="127.246094" xlink:href="#DejaVuSans-48"/>
      </g>
     </g>
    </g>
    <g id="ytick_6">
     <g id="line2d_12">
      <g>
       <use style="stroke:#000000;stroke-width:0.8;" x="33.64" xlink:href="#m024f0923ad" y="114.072381"/>
      </g>
     </g>
     <g id="text_12">
      <!-- 125 -->
      <g transform="translate(7.5525 117.8716)scale(0.1 -0.1)">
       <use xlink:href="#DejaVuSans-49"/>
       <use x="63.623047" xlink:href="#DejaVuSans-50"/>
       <use x="127.246094" xlink:href="#DejaVuSans-53"/>
      </g>
     </g>
    </g>
    <g id="ytick_7">
     <g id="line2d_13">
      <g>
       <use style="stroke:#000000;stroke-width:0.8;" x="33.64" xlink:href="#m024f0923ad" y="84.862857"/>
      </g>
     </g>
     <g id="text_13">
      <!-- 150 -->
      <g transform="translate(7.5525 88.662076)scale(0.1 -0.1)">
       <use xlink:href="#DejaVuSans-49"/>
       <use x="63.623047" xlink:href="#DejaVuSans-53"/>
       <use x="127.246094" xlink:href="#DejaVuSans-48"/>
      </g>
     </g>
    </g>
    <g id="ytick_8">
     <g id="line2d_14">
      <g>
       <use style="stroke:#000000;stroke-width:0.8;" x="33.64" xlink:href="#m024f0923ad" y="55.653333"/>
      </g>
     </g>
     <g id="text_14">
      <!-- 175 -->
      <g transform="translate(7.5525 59.452552)scale(0.1 -0.1)">
       <use xlink:href="#DejaVuSans-49"/>
       <use x="63.623047" xlink:href="#DejaVuSans-55"/>
       <use x="127.246094" xlink:href="#DejaVuSans-53"/>
      </g>
     </g>
    </g>
    <g id="ytick_9">
     <g id="line2d_15">
      <g>
       <use style="stroke:#000000;stroke-width:0.8;" x="33.64" xlink:href="#m024f0923ad" y="26.44381"/>
      </g>
     </g>
     <g id="text_15">
      <!-- 200 -->
      <g transform="translate(7.5525 30.243028)scale(0.1 -0.1)">
       <use xlink:href="#DejaVuSans-50"/>
       <use x="63.623047" xlink:href="#DejaVuSans-48"/>
       <use x="127.246094" xlink:href="#DejaVuSans-48"/>
      </g>
     </g>
    </g>
   </g>
   <g id="line2d_16">
    <path clip-path="url(#p50143f40ba)" d="M 33.64 260.12 
L 97.287273 260.12 
L 98.486447 257.783238 
L 99.686388 257.783238 
L 100.886406 254.278095 
L 102.086263 254.278095 
L 104.483503 249.604571 
L 105.682849 248.43619 
L 106.880998 248.43619 
L 108.07951 247.26781 
L 110.477109 247.26781 
L 111.676261 242.594286 
L 112.874938 236.752381 
L 114.073109 236.752381 
L 115.272063 229.742095 
L 116.472656 226.236952 
L 117.671221 226.236952 
L 118.870004 222.73181 
L 122.465051 222.73181 
L 123.663288 219.226667 
L 124.861034 218.058286 
L 127.258875 218.058286 
L 128.45728 223.90019 
L 129.655811 223.90019 
L 130.855974 229.742095 
L 132.054059 227.405333 
L 133.253151 227.405333 
L 134.451391 232.078857 
L 135.649573 233.247238 
L 136.848703 236.752381 
L 138.047441 236.752381 
L 139.247698 234.415619 
L 140.44502 234.415619 
L 141.643503 230.910476 
L 144.039312 216.889905 
L 145.23704 216.889905 
L 146.435261 212.216381 
L 147.634227 208.711238 
L 148.834112 208.711238 
L 150.032088 197.027429 
L 151.235368 192.353905 
L 152.43803 186.512 
L 153.635872 186.512 
L 154.834799 187.680381 
L 156.032837 187.680381 
L 157.231678 181.838476 
L 158.430161 164.312762 
L 159.627851 164.312762 
L 160.826327 150.29219 
L 162.025371 139.776762 
L 163.224556 116.409143 
L 164.422615 116.409143 
L 165.620456 89.536381 
L 166.820647 89.536381 
L 168.018523 67.337143 
L 169.216417 53.316571 
L 170.413917 47.474667 
L 171.611715 47.474667 
L 172.809838 54.484952 
L 174.007545 59.158476 
L 175.206304 59.158476 
L 176.405295 76.68419 
L 177.60268 74.347429 
L 178.802929 74.347429 
L 180.002113 79.020952 
L 181.199687 81.357714 
L 182.399371 93.041524 
L 183.596991 93.041524 
L 184.794872 100.05181 
L 185.992618 109.398857 
L 187.189795 109.398857 
L 188.388179 122.251048 
L 189.585904 128.092952 
L 190.785823 128.092952 
L 191.983011 129.261333 
L 193.181017 132.766476 
L 194.378928 139.776762 
L 195.575887 139.776762 
L 196.772608 260.12 
L 264.034806 260.12 
L 265.213533 258.951619 
L 266.414934 243.762667 
L 267.615769 243.762667 
L 268.81633 240.257524 
L 270.014771 235.584 
L 272.415564 235.584 
L 273.613922 232.078857 
L 274.81209 232.078857 
L 276.010892 227.405333 
L 277.209716 223.90019 
L 278.4071 223.90019 
L 279.606946 222.73181 
L 282.002689 222.73181 
L 283.200982 225.068571 
L 284.401716 218.058286 
L 285.60216 219.226667 
L 286.799628 219.226667 
L 287.998318 216.889905 
L 289.197143 218.058286 
L 290.396132 218.058286 
L 291.593962 221.563429 
L 292.791493 219.226667 
L 293.990196 219.226667 
L 295.189765 214.553143 
L 296.38747 218.058286 
L 297.58483 218.058286 
L 298.782284 213.384762 
L 299.982542 212.216381 
L 301.182613 208.711238 
L 302.381716 208.711238 
L 304.777302 201.700952 
L 305.977196 201.700952 
L 307.177114 204.037714 
L 309.581238 204.037714 
L 310.778553 200.532571 
L 313.176674 200.532571 
L 314.376741 197.027429 
L 315.575165 187.680381 
L 316.773193 187.680381 
L 317.970706 184.175238 
L 319.16912 178.333333 
L 320.367429 178.333333 
L 321.567675 171.323048 
L 322.766182 156.134095 
L 323.964973 128.092952 
L 325.166583 128.092952 
L 326.369629 116.409143 
L 328.765715 116.409143 
L 329.967538 98.883429 
L 331.166062 98.883429 
L 332.36392 79.020952 
L 333.561628 67.337143 
L 334.759524 49.811429 
L 335.957486 49.811429 
L 337.156973 38.127619 
L 340.75053 38.127619 
L 341.951114 26.44381 
L 343.15154 26.44381 
L 344.349105 48.643048 
L 345.54757 60.326857 
L 346.745627 74.347429 
L 347.946244 74.347429 
L 350.341706 110.567238 
L 351.542645 110.567238 
L 352.740392 125.75619 
L 353.938505 137.44 
L 355.136098 151.460571 
L 356.337224 151.460571 
L 357.535294 161.976 
L 358.734083 161.976 
L 359.93541 166.649524 
L 361.13293 174.82819 
L 362.331668 175.996571 
L 364.728659 175.996571 
L 365.925895 260.12 
L 431.988926 260.12 
L 433.186619 255.446476 
L 435.583494 241.425905 
L 436.783541 241.425905 
L 437.981869 240.257524 
L 440.382037 240.257524 
L 441.580057 239.089143 
L 442.778171 239.089143 
L 443.978185 232.078857 
L 445.177799 232.078857 
L 446.376236 228.573714 
L 447.576179 228.573714 
L 448.775076 226.236952 
L 449.974665 225.068571 
L 454.770851 225.068571 
L 455.974417 226.236952 
L 458.370071 226.236952 
L 459.56803 223.90019 
L 460.7676 216.889905 
L 461.965429 219.226667 
L 463.165842 219.226667 
L 464.365949 221.563429 
L 465.563765 221.563429 
L 467.960219 214.553143 
L 469.160547 212.216381 
L 470.360613 212.216381 
L 471.55833 208.711238 
L 472.758028 206.374476 
L 473.958209 206.374476 
L 475.156487 209.879619 
L 476.356103 207.542857 
L 477.55567 206.374476 
L 478.756216 206.374476 
L 479.957122 205.206095 
L 481.155514 205.206095 
L 482.35411 198.19581 
L 483.553609 190.017143 
L 484.754939 190.017143 
L 485.955319 184.175238 
L 487.155056 171.323048 
L 488.35279 170.154667 
L 489.554746 170.154667 
L 490.755156 159.639238 
L 491.955564 159.639238 
L 493.154564 156.134095 
L 494.354577 153.797333 
L 495.555149 129.261333 
L 496.763984 129.261333 
L 497.96264 123.419429 
L 499.161046 115.240762 
L 500.36066 115.240762 
L 501.559459 98.883429 
L 502.75767 96.546667 
L 503.956427 96.546667 
L 505.155589 108.230476 
L 506.358008 101.22019 
L 507.555349 101.22019 
L 508.75293 96.546667 
L 509.953538 89.536381 
L 511.156868 95.378286 
L 512.357701 95.378286 
L 513.557595 94.209905 
L 514.758433 119.914286 
L 515.958307 119.914286 
L 517.155802 125.75619 
L 518.355824 144.450286 
L 519.555949 146.787048 
L 520.755765 146.787048 
L 521.955711 156.134095 
L 523.153034 156.134095 
L 524.353305 165.481143 
L 525.553863 171.323048 
L 526.751562 173.65981 
L 527.95228 173.65981 
L 529.152474 180.670095 
L 530.349636 181.838476 
L 532.750239 181.838476 
L 533.95058 260.12 
L 601.220727 260.12 
L 602.41824 256.614857 
L 603.615474 248.43619 
L 604.813234 248.43619 
L 606.013378 244.931048 
L 607.211576 242.594286 
L 608.409797 242.594286 
L 610.808496 235.584 
L 612.0078 230.910476 
L 613.2084 230.910476 
L 614.406288 229.742095 
L 615.604829 229.742095 
L 616.802635 226.236952 
L 618.003252 223.90019 
L 619.201899 223.90019 
L 621.599442 221.563429 
L 622.79792 225.068571 
L 623.997524 225.068571 
L 625.195856 222.73181 
L 626.394966 219.226667 
L 627.593748 219.226667 
L 628.792606 211.048 
L 629.991258 211.048 
L 631.189612 212.216381 
L 634.787052 212.216381 
L 635.986821 205.206095 
L 638.384016 205.206095 
L 639.583604 197.027429 
L 640.783185 194.690667 
L 641.983144 199.36419 
L 643.182964 199.36419 
L 644.388229 195.859048 
L 645.58678 195.859048 
L 646.784817 191.185524 
L 647.983779 184.175238 
L 649.182398 175.996571 
L 650.382121 175.996571 
L 651.581025 167.817905 
L 652.781477 161.976 
L 653.981211 161.976 
L 655.181706 157.302476 
L 656.382093 143.281905 
L 657.583691 143.281905 
L 658.784089 138.608381 
L 659.98391 128.092952 
L 661.183865 114.072381 
L 662.382662 114.072381 
L 663.580851 98.883429 
L 664.778809 104.725333 
L 665.977268 104.725333 
L 667.176473 86.031238 
L 668.374693 86.031238 
L 669.578295 70.842286 
L 670.777231 59.158476 
L 671.976438 46.306286 
L 673.177056 46.306286 
L 674.377923 28.780571 
L 675.577778 32.285714 
L 676.776033 32.285714 
L 677.975267 38.127619 
L 679.172543 31.117333 
L 680.370373 31.117333 
L 681.568056 41.632762 
L 682.766803 54.484952 
L 683.965009 62.663619 
L 685.163094 62.663619 
L 686.360464 76.68419 
L 687.563177 96.546667 
L 688.760689 96.546667 
L 689.960522 105.893714 
L 691.160338 121.082667 
L 692.358216 121.082667 
L 693.556311 126.924571 
L 694.756028 144.450286 
L 695.955819 144.450286 
L 697.153414 152.628952 
L 698.35147 158.470857 
L 700.749762 158.470857 
L 701.947606 260.12 
L 766.838699 260.12 
L 768.01736 256.614857 
L 769.215776 256.614857 
L 770.414033 254.278095 
L 771.61173 249.604571 
L 772.80977 247.26781 
L 774.010186 247.26781 
L 775.209293 242.594286 
L 776.407833 233.247238 
L 777.607004 233.247238 
L 778.804857 227.405333 
L 780.002203 227.405333 
L 781.199812 223.90019 
L 782.400344 223.90019 
L 783.59797 216.889905 
L 784.796048 216.889905 
L 785.994274 213.384762 
L 787.191952 215.721524 
L 788.390163 215.721524 
L 789.588349 216.889905 
L 790.786559 220.395048 
L 793.188083 220.395048 
L 794.385823 221.563429 
L 795.583778 221.563429 
L 796.781812 219.226667 
L 797.98007 225.068571 
L 800.374965 225.068571 
L 801.572399 220.395048 
L 802.771291 222.73181 
L 803.971067 222.73181 
L 805.169915 220.395048 
L 806.370024 220.395048 
L 807.568563 218.058286 
L 808.766271 206.374476 
L 809.964135 202.869333 
L 811.16331 202.869333 
L 812.360546 194.690667 
L 813.558924 187.680381 
L 814.756362 187.680381 
L 815.956863 181.838476 
L 817.1594 171.323048 
L 818.358744 164.312762 
L 819.560214 164.312762 
L 820.757694 158.470857 
L 821.955447 158.470857 
L 823.156917 153.797333 
L 824.355401 147.955429 
L 825.554498 145.618667 
L 826.755627 145.618667 
L 827.954524 137.44 
L 829.152984 150.29219 
L 830.350942 150.29219 
L 831.554703 161.976 
L 832.752777 160.807619 
L 833.950266 160.807619 
L 835.14817 150.29219 
L 836.346302 144.450286 
L 837.546043 144.450286 
L 838.744632 135.103238 
L 839.942816 126.924571 
L 841.142811 126.924571 
L 842.340925 125.75619 
L 843.539613 128.092952 
L 844.741391 125.75619 
L 845.950586 125.75619 
L 847.152441 130.429714 
L 848.354992 131.598095 
L 849.558142 131.598095 
L 850.770014 143.281905 
L 853.176458 143.281905 
L 854.379637 151.460571 
L 855.578529 158.470857 
L 856.782428 160.807619 
L 857.981779 160.807619 
L 859.18252 166.649524 
L 860.381192 166.649524 
L 861.581583 179.501714 
L 862.780388 185.343619 
L 863.978942 187.680381 
L 865.176544 187.680381 
L 866.376286 193.522286 
L 868.773343 193.522286 
L 869.982235 260.12 
L 934.861823 260.12 
L 936.040073 253.109714 
L 937.238375 251.941333 
L 938.437664 251.941333 
L 939.637067 241.425905 
L 940.8342 235.584 
L 942.031487 235.584 
L 943.229139 233.247238 
L 944.426219 233.247238 
L 945.623334 220.395048 
L 946.822427 209.879619 
L 948.019611 207.542857 
L 949.217148 207.542857 
L 951.611857 193.522286 
L 952.80871 193.522286 
L 955.206007 186.512 
L 956.403261 187.680381 
L 957.925189 187.680381 
L 959.123471 195.859048 
L 960.324002 199.36419 
L 961.521249 199.36419 
L 962.720877 200.532571 
L 963.922707 200.532571 
L 965.120388 187.680381 
L 966.317687 187.680381 
L 967.515016 180.670095 
L 968.712931 180.670095 
L 969.911245 175.996571 
L 971.108223 177.164952 
L 972.306702 177.164952 
L 973.50631 187.680381 
L 974.703597 186.512 
L 975.901198 180.670095 
L 977.098573 180.670095 
L 978.296274 181.838476 
L 979.493369 173.65981 
L 980.690709 173.65981 
L 981.888924 185.343619 
L 983.0879 198.19581 
L 984.28515 198.19581 
L 986.68261 205.206095 
L 987.881602 205.206095 
L 989.080951 204.037714 
L 990.280326 205.206095 
L 991.480235 201.700952 
L 992.680424 201.700952 
L 993.880151 202.869333 
L 995.079932 211.048 
L 996.279523 211.048 
L 997.47796 214.553143 
L 998.676459 215.721524 
L 999.876303 215.721524 
L 1002.27612 208.711238 
L 1003.476397 208.711238 
L 1004.676218 204.037714 
L 1005.876283 205.206095 
L 1007.076155 205.206095 
L 1008.276956 227.405333 
L 1009.476738 216.889905 
L 1010.675718 214.553143 
L 1011.87362 214.553143 
L 1013.072031 216.889905 
L 1016.668629 216.889905 
L 1017.867075 215.721524 
L 1019.068197 215.721524 
L 1020.265652 218.058286 
L 1023.863123 218.058286 
L 1025.06283 222.73181 
L 1026.261583 222.73181 
L 1028.661364 234.415619 
L 1029.861191 234.415619 
L 1031.061498 235.584 
L 1034.657728 235.584 
L 1035.857594 239.089143 
L 1039.456803 239.089143 
L 1040.656297 260.12 
L 1104.516265 260.12 
L 1105.714123 246.099429 
L 1106.911257 236.752381 
L 1108.109736 236.752381 
L 1110.507211 220.395048 
L 1111.705643 220.395048 
L 1112.903799 211.048 
L 1114.102188 205.206095 
L 1115.30151 194.690667 
L 1116.500129 194.690667 
L 1117.698559 173.65981 
L 1118.899013 173.65981 
L 1120.097128 183.006857 
L 1121.294969 172.491429 
L 1122.493095 172.491429 
L 1123.691899 170.154667 
L 1124.890166 172.491429 
L 1126.089528 164.312762 
L 1127.289906 164.312762 
L 1128.487469 159.639238 
L 1129.686997 165.481143 
L 1130.884658 165.481143 
L 1132.082641 177.164952 
L 1133.28 172.491429 
L 1133.28 172.491429 
" style="fill:none;stroke:#1f77b4;stroke-linecap:square;stroke-width:1.5;"/>
   </g>
   <g id="patch_3">
    <path d="M 33.64 260.12 
L 33.64 14.76 
" style="fill:none;stroke:#000000;stroke-linecap:square;stroke-linejoin:miter;stroke-width:0.8;"/>
   </g>
   <g id="patch_4">
    <path d="M 1133.28 260.12 
L 1133.28 14.76 
" style="fill:none;stroke:#000000;stroke-linecap:square;stroke-linejoin:miter;stroke-width:0.8;"/>
   </g>
   <g id="patch_5">
    <path d="M 33.64 260.12 
L 1133.28 260.12 
" style="fill:none;stroke:#000000;stroke-linecap:square;stroke-linejoin:miter;stroke-width:0.8;"/>
   </g>
   <g id="patch_6">
    <path d="M 33.64 14.76 
L 1133.28 14.76 
" style="fill:none;stroke:#000000;stroke-linecap:square;stroke-linejoin:miter;stroke-width:0.8;"/>
   </g>
  </g>
 </g>
 <defs>
  <clipPath id="p50143f40ba">
   <rect height="245.36" width="1099.64" x="33.64" y="14.76"/>
  </clipPath>
 </defs>
</svg>
