<?xml version="1.0" encoding="utf-8" standalone="no"?>
<!DOCTYPE svg PUBLIC "-//W3C//DTD SVG 1.1//EN"
  "http://www.w3.org/Graphics/SVG/1.1/DTD/svg11.dtd">
<!-- Created with matplotlib (https://matplotlib.org/) -->
<svg height="288pt" version="1.1" viewBox="0 0 1152 288" width="1152pt" xmlns="http://www.w3.org/2000/svg" xmlns:xlink="http://www.w3.org/1999/xlink">
 <defs>
  <style type="text/css">
*{stroke-linecap:butt;stroke-linejoin:round;}
  </style>
 </defs>
 <g id="figure_1">
  <g id="patch_1">
   <path d="M 0 288 
L 1152 288 
L 1152 0 
L 0 0 
z
" style="fill:#ffffff;"/>
  </g>
  <g id="axes_1">
   <g id="patch_2">
    <path d="M 33.64 260.12 
L 1133.28 260.12 
L 1133.28 14.76 
L 33.64 14.76 
z
" style="fill:#ffffff;"/>
   </g>
   <g id="matplotlib.axis_1">
    <g id="xtick_1">
     <g id="line2d_1">
      <defs>
       <path d="M 0 0 
L 0 3.5 
" id="m91715caa0d" style="stroke:#000000;stroke-width:0.8;"/>
      </defs>
      <g>
       <use style="stroke:#000000;stroke-width:0.8;" x="232.16585" xlink:href="#m91715caa0d" y="260.12"/>
      </g>
     </g>
     <g id="text_1">
      <!-- Tue 00:00 -->
      <defs>
       <path d="M -0.296875 72.90625 
L 61.375 72.90625 
L 61.375 64.59375 
L 35.5 64.59375 
L 35.5 0 
L 25.59375 0 
L 25.59375 64.59375 
L -0.296875 64.59375 
z
" id="DejaVuSans-84"/>
       <path d="M 8.5 21.578125 
L 8.5 54.6875 
L 17.484375 54.6875 
L 17.484375 21.921875 
Q 17.484375 14.15625 20.5 10.265625 
Q 23.53125 6.390625 29.59375 6.390625 
Q 36.859375 6.390625 41.078125 11.03125 
Q 45.3125 15.671875 45.3125 23.6875 
L 45.3125 54.6875 
L 54.296875 54.6875 
L 54.296875 0 
L 45.3125 0 
L 45.3125 8.40625 
Q 42.046875 3.421875 37.71875 1 
Q 33.40625 -1.421875 27.6875 -1.421875 
Q 18.265625 -1.421875 13.375 4.4375 
Q 8.5 10.296875 8.5 21.578125 
z
M 31.109375 56 
z
" id="DejaVuSans-117"/>
       <path d="M 56.203125 29.59375 
L 56.203125 25.203125 
L 14.890625 25.203125 
Q 15.484375 15.921875 20.484375 11.0625 
Q 25.484375 6.203125 34.421875 6.203125 
Q 39.59375 6.203125 44.453125 7.46875 
Q 49.3125 8.734375 54.109375 11.28125 
L 54.109375 2.78125 
Q 49.265625 0.734375 44.1875 -0.34375 
Q 39.109375 -1.421875 33.890625 -1.421875 
Q 20.796875 -1.421875 13.15625 6.1875 
Q 5.515625 13.8125 5.515625 26.8125 
Q 5.515625 40.234375 12.765625 48.109375 
Q 20.015625 56 32.328125 56 
Q 43.359375 56 49.78125 48.890625 
Q 56.203125 41.796875 56.203125 29.59375 
z
M 47.21875 32.234375 
Q 47.125 39.59375 43.09375 43.984375 
Q 39.0625 48.390625 32.421875 48.390625 
Q 24.90625 48.390625 20.390625 44.140625 
Q 15.875 39.890625 15.1875 32.171875 
z
" id="DejaVuSans-101"/>
       <path id="DejaVuSans-32"/>
       <path d="M 31.78125 66.40625 
Q 24.171875 66.40625 20.328125 58.90625 
Q 16.5 51.421875 16.5 36.375 
Q 16.5 21.390625 20.328125 13.890625 
Q 24.171875 6.390625 31.78125 6.390625 
Q 39.453125 6.390625 43.28125 13.890625 
Q 47.125 21.390625 47.125 36.375 
Q 47.125 51.421875 43.28125 58.90625 
Q 39.453125 66.40625 31.78125 66.40625 
z
M 31.78125 74.21875 
Q 44.046875 74.21875 50.515625 64.515625 
Q 56.984375 54.828125 56.984375 36.375 
Q 56.984375 17.96875 50.515625 8.265625 
Q 44.046875 -1.421875 31.78125 -1.421875 
Q 19.53125 -1.421875 13.0625 8.265625 
Q 6.59375 17.96875 6.59375 36.375 
Q 6.59375 54.828125 13.0625 64.515625 
Q 19.53125 74.21875 31.78125 74.21875 
z
" id="DejaVuSans-48"/>
       <path d="M 11.71875 12.40625 
L 22.015625 12.40625 
L 22.015625 0 
L 11.71875 0 
z
M 11.71875 51.703125 
L 22.015625 51.703125 
L 22.015625 39.3125 
L 11.71875 39.3125 
z
" id="DejaVuSans-58"/>
      </defs>
      <g transform="translate(206.879912 274.718437)scale(0.1 -0.1)">
       <use xlink:href="#DejaVuSans-84"/>
       <use x="60.849609" xlink:href="#DejaVuSans-117"/>
       <use x="124.228516" xlink:href="#DejaVuSans-101"/>
       <use x="185.751953" xlink:href="#DejaVuSans-32"/>
       <use x="217.539062" xlink:href="#DejaVuSans-48"/>
       <use x="281.162109" xlink:href="#DejaVuSans-48"/>
       <use x="344.785156" xlink:href="#DejaVuSans-58"/>
       <use x="378.476562" xlink:href="#DejaVuSans-48"/>
       <use x="442.099609" xlink:href="#DejaVuSans-48"/>
      </g>
     </g>
    </g>
    <g id="xtick_2">
     <g id="line2d_2">
      <g>
       <use style="stroke:#000000;stroke-width:0.8;" x="430.780608" xlink:href="#m91715caa0d" y="260.12"/>
      </g>
     </g>
     <g id="text_2">
      <!-- Wed 00:00 -->
      <defs>
       <path d="M 3.328125 72.90625 
L 13.28125 72.90625 
L 28.609375 11.28125 
L 43.890625 72.90625 
L 54.984375 72.90625 
L 70.3125 11.28125 
L 85.59375 72.90625 
L 95.609375 72.90625 
L 77.296875 0 
L 64.890625 0 
L 49.515625 63.28125 
L 33.984375 0 
L 21.578125 0 
z
" id="DejaVuSans-87"/>
       <path d="M 45.40625 46.390625 
L 45.40625 75.984375 
L 54.390625 75.984375 
L 54.390625 0 
L 45.40625 0 
L 45.40625 8.203125 
Q 42.578125 3.328125 38.25 0.953125 
Q 33.9375 -1.421875 27.875 -1.421875 
Q 17.96875 -1.421875 11.734375 6.484375 
Q 5.515625 14.40625 5.515625 27.296875 
Q 5.515625 40.1875 11.734375 48.09375 
Q 17.96875 56 27.875 56 
Q 33.9375 56 38.25 53.625 
Q 42.578125 51.265625 45.40625 46.390625 
z
M 14.796875 27.296875 
Q 14.796875 17.390625 18.875 11.75 
Q 22.953125 6.109375 30.078125 6.109375 
Q 37.203125 6.109375 41.296875 11.75 
Q 45.40625 17.390625 45.40625 27.296875 
Q 45.40625 37.203125 41.296875 42.84375 
Q 37.203125 48.484375 30.078125 48.484375 
Q 22.953125 48.484375 18.875 42.84375 
Q 14.796875 37.203125 14.796875 27.296875 
z
" id="DejaVuSans-100"/>
      </defs>
      <g transform="translate(403.591545 274.718437)scale(0.1 -0.1)">
       <use xlink:href="#DejaVuSans-87"/>
       <use x="98.798828" xlink:href="#DejaVuSans-101"/>
       <use x="160.322266" xlink:href="#DejaVuSans-100"/>
       <use x="223.798828" xlink:href="#DejaVuSans-32"/>
       <use x="255.585938" xlink:href="#DejaVuSans-48"/>
       <use x="319.208984" xlink:href="#DejaVuSans-48"/>
       <use x="382.832031" xlink:href="#DejaVuSans-58"/>
       <use x="416.523438" xlink:href="#DejaVuSans-48"/>
       <use x="480.146484" xlink:href="#DejaVuSans-48"/>
      </g>
     </g>
    </g>
    <g id="xtick_3">
     <g id="line2d_3">
      <g>
       <use style="stroke:#000000;stroke-width:0.8;" x="629.395366" xlink:href="#m91715caa0d" y="260.12"/>
      </g>
     </g>
     <g id="text_3">
      <!-- Thu 00:00 -->
      <defs>
       <path d="M 54.890625 33.015625 
L 54.890625 0 
L 45.90625 0 
L 45.90625 32.71875 
Q 45.90625 40.484375 42.875 44.328125 
Q 39.84375 48.1875 33.796875 48.1875 
Q 26.515625 48.1875 22.3125 43.546875 
Q 18.109375 38.921875 18.109375 30.90625 
L 18.109375 0 
L 9.078125 0 
L 9.078125 75.984375 
L 18.109375 75.984375 
L 18.109375 46.1875 
Q 21.34375 51.125 25.703125 53.5625 
Q 30.078125 56 35.796875 56 
Q 45.21875 56 50.046875 50.171875 
Q 54.890625 44.34375 54.890625 33.015625 
z
" id="DejaVuSans-104"/>
      </defs>
      <g transform="translate(604.005523 274.718437)scale(0.1 -0.1)">
       <use xlink:href="#DejaVuSans-84"/>
       <use x="61.083984" xlink:href="#DejaVuSans-104"/>
       <use x="124.462891" xlink:href="#DejaVuSans-117"/>
       <use x="187.841797" xlink:href="#DejaVuSans-32"/>
       <use x="219.628906" xlink:href="#DejaVuSans-48"/>
       <use x="283.251953" xlink:href="#DejaVuSans-48"/>
       <use x="346.875" xlink:href="#DejaVuSans-58"/>
       <use x="380.566406" xlink:href="#DejaVuSans-48"/>
       <use x="444.189453" xlink:href="#DejaVuSans-48"/>
      </g>
     </g>
    </g>
    <g id="xtick_4">
     <g id="line2d_4">
      <g>
       <use style="stroke:#000000;stroke-width:0.8;" x="828.010125" xlink:href="#m91715caa0d" y="260.12"/>
      </g>
     </g>
     <g id="text_4">
      <!-- Fri 00:00 -->
      <defs>
       <path d="M 9.8125 72.90625 
L 51.703125 72.90625 
L 51.703125 64.59375 
L 19.671875 64.59375 
L 19.671875 43.109375 
L 48.578125 43.109375 
L 48.578125 34.8125 
L 19.671875 34.8125 
L 19.671875 0 
L 9.8125 0 
z
" id="DejaVuSans-70"/>
       <path d="M 41.109375 46.296875 
Q 39.59375 47.171875 37.8125 47.578125 
Q 36.03125 48 33.890625 48 
Q 26.265625 48 22.1875 43.046875 
Q 18.109375 38.09375 18.109375 28.8125 
L 18.109375 0 
L 9.078125 0 
L 9.078125 54.6875 
L 18.109375 54.6875 
L 18.109375 46.1875 
Q 20.953125 51.171875 25.484375 53.578125 
Q 30.03125 56 36.53125 56 
Q 37.453125 56 38.578125 55.875 
Q 39.703125 55.765625 41.0625 55.515625 
z
" id="DejaVuSans-114"/>
       <path d="M 9.421875 54.6875 
L 18.40625 54.6875 
L 18.40625 0 
L 9.421875 0 
z
M 9.421875 75.984375 
L 18.40625 75.984375 
L 18.40625 64.59375 
L 9.421875 64.59375 
z
" id="DejaVuSans-105"/>
      </defs>
      <g transform="translate(805.696844 274.718437)scale(0.1 -0.1)">
       <use xlink:href="#DejaVuSans-70"/>
       <use x="57.410156" xlink:href="#DejaVuSans-114"/>
       <use x="98.523438" xlink:href="#DejaVuSans-105"/>
       <use x="126.306641" xlink:href="#DejaVuSans-32"/>
       <use x="158.09375" xlink:href="#DejaVuSans-48"/>
       <use x="221.716797" xlink:href="#DejaVuSans-48"/>
       <use x="285.339844" xlink:href="#DejaVuSans-58"/>
       <use x="319.03125" xlink:href="#DejaVuSans-48"/>
       <use x="382.654297" xlink:href="#DejaVuSans-48"/>
      </g>
     </g>
    </g>
    <g id="xtick_5">
     <g id="line2d_5">
      <g>
       <use style="stroke:#000000;stroke-width:0.8;" x="1026.624883" xlink:href="#m91715caa0d" y="260.12"/>
      </g>
     </g>
     <g id="text_5">
      <!-- Sat 00:00 -->
      <defs>
       <path d="M 53.515625 70.515625 
L 53.515625 60.890625 
Q 47.90625 63.578125 42.921875 64.890625 
Q 37.9375 66.21875 33.296875 66.21875 
Q 25.25 66.21875 20.875 63.09375 
Q 16.5 59.96875 16.5 54.203125 
Q 16.5 49.359375 19.40625 46.890625 
Q 22.3125 44.4375 30.421875 42.921875 
L 36.375 41.703125 
Q 47.40625 39.59375 52.65625 34.296875 
Q 57.90625 29 57.90625 20.125 
Q 57.90625 9.515625 50.796875 4.046875 
Q 43.703125 -1.421875 29.984375 -1.421875 
Q 24.8125 -1.421875 18.96875 -0.25 
Q 13.140625 0.921875 6.890625 3.21875 
L 6.890625 13.375 
Q 12.890625 10.015625 18.65625 8.296875 
Q 24.421875 6.59375 29.984375 6.59375 
Q 38.421875 6.59375 43.015625 9.90625 
Q 47.609375 13.234375 47.609375 19.390625 
Q 47.609375 24.75 44.3125 27.78125 
Q 41.015625 30.8125 33.5 32.328125 
L 27.484375 33.5 
Q 16.453125 35.6875 11.515625 40.375 
Q 6.59375 45.0625 6.59375 53.421875 
Q 6.59375 63.09375 13.40625 68.65625 
Q 20.21875 74.21875 32.171875 74.21875 
Q 37.3125 74.21875 42.625 73.28125 
Q 47.953125 72.359375 53.515625 70.515625 
z
" id="DejaVuSans-83"/>
       <path d="M 34.28125 27.484375 
Q 23.390625 27.484375 19.1875 25 
Q 14.984375 22.515625 14.984375 16.5 
Q 14.984375 11.71875 18.140625 8.90625 
Q 21.296875 6.109375 26.703125 6.109375 
Q 34.1875 6.109375 38.703125 11.40625 
Q 43.21875 16.703125 43.21875 25.484375 
L 43.21875 27.484375 
z
M 52.203125 31.203125 
L 52.203125 0 
L 43.21875 0 
L 43.21875 8.296875 
Q 40.140625 3.328125 35.546875 0.953125 
Q 30.953125 -1.421875 24.3125 -1.421875 
Q 15.921875 -1.421875 10.953125 3.296875 
Q 6 8.015625 6 15.921875 
Q 6 25.140625 12.171875 29.828125 
Q 18.359375 34.515625 30.609375 34.515625 
L 43.21875 34.515625 
L 43.21875 35.40625 
Q 43.21875 41.609375 39.140625 45 
Q 35.0625 48.390625 27.6875 48.390625 
Q 23 48.390625 18.546875 47.265625 
Q 14.109375 46.140625 10.015625 43.890625 
L 10.015625 52.203125 
Q 14.9375 54.109375 19.578125 55.046875 
Q 24.21875 56 28.609375 56 
Q 40.484375 56 46.34375 49.84375 
Q 52.203125 43.703125 52.203125 31.203125 
z
" id="DejaVuSans-97"/>
       <path d="M 18.3125 70.21875 
L 18.3125 54.6875 
L 36.8125 54.6875 
L 36.8125 47.703125 
L 18.3125 47.703125 
L 18.3125 18.015625 
Q 18.3125 11.328125 20.140625 9.421875 
Q 21.96875 7.515625 27.59375 7.515625 
L 36.8125 7.515625 
L 36.8125 0 
L 27.59375 0 
Q 17.1875 0 13.234375 3.875 
Q 9.28125 7.765625 9.28125 18.015625 
L 9.28125 47.703125 
L 2.6875 47.703125 
L 2.6875 54.6875 
L 9.28125 54.6875 
L 9.28125 70.21875 
z
" id="DejaVuSans-116"/>
      </defs>
      <g transform="translate(1002.428008 274.718437)scale(0.1 -0.1)">
       <use xlink:href="#DejaVuSans-83"/>
       <use x="63.476562" xlink:href="#DejaVuSans-97"/>
       <use x="124.755859" xlink:href="#DejaVuSans-116"/>
       <use x="163.964844" xlink:href="#DejaVuSans-32"/>
       <use x="195.751953" xlink:href="#DejaVuSans-48"/>
       <use x="259.375" xlink:href="#DejaVuSans-48"/>
       <use x="322.998047" xlink:href="#DejaVuSans-58"/>
       <use x="356.689453" xlink:href="#DejaVuSans-48"/>
       <use x="420.3125" xlink:href="#DejaVuSans-48"/>
      </g>
     </g>
    </g>
   </g>
   <g id="matplotlib.axis_2">
    <g id="ytick_1">
     <g id="line2d_6">
      <defs>
       <path d="M 0 0 
L -3.5 0 
" id="m0aeec6d91a" style="stroke:#000000;stroke-width:0.8;"/>
      </defs>
      <g>
       <use style="stroke:#000000;stroke-width:0.8;" x="33.64" xlink:href="#m0aeec6d91a" y="260.12"/>
      </g>
     </g>
     <g id="text_6">
      <!-- 0 -->
      <g transform="translate(20.2775 263.919219)scale(0.1 -0.1)">
       <use xlink:href="#DejaVuSans-48"/>
      </g>
     </g>
    </g>
    <g id="ytick_2">
     <g id="line2d_7">
      <g>
       <use style="stroke:#000000;stroke-width:0.8;" x="33.64" xlink:href="#m0aeec6d91a" y="232.857778"/>
      </g>
     </g>
     <g id="text_7">
      <!-- 20 -->
      <defs>
       <path d="M 19.1875 8.296875 
L 53.609375 8.296875 
L 53.609375 0 
L 7.328125 0 
L 7.328125 8.296875 
Q 12.9375 14.109375 22.625 23.890625 
Q 32.328125 33.6875 34.8125 36.53125 
Q 39.546875 41.84375 41.421875 45.53125 
Q 43.3125 49.21875 43.3125 52.78125 
Q 43.3125 58.59375 39.234375 62.25 
Q 35.15625 65.921875 28.609375 65.921875 
Q 23.96875 65.921875 18.8125 64.3125 
Q 13.671875 62.703125 7.8125 59.421875 
L 7.8125 69.390625 
Q 13.765625 71.78125 18.9375 73 
Q 24.125 74.21875 28.421875 74.21875 
Q 39.75 74.21875 46.484375 68.546875 
Q 53.21875 62.890625 53.21875 53.421875 
Q 53.21875 48.921875 51.53125 44.890625 
Q 49.859375 40.875 45.40625 35.40625 
Q 44.1875 33.984375 37.640625 27.21875 
Q 31.109375 20.453125 19.1875 8.296875 
z
" id="DejaVuSans-50"/>
      </defs>
      <g transform="translate(13.915 236.656997)scale(0.1 -0.1)">
       <use xlink:href="#DejaVuSans-50"/>
       <use x="63.623047" xlink:href="#DejaVuSans-48"/>
      </g>
     </g>
    </g>
    <g id="ytick_3">
     <g id="line2d_8">
      <g>
       <use style="stroke:#000000;stroke-width:0.8;" x="33.64" xlink:href="#m0aeec6d91a" y="205.595556"/>
      </g>
     </g>
     <g id="text_8">
      <!-- 40 -->
      <defs>
       <path d="M 37.796875 64.3125 
L 12.890625 25.390625 
L 37.796875 25.390625 
z
M 35.203125 72.90625 
L 47.609375 72.90625 
L 47.609375 25.390625 
L 58.015625 25.390625 
L 58.015625 17.1875 
L 47.609375 17.1875 
L 47.609375 0 
L 37.796875 0 
L 37.796875 17.1875 
L 4.890625 17.1875 
L 4.890625 26.703125 
z
" id="DejaVuSans-52"/>
      </defs>
      <g transform="translate(13.915 209.394774)scale(0.1 -0.1)">
       <use xlink:href="#DejaVuSans-52"/>
       <use x="63.623047" xlink:href="#DejaVuSans-48"/>
      </g>
     </g>
    </g>
    <g id="ytick_4">
     <g id="line2d_9">
      <g>
       <use style="stroke:#000000;stroke-width:0.8;" x="33.64" xlink:href="#m0aeec6d91a" y="178.333333"/>
      </g>
     </g>
     <g id="text_9">
      <!-- 60 -->
      <defs>
       <path d="M 33.015625 40.375 
Q 26.375 40.375 22.484375 35.828125 
Q 18.609375 31.296875 18.609375 23.390625 
Q 18.609375 15.53125 22.484375 10.953125 
Q 26.375 6.390625 33.015625 6.390625 
Q 39.65625 6.390625 43.53125 10.953125 
Q 47.40625 15.53125 47.40625 23.390625 
Q 47.40625 31.296875 43.53125 35.828125 
Q 39.65625 40.375 33.015625 40.375 
z
M 52.59375 71.296875 
L 52.59375 62.3125 
Q 48.875 64.0625 45.09375 64.984375 
Q 41.3125 65.921875 37.59375 65.921875 
Q 27.828125 65.921875 22.671875 59.328125 
Q 17.53125 52.734375 16.796875 39.40625 
Q 19.671875 43.65625 24.015625 45.921875 
Q 28.375 48.1875 33.59375 48.1875 
Q 44.578125 48.1875 50.953125 41.515625 
Q 57.328125 34.859375 57.328125 23.390625 
Q 57.328125 12.15625 50.6875 5.359375 
Q 44.046875 -1.421875 33.015625 -1.421875 
Q 20.359375 -1.421875 13.671875 8.265625 
Q 6.984375 17.96875 6.984375 36.375 
Q 6.984375 53.65625 15.1875 63.9375 
Q 23.390625 74.21875 37.203125 74.21875 
Q 40.921875 74.21875 44.703125 73.484375 
Q 48.484375 72.75 52.59375 71.296875 
z
" id="DejaVuSans-54"/>
      </defs>
      <g transform="translate(13.915 182.132552)scale(0.1 -0.1)">
       <use xlink:href="#DejaVuSans-54"/>
       <use x="63.623047" xlink:href="#DejaVuSans-48"/>
      </g>
     </g>
    </g>
    <g id="ytick_5">
     <g id="line2d_10">
      <g>
       <use style="stroke:#000000;stroke-width:0.8;" x="33.64" xlink:href="#m0aeec6d91a" y="151.071111"/>
      </g>
     </g>
     <g id="text_10">
      <!-- 80 -->
      <defs>
       <path d="M 31.78125 34.625 
Q 24.75 34.625 20.71875 30.859375 
Q 16.703125 27.09375 16.703125 20.515625 
Q 16.703125 13.921875 20.71875 10.15625 
Q 24.75 6.390625 31.78125 6.390625 
Q 38.8125 6.390625 42.859375 10.171875 
Q 46.921875 13.96875 46.921875 20.515625 
Q 46.921875 27.09375 42.890625 30.859375 
Q 38.875 34.625 31.78125 34.625 
z
M 21.921875 38.8125 
Q 15.578125 40.375 12.03125 44.71875 
Q 8.5 49.078125 8.5 55.328125 
Q 8.5 64.0625 14.71875 69.140625 
Q 20.953125 74.21875 31.78125 74.21875 
Q 42.671875 74.21875 48.875 69.140625 
Q 55.078125 64.0625 55.078125 55.328125 
Q 55.078125 49.078125 51.53125 44.71875 
Q 48 40.375 41.703125 38.8125 
Q 48.828125 37.15625 52.796875 32.3125 
Q 56.78125 27.484375 56.78125 20.515625 
Q 56.78125 9.90625 50.3125 4.234375 
Q 43.84375 -1.421875 31.78125 -1.421875 
Q 19.734375 -1.421875 13.25 4.234375 
Q 6.78125 9.90625 6.78125 20.515625 
Q 6.78125 27.484375 10.78125 32.3125 
Q 14.796875 37.15625 21.921875 38.8125 
z
M 18.3125 54.390625 
Q 18.3125 48.734375 21.84375 45.5625 
Q 25.390625 42.390625 31.78125 42.390625 
Q 38.140625 42.390625 41.71875 45.5625 
Q 45.3125 48.734375 45.3125 54.390625 
Q 45.3125 60.0625 41.71875 63.234375 
Q 38.140625 66.40625 31.78125 66.40625 
Q 25.390625 66.40625 21.84375 63.234375 
Q 18.3125 60.0625 18.3125 54.390625 
z
" id="DejaVuSans-56"/>
      </defs>
      <g transform="translate(13.915 154.87033)scale(0.1 -0.1)">
       <use xlink:href="#DejaVuSans-56"/>
       <use x="63.623047" xlink:href="#DejaVuSans-48"/>
      </g>
     </g>
    </g>
    <g id="ytick_6">
     <g id="line2d_11">
      <g>
       <use style="stroke:#000000;stroke-width:0.8;" x="33.64" xlink:href="#m0aeec6d91a" y="123.808889"/>
      </g>
     </g>
     <g id="text_11">
      <!-- 100 -->
      <defs>
       <path d="M 12.40625 8.296875 
L 28.515625 8.296875 
L 28.515625 63.921875 
L 10.984375 60.40625 
L 10.984375 69.390625 
L 28.421875 72.90625 
L 38.28125 72.90625 
L 38.28125 8.296875 
L 54.390625 8.296875 
L 54.390625 0 
L 12.40625 0 
z
" id="DejaVuSans-49"/>
      </defs>
      <g transform="translate(7.5525 127.608108)scale(0.1 -0.1)">
       <use xlink:href="#DejaVuSans-49"/>
       <use x="63.623047" xlink:href="#DejaVuSans-48"/>
       <use x="127.246094" xlink:href="#DejaVuSans-48"/>
      </g>
     </g>
    </g>
    <g id="ytick_7">
     <g id="line2d_12">
      <g>
       <use style="stroke:#000000;stroke-width:0.8;" x="33.64" xlink:href="#m0aeec6d91a" y="96.546667"/>
      </g>
     </g>
     <g id="text_12">
      <!-- 120 -->
      <g transform="translate(7.5525 100.345885)scale(0.1 -0.1)">
       <use xlink:href="#DejaVuSans-49"/>
       <use x="63.623047" xlink:href="#DejaVuSans-50"/>
       <use x="127.246094" xlink:href="#DejaVuSans-48"/>
      </g>
     </g>
    </g>
    <g id="ytick_8">
     <g id="line2d_13">
      <g>
       <use style="stroke:#000000;stroke-width:0.8;" x="33.64" xlink:href="#m0aeec6d91a" y="69.284444"/>
      </g>
     </g>
     <g id="text_13">
      <!-- 140 -->
      <g transform="translate(7.5525 73.083663)scale(0.1 -0.1)">
       <use xlink:href="#DejaVuSans-49"/>
       <use x="63.623047" xlink:href="#DejaVuSans-52"/>
       <use x="127.246094" xlink:href="#DejaVuSans-48"/>
      </g>
     </g>
    </g>
    <g id="ytick_9">
     <g id="line2d_14">
      <g>
       <use style="stroke:#000000;stroke-width:0.8;" x="33.64" xlink:href="#m0aeec6d91a" y="42.022222"/>
      </g>
     </g>
     <g id="text_14">
      <!-- 160 -->
      <g transform="translate(7.5525 45.821441)scale(0.1 -0.1)">
       <use xlink:href="#DejaVuSans-49"/>
       <use x="63.623047" xlink:href="#DejaVuSans-54"/>
       <use x="127.246094" xlink:href="#DejaVuSans-48"/>
      </g>
     </g>
    </g>
    <g id="ytick_10">
     <g id="line2d_15">
      <g>
       <use style="stroke:#000000;stroke-width:0.8;" x="33.64" xlink:href="#m0aeec6d91a" y="14.76"/>
      </g>
     </g>
     <g id="text_15">
      <!-- 180 -->
      <g transform="translate(7.5525 18.559219)scale(0.1 -0.1)">
       <use xlink:href="#DejaVuSans-49"/>
       <use x="63.623047" xlink:href="#DejaVuSans-56"/>
       <use x="127.246094" xlink:href="#DejaVuSans-48"/>
      </g>
     </g>
    </g>
   </g>
   <g id="line2d_16">
    <path clip-path="url(#p75469c7572)" d="M 33.64 260.12 
L 107.60819 260.12 
L 109.003711 257.393778 
L 110.426574 257.393778 
L 111.84484 253.304444 
L 113.262857 251.941333 
L 114.684181 249.215111 
L 116.103664 249.215111 
L 117.525148 246.488889 
L 118.94477 242.399556 
L 120.363498 242.399556 
L 121.782937 236.947111 
L 123.204174 235.584 
L 124.624563 235.584 
L 126.045907 232.857778 
L 127.464 228.768444 
L 130.30256 228.768444 
L 131.720873 224.679111 
L 133.140717 221.952889 
L 134.560575 221.952889 
L 135.982984 219.226667 
L 137.403034 219.226667 
L 138.824086 221.952889 
L 140.242071 228.768444 
L 143.077843 228.768444 
L 145.914333 239.673333 
L 147.337166 239.673333 
L 148.757495 238.310222 
L 150.17908 235.584 
L 151.597055 235.584 
L 153.01515 227.405333 
L 154.432831 226.042222 
L 155.85151 223.316 
L 157.269521 223.316 
L 158.69052 221.952889 
L 161.527846 221.952889 
L 162.948631 209.684889 
L 164.366648 209.684889 
L 165.786026 208.321778 
L 167.204605 198.78 
L 168.626525 197.416889 
L 170.045054 197.416889 
L 171.463533 191.964444 
L 174.300947 191.964444 
L 175.722246 187.875111 
L 177.140355 189.238222 
L 178.55883 189.238222 
L 179.977182 174.244 
L 181.396109 166.065333 
L 182.815664 166.065333 
L 184.236646 141.529333 
L 185.658366 126.535111 
L 187.078532 126.535111 
L 191.341241 63.832 
L 192.762786 63.832 
L 194.183941 61.105778 
L 195.604923 61.105778 
L 197.026394 57.016444 
L 198.448875 76.1 
L 199.871078 84.278667 
L 201.292655 84.278667 
L 202.711769 87.004889 
L 205.548876 87.004889 
L 206.968191 92.457333 
L 208.386896 100.636 
L 209.807909 101.999111 
L 211.228948 101.999111 
L 212.647608 116.993333 
L 214.066545 116.993333 
L 215.486171 133.350667 
L 216.905318 157.886667 
L 218.324723 166.065333 
L 219.74461 166.065333 
L 221.163295 176.970222 
L 222.582469 190.601333 
L 225.423571 190.601333 
L 226.843154 260.12 
L 306.48836 260.12 
L 307.88391 258.756889 
L 309.303224 245.125778 
L 310.721693 245.125778 
L 312.139323 236.947111 
L 313.561183 236.947111 
L 314.979895 232.857778 
L 316.398371 227.405333 
L 317.816807 227.405333 
L 319.236678 224.679111 
L 320.657122 223.316 
L 324.917966 223.316 
L 326.33638 227.405333 
L 327.758085 227.405333 
L 329.182634 234.220889 
L 330.601063 235.584 
L 333.442765 235.584 
L 334.863983 232.857778 
L 336.28413 232.857778 
L 337.70224 228.768444 
L 339.120691 234.220889 
L 340.538374 231.494667 
L 341.961034 231.494667 
L 343.379176 232.857778 
L 344.797274 230.131556 
L 346.21585 230.131556 
L 347.634156 228.768444 
L 350.473249 215.137333 
L 351.892347 215.137333 
L 353.311324 204.232444 
L 354.729633 204.232444 
L 356.148907 208.321778 
L 357.567076 204.232444 
L 358.984992 204.232444 
L 360.402963 202.869333 
L 361.820946 206.958667 
L 363.241762 206.958667 
L 364.671585 201.506222 
L 366.091894 202.869333 
L 367.510291 193.327556 
L 368.929276 193.327556 
L 370.349272 179.696444 
L 371.770953 168.791556 
L 373.190699 168.791556 
L 374.612757 152.434222 
L 376.03462 130.624444 
L 377.452452 121.082667 
L 378.87232 121.082667 
L 380.290882 104.725333 
L 381.710104 99.272889 
L 383.128943 99.272889 
L 384.548583 82.915556 
L 385.969373 82.915556 
L 387.388058 69.284444 
L 388.80799 63.832 
L 390.227426 51.564 
L 391.646929 51.564 
L 393.065505 58.379556 
L 394.48504 37.932889 
L 395.90574 37.932889 
L 397.32405 46.111556 
L 398.743405 32.480444 
L 400.162754 32.480444 
L 401.582078 36.569778 
L 403.000093 31.117333 
L 404.419633 31.117333 
L 405.839241 29.754222 
L 407.26052 44.748444 
L 408.679838 63.832 
L 410.099458 63.832 
L 411.518565 77.463111 
L 412.940453 92.457333 
L 414.359079 92.457333 
L 415.778012 101.999111 
L 417.19732 108.814667 
L 418.616177 108.814667 
L 420.036434 134.713778 
L 421.455983 136.076889 
L 422.874871 136.076889 
L 424.294584 142.892444 
L 425.713862 260.12 
L 505.358278 260.12 
L 506.777022 258.756889 
L 508.19572 246.488889 
L 509.616752 246.488889 
L 511.034732 235.584 
L 512.453282 228.768444 
L 513.8726 220.589778 
L 515.290989 220.589778 
L 516.710685 215.137333 
L 518.131611 215.137333 
L 520.97157 204.232444 
L 522.392618 211.048 
L 523.812226 211.048 
L 526.651339 205.595556 
L 528.070302 205.595556 
L 529.489803 211.048 
L 530.909255 211.048 
L 532.33045 224.679111 
L 533.749212 224.679111 
L 535.168548 220.589778 
L 536.587508 220.589778 
L 538.011687 223.316 
L 539.430535 221.952889 
L 540.852305 221.952889 
L 542.272876 227.405333 
L 543.692177 223.316 
L 545.111484 223.316 
L 547.953619 215.137333 
L 549.374313 215.137333 
L 550.795328 212.411111 
L 552.215078 211.048 
L 553.634639 205.595556 
L 555.053633 205.595556 
L 556.473796 201.506222 
L 557.892921 200.143111 
L 559.311998 200.143111 
L 560.731434 197.416889 
L 562.151079 198.78 
L 563.570665 198.78 
L 564.98994 189.238222 
L 566.409176 183.785778 
L 567.829317 174.244 
L 569.247405 175.607111 
L 570.67191 172.880889 
L 572.091776 172.880889 
L 573.512209 167.428444 
L 574.935692 152.434222 
L 576.354178 144.255556 
L 577.77249 144.255556 
L 579.191965 121.082667 
L 580.611999 103.362222 
L 582.031947 103.362222 
L 583.454102 76.1 
L 584.873218 54.290222 
L 586.290965 54.290222 
L 587.709273 35.206667 
L 589.1317 32.480444 
L 590.550086 32.480444 
L 591.96867 28.391111 
L 593.389532 39.296 
L 594.811335 39.296 
L 596.2292 40.659111 
L 597.650564 54.290222 
L 599.076076 63.832 
L 600.496007 63.832 
L 603.338486 108.814667 
L 604.760888 108.814667 
L 606.181886 126.535111 
L 607.601937 141.529333 
L 609.021705 160.612889 
L 610.441527 160.612889 
L 611.860442 172.880889 
L 613.279957 172.880889 
L 614.70147 189.238222 
L 617.541773 200.143111 
L 618.9617 200.143111 
L 620.382069 201.506222 
L 626.059641 201.506222 
L 627.479963 260.12 
L 702.902344 260.12 
L 704.298261 257.393778 
L 705.717151 257.393778 
L 707.138558 249.215111 
L 708.556776 249.215111 
L 709.974581 247.852 
L 711.392389 239.673333 
L 714.229656 239.673333 
L 717.069631 234.220889 
L 718.487794 234.220889 
L 719.906384 238.310222 
L 721.32528 239.673333 
L 722.743041 239.673333 
L 725.580271 236.947111 
L 726.998631 236.947111 
L 728.417553 235.584 
L 729.83628 231.494667 
L 731.254057 232.857778 
L 734.094744 232.857778 
L 735.512819 234.220889 
L 736.932489 234.220889 
L 738.350411 227.405333 
L 739.769452 223.316 
L 741.187923 223.316 
L 742.609157 217.863556 
L 745.446634 217.863556 
L 746.86526 215.137333 
L 748.285057 217.863556 
L 749.706587 217.863556 
L 751.125914 228.768444 
L 752.547724 226.042222 
L 753.96868 219.226667 
L 755.387236 219.226667 
L 756.806694 215.137333 
L 758.227952 209.684889 
L 759.648239 209.684889 
L 761.06707 206.958667 
L 762.490866 206.958667 
L 763.912056 201.506222 
L 765.331001 204.232444 
L 766.752199 190.601333 
L 768.171184 190.601333 
L 769.590557 171.517778 
L 771.010739 161.976 
L 772.431435 161.976 
L 773.852578 144.255556 
L 775.272467 122.445778 
L 776.69358 122.445778 
L 778.112853 100.636 
L 779.532267 101.999111 
L 780.951756 91.094222 
L 782.372698 91.094222 
L 783.7917 88.368 
L 785.21094 72.010667 
L 786.6303 72.010667 
L 788.049818 50.200889 
L 789.469678 35.206667 
L 790.88933 35.206667 
L 792.308801 40.659111 
L 793.727984 31.117333 
L 795.147709 31.117333 
L 796.567433 39.296 
L 797.98756 50.200889 
L 799.406308 50.200889 
L 800.825745 51.564 
L 803.664652 67.921333 
L 807.922105 67.921333 
L 809.341832 87.004889 
L 810.761975 96.546667 
L 812.182236 96.546667 
L 813.601309 127.898222 
L 815.020378 146.981778 
L 816.441669 163.339111 
L 817.860896 163.339111 
L 819.280297 168.791556 
L 820.700303 176.970222 
L 822.120139 179.696444 
L 826.37809 179.696444 
L 827.797302 260.12 
L 901.825012 260.12 
L 903.220134 257.393778 
L 904.638949 257.393778 
L 906.056986 243.762667 
L 907.475616 223.316 
L 908.896768 216.500444 
L 910.315009 216.500444 
L 911.736225 208.321778 
L 914.576454 208.321778 
L 915.997467 197.416889 
L 918.839978 197.416889 
L 920.262217 193.327556 
L 924.519921 193.327556 
L 925.939506 189.238222 
L 927.359556 189.238222 
L 928.779278 191.964444 
L 930.198509 198.78 
L 931.617757 198.78 
L 933.03727 194.690667 
L 937.295051 194.690667 
L 938.712806 196.053778 
L 940.131885 196.053778 
L 941.551741 190.601333 
L 942.970178 200.143111 
L 944.389652 200.143111 
L 947.226441 202.869333 
L 948.645167 196.053778 
L 950.064408 196.053778 
L 951.483424 194.690667 
L 952.902712 197.416889 
L 954.323028 197.416889 
L 955.743986 190.601333 
L 957.164032 194.690667 
L 958.583471 194.690667 
L 960.002867 186.512 
L 961.422853 185.148889 
L 962.84082 185.148889 
L 964.258968 189.238222 
L 965.680206 182.422667 
L 967.09857 174.244 
L 968.517707 174.244 
L 969.936328 191.964444 
L 971.355676 191.964444 
L 972.775244 181.059556 
L 974.195622 164.702222 
L 975.614546 146.981778 
L 977.036284 146.981778 
L 978.45533 133.350667 
L 979.874785 130.624444 
L 981.293171 130.624444 
L 982.711836 140.166222 
L 984.130714 137.44 
L 985.551696 131.987556 
L 986.970859 131.987556 
L 988.389247 123.808889 
L 989.810767 123.808889 
L 991.232248 108.814667 
L 992.651733 101.999111 
L 994.069931 97.909778 
L 995.492453 97.909778 
L 996.911577 96.546667 
L 998.329647 96.546667 
L 999.74836 95.183556 
L 1001.167563 104.725333 
L 1002.586028 119.719556 
L 1004.00434 119.719556 
L 1005.423104 121.082667 
L 1006.84135 123.808889 
L 1008.259176 123.808889 
L 1009.677855 134.713778 
L 1011.095918 140.166222 
L 1012.514712 140.166222 
L 1013.933105 155.160444 
L 1015.35123 161.976 
L 1016.773108 161.976 
L 1018.191714 163.339111 
L 1019.612996 167.428444 
L 1021.034745 167.428444 
L 1022.456917 179.696444 
L 1023.878703 260.12 
L 1103.49215 260.12 
L 1104.90975 250.578222 
L 1106.328056 246.488889 
L 1107.748774 238.310222 
L 1109.169597 238.310222 
L 1112.005929 224.679111 
L 1113.425488 224.679111 
L 1114.843419 220.589778 
L 1116.262031 211.048 
L 1117.680614 211.048 
L 1119.098979 206.958667 
L 1120.516703 200.143111 
L 1121.934426 200.143111 
L 1123.35227 191.964444 
L 1124.769845 186.512 
L 1126.18714 186.512 
L 1129.023536 178.333333 
L 1130.441723 171.517778 
L 1131.859411 171.517778 
L 1133.28 164.702222 
L 1133.28 164.702222 
" style="fill:none;stroke:#1f77b4;stroke-linecap:square;stroke-width:1.5;"/>
   </g>
   <g id="patch_3">
    <path d="M 33.64 260.12 
L 33.64 14.76 
" style="fill:none;stroke:#000000;stroke-linecap:square;stroke-linejoin:miter;stroke-width:0.8;"/>
   </g>
   <g id="patch_4">
    <path d="M 1133.28 260.12 
L 1133.28 14.76 
" style="fill:none;stroke:#000000;stroke-linecap:square;stroke-linejoin:miter;stroke-width:0.8;"/>
   </g>
   <g id="patch_5">
    <path d="M 33.64 260.12 
L 1133.28 260.12 
" style="fill:none;stroke:#000000;stroke-linecap:square;stroke-linejoin:miter;stroke-width:0.8;"/>
   </g>
   <g id="patch_6">
    <path d="M 33.64 14.76 
L 1133.28 14.76 
" style="fill:none;stroke:#000000;stroke-linecap:square;stroke-linejoin:miter;stroke-width:0.8;"/>
   </g>
  </g>
 </g>
 <defs>
  <clipPath id="p75469c7572">
   <rect height="245.36" width="1099.64" x="33.64" y="14.76"/>
  </clipPath>
 </defs>
</svg>
