<?xml version="1.0" encoding="utf-8" standalone="no"?>
<!DOCTYPE svg PUBLIC "-//W3C//DTD SVG 1.1//EN"
  "http://www.w3.org/Graphics/SVG/1.1/DTD/svg11.dtd">
<!-- Created with matplotlib (https://matplotlib.org/) -->
<svg height="288pt" version="1.1" viewBox="0 0 1152 288" width="1152pt" xmlns="http://www.w3.org/2000/svg" xmlns:xlink="http://www.w3.org/1999/xlink">
 <defs>
  <style type="text/css">
*{stroke-linecap:butt;stroke-linejoin:round;}
  </style>
 </defs>
 <g id="figure_1">
  <g id="patch_1">
   <path d="M 0 288 
L 1152 288 
L 1152 0 
L 0 0 
z
" style="fill:#ffffff;"/>
  </g>
  <g id="axes_1">
   <g id="patch_2">
    <path d="M 33.64 260.12 
L 1133.28 260.12 
L 1133.28 14.76 
L 33.64 14.76 
z
" style="fill:#ffffff;"/>
   </g>
   <g id="matplotlib.axis_1">
    <g id="xtick_1">
     <g id="line2d_1">
      <defs>
       <path d="M 0 0 
L 0 3.5 
" id="m62849c7f53" style="stroke:#000000;stroke-width:0.8;"/>
      </defs>
      <g>
       <use style="stroke:#000000;stroke-width:0.8;" x="190.611518" xlink:href="#m62849c7f53" y="260.12"/>
      </g>
     </g>
     <g id="text_1">
      <!-- Mon 12:00 -->
      <defs>
       <path d="M 9.8125 72.90625 
L 24.515625 72.90625 
L 43.109375 23.296875 
L 61.8125 72.90625 
L 76.515625 72.90625 
L 76.515625 0 
L 66.890625 0 
L 66.890625 64.015625 
L 48.09375 14.015625 
L 38.1875 14.015625 
L 19.390625 64.015625 
L 19.390625 0 
L 9.8125 0 
z
" id="DejaVuSans-77"/>
       <path d="M 30.609375 48.390625 
Q 23.390625 48.390625 19.1875 42.75 
Q 14.984375 37.109375 14.984375 27.296875 
Q 14.984375 17.484375 19.15625 11.84375 
Q 23.34375 6.203125 30.609375 6.203125 
Q 37.796875 6.203125 41.984375 11.859375 
Q 46.1875 17.53125 46.1875 27.296875 
Q 46.1875 37.015625 41.984375 42.703125 
Q 37.796875 48.390625 30.609375 48.390625 
z
M 30.609375 56 
Q 42.328125 56 49.015625 48.375 
Q 55.71875 40.765625 55.71875 27.296875 
Q 55.71875 13.875 49.015625 6.21875 
Q 42.328125 -1.421875 30.609375 -1.421875 
Q 18.84375 -1.421875 12.171875 6.21875 
Q 5.515625 13.875 5.515625 27.296875 
Q 5.515625 40.765625 12.171875 48.375 
Q 18.84375 56 30.609375 56 
z
" id="DejaVuSans-111"/>
       <path d="M 54.890625 33.015625 
L 54.890625 0 
L 45.90625 0 
L 45.90625 32.71875 
Q 45.90625 40.484375 42.875 44.328125 
Q 39.84375 48.1875 33.796875 48.1875 
Q 26.515625 48.1875 22.3125 43.546875 
Q 18.109375 38.921875 18.109375 30.90625 
L 18.109375 0 
L 9.078125 0 
L 9.078125 54.6875 
L 18.109375 54.6875 
L 18.109375 46.1875 
Q 21.34375 51.125 25.703125 53.5625 
Q 30.078125 56 35.796875 56 
Q 45.21875 56 50.046875 50.171875 
Q 54.890625 44.34375 54.890625 33.015625 
z
" id="DejaVuSans-110"/>
       <path id="DejaVuSans-32"/>
       <path d="M 12.40625 8.296875 
L 28.515625 8.296875 
L 28.515625 63.921875 
L 10.984375 60.40625 
L 10.984375 69.390625 
L 28.421875 72.90625 
L 38.28125 72.90625 
L 38.28125 8.296875 
L 54.390625 8.296875 
L 54.390625 0 
L 12.40625 0 
z
" id="DejaVuSans-49"/>
       <path d="M 19.1875 8.296875 
L 53.609375 8.296875 
L 53.609375 0 
L 7.328125 0 
L 7.328125 8.296875 
Q 12.9375 14.109375 22.625 23.890625 
Q 32.328125 33.6875 34.8125 36.53125 
Q 39.546875 41.84375 41.421875 45.53125 
Q 43.3125 49.21875 43.3125 52.78125 
Q 43.3125 58.59375 39.234375 62.25 
Q 35.15625 65.921875 28.609375 65.921875 
Q 23.96875 65.921875 18.8125 64.3125 
Q 13.671875 62.703125 7.8125 59.421875 
L 7.8125 69.390625 
Q 13.765625 71.78125 18.9375 73 
Q 24.125 74.21875 28.421875 74.21875 
Q 39.75 74.21875 46.484375 68.546875 
Q 53.21875 62.890625 53.21875 53.421875 
Q 53.21875 48.921875 51.53125 44.890625 
Q 49.859375 40.875 45.40625 35.40625 
Q 44.1875 33.984375 37.640625 27.21875 
Q 31.109375 20.453125 19.1875 8.296875 
z
" id="DejaVuSans-50"/>
       <path d="M 11.71875 12.40625 
L 22.015625 12.40625 
L 22.015625 0 
L 11.71875 0 
z
M 11.71875 51.703125 
L 22.015625 51.703125 
L 22.015625 39.3125 
L 11.71875 39.3125 
z
" id="DejaVuSans-58"/>
       <path d="M 31.78125 66.40625 
Q 24.171875 66.40625 20.328125 58.90625 
Q 16.5 51.421875 16.5 36.375 
Q 16.5 21.390625 20.328125 13.890625 
Q 24.171875 6.390625 31.78125 6.390625 
Q 39.453125 6.390625 43.28125 13.890625 
Q 47.125 21.390625 47.125 36.375 
Q 47.125 51.421875 43.28125 58.90625 
Q 39.453125 66.40625 31.78125 66.40625 
z
M 31.78125 74.21875 
Q 44.046875 74.21875 50.515625 64.515625 
Q 56.984375 54.828125 56.984375 36.375 
Q 56.984375 17.96875 50.515625 8.265625 
Q 44.046875 -1.421875 31.78125 -1.421875 
Q 19.53125 -1.421875 13.0625 8.265625 
Q 6.59375 17.96875 6.59375 36.375 
Q 6.59375 54.828125 13.0625 64.515625 
Q 19.53125 74.21875 31.78125 74.21875 
z
" id="DejaVuSans-48"/>
      </defs>
      <g transform="translate(164.070893 274.718437)scale(0.1 -0.1)">
       <use xlink:href="#DejaVuSans-77"/>
       <use x="86.279297" xlink:href="#DejaVuSans-111"/>
       <use x="147.460938" xlink:href="#DejaVuSans-110"/>
       <use x="210.839844" xlink:href="#DejaVuSans-32"/>
       <use x="242.626953" xlink:href="#DejaVuSans-49"/>
       <use x="306.25" xlink:href="#DejaVuSans-50"/>
       <use x="369.873047" xlink:href="#DejaVuSans-58"/>
       <use x="403.564453" xlink:href="#DejaVuSans-48"/>
       <use x="467.1875" xlink:href="#DejaVuSans-48"/>
      </g>
     </g>
    </g>
    <g id="xtick_2">
     <g id="line2d_2">
      <g>
       <use style="stroke:#000000;stroke-width:0.8;" x="349.789022" xlink:href="#m62849c7f53" y="260.12"/>
      </g>
     </g>
     <g id="text_2">
      <!-- Tue 00:00 -->
      <defs>
       <path d="M -0.296875 72.90625 
L 61.375 72.90625 
L 61.375 64.59375 
L 35.5 64.59375 
L 35.5 0 
L 25.59375 0 
L 25.59375 64.59375 
L -0.296875 64.59375 
z
" id="DejaVuSans-84"/>
       <path d="M 8.5 21.578125 
L 8.5 54.6875 
L 17.484375 54.6875 
L 17.484375 21.921875 
Q 17.484375 14.15625 20.5 10.265625 
Q 23.53125 6.390625 29.59375 6.390625 
Q 36.859375 6.390625 41.078125 11.03125 
Q 45.3125 15.671875 45.3125 23.6875 
L 45.3125 54.6875 
L 54.296875 54.6875 
L 54.296875 0 
L 45.3125 0 
L 45.3125 8.40625 
Q 42.046875 3.421875 37.71875 1 
Q 33.40625 -1.421875 27.6875 -1.421875 
Q 18.265625 -1.421875 13.375 4.4375 
Q 8.5 10.296875 8.5 21.578125 
z
M 31.109375 56 
z
" id="DejaVuSans-117"/>
       <path d="M 56.203125 29.59375 
L 56.203125 25.203125 
L 14.890625 25.203125 
Q 15.484375 15.921875 20.484375 11.0625 
Q 25.484375 6.203125 34.421875 6.203125 
Q 39.59375 6.203125 44.453125 7.46875 
Q 49.3125 8.734375 54.109375 11.28125 
L 54.109375 2.78125 
Q 49.265625 0.734375 44.1875 -0.34375 
Q 39.109375 -1.421875 33.890625 -1.421875 
Q 20.796875 -1.421875 13.15625 6.1875 
Q 5.515625 13.8125 5.515625 26.8125 
Q 5.515625 40.234375 12.765625 48.109375 
Q 20.015625 56 32.328125 56 
Q 43.359375 56 49.78125 48.890625 
Q 56.203125 41.796875 56.203125 29.59375 
z
M 47.21875 32.234375 
Q 47.125 39.59375 43.09375 43.984375 
Q 39.0625 48.390625 32.421875 48.390625 
Q 24.90625 48.390625 20.390625 44.140625 
Q 15.875 39.890625 15.1875 32.171875 
z
" id="DejaVuSans-101"/>
      </defs>
      <g transform="translate(324.503085 274.718437)scale(0.1 -0.1)">
       <use xlink:href="#DejaVuSans-84"/>
       <use x="60.849609" xlink:href="#DejaVuSans-117"/>
       <use x="124.228516" xlink:href="#DejaVuSans-101"/>
       <use x="185.751953" xlink:href="#DejaVuSans-32"/>
       <use x="217.539062" xlink:href="#DejaVuSans-48"/>
       <use x="281.162109" xlink:href="#DejaVuSans-48"/>
       <use x="344.785156" xlink:href="#DejaVuSans-58"/>
       <use x="378.476562" xlink:href="#DejaVuSans-48"/>
       <use x="442.099609" xlink:href="#DejaVuSans-48"/>
      </g>
     </g>
    </g>
    <g id="xtick_3">
     <g id="line2d_3">
      <g>
       <use style="stroke:#000000;stroke-width:0.8;" x="508.966527" xlink:href="#m62849c7f53" y="260.12"/>
      </g>
     </g>
     <g id="text_3">
      <!-- Tue 12:00 -->
      <g transform="translate(483.68059 274.718437)scale(0.1 -0.1)">
       <use xlink:href="#DejaVuSans-84"/>
       <use x="60.849609" xlink:href="#DejaVuSans-117"/>
       <use x="124.228516" xlink:href="#DejaVuSans-101"/>
       <use x="185.751953" xlink:href="#DejaVuSans-32"/>
       <use x="217.539062" xlink:href="#DejaVuSans-49"/>
       <use x="281.162109" xlink:href="#DejaVuSans-50"/>
       <use x="344.785156" xlink:href="#DejaVuSans-58"/>
       <use x="378.476562" xlink:href="#DejaVuSans-48"/>
       <use x="442.099609" xlink:href="#DejaVuSans-48"/>
      </g>
     </g>
    </g>
    <g id="xtick_4">
     <g id="line2d_4">
      <g>
       <use style="stroke:#000000;stroke-width:0.8;" x="668.144032" xlink:href="#m62849c7f53" y="260.12"/>
      </g>
     </g>
     <g id="text_4">
      <!-- Wed 00:00 -->
      <defs>
       <path d="M 3.328125 72.90625 
L 13.28125 72.90625 
L 28.609375 11.28125 
L 43.890625 72.90625 
L 54.984375 72.90625 
L 70.3125 11.28125 
L 85.59375 72.90625 
L 95.609375 72.90625 
L 77.296875 0 
L 64.890625 0 
L 49.515625 63.28125 
L 33.984375 0 
L 21.578125 0 
z
" id="DejaVuSans-87"/>
       <path d="M 45.40625 46.390625 
L 45.40625 75.984375 
L 54.390625 75.984375 
L 54.390625 0 
L 45.40625 0 
L 45.40625 8.203125 
Q 42.578125 3.328125 38.25 0.953125 
Q 33.9375 -1.421875 27.875 -1.421875 
Q 17.96875 -1.421875 11.734375 6.484375 
Q 5.515625 14.40625 5.515625 27.296875 
Q 5.515625 40.1875 11.734375 48.09375 
Q 17.96875 56 27.875 56 
Q 33.9375 56 38.25 53.625 
Q 42.578125 51.265625 45.40625 46.390625 
z
M 14.796875 27.296875 
Q 14.796875 17.390625 18.875 11.75 
Q 22.953125 6.109375 30.078125 6.109375 
Q 37.203125 6.109375 41.296875 11.75 
Q 45.40625 17.390625 45.40625 27.296875 
Q 45.40625 37.203125 41.296875 42.84375 
Q 37.203125 48.484375 30.078125 48.484375 
Q 22.953125 48.484375 18.875 42.84375 
Q 14.796875 37.203125 14.796875 27.296875 
z
" id="DejaVuSans-100"/>
      </defs>
      <g transform="translate(640.954969 274.718437)scale(0.1 -0.1)">
       <use xlink:href="#DejaVuSans-87"/>
       <use x="98.798828" xlink:href="#DejaVuSans-101"/>
       <use x="160.322266" xlink:href="#DejaVuSans-100"/>
       <use x="223.798828" xlink:href="#DejaVuSans-32"/>
       <use x="255.585938" xlink:href="#DejaVuSans-48"/>
       <use x="319.208984" xlink:href="#DejaVuSans-48"/>
       <use x="382.832031" xlink:href="#DejaVuSans-58"/>
       <use x="416.523438" xlink:href="#DejaVuSans-48"/>
       <use x="480.146484" xlink:href="#DejaVuSans-48"/>
      </g>
     </g>
    </g>
    <g id="xtick_5">
     <g id="line2d_5">
      <g>
       <use style="stroke:#000000;stroke-width:0.8;" x="827.321536" xlink:href="#m62849c7f53" y="260.12"/>
      </g>
     </g>
     <g id="text_5">
      <!-- Wed 12:00 -->
      <g transform="translate(800.132474 274.718437)scale(0.1 -0.1)">
       <use xlink:href="#DejaVuSans-87"/>
       <use x="98.798828" xlink:href="#DejaVuSans-101"/>
       <use x="160.322266" xlink:href="#DejaVuSans-100"/>
       <use x="223.798828" xlink:href="#DejaVuSans-32"/>
       <use x="255.585938" xlink:href="#DejaVuSans-49"/>
       <use x="319.208984" xlink:href="#DejaVuSans-50"/>
       <use x="382.832031" xlink:href="#DejaVuSans-58"/>
       <use x="416.523438" xlink:href="#DejaVuSans-48"/>
       <use x="480.146484" xlink:href="#DejaVuSans-48"/>
      </g>
     </g>
    </g>
    <g id="xtick_6">
     <g id="line2d_6">
      <g>
       <use style="stroke:#000000;stroke-width:0.8;" x="986.499041" xlink:href="#m62849c7f53" y="260.12"/>
      </g>
     </g>
     <g id="text_6">
      <!-- Thu 00:00 -->
      <defs>
       <path d="M 54.890625 33.015625 
L 54.890625 0 
L 45.90625 0 
L 45.90625 32.71875 
Q 45.90625 40.484375 42.875 44.328125 
Q 39.84375 48.1875 33.796875 48.1875 
Q 26.515625 48.1875 22.3125 43.546875 
Q 18.109375 38.921875 18.109375 30.90625 
L 18.109375 0 
L 9.078125 0 
L 9.078125 75.984375 
L 18.109375 75.984375 
L 18.109375 46.1875 
Q 21.34375 51.125 25.703125 53.5625 
Q 30.078125 56 35.796875 56 
Q 45.21875 56 50.046875 50.171875 
Q 54.890625 44.34375 54.890625 33.015625 
z
" id="DejaVuSans-104"/>
      </defs>
      <g transform="translate(961.109197 274.718437)scale(0.1 -0.1)">
       <use xlink:href="#DejaVuSans-84"/>
       <use x="61.083984" xlink:href="#DejaVuSans-104"/>
       <use x="124.462891" xlink:href="#DejaVuSans-117"/>
       <use x="187.841797" xlink:href="#DejaVuSans-32"/>
       <use x="219.628906" xlink:href="#DejaVuSans-48"/>
       <use x="283.251953" xlink:href="#DejaVuSans-48"/>
       <use x="346.875" xlink:href="#DejaVuSans-58"/>
       <use x="380.566406" xlink:href="#DejaVuSans-48"/>
       <use x="444.189453" xlink:href="#DejaVuSans-48"/>
      </g>
     </g>
    </g>
   </g>
   <g id="matplotlib.axis_2">
    <g id="ytick_1">
     <g id="line2d_7">
      <defs>
       <path d="M 0 0 
L -3.5 0 
" id="mff27744c1c" style="stroke:#000000;stroke-width:0.8;"/>
      </defs>
      <g>
       <use style="stroke:#000000;stroke-width:0.8;" x="33.64" xlink:href="#mff27744c1c" y="260.12"/>
      </g>
     </g>
     <g id="text_7">
      <!-- 0 -->
      <g transform="translate(20.2775 263.919219)scale(0.1 -0.1)">
       <use xlink:href="#DejaVuSans-48"/>
      </g>
     </g>
    </g>
    <g id="ytick_2">
     <g id="line2d_8">
      <g>
       <use style="stroke:#000000;stroke-width:0.8;" x="33.64" xlink:href="#mff27744c1c" y="209.003333"/>
      </g>
     </g>
     <g id="text_8">
      <!-- 50 -->
      <defs>
       <path d="M 10.796875 72.90625 
L 49.515625 72.90625 
L 49.515625 64.59375 
L 19.828125 64.59375 
L 19.828125 46.734375 
Q 21.96875 47.46875 24.109375 47.828125 
Q 26.265625 48.1875 28.421875 48.1875 
Q 40.625 48.1875 47.75 41.5 
Q 54.890625 34.8125 54.890625 23.390625 
Q 54.890625 11.625 47.5625 5.09375 
Q 40.234375 -1.421875 26.90625 -1.421875 
Q 22.3125 -1.421875 17.546875 -0.640625 
Q 12.796875 0.140625 7.71875 1.703125 
L 7.71875 11.625 
Q 12.109375 9.234375 16.796875 8.0625 
Q 21.484375 6.890625 26.703125 6.890625 
Q 35.15625 6.890625 40.078125 11.328125 
Q 45.015625 15.765625 45.015625 23.390625 
Q 45.015625 31 40.078125 35.4375 
Q 35.15625 39.890625 26.703125 39.890625 
Q 22.75 39.890625 18.8125 39.015625 
Q 14.890625 38.140625 10.796875 36.28125 
z
" id="DejaVuSans-53"/>
      </defs>
      <g transform="translate(13.915 212.802552)scale(0.1 -0.1)">
       <use xlink:href="#DejaVuSans-53"/>
       <use x="63.623047" xlink:href="#DejaVuSans-48"/>
      </g>
     </g>
    </g>
    <g id="ytick_3">
     <g id="line2d_9">
      <g>
       <use style="stroke:#000000;stroke-width:0.8;" x="33.64" xlink:href="#mff27744c1c" y="157.886667"/>
      </g>
     </g>
     <g id="text_9">
      <!-- 100 -->
      <g transform="translate(7.5525 161.685885)scale(0.1 -0.1)">
       <use xlink:href="#DejaVuSans-49"/>
       <use x="63.623047" xlink:href="#DejaVuSans-48"/>
       <use x="127.246094" xlink:href="#DejaVuSans-48"/>
      </g>
     </g>
    </g>
    <g id="ytick_4">
     <g id="line2d_10">
      <g>
       <use style="stroke:#000000;stroke-width:0.8;" x="33.64" xlink:href="#mff27744c1c" y="106.77"/>
      </g>
     </g>
     <g id="text_10">
      <!-- 150 -->
      <g transform="translate(7.5525 110.569219)scale(0.1 -0.1)">
       <use xlink:href="#DejaVuSans-49"/>
       <use x="63.623047" xlink:href="#DejaVuSans-53"/>
       <use x="127.246094" xlink:href="#DejaVuSans-48"/>
      </g>
     </g>
    </g>
    <g id="ytick_5">
     <g id="line2d_11">
      <g>
       <use style="stroke:#000000;stroke-width:0.8;" x="33.64" xlink:href="#mff27744c1c" y="55.653333"/>
      </g>
     </g>
     <g id="text_11">
      <!-- 200 -->
      <g transform="translate(7.5525 59.452552)scale(0.1 -0.1)">
       <use xlink:href="#DejaVuSans-50"/>
       <use x="63.623047" xlink:href="#DejaVuSans-48"/>
       <use x="127.246094" xlink:href="#DejaVuSans-48"/>
      </g>
     </g>
    </g>
   </g>
   <g id="line2d_12">
    <path clip-path="url(#p28c8fc0874)" d="M 33.64 229.45 
L 150.322956 229.45 
L 154.842095 227.405333 
L 157.116742 227.405333 
L 159.391473 224.338333 
L 161.66657 224.338333 
L 163.941685 219.226667 
L 166.219242 218.204333 
L 168.492638 216.159667 
L 170.770901 216.159667 
L 175.323034 210.025667 
L 177.597323 210.025667 
L 179.870964 202.869333 
L 182.145905 203.891667 
L 184.421096 203.891667 
L 186.695474 202.869333 
L 188.971369 207.981 
L 191.246985 207.981 
L 193.521876 211.048 
L 195.795415 215.137333 
L 198.070031 215.137333 
L 200.345985 213.092667 
L 204.895267 213.092667 
L 207.174052 214.115 
L 209.451381 207.981 
L 211.725439 209.003333 
L 214.001412 209.003333 
L 216.277908 212.070333 
L 218.552456 213.092667 
L 220.827709 213.092667 
L 223.10806 214.115 
L 225.380963 209.003333 
L 227.655068 205.936333 
L 229.929175 205.936333 
L 232.208924 202.869333 
L 234.481636 202.869333 
L 239.030636 196.735333 
L 241.316274 190.601333 
L 243.590596 190.601333 
L 245.868223 191.623667 
L 248.145803 183.445 
L 250.421327 183.445 
L 252.696462 182.422667 
L 254.972661 180.378 
L 257.250573 180.378 
L 259.528724 174.244 
L 261.806874 172.199333 
L 264.086396 172.199333 
L 266.359793 157.886667 
L 268.639831 137.44 
L 270.914775 137.44 
L 273.189558 125.172 
L 275.467564 127.216667 
L 277.74615 110.859333 
L 280.020687 110.859333 
L 282.297743 109.837 
L 286.845338 109.837 
L 289.123452 100.636 
L 291.396664 100.636 
L 293.672494 92.457333 
L 295.947414 91.435 
L 298.225528 85.301 
L 300.504245 85.301 
L 302.781954 93.479667 
L 305.057384 102.680667 
L 307.331548 105.747667 
L 309.616617 105.747667 
L 311.895067 123.127333 
L 314.168394 123.127333 
L 318.718022 141.529333 
L 320.995709 141.529333 
L 325.552812 164.020667 
L 327.825845 176.288667 
L 330.099505 176.288667 
L 332.377459 183.445 
L 334.655542 184.467333 
L 336.93151 184.467333 
L 339.210034 188.556667 
L 341.483279 229.45 
L 471.811873 229.45 
L 474.088023 225.360667 
L 476.36251 225.360667 
L 478.638267 224.338333 
L 483.187499 220.249 
L 485.46287 220.249 
L 487.737307 218.204333 
L 490.013531 218.204333 
L 492.289479 217.182 
L 494.564783 212.070333 
L 496.842204 211.048 
L 501.390901 211.048 
L 503.667114 207.981 
L 508.220395 207.981 
L 510.496394 198.78 
L 512.772936 198.78 
L 515.047141 202.869333 
L 517.321635 199.802333 
L 519.603772 201.847 
L 521.87836 201.847 
L 524.153376 195.713 
L 526.43059 195.713 
L 528.705948 193.668333 
L 530.981796 193.668333 
L 533.258018 192.646 
L 535.533433 192.646 
L 537.808613 191.623667 
L 540.083099 193.668333 
L 542.357365 193.668333 
L 544.632532 190.601333 
L 546.907274 189.579 
L 549.180749 182.422667 
L 551.459732 182.422667 
L 553.735693 184.467333 
L 556.012174 184.467333 
L 558.285503 178.333333 
L 560.561104 177.311 
L 562.839774 177.311 
L 565.113591 173.221667 
L 567.387655 167.087667 
L 569.671047 167.087667 
L 571.953228 166.065333 
L 574.229054 162.998333 
L 576.502752 155.842 
L 578.782263 155.842 
L 581.058597 158.909 
L 583.333588 151.752667 
L 585.6099 151.752667 
L 587.882634 146.641 
L 590.157319 136.417667 
L 592.43548 136.417667 
L 594.709445 127.216667 
L 596.985448 121.082667 
L 599.259966 112.904 
L 601.53543 112.904 
L 603.811232 97.569 
L 606.089483 85.301 
L 608.363102 85.301 
L 610.638905 75.077667 
L 612.922163 75.077667 
L 615.200115 69.966 
L 617.476421 48.497 
L 619.755982 48.497 
L 622.030151 58.720333 
L 628.863721 58.720333 
L 631.140108 65.876667 
L 633.414629 70.988333 
L 635.689511 70.988333 
L 637.964605 77.122333 
L 640.243037 87.345667 
L 642.52057 91.435 
L 644.796551 91.435 
L 647.069287 109.837 
L 649.343976 129.261333 
L 651.618915 129.261333 
L 653.893841 153.797333 
L 656.17246 153.797333 
L 658.450263 229.45 
L 786.828969 229.45 
L 789.072825 228.427667 
L 791.345976 228.427667 
L 793.623087 224.338333 
L 795.897664 221.271333 
L 798.175668 220.249 
L 800.45105 220.249 
L 802.729588 216.159667 
L 807.28351 216.159667 
L 809.5621 212.070333 
L 811.837227 212.070333 
L 814.111863 209.003333 
L 816.38676 209.003333 
L 818.661315 204.914 
L 820.93692 204.914 
L 823.212813 201.847 
L 827.766717 201.847 
L 830.043044 202.869333 
L 832.316534 196.735333 
L 834.592592 192.646 
L 836.868633 192.646 
L 839.144538 186.512 
L 843.696686 186.512 
L 845.970941 189.579 
L 850.524828 189.579 
L 852.799847 187.534333 
L 855.072702 183.445 
L 857.345425 183.445 
L 861.898383 167.087667 
L 864.174976 167.087667 
L 866.449052 166.065333 
L 870.999388 155.842 
L 873.273176 155.842 
L 875.546961 147.663333 
L 877.822027 144.596333 
L 880.099692 144.596333 
L 882.375828 137.44 
L 884.652357 137.44 
L 886.926939 138.462333 
L 889.203087 122.105 
L 891.478859 108.814667 
L 893.755661 108.814667 
L 896.031229 99.613667 
L 898.306556 112.904 
L 900.581253 112.904 
L 902.859338 105.747667 
L 905.133406 104.725333 
L 907.410005 104.725333 
L 909.685186 101.658333 
L 911.961669 90.412667 
L 914.23749 82.234 
L 916.512347 82.234 
L 918.789087 65.876667 
L 921.062936 65.876667 
L 923.340809 51.564 
L 925.619544 27.028 
L 927.894295 27.028 
L 930.169282 24.983333 
L 950.641293 24.983333 
L 952.916723 44.407667 
L 955.190693 91.435 
L 957.465153 91.435 
L 959.740365 105.747667 
L 962.014968 121.082667 
L 964.296338 153.797333 
L 966.577999 153.797333 
L 968.858702 159.931333 
L 971.132195 161.976 
L 973.40738 161.976 
L 975.683059 168.11 
L 977.960491 260.12 
L 1112.824065 260.12 
L 1115.096832 257.053 
L 1117.369172 255.008333 
L 1119.644812 245.807333 
L 1121.916988 245.807333 
L 1124.189512 237.628667 
L 1126.463102 237.628667 
L 1131.009318 235.584 
L 1133.28 235.584 
L 1133.28 235.584 
" style="fill:none;stroke:#1f77b4;stroke-linecap:square;stroke-width:1.5;"/>
   </g>
   <g id="patch_3">
    <path d="M 33.64 260.12 
L 33.64 14.76 
" style="fill:none;stroke:#000000;stroke-linecap:square;stroke-linejoin:miter;stroke-width:0.8;"/>
   </g>
   <g id="patch_4">
    <path d="M 1133.28 260.12 
L 1133.28 14.76 
" style="fill:none;stroke:#000000;stroke-linecap:square;stroke-linejoin:miter;stroke-width:0.8;"/>
   </g>
   <g id="patch_5">
    <path d="M 33.64 260.12 
L 1133.28 260.12 
" style="fill:none;stroke:#000000;stroke-linecap:square;stroke-linejoin:miter;stroke-width:0.8;"/>
   </g>
   <g id="patch_6">
    <path d="M 33.64 14.76 
L 1133.28 14.76 
" style="fill:none;stroke:#000000;stroke-linecap:square;stroke-linejoin:miter;stroke-width:0.8;"/>
   </g>
  </g>
 </g>
 <defs>
  <clipPath id="p28c8fc0874">
   <rect height="245.36" width="1099.64" x="33.64" y="14.76"/>
  </clipPath>
 </defs>
</svg>
