<?xml version="1.0" encoding="utf-8" standalone="no"?>
<!DOCTYPE svg PUBLIC "-//W3C//DTD SVG 1.1//EN"
  "http://www.w3.org/Graphics/SVG/1.1/DTD/svg11.dtd">
<!-- Created with matplotlib (https://matplotlib.org/) -->
<svg height="288pt" version="1.1" viewBox="0 0 1152 288" width="1152pt" xmlns="http://www.w3.org/2000/svg" xmlns:xlink="http://www.w3.org/1999/xlink">
 <defs>
  <style type="text/css">
*{stroke-linecap:butt;stroke-linejoin:round;}
  </style>
 </defs>
 <g id="figure_1">
  <g id="patch_1">
   <path d="M 0 288 
L 1152 288 
L 1152 0 
L 0 0 
z
" style="fill:#ffffff;"/>
  </g>
  <g id="axes_1">
   <g id="patch_2">
    <path d="M 33.64 260.12 
L 1133.28 260.12 
L 1133.28 14.76 
L 33.64 14.76 
z
" style="fill:#ffffff;"/>
   </g>
   <g id="matplotlib.axis_1">
    <g id="xtick_1">
     <g id="line2d_1">
      <defs>
       <path d="M 0 0 
L 0 3.5 
" id="mbd22f88703" style="stroke:#000000;stroke-width:0.8;"/>
      </defs>
      <g>
       <use style="stroke:#000000;stroke-width:0.8;" x="223.564256" xlink:href="#mbd22f88703" y="260.12"/>
      </g>
     </g>
     <g id="text_1">
      <!-- Tue 00:00 -->
      <defs>
       <path d="M -0.296875 72.90625 
L 61.375 72.90625 
L 61.375 64.59375 
L 35.5 64.59375 
L 35.5 0 
L 25.59375 0 
L 25.59375 64.59375 
L -0.296875 64.59375 
z
" id="DejaVuSans-84"/>
       <path d="M 8.5 21.578125 
L 8.5 54.6875 
L 17.484375 54.6875 
L 17.484375 21.921875 
Q 17.484375 14.15625 20.5 10.265625 
Q 23.53125 6.390625 29.59375 6.390625 
Q 36.859375 6.390625 41.078125 11.03125 
Q 45.3125 15.671875 45.3125 23.6875 
L 45.3125 54.6875 
L 54.296875 54.6875 
L 54.296875 0 
L 45.3125 0 
L 45.3125 8.40625 
Q 42.046875 3.421875 37.71875 1 
Q 33.40625 -1.421875 27.6875 -1.421875 
Q 18.265625 -1.421875 13.375 4.4375 
Q 8.5 10.296875 8.5 21.578125 
z
M 31.109375 56 
z
" id="DejaVuSans-117"/>
       <path d="M 56.203125 29.59375 
L 56.203125 25.203125 
L 14.890625 25.203125 
Q 15.484375 15.921875 20.484375 11.0625 
Q 25.484375 6.203125 34.421875 6.203125 
Q 39.59375 6.203125 44.453125 7.46875 
Q 49.3125 8.734375 54.109375 11.28125 
L 54.109375 2.78125 
Q 49.265625 0.734375 44.1875 -0.34375 
Q 39.109375 -1.421875 33.890625 -1.421875 
Q 20.796875 -1.421875 13.15625 6.1875 
Q 5.515625 13.8125 5.515625 26.8125 
Q 5.515625 40.234375 12.765625 48.109375 
Q 20.015625 56 32.328125 56 
Q 43.359375 56 49.78125 48.890625 
Q 56.203125 41.796875 56.203125 29.59375 
z
M 47.21875 32.234375 
Q 47.125 39.59375 43.09375 43.984375 
Q 39.0625 48.390625 32.421875 48.390625 
Q 24.90625 48.390625 20.390625 44.140625 
Q 15.875 39.890625 15.1875 32.171875 
z
" id="DejaVuSans-101"/>
       <path id="DejaVuSans-32"/>
       <path d="M 31.78125 66.40625 
Q 24.171875 66.40625 20.328125 58.90625 
Q 16.5 51.421875 16.5 36.375 
Q 16.5 21.390625 20.328125 13.890625 
Q 24.171875 6.390625 31.78125 6.390625 
Q 39.453125 6.390625 43.28125 13.890625 
Q 47.125 21.390625 47.125 36.375 
Q 47.125 51.421875 43.28125 58.90625 
Q 39.453125 66.40625 31.78125 66.40625 
z
M 31.78125 74.21875 
Q 44.046875 74.21875 50.515625 64.515625 
Q 56.984375 54.828125 56.984375 36.375 
Q 56.984375 17.96875 50.515625 8.265625 
Q 44.046875 -1.421875 31.78125 -1.421875 
Q 19.53125 -1.421875 13.0625 8.265625 
Q 6.59375 17.96875 6.59375 36.375 
Q 6.59375 54.828125 13.0625 64.515625 
Q 19.53125 74.21875 31.78125 74.21875 
z
" id="DejaVuSans-48"/>
       <path d="M 11.71875 12.40625 
L 22.015625 12.40625 
L 22.015625 0 
L 11.71875 0 
z
M 11.71875 51.703125 
L 22.015625 51.703125 
L 22.015625 39.3125 
L 11.71875 39.3125 
z
" id="DejaVuSans-58"/>
      </defs>
      <g transform="translate(198.278319 274.718437)scale(0.1 -0.1)">
       <use xlink:href="#DejaVuSans-84"/>
       <use x="60.849609" xlink:href="#DejaVuSans-117"/>
       <use x="124.228516" xlink:href="#DejaVuSans-101"/>
       <use x="185.751953" xlink:href="#DejaVuSans-32"/>
       <use x="217.539062" xlink:href="#DejaVuSans-48"/>
       <use x="281.162109" xlink:href="#DejaVuSans-48"/>
       <use x="344.785156" xlink:href="#DejaVuSans-58"/>
       <use x="378.476562" xlink:href="#DejaVuSans-48"/>
       <use x="442.099609" xlink:href="#DejaVuSans-48"/>
      </g>
     </g>
    </g>
    <g id="xtick_2">
     <g id="line2d_2">
      <g>
       <use style="stroke:#000000;stroke-width:0.8;" x="414.536641" xlink:href="#mbd22f88703" y="260.12"/>
      </g>
     </g>
     <g id="text_2">
      <!-- Wed 00:00 -->
      <defs>
       <path d="M 3.328125 72.90625 
L 13.28125 72.90625 
L 28.609375 11.28125 
L 43.890625 72.90625 
L 54.984375 72.90625 
L 70.3125 11.28125 
L 85.59375 72.90625 
L 95.609375 72.90625 
L 77.296875 0 
L 64.890625 0 
L 49.515625 63.28125 
L 33.984375 0 
L 21.578125 0 
z
" id="DejaVuSans-87"/>
       <path d="M 45.40625 46.390625 
L 45.40625 75.984375 
L 54.390625 75.984375 
L 54.390625 0 
L 45.40625 0 
L 45.40625 8.203125 
Q 42.578125 3.328125 38.25 0.953125 
Q 33.9375 -1.421875 27.875 -1.421875 
Q 17.96875 -1.421875 11.734375 6.484375 
Q 5.515625 14.40625 5.515625 27.296875 
Q 5.515625 40.1875 11.734375 48.09375 
Q 17.96875 56 27.875 56 
Q 33.9375 56 38.25 53.625 
Q 42.578125 51.265625 45.40625 46.390625 
z
M 14.796875 27.296875 
Q 14.796875 17.390625 18.875 11.75 
Q 22.953125 6.109375 30.078125 6.109375 
Q 37.203125 6.109375 41.296875 11.75 
Q 45.40625 17.390625 45.40625 27.296875 
Q 45.40625 37.203125 41.296875 42.84375 
Q 37.203125 48.484375 30.078125 48.484375 
Q 22.953125 48.484375 18.875 42.84375 
Q 14.796875 37.203125 14.796875 27.296875 
z
" id="DejaVuSans-100"/>
      </defs>
      <g transform="translate(387.347578 274.718437)scale(0.1 -0.1)">
       <use xlink:href="#DejaVuSans-87"/>
       <use x="98.798828" xlink:href="#DejaVuSans-101"/>
       <use x="160.322266" xlink:href="#DejaVuSans-100"/>
       <use x="223.798828" xlink:href="#DejaVuSans-32"/>
       <use x="255.585938" xlink:href="#DejaVuSans-48"/>
       <use x="319.208984" xlink:href="#DejaVuSans-48"/>
       <use x="382.832031" xlink:href="#DejaVuSans-58"/>
       <use x="416.523438" xlink:href="#DejaVuSans-48"/>
       <use x="480.146484" xlink:href="#DejaVuSans-48"/>
      </g>
     </g>
    </g>
    <g id="xtick_3">
     <g id="line2d_3">
      <g>
       <use style="stroke:#000000;stroke-width:0.8;" x="605.509025" xlink:href="#mbd22f88703" y="260.12"/>
      </g>
     </g>
     <g id="text_3">
      <!-- Thu 00:00 -->
      <defs>
       <path d="M 54.890625 33.015625 
L 54.890625 0 
L 45.90625 0 
L 45.90625 32.71875 
Q 45.90625 40.484375 42.875 44.328125 
Q 39.84375 48.1875 33.796875 48.1875 
Q 26.515625 48.1875 22.3125 43.546875 
Q 18.109375 38.921875 18.109375 30.90625 
L 18.109375 0 
L 9.078125 0 
L 9.078125 75.984375 
L 18.109375 75.984375 
L 18.109375 46.1875 
Q 21.34375 51.125 25.703125 53.5625 
Q 30.078125 56 35.796875 56 
Q 45.21875 56 50.046875 50.171875 
Q 54.890625 44.34375 54.890625 33.015625 
z
" id="DejaVuSans-104"/>
      </defs>
      <g transform="translate(580.119181 274.718437)scale(0.1 -0.1)">
       <use xlink:href="#DejaVuSans-84"/>
       <use x="61.083984" xlink:href="#DejaVuSans-104"/>
       <use x="124.462891" xlink:href="#DejaVuSans-117"/>
       <use x="187.841797" xlink:href="#DejaVuSans-32"/>
       <use x="219.628906" xlink:href="#DejaVuSans-48"/>
       <use x="283.251953" xlink:href="#DejaVuSans-48"/>
       <use x="346.875" xlink:href="#DejaVuSans-58"/>
       <use x="380.566406" xlink:href="#DejaVuSans-48"/>
       <use x="444.189453" xlink:href="#DejaVuSans-48"/>
      </g>
     </g>
    </g>
    <g id="xtick_4">
     <g id="line2d_4">
      <g>
       <use style="stroke:#000000;stroke-width:0.8;" x="796.481409" xlink:href="#mbd22f88703" y="260.12"/>
      </g>
     </g>
     <g id="text_4">
      <!-- Fri 00:00 -->
      <defs>
       <path d="M 9.8125 72.90625 
L 51.703125 72.90625 
L 51.703125 64.59375 
L 19.671875 64.59375 
L 19.671875 43.109375 
L 48.578125 43.109375 
L 48.578125 34.8125 
L 19.671875 34.8125 
L 19.671875 0 
L 9.8125 0 
z
" id="DejaVuSans-70"/>
       <path d="M 41.109375 46.296875 
Q 39.59375 47.171875 37.8125 47.578125 
Q 36.03125 48 33.890625 48 
Q 26.265625 48 22.1875 43.046875 
Q 18.109375 38.09375 18.109375 28.8125 
L 18.109375 0 
L 9.078125 0 
L 9.078125 54.6875 
L 18.109375 54.6875 
L 18.109375 46.1875 
Q 20.953125 51.171875 25.484375 53.578125 
Q 30.03125 56 36.53125 56 
Q 37.453125 56 38.578125 55.875 
Q 39.703125 55.765625 41.0625 55.515625 
z
" id="DejaVuSans-114"/>
       <path d="M 9.421875 54.6875 
L 18.40625 54.6875 
L 18.40625 0 
L 9.421875 0 
z
M 9.421875 75.984375 
L 18.40625 75.984375 
L 18.40625 64.59375 
L 9.421875 64.59375 
z
" id="DejaVuSans-105"/>
      </defs>
      <g transform="translate(774.168128 274.718437)scale(0.1 -0.1)">
       <use xlink:href="#DejaVuSans-70"/>
       <use x="57.410156" xlink:href="#DejaVuSans-114"/>
       <use x="98.523438" xlink:href="#DejaVuSans-105"/>
       <use x="126.306641" xlink:href="#DejaVuSans-32"/>
       <use x="158.09375" xlink:href="#DejaVuSans-48"/>
       <use x="221.716797" xlink:href="#DejaVuSans-48"/>
       <use x="285.339844" xlink:href="#DejaVuSans-58"/>
       <use x="319.03125" xlink:href="#DejaVuSans-48"/>
       <use x="382.654297" xlink:href="#DejaVuSans-48"/>
      </g>
     </g>
    </g>
    <g id="xtick_5">
     <g id="line2d_5">
      <g>
       <use style="stroke:#000000;stroke-width:0.8;" x="987.453794" xlink:href="#mbd22f88703" y="260.12"/>
      </g>
     </g>
     <g id="text_5">
      <!-- Sat 00:00 -->
      <defs>
       <path d="M 53.515625 70.515625 
L 53.515625 60.890625 
Q 47.90625 63.578125 42.921875 64.890625 
Q 37.9375 66.21875 33.296875 66.21875 
Q 25.25 66.21875 20.875 63.09375 
Q 16.5 59.96875 16.5 54.203125 
Q 16.5 49.359375 19.40625 46.890625 
Q 22.3125 44.4375 30.421875 42.921875 
L 36.375 41.703125 
Q 47.40625 39.59375 52.65625 34.296875 
Q 57.90625 29 57.90625 20.125 
Q 57.90625 9.515625 50.796875 4.046875 
Q 43.703125 -1.421875 29.984375 -1.421875 
Q 24.8125 -1.421875 18.96875 -0.25 
Q 13.140625 0.921875 6.890625 3.21875 
L 6.890625 13.375 
Q 12.890625 10.015625 18.65625 8.296875 
Q 24.421875 6.59375 29.984375 6.59375 
Q 38.421875 6.59375 43.015625 9.90625 
Q 47.609375 13.234375 47.609375 19.390625 
Q 47.609375 24.75 44.3125 27.78125 
Q 41.015625 30.8125 33.5 32.328125 
L 27.484375 33.5 
Q 16.453125 35.6875 11.515625 40.375 
Q 6.59375 45.0625 6.59375 53.421875 
Q 6.59375 63.09375 13.40625 68.65625 
Q 20.21875 74.21875 32.171875 74.21875 
Q 37.3125 74.21875 42.625 73.28125 
Q 47.953125 72.359375 53.515625 70.515625 
z
" id="DejaVuSans-83"/>
       <path d="M 34.28125 27.484375 
Q 23.390625 27.484375 19.1875 25 
Q 14.984375 22.515625 14.984375 16.5 
Q 14.984375 11.71875 18.140625 8.90625 
Q 21.296875 6.109375 26.703125 6.109375 
Q 34.1875 6.109375 38.703125 11.40625 
Q 43.21875 16.703125 43.21875 25.484375 
L 43.21875 27.484375 
z
M 52.203125 31.203125 
L 52.203125 0 
L 43.21875 0 
L 43.21875 8.296875 
Q 40.140625 3.328125 35.546875 0.953125 
Q 30.953125 -1.421875 24.3125 -1.421875 
Q 15.921875 -1.421875 10.953125 3.296875 
Q 6 8.015625 6 15.921875 
Q 6 25.140625 12.171875 29.828125 
Q 18.359375 34.515625 30.609375 34.515625 
L 43.21875 34.515625 
L 43.21875 35.40625 
Q 43.21875 41.609375 39.140625 45 
Q 35.0625 48.390625 27.6875 48.390625 
Q 23 48.390625 18.546875 47.265625 
Q 14.109375 46.140625 10.015625 43.890625 
L 10.015625 52.203125 
Q 14.9375 54.109375 19.578125 55.046875 
Q 24.21875 56 28.609375 56 
Q 40.484375 56 46.34375 49.84375 
Q 52.203125 43.703125 52.203125 31.203125 
z
" id="DejaVuSans-97"/>
       <path d="M 18.3125 70.21875 
L 18.3125 54.6875 
L 36.8125 54.6875 
L 36.8125 47.703125 
L 18.3125 47.703125 
L 18.3125 18.015625 
Q 18.3125 11.328125 20.140625 9.421875 
Q 21.96875 7.515625 27.59375 7.515625 
L 36.8125 7.515625 
L 36.8125 0 
L 27.59375 0 
Q 17.1875 0 13.234375 3.875 
Q 9.28125 7.765625 9.28125 18.015625 
L 9.28125 47.703125 
L 2.6875 47.703125 
L 2.6875 54.6875 
L 9.28125 54.6875 
L 9.28125 70.21875 
z
" id="DejaVuSans-116"/>
      </defs>
      <g transform="translate(963.256919 274.718437)scale(0.1 -0.1)">
       <use xlink:href="#DejaVuSans-83"/>
       <use x="63.476562" xlink:href="#DejaVuSans-97"/>
       <use x="124.755859" xlink:href="#DejaVuSans-116"/>
       <use x="163.964844" xlink:href="#DejaVuSans-32"/>
       <use x="195.751953" xlink:href="#DejaVuSans-48"/>
       <use x="259.375" xlink:href="#DejaVuSans-48"/>
       <use x="322.998047" xlink:href="#DejaVuSans-58"/>
       <use x="356.689453" xlink:href="#DejaVuSans-48"/>
       <use x="420.3125" xlink:href="#DejaVuSans-48"/>
      </g>
     </g>
    </g>
   </g>
   <g id="matplotlib.axis_2">
    <g id="ytick_1">
     <g id="line2d_6">
      <defs>
       <path d="M 0 0 
L -3.5 0 
" id="m11d4748614" style="stroke:#000000;stroke-width:0.8;"/>
      </defs>
      <g>
       <use style="stroke:#000000;stroke-width:0.8;" x="33.64" xlink:href="#m11d4748614" y="260.12"/>
      </g>
     </g>
     <g id="text_6">
      <!-- 0 -->
      <g transform="translate(20.2775 263.919219)scale(0.1 -0.1)">
       <use xlink:href="#DejaVuSans-48"/>
      </g>
     </g>
    </g>
    <g id="ytick_2">
     <g id="line2d_7">
      <g>
       <use style="stroke:#000000;stroke-width:0.8;" x="33.64" xlink:href="#m11d4748614" y="232.857778"/>
      </g>
     </g>
     <g id="text_7">
      <!-- 20 -->
      <defs>
       <path d="M 19.1875 8.296875 
L 53.609375 8.296875 
L 53.609375 0 
L 7.328125 0 
L 7.328125 8.296875 
Q 12.9375 14.109375 22.625 23.890625 
Q 32.328125 33.6875 34.8125 36.53125 
Q 39.546875 41.84375 41.421875 45.53125 
Q 43.3125 49.21875 43.3125 52.78125 
Q 43.3125 58.59375 39.234375 62.25 
Q 35.15625 65.921875 28.609375 65.921875 
Q 23.96875 65.921875 18.8125 64.3125 
Q 13.671875 62.703125 7.8125 59.421875 
L 7.8125 69.390625 
Q 13.765625 71.78125 18.9375 73 
Q 24.125 74.21875 28.421875 74.21875 
Q 39.75 74.21875 46.484375 68.546875 
Q 53.21875 62.890625 53.21875 53.421875 
Q 53.21875 48.921875 51.53125 44.890625 
Q 49.859375 40.875 45.40625 35.40625 
Q 44.1875 33.984375 37.640625 27.21875 
Q 31.109375 20.453125 19.1875 8.296875 
z
" id="DejaVuSans-50"/>
      </defs>
      <g transform="translate(13.915 236.656997)scale(0.1 -0.1)">
       <use xlink:href="#DejaVuSans-50"/>
       <use x="63.623047" xlink:href="#DejaVuSans-48"/>
      </g>
     </g>
    </g>
    <g id="ytick_3">
     <g id="line2d_8">
      <g>
       <use style="stroke:#000000;stroke-width:0.8;" x="33.64" xlink:href="#m11d4748614" y="205.595556"/>
      </g>
     </g>
     <g id="text_8">
      <!-- 40 -->
      <defs>
       <path d="M 37.796875 64.3125 
L 12.890625 25.390625 
L 37.796875 25.390625 
z
M 35.203125 72.90625 
L 47.609375 72.90625 
L 47.609375 25.390625 
L 58.015625 25.390625 
L 58.015625 17.1875 
L 47.609375 17.1875 
L 47.609375 0 
L 37.796875 0 
L 37.796875 17.1875 
L 4.890625 17.1875 
L 4.890625 26.703125 
z
" id="DejaVuSans-52"/>
      </defs>
      <g transform="translate(13.915 209.394774)scale(0.1 -0.1)">
       <use xlink:href="#DejaVuSans-52"/>
       <use x="63.623047" xlink:href="#DejaVuSans-48"/>
      </g>
     </g>
    </g>
    <g id="ytick_4">
     <g id="line2d_9">
      <g>
       <use style="stroke:#000000;stroke-width:0.8;" x="33.64" xlink:href="#m11d4748614" y="178.333333"/>
      </g>
     </g>
     <g id="text_9">
      <!-- 60 -->
      <defs>
       <path d="M 33.015625 40.375 
Q 26.375 40.375 22.484375 35.828125 
Q 18.609375 31.296875 18.609375 23.390625 
Q 18.609375 15.53125 22.484375 10.953125 
Q 26.375 6.390625 33.015625 6.390625 
Q 39.65625 6.390625 43.53125 10.953125 
Q 47.40625 15.53125 47.40625 23.390625 
Q 47.40625 31.296875 43.53125 35.828125 
Q 39.65625 40.375 33.015625 40.375 
z
M 52.59375 71.296875 
L 52.59375 62.3125 
Q 48.875 64.0625 45.09375 64.984375 
Q 41.3125 65.921875 37.59375 65.921875 
Q 27.828125 65.921875 22.671875 59.328125 
Q 17.53125 52.734375 16.796875 39.40625 
Q 19.671875 43.65625 24.015625 45.921875 
Q 28.375 48.1875 33.59375 48.1875 
Q 44.578125 48.1875 50.953125 41.515625 
Q 57.328125 34.859375 57.328125 23.390625 
Q 57.328125 12.15625 50.6875 5.359375 
Q 44.046875 -1.421875 33.015625 -1.421875 
Q 20.359375 -1.421875 13.671875 8.265625 
Q 6.984375 17.96875 6.984375 36.375 
Q 6.984375 53.65625 15.1875 63.9375 
Q 23.390625 74.21875 37.203125 74.21875 
Q 40.921875 74.21875 44.703125 73.484375 
Q 48.484375 72.75 52.59375 71.296875 
z
" id="DejaVuSans-54"/>
      </defs>
      <g transform="translate(13.915 182.132552)scale(0.1 -0.1)">
       <use xlink:href="#DejaVuSans-54"/>
       <use x="63.623047" xlink:href="#DejaVuSans-48"/>
      </g>
     </g>
    </g>
    <g id="ytick_5">
     <g id="line2d_10">
      <g>
       <use style="stroke:#000000;stroke-width:0.8;" x="33.64" xlink:href="#m11d4748614" y="151.071111"/>
      </g>
     </g>
     <g id="text_10">
      <!-- 80 -->
      <defs>
       <path d="M 31.78125 34.625 
Q 24.75 34.625 20.71875 30.859375 
Q 16.703125 27.09375 16.703125 20.515625 
Q 16.703125 13.921875 20.71875 10.15625 
Q 24.75 6.390625 31.78125 6.390625 
Q 38.8125 6.390625 42.859375 10.171875 
Q 46.921875 13.96875 46.921875 20.515625 
Q 46.921875 27.09375 42.890625 30.859375 
Q 38.875 34.625 31.78125 34.625 
z
M 21.921875 38.8125 
Q 15.578125 40.375 12.03125 44.71875 
Q 8.5 49.078125 8.5 55.328125 
Q 8.5 64.0625 14.71875 69.140625 
Q 20.953125 74.21875 31.78125 74.21875 
Q 42.671875 74.21875 48.875 69.140625 
Q 55.078125 64.0625 55.078125 55.328125 
Q 55.078125 49.078125 51.53125 44.71875 
Q 48 40.375 41.703125 38.8125 
Q 48.828125 37.15625 52.796875 32.3125 
Q 56.78125 27.484375 56.78125 20.515625 
Q 56.78125 9.90625 50.3125 4.234375 
Q 43.84375 -1.421875 31.78125 -1.421875 
Q 19.734375 -1.421875 13.25 4.234375 
Q 6.78125 9.90625 6.78125 20.515625 
Q 6.78125 27.484375 10.78125 32.3125 
Q 14.796875 37.15625 21.921875 38.8125 
z
M 18.3125 54.390625 
Q 18.3125 48.734375 21.84375 45.5625 
Q 25.390625 42.390625 31.78125 42.390625 
Q 38.140625 42.390625 41.71875 45.5625 
Q 45.3125 48.734375 45.3125 54.390625 
Q 45.3125 60.0625 41.71875 63.234375 
Q 38.140625 66.40625 31.78125 66.40625 
Q 25.390625 66.40625 21.84375 63.234375 
Q 18.3125 60.0625 18.3125 54.390625 
z
" id="DejaVuSans-56"/>
      </defs>
      <g transform="translate(13.915 154.87033)scale(0.1 -0.1)">
       <use xlink:href="#DejaVuSans-56"/>
       <use x="63.623047" xlink:href="#DejaVuSans-48"/>
      </g>
     </g>
    </g>
    <g id="ytick_6">
     <g id="line2d_11">
      <g>
       <use style="stroke:#000000;stroke-width:0.8;" x="33.64" xlink:href="#m11d4748614" y="123.808889"/>
      </g>
     </g>
     <g id="text_11">
      <!-- 100 -->
      <defs>
       <path d="M 12.40625 8.296875 
L 28.515625 8.296875 
L 28.515625 63.921875 
L 10.984375 60.40625 
L 10.984375 69.390625 
L 28.421875 72.90625 
L 38.28125 72.90625 
L 38.28125 8.296875 
L 54.390625 8.296875 
L 54.390625 0 
L 12.40625 0 
z
" id="DejaVuSans-49"/>
      </defs>
      <g transform="translate(7.5525 127.608108)scale(0.1 -0.1)">
       <use xlink:href="#DejaVuSans-49"/>
       <use x="63.623047" xlink:href="#DejaVuSans-48"/>
       <use x="127.246094" xlink:href="#DejaVuSans-48"/>
      </g>
     </g>
    </g>
    <g id="ytick_7">
     <g id="line2d_12">
      <g>
       <use style="stroke:#000000;stroke-width:0.8;" x="33.64" xlink:href="#m11d4748614" y="96.546667"/>
      </g>
     </g>
     <g id="text_12">
      <!-- 120 -->
      <g transform="translate(7.5525 100.345885)scale(0.1 -0.1)">
       <use xlink:href="#DejaVuSans-49"/>
       <use x="63.623047" xlink:href="#DejaVuSans-50"/>
       <use x="127.246094" xlink:href="#DejaVuSans-48"/>
      </g>
     </g>
    </g>
    <g id="ytick_8">
     <g id="line2d_13">
      <g>
       <use style="stroke:#000000;stroke-width:0.8;" x="33.64" xlink:href="#m11d4748614" y="69.284444"/>
      </g>
     </g>
     <g id="text_13">
      <!-- 140 -->
      <g transform="translate(7.5525 73.083663)scale(0.1 -0.1)">
       <use xlink:href="#DejaVuSans-49"/>
       <use x="63.623047" xlink:href="#DejaVuSans-52"/>
       <use x="127.246094" xlink:href="#DejaVuSans-48"/>
      </g>
     </g>
    </g>
    <g id="ytick_9">
     <g id="line2d_14">
      <g>
       <use style="stroke:#000000;stroke-width:0.8;" x="33.64" xlink:href="#m11d4748614" y="42.022222"/>
      </g>
     </g>
     <g id="text_14">
      <!-- 160 -->
      <g transform="translate(7.5525 45.821441)scale(0.1 -0.1)">
       <use xlink:href="#DejaVuSans-49"/>
       <use x="63.623047" xlink:href="#DejaVuSans-54"/>
       <use x="127.246094" xlink:href="#DejaVuSans-48"/>
      </g>
     </g>
    </g>
    <g id="ytick_10">
     <g id="line2d_15">
      <g>
       <use style="stroke:#000000;stroke-width:0.8;" x="33.64" xlink:href="#m11d4748614" y="14.76"/>
      </g>
     </g>
     <g id="text_15">
      <!-- 180 -->
      <g transform="translate(7.5525 18.559219)scale(0.1 -0.1)">
       <use xlink:href="#DejaVuSans-49"/>
       <use x="63.623047" xlink:href="#DejaVuSans-56"/>
       <use x="127.246094" xlink:href="#DejaVuSans-48"/>
      </g>
     </g>
    </g>
   </g>
   <g id="line2d_16">
    <path clip-path="url(#p693fc90aba)" d="M 33.64 260.12 
L 106.12144 260.12 
L 107.485997 254.667556 
L 108.849908 254.667556 
L 110.216808 242.399556 
L 111.579878 241.036444 
L 112.943288 230.131556 
L 114.310717 230.131556 
L 115.679052 226.042222 
L 117.043292 224.679111 
L 119.770905 224.679111 
L 122.49749 216.500444 
L 123.860846 216.500444 
L 125.224061 221.952889 
L 126.588073 221.952889 
L 127.950983 231.494667 
L 129.315879 235.584 
L 132.043234 235.584 
L 134.773196 227.405333 
L 136.136355 227.405333 
L 137.499926 231.494667 
L 138.864134 224.679111 
L 140.227176 224.679111 
L 141.589983 227.405333 
L 142.958888 224.679111 
L 144.323195 226.042222 
L 145.687199 226.042222 
L 147.050713 231.494667 
L 148.414652 231.494667 
L 149.77742 230.131556 
L 151.139996 227.405333 
L 152.503519 227.405333 
L 153.868713 226.042222 
L 155.233841 221.952889 
L 156.598751 223.316 
L 157.965016 223.316 
L 159.329236 219.226667 
L 160.693182 216.500444 
L 162.056568 216.500444 
L 163.420316 206.958667 
L 164.784518 208.321778 
L 166.148414 205.595556 
L 167.513145 205.595556 
L 168.876895 198.78 
L 170.240378 198.78 
L 171.60404 197.416889 
L 174.332806 197.416889 
L 175.696145 193.327556 
L 177.059711 176.970222 
L 178.423149 159.249778 
L 179.788466 159.249778 
L 181.155531 149.708 
L 182.520497 136.076889 
L 185.249956 136.076889 
L 186.614425 140.166222 
L 187.977964 140.166222 
L 189.343117 141.529333 
L 190.707704 137.44 
L 192.07173 137.44 
L 193.437636 131.987556 
L 194.806501 111.540889 
L 196.170917 116.993333 
L 197.537244 116.993333 
L 198.902112 121.082667 
L 200.269897 126.535111 
L 204.361516 126.535111 
L 205.725079 142.892444 
L 208.451415 153.797333 
L 209.817628 153.797333 
L 211.181145 168.791556 
L 212.545954 179.696444 
L 213.909409 179.696444 
L 215.273829 185.148889 
L 216.63804 193.327556 
L 219.368497 193.327556 
L 220.732848 260.12 
L 294.61188 260.12 
L 295.953915 258.756889 
L 297.321447 258.756889 
L 298.684975 251.941333 
L 300.048465 246.488889 
L 301.415508 246.488889 
L 302.784909 243.762667 
L 304.149511 224.679111 
L 305.51473 216.500444 
L 306.878737 216.500444 
L 308.243186 213.774222 
L 309.606896 213.774222 
L 310.971352 211.048 
L 313.699986 211.048 
L 315.065194 204.232444 
L 316.43026 211.048 
L 319.157552 211.048 
L 321.887567 213.774222 
L 323.254522 213.774222 
L 324.619514 215.137333 
L 325.98368 226.042222 
L 327.348175 226.042222 
L 328.71215 236.947111 
L 330.077979 242.399556 
L 331.441098 242.399556 
L 334.169165 239.673333 
L 335.534348 236.947111 
L 340.995378 236.947111 
L 343.725751 231.494667 
L 345.091819 227.405333 
L 346.45637 227.405333 
L 347.821458 226.042222 
L 349.184929 226.042222 
L 350.549344 220.589778 
L 351.984566 217.863556 
L 353.350518 217.863556 
L 354.715546 211.048 
L 356.079641 197.416889 
L 357.444507 194.690667 
L 358.810976 194.690667 
L 360.179234 183.785778 
L 361.54755 175.607111 
L 362.914001 175.607111 
L 364.28101 151.071111 
L 365.64753 129.261333 
L 367.013068 129.261333 
L 368.37705 121.082667 
L 369.74101 103.362222 
L 371.105419 103.362222 
L 372.470285 93.820444 
L 373.839965 88.368 
L 375.204174 88.368 
L 376.567993 74.736889 
L 377.93435 77.463111 
L 379.302714 73.373778 
L 380.666665 73.373778 
L 382.031341 88.368 
L 383.397382 89.731111 
L 384.761625 89.731111 
L 386.128339 93.820444 
L 387.492426 115.630222 
L 388.857568 115.630222 
L 390.222167 131.987556 
L 391.586076 140.166222 
L 392.950043 140.166222 
L 394.313812 148.344889 
L 397.040583 148.344889 
L 398.406531 157.886667 
L 399.770712 163.339111 
L 401.13721 163.339111 
L 402.500528 168.791556 
L 403.867126 185.148889 
L 405.230944 185.148889 
L 407.968088 204.232444 
L 409.33461 260.12 
L 485.927418 260.12 
L 487.269563 258.756889 
L 488.633578 258.756889 
L 489.998747 241.036444 
L 491.365891 232.857778 
L 492.730736 230.131556 
L 494.095365 230.131556 
L 495.466853 226.042222 
L 498.197299 226.042222 
L 499.565036 224.679111 
L 500.930167 217.863556 
L 502.295174 217.863556 
L 503.659867 219.226667 
L 505.027239 216.500444 
L 506.393577 216.500444 
L 507.757779 219.226667 
L 509.122368 228.768444 
L 514.587444 228.768444 
L 515.951872 231.494667 
L 517.315783 238.310222 
L 518.682325 242.399556 
L 520.049263 242.399556 
L 521.413999 243.762667 
L 522.780183 242.399556 
L 524.143862 242.399556 
L 526.87442 236.947111 
L 528.238947 235.584 
L 529.602704 235.584 
L 530.967776 231.494667 
L 532.332098 231.494667 
L 533.696685 223.316 
L 535.060661 223.316 
L 536.425473 216.500444 
L 537.789921 216.500444 
L 539.15642 219.226667 
L 541.883857 219.226667 
L 543.250559 205.595556 
L 544.617444 204.232444 
L 545.985241 204.232444 
L 548.718496 190.601333 
L 550.082208 182.422667 
L 551.45196 182.422667 
L 552.816976 189.238222 
L 554.180462 189.238222 
L 555.543602 182.422667 
L 556.908303 167.428444 
L 558.271992 167.428444 
L 559.640812 164.702222 
L 561.004288 159.249778 
L 562.368454 151.071111 
L 563.731961 151.071111 
L 565.095687 155.160444 
L 566.461702 144.255556 
L 567.826976 144.255556 
L 569.192451 140.166222 
L 570.557113 126.535111 
L 571.923428 126.535111 
L 573.288012 125.172 
L 574.654462 131.987556 
L 576.01788 131.987556 
L 577.382585 111.540889 
L 578.746877 101.999111 
L 580.111443 97.909778 
L 581.475956 97.909778 
L 582.839837 101.999111 
L 584.204521 101.999111 
L 585.569235 108.814667 
L 586.935995 123.808889 
L 588.29974 137.44 
L 589.665217 137.44 
L 591.030107 153.797333 
L 592.397302 159.249778 
L 593.760976 159.249778 
L 595.125504 175.607111 
L 596.491494 187.875111 
L 597.859657 187.875111 
L 599.223249 196.053778 
L 600.587478 209.684889 
L 601.953922 209.684889 
L 603.320141 260.12 
L 678.543684 260.12 
L 679.907868 254.667556 
L 681.271724 254.667556 
L 682.635813 236.947111 
L 683.999838 227.405333 
L 685.363576 224.679111 
L 686.727377 224.679111 
L 688.090998 227.405333 
L 689.454312 227.405333 
L 690.817275 221.952889 
L 692.181419 220.589778 
L 693.547764 217.863556 
L 694.91244 217.863556 
L 696.276613 221.952889 
L 697.63984 220.589778 
L 699.004506 220.589778 
L 700.367377 224.679111 
L 701.730786 231.494667 
L 704.463836 231.494667 
L 705.827546 232.857778 
L 707.191102 232.857778 
L 708.555722 235.584 
L 709.919964 234.220889 
L 711.28337 234.220889 
L 712.646454 235.584 
L 714.010077 238.310222 
L 715.374107 243.762667 
L 719.465024 243.762667 
L 722.193426 238.310222 
L 723.560483 234.220889 
L 724.924019 234.220889 
L 726.287618 232.857778 
L 727.652163 228.768444 
L 733.111787 228.768444 
L 735.842101 226.042222 
L 737.206555 223.316 
L 738.570473 223.316 
L 741.301299 198.78 
L 742.66679 198.78 
L 744.032371 204.232444 
L 745.397863 204.232444 
L 746.764444 201.506222 
L 748.128362 189.238222 
L 749.49297 186.512 
L 750.856769 186.512 
L 753.584966 142.892444 
L 754.950311 142.892444 
L 756.314919 131.987556 
L 757.680133 136.076889 
L 759.044575 136.076889 
L 760.409135 119.719556 
L 761.773839 116.993333 
L 763.138158 116.993333 
L 764.50243 107.451556 
L 765.868577 108.814667 
L 767.233657 108.814667 
L 768.597678 103.362222 
L 769.962544 88.368 
L 771.328218 84.278667 
L 772.693648 84.278667 
L 774.058795 100.636 
L 775.423072 107.451556 
L 776.787162 107.451556 
L 778.151309 122.445778 
L 779.516565 160.612889 
L 780.880892 160.612889 
L 782.245743 163.339111 
L 783.610343 168.791556 
L 784.974565 168.791556 
L 786.339431 190.601333 
L 787.703982 198.78 
L 789.069023 211.048 
L 790.433343 211.048 
L 791.798201 260.12 
L 868.383576 260.12 
L 869.748537 256.030667 
L 871.113178 250.578222 
L 872.477775 250.578222 
L 873.84372 238.310222 
L 875.209823 234.220889 
L 876.577441 234.220889 
L 877.941805 228.768444 
L 879.306526 226.042222 
L 880.672932 220.589778 
L 883.406751 220.589778 
L 884.773796 221.952889 
L 886.1372 221.952889 
L 887.501129 220.589778 
L 891.595525 220.589778 
L 892.959366 223.316 
L 894.324082 223.316 
L 895.689233 224.679111 
L 897.053456 227.405333 
L 898.419863 227.405333 
L 899.784343 220.589778 
L 902.515305 217.863556 
L 903.881419 217.863556 
L 905.250381 215.137333 
L 906.61865 215.137333 
L 907.985307 213.774222 
L 909.348998 211.048 
L 910.714909 213.774222 
L 912.079544 213.774222 
L 914.807403 216.500444 
L 916.170271 216.500444 
L 917.533551 205.595556 
L 918.897124 212.411111 
L 920.260882 213.774222 
L 921.624398 213.774222 
L 922.98774 205.595556 
L 924.353522 205.595556 
L 925.717376 206.958667 
L 927.080455 213.774222 
L 928.44442 197.416889 
L 929.8096 197.416889 
L 931.175646 191.964444 
L 932.539646 183.785778 
L 933.906544 183.785778 
L 935.270366 170.154667 
L 936.633717 178.333333 
L 938.000752 178.333333 
L 939.36425 181.059556 
L 940.729058 166.065333 
L 942.092597 166.065333 
L 943.459566 163.339111 
L 944.826219 156.523556 
L 946.191801 140.166222 
L 947.555897 140.166222 
L 948.919573 145.618667 
L 950.286751 145.618667 
L 951.651159 148.344889 
L 953.018457 146.981778 
L 954.384788 159.249778 
L 955.751696 159.249778 
L 957.115709 156.523556 
L 958.482622 159.249778 
L 959.846239 159.249778 
L 962.577845 170.154667 
L 963.942284 176.970222 
L 965.307306 176.970222 
L 966.671895 179.696444 
L 968.036978 179.696444 
L 969.400292 190.601333 
L 970.764246 197.416889 
L 972.130691 197.416889 
L 973.494974 206.958667 
L 974.862715 215.137333 
L 976.227134 217.863556 
L 977.593492 217.863556 
L 978.958573 221.952889 
L 980.322487 227.405333 
L 981.688537 227.405333 
L 983.052424 260.12 
L 1060.988937 260.12 
L 1062.353102 258.756889 
L 1063.71918 238.310222 
L 1065.084939 238.310222 
L 1066.452228 221.952889 
L 1067.815441 212.411111 
L 1069.181169 212.411111 
L 1070.544409 208.321778 
L 1071.910362 201.506222 
L 1073.2739 201.506222 
L 1074.639616 190.601333 
L 1076.005796 181.059556 
L 1077.369819 182.422667 
L 1078.733233 182.422667 
L 1080.096906 179.696444 
L 1081.459571 187.875111 
L 1082.823436 187.875111 
L 1084.186436 197.416889 
L 1085.550705 197.416889 
L 1086.913401 194.690667 
L 1088.276233 197.416889 
L 1089.639584 194.690667 
L 1091.003463 194.690667 
L 1092.366702 197.416889 
L 1093.729415 201.506222 
L 1095.092316 201.506222 
L 1096.456062 200.143111 
L 1097.822012 197.416889 
L 1099.185336 202.869333 
L 1100.548694 202.869333 
L 1101.911804 206.958667 
L 1103.274565 206.958667 
L 1104.637592 194.690667 
L 1106.000553 206.958667 
L 1107.365169 208.321778 
L 1108.728185 208.321778 
L 1110.090989 211.048 
L 1111.453879 211.048 
L 1112.816713 206.958667 
L 1114.182643 209.684889 
L 1115.545492 209.684889 
L 1116.911681 212.411111 
L 1118.275988 209.684889 
L 1119.639185 211.048 
L 1121.005029 211.048 
L 1122.368323 205.595556 
L 1123.735514 208.321778 
L 1125.09907 208.321778 
L 1126.462065 212.411111 
L 1127.825092 220.589778 
L 1129.188204 217.863556 
L 1130.550826 217.863556 
L 1131.917097 234.220889 
L 1133.28 234.220889 
L 1133.28 234.220889 
" style="fill:none;stroke:#1f77b4;stroke-linecap:square;stroke-width:1.5;"/>
   </g>
   <g id="patch_3">
    <path d="M 33.64 260.12 
L 33.64 14.76 
" style="fill:none;stroke:#000000;stroke-linecap:square;stroke-linejoin:miter;stroke-width:0.8;"/>
   </g>
   <g id="patch_4">
    <path d="M 1133.28 260.12 
L 1133.28 14.76 
" style="fill:none;stroke:#000000;stroke-linecap:square;stroke-linejoin:miter;stroke-width:0.8;"/>
   </g>
   <g id="patch_5">
    <path d="M 33.64 260.12 
L 1133.28 260.12 
" style="fill:none;stroke:#000000;stroke-linecap:square;stroke-linejoin:miter;stroke-width:0.8;"/>
   </g>
   <g id="patch_6">
    <path d="M 33.64 14.76 
L 1133.28 14.76 
" style="fill:none;stroke:#000000;stroke-linecap:square;stroke-linejoin:miter;stroke-width:0.8;"/>
   </g>
  </g>
 </g>
 <defs>
  <clipPath id="p693fc90aba">
   <rect height="245.36" width="1099.64" x="33.64" y="14.76"/>
  </clipPath>
 </defs>
</svg>
