<?xml version="1.0" encoding="utf-8" standalone="no"?>
<!DOCTYPE svg PUBLIC "-//W3C//DTD SVG 1.1//EN"
  "http://www.w3.org/Graphics/SVG/1.1/DTD/svg11.dtd">
<!-- Created with matplotlib (https://matplotlib.org/) -->
<svg height="288pt" version="1.1" viewBox="0 0 1152 288" width="1152pt" xmlns="http://www.w3.org/2000/svg" xmlns:xlink="http://www.w3.org/1999/xlink">
 <defs>
  <style type="text/css">
*{stroke-linecap:butt;stroke-linejoin:round;}
  </style>
 </defs>
 <g id="figure_1">
  <g id="patch_1">
   <path d="M 0 288 
L 1152 288 
L 1152 0 
L 0 0 
z
" style="fill:#ffffff;"/>
  </g>
  <g id="axes_1">
   <g id="patch_2">
    <path d="M 33.64 260.12 
L 1133.28 260.12 
L 1133.28 14.76 
L 33.64 14.76 
z
" style="fill:#ffffff;"/>
   </g>
   <g id="matplotlib.axis_1">
    <g id="xtick_1">
     <g id="line2d_1">
      <defs>
       <path d="M 0 0 
L 0 3.5 
" id="mc9d24688c4" style="stroke:#000000;stroke-width:0.8;"/>
      </defs>
      <g>
       <use style="stroke:#000000;stroke-width:0.8;" x="199.223881" xlink:href="#mc9d24688c4" y="260.12"/>
      </g>
     </g>
     <g id="text_1">
      <!-- Tue 00:00 -->
      <defs>
       <path d="M -0.296875 72.90625 
L 61.375 72.90625 
L 61.375 64.59375 
L 35.5 64.59375 
L 35.5 0 
L 25.59375 0 
L 25.59375 64.59375 
L -0.296875 64.59375 
z
" id="DejaVuSans-84"/>
       <path d="M 8.5 21.578125 
L 8.5 54.6875 
L 17.484375 54.6875 
L 17.484375 21.921875 
Q 17.484375 14.15625 20.5 10.265625 
Q 23.53125 6.390625 29.59375 6.390625 
Q 36.859375 6.390625 41.078125 11.03125 
Q 45.3125 15.671875 45.3125 23.6875 
L 45.3125 54.6875 
L 54.296875 54.6875 
L 54.296875 0 
L 45.3125 0 
L 45.3125 8.40625 
Q 42.046875 3.421875 37.71875 1 
Q 33.40625 -1.421875 27.6875 -1.421875 
Q 18.265625 -1.421875 13.375 4.4375 
Q 8.5 10.296875 8.5 21.578125 
z
M 31.109375 56 
z
" id="DejaVuSans-117"/>
       <path d="M 56.203125 29.59375 
L 56.203125 25.203125 
L 14.890625 25.203125 
Q 15.484375 15.921875 20.484375 11.0625 
Q 25.484375 6.203125 34.421875 6.203125 
Q 39.59375 6.203125 44.453125 7.46875 
Q 49.3125 8.734375 54.109375 11.28125 
L 54.109375 2.78125 
Q 49.265625 0.734375 44.1875 -0.34375 
Q 39.109375 -1.421875 33.890625 -1.421875 
Q 20.796875 -1.421875 13.15625 6.1875 
Q 5.515625 13.8125 5.515625 26.8125 
Q 5.515625 40.234375 12.765625 48.109375 
Q 20.015625 56 32.328125 56 
Q 43.359375 56 49.78125 48.890625 
Q 56.203125 41.796875 56.203125 29.59375 
z
M 47.21875 32.234375 
Q 47.125 39.59375 43.09375 43.984375 
Q 39.0625 48.390625 32.421875 48.390625 
Q 24.90625 48.390625 20.390625 44.140625 
Q 15.875 39.890625 15.1875 32.171875 
z
" id="DejaVuSans-101"/>
       <path id="DejaVuSans-32"/>
       <path d="M 31.78125 66.40625 
Q 24.171875 66.40625 20.328125 58.90625 
Q 16.5 51.421875 16.5 36.375 
Q 16.5 21.390625 20.328125 13.890625 
Q 24.171875 6.390625 31.78125 6.390625 
Q 39.453125 6.390625 43.28125 13.890625 
Q 47.125 21.390625 47.125 36.375 
Q 47.125 51.421875 43.28125 58.90625 
Q 39.453125 66.40625 31.78125 66.40625 
z
M 31.78125 74.21875 
Q 44.046875 74.21875 50.515625 64.515625 
Q 56.984375 54.828125 56.984375 36.375 
Q 56.984375 17.96875 50.515625 8.265625 
Q 44.046875 -1.421875 31.78125 -1.421875 
Q 19.53125 -1.421875 13.0625 8.265625 
Q 6.59375 17.96875 6.59375 36.375 
Q 6.59375 54.828125 13.0625 64.515625 
Q 19.53125 74.21875 31.78125 74.21875 
z
" id="DejaVuSans-48"/>
       <path d="M 11.71875 12.40625 
L 22.015625 12.40625 
L 22.015625 0 
L 11.71875 0 
z
M 11.71875 51.703125 
L 22.015625 51.703125 
L 22.015625 39.3125 
L 11.71875 39.3125 
z
" id="DejaVuSans-58"/>
      </defs>
      <g transform="translate(173.937944 274.718437)scale(0.1 -0.1)">
       <use xlink:href="#DejaVuSans-84"/>
       <use x="60.849609" xlink:href="#DejaVuSans-117"/>
       <use x="124.228516" xlink:href="#DejaVuSans-101"/>
       <use x="185.751953" xlink:href="#DejaVuSans-32"/>
       <use x="217.539062" xlink:href="#DejaVuSans-48"/>
       <use x="281.162109" xlink:href="#DejaVuSans-48"/>
       <use x="344.785156" xlink:href="#DejaVuSans-58"/>
       <use x="378.476562" xlink:href="#DejaVuSans-48"/>
       <use x="442.099609" xlink:href="#DejaVuSans-48"/>
      </g>
     </g>
    </g>
    <g id="xtick_2">
     <g id="line2d_2">
      <g>
       <use style="stroke:#000000;stroke-width:0.8;" x="364.975778" xlink:href="#mc9d24688c4" y="260.12"/>
      </g>
     </g>
     <g id="text_2">
      <!-- Wed 00:00 -->
      <defs>
       <path d="M 3.328125 72.90625 
L 13.28125 72.90625 
L 28.609375 11.28125 
L 43.890625 72.90625 
L 54.984375 72.90625 
L 70.3125 11.28125 
L 85.59375 72.90625 
L 95.609375 72.90625 
L 77.296875 0 
L 64.890625 0 
L 49.515625 63.28125 
L 33.984375 0 
L 21.578125 0 
z
" id="DejaVuSans-87"/>
       <path d="M 45.40625 46.390625 
L 45.40625 75.984375 
L 54.390625 75.984375 
L 54.390625 0 
L 45.40625 0 
L 45.40625 8.203125 
Q 42.578125 3.328125 38.25 0.953125 
Q 33.9375 -1.421875 27.875 -1.421875 
Q 17.96875 -1.421875 11.734375 6.484375 
Q 5.515625 14.40625 5.515625 27.296875 
Q 5.515625 40.1875 11.734375 48.09375 
Q 17.96875 56 27.875 56 
Q 33.9375 56 38.25 53.625 
Q 42.578125 51.265625 45.40625 46.390625 
z
M 14.796875 27.296875 
Q 14.796875 17.390625 18.875 11.75 
Q 22.953125 6.109375 30.078125 6.109375 
Q 37.203125 6.109375 41.296875 11.75 
Q 45.40625 17.390625 45.40625 27.296875 
Q 45.40625 37.203125 41.296875 42.84375 
Q 37.203125 48.484375 30.078125 48.484375 
Q 22.953125 48.484375 18.875 42.84375 
Q 14.796875 37.203125 14.796875 27.296875 
z
" id="DejaVuSans-100"/>
      </defs>
      <g transform="translate(337.786716 274.718437)scale(0.1 -0.1)">
       <use xlink:href="#DejaVuSans-87"/>
       <use x="98.798828" xlink:href="#DejaVuSans-101"/>
       <use x="160.322266" xlink:href="#DejaVuSans-100"/>
       <use x="223.798828" xlink:href="#DejaVuSans-32"/>
       <use x="255.585938" xlink:href="#DejaVuSans-48"/>
       <use x="319.208984" xlink:href="#DejaVuSans-48"/>
       <use x="382.832031" xlink:href="#DejaVuSans-58"/>
       <use x="416.523438" xlink:href="#DejaVuSans-48"/>
       <use x="480.146484" xlink:href="#DejaVuSans-48"/>
      </g>
     </g>
    </g>
    <g id="xtick_3">
     <g id="line2d_3">
      <g>
       <use style="stroke:#000000;stroke-width:0.8;" x="530.727675" xlink:href="#mc9d24688c4" y="260.12"/>
      </g>
     </g>
     <g id="text_3">
      <!-- Thu 00:00 -->
      <defs>
       <path d="M 54.890625 33.015625 
L 54.890625 0 
L 45.90625 0 
L 45.90625 32.71875 
Q 45.90625 40.484375 42.875 44.328125 
Q 39.84375 48.1875 33.796875 48.1875 
Q 26.515625 48.1875 22.3125 43.546875 
Q 18.109375 38.921875 18.109375 30.90625 
L 18.109375 0 
L 9.078125 0 
L 9.078125 75.984375 
L 18.109375 75.984375 
L 18.109375 46.1875 
Q 21.34375 51.125 25.703125 53.5625 
Q 30.078125 56 35.796875 56 
Q 45.21875 56 50.046875 50.171875 
Q 54.890625 44.34375 54.890625 33.015625 
z
" id="DejaVuSans-104"/>
      </defs>
      <g transform="translate(505.337831 274.718437)scale(0.1 -0.1)">
       <use xlink:href="#DejaVuSans-84"/>
       <use x="61.083984" xlink:href="#DejaVuSans-104"/>
       <use x="124.462891" xlink:href="#DejaVuSans-117"/>
       <use x="187.841797" xlink:href="#DejaVuSans-32"/>
       <use x="219.628906" xlink:href="#DejaVuSans-48"/>
       <use x="283.251953" xlink:href="#DejaVuSans-48"/>
       <use x="346.875" xlink:href="#DejaVuSans-58"/>
       <use x="380.566406" xlink:href="#DejaVuSans-48"/>
       <use x="444.189453" xlink:href="#DejaVuSans-48"/>
      </g>
     </g>
    </g>
    <g id="xtick_4">
     <g id="line2d_4">
      <g>
       <use style="stroke:#000000;stroke-width:0.8;" x="696.479572" xlink:href="#mc9d24688c4" y="260.12"/>
      </g>
     </g>
     <g id="text_4">
      <!-- Fri 00:00 -->
      <defs>
       <path d="M 9.8125 72.90625 
L 51.703125 72.90625 
L 51.703125 64.59375 
L 19.671875 64.59375 
L 19.671875 43.109375 
L 48.578125 43.109375 
L 48.578125 34.8125 
L 19.671875 34.8125 
L 19.671875 0 
L 9.8125 0 
z
" id="DejaVuSans-70"/>
       <path d="M 41.109375 46.296875 
Q 39.59375 47.171875 37.8125 47.578125 
Q 36.03125 48 33.890625 48 
Q 26.265625 48 22.1875 43.046875 
Q 18.109375 38.09375 18.109375 28.8125 
L 18.109375 0 
L 9.078125 0 
L 9.078125 54.6875 
L 18.109375 54.6875 
L 18.109375 46.1875 
Q 20.953125 51.171875 25.484375 53.578125 
Q 30.03125 56 36.53125 56 
Q 37.453125 56 38.578125 55.875 
Q 39.703125 55.765625 41.0625 55.515625 
z
" id="DejaVuSans-114"/>
       <path d="M 9.421875 54.6875 
L 18.40625 54.6875 
L 18.40625 0 
L 9.421875 0 
z
M 9.421875 75.984375 
L 18.40625 75.984375 
L 18.40625 64.59375 
L 9.421875 64.59375 
z
" id="DejaVuSans-105"/>
      </defs>
      <g transform="translate(674.166291 274.718437)scale(0.1 -0.1)">
       <use xlink:href="#DejaVuSans-70"/>
       <use x="57.410156" xlink:href="#DejaVuSans-114"/>
       <use x="98.523438" xlink:href="#DejaVuSans-105"/>
       <use x="126.306641" xlink:href="#DejaVuSans-32"/>
       <use x="158.09375" xlink:href="#DejaVuSans-48"/>
       <use x="221.716797" xlink:href="#DejaVuSans-48"/>
       <use x="285.339844" xlink:href="#DejaVuSans-58"/>
       <use x="319.03125" xlink:href="#DejaVuSans-48"/>
       <use x="382.654297" xlink:href="#DejaVuSans-48"/>
      </g>
     </g>
    </g>
    <g id="xtick_5">
     <g id="line2d_5">
      <g>
       <use style="stroke:#000000;stroke-width:0.8;" x="862.231469" xlink:href="#mc9d24688c4" y="260.12"/>
      </g>
     </g>
     <g id="text_5">
      <!-- Sat 00:00 -->
      <defs>
       <path d="M 53.515625 70.515625 
L 53.515625 60.890625 
Q 47.90625 63.578125 42.921875 64.890625 
Q 37.9375 66.21875 33.296875 66.21875 
Q 25.25 66.21875 20.875 63.09375 
Q 16.5 59.96875 16.5 54.203125 
Q 16.5 49.359375 19.40625 46.890625 
Q 22.3125 44.4375 30.421875 42.921875 
L 36.375 41.703125 
Q 47.40625 39.59375 52.65625 34.296875 
Q 57.90625 29 57.90625 20.125 
Q 57.90625 9.515625 50.796875 4.046875 
Q 43.703125 -1.421875 29.984375 -1.421875 
Q 24.8125 -1.421875 18.96875 -0.25 
Q 13.140625 0.921875 6.890625 3.21875 
L 6.890625 13.375 
Q 12.890625 10.015625 18.65625 8.296875 
Q 24.421875 6.59375 29.984375 6.59375 
Q 38.421875 6.59375 43.015625 9.90625 
Q 47.609375 13.234375 47.609375 19.390625 
Q 47.609375 24.75 44.3125 27.78125 
Q 41.015625 30.8125 33.5 32.328125 
L 27.484375 33.5 
Q 16.453125 35.6875 11.515625 40.375 
Q 6.59375 45.0625 6.59375 53.421875 
Q 6.59375 63.09375 13.40625 68.65625 
Q 20.21875 74.21875 32.171875 74.21875 
Q 37.3125 74.21875 42.625 73.28125 
Q 47.953125 72.359375 53.515625 70.515625 
z
" id="DejaVuSans-83"/>
       <path d="M 34.28125 27.484375 
Q 23.390625 27.484375 19.1875 25 
Q 14.984375 22.515625 14.984375 16.5 
Q 14.984375 11.71875 18.140625 8.90625 
Q 21.296875 6.109375 26.703125 6.109375 
Q 34.1875 6.109375 38.703125 11.40625 
Q 43.21875 16.703125 43.21875 25.484375 
L 43.21875 27.484375 
z
M 52.203125 31.203125 
L 52.203125 0 
L 43.21875 0 
L 43.21875 8.296875 
Q 40.140625 3.328125 35.546875 0.953125 
Q 30.953125 -1.421875 24.3125 -1.421875 
Q 15.921875 -1.421875 10.953125 3.296875 
Q 6 8.015625 6 15.921875 
Q 6 25.140625 12.171875 29.828125 
Q 18.359375 34.515625 30.609375 34.515625 
L 43.21875 34.515625 
L 43.21875 35.40625 
Q 43.21875 41.609375 39.140625 45 
Q 35.0625 48.390625 27.6875 48.390625 
Q 23 48.390625 18.546875 47.265625 
Q 14.109375 46.140625 10.015625 43.890625 
L 10.015625 52.203125 
Q 14.9375 54.109375 19.578125 55.046875 
Q 24.21875 56 28.609375 56 
Q 40.484375 56 46.34375 49.84375 
Q 52.203125 43.703125 52.203125 31.203125 
z
" id="DejaVuSans-97"/>
       <path d="M 18.3125 70.21875 
L 18.3125 54.6875 
L 36.8125 54.6875 
L 36.8125 47.703125 
L 18.3125 47.703125 
L 18.3125 18.015625 
Q 18.3125 11.328125 20.140625 9.421875 
Q 21.96875 7.515625 27.59375 7.515625 
L 36.8125 7.515625 
L 36.8125 0 
L 27.59375 0 
Q 17.1875 0 13.234375 3.875 
Q 9.28125 7.765625 9.28125 18.015625 
L 9.28125 47.703125 
L 2.6875 47.703125 
L 2.6875 54.6875 
L 9.28125 54.6875 
L 9.28125 70.21875 
z
" id="DejaVuSans-116"/>
      </defs>
      <g transform="translate(838.034594 274.718437)scale(0.1 -0.1)">
       <use xlink:href="#DejaVuSans-83"/>
       <use x="63.476562" xlink:href="#DejaVuSans-97"/>
       <use x="124.755859" xlink:href="#DejaVuSans-116"/>
       <use x="163.964844" xlink:href="#DejaVuSans-32"/>
       <use x="195.751953" xlink:href="#DejaVuSans-48"/>
       <use x="259.375" xlink:href="#DejaVuSans-48"/>
       <use x="322.998047" xlink:href="#DejaVuSans-58"/>
       <use x="356.689453" xlink:href="#DejaVuSans-48"/>
       <use x="420.3125" xlink:href="#DejaVuSans-48"/>
      </g>
     </g>
    </g>
    <g id="xtick_6">
     <g id="line2d_6">
      <g>
       <use style="stroke:#000000;stroke-width:0.8;" x="1027.983365" xlink:href="#mc9d24688c4" y="260.12"/>
      </g>
     </g>
     <g id="text_6">
      <!-- Sun 00:00 -->
      <defs>
       <path d="M 54.890625 33.015625 
L 54.890625 0 
L 45.90625 0 
L 45.90625 32.71875 
Q 45.90625 40.484375 42.875 44.328125 
Q 39.84375 48.1875 33.796875 48.1875 
Q 26.515625 48.1875 22.3125 43.546875 
Q 18.109375 38.921875 18.109375 30.90625 
L 18.109375 0 
L 9.078125 0 
L 9.078125 54.6875 
L 18.109375 54.6875 
L 18.109375 46.1875 
Q 21.34375 51.125 25.703125 53.5625 
Q 30.078125 56 35.796875 56 
Q 45.21875 56 50.046875 50.171875 
Q 54.890625 44.34375 54.890625 33.015625 
z
" id="DejaVuSans-110"/>
      </defs>
      <g transform="translate(1002.473209 274.718437)scale(0.1 -0.1)">
       <use xlink:href="#DejaVuSans-83"/>
       <use x="63.476562" xlink:href="#DejaVuSans-117"/>
       <use x="126.855469" xlink:href="#DejaVuSans-110"/>
       <use x="190.234375" xlink:href="#DejaVuSans-32"/>
       <use x="222.021484" xlink:href="#DejaVuSans-48"/>
       <use x="285.644531" xlink:href="#DejaVuSans-48"/>
       <use x="349.267578" xlink:href="#DejaVuSans-58"/>
       <use x="382.958984" xlink:href="#DejaVuSans-48"/>
       <use x="446.582031" xlink:href="#DejaVuSans-48"/>
      </g>
     </g>
    </g>
   </g>
   <g id="matplotlib.axis_2">
    <g id="ytick_1">
     <g id="line2d_7">
      <defs>
       <path d="M 0 0 
L -3.5 0 
" id="m4e04bd8cd7" style="stroke:#000000;stroke-width:0.8;"/>
      </defs>
      <g>
       <use style="stroke:#000000;stroke-width:0.8;" x="33.64" xlink:href="#m4e04bd8cd7" y="260.12"/>
      </g>
     </g>
     <g id="text_7">
      <!-- 0 -->
      <g transform="translate(20.2775 263.919219)scale(0.1 -0.1)">
       <use xlink:href="#DejaVuSans-48"/>
      </g>
     </g>
    </g>
    <g id="ytick_2">
     <g id="line2d_8">
      <g>
       <use style="stroke:#000000;stroke-width:0.8;" x="33.64" xlink:href="#m4e04bd8cd7" y="230.910476"/>
      </g>
     </g>
     <g id="text_8">
      <!-- 25 -->
      <defs>
       <path d="M 19.1875 8.296875 
L 53.609375 8.296875 
L 53.609375 0 
L 7.328125 0 
L 7.328125 8.296875 
Q 12.9375 14.109375 22.625 23.890625 
Q 32.328125 33.6875 34.8125 36.53125 
Q 39.546875 41.84375 41.421875 45.53125 
Q 43.3125 49.21875 43.3125 52.78125 
Q 43.3125 58.59375 39.234375 62.25 
Q 35.15625 65.921875 28.609375 65.921875 
Q 23.96875 65.921875 18.8125 64.3125 
Q 13.671875 62.703125 7.8125 59.421875 
L 7.8125 69.390625 
Q 13.765625 71.78125 18.9375 73 
Q 24.125 74.21875 28.421875 74.21875 
Q 39.75 74.21875 46.484375 68.546875 
Q 53.21875 62.890625 53.21875 53.421875 
Q 53.21875 48.921875 51.53125 44.890625 
Q 49.859375 40.875 45.40625 35.40625 
Q 44.1875 33.984375 37.640625 27.21875 
Q 31.109375 20.453125 19.1875 8.296875 
z
" id="DejaVuSans-50"/>
       <path d="M 10.796875 72.90625 
L 49.515625 72.90625 
L 49.515625 64.59375 
L 19.828125 64.59375 
L 19.828125 46.734375 
Q 21.96875 47.46875 24.109375 47.828125 
Q 26.265625 48.1875 28.421875 48.1875 
Q 40.625 48.1875 47.75 41.5 
Q 54.890625 34.8125 54.890625 23.390625 
Q 54.890625 11.625 47.5625 5.09375 
Q 40.234375 -1.421875 26.90625 -1.421875 
Q 22.3125 -1.421875 17.546875 -0.640625 
Q 12.796875 0.140625 7.71875 1.703125 
L 7.71875 11.625 
Q 12.109375 9.234375 16.796875 8.0625 
Q 21.484375 6.890625 26.703125 6.890625 
Q 35.15625 6.890625 40.078125 11.328125 
Q 45.015625 15.765625 45.015625 23.390625 
Q 45.015625 31 40.078125 35.4375 
Q 35.15625 39.890625 26.703125 39.890625 
Q 22.75 39.890625 18.8125 39.015625 
Q 14.890625 38.140625 10.796875 36.28125 
z
" id="DejaVuSans-53"/>
      </defs>
      <g transform="translate(13.915 234.709695)scale(0.1 -0.1)">
       <use xlink:href="#DejaVuSans-50"/>
       <use x="63.623047" xlink:href="#DejaVuSans-53"/>
      </g>
     </g>
    </g>
    <g id="ytick_3">
     <g id="line2d_9">
      <g>
       <use style="stroke:#000000;stroke-width:0.8;" x="33.64" xlink:href="#m4e04bd8cd7" y="201.700952"/>
      </g>
     </g>
     <g id="text_9">
      <!-- 50 -->
      <g transform="translate(13.915 205.500171)scale(0.1 -0.1)">
       <use xlink:href="#DejaVuSans-53"/>
       <use x="63.623047" xlink:href="#DejaVuSans-48"/>
      </g>
     </g>
    </g>
    <g id="ytick_4">
     <g id="line2d_10">
      <g>
       <use style="stroke:#000000;stroke-width:0.8;" x="33.64" xlink:href="#m4e04bd8cd7" y="172.491429"/>
      </g>
     </g>
     <g id="text_10">
      <!-- 75 -->
      <defs>
       <path d="M 8.203125 72.90625 
L 55.078125 72.90625 
L 55.078125 68.703125 
L 28.609375 0 
L 18.3125 0 
L 43.21875 64.59375 
L 8.203125 64.59375 
z
" id="DejaVuSans-55"/>
      </defs>
      <g transform="translate(13.915 176.290647)scale(0.1 -0.1)">
       <use xlink:href="#DejaVuSans-55"/>
       <use x="63.623047" xlink:href="#DejaVuSans-53"/>
      </g>
     </g>
    </g>
    <g id="ytick_5">
     <g id="line2d_11">
      <g>
       <use style="stroke:#000000;stroke-width:0.8;" x="33.64" xlink:href="#m4e04bd8cd7" y="143.281905"/>
      </g>
     </g>
     <g id="text_11">
      <!-- 100 -->
      <defs>
       <path d="M 12.40625 8.296875 
L 28.515625 8.296875 
L 28.515625 63.921875 
L 10.984375 60.40625 
L 10.984375 69.390625 
L 28.421875 72.90625 
L 38.28125 72.90625 
L 38.28125 8.296875 
L 54.390625 8.296875 
L 54.390625 0 
L 12.40625 0 
z
" id="DejaVuSans-49"/>
      </defs>
      <g transform="translate(7.5525 147.081124)scale(0.1 -0.1)">
       <use xlink:href="#DejaVuSans-49"/>
       <use x="63.623047" xlink:href="#DejaVuSans-48"/>
       <use x="127.246094" xlink:href="#DejaVuSans-48"/>
      </g>
     </g>
    </g>
    <g id="ytick_6">
     <g id="line2d_12">
      <g>
       <use style="stroke:#000000;stroke-width:0.8;" x="33.64" xlink:href="#m4e04bd8cd7" y="114.072381"/>
      </g>
     </g>
     <g id="text_12">
      <!-- 125 -->
      <g transform="translate(7.5525 117.8716)scale(0.1 -0.1)">
       <use xlink:href="#DejaVuSans-49"/>
       <use x="63.623047" xlink:href="#DejaVuSans-50"/>
       <use x="127.246094" xlink:href="#DejaVuSans-53"/>
      </g>
     </g>
    </g>
    <g id="ytick_7">
     <g id="line2d_13">
      <g>
       <use style="stroke:#000000;stroke-width:0.8;" x="33.64" xlink:href="#m4e04bd8cd7" y="84.862857"/>
      </g>
     </g>
     <g id="text_13">
      <!-- 150 -->
      <g transform="translate(7.5525 88.662076)scale(0.1 -0.1)">
       <use xlink:href="#DejaVuSans-49"/>
       <use x="63.623047" xlink:href="#DejaVuSans-53"/>
       <use x="127.246094" xlink:href="#DejaVuSans-48"/>
      </g>
     </g>
    </g>
    <g id="ytick_8">
     <g id="line2d_14">
      <g>
       <use style="stroke:#000000;stroke-width:0.8;" x="33.64" xlink:href="#m4e04bd8cd7" y="55.653333"/>
      </g>
     </g>
     <g id="text_14">
      <!-- 175 -->
      <g transform="translate(7.5525 59.452552)scale(0.1 -0.1)">
       <use xlink:href="#DejaVuSans-49"/>
       <use x="63.623047" xlink:href="#DejaVuSans-55"/>
       <use x="127.246094" xlink:href="#DejaVuSans-53"/>
      </g>
     </g>
    </g>
    <g id="ytick_9">
     <g id="line2d_15">
      <g>
       <use style="stroke:#000000;stroke-width:0.8;" x="33.64" xlink:href="#m4e04bd8cd7" y="26.44381"/>
      </g>
     </g>
     <g id="text_15">
      <!-- 200 -->
      <g transform="translate(7.5525 30.243028)scale(0.1 -0.1)">
       <use xlink:href="#DejaVuSans-50"/>
       <use x="63.623047" xlink:href="#DejaVuSans-48"/>
       <use x="127.246094" xlink:href="#DejaVuSans-48"/>
      </g>
     </g>
    </g>
   </g>
   <g id="line2d_16">
    <path clip-path="url(#pd84ac53723)" d="M 33.64 260.12 
L 96.533156 260.12 
L 97.718122 257.783238 
L 98.903846 257.783238 
L 100.089645 254.278095 
L 101.275286 254.278095 
L 103.644123 249.604571 
L 104.829258 248.43619 
L 106.013211 248.43619 
L 107.197523 247.26781 
L 109.566714 247.26781 
L 110.751658 242.594286 
L 111.936133 236.752381 
L 113.120107 236.752381 
L 114.304856 229.742095 
L 115.491223 226.236952 
L 116.675587 226.236952 
L 117.860167 222.73181 
L 121.412618 222.73181 
L 122.596658 219.226667 
L 123.780213 218.058286 
L 126.149643 218.058286 
L 127.333849 223.90019 
L 128.518179 223.90019 
L 129.704122 229.742095 
L 130.888012 227.405333 
L 132.072897 227.405333 
L 133.25694 232.078857 
L 134.440925 233.247238 
L 135.625847 236.752381 
L 136.810382 236.752381 
L 137.996418 234.415619 
L 139.179554 234.415619 
L 140.363836 230.910476 
L 142.73126 216.889905 
L 143.914796 216.889905 
L 145.09882 212.216381 
L 146.283581 208.711238 
L 147.469249 208.711238 
L 148.653031 197.027429 
L 149.842054 192.353905 
L 151.030466 186.512 
L 152.214116 186.512 
L 153.398837 187.680381 
L 154.582681 187.680381 
L 155.767317 181.838476 
L 156.9516 164.312762 
L 158.135099 164.312762 
L 159.319375 150.29219 
L 160.504213 139.776762 
L 161.68919 116.409143 
L 162.873053 116.409143 
L 164.056701 89.536381 
L 165.242673 89.536381 
L 166.426356 67.337143 
L 167.610056 53.316571 
L 168.793368 47.474667 
L 169.976974 47.474667 
L 171.160901 54.484952 
L 172.344418 59.158476 
L 173.528973 59.158476 
L 174.713758 76.68419 
L 175.896956 74.347429 
L 177.082984 74.347429 
L 178.26796 79.020952 
L 179.451345 81.357714 
L 180.636814 93.041524 
L 181.820243 93.041524 
L 183.003932 100.05181 
L 184.187487 109.398857 
L 185.370478 109.398857 
L 186.554664 122.251048 
L 187.738198 128.092952 
L 188.9239 128.092952 
L 190.106903 129.261333 
L 191.290715 132.766476 
L 192.474432 139.776762 
L 193.657209 139.776762 
L 194.839751 260.12 
L 261.305001 260.12 
L 262.469762 258.951619 
L 263.656929 243.762667 
L 264.843536 243.762667 
L 266.029872 240.257524 
L 267.214113 235.584 
L 269.586461 235.584 
L 270.77062 232.078857 
L 271.954592 232.078857 
L 273.13919 227.405333 
L 274.323809 223.90019 
L 275.507007 223.90019 
L 276.692636 222.73181 
L 279.059994 222.73181 
L 280.244089 225.068571 
L 281.430596 218.058286 
L 282.616817 219.226667 
L 283.800097 219.226667 
L 284.984584 216.889905 
L 286.169206 218.058286 
L 287.353988 218.058286 
L 288.537626 221.563429 
L 289.720968 219.226667 
L 290.905468 219.226667 
L 292.090825 214.553143 
L 293.274339 218.058286 
L 294.457512 218.058286 
L 295.640778 213.384762 
L 296.826815 212.216381 
L 298.012667 208.711238 
L 299.197563 208.711238 
L 301.564765 201.700952 
L 302.750442 201.700952 
L 303.936143 204.037714 
L 306.311782 204.037714 
L 307.49491 200.532571 
L 309.864618 200.532571 
L 311.050466 197.027429 
L 312.23469 187.680381 
L 313.418524 187.680381 
L 314.601849 184.175238 
L 315.786063 178.333333 
L 316.970174 178.333333 
L 318.156199 171.323048 
L 319.340506 156.134095 
L 320.525093 128.092952 
L 321.712466 128.092952 
L 322.901258 116.409143 
L 325.268954 116.409143 
L 326.456538 98.883429 
L 327.640861 98.883429 
L 328.824526 79.020952 
L 330.008043 67.337143 
L 331.191746 49.811429 
L 332.375514 49.811429 
L 333.560789 38.127619 
L 337.111768 38.127619 
L 338.298127 26.44381 
L 339.48433 26.44381 
L 340.667706 48.643048 
L 341.851972 60.326857 
L 343.035833 74.347429 
L 344.222225 74.347429 
L 346.589305 110.567238 
L 347.776015 110.567238 
L 348.95957 125.75619 
L 350.143487 137.44 
L 351.326891 151.460571 
L 352.513786 151.460571 
L 353.69766 161.976 
L 354.882246 161.976 
L 356.069339 166.649524 
L 357.25267 174.82819 
L 358.437205 175.996571 
L 360.805795 175.996571 
L 361.988847 260.12 
L 427.269138 260.12 
L 428.452639 255.446476 
L 430.821116 241.425905 
L 432.006944 241.425905 
L 433.191074 240.257524 
L 435.562804 240.257524 
L 436.746629 239.089143 
L 437.930547 239.089143 
L 439.116343 232.078857 
L 440.301743 232.078857 
L 441.485981 228.573714 
L 442.671707 228.573714 
L 443.856399 226.236952 
L 445.041775 225.068571 
L 449.781133 225.068571 
L 450.970439 226.236952 
L 453.337709 226.236952 
L 454.521474 223.90019 
L 455.706831 216.889905 
L 456.890467 219.226667 
L 458.076657 219.226667 
L 459.262545 221.563429 
L 460.446169 221.563429 
L 462.814229 214.553143 
L 464.000335 212.216381 
L 465.186182 212.216381 
L 466.369708 208.711238 
L 467.555192 206.374476 
L 468.741152 206.374476 
L 469.925232 209.879619 
L 471.110635 207.542857 
L 472.295989 206.374476 
L 473.482311 206.374476 
L 474.668989 205.206095 
L 475.853181 205.206095 
L 477.037576 198.19581 
L 478.222862 190.017143 
L 479.409959 190.017143 
L 480.596116 184.175238 
L 481.781639 171.323048 
L 482.965181 170.154667 
L 484.152896 170.154667 
L 485.339082 159.639238 
L 486.525268 159.639238 
L 487.710061 156.134095 
L 488.895856 153.797333 
L 490.082204 129.261333 
L 491.276716 129.261333 
L 492.461169 123.419429 
L 493.645377 115.240762 
L 494.830777 115.240762 
L 496.015373 98.883429 
L 497.199387 96.546667 
L 498.38394 96.546667 
L 499.568894 108.230476 
L 500.757066 101.22019 
L 501.940221 101.22019 
L 503.123612 96.546667 
L 504.309995 89.536381 
L 505.499067 95.378286 
L 506.685672 95.378286 
L 507.87135 94.209905 
L 509.05796 119.914286 
L 510.243618 119.914286 
L 511.426924 125.75619 
L 512.612728 144.450286 
L 513.798633 146.787048 
L 514.984233 146.787048 
L 516.169962 156.134095 
L 517.353099 156.134095 
L 518.539148 165.481143 
L 519.725481 171.323048 
L 520.90899 173.65981 
L 522.095482 173.65981 
L 523.281455 180.670095 
L 524.464432 181.838476 
L 526.836592 181.838476 
L 528.022711 260.12 
L 594.495816 260.12 
L 595.679141 256.614857 
L 596.86219 248.43619 
L 598.045758 248.43619 
L 599.231682 244.931048 
L 600.415683 242.594286 
L 601.599707 242.594286 
L 603.969985 235.584 
L 605.155079 230.910476 
L 606.341455 230.910476 
L 607.525149 229.742095 
L 608.709489 229.742095 
L 609.893104 226.236952 
L 611.079495 223.90019 
L 612.263941 223.90019 
L 614.633076 221.563429 
L 615.817355 225.068571 
L 617.002745 225.068571 
L 618.186879 222.73181 
L 619.371781 219.226667 
L 620.55636 219.226667 
L 621.741013 211.048 
L 622.925463 211.048 
L 624.109619 212.216381 
L 627.664434 212.216381 
L 628.849988 205.206095 
L 631.218781 205.206095 
L 632.404155 197.027429 
L 633.589523 194.690667 
L 634.775264 199.36419 
L 635.960869 199.36419 
L 637.151853 195.859048 
L 638.336203 195.859048 
L 639.520045 191.185524 
L 640.704802 184.175238 
L 641.88922 175.996571 
L 643.074728 175.996571 
L 644.259426 167.817905 
L 645.445654 161.976 
L 646.631174 161.976 
L 647.817445 157.302476 
L 649.003609 143.281905 
L 650.19097 143.281905 
L 651.377146 138.608381 
L 652.562751 128.092952 
L 653.748488 114.072381 
L 654.933081 114.072381 
L 656.117073 98.883429 
L 657.300838 104.725333 
L 658.485097 104.725333 
L 659.670093 86.031238 
L 660.854116 86.031238 
L 662.043458 70.842286 
L 663.228188 59.158476 
L 664.413186 46.306286 
L 665.599579 46.306286 
L 666.786218 28.780571 
L 667.971857 32.285714 
L 669.155914 32.285714 
L 670.340939 38.127619 
L 671.524029 31.117333 
L 672.707667 31.117333 
L 673.89116 41.632762 
L 675.075703 54.484952 
L 676.259712 62.663619 
L 677.443602 62.663619 
L 678.626786 76.68419 
L 679.815248 96.546667 
L 680.998572 96.546667 
L 682.184188 105.893714 
L 683.369788 121.082667 
L 684.553474 121.082667 
L 685.737373 126.924571 
L 686.922875 144.450286 
L 688.108451 144.450286 
L 689.291857 152.628952 
L 690.475717 158.470857 
L 692.845593 158.470857 
L 694.029245 260.12 
L 758.151484 260.12 
L 759.31618 256.614857 
L 760.500396 256.614857 
L 761.684455 254.278095 
L 762.867962 249.604571 
L 764.051807 247.26781 
L 765.238 247.26781 
L 766.4229 242.594286 
L 767.607239 233.247238 
L 768.792202 233.247238 
L 769.975862 227.405333 
L 771.159021 227.405333 
L 772.34244 223.90019 
L 773.528749 223.90019 
L 774.712185 216.889905 
L 775.896067 216.889905 
L 777.080096 213.384762 
L 778.263584 215.721524 
L 779.447598 215.721524 
L 780.631587 216.889905 
L 781.815601 220.395048 
L 784.18867 220.395048 
L 785.372219 221.563429 
L 786.555981 221.563429 
L 787.739819 219.226667 
L 788.92388 225.068571 
L 791.290399 225.068571 
L 792.473646 220.395048 
L 793.658333 222.73181 
L 794.843893 222.73181 
L 796.028537 220.395048 
L 797.214426 220.395048 
L 798.398765 218.058286 
L 799.582282 206.374476 
L 800.765953 202.869333 
L 801.95092 202.869333 
L 803.133971 194.690667 
L 804.31815 187.680381 
L 805.5014 187.680381 
L 806.687677 181.838476 
L 807.875967 171.323048 
L 809.061099 164.312762 
L 810.248335 164.312762 
L 811.431626 158.470857 
L 812.615187 158.470857 
L 813.802422 153.797333 
L 814.986706 147.955429 
L 816.171596 145.618667 
L 817.358493 145.618667 
L 818.543185 137.44 
L 819.727445 150.29219 
L 820.911209 150.29219 
L 822.100708 161.976 
L 823.284587 160.807619 
L 824.467887 160.807619 
L 825.651598 150.29219 
L 826.835534 144.450286 
L 828.021061 144.450286 
L 829.205448 135.103238 
L 830.389436 126.924571 
L 831.575213 126.924571 
L 832.75913 125.75619 
L 833.943616 128.092952 
L 835.131155 125.75619 
L 836.326023 125.75619 
L 837.513638 130.429714 
L 838.701941 131.598095 
L 839.890836 131.598095 
L 841.088349 143.281905 
L 843.466281 143.281905 
L 844.655203 151.460571 
L 845.83989 158.470857 
L 847.029526 160.807619 
L 848.214666 160.807619 
L 849.40118 166.649524 
L 850.58565 166.649524 
L 851.771818 179.501714 
L 852.956419 185.343619 
L 854.140773 187.680381 
L 855.324185 187.680381 
L 856.509712 193.522286 
L 858.878367 193.522286 
L 860.072936 260.12 
L 924.183806 260.12 
L 925.348096 253.109714 
L 926.5322 251.941333 
L 927.71728 251.941333 
L 928.902472 241.425905 
L 930.08542 235.584 
L 931.268522 235.584 
L 932.451983 233.247238 
L 933.63488 233.247238 
L 934.817811 220.395048 
L 936.002697 209.879619 
L 937.185696 207.542857 
L 938.369044 207.542857 
L 940.735379 193.522286 
L 941.918052 193.522286 
L 944.286945 186.512 
L 945.470013 187.680381 
L 946.973909 187.680381 
L 948.157993 195.859048 
L 949.3443 199.36419 
L 950.527362 199.36419 
L 951.712776 200.532571 
L 952.900366 200.532571 
L 954.083856 187.680381 
L 955.266969 187.680381 
L 956.450112 180.670095 
L 957.633834 180.670095 
L 958.817949 175.996571 
L 960.000745 177.164952 
L 961.185024 177.164952 
L 962.370419 187.680381 
L 963.55352 186.512 
L 964.736931 180.670095 
L 965.92012 180.670095 
L 967.10363 181.838476 
L 968.286541 173.65981 
L 969.469694 173.65981 
L 970.653712 185.343619 
L 971.838482 198.19581 
L 973.021547 198.19581 
L 975.390601 205.206095 
L 976.575387 205.206095 
L 977.760526 204.037714 
L 978.94569 205.206095 
L 980.131382 201.700952 
L 981.31735 201.700952 
L 982.502863 202.869333 
L 983.688428 211.048 
L 984.873806 211.048 
L 986.058043 214.553143 
L 987.242343 215.721524 
L 988.42797 215.721524 
L 990.799354 208.711238 
L 991.985409 208.711238 
L 993.171014 204.037714 
L 994.35686 205.206095 
L 995.542515 205.206095 
L 996.729089 227.405333 
L 997.914655 216.889905 
L 999.099429 214.553143 
L 1000.283138 214.553143 
L 1001.46735 216.889905 
L 1005.021334 216.889905 
L 1006.20558 215.721524 
L 1007.392471 215.721524 
L 1008.575738 218.058286 
L 1012.130585 218.058286 
L 1013.316078 222.73181 
L 1014.500628 222.73181 
L 1016.871975 234.415619 
L 1018.057585 234.415619 
L 1019.243671 235.584 
L 1022.797291 235.584 
L 1023.982941 239.089143 
L 1027.539505 239.089143 
L 1028.724788 260.12 
L 1091.828118 260.12 
L 1093.011783 246.099429 
L 1094.194733 236.752381 
L 1095.379012 236.752381 
L 1097.748082 220.395048 
L 1098.932314 220.395048 
L 1100.116273 211.048 
L 1101.300463 205.206095 
L 1102.485575 194.690667 
L 1103.669993 194.690667 
L 1104.854224 173.65981 
L 1106.040454 173.65981 
L 1107.224373 183.006857 
L 1108.408022 172.491429 
L 1109.591952 172.491429 
L 1110.776552 170.154667 
L 1111.960621 172.491429 
L 1113.145773 164.312762 
L 1114.331929 164.312762 
L 1115.515303 159.639238 
L 1116.700618 165.481143 
L 1117.884089 165.481143 
L 1119.067878 177.164952 
L 1120.25105 172.491429 
L 1121.438396 172.491429 
L 1122.623763 170.154667 
L 1124.991066 170.154667 
L 1126.173908 167.817905 
L 1127.357117 178.333333 
L 1128.544395 170.154667 
L 1129.727294 170.154667 
L 1130.910628 167.817905 
L 1132.09607 157.302476 
L 1133.28 157.302476 
L 1133.28 157.302476 
" style="fill:none;stroke:#1f77b4;stroke-linecap:square;stroke-width:1.5;"/>
   </g>
   <g id="patch_3">
    <path d="M 33.64 260.12 
L 33.64 14.76 
" style="fill:none;stroke:#000000;stroke-linecap:square;stroke-linejoin:miter;stroke-width:0.8;"/>
   </g>
   <g id="patch_4">
    <path d="M 1133.28 260.12 
L 1133.28 14.76 
" style="fill:none;stroke:#000000;stroke-linecap:square;stroke-linejoin:miter;stroke-width:0.8;"/>
   </g>
   <g id="patch_5">
    <path d="M 33.64 260.12 
L 1133.28 260.12 
" style="fill:none;stroke:#000000;stroke-linecap:square;stroke-linejoin:miter;stroke-width:0.8;"/>
   </g>
   <g id="patch_6">
    <path d="M 33.64 14.76 
L 1133.28 14.76 
" style="fill:none;stroke:#000000;stroke-linecap:square;stroke-linejoin:miter;stroke-width:0.8;"/>
   </g>
  </g>
 </g>
 <defs>
  <clipPath id="pd84ac53723">
   <rect height="245.36" width="1099.64" x="33.64" y="14.76"/>
  </clipPath>
 </defs>
</svg>
