<?xml version="1.0" encoding="utf-8" standalone="no"?>
<!DOCTYPE svg PUBLIC "-//W3C//DTD SVG 1.1//EN"
  "http://www.w3.org/Graphics/SVG/1.1/DTD/svg11.dtd">
<!-- Created with matplotlib (https://matplotlib.org/) -->
<svg height="288pt" version="1.1" viewBox="0 0 1152 288" width="1152pt" xmlns="http://www.w3.org/2000/svg" xmlns:xlink="http://www.w3.org/1999/xlink">
 <defs>
  <style type="text/css">
*{stroke-linecap:butt;stroke-linejoin:round;}
  </style>
 </defs>
 <g id="figure_1">
  <g id="patch_1">
   <path d="M 0 288 
L 1152 288 
L 1152 0 
L 0 0 
z
" style="fill:#ffffff;"/>
  </g>
  <g id="axes_1">
   <g id="patch_2">
    <path d="M 33.64 260.12 
L 1133.28 260.12 
L 1133.28 14.76 
L 33.64 14.76 
z
" style="fill:#ffffff;"/>
   </g>
   <g id="matplotlib.axis_1">
    <g id="xtick_1">
     <g id="line2d_1">
      <defs>
       <path d="M 0 0 
L 0 3.5 
" id="mdac7e044ec" style="stroke:#000000;stroke-width:0.8;"/>
      </defs>
      <g>
       <use style="stroke:#000000;stroke-width:0.8;" x="197.115026" xlink:href="#mdac7e044ec" y="260.12"/>
      </g>
     </g>
     <g id="text_1">
      <!-- Tue 00:00 -->
      <defs>
       <path d="M -0.296875 72.90625 
L 61.375 72.90625 
L 61.375 64.59375 
L 35.5 64.59375 
L 35.5 0 
L 25.59375 0 
L 25.59375 64.59375 
L -0.296875 64.59375 
z
" id="DejaVuSans-84"/>
       <path d="M 8.5 21.578125 
L 8.5 54.6875 
L 17.484375 54.6875 
L 17.484375 21.921875 
Q 17.484375 14.15625 20.5 10.265625 
Q 23.53125 6.390625 29.59375 6.390625 
Q 36.859375 6.390625 41.078125 11.03125 
Q 45.3125 15.671875 45.3125 23.6875 
L 45.3125 54.6875 
L 54.296875 54.6875 
L 54.296875 0 
L 45.3125 0 
L 45.3125 8.40625 
Q 42.046875 3.421875 37.71875 1 
Q 33.40625 -1.421875 27.6875 -1.421875 
Q 18.265625 -1.421875 13.375 4.4375 
Q 8.5 10.296875 8.5 21.578125 
z
M 31.109375 56 
z
" id="DejaVuSans-117"/>
       <path d="M 56.203125 29.59375 
L 56.203125 25.203125 
L 14.890625 25.203125 
Q 15.484375 15.921875 20.484375 11.0625 
Q 25.484375 6.203125 34.421875 6.203125 
Q 39.59375 6.203125 44.453125 7.46875 
Q 49.3125 8.734375 54.109375 11.28125 
L 54.109375 2.78125 
Q 49.265625 0.734375 44.1875 -0.34375 
Q 39.109375 -1.421875 33.890625 -1.421875 
Q 20.796875 -1.421875 13.15625 6.1875 
Q 5.515625 13.8125 5.515625 26.8125 
Q 5.515625 40.234375 12.765625 48.109375 
Q 20.015625 56 32.328125 56 
Q 43.359375 56 49.78125 48.890625 
Q 56.203125 41.796875 56.203125 29.59375 
z
M 47.21875 32.234375 
Q 47.125 39.59375 43.09375 43.984375 
Q 39.0625 48.390625 32.421875 48.390625 
Q 24.90625 48.390625 20.390625 44.140625 
Q 15.875 39.890625 15.1875 32.171875 
z
" id="DejaVuSans-101"/>
       <path id="DejaVuSans-32"/>
       <path d="M 31.78125 66.40625 
Q 24.171875 66.40625 20.328125 58.90625 
Q 16.5 51.421875 16.5 36.375 
Q 16.5 21.390625 20.328125 13.890625 
Q 24.171875 6.390625 31.78125 6.390625 
Q 39.453125 6.390625 43.28125 13.890625 
Q 47.125 21.390625 47.125 36.375 
Q 47.125 51.421875 43.28125 58.90625 
Q 39.453125 66.40625 31.78125 66.40625 
z
M 31.78125 74.21875 
Q 44.046875 74.21875 50.515625 64.515625 
Q 56.984375 54.828125 56.984375 36.375 
Q 56.984375 17.96875 50.515625 8.265625 
Q 44.046875 -1.421875 31.78125 -1.421875 
Q 19.53125 -1.421875 13.0625 8.265625 
Q 6.59375 17.96875 6.59375 36.375 
Q 6.59375 54.828125 13.0625 64.515625 
Q 19.53125 74.21875 31.78125 74.21875 
z
" id="DejaVuSans-48"/>
       <path d="M 11.71875 12.40625 
L 22.015625 12.40625 
L 22.015625 0 
L 11.71875 0 
z
M 11.71875 51.703125 
L 22.015625 51.703125 
L 22.015625 39.3125 
L 11.71875 39.3125 
z
" id="DejaVuSans-58"/>
      </defs>
      <g transform="translate(171.829089 274.718437)scale(0.1 -0.1)">
       <use xlink:href="#DejaVuSans-84"/>
       <use x="60.849609" xlink:href="#DejaVuSans-117"/>
       <use x="124.228516" xlink:href="#DejaVuSans-101"/>
       <use x="185.751953" xlink:href="#DejaVuSans-32"/>
       <use x="217.539062" xlink:href="#DejaVuSans-48"/>
       <use x="281.162109" xlink:href="#DejaVuSans-48"/>
       <use x="344.785156" xlink:href="#DejaVuSans-58"/>
       <use x="378.476562" xlink:href="#DejaVuSans-48"/>
       <use x="442.099609" xlink:href="#DejaVuSans-48"/>
      </g>
     </g>
    </g>
    <g id="xtick_2">
     <g id="line2d_2">
      <g>
       <use style="stroke:#000000;stroke-width:0.8;" x="360.663264" xlink:href="#mdac7e044ec" y="260.12"/>
      </g>
     </g>
     <g id="text_2">
      <!-- Wed 00:00 -->
      <defs>
       <path d="M 3.328125 72.90625 
L 13.28125 72.90625 
L 28.609375 11.28125 
L 43.890625 72.90625 
L 54.984375 72.90625 
L 70.3125 11.28125 
L 85.59375 72.90625 
L 95.609375 72.90625 
L 77.296875 0 
L 64.890625 0 
L 49.515625 63.28125 
L 33.984375 0 
L 21.578125 0 
z
" id="DejaVuSans-87"/>
       <path d="M 45.40625 46.390625 
L 45.40625 75.984375 
L 54.390625 75.984375 
L 54.390625 0 
L 45.40625 0 
L 45.40625 8.203125 
Q 42.578125 3.328125 38.25 0.953125 
Q 33.9375 -1.421875 27.875 -1.421875 
Q 17.96875 -1.421875 11.734375 6.484375 
Q 5.515625 14.40625 5.515625 27.296875 
Q 5.515625 40.1875 11.734375 48.09375 
Q 17.96875 56 27.875 56 
Q 33.9375 56 38.25 53.625 
Q 42.578125 51.265625 45.40625 46.390625 
z
M 14.796875 27.296875 
Q 14.796875 17.390625 18.875 11.75 
Q 22.953125 6.109375 30.078125 6.109375 
Q 37.203125 6.109375 41.296875 11.75 
Q 45.40625 17.390625 45.40625 27.296875 
Q 45.40625 37.203125 41.296875 42.84375 
Q 37.203125 48.484375 30.078125 48.484375 
Q 22.953125 48.484375 18.875 42.84375 
Q 14.796875 37.203125 14.796875 27.296875 
z
" id="DejaVuSans-100"/>
      </defs>
      <g transform="translate(333.474202 274.718437)scale(0.1 -0.1)">
       <use xlink:href="#DejaVuSans-87"/>
       <use x="98.798828" xlink:href="#DejaVuSans-101"/>
       <use x="160.322266" xlink:href="#DejaVuSans-100"/>
       <use x="223.798828" xlink:href="#DejaVuSans-32"/>
       <use x="255.585938" xlink:href="#DejaVuSans-48"/>
       <use x="319.208984" xlink:href="#DejaVuSans-48"/>
       <use x="382.832031" xlink:href="#DejaVuSans-58"/>
       <use x="416.523438" xlink:href="#DejaVuSans-48"/>
       <use x="480.146484" xlink:href="#DejaVuSans-48"/>
      </g>
     </g>
    </g>
    <g id="xtick_3">
     <g id="line2d_3">
      <g>
       <use style="stroke:#000000;stroke-width:0.8;" x="524.211502" xlink:href="#mdac7e044ec" y="260.12"/>
      </g>
     </g>
     <g id="text_3">
      <!-- Thu 00:00 -->
      <defs>
       <path d="M 54.890625 33.015625 
L 54.890625 0 
L 45.90625 0 
L 45.90625 32.71875 
Q 45.90625 40.484375 42.875 44.328125 
Q 39.84375 48.1875 33.796875 48.1875 
Q 26.515625 48.1875 22.3125 43.546875 
Q 18.109375 38.921875 18.109375 30.90625 
L 18.109375 0 
L 9.078125 0 
L 9.078125 75.984375 
L 18.109375 75.984375 
L 18.109375 46.1875 
Q 21.34375 51.125 25.703125 53.5625 
Q 30.078125 56 35.796875 56 
Q 45.21875 56 50.046875 50.171875 
Q 54.890625 44.34375 54.890625 33.015625 
z
" id="DejaVuSans-104"/>
      </defs>
      <g transform="translate(498.821659 274.718437)scale(0.1 -0.1)">
       <use xlink:href="#DejaVuSans-84"/>
       <use x="61.083984" xlink:href="#DejaVuSans-104"/>
       <use x="124.462891" xlink:href="#DejaVuSans-117"/>
       <use x="187.841797" xlink:href="#DejaVuSans-32"/>
       <use x="219.628906" xlink:href="#DejaVuSans-48"/>
       <use x="283.251953" xlink:href="#DejaVuSans-48"/>
       <use x="346.875" xlink:href="#DejaVuSans-58"/>
       <use x="380.566406" xlink:href="#DejaVuSans-48"/>
       <use x="444.189453" xlink:href="#DejaVuSans-48"/>
      </g>
     </g>
    </g>
    <g id="xtick_4">
     <g id="line2d_4">
      <g>
       <use style="stroke:#000000;stroke-width:0.8;" x="687.75974" xlink:href="#mdac7e044ec" y="260.12"/>
      </g>
     </g>
     <g id="text_4">
      <!-- Fri 00:00 -->
      <defs>
       <path d="M 9.8125 72.90625 
L 51.703125 72.90625 
L 51.703125 64.59375 
L 19.671875 64.59375 
L 19.671875 43.109375 
L 48.578125 43.109375 
L 48.578125 34.8125 
L 19.671875 34.8125 
L 19.671875 0 
L 9.8125 0 
z
" id="DejaVuSans-70"/>
       <path d="M 41.109375 46.296875 
Q 39.59375 47.171875 37.8125 47.578125 
Q 36.03125 48 33.890625 48 
Q 26.265625 48 22.1875 43.046875 
Q 18.109375 38.09375 18.109375 28.8125 
L 18.109375 0 
L 9.078125 0 
L 9.078125 54.6875 
L 18.109375 54.6875 
L 18.109375 46.1875 
Q 20.953125 51.171875 25.484375 53.578125 
Q 30.03125 56 36.53125 56 
Q 37.453125 56 38.578125 55.875 
Q 39.703125 55.765625 41.0625 55.515625 
z
" id="DejaVuSans-114"/>
       <path d="M 9.421875 54.6875 
L 18.40625 54.6875 
L 18.40625 0 
L 9.421875 0 
z
M 9.421875 75.984375 
L 18.40625 75.984375 
L 18.40625 64.59375 
L 9.421875 64.59375 
z
" id="DejaVuSans-105"/>
      </defs>
      <g transform="translate(665.446459 274.718437)scale(0.1 -0.1)">
       <use xlink:href="#DejaVuSans-70"/>
       <use x="57.410156" xlink:href="#DejaVuSans-114"/>
       <use x="98.523438" xlink:href="#DejaVuSans-105"/>
       <use x="126.306641" xlink:href="#DejaVuSans-32"/>
       <use x="158.09375" xlink:href="#DejaVuSans-48"/>
       <use x="221.716797" xlink:href="#DejaVuSans-48"/>
       <use x="285.339844" xlink:href="#DejaVuSans-58"/>
       <use x="319.03125" xlink:href="#DejaVuSans-48"/>
       <use x="382.654297" xlink:href="#DejaVuSans-48"/>
      </g>
     </g>
    </g>
    <g id="xtick_5">
     <g id="line2d_5">
      <g>
       <use style="stroke:#000000;stroke-width:0.8;" x="851.307978" xlink:href="#mdac7e044ec" y="260.12"/>
      </g>
     </g>
     <g id="text_5">
      <!-- Sat 00:00 -->
      <defs>
       <path d="M 53.515625 70.515625 
L 53.515625 60.890625 
Q 47.90625 63.578125 42.921875 64.890625 
Q 37.9375 66.21875 33.296875 66.21875 
Q 25.25 66.21875 20.875 63.09375 
Q 16.5 59.96875 16.5 54.203125 
Q 16.5 49.359375 19.40625 46.890625 
Q 22.3125 44.4375 30.421875 42.921875 
L 36.375 41.703125 
Q 47.40625 39.59375 52.65625 34.296875 
Q 57.90625 29 57.90625 20.125 
Q 57.90625 9.515625 50.796875 4.046875 
Q 43.703125 -1.421875 29.984375 -1.421875 
Q 24.8125 -1.421875 18.96875 -0.25 
Q 13.140625 0.921875 6.890625 3.21875 
L 6.890625 13.375 
Q 12.890625 10.015625 18.65625 8.296875 
Q 24.421875 6.59375 29.984375 6.59375 
Q 38.421875 6.59375 43.015625 9.90625 
Q 47.609375 13.234375 47.609375 19.390625 
Q 47.609375 24.75 44.3125 27.78125 
Q 41.015625 30.8125 33.5 32.328125 
L 27.484375 33.5 
Q 16.453125 35.6875 11.515625 40.375 
Q 6.59375 45.0625 6.59375 53.421875 
Q 6.59375 63.09375 13.40625 68.65625 
Q 20.21875 74.21875 32.171875 74.21875 
Q 37.3125 74.21875 42.625 73.28125 
Q 47.953125 72.359375 53.515625 70.515625 
z
" id="DejaVuSans-83"/>
       <path d="M 34.28125 27.484375 
Q 23.390625 27.484375 19.1875 25 
Q 14.984375 22.515625 14.984375 16.5 
Q 14.984375 11.71875 18.140625 8.90625 
Q 21.296875 6.109375 26.703125 6.109375 
Q 34.1875 6.109375 38.703125 11.40625 
Q 43.21875 16.703125 43.21875 25.484375 
L 43.21875 27.484375 
z
M 52.203125 31.203125 
L 52.203125 0 
L 43.21875 0 
L 43.21875 8.296875 
Q 40.140625 3.328125 35.546875 0.953125 
Q 30.953125 -1.421875 24.3125 -1.421875 
Q 15.921875 -1.421875 10.953125 3.296875 
Q 6 8.015625 6 15.921875 
Q 6 25.140625 12.171875 29.828125 
Q 18.359375 34.515625 30.609375 34.515625 
L 43.21875 34.515625 
L 43.21875 35.40625 
Q 43.21875 41.609375 39.140625 45 
Q 35.0625 48.390625 27.6875 48.390625 
Q 23 48.390625 18.546875 47.265625 
Q 14.109375 46.140625 10.015625 43.890625 
L 10.015625 52.203125 
Q 14.9375 54.109375 19.578125 55.046875 
Q 24.21875 56 28.609375 56 
Q 40.484375 56 46.34375 49.84375 
Q 52.203125 43.703125 52.203125 31.203125 
z
" id="DejaVuSans-97"/>
       <path d="M 18.3125 70.21875 
L 18.3125 54.6875 
L 36.8125 54.6875 
L 36.8125 47.703125 
L 18.3125 47.703125 
L 18.3125 18.015625 
Q 18.3125 11.328125 20.140625 9.421875 
Q 21.96875 7.515625 27.59375 7.515625 
L 36.8125 7.515625 
L 36.8125 0 
L 27.59375 0 
Q 17.1875 0 13.234375 3.875 
Q 9.28125 7.765625 9.28125 18.015625 
L 9.28125 47.703125 
L 2.6875 47.703125 
L 2.6875 54.6875 
L 9.28125 54.6875 
L 9.28125 70.21875 
z
" id="DejaVuSans-116"/>
      </defs>
      <g transform="translate(827.111103 274.718437)scale(0.1 -0.1)">
       <use xlink:href="#DejaVuSans-83"/>
       <use x="63.476562" xlink:href="#DejaVuSans-97"/>
       <use x="124.755859" xlink:href="#DejaVuSans-116"/>
       <use x="163.964844" xlink:href="#DejaVuSans-32"/>
       <use x="195.751953" xlink:href="#DejaVuSans-48"/>
       <use x="259.375" xlink:href="#DejaVuSans-48"/>
       <use x="322.998047" xlink:href="#DejaVuSans-58"/>
       <use x="356.689453" xlink:href="#DejaVuSans-48"/>
       <use x="420.3125" xlink:href="#DejaVuSans-48"/>
      </g>
     </g>
    </g>
    <g id="xtick_6">
     <g id="line2d_6">
      <g>
       <use style="stroke:#000000;stroke-width:0.8;" x="1014.856216" xlink:href="#mdac7e044ec" y="260.12"/>
      </g>
     </g>
     <g id="text_6">
      <!-- Sun 00:00 -->
      <defs>
       <path d="M 54.890625 33.015625 
L 54.890625 0 
L 45.90625 0 
L 45.90625 32.71875 
Q 45.90625 40.484375 42.875 44.328125 
Q 39.84375 48.1875 33.796875 48.1875 
Q 26.515625 48.1875 22.3125 43.546875 
Q 18.109375 38.921875 18.109375 30.90625 
L 18.109375 0 
L 9.078125 0 
L 9.078125 54.6875 
L 18.109375 54.6875 
L 18.109375 46.1875 
Q 21.34375 51.125 25.703125 53.5625 
Q 30.078125 56 35.796875 56 
Q 45.21875 56 50.046875 50.171875 
Q 54.890625 44.34375 54.890625 33.015625 
z
" id="DejaVuSans-110"/>
      </defs>
      <g transform="translate(989.34606 274.718437)scale(0.1 -0.1)">
       <use xlink:href="#DejaVuSans-83"/>
       <use x="63.476562" xlink:href="#DejaVuSans-117"/>
       <use x="126.855469" xlink:href="#DejaVuSans-110"/>
       <use x="190.234375" xlink:href="#DejaVuSans-32"/>
       <use x="222.021484" xlink:href="#DejaVuSans-48"/>
       <use x="285.644531" xlink:href="#DejaVuSans-48"/>
       <use x="349.267578" xlink:href="#DejaVuSans-58"/>
       <use x="382.958984" xlink:href="#DejaVuSans-48"/>
       <use x="446.582031" xlink:href="#DejaVuSans-48"/>
      </g>
     </g>
    </g>
   </g>
   <g id="matplotlib.axis_2">
    <g id="ytick_1">
     <g id="line2d_7">
      <defs>
       <path d="M 0 0 
L -3.5 0 
" id="mf4b9b723f5" style="stroke:#000000;stroke-width:0.8;"/>
      </defs>
      <g>
       <use style="stroke:#000000;stroke-width:0.8;" x="33.64" xlink:href="#mf4b9b723f5" y="260.12"/>
      </g>
     </g>
     <g id="text_7">
      <!-- 0 -->
      <g transform="translate(20.2775 263.919219)scale(0.1 -0.1)">
       <use xlink:href="#DejaVuSans-48"/>
      </g>
     </g>
    </g>
    <g id="ytick_2">
     <g id="line2d_8">
      <g>
       <use style="stroke:#000000;stroke-width:0.8;" x="33.64" xlink:href="#mf4b9b723f5" y="232.857778"/>
      </g>
     </g>
     <g id="text_8">
      <!-- 20 -->
      <defs>
       <path d="M 19.1875 8.296875 
L 53.609375 8.296875 
L 53.609375 0 
L 7.328125 0 
L 7.328125 8.296875 
Q 12.9375 14.109375 22.625 23.890625 
Q 32.328125 33.6875 34.8125 36.53125 
Q 39.546875 41.84375 41.421875 45.53125 
Q 43.3125 49.21875 43.3125 52.78125 
Q 43.3125 58.59375 39.234375 62.25 
Q 35.15625 65.921875 28.609375 65.921875 
Q 23.96875 65.921875 18.8125 64.3125 
Q 13.671875 62.703125 7.8125 59.421875 
L 7.8125 69.390625 
Q 13.765625 71.78125 18.9375 73 
Q 24.125 74.21875 28.421875 74.21875 
Q 39.75 74.21875 46.484375 68.546875 
Q 53.21875 62.890625 53.21875 53.421875 
Q 53.21875 48.921875 51.53125 44.890625 
Q 49.859375 40.875 45.40625 35.40625 
Q 44.1875 33.984375 37.640625 27.21875 
Q 31.109375 20.453125 19.1875 8.296875 
z
" id="DejaVuSans-50"/>
      </defs>
      <g transform="translate(13.915 236.656997)scale(0.1 -0.1)">
       <use xlink:href="#DejaVuSans-50"/>
       <use x="63.623047" xlink:href="#DejaVuSans-48"/>
      </g>
     </g>
    </g>
    <g id="ytick_3">
     <g id="line2d_9">
      <g>
       <use style="stroke:#000000;stroke-width:0.8;" x="33.64" xlink:href="#mf4b9b723f5" y="205.595556"/>
      </g>
     </g>
     <g id="text_9">
      <!-- 40 -->
      <defs>
       <path d="M 37.796875 64.3125 
L 12.890625 25.390625 
L 37.796875 25.390625 
z
M 35.203125 72.90625 
L 47.609375 72.90625 
L 47.609375 25.390625 
L 58.015625 25.390625 
L 58.015625 17.1875 
L 47.609375 17.1875 
L 47.609375 0 
L 37.796875 0 
L 37.796875 17.1875 
L 4.890625 17.1875 
L 4.890625 26.703125 
z
" id="DejaVuSans-52"/>
      </defs>
      <g transform="translate(13.915 209.394774)scale(0.1 -0.1)">
       <use xlink:href="#DejaVuSans-52"/>
       <use x="63.623047" xlink:href="#DejaVuSans-48"/>
      </g>
     </g>
    </g>
    <g id="ytick_4">
     <g id="line2d_10">
      <g>
       <use style="stroke:#000000;stroke-width:0.8;" x="33.64" xlink:href="#mf4b9b723f5" y="178.333333"/>
      </g>
     </g>
     <g id="text_10">
      <!-- 60 -->
      <defs>
       <path d="M 33.015625 40.375 
Q 26.375 40.375 22.484375 35.828125 
Q 18.609375 31.296875 18.609375 23.390625 
Q 18.609375 15.53125 22.484375 10.953125 
Q 26.375 6.390625 33.015625 6.390625 
Q 39.65625 6.390625 43.53125 10.953125 
Q 47.40625 15.53125 47.40625 23.390625 
Q 47.40625 31.296875 43.53125 35.828125 
Q 39.65625 40.375 33.015625 40.375 
z
M 52.59375 71.296875 
L 52.59375 62.3125 
Q 48.875 64.0625 45.09375 64.984375 
Q 41.3125 65.921875 37.59375 65.921875 
Q 27.828125 65.921875 22.671875 59.328125 
Q 17.53125 52.734375 16.796875 39.40625 
Q 19.671875 43.65625 24.015625 45.921875 
Q 28.375 48.1875 33.59375 48.1875 
Q 44.578125 48.1875 50.953125 41.515625 
Q 57.328125 34.859375 57.328125 23.390625 
Q 57.328125 12.15625 50.6875 5.359375 
Q 44.046875 -1.421875 33.015625 -1.421875 
Q 20.359375 -1.421875 13.671875 8.265625 
Q 6.984375 17.96875 6.984375 36.375 
Q 6.984375 53.65625 15.1875 63.9375 
Q 23.390625 74.21875 37.203125 74.21875 
Q 40.921875 74.21875 44.703125 73.484375 
Q 48.484375 72.75 52.59375 71.296875 
z
" id="DejaVuSans-54"/>
      </defs>
      <g transform="translate(13.915 182.132552)scale(0.1 -0.1)">
       <use xlink:href="#DejaVuSans-54"/>
       <use x="63.623047" xlink:href="#DejaVuSans-48"/>
      </g>
     </g>
    </g>
    <g id="ytick_5">
     <g id="line2d_11">
      <g>
       <use style="stroke:#000000;stroke-width:0.8;" x="33.64" xlink:href="#mf4b9b723f5" y="151.071111"/>
      </g>
     </g>
     <g id="text_11">
      <!-- 80 -->
      <defs>
       <path d="M 31.78125 34.625 
Q 24.75 34.625 20.71875 30.859375 
Q 16.703125 27.09375 16.703125 20.515625 
Q 16.703125 13.921875 20.71875 10.15625 
Q 24.75 6.390625 31.78125 6.390625 
Q 38.8125 6.390625 42.859375 10.171875 
Q 46.921875 13.96875 46.921875 20.515625 
Q 46.921875 27.09375 42.890625 30.859375 
Q 38.875 34.625 31.78125 34.625 
z
M 21.921875 38.8125 
Q 15.578125 40.375 12.03125 44.71875 
Q 8.5 49.078125 8.5 55.328125 
Q 8.5 64.0625 14.71875 69.140625 
Q 20.953125 74.21875 31.78125 74.21875 
Q 42.671875 74.21875 48.875 69.140625 
Q 55.078125 64.0625 55.078125 55.328125 
Q 55.078125 49.078125 51.53125 44.71875 
Q 48 40.375 41.703125 38.8125 
Q 48.828125 37.15625 52.796875 32.3125 
Q 56.78125 27.484375 56.78125 20.515625 
Q 56.78125 9.90625 50.3125 4.234375 
Q 43.84375 -1.421875 31.78125 -1.421875 
Q 19.734375 -1.421875 13.25 4.234375 
Q 6.78125 9.90625 6.78125 20.515625 
Q 6.78125 27.484375 10.78125 32.3125 
Q 14.796875 37.15625 21.921875 38.8125 
z
M 18.3125 54.390625 
Q 18.3125 48.734375 21.84375 45.5625 
Q 25.390625 42.390625 31.78125 42.390625 
Q 38.140625 42.390625 41.71875 45.5625 
Q 45.3125 48.734375 45.3125 54.390625 
Q 45.3125 60.0625 41.71875 63.234375 
Q 38.140625 66.40625 31.78125 66.40625 
Q 25.390625 66.40625 21.84375 63.234375 
Q 18.3125 60.0625 18.3125 54.390625 
z
" id="DejaVuSans-56"/>
      </defs>
      <g transform="translate(13.915 154.87033)scale(0.1 -0.1)">
       <use xlink:href="#DejaVuSans-56"/>
       <use x="63.623047" xlink:href="#DejaVuSans-48"/>
      </g>
     </g>
    </g>
    <g id="ytick_6">
     <g id="line2d_12">
      <g>
       <use style="stroke:#000000;stroke-width:0.8;" x="33.64" xlink:href="#mf4b9b723f5" y="123.808889"/>
      </g>
     </g>
     <g id="text_12">
      <!-- 100 -->
      <defs>
       <path d="M 12.40625 8.296875 
L 28.515625 8.296875 
L 28.515625 63.921875 
L 10.984375 60.40625 
L 10.984375 69.390625 
L 28.421875 72.90625 
L 38.28125 72.90625 
L 38.28125 8.296875 
L 54.390625 8.296875 
L 54.390625 0 
L 12.40625 0 
z
" id="DejaVuSans-49"/>
      </defs>
      <g transform="translate(7.5525 127.608108)scale(0.1 -0.1)">
       <use xlink:href="#DejaVuSans-49"/>
       <use x="63.623047" xlink:href="#DejaVuSans-48"/>
       <use x="127.246094" xlink:href="#DejaVuSans-48"/>
      </g>
     </g>
    </g>
    <g id="ytick_7">
     <g id="line2d_13">
      <g>
       <use style="stroke:#000000;stroke-width:0.8;" x="33.64" xlink:href="#mf4b9b723f5" y="96.546667"/>
      </g>
     </g>
     <g id="text_13">
      <!-- 120 -->
      <g transform="translate(7.5525 100.345885)scale(0.1 -0.1)">
       <use xlink:href="#DejaVuSans-49"/>
       <use x="63.623047" xlink:href="#DejaVuSans-50"/>
       <use x="127.246094" xlink:href="#DejaVuSans-48"/>
      </g>
     </g>
    </g>
    <g id="ytick_8">
     <g id="line2d_14">
      <g>
       <use style="stroke:#000000;stroke-width:0.8;" x="33.64" xlink:href="#mf4b9b723f5" y="69.284444"/>
      </g>
     </g>
     <g id="text_14">
      <!-- 140 -->
      <g transform="translate(7.5525 73.083663)scale(0.1 -0.1)">
       <use xlink:href="#DejaVuSans-49"/>
       <use x="63.623047" xlink:href="#DejaVuSans-52"/>
       <use x="127.246094" xlink:href="#DejaVuSans-48"/>
      </g>
     </g>
    </g>
    <g id="ytick_9">
     <g id="line2d_15">
      <g>
       <use style="stroke:#000000;stroke-width:0.8;" x="33.64" xlink:href="#mf4b9b723f5" y="42.022222"/>
      </g>
     </g>
     <g id="text_15">
      <!-- 160 -->
      <g transform="translate(7.5525 45.821441)scale(0.1 -0.1)">
       <use xlink:href="#DejaVuSans-49"/>
       <use x="63.623047" xlink:href="#DejaVuSans-54"/>
       <use x="127.246094" xlink:href="#DejaVuSans-48"/>
      </g>
     </g>
    </g>
    <g id="ytick_10">
     <g id="line2d_16">
      <g>
       <use style="stroke:#000000;stroke-width:0.8;" x="33.64" xlink:href="#mf4b9b723f5" y="14.76"/>
      </g>
     </g>
     <g id="text_16">
      <!-- 180 -->
      <g transform="translate(7.5525 18.559219)scale(0.1 -0.1)">
       <use xlink:href="#DejaVuSans-49"/>
       <use x="63.623047" xlink:href="#DejaVuSans-56"/>
       <use x="127.246094" xlink:href="#DejaVuSans-48"/>
      </g>
     </g>
    </g>
   </g>
   <g id="line2d_17">
    <path clip-path="url(#pc069f09f86)" d="M 33.64 260.12 
L 94.548702 260.12 
L 95.697837 257.393778 
L 96.869485 257.393778 
L 98.037349 253.304444 
L 99.205007 251.941333 
L 100.375388 249.215111 
L 101.544254 249.215111 
L 102.714767 246.488889 
L 103.883747 242.399556 
L 105.051991 242.399556 
L 106.22082 236.947111 
L 107.39113 235.584 
L 108.560742 235.584 
L 109.731139 232.857778 
L 110.89886 228.768444 
L 113.236257 228.768444 
L 114.404159 224.679111 
L 115.573322 221.952889 
L 116.742496 221.952889 
L 117.913771 219.226667 
L 119.083103 219.226667 
L 120.253261 221.952889 
L 121.420893 228.768444 
L 123.755994 228.768444 
L 126.091686 239.673333 
L 127.263311 239.673333 
L 128.432872 238.310222 
L 129.603469 235.584 
L 130.771093 235.584 
L 131.938815 227.405333 
L 133.106197 226.042222 
L 134.2744 223.316 
L 135.442054 223.316 
L 136.612168 221.952889 
L 138.948548 221.952889 
L 140.118486 209.684889 
L 141.286145 209.684889 
L 142.454923 208.321778 
L 143.623044 198.78 
L 144.793917 197.416889 
L 145.961996 197.416889 
L 147.130035 191.964444 
L 149.466489 191.964444 
L 150.636849 187.875111 
L 151.804583 189.238222 
L 152.972619 189.238222 
L 154.140553 174.244 
L 155.30896 166.065333 
L 156.477885 166.065333 
L 157.647985 141.529333 
L 158.818694 126.535111 
L 159.988121 126.535111 
L 163.498226 63.832 
L 164.668789 63.832 
L 165.839032 61.105778 
L 167.009131 61.105778 
L 168.179634 57.016444 
L 169.350968 76.1 
L 170.522073 84.278667 
L 171.692663 84.278667 
L 172.861224 87.004889 
L 175.197425 87.004889 
L 176.366152 92.457333 
L 177.534377 100.636 
L 178.704502 101.999111 
L 179.874649 101.999111 
L 181.042837 116.993333 
L 182.211253 116.993333 
L 183.380237 133.350667 
L 184.548825 157.886667 
L 185.717626 166.065333 
L 186.886825 166.065333 
L 188.055033 176.970222 
L 189.223644 190.601333 
L 191.563134 190.601333 
L 192.732082 260.12 
L 258.315491 260.12 
L 259.46465 258.756889 
L 260.633376 245.125778 
L 261.801407 245.125778 
L 262.968747 236.947111 
L 264.13957 236.947111 
L 265.3078 232.857778 
L 266.475836 227.405333 
L 267.64384 227.405333 
L 268.813025 224.679111 
L 269.982681 223.316 
L 273.49125 223.316 
L 274.659236 227.405333 
L 275.829931 227.405333 
L 277.002968 234.220889 
L 278.170966 235.584 
L 280.510949 235.584 
L 281.681243 232.857778 
L 282.850656 232.857778 
L 284.018391 228.768444 
L 285.186406 234.220889 
L 286.353789 231.494667 
L 287.525271 231.494667 
L 288.693033 232.857778 
L 289.860757 230.131556 
L 291.028877 230.131556 
L 292.196773 228.768444 
L 294.534609 215.137333 
L 295.703156 215.137333 
L 296.871606 204.232444 
L 298.039505 204.232444 
L 299.208198 208.321778 
L 300.375982 204.232444 
L 301.543556 204.232444 
L 302.711177 202.869333 
L 303.878808 206.958667 
L 305.04877 206.958667 
L 306.22615 201.506222 
L 307.395697 202.869333 
L 308.563668 193.327556 
L 309.732123 193.327556 
L 310.901411 179.696444 
L 312.072086 168.791556 
L 313.241168 168.791556 
L 314.412154 152.434222 
L 315.58298 130.624444 
L 316.750485 121.082667 
L 317.919668 121.082667 
L 319.087775 104.725333 
L 320.256426 99.272889 
L 321.424761 99.272889 
L 322.593756 82.915556 
L 323.763698 82.915556 
L 324.931906 69.284444 
L 326.101141 63.832 
L 327.269968 51.564 
L 328.43885 51.564 
L 329.606969 58.379556 
L 330.775877 37.932889 
L 331.945745 37.932889 
L 333.113645 46.111556 
L 334.282404 32.480444 
L 335.45116 32.480444 
L 336.619894 36.569778 
L 337.787551 31.117333 
L 338.956464 31.117333 
L 340.125432 29.754222 
L 341.295776 44.748444 
L 342.464506 63.832 
L 343.633484 63.832 
L 344.802041 77.463111 
L 345.972886 92.457333 
L 347.141046 92.457333 
L 348.309458 101.999111 
L 349.47818 108.814667 
L 350.64653 108.814667 
L 351.816033 134.713778 
L 352.984952 136.076889 
L 354.153328 136.076889 
L 355.322383 142.892444 
L 356.49108 260.12 
L 422.073839 260.12 
L 423.242097 258.756889 
L 424.410315 246.488889 
L 425.580457 246.488889 
L 426.748084 235.584 
L 427.916181 228.768444 
L 429.084911 220.589778 
L 430.252876 220.589778 
L 431.421917 215.137333 
L 432.591971 215.137333 
L 434.93052 204.232444 
L 436.100673 211.048 
L 437.269642 211.048 
L 439.607494 205.595556 
L 440.775932 205.595556 
L 441.944812 211.048 
L 443.113652 211.048 
L 444.283927 224.679111 
L 445.452199 224.679111 
L 446.620943 220.589778 
L 447.789378 220.589778 
L 448.962111 223.316 
L 450.130453 221.952889 
L 451.301202 221.952889 
L 452.470964 227.405333 
L 453.639679 223.316 
L 454.8084 223.316 
L 457.148741 215.137333 
L 458.318603 215.137333 
L 459.48873 212.411111 
L 460.657816 211.048 
L 461.826745 205.595556 
L 462.995208 205.595556 
L 464.164633 201.506222 
L 465.333205 200.143111 
L 466.501736 200.143111 
L 467.670562 197.416889 
L 468.839561 198.78 
L 470.008511 198.78 
L 471.177205 189.238222 
L 472.345868 183.785778 
L 473.515275 174.244 
L 474.682992 175.607111 
L 475.855993 172.880889 
L 477.025173 172.880889 
L 478.194822 167.428444 
L 479.366981 152.434222 
L 480.535026 144.255556 
L 481.702927 144.255556 
L 482.871786 121.082667 
L 484.041105 103.362222 
L 485.210353 103.362222 
L 486.381419 76.1 
L 487.549982 54.290222 
L 488.717418 54.290222 
L 489.885317 35.206667 
L 491.056607 32.480444 
L 492.224568 32.480444 
L 493.392694 28.391111 
L 494.562695 39.296 
L 495.733471 39.296 
L 496.901004 40.659111 
L 498.071418 54.290222 
L 499.245248 63.832 
L 500.414483 63.832 
L 502.755107 108.814667 
L 503.926376 108.814667 
L 505.096489 126.535111 
L 506.265822 141.529333 
L 507.434923 160.612889 
L 508.604066 160.612889 
L 509.772465 172.880889 
L 510.941356 172.880889 
L 512.111894 189.238222 
L 514.450726 200.143111 
L 515.619957 200.143111 
L 516.789552 201.506222 
L 521.464717 201.506222 
L 522.634274 260.12 
L 584.740421 260.12 
L 585.889882 257.393778 
L 587.058259 257.393778 
L 588.228708 249.215111 
L 589.396533 249.215111 
L 590.564016 247.852 
L 591.731503 239.673333 
L 594.067834 239.673333 
L 596.406396 234.220889 
L 597.574175 234.220889 
L 598.742305 238.310222 
L 599.910688 239.673333 
L 601.078135 239.673333 
L 603.414437 236.947111 
L 604.582378 236.947111 
L 605.750781 235.584 
L 606.919024 231.494667 
L 608.086485 232.857778 
L 610.425633 232.857778 
L 611.593339 234.220889 
L 612.762359 234.220889 
L 613.929939 227.405333 
L 615.09844 223.316 
L 616.266473 223.316 
L 617.43678 217.863556 
L 619.773285 217.863556 
L 620.941445 215.137333 
L 622.110569 217.863556 
L 623.28112 217.863556 
L 624.449857 228.768444 
L 625.620638 226.042222 
L 626.790717 219.226667 
L 627.958819 219.226667 
L 629.127664 215.137333 
L 630.297991 209.684889 
L 631.467519 209.684889 
L 632.635848 206.958667 
L 633.808264 206.958667 
L 634.978536 201.506222 
L 636.146958 204.232444 
L 637.317236 190.601333 
L 638.485691 190.601333 
L 639.654466 171.517778 
L 640.823908 161.976 
L 641.993772 161.976 
L 643.164004 144.255556 
L 644.333204 122.445778 
L 645.503411 122.445778 
L 646.672105 100.636 
L 647.840913 101.999111 
L 649.009784 91.094222 
L 650.179851 91.094222 
L 651.34832 88.368 
L 652.516985 72.010667 
L 653.685749 72.010667 
L 654.854644 50.200889 
L 656.02382 35.206667 
L 657.192824 35.206667 
L 658.36168 40.659111 
L 659.530299 31.117333 
L 660.699364 31.117333 
L 661.868428 39.296 
L 663.037824 50.200889 
L 664.206084 50.200889 
L 665.374911 51.564 
L 667.712594 67.921333 
L 671.21837 67.921333 
L 672.387436 87.004889 
L 673.556845 96.546667 
L 674.726352 96.546667 
L 675.89488 127.898222 
L 677.063404 146.981778 
L 678.233758 163.339111 
L 679.402413 163.339111 
L 680.571211 168.791556 
L 681.740507 176.970222 
L 682.909664 179.696444 
L 686.41585 179.696444 
L 687.584493 260.12 
L 748.542206 260.12 
L 749.691012 257.393778 
L 750.859327 257.393778 
L 752.027002 243.762667 
L 753.195165 223.316 
L 754.365405 216.500444 
L 755.533248 216.500444 
L 756.70354 208.321778 
L 759.042311 208.321778 
L 760.212436 197.416889 
L 762.553086 197.416889 
L 763.724222 193.327556 
L 767.230205 193.327556 
L 768.399155 189.238222 
L 769.568487 189.238222 
L 770.737549 191.964444 
L 771.906207 198.78 
L 773.074879 198.78 
L 774.243769 194.690667 
L 777.749816 194.690667 
L 778.917258 196.053778 
L 780.085791 196.053778 
L 781.254964 190.601333 
L 782.422968 200.143111 
L 783.591826 200.143111 
L 785.927765 202.869333 
L 787.096007 196.053778 
L 788.264673 196.053778 
L 789.433154 194.690667 
L 790.601859 197.416889 
L 791.771411 197.416889 
L 792.941491 190.601333 
L 794.110819 194.690667 
L 795.279649 194.690667 
L 796.448443 186.512 
L 797.617722 185.148889 
L 798.78534 185.148889 
L 799.953106 189.238222 
L 801.123416 182.422667 
L 802.291361 174.244 
L 803.459941 174.244 
L 804.628097 191.964444 
L 805.796851 191.964444 
L 806.965787 181.059556 
L 809.303794 146.981778 
L 810.474517 146.981778 
L 811.643023 133.350667 
L 812.811866 130.624444 
L 813.979827 130.624444 
L 815.148019 140.166222 
L 816.316386 137.44 
L 817.486486 131.987556 
L 818.655088 131.987556 
L 819.823053 123.808889 
L 820.993595 123.808889 
L 822.164106 108.814667 
L 823.332974 101.999111 
L 824.500781 97.909778 
L 825.672149 97.909778 
L 826.840718 96.546667 
L 828.00842 96.546667 
L 829.176652 95.183556 
L 830.345287 104.725333 
L 831.513314 119.719556 
L 832.681215 119.719556 
L 833.849489 121.082667 
L 835.017336 123.808889 
L 836.184837 123.808889 
L 837.35304 134.713778 
L 838.520737 140.166222 
L 839.689034 140.166222 
L 840.857003 155.160444 
L 842.02475 161.976 
L 843.195587 161.976 
L 844.363731 163.339111 
L 845.534078 167.428444 
L 846.704809 167.428444 
L 847.875889 179.696444 
L 849.046651 260.12 
L 914.603909 260.12 
L 915.771224 250.578222 
L 916.939121 246.488889 
L 918.109003 238.310222 
L 919.278972 238.310222 
L 921.614534 224.679111 
L 922.783462 224.679111 
L 923.95105 220.589778 
L 925.119198 211.048 
L 926.287322 211.048 
L 927.455267 206.958667 
L 928.622684 200.143111 
L 929.790101 200.143111 
L 930.957616 191.964444 
L 932.124911 186.512 
L 933.291975 186.512 
L 935.62759 178.333333 
L 936.795388 171.517778 
L 937.962776 171.517778 
L 939.132552 164.702222 
L 940.299678 164.702222 
L 941.469396 163.339111 
L 942.637783 151.071111 
L 943.806843 153.797333 
L 944.975066 153.797333 
L 946.142392 148.344889 
L 947.312252 146.981778 
L 948.482277 146.981778 
L 949.65024 149.708 
L 950.820176 153.797333 
L 951.98727 166.065333 
L 953.155242 166.065333 
L 954.322858 171.517778 
L 955.491216 171.517778 
L 956.659578 178.333333 
L 957.827332 176.970222 
L 960.164964 176.970222 
L 961.332372 178.333333 
L 962.502763 187.875111 
L 963.670729 187.875111 
L 964.837899 178.333333 
L 966.006123 178.333333 
L 967.175621 166.065333 
L 968.344075 176.970222 
L 969.513513 174.244 
L 971.849999 174.244 
L 973.016996 166.065333 
L 974.18677 166.065333 
L 975.357027 170.154667 
L 976.52625 168.791556 
L 977.695742 171.517778 
L 978.864838 171.517778 
L 980.034315 157.886667 
L 981.201458 167.428444 
L 982.371121 167.428444 
L 983.538856 164.702222 
L 984.708782 164.702222 
L 985.877214 156.523556 
L 987.044789 202.869333 
L 988.215192 202.869333 
L 989.38363 194.690667 
L 990.55317 191.964444 
L 991.723377 197.416889 
L 992.892992 197.416889 
L 995.229007 202.869333 
L 996.398506 209.684889 
L 997.565778 209.684889 
L 998.735545 208.321778 
L 999.903528 208.321778 
L 1001.07276 212.411111 
L 1002.242224 215.137333 
L 1004.579947 215.137333 
L 1005.747681 217.863556 
L 1006.917907 226.042222 
L 1009.252003 226.042222 
L 1010.420486 260.12 
L 1078.3146 260.12 
L 1079.484974 251.941333 
L 1080.656227 247.852 
L 1081.826109 235.584 
L 1082.996453 235.584 
L 1084.164458 212.411111 
L 1085.331866 205.595556 
L 1086.499522 205.595556 
L 1087.667985 187.875111 
L 1090.006563 156.523556 
L 1091.176398 156.523556 
L 1092.345948 138.803111 
L 1093.516409 138.803111 
L 1094.683888 126.535111 
L 1095.854219 137.44 
L 1097.051248 137.44 
L 1098.220711 141.529333 
L 1099.388348 137.44 
L 1100.5562 137.44 
L 1101.723836 141.529333 
L 1102.894082 148.344889 
L 1104.06177 145.618667 
L 1105.232926 145.618667 
L 1106.400623 144.255556 
L 1107.568649 130.624444 
L 1108.736345 130.624444 
L 1109.904544 127.898222 
L 1111.072213 131.987556 
L 1112.242202 131.987556 
L 1113.410334 137.44 
L 1114.577755 141.529333 
L 1115.745539 141.529333 
L 1116.912847 127.898222 
L 1118.080323 122.445778 
L 1119.248375 123.808889 
L 1120.418824 123.808889 
L 1121.589077 125.172 
L 1122.758627 130.624444 
L 1123.929062 130.624444 
L 1125.098885 136.076889 
L 1126.268255 138.803111 
L 1128.604442 138.803111 
L 1129.773228 163.339111 
L 1130.941678 163.339111 
L 1132.112226 182.422667 
L 1133.28 185.148889 
L 1133.28 185.148889 
" style="fill:none;stroke:#1f77b4;stroke-linecap:square;stroke-width:1.5;"/>
   </g>
   <g id="patch_3">
    <path d="M 33.64 260.12 
L 33.64 14.76 
" style="fill:none;stroke:#000000;stroke-linecap:square;stroke-linejoin:miter;stroke-width:0.8;"/>
   </g>
   <g id="patch_4">
    <path d="M 1133.28 260.12 
L 1133.28 14.76 
" style="fill:none;stroke:#000000;stroke-linecap:square;stroke-linejoin:miter;stroke-width:0.8;"/>
   </g>
   <g id="patch_5">
    <path d="M 33.64 260.12 
L 1133.28 260.12 
" style="fill:none;stroke:#000000;stroke-linecap:square;stroke-linejoin:miter;stroke-width:0.8;"/>
   </g>
   <g id="patch_6">
    <path d="M 33.64 14.76 
L 1133.28 14.76 
" style="fill:none;stroke:#000000;stroke-linecap:square;stroke-linejoin:miter;stroke-width:0.8;"/>
   </g>
  </g>
 </g>
 <defs>
  <clipPath id="pc069f09f86">
   <rect height="245.36" width="1099.64" x="33.64" y="14.76"/>
  </clipPath>
 </defs>
</svg>
