<?xml version="1.0" encoding="utf-8" standalone="no"?>
<!DOCTYPE svg PUBLIC "-//W3C//DTD SVG 1.1//EN"
  "http://www.w3.org/Graphics/SVG/1.1/DTD/svg11.dtd">
<!-- Created with matplotlib (https://matplotlib.org/) -->
<svg height="288pt" version="1.1" viewBox="0 0 1152 288" width="1152pt" xmlns="http://www.w3.org/2000/svg" xmlns:xlink="http://www.w3.org/1999/xlink">
 <defs>
  <style type="text/css">
*{stroke-linecap:butt;stroke-linejoin:round;}
  </style>
 </defs>
 <g id="figure_1">
  <g id="patch_1">
   <path d="M 0 288 
L 1152 288 
L 1152 0 
L 0 0 
z
" style="fill:#ffffff;"/>
  </g>
  <g id="axes_1">
   <g id="patch_2">
    <path d="M 33.64 260.12 
L 1133.28 260.12 
L 1133.28 14.76 
L 33.64 14.76 
z
" style="fill:#ffffff;"/>
   </g>
   <g id="matplotlib.axis_1">
    <g id="xtick_1">
     <g id="line2d_1">
      <defs>
       <path d="M 0 0 
L 0 3.5 
" id="m5d389fa680" style="stroke:#000000;stroke-width:0.8;"/>
      </defs>
      <g>
       <use style="stroke:#000000;stroke-width:0.8;" x="217.457267" xlink:href="#m5d389fa680" y="260.12"/>
      </g>
     </g>
     <g id="text_1">
      <!-- Tue 00:00 -->
      <defs>
       <path d="M -0.296875 72.90625 
L 61.375 72.90625 
L 61.375 64.59375 
L 35.5 64.59375 
L 35.5 0 
L 25.59375 0 
L 25.59375 64.59375 
L -0.296875 64.59375 
z
" id="DejaVuSans-84"/>
       <path d="M 8.5 21.578125 
L 8.5 54.6875 
L 17.484375 54.6875 
L 17.484375 21.921875 
Q 17.484375 14.15625 20.5 10.265625 
Q 23.53125 6.390625 29.59375 6.390625 
Q 36.859375 6.390625 41.078125 11.03125 
Q 45.3125 15.671875 45.3125 23.6875 
L 45.3125 54.6875 
L 54.296875 54.6875 
L 54.296875 0 
L 45.3125 0 
L 45.3125 8.40625 
Q 42.046875 3.421875 37.71875 1 
Q 33.40625 -1.421875 27.6875 -1.421875 
Q 18.265625 -1.421875 13.375 4.4375 
Q 8.5 10.296875 8.5 21.578125 
z
M 31.109375 56 
z
" id="DejaVuSans-117"/>
       <path d="M 56.203125 29.59375 
L 56.203125 25.203125 
L 14.890625 25.203125 
Q 15.484375 15.921875 20.484375 11.0625 
Q 25.484375 6.203125 34.421875 6.203125 
Q 39.59375 6.203125 44.453125 7.46875 
Q 49.3125 8.734375 54.109375 11.28125 
L 54.109375 2.78125 
Q 49.265625 0.734375 44.1875 -0.34375 
Q 39.109375 -1.421875 33.890625 -1.421875 
Q 20.796875 -1.421875 13.15625 6.1875 
Q 5.515625 13.8125 5.515625 26.8125 
Q 5.515625 40.234375 12.765625 48.109375 
Q 20.015625 56 32.328125 56 
Q 43.359375 56 49.78125 48.890625 
Q 56.203125 41.796875 56.203125 29.59375 
z
M 47.21875 32.234375 
Q 47.125 39.59375 43.09375 43.984375 
Q 39.0625 48.390625 32.421875 48.390625 
Q 24.90625 48.390625 20.390625 44.140625 
Q 15.875 39.890625 15.1875 32.171875 
z
" id="DejaVuSans-101"/>
       <path id="DejaVuSans-32"/>
       <path d="M 31.78125 66.40625 
Q 24.171875 66.40625 20.328125 58.90625 
Q 16.5 51.421875 16.5 36.375 
Q 16.5 21.390625 20.328125 13.890625 
Q 24.171875 6.390625 31.78125 6.390625 
Q 39.453125 6.390625 43.28125 13.890625 
Q 47.125 21.390625 47.125 36.375 
Q 47.125 51.421875 43.28125 58.90625 
Q 39.453125 66.40625 31.78125 66.40625 
z
M 31.78125 74.21875 
Q 44.046875 74.21875 50.515625 64.515625 
Q 56.984375 54.828125 56.984375 36.375 
Q 56.984375 17.96875 50.515625 8.265625 
Q 44.046875 -1.421875 31.78125 -1.421875 
Q 19.53125 -1.421875 13.0625 8.265625 
Q 6.59375 17.96875 6.59375 36.375 
Q 6.59375 54.828125 13.0625 64.515625 
Q 19.53125 74.21875 31.78125 74.21875 
z
" id="DejaVuSans-48"/>
       <path d="M 11.71875 12.40625 
L 22.015625 12.40625 
L 22.015625 0 
L 11.71875 0 
z
M 11.71875 51.703125 
L 22.015625 51.703125 
L 22.015625 39.3125 
L 11.71875 39.3125 
z
" id="DejaVuSans-58"/>
      </defs>
      <g transform="translate(192.17133 274.718437)scale(0.1 -0.1)">
       <use xlink:href="#DejaVuSans-84"/>
       <use x="60.849609" xlink:href="#DejaVuSans-117"/>
       <use x="124.228516" xlink:href="#DejaVuSans-101"/>
       <use x="185.751953" xlink:href="#DejaVuSans-32"/>
       <use x="217.539062" xlink:href="#DejaVuSans-48"/>
       <use x="281.162109" xlink:href="#DejaVuSans-48"/>
       <use x="344.785156" xlink:href="#DejaVuSans-58"/>
       <use x="378.476562" xlink:href="#DejaVuSans-48"/>
       <use x="442.099609" xlink:href="#DejaVuSans-48"/>
      </g>
     </g>
    </g>
    <g id="xtick_2">
     <g id="line2d_2">
      <g>
       <use style="stroke:#000000;stroke-width:0.8;" x="401.356856" xlink:href="#m5d389fa680" y="260.12"/>
      </g>
     </g>
     <g id="text_2">
      <!-- Wed 00:00 -->
      <defs>
       <path d="M 3.328125 72.90625 
L 13.28125 72.90625 
L 28.609375 11.28125 
L 43.890625 72.90625 
L 54.984375 72.90625 
L 70.3125 11.28125 
L 85.59375 72.90625 
L 95.609375 72.90625 
L 77.296875 0 
L 64.890625 0 
L 49.515625 63.28125 
L 33.984375 0 
L 21.578125 0 
z
" id="DejaVuSans-87"/>
       <path d="M 45.40625 46.390625 
L 45.40625 75.984375 
L 54.390625 75.984375 
L 54.390625 0 
L 45.40625 0 
L 45.40625 8.203125 
Q 42.578125 3.328125 38.25 0.953125 
Q 33.9375 -1.421875 27.875 -1.421875 
Q 17.96875 -1.421875 11.734375 6.484375 
Q 5.515625 14.40625 5.515625 27.296875 
Q 5.515625 40.1875 11.734375 48.09375 
Q 17.96875 56 27.875 56 
Q 33.9375 56 38.25 53.625 
Q 42.578125 51.265625 45.40625 46.390625 
z
M 14.796875 27.296875 
Q 14.796875 17.390625 18.875 11.75 
Q 22.953125 6.109375 30.078125 6.109375 
Q 37.203125 6.109375 41.296875 11.75 
Q 45.40625 17.390625 45.40625 27.296875 
Q 45.40625 37.203125 41.296875 42.84375 
Q 37.203125 48.484375 30.078125 48.484375 
Q 22.953125 48.484375 18.875 42.84375 
Q 14.796875 37.203125 14.796875 27.296875 
z
" id="DejaVuSans-100"/>
      </defs>
      <g transform="translate(374.167794 274.718437)scale(0.1 -0.1)">
       <use xlink:href="#DejaVuSans-87"/>
       <use x="98.798828" xlink:href="#DejaVuSans-101"/>
       <use x="160.322266" xlink:href="#DejaVuSans-100"/>
       <use x="223.798828" xlink:href="#DejaVuSans-32"/>
       <use x="255.585938" xlink:href="#DejaVuSans-48"/>
       <use x="319.208984" xlink:href="#DejaVuSans-48"/>
       <use x="382.832031" xlink:href="#DejaVuSans-58"/>
       <use x="416.523438" xlink:href="#DejaVuSans-48"/>
       <use x="480.146484" xlink:href="#DejaVuSans-48"/>
      </g>
     </g>
    </g>
    <g id="xtick_3">
     <g id="line2d_3">
      <g>
       <use style="stroke:#000000;stroke-width:0.8;" x="585.256445" xlink:href="#m5d389fa680" y="260.12"/>
      </g>
     </g>
     <g id="text_3">
      <!-- Thu 00:00 -->
      <defs>
       <path d="M 54.890625 33.015625 
L 54.890625 0 
L 45.90625 0 
L 45.90625 32.71875 
Q 45.90625 40.484375 42.875 44.328125 
Q 39.84375 48.1875 33.796875 48.1875 
Q 26.515625 48.1875 22.3125 43.546875 
Q 18.109375 38.921875 18.109375 30.90625 
L 18.109375 0 
L 9.078125 0 
L 9.078125 75.984375 
L 18.109375 75.984375 
L 18.109375 46.1875 
Q 21.34375 51.125 25.703125 53.5625 
Q 30.078125 56 35.796875 56 
Q 45.21875 56 50.046875 50.171875 
Q 54.890625 44.34375 54.890625 33.015625 
z
" id="DejaVuSans-104"/>
      </defs>
      <g transform="translate(559.866601 274.718437)scale(0.1 -0.1)">
       <use xlink:href="#DejaVuSans-84"/>
       <use x="61.083984" xlink:href="#DejaVuSans-104"/>
       <use x="124.462891" xlink:href="#DejaVuSans-117"/>
       <use x="187.841797" xlink:href="#DejaVuSans-32"/>
       <use x="219.628906" xlink:href="#DejaVuSans-48"/>
       <use x="283.251953" xlink:href="#DejaVuSans-48"/>
       <use x="346.875" xlink:href="#DejaVuSans-58"/>
       <use x="380.566406" xlink:href="#DejaVuSans-48"/>
       <use x="444.189453" xlink:href="#DejaVuSans-48"/>
      </g>
     </g>
    </g>
    <g id="xtick_4">
     <g id="line2d_4">
      <g>
       <use style="stroke:#000000;stroke-width:0.8;" x="769.156034" xlink:href="#m5d389fa680" y="260.12"/>
      </g>
     </g>
     <g id="text_4">
      <!-- Fri 00:00 -->
      <defs>
       <path d="M 9.8125 72.90625 
L 51.703125 72.90625 
L 51.703125 64.59375 
L 19.671875 64.59375 
L 19.671875 43.109375 
L 48.578125 43.109375 
L 48.578125 34.8125 
L 19.671875 34.8125 
L 19.671875 0 
L 9.8125 0 
z
" id="DejaVuSans-70"/>
       <path d="M 41.109375 46.296875 
Q 39.59375 47.171875 37.8125 47.578125 
Q 36.03125 48 33.890625 48 
Q 26.265625 48 22.1875 43.046875 
Q 18.109375 38.09375 18.109375 28.8125 
L 18.109375 0 
L 9.078125 0 
L 9.078125 54.6875 
L 18.109375 54.6875 
L 18.109375 46.1875 
Q 20.953125 51.171875 25.484375 53.578125 
Q 30.03125 56 36.53125 56 
Q 37.453125 56 38.578125 55.875 
Q 39.703125 55.765625 41.0625 55.515625 
z
" id="DejaVuSans-114"/>
       <path d="M 9.421875 54.6875 
L 18.40625 54.6875 
L 18.40625 0 
L 9.421875 0 
z
M 9.421875 75.984375 
L 18.40625 75.984375 
L 18.40625 64.59375 
L 9.421875 64.59375 
z
" id="DejaVuSans-105"/>
      </defs>
      <g transform="translate(746.842753 274.718437)scale(0.1 -0.1)">
       <use xlink:href="#DejaVuSans-70"/>
       <use x="57.410156" xlink:href="#DejaVuSans-114"/>
       <use x="98.523438" xlink:href="#DejaVuSans-105"/>
       <use x="126.306641" xlink:href="#DejaVuSans-32"/>
       <use x="158.09375" xlink:href="#DejaVuSans-48"/>
       <use x="221.716797" xlink:href="#DejaVuSans-48"/>
       <use x="285.339844" xlink:href="#DejaVuSans-58"/>
       <use x="319.03125" xlink:href="#DejaVuSans-48"/>
       <use x="382.654297" xlink:href="#DejaVuSans-48"/>
      </g>
     </g>
    </g>
    <g id="xtick_5">
     <g id="line2d_5">
      <g>
       <use style="stroke:#000000;stroke-width:0.8;" x="953.055623" xlink:href="#m5d389fa680" y="260.12"/>
      </g>
     </g>
     <g id="text_5">
      <!-- Sat 00:00 -->
      <defs>
       <path d="M 53.515625 70.515625 
L 53.515625 60.890625 
Q 47.90625 63.578125 42.921875 64.890625 
Q 37.9375 66.21875 33.296875 66.21875 
Q 25.25 66.21875 20.875 63.09375 
Q 16.5 59.96875 16.5 54.203125 
Q 16.5 49.359375 19.40625 46.890625 
Q 22.3125 44.4375 30.421875 42.921875 
L 36.375 41.703125 
Q 47.40625 39.59375 52.65625 34.296875 
Q 57.90625 29 57.90625 20.125 
Q 57.90625 9.515625 50.796875 4.046875 
Q 43.703125 -1.421875 29.984375 -1.421875 
Q 24.8125 -1.421875 18.96875 -0.25 
Q 13.140625 0.921875 6.890625 3.21875 
L 6.890625 13.375 
Q 12.890625 10.015625 18.65625 8.296875 
Q 24.421875 6.59375 29.984375 6.59375 
Q 38.421875 6.59375 43.015625 9.90625 
Q 47.609375 13.234375 47.609375 19.390625 
Q 47.609375 24.75 44.3125 27.78125 
Q 41.015625 30.8125 33.5 32.328125 
L 27.484375 33.5 
Q 16.453125 35.6875 11.515625 40.375 
Q 6.59375 45.0625 6.59375 53.421875 
Q 6.59375 63.09375 13.40625 68.65625 
Q 20.21875 74.21875 32.171875 74.21875 
Q 37.3125 74.21875 42.625 73.28125 
Q 47.953125 72.359375 53.515625 70.515625 
z
" id="DejaVuSans-83"/>
       <path d="M 34.28125 27.484375 
Q 23.390625 27.484375 19.1875 25 
Q 14.984375 22.515625 14.984375 16.5 
Q 14.984375 11.71875 18.140625 8.90625 
Q 21.296875 6.109375 26.703125 6.109375 
Q 34.1875 6.109375 38.703125 11.40625 
Q 43.21875 16.703125 43.21875 25.484375 
L 43.21875 27.484375 
z
M 52.203125 31.203125 
L 52.203125 0 
L 43.21875 0 
L 43.21875 8.296875 
Q 40.140625 3.328125 35.546875 0.953125 
Q 30.953125 -1.421875 24.3125 -1.421875 
Q 15.921875 -1.421875 10.953125 3.296875 
Q 6 8.015625 6 15.921875 
Q 6 25.140625 12.171875 29.828125 
Q 18.359375 34.515625 30.609375 34.515625 
L 43.21875 34.515625 
L 43.21875 35.40625 
Q 43.21875 41.609375 39.140625 45 
Q 35.0625 48.390625 27.6875 48.390625 
Q 23 48.390625 18.546875 47.265625 
Q 14.109375 46.140625 10.015625 43.890625 
L 10.015625 52.203125 
Q 14.9375 54.109375 19.578125 55.046875 
Q 24.21875 56 28.609375 56 
Q 40.484375 56 46.34375 49.84375 
Q 52.203125 43.703125 52.203125 31.203125 
z
" id="DejaVuSans-97"/>
       <path d="M 18.3125 70.21875 
L 18.3125 54.6875 
L 36.8125 54.6875 
L 36.8125 47.703125 
L 18.3125 47.703125 
L 18.3125 18.015625 
Q 18.3125 11.328125 20.140625 9.421875 
Q 21.96875 7.515625 27.59375 7.515625 
L 36.8125 7.515625 
L 36.8125 0 
L 27.59375 0 
Q 17.1875 0 13.234375 3.875 
Q 9.28125 7.765625 9.28125 18.015625 
L 9.28125 47.703125 
L 2.6875 47.703125 
L 2.6875 54.6875 
L 9.28125 54.6875 
L 9.28125 70.21875 
z
" id="DejaVuSans-116"/>
      </defs>
      <g transform="translate(928.858748 274.718437)scale(0.1 -0.1)">
       <use xlink:href="#DejaVuSans-83"/>
       <use x="63.476562" xlink:href="#DejaVuSans-97"/>
       <use x="124.755859" xlink:href="#DejaVuSans-116"/>
       <use x="163.964844" xlink:href="#DejaVuSans-32"/>
       <use x="195.751953" xlink:href="#DejaVuSans-48"/>
       <use x="259.375" xlink:href="#DejaVuSans-48"/>
       <use x="322.998047" xlink:href="#DejaVuSans-58"/>
       <use x="356.689453" xlink:href="#DejaVuSans-48"/>
       <use x="420.3125" xlink:href="#DejaVuSans-48"/>
      </g>
     </g>
    </g>
   </g>
   <g id="matplotlib.axis_2">
    <g id="ytick_1">
     <g id="line2d_6">
      <defs>
       <path d="M 0 0 
L -3.5 0 
" id="mbc129a7134" style="stroke:#000000;stroke-width:0.8;"/>
      </defs>
      <g>
       <use style="stroke:#000000;stroke-width:0.8;" x="33.64" xlink:href="#mbc129a7134" y="260.12"/>
      </g>
     </g>
     <g id="text_6">
      <!-- 0 -->
      <g transform="translate(20.2775 263.919219)scale(0.1 -0.1)">
       <use xlink:href="#DejaVuSans-48"/>
      </g>
     </g>
    </g>
    <g id="ytick_2">
     <g id="line2d_7">
      <g>
       <use style="stroke:#000000;stroke-width:0.8;" x="33.64" xlink:href="#mbc129a7134" y="232.857778"/>
      </g>
     </g>
     <g id="text_7">
      <!-- 20 -->
      <defs>
       <path d="M 19.1875 8.296875 
L 53.609375 8.296875 
L 53.609375 0 
L 7.328125 0 
L 7.328125 8.296875 
Q 12.9375 14.109375 22.625 23.890625 
Q 32.328125 33.6875 34.8125 36.53125 
Q 39.546875 41.84375 41.421875 45.53125 
Q 43.3125 49.21875 43.3125 52.78125 
Q 43.3125 58.59375 39.234375 62.25 
Q 35.15625 65.921875 28.609375 65.921875 
Q 23.96875 65.921875 18.8125 64.3125 
Q 13.671875 62.703125 7.8125 59.421875 
L 7.8125 69.390625 
Q 13.765625 71.78125 18.9375 73 
Q 24.125 74.21875 28.421875 74.21875 
Q 39.75 74.21875 46.484375 68.546875 
Q 53.21875 62.890625 53.21875 53.421875 
Q 53.21875 48.921875 51.53125 44.890625 
Q 49.859375 40.875 45.40625 35.40625 
Q 44.1875 33.984375 37.640625 27.21875 
Q 31.109375 20.453125 19.1875 8.296875 
z
" id="DejaVuSans-50"/>
      </defs>
      <g transform="translate(13.915 236.656997)scale(0.1 -0.1)">
       <use xlink:href="#DejaVuSans-50"/>
       <use x="63.623047" xlink:href="#DejaVuSans-48"/>
      </g>
     </g>
    </g>
    <g id="ytick_3">
     <g id="line2d_8">
      <g>
       <use style="stroke:#000000;stroke-width:0.8;" x="33.64" xlink:href="#mbc129a7134" y="205.595556"/>
      </g>
     </g>
     <g id="text_8">
      <!-- 40 -->
      <defs>
       <path d="M 37.796875 64.3125 
L 12.890625 25.390625 
L 37.796875 25.390625 
z
M 35.203125 72.90625 
L 47.609375 72.90625 
L 47.609375 25.390625 
L 58.015625 25.390625 
L 58.015625 17.1875 
L 47.609375 17.1875 
L 47.609375 0 
L 37.796875 0 
L 37.796875 17.1875 
L 4.890625 17.1875 
L 4.890625 26.703125 
z
" id="DejaVuSans-52"/>
      </defs>
      <g transform="translate(13.915 209.394774)scale(0.1 -0.1)">
       <use xlink:href="#DejaVuSans-52"/>
       <use x="63.623047" xlink:href="#DejaVuSans-48"/>
      </g>
     </g>
    </g>
    <g id="ytick_4">
     <g id="line2d_9">
      <g>
       <use style="stroke:#000000;stroke-width:0.8;" x="33.64" xlink:href="#mbc129a7134" y="178.333333"/>
      </g>
     </g>
     <g id="text_9">
      <!-- 60 -->
      <defs>
       <path d="M 33.015625 40.375 
Q 26.375 40.375 22.484375 35.828125 
Q 18.609375 31.296875 18.609375 23.390625 
Q 18.609375 15.53125 22.484375 10.953125 
Q 26.375 6.390625 33.015625 6.390625 
Q 39.65625 6.390625 43.53125 10.953125 
Q 47.40625 15.53125 47.40625 23.390625 
Q 47.40625 31.296875 43.53125 35.828125 
Q 39.65625 40.375 33.015625 40.375 
z
M 52.59375 71.296875 
L 52.59375 62.3125 
Q 48.875 64.0625 45.09375 64.984375 
Q 41.3125 65.921875 37.59375 65.921875 
Q 27.828125 65.921875 22.671875 59.328125 
Q 17.53125 52.734375 16.796875 39.40625 
Q 19.671875 43.65625 24.015625 45.921875 
Q 28.375 48.1875 33.59375 48.1875 
Q 44.578125 48.1875 50.953125 41.515625 
Q 57.328125 34.859375 57.328125 23.390625 
Q 57.328125 12.15625 50.6875 5.359375 
Q 44.046875 -1.421875 33.015625 -1.421875 
Q 20.359375 -1.421875 13.671875 8.265625 
Q 6.984375 17.96875 6.984375 36.375 
Q 6.984375 53.65625 15.1875 63.9375 
Q 23.390625 74.21875 37.203125 74.21875 
Q 40.921875 74.21875 44.703125 73.484375 
Q 48.484375 72.75 52.59375 71.296875 
z
" id="DejaVuSans-54"/>
      </defs>
      <g transform="translate(13.915 182.132552)scale(0.1 -0.1)">
       <use xlink:href="#DejaVuSans-54"/>
       <use x="63.623047" xlink:href="#DejaVuSans-48"/>
      </g>
     </g>
    </g>
    <g id="ytick_5">
     <g id="line2d_10">
      <g>
       <use style="stroke:#000000;stroke-width:0.8;" x="33.64" xlink:href="#mbc129a7134" y="151.071111"/>
      </g>
     </g>
     <g id="text_10">
      <!-- 80 -->
      <defs>
       <path d="M 31.78125 34.625 
Q 24.75 34.625 20.71875 30.859375 
Q 16.703125 27.09375 16.703125 20.515625 
Q 16.703125 13.921875 20.71875 10.15625 
Q 24.75 6.390625 31.78125 6.390625 
Q 38.8125 6.390625 42.859375 10.171875 
Q 46.921875 13.96875 46.921875 20.515625 
Q 46.921875 27.09375 42.890625 30.859375 
Q 38.875 34.625 31.78125 34.625 
z
M 21.921875 38.8125 
Q 15.578125 40.375 12.03125 44.71875 
Q 8.5 49.078125 8.5 55.328125 
Q 8.5 64.0625 14.71875 69.140625 
Q 20.953125 74.21875 31.78125 74.21875 
Q 42.671875 74.21875 48.875 69.140625 
Q 55.078125 64.0625 55.078125 55.328125 
Q 55.078125 49.078125 51.53125 44.71875 
Q 48 40.375 41.703125 38.8125 
Q 48.828125 37.15625 52.796875 32.3125 
Q 56.78125 27.484375 56.78125 20.515625 
Q 56.78125 9.90625 50.3125 4.234375 
Q 43.84375 -1.421875 31.78125 -1.421875 
Q 19.734375 -1.421875 13.25 4.234375 
Q 6.78125 9.90625 6.78125 20.515625 
Q 6.78125 27.484375 10.78125 32.3125 
Q 14.796875 37.15625 21.921875 38.8125 
z
M 18.3125 54.390625 
Q 18.3125 48.734375 21.84375 45.5625 
Q 25.390625 42.390625 31.78125 42.390625 
Q 38.140625 42.390625 41.71875 45.5625 
Q 45.3125 48.734375 45.3125 54.390625 
Q 45.3125 60.0625 41.71875 63.234375 
Q 38.140625 66.40625 31.78125 66.40625 
Q 25.390625 66.40625 21.84375 63.234375 
Q 18.3125 60.0625 18.3125 54.390625 
z
" id="DejaVuSans-56"/>
      </defs>
      <g transform="translate(13.915 154.87033)scale(0.1 -0.1)">
       <use xlink:href="#DejaVuSans-56"/>
       <use x="63.623047" xlink:href="#DejaVuSans-48"/>
      </g>
     </g>
    </g>
    <g id="ytick_6">
     <g id="line2d_11">
      <g>
       <use style="stroke:#000000;stroke-width:0.8;" x="33.64" xlink:href="#mbc129a7134" y="123.808889"/>
      </g>
     </g>
     <g id="text_11">
      <!-- 100 -->
      <defs>
       <path d="M 12.40625 8.296875 
L 28.515625 8.296875 
L 28.515625 63.921875 
L 10.984375 60.40625 
L 10.984375 69.390625 
L 28.421875 72.90625 
L 38.28125 72.90625 
L 38.28125 8.296875 
L 54.390625 8.296875 
L 54.390625 0 
L 12.40625 0 
z
" id="DejaVuSans-49"/>
      </defs>
      <g transform="translate(7.5525 127.608108)scale(0.1 -0.1)">
       <use xlink:href="#DejaVuSans-49"/>
       <use x="63.623047" xlink:href="#DejaVuSans-48"/>
       <use x="127.246094" xlink:href="#DejaVuSans-48"/>
      </g>
     </g>
    </g>
    <g id="ytick_7">
     <g id="line2d_12">
      <g>
       <use style="stroke:#000000;stroke-width:0.8;" x="33.64" xlink:href="#mbc129a7134" y="96.546667"/>
      </g>
     </g>
     <g id="text_12">
      <!-- 120 -->
      <g transform="translate(7.5525 100.345885)scale(0.1 -0.1)">
       <use xlink:href="#DejaVuSans-49"/>
       <use x="63.623047" xlink:href="#DejaVuSans-50"/>
       <use x="127.246094" xlink:href="#DejaVuSans-48"/>
      </g>
     </g>
    </g>
    <g id="ytick_8">
     <g id="line2d_13">
      <g>
       <use style="stroke:#000000;stroke-width:0.8;" x="33.64" xlink:href="#mbc129a7134" y="69.284444"/>
      </g>
     </g>
     <g id="text_13">
      <!-- 140 -->
      <g transform="translate(7.5525 73.083663)scale(0.1 -0.1)">
       <use xlink:href="#DejaVuSans-49"/>
       <use x="63.623047" xlink:href="#DejaVuSans-52"/>
       <use x="127.246094" xlink:href="#DejaVuSans-48"/>
      </g>
     </g>
    </g>
    <g id="ytick_9">
     <g id="line2d_14">
      <g>
       <use style="stroke:#000000;stroke-width:0.8;" x="33.64" xlink:href="#mbc129a7134" y="42.022222"/>
      </g>
     </g>
     <g id="text_14">
      <!-- 160 -->
      <g transform="translate(7.5525 45.821441)scale(0.1 -0.1)">
       <use xlink:href="#DejaVuSans-49"/>
       <use x="63.623047" xlink:href="#DejaVuSans-54"/>
       <use x="127.246094" xlink:href="#DejaVuSans-48"/>
      </g>
     </g>
    </g>
    <g id="ytick_10">
     <g id="line2d_15">
      <g>
       <use style="stroke:#000000;stroke-width:0.8;" x="33.64" xlink:href="#mbc129a7134" y="14.76"/>
      </g>
     </g>
     <g id="text_15">
      <!-- 180 -->
      <g transform="translate(7.5525 18.559219)scale(0.1 -0.1)">
       <use xlink:href="#DejaVuSans-49"/>
       <use x="63.623047" xlink:href="#DejaVuSans-56"/>
       <use x="127.246094" xlink:href="#DejaVuSans-48"/>
      </g>
     </g>
    </g>
   </g>
   <g id="line2d_16">
    <path clip-path="url(#p5cae2715ee)" d="M 33.64 260.12 
L 102.127961 260.12 
L 103.420089 257.393778 
L 104.737533 257.393778 
L 106.050722 253.304444 
L 107.363679 251.941333 
L 108.679699 249.215111 
L 109.994014 249.215111 
L 111.310181 246.488889 
L 112.624625 242.399556 
L 113.938241 242.399556 
L 115.252515 236.947111 
L 116.568454 235.584 
L 117.883608 235.584 
L 119.199645 232.857778 
L 120.512673 228.768444 
L 123.140927 228.768444 
L 124.454159 224.679111 
L 125.768808 221.952889 
L 127.08347 221.952889 
L 128.400494 219.226667 
L 129.715334 219.226667 
L 131.031102 221.952889 
L 132.34403 228.768444 
L 134.969702 228.768444 
L 137.596039 239.673333 
L 138.913457 239.673333 
L 140.228554 238.310222 
L 141.544816 235.584 
L 142.857735 235.584 
L 144.170764 227.405333 
L 145.483411 226.042222 
L 146.796981 223.316 
L 148.109933 223.316 
L 149.425652 221.952889 
L 152.052763 221.952889 
L 153.368283 209.684889 
L 154.681241 209.684889 
L 155.995458 208.321778 
L 157.308936 198.78 
L 158.625508 197.416889 
L 159.938939 197.416889 
L 161.252324 191.964444 
L 163.879518 191.964444 
L 165.195514 187.875111 
L 166.508557 189.238222 
L 167.821938 189.238222 
L 169.135206 174.244 
L 170.449006 166.065333 
L 171.763387 166.065333 
L 173.07909 141.529333 
L 174.395477 126.535111 
L 175.710424 126.535111 
L 179.657313 63.832 
L 180.973538 63.832 
L 182.289401 61.105778 
L 183.605104 61.105778 
L 184.921259 57.016444 
L 186.238349 76.1 
L 187.555183 84.278667 
L 188.871437 84.278667 
L 190.18541 87.004889 
L 192.812319 87.004889 
L 194.126478 92.457333 
L 195.440073 100.636 
L 196.755804 101.999111 
L 198.07156 101.999111 
L 199.385113 116.993333 
L 200.698922 116.993333 
L 202.01337 133.350667 
L 203.327373 157.886667 
L 204.641615 166.065333 
L 205.956305 166.065333 
L 207.269881 176.970222 
L 208.58391 190.601333 
L 211.214518 190.601333 
L 212.528925 260.12 
L 286.273297 260.12 
L 287.565452 258.756889 
L 288.879611 245.125778 
L 290.192986 245.125778 
L 291.505586 236.947111 
L 292.822102 236.947111 
L 294.135703 232.857778 
L 295.449085 227.405333 
L 296.762431 227.405333 
L 298.077105 224.679111 
L 299.39231 223.316 
L 303.337472 223.316 
L 304.650797 227.405333 
L 305.967169 227.405333 
L 307.286175 234.220889 
L 308.599514 235.584 
L 311.230677 235.584 
L 312.546598 232.857778 
L 313.861528 232.857778 
L 315.174572 228.768444 
L 316.487931 234.220889 
L 317.800579 231.494667 
L 319.117836 231.494667 
L 320.43091 232.857778 
L 321.743941 230.131556 
L 323.057417 230.131556 
L 324.370642 228.768444 
L 326.99939 215.137333 
L 328.313347 215.137333 
L 329.627195 204.232444 
L 330.940422 204.232444 
L 332.254543 208.321778 
L 333.567642 204.232444 
L 334.880506 204.232444 
L 336.19342 202.869333 
L 337.506347 206.958667 
L 338.821896 206.958667 
L 340.145784 201.506222 
L 341.460865 202.869333 
L 342.774174 193.327556 
L 344.088028 193.327556 
L 345.402818 179.696444 
L 346.719168 168.791556 
L 348.033726 168.791556 
L 349.350425 152.434222 
L 350.666944 130.624444 
L 351.97973 121.082667 
L 353.294401 121.082667 
L 354.607864 104.725333 
L 355.921937 99.272889 
L 357.235655 99.272889 
L 358.550116 82.915556 
L 359.865641 82.915556 
L 361.179217 69.284444 
L 362.493947 63.832 
L 363.808219 51.564 
L 365.122553 51.564 
L 366.436027 58.379556 
L 367.75039 37.932889 
L 369.065832 37.932889 
L 370.379061 46.111556 
L 371.693257 32.480444 
L 373.007448 32.480444 
L 374.321616 36.569778 
L 375.634572 31.117333 
L 376.94894 31.117333 
L 378.26337 29.754222 
L 379.579348 44.748444 
L 380.89351 63.832 
L 382.207952 63.832 
L 383.521919 77.463111 
L 384.838461 92.457333 
L 386.151982 92.457333 
L 387.465787 101.999111 
L 388.77994 108.814667 
L 390.093676 108.814667 
L 391.408708 134.713778 
L 392.723083 136.076889 
L 394.036847 136.076889 
L 395.351375 142.892444 
L 396.665501 260.12 
L 470.409141 260.12 
L 471.722772 258.756889 
L 473.036359 246.488889 
L 474.352109 246.488889 
L 475.665032 235.584 
L 476.978483 228.768444 
L 478.292645 220.589778 
L 479.605947 220.589778 
L 480.92046 215.137333 
L 482.236111 215.137333 
L 484.86566 204.232444 
L 486.181423 211.048 
L 487.495855 211.048 
L 490.12462 205.595556 
L 491.438454 205.595556 
L 492.752786 211.048 
L 494.067072 211.048 
L 495.382971 224.679111 
L 496.696619 224.679111 
L 498.010797 220.589778 
L 499.324629 220.589778 
L 500.643292 223.316 
L 501.957018 221.952889 
L 503.273451 221.952889 
L 504.588773 227.405333 
L 505.902919 223.316 
L 507.217071 223.316 
L 509.848636 215.137333 
L 511.164072 215.137333 
L 512.479805 212.411111 
L 513.794368 211.048 
L 515.108754 205.595556 
L 516.422617 205.595556 
L 517.737561 201.506222 
L 519.051545 200.143111 
L 520.365484 200.143111 
L 521.679755 197.416889 
L 522.99422 198.78 
L 524.30863 198.78 
L 525.622752 189.238222 
L 526.936838 183.785778 
L 528.251763 174.244 
L 529.564786 175.607111 
L 530.883751 172.880889 
L 532.19842 172.880889 
L 533.513615 167.428444 
L 534.831634 152.434222 
L 536.145026 144.255556 
L 537.458256 144.255556 
L 538.772564 121.082667 
L 540.087389 103.362222 
L 541.402134 103.362222 
L 542.718923 76.1 
L 544.032898 54.290222 
L 545.345605 54.290222 
L 546.658833 35.206667 
L 547.975874 32.480444 
L 549.289173 32.480444 
L 550.602656 28.391111 
L 551.918247 39.296 
L 553.23471 39.296 
L 554.547527 40.659111 
L 555.863583 54.290222 
L 557.183481 63.832 
L 558.49821 63.832 
L 561.130093 108.814667 
L 562.447111 108.814667 
L 563.762829 126.535111 
L 565.077669 141.529333 
L 566.392248 160.612889 
L 567.706876 160.612889 
L 569.020666 172.880889 
L 570.33501 172.880889 
L 571.651205 189.238222 
L 574.281073 200.143111 
L 575.595799 200.143111 
L 576.910934 201.506222 
L 582.16786 201.506222 
L 583.482952 260.12 
L 653.317364 260.12 
L 654.609859 257.393778 
L 655.923625 257.393778 
L 657.239721 249.215111 
L 658.552864 249.215111 
L 659.865626 247.852 
L 661.17839 239.673333 
L 663.805446 239.673333 
L 666.43501 234.220889 
L 667.748103 234.220889 
L 669.061592 238.310222 
L 670.375363 239.673333 
L 671.688084 239.673333 
L 674.315106 236.947111 
L 675.628381 236.947111 
L 676.942176 235.584 
L 678.255792 231.494667 
L 679.568526 232.857778 
L 682.19875 232.857778 
L 683.511761 234.220889 
L 684.82625 234.220889 
L 686.139119 227.405333 
L 687.453024 223.316 
L 688.766403 223.316 
L 690.082339 217.863556 
L 692.70959 217.863556 
L 694.023111 215.137333 
L 695.337717 217.863556 
L 696.653928 217.863556 
L 697.968097 228.768444 
L 699.284567 226.042222 
L 700.600246 219.226667 
L 701.913702 219.226667 
L 703.227995 215.137333 
L 704.543953 209.684889 
L 705.859012 209.684889 
L 707.172724 206.958667 
L 708.491032 206.958667 
L 709.806927 201.506222 
L 711.120744 204.232444 
L 712.436647 190.601333 
L 713.750501 190.601333 
L 715.064714 171.517778 
L 716.379676 161.976 
L 717.695114 161.976 
L 719.010965 144.255556 
L 720.325656 122.445778 
L 721.64148 122.445778 
L 722.955601 100.636 
L 724.269853 101.999111 
L 725.584173 91.094222 
L 726.899839 91.094222 
L 728.213708 88.368 
L 729.527798 72.010667 
L 730.841999 72.010667 
L 732.156346 50.200889 
L 733.47101 35.206667 
L 734.785482 35.206667 
L 736.099786 40.659111 
L 737.413823 31.117333 
L 738.728362 31.117333 
L 740.0429 39.296 
L 741.357811 50.200889 
L 742.671445 50.200889 
L 743.985718 51.564 
L 746.614293 67.921333 
L 750.556315 67.921333 
L 751.870856 87.004889 
L 753.185782 96.546667 
L 754.500818 96.546667 
L 755.814753 127.898222 
L 757.128685 146.981778 
L 758.444673 163.339111 
L 759.758752 163.339111 
L 761.07299 168.791556 
L 762.387789 176.970222 
L 763.702432 179.696444 
L 767.644915 179.696444 
L 768.958979 260.12 
L 837.502049 260.12 
L 838.793809 257.393778 
L 840.107505 257.393778 
L 841.420481 243.762667 
L 842.734006 223.316 
L 844.049866 216.500444 
L 845.363031 216.500444 
L 846.678951 208.321778 
L 849.30875 208.321778 
L 850.624481 197.416889 
L 853.256393 197.416889 
L 854.573261 193.327556 
L 858.515515 193.327556 
L 859.829925 189.238222 
L 861.144765 189.238222 
L 862.459301 191.964444 
L 863.773382 198.78 
L 865.08748 198.78 
L 866.401822 194.690667 
L 870.344149 194.690667 
L 871.656864 196.053778 
L 872.970804 196.053778 
L 874.285465 190.601333 
L 875.598811 200.143111 
L 876.913117 200.143111 
L 879.539732 202.869333 
L 880.853346 196.053778 
L 882.167437 196.053778 
L 883.48132 194.690667 
L 884.795454 197.416889 
L 886.11054 197.416889 
L 887.426221 190.601333 
L 888.741057 194.690667 
L 890.055331 194.690667 
L 891.369565 186.512 
L 892.684346 185.148889 
L 893.997257 185.148889 
L 895.310336 189.238222 
L 896.626276 182.422667 
L 897.939555 174.244 
L 899.253549 174.244 
L 900.567066 191.964444 
L 901.881256 191.964444 
L 903.19565 181.059556 
L 905.82459 146.981778 
L 907.140993 146.981778 
L 908.454904 133.350667 
L 909.769193 130.624444 
L 911.082492 130.624444 
L 912.396049 140.166222 
L 913.709804 137.44 
L 915.025507 131.987556 
L 916.339525 131.987556 
L 917.652827 123.808889 
L 918.969028 123.808889 
L 920.285193 108.814667 
L 921.59951 101.999111 
L 922.912634 97.909778 
L 924.229764 97.909778 
L 925.543746 96.546667 
L 926.856752 96.546667 
L 928.170355 95.183556 
L 929.48441 104.725333 
L 930.797783 119.719556 
L 932.111013 119.719556 
L 933.424663 121.082667 
L 934.737832 123.808889 
L 936.050613 123.808889 
L 937.364183 134.713778 
L 938.677183 140.166222 
L 939.99086 140.166222 
L 941.304166 155.160444 
L 942.617223 161.976 
L 943.933755 161.976 
L 945.247259 163.339111 
L 946.563239 167.428444 
L 947.879652 167.428444 
L 949.196457 179.696444 
L 950.512904 260.12 
L 1024.22787 260.12 
L 1025.540442 250.578222 
L 1026.853667 246.488889 
L 1028.169126 238.310222 
L 1029.484681 238.310222 
L 1032.110872 224.679111 
L 1033.425257 224.679111 
L 1034.738135 220.589778 
L 1036.051644 211.048 
L 1037.365125 211.048 
L 1038.678405 206.958667 
L 1039.991091 200.143111 
L 1041.303777 200.143111 
L 1042.616574 191.964444 
L 1043.929122 186.512 
L 1045.241412 186.512 
L 1047.867662 178.333333 
L 1049.180776 171.517778 
L 1050.49343 171.517778 
L 1051.808768 164.702222 
L 1053.121128 164.702222 
L 1054.436402 163.339111 
L 1055.750179 151.071111 
L 1057.064712 153.797333 
L 1058.378304 153.797333 
L 1059.690888 148.344889 
L 1061.006322 146.981778 
L 1062.32194 146.981778 
L 1063.63524 149.708 
L 1064.950758 153.797333 
L 1066.263081 166.065333 
L 1067.576391 166.065333 
L 1068.889302 171.517778 
L 1070.203045 171.517778 
L 1071.516794 178.333333 
L 1072.82986 176.970222 
L 1075.458378 176.970222 
L 1076.771054 178.333333 
L 1078.087085 187.875111 
L 1079.400388 187.875111 
L 1080.712796 178.333333 
L 1082.02639 178.333333 
L 1083.341416 166.065333 
L 1084.655268 176.970222 
L 1085.970227 174.244 
L 1088.597456 174.244 
L 1089.909671 166.065333 
L 1091.225006 166.065333 
L 1092.540886 170.154667 
L 1093.855603 168.791556 
L 1095.170622 171.517778 
L 1096.485197 171.517778 
L 1097.800199 157.886667 
L 1099.112577 167.428444 
L 1100.427789 167.428444 
L 1101.740833 164.702222 
L 1103.05634 164.702222 
L 1104.370168 156.523556 
L 1105.683032 202.869333 
L 1106.999075 202.869333 
L 1108.312909 194.690667 
L 1109.627983 191.964444 
L 1110.943806 197.416889 
L 1112.258963 197.416889 
L 1114.885664 202.869333 
L 1116.200691 209.684889 
L 1117.513214 209.684889 
L 1118.828543 208.321778 
L 1120.141865 208.321778 
L 1121.456593 212.411111 
L 1122.77158 215.137333 
L 1125.400201 215.137333 
L 1126.713243 217.863556 
L 1128.029088 226.042222 
L 1130.65363 226.042222 
L 1131.967515 260.12 
L 1133.28 260.12 
L 1133.28 260.12 
" style="fill:none;stroke:#1f77b4;stroke-linecap:square;stroke-width:1.5;"/>
   </g>
   <g id="patch_3">
    <path d="M 33.64 260.12 
L 33.64 14.76 
" style="fill:none;stroke:#000000;stroke-linecap:square;stroke-linejoin:miter;stroke-width:0.8;"/>
   </g>
   <g id="patch_4">
    <path d="M 1133.28 260.12 
L 1133.28 14.76 
" style="fill:none;stroke:#000000;stroke-linecap:square;stroke-linejoin:miter;stroke-width:0.8;"/>
   </g>
   <g id="patch_5">
    <path d="M 33.64 260.12 
L 1133.28 260.12 
" style="fill:none;stroke:#000000;stroke-linecap:square;stroke-linejoin:miter;stroke-width:0.8;"/>
   </g>
   <g id="patch_6">
    <path d="M 33.64 14.76 
L 1133.28 14.76 
" style="fill:none;stroke:#000000;stroke-linecap:square;stroke-linejoin:miter;stroke-width:0.8;"/>
   </g>
  </g>
 </g>
 <defs>
  <clipPath id="p5cae2715ee">
   <rect height="245.36" width="1099.64" x="33.64" y="14.76"/>
  </clipPath>
 </defs>
</svg>
