<?xml version="1.0" encoding="utf-8" standalone="no"?>
<!DOCTYPE svg PUBLIC "-//W3C//DTD SVG 1.1//EN"
  "http://www.w3.org/Graphics/SVG/1.1/DTD/svg11.dtd">
<!-- Created with matplotlib (https://matplotlib.org/) -->
<svg height="288pt" version="1.1" viewBox="0 0 1152 288" width="1152pt" xmlns="http://www.w3.org/2000/svg" xmlns:xlink="http://www.w3.org/1999/xlink">
 <defs>
  <style type="text/css">
*{stroke-linecap:butt;stroke-linejoin:round;}
  </style>
 </defs>
 <g id="figure_1">
  <g id="patch_1">
   <path d="M 0 288 
L 1152 288 
L 1152 0 
L 0 0 
z
" style="fill:#ffffff;"/>
  </g>
  <g id="axes_1">
   <g id="patch_2">
    <path d="M 33.64 260.12 
L 1133.28 260.12 
L 1133.28 14.76 
L 33.64 14.76 
z
" style="fill:#ffffff;"/>
   </g>
   <g id="matplotlib.axis_1">
    <g id="xtick_1">
     <g id="line2d_1">
      <defs>
       <path d="M 0 0 
L 0 3.5 
" id="mf7a071a893" style="stroke:#000000;stroke-width:0.8;"/>
      </defs>
      <g>
       <use style="stroke:#000000;stroke-width:0.8;" x="201.026402" xlink:href="#mf7a071a893" y="260.12"/>
      </g>
     </g>
     <g id="text_1">
      <!-- Tue 00:00 -->
      <defs>
       <path d="M -0.296875 72.90625 
L 61.375 72.90625 
L 61.375 64.59375 
L 35.5 64.59375 
L 35.5 0 
L 25.59375 0 
L 25.59375 64.59375 
L -0.296875 64.59375 
z
" id="DejaVuSans-84"/>
       <path d="M 8.5 21.578125 
L 8.5 54.6875 
L 17.484375 54.6875 
L 17.484375 21.921875 
Q 17.484375 14.15625 20.5 10.265625 
Q 23.53125 6.390625 29.59375 6.390625 
Q 36.859375 6.390625 41.078125 11.03125 
Q 45.3125 15.671875 45.3125 23.6875 
L 45.3125 54.6875 
L 54.296875 54.6875 
L 54.296875 0 
L 45.3125 0 
L 45.3125 8.40625 
Q 42.046875 3.421875 37.71875 1 
Q 33.40625 -1.421875 27.6875 -1.421875 
Q 18.265625 -1.421875 13.375 4.4375 
Q 8.5 10.296875 8.5 21.578125 
z
M 31.109375 56 
z
" id="DejaVuSans-117"/>
       <path d="M 56.203125 29.59375 
L 56.203125 25.203125 
L 14.890625 25.203125 
Q 15.484375 15.921875 20.484375 11.0625 
Q 25.484375 6.203125 34.421875 6.203125 
Q 39.59375 6.203125 44.453125 7.46875 
Q 49.3125 8.734375 54.109375 11.28125 
L 54.109375 2.78125 
Q 49.265625 0.734375 44.1875 -0.34375 
Q 39.109375 -1.421875 33.890625 -1.421875 
Q 20.796875 -1.421875 13.15625 6.1875 
Q 5.515625 13.8125 5.515625 26.8125 
Q 5.515625 40.234375 12.765625 48.109375 
Q 20.015625 56 32.328125 56 
Q 43.359375 56 49.78125 48.890625 
Q 56.203125 41.796875 56.203125 29.59375 
z
M 47.21875 32.234375 
Q 47.125 39.59375 43.09375 43.984375 
Q 39.0625 48.390625 32.421875 48.390625 
Q 24.90625 48.390625 20.390625 44.140625 
Q 15.875 39.890625 15.1875 32.171875 
z
" id="DejaVuSans-101"/>
       <path id="DejaVuSans-32"/>
       <path d="M 31.78125 66.40625 
Q 24.171875 66.40625 20.328125 58.90625 
Q 16.5 51.421875 16.5 36.375 
Q 16.5 21.390625 20.328125 13.890625 
Q 24.171875 6.390625 31.78125 6.390625 
Q 39.453125 6.390625 43.28125 13.890625 
Q 47.125 21.390625 47.125 36.375 
Q 47.125 51.421875 43.28125 58.90625 
Q 39.453125 66.40625 31.78125 66.40625 
z
M 31.78125 74.21875 
Q 44.046875 74.21875 50.515625 64.515625 
Q 56.984375 54.828125 56.984375 36.375 
Q 56.984375 17.96875 50.515625 8.265625 
Q 44.046875 -1.421875 31.78125 -1.421875 
Q 19.53125 -1.421875 13.0625 8.265625 
Q 6.59375 17.96875 6.59375 36.375 
Q 6.59375 54.828125 13.0625 64.515625 
Q 19.53125 74.21875 31.78125 74.21875 
z
" id="DejaVuSans-48"/>
       <path d="M 11.71875 12.40625 
L 22.015625 12.40625 
L 22.015625 0 
L 11.71875 0 
z
M 11.71875 51.703125 
L 22.015625 51.703125 
L 22.015625 39.3125 
L 11.71875 39.3125 
z
" id="DejaVuSans-58"/>
      </defs>
      <g transform="translate(175.740464 274.718437)scale(0.1 -0.1)">
       <use xlink:href="#DejaVuSans-84"/>
       <use x="60.849609" xlink:href="#DejaVuSans-117"/>
       <use x="124.228516" xlink:href="#DejaVuSans-101"/>
       <use x="185.751953" xlink:href="#DejaVuSans-32"/>
       <use x="217.539062" xlink:href="#DejaVuSans-48"/>
       <use x="281.162109" xlink:href="#DejaVuSans-48"/>
       <use x="344.785156" xlink:href="#DejaVuSans-58"/>
       <use x="378.476562" xlink:href="#DejaVuSans-48"/>
       <use x="442.099609" xlink:href="#DejaVuSans-48"/>
      </g>
     </g>
    </g>
    <g id="xtick_2">
     <g id="line2d_2">
      <g>
       <use style="stroke:#000000;stroke-width:0.8;" x="368.582648" xlink:href="#mf7a071a893" y="260.12"/>
      </g>
     </g>
     <g id="text_2">
      <!-- Wed 00:00 -->
      <defs>
       <path d="M 3.328125 72.90625 
L 13.28125 72.90625 
L 28.609375 11.28125 
L 43.890625 72.90625 
L 54.984375 72.90625 
L 70.3125 11.28125 
L 85.59375 72.90625 
L 95.609375 72.90625 
L 77.296875 0 
L 64.890625 0 
L 49.515625 63.28125 
L 33.984375 0 
L 21.578125 0 
z
" id="DejaVuSans-87"/>
       <path d="M 45.40625 46.390625 
L 45.40625 75.984375 
L 54.390625 75.984375 
L 54.390625 0 
L 45.40625 0 
L 45.40625 8.203125 
Q 42.578125 3.328125 38.25 0.953125 
Q 33.9375 -1.421875 27.875 -1.421875 
Q 17.96875 -1.421875 11.734375 6.484375 
Q 5.515625 14.40625 5.515625 27.296875 
Q 5.515625 40.1875 11.734375 48.09375 
Q 17.96875 56 27.875 56 
Q 33.9375 56 38.25 53.625 
Q 42.578125 51.265625 45.40625 46.390625 
z
M 14.796875 27.296875 
Q 14.796875 17.390625 18.875 11.75 
Q 22.953125 6.109375 30.078125 6.109375 
Q 37.203125 6.109375 41.296875 11.75 
Q 45.40625 17.390625 45.40625 27.296875 
Q 45.40625 37.203125 41.296875 42.84375 
Q 37.203125 48.484375 30.078125 48.484375 
Q 22.953125 48.484375 18.875 42.84375 
Q 14.796875 37.203125 14.796875 27.296875 
z
" id="DejaVuSans-100"/>
      </defs>
      <g transform="translate(341.393585 274.718437)scale(0.1 -0.1)">
       <use xlink:href="#DejaVuSans-87"/>
       <use x="98.798828" xlink:href="#DejaVuSans-101"/>
       <use x="160.322266" xlink:href="#DejaVuSans-100"/>
       <use x="223.798828" xlink:href="#DejaVuSans-32"/>
       <use x="255.585938" xlink:href="#DejaVuSans-48"/>
       <use x="319.208984" xlink:href="#DejaVuSans-48"/>
       <use x="382.832031" xlink:href="#DejaVuSans-58"/>
       <use x="416.523438" xlink:href="#DejaVuSans-48"/>
       <use x="480.146484" xlink:href="#DejaVuSans-48"/>
      </g>
     </g>
    </g>
    <g id="xtick_3">
     <g id="line2d_3">
      <g>
       <use style="stroke:#000000;stroke-width:0.8;" x="536.138894" xlink:href="#mf7a071a893" y="260.12"/>
      </g>
     </g>
     <g id="text_3">
      <!-- Thu 00:00 -->
      <defs>
       <path d="M 54.890625 33.015625 
L 54.890625 0 
L 45.90625 0 
L 45.90625 32.71875 
Q 45.90625 40.484375 42.875 44.328125 
Q 39.84375 48.1875 33.796875 48.1875 
Q 26.515625 48.1875 22.3125 43.546875 
Q 18.109375 38.921875 18.109375 30.90625 
L 18.109375 0 
L 9.078125 0 
L 9.078125 75.984375 
L 18.109375 75.984375 
L 18.109375 46.1875 
Q 21.34375 51.125 25.703125 53.5625 
Q 30.078125 56 35.796875 56 
Q 45.21875 56 50.046875 50.171875 
Q 54.890625 44.34375 54.890625 33.015625 
z
" id="DejaVuSans-104"/>
      </defs>
      <g transform="translate(510.74905 274.718437)scale(0.1 -0.1)">
       <use xlink:href="#DejaVuSans-84"/>
       <use x="61.083984" xlink:href="#DejaVuSans-104"/>
       <use x="124.462891" xlink:href="#DejaVuSans-117"/>
       <use x="187.841797" xlink:href="#DejaVuSans-32"/>
       <use x="219.628906" xlink:href="#DejaVuSans-48"/>
       <use x="283.251953" xlink:href="#DejaVuSans-48"/>
       <use x="346.875" xlink:href="#DejaVuSans-58"/>
       <use x="380.566406" xlink:href="#DejaVuSans-48"/>
       <use x="444.189453" xlink:href="#DejaVuSans-48"/>
      </g>
     </g>
    </g>
    <g id="xtick_4">
     <g id="line2d_4">
      <g>
       <use style="stroke:#000000;stroke-width:0.8;" x="703.69514" xlink:href="#mf7a071a893" y="260.12"/>
      </g>
     </g>
     <g id="text_4">
      <!-- Fri 00:00 -->
      <defs>
       <path d="M 9.8125 72.90625 
L 51.703125 72.90625 
L 51.703125 64.59375 
L 19.671875 64.59375 
L 19.671875 43.109375 
L 48.578125 43.109375 
L 48.578125 34.8125 
L 19.671875 34.8125 
L 19.671875 0 
L 9.8125 0 
z
" id="DejaVuSans-70"/>
       <path d="M 41.109375 46.296875 
Q 39.59375 47.171875 37.8125 47.578125 
Q 36.03125 48 33.890625 48 
Q 26.265625 48 22.1875 43.046875 
Q 18.109375 38.09375 18.109375 28.8125 
L 18.109375 0 
L 9.078125 0 
L 9.078125 54.6875 
L 18.109375 54.6875 
L 18.109375 46.1875 
Q 20.953125 51.171875 25.484375 53.578125 
Q 30.03125 56 36.53125 56 
Q 37.453125 56 38.578125 55.875 
Q 39.703125 55.765625 41.0625 55.515625 
z
" id="DejaVuSans-114"/>
       <path d="M 9.421875 54.6875 
L 18.40625 54.6875 
L 18.40625 0 
L 9.421875 0 
z
M 9.421875 75.984375 
L 18.40625 75.984375 
L 18.40625 64.59375 
L 9.421875 64.59375 
z
" id="DejaVuSans-105"/>
      </defs>
      <g transform="translate(681.381859 274.718437)scale(0.1 -0.1)">
       <use xlink:href="#DejaVuSans-70"/>
       <use x="57.410156" xlink:href="#DejaVuSans-114"/>
       <use x="98.523438" xlink:href="#DejaVuSans-105"/>
       <use x="126.306641" xlink:href="#DejaVuSans-32"/>
       <use x="158.09375" xlink:href="#DejaVuSans-48"/>
       <use x="221.716797" xlink:href="#DejaVuSans-48"/>
       <use x="285.339844" xlink:href="#DejaVuSans-58"/>
       <use x="319.03125" xlink:href="#DejaVuSans-48"/>
       <use x="382.654297" xlink:href="#DejaVuSans-48"/>
      </g>
     </g>
    </g>
    <g id="xtick_5">
     <g id="line2d_5">
      <g>
       <use style="stroke:#000000;stroke-width:0.8;" x="871.251386" xlink:href="#mf7a071a893" y="260.12"/>
      </g>
     </g>
     <g id="text_5">
      <!-- Sat 00:00 -->
      <defs>
       <path d="M 53.515625 70.515625 
L 53.515625 60.890625 
Q 47.90625 63.578125 42.921875 64.890625 
Q 37.9375 66.21875 33.296875 66.21875 
Q 25.25 66.21875 20.875 63.09375 
Q 16.5 59.96875 16.5 54.203125 
Q 16.5 49.359375 19.40625 46.890625 
Q 22.3125 44.4375 30.421875 42.921875 
L 36.375 41.703125 
Q 47.40625 39.59375 52.65625 34.296875 
Q 57.90625 29 57.90625 20.125 
Q 57.90625 9.515625 50.796875 4.046875 
Q 43.703125 -1.421875 29.984375 -1.421875 
Q 24.8125 -1.421875 18.96875 -0.25 
Q 13.140625 0.921875 6.890625 3.21875 
L 6.890625 13.375 
Q 12.890625 10.015625 18.65625 8.296875 
Q 24.421875 6.59375 29.984375 6.59375 
Q 38.421875 6.59375 43.015625 9.90625 
Q 47.609375 13.234375 47.609375 19.390625 
Q 47.609375 24.75 44.3125 27.78125 
Q 41.015625 30.8125 33.5 32.328125 
L 27.484375 33.5 
Q 16.453125 35.6875 11.515625 40.375 
Q 6.59375 45.0625 6.59375 53.421875 
Q 6.59375 63.09375 13.40625 68.65625 
Q 20.21875 74.21875 32.171875 74.21875 
Q 37.3125 74.21875 42.625 73.28125 
Q 47.953125 72.359375 53.515625 70.515625 
z
" id="DejaVuSans-83"/>
       <path d="M 34.28125 27.484375 
Q 23.390625 27.484375 19.1875 25 
Q 14.984375 22.515625 14.984375 16.5 
Q 14.984375 11.71875 18.140625 8.90625 
Q 21.296875 6.109375 26.703125 6.109375 
Q 34.1875 6.109375 38.703125 11.40625 
Q 43.21875 16.703125 43.21875 25.484375 
L 43.21875 27.484375 
z
M 52.203125 31.203125 
L 52.203125 0 
L 43.21875 0 
L 43.21875 8.296875 
Q 40.140625 3.328125 35.546875 0.953125 
Q 30.953125 -1.421875 24.3125 -1.421875 
Q 15.921875 -1.421875 10.953125 3.296875 
Q 6 8.015625 6 15.921875 
Q 6 25.140625 12.171875 29.828125 
Q 18.359375 34.515625 30.609375 34.515625 
L 43.21875 34.515625 
L 43.21875 35.40625 
Q 43.21875 41.609375 39.140625 45 
Q 35.0625 48.390625 27.6875 48.390625 
Q 23 48.390625 18.546875 47.265625 
Q 14.109375 46.140625 10.015625 43.890625 
L 10.015625 52.203125 
Q 14.9375 54.109375 19.578125 55.046875 
Q 24.21875 56 28.609375 56 
Q 40.484375 56 46.34375 49.84375 
Q 52.203125 43.703125 52.203125 31.203125 
z
" id="DejaVuSans-97"/>
       <path d="M 18.3125 70.21875 
L 18.3125 54.6875 
L 36.8125 54.6875 
L 36.8125 47.703125 
L 18.3125 47.703125 
L 18.3125 18.015625 
Q 18.3125 11.328125 20.140625 9.421875 
Q 21.96875 7.515625 27.59375 7.515625 
L 36.8125 7.515625 
L 36.8125 0 
L 27.59375 0 
Q 17.1875 0 13.234375 3.875 
Q 9.28125 7.765625 9.28125 18.015625 
L 9.28125 47.703125 
L 2.6875 47.703125 
L 2.6875 54.6875 
L 9.28125 54.6875 
L 9.28125 70.21875 
z
" id="DejaVuSans-116"/>
      </defs>
      <g transform="translate(847.054511 274.718437)scale(0.1 -0.1)">
       <use xlink:href="#DejaVuSans-83"/>
       <use x="63.476562" xlink:href="#DejaVuSans-97"/>
       <use x="124.755859" xlink:href="#DejaVuSans-116"/>
       <use x="163.964844" xlink:href="#DejaVuSans-32"/>
       <use x="195.751953" xlink:href="#DejaVuSans-48"/>
       <use x="259.375" xlink:href="#DejaVuSans-48"/>
       <use x="322.998047" xlink:href="#DejaVuSans-58"/>
       <use x="356.689453" xlink:href="#DejaVuSans-48"/>
       <use x="420.3125" xlink:href="#DejaVuSans-48"/>
      </g>
     </g>
    </g>
    <g id="xtick_6">
     <g id="line2d_6">
      <g>
       <use style="stroke:#000000;stroke-width:0.8;" x="1038.807632" xlink:href="#mf7a071a893" y="260.12"/>
      </g>
     </g>
     <g id="text_6">
      <!-- Sun 00:00 -->
      <defs>
       <path d="M 54.890625 33.015625 
L 54.890625 0 
L 45.90625 0 
L 45.90625 32.71875 
Q 45.90625 40.484375 42.875 44.328125 
Q 39.84375 48.1875 33.796875 48.1875 
Q 26.515625 48.1875 22.3125 43.546875 
Q 18.109375 38.921875 18.109375 30.90625 
L 18.109375 0 
L 9.078125 0 
L 9.078125 54.6875 
L 18.109375 54.6875 
L 18.109375 46.1875 
Q 21.34375 51.125 25.703125 53.5625 
Q 30.078125 56 35.796875 56 
Q 45.21875 56 50.046875 50.171875 
Q 54.890625 44.34375 54.890625 33.015625 
z
" id="DejaVuSans-110"/>
      </defs>
      <g transform="translate(1013.297476 274.718437)scale(0.1 -0.1)">
       <use xlink:href="#DejaVuSans-83"/>
       <use x="63.476562" xlink:href="#DejaVuSans-117"/>
       <use x="126.855469" xlink:href="#DejaVuSans-110"/>
       <use x="190.234375" xlink:href="#DejaVuSans-32"/>
       <use x="222.021484" xlink:href="#DejaVuSans-48"/>
       <use x="285.644531" xlink:href="#DejaVuSans-48"/>
       <use x="349.267578" xlink:href="#DejaVuSans-58"/>
       <use x="382.958984" xlink:href="#DejaVuSans-48"/>
       <use x="446.582031" xlink:href="#DejaVuSans-48"/>
      </g>
     </g>
    </g>
   </g>
   <g id="matplotlib.axis_2">
    <g id="ytick_1">
     <g id="line2d_7">
      <defs>
       <path d="M 0 0 
L -3.5 0 
" id="m277055b78c" style="stroke:#000000;stroke-width:0.8;"/>
      </defs>
      <g>
       <use style="stroke:#000000;stroke-width:0.8;" x="33.64" xlink:href="#m277055b78c" y="260.12"/>
      </g>
     </g>
     <g id="text_7">
      <!-- 0 -->
      <g transform="translate(20.2775 263.919219)scale(0.1 -0.1)">
       <use xlink:href="#DejaVuSans-48"/>
      </g>
     </g>
    </g>
    <g id="ytick_2">
     <g id="line2d_8">
      <g>
       <use style="stroke:#000000;stroke-width:0.8;" x="33.64" xlink:href="#m277055b78c" y="230.910476"/>
      </g>
     </g>
     <g id="text_8">
      <!-- 25 -->
      <defs>
       <path d="M 19.1875 8.296875 
L 53.609375 8.296875 
L 53.609375 0 
L 7.328125 0 
L 7.328125 8.296875 
Q 12.9375 14.109375 22.625 23.890625 
Q 32.328125 33.6875 34.8125 36.53125 
Q 39.546875 41.84375 41.421875 45.53125 
Q 43.3125 49.21875 43.3125 52.78125 
Q 43.3125 58.59375 39.234375 62.25 
Q 35.15625 65.921875 28.609375 65.921875 
Q 23.96875 65.921875 18.8125 64.3125 
Q 13.671875 62.703125 7.8125 59.421875 
L 7.8125 69.390625 
Q 13.765625 71.78125 18.9375 73 
Q 24.125 74.21875 28.421875 74.21875 
Q 39.75 74.21875 46.484375 68.546875 
Q 53.21875 62.890625 53.21875 53.421875 
Q 53.21875 48.921875 51.53125 44.890625 
Q 49.859375 40.875 45.40625 35.40625 
Q 44.1875 33.984375 37.640625 27.21875 
Q 31.109375 20.453125 19.1875 8.296875 
z
" id="DejaVuSans-50"/>
       <path d="M 10.796875 72.90625 
L 49.515625 72.90625 
L 49.515625 64.59375 
L 19.828125 64.59375 
L 19.828125 46.734375 
Q 21.96875 47.46875 24.109375 47.828125 
Q 26.265625 48.1875 28.421875 48.1875 
Q 40.625 48.1875 47.75 41.5 
Q 54.890625 34.8125 54.890625 23.390625 
Q 54.890625 11.625 47.5625 5.09375 
Q 40.234375 -1.421875 26.90625 -1.421875 
Q 22.3125 -1.421875 17.546875 -0.640625 
Q 12.796875 0.140625 7.71875 1.703125 
L 7.71875 11.625 
Q 12.109375 9.234375 16.796875 8.0625 
Q 21.484375 6.890625 26.703125 6.890625 
Q 35.15625 6.890625 40.078125 11.328125 
Q 45.015625 15.765625 45.015625 23.390625 
Q 45.015625 31 40.078125 35.4375 
Q 35.15625 39.890625 26.703125 39.890625 
Q 22.75 39.890625 18.8125 39.015625 
Q 14.890625 38.140625 10.796875 36.28125 
z
" id="DejaVuSans-53"/>
      </defs>
      <g transform="translate(13.915 234.709695)scale(0.1 -0.1)">
       <use xlink:href="#DejaVuSans-50"/>
       <use x="63.623047" xlink:href="#DejaVuSans-53"/>
      </g>
     </g>
    </g>
    <g id="ytick_3">
     <g id="line2d_9">
      <g>
       <use style="stroke:#000000;stroke-width:0.8;" x="33.64" xlink:href="#m277055b78c" y="201.700952"/>
      </g>
     </g>
     <g id="text_9">
      <!-- 50 -->
      <g transform="translate(13.915 205.500171)scale(0.1 -0.1)">
       <use xlink:href="#DejaVuSans-53"/>
       <use x="63.623047" xlink:href="#DejaVuSans-48"/>
      </g>
     </g>
    </g>
    <g id="ytick_4">
     <g id="line2d_10">
      <g>
       <use style="stroke:#000000;stroke-width:0.8;" x="33.64" xlink:href="#m277055b78c" y="172.491429"/>
      </g>
     </g>
     <g id="text_10">
      <!-- 75 -->
      <defs>
       <path d="M 8.203125 72.90625 
L 55.078125 72.90625 
L 55.078125 68.703125 
L 28.609375 0 
L 18.3125 0 
L 43.21875 64.59375 
L 8.203125 64.59375 
z
" id="DejaVuSans-55"/>
      </defs>
      <g transform="translate(13.915 176.290647)scale(0.1 -0.1)">
       <use xlink:href="#DejaVuSans-55"/>
       <use x="63.623047" xlink:href="#DejaVuSans-53"/>
      </g>
     </g>
    </g>
    <g id="ytick_5">
     <g id="line2d_11">
      <g>
       <use style="stroke:#000000;stroke-width:0.8;" x="33.64" xlink:href="#m277055b78c" y="143.281905"/>
      </g>
     </g>
     <g id="text_11">
      <!-- 100 -->
      <defs>
       <path d="M 12.40625 8.296875 
L 28.515625 8.296875 
L 28.515625 63.921875 
L 10.984375 60.40625 
L 10.984375 69.390625 
L 28.421875 72.90625 
L 38.28125 72.90625 
L 38.28125 8.296875 
L 54.390625 8.296875 
L 54.390625 0 
L 12.40625 0 
z
" id="DejaVuSans-49"/>
      </defs>
      <g transform="translate(7.5525 147.081124)scale(0.1 -0.1)">
       <use xlink:href="#DejaVuSans-49"/>
       <use x="63.623047" xlink:href="#DejaVuSans-48"/>
       <use x="127.246094" xlink:href="#DejaVuSans-48"/>
      </g>
     </g>
    </g>
    <g id="ytick_6">
     <g id="line2d_12">
      <g>
       <use style="stroke:#000000;stroke-width:0.8;" x="33.64" xlink:href="#m277055b78c" y="114.072381"/>
      </g>
     </g>
     <g id="text_12">
      <!-- 125 -->
      <g transform="translate(7.5525 117.8716)scale(0.1 -0.1)">
       <use xlink:href="#DejaVuSans-49"/>
       <use x="63.623047" xlink:href="#DejaVuSans-50"/>
       <use x="127.246094" xlink:href="#DejaVuSans-53"/>
      </g>
     </g>
    </g>
    <g id="ytick_7">
     <g id="line2d_13">
      <g>
       <use style="stroke:#000000;stroke-width:0.8;" x="33.64" xlink:href="#m277055b78c" y="84.862857"/>
      </g>
     </g>
     <g id="text_13">
      <!-- 150 -->
      <g transform="translate(7.5525 88.662076)scale(0.1 -0.1)">
       <use xlink:href="#DejaVuSans-49"/>
       <use x="63.623047" xlink:href="#DejaVuSans-53"/>
       <use x="127.246094" xlink:href="#DejaVuSans-48"/>
      </g>
     </g>
    </g>
    <g id="ytick_8">
     <g id="line2d_14">
      <g>
       <use style="stroke:#000000;stroke-width:0.8;" x="33.64" xlink:href="#m277055b78c" y="55.653333"/>
      </g>
     </g>
     <g id="text_14">
      <!-- 175 -->
      <g transform="translate(7.5525 59.452552)scale(0.1 -0.1)">
       <use xlink:href="#DejaVuSans-49"/>
       <use x="63.623047" xlink:href="#DejaVuSans-55"/>
       <use x="127.246094" xlink:href="#DejaVuSans-53"/>
      </g>
     </g>
    </g>
    <g id="ytick_9">
     <g id="line2d_15">
      <g>
       <use style="stroke:#000000;stroke-width:0.8;" x="33.64" xlink:href="#m277055b78c" y="26.44381"/>
      </g>
     </g>
     <g id="text_15">
      <!-- 200 -->
      <g transform="translate(7.5525 30.243028)scale(0.1 -0.1)">
       <use xlink:href="#DejaVuSans-50"/>
       <use x="63.623047" xlink:href="#DejaVuSans-48"/>
       <use x="127.246094" xlink:href="#DejaVuSans-48"/>
      </g>
     </g>
    </g>
   </g>
   <g id="line2d_16">
    <path clip-path="url(#p26cb883eb7)" d="M 33.64 260.12 
L 97.217801 260.12 
L 98.415667 257.783238 
L 99.614298 257.783238 
L 100.813005 254.278095 
L 102.011553 254.278095 
L 104.406177 249.604571 
L 105.604213 248.43619 
L 106.801054 248.43619 
L 107.998258 247.26781 
L 110.39324 247.26781 
L 111.591083 242.594286 
L 112.788452 236.752381 
L 113.985316 236.752381 
L 115.182961 229.742095 
L 116.382243 226.236952 
L 117.5795 226.236952 
L 118.776974 222.73181 
L 122.368098 222.73181 
L 123.565026 219.226667 
L 124.761465 218.058286 
L 127.156688 218.058286 
L 128.353786 223.90019 
L 129.551008 223.90019 
L 130.749861 229.742095 
L 131.946639 227.405333 
L 133.144422 227.405333 
L 134.341354 232.078857 
L 135.538228 233.247238 
L 136.736049 236.752381 
L 137.933479 236.752381 
L 139.132426 234.415619 
L 140.328441 234.415619 
L 141.525616 230.910476 
L 143.91881 216.889905 
L 145.11523 216.889905 
L 146.312143 212.216381 
L 147.509801 208.711238 
L 148.708376 208.711238 
L 149.905045 197.027429 
L 151.107011 192.353905 
L 152.30836 186.512 
L 153.504895 186.512 
L 154.702513 187.680381 
L 155.899244 187.680381 
L 157.096776 181.838476 
L 158.293951 164.312762 
L 159.490334 164.312762 
L 160.687502 150.29219 
L 161.885237 139.776762 
L 163.083113 116.409143 
L 164.279864 116.409143 
L 165.476397 89.536381 
L 166.675279 89.536381 
L 167.871847 67.337143 
L 169.068433 53.316571 
L 170.264627 47.474667 
L 171.461117 47.474667 
L 172.657933 54.484952 
L 173.854332 59.158476 
L 175.051783 59.158476 
L 176.249465 76.68419 
L 177.445543 74.347429 
L 178.644481 74.347429 
L 179.842357 79.020952 
L 181.038624 81.357714 
L 182.236998 93.041524 
L 183.43331 93.041524 
L 184.629884 100.05181 
L 185.826323 109.398857 
L 187.022193 109.398857 
L 188.21927 122.251048 
L 189.415687 128.092952 
L 190.614296 128.092952 
L 191.810178 129.261333 
L 193.006876 132.766476 
L 194.203479 139.776762 
L 195.399132 139.776762 
L 196.594546 260.12 
L 263.783327 260.12 
L 264.960767 258.951619 
L 266.160857 243.762667 
L 267.360382 243.762667 
L 268.559631 240.257524 
L 269.756765 235.584 
L 272.154937 235.584 
L 273.351987 232.078857 
L 274.548848 232.078857 
L 275.746341 227.405333 
L 276.943856 223.90019 
L 278.139934 223.90019 
L 279.33847 222.73181 
L 281.731598 222.73181 
L 282.928582 225.068571 
L 284.128006 218.058286 
L 285.32714 219.226667 
L 286.523301 219.226667 
L 287.720682 216.889905 
L 288.918199 218.058286 
L 290.115879 218.058286 
L 291.312402 221.563429 
L 292.508625 219.226667 
L 293.70602 219.226667 
L 294.90428 214.553143 
L 296.100678 218.058286 
L 297.296731 218.058286 
L 298.492878 213.384762 
L 299.691826 212.216381 
L 300.890587 208.711238 
L 302.088381 208.711238 
L 304.481352 201.700952 
L 305.679937 201.700952 
L 306.878545 204.037714 
L 309.280044 204.037714 
L 310.476052 200.532571 
L 312.871556 200.532571 
L 314.070313 197.027429 
L 315.267429 187.680381 
L 316.464149 187.680381 
L 317.660355 184.175238 
L 318.857462 178.333333 
L 320.054462 178.333333 
L 321.253398 171.323048 
L 322.450597 156.134095 
L 323.648079 128.092952 
L 324.848378 128.092952 
L 326.050111 116.409143 
L 328.443581 116.409143 
L 329.644093 98.883429 
L 330.841309 98.883429 
L 332.037859 79.020952 
L 333.234259 67.337143 
L 334.430848 49.811429 
L 335.627502 49.811429 
L 336.82568 38.127619 
L 340.415314 38.127619 
L 341.614588 26.44381 
L 342.813704 26.44381 
L 344.009962 48.643048 
L 345.207119 60.326857 
L 346.403868 74.347429 
L 347.603175 74.347429 
L 349.996022 110.567238 
L 351.19565 110.567238 
L 352.39209 125.75619 
L 353.588895 137.44 
L 354.785181 151.460571 
L 355.984996 151.460571 
L 357.181758 161.976 
L 358.379239 161.976 
L 359.579255 166.649524 
L 360.775467 174.82819 
L 361.972896 175.996571 
L 364.367271 175.996571 
L 365.563201 260.12 
L 431.554123 260.12 
L 432.750508 255.446476 
L 435.144767 241.425905 
L 436.343504 241.425905 
L 437.540525 240.257524 
L 439.938073 240.257524 
L 441.134785 239.089143 
L 442.331591 239.089143 
L 443.530296 232.078857 
L 444.7286 232.078857 
L 445.925729 228.573714 
L 447.124363 228.573714 
L 448.321951 226.236952 
L 449.520231 225.068571 
L 454.311181 225.068571 
L 455.513433 226.236952 
L 457.906473 226.236952 
L 459.103124 223.90019 
L 460.301385 216.889905 
L 461.497906 219.226667 
L 462.697009 219.226667 
L 463.895806 221.563429 
L 465.092314 221.563429 
L 467.486153 214.553143 
L 468.685171 212.216381 
L 469.883927 212.216381 
L 471.080336 208.711238 
L 472.278725 206.374476 
L 473.477596 206.374476 
L 474.674566 209.879619 
L 475.872872 207.542857 
L 477.07113 206.374476 
L 478.270366 206.374476 
L 479.469961 205.206095 
L 480.667045 205.206095 
L 481.864333 198.19581 
L 483.062522 190.017143 
L 484.262541 190.017143 
L 485.461611 184.175238 
L 486.660039 171.323048 
L 487.856465 170.154667 
L 489.057109 170.154667 
L 490.256208 159.639238 
L 491.455307 159.639238 
L 492.652997 156.134095 
L 493.851701 153.797333 
L 495.050963 129.261333 
L 496.258478 129.261333 
L 497.455825 123.419429 
L 498.652924 115.240762 
L 499.851228 115.240762 
L 501.048719 98.883429 
L 502.245622 96.546667 
L 503.44307 96.546667 
L 504.640923 108.230476 
L 505.84203 101.22019 
L 507.038064 101.22019 
L 508.234338 96.546667 
L 509.433635 89.536381 
L 510.635652 95.378286 
L 511.835174 95.378286 
L 513.033759 94.209905 
L 514.233286 119.914286 
L 515.431851 119.914286 
L 516.628038 125.75619 
L 517.82675 144.450286 
L 519.025566 146.787048 
L 520.224072 146.787048 
L 521.422708 156.134095 
L 522.618724 156.134095 
L 523.817685 165.481143 
L 525.016932 171.323048 
L 526.213324 173.65981 
L 527.412732 173.65981 
L 528.611616 180.670095 
L 529.80747 181.838476 
L 532.205454 181.838476 
L 533.404484 260.12 
L 600.601205 260.12 
L 601.797411 256.614857 
L 602.993339 248.43619 
L 604.189791 248.43619 
L 605.388625 244.931048 
L 606.585515 242.594286 
L 607.782428 242.594286 
L 610.178509 235.584 
L 611.376503 230.910476 
L 612.575794 230.910476 
L 613.772374 229.742095 
L 614.969606 229.742095 
L 616.166106 226.236952 
L 617.365412 223.90019 
L 618.562751 223.90019 
L 620.957677 221.563429 
L 622.154847 225.068571 
L 623.353141 225.068571 
L 624.550165 222.73181 
L 625.747966 219.226667 
L 626.94544 219.226667 
L 628.142989 211.048 
L 629.340333 211.048 
L 630.537379 212.216381 
L 634.130892 212.216381 
L 635.329352 205.206095 
L 637.72393 205.206095 
L 638.922208 197.027429 
L 640.12048 194.690667 
L 641.319129 199.36419 
L 642.51764 199.36419 
L 643.721589 195.859048 
L 644.918832 195.859048 
L 646.115561 191.185524 
L 647.313215 184.175238 
L 648.510526 175.996571 
L 649.708939 175.996571 
L 650.906534 167.817905 
L 652.105675 161.976 
L 653.304101 161.976 
L 654.503285 157.302476 
L 655.702362 143.281905 
L 656.902648 143.281905 
L 658.101736 138.608381 
L 659.300247 128.092952 
L 660.498892 114.072381 
L 661.696381 114.072381 
L 662.893262 98.883429 
L 664.089913 104.725333 
L 665.287064 104.725333 
L 666.484959 86.031238 
L 667.681871 86.031238 
L 668.88416 70.842286 
L 670.081787 59.158476 
L 671.279685 46.306286 
L 672.478993 46.306286 
L 673.67855 28.780571 
L 674.877094 32.285714 
L 676.074041 32.285714 
L 677.271966 38.127619 
L 678.467936 31.117333 
L 679.664458 31.117333 
L 680.860834 41.632762 
L 682.058272 54.484952 
L 683.255171 62.663619 
L 684.451948 62.663619 
L 685.648011 76.68419 
L 686.849411 96.546667 
L 688.045616 96.546667 
L 689.244139 105.893714 
L 690.442646 121.082667 
L 691.639216 121.082667 
L 692.836004 126.924571 
L 694.034411 144.450286 
L 695.232892 144.450286 
L 696.429181 152.628952 
L 697.625928 158.470857 
L 700.021603 158.470857 
L 701.218139 260.12 
L 766.038403 260.12 
L 767.215778 256.614857 
L 768.412885 256.614857 
L 769.609834 254.278095 
L 770.806224 249.604571 
L 772.002956 247.26781 
L 773.202062 247.26781 
L 774.399861 242.594286 
L 775.597092 233.247238 
L 776.794954 233.247238 
L 777.9915 227.405333 
L 779.187539 227.405333 
L 780.38384 223.90019 
L 781.583063 223.90019 
L 782.779381 216.889905 
L 783.976151 216.889905 
L 785.173069 213.384762 
L 786.36944 215.721524 
L 787.566344 215.721524 
L 788.763221 216.889905 
L 789.960124 220.395048 
L 792.359026 220.395048 
L 793.555459 221.563429 
L 794.752107 221.563429 
L 795.948832 219.226667 
L 797.145783 225.068571 
L 799.538063 225.068571 
L 800.734191 220.395048 
L 801.931774 222.73181 
L 803.13024 222.73181 
L 804.32778 220.395048 
L 805.526579 220.395048 
L 806.72381 218.058286 
L 807.92021 206.374476 
L 809.116767 202.869333 
L 810.314633 202.869333 
L 811.510562 194.690667 
L 812.707632 187.680381 
L 813.903763 187.680381 
L 815.102954 181.838476 
L 816.304179 171.323048 
L 817.502213 164.312762 
L 818.702372 164.312762 
L 819.898545 158.470857 
L 821.09499 158.470857 
L 822.295149 153.797333 
L 823.492325 147.955429 
L 824.690113 145.618667 
L 825.88993 145.618667 
L 827.087519 137.44 
L 828.284671 150.29219 
L 829.481321 150.29219 
L 830.683768 161.976 
L 831.880535 160.807619 
L 833.076716 160.807619 
L 834.273313 150.29219 
L 835.470137 144.450286 
L 836.668569 144.450286 
L 837.86585 135.103238 
L 839.062726 126.924571 
L 840.261411 126.924571 
L 841.458217 125.75619 
L 842.655597 128.092952 
L 843.856063 125.75619 
L 845.063938 125.75619 
L 846.264481 130.429714 
L 847.46572 131.598095 
L 848.667557 131.598095 
L 849.878106 143.281905 
L 852.281924 143.281905 
L 853.483788 151.460571 
L 854.681372 158.470857 
L 855.883957 160.807619 
L 857.081999 160.807619 
L 858.281429 166.649524 
L 859.478793 166.649524 
L 860.677874 179.501714 
L 861.87537 185.343619 
L 863.072616 187.680381 
L 864.268911 187.680381 
L 865.467344 193.522286 
L 867.861783 193.522286 
L 869.069356 260.12 
L 933.878128 260.12 
L 935.055091 253.109714 
L 936.252086 251.941333 
L 937.450066 251.941333 
L 938.648159 241.425905 
L 939.843985 235.584 
L 941.039966 235.584 
L 942.236311 233.247238 
L 943.432084 233.247238 
L 944.627892 220.395048 
L 945.825677 209.879619 
L 947.021554 207.542857 
L 948.217783 207.542857 
L 950.609878 193.522286 
L 951.805425 193.522286 
L 954.200106 186.512 
L 955.396053 187.680381 
L 956.91632 187.680381 
L 958.113294 195.859048 
L 959.312514 199.36419 
L 960.508455 199.36419 
L 961.706773 200.532571 
L 962.907291 200.532571 
L 964.103665 187.680381 
L 965.299657 187.680381 
L 966.495679 180.670095 
L 967.692286 180.670095 
L 968.889292 175.996571 
L 970.084964 177.164952 
L 971.282135 177.164952 
L 972.480433 187.680381 
L 973.676414 186.512 
L 974.872707 180.670095 
L 976.068776 180.670095 
L 977.265169 181.838476 
L 978.460958 173.65981 
L 979.65699 173.65981 
L 980.853898 185.343619 
L 982.051565 198.19581 
L 983.247508 198.19581 
L 985.642351 205.206095 
L 986.840034 205.206095 
L 988.038075 204.037714 
L 989.236141 205.206095 
L 990.434739 201.700952 
L 991.633618 201.700952 
L 992.832036 202.869333 
L 994.030507 211.048 
L 995.228789 211.048 
L 996.425918 214.553143 
L 997.623109 215.721524 
L 998.821644 215.721524 
L 1001.218841 208.711238 
L 1002.417808 208.711238 
L 1003.61632 204.037714 
L 1004.815074 205.206095 
L 1006.013636 205.206095 
L 1007.213127 227.405333 
L 1008.411599 216.889905 
L 1009.60927 214.553143 
L 1010.805865 214.553143 
L 1012.002968 216.889905 
L 1015.59564 216.889905 
L 1016.792778 215.721524 
L 1017.992589 215.721524 
L 1019.188737 218.058286 
L 1022.782281 218.058286 
L 1023.980679 222.73181 
L 1025.178124 222.73181 
L 1027.575285 234.415619 
L 1028.773802 234.415619 
L 1029.972799 235.584 
L 1033.565103 235.584 
L 1034.76366 239.089143 
L 1038.358941 239.089143 
L 1039.557126 260.12 
L 1103.347389 260.12 
L 1104.54394 246.099429 
L 1105.739767 236.752381 
L 1106.936938 236.752381 
L 1109.331797 220.395048 
L 1110.52892 220.395048 
L 1111.725768 211.048 
L 1112.922849 205.206095 
L 1114.120862 194.690667 
L 1115.318173 194.690667 
L 1116.515295 173.65981 
L 1117.714438 173.65981 
L 1118.911246 183.006857 
L 1120.107779 172.491429 
L 1121.304598 172.491429 
L 1122.502093 170.154667 
L 1123.699052 172.491429 
L 1124.897105 164.312762 
L 1126.096173 164.312762 
L 1127.292429 159.639238 
L 1128.490647 165.481143 
L 1129.687001 165.481143 
L 1130.883676 177.164952 
L 1132.079728 172.491429 
L 1133.28 172.491429 
L 1133.28 172.491429 
" style="fill:none;stroke:#1f77b4;stroke-linecap:square;stroke-width:1.5;"/>
   </g>
   <g id="patch_3">
    <path d="M 33.64 260.12 
L 33.64 14.76 
" style="fill:none;stroke:#000000;stroke-linecap:square;stroke-linejoin:miter;stroke-width:0.8;"/>
   </g>
   <g id="patch_4">
    <path d="M 1133.28 260.12 
L 1133.28 14.76 
" style="fill:none;stroke:#000000;stroke-linecap:square;stroke-linejoin:miter;stroke-width:0.8;"/>
   </g>
   <g id="patch_5">
    <path d="M 33.64 260.12 
L 1133.28 260.12 
" style="fill:none;stroke:#000000;stroke-linecap:square;stroke-linejoin:miter;stroke-width:0.8;"/>
   </g>
   <g id="patch_6">
    <path d="M 33.64 14.76 
L 1133.28 14.76 
" style="fill:none;stroke:#000000;stroke-linecap:square;stroke-linejoin:miter;stroke-width:0.8;"/>
   </g>
  </g>
 </g>
 <defs>
  <clipPath id="p26cb883eb7">
   <rect height="245.36" width="1099.64" x="33.64" y="14.76"/>
  </clipPath>
 </defs>
</svg>
