<?xml version="1.0" encoding="utf-8" standalone="no"?>
<!DOCTYPE svg PUBLIC "-//W3C//DTD SVG 1.1//EN"
  "http://www.w3.org/Graphics/SVG/1.1/DTD/svg11.dtd">
<!-- Created with matplotlib (https://matplotlib.org/) -->
<svg height="288pt" version="1.1" viewBox="0 0 1152 288" width="1152pt" xmlns="http://www.w3.org/2000/svg" xmlns:xlink="http://www.w3.org/1999/xlink">
 <defs>
  <style type="text/css">
*{stroke-linecap:butt;stroke-linejoin:round;}
  </style>
 </defs>
 <g id="figure_1">
  <g id="patch_1">
   <path d="M 0 288 
L 1152 288 
L 1152 0 
L 0 0 
z
" style="fill:#ffffff;"/>
  </g>
  <g id="axes_1">
   <g id="patch_2">
    <path d="M 33.64 260.12 
L 1133.28 260.12 
L 1133.28 14.76 
L 33.64 14.76 
z
" style="fill:#ffffff;"/>
   </g>
   <g id="matplotlib.axis_1">
    <g id="xtick_1">
     <g id="line2d_1">
      <defs>
       <path d="M 0 0 
L 0 3.5 
" id="mb56a64bf94" style="stroke:#000000;stroke-width:0.8;"/>
      </defs>
      <g>
       <use style="stroke:#000000;stroke-width:0.8;" x="192.492369" xlink:href="#mb56a64bf94" y="260.12"/>
      </g>
     </g>
     <g id="text_1">
      <!-- Tue 00:00 -->
      <defs>
       <path d="M -0.296875 72.90625 
L 61.375 72.90625 
L 61.375 64.59375 
L 35.5 64.59375 
L 35.5 0 
L 25.59375 0 
L 25.59375 64.59375 
L -0.296875 64.59375 
z
" id="DejaVuSans-84"/>
       <path d="M 8.5 21.578125 
L 8.5 54.6875 
L 17.484375 54.6875 
L 17.484375 21.921875 
Q 17.484375 14.15625 20.5 10.265625 
Q 23.53125 6.390625 29.59375 6.390625 
Q 36.859375 6.390625 41.078125 11.03125 
Q 45.3125 15.671875 45.3125 23.6875 
L 45.3125 54.6875 
L 54.296875 54.6875 
L 54.296875 0 
L 45.3125 0 
L 45.3125 8.40625 
Q 42.046875 3.421875 37.71875 1 
Q 33.40625 -1.421875 27.6875 -1.421875 
Q 18.265625 -1.421875 13.375 4.4375 
Q 8.5 10.296875 8.5 21.578125 
z
M 31.109375 56 
z
" id="DejaVuSans-117"/>
       <path d="M 56.203125 29.59375 
L 56.203125 25.203125 
L 14.890625 25.203125 
Q 15.484375 15.921875 20.484375 11.0625 
Q 25.484375 6.203125 34.421875 6.203125 
Q 39.59375 6.203125 44.453125 7.46875 
Q 49.3125 8.734375 54.109375 11.28125 
L 54.109375 2.78125 
Q 49.265625 0.734375 44.1875 -0.34375 
Q 39.109375 -1.421875 33.890625 -1.421875 
Q 20.796875 -1.421875 13.15625 6.1875 
Q 5.515625 13.8125 5.515625 26.8125 
Q 5.515625 40.234375 12.765625 48.109375 
Q 20.015625 56 32.328125 56 
Q 43.359375 56 49.78125 48.890625 
Q 56.203125 41.796875 56.203125 29.59375 
z
M 47.21875 32.234375 
Q 47.125 39.59375 43.09375 43.984375 
Q 39.0625 48.390625 32.421875 48.390625 
Q 24.90625 48.390625 20.390625 44.140625 
Q 15.875 39.890625 15.1875 32.171875 
z
" id="DejaVuSans-101"/>
       <path id="DejaVuSans-32"/>
       <path d="M 31.78125 66.40625 
Q 24.171875 66.40625 20.328125 58.90625 
Q 16.5 51.421875 16.5 36.375 
Q 16.5 21.390625 20.328125 13.890625 
Q 24.171875 6.390625 31.78125 6.390625 
Q 39.453125 6.390625 43.28125 13.890625 
Q 47.125 21.390625 47.125 36.375 
Q 47.125 51.421875 43.28125 58.90625 
Q 39.453125 66.40625 31.78125 66.40625 
z
M 31.78125 74.21875 
Q 44.046875 74.21875 50.515625 64.515625 
Q 56.984375 54.828125 56.984375 36.375 
Q 56.984375 17.96875 50.515625 8.265625 
Q 44.046875 -1.421875 31.78125 -1.421875 
Q 19.53125 -1.421875 13.0625 8.265625 
Q 6.59375 17.96875 6.59375 36.375 
Q 6.59375 54.828125 13.0625 64.515625 
Q 19.53125 74.21875 31.78125 74.21875 
z
" id="DejaVuSans-48"/>
       <path d="M 11.71875 12.40625 
L 22.015625 12.40625 
L 22.015625 0 
L 11.71875 0 
z
M 11.71875 51.703125 
L 22.015625 51.703125 
L 22.015625 39.3125 
L 11.71875 39.3125 
z
" id="DejaVuSans-58"/>
      </defs>
      <g transform="translate(167.206432 274.718437)scale(0.1 -0.1)">
       <use xlink:href="#DejaVuSans-84"/>
       <use x="60.849609" xlink:href="#DejaVuSans-117"/>
       <use x="124.228516" xlink:href="#DejaVuSans-101"/>
       <use x="185.751953" xlink:href="#DejaVuSans-32"/>
       <use x="217.539062" xlink:href="#DejaVuSans-48"/>
       <use x="281.162109" xlink:href="#DejaVuSans-48"/>
       <use x="344.785156" xlink:href="#DejaVuSans-58"/>
       <use x="378.476562" xlink:href="#DejaVuSans-48"/>
       <use x="442.099609" xlink:href="#DejaVuSans-48"/>
      </g>
     </g>
    </g>
    <g id="xtick_2">
     <g id="line2d_2">
      <g>
       <use style="stroke:#000000;stroke-width:0.8;" x="351.922885" xlink:href="#mb56a64bf94" y="260.12"/>
      </g>
     </g>
     <g id="text_2">
      <!-- Wed 00:00 -->
      <defs>
       <path d="M 3.328125 72.90625 
L 13.28125 72.90625 
L 28.609375 11.28125 
L 43.890625 72.90625 
L 54.984375 72.90625 
L 70.3125 11.28125 
L 85.59375 72.90625 
L 95.609375 72.90625 
L 77.296875 0 
L 64.890625 0 
L 49.515625 63.28125 
L 33.984375 0 
L 21.578125 0 
z
" id="DejaVuSans-87"/>
       <path d="M 45.40625 46.390625 
L 45.40625 75.984375 
L 54.390625 75.984375 
L 54.390625 0 
L 45.40625 0 
L 45.40625 8.203125 
Q 42.578125 3.328125 38.25 0.953125 
Q 33.9375 -1.421875 27.875 -1.421875 
Q 17.96875 -1.421875 11.734375 6.484375 
Q 5.515625 14.40625 5.515625 27.296875 
Q 5.515625 40.1875 11.734375 48.09375 
Q 17.96875 56 27.875 56 
Q 33.9375 56 38.25 53.625 
Q 42.578125 51.265625 45.40625 46.390625 
z
M 14.796875 27.296875 
Q 14.796875 17.390625 18.875 11.75 
Q 22.953125 6.109375 30.078125 6.109375 
Q 37.203125 6.109375 41.296875 11.75 
Q 45.40625 17.390625 45.40625 27.296875 
Q 45.40625 37.203125 41.296875 42.84375 
Q 37.203125 48.484375 30.078125 48.484375 
Q 22.953125 48.484375 18.875 42.84375 
Q 14.796875 37.203125 14.796875 27.296875 
z
" id="DejaVuSans-100"/>
      </defs>
      <g transform="translate(324.733823 274.718437)scale(0.1 -0.1)">
       <use xlink:href="#DejaVuSans-87"/>
       <use x="98.798828" xlink:href="#DejaVuSans-101"/>
       <use x="160.322266" xlink:href="#DejaVuSans-100"/>
       <use x="223.798828" xlink:href="#DejaVuSans-32"/>
       <use x="255.585938" xlink:href="#DejaVuSans-48"/>
       <use x="319.208984" xlink:href="#DejaVuSans-48"/>
       <use x="382.832031" xlink:href="#DejaVuSans-58"/>
       <use x="416.523438" xlink:href="#DejaVuSans-48"/>
       <use x="480.146484" xlink:href="#DejaVuSans-48"/>
      </g>
     </g>
    </g>
    <g id="xtick_3">
     <g id="line2d_3">
      <g>
       <use style="stroke:#000000;stroke-width:0.8;" x="511.353402" xlink:href="#mb56a64bf94" y="260.12"/>
      </g>
     </g>
     <g id="text_3">
      <!-- Thu 00:00 -->
      <defs>
       <path d="M 54.890625 33.015625 
L 54.890625 0 
L 45.90625 0 
L 45.90625 32.71875 
Q 45.90625 40.484375 42.875 44.328125 
Q 39.84375 48.1875 33.796875 48.1875 
Q 26.515625 48.1875 22.3125 43.546875 
Q 18.109375 38.921875 18.109375 30.90625 
L 18.109375 0 
L 9.078125 0 
L 9.078125 75.984375 
L 18.109375 75.984375 
L 18.109375 46.1875 
Q 21.34375 51.125 25.703125 53.5625 
Q 30.078125 56 35.796875 56 
Q 45.21875 56 50.046875 50.171875 
Q 54.890625 44.34375 54.890625 33.015625 
z
" id="DejaVuSans-104"/>
      </defs>
      <g transform="translate(485.963558 274.718437)scale(0.1 -0.1)">
       <use xlink:href="#DejaVuSans-84"/>
       <use x="61.083984" xlink:href="#DejaVuSans-104"/>
       <use x="124.462891" xlink:href="#DejaVuSans-117"/>
       <use x="187.841797" xlink:href="#DejaVuSans-32"/>
       <use x="219.628906" xlink:href="#DejaVuSans-48"/>
       <use x="283.251953" xlink:href="#DejaVuSans-48"/>
       <use x="346.875" xlink:href="#DejaVuSans-58"/>
       <use x="380.566406" xlink:href="#DejaVuSans-48"/>
       <use x="444.189453" xlink:href="#DejaVuSans-48"/>
      </g>
     </g>
    </g>
    <g id="xtick_4">
     <g id="line2d_4">
      <g>
       <use style="stroke:#000000;stroke-width:0.8;" x="670.783918" xlink:href="#mb56a64bf94" y="260.12"/>
      </g>
     </g>
     <g id="text_4">
      <!-- Fri 00:00 -->
      <defs>
       <path d="M 9.8125 72.90625 
L 51.703125 72.90625 
L 51.703125 64.59375 
L 19.671875 64.59375 
L 19.671875 43.109375 
L 48.578125 43.109375 
L 48.578125 34.8125 
L 19.671875 34.8125 
L 19.671875 0 
L 9.8125 0 
z
" id="DejaVuSans-70"/>
       <path d="M 41.109375 46.296875 
Q 39.59375 47.171875 37.8125 47.578125 
Q 36.03125 48 33.890625 48 
Q 26.265625 48 22.1875 43.046875 
Q 18.109375 38.09375 18.109375 28.8125 
L 18.109375 0 
L 9.078125 0 
L 9.078125 54.6875 
L 18.109375 54.6875 
L 18.109375 46.1875 
Q 20.953125 51.171875 25.484375 53.578125 
Q 30.03125 56 36.53125 56 
Q 37.453125 56 38.578125 55.875 
Q 39.703125 55.765625 41.0625 55.515625 
z
" id="DejaVuSans-114"/>
       <path d="M 9.421875 54.6875 
L 18.40625 54.6875 
L 18.40625 0 
L 9.421875 0 
z
M 9.421875 75.984375 
L 18.40625 75.984375 
L 18.40625 64.59375 
L 9.421875 64.59375 
z
" id="DejaVuSans-105"/>
      </defs>
      <g transform="translate(648.470637 274.718437)scale(0.1 -0.1)">
       <use xlink:href="#DejaVuSans-70"/>
       <use x="57.410156" xlink:href="#DejaVuSans-114"/>
       <use x="98.523438" xlink:href="#DejaVuSans-105"/>
       <use x="126.306641" xlink:href="#DejaVuSans-32"/>
       <use x="158.09375" xlink:href="#DejaVuSans-48"/>
       <use x="221.716797" xlink:href="#DejaVuSans-48"/>
       <use x="285.339844" xlink:href="#DejaVuSans-58"/>
       <use x="319.03125" xlink:href="#DejaVuSans-48"/>
       <use x="382.654297" xlink:href="#DejaVuSans-48"/>
      </g>
     </g>
    </g>
    <g id="xtick_5">
     <g id="line2d_5">
      <g>
       <use style="stroke:#000000;stroke-width:0.8;" x="830.214434" xlink:href="#mb56a64bf94" y="260.12"/>
      </g>
     </g>
     <g id="text_5">
      <!-- Sat 00:00 -->
      <defs>
       <path d="M 53.515625 70.515625 
L 53.515625 60.890625 
Q 47.90625 63.578125 42.921875 64.890625 
Q 37.9375 66.21875 33.296875 66.21875 
Q 25.25 66.21875 20.875 63.09375 
Q 16.5 59.96875 16.5 54.203125 
Q 16.5 49.359375 19.40625 46.890625 
Q 22.3125 44.4375 30.421875 42.921875 
L 36.375 41.703125 
Q 47.40625 39.59375 52.65625 34.296875 
Q 57.90625 29 57.90625 20.125 
Q 57.90625 9.515625 50.796875 4.046875 
Q 43.703125 -1.421875 29.984375 -1.421875 
Q 24.8125 -1.421875 18.96875 -0.25 
Q 13.140625 0.921875 6.890625 3.21875 
L 6.890625 13.375 
Q 12.890625 10.015625 18.65625 8.296875 
Q 24.421875 6.59375 29.984375 6.59375 
Q 38.421875 6.59375 43.015625 9.90625 
Q 47.609375 13.234375 47.609375 19.390625 
Q 47.609375 24.75 44.3125 27.78125 
Q 41.015625 30.8125 33.5 32.328125 
L 27.484375 33.5 
Q 16.453125 35.6875 11.515625 40.375 
Q 6.59375 45.0625 6.59375 53.421875 
Q 6.59375 63.09375 13.40625 68.65625 
Q 20.21875 74.21875 32.171875 74.21875 
Q 37.3125 74.21875 42.625 73.28125 
Q 47.953125 72.359375 53.515625 70.515625 
z
" id="DejaVuSans-83"/>
       <path d="M 34.28125 27.484375 
Q 23.390625 27.484375 19.1875 25 
Q 14.984375 22.515625 14.984375 16.5 
Q 14.984375 11.71875 18.140625 8.90625 
Q 21.296875 6.109375 26.703125 6.109375 
Q 34.1875 6.109375 38.703125 11.40625 
Q 43.21875 16.703125 43.21875 25.484375 
L 43.21875 27.484375 
z
M 52.203125 31.203125 
L 52.203125 0 
L 43.21875 0 
L 43.21875 8.296875 
Q 40.140625 3.328125 35.546875 0.953125 
Q 30.953125 -1.421875 24.3125 -1.421875 
Q 15.921875 -1.421875 10.953125 3.296875 
Q 6 8.015625 6 15.921875 
Q 6 25.140625 12.171875 29.828125 
Q 18.359375 34.515625 30.609375 34.515625 
L 43.21875 34.515625 
L 43.21875 35.40625 
Q 43.21875 41.609375 39.140625 45 
Q 35.0625 48.390625 27.6875 48.390625 
Q 23 48.390625 18.546875 47.265625 
Q 14.109375 46.140625 10.015625 43.890625 
L 10.015625 52.203125 
Q 14.9375 54.109375 19.578125 55.046875 
Q 24.21875 56 28.609375 56 
Q 40.484375 56 46.34375 49.84375 
Q 52.203125 43.703125 52.203125 31.203125 
z
" id="DejaVuSans-97"/>
       <path d="M 18.3125 70.21875 
L 18.3125 54.6875 
L 36.8125 54.6875 
L 36.8125 47.703125 
L 18.3125 47.703125 
L 18.3125 18.015625 
Q 18.3125 11.328125 20.140625 9.421875 
Q 21.96875 7.515625 27.59375 7.515625 
L 36.8125 7.515625 
L 36.8125 0 
L 27.59375 0 
Q 17.1875 0 13.234375 3.875 
Q 9.28125 7.765625 9.28125 18.015625 
L 9.28125 47.703125 
L 2.6875 47.703125 
L 2.6875 54.6875 
L 9.28125 54.6875 
L 9.28125 70.21875 
z
" id="DejaVuSans-116"/>
      </defs>
      <g transform="translate(806.017559 274.718437)scale(0.1 -0.1)">
       <use xlink:href="#DejaVuSans-83"/>
       <use x="63.476562" xlink:href="#DejaVuSans-97"/>
       <use x="124.755859" xlink:href="#DejaVuSans-116"/>
       <use x="163.964844" xlink:href="#DejaVuSans-32"/>
       <use x="195.751953" xlink:href="#DejaVuSans-48"/>
       <use x="259.375" xlink:href="#DejaVuSans-48"/>
       <use x="322.998047" xlink:href="#DejaVuSans-58"/>
       <use x="356.689453" xlink:href="#DejaVuSans-48"/>
       <use x="420.3125" xlink:href="#DejaVuSans-48"/>
      </g>
     </g>
    </g>
    <g id="xtick_6">
     <g id="line2d_6">
      <g>
       <use style="stroke:#000000;stroke-width:0.8;" x="989.644951" xlink:href="#mb56a64bf94" y="260.12"/>
      </g>
     </g>
     <g id="text_6">
      <!-- Sun 00:00 -->
      <defs>
       <path d="M 54.890625 33.015625 
L 54.890625 0 
L 45.90625 0 
L 45.90625 32.71875 
Q 45.90625 40.484375 42.875 44.328125 
Q 39.84375 48.1875 33.796875 48.1875 
Q 26.515625 48.1875 22.3125 43.546875 
Q 18.109375 38.921875 18.109375 30.90625 
L 18.109375 0 
L 9.078125 0 
L 9.078125 54.6875 
L 18.109375 54.6875 
L 18.109375 46.1875 
Q 21.34375 51.125 25.703125 53.5625 
Q 30.078125 56 35.796875 56 
Q 45.21875 56 50.046875 50.171875 
Q 54.890625 44.34375 54.890625 33.015625 
z
" id="DejaVuSans-110"/>
      </defs>
      <g transform="translate(964.134794 274.718437)scale(0.1 -0.1)">
       <use xlink:href="#DejaVuSans-83"/>
       <use x="63.476562" xlink:href="#DejaVuSans-117"/>
       <use x="126.855469" xlink:href="#DejaVuSans-110"/>
       <use x="190.234375" xlink:href="#DejaVuSans-32"/>
       <use x="222.021484" xlink:href="#DejaVuSans-48"/>
       <use x="285.644531" xlink:href="#DejaVuSans-48"/>
       <use x="349.267578" xlink:href="#DejaVuSans-58"/>
       <use x="382.958984" xlink:href="#DejaVuSans-48"/>
       <use x="446.582031" xlink:href="#DejaVuSans-48"/>
      </g>
     </g>
    </g>
   </g>
   <g id="matplotlib.axis_2">
    <g id="ytick_1">
     <g id="line2d_7">
      <defs>
       <path d="M 0 0 
L -3.5 0 
" id="m374bbffd2f" style="stroke:#000000;stroke-width:0.8;"/>
      </defs>
      <g>
       <use style="stroke:#000000;stroke-width:0.8;" x="33.64" xlink:href="#m374bbffd2f" y="260.12"/>
      </g>
     </g>
     <g id="text_7">
      <!-- 0 -->
      <g transform="translate(20.2775 263.919219)scale(0.1 -0.1)">
       <use xlink:href="#DejaVuSans-48"/>
      </g>
     </g>
    </g>
    <g id="ytick_2">
     <g id="line2d_8">
      <g>
       <use style="stroke:#000000;stroke-width:0.8;" x="33.64" xlink:href="#m374bbffd2f" y="230.910476"/>
      </g>
     </g>
     <g id="text_8">
      <!-- 25 -->
      <defs>
       <path d="M 19.1875 8.296875 
L 53.609375 8.296875 
L 53.609375 0 
L 7.328125 0 
L 7.328125 8.296875 
Q 12.9375 14.109375 22.625 23.890625 
Q 32.328125 33.6875 34.8125 36.53125 
Q 39.546875 41.84375 41.421875 45.53125 
Q 43.3125 49.21875 43.3125 52.78125 
Q 43.3125 58.59375 39.234375 62.25 
Q 35.15625 65.921875 28.609375 65.921875 
Q 23.96875 65.921875 18.8125 64.3125 
Q 13.671875 62.703125 7.8125 59.421875 
L 7.8125 69.390625 
Q 13.765625 71.78125 18.9375 73 
Q 24.125 74.21875 28.421875 74.21875 
Q 39.75 74.21875 46.484375 68.546875 
Q 53.21875 62.890625 53.21875 53.421875 
Q 53.21875 48.921875 51.53125 44.890625 
Q 49.859375 40.875 45.40625 35.40625 
Q 44.1875 33.984375 37.640625 27.21875 
Q 31.109375 20.453125 19.1875 8.296875 
z
" id="DejaVuSans-50"/>
       <path d="M 10.796875 72.90625 
L 49.515625 72.90625 
L 49.515625 64.59375 
L 19.828125 64.59375 
L 19.828125 46.734375 
Q 21.96875 47.46875 24.109375 47.828125 
Q 26.265625 48.1875 28.421875 48.1875 
Q 40.625 48.1875 47.75 41.5 
Q 54.890625 34.8125 54.890625 23.390625 
Q 54.890625 11.625 47.5625 5.09375 
Q 40.234375 -1.421875 26.90625 -1.421875 
Q 22.3125 -1.421875 17.546875 -0.640625 
Q 12.796875 0.140625 7.71875 1.703125 
L 7.71875 11.625 
Q 12.109375 9.234375 16.796875 8.0625 
Q 21.484375 6.890625 26.703125 6.890625 
Q 35.15625 6.890625 40.078125 11.328125 
Q 45.015625 15.765625 45.015625 23.390625 
Q 45.015625 31 40.078125 35.4375 
Q 35.15625 39.890625 26.703125 39.890625 
Q 22.75 39.890625 18.8125 39.015625 
Q 14.890625 38.140625 10.796875 36.28125 
z
" id="DejaVuSans-53"/>
      </defs>
      <g transform="translate(13.915 234.709695)scale(0.1 -0.1)">
       <use xlink:href="#DejaVuSans-50"/>
       <use x="63.623047" xlink:href="#DejaVuSans-53"/>
      </g>
     </g>
    </g>
    <g id="ytick_3">
     <g id="line2d_9">
      <g>
       <use style="stroke:#000000;stroke-width:0.8;" x="33.64" xlink:href="#m374bbffd2f" y="201.700952"/>
      </g>
     </g>
     <g id="text_9">
      <!-- 50 -->
      <g transform="translate(13.915 205.500171)scale(0.1 -0.1)">
       <use xlink:href="#DejaVuSans-53"/>
       <use x="63.623047" xlink:href="#DejaVuSans-48"/>
      </g>
     </g>
    </g>
    <g id="ytick_4">
     <g id="line2d_10">
      <g>
       <use style="stroke:#000000;stroke-width:0.8;" x="33.64" xlink:href="#m374bbffd2f" y="172.491429"/>
      </g>
     </g>
     <g id="text_10">
      <!-- 75 -->
      <defs>
       <path d="M 8.203125 72.90625 
L 55.078125 72.90625 
L 55.078125 68.703125 
L 28.609375 0 
L 18.3125 0 
L 43.21875 64.59375 
L 8.203125 64.59375 
z
" id="DejaVuSans-55"/>
      </defs>
      <g transform="translate(13.915 176.290647)scale(0.1 -0.1)">
       <use xlink:href="#DejaVuSans-55"/>
       <use x="63.623047" xlink:href="#DejaVuSans-53"/>
      </g>
     </g>
    </g>
    <g id="ytick_5">
     <g id="line2d_11">
      <g>
       <use style="stroke:#000000;stroke-width:0.8;" x="33.64" xlink:href="#m374bbffd2f" y="143.281905"/>
      </g>
     </g>
     <g id="text_11">
      <!-- 100 -->
      <defs>
       <path d="M 12.40625 8.296875 
L 28.515625 8.296875 
L 28.515625 63.921875 
L 10.984375 60.40625 
L 10.984375 69.390625 
L 28.421875 72.90625 
L 38.28125 72.90625 
L 38.28125 8.296875 
L 54.390625 8.296875 
L 54.390625 0 
L 12.40625 0 
z
" id="DejaVuSans-49"/>
      </defs>
      <g transform="translate(7.5525 147.081124)scale(0.1 -0.1)">
       <use xlink:href="#DejaVuSans-49"/>
       <use x="63.623047" xlink:href="#DejaVuSans-48"/>
       <use x="127.246094" xlink:href="#DejaVuSans-48"/>
      </g>
     </g>
    </g>
    <g id="ytick_6">
     <g id="line2d_12">
      <g>
       <use style="stroke:#000000;stroke-width:0.8;" x="33.64" xlink:href="#m374bbffd2f" y="114.072381"/>
      </g>
     </g>
     <g id="text_12">
      <!-- 125 -->
      <g transform="translate(7.5525 117.8716)scale(0.1 -0.1)">
       <use xlink:href="#DejaVuSans-49"/>
       <use x="63.623047" xlink:href="#DejaVuSans-50"/>
       <use x="127.246094" xlink:href="#DejaVuSans-53"/>
      </g>
     </g>
    </g>
    <g id="ytick_7">
     <g id="line2d_13">
      <g>
       <use style="stroke:#000000;stroke-width:0.8;" x="33.64" xlink:href="#m374bbffd2f" y="84.862857"/>
      </g>
     </g>
     <g id="text_13">
      <!-- 150 -->
      <g transform="translate(7.5525 88.662076)scale(0.1 -0.1)">
       <use xlink:href="#DejaVuSans-49"/>
       <use x="63.623047" xlink:href="#DejaVuSans-53"/>
       <use x="127.246094" xlink:href="#DejaVuSans-48"/>
      </g>
     </g>
    </g>
    <g id="ytick_8">
     <g id="line2d_14">
      <g>
       <use style="stroke:#000000;stroke-width:0.8;" x="33.64" xlink:href="#m374bbffd2f" y="55.653333"/>
      </g>
     </g>
     <g id="text_14">
      <!-- 175 -->
      <g transform="translate(7.5525 59.452552)scale(0.1 -0.1)">
       <use xlink:href="#DejaVuSans-49"/>
       <use x="63.623047" xlink:href="#DejaVuSans-55"/>
       <use x="127.246094" xlink:href="#DejaVuSans-53"/>
      </g>
     </g>
    </g>
    <g id="ytick_9">
     <g id="line2d_15">
      <g>
       <use style="stroke:#000000;stroke-width:0.8;" x="33.64" xlink:href="#m374bbffd2f" y="26.44381"/>
      </g>
     </g>
     <g id="text_15">
      <!-- 200 -->
      <g transform="translate(7.5525 30.243028)scale(0.1 -0.1)">
       <use xlink:href="#DejaVuSans-50"/>
       <use x="63.623047" xlink:href="#DejaVuSans-48"/>
       <use x="127.246094" xlink:href="#DejaVuSans-48"/>
      </g>
     </g>
    </g>
   </g>
   <g id="line2d_16">
    <path clip-path="url(#p84832e8818)" d="M 33.64 225.068571 
L 93.014288 225.068571 
L 94.156292 220.395048 
L 95.297226 220.395048 
L 96.437598 218.058286 
L 97.575874 218.058286 
L 98.714026 211.048 
L 99.854598 211.048 
L 100.99318 200.532571 
L 102.131358 195.859048 
L 103.270625 195.859048 
L 104.409626 186.512 
L 105.548069 179.501714 
L 106.688999 177.164952 
L 112.393827 177.164952 
L 113.533007 183.006857 
L 114.674242 190.017143 
L 115.812437 190.017143 
L 116.950606 195.859048 
L 118.09112 195.859048 
L 119.229687 200.532571 
L 120.369599 195.859048 
L 121.509867 195.859048 
L 122.648608 193.522286 
L 123.786997 192.353905 
L 124.925286 188.848762 
L 126.063686 188.848762 
L 127.20304 187.680381 
L 128.34312 191.185524 
L 129.481354 191.185524 
L 130.622439 188.848762 
L 131.760991 185.343619 
L 132.899235 185.343619 
L 134.039767 183.006857 
L 135.178423 185.343619 
L 137.455055 185.343619 
L 138.595663 178.333333 
L 139.734868 177.164952 
L 140.875681 177.164952 
L 142.0163 179.501714 
L 143.157069 173.65981 
L 144.299495 173.65981 
L 145.440627 170.154667 
L 146.58432 170.154667 
L 147.72496 175.996571 
L 148.863254 165.481143 
L 150.001748 153.797333 
L 151.140006 153.797333 
L 152.278327 147.955429 
L 153.417102 138.608381 
L 154.55555 138.608381 
L 155.694572 124.58781 
L 156.834432 108.230476 
L 157.97279 108.230476 
L 159.114131 90.704762 
L 160.253143 79.020952 
L 161.39136 60.326857 
L 162.530539 60.326857 
L 163.669002 52.14819 
L 164.807116 83.694476 
L 167.085438 83.694476 
L 168.226351 86.031238 
L 169.364983 86.031238 
L 170.506006 88.368 
L 171.645327 89.536381 
L 172.783936 89.536381 
L 173.924131 105.893714 
L 175.067079 119.914286 
L 176.206188 119.914286 
L 177.34657 133.934857 
L 178.487331 153.797333 
L 179.628868 153.797333 
L 180.768133 161.976 
L 181.908452 168.986286 
L 183.047064 172.491429 
L 184.188018 172.491429 
L 185.329242 184.175238 
L 186.468195 192.353905 
L 187.606886 192.353905 
L 188.749166 260.12 
L 253.818484 260.12 
L 254.95876 241.425905 
L 256.099572 236.752381 
L 257.240217 236.752381 
L 258.379551 233.247238 
L 259.518343 222.73181 
L 260.658468 222.73181 
L 261.798485 213.384762 
L 262.939362 211.048 
L 264.080625 211.048 
L 265.224308 207.542857 
L 266.366557 205.206095 
L 267.507494 205.206095 
L 268.645733 202.869333 
L 269.788853 201.700952 
L 272.071208 201.700952 
L 273.209227 215.721524 
L 274.348995 216.889905 
L 275.4901 214.553143 
L 276.628861 216.889905 
L 277.768184 216.889905 
L 280.121091 205.206095 
L 282.472357 208.711238 
L 284.863467 208.711238 
L 286.001573 211.048 
L 287.141187 211.048 
L 288.279734 213.384762 
L 289.418014 212.216381 
L 290.558675 212.216381 
L 291.699179 207.542857 
L 293.977358 207.542857 
L 295.115775 202.869333 
L 296.257032 205.206095 
L 297.395496 205.206095 
L 298.534734 201.700952 
L 299.673692 191.185524 
L 300.812582 186.512 
L 301.950825 186.512 
L 303.089561 185.343619 
L 304.228305 173.65981 
L 305.369359 173.65981 
L 306.50911 172.491429 
L 307.649781 181.838476 
L 308.788451 181.838476 
L 311.066791 158.470857 
L 312.205736 158.470857 
L 313.346444 153.797333 
L 314.485684 150.29219 
L 315.624525 150.29219 
L 316.764817 154.965714 
L 317.904288 158.470857 
L 319.043164 158.470857 
L 320.184141 144.450286 
L 321.325295 135.103238 
L 322.464637 130.429714 
L 323.603646 130.429714 
L 324.742878 116.409143 
L 325.88195 116.409143 
L 328.16349 114.072381 
L 329.304215 110.567238 
L 330.445646 110.567238 
L 331.5852 112.904 
L 332.725689 117.577524 
L 333.864724 117.577524 
L 335.005583 126.924571 
L 336.144579 142.113524 
L 337.284846 152.628952 
L 338.424908 152.628952 
L 339.563131 159.639238 
L 340.706019 159.639238 
L 341.844342 170.154667 
L 342.984518 178.333333 
L 344.125359 178.333333 
L 345.264148 186.512 
L 346.40522 187.680381 
L 347.545411 190.017143 
L 348.684002 190.017143 
L 349.82214 260.12 
L 411.487199 260.12 
L 413.745425 248.43619 
L 414.883597 248.43619 
L 416.022282 242.594286 
L 417.161034 237.920762 
L 418.299201 237.920762 
L 419.438192 228.573714 
L 420.577411 228.573714 
L 421.716067 223.90019 
L 422.854102 220.395048 
L 423.993217 220.395048 
L 425.131809 225.068571 
L 426.271561 225.068571 
L 427.411134 227.405333 
L 428.552059 227.405333 
L 429.69348 226.236952 
L 430.834315 223.90019 
L 431.972884 223.90019 
L 433.111864 220.395048 
L 434.250349 229.742095 
L 436.529029 229.742095 
L 437.669888 227.405333 
L 438.80969 227.405333 
L 439.948427 218.058286 
L 441.088776 218.058286 
L 442.228378 212.216381 
L 444.507411 212.216381 
L 446.786586 207.542857 
L 447.932131 207.542857 
L 449.073818 201.700952 
L 450.216051 201.700952 
L 451.354801 202.869333 
L 452.493442 200.532571 
L 453.631441 200.532571 
L 454.769689 191.185524 
L 457.047226 191.185524 
L 458.204472 188.848762 
L 459.343366 188.848762 
L 460.481553 179.501714 
L 461.624043 179.501714 
L 462.763936 177.164952 
L 463.902955 171.323048 
L 465.044188 171.323048 
L 466.182357 161.976 
L 467.322144 145.618667 
L 468.460505 117.577524 
L 469.599461 117.577524 
L 470.739145 109.398857 
L 471.87757 88.368 
L 473.01639 88.368 
L 474.158085 66.168762 
L 475.297609 52.14819 
L 476.436449 52.14819 
L 477.574774 42.801143 
L 478.713696 48.643048 
L 479.854755 48.643048 
L 480.995493 35.790857 
L 482.133737 33.454095 
L 483.27428 33.454095 
L 484.41648 34.622476 
L 485.557376 27.61219 
L 486.701163 27.61219 
L 487.839567 33.454095 
L 488.980319 38.127619 
L 490.118445 38.127619 
L 491.260085 48.643048 
L 492.397947 50.97981 
L 493.536774 72.010667 
L 494.674986 72.010667 
L 495.81574 89.536381 
L 496.954415 89.536381 
L 498.093666 104.725333 
L 499.232983 132.766476 
L 500.372763 140.945143 
L 501.514535 140.945143 
L 502.655095 165.481143 
L 503.792957 177.164952 
L 504.932001 177.164952 
L 506.073286 183.006857 
L 507.212897 194.690667 
L 509.493035 194.690667 
L 510.632398 260.12 
L 572.291358 260.12 
L 573.430948 253.109714 
L 574.571262 253.109714 
L 575.710189 249.604571 
L 576.851193 244.931048 
L 577.989223 244.931048 
L 579.128266 239.089143 
L 580.268136 236.752381 
L 581.407061 236.752381 
L 583.684095 229.742095 
L 584.825108 229.742095 
L 585.96513 233.247238 
L 587.106492 232.078857 
L 588.245891 228.573714 
L 589.386114 228.573714 
L 590.524947 229.742095 
L 591.663419 227.405333 
L 592.805088 227.405333 
L 593.944463 221.563429 
L 595.082581 219.226667 
L 596.226211 219.226667 
L 597.364374 214.553143 
L 598.503114 208.711238 
L 599.641745 208.711238 
L 600.780581 212.216381 
L 601.919736 214.553143 
L 603.060793 214.553143 
L 604.200816 208.711238 
L 605.33948 213.384762 
L 607.617772 213.384762 
L 608.75716 209.879619 
L 609.898633 199.36419 
L 611.036705 199.36419 
L 613.317764 197.027429 
L 614.456664 197.027429 
L 616.737385 185.343619 
L 619.018373 185.343619 
L 620.156789 180.670095 
L 621.296453 180.670095 
L 622.435889 170.154667 
L 623.575821 165.481143 
L 624.71412 165.481143 
L 625.853167 158.470857 
L 626.99158 142.113524 
L 628.130298 128.092952 
L 629.268543 128.092952 
L 630.410276 103.556952 
L 631.553611 107.062095 
L 632.694777 107.062095 
L 633.835348 102.388571 
L 634.976153 80.189333 
L 636.114571 80.189333 
L 637.253784 66.168762 
L 638.392002 60.326857 
L 639.530319 60.326857 
L 640.670925 61.495238 
L 641.810795 48.643048 
L 642.949605 45.137905 
L 644.090528 45.137905 
L 645.229214 63.832 
L 646.367846 72.010667 
L 647.507135 72.010667 
L 648.646534 83.694476 
L 649.785664 90.704762 
L 650.926543 90.704762 
L 652.064676 95.378286 
L 653.211533 107.062095 
L 654.353833 107.062095 
L 655.492715 114.072381 
L 656.630923 129.261333 
L 657.770479 129.261333 
L 660.047379 157.302476 
L 661.18936 157.302476 
L 662.330591 161.976 
L 663.471147 177.164952 
L 664.61143 177.164952 
L 665.751499 184.175238 
L 666.891092 260.12 
L 731.977715 260.12 
L 733.116248 248.43619 
L 734.257137 242.594286 
L 735.398732 242.594286 
L 736.537001 234.415619 
L 737.674954 234.415619 
L 738.813855 222.73181 
L 739.952109 219.226667 
L 741.092451 214.553143 
L 742.233625 214.553143 
L 744.516715 205.206095 
L 745.657559 205.206095 
L 746.796922 201.700952 
L 747.93739 199.36419 
L 749.076657 205.206095 
L 750.215876 205.206095 
L 751.354446 207.542857 
L 752.495585 211.048 
L 753.635843 211.048 
L 754.778182 219.226667 
L 755.917338 219.226667 
L 757.05627 218.058286 
L 759.3343 218.058286 
L 760.472679 221.563429 
L 761.611637 218.058286 
L 763.88958 218.058286 
L 765.028645 221.563429 
L 766.167763 222.73181 
L 767.306143 222.73181 
L 769.585327 211.048 
L 770.723587 208.711238 
L 771.86375 208.711238 
L 773.001746 205.206095 
L 774.140193 209.879619 
L 775.278556 209.879619 
L 776.417411 202.869333 
L 777.557412 202.869333 
L 778.696891 195.859048 
L 779.83565 197.027429 
L 780.975068 192.353905 
L 782.114235 192.353905 
L 783.253481 187.680381 
L 784.393399 181.838476 
L 785.53188 181.838476 
L 786.671187 183.006857 
L 787.810807 178.333333 
L 788.951758 183.006857 
L 790.092519 183.006857 
L 791.231406 177.164952 
L 792.37079 177.164952 
L 793.511946 186.512 
L 794.653247 181.838476 
L 795.792487 181.838476 
L 796.931625 184.175238 
L 798.071946 188.848762 
L 799.210998 186.512 
L 800.352137 186.512 
L 801.490223 183.006857 
L 802.631112 177.164952 
L 803.771418 177.164952 
L 804.909977 178.333333 
L 806.048256 187.680381 
L 807.186434 187.680381 
L 808.325977 186.512 
L 810.607292 186.512 
L 811.748099 188.848762 
L 814.02776 188.848762 
L 815.168715 200.532571 
L 816.308019 200.532571 
L 817.447006 205.206095 
L 818.587178 205.206095 
L 819.728106 206.374476 
L 820.869211 206.374476 
L 822.009832 207.542857 
L 823.150262 209.879619 
L 826.573915 209.879619 
L 827.712978 260.12 
L 890.510457 260.12 
L 891.649224 258.951619 
L 892.788016 254.278095 
L 893.927885 243.762667 
L 895.068005 243.762667 
L 897.347988 236.752381 
L 898.488267 236.752381 
L 899.628404 229.742095 
L 900.768686 220.395048 
L 901.907684 220.395048 
L 903.046169 218.058286 
L 904.184813 216.889905 
L 905.325977 216.889905 
L 906.466183 206.374476 
L 907.605057 206.374476 
L 908.743459 198.19581 
L 909.883155 198.19581 
L 911.021667 195.859048 
L 913.297731 195.859048 
L 914.44043 197.027429 
L 915.5793 204.037714 
L 916.721396 204.037714 
L 917.859447 200.532571 
L 918.998139 199.36419 
L 920.136752 199.36419 
L 921.275403 194.690667 
L 922.414094 192.353905 
L 923.552443 192.353905 
L 924.690963 199.36419 
L 925.829738 198.19581 
L 926.969742 198.19581 
L 928.10827 199.36419 
L 929.246281 204.037714 
L 930.384734 204.037714 
L 931.525244 206.374476 
L 933.804895 197.027429 
L 934.944797 197.027429 
L 936.082447 198.19581 
L 937.221411 197.027429 
L 938.361839 197.027429 
L 939.500528 205.206095 
L 940.639554 211.048 
L 941.778018 201.700952 
L 944.055029 201.700952 
L 945.193683 191.185524 
L 946.333491 191.185524 
L 947.472044 186.512 
L 948.611493 186.512 
L 949.7498 191.185524 
L 950.888387 194.690667 
L 952.027085 193.522286 
L 953.165506 193.522286 
L 954.303991 200.532571 
L 955.442627 197.027429 
L 956.581376 197.027429 
L 957.720239 201.700952 
L 958.858941 202.869333 
L 959.997696 201.700952 
L 961.136177 201.700952 
L 962.275098 200.532571 
L 963.413755 200.532571 
L 964.552491 199.36419 
L 965.69254 212.216381 
L 966.830322 212.216381 
L 967.968512 214.553143 
L 969.106579 225.068571 
L 970.244249 227.405333 
L 972.521165 227.405333 
L 973.660934 229.742095 
L 974.798902 229.742095 
L 975.938818 233.247238 
L 977.076521 235.584 
L 978.217156 235.584 
L 979.354679 236.752381 
L 985.045882 236.752381 
L 986.18356 260.12 
L 1048.991356 260.12 
L 1050.111554 257.783238 
L 1051.250629 257.783238 
L 1052.390853 243.762667 
L 1053.529213 237.920762 
L 1054.667102 237.920762 
L 1055.805204 221.563429 
L 1056.942726 208.711238 
L 1058.08068 202.869333 
L 1059.222018 202.869333 
L 1060.362194 192.353905 
L 1061.50018 192.353905 
L 1062.638241 165.481143 
L 1063.775805 158.470857 
L 1064.91367 158.470857 
L 1066.052542 145.618667 
L 1068.328678 100.05181 
L 1069.469415 100.05181 
L 1070.609886 102.388571 
L 1071.747671 90.704762 
L 1072.885456 90.704762 
L 1074.023702 84.862857 
L 1075.161511 83.694476 
L 1076.299779 83.694476 
L 1077.437461 84.862857 
L 1078.575785 83.694476 
L 1079.715837 83.694476 
L 1080.856182 91.873143 
L 1081.996493 94.209905 
L 1083.135162 94.209905 
L 1084.275505 110.567238 
L 1085.414087 102.388571 
L 1086.554217 116.409143 
L 1087.692612 116.409143 
L 1088.832848 117.577524 
L 1089.971619 121.082667 
L 1092.249323 121.082667 
L 1093.388173 115.240762 
L 1094.529277 94.209905 
L 1095.668534 94.209905 
L 1096.806435 102.388571 
L 1097.94512 86.031238 
L 1099.082912 86.031238 
L 1100.224444 65.000381 
L 1101.362088 65.000381 
L 1102.502246 79.020952 
L 1103.642131 70.842286 
L 1104.780906 83.694476 
L 1105.919418 83.694476 
L 1107.059587 96.546667 
L 1108.200793 97.715048 
L 1109.341168 97.715048 
L 1110.481348 101.22019 
L 1111.621472 103.556952 
L 1112.763039 121.082667 
L 1113.905777 121.082667 
L 1115.043661 129.261333 
L 1116.183446 129.261333 
L 1117.324034 131.598095 
L 1118.461874 128.092952 
L 1119.603234 128.092952 
L 1120.746833 149.12381 
L 1121.884714 144.450286 
L 1123.024665 150.29219 
L 1124.165312 150.29219 
L 1126.444296 143.281905 
L 1127.582451 143.281905 
L 1128.722748 146.787048 
L 1129.862008 147.955429 
L 1131.001975 147.955429 
L 1132.142126 158.470857 
L 1133.28 166.649524 
L 1133.28 166.649524 
" style="fill:none;stroke:#1f77b4;stroke-linecap:square;stroke-width:1.5;"/>
   </g>
   <g id="patch_3">
    <path d="M 33.64 260.12 
L 33.64 14.76 
" style="fill:none;stroke:#000000;stroke-linecap:square;stroke-linejoin:miter;stroke-width:0.8;"/>
   </g>
   <g id="patch_4">
    <path d="M 1133.28 260.12 
L 1133.28 14.76 
" style="fill:none;stroke:#000000;stroke-linecap:square;stroke-linejoin:miter;stroke-width:0.8;"/>
   </g>
   <g id="patch_5">
    <path d="M 33.64 260.12 
L 1133.28 260.12 
" style="fill:none;stroke:#000000;stroke-linecap:square;stroke-linejoin:miter;stroke-width:0.8;"/>
   </g>
   <g id="patch_6">
    <path d="M 33.64 14.76 
L 1133.28 14.76 
" style="fill:none;stroke:#000000;stroke-linecap:square;stroke-linejoin:miter;stroke-width:0.8;"/>
   </g>
  </g>
 </g>
 <defs>
  <clipPath id="p84832e8818">
   <rect height="245.36" width="1099.64" x="33.64" y="14.76"/>
  </clipPath>
 </defs>
</svg>
