<?xml version="1.0" encoding="utf-8" standalone="no"?>
<!DOCTYPE svg PUBLIC "-//W3C//DTD SVG 1.1//EN"
  "http://www.w3.org/Graphics/SVG/1.1/DTD/svg11.dtd">
<!-- Created with matplotlib (https://matplotlib.org/) -->
<svg height="288pt" version="1.1" viewBox="0 0 1152 288" width="1152pt" xmlns="http://www.w3.org/2000/svg" xmlns:xlink="http://www.w3.org/1999/xlink">
 <defs>
  <style type="text/css">
*{stroke-linecap:butt;stroke-linejoin:round;}
  </style>
 </defs>
 <g id="figure_1">
  <g id="patch_1">
   <path d="M 0 288 
L 1152 288 
L 1152 0 
L 0 0 
z
" style="fill:#ffffff;"/>
  </g>
  <g id="axes_1">
   <g id="patch_2">
    <path d="M 33.64 260.12 
L 1133.28 260.12 
L 1133.28 14.76 
L 33.64 14.76 
z
" style="fill:#ffffff;"/>
   </g>
   <g id="matplotlib.axis_1">
    <g id="xtick_1">
     <g id="line2d_1">
      <defs>
       <path d="M 0 0 
L 0 3.5 
" id="m031fd35af4" style="stroke:#000000;stroke-width:0.8;"/>
      </defs>
      <g>
       <use style="stroke:#000000;stroke-width:0.8;" x="172.815941" xlink:href="#m031fd35af4" y="260.12"/>
      </g>
     </g>
     <g id="text_1">
      <!-- Mon 12:00 -->
      <defs>
       <path d="M 9.8125 72.90625 
L 24.515625 72.90625 
L 43.109375 23.296875 
L 61.8125 72.90625 
L 76.515625 72.90625 
L 76.515625 0 
L 66.890625 0 
L 66.890625 64.015625 
L 48.09375 14.015625 
L 38.1875 14.015625 
L 19.390625 64.015625 
L 19.390625 0 
L 9.8125 0 
z
" id="DejaVuSans-77"/>
       <path d="M 30.609375 48.390625 
Q 23.390625 48.390625 19.1875 42.75 
Q 14.984375 37.109375 14.984375 27.296875 
Q 14.984375 17.484375 19.15625 11.84375 
Q 23.34375 6.203125 30.609375 6.203125 
Q 37.796875 6.203125 41.984375 11.859375 
Q 46.1875 17.53125 46.1875 27.296875 
Q 46.1875 37.015625 41.984375 42.703125 
Q 37.796875 48.390625 30.609375 48.390625 
z
M 30.609375 56 
Q 42.328125 56 49.015625 48.375 
Q 55.71875 40.765625 55.71875 27.296875 
Q 55.71875 13.875 49.015625 6.21875 
Q 42.328125 -1.421875 30.609375 -1.421875 
Q 18.84375 -1.421875 12.171875 6.21875 
Q 5.515625 13.875 5.515625 27.296875 
Q 5.515625 40.765625 12.171875 48.375 
Q 18.84375 56 30.609375 56 
z
" id="DejaVuSans-111"/>
       <path d="M 54.890625 33.015625 
L 54.890625 0 
L 45.90625 0 
L 45.90625 32.71875 
Q 45.90625 40.484375 42.875 44.328125 
Q 39.84375 48.1875 33.796875 48.1875 
Q 26.515625 48.1875 22.3125 43.546875 
Q 18.109375 38.921875 18.109375 30.90625 
L 18.109375 0 
L 9.078125 0 
L 9.078125 54.6875 
L 18.109375 54.6875 
L 18.109375 46.1875 
Q 21.34375 51.125 25.703125 53.5625 
Q 30.078125 56 35.796875 56 
Q 45.21875 56 50.046875 50.171875 
Q 54.890625 44.34375 54.890625 33.015625 
z
" id="DejaVuSans-110"/>
       <path id="DejaVuSans-32"/>
       <path d="M 12.40625 8.296875 
L 28.515625 8.296875 
L 28.515625 63.921875 
L 10.984375 60.40625 
L 10.984375 69.390625 
L 28.421875 72.90625 
L 38.28125 72.90625 
L 38.28125 8.296875 
L 54.390625 8.296875 
L 54.390625 0 
L 12.40625 0 
z
" id="DejaVuSans-49"/>
       <path d="M 19.1875 8.296875 
L 53.609375 8.296875 
L 53.609375 0 
L 7.328125 0 
L 7.328125 8.296875 
Q 12.9375 14.109375 22.625 23.890625 
Q 32.328125 33.6875 34.8125 36.53125 
Q 39.546875 41.84375 41.421875 45.53125 
Q 43.3125 49.21875 43.3125 52.78125 
Q 43.3125 58.59375 39.234375 62.25 
Q 35.15625 65.921875 28.609375 65.921875 
Q 23.96875 65.921875 18.8125 64.3125 
Q 13.671875 62.703125 7.8125 59.421875 
L 7.8125 69.390625 
Q 13.765625 71.78125 18.9375 73 
Q 24.125 74.21875 28.421875 74.21875 
Q 39.75 74.21875 46.484375 68.546875 
Q 53.21875 62.890625 53.21875 53.421875 
Q 53.21875 48.921875 51.53125 44.890625 
Q 49.859375 40.875 45.40625 35.40625 
Q 44.1875 33.984375 37.640625 27.21875 
Q 31.109375 20.453125 19.1875 8.296875 
z
" id="DejaVuSans-50"/>
       <path d="M 11.71875 12.40625 
L 22.015625 12.40625 
L 22.015625 0 
L 11.71875 0 
z
M 11.71875 51.703125 
L 22.015625 51.703125 
L 22.015625 39.3125 
L 11.71875 39.3125 
z
" id="DejaVuSans-58"/>
       <path d="M 31.78125 66.40625 
Q 24.171875 66.40625 20.328125 58.90625 
Q 16.5 51.421875 16.5 36.375 
Q 16.5 21.390625 20.328125 13.890625 
Q 24.171875 6.390625 31.78125 6.390625 
Q 39.453125 6.390625 43.28125 13.890625 
Q 47.125 21.390625 47.125 36.375 
Q 47.125 51.421875 43.28125 58.90625 
Q 39.453125 66.40625 31.78125 66.40625 
z
M 31.78125 74.21875 
Q 44.046875 74.21875 50.515625 64.515625 
Q 56.984375 54.828125 56.984375 36.375 
Q 56.984375 17.96875 50.515625 8.265625 
Q 44.046875 -1.421875 31.78125 -1.421875 
Q 19.53125 -1.421875 13.0625 8.265625 
Q 6.59375 17.96875 6.59375 36.375 
Q 6.59375 54.828125 13.0625 64.515625 
Q 19.53125 74.21875 31.78125 74.21875 
z
" id="DejaVuSans-48"/>
      </defs>
      <g transform="translate(146.275316 274.718437)scale(0.1 -0.1)">
       <use xlink:href="#DejaVuSans-77"/>
       <use x="86.279297" xlink:href="#DejaVuSans-111"/>
       <use x="147.460938" xlink:href="#DejaVuSans-110"/>
       <use x="210.839844" xlink:href="#DejaVuSans-32"/>
       <use x="242.626953" xlink:href="#DejaVuSans-49"/>
       <use x="306.25" xlink:href="#DejaVuSans-50"/>
       <use x="369.873047" xlink:href="#DejaVuSans-58"/>
       <use x="403.564453" xlink:href="#DejaVuSans-48"/>
       <use x="467.1875" xlink:href="#DejaVuSans-48"/>
      </g>
     </g>
    </g>
    <g id="xtick_2">
     <g id="line2d_2">
      <g>
       <use style="stroke:#000000;stroke-width:0.8;" x="313.008651" xlink:href="#m031fd35af4" y="260.12"/>
      </g>
     </g>
     <g id="text_2">
      <!-- Tue 00:00 -->
      <defs>
       <path d="M -0.296875 72.90625 
L 61.375 72.90625 
L 61.375 64.59375 
L 35.5 64.59375 
L 35.5 0 
L 25.59375 0 
L 25.59375 64.59375 
L -0.296875 64.59375 
z
" id="DejaVuSans-84"/>
       <path d="M 8.5 21.578125 
L 8.5 54.6875 
L 17.484375 54.6875 
L 17.484375 21.921875 
Q 17.484375 14.15625 20.5 10.265625 
Q 23.53125 6.390625 29.59375 6.390625 
Q 36.859375 6.390625 41.078125 11.03125 
Q 45.3125 15.671875 45.3125 23.6875 
L 45.3125 54.6875 
L 54.296875 54.6875 
L 54.296875 0 
L 45.3125 0 
L 45.3125 8.40625 
Q 42.046875 3.421875 37.71875 1 
Q 33.40625 -1.421875 27.6875 -1.421875 
Q 18.265625 -1.421875 13.375 4.4375 
Q 8.5 10.296875 8.5 21.578125 
z
M 31.109375 56 
z
" id="DejaVuSans-117"/>
       <path d="M 56.203125 29.59375 
L 56.203125 25.203125 
L 14.890625 25.203125 
Q 15.484375 15.921875 20.484375 11.0625 
Q 25.484375 6.203125 34.421875 6.203125 
Q 39.59375 6.203125 44.453125 7.46875 
Q 49.3125 8.734375 54.109375 11.28125 
L 54.109375 2.78125 
Q 49.265625 0.734375 44.1875 -0.34375 
Q 39.109375 -1.421875 33.890625 -1.421875 
Q 20.796875 -1.421875 13.15625 6.1875 
Q 5.515625 13.8125 5.515625 26.8125 
Q 5.515625 40.234375 12.765625 48.109375 
Q 20.015625 56 32.328125 56 
Q 43.359375 56 49.78125 48.890625 
Q 56.203125 41.796875 56.203125 29.59375 
z
M 47.21875 32.234375 
Q 47.125 39.59375 43.09375 43.984375 
Q 39.0625 48.390625 32.421875 48.390625 
Q 24.90625 48.390625 20.390625 44.140625 
Q 15.875 39.890625 15.1875 32.171875 
z
" id="DejaVuSans-101"/>
      </defs>
      <g transform="translate(287.722714 274.718437)scale(0.1 -0.1)">
       <use xlink:href="#DejaVuSans-84"/>
       <use x="60.849609" xlink:href="#DejaVuSans-117"/>
       <use x="124.228516" xlink:href="#DejaVuSans-101"/>
       <use x="185.751953" xlink:href="#DejaVuSans-32"/>
       <use x="217.539062" xlink:href="#DejaVuSans-48"/>
       <use x="281.162109" xlink:href="#DejaVuSans-48"/>
       <use x="344.785156" xlink:href="#DejaVuSans-58"/>
       <use x="378.476562" xlink:href="#DejaVuSans-48"/>
       <use x="442.099609" xlink:href="#DejaVuSans-48"/>
      </g>
     </g>
    </g>
    <g id="xtick_3">
     <g id="line2d_3">
      <g>
       <use style="stroke:#000000;stroke-width:0.8;" x="453.201361" xlink:href="#m031fd35af4" y="260.12"/>
      </g>
     </g>
     <g id="text_3">
      <!-- Tue 12:00 -->
      <g transform="translate(427.915424 274.718437)scale(0.1 -0.1)">
       <use xlink:href="#DejaVuSans-84"/>
       <use x="60.849609" xlink:href="#DejaVuSans-117"/>
       <use x="124.228516" xlink:href="#DejaVuSans-101"/>
       <use x="185.751953" xlink:href="#DejaVuSans-32"/>
       <use x="217.539062" xlink:href="#DejaVuSans-49"/>
       <use x="281.162109" xlink:href="#DejaVuSans-50"/>
       <use x="344.785156" xlink:href="#DejaVuSans-58"/>
       <use x="378.476562" xlink:href="#DejaVuSans-48"/>
       <use x="442.099609" xlink:href="#DejaVuSans-48"/>
      </g>
     </g>
    </g>
    <g id="xtick_4">
     <g id="line2d_4">
      <g>
       <use style="stroke:#000000;stroke-width:0.8;" x="593.394072" xlink:href="#m031fd35af4" y="260.12"/>
      </g>
     </g>
     <g id="text_4">
      <!-- Wed 00:00 -->
      <defs>
       <path d="M 3.328125 72.90625 
L 13.28125 72.90625 
L 28.609375 11.28125 
L 43.890625 72.90625 
L 54.984375 72.90625 
L 70.3125 11.28125 
L 85.59375 72.90625 
L 95.609375 72.90625 
L 77.296875 0 
L 64.890625 0 
L 49.515625 63.28125 
L 33.984375 0 
L 21.578125 0 
z
" id="DejaVuSans-87"/>
       <path d="M 45.40625 46.390625 
L 45.40625 75.984375 
L 54.390625 75.984375 
L 54.390625 0 
L 45.40625 0 
L 45.40625 8.203125 
Q 42.578125 3.328125 38.25 0.953125 
Q 33.9375 -1.421875 27.875 -1.421875 
Q 17.96875 -1.421875 11.734375 6.484375 
Q 5.515625 14.40625 5.515625 27.296875 
Q 5.515625 40.1875 11.734375 48.09375 
Q 17.96875 56 27.875 56 
Q 33.9375 56 38.25 53.625 
Q 42.578125 51.265625 45.40625 46.390625 
z
M 14.796875 27.296875 
Q 14.796875 17.390625 18.875 11.75 
Q 22.953125 6.109375 30.078125 6.109375 
Q 37.203125 6.109375 41.296875 11.75 
Q 45.40625 17.390625 45.40625 27.296875 
Q 45.40625 37.203125 41.296875 42.84375 
Q 37.203125 48.484375 30.078125 48.484375 
Q 22.953125 48.484375 18.875 42.84375 
Q 14.796875 37.203125 14.796875 27.296875 
z
" id="DejaVuSans-100"/>
      </defs>
      <g transform="translate(566.205009 274.718437)scale(0.1 -0.1)">
       <use xlink:href="#DejaVuSans-87"/>
       <use x="98.798828" xlink:href="#DejaVuSans-101"/>
       <use x="160.322266" xlink:href="#DejaVuSans-100"/>
       <use x="223.798828" xlink:href="#DejaVuSans-32"/>
       <use x="255.585938" xlink:href="#DejaVuSans-48"/>
       <use x="319.208984" xlink:href="#DejaVuSans-48"/>
       <use x="382.832031" xlink:href="#DejaVuSans-58"/>
       <use x="416.523438" xlink:href="#DejaVuSans-48"/>
       <use x="480.146484" xlink:href="#DejaVuSans-48"/>
      </g>
     </g>
    </g>
    <g id="xtick_5">
     <g id="line2d_5">
      <g>
       <use style="stroke:#000000;stroke-width:0.8;" x="733.586782" xlink:href="#m031fd35af4" y="260.12"/>
      </g>
     </g>
     <g id="text_5">
      <!-- Wed 12:00 -->
      <g transform="translate(706.397719 274.718437)scale(0.1 -0.1)">
       <use xlink:href="#DejaVuSans-87"/>
       <use x="98.798828" xlink:href="#DejaVuSans-101"/>
       <use x="160.322266" xlink:href="#DejaVuSans-100"/>
       <use x="223.798828" xlink:href="#DejaVuSans-32"/>
       <use x="255.585938" xlink:href="#DejaVuSans-49"/>
       <use x="319.208984" xlink:href="#DejaVuSans-50"/>
       <use x="382.832031" xlink:href="#DejaVuSans-58"/>
       <use x="416.523438" xlink:href="#DejaVuSans-48"/>
       <use x="480.146484" xlink:href="#DejaVuSans-48"/>
      </g>
     </g>
    </g>
    <g id="xtick_6">
     <g id="line2d_6">
      <g>
       <use style="stroke:#000000;stroke-width:0.8;" x="873.779492" xlink:href="#m031fd35af4" y="260.12"/>
      </g>
     </g>
     <g id="text_6">
      <!-- Thu 00:00 -->
      <defs>
       <path d="M 54.890625 33.015625 
L 54.890625 0 
L 45.90625 0 
L 45.90625 32.71875 
Q 45.90625 40.484375 42.875 44.328125 
Q 39.84375 48.1875 33.796875 48.1875 
Q 26.515625 48.1875 22.3125 43.546875 
Q 18.109375 38.921875 18.109375 30.90625 
L 18.109375 0 
L 9.078125 0 
L 9.078125 75.984375 
L 18.109375 75.984375 
L 18.109375 46.1875 
Q 21.34375 51.125 25.703125 53.5625 
Q 30.078125 56 35.796875 56 
Q 45.21875 56 50.046875 50.171875 
Q 54.890625 44.34375 54.890625 33.015625 
z
" id="DejaVuSans-104"/>
      </defs>
      <g transform="translate(848.389648 274.718437)scale(0.1 -0.1)">
       <use xlink:href="#DejaVuSans-84"/>
       <use x="61.083984" xlink:href="#DejaVuSans-104"/>
       <use x="124.462891" xlink:href="#DejaVuSans-117"/>
       <use x="187.841797" xlink:href="#DejaVuSans-32"/>
       <use x="219.628906" xlink:href="#DejaVuSans-48"/>
       <use x="283.251953" xlink:href="#DejaVuSans-48"/>
       <use x="346.875" xlink:href="#DejaVuSans-58"/>
       <use x="380.566406" xlink:href="#DejaVuSans-48"/>
       <use x="444.189453" xlink:href="#DejaVuSans-48"/>
      </g>
     </g>
    </g>
    <g id="xtick_7">
     <g id="line2d_7">
      <g>
       <use style="stroke:#000000;stroke-width:0.8;" x="1013.972202" xlink:href="#m031fd35af4" y="260.12"/>
      </g>
     </g>
     <g id="text_7">
      <!-- Thu 12:00 -->
      <g transform="translate(988.582359 274.718437)scale(0.1 -0.1)">
       <use xlink:href="#DejaVuSans-84"/>
       <use x="61.083984" xlink:href="#DejaVuSans-104"/>
       <use x="124.462891" xlink:href="#DejaVuSans-117"/>
       <use x="187.841797" xlink:href="#DejaVuSans-32"/>
       <use x="219.628906" xlink:href="#DejaVuSans-49"/>
       <use x="283.251953" xlink:href="#DejaVuSans-50"/>
       <use x="346.875" xlink:href="#DejaVuSans-58"/>
       <use x="380.566406" xlink:href="#DejaVuSans-48"/>
       <use x="444.189453" xlink:href="#DejaVuSans-48"/>
      </g>
     </g>
    </g>
   </g>
   <g id="matplotlib.axis_2">
    <g id="ytick_1">
     <g id="line2d_8">
      <defs>
       <path d="M 0 0 
L -3.5 0 
" id="m9b8c6eb097" style="stroke:#000000;stroke-width:0.8;"/>
      </defs>
      <g>
       <use style="stroke:#000000;stroke-width:0.8;" x="33.64" xlink:href="#m9b8c6eb097" y="260.12"/>
      </g>
     </g>
     <g id="text_8">
      <!-- 0 -->
      <g transform="translate(20.2775 263.919219)scale(0.1 -0.1)">
       <use xlink:href="#DejaVuSans-48"/>
      </g>
     </g>
    </g>
    <g id="ytick_2">
     <g id="line2d_9">
      <g>
       <use style="stroke:#000000;stroke-width:0.8;" x="33.64" xlink:href="#m9b8c6eb097" y="230.910476"/>
      </g>
     </g>
     <g id="text_9">
      <!-- 25 -->
      <defs>
       <path d="M 10.796875 72.90625 
L 49.515625 72.90625 
L 49.515625 64.59375 
L 19.828125 64.59375 
L 19.828125 46.734375 
Q 21.96875 47.46875 24.109375 47.828125 
Q 26.265625 48.1875 28.421875 48.1875 
Q 40.625 48.1875 47.75 41.5 
Q 54.890625 34.8125 54.890625 23.390625 
Q 54.890625 11.625 47.5625 5.09375 
Q 40.234375 -1.421875 26.90625 -1.421875 
Q 22.3125 -1.421875 17.546875 -0.640625 
Q 12.796875 0.140625 7.71875 1.703125 
L 7.71875 11.625 
Q 12.109375 9.234375 16.796875 8.0625 
Q 21.484375 6.890625 26.703125 6.890625 
Q 35.15625 6.890625 40.078125 11.328125 
Q 45.015625 15.765625 45.015625 23.390625 
Q 45.015625 31 40.078125 35.4375 
Q 35.15625 39.890625 26.703125 39.890625 
Q 22.75 39.890625 18.8125 39.015625 
Q 14.890625 38.140625 10.796875 36.28125 
z
" id="DejaVuSans-53"/>
      </defs>
      <g transform="translate(13.915 234.709695)scale(0.1 -0.1)">
       <use xlink:href="#DejaVuSans-50"/>
       <use x="63.623047" xlink:href="#DejaVuSans-53"/>
      </g>
     </g>
    </g>
    <g id="ytick_3">
     <g id="line2d_10">
      <g>
       <use style="stroke:#000000;stroke-width:0.8;" x="33.64" xlink:href="#m9b8c6eb097" y="201.700952"/>
      </g>
     </g>
     <g id="text_10">
      <!-- 50 -->
      <g transform="translate(13.915 205.500171)scale(0.1 -0.1)">
       <use xlink:href="#DejaVuSans-53"/>
       <use x="63.623047" xlink:href="#DejaVuSans-48"/>
      </g>
     </g>
    </g>
    <g id="ytick_4">
     <g id="line2d_11">
      <g>
       <use style="stroke:#000000;stroke-width:0.8;" x="33.64" xlink:href="#m9b8c6eb097" y="172.491429"/>
      </g>
     </g>
     <g id="text_11">
      <!-- 75 -->
      <defs>
       <path d="M 8.203125 72.90625 
L 55.078125 72.90625 
L 55.078125 68.703125 
L 28.609375 0 
L 18.3125 0 
L 43.21875 64.59375 
L 8.203125 64.59375 
z
" id="DejaVuSans-55"/>
      </defs>
      <g transform="translate(13.915 176.290647)scale(0.1 -0.1)">
       <use xlink:href="#DejaVuSans-55"/>
       <use x="63.623047" xlink:href="#DejaVuSans-53"/>
      </g>
     </g>
    </g>
    <g id="ytick_5">
     <g id="line2d_12">
      <g>
       <use style="stroke:#000000;stroke-width:0.8;" x="33.64" xlink:href="#m9b8c6eb097" y="143.281905"/>
      </g>
     </g>
     <g id="text_12">
      <!-- 100 -->
      <g transform="translate(7.5525 147.081124)scale(0.1 -0.1)">
       <use xlink:href="#DejaVuSans-49"/>
       <use x="63.623047" xlink:href="#DejaVuSans-48"/>
       <use x="127.246094" xlink:href="#DejaVuSans-48"/>
      </g>
     </g>
    </g>
    <g id="ytick_6">
     <g id="line2d_13">
      <g>
       <use style="stroke:#000000;stroke-width:0.8;" x="33.64" xlink:href="#m9b8c6eb097" y="114.072381"/>
      </g>
     </g>
     <g id="text_13">
      <!-- 125 -->
      <g transform="translate(7.5525 117.8716)scale(0.1 -0.1)">
       <use xlink:href="#DejaVuSans-49"/>
       <use x="63.623047" xlink:href="#DejaVuSans-50"/>
       <use x="127.246094" xlink:href="#DejaVuSans-53"/>
      </g>
     </g>
    </g>
    <g id="ytick_7">
     <g id="line2d_14">
      <g>
       <use style="stroke:#000000;stroke-width:0.8;" x="33.64" xlink:href="#m9b8c6eb097" y="84.862857"/>
      </g>
     </g>
     <g id="text_14">
      <!-- 150 -->
      <g transform="translate(7.5525 88.662076)scale(0.1 -0.1)">
       <use xlink:href="#DejaVuSans-49"/>
       <use x="63.623047" xlink:href="#DejaVuSans-53"/>
       <use x="127.246094" xlink:href="#DejaVuSans-48"/>
      </g>
     </g>
    </g>
    <g id="ytick_8">
     <g id="line2d_15">
      <g>
       <use style="stroke:#000000;stroke-width:0.8;" x="33.64" xlink:href="#m9b8c6eb097" y="55.653333"/>
      </g>
     </g>
     <g id="text_15">
      <!-- 175 -->
      <g transform="translate(7.5525 59.452552)scale(0.1 -0.1)">
       <use xlink:href="#DejaVuSans-49"/>
       <use x="63.623047" xlink:href="#DejaVuSans-55"/>
       <use x="127.246094" xlink:href="#DejaVuSans-53"/>
      </g>
     </g>
    </g>
    <g id="ytick_9">
     <g id="line2d_16">
      <g>
       <use style="stroke:#000000;stroke-width:0.8;" x="33.64" xlink:href="#m9b8c6eb097" y="26.44381"/>
      </g>
     </g>
     <g id="text_16">
      <!-- 200 -->
      <g transform="translate(7.5525 30.243028)scale(0.1 -0.1)">
       <use xlink:href="#DejaVuSans-50"/>
       <use x="63.623047" xlink:href="#DejaVuSans-48"/>
       <use x="127.246094" xlink:href="#DejaVuSans-48"/>
      </g>
     </g>
    </g>
   </g>
   <g id="line2d_17">
    <path clip-path="url(#pae5d9bde5a)" d="M 33.64 225.068571 
L 138.059688 225.068571 
L 140.068094 220.395048 
L 142.074619 220.395048 
L 144.080155 218.058286 
L 146.082005 218.058286 
L 148.083636 211.048 
L 150.089526 211.048 
L 152.091913 200.532571 
L 154.093592 195.859048 
L 156.097184 195.859048 
L 158.100309 186.512 
L 160.102452 179.501714 
L 162.10897 177.164952 
L 172.141872 177.164952 
L 174.145312 183.006857 
L 176.152365 190.017143 
L 178.154074 190.017143 
L 180.155736 195.859048 
L 182.161521 195.859048 
L 184.163883 200.532571 
L 186.168611 195.859048 
L 188.173963 195.859048 
L 190.176631 193.522286 
L 192.17868 192.353905 
L 194.180554 188.848762 
L 196.182622 188.848762 
L 198.186368 187.680381 
L 200.19139 191.185524 
L 202.193166 191.185524 
L 204.199956 188.848762 
L 206.202292 185.343619 
L 208.204085 185.343619 
L 210.209903 183.006857 
L 212.212422 185.343619 
L 216.216263 185.343619 
L 218.222215 178.333333 
L 220.225698 177.164952 
L 222.23201 177.164952 
L 224.23798 179.501714 
L 226.244216 173.65981 
L 228.253363 173.65981 
L 230.260237 170.154667 
L 232.271612 170.154667 
L 234.27762 175.996571 
L 236.279503 165.481143 
L 238.281736 153.797333 
L 240.283555 153.797333 
L 242.285484 147.955429 
L 244.288211 138.608381 
L 246.290365 138.608381 
L 248.293526 124.58781 
L 250.298163 108.230476 
L 252.300156 108.230476 
L 254.307396 90.704762 
L 256.310541 79.020952 
L 258.312288 60.326857 
L 260.315726 60.326857 
L 262.317904 52.14819 
L 264.319471 83.694476 
L 268.326284 83.694476 
L 270.332771 86.031238 
L 272.335246 86.031238 
L 274.341928 88.368 
L 276.345616 89.536381 
L 278.348051 89.536381 
L 280.353276 105.893714 
L 282.363342 119.914286 
L 284.366659 119.914286 
L 286.372211 133.934857 
L 288.378432 153.797333 
L 290.386017 153.797333 
L 292.389608 161.976 
L 294.39505 168.986286 
L 296.397491 172.491429 
L 298.404051 172.491429 
L 300.411085 184.175238 
L 302.414127 192.353905 
L 304.416706 192.353905 
L 306.425597 260.12 
L 420.860955 260.12 
L 422.866322 241.425905 
L 424.872633 236.752381 
L 426.878649 236.752381 
L 428.88236 233.247238 
L 430.885117 222.73181 
L 432.890218 222.73181 
L 434.895131 213.384762 
L 436.901556 211.048 
L 438.908658 211.048 
L 440.920017 207.542857 
L 442.928855 205.206095 
L 444.935386 205.206095 
L 446.93717 202.869333 
L 448.94754 201.700952 
L 452.961445 201.700952 
L 454.962843 215.721524 
L 456.967317 216.889905 
L 458.974142 214.553143 
L 460.976845 216.889905 
L 462.980538 216.889905 
L 467.11852 205.206095 
L 471.253617 208.711238 
L 475.458788 208.711238 
L 477.460339 211.048 
L 479.464542 211.048 
L 481.466869 213.384762 
L 483.468726 212.216381 
L 485.47477 212.216381 
L 487.480539 207.542857 
L 491.487101 207.542857 
L 493.489198 202.869333 
L 495.496291 205.206095 
L 497.498472 205.206095 
L 499.502013 201.700952 
L 501.505063 191.185524 
L 503.507993 186.512 
L 505.509785 186.512 
L 507.512444 185.343619 
L 509.515117 173.65981 
L 511.521852 173.65981 
L 513.526297 172.491429 
L 515.53236 181.838476 
L 517.534903 181.838476 
L 521.541748 158.470857 
L 523.544775 158.470857 
L 525.5509 153.797333 
L 527.554447 150.29219 
L 529.55729 150.29219 
L 531.562685 154.965714 
L 533.566637 158.470857 
L 535.569543 158.470857 
L 537.576143 144.450286 
L 539.583055 135.103238 
L 541.586779 130.429714 
L 543.589918 130.429714 
L 545.59345 116.409143 
L 547.5967 116.409143 
L 551.609172 114.072381 
L 553.61533 110.567238 
L 555.622728 110.567238 
L 557.626826 112.904 
L 559.632568 117.577524 
L 561.635752 117.577524 
L 563.642145 126.924571 
L 565.645262 142.113524 
L 567.650613 152.628952 
L 569.655604 152.628952 
L 571.657362 159.639238 
L 573.667322 159.639238 
L 575.669254 170.154667 
L 577.674446 178.333333 
L 579.680808 178.333333 
L 581.683561 186.512 
L 583.690327 187.680381 
L 585.695546 190.017143 
L 587.69795 190.017143 
L 589.699557 260.12 
L 698.147952 260.12 
L 702.119422 248.43619 
L 704.121089 248.43619 
L 706.123658 242.594286 
L 708.126346 237.920762 
L 710.128005 237.920762 
L 712.131112 228.573714 
L 714.13462 228.573714 
L 716.137138 223.90019 
L 718.138565 220.395048 
L 720.141891 220.395048 
L 722.144296 225.068571 
L 724.148742 225.068571 
L 726.152874 227.405333 
L 728.159382 227.405333 
L 730.166764 226.236952 
L 732.173115 223.90019 
L 734.175479 223.90019 
L 736.178568 220.395048 
L 738.180786 229.742095 
L 742.188228 229.742095 
L 744.194621 227.405333 
L 746.199155 227.405333 
L 748.201815 218.058286 
L 750.207311 218.058286 
L 752.211494 212.216381 
L 756.219557 212.216381 
L 760.22787 207.542857 
L 762.242504 207.542857 
L 764.250353 201.700952 
L 766.259161 201.700952 
L 768.261845 202.869333 
L 770.264338 200.532571 
L 772.265701 200.532571 
L 774.267501 191.185524 
L 778.272934 191.185524 
L 780.308145 188.848762 
L 782.311082 188.848762 
L 784.312777 179.501714 
L 786.322038 179.501714 
L 788.32673 177.164952 
L 790.329889 171.323048 
L 792.336939 171.323048 
L 794.3386 161.976 
L 796.343108 145.618667 
L 798.345107 117.577524 
L 800.348153 117.577524 
L 802.35248 109.398857 
L 804.354592 88.368 
L 806.357398 88.368 
L 808.365261 66.168762 
L 810.369306 52.14819 
L 812.372149 52.14819 
L 814.374086 42.801143 
L 816.377071 48.643048 
L 818.383815 48.643048 
L 820.389996 35.790857 
L 822.39179 33.454095 
L 824.397626 33.454095 
L 826.406378 34.622476 
L 828.412835 27.61219 
L 830.424378 27.61219 
L 832.426452 33.454095 
L 834.432657 38.127619 
L 836.434243 38.127619 
L 838.44201 48.643048 
L 840.443132 50.97981 
L 842.445951 72.010667 
L 844.447689 72.010667 
L 846.453897 89.536381 
L 848.456449 89.536381 
L 850.460013 104.725333 
L 852.463694 132.766476 
L 854.468189 140.945143 
L 856.476188 140.945143 
L 858.482054 165.481143 
L 860.483177 177.164952 
L 862.486377 177.164952 
L 864.493518 183.006857 
L 866.497717 194.690667 
L 870.507724 194.690667 
L 872.511486 260.12 
L 980.949153 260.12 
L 982.953314 253.109714 
L 984.95875 253.109714 
L 986.961744 249.604571 
L 988.968392 244.931048 
L 990.969809 244.931048 
L 992.973008 239.089143 
L 994.977662 236.752381 
L 996.980653 236.752381 
L 1000.985201 229.742095 
L 1002.991864 229.742095 
L 1004.996786 233.247238 
L 1007.004062 232.078857 
L 1009.007888 228.573714 
L 1011.013163 228.573714 
L 1013.015992 229.742095 
L 1015.018187 227.405333 
L 1017.026004 227.405333 
L 1019.029787 221.563429 
L 1021.031359 219.226667 
L 1023.042625 219.226667 
L 1025.044276 214.553143 
L 1027.046942 208.711238 
L 1029.049416 208.711238 
L 1031.052253 212.216381 
L 1033.055648 214.553143 
L 1035.062389 214.553143 
L 1037.067312 208.711238 
L 1039.069843 213.384762 
L 1043.076604 213.384762 
L 1045.080409 209.879619 
L 1047.087882 199.36419 
L 1049.089374 199.36419 
L 1053.101001 197.027429 
L 1055.103947 197.027429 
L 1059.11498 185.343619 
L 1063.126481 185.343619 
L 1065.128577 180.670095 
L 1067.132868 180.670095 
L 1069.136758 170.154667 
L 1071.141521 165.481143 
L 1073.143411 165.481143 
L 1075.146617 158.470857 
L 1077.148709 142.113524 
L 1079.151336 128.092952 
L 1081.153132 128.092952 
L 1083.161061 103.556952 
L 1085.17181 107.062095 
L 1087.178742 107.062095 
L 1089.184628 102.388571 
L 1091.190926 80.189333 
L 1093.193025 80.189333 
L 1095.196524 66.168762 
L 1097.198272 60.326857 
L 1099.200194 60.326857 
L 1101.206142 61.495238 
L 1103.210794 48.643048 
L 1105.213584 45.137905 
L 1107.220089 45.137905 
L 1109.222661 63.832 
L 1111.225137 72.010667 
L 1113.228769 72.010667 
L 1115.232593 83.694476 
L 1117.235945 90.704762 
L 1119.242373 90.704762 
L 1121.243972 95.378286 
L 1123.260913 107.062095 
L 1125.269841 107.062095 
L 1127.272756 114.072381 
L 1129.274487 129.261333 
L 1131.278589 129.261333 
L 1133.28 143.281905 
L 1133.28 143.281905 
" style="fill:none;stroke:#1f77b4;stroke-linecap:square;stroke-width:1.5;"/>
   </g>
   <g id="patch_3">
    <path d="M 33.64 260.12 
L 33.64 14.76 
" style="fill:none;stroke:#000000;stroke-linecap:square;stroke-linejoin:miter;stroke-width:0.8;"/>
   </g>
   <g id="patch_4">
    <path d="M 1133.28 260.12 
L 1133.28 14.76 
" style="fill:none;stroke:#000000;stroke-linecap:square;stroke-linejoin:miter;stroke-width:0.8;"/>
   </g>
   <g id="patch_5">
    <path d="M 33.64 260.12 
L 1133.28 260.12 
" style="fill:none;stroke:#000000;stroke-linecap:square;stroke-linejoin:miter;stroke-width:0.8;"/>
   </g>
   <g id="patch_6">
    <path d="M 33.64 14.76 
L 1133.28 14.76 
" style="fill:none;stroke:#000000;stroke-linecap:square;stroke-linejoin:miter;stroke-width:0.8;"/>
   </g>
  </g>
 </g>
 <defs>
  <clipPath id="pae5d9bde5a">
   <rect height="245.36" width="1099.64" x="33.64" y="14.76"/>
  </clipPath>
 </defs>
</svg>
