<?xml version="1.0" encoding="utf-8" standalone="no"?>
<!DOCTYPE svg PUBLIC "-//W3C//DTD SVG 1.1//EN"
  "http://www.w3.org/Graphics/SVG/1.1/DTD/svg11.dtd">
<!-- Created with matplotlib (https://matplotlib.org/) -->
<svg height="288pt" version="1.1" viewBox="0 0 1152 288" width="1152pt" xmlns="http://www.w3.org/2000/svg" xmlns:xlink="http://www.w3.org/1999/xlink">
 <defs>
  <style type="text/css">
*{stroke-linecap:butt;stroke-linejoin:round;}
  </style>
 </defs>
 <g id="figure_1">
  <g id="patch_1">
   <path d="M 0 288 
L 1152 288 
L 1152 0 
L 0 0 
z
" style="fill:#ffffff;"/>
  </g>
  <g id="axes_1">
   <g id="patch_2">
    <path d="M 33.64 260.12 
L 1133.28 260.12 
L 1133.28 14.76 
L 33.64 14.76 
z
" style="fill:#ffffff;"/>
   </g>
   <g id="matplotlib.axis_1">
    <g id="xtick_1">
     <g id="line2d_1">
      <defs>
       <path d="M 0 0 
L 0 3.5 
" id="m0056b21059" style="stroke:#000000;stroke-width:0.8;"/>
      </defs>
      <g>
       <use style="stroke:#000000;stroke-width:0.8;" x="197.988428" xlink:href="#m0056b21059" y="260.12"/>
      </g>
     </g>
     <g id="text_1">
      <!-- Tue 00:00 -->
      <defs>
       <path d="M -0.296875 72.90625 
L 61.375 72.90625 
L 61.375 64.59375 
L 35.5 64.59375 
L 35.5 0 
L 25.59375 0 
L 25.59375 64.59375 
L -0.296875 64.59375 
z
" id="DejaVuSans-84"/>
       <path d="M 8.5 21.578125 
L 8.5 54.6875 
L 17.484375 54.6875 
L 17.484375 21.921875 
Q 17.484375 14.15625 20.5 10.265625 
Q 23.53125 6.390625 29.59375 6.390625 
Q 36.859375 6.390625 41.078125 11.03125 
Q 45.3125 15.671875 45.3125 23.6875 
L 45.3125 54.6875 
L 54.296875 54.6875 
L 54.296875 0 
L 45.3125 0 
L 45.3125 8.40625 
Q 42.046875 3.421875 37.71875 1 
Q 33.40625 -1.421875 27.6875 -1.421875 
Q 18.265625 -1.421875 13.375 4.4375 
Q 8.5 10.296875 8.5 21.578125 
z
M 31.109375 56 
z
" id="DejaVuSans-117"/>
       <path d="M 56.203125 29.59375 
L 56.203125 25.203125 
L 14.890625 25.203125 
Q 15.484375 15.921875 20.484375 11.0625 
Q 25.484375 6.203125 34.421875 6.203125 
Q 39.59375 6.203125 44.453125 7.46875 
Q 49.3125 8.734375 54.109375 11.28125 
L 54.109375 2.78125 
Q 49.265625 0.734375 44.1875 -0.34375 
Q 39.109375 -1.421875 33.890625 -1.421875 
Q 20.796875 -1.421875 13.15625 6.1875 
Q 5.515625 13.8125 5.515625 26.8125 
Q 5.515625 40.234375 12.765625 48.109375 
Q 20.015625 56 32.328125 56 
Q 43.359375 56 49.78125 48.890625 
Q 56.203125 41.796875 56.203125 29.59375 
z
M 47.21875 32.234375 
Q 47.125 39.59375 43.09375 43.984375 
Q 39.0625 48.390625 32.421875 48.390625 
Q 24.90625 48.390625 20.390625 44.140625 
Q 15.875 39.890625 15.1875 32.171875 
z
" id="DejaVuSans-101"/>
       <path id="DejaVuSans-32"/>
       <path d="M 31.78125 66.40625 
Q 24.171875 66.40625 20.328125 58.90625 
Q 16.5 51.421875 16.5 36.375 
Q 16.5 21.390625 20.328125 13.890625 
Q 24.171875 6.390625 31.78125 6.390625 
Q 39.453125 6.390625 43.28125 13.890625 
Q 47.125 21.390625 47.125 36.375 
Q 47.125 51.421875 43.28125 58.90625 
Q 39.453125 66.40625 31.78125 66.40625 
z
M 31.78125 74.21875 
Q 44.046875 74.21875 50.515625 64.515625 
Q 56.984375 54.828125 56.984375 36.375 
Q 56.984375 17.96875 50.515625 8.265625 
Q 44.046875 -1.421875 31.78125 -1.421875 
Q 19.53125 -1.421875 13.0625 8.265625 
Q 6.59375 17.96875 6.59375 36.375 
Q 6.59375 54.828125 13.0625 64.515625 
Q 19.53125 74.21875 31.78125 74.21875 
z
" id="DejaVuSans-48"/>
       <path d="M 11.71875 12.40625 
L 22.015625 12.40625 
L 22.015625 0 
L 11.71875 0 
z
M 11.71875 51.703125 
L 22.015625 51.703125 
L 22.015625 39.3125 
L 11.71875 39.3125 
z
" id="DejaVuSans-58"/>
      </defs>
      <g transform="translate(172.702491 274.718437)scale(0.1 -0.1)">
       <use xlink:href="#DejaVuSans-84"/>
       <use x="60.849609" xlink:href="#DejaVuSans-117"/>
       <use x="124.228516" xlink:href="#DejaVuSans-101"/>
       <use x="185.751953" xlink:href="#DejaVuSans-32"/>
       <use x="217.539062" xlink:href="#DejaVuSans-48"/>
       <use x="281.162109" xlink:href="#DejaVuSans-48"/>
       <use x="344.785156" xlink:href="#DejaVuSans-58"/>
       <use x="378.476562" xlink:href="#DejaVuSans-48"/>
       <use x="442.099609" xlink:href="#DejaVuSans-48"/>
      </g>
     </g>
    </g>
    <g id="xtick_2">
     <g id="line2d_2">
      <g>
       <use style="stroke:#000000;stroke-width:0.8;" x="362.410459" xlink:href="#m0056b21059" y="260.12"/>
      </g>
     </g>
     <g id="text_2">
      <!-- Wed 00:00 -->
      <defs>
       <path d="M 3.328125 72.90625 
L 13.28125 72.90625 
L 28.609375 11.28125 
L 43.890625 72.90625 
L 54.984375 72.90625 
L 70.3125 11.28125 
L 85.59375 72.90625 
L 95.609375 72.90625 
L 77.296875 0 
L 64.890625 0 
L 49.515625 63.28125 
L 33.984375 0 
L 21.578125 0 
z
" id="DejaVuSans-87"/>
       <path d="M 45.40625 46.390625 
L 45.40625 75.984375 
L 54.390625 75.984375 
L 54.390625 0 
L 45.40625 0 
L 45.40625 8.203125 
Q 42.578125 3.328125 38.25 0.953125 
Q 33.9375 -1.421875 27.875 -1.421875 
Q 17.96875 -1.421875 11.734375 6.484375 
Q 5.515625 14.40625 5.515625 27.296875 
Q 5.515625 40.1875 11.734375 48.09375 
Q 17.96875 56 27.875 56 
Q 33.9375 56 38.25 53.625 
Q 42.578125 51.265625 45.40625 46.390625 
z
M 14.796875 27.296875 
Q 14.796875 17.390625 18.875 11.75 
Q 22.953125 6.109375 30.078125 6.109375 
Q 37.203125 6.109375 41.296875 11.75 
Q 45.40625 17.390625 45.40625 27.296875 
Q 45.40625 37.203125 41.296875 42.84375 
Q 37.203125 48.484375 30.078125 48.484375 
Q 22.953125 48.484375 18.875 42.84375 
Q 14.796875 37.203125 14.796875 27.296875 
z
" id="DejaVuSans-100"/>
      </defs>
      <g transform="translate(335.221397 274.718437)scale(0.1 -0.1)">
       <use xlink:href="#DejaVuSans-87"/>
       <use x="98.798828" xlink:href="#DejaVuSans-101"/>
       <use x="160.322266" xlink:href="#DejaVuSans-100"/>
       <use x="223.798828" xlink:href="#DejaVuSans-32"/>
       <use x="255.585938" xlink:href="#DejaVuSans-48"/>
       <use x="319.208984" xlink:href="#DejaVuSans-48"/>
       <use x="382.832031" xlink:href="#DejaVuSans-58"/>
       <use x="416.523438" xlink:href="#DejaVuSans-48"/>
       <use x="480.146484" xlink:href="#DejaVuSans-48"/>
      </g>
     </g>
    </g>
    <g id="xtick_3">
     <g id="line2d_3">
      <g>
       <use style="stroke:#000000;stroke-width:0.8;" x="526.832491" xlink:href="#m0056b21059" y="260.12"/>
      </g>
     </g>
     <g id="text_3">
      <!-- Thu 00:00 -->
      <defs>
       <path d="M 54.890625 33.015625 
L 54.890625 0 
L 45.90625 0 
L 45.90625 32.71875 
Q 45.90625 40.484375 42.875 44.328125 
Q 39.84375 48.1875 33.796875 48.1875 
Q 26.515625 48.1875 22.3125 43.546875 
Q 18.109375 38.921875 18.109375 30.90625 
L 18.109375 0 
L 9.078125 0 
L 9.078125 75.984375 
L 18.109375 75.984375 
L 18.109375 46.1875 
Q 21.34375 51.125 25.703125 53.5625 
Q 30.078125 56 35.796875 56 
Q 45.21875 56 50.046875 50.171875 
Q 54.890625 44.34375 54.890625 33.015625 
z
" id="DejaVuSans-104"/>
      </defs>
      <g transform="translate(501.442647 274.718437)scale(0.1 -0.1)">
       <use xlink:href="#DejaVuSans-84"/>
       <use x="61.083984" xlink:href="#DejaVuSans-104"/>
       <use x="124.462891" xlink:href="#DejaVuSans-117"/>
       <use x="187.841797" xlink:href="#DejaVuSans-32"/>
       <use x="219.628906" xlink:href="#DejaVuSans-48"/>
       <use x="283.251953" xlink:href="#DejaVuSans-48"/>
       <use x="346.875" xlink:href="#DejaVuSans-58"/>
       <use x="380.566406" xlink:href="#DejaVuSans-48"/>
       <use x="444.189453" xlink:href="#DejaVuSans-48"/>
      </g>
     </g>
    </g>
    <g id="xtick_4">
     <g id="line2d_4">
      <g>
       <use style="stroke:#000000;stroke-width:0.8;" x="691.254522" xlink:href="#m0056b21059" y="260.12"/>
      </g>
     </g>
     <g id="text_4">
      <!-- Fri 00:00 -->
      <defs>
       <path d="M 9.8125 72.90625 
L 51.703125 72.90625 
L 51.703125 64.59375 
L 19.671875 64.59375 
L 19.671875 43.109375 
L 48.578125 43.109375 
L 48.578125 34.8125 
L 19.671875 34.8125 
L 19.671875 0 
L 9.8125 0 
z
" id="DejaVuSans-70"/>
       <path d="M 41.109375 46.296875 
Q 39.59375 47.171875 37.8125 47.578125 
Q 36.03125 48 33.890625 48 
Q 26.265625 48 22.1875 43.046875 
Q 18.109375 38.09375 18.109375 28.8125 
L 18.109375 0 
L 9.078125 0 
L 9.078125 54.6875 
L 18.109375 54.6875 
L 18.109375 46.1875 
Q 20.953125 51.171875 25.484375 53.578125 
Q 30.03125 56 36.53125 56 
Q 37.453125 56 38.578125 55.875 
Q 39.703125 55.765625 41.0625 55.515625 
z
" id="DejaVuSans-114"/>
       <path d="M 9.421875 54.6875 
L 18.40625 54.6875 
L 18.40625 0 
L 9.421875 0 
z
M 9.421875 75.984375 
L 18.40625 75.984375 
L 18.40625 64.59375 
L 9.421875 64.59375 
z
" id="DejaVuSans-105"/>
      </defs>
      <g transform="translate(668.94124 274.718437)scale(0.1 -0.1)">
       <use xlink:href="#DejaVuSans-70"/>
       <use x="57.410156" xlink:href="#DejaVuSans-114"/>
       <use x="98.523438" xlink:href="#DejaVuSans-105"/>
       <use x="126.306641" xlink:href="#DejaVuSans-32"/>
       <use x="158.09375" xlink:href="#DejaVuSans-48"/>
       <use x="221.716797" xlink:href="#DejaVuSans-48"/>
       <use x="285.339844" xlink:href="#DejaVuSans-58"/>
       <use x="319.03125" xlink:href="#DejaVuSans-48"/>
       <use x="382.654297" xlink:href="#DejaVuSans-48"/>
      </g>
     </g>
    </g>
    <g id="xtick_5">
     <g id="line2d_5">
      <g>
       <use style="stroke:#000000;stroke-width:0.8;" x="855.676553" xlink:href="#m0056b21059" y="260.12"/>
      </g>
     </g>
     <g id="text_5">
      <!-- Sat 00:00 -->
      <defs>
       <path d="M 53.515625 70.515625 
L 53.515625 60.890625 
Q 47.90625 63.578125 42.921875 64.890625 
Q 37.9375 66.21875 33.296875 66.21875 
Q 25.25 66.21875 20.875 63.09375 
Q 16.5 59.96875 16.5 54.203125 
Q 16.5 49.359375 19.40625 46.890625 
Q 22.3125 44.4375 30.421875 42.921875 
L 36.375 41.703125 
Q 47.40625 39.59375 52.65625 34.296875 
Q 57.90625 29 57.90625 20.125 
Q 57.90625 9.515625 50.796875 4.046875 
Q 43.703125 -1.421875 29.984375 -1.421875 
Q 24.8125 -1.421875 18.96875 -0.25 
Q 13.140625 0.921875 6.890625 3.21875 
L 6.890625 13.375 
Q 12.890625 10.015625 18.65625 8.296875 
Q 24.421875 6.59375 29.984375 6.59375 
Q 38.421875 6.59375 43.015625 9.90625 
Q 47.609375 13.234375 47.609375 19.390625 
Q 47.609375 24.75 44.3125 27.78125 
Q 41.015625 30.8125 33.5 32.328125 
L 27.484375 33.5 
Q 16.453125 35.6875 11.515625 40.375 
Q 6.59375 45.0625 6.59375 53.421875 
Q 6.59375 63.09375 13.40625 68.65625 
Q 20.21875 74.21875 32.171875 74.21875 
Q 37.3125 74.21875 42.625 73.28125 
Q 47.953125 72.359375 53.515625 70.515625 
z
" id="DejaVuSans-83"/>
       <path d="M 34.28125 27.484375 
Q 23.390625 27.484375 19.1875 25 
Q 14.984375 22.515625 14.984375 16.5 
Q 14.984375 11.71875 18.140625 8.90625 
Q 21.296875 6.109375 26.703125 6.109375 
Q 34.1875 6.109375 38.703125 11.40625 
Q 43.21875 16.703125 43.21875 25.484375 
L 43.21875 27.484375 
z
M 52.203125 31.203125 
L 52.203125 0 
L 43.21875 0 
L 43.21875 8.296875 
Q 40.140625 3.328125 35.546875 0.953125 
Q 30.953125 -1.421875 24.3125 -1.421875 
Q 15.921875 -1.421875 10.953125 3.296875 
Q 6 8.015625 6 15.921875 
Q 6 25.140625 12.171875 29.828125 
Q 18.359375 34.515625 30.609375 34.515625 
L 43.21875 34.515625 
L 43.21875 35.40625 
Q 43.21875 41.609375 39.140625 45 
Q 35.0625 48.390625 27.6875 48.390625 
Q 23 48.390625 18.546875 47.265625 
Q 14.109375 46.140625 10.015625 43.890625 
L 10.015625 52.203125 
Q 14.9375 54.109375 19.578125 55.046875 
Q 24.21875 56 28.609375 56 
Q 40.484375 56 46.34375 49.84375 
Q 52.203125 43.703125 52.203125 31.203125 
z
" id="DejaVuSans-97"/>
       <path d="M 18.3125 70.21875 
L 18.3125 54.6875 
L 36.8125 54.6875 
L 36.8125 47.703125 
L 18.3125 47.703125 
L 18.3125 18.015625 
Q 18.3125 11.328125 20.140625 9.421875 
Q 21.96875 7.515625 27.59375 7.515625 
L 36.8125 7.515625 
L 36.8125 0 
L 27.59375 0 
Q 17.1875 0 13.234375 3.875 
Q 9.28125 7.765625 9.28125 18.015625 
L 9.28125 47.703125 
L 2.6875 47.703125 
L 2.6875 54.6875 
L 9.28125 54.6875 
L 9.28125 70.21875 
z
" id="DejaVuSans-116"/>
      </defs>
      <g transform="translate(831.479678 274.718437)scale(0.1 -0.1)">
       <use xlink:href="#DejaVuSans-83"/>
       <use x="63.476562" xlink:href="#DejaVuSans-97"/>
       <use x="124.755859" xlink:href="#DejaVuSans-116"/>
       <use x="163.964844" xlink:href="#DejaVuSans-32"/>
       <use x="195.751953" xlink:href="#DejaVuSans-48"/>
       <use x="259.375" xlink:href="#DejaVuSans-48"/>
       <use x="322.998047" xlink:href="#DejaVuSans-58"/>
       <use x="356.689453" xlink:href="#DejaVuSans-48"/>
       <use x="420.3125" xlink:href="#DejaVuSans-48"/>
      </g>
     </g>
    </g>
    <g id="xtick_6">
     <g id="line2d_6">
      <g>
       <use style="stroke:#000000;stroke-width:0.8;" x="1020.098584" xlink:href="#m0056b21059" y="260.12"/>
      </g>
     </g>
     <g id="text_6">
      <!-- Sun 00:00 -->
      <defs>
       <path d="M 54.890625 33.015625 
L 54.890625 0 
L 45.90625 0 
L 45.90625 32.71875 
Q 45.90625 40.484375 42.875 44.328125 
Q 39.84375 48.1875 33.796875 48.1875 
Q 26.515625 48.1875 22.3125 43.546875 
Q 18.109375 38.921875 18.109375 30.90625 
L 18.109375 0 
L 9.078125 0 
L 9.078125 54.6875 
L 18.109375 54.6875 
L 18.109375 46.1875 
Q 21.34375 51.125 25.703125 53.5625 
Q 30.078125 56 35.796875 56 
Q 45.21875 56 50.046875 50.171875 
Q 54.890625 44.34375 54.890625 33.015625 
z
" id="DejaVuSans-110"/>
      </defs>
      <g transform="translate(994.588428 274.718437)scale(0.1 -0.1)">
       <use xlink:href="#DejaVuSans-83"/>
       <use x="63.476562" xlink:href="#DejaVuSans-117"/>
       <use x="126.855469" xlink:href="#DejaVuSans-110"/>
       <use x="190.234375" xlink:href="#DejaVuSans-32"/>
       <use x="222.021484" xlink:href="#DejaVuSans-48"/>
       <use x="285.644531" xlink:href="#DejaVuSans-48"/>
       <use x="349.267578" xlink:href="#DejaVuSans-58"/>
       <use x="382.958984" xlink:href="#DejaVuSans-48"/>
       <use x="446.582031" xlink:href="#DejaVuSans-48"/>
      </g>
     </g>
    </g>
   </g>
   <g id="matplotlib.axis_2">
    <g id="ytick_1">
     <g id="line2d_7">
      <defs>
       <path d="M 0 0 
L -3.5 0 
" id="md6473f4cf3" style="stroke:#000000;stroke-width:0.8;"/>
      </defs>
      <g>
       <use style="stroke:#000000;stroke-width:0.8;" x="33.64" xlink:href="#md6473f4cf3" y="260.12"/>
      </g>
     </g>
     <g id="text_7">
      <!-- 0 -->
      <g transform="translate(20.2775 263.919219)scale(0.1 -0.1)">
       <use xlink:href="#DejaVuSans-48"/>
      </g>
     </g>
    </g>
    <g id="ytick_2">
     <g id="line2d_8">
      <g>
       <use style="stroke:#000000;stroke-width:0.8;" x="33.64" xlink:href="#md6473f4cf3" y="232.857778"/>
      </g>
     </g>
     <g id="text_8">
      <!-- 20 -->
      <defs>
       <path d="M 19.1875 8.296875 
L 53.609375 8.296875 
L 53.609375 0 
L 7.328125 0 
L 7.328125 8.296875 
Q 12.9375 14.109375 22.625 23.890625 
Q 32.328125 33.6875 34.8125 36.53125 
Q 39.546875 41.84375 41.421875 45.53125 
Q 43.3125 49.21875 43.3125 52.78125 
Q 43.3125 58.59375 39.234375 62.25 
Q 35.15625 65.921875 28.609375 65.921875 
Q 23.96875 65.921875 18.8125 64.3125 
Q 13.671875 62.703125 7.8125 59.421875 
L 7.8125 69.390625 
Q 13.765625 71.78125 18.9375 73 
Q 24.125 74.21875 28.421875 74.21875 
Q 39.75 74.21875 46.484375 68.546875 
Q 53.21875 62.890625 53.21875 53.421875 
Q 53.21875 48.921875 51.53125 44.890625 
Q 49.859375 40.875 45.40625 35.40625 
Q 44.1875 33.984375 37.640625 27.21875 
Q 31.109375 20.453125 19.1875 8.296875 
z
" id="DejaVuSans-50"/>
      </defs>
      <g transform="translate(13.915 236.656997)scale(0.1 -0.1)">
       <use xlink:href="#DejaVuSans-50"/>
       <use x="63.623047" xlink:href="#DejaVuSans-48"/>
      </g>
     </g>
    </g>
    <g id="ytick_3">
     <g id="line2d_9">
      <g>
       <use style="stroke:#000000;stroke-width:0.8;" x="33.64" xlink:href="#md6473f4cf3" y="205.595556"/>
      </g>
     </g>
     <g id="text_9">
      <!-- 40 -->
      <defs>
       <path d="M 37.796875 64.3125 
L 12.890625 25.390625 
L 37.796875 25.390625 
z
M 35.203125 72.90625 
L 47.609375 72.90625 
L 47.609375 25.390625 
L 58.015625 25.390625 
L 58.015625 17.1875 
L 47.609375 17.1875 
L 47.609375 0 
L 37.796875 0 
L 37.796875 17.1875 
L 4.890625 17.1875 
L 4.890625 26.703125 
z
" id="DejaVuSans-52"/>
      </defs>
      <g transform="translate(13.915 209.394774)scale(0.1 -0.1)">
       <use xlink:href="#DejaVuSans-52"/>
       <use x="63.623047" xlink:href="#DejaVuSans-48"/>
      </g>
     </g>
    </g>
    <g id="ytick_4">
     <g id="line2d_10">
      <g>
       <use style="stroke:#000000;stroke-width:0.8;" x="33.64" xlink:href="#md6473f4cf3" y="178.333333"/>
      </g>
     </g>
     <g id="text_10">
      <!-- 60 -->
      <defs>
       <path d="M 33.015625 40.375 
Q 26.375 40.375 22.484375 35.828125 
Q 18.609375 31.296875 18.609375 23.390625 
Q 18.609375 15.53125 22.484375 10.953125 
Q 26.375 6.390625 33.015625 6.390625 
Q 39.65625 6.390625 43.53125 10.953125 
Q 47.40625 15.53125 47.40625 23.390625 
Q 47.40625 31.296875 43.53125 35.828125 
Q 39.65625 40.375 33.015625 40.375 
z
M 52.59375 71.296875 
L 52.59375 62.3125 
Q 48.875 64.0625 45.09375 64.984375 
Q 41.3125 65.921875 37.59375 65.921875 
Q 27.828125 65.921875 22.671875 59.328125 
Q 17.53125 52.734375 16.796875 39.40625 
Q 19.671875 43.65625 24.015625 45.921875 
Q 28.375 48.1875 33.59375 48.1875 
Q 44.578125 48.1875 50.953125 41.515625 
Q 57.328125 34.859375 57.328125 23.390625 
Q 57.328125 12.15625 50.6875 5.359375 
Q 44.046875 -1.421875 33.015625 -1.421875 
Q 20.359375 -1.421875 13.671875 8.265625 
Q 6.984375 17.96875 6.984375 36.375 
Q 6.984375 53.65625 15.1875 63.9375 
Q 23.390625 74.21875 37.203125 74.21875 
Q 40.921875 74.21875 44.703125 73.484375 
Q 48.484375 72.75 52.59375 71.296875 
z
" id="DejaVuSans-54"/>
      </defs>
      <g transform="translate(13.915 182.132552)scale(0.1 -0.1)">
       <use xlink:href="#DejaVuSans-54"/>
       <use x="63.623047" xlink:href="#DejaVuSans-48"/>
      </g>
     </g>
    </g>
    <g id="ytick_5">
     <g id="line2d_11">
      <g>
       <use style="stroke:#000000;stroke-width:0.8;" x="33.64" xlink:href="#md6473f4cf3" y="151.071111"/>
      </g>
     </g>
     <g id="text_11">
      <!-- 80 -->
      <defs>
       <path d="M 31.78125 34.625 
Q 24.75 34.625 20.71875 30.859375 
Q 16.703125 27.09375 16.703125 20.515625 
Q 16.703125 13.921875 20.71875 10.15625 
Q 24.75 6.390625 31.78125 6.390625 
Q 38.8125 6.390625 42.859375 10.171875 
Q 46.921875 13.96875 46.921875 20.515625 
Q 46.921875 27.09375 42.890625 30.859375 
Q 38.875 34.625 31.78125 34.625 
z
M 21.921875 38.8125 
Q 15.578125 40.375 12.03125 44.71875 
Q 8.5 49.078125 8.5 55.328125 
Q 8.5 64.0625 14.71875 69.140625 
Q 20.953125 74.21875 31.78125 74.21875 
Q 42.671875 74.21875 48.875 69.140625 
Q 55.078125 64.0625 55.078125 55.328125 
Q 55.078125 49.078125 51.53125 44.71875 
Q 48 40.375 41.703125 38.8125 
Q 48.828125 37.15625 52.796875 32.3125 
Q 56.78125 27.484375 56.78125 20.515625 
Q 56.78125 9.90625 50.3125 4.234375 
Q 43.84375 -1.421875 31.78125 -1.421875 
Q 19.734375 -1.421875 13.25 4.234375 
Q 6.78125 9.90625 6.78125 20.515625 
Q 6.78125 27.484375 10.78125 32.3125 
Q 14.796875 37.15625 21.921875 38.8125 
z
M 18.3125 54.390625 
Q 18.3125 48.734375 21.84375 45.5625 
Q 25.390625 42.390625 31.78125 42.390625 
Q 38.140625 42.390625 41.71875 45.5625 
Q 45.3125 48.734375 45.3125 54.390625 
Q 45.3125 60.0625 41.71875 63.234375 
Q 38.140625 66.40625 31.78125 66.40625 
Q 25.390625 66.40625 21.84375 63.234375 
Q 18.3125 60.0625 18.3125 54.390625 
z
" id="DejaVuSans-56"/>
      </defs>
      <g transform="translate(13.915 154.87033)scale(0.1 -0.1)">
       <use xlink:href="#DejaVuSans-56"/>
       <use x="63.623047" xlink:href="#DejaVuSans-48"/>
      </g>
     </g>
    </g>
    <g id="ytick_6">
     <g id="line2d_12">
      <g>
       <use style="stroke:#000000;stroke-width:0.8;" x="33.64" xlink:href="#md6473f4cf3" y="123.808889"/>
      </g>
     </g>
     <g id="text_12">
      <!-- 100 -->
      <defs>
       <path d="M 12.40625 8.296875 
L 28.515625 8.296875 
L 28.515625 63.921875 
L 10.984375 60.40625 
L 10.984375 69.390625 
L 28.421875 72.90625 
L 38.28125 72.90625 
L 38.28125 8.296875 
L 54.390625 8.296875 
L 54.390625 0 
L 12.40625 0 
z
" id="DejaVuSans-49"/>
      </defs>
      <g transform="translate(7.5525 127.608108)scale(0.1 -0.1)">
       <use xlink:href="#DejaVuSans-49"/>
       <use x="63.623047" xlink:href="#DejaVuSans-48"/>
       <use x="127.246094" xlink:href="#DejaVuSans-48"/>
      </g>
     </g>
    </g>
    <g id="ytick_7">
     <g id="line2d_13">
      <g>
       <use style="stroke:#000000;stroke-width:0.8;" x="33.64" xlink:href="#md6473f4cf3" y="96.546667"/>
      </g>
     </g>
     <g id="text_13">
      <!-- 120 -->
      <g transform="translate(7.5525 100.345885)scale(0.1 -0.1)">
       <use xlink:href="#DejaVuSans-49"/>
       <use x="63.623047" xlink:href="#DejaVuSans-50"/>
       <use x="127.246094" xlink:href="#DejaVuSans-48"/>
      </g>
     </g>
    </g>
    <g id="ytick_8">
     <g id="line2d_14">
      <g>
       <use style="stroke:#000000;stroke-width:0.8;" x="33.64" xlink:href="#md6473f4cf3" y="69.284444"/>
      </g>
     </g>
     <g id="text_14">
      <!-- 140 -->
      <g transform="translate(7.5525 73.083663)scale(0.1 -0.1)">
       <use xlink:href="#DejaVuSans-49"/>
       <use x="63.623047" xlink:href="#DejaVuSans-52"/>
       <use x="127.246094" xlink:href="#DejaVuSans-48"/>
      </g>
     </g>
    </g>
    <g id="ytick_9">
     <g id="line2d_15">
      <g>
       <use style="stroke:#000000;stroke-width:0.8;" x="33.64" xlink:href="#md6473f4cf3" y="42.022222"/>
      </g>
     </g>
     <g id="text_15">
      <!-- 160 -->
      <g transform="translate(7.5525 45.821441)scale(0.1 -0.1)">
       <use xlink:href="#DejaVuSans-49"/>
       <use x="63.623047" xlink:href="#DejaVuSans-54"/>
       <use x="127.246094" xlink:href="#DejaVuSans-48"/>
      </g>
     </g>
    </g>
    <g id="ytick_10">
     <g id="line2d_16">
      <g>
       <use style="stroke:#000000;stroke-width:0.8;" x="33.64" xlink:href="#md6473f4cf3" y="14.76"/>
      </g>
     </g>
     <g id="text_16">
      <!-- 180 -->
      <g transform="translate(7.5525 18.559219)scale(0.1 -0.1)">
       <use xlink:href="#DejaVuSans-49"/>
       <use x="63.623047" xlink:href="#DejaVuSans-56"/>
       <use x="127.246094" xlink:href="#DejaVuSans-48"/>
      </g>
     </g>
    </g>
   </g>
   <g id="line2d_17">
    <path clip-path="url(#p2b3fdcebfb)" d="M 33.64 260.12 
L 94.874121 260.12 
L 96.029394 257.393778 
L 97.207302 257.393778 
L 98.381406 253.304444 
L 99.555303 251.941333 
L 100.731937 249.215111 
L 101.907048 249.215111 
L 103.083815 246.488889 
L 104.25904 242.399556 
L 105.433525 242.399556 
L 106.6086 236.947111 
L 107.785162 235.584 
L 108.961023 235.584 
L 110.137673 232.857778 
L 111.311633 228.768444 
L 113.661518 228.768444 
L 114.835659 224.679111 
L 116.011069 221.952889 
L 117.18649 221.952889 
L 118.364023 219.226667 
L 119.539602 219.226667 
L 120.716012 221.952889 
L 121.889882 228.768444 
L 124.237459 228.768444 
L 126.58563 239.673333 
L 127.763514 239.673333 
L 128.939325 238.310222 
L 130.116175 235.584 
L 131.290037 235.584 
L 132.463999 227.405333 
L 133.637617 226.042222 
L 134.812062 223.316 
L 135.985954 223.316 
L 137.16232 221.952889 
L 139.511183 221.952889 
L 140.687371 209.684889 
L 141.861268 209.684889 
L 143.036291 208.321778 
L 144.210653 198.78 
L 145.387782 197.416889 
L 146.562102 197.416889 
L 147.736381 191.964444 
L 150.085318 191.964444 
L 151.261931 187.875111 
L 152.435904 189.238222 
L 153.61018 189.238222 
L 154.784355 174.244 
L 155.959004 166.065333 
L 157.134174 166.065333 
L 158.310526 141.529333 
L 159.487489 126.535111 
L 160.663164 126.535111 
L 164.192022 63.832 
L 165.36884 63.832 
L 166.545335 61.105778 
L 167.721686 61.105778 
L 168.898442 57.016444 
L 170.076034 76.1 
L 171.253396 84.278667 
L 172.43024 84.278667 
L 173.605045 87.004889 
L 175.953727 87.004889 
L 177.128699 92.457333 
L 178.303165 100.636 
L 179.479542 101.999111 
L 180.655941 101.999111 
L 181.83037 116.993333 
L 183.005028 116.993333 
L 184.180257 133.350667 
L 185.355089 157.886667 
L 186.530135 166.065333 
L 187.70558 166.065333 
L 188.88003 176.970222 
L 190.054885 190.601333 
L 192.406874 190.601333 
L 193.582067 260.12 
L 259.51587 260.12 
L 260.671169 258.756889 
L 261.846139 245.125778 
L 263.02041 245.125778 
L 264.193987 236.947111 
L 265.371065 236.947111 
L 266.545537 232.857778 
L 267.719814 227.405333 
L 268.894058 227.405333 
L 270.069489 224.679111 
L 271.245395 223.316 
L 274.772709 223.316 
L 275.946935 227.405333 
L 277.123885 227.405333 
L 278.303189 234.220889 
L 279.477427 235.584 
L 281.829913 235.584 
L 283.006459 232.857778 
L 284.18212 232.857778 
L 285.356093 228.768444 
L 286.530349 234.220889 
L 287.703969 231.494667 
L 288.88171 231.494667 
L 290.055711 232.857778 
L 291.229674 230.131556 
L 292.404034 230.131556 
L 293.57817 228.768444 
L 295.928496 215.137333 
L 297.103288 215.137333 
L 298.27798 204.232444 
L 299.452118 204.232444 
L 300.627055 208.321778 
L 301.801078 204.232444 
L 302.974891 204.232444 
L 304.14875 202.869333 
L 305.322619 206.958667 
L 306.498832 206.958667 
L 307.682503 201.506222 
L 308.858298 202.869333 
L 310.032509 193.327556 
L 311.207207 193.327556 
L 312.382742 179.696444 
L 313.559672 168.791556 
L 314.735 168.791556 
L 315.912242 152.434222 
L 317.089323 130.624444 
L 318.263067 121.082667 
L 319.438496 121.082667 
L 320.612844 104.725333 
L 321.787739 99.272889 
L 322.962315 99.272889 
L 324.137556 82.915556 
L 325.313749 82.915556 
L 326.488198 69.284444 
L 327.66368 63.832 
L 328.838752 51.564 
L 330.013879 51.564 
L 331.188239 58.379556 
L 332.363392 37.932889 
L 333.53951 37.932889 
L 334.71365 46.111556 
L 335.888654 32.480444 
L 337.063653 32.480444 
L 338.238632 36.569778 
L 339.412527 31.117333 
L 340.587686 31.117333 
L 341.762899 29.754222 
L 342.939496 44.748444 
L 344.11447 63.832 
L 345.289694 63.832 
L 346.464493 77.463111 
L 347.641595 92.457333 
L 348.815995 92.457333 
L 349.990651 101.999111 
L 351.165616 108.814667 
L 352.340208 108.814667 
L 353.51596 134.713778 
L 354.691124 136.076889 
L 355.865743 136.076889 
L 357.041043 142.892444 
L 358.215984 260.12 
L 424.149134 260.12 
L 425.323633 258.756889 
L 426.498093 246.488889 
L 427.674487 246.488889 
L 428.848352 235.584 
L 430.02269 228.768444 
L 431.197664 220.589778 
L 432.371869 220.589778 
L 433.547156 215.137333 
L 434.723461 215.137333 
L 437.074504 204.232444 
L 438.25091 211.048 
L 439.426124 211.048 
L 441.776467 205.595556 
L 442.951147 205.595556 
L 444.126272 211.048 
L 445.301357 211.048 
L 446.477884 224.679111 
L 447.652398 224.679111 
L 448.827386 220.589778 
L 450.002064 220.589778 
L 451.181062 223.316 
L 452.355647 221.952889 
L 453.532651 221.952889 
L 454.708662 227.405333 
L 455.883621 223.316 
L 457.058586 223.316 
L 459.411431 215.137333 
L 460.587543 215.137333 
L 461.763922 212.411111 
L 462.939254 211.048 
L 464.114428 205.595556 
L 465.289134 205.595556 
L 466.464808 201.506222 
L 467.639622 200.143111 
L 468.814396 200.143111 
L 469.989468 197.416889 
L 471.164712 198.78 
L 472.339908 198.78 
L 473.514846 189.238222 
L 474.689752 183.785778 
L 475.865407 174.244 
L 477.039363 175.607111 
L 478.218631 172.880889 
L 479.394058 172.880889 
L 480.569955 167.428444 
L 481.748377 152.434222 
L 482.922662 144.255556 
L 484.096803 144.255556 
L 485.271907 121.082667 
L 486.447474 103.362222 
L 487.622969 103.362222 
L 488.800292 76.1 
L 489.975098 54.290222 
L 491.148771 54.290222 
L 492.32291 35.206667 
L 493.500457 32.480444 
L 494.674659 32.480444 
L 495.849026 28.391111 
L 497.025278 39.296 
L 498.202309 39.296 
L 499.37608 40.659111 
L 500.552747 54.290222 
L 501.732848 63.832 
L 502.90833 63.832 
L 505.261459 108.814667 
L 506.438986 108.814667 
L 507.615351 126.535111 
L 508.790931 141.529333 
L 509.966278 160.612889 
L 511.141668 160.612889 
L 512.316309 172.880889 
L 513.491446 172.880889 
L 514.668237 189.238222 
L 517.019565 200.143111 
L 518.195043 200.143111 
L 519.370887 201.506222 
L 524.07103 201.506222 
L 525.246835 260.12 
L 587.684799 260.12 
L 588.8404 257.393778 
L 590.01502 257.393778 
L 591.191723 249.215111 
L 592.365786 249.215111 
L 593.539508 247.852 
L 594.713232 239.673333 
L 597.062046 239.673333 
L 599.413102 234.220889 
L 600.58712 234.220889 
L 601.761491 238.310222 
L 602.936116 239.673333 
L 604.109801 239.673333 
L 606.458585 236.947111 
L 607.632765 236.947111 
L 608.807411 235.584 
L 609.981896 231.494667 
L 611.155593 232.857778 
L 613.50724 232.857778 
L 614.681184 234.220889 
L 615.85645 234.220889 
L 617.030268 227.405333 
L 618.205012 223.316 
L 619.379285 223.316 
L 620.555845 217.863556 
L 622.904833 217.863556 
L 624.079234 215.137333 
L 625.254605 217.863556 
L 626.43141 217.863556 
L 627.606391 228.768444 
L 628.783427 226.042222 
L 629.959757 219.226667 
L 631.1341 219.226667 
L 632.309191 215.137333 
L 633.48577 209.684889 
L 634.661546 209.684889 
L 635.836117 206.958667 
L 637.014798 206.958667 
L 638.191321 201.506222 
L 639.365987 204.232444 
L 640.542517 190.601333 
L 641.717215 190.601333 
L 642.892234 171.517778 
L 644.067924 161.976 
L 645.244038 161.976 
L 646.420522 144.255556 
L 647.595969 122.445778 
L 648.772429 122.445778 
L 649.947366 100.636 
L 651.122419 101.999111 
L 652.297534 91.094222 
L 653.473853 91.094222 
L 654.648565 88.368 
L 655.823474 72.010667 
L 656.998482 72.010667 
L 658.173622 50.200889 
L 659.349044 35.206667 
L 660.524295 35.206667 
L 661.699396 40.659111 
L 662.874258 31.117333 
L 664.049569 31.117333 
L 665.224879 39.296 
L 666.400523 50.200889 
L 667.575024 50.200889 
L 668.750096 51.564 
L 671.100269 67.921333 
L 674.624775 67.921333 
L 675.800087 87.004889 
L 676.975744 96.546667 
L 678.151499 96.546667 
L 679.32627 127.898222 
L 680.501038 146.981778 
L 681.677645 163.339111 
L 682.852544 163.339111 
L 684.027586 168.791556 
L 685.203129 176.970222 
L 686.378533 179.696444 
L 689.903451 179.696444 
L 691.078337 260.12 
L 752.361731 260.12 
L 753.516674 257.393778 
L 754.691232 257.393778 
L 755.865145 243.762667 
L 757.03955 223.316 
L 758.216041 216.500444 
L 759.390124 216.500444 
L 760.566669 208.321778 
L 762.917936 208.321778 
L 764.094312 197.416889 
L 766.447468 197.416889 
L 767.624861 193.327556 
L 771.149575 193.327556 
L 772.32477 189.238222 
L 773.50035 189.238222 
L 774.675657 191.964444 
L 775.850559 198.78 
L 777.025476 198.78 
L 778.20061 194.690667 
L 781.725389 194.690667 
L 782.899069 196.053778 
L 784.073845 196.053778 
L 785.249265 190.601333 
L 786.423509 200.143111 
L 787.598611 200.143111 
L 789.947031 202.869333 
L 791.121514 196.053778 
L 792.296424 196.053778 
L 793.471149 194.690667 
L 794.646098 197.416889 
L 795.821897 197.416889 
L 796.998229 190.601333 
L 798.173805 194.690667 
L 799.348879 194.690667 
L 800.523918 186.512 
L 801.699444 185.148889 
L 802.8733 185.148889 
L 804.047305 189.238222 
L 805.223868 182.422667 
L 806.398053 174.244 
L 807.572877 174.244 
L 808.747274 191.964444 
L 809.922272 191.964444 
L 811.097453 181.059556 
L 813.447952 146.981778 
L 814.624929 146.981778 
L 815.799678 133.350667 
L 816.974766 130.624444 
L 818.148968 130.624444 
L 819.323401 140.166222 
L 820.49801 137.44 
L 821.674362 131.987556 
L 822.849207 131.987556 
L 824.023412 123.808889 
L 825.200208 123.808889 
L 826.376973 108.814667 
L 827.552085 101.999111 
L 828.726131 97.909778 
L 829.903758 97.909778 
L 831.078571 96.546667 
L 832.252512 96.546667 
L 833.426985 95.183556 
L 834.601863 104.725333 
L 835.776131 119.719556 
L 836.950272 119.719556 
L 838.124788 121.082667 
L 839.298874 123.808889 
L 840.472613 123.808889 
L 841.647057 134.713778 
L 842.820992 140.166222 
L 843.995532 140.166222 
L 845.16974 155.160444 
L 846.343727 161.976 
L 847.520819 161.976 
L 848.695204 163.339111 
L 849.871804 167.428444 
L 851.04879 167.428444 
L 852.226127 179.696444 
L 853.403143 260.12 
L 919.310656 260.12 
L 920.484208 250.578222 
L 921.658344 246.488889 
L 922.834477 238.310222 
L 924.010697 238.310222 
L 926.358737 224.679111 
L 927.53391 224.679111 
L 928.707736 220.589778 
L 929.882125 211.048 
L 931.05649 211.048 
L 932.230676 206.958667 
L 933.40433 200.143111 
L 934.577983 200.143111 
L 935.751737 191.964444 
L 936.925267 186.512 
L 938.098567 186.512 
L 940.44666 178.333333 
L 941.620698 171.517778 
L 942.794323 171.517778 
L 943.970348 164.702222 
L 945.14371 164.702222 
L 946.319678 163.339111 
L 947.494308 151.071111 
L 948.669614 153.797333 
L 949.844078 153.797333 
L 951.01764 148.344889 
L 952.193751 146.981778 
L 953.370027 146.981778 
L 954.54423 149.708 
L 955.720416 153.797333 
L 956.893746 166.065333 
L 958.067958 166.065333 
L 959.241813 171.517778 
L 960.416412 171.517778 
L 961.591017 178.333333 
L 962.76501 176.970222 
L 965.115131 176.970222 
L 966.288777 178.333333 
L 967.465421 187.875111 
L 968.639627 187.875111 
L 969.813032 178.333333 
L 970.987498 178.333333 
L 972.163245 166.065333 
L 973.337941 176.970222 
L 974.513627 174.244 
L 976.862596 174.244 
L 978.035828 166.065333 
L 979.211851 166.065333 
L 980.388361 170.154667 
L 981.563831 168.791556 
L 982.739571 171.517778 
L 983.914914 171.517778 
L 985.090638 157.886667 
L 986.264017 167.428444 
L 987.43993 167.428444 
L 988.613904 164.702222 
L 989.79008 164.702222 
L 990.964755 156.523556 
L 992.138568 202.869333 
L 993.315224 202.869333 
L 994.489904 194.690667 
L 995.665693 191.964444 
L 996.842152 197.416889 
L 998.018016 197.416889 
L 1000.366512 202.869333 
L 1001.542259 209.684889 
L 1002.715767 209.684889 
L 1003.891784 208.321778 
L 1005.066007 208.321778 
L 1006.241487 212.411111 
L 1007.417199 215.137333 
L 1009.767411 215.137333 
L 1010.941384 217.863556 
L 1012.117862 226.042222 
L 1014.464428 226.042222 
L 1015.639154 260.12 
L 1083.896008 260.12 
L 1085.072635 251.941333 
L 1086.250146 247.852 
L 1087.426279 235.584 
L 1088.602875 235.584 
L 1089.77712 212.411111 
L 1090.950765 205.595556 
L 1092.12466 205.595556 
L 1093.299365 187.875111 
L 1095.650438 156.523556 
L 1096.826523 156.523556 
L 1098.002321 138.803111 
L 1099.179036 138.803111 
L 1100.352752 126.535111 
L 1101.529336 137.44 
L 1102.73276 137.44 
L 1103.908472 141.529333 
L 1105.082348 137.44 
L 1106.256439 137.44 
L 1107.430313 141.529333 
L 1108.606811 148.344889 
L 1109.780738 145.618667 
L 1110.958151 145.618667 
L 1112.132087 144.255556 
L 1113.306353 130.624444 
L 1114.480288 130.624444 
L 1115.654729 127.898222 
L 1116.828636 131.987556 
L 1118.004876 131.987556 
L 1119.179249 137.44 
L 1120.352907 141.529333 
L 1121.52693 141.529333 
L 1122.700475 127.898222 
L 1123.874188 122.445778 
L 1125.048481 123.808889 
L 1126.225183 123.808889 
L 1127.401688 125.172 
L 1128.577487 130.624444 
L 1129.754175 130.624444 
L 1130.930249 136.076889 
L 1132.105866 138.803111 
L 1133.28 138.803111 
L 1133.28 138.803111 
" style="fill:none;stroke:#1f77b4;stroke-linecap:square;stroke-width:1.5;"/>
   </g>
   <g id="patch_3">
    <path d="M 33.64 260.12 
L 33.64 14.76 
" style="fill:none;stroke:#000000;stroke-linecap:square;stroke-linejoin:miter;stroke-width:0.8;"/>
   </g>
   <g id="patch_4">
    <path d="M 1133.28 260.12 
L 1133.28 14.76 
" style="fill:none;stroke:#000000;stroke-linecap:square;stroke-linejoin:miter;stroke-width:0.8;"/>
   </g>
   <g id="patch_5">
    <path d="M 33.64 260.12 
L 1133.28 260.12 
" style="fill:none;stroke:#000000;stroke-linecap:square;stroke-linejoin:miter;stroke-width:0.8;"/>
   </g>
   <g id="patch_6">
    <path d="M 33.64 14.76 
L 1133.28 14.76 
" style="fill:none;stroke:#000000;stroke-linecap:square;stroke-linejoin:miter;stroke-width:0.8;"/>
   </g>
  </g>
 </g>
 <defs>
  <clipPath id="p2b3fdcebfb">
   <rect height="245.36" width="1099.64" x="33.64" y="14.76"/>
  </clipPath>
 </defs>
</svg>
