<?xml version="1.0" encoding="utf-8" standalone="no"?>
<!DOCTYPE svg PUBLIC "-//W3C//DTD SVG 1.1//EN"
  "http://www.w3.org/Graphics/SVG/1.1/DTD/svg11.dtd">
<!-- Created with matplotlib (https://matplotlib.org/) -->
<svg height="288pt" version="1.1" viewBox="0 0 1152 288" width="1152pt" xmlns="http://www.w3.org/2000/svg" xmlns:xlink="http://www.w3.org/1999/xlink">
 <defs>
  <style type="text/css">
*{stroke-linecap:butt;stroke-linejoin:round;}
  </style>
 </defs>
 <g id="figure_1">
  <g id="patch_1">
   <path d="M 0 288 
L 1152 288 
L 1152 0 
L 0 0 
z
" style="fill:#ffffff;"/>
  </g>
  <g id="axes_1">
   <g id="patch_2">
    <path d="M 33.64 260.12 
L 1133.28 260.12 
L 1133.28 14.76 
L 33.64 14.76 
z
" style="fill:#ffffff;"/>
   </g>
   <g id="matplotlib.axis_1">
    <g id="xtick_1">
     <g id="line2d_1">
      <defs>
       <path d="M 0 0 
L 0 3.5 
" id="mfba4fa9e16" style="stroke:#000000;stroke-width:0.8;"/>
      </defs>
      <g>
       <use style="stroke:#000000;stroke-width:0.8;" x="196.297055" xlink:href="#mfba4fa9e16" y="260.12"/>
      </g>
     </g>
     <g id="text_1">
      <!-- Tue 00:00 -->
      <defs>
       <path d="M -0.296875 72.90625 
L 61.375 72.90625 
L 61.375 64.59375 
L 35.5 64.59375 
L 35.5 0 
L 25.59375 0 
L 25.59375 64.59375 
L -0.296875 64.59375 
z
" id="DejaVuSans-84"/>
       <path d="M 8.5 21.578125 
L 8.5 54.6875 
L 17.484375 54.6875 
L 17.484375 21.921875 
Q 17.484375 14.15625 20.5 10.265625 
Q 23.53125 6.390625 29.59375 6.390625 
Q 36.859375 6.390625 41.078125 11.03125 
Q 45.3125 15.671875 45.3125 23.6875 
L 45.3125 54.6875 
L 54.296875 54.6875 
L 54.296875 0 
L 45.3125 0 
L 45.3125 8.40625 
Q 42.046875 3.421875 37.71875 1 
Q 33.40625 -1.421875 27.6875 -1.421875 
Q 18.265625 -1.421875 13.375 4.4375 
Q 8.5 10.296875 8.5 21.578125 
z
M 31.109375 56 
z
" id="DejaVuSans-117"/>
       <path d="M 56.203125 29.59375 
L 56.203125 25.203125 
L 14.890625 25.203125 
Q 15.484375 15.921875 20.484375 11.0625 
Q 25.484375 6.203125 34.421875 6.203125 
Q 39.59375 6.203125 44.453125 7.46875 
Q 49.3125 8.734375 54.109375 11.28125 
L 54.109375 2.78125 
Q 49.265625 0.734375 44.1875 -0.34375 
Q 39.109375 -1.421875 33.890625 -1.421875 
Q 20.796875 -1.421875 13.15625 6.1875 
Q 5.515625 13.8125 5.515625 26.8125 
Q 5.515625 40.234375 12.765625 48.109375 
Q 20.015625 56 32.328125 56 
Q 43.359375 56 49.78125 48.890625 
Q 56.203125 41.796875 56.203125 29.59375 
z
M 47.21875 32.234375 
Q 47.125 39.59375 43.09375 43.984375 
Q 39.0625 48.390625 32.421875 48.390625 
Q 24.90625 48.390625 20.390625 44.140625 
Q 15.875 39.890625 15.1875 32.171875 
z
" id="DejaVuSans-101"/>
       <path id="DejaVuSans-32"/>
       <path d="M 31.78125 66.40625 
Q 24.171875 66.40625 20.328125 58.90625 
Q 16.5 51.421875 16.5 36.375 
Q 16.5 21.390625 20.328125 13.890625 
Q 24.171875 6.390625 31.78125 6.390625 
Q 39.453125 6.390625 43.28125 13.890625 
Q 47.125 21.390625 47.125 36.375 
Q 47.125 51.421875 43.28125 58.90625 
Q 39.453125 66.40625 31.78125 66.40625 
z
M 31.78125 74.21875 
Q 44.046875 74.21875 50.515625 64.515625 
Q 56.984375 54.828125 56.984375 36.375 
Q 56.984375 17.96875 50.515625 8.265625 
Q 44.046875 -1.421875 31.78125 -1.421875 
Q 19.53125 -1.421875 13.0625 8.265625 
Q 6.59375 17.96875 6.59375 36.375 
Q 6.59375 54.828125 13.0625 64.515625 
Q 19.53125 74.21875 31.78125 74.21875 
z
" id="DejaVuSans-48"/>
       <path d="M 11.71875 12.40625 
L 22.015625 12.40625 
L 22.015625 0 
L 11.71875 0 
z
M 11.71875 51.703125 
L 22.015625 51.703125 
L 22.015625 39.3125 
L 11.71875 39.3125 
z
" id="DejaVuSans-58"/>
      </defs>
      <g transform="translate(171.011117 274.718437)scale(0.1 -0.1)">
       <use xlink:href="#DejaVuSans-84"/>
       <use x="60.849609" xlink:href="#DejaVuSans-117"/>
       <use x="124.228516" xlink:href="#DejaVuSans-101"/>
       <use x="185.751953" xlink:href="#DejaVuSans-32"/>
       <use x="217.539062" xlink:href="#DejaVuSans-48"/>
       <use x="281.162109" xlink:href="#DejaVuSans-48"/>
       <use x="344.785156" xlink:href="#DejaVuSans-58"/>
       <use x="378.476562" xlink:href="#DejaVuSans-48"/>
       <use x="442.099609" xlink:href="#DejaVuSans-48"/>
      </g>
     </g>
    </g>
    <g id="xtick_2">
     <g id="line2d_2">
      <g>
       <use style="stroke:#000000;stroke-width:0.8;" x="359.851759" xlink:href="#mfba4fa9e16" y="260.12"/>
      </g>
     </g>
     <g id="text_2">
      <!-- Wed 00:00 -->
      <defs>
       <path d="M 3.328125 72.90625 
L 13.28125 72.90625 
L 28.609375 11.28125 
L 43.890625 72.90625 
L 54.984375 72.90625 
L 70.3125 11.28125 
L 85.59375 72.90625 
L 95.609375 72.90625 
L 77.296875 0 
L 64.890625 0 
L 49.515625 63.28125 
L 33.984375 0 
L 21.578125 0 
z
" id="DejaVuSans-87"/>
       <path d="M 45.40625 46.390625 
L 45.40625 75.984375 
L 54.390625 75.984375 
L 54.390625 0 
L 45.40625 0 
L 45.40625 8.203125 
Q 42.578125 3.328125 38.25 0.953125 
Q 33.9375 -1.421875 27.875 -1.421875 
Q 17.96875 -1.421875 11.734375 6.484375 
Q 5.515625 14.40625 5.515625 27.296875 
Q 5.515625 40.1875 11.734375 48.09375 
Q 17.96875 56 27.875 56 
Q 33.9375 56 38.25 53.625 
Q 42.578125 51.265625 45.40625 46.390625 
z
M 14.796875 27.296875 
Q 14.796875 17.390625 18.875 11.75 
Q 22.953125 6.109375 30.078125 6.109375 
Q 37.203125 6.109375 41.296875 11.75 
Q 45.40625 17.390625 45.40625 27.296875 
Q 45.40625 37.203125 41.296875 42.84375 
Q 37.203125 48.484375 30.078125 48.484375 
Q 22.953125 48.484375 18.875 42.84375 
Q 14.796875 37.203125 14.796875 27.296875 
z
" id="DejaVuSans-100"/>
      </defs>
      <g transform="translate(332.662697 274.718437)scale(0.1 -0.1)">
       <use xlink:href="#DejaVuSans-87"/>
       <use x="98.798828" xlink:href="#DejaVuSans-101"/>
       <use x="160.322266" xlink:href="#DejaVuSans-100"/>
       <use x="223.798828" xlink:href="#DejaVuSans-32"/>
       <use x="255.585938" xlink:href="#DejaVuSans-48"/>
       <use x="319.208984" xlink:href="#DejaVuSans-48"/>
       <use x="382.832031" xlink:href="#DejaVuSans-58"/>
       <use x="416.523438" xlink:href="#DejaVuSans-48"/>
       <use x="480.146484" xlink:href="#DejaVuSans-48"/>
      </g>
     </g>
    </g>
    <g id="xtick_3">
     <g id="line2d_3">
      <g>
       <use style="stroke:#000000;stroke-width:0.8;" x="523.406464" xlink:href="#mfba4fa9e16" y="260.12"/>
      </g>
     </g>
     <g id="text_3">
      <!-- Thu 00:00 -->
      <defs>
       <path d="M 54.890625 33.015625 
L 54.890625 0 
L 45.90625 0 
L 45.90625 32.71875 
Q 45.90625 40.484375 42.875 44.328125 
Q 39.84375 48.1875 33.796875 48.1875 
Q 26.515625 48.1875 22.3125 43.546875 
Q 18.109375 38.921875 18.109375 30.90625 
L 18.109375 0 
L 9.078125 0 
L 9.078125 75.984375 
L 18.109375 75.984375 
L 18.109375 46.1875 
Q 21.34375 51.125 25.703125 53.5625 
Q 30.078125 56 35.796875 56 
Q 45.21875 56 50.046875 50.171875 
Q 54.890625 44.34375 54.890625 33.015625 
z
" id="DejaVuSans-104"/>
      </defs>
      <g transform="translate(498.01662 274.718437)scale(0.1 -0.1)">
       <use xlink:href="#DejaVuSans-84"/>
       <use x="61.083984" xlink:href="#DejaVuSans-104"/>
       <use x="124.462891" xlink:href="#DejaVuSans-117"/>
       <use x="187.841797" xlink:href="#DejaVuSans-32"/>
       <use x="219.628906" xlink:href="#DejaVuSans-48"/>
       <use x="283.251953" xlink:href="#DejaVuSans-48"/>
       <use x="346.875" xlink:href="#DejaVuSans-58"/>
       <use x="380.566406" xlink:href="#DejaVuSans-48"/>
       <use x="444.189453" xlink:href="#DejaVuSans-48"/>
      </g>
     </g>
    </g>
    <g id="xtick_4">
     <g id="line2d_4">
      <g>
       <use style="stroke:#000000;stroke-width:0.8;" x="686.961168" xlink:href="#mfba4fa9e16" y="260.12"/>
      </g>
     </g>
     <g id="text_4">
      <!-- Fri 00:00 -->
      <defs>
       <path d="M 9.8125 72.90625 
L 51.703125 72.90625 
L 51.703125 64.59375 
L 19.671875 64.59375 
L 19.671875 43.109375 
L 48.578125 43.109375 
L 48.578125 34.8125 
L 19.671875 34.8125 
L 19.671875 0 
L 9.8125 0 
z
" id="DejaVuSans-70"/>
       <path d="M 41.109375 46.296875 
Q 39.59375 47.171875 37.8125 47.578125 
Q 36.03125 48 33.890625 48 
Q 26.265625 48 22.1875 43.046875 
Q 18.109375 38.09375 18.109375 28.8125 
L 18.109375 0 
L 9.078125 0 
L 9.078125 54.6875 
L 18.109375 54.6875 
L 18.109375 46.1875 
Q 20.953125 51.171875 25.484375 53.578125 
Q 30.03125 56 36.53125 56 
Q 37.453125 56 38.578125 55.875 
Q 39.703125 55.765625 41.0625 55.515625 
z
" id="DejaVuSans-114"/>
       <path d="M 9.421875 54.6875 
L 18.40625 54.6875 
L 18.40625 0 
L 9.421875 0 
z
M 9.421875 75.984375 
L 18.40625 75.984375 
L 18.40625 64.59375 
L 9.421875 64.59375 
z
" id="DejaVuSans-105"/>
      </defs>
      <g transform="translate(664.647887 274.718437)scale(0.1 -0.1)">
       <use xlink:href="#DejaVuSans-70"/>
       <use x="57.410156" xlink:href="#DejaVuSans-114"/>
       <use x="98.523438" xlink:href="#DejaVuSans-105"/>
       <use x="126.306641" xlink:href="#DejaVuSans-32"/>
       <use x="158.09375" xlink:href="#DejaVuSans-48"/>
       <use x="221.716797" xlink:href="#DejaVuSans-48"/>
       <use x="285.339844" xlink:href="#DejaVuSans-58"/>
       <use x="319.03125" xlink:href="#DejaVuSans-48"/>
       <use x="382.654297" xlink:href="#DejaVuSans-48"/>
      </g>
     </g>
    </g>
    <g id="xtick_5">
     <g id="line2d_5">
      <g>
       <use style="stroke:#000000;stroke-width:0.8;" x="850.515872" xlink:href="#mfba4fa9e16" y="260.12"/>
      </g>
     </g>
     <g id="text_5">
      <!-- Sat 00:00 -->
      <defs>
       <path d="M 53.515625 70.515625 
L 53.515625 60.890625 
Q 47.90625 63.578125 42.921875 64.890625 
Q 37.9375 66.21875 33.296875 66.21875 
Q 25.25 66.21875 20.875 63.09375 
Q 16.5 59.96875 16.5 54.203125 
Q 16.5 49.359375 19.40625 46.890625 
Q 22.3125 44.4375 30.421875 42.921875 
L 36.375 41.703125 
Q 47.40625 39.59375 52.65625 34.296875 
Q 57.90625 29 57.90625 20.125 
Q 57.90625 9.515625 50.796875 4.046875 
Q 43.703125 -1.421875 29.984375 -1.421875 
Q 24.8125 -1.421875 18.96875 -0.25 
Q 13.140625 0.921875 6.890625 3.21875 
L 6.890625 13.375 
Q 12.890625 10.015625 18.65625 8.296875 
Q 24.421875 6.59375 29.984375 6.59375 
Q 38.421875 6.59375 43.015625 9.90625 
Q 47.609375 13.234375 47.609375 19.390625 
Q 47.609375 24.75 44.3125 27.78125 
Q 41.015625 30.8125 33.5 32.328125 
L 27.484375 33.5 
Q 16.453125 35.6875 11.515625 40.375 
Q 6.59375 45.0625 6.59375 53.421875 
Q 6.59375 63.09375 13.40625 68.65625 
Q 20.21875 74.21875 32.171875 74.21875 
Q 37.3125 74.21875 42.625 73.28125 
Q 47.953125 72.359375 53.515625 70.515625 
z
" id="DejaVuSans-83"/>
       <path d="M 34.28125 27.484375 
Q 23.390625 27.484375 19.1875 25 
Q 14.984375 22.515625 14.984375 16.5 
Q 14.984375 11.71875 18.140625 8.90625 
Q 21.296875 6.109375 26.703125 6.109375 
Q 34.1875 6.109375 38.703125 11.40625 
Q 43.21875 16.703125 43.21875 25.484375 
L 43.21875 27.484375 
z
M 52.203125 31.203125 
L 52.203125 0 
L 43.21875 0 
L 43.21875 8.296875 
Q 40.140625 3.328125 35.546875 0.953125 
Q 30.953125 -1.421875 24.3125 -1.421875 
Q 15.921875 -1.421875 10.953125 3.296875 
Q 6 8.015625 6 15.921875 
Q 6 25.140625 12.171875 29.828125 
Q 18.359375 34.515625 30.609375 34.515625 
L 43.21875 34.515625 
L 43.21875 35.40625 
Q 43.21875 41.609375 39.140625 45 
Q 35.0625 48.390625 27.6875 48.390625 
Q 23 48.390625 18.546875 47.265625 
Q 14.109375 46.140625 10.015625 43.890625 
L 10.015625 52.203125 
Q 14.9375 54.109375 19.578125 55.046875 
Q 24.21875 56 28.609375 56 
Q 40.484375 56 46.34375 49.84375 
Q 52.203125 43.703125 52.203125 31.203125 
z
" id="DejaVuSans-97"/>
       <path d="M 18.3125 70.21875 
L 18.3125 54.6875 
L 36.8125 54.6875 
L 36.8125 47.703125 
L 18.3125 47.703125 
L 18.3125 18.015625 
Q 18.3125 11.328125 20.140625 9.421875 
Q 21.96875 7.515625 27.59375 7.515625 
L 36.8125 7.515625 
L 36.8125 0 
L 27.59375 0 
Q 17.1875 0 13.234375 3.875 
Q 9.28125 7.765625 9.28125 18.015625 
L 9.28125 47.703125 
L 2.6875 47.703125 
L 2.6875 54.6875 
L 9.28125 54.6875 
L 9.28125 70.21875 
z
" id="DejaVuSans-116"/>
      </defs>
      <g transform="translate(826.318997 274.718437)scale(0.1 -0.1)">
       <use xlink:href="#DejaVuSans-83"/>
       <use x="63.476562" xlink:href="#DejaVuSans-97"/>
       <use x="124.755859" xlink:href="#DejaVuSans-116"/>
       <use x="163.964844" xlink:href="#DejaVuSans-32"/>
       <use x="195.751953" xlink:href="#DejaVuSans-48"/>
       <use x="259.375" xlink:href="#DejaVuSans-48"/>
       <use x="322.998047" xlink:href="#DejaVuSans-58"/>
       <use x="356.689453" xlink:href="#DejaVuSans-48"/>
       <use x="420.3125" xlink:href="#DejaVuSans-48"/>
      </g>
     </g>
    </g>
    <g id="xtick_6">
     <g id="line2d_6">
      <g>
       <use style="stroke:#000000;stroke-width:0.8;" x="1014.070576" xlink:href="#mfba4fa9e16" y="260.12"/>
      </g>
     </g>
     <g id="text_6">
      <!-- Sun 00:00 -->
      <defs>
       <path d="M 54.890625 33.015625 
L 54.890625 0 
L 45.90625 0 
L 45.90625 32.71875 
Q 45.90625 40.484375 42.875 44.328125 
Q 39.84375 48.1875 33.796875 48.1875 
Q 26.515625 48.1875 22.3125 43.546875 
Q 18.109375 38.921875 18.109375 30.90625 
L 18.109375 0 
L 9.078125 0 
L 9.078125 54.6875 
L 18.109375 54.6875 
L 18.109375 46.1875 
Q 21.34375 51.125 25.703125 53.5625 
Q 30.078125 56 35.796875 56 
Q 45.21875 56 50.046875 50.171875 
Q 54.890625 44.34375 54.890625 33.015625 
z
" id="DejaVuSans-110"/>
      </defs>
      <g transform="translate(988.56042 274.718437)scale(0.1 -0.1)">
       <use xlink:href="#DejaVuSans-83"/>
       <use x="63.476562" xlink:href="#DejaVuSans-117"/>
       <use x="126.855469" xlink:href="#DejaVuSans-110"/>
       <use x="190.234375" xlink:href="#DejaVuSans-32"/>
       <use x="222.021484" xlink:href="#DejaVuSans-48"/>
       <use x="285.644531" xlink:href="#DejaVuSans-48"/>
       <use x="349.267578" xlink:href="#DejaVuSans-58"/>
       <use x="382.958984" xlink:href="#DejaVuSans-48"/>
       <use x="446.582031" xlink:href="#DejaVuSans-48"/>
      </g>
     </g>
    </g>
   </g>
   <g id="matplotlib.axis_2">
    <g id="ytick_1">
     <g id="line2d_7">
      <defs>
       <path d="M 0 0 
L -3.5 0 
" id="ma6fa8c2996" style="stroke:#000000;stroke-width:0.8;"/>
      </defs>
      <g>
       <use style="stroke:#000000;stroke-width:0.8;" x="33.64" xlink:href="#ma6fa8c2996" y="260.12"/>
      </g>
     </g>
     <g id="text_7">
      <!-- 0 -->
      <g transform="translate(20.2775 263.919219)scale(0.1 -0.1)">
       <use xlink:href="#DejaVuSans-48"/>
      </g>
     </g>
    </g>
    <g id="ytick_2">
     <g id="line2d_8">
      <g>
       <use style="stroke:#000000;stroke-width:0.8;" x="33.64" xlink:href="#ma6fa8c2996" y="232.857778"/>
      </g>
     </g>
     <g id="text_8">
      <!-- 20 -->
      <defs>
       <path d="M 19.1875 8.296875 
L 53.609375 8.296875 
L 53.609375 0 
L 7.328125 0 
L 7.328125 8.296875 
Q 12.9375 14.109375 22.625 23.890625 
Q 32.328125 33.6875 34.8125 36.53125 
Q 39.546875 41.84375 41.421875 45.53125 
Q 43.3125 49.21875 43.3125 52.78125 
Q 43.3125 58.59375 39.234375 62.25 
Q 35.15625 65.921875 28.609375 65.921875 
Q 23.96875 65.921875 18.8125 64.3125 
Q 13.671875 62.703125 7.8125 59.421875 
L 7.8125 69.390625 
Q 13.765625 71.78125 18.9375 73 
Q 24.125 74.21875 28.421875 74.21875 
Q 39.75 74.21875 46.484375 68.546875 
Q 53.21875 62.890625 53.21875 53.421875 
Q 53.21875 48.921875 51.53125 44.890625 
Q 49.859375 40.875 45.40625 35.40625 
Q 44.1875 33.984375 37.640625 27.21875 
Q 31.109375 20.453125 19.1875 8.296875 
z
" id="DejaVuSans-50"/>
      </defs>
      <g transform="translate(13.915 236.656997)scale(0.1 -0.1)">
       <use xlink:href="#DejaVuSans-50"/>
       <use x="63.623047" xlink:href="#DejaVuSans-48"/>
      </g>
     </g>
    </g>
    <g id="ytick_3">
     <g id="line2d_9">
      <g>
       <use style="stroke:#000000;stroke-width:0.8;" x="33.64" xlink:href="#ma6fa8c2996" y="205.595556"/>
      </g>
     </g>
     <g id="text_9">
      <!-- 40 -->
      <defs>
       <path d="M 37.796875 64.3125 
L 12.890625 25.390625 
L 37.796875 25.390625 
z
M 35.203125 72.90625 
L 47.609375 72.90625 
L 47.609375 25.390625 
L 58.015625 25.390625 
L 58.015625 17.1875 
L 47.609375 17.1875 
L 47.609375 0 
L 37.796875 0 
L 37.796875 17.1875 
L 4.890625 17.1875 
L 4.890625 26.703125 
z
" id="DejaVuSans-52"/>
      </defs>
      <g transform="translate(13.915 209.394774)scale(0.1 -0.1)">
       <use xlink:href="#DejaVuSans-52"/>
       <use x="63.623047" xlink:href="#DejaVuSans-48"/>
      </g>
     </g>
    </g>
    <g id="ytick_4">
     <g id="line2d_10">
      <g>
       <use style="stroke:#000000;stroke-width:0.8;" x="33.64" xlink:href="#ma6fa8c2996" y="178.333333"/>
      </g>
     </g>
     <g id="text_10">
      <!-- 60 -->
      <defs>
       <path d="M 33.015625 40.375 
Q 26.375 40.375 22.484375 35.828125 
Q 18.609375 31.296875 18.609375 23.390625 
Q 18.609375 15.53125 22.484375 10.953125 
Q 26.375 6.390625 33.015625 6.390625 
Q 39.65625 6.390625 43.53125 10.953125 
Q 47.40625 15.53125 47.40625 23.390625 
Q 47.40625 31.296875 43.53125 35.828125 
Q 39.65625 40.375 33.015625 40.375 
z
M 52.59375 71.296875 
L 52.59375 62.3125 
Q 48.875 64.0625 45.09375 64.984375 
Q 41.3125 65.921875 37.59375 65.921875 
Q 27.828125 65.921875 22.671875 59.328125 
Q 17.53125 52.734375 16.796875 39.40625 
Q 19.671875 43.65625 24.015625 45.921875 
Q 28.375 48.1875 33.59375 48.1875 
Q 44.578125 48.1875 50.953125 41.515625 
Q 57.328125 34.859375 57.328125 23.390625 
Q 57.328125 12.15625 50.6875 5.359375 
Q 44.046875 -1.421875 33.015625 -1.421875 
Q 20.359375 -1.421875 13.671875 8.265625 
Q 6.984375 17.96875 6.984375 36.375 
Q 6.984375 53.65625 15.1875 63.9375 
Q 23.390625 74.21875 37.203125 74.21875 
Q 40.921875 74.21875 44.703125 73.484375 
Q 48.484375 72.75 52.59375 71.296875 
z
" id="DejaVuSans-54"/>
      </defs>
      <g transform="translate(13.915 182.132552)scale(0.1 -0.1)">
       <use xlink:href="#DejaVuSans-54"/>
       <use x="63.623047" xlink:href="#DejaVuSans-48"/>
      </g>
     </g>
    </g>
    <g id="ytick_5">
     <g id="line2d_11">
      <g>
       <use style="stroke:#000000;stroke-width:0.8;" x="33.64" xlink:href="#ma6fa8c2996" y="151.071111"/>
      </g>
     </g>
     <g id="text_11">
      <!-- 80 -->
      <defs>
       <path d="M 31.78125 34.625 
Q 24.75 34.625 20.71875 30.859375 
Q 16.703125 27.09375 16.703125 20.515625 
Q 16.703125 13.921875 20.71875 10.15625 
Q 24.75 6.390625 31.78125 6.390625 
Q 38.8125 6.390625 42.859375 10.171875 
Q 46.921875 13.96875 46.921875 20.515625 
Q 46.921875 27.09375 42.890625 30.859375 
Q 38.875 34.625 31.78125 34.625 
z
M 21.921875 38.8125 
Q 15.578125 40.375 12.03125 44.71875 
Q 8.5 49.078125 8.5 55.328125 
Q 8.5 64.0625 14.71875 69.140625 
Q 20.953125 74.21875 31.78125 74.21875 
Q 42.671875 74.21875 48.875 69.140625 
Q 55.078125 64.0625 55.078125 55.328125 
Q 55.078125 49.078125 51.53125 44.71875 
Q 48 40.375 41.703125 38.8125 
Q 48.828125 37.15625 52.796875 32.3125 
Q 56.78125 27.484375 56.78125 20.515625 
Q 56.78125 9.90625 50.3125 4.234375 
Q 43.84375 -1.421875 31.78125 -1.421875 
Q 19.734375 -1.421875 13.25 4.234375 
Q 6.78125 9.90625 6.78125 20.515625 
Q 6.78125 27.484375 10.78125 32.3125 
Q 14.796875 37.15625 21.921875 38.8125 
z
M 18.3125 54.390625 
Q 18.3125 48.734375 21.84375 45.5625 
Q 25.390625 42.390625 31.78125 42.390625 
Q 38.140625 42.390625 41.71875 45.5625 
Q 45.3125 48.734375 45.3125 54.390625 
Q 45.3125 60.0625 41.71875 63.234375 
Q 38.140625 66.40625 31.78125 66.40625 
Q 25.390625 66.40625 21.84375 63.234375 
Q 18.3125 60.0625 18.3125 54.390625 
z
" id="DejaVuSans-56"/>
      </defs>
      <g transform="translate(13.915 154.87033)scale(0.1 -0.1)">
       <use xlink:href="#DejaVuSans-56"/>
       <use x="63.623047" xlink:href="#DejaVuSans-48"/>
      </g>
     </g>
    </g>
    <g id="ytick_6">
     <g id="line2d_12">
      <g>
       <use style="stroke:#000000;stroke-width:0.8;" x="33.64" xlink:href="#ma6fa8c2996" y="123.808889"/>
      </g>
     </g>
     <g id="text_12">
      <!-- 100 -->
      <defs>
       <path d="M 12.40625 8.296875 
L 28.515625 8.296875 
L 28.515625 63.921875 
L 10.984375 60.40625 
L 10.984375 69.390625 
L 28.421875 72.90625 
L 38.28125 72.90625 
L 38.28125 8.296875 
L 54.390625 8.296875 
L 54.390625 0 
L 12.40625 0 
z
" id="DejaVuSans-49"/>
      </defs>
      <g transform="translate(7.5525 127.608108)scale(0.1 -0.1)">
       <use xlink:href="#DejaVuSans-49"/>
       <use x="63.623047" xlink:href="#DejaVuSans-48"/>
       <use x="127.246094" xlink:href="#DejaVuSans-48"/>
      </g>
     </g>
    </g>
    <g id="ytick_7">
     <g id="line2d_13">
      <g>
       <use style="stroke:#000000;stroke-width:0.8;" x="33.64" xlink:href="#ma6fa8c2996" y="96.546667"/>
      </g>
     </g>
     <g id="text_13">
      <!-- 120 -->
      <g transform="translate(7.5525 100.345885)scale(0.1 -0.1)">
       <use xlink:href="#DejaVuSans-49"/>
       <use x="63.623047" xlink:href="#DejaVuSans-50"/>
       <use x="127.246094" xlink:href="#DejaVuSans-48"/>
      </g>
     </g>
    </g>
    <g id="ytick_8">
     <g id="line2d_14">
      <g>
       <use style="stroke:#000000;stroke-width:0.8;" x="33.64" xlink:href="#ma6fa8c2996" y="69.284444"/>
      </g>
     </g>
     <g id="text_14">
      <!-- 140 -->
      <g transform="translate(7.5525 73.083663)scale(0.1 -0.1)">
       <use xlink:href="#DejaVuSans-49"/>
       <use x="63.623047" xlink:href="#DejaVuSans-52"/>
       <use x="127.246094" xlink:href="#DejaVuSans-48"/>
      </g>
     </g>
    </g>
    <g id="ytick_9">
     <g id="line2d_15">
      <g>
       <use style="stroke:#000000;stroke-width:0.8;" x="33.64" xlink:href="#ma6fa8c2996" y="42.022222"/>
      </g>
     </g>
     <g id="text_15">
      <!-- 160 -->
      <g transform="translate(7.5525 45.821441)scale(0.1 -0.1)">
       <use xlink:href="#DejaVuSans-49"/>
       <use x="63.623047" xlink:href="#DejaVuSans-54"/>
       <use x="127.246094" xlink:href="#DejaVuSans-48"/>
      </g>
     </g>
    </g>
    <g id="ytick_10">
     <g id="line2d_16">
      <g>
       <use style="stroke:#000000;stroke-width:0.8;" x="33.64" xlink:href="#ma6fa8c2996" y="14.76"/>
      </g>
     </g>
     <g id="text_16">
      <!-- 180 -->
      <g transform="translate(7.5525 18.559219)scale(0.1 -0.1)">
       <use xlink:href="#DejaVuSans-49"/>
       <use x="63.623047" xlink:href="#DejaVuSans-56"/>
       <use x="127.246094" xlink:href="#DejaVuSans-48"/>
      </g>
     </g>
    </g>
   </g>
   <g id="line2d_17">
    <path clip-path="url(#p27c69329c5)" d="M 33.64 260.12 
L 95.715366 260.12 
L 96.884014 254.667556 
L 98.05211 254.667556 
L 99.222766 242.399556 
L 100.390142 241.036444 
L 101.557808 230.131556 
L 102.728917 230.131556 
L 103.900802 226.042222 
L 105.06918 224.679111 
L 107.405193 224.679111 
L 109.740325 216.500444 
L 110.907945 216.500444 
L 112.075446 221.952889 
L 113.243628 221.952889 
L 114.410867 231.494667 
L 115.579806 235.584 
L 117.915597 235.584 
L 120.253622 227.405333 
L 121.421074 227.405333 
L 122.588879 231.494667 
L 123.757229 224.679111 
L 124.924581 224.679111 
L 126.091731 227.405333 
L 127.264104 224.679111 
L 128.432539 226.042222 
L 129.600715 226.042222 
L 130.768471 231.494667 
L 131.936591 231.494667 
L 133.103708 230.131556 
L 134.27066 227.405333 
L 135.438424 227.405333 
L 136.607618 226.042222 
L 137.776756 221.952889 
L 138.945708 223.316 
L 140.11582 223.316 
L 141.284181 219.226667 
L 142.452306 216.500444 
L 143.619953 216.500444 
L 144.787909 206.958667 
L 145.956254 208.321778 
L 147.124337 205.595556 
L 148.293135 205.595556 
L 149.461093 198.78 
L 150.628823 198.78 
L 151.796705 197.416889 
L 154.133705 197.416889 
L 155.301312 193.327556 
L 157.636803 159.249778 
L 158.806103 159.249778 
L 159.9769 149.708 
L 161.145899 136.076889 
L 163.483493 136.076889 
L 164.652067 140.166222 
L 165.819845 140.166222 
L 166.989004 141.529333 
L 168.157679 137.44 
L 169.325873 137.44 
L 170.495678 131.987556 
L 171.668016 111.540889 
L 172.836545 116.993333 
L 174.00671 116.993333 
L 175.175626 121.082667 
L 176.34704 126.535111 
L 179.851229 126.535111 
L 181.019027 142.892444 
L 183.353946 153.797333 
L 184.524014 153.797333 
L 185.691772 168.791556 
L 186.860637 179.696444 
L 188.028343 179.696444 
L 189.196875 185.148889 
L 190.365227 193.327556 
L 192.703676 193.327556 
L 193.872148 260.12 
L 257.144455 260.12 
L 258.293816 258.756889 
L 259.465012 258.756889 
L 260.632781 251.941333 
L 261.800516 246.488889 
L 262.971294 246.488889 
L 264.144091 243.762667 
L 265.312779 224.679111 
L 266.481996 216.500444 
L 267.650174 216.500444 
L 268.818731 213.774222 
L 269.986654 213.774222 
L 271.155217 211.048 
L 273.492104 211.048 
L 274.661311 204.232444 
L 275.830396 211.048 
L 278.166134 211.048 
L 280.504203 213.774222 
L 281.674907 213.774222 
L 282.843928 215.137333 
L 284.012243 226.042222 
L 285.180839 226.042222 
L 286.34899 236.947111 
L 287.518728 242.399556 
L 288.686145 242.399556 
L 291.022547 239.673333 
L 292.191733 236.947111 
L 296.868729 236.947111 
L 299.207105 231.494667 
L 300.377049 227.405333 
L 301.545692 227.405333 
L 302.714796 226.042222 
L 303.882516 226.042222 
L 305.051043 220.589778 
L 306.280212 217.863556 
L 307.450056 217.863556 
L 308.619108 211.048 
L 309.787362 197.416889 
L 310.956275 194.690667 
L 312.126563 194.690667 
L 313.298381 183.785778 
L 314.470249 175.607111 
L 315.640521 175.607111 
L 316.81127 151.071111 
L 317.9816 129.261333 
L 319.15109 129.261333 
L 320.319246 121.082667 
L 321.487385 103.362222 
L 322.655907 103.362222 
L 323.824821 93.820444 
L 324.997857 88.368 
L 326.166208 88.368 
L 327.334225 74.736889 
L 328.504416 77.463111 
L 329.676326 73.373778 
L 330.844456 73.373778 
L 332.013207 88.368 
L 333.183127 89.731111 
L 334.351507 89.731111 
L 335.522004 93.820444 
L 336.690251 115.630222 
L 337.8594 115.630222 
L 339.028086 131.987556 
L 340.19618 140.166222 
L 341.364324 140.166222 
L 342.532298 148.344889 
L 344.867589 148.344889 
L 346.03743 157.886667 
L 347.205757 163.339111 
L 348.376069 163.339111 
L 349.543657 168.791556 
L 350.714054 185.148889 
L 351.88207 185.148889 
L 354.226246 204.232444 
L 355.396578 260.12 
L 420.993047 260.12 
L 422.142502 258.756889 
L 423.310687 258.756889 
L 424.47986 241.036444 
L 425.650724 232.857778 
L 426.81962 230.131556 
L 427.988331 230.131556 
L 429.162916 226.042222 
L 431.501355 226.042222 
L 432.672728 224.679111 
L 433.841869 217.863556 
L 435.010904 217.863556 
L 436.179669 219.226667 
L 437.350729 216.500444 
L 438.520904 216.500444 
L 439.689248 219.226667 
L 440.857925 228.768444 
L 445.538386 228.768444 
L 446.706925 231.494667 
L 447.875021 238.310222 
L 449.04537 242.399556 
L 450.216059 242.399556 
L 451.384861 243.762667 
L 452.554904 242.399556 
L 453.722801 242.399556 
L 456.061336 236.947111 
L 457.229959 235.584 
L 458.397924 235.584 
L 459.567013 231.494667 
L 460.735462 231.494667 
L 461.904136 223.316 
L 463.072288 223.316 
L 464.241156 216.500444 
L 465.409712 216.500444 
L 466.580023 219.226667 
L 468.915886 219.226667 
L 470.086372 205.595556 
L 471.257015 204.232444 
L 472.428439 204.232444 
L 474.769284 190.601333 
L 475.937209 182.422667 
L 477.110308 182.422667 
L 478.27935 189.238222 
L 479.447082 189.238222 
L 480.614518 182.422667 
L 481.78329 167.428444 
L 482.951196 167.428444 
L 484.123496 164.702222 
L 485.291219 159.249778 
L 486.459533 151.071111 
L 487.627283 151.071111 
L 488.795221 155.160444 
L 489.965118 144.255556 
L 491.134382 144.255556 
L 492.303818 140.166222 
L 493.472556 126.535111 
L 494.642711 126.535111 
L 495.811383 125.172 
L 496.981654 131.987556 
L 498.149327 131.987556 
L 499.318103 111.540889 
L 500.486526 101.999111 
L 501.655182 97.909778 
L 502.823794 97.909778 
L 503.991864 101.999111 
L 505.160622 101.999111 
L 506.329406 108.814667 
L 508.667896 137.44 
L 509.837332 137.44 
L 511.006267 153.797333 
L 512.177175 159.249778 
L 513.345068 159.249778 
L 514.513693 175.607111 
L 515.683568 187.875111 
L 516.855307 187.875111 
L 518.023129 196.053778 
L 519.191497 209.684889 
L 520.361762 209.684889 
L 521.531835 260.12 
L 585.955623 260.12 
L 587.123953 254.667556 
L 588.292001 254.667556 
L 589.46025 236.947111 
L 590.628443 227.405333 
L 591.796391 224.679111 
L 592.964393 224.679111 
L 594.13224 227.405333 
L 595.299824 227.405333 
L 596.467109 221.952889 
L 597.635404 220.589778 
L 598.805584 217.863556 
L 599.974335 217.863556 
L 601.142656 221.952889 
L 602.310166 220.589778 
L 603.478909 220.589778 
L 604.646114 224.679111 
L 605.81378 231.494667 
L 608.154449 231.494667 
L 609.322373 232.857778 
L 610.490164 232.857778 
L 611.658868 235.584 
L 612.827247 234.220889 
L 613.99491 234.220889 
L 615.162298 235.584 
L 616.330147 238.310222 
L 617.498345 243.762667 
L 621.001934 243.762667 
L 623.338622 238.310222 
L 624.509413 234.220889 
L 625.677188 234.220889 
L 626.845016 232.857778 
L 628.013655 228.768444 
L 632.689448 228.768444 
L 635.027774 226.042222 
L 636.196334 223.316 
L 637.364437 223.316 
L 639.703201 198.78 
L 640.87265 198.78 
L 642.042176 204.232444 
L 643.211626 204.232444 
L 644.382009 201.506222 
L 645.550111 189.238222 
L 646.718803 186.512 
L 647.886804 186.512 
L 650.223316 142.892444 
L 651.39264 142.892444 
L 652.561333 131.987556 
L 653.730545 136.076889 
L 654.899096 136.076889 
L 656.067748 119.719556 
L 657.236522 116.993333 
L 658.404968 116.993333 
L 659.573373 107.451556 
L 660.743383 108.814667 
L 661.91248 108.814667 
L 663.080671 103.362222 
L 664.249585 88.368 
L 665.41919 84.278667 
L 666.588587 84.278667 
L 667.757742 100.636 
L 668.926151 107.451556 
L 670.0944 107.451556 
L 671.262698 122.445778 
L 672.431946 160.612889 
L 673.600398 160.612889 
L 674.769299 163.339111 
L 675.937985 168.791556 
L 677.106347 168.791556 
L 678.275261 190.601333 
L 679.443905 198.78 
L 680.612969 211.048 
L 681.781415 211.048 
L 682.950322 260.12 
L 748.540425 260.12 
L 749.70942 256.030667 
L 750.878142 250.578222 
L 752.046825 250.578222 
L 753.216663 238.310222 
L 754.386636 234.220889 
L 755.557907 234.220889 
L 756.726391 228.768444 
L 757.89518 226.042222 
L 759.065413 220.589778 
L 761.406741 220.589778 
L 762.577521 221.952889 
L 763.745183 221.952889 
L 764.913294 220.589778 
L 768.419862 220.589778 
L 769.587898 223.316 
L 770.756683 223.316 
L 771.925841 224.679111 
L 773.094204 227.405333 
L 774.264438 227.405333 
L 775.433021 220.589778 
L 777.771902 217.863556 
L 778.941885 217.863556 
L 780.114307 215.137333 
L 781.286134 215.137333 
L 782.456582 213.774222 
L 783.62449 211.048 
L 784.794298 213.774222 
L 785.963015 213.774222 
L 788.299238 216.500444 
L 789.466441 216.500444 
L 790.633996 205.595556 
L 791.801803 212.411111 
L 792.969768 213.774222 
L 794.137525 213.774222 
L 795.305134 205.595556 
L 796.474832 205.595556 
L 797.642879 206.958667 
L 798.810263 213.774222 
L 799.978405 197.416889 
L 801.147587 197.416889 
L 802.317512 191.964444 
L 803.485684 183.785778 
L 804.656338 183.785778 
L 805.824358 170.154667 
L 806.991974 178.333333 
L 808.162745 178.333333 
L 809.330488 181.059556 
L 810.499352 166.065333 
L 811.667129 166.065333 
L 812.837844 163.339111 
L 814.008288 156.523556 
L 815.177815 140.166222 
L 816.346069 140.166222 
L 817.513964 145.618667 
L 818.684858 145.618667 
L 819.85338 148.344889 
L 821.024376 146.981778 
L 822.194544 159.249778 
L 823.365207 159.249778 
L 824.533391 156.523556 
L 825.704057 159.249778 
L 826.871901 159.249778 
L 829.211334 170.154667 
L 830.379883 176.970222 
L 831.54893 176.970222 
L 832.717606 179.696444 
L 833.886706 179.696444 
L 835.05429 190.601333 
L 836.222423 197.416889 
L 837.392689 197.416889 
L 838.561104 206.958667 
L 839.73248 215.137333 
L 840.901011 217.863556 
L 842.071202 217.863556 
L 843.240301 221.952889 
L 844.408399 227.405333 
L 845.578326 227.405333 
L 846.746402 260.12 
L 913.493662 260.12 
L 914.661975 258.756889 
L 915.831927 238.310222 
L 917.001606 238.310222 
L 918.172595 221.952889 
L 919.340092 212.411111 
L 920.509744 212.411111 
L 921.677266 208.321778 
L 922.847111 201.506222 
L 924.014887 201.506222 
L 925.184529 190.601333 
L 926.354568 181.059556 
L 927.52276 182.422667 
L 928.69043 182.422667 
L 929.858322 179.696444 
L 931.025351 187.875111 
L 932.193408 187.875111 
L 933.360723 197.416889 
L 934.529126 197.416889 
L 935.696181 194.690667 
L 936.863352 197.416889 
L 938.030969 194.690667 
L 939.199038 194.690667 
L 940.366558 197.416889 
L 941.533628 201.506222 
L 942.700859 201.506222 
L 943.868813 200.143111 
L 945.038656 197.416889 
L 946.206248 202.869333 
L 947.373871 202.869333 
L 948.541281 206.958667 
L 949.708392 206.958667 
L 950.875731 194.690667 
L 952.043013 206.958667 
L 953.211713 208.321778 
L 954.379042 208.321778 
L 955.54619 211.048 
L 956.713411 211.048 
L 957.880585 206.958667 
L 959.05041 209.684889 
L 960.217597 209.684889 
L 961.387643 212.411111 
L 962.556078 209.684889 
L 963.723563 211.048 
L 964.893315 211.048 
L 966.060882 205.595556 
L 967.231787 208.321778 
L 968.399578 208.321778 
L 969.566889 212.411111 
L 970.734229 220.589778 
L 971.90164 217.863556 
L 973.068633 217.863556 
L 974.238749 234.220889 
L 975.405982 234.220889 
L 976.573454 236.947111 
L 977.7434 241.036444 
L 978.911035 236.947111 
L 981.250685 236.947111 
L 982.419305 234.220889 
L 983.588198 234.220889 
L 984.755653 230.131556 
L 985.922912 236.947111 
L 987.090873 236.947111 
L 988.260907 235.584 
L 989.428273 231.494667 
L 990.595887 230.131556 
L 995.268238 230.131556 
L 996.435802 228.768444 
L 997.602969 231.494667 
L 998.770192 231.494667 
L 999.93735 230.131556 
L 1002.272247 230.131556 
L 1003.439136 231.494667 
L 1005.774542 231.494667 
L 1006.941944 232.857778 
L 1009.276946 232.857778 
L 1010.445152 260.12 
L 1074.873178 260.12 
L 1076.022607 258.756889 
L 1077.190976 258.756889 
L 1078.358238 236.947111 
L 1079.525687 224.679111 
L 1080.693412 213.774222 
L 1081.860976 213.774222 
L 1084.198998 194.690667 
L 1085.366671 194.690667 
L 1086.534309 178.333333 
L 1087.702031 178.333333 
L 1088.8697 153.797333 
L 1090.037216 144.255556 
L 1091.205489 144.255556 
L 1092.373267 140.166222 
L 1093.541222 134.713778 
L 1094.709344 125.172 
L 1095.879691 125.172 
L 1097.049467 114.267111 
L 1098.21737 119.719556 
L 1099.387677 119.719556 
L 1100.555194 122.445778 
L 1101.722886 126.535111 
L 1102.890598 126.535111 
L 1104.05839 133.350667 
L 1105.22804 131.987556 
L 1106.395506 131.987556 
L 1108.731598 137.44 
L 1111.069273 137.44 
L 1112.238139 133.350667 
L 1113.407929 140.166222 
L 1114.577971 140.166222 
L 1115.74776 134.713778 
L 1116.917822 145.618667 
L 1118.087655 145.618667 
L 1119.256059 142.892444 
L 1121.597956 142.892444 
L 1122.765969 144.255556 
L 1123.93377 136.076889 
L 1125.101358 155.160444 
L 1126.268997 155.160444 
L 1127.436407 146.981778 
L 1130.94186 146.981778 
L 1132.112286 142.892444 
L 1133.28 142.892444 
L 1133.28 142.892444 
" style="fill:none;stroke:#1f77b4;stroke-linecap:square;stroke-width:1.5;"/>
   </g>
   <g id="patch_3">
    <path d="M 33.64 260.12 
L 33.64 14.76 
" style="fill:none;stroke:#000000;stroke-linecap:square;stroke-linejoin:miter;stroke-width:0.8;"/>
   </g>
   <g id="patch_4">
    <path d="M 1133.28 260.12 
L 1133.28 14.76 
" style="fill:none;stroke:#000000;stroke-linecap:square;stroke-linejoin:miter;stroke-width:0.8;"/>
   </g>
   <g id="patch_5">
    <path d="M 33.64 260.12 
L 1133.28 260.12 
" style="fill:none;stroke:#000000;stroke-linecap:square;stroke-linejoin:miter;stroke-width:0.8;"/>
   </g>
   <g id="patch_6">
    <path d="M 33.64 14.76 
L 1133.28 14.76 
" style="fill:none;stroke:#000000;stroke-linecap:square;stroke-linejoin:miter;stroke-width:0.8;"/>
   </g>
  </g>
 </g>
 <defs>
  <clipPath id="p27c69329c5">
   <rect height="245.36" width="1099.64" x="33.64" y="14.76"/>
  </clipPath>
 </defs>
</svg>
