<?xml version="1.0" encoding="utf-8" standalone="no"?>
<!DOCTYPE svg PUBLIC "-//W3C//DTD SVG 1.1//EN"
  "http://www.w3.org/Graphics/SVG/1.1/DTD/svg11.dtd">
<!-- Created with matplotlib (https://matplotlib.org/) -->
<svg height="288pt" version="1.1" viewBox="0 0 1152 288" width="1152pt" xmlns="http://www.w3.org/2000/svg" xmlns:xlink="http://www.w3.org/1999/xlink">
 <defs>
  <style type="text/css">
*{stroke-linecap:butt;stroke-linejoin:round;}
  </style>
 </defs>
 <g id="figure_1">
  <g id="patch_1">
   <path d="M 0 288 
L 1152 288 
L 1152 0 
L 0 0 
z
" style="fill:#ffffff;"/>
  </g>
  <g id="axes_1">
   <g id="patch_2">
    <path d="M 33.64 260.12 
L 1133.28 260.12 
L 1133.28 14.76 
L 33.64 14.76 
z
" style="fill:#ffffff;"/>
   </g>
   <g id="matplotlib.axis_1">
    <g id="xtick_1">
     <g id="line2d_1">
      <defs>
       <path d="M 0 0 
L 0 3.5 
" id="mfd319396d5" style="stroke:#000000;stroke-width:0.8;"/>
      </defs>
      <g>
       <use style="stroke:#000000;stroke-width:0.8;" x="144.645894" xlink:href="#mfd319396d5" y="260.12"/>
      </g>
     </g>
     <g id="text_1">
      <!-- Mon 12:00 -->
      <defs>
       <path d="M 9.8125 72.90625 
L 24.515625 72.90625 
L 43.109375 23.296875 
L 61.8125 72.90625 
L 76.515625 72.90625 
L 76.515625 0 
L 66.890625 0 
L 66.890625 64.015625 
L 48.09375 14.015625 
L 38.1875 14.015625 
L 19.390625 64.015625 
L 19.390625 0 
L 9.8125 0 
z
" id="DejaVuSans-77"/>
       <path d="M 30.609375 48.390625 
Q 23.390625 48.390625 19.1875 42.75 
Q 14.984375 37.109375 14.984375 27.296875 
Q 14.984375 17.484375 19.15625 11.84375 
Q 23.34375 6.203125 30.609375 6.203125 
Q 37.796875 6.203125 41.984375 11.859375 
Q 46.1875 17.53125 46.1875 27.296875 
Q 46.1875 37.015625 41.984375 42.703125 
Q 37.796875 48.390625 30.609375 48.390625 
z
M 30.609375 56 
Q 42.328125 56 49.015625 48.375 
Q 55.71875 40.765625 55.71875 27.296875 
Q 55.71875 13.875 49.015625 6.21875 
Q 42.328125 -1.421875 30.609375 -1.421875 
Q 18.84375 -1.421875 12.171875 6.21875 
Q 5.515625 13.875 5.515625 27.296875 
Q 5.515625 40.765625 12.171875 48.375 
Q 18.84375 56 30.609375 56 
z
" id="DejaVuSans-111"/>
       <path d="M 54.890625 33.015625 
L 54.890625 0 
L 45.90625 0 
L 45.90625 32.71875 
Q 45.90625 40.484375 42.875 44.328125 
Q 39.84375 48.1875 33.796875 48.1875 
Q 26.515625 48.1875 22.3125 43.546875 
Q 18.109375 38.921875 18.109375 30.90625 
L 18.109375 0 
L 9.078125 0 
L 9.078125 54.6875 
L 18.109375 54.6875 
L 18.109375 46.1875 
Q 21.34375 51.125 25.703125 53.5625 
Q 30.078125 56 35.796875 56 
Q 45.21875 56 50.046875 50.171875 
Q 54.890625 44.34375 54.890625 33.015625 
z
" id="DejaVuSans-110"/>
       <path id="DejaVuSans-32"/>
       <path d="M 12.40625 8.296875 
L 28.515625 8.296875 
L 28.515625 63.921875 
L 10.984375 60.40625 
L 10.984375 69.390625 
L 28.421875 72.90625 
L 38.28125 72.90625 
L 38.28125 8.296875 
L 54.390625 8.296875 
L 54.390625 0 
L 12.40625 0 
z
" id="DejaVuSans-49"/>
       <path d="M 19.1875 8.296875 
L 53.609375 8.296875 
L 53.609375 0 
L 7.328125 0 
L 7.328125 8.296875 
Q 12.9375 14.109375 22.625 23.890625 
Q 32.328125 33.6875 34.8125 36.53125 
Q 39.546875 41.84375 41.421875 45.53125 
Q 43.3125 49.21875 43.3125 52.78125 
Q 43.3125 58.59375 39.234375 62.25 
Q 35.15625 65.921875 28.609375 65.921875 
Q 23.96875 65.921875 18.8125 64.3125 
Q 13.671875 62.703125 7.8125 59.421875 
L 7.8125 69.390625 
Q 13.765625 71.78125 18.9375 73 
Q 24.125 74.21875 28.421875 74.21875 
Q 39.75 74.21875 46.484375 68.546875 
Q 53.21875 62.890625 53.21875 53.421875 
Q 53.21875 48.921875 51.53125 44.890625 
Q 49.859375 40.875 45.40625 35.40625 
Q 44.1875 33.984375 37.640625 27.21875 
Q 31.109375 20.453125 19.1875 8.296875 
z
" id="DejaVuSans-50"/>
       <path d="M 11.71875 12.40625 
L 22.015625 12.40625 
L 22.015625 0 
L 11.71875 0 
z
M 11.71875 51.703125 
L 22.015625 51.703125 
L 22.015625 39.3125 
L 11.71875 39.3125 
z
" id="DejaVuSans-58"/>
       <path d="M 31.78125 66.40625 
Q 24.171875 66.40625 20.328125 58.90625 
Q 16.5 51.421875 16.5 36.375 
Q 16.5 21.390625 20.328125 13.890625 
Q 24.171875 6.390625 31.78125 6.390625 
Q 39.453125 6.390625 43.28125 13.890625 
Q 47.125 21.390625 47.125 36.375 
Q 47.125 51.421875 43.28125 58.90625 
Q 39.453125 66.40625 31.78125 66.40625 
z
M 31.78125 74.21875 
Q 44.046875 74.21875 50.515625 64.515625 
Q 56.984375 54.828125 56.984375 36.375 
Q 56.984375 17.96875 50.515625 8.265625 
Q 44.046875 -1.421875 31.78125 -1.421875 
Q 19.53125 -1.421875 13.0625 8.265625 
Q 6.59375 17.96875 6.59375 36.375 
Q 6.59375 54.828125 13.0625 64.515625 
Q 19.53125 74.21875 31.78125 74.21875 
z
" id="DejaVuSans-48"/>
      </defs>
      <g transform="translate(118.105269 274.718437)scale(0.1 -0.1)">
       <use xlink:href="#DejaVuSans-77"/>
       <use x="86.279297" xlink:href="#DejaVuSans-111"/>
       <use x="147.460938" xlink:href="#DejaVuSans-110"/>
       <use x="210.839844" xlink:href="#DejaVuSans-32"/>
       <use x="242.626953" xlink:href="#DejaVuSans-49"/>
       <use x="306.25" xlink:href="#DejaVuSans-50"/>
       <use x="369.873047" xlink:href="#DejaVuSans-58"/>
       <use x="403.564453" xlink:href="#DejaVuSans-48"/>
       <use x="467.1875" xlink:href="#DejaVuSans-48"/>
      </g>
     </g>
    </g>
    <g id="xtick_2">
     <g id="line2d_2">
      <g>
       <use style="stroke:#000000;stroke-width:0.8;" x="255.877289" xlink:href="#mfd319396d5" y="260.12"/>
      </g>
     </g>
     <g id="text_2">
      <!-- Tue 00:00 -->
      <defs>
       <path d="M -0.296875 72.90625 
L 61.375 72.90625 
L 61.375 64.59375 
L 35.5 64.59375 
L 35.5 0 
L 25.59375 0 
L 25.59375 64.59375 
L -0.296875 64.59375 
z
" id="DejaVuSans-84"/>
       <path d="M 8.5 21.578125 
L 8.5 54.6875 
L 17.484375 54.6875 
L 17.484375 21.921875 
Q 17.484375 14.15625 20.5 10.265625 
Q 23.53125 6.390625 29.59375 6.390625 
Q 36.859375 6.390625 41.078125 11.03125 
Q 45.3125 15.671875 45.3125 23.6875 
L 45.3125 54.6875 
L 54.296875 54.6875 
L 54.296875 0 
L 45.3125 0 
L 45.3125 8.40625 
Q 42.046875 3.421875 37.71875 1 
Q 33.40625 -1.421875 27.6875 -1.421875 
Q 18.265625 -1.421875 13.375 4.4375 
Q 8.5 10.296875 8.5 21.578125 
z
M 31.109375 56 
z
" id="DejaVuSans-117"/>
       <path d="M 56.203125 29.59375 
L 56.203125 25.203125 
L 14.890625 25.203125 
Q 15.484375 15.921875 20.484375 11.0625 
Q 25.484375 6.203125 34.421875 6.203125 
Q 39.59375 6.203125 44.453125 7.46875 
Q 49.3125 8.734375 54.109375 11.28125 
L 54.109375 2.78125 
Q 49.265625 0.734375 44.1875 -0.34375 
Q 39.109375 -1.421875 33.890625 -1.421875 
Q 20.796875 -1.421875 13.15625 6.1875 
Q 5.515625 13.8125 5.515625 26.8125 
Q 5.515625 40.234375 12.765625 48.109375 
Q 20.015625 56 32.328125 56 
Q 43.359375 56 49.78125 48.890625 
Q 56.203125 41.796875 56.203125 29.59375 
z
M 47.21875 32.234375 
Q 47.125 39.59375 43.09375 43.984375 
Q 39.0625 48.390625 32.421875 48.390625 
Q 24.90625 48.390625 20.390625 44.140625 
Q 15.875 39.890625 15.1875 32.171875 
z
" id="DejaVuSans-101"/>
      </defs>
      <g transform="translate(230.591351 274.718437)scale(0.1 -0.1)">
       <use xlink:href="#DejaVuSans-84"/>
       <use x="60.849609" xlink:href="#DejaVuSans-117"/>
       <use x="124.228516" xlink:href="#DejaVuSans-101"/>
       <use x="185.751953" xlink:href="#DejaVuSans-32"/>
       <use x="217.539062" xlink:href="#DejaVuSans-48"/>
       <use x="281.162109" xlink:href="#DejaVuSans-48"/>
       <use x="344.785156" xlink:href="#DejaVuSans-58"/>
       <use x="378.476562" xlink:href="#DejaVuSans-48"/>
       <use x="442.099609" xlink:href="#DejaVuSans-48"/>
      </g>
     </g>
    </g>
    <g id="xtick_3">
     <g id="line2d_3">
      <g>
       <use style="stroke:#000000;stroke-width:0.8;" x="367.108683" xlink:href="#mfd319396d5" y="260.12"/>
      </g>
     </g>
     <g id="text_3">
      <!-- Tue 12:00 -->
      <g transform="translate(341.822746 274.718437)scale(0.1 -0.1)">
       <use xlink:href="#DejaVuSans-84"/>
       <use x="60.849609" xlink:href="#DejaVuSans-117"/>
       <use x="124.228516" xlink:href="#DejaVuSans-101"/>
       <use x="185.751953" xlink:href="#DejaVuSans-32"/>
       <use x="217.539062" xlink:href="#DejaVuSans-49"/>
       <use x="281.162109" xlink:href="#DejaVuSans-50"/>
       <use x="344.785156" xlink:href="#DejaVuSans-58"/>
       <use x="378.476562" xlink:href="#DejaVuSans-48"/>
       <use x="442.099609" xlink:href="#DejaVuSans-48"/>
      </g>
     </g>
    </g>
    <g id="xtick_4">
     <g id="line2d_4">
      <g>
       <use style="stroke:#000000;stroke-width:0.8;" x="478.340078" xlink:href="#mfd319396d5" y="260.12"/>
      </g>
     </g>
     <g id="text_4">
      <!-- Wed 00:00 -->
      <defs>
       <path d="M 3.328125 72.90625 
L 13.28125 72.90625 
L 28.609375 11.28125 
L 43.890625 72.90625 
L 54.984375 72.90625 
L 70.3125 11.28125 
L 85.59375 72.90625 
L 95.609375 72.90625 
L 77.296875 0 
L 64.890625 0 
L 49.515625 63.28125 
L 33.984375 0 
L 21.578125 0 
z
" id="DejaVuSans-87"/>
       <path d="M 45.40625 46.390625 
L 45.40625 75.984375 
L 54.390625 75.984375 
L 54.390625 0 
L 45.40625 0 
L 45.40625 8.203125 
Q 42.578125 3.328125 38.25 0.953125 
Q 33.9375 -1.421875 27.875 -1.421875 
Q 17.96875 -1.421875 11.734375 6.484375 
Q 5.515625 14.40625 5.515625 27.296875 
Q 5.515625 40.1875 11.734375 48.09375 
Q 17.96875 56 27.875 56 
Q 33.9375 56 38.25 53.625 
Q 42.578125 51.265625 45.40625 46.390625 
z
M 14.796875 27.296875 
Q 14.796875 17.390625 18.875 11.75 
Q 22.953125 6.109375 30.078125 6.109375 
Q 37.203125 6.109375 41.296875 11.75 
Q 45.40625 17.390625 45.40625 27.296875 
Q 45.40625 37.203125 41.296875 42.84375 
Q 37.203125 48.484375 30.078125 48.484375 
Q 22.953125 48.484375 18.875 42.84375 
Q 14.796875 37.203125 14.796875 27.296875 
z
" id="DejaVuSans-100"/>
      </defs>
      <g transform="translate(451.151015 274.718437)scale(0.1 -0.1)">
       <use xlink:href="#DejaVuSans-87"/>
       <use x="98.798828" xlink:href="#DejaVuSans-101"/>
       <use x="160.322266" xlink:href="#DejaVuSans-100"/>
       <use x="223.798828" xlink:href="#DejaVuSans-32"/>
       <use x="255.585938" xlink:href="#DejaVuSans-48"/>
       <use x="319.208984" xlink:href="#DejaVuSans-48"/>
       <use x="382.832031" xlink:href="#DejaVuSans-58"/>
       <use x="416.523438" xlink:href="#DejaVuSans-48"/>
       <use x="480.146484" xlink:href="#DejaVuSans-48"/>
      </g>
     </g>
    </g>
    <g id="xtick_5">
     <g id="line2d_5">
      <g>
       <use style="stroke:#000000;stroke-width:0.8;" x="589.571472" xlink:href="#mfd319396d5" y="260.12"/>
      </g>
     </g>
     <g id="text_5">
      <!-- Wed 12:00 -->
      <g transform="translate(562.38241 274.718437)scale(0.1 -0.1)">
       <use xlink:href="#DejaVuSans-87"/>
       <use x="98.798828" xlink:href="#DejaVuSans-101"/>
       <use x="160.322266" xlink:href="#DejaVuSans-100"/>
       <use x="223.798828" xlink:href="#DejaVuSans-32"/>
       <use x="255.585938" xlink:href="#DejaVuSans-49"/>
       <use x="319.208984" xlink:href="#DejaVuSans-50"/>
       <use x="382.832031" xlink:href="#DejaVuSans-58"/>
       <use x="416.523438" xlink:href="#DejaVuSans-48"/>
       <use x="480.146484" xlink:href="#DejaVuSans-48"/>
      </g>
     </g>
    </g>
    <g id="xtick_6">
     <g id="line2d_6">
      <g>
       <use style="stroke:#000000;stroke-width:0.8;" x="700.802867" xlink:href="#mfd319396d5" y="260.12"/>
      </g>
     </g>
     <g id="text_6">
      <!-- Thu 00:00 -->
      <defs>
       <path d="M 54.890625 33.015625 
L 54.890625 0 
L 45.90625 0 
L 45.90625 32.71875 
Q 45.90625 40.484375 42.875 44.328125 
Q 39.84375 48.1875 33.796875 48.1875 
Q 26.515625 48.1875 22.3125 43.546875 
Q 18.109375 38.921875 18.109375 30.90625 
L 18.109375 0 
L 9.078125 0 
L 9.078125 75.984375 
L 18.109375 75.984375 
L 18.109375 46.1875 
Q 21.34375 51.125 25.703125 53.5625 
Q 30.078125 56 35.796875 56 
Q 45.21875 56 50.046875 50.171875 
Q 54.890625 44.34375 54.890625 33.015625 
z
" id="DejaVuSans-104"/>
      </defs>
      <g transform="translate(675.413023 274.718437)scale(0.1 -0.1)">
       <use xlink:href="#DejaVuSans-84"/>
       <use x="61.083984" xlink:href="#DejaVuSans-104"/>
       <use x="124.462891" xlink:href="#DejaVuSans-117"/>
       <use x="187.841797" xlink:href="#DejaVuSans-32"/>
       <use x="219.628906" xlink:href="#DejaVuSans-48"/>
       <use x="283.251953" xlink:href="#DejaVuSans-48"/>
       <use x="346.875" xlink:href="#DejaVuSans-58"/>
       <use x="380.566406" xlink:href="#DejaVuSans-48"/>
       <use x="444.189453" xlink:href="#DejaVuSans-48"/>
      </g>
     </g>
    </g>
    <g id="xtick_7">
     <g id="line2d_7">
      <g>
       <use style="stroke:#000000;stroke-width:0.8;" x="812.034262" xlink:href="#mfd319396d5" y="260.12"/>
      </g>
     </g>
     <g id="text_7">
      <!-- Thu 12:00 -->
      <g transform="translate(786.644418 274.718437)scale(0.1 -0.1)">
       <use xlink:href="#DejaVuSans-84"/>
       <use x="61.083984" xlink:href="#DejaVuSans-104"/>
       <use x="124.462891" xlink:href="#DejaVuSans-117"/>
       <use x="187.841797" xlink:href="#DejaVuSans-32"/>
       <use x="219.628906" xlink:href="#DejaVuSans-49"/>
       <use x="283.251953" xlink:href="#DejaVuSans-50"/>
       <use x="346.875" xlink:href="#DejaVuSans-58"/>
       <use x="380.566406" xlink:href="#DejaVuSans-48"/>
       <use x="444.189453" xlink:href="#DejaVuSans-48"/>
      </g>
     </g>
    </g>
    <g id="xtick_8">
     <g id="line2d_8">
      <g>
       <use style="stroke:#000000;stroke-width:0.8;" x="923.265656" xlink:href="#mfd319396d5" y="260.12"/>
      </g>
     </g>
     <g id="text_8">
      <!-- Fri 00:00 -->
      <defs>
       <path d="M 9.8125 72.90625 
L 51.703125 72.90625 
L 51.703125 64.59375 
L 19.671875 64.59375 
L 19.671875 43.109375 
L 48.578125 43.109375 
L 48.578125 34.8125 
L 19.671875 34.8125 
L 19.671875 0 
L 9.8125 0 
z
" id="DejaVuSans-70"/>
       <path d="M 41.109375 46.296875 
Q 39.59375 47.171875 37.8125 47.578125 
Q 36.03125 48 33.890625 48 
Q 26.265625 48 22.1875 43.046875 
Q 18.109375 38.09375 18.109375 28.8125 
L 18.109375 0 
L 9.078125 0 
L 9.078125 54.6875 
L 18.109375 54.6875 
L 18.109375 46.1875 
Q 20.953125 51.171875 25.484375 53.578125 
Q 30.03125 56 36.53125 56 
Q 37.453125 56 38.578125 55.875 
Q 39.703125 55.765625 41.0625 55.515625 
z
" id="DejaVuSans-114"/>
       <path d="M 9.421875 54.6875 
L 18.40625 54.6875 
L 18.40625 0 
L 9.421875 0 
z
M 9.421875 75.984375 
L 18.40625 75.984375 
L 18.40625 64.59375 
L 9.421875 64.59375 
z
" id="DejaVuSans-105"/>
      </defs>
      <g transform="translate(900.952375 274.718437)scale(0.1 -0.1)">
       <use xlink:href="#DejaVuSans-70"/>
       <use x="57.410156" xlink:href="#DejaVuSans-114"/>
       <use x="98.523438" xlink:href="#DejaVuSans-105"/>
       <use x="126.306641" xlink:href="#DejaVuSans-32"/>
       <use x="158.09375" xlink:href="#DejaVuSans-48"/>
       <use x="221.716797" xlink:href="#DejaVuSans-48"/>
       <use x="285.339844" xlink:href="#DejaVuSans-58"/>
       <use x="319.03125" xlink:href="#DejaVuSans-48"/>
       <use x="382.654297" xlink:href="#DejaVuSans-48"/>
      </g>
     </g>
    </g>
    <g id="xtick_9">
     <g id="line2d_9">
      <g>
       <use style="stroke:#000000;stroke-width:0.8;" x="1034.497051" xlink:href="#mfd319396d5" y="260.12"/>
      </g>
     </g>
     <g id="text_9">
      <!-- Fri 12:00 -->
      <g transform="translate(1012.183769 274.718437)scale(0.1 -0.1)">
       <use xlink:href="#DejaVuSans-70"/>
       <use x="57.410156" xlink:href="#DejaVuSans-114"/>
       <use x="98.523438" xlink:href="#DejaVuSans-105"/>
       <use x="126.306641" xlink:href="#DejaVuSans-32"/>
       <use x="158.09375" xlink:href="#DejaVuSans-49"/>
       <use x="221.716797" xlink:href="#DejaVuSans-50"/>
       <use x="285.339844" xlink:href="#DejaVuSans-58"/>
       <use x="319.03125" xlink:href="#DejaVuSans-48"/>
       <use x="382.654297" xlink:href="#DejaVuSans-48"/>
      </g>
     </g>
    </g>
   </g>
   <g id="matplotlib.axis_2">
    <g id="ytick_1">
     <g id="line2d_10">
      <defs>
       <path d="M 0 0 
L -3.5 0 
" id="md7d779a888" style="stroke:#000000;stroke-width:0.8;"/>
      </defs>
      <g>
       <use style="stroke:#000000;stroke-width:0.8;" x="33.64" xlink:href="#md7d779a888" y="260.12"/>
      </g>
     </g>
     <g id="text_10">
      <!-- 0 -->
      <g transform="translate(20.2775 263.919219)scale(0.1 -0.1)">
       <use xlink:href="#DejaVuSans-48"/>
      </g>
     </g>
    </g>
    <g id="ytick_2">
     <g id="line2d_11">
      <g>
       <use style="stroke:#000000;stroke-width:0.8;" x="33.64" xlink:href="#md7d779a888" y="230.910476"/>
      </g>
     </g>
     <g id="text_11">
      <!-- 25 -->
      <defs>
       <path d="M 10.796875 72.90625 
L 49.515625 72.90625 
L 49.515625 64.59375 
L 19.828125 64.59375 
L 19.828125 46.734375 
Q 21.96875 47.46875 24.109375 47.828125 
Q 26.265625 48.1875 28.421875 48.1875 
Q 40.625 48.1875 47.75 41.5 
Q 54.890625 34.8125 54.890625 23.390625 
Q 54.890625 11.625 47.5625 5.09375 
Q 40.234375 -1.421875 26.90625 -1.421875 
Q 22.3125 -1.421875 17.546875 -0.640625 
Q 12.796875 0.140625 7.71875 1.703125 
L 7.71875 11.625 
Q 12.109375 9.234375 16.796875 8.0625 
Q 21.484375 6.890625 26.703125 6.890625 
Q 35.15625 6.890625 40.078125 11.328125 
Q 45.015625 15.765625 45.015625 23.390625 
Q 45.015625 31 40.078125 35.4375 
Q 35.15625 39.890625 26.703125 39.890625 
Q 22.75 39.890625 18.8125 39.015625 
Q 14.890625 38.140625 10.796875 36.28125 
z
" id="DejaVuSans-53"/>
      </defs>
      <g transform="translate(13.915 234.709695)scale(0.1 -0.1)">
       <use xlink:href="#DejaVuSans-50"/>
       <use x="63.623047" xlink:href="#DejaVuSans-53"/>
      </g>
     </g>
    </g>
    <g id="ytick_3">
     <g id="line2d_12">
      <g>
       <use style="stroke:#000000;stroke-width:0.8;" x="33.64" xlink:href="#md7d779a888" y="201.700952"/>
      </g>
     </g>
     <g id="text_12">
      <!-- 50 -->
      <g transform="translate(13.915 205.500171)scale(0.1 -0.1)">
       <use xlink:href="#DejaVuSans-53"/>
       <use x="63.623047" xlink:href="#DejaVuSans-48"/>
      </g>
     </g>
    </g>
    <g id="ytick_4">
     <g id="line2d_13">
      <g>
       <use style="stroke:#000000;stroke-width:0.8;" x="33.64" xlink:href="#md7d779a888" y="172.491429"/>
      </g>
     </g>
     <g id="text_13">
      <!-- 75 -->
      <defs>
       <path d="M 8.203125 72.90625 
L 55.078125 72.90625 
L 55.078125 68.703125 
L 28.609375 0 
L 18.3125 0 
L 43.21875 64.59375 
L 8.203125 64.59375 
z
" id="DejaVuSans-55"/>
      </defs>
      <g transform="translate(13.915 176.290647)scale(0.1 -0.1)">
       <use xlink:href="#DejaVuSans-55"/>
       <use x="63.623047" xlink:href="#DejaVuSans-53"/>
      </g>
     </g>
    </g>
    <g id="ytick_5">
     <g id="line2d_14">
      <g>
       <use style="stroke:#000000;stroke-width:0.8;" x="33.64" xlink:href="#md7d779a888" y="143.281905"/>
      </g>
     </g>
     <g id="text_14">
      <!-- 100 -->
      <g transform="translate(7.5525 147.081124)scale(0.1 -0.1)">
       <use xlink:href="#DejaVuSans-49"/>
       <use x="63.623047" xlink:href="#DejaVuSans-48"/>
       <use x="127.246094" xlink:href="#DejaVuSans-48"/>
      </g>
     </g>
    </g>
    <g id="ytick_6">
     <g id="line2d_15">
      <g>
       <use style="stroke:#000000;stroke-width:0.8;" x="33.64" xlink:href="#md7d779a888" y="114.072381"/>
      </g>
     </g>
     <g id="text_15">
      <!-- 125 -->
      <g transform="translate(7.5525 117.8716)scale(0.1 -0.1)">
       <use xlink:href="#DejaVuSans-49"/>
       <use x="63.623047" xlink:href="#DejaVuSans-50"/>
       <use x="127.246094" xlink:href="#DejaVuSans-53"/>
      </g>
     </g>
    </g>
    <g id="ytick_7">
     <g id="line2d_16">
      <g>
       <use style="stroke:#000000;stroke-width:0.8;" x="33.64" xlink:href="#md7d779a888" y="84.862857"/>
      </g>
     </g>
     <g id="text_16">
      <!-- 150 -->
      <g transform="translate(7.5525 88.662076)scale(0.1 -0.1)">
       <use xlink:href="#DejaVuSans-49"/>
       <use x="63.623047" xlink:href="#DejaVuSans-53"/>
       <use x="127.246094" xlink:href="#DejaVuSans-48"/>
      </g>
     </g>
    </g>
    <g id="ytick_8">
     <g id="line2d_17">
      <g>
       <use style="stroke:#000000;stroke-width:0.8;" x="33.64" xlink:href="#md7d779a888" y="55.653333"/>
      </g>
     </g>
     <g id="text_17">
      <!-- 175 -->
      <g transform="translate(7.5525 59.452552)scale(0.1 -0.1)">
       <use xlink:href="#DejaVuSans-49"/>
       <use x="63.623047" xlink:href="#DejaVuSans-55"/>
       <use x="127.246094" xlink:href="#DejaVuSans-53"/>
      </g>
     </g>
    </g>
    <g id="ytick_9">
     <g id="line2d_18">
      <g>
       <use style="stroke:#000000;stroke-width:0.8;" x="33.64" xlink:href="#md7d779a888" y="26.44381"/>
      </g>
     </g>
     <g id="text_18">
      <!-- 200 -->
      <g transform="translate(7.5525 30.243028)scale(0.1 -0.1)">
       <use xlink:href="#DejaVuSans-50"/>
       <use x="63.623047" xlink:href="#DejaVuSans-48"/>
       <use x="127.246094" xlink:href="#DejaVuSans-48"/>
      </g>
     </g>
    </g>
   </g>
   <g id="line2d_19">
    <path clip-path="url(#pf1c40eeb9e)" d="M 33.64 260.12 
L 118.051625 260.12 
L 119.642019 257.783238 
L 121.23343 257.783238 
L 122.824942 254.278095 
L 124.416242 254.278095 
L 127.595561 249.604571 
L 129.186181 248.43619 
L 130.775216 248.43619 
L 132.364732 247.26781 
L 135.544526 247.26781 
L 137.134891 242.594286 
L 138.724626 236.752381 
L 140.31369 236.752381 
L 141.903791 229.742095 
L 143.496067 226.236952 
L 145.085653 226.236952 
L 146.675528 222.73181 
L 151.443427 222.73181 
L 153.032578 219.226667 
L 154.621078 218.058286 
L 157.801192 218.058286 
L 159.390567 223.90019 
L 160.980108 223.90019 
L 162.571813 229.742095 
L 164.160763 227.405333 
L 165.751048 227.405333 
L 167.340203 232.078857 
L 168.929281 233.247238 
L 170.519616 236.752381 
L 172.109431 236.752381 
L 173.701262 234.415619 
L 175.2892 234.415619 
L 176.878677 230.910476 
L 180.056098 216.889905 
L 181.644572 216.889905 
L 183.233703 212.216381 
L 184.823821 208.711238 
L 186.415158 208.711238 
L 188.003963 197.027429 
L 189.599802 192.353905 
L 191.194821 186.512 
L 192.783449 186.512 
L 194.373514 187.680381 
L 195.962402 187.680381 
L 197.552354 181.838476 
L 199.141831 164.312762 
L 200.730257 164.312762 
L 202.319725 150.29219 
L 203.909947 139.776762 
L 205.500355 116.409143 
L 207.08927 116.409143 
L 208.677895 89.536381 
L 210.269638 89.536381 
L 211.85831 67.337143 
L 213.447006 53.316571 
L 215.035181 47.474667 
L 216.623749 47.474667 
L 218.212749 54.484952 
L 219.801197 59.158476 
L 221.391041 59.158476 
L 222.981192 76.68419 
L 224.569213 74.347429 
L 226.161032 74.347429 
L 227.751439 79.020952 
L 229.339712 81.357714 
L 230.930781 93.041524 
L 232.519113 93.041524 
L 234.107792 100.05181 
L 235.696293 109.398857 
L 237.284037 109.398857 
L 238.873384 122.251048 
L 240.461856 128.092952 
L 242.053238 128.092952 
L 243.640998 129.261333 
L 245.229842 132.766476 
L 246.818561 139.776762 
L 248.406017 139.776762 
L 249.993157 260.12 
L 339.199044 260.12 
L 340.762321 258.951619 
L 342.355668 243.762667 
L 343.948265 243.762667 
L 345.540497 240.257524 
L 347.129919 235.584 
L 350.313949 235.584 
L 351.903261 232.078857 
L 353.492321 232.078857 
L 355.082221 227.405333 
L 356.67215 223.90019 
L 358.260171 223.90019 
L 359.851455 222.73181 
L 363.028788 222.73181 
L 364.618013 225.068571 
L 366.210476 218.058286 
L 367.802554 219.226667 
L 369.390685 219.226667 
L 370.980437 216.889905 
L 372.570369 218.058286 
L 374.160516 218.058286 
L 375.749127 221.563429 
L 377.337342 219.226667 
L 378.927111 219.226667 
L 380.51803 214.553143 
L 382.106475 218.058286 
L 383.694463 218.058286 
L 385.282575 213.384762 
L 386.874407 212.216381 
L 388.46599 208.711238 
L 390.05629 208.711238 
L 393.233415 201.700952 
L 394.824763 201.700952 
L 396.416143 204.037714 
L 399.604591 204.037714 
L 401.192519 200.532571 
L 404.373006 200.532571 
L 405.964584 197.027429 
L 407.553983 187.680381 
L 409.142856 187.680381 
L 410.731048 184.175238 
L 412.320434 178.333333 
L 413.90968 178.333333 
L 415.501496 171.323048 
L 417.091005 156.134095 
L 418.68089 128.092952 
L 420.274515 128.092952 
L 421.870044 116.409143 
L 425.047831 116.409143 
L 426.641739 98.883429 
L 428.231271 98.883429 
L 429.819919 79.020952 
L 431.408368 67.337143 
L 432.997067 49.811429 
L 434.585853 49.811429 
L 436.176662 38.127619 
L 440.942585 38.127619 
L 442.534848 26.44381 
L 444.126902 26.44381 
L 445.715163 48.643048 
L 447.304617 60.326857 
L 448.893529 74.347429 
L 450.485836 74.347429 
L 453.662796 110.567238 
L 455.255531 110.567238 
L 456.844032 125.75619 
L 458.433019 137.44 
L 460.021316 151.460571 
L 461.614299 151.460571 
L 463.203227 161.976 
L 464.793111 161.976 
L 466.38636 166.649524 
L 467.97456 174.82819 
L 469.564375 175.996571 
L 472.743363 175.996571 
L 474.331188 260.12 
L 561.94669 260.12 
L 563.535118 255.446476 
L 566.713953 241.425905 
L 568.305504 241.425905 
L 569.894776 240.257524 
L 573.077978 240.257524 
L 574.66684 239.089143 
L 576.255828 239.089143 
L 577.847337 232.078857 
L 579.438313 232.078857 
L 581.02773 228.573714 
L 582.619144 228.573714 
L 584.20917 226.236952 
L 585.800115 225.068571 
L 592.161012 225.068571 
L 593.757231 226.236952 
L 596.934447 226.236952 
L 598.523228 223.90019 
L 600.114147 216.889905 
L 601.702757 219.226667 
L 603.294794 219.226667 
L 604.886426 221.563429 
L 606.475018 221.563429 
L 609.653294 214.553143 
L 611.245218 212.216381 
L 612.836795 212.216381 
L 614.425256 208.711238 
L 616.016345 206.374476 
L 617.608074 206.374476 
L 619.197279 209.879619 
L 620.788259 207.542857 
L 622.379174 206.374476 
L 623.971388 206.374476 
L 625.564079 205.206095 
L 627.153435 205.206095 
L 628.743063 198.19581 
L 630.333887 190.017143 
L 631.927141 190.017143 
L 633.519134 184.175238 
L 635.110275 171.323048 
L 636.698758 170.154667 
L 638.292842 170.154667 
L 639.884874 159.639238 
L 641.476905 159.639238 
L 643.067067 156.134095 
L 644.658574 153.797333 
L 646.250823 129.261333 
L 647.854029 129.261333 
L 649.443735 123.419429 
L 651.033111 115.240762 
L 652.624087 115.240762 
L 654.213984 98.883429 
L 655.803101 96.546667 
L 657.392941 96.546667 
L 658.983319 108.230476 
L 660.578017 101.22019 
L 662.16598 101.22019 
L 663.75426 96.546667 
L 665.346556 89.536381 
L 666.942461 95.378286 
L 668.535055 95.378286 
L 670.126405 94.209905 
L 671.719005 119.914286 
L 673.310328 119.914286 
L 674.898494 125.75619 
L 676.490013 144.450286 
L 678.081668 146.787048 
L 679.672913 146.787048 
L 681.26433 156.134095 
L 682.85227 156.134095 
L 684.444118 165.481143 
L 686.036347 171.323048 
L 687.624785 173.65981 
L 689.217227 173.65981 
L 690.808973 180.670095 
L 692.396698 181.838476 
L 695.580477 181.838476 
L 697.172418 260.12 
L 786.388847 260.12 
L 787.977038 256.614857 
L 789.564859 248.43619 
L 791.153377 248.43619 
L 792.745057 244.931048 
L 794.334156 242.594286 
L 795.923287 242.594286 
L 799.104539 235.584 
L 800.695105 230.910476 
L 802.287391 230.910476 
L 803.876079 229.742095 
L 805.465632 229.742095 
L 807.054213 226.236952 
L 808.64652 223.90019 
L 810.236215 223.90019 
L 813.415935 221.563429 
L 815.005406 225.068571 
L 816.59637 225.068571 
L 818.185647 222.73181 
L 819.775955 219.226667 
L 821.36583 219.226667 
L 822.955804 211.048 
L 824.545506 211.048 
L 826.134812 212.216381 
L 830.905884 212.216381 
L 832.497067 205.206095 
L 835.676326 205.206095 
L 837.267268 197.027429 
L 838.858202 194.690667 
L 840.449636 199.36419 
L 842.040887 199.36419 
L 843.639359 195.859048 
L 845.228927 195.859048 
L 846.817812 191.185524 
L 848.407926 184.175238 
L 849.997583 175.996571 
L 851.588705 175.996571 
L 853.17874 167.817905 
L 854.770828 161.976 
L 856.361966 161.976 
L 857.954111 157.302476 
L 859.546113 143.281905 
L 861.139722 143.281905 
L 862.73174 138.608381 
L 864.322991 128.092952 
L 865.91442 114.072381 
L 867.504314 114.072381 
L 869.093401 98.883429 
L 870.682183 104.725333 
L 872.271629 104.725333 
L 873.862063 86.031238 
L 875.451191 86.031238 
L 877.047458 70.842286 
L 878.637536 59.158476 
L 880.227974 46.306286 
L 881.820283 46.306286 
L 883.412922 28.780571 
L 885.004219 32.285714 
L 886.593393 32.285714 
L 888.183866 38.127619 
L 889.771743 31.117333 
L 891.360354 31.117333 
L 892.948771 41.632762 
L 894.538598 54.484952 
L 896.127708 62.663619 
L 897.716658 62.663619 
L 899.30466 76.68419 
L 900.899747 96.546667 
L 902.487936 96.546667 
L 904.079203 105.893714 
L 905.670449 121.082667 
L 907.259124 121.082667 
L 908.848087 126.924571 
L 910.4392 144.450286 
L 912.030413 144.450286 
L 913.618713 152.628952 
L 915.207623 158.470857 
L 918.388336 158.470857 
L 919.976966 260.12 
L 1006.038197 260.12 
L 1007.601385 256.614857 
L 1009.190774 256.614857 
L 1010.77995 254.278095 
L 1012.368386 249.604571 
L 1013.957276 247.26781 
L 1015.549316 247.26781 
L 1017.139622 242.594286 
L 1018.729175 233.247238 
L 1020.319564 233.247238 
L 1021.908206 227.405333 
L 1023.496175 227.405333 
L 1025.084493 223.90019 
L 1026.676689 223.90019 
L 1028.26503 216.889905 
L 1029.853969 216.889905 
L 1031.443106 213.384762 
L 1033.031516 215.721524 
L 1034.620632 215.721524 
L 1036.209716 216.889905 
L 1037.798831 220.395048 
L 1040.98383 220.395048 
L 1042.572323 221.563429 
L 1044.1611 221.563429 
L 1045.749981 219.226667 
L 1047.33916 225.068571 
L 1050.515368 225.068571 
L 1052.103454 220.395048 
L 1053.693475 222.73181 
L 1055.284666 222.73181 
L 1056.874628 220.395048 
L 1058.466261 220.395048 
L 1060.055813 218.058286 
L 1061.644262 206.374476 
L 1063.232919 202.869333 
L 1064.823314 202.869333 
L 1066.411138 194.690667 
L 1068.000476 187.680381 
L 1069.588567 187.680381 
L 1071.18072 181.838476 
L 1072.775575 171.323048 
L 1074.366193 164.312762 
L 1075.959633 164.312762 
L 1077.54778 158.470857 
L 1079.136289 158.470857 
L 1080.729727 153.797333 
L 1082.319207 147.955429 
L 1083.909499 145.618667 
L 1085.502484 145.618667 
L 1087.09251 137.44 
L 1088.681957 150.29219 
L 1090.270738 150.29219 
L 1091.867215 161.976 
L 1093.456151 160.807619 
L 1095.044309 160.807619 
L 1096.633019 150.29219 
L 1098.222031 144.450286 
L 1099.813177 144.450286 
L 1101.402795 135.103238 
L 1102.991876 126.924571 
L 1104.583358 126.924571 
L 1106.172345 125.75619 
L 1107.762095 128.092952 
L 1109.355942 125.75619 
L 1110.959627 125.75619 
L 1112.553576 130.429714 
L 1114.148448 131.598095 
L 1115.744116 131.598095 
L 1117.35135 143.281905 
L 1120.542875 143.281905 
L 1122.138579 151.460571 
L 1123.728599 158.470857 
L 1125.32526 160.807619 
L 1126.915889 160.807619 
L 1128.50836 166.649524 
L 1130.098089 166.649524 
L 1131.690096 179.501714 
L 1133.28 185.343619 
L 1133.28 185.343619 
" style="fill:none;stroke:#1f77b4;stroke-linecap:square;stroke-width:1.5;"/>
   </g>
   <g id="patch_3">
    <path d="M 33.64 260.12 
L 33.64 14.76 
" style="fill:none;stroke:#000000;stroke-linecap:square;stroke-linejoin:miter;stroke-width:0.8;"/>
   </g>
   <g id="patch_4">
    <path d="M 1133.28 260.12 
L 1133.28 14.76 
" style="fill:none;stroke:#000000;stroke-linecap:square;stroke-linejoin:miter;stroke-width:0.8;"/>
   </g>
   <g id="patch_5">
    <path d="M 33.64 260.12 
L 1133.28 260.12 
" style="fill:none;stroke:#000000;stroke-linecap:square;stroke-linejoin:miter;stroke-width:0.8;"/>
   </g>
   <g id="patch_6">
    <path d="M 33.64 14.76 
L 1133.28 14.76 
" style="fill:none;stroke:#000000;stroke-linecap:square;stroke-linejoin:miter;stroke-width:0.8;"/>
   </g>
  </g>
 </g>
 <defs>
  <clipPath id="pf1c40eeb9e">
   <rect height="245.36" width="1099.64" x="33.64" y="14.76"/>
  </clipPath>
 </defs>
</svg>
