<?xml version="1.0" encoding="utf-8" standalone="no"?>
<!DOCTYPE svg PUBLIC "-//W3C//DTD SVG 1.1//EN"
  "http://www.w3.org/Graphics/SVG/1.1/DTD/svg11.dtd">
<!-- Created with matplotlib (https://matplotlib.org/) -->
<svg height="288pt" version="1.1" viewBox="0 0 1152 288" width="1152pt" xmlns="http://www.w3.org/2000/svg" xmlns:xlink="http://www.w3.org/1999/xlink">
 <defs>
  <style type="text/css">
*{stroke-linecap:butt;stroke-linejoin:round;}
  </style>
 </defs>
 <g id="figure_1">
  <g id="patch_1">
   <path d="M 0 288 
L 1152 288 
L 1152 0 
L 0 0 
z
" style="fill:#ffffff;"/>
  </g>
  <g id="axes_1">
   <g id="patch_2">
    <path d="M 33.64 260.12 
L 1133.28 260.12 
L 1133.28 14.76 
L 33.64 14.76 
z
" style="fill:#ffffff;"/>
   </g>
   <g id="matplotlib.axis_1">
    <g id="xtick_1">
     <g id="line2d_1">
      <defs>
       <path d="M 0 0 
L 0 3.5 
" id="md90790f52e" style="stroke:#000000;stroke-width:0.8;"/>
      </defs>
      <g>
       <use style="stroke:#000000;stroke-width:0.8;" x="198.337524" xlink:href="#md90790f52e" y="260.12"/>
      </g>
     </g>
     <g id="text_1">
      <!-- Tue 00:00 -->
      <defs>
       <path d="M -0.296875 72.90625 
L 61.375 72.90625 
L 61.375 64.59375 
L 35.5 64.59375 
L 35.5 0 
L 25.59375 0 
L 25.59375 64.59375 
L -0.296875 64.59375 
z
" id="DejaVuSans-84"/>
       <path d="M 8.5 21.578125 
L 8.5 54.6875 
L 17.484375 54.6875 
L 17.484375 21.921875 
Q 17.484375 14.15625 20.5 10.265625 
Q 23.53125 6.390625 29.59375 6.390625 
Q 36.859375 6.390625 41.078125 11.03125 
Q 45.3125 15.671875 45.3125 23.6875 
L 45.3125 54.6875 
L 54.296875 54.6875 
L 54.296875 0 
L 45.3125 0 
L 45.3125 8.40625 
Q 42.046875 3.421875 37.71875 1 
Q 33.40625 -1.421875 27.6875 -1.421875 
Q 18.265625 -1.421875 13.375 4.4375 
Q 8.5 10.296875 8.5 21.578125 
z
M 31.109375 56 
z
" id="DejaVuSans-117"/>
       <path d="M 56.203125 29.59375 
L 56.203125 25.203125 
L 14.890625 25.203125 
Q 15.484375 15.921875 20.484375 11.0625 
Q 25.484375 6.203125 34.421875 6.203125 
Q 39.59375 6.203125 44.453125 7.46875 
Q 49.3125 8.734375 54.109375 11.28125 
L 54.109375 2.78125 
Q 49.265625 0.734375 44.1875 -0.34375 
Q 39.109375 -1.421875 33.890625 -1.421875 
Q 20.796875 -1.421875 13.15625 6.1875 
Q 5.515625 13.8125 5.515625 26.8125 
Q 5.515625 40.234375 12.765625 48.109375 
Q 20.015625 56 32.328125 56 
Q 43.359375 56 49.78125 48.890625 
Q 56.203125 41.796875 56.203125 29.59375 
z
M 47.21875 32.234375 
Q 47.125 39.59375 43.09375 43.984375 
Q 39.0625 48.390625 32.421875 48.390625 
Q 24.90625 48.390625 20.390625 44.140625 
Q 15.875 39.890625 15.1875 32.171875 
z
" id="DejaVuSans-101"/>
       <path id="DejaVuSans-32"/>
       <path d="M 31.78125 66.40625 
Q 24.171875 66.40625 20.328125 58.90625 
Q 16.5 51.421875 16.5 36.375 
Q 16.5 21.390625 20.328125 13.890625 
Q 24.171875 6.390625 31.78125 6.390625 
Q 39.453125 6.390625 43.28125 13.890625 
Q 47.125 21.390625 47.125 36.375 
Q 47.125 51.421875 43.28125 58.90625 
Q 39.453125 66.40625 31.78125 66.40625 
z
M 31.78125 74.21875 
Q 44.046875 74.21875 50.515625 64.515625 
Q 56.984375 54.828125 56.984375 36.375 
Q 56.984375 17.96875 50.515625 8.265625 
Q 44.046875 -1.421875 31.78125 -1.421875 
Q 19.53125 -1.421875 13.0625 8.265625 
Q 6.59375 17.96875 6.59375 36.375 
Q 6.59375 54.828125 13.0625 64.515625 
Q 19.53125 74.21875 31.78125 74.21875 
z
" id="DejaVuSans-48"/>
       <path d="M 11.71875 12.40625 
L 22.015625 12.40625 
L 22.015625 0 
L 11.71875 0 
z
M 11.71875 51.703125 
L 22.015625 51.703125 
L 22.015625 39.3125 
L 11.71875 39.3125 
z
" id="DejaVuSans-58"/>
      </defs>
      <g transform="translate(173.051587 274.718437)scale(0.1 -0.1)">
       <use xlink:href="#DejaVuSans-84"/>
       <use x="60.849609" xlink:href="#DejaVuSans-117"/>
       <use x="124.228516" xlink:href="#DejaVuSans-101"/>
       <use x="185.751953" xlink:href="#DejaVuSans-32"/>
       <use x="217.539062" xlink:href="#DejaVuSans-48"/>
       <use x="281.162109" xlink:href="#DejaVuSans-48"/>
       <use x="344.785156" xlink:href="#DejaVuSans-58"/>
       <use x="378.476562" xlink:href="#DejaVuSans-48"/>
       <use x="442.099609" xlink:href="#DejaVuSans-48"/>
      </g>
     </g>
    </g>
    <g id="xtick_2">
     <g id="line2d_2">
      <g>
       <use style="stroke:#000000;stroke-width:0.8;" x="363.202165" xlink:href="#md90790f52e" y="260.12"/>
      </g>
     </g>
     <g id="text_2">
      <!-- Wed 00:00 -->
      <defs>
       <path d="M 3.328125 72.90625 
L 13.28125 72.90625 
L 28.609375 11.28125 
L 43.890625 72.90625 
L 54.984375 72.90625 
L 70.3125 11.28125 
L 85.59375 72.90625 
L 95.609375 72.90625 
L 77.296875 0 
L 64.890625 0 
L 49.515625 63.28125 
L 33.984375 0 
L 21.578125 0 
z
" id="DejaVuSans-87"/>
       <path d="M 45.40625 46.390625 
L 45.40625 75.984375 
L 54.390625 75.984375 
L 54.390625 0 
L 45.40625 0 
L 45.40625 8.203125 
Q 42.578125 3.328125 38.25 0.953125 
Q 33.9375 -1.421875 27.875 -1.421875 
Q 17.96875 -1.421875 11.734375 6.484375 
Q 5.515625 14.40625 5.515625 27.296875 
Q 5.515625 40.1875 11.734375 48.09375 
Q 17.96875 56 27.875 56 
Q 33.9375 56 38.25 53.625 
Q 42.578125 51.265625 45.40625 46.390625 
z
M 14.796875 27.296875 
Q 14.796875 17.390625 18.875 11.75 
Q 22.953125 6.109375 30.078125 6.109375 
Q 37.203125 6.109375 41.296875 11.75 
Q 45.40625 17.390625 45.40625 27.296875 
Q 45.40625 37.203125 41.296875 42.84375 
Q 37.203125 48.484375 30.078125 48.484375 
Q 22.953125 48.484375 18.875 42.84375 
Q 14.796875 37.203125 14.796875 27.296875 
z
" id="DejaVuSans-100"/>
      </defs>
      <g transform="translate(336.013102 274.718437)scale(0.1 -0.1)">
       <use xlink:href="#DejaVuSans-87"/>
       <use x="98.798828" xlink:href="#DejaVuSans-101"/>
       <use x="160.322266" xlink:href="#DejaVuSans-100"/>
       <use x="223.798828" xlink:href="#DejaVuSans-32"/>
       <use x="255.585938" xlink:href="#DejaVuSans-48"/>
       <use x="319.208984" xlink:href="#DejaVuSans-48"/>
       <use x="382.832031" xlink:href="#DejaVuSans-58"/>
       <use x="416.523438" xlink:href="#DejaVuSans-48"/>
       <use x="480.146484" xlink:href="#DejaVuSans-48"/>
      </g>
     </g>
    </g>
    <g id="xtick_3">
     <g id="line2d_3">
      <g>
       <use style="stroke:#000000;stroke-width:0.8;" x="528.066805" xlink:href="#md90790f52e" y="260.12"/>
      </g>
     </g>
     <g id="text_3">
      <!-- Thu 00:00 -->
      <defs>
       <path d="M 54.890625 33.015625 
L 54.890625 0 
L 45.90625 0 
L 45.90625 32.71875 
Q 45.90625 40.484375 42.875 44.328125 
Q 39.84375 48.1875 33.796875 48.1875 
Q 26.515625 48.1875 22.3125 43.546875 
Q 18.109375 38.921875 18.109375 30.90625 
L 18.109375 0 
L 9.078125 0 
L 9.078125 75.984375 
L 18.109375 75.984375 
L 18.109375 46.1875 
Q 21.34375 51.125 25.703125 53.5625 
Q 30.078125 56 35.796875 56 
Q 45.21875 56 50.046875 50.171875 
Q 54.890625 44.34375 54.890625 33.015625 
z
" id="DejaVuSans-104"/>
      </defs>
      <g transform="translate(502.676961 274.718437)scale(0.1 -0.1)">
       <use xlink:href="#DejaVuSans-84"/>
       <use x="61.083984" xlink:href="#DejaVuSans-104"/>
       <use x="124.462891" xlink:href="#DejaVuSans-117"/>
       <use x="187.841797" xlink:href="#DejaVuSans-32"/>
       <use x="219.628906" xlink:href="#DejaVuSans-48"/>
       <use x="283.251953" xlink:href="#DejaVuSans-48"/>
       <use x="346.875" xlink:href="#DejaVuSans-58"/>
       <use x="380.566406" xlink:href="#DejaVuSans-48"/>
       <use x="444.189453" xlink:href="#DejaVuSans-48"/>
      </g>
     </g>
    </g>
    <g id="xtick_4">
     <g id="line2d_4">
      <g>
       <use style="stroke:#000000;stroke-width:0.8;" x="692.931445" xlink:href="#md90790f52e" y="260.12"/>
      </g>
     </g>
     <g id="text_4">
      <!-- Fri 00:00 -->
      <defs>
       <path d="M 9.8125 72.90625 
L 51.703125 72.90625 
L 51.703125 64.59375 
L 19.671875 64.59375 
L 19.671875 43.109375 
L 48.578125 43.109375 
L 48.578125 34.8125 
L 19.671875 34.8125 
L 19.671875 0 
L 9.8125 0 
z
" id="DejaVuSans-70"/>
       <path d="M 41.109375 46.296875 
Q 39.59375 47.171875 37.8125 47.578125 
Q 36.03125 48 33.890625 48 
Q 26.265625 48 22.1875 43.046875 
Q 18.109375 38.09375 18.109375 28.8125 
L 18.109375 0 
L 9.078125 0 
L 9.078125 54.6875 
L 18.109375 54.6875 
L 18.109375 46.1875 
Q 20.953125 51.171875 25.484375 53.578125 
Q 30.03125 56 36.53125 56 
Q 37.453125 56 38.578125 55.875 
Q 39.703125 55.765625 41.0625 55.515625 
z
" id="DejaVuSans-114"/>
       <path d="M 9.421875 54.6875 
L 18.40625 54.6875 
L 18.40625 0 
L 9.421875 0 
z
M 9.421875 75.984375 
L 18.40625 75.984375 
L 18.40625 64.59375 
L 9.421875 64.59375 
z
" id="DejaVuSans-105"/>
      </defs>
      <g transform="translate(670.618164 274.718437)scale(0.1 -0.1)">
       <use xlink:href="#DejaVuSans-70"/>
       <use x="57.410156" xlink:href="#DejaVuSans-114"/>
       <use x="98.523438" xlink:href="#DejaVuSans-105"/>
       <use x="126.306641" xlink:href="#DejaVuSans-32"/>
       <use x="158.09375" xlink:href="#DejaVuSans-48"/>
       <use x="221.716797" xlink:href="#DejaVuSans-48"/>
       <use x="285.339844" xlink:href="#DejaVuSans-58"/>
       <use x="319.03125" xlink:href="#DejaVuSans-48"/>
       <use x="382.654297" xlink:href="#DejaVuSans-48"/>
      </g>
     </g>
    </g>
    <g id="xtick_5">
     <g id="line2d_5">
      <g>
       <use style="stroke:#000000;stroke-width:0.8;" x="857.796085" xlink:href="#md90790f52e" y="260.12"/>
      </g>
     </g>
     <g id="text_5">
      <!-- Sat 00:00 -->
      <defs>
       <path d="M 53.515625 70.515625 
L 53.515625 60.890625 
Q 47.90625 63.578125 42.921875 64.890625 
Q 37.9375 66.21875 33.296875 66.21875 
Q 25.25 66.21875 20.875 63.09375 
Q 16.5 59.96875 16.5 54.203125 
Q 16.5 49.359375 19.40625 46.890625 
Q 22.3125 44.4375 30.421875 42.921875 
L 36.375 41.703125 
Q 47.40625 39.59375 52.65625 34.296875 
Q 57.90625 29 57.90625 20.125 
Q 57.90625 9.515625 50.796875 4.046875 
Q 43.703125 -1.421875 29.984375 -1.421875 
Q 24.8125 -1.421875 18.96875 -0.25 
Q 13.140625 0.921875 6.890625 3.21875 
L 6.890625 13.375 
Q 12.890625 10.015625 18.65625 8.296875 
Q 24.421875 6.59375 29.984375 6.59375 
Q 38.421875 6.59375 43.015625 9.90625 
Q 47.609375 13.234375 47.609375 19.390625 
Q 47.609375 24.75 44.3125 27.78125 
Q 41.015625 30.8125 33.5 32.328125 
L 27.484375 33.5 
Q 16.453125 35.6875 11.515625 40.375 
Q 6.59375 45.0625 6.59375 53.421875 
Q 6.59375 63.09375 13.40625 68.65625 
Q 20.21875 74.21875 32.171875 74.21875 
Q 37.3125 74.21875 42.625 73.28125 
Q 47.953125 72.359375 53.515625 70.515625 
z
" id="DejaVuSans-83"/>
       <path d="M 34.28125 27.484375 
Q 23.390625 27.484375 19.1875 25 
Q 14.984375 22.515625 14.984375 16.5 
Q 14.984375 11.71875 18.140625 8.90625 
Q 21.296875 6.109375 26.703125 6.109375 
Q 34.1875 6.109375 38.703125 11.40625 
Q 43.21875 16.703125 43.21875 25.484375 
L 43.21875 27.484375 
z
M 52.203125 31.203125 
L 52.203125 0 
L 43.21875 0 
L 43.21875 8.296875 
Q 40.140625 3.328125 35.546875 0.953125 
Q 30.953125 -1.421875 24.3125 -1.421875 
Q 15.921875 -1.421875 10.953125 3.296875 
Q 6 8.015625 6 15.921875 
Q 6 25.140625 12.171875 29.828125 
Q 18.359375 34.515625 30.609375 34.515625 
L 43.21875 34.515625 
L 43.21875 35.40625 
Q 43.21875 41.609375 39.140625 45 
Q 35.0625 48.390625 27.6875 48.390625 
Q 23 48.390625 18.546875 47.265625 
Q 14.109375 46.140625 10.015625 43.890625 
L 10.015625 52.203125 
Q 14.9375 54.109375 19.578125 55.046875 
Q 24.21875 56 28.609375 56 
Q 40.484375 56 46.34375 49.84375 
Q 52.203125 43.703125 52.203125 31.203125 
z
" id="DejaVuSans-97"/>
       <path d="M 18.3125 70.21875 
L 18.3125 54.6875 
L 36.8125 54.6875 
L 36.8125 47.703125 
L 18.3125 47.703125 
L 18.3125 18.015625 
Q 18.3125 11.328125 20.140625 9.421875 
Q 21.96875 7.515625 27.59375 7.515625 
L 36.8125 7.515625 
L 36.8125 0 
L 27.59375 0 
Q 17.1875 0 13.234375 3.875 
Q 9.28125 7.765625 9.28125 18.015625 
L 9.28125 47.703125 
L 2.6875 47.703125 
L 2.6875 54.6875 
L 9.28125 54.6875 
L 9.28125 70.21875 
z
" id="DejaVuSans-116"/>
      </defs>
      <g transform="translate(833.59921 274.718437)scale(0.1 -0.1)">
       <use xlink:href="#DejaVuSans-83"/>
       <use x="63.476562" xlink:href="#DejaVuSans-97"/>
       <use x="124.755859" xlink:href="#DejaVuSans-116"/>
       <use x="163.964844" xlink:href="#DejaVuSans-32"/>
       <use x="195.751953" xlink:href="#DejaVuSans-48"/>
       <use x="259.375" xlink:href="#DejaVuSans-48"/>
       <use x="322.998047" xlink:href="#DejaVuSans-58"/>
       <use x="356.689453" xlink:href="#DejaVuSans-48"/>
       <use x="420.3125" xlink:href="#DejaVuSans-48"/>
      </g>
     </g>
    </g>
    <g id="xtick_6">
     <g id="line2d_6">
      <g>
       <use style="stroke:#000000;stroke-width:0.8;" x="1022.660725" xlink:href="#md90790f52e" y="260.12"/>
      </g>
     </g>
     <g id="text_6">
      <!-- Sun 00:00 -->
      <defs>
       <path d="M 54.890625 33.015625 
L 54.890625 0 
L 45.90625 0 
L 45.90625 32.71875 
Q 45.90625 40.484375 42.875 44.328125 
Q 39.84375 48.1875 33.796875 48.1875 
Q 26.515625 48.1875 22.3125 43.546875 
Q 18.109375 38.921875 18.109375 30.90625 
L 18.109375 0 
L 9.078125 0 
L 9.078125 54.6875 
L 18.109375 54.6875 
L 18.109375 46.1875 
Q 21.34375 51.125 25.703125 53.5625 
Q 30.078125 56 35.796875 56 
Q 45.21875 56 50.046875 50.171875 
Q 54.890625 44.34375 54.890625 33.015625 
z
" id="DejaVuSans-110"/>
      </defs>
      <g transform="translate(997.150569 274.718437)scale(0.1 -0.1)">
       <use xlink:href="#DejaVuSans-83"/>
       <use x="63.476562" xlink:href="#DejaVuSans-117"/>
       <use x="126.855469" xlink:href="#DejaVuSans-110"/>
       <use x="190.234375" xlink:href="#DejaVuSans-32"/>
       <use x="222.021484" xlink:href="#DejaVuSans-48"/>
       <use x="285.644531" xlink:href="#DejaVuSans-48"/>
       <use x="349.267578" xlink:href="#DejaVuSans-58"/>
       <use x="382.958984" xlink:href="#DejaVuSans-48"/>
       <use x="446.582031" xlink:href="#DejaVuSans-48"/>
      </g>
     </g>
    </g>
   </g>
   <g id="matplotlib.axis_2">
    <g id="ytick_1">
     <g id="line2d_7">
      <defs>
       <path d="M 0 0 
L -3.5 0 
" id="m86cd60fdf7" style="stroke:#000000;stroke-width:0.8;"/>
      </defs>
      <g>
       <use style="stroke:#000000;stroke-width:0.8;" x="33.64" xlink:href="#m86cd60fdf7" y="260.12"/>
      </g>
     </g>
     <g id="text_7">
      <!-- 0 -->
      <g transform="translate(20.2775 263.919219)scale(0.1 -0.1)">
       <use xlink:href="#DejaVuSans-48"/>
      </g>
     </g>
    </g>
    <g id="ytick_2">
     <g id="line2d_8">
      <g>
       <use style="stroke:#000000;stroke-width:0.8;" x="33.64" xlink:href="#m86cd60fdf7" y="230.910476"/>
      </g>
     </g>
     <g id="text_8">
      <!-- 25 -->
      <defs>
       <path d="M 19.1875 8.296875 
L 53.609375 8.296875 
L 53.609375 0 
L 7.328125 0 
L 7.328125 8.296875 
Q 12.9375 14.109375 22.625 23.890625 
Q 32.328125 33.6875 34.8125 36.53125 
Q 39.546875 41.84375 41.421875 45.53125 
Q 43.3125 49.21875 43.3125 52.78125 
Q 43.3125 58.59375 39.234375 62.25 
Q 35.15625 65.921875 28.609375 65.921875 
Q 23.96875 65.921875 18.8125 64.3125 
Q 13.671875 62.703125 7.8125 59.421875 
L 7.8125 69.390625 
Q 13.765625 71.78125 18.9375 73 
Q 24.125 74.21875 28.421875 74.21875 
Q 39.75 74.21875 46.484375 68.546875 
Q 53.21875 62.890625 53.21875 53.421875 
Q 53.21875 48.921875 51.53125 44.890625 
Q 49.859375 40.875 45.40625 35.40625 
Q 44.1875 33.984375 37.640625 27.21875 
Q 31.109375 20.453125 19.1875 8.296875 
z
" id="DejaVuSans-50"/>
       <path d="M 10.796875 72.90625 
L 49.515625 72.90625 
L 49.515625 64.59375 
L 19.828125 64.59375 
L 19.828125 46.734375 
Q 21.96875 47.46875 24.109375 47.828125 
Q 26.265625 48.1875 28.421875 48.1875 
Q 40.625 48.1875 47.75 41.5 
Q 54.890625 34.8125 54.890625 23.390625 
Q 54.890625 11.625 47.5625 5.09375 
Q 40.234375 -1.421875 26.90625 -1.421875 
Q 22.3125 -1.421875 17.546875 -0.640625 
Q 12.796875 0.140625 7.71875 1.703125 
L 7.71875 11.625 
Q 12.109375 9.234375 16.796875 8.0625 
Q 21.484375 6.890625 26.703125 6.890625 
Q 35.15625 6.890625 40.078125 11.328125 
Q 45.015625 15.765625 45.015625 23.390625 
Q 45.015625 31 40.078125 35.4375 
Q 35.15625 39.890625 26.703125 39.890625 
Q 22.75 39.890625 18.8125 39.015625 
Q 14.890625 38.140625 10.796875 36.28125 
z
" id="DejaVuSans-53"/>
      </defs>
      <g transform="translate(13.915 234.709695)scale(0.1 -0.1)">
       <use xlink:href="#DejaVuSans-50"/>
       <use x="63.623047" xlink:href="#DejaVuSans-53"/>
      </g>
     </g>
    </g>
    <g id="ytick_3">
     <g id="line2d_9">
      <g>
       <use style="stroke:#000000;stroke-width:0.8;" x="33.64" xlink:href="#m86cd60fdf7" y="201.700952"/>
      </g>
     </g>
     <g id="text_9">
      <!-- 50 -->
      <g transform="translate(13.915 205.500171)scale(0.1 -0.1)">
       <use xlink:href="#DejaVuSans-53"/>
       <use x="63.623047" xlink:href="#DejaVuSans-48"/>
      </g>
     </g>
    </g>
    <g id="ytick_4">
     <g id="line2d_10">
      <g>
       <use style="stroke:#000000;stroke-width:0.8;" x="33.64" xlink:href="#m86cd60fdf7" y="172.491429"/>
      </g>
     </g>
     <g id="text_10">
      <!-- 75 -->
      <defs>
       <path d="M 8.203125 72.90625 
L 55.078125 72.90625 
L 55.078125 68.703125 
L 28.609375 0 
L 18.3125 0 
L 43.21875 64.59375 
L 8.203125 64.59375 
z
" id="DejaVuSans-55"/>
      </defs>
      <g transform="translate(13.915 176.290647)scale(0.1 -0.1)">
       <use xlink:href="#DejaVuSans-55"/>
       <use x="63.623047" xlink:href="#DejaVuSans-53"/>
      </g>
     </g>
    </g>
    <g id="ytick_5">
     <g id="line2d_11">
      <g>
       <use style="stroke:#000000;stroke-width:0.8;" x="33.64" xlink:href="#m86cd60fdf7" y="143.281905"/>
      </g>
     </g>
     <g id="text_11">
      <!-- 100 -->
      <defs>
       <path d="M 12.40625 8.296875 
L 28.515625 8.296875 
L 28.515625 63.921875 
L 10.984375 60.40625 
L 10.984375 69.390625 
L 28.421875 72.90625 
L 38.28125 72.90625 
L 38.28125 8.296875 
L 54.390625 8.296875 
L 54.390625 0 
L 12.40625 0 
z
" id="DejaVuSans-49"/>
      </defs>
      <g transform="translate(7.5525 147.081124)scale(0.1 -0.1)">
       <use xlink:href="#DejaVuSans-49"/>
       <use x="63.623047" xlink:href="#DejaVuSans-48"/>
       <use x="127.246094" xlink:href="#DejaVuSans-48"/>
      </g>
     </g>
    </g>
    <g id="ytick_6">
     <g id="line2d_12">
      <g>
       <use style="stroke:#000000;stroke-width:0.8;" x="33.64" xlink:href="#m86cd60fdf7" y="114.072381"/>
      </g>
     </g>
     <g id="text_12">
      <!-- 125 -->
      <g transform="translate(7.5525 117.8716)scale(0.1 -0.1)">
       <use xlink:href="#DejaVuSans-49"/>
       <use x="63.623047" xlink:href="#DejaVuSans-50"/>
       <use x="127.246094" xlink:href="#DejaVuSans-53"/>
      </g>
     </g>
    </g>
    <g id="ytick_7">
     <g id="line2d_13">
      <g>
       <use style="stroke:#000000;stroke-width:0.8;" x="33.64" xlink:href="#m86cd60fdf7" y="84.862857"/>
      </g>
     </g>
     <g id="text_13">
      <!-- 150 -->
      <g transform="translate(7.5525 88.662076)scale(0.1 -0.1)">
       <use xlink:href="#DejaVuSans-49"/>
       <use x="63.623047" xlink:href="#DejaVuSans-53"/>
       <use x="127.246094" xlink:href="#DejaVuSans-48"/>
      </g>
     </g>
    </g>
    <g id="ytick_8">
     <g id="line2d_14">
      <g>
       <use style="stroke:#000000;stroke-width:0.8;" x="33.64" xlink:href="#m86cd60fdf7" y="55.653333"/>
      </g>
     </g>
     <g id="text_14">
      <!-- 175 -->
      <g transform="translate(7.5525 59.452552)scale(0.1 -0.1)">
       <use xlink:href="#DejaVuSans-49"/>
       <use x="63.623047" xlink:href="#DejaVuSans-55"/>
       <use x="127.246094" xlink:href="#DejaVuSans-53"/>
      </g>
     </g>
    </g>
    <g id="ytick_9">
     <g id="line2d_15">
      <g>
       <use style="stroke:#000000;stroke-width:0.8;" x="33.64" xlink:href="#m86cd60fdf7" y="26.44381"/>
      </g>
     </g>
     <g id="text_15">
      <!-- 200 -->
      <g transform="translate(7.5525 30.243028)scale(0.1 -0.1)">
       <use xlink:href="#DejaVuSans-50"/>
       <use x="63.623047" xlink:href="#DejaVuSans-48"/>
       <use x="127.246094" xlink:href="#DejaVuSans-48"/>
      </g>
     </g>
    </g>
   </g>
   <g id="line2d_16">
    <path clip-path="url(#pfee3ce7d16)" d="M 33.64 260.12 
L 96.196494 260.12 
L 97.375117 257.783238 
L 98.554494 257.783238 
L 99.733945 254.278095 
L 100.91324 254.278095 
L 103.269396 249.604571 
L 104.448187 248.43619 
L 105.625803 248.43619 
L 106.803775 247.26781 
L 109.160284 247.26781 
L 110.338885 242.594286 
L 111.51702 236.752381 
L 112.694657 236.752381 
L 113.873063 229.742095 
L 115.05308 226.236952 
L 116.231104 226.236952 
L 117.409343 222.73181 
L 120.942779 222.73181 
L 122.12048 219.226667 
L 123.2977 218.058286 
L 125.654446 218.058286 
L 126.832313 223.90019 
L 128.010304 223.90019 
L 129.189899 229.742095 
L 130.367451 227.405333 
L 131.545993 227.405333 
L 132.723698 232.078857 
L 133.901346 233.247238 
L 135.079925 236.752381 
L 136.258119 236.752381 
L 137.437806 234.415619 
L 138.614609 234.415619 
L 139.792552 230.910476 
L 142.147303 216.889905 
L 143.324504 216.889905 
L 144.50219 212.216381 
L 145.680609 208.711238 
L 146.85993 208.711238 
L 148.037375 197.027429 
L 149.220033 192.353905 
L 150.402084 186.512 
L 151.579398 186.512 
L 152.757777 187.680381 
L 153.935284 187.680381 
L 155.11358 181.838476 
L 156.291523 164.312762 
L 157.468687 164.312762 
L 158.646624 150.29219 
L 159.825119 139.776762 
L 161.003753 116.409143 
L 162.181279 116.409143 
L 163.358591 89.536381 
L 164.538214 89.536381 
L 165.715561 67.337143 
L 166.892925 53.316571 
L 168.069903 47.474667 
L 169.247173 47.474667 
L 170.424763 54.484952 
L 171.601944 59.158476 
L 172.780159 59.158476 
L 173.958602 76.68419 
L 175.135466 74.347429 
L 176.315145 74.347429 
L 177.493778 79.020952 
L 178.670828 81.357714 
L 179.849951 93.041524 
L 181.027046 93.041524 
L 182.204398 100.05181 
L 183.381618 109.398857 
L 184.558277 109.398857 
L 185.736125 122.251048 
L 186.913323 128.092952 
L 188.092678 128.092952 
L 189.269349 129.261333 
L 190.446823 132.766476 
L 191.624204 139.776762 
L 192.80065 139.776762 
L 193.976862 260.12 
L 260.086328 260.12 
L 261.244855 258.951619 
L 262.425667 243.762667 
L 263.605922 243.762667 
L 264.785907 240.257524 
L 265.96381 235.584 
L 268.323458 235.584 
L 269.501279 232.078857 
L 270.678913 232.078857 
L 271.85717 227.405333 
L 273.035448 223.90019 
L 274.212312 223.90019 
L 275.391595 222.73181 
L 277.746281 222.73181 
L 278.924037 225.068571 
L 280.104193 218.058286 
L 281.284064 219.226667 
L 282.46101 219.226667 
L 283.639157 216.889905 
L 284.817437 218.058286 
L 285.995877 218.058286 
L 287.173179 221.563429 
L 288.350187 219.226667 
L 289.528347 219.226667 
L 290.707358 214.553143 
L 291.884537 218.058286 
L 293.061377 218.058286 
L 294.238309 213.384762 
L 295.417997 212.216381 
L 296.597502 208.711238 
L 297.776055 208.711238 
L 300.130585 201.700952 
L 301.309916 201.700952 
L 302.489269 204.037714 
L 304.852192 204.037714 
L 306.028987 200.532571 
L 308.38601 200.532571 
L 309.56551 197.027429 
L 310.743395 187.680381 
L 311.920892 187.680381 
L 313.097882 184.175238 
L 314.275758 178.333333 
L 315.453531 178.333333 
L 316.633207 171.323048 
L 317.811174 156.134095 
L 318.98942 128.092952 
L 320.170437 128.092952 
L 321.352865 116.409143 
L 323.707888 116.409143 
L 324.889114 98.883429 
L 326.067098 98.883429 
L 327.244427 79.020952 
L 328.421609 67.337143 
L 329.598976 49.811429 
L 330.776407 49.811429 
L 331.955337 38.127619 
L 335.487308 38.127619 
L 336.667317 26.44381 
L 337.84717 26.44381 
L 339.024212 48.643048 
L 340.202138 60.326857 
L 341.379662 74.347429 
L 342.559703 74.347429 
L 344.914112 110.567238 
L 346.09447 110.567238 
L 347.27169 125.75619 
L 348.44927 137.44 
L 349.626339 151.460571 
L 350.80688 151.460571 
L 351.984417 161.976 
L 353.162662 161.976 
L 354.343401 166.649524 
L 355.520397 174.82819 
L 356.698591 175.996571 
L 359.054503 175.996571 
L 360.231222 260.12 
L 425.162073 260.12 
L 426.339239 255.446476 
L 428.695037 241.425905 
L 429.874518 241.425905 
L 431.052309 240.257524 
L 433.411343 240.257524 
L 434.588831 239.089143 
L 435.766412 239.089143 
L 436.945861 232.078857 
L 438.124916 232.078857 
L 439.302814 228.573714 
L 440.482193 228.573714 
L 441.660544 226.236952 
L 442.839574 225.068571 
L 447.553563 225.068571 
L 448.736503 226.236952 
L 451.091101 226.236952 
L 452.268529 223.90019 
L 453.447541 216.889905 
L 454.624841 219.226667 
L 455.804682 219.226667 
L 456.984222 221.563429 
L 458.16151 221.563429 
L 460.516894 214.553143 
L 461.696651 212.216381 
L 462.87615 212.216381 
L 464.053341 208.711238 
L 465.232479 206.374476 
L 466.412091 206.374476 
L 467.589833 209.879619 
L 468.76889 207.542857 
L 469.947899 206.374476 
L 471.12787 206.374476 
L 472.308196 205.206095 
L 473.48605 205.206095 
L 474.664104 198.19581 
L 475.843046 190.017143 
L 477.023788 190.017143 
L 478.203596 184.175238 
L 479.382772 171.323048 
L 480.55998 170.154667 
L 481.741337 170.154667 
L 482.921174 159.639238 
L 484.10101 159.639238 
L 485.279461 156.134095 
L 486.458908 153.797333 
L 487.638906 129.261333 
L 488.827024 129.261333 
L 490.005137 123.419429 
L 491.183005 115.240762 
L 492.36206 115.240762 
L 493.540314 98.883429 
L 494.71799 96.546667 
L 495.896203 96.546667 
L 497.074814 108.230476 
L 498.256626 101.22019 
L 499.433447 101.22019 
L 500.610504 96.546667 
L 501.790536 89.536381 
L 502.973244 95.378286 
L 504.153497 95.378286 
L 505.332828 94.209905 
L 506.513086 119.914286 
L 507.692397 119.914286 
L 508.869369 125.75619 
L 510.048825 144.450286 
L 511.228383 146.787048 
L 512.407636 146.787048 
L 513.587018 156.134095 
L 514.763822 156.134095 
L 515.943522 165.481143 
L 517.123505 171.323048 
L 518.300678 173.65981 
L 519.480819 173.65981 
L 520.660444 180.670095 
L 521.837088 181.838476 
L 524.196551 181.838476 
L 525.37632 260.12 
L 591.4936 260.12 
L 592.670591 256.614857 
L 593.847307 248.43619 
L 595.024539 248.43619 
L 596.204115 244.931048 
L 597.381778 242.594286 
L 598.559465 242.594286 
L 600.917055 235.584 
L 602.095805 230.910476 
L 603.27583 230.910476 
L 604.453188 229.742095 
L 605.631189 229.742095 
L 606.808468 226.236952 
L 607.988508 223.90019 
L 609.166613 223.90019 
L 611.523067 221.563429 
L 612.701006 225.068571 
L 613.880051 225.068571 
L 615.057847 222.73181 
L 616.236406 219.226667 
L 617.414644 219.226667 
L 618.592956 211.048 
L 619.771065 211.048 
L 620.948882 212.216381 
L 624.484669 212.216381 
L 625.663877 205.206095 
L 628.01999 205.206095 
L 629.199019 197.027429 
L 630.378042 194.690667 
L 631.557436 199.36419 
L 632.736694 199.36419 
L 633.921303 195.859048 
L 635.099313 195.859048 
L 636.276818 191.185524 
L 637.455233 184.175238 
L 638.63331 175.996571 
L 639.812472 175.996571 
L 640.99083 167.817905 
L 642.170708 161.976 
L 643.349882 161.976 
L 644.529802 157.302476 
L 645.709617 143.281905 
L 646.890622 143.281905 
L 648.070449 138.608381 
L 649.249707 128.092952 
L 650.429097 114.072381 
L 651.607349 114.072381 
L 652.785004 98.883429 
L 653.962432 104.725333 
L 655.140352 104.725333 
L 656.319004 86.031238 
L 657.496689 86.031238 
L 658.679664 70.842286 
L 659.858053 59.158476 
L 661.036708 46.306286 
L 662.216751 46.306286 
L 663.397038 28.780571 
L 664.576329 32.285714 
L 665.754048 32.285714 
L 666.93273 38.127619 
L 668.109488 31.117333 
L 669.286789 31.117333 
L 670.463947 41.632762 
L 671.642149 54.484952 
L 672.819821 62.663619 
L 673.997373 62.663619 
L 675.174223 76.68419 
L 676.356324 96.546667 
L 677.533313 96.546667 
L 678.712583 105.893714 
L 679.891837 121.082667 
L 681.069186 121.082667 
L 682.246749 126.924571 
L 683.425905 144.450286 
L 684.605134 144.450286 
L 685.782205 152.628952 
L 686.959728 158.470857 
L 689.316919 158.470857 
L 690.494234 260.12 
L 754.273232 260.12 
L 755.431694 256.614857 
L 756.609571 256.614857 
L 757.787292 254.278095 
L 758.964463 249.604571 
L 760.141972 247.26781 
L 761.321815 247.26781 
L 762.500372 242.594286 
L 763.678372 233.247238 
L 764.856991 233.247238 
L 766.034315 227.405333 
L 767.211141 227.405333 
L 768.388226 223.90019 
L 769.568184 223.90019 
L 770.745285 216.889905 
L 771.92283 216.889905 
L 773.100521 213.384762 
L 774.277674 215.721524 
L 775.45535 215.721524 
L 776.633002 216.889905 
L 777.810677 220.395048 
L 780.171044 220.395048 
L 781.348257 221.563429 
L 782.525682 221.563429 
L 783.703183 219.226667 
L 784.880906 225.068571 
L 787.234757 225.068571 
L 788.41167 220.395048 
L 789.590016 222.73181 
L 790.76923 222.73181 
L 791.947532 220.395048 
L 793.127074 220.395048 
L 794.305073 218.058286 
L 795.482254 206.374476 
L 796.65959 202.869333 
L 797.838214 202.869333 
L 799.014932 194.690667 
L 800.192772 187.680381 
L 801.369688 187.680381 
L 802.549615 181.838476 
L 803.731544 171.323048 
L 804.910333 164.312762 
L 806.091213 164.312762 
L 807.26817 158.470857 
L 808.445396 158.470857 
L 809.626275 153.797333 
L 810.80422 147.955429 
L 811.982768 145.618667 
L 813.163311 145.618667 
L 814.341661 137.44 
L 815.519582 150.29219 
L 816.69701 150.29219 
L 817.880141 161.976 
L 819.057683 160.807619 
L 820.234649 160.807619 
L 821.412024 150.29219 
L 822.589622 144.450286 
L 823.768803 144.450286 
L 824.946851 135.103238 
L 826.1245 126.924571 
L 827.30393 126.924571 
L 828.48151 125.75619 
L 829.659655 128.092952 
L 830.840837 125.75619 
L 832.02931 125.75619 
L 833.210567 130.429714 
L 834.392509 131.598095 
L 835.57504 131.598095 
L 836.766143 143.281905 
L 839.131346 143.281905 
L 840.313904 151.460571 
L 841.49225 158.470857 
L 842.675517 160.807619 
L 843.854314 160.807619 
L 845.034476 166.649524 
L 846.212606 166.649524 
L 847.392424 179.501714 
L 848.570684 185.343619 
L 849.748698 187.680381 
L 850.925775 187.680381 
L 852.104957 193.522286 
L 854.460933 193.522286 
L 855.649107 260.12 
L 919.416797 260.12 
L 920.574854 253.109714 
L 921.75262 251.941333 
L 922.931356 251.941333 
L 924.110204 241.425905 
L 925.28682 235.584 
L 926.463588 235.584 
L 927.640715 233.247238 
L 928.81728 233.247238 
L 929.993879 220.395048 
L 931.172422 209.879619 
L 932.349089 207.542857 
L 933.526102 207.542857 
L 935.879771 193.522286 
L 937.056112 193.522286 
L 939.412325 186.512 
L 940.58906 187.680381 
L 942.084906 187.680381 
L 943.262652 195.859048 
L 944.442608 199.36419 
L 945.619337 199.36419 
L 946.798406 200.532571 
L 947.979639 200.532571 
L 949.156794 187.680381 
L 950.333574 187.680381 
L 951.510384 180.670095 
L 952.687769 180.670095 
L 953.865546 175.996571 
L 955.042011 177.164952 
L 956.21995 177.164952 
L 957.399 187.680381 
L 958.575768 186.512 
L 959.752844 180.670095 
L 960.929699 180.670095 
L 962.106874 181.838476 
L 963.283453 173.65981 
L 964.460273 173.65981 
L 965.637954 185.343619 
L 966.816381 198.19581 
L 967.993113 198.19581 
L 970.349486 205.206095 
L 971.527929 205.206095 
L 972.706725 204.037714 
L 973.885545 205.206095 
L 975.06489 201.700952 
L 976.24451 201.700952 
L 977.423677 202.869333 
L 978.602895 211.048 
L 979.781928 211.048 
L 980.959826 214.553143 
L 982.137786 215.721524 
L 983.317067 215.721524 
L 985.675757 208.711238 
L 986.855463 208.711238 
L 988.034722 204.037714 
L 989.21422 205.206095 
L 990.393529 205.206095 
L 991.573751 227.405333 
L 992.752971 216.889905 
L 993.931402 214.553143 
L 995.108775 214.553143 
L 996.286648 216.889905 
L 999.821608 216.889905 
L 1000.999515 215.721524 
L 1002.180053 215.721524 
L 1003.356986 218.058286 
L 1006.892804 218.058286 
L 1008.071951 222.73181 
L 1009.25016 222.73181 
L 1011.608813 234.415619 
L 1012.788077 234.415619 
L 1013.967814 235.584 
L 1017.502412 235.584 
L 1018.681715 239.089143 
L 1022.219241 239.089143 
L 1023.398179 260.12 
L 1086.163722 260.12 
L 1087.341052 246.099429 
L 1088.517669 236.752381 
L 1089.695609 236.752381 
L 1092.051997 220.395048 
L 1093.22989 220.395048 
L 1094.407512 211.048 
L 1095.585363 205.206095 
L 1096.764131 194.690667 
L 1097.942209 194.690667 
L 1099.1201 173.65981 
L 1100.299981 173.65981 
L 1101.477563 183.006857 
L 1102.654875 172.491429 
L 1103.832468 172.491429 
L 1105.010727 170.154667 
L 1106.188458 172.491429 
L 1107.367266 164.312762 
L 1108.547072 164.312762 
L 1109.724111 159.639238 
L 1110.903081 165.481143 
L 1112.080217 165.481143 
L 1113.25767 177.164952 
L 1114.434508 172.491429 
L 1115.615499 172.491429 
L 1116.79452 170.154667 
L 1119.149152 170.154667 
L 1120.325662 167.817905 
L 1121.502537 178.333333 
L 1122.68346 170.154667 
L 1123.860027 170.154667 
L 1125.037027 167.817905 
L 1126.216123 157.302476 
L 1127.393716 157.302476 
L 1128.571619 151.460571 
L 1129.749192 151.460571 
L 1130.925817 139.776762 
L 1132.102988 132.766476 
L 1133.28 135.103238 
L 1133.28 135.103238 
" style="fill:none;stroke:#1f77b4;stroke-linecap:square;stroke-width:1.5;"/>
   </g>
   <g id="patch_3">
    <path d="M 33.64 260.12 
L 33.64 14.76 
" style="fill:none;stroke:#000000;stroke-linecap:square;stroke-linejoin:miter;stroke-width:0.8;"/>
   </g>
   <g id="patch_4">
    <path d="M 1133.28 260.12 
L 1133.28 14.76 
" style="fill:none;stroke:#000000;stroke-linecap:square;stroke-linejoin:miter;stroke-width:0.8;"/>
   </g>
   <g id="patch_5">
    <path d="M 33.64 260.12 
L 1133.28 260.12 
" style="fill:none;stroke:#000000;stroke-linecap:square;stroke-linejoin:miter;stroke-width:0.8;"/>
   </g>
   <g id="patch_6">
    <path d="M 33.64 14.76 
L 1133.28 14.76 
" style="fill:none;stroke:#000000;stroke-linecap:square;stroke-linejoin:miter;stroke-width:0.8;"/>
   </g>
  </g>
 </g>
 <defs>
  <clipPath id="pfee3ce7d16">
   <rect height="245.36" width="1099.64" x="33.64" y="14.76"/>
  </clipPath>
 </defs>
</svg>
