<?xml version="1.0" encoding="utf-8" standalone="no"?>
<!DOCTYPE svg PUBLIC "-//W3C//DTD SVG 1.1//EN"
  "http://www.w3.org/Graphics/SVG/1.1/DTD/svg11.dtd">
<!-- Created with matplotlib (https://matplotlib.org/) -->
<svg height="288pt" version="1.1" viewBox="0 0 1152 288" width="1152pt" xmlns="http://www.w3.org/2000/svg" xmlns:xlink="http://www.w3.org/1999/xlink">
 <defs>
  <style type="text/css">
*{stroke-linecap:butt;stroke-linejoin:round;}
  </style>
 </defs>
 <g id="figure_1">
  <g id="patch_1">
   <path d="M 0 288 
L 1152 288 
L 1152 0 
L 0 0 
z
" style="fill:#ffffff;"/>
  </g>
  <g id="axes_1">
   <g id="patch_2">
    <path d="M 33.64 260.12 
L 1133.28 260.12 
L 1133.28 14.76 
L 33.64 14.76 
z
" style="fill:#ffffff;"/>
   </g>
   <g id="matplotlib.axis_1">
    <g id="xtick_1">
     <g id="line2d_1">
      <defs>
       <path d="M 0 0 
L 0 3.5 
" id="m98854b8094" style="stroke:#000000;stroke-width:0.8;"/>
      </defs>
      <g>
       <use style="stroke:#000000;stroke-width:0.8;" x="199.290599" xlink:href="#m98854b8094" y="260.12"/>
      </g>
     </g>
     <g id="text_1">
      <!-- Tue 00:00 -->
      <defs>
       <path d="M -0.296875 72.90625 
L 61.375 72.90625 
L 61.375 64.59375 
L 35.5 64.59375 
L 35.5 0 
L 25.59375 0 
L 25.59375 64.59375 
L -0.296875 64.59375 
z
" id="DejaVuSans-84"/>
       <path d="M 8.5 21.578125 
L 8.5 54.6875 
L 17.484375 54.6875 
L 17.484375 21.921875 
Q 17.484375 14.15625 20.5 10.265625 
Q 23.53125 6.390625 29.59375 6.390625 
Q 36.859375 6.390625 41.078125 11.03125 
Q 45.3125 15.671875 45.3125 23.6875 
L 45.3125 54.6875 
L 54.296875 54.6875 
L 54.296875 0 
L 45.3125 0 
L 45.3125 8.40625 
Q 42.046875 3.421875 37.71875 1 
Q 33.40625 -1.421875 27.6875 -1.421875 
Q 18.265625 -1.421875 13.375 4.4375 
Q 8.5 10.296875 8.5 21.578125 
z
M 31.109375 56 
z
" id="DejaVuSans-117"/>
       <path d="M 56.203125 29.59375 
L 56.203125 25.203125 
L 14.890625 25.203125 
Q 15.484375 15.921875 20.484375 11.0625 
Q 25.484375 6.203125 34.421875 6.203125 
Q 39.59375 6.203125 44.453125 7.46875 
Q 49.3125 8.734375 54.109375 11.28125 
L 54.109375 2.78125 
Q 49.265625 0.734375 44.1875 -0.34375 
Q 39.109375 -1.421875 33.890625 -1.421875 
Q 20.796875 -1.421875 13.15625 6.1875 
Q 5.515625 13.8125 5.515625 26.8125 
Q 5.515625 40.234375 12.765625 48.109375 
Q 20.015625 56 32.328125 56 
Q 43.359375 56 49.78125 48.890625 
Q 56.203125 41.796875 56.203125 29.59375 
z
M 47.21875 32.234375 
Q 47.125 39.59375 43.09375 43.984375 
Q 39.0625 48.390625 32.421875 48.390625 
Q 24.90625 48.390625 20.390625 44.140625 
Q 15.875 39.890625 15.1875 32.171875 
z
" id="DejaVuSans-101"/>
       <path id="DejaVuSans-32"/>
       <path d="M 31.78125 66.40625 
Q 24.171875 66.40625 20.328125 58.90625 
Q 16.5 51.421875 16.5 36.375 
Q 16.5 21.390625 20.328125 13.890625 
Q 24.171875 6.390625 31.78125 6.390625 
Q 39.453125 6.390625 43.28125 13.890625 
Q 47.125 21.390625 47.125 36.375 
Q 47.125 51.421875 43.28125 58.90625 
Q 39.453125 66.40625 31.78125 66.40625 
z
M 31.78125 74.21875 
Q 44.046875 74.21875 50.515625 64.515625 
Q 56.984375 54.828125 56.984375 36.375 
Q 56.984375 17.96875 50.515625 8.265625 
Q 44.046875 -1.421875 31.78125 -1.421875 
Q 19.53125 -1.421875 13.0625 8.265625 
Q 6.59375 17.96875 6.59375 36.375 
Q 6.59375 54.828125 13.0625 64.515625 
Q 19.53125 74.21875 31.78125 74.21875 
z
" id="DejaVuSans-48"/>
       <path d="M 11.71875 12.40625 
L 22.015625 12.40625 
L 22.015625 0 
L 11.71875 0 
z
M 11.71875 51.703125 
L 22.015625 51.703125 
L 22.015625 39.3125 
L 11.71875 39.3125 
z
" id="DejaVuSans-58"/>
      </defs>
      <g transform="translate(174.004661 274.718437)scale(0.1 -0.1)">
       <use xlink:href="#DejaVuSans-84"/>
       <use x="60.849609" xlink:href="#DejaVuSans-117"/>
       <use x="124.228516" xlink:href="#DejaVuSans-101"/>
       <use x="185.751953" xlink:href="#DejaVuSans-32"/>
       <use x="217.539062" xlink:href="#DejaVuSans-48"/>
       <use x="281.162109" xlink:href="#DejaVuSans-48"/>
       <use x="344.785156" xlink:href="#DejaVuSans-58"/>
       <use x="378.476562" xlink:href="#DejaVuSans-48"/>
       <use x="442.099609" xlink:href="#DejaVuSans-48"/>
      </g>
     </g>
    </g>
    <g id="xtick_2">
     <g id="line2d_2">
      <g>
       <use style="stroke:#000000;stroke-width:0.8;" x="365.855367" xlink:href="#m98854b8094" y="260.12"/>
      </g>
     </g>
     <g id="text_2">
      <!-- Wed 00:00 -->
      <defs>
       <path d="M 3.328125 72.90625 
L 13.28125 72.90625 
L 28.609375 11.28125 
L 43.890625 72.90625 
L 54.984375 72.90625 
L 70.3125 11.28125 
L 85.59375 72.90625 
L 95.609375 72.90625 
L 77.296875 0 
L 64.890625 0 
L 49.515625 63.28125 
L 33.984375 0 
L 21.578125 0 
z
" id="DejaVuSans-87"/>
       <path d="M 45.40625 46.390625 
L 45.40625 75.984375 
L 54.390625 75.984375 
L 54.390625 0 
L 45.40625 0 
L 45.40625 8.203125 
Q 42.578125 3.328125 38.25 0.953125 
Q 33.9375 -1.421875 27.875 -1.421875 
Q 17.96875 -1.421875 11.734375 6.484375 
Q 5.515625 14.40625 5.515625 27.296875 
Q 5.515625 40.1875 11.734375 48.09375 
Q 17.96875 56 27.875 56 
Q 33.9375 56 38.25 53.625 
Q 42.578125 51.265625 45.40625 46.390625 
z
M 14.796875 27.296875 
Q 14.796875 17.390625 18.875 11.75 
Q 22.953125 6.109375 30.078125 6.109375 
Q 37.203125 6.109375 41.296875 11.75 
Q 45.40625 17.390625 45.40625 27.296875 
Q 45.40625 37.203125 41.296875 42.84375 
Q 37.203125 48.484375 30.078125 48.484375 
Q 22.953125 48.484375 18.875 42.84375 
Q 14.796875 37.203125 14.796875 27.296875 
z
" id="DejaVuSans-100"/>
      </defs>
      <g transform="translate(338.666305 274.718437)scale(0.1 -0.1)">
       <use xlink:href="#DejaVuSans-87"/>
       <use x="98.798828" xlink:href="#DejaVuSans-101"/>
       <use x="160.322266" xlink:href="#DejaVuSans-100"/>
       <use x="223.798828" xlink:href="#DejaVuSans-32"/>
       <use x="255.585938" xlink:href="#DejaVuSans-48"/>
       <use x="319.208984" xlink:href="#DejaVuSans-48"/>
       <use x="382.832031" xlink:href="#DejaVuSans-58"/>
       <use x="416.523438" xlink:href="#DejaVuSans-48"/>
       <use x="480.146484" xlink:href="#DejaVuSans-48"/>
      </g>
     </g>
    </g>
    <g id="xtick_3">
     <g id="line2d_3">
      <g>
       <use style="stroke:#000000;stroke-width:0.8;" x="532.420136" xlink:href="#m98854b8094" y="260.12"/>
      </g>
     </g>
     <g id="text_3">
      <!-- Thu 00:00 -->
      <defs>
       <path d="M 54.890625 33.015625 
L 54.890625 0 
L 45.90625 0 
L 45.90625 32.71875 
Q 45.90625 40.484375 42.875 44.328125 
Q 39.84375 48.1875 33.796875 48.1875 
Q 26.515625 48.1875 22.3125 43.546875 
Q 18.109375 38.921875 18.109375 30.90625 
L 18.109375 0 
L 9.078125 0 
L 9.078125 75.984375 
L 18.109375 75.984375 
L 18.109375 46.1875 
Q 21.34375 51.125 25.703125 53.5625 
Q 30.078125 56 35.796875 56 
Q 45.21875 56 50.046875 50.171875 
Q 54.890625 44.34375 54.890625 33.015625 
z
" id="DejaVuSans-104"/>
      </defs>
      <g transform="translate(507.030292 274.718437)scale(0.1 -0.1)">
       <use xlink:href="#DejaVuSans-84"/>
       <use x="61.083984" xlink:href="#DejaVuSans-104"/>
       <use x="124.462891" xlink:href="#DejaVuSans-117"/>
       <use x="187.841797" xlink:href="#DejaVuSans-32"/>
       <use x="219.628906" xlink:href="#DejaVuSans-48"/>
       <use x="283.251953" xlink:href="#DejaVuSans-48"/>
       <use x="346.875" xlink:href="#DejaVuSans-58"/>
       <use x="380.566406" xlink:href="#DejaVuSans-48"/>
       <use x="444.189453" xlink:href="#DejaVuSans-48"/>
      </g>
     </g>
    </g>
    <g id="xtick_4">
     <g id="line2d_4">
      <g>
       <use style="stroke:#000000;stroke-width:0.8;" x="698.984904" xlink:href="#m98854b8094" y="260.12"/>
      </g>
     </g>
     <g id="text_4">
      <!-- Fri 00:00 -->
      <defs>
       <path d="M 9.8125 72.90625 
L 51.703125 72.90625 
L 51.703125 64.59375 
L 19.671875 64.59375 
L 19.671875 43.109375 
L 48.578125 43.109375 
L 48.578125 34.8125 
L 19.671875 34.8125 
L 19.671875 0 
L 9.8125 0 
z
" id="DejaVuSans-70"/>
       <path d="M 41.109375 46.296875 
Q 39.59375 47.171875 37.8125 47.578125 
Q 36.03125 48 33.890625 48 
Q 26.265625 48 22.1875 43.046875 
Q 18.109375 38.09375 18.109375 28.8125 
L 18.109375 0 
L 9.078125 0 
L 9.078125 54.6875 
L 18.109375 54.6875 
L 18.109375 46.1875 
Q 20.953125 51.171875 25.484375 53.578125 
Q 30.03125 56 36.53125 56 
Q 37.453125 56 38.578125 55.875 
Q 39.703125 55.765625 41.0625 55.515625 
z
" id="DejaVuSans-114"/>
       <path d="M 9.421875 54.6875 
L 18.40625 54.6875 
L 18.40625 0 
L 9.421875 0 
z
M 9.421875 75.984375 
L 18.40625 75.984375 
L 18.40625 64.59375 
L 9.421875 64.59375 
z
" id="DejaVuSans-105"/>
      </defs>
      <g transform="translate(676.671623 274.718437)scale(0.1 -0.1)">
       <use xlink:href="#DejaVuSans-70"/>
       <use x="57.410156" xlink:href="#DejaVuSans-114"/>
       <use x="98.523438" xlink:href="#DejaVuSans-105"/>
       <use x="126.306641" xlink:href="#DejaVuSans-32"/>
       <use x="158.09375" xlink:href="#DejaVuSans-48"/>
       <use x="221.716797" xlink:href="#DejaVuSans-48"/>
       <use x="285.339844" xlink:href="#DejaVuSans-58"/>
       <use x="319.03125" xlink:href="#DejaVuSans-48"/>
       <use x="382.654297" xlink:href="#DejaVuSans-48"/>
      </g>
     </g>
    </g>
    <g id="xtick_5">
     <g id="line2d_5">
      <g>
       <use style="stroke:#000000;stroke-width:0.8;" x="865.549673" xlink:href="#m98854b8094" y="260.12"/>
      </g>
     </g>
     <g id="text_5">
      <!-- Sat 00:00 -->
      <defs>
       <path d="M 53.515625 70.515625 
L 53.515625 60.890625 
Q 47.90625 63.578125 42.921875 64.890625 
Q 37.9375 66.21875 33.296875 66.21875 
Q 25.25 66.21875 20.875 63.09375 
Q 16.5 59.96875 16.5 54.203125 
Q 16.5 49.359375 19.40625 46.890625 
Q 22.3125 44.4375 30.421875 42.921875 
L 36.375 41.703125 
Q 47.40625 39.59375 52.65625 34.296875 
Q 57.90625 29 57.90625 20.125 
Q 57.90625 9.515625 50.796875 4.046875 
Q 43.703125 -1.421875 29.984375 -1.421875 
Q 24.8125 -1.421875 18.96875 -0.25 
Q 13.140625 0.921875 6.890625 3.21875 
L 6.890625 13.375 
Q 12.890625 10.015625 18.65625 8.296875 
Q 24.421875 6.59375 29.984375 6.59375 
Q 38.421875 6.59375 43.015625 9.90625 
Q 47.609375 13.234375 47.609375 19.390625 
Q 47.609375 24.75 44.3125 27.78125 
Q 41.015625 30.8125 33.5 32.328125 
L 27.484375 33.5 
Q 16.453125 35.6875 11.515625 40.375 
Q 6.59375 45.0625 6.59375 53.421875 
Q 6.59375 63.09375 13.40625 68.65625 
Q 20.21875 74.21875 32.171875 74.21875 
Q 37.3125 74.21875 42.625 73.28125 
Q 47.953125 72.359375 53.515625 70.515625 
z
" id="DejaVuSans-83"/>
       <path d="M 34.28125 27.484375 
Q 23.390625 27.484375 19.1875 25 
Q 14.984375 22.515625 14.984375 16.5 
Q 14.984375 11.71875 18.140625 8.90625 
Q 21.296875 6.109375 26.703125 6.109375 
Q 34.1875 6.109375 38.703125 11.40625 
Q 43.21875 16.703125 43.21875 25.484375 
L 43.21875 27.484375 
z
M 52.203125 31.203125 
L 52.203125 0 
L 43.21875 0 
L 43.21875 8.296875 
Q 40.140625 3.328125 35.546875 0.953125 
Q 30.953125 -1.421875 24.3125 -1.421875 
Q 15.921875 -1.421875 10.953125 3.296875 
Q 6 8.015625 6 15.921875 
Q 6 25.140625 12.171875 29.828125 
Q 18.359375 34.515625 30.609375 34.515625 
L 43.21875 34.515625 
L 43.21875 35.40625 
Q 43.21875 41.609375 39.140625 45 
Q 35.0625 48.390625 27.6875 48.390625 
Q 23 48.390625 18.546875 47.265625 
Q 14.109375 46.140625 10.015625 43.890625 
L 10.015625 52.203125 
Q 14.9375 54.109375 19.578125 55.046875 
Q 24.21875 56 28.609375 56 
Q 40.484375 56 46.34375 49.84375 
Q 52.203125 43.703125 52.203125 31.203125 
z
" id="DejaVuSans-97"/>
       <path d="M 18.3125 70.21875 
L 18.3125 54.6875 
L 36.8125 54.6875 
L 36.8125 47.703125 
L 18.3125 47.703125 
L 18.3125 18.015625 
Q 18.3125 11.328125 20.140625 9.421875 
Q 21.96875 7.515625 27.59375 7.515625 
L 36.8125 7.515625 
L 36.8125 0 
L 27.59375 0 
Q 17.1875 0 13.234375 3.875 
Q 9.28125 7.765625 9.28125 18.015625 
L 9.28125 47.703125 
L 2.6875 47.703125 
L 2.6875 54.6875 
L 9.28125 54.6875 
L 9.28125 70.21875 
z
" id="DejaVuSans-116"/>
      </defs>
      <g transform="translate(841.352798 274.718437)scale(0.1 -0.1)">
       <use xlink:href="#DejaVuSans-83"/>
       <use x="63.476562" xlink:href="#DejaVuSans-97"/>
       <use x="124.755859" xlink:href="#DejaVuSans-116"/>
       <use x="163.964844" xlink:href="#DejaVuSans-32"/>
       <use x="195.751953" xlink:href="#DejaVuSans-48"/>
       <use x="259.375" xlink:href="#DejaVuSans-48"/>
       <use x="322.998047" xlink:href="#DejaVuSans-58"/>
       <use x="356.689453" xlink:href="#DejaVuSans-48"/>
       <use x="420.3125" xlink:href="#DejaVuSans-48"/>
      </g>
     </g>
    </g>
    <g id="xtick_6">
     <g id="line2d_6">
      <g>
       <use style="stroke:#000000;stroke-width:0.8;" x="1032.114441" xlink:href="#m98854b8094" y="260.12"/>
      </g>
     </g>
     <g id="text_6">
      <!-- Sun 00:00 -->
      <defs>
       <path d="M 54.890625 33.015625 
L 54.890625 0 
L 45.90625 0 
L 45.90625 32.71875 
Q 45.90625 40.484375 42.875 44.328125 
Q 39.84375 48.1875 33.796875 48.1875 
Q 26.515625 48.1875 22.3125 43.546875 
Q 18.109375 38.921875 18.109375 30.90625 
L 18.109375 0 
L 9.078125 0 
L 9.078125 54.6875 
L 18.109375 54.6875 
L 18.109375 46.1875 
Q 21.34375 51.125 25.703125 53.5625 
Q 30.078125 56 35.796875 56 
Q 45.21875 56 50.046875 50.171875 
Q 54.890625 44.34375 54.890625 33.015625 
z
" id="DejaVuSans-110"/>
      </defs>
      <g transform="translate(1006.604285 274.718437)scale(0.1 -0.1)">
       <use xlink:href="#DejaVuSans-83"/>
       <use x="63.476562" xlink:href="#DejaVuSans-117"/>
       <use x="126.855469" xlink:href="#DejaVuSans-110"/>
       <use x="190.234375" xlink:href="#DejaVuSans-32"/>
       <use x="222.021484" xlink:href="#DejaVuSans-48"/>
       <use x="285.644531" xlink:href="#DejaVuSans-48"/>
       <use x="349.267578" xlink:href="#DejaVuSans-58"/>
       <use x="382.958984" xlink:href="#DejaVuSans-48"/>
       <use x="446.582031" xlink:href="#DejaVuSans-48"/>
      </g>
     </g>
    </g>
   </g>
   <g id="matplotlib.axis_2">
    <g id="ytick_1">
     <g id="line2d_7">
      <defs>
       <path d="M 0 0 
L -3.5 0 
" id="mb540754989" style="stroke:#000000;stroke-width:0.8;"/>
      </defs>
      <g>
       <use style="stroke:#000000;stroke-width:0.8;" x="33.64" xlink:href="#mb540754989" y="260.12"/>
      </g>
     </g>
     <g id="text_7">
      <!-- 0 -->
      <g transform="translate(20.2775 263.919219)scale(0.1 -0.1)">
       <use xlink:href="#DejaVuSans-48"/>
      </g>
     </g>
    </g>
    <g id="ytick_2">
     <g id="line2d_8">
      <g>
       <use style="stroke:#000000;stroke-width:0.8;" x="33.64" xlink:href="#mb540754989" y="232.857778"/>
      </g>
     </g>
     <g id="text_8">
      <!-- 20 -->
      <defs>
       <path d="M 19.1875 8.296875 
L 53.609375 8.296875 
L 53.609375 0 
L 7.328125 0 
L 7.328125 8.296875 
Q 12.9375 14.109375 22.625 23.890625 
Q 32.328125 33.6875 34.8125 36.53125 
Q 39.546875 41.84375 41.421875 45.53125 
Q 43.3125 49.21875 43.3125 52.78125 
Q 43.3125 58.59375 39.234375 62.25 
Q 35.15625 65.921875 28.609375 65.921875 
Q 23.96875 65.921875 18.8125 64.3125 
Q 13.671875 62.703125 7.8125 59.421875 
L 7.8125 69.390625 
Q 13.765625 71.78125 18.9375 73 
Q 24.125 74.21875 28.421875 74.21875 
Q 39.75 74.21875 46.484375 68.546875 
Q 53.21875 62.890625 53.21875 53.421875 
Q 53.21875 48.921875 51.53125 44.890625 
Q 49.859375 40.875 45.40625 35.40625 
Q 44.1875 33.984375 37.640625 27.21875 
Q 31.109375 20.453125 19.1875 8.296875 
z
" id="DejaVuSans-50"/>
      </defs>
      <g transform="translate(13.915 236.656997)scale(0.1 -0.1)">
       <use xlink:href="#DejaVuSans-50"/>
       <use x="63.623047" xlink:href="#DejaVuSans-48"/>
      </g>
     </g>
    </g>
    <g id="ytick_3">
     <g id="line2d_9">
      <g>
       <use style="stroke:#000000;stroke-width:0.8;" x="33.64" xlink:href="#mb540754989" y="205.595556"/>
      </g>
     </g>
     <g id="text_9">
      <!-- 40 -->
      <defs>
       <path d="M 37.796875 64.3125 
L 12.890625 25.390625 
L 37.796875 25.390625 
z
M 35.203125 72.90625 
L 47.609375 72.90625 
L 47.609375 25.390625 
L 58.015625 25.390625 
L 58.015625 17.1875 
L 47.609375 17.1875 
L 47.609375 0 
L 37.796875 0 
L 37.796875 17.1875 
L 4.890625 17.1875 
L 4.890625 26.703125 
z
" id="DejaVuSans-52"/>
      </defs>
      <g transform="translate(13.915 209.394774)scale(0.1 -0.1)">
       <use xlink:href="#DejaVuSans-52"/>
       <use x="63.623047" xlink:href="#DejaVuSans-48"/>
      </g>
     </g>
    </g>
    <g id="ytick_4">
     <g id="line2d_10">
      <g>
       <use style="stroke:#000000;stroke-width:0.8;" x="33.64" xlink:href="#mb540754989" y="178.333333"/>
      </g>
     </g>
     <g id="text_10">
      <!-- 60 -->
      <defs>
       <path d="M 33.015625 40.375 
Q 26.375 40.375 22.484375 35.828125 
Q 18.609375 31.296875 18.609375 23.390625 
Q 18.609375 15.53125 22.484375 10.953125 
Q 26.375 6.390625 33.015625 6.390625 
Q 39.65625 6.390625 43.53125 10.953125 
Q 47.40625 15.53125 47.40625 23.390625 
Q 47.40625 31.296875 43.53125 35.828125 
Q 39.65625 40.375 33.015625 40.375 
z
M 52.59375 71.296875 
L 52.59375 62.3125 
Q 48.875 64.0625 45.09375 64.984375 
Q 41.3125 65.921875 37.59375 65.921875 
Q 27.828125 65.921875 22.671875 59.328125 
Q 17.53125 52.734375 16.796875 39.40625 
Q 19.671875 43.65625 24.015625 45.921875 
Q 28.375 48.1875 33.59375 48.1875 
Q 44.578125 48.1875 50.953125 41.515625 
Q 57.328125 34.859375 57.328125 23.390625 
Q 57.328125 12.15625 50.6875 5.359375 
Q 44.046875 -1.421875 33.015625 -1.421875 
Q 20.359375 -1.421875 13.671875 8.265625 
Q 6.984375 17.96875 6.984375 36.375 
Q 6.984375 53.65625 15.1875 63.9375 
Q 23.390625 74.21875 37.203125 74.21875 
Q 40.921875 74.21875 44.703125 73.484375 
Q 48.484375 72.75 52.59375 71.296875 
z
" id="DejaVuSans-54"/>
      </defs>
      <g transform="translate(13.915 182.132552)scale(0.1 -0.1)">
       <use xlink:href="#DejaVuSans-54"/>
       <use x="63.623047" xlink:href="#DejaVuSans-48"/>
      </g>
     </g>
    </g>
    <g id="ytick_5">
     <g id="line2d_11">
      <g>
       <use style="stroke:#000000;stroke-width:0.8;" x="33.64" xlink:href="#mb540754989" y="151.071111"/>
      </g>
     </g>
     <g id="text_11">
      <!-- 80 -->
      <defs>
       <path d="M 31.78125 34.625 
Q 24.75 34.625 20.71875 30.859375 
Q 16.703125 27.09375 16.703125 20.515625 
Q 16.703125 13.921875 20.71875 10.15625 
Q 24.75 6.390625 31.78125 6.390625 
Q 38.8125 6.390625 42.859375 10.171875 
Q 46.921875 13.96875 46.921875 20.515625 
Q 46.921875 27.09375 42.890625 30.859375 
Q 38.875 34.625 31.78125 34.625 
z
M 21.921875 38.8125 
Q 15.578125 40.375 12.03125 44.71875 
Q 8.5 49.078125 8.5 55.328125 
Q 8.5 64.0625 14.71875 69.140625 
Q 20.953125 74.21875 31.78125 74.21875 
Q 42.671875 74.21875 48.875 69.140625 
Q 55.078125 64.0625 55.078125 55.328125 
Q 55.078125 49.078125 51.53125 44.71875 
Q 48 40.375 41.703125 38.8125 
Q 48.828125 37.15625 52.796875 32.3125 
Q 56.78125 27.484375 56.78125 20.515625 
Q 56.78125 9.90625 50.3125 4.234375 
Q 43.84375 -1.421875 31.78125 -1.421875 
Q 19.734375 -1.421875 13.25 4.234375 
Q 6.78125 9.90625 6.78125 20.515625 
Q 6.78125 27.484375 10.78125 32.3125 
Q 14.796875 37.15625 21.921875 38.8125 
z
M 18.3125 54.390625 
Q 18.3125 48.734375 21.84375 45.5625 
Q 25.390625 42.390625 31.78125 42.390625 
Q 38.140625 42.390625 41.71875 45.5625 
Q 45.3125 48.734375 45.3125 54.390625 
Q 45.3125 60.0625 41.71875 63.234375 
Q 38.140625 66.40625 31.78125 66.40625 
Q 25.390625 66.40625 21.84375 63.234375 
Q 18.3125 60.0625 18.3125 54.390625 
z
" id="DejaVuSans-56"/>
      </defs>
      <g transform="translate(13.915 154.87033)scale(0.1 -0.1)">
       <use xlink:href="#DejaVuSans-56"/>
       <use x="63.623047" xlink:href="#DejaVuSans-48"/>
      </g>
     </g>
    </g>
    <g id="ytick_6">
     <g id="line2d_12">
      <g>
       <use style="stroke:#000000;stroke-width:0.8;" x="33.64" xlink:href="#mb540754989" y="123.808889"/>
      </g>
     </g>
     <g id="text_12">
      <!-- 100 -->
      <defs>
       <path d="M 12.40625 8.296875 
L 28.515625 8.296875 
L 28.515625 63.921875 
L 10.984375 60.40625 
L 10.984375 69.390625 
L 28.421875 72.90625 
L 38.28125 72.90625 
L 38.28125 8.296875 
L 54.390625 8.296875 
L 54.390625 0 
L 12.40625 0 
z
" id="DejaVuSans-49"/>
      </defs>
      <g transform="translate(7.5525 127.608108)scale(0.1 -0.1)">
       <use xlink:href="#DejaVuSans-49"/>
       <use x="63.623047" xlink:href="#DejaVuSans-48"/>
       <use x="127.246094" xlink:href="#DejaVuSans-48"/>
      </g>
     </g>
    </g>
    <g id="ytick_7">
     <g id="line2d_13">
      <g>
       <use style="stroke:#000000;stroke-width:0.8;" x="33.64" xlink:href="#mb540754989" y="96.546667"/>
      </g>
     </g>
     <g id="text_13">
      <!-- 120 -->
      <g transform="translate(7.5525 100.345885)scale(0.1 -0.1)">
       <use xlink:href="#DejaVuSans-49"/>
       <use x="63.623047" xlink:href="#DejaVuSans-50"/>
       <use x="127.246094" xlink:href="#DejaVuSans-48"/>
      </g>
     </g>
    </g>
    <g id="ytick_8">
     <g id="line2d_14">
      <g>
       <use style="stroke:#000000;stroke-width:0.8;" x="33.64" xlink:href="#mb540754989" y="69.284444"/>
      </g>
     </g>
     <g id="text_14">
      <!-- 140 -->
      <g transform="translate(7.5525 73.083663)scale(0.1 -0.1)">
       <use xlink:href="#DejaVuSans-49"/>
       <use x="63.623047" xlink:href="#DejaVuSans-52"/>
       <use x="127.246094" xlink:href="#DejaVuSans-48"/>
      </g>
     </g>
    </g>
    <g id="ytick_9">
     <g id="line2d_15">
      <g>
       <use style="stroke:#000000;stroke-width:0.8;" x="33.64" xlink:href="#mb540754989" y="42.022222"/>
      </g>
     </g>
     <g id="text_15">
      <!-- 160 -->
      <g transform="translate(7.5525 45.821441)scale(0.1 -0.1)">
       <use xlink:href="#DejaVuSans-49"/>
       <use x="63.623047" xlink:href="#DejaVuSans-54"/>
       <use x="127.246094" xlink:href="#DejaVuSans-48"/>
      </g>
     </g>
    </g>
    <g id="ytick_10">
     <g id="line2d_16">
      <g>
       <use style="stroke:#000000;stroke-width:0.8;" x="33.64" xlink:href="#mb540754989" y="14.76"/>
      </g>
     </g>
     <g id="text_16">
      <!-- 180 -->
      <g transform="translate(7.5525 18.559219)scale(0.1 -0.1)">
       <use xlink:href="#DejaVuSans-49"/>
       <use x="63.623047" xlink:href="#DejaVuSans-56"/>
       <use x="127.246094" xlink:href="#DejaVuSans-48"/>
      </g>
     </g>
    </g>
   </g>
   <g id="line2d_17">
    <path clip-path="url(#p5326872c07)" d="M 33.64 260.12 
L 96.857802 260.12 
L 98.047958 254.667556 
L 99.237552 254.667556 
L 100.429753 242.399556 
L 101.618613 241.036444 
L 102.807769 230.131556 
L 104.000431 230.131556 
L 105.193883 226.042222 
L 106.383764 224.679111 
L 108.762769 224.679111 
L 111.140877 216.500444 
L 112.329986 216.500444 
L 113.518973 221.952889 
L 114.708654 221.952889 
L 115.897375 231.494667 
L 117.087828 235.584 
L 119.466607 235.584 
L 121.847661 227.405333 
L 123.036599 227.405333 
L 124.225896 231.494667 
L 125.415749 224.679111 
L 126.604584 224.679111 
L 127.793215 227.405333 
L 128.987164 224.679111 
L 130.177103 226.042222 
L 131.366778 226.042222 
L 132.556025 231.494667 
L 133.745643 231.494667 
L 134.93424 230.131556 
L 136.122669 227.405333 
L 137.311924 227.405333 
L 138.502636 226.042222 
L 139.693291 221.952889 
L 140.883756 223.316 
L 142.075404 223.316 
L 143.265266 219.226667 
L 144.45489 216.500444 
L 145.644026 216.500444 
L 146.833478 206.958667 
L 148.023325 208.321778 
L 149.212905 205.595556 
L 150.403214 205.595556 
L 151.592667 198.78 
L 152.781888 198.78 
L 153.971264 197.416889 
L 156.351274 197.416889 
L 157.540369 193.327556 
L 159.918843 159.249778 
L 161.109662 159.249778 
L 162.302007 149.708 
L 163.492521 136.076889 
L 165.873136 136.076889 
L 167.063216 140.166222 
L 168.252485 140.166222 
L 169.443162 141.529333 
L 170.633345 137.44 
L 171.823039 137.44 
L 173.014372 131.987556 
L 174.208287 111.540889 
L 175.398321 116.993333 
L 176.590022 116.993333 
L 177.78045 121.082667 
L 178.973423 126.535111 
L 182.542104 126.535111 
L 183.731394 142.892444 
L 186.109285 153.797333 
L 187.300886 153.797333 
L 188.490136 168.791556 
L 189.680513 179.696444 
L 190.869709 179.696444 
L 192.059747 185.148889 
L 193.249602 193.327556 
L 195.631087 193.327556 
L 196.821064 260.12 
L 261.257836 260.12 
L 262.428349 258.756889 
L 263.621101 258.756889 
L 264.81036 251.941333 
L 265.999587 246.488889 
L 267.191912 246.488889 
L 268.386293 243.762667 
L 269.57649 224.679111 
L 270.767224 216.500444 
L 271.956902 216.500444 
L 273.146965 213.774222 
L 274.336383 213.774222 
L 275.526452 211.048 
L 277.906347 211.048 
L 279.097072 204.232444 
L 280.287673 211.048 
L 282.666398 211.048 
L 285.047497 213.774222 
L 286.239746 213.774222 
L 287.430283 215.137333 
L 288.620099 226.042222 
L 289.810202 226.042222 
L 290.999851 236.947111 
L 292.191118 242.399556 
L 293.38002 242.399556 
L 295.759421 239.673333 
L 296.950124 236.947111 
L 301.713196 236.947111 
L 304.094608 231.494667 
L 305.286083 227.405333 
L 306.476234 227.405333 
L 307.666854 226.042222 
L 308.856064 226.042222 
L 310.046098 220.589778 
L 311.297888 217.863556 
L 312.489262 217.863556 
L 313.67983 211.048 
L 314.869584 197.416889 
L 316.06001 194.690667 
L 317.251835 194.690667 
L 318.44522 183.785778 
L 319.638655 175.607111 
L 320.830464 175.607111 
L 322.02276 151.071111 
L 323.214629 129.261333 
L 324.405642 129.261333 
L 325.595297 121.082667 
L 326.784934 103.362222 
L 327.974962 103.362222 
L 329.165388 93.820444 
L 330.360013 88.368 
L 331.549866 88.368 
L 332.73938 74.736889 
L 333.931107 77.463111 
L 335.124584 73.373778 
L 336.314213 73.373778 
L 337.504474 88.368 
L 338.695925 89.731111 
L 339.885808 89.731111 
L 341.077847 93.820444 
L 342.267594 115.630222 
L 343.45826 115.630222 
L 344.648455 131.987556 
L 345.838046 140.166222 
L 347.027689 140.166222 
L 348.217158 148.344889 
L 350.595428 148.344889 
L 351.786799 157.886667 
L 352.976628 163.339111 
L 354.168478 163.339111 
L 355.357554 168.791556 
L 356.549492 185.148889 
L 357.739004 185.148889 
L 360.126322 204.232444 
L 361.318193 260.12 
L 428.1219 260.12 
L 429.29251 258.756889 
L 430.482194 258.756889 
L 431.672885 241.036444 
L 432.865298 232.857778 
L 434.055706 230.131556 
L 435.245926 230.131556 
L 436.442128 226.042222 
L 438.823604 226.042222 
L 440.016535 224.679111 
L 441.207192 217.863556 
L 442.397742 217.863556 
L 443.588018 219.226667 
L 444.78063 216.500444 
L 445.97234 216.500444 
L 447.162187 219.226667 
L 448.352372 228.768444 
L 453.118973 228.768444 
L 454.309017 231.494667 
L 455.498611 238.310222 
L 456.690499 242.399556 
L 457.882733 242.399556 
L 459.073046 243.762667 
L 460.264623 242.399556 
L 461.454014 242.399556 
L 463.835587 236.947111 
L 465.025718 235.584 
L 466.215178 235.584 
L 467.405783 231.494667 
L 468.595735 231.494667 
L 469.785919 223.316 
L 470.975569 223.316 
L 472.165948 216.500444 
L 473.35601 216.500444 
L 474.54786 219.226667 
L 476.926712 219.226667 
L 478.11874 205.595556 
L 479.310928 204.232444 
L 480.50391 204.232444 
L 482.887836 190.601333 
L 484.077256 182.422667 
L 485.271945 182.422667 
L 486.462502 189.238222 
L 487.651725 189.238222 
L 488.840646 182.422667 
L 490.030928 167.428444 
L 491.220328 167.428444 
L 492.414203 164.702222 
L 493.603417 159.249778 
L 494.793233 151.071111 
L 495.982475 151.071111 
L 497.171907 155.160444 
L 498.363335 144.255556 
L 499.554118 144.255556 
L 500.745076 140.166222 
L 501.935324 126.535111 
L 503.127015 126.535111 
L 504.317195 125.172 
L 505.509004 131.987556 
L 506.698166 131.987556 
L 507.888452 111.540889 
L 509.078379 101.999111 
L 510.268543 97.909778 
L 511.458662 97.909778 
L 512.64823 101.999111 
L 513.838497 101.999111 
L 515.028791 108.814667 
L 517.410319 137.44 
L 518.601278 137.44 
L 519.791726 153.797333 
L 520.984183 159.249778 
L 522.17357 159.249778 
L 523.363702 175.607111 
L 524.555108 187.875111 
L 525.748411 187.875111 
L 526.937726 196.053778 
L 528.127597 209.684889 
L 529.3194 209.684889 
L 530.511006 260.12 
L 596.120451 260.12 
L 597.310283 254.667556 
L 598.499828 254.667556 
L 599.689577 236.947111 
L 600.87927 227.405333 
L 602.068713 224.679111 
L 603.25821 224.679111 
L 604.447551 227.405333 
L 605.636623 227.405333 
L 606.825391 221.952889 
L 608.015187 220.589778 
L 609.206903 217.863556 
L 610.397164 217.863556 
L 611.586986 221.952889 
L 612.775984 220.589778 
L 613.966236 220.589778 
L 615.154922 224.679111 
L 616.344078 231.494667 
L 618.727825 231.494667 
L 619.917243 232.857778 
L 621.106527 232.857778 
L 622.296739 235.584 
L 623.486622 234.220889 
L 624.675774 234.220889 
L 625.864646 235.584 
L 627.053989 238.310222 
L 628.243686 243.762667 
L 631.811756 243.762667 
L 634.191448 238.310222 
L 635.383786 234.220889 
L 636.573052 234.220889 
L 637.762373 232.857778 
L 638.95252 228.768444 
L 643.714366 228.768444 
L 646.095727 226.042222 
L 647.285794 223.316 
L 648.475394 223.316 
L 650.8572 198.78 
L 652.048172 198.78 
L 653.239222 204.232444 
L 654.430195 204.232444 
L 655.622117 201.506222 
L 656.811717 189.238222 
L 658.001918 186.512 
L 659.191414 186.512 
L 661.570928 142.892444 
L 662.761773 142.892444 
L 663.951974 131.987556 
L 665.142704 136.076889 
L 666.332761 136.076889 
L 667.522921 119.719556 
L 668.713206 116.993333 
L 669.903155 116.993333 
L 671.093063 107.451556 
L 672.284607 108.814667 
L 673.47522 108.814667 
L 674.66491 103.362222 
L 675.855336 88.368 
L 677.046468 84.278667 
L 678.237386 84.278667 
L 679.428058 100.636 
L 680.617971 107.451556 
L 681.80772 107.451556 
L 682.997519 122.445778 
L 684.188286 160.612889 
L 685.378243 160.612889 
L 686.568656 163.339111 
L 687.75885 168.791556 
L 688.948715 168.791556 
L 690.139142 190.601333 
L 691.329294 198.78 
L 692.519873 211.048 
L 693.709823 211.048 
L 694.900243 260.12 
L 761.697468 260.12 
L 762.887977 256.030667 
L 764.078207 250.578222 
L 765.268399 250.578222 
L 766.459767 238.310222 
L 767.651272 234.220889 
L 768.844099 234.220889 
L 770.034088 228.768444 
L 771.224387 226.042222 
L 772.416157 220.589778 
L 774.800575 220.589778 
L 775.992902 221.952889 
L 777.182054 221.952889 
L 778.371663 220.589778 
L 781.942766 220.589778 
L 783.132298 223.316 
L 784.322594 223.316 
L 785.513269 224.679111 
L 786.703135 227.405333 
L 787.894906 227.405333 
L 789.084996 220.589778 
L 791.466921 217.863556 
L 792.658436 217.863556 
L 793.852435 215.137333 
L 795.045829 215.137333 
L 796.237818 213.774222 
L 797.42722 211.048 
L 798.618558 213.774222 
L 799.808783 213.774222 
L 802.188003 216.500444 
L 803.376687 216.500444 
L 804.56573 205.595556 
L 805.755028 212.411111 
L 806.944489 213.774222 
L 808.133737 213.774222 
L 809.322835 205.595556 
L 810.51406 205.595556 
L 811.703604 206.958667 
L 812.892472 213.774222 
L 814.082113 197.416889 
L 815.272813 197.416889 
L 816.464269 191.964444 
L 817.65394 183.785778 
L 818.846139 183.785778 
L 820.035654 170.154667 
L 821.22476 178.333333 
L 822.417078 178.333333 
L 823.606312 181.059556 
L 824.796687 166.065333 
L 825.985957 166.065333 
L 827.178217 163.339111 
L 828.370202 156.523556 
L 829.561253 140.166222 
L 830.751008 140.166222 
L 831.940397 145.618667 
L 833.132839 145.618667 
L 834.322867 148.344889 
L 835.515415 146.981778 
L 836.707118 159.249778 
L 837.899326 159.249778 
L 839.089009 156.523556 
L 840.28122 159.249778 
L 841.470558 159.249778 
L 843.853046 170.154667 
L 845.0431 176.970222 
L 846.233662 176.970222 
L 847.423847 179.696444 
L 848.614463 179.696444 
L 849.803535 190.601333 
L 850.993167 197.416889 
L 852.18497 197.416889 
L 853.374888 206.958667 
L 854.567822 215.137333 
L 855.757859 217.863556 
L 856.949587 217.863556 
L 858.140201 221.952889 
L 859.329797 227.405333 
L 860.521256 227.405333 
L 861.710829 260.12 
L 929.686507 260.12 
L 930.876321 258.756889 
L 932.067805 238.310222 
L 933.259011 238.310222 
L 934.451551 221.952889 
L 935.640535 212.411111 
L 936.831713 212.411111 
L 938.020722 208.321778 
L 939.212097 201.506222 
L 940.401365 201.506222 
L 941.592533 190.601333 
L 942.784106 181.059556 
L 943.973797 182.422667 
L 945.162956 182.422667 
L 946.352342 179.696444 
L 947.54085 187.875111 
L 948.730403 187.875111 
L 949.919202 197.416889 
L 951.109108 197.416889 
L 952.297642 194.690667 
L 953.486294 197.416889 
L 954.675399 194.690667 
L 955.864965 194.690667 
L 957.053973 197.416889 
L 958.242521 201.506222 
L 959.431234 201.506222 
L 960.620683 200.143111 
L 961.812056 197.416889 
L 963.001137 202.869333 
L 964.190248 202.869333 
L 965.379143 206.958667 
L 966.567734 206.958667 
L 967.756556 194.690667 
L 968.945321 206.958667 
L 970.13553 208.321778 
L 971.324342 208.321778 
L 972.512971 211.048 
L 973.701673 211.048 
L 974.890328 206.958667 
L 976.081682 209.684889 
L 977.27035 209.684889 
L 978.46193 212.411111 
L 979.651869 209.684889 
L 980.84084 211.048 
L 982.03212 211.048 
L 983.221175 205.595556 
L 984.413629 208.321778 
L 985.602913 208.321778 
L 986.791707 212.411111 
L 987.980531 220.589778 
L 989.169427 217.863556 
L 990.357897 217.863556 
L 991.549548 234.220889 
L 992.738263 234.220889 
L 993.927221 236.947111 
L 995.118699 241.036444 
L 996.307823 236.947111 
L 998.690532 236.947111 
L 999.880659 234.220889 
L 1001.071064 234.220889 
L 1002.260005 230.131556 
L 1003.448746 236.947111 
L 1004.638202 236.947111 
L 1005.82977 235.584 
L 1007.01862 231.494667 
L 1008.207723 230.131556 
L 1012.966064 230.131556 
L 1014.155116 228.768444 
L 1015.343764 231.494667 
L 1016.532468 231.494667 
L 1017.721106 230.131556 
L 1020.098975 230.131556 
L 1021.287339 231.494667 
L 1023.665726 231.494667 
L 1024.854613 232.857778 
L 1027.232589 232.857778 
L 1028.422294 260.12 
L 1094.036055 260.12 
L 1095.206638 258.756889 
L 1096.39651 258.756889 
L 1097.585254 236.947111 
L 1098.774188 224.679111 
L 1099.963405 213.774222 
L 1101.152457 213.774222 
L 1103.533508 194.690667 
L 1104.72267 194.690667 
L 1105.911797 178.333333 
L 1107.101011 178.333333 
L 1108.290169 153.797333 
L 1109.479173 144.255556 
L 1110.668946 144.255556 
L 1111.858216 140.166222 
L 1113.047666 134.713778 
L 1114.237287 125.172 
L 1115.429173 125.172 
L 1116.620477 114.267111 
L 1117.809874 119.719556 
L 1119.001719 119.719556 
L 1120.190724 122.445778 
L 1121.379905 126.535111 
L 1122.569108 126.535111 
L 1123.758392 133.350667 
L 1124.949569 131.987556 
L 1126.138521 131.987556 
L 1128.517606 137.44 
L 1130.898303 137.44 
L 1132.088681 133.350667 
L 1133.28 140.166222 
L 1133.28 140.166222 
" style="fill:none;stroke:#1f77b4;stroke-linecap:square;stroke-width:1.5;"/>
   </g>
   <g id="patch_3">
    <path d="M 33.64 260.12 
L 33.64 14.76 
" style="fill:none;stroke:#000000;stroke-linecap:square;stroke-linejoin:miter;stroke-width:0.8;"/>
   </g>
   <g id="patch_4">
    <path d="M 1133.28 260.12 
L 1133.28 14.76 
" style="fill:none;stroke:#000000;stroke-linecap:square;stroke-linejoin:miter;stroke-width:0.8;"/>
   </g>
   <g id="patch_5">
    <path d="M 33.64 260.12 
L 1133.28 260.12 
" style="fill:none;stroke:#000000;stroke-linecap:square;stroke-linejoin:miter;stroke-width:0.8;"/>
   </g>
   <g id="patch_6">
    <path d="M 33.64 14.76 
L 1133.28 14.76 
" style="fill:none;stroke:#000000;stroke-linecap:square;stroke-linejoin:miter;stroke-width:0.8;"/>
   </g>
  </g>
 </g>
 <defs>
  <clipPath id="p5326872c07">
   <rect height="245.36" width="1099.64" x="33.64" y="14.76"/>
  </clipPath>
 </defs>
</svg>
