<?xml version="1.0" encoding="utf-8" standalone="no"?>
<!DOCTYPE svg PUBLIC "-//W3C//DTD SVG 1.1//EN"
  "http://www.w3.org/Graphics/SVG/1.1/DTD/svg11.dtd">
<!-- Created with matplotlib (https://matplotlib.org/) -->
<svg height="288pt" version="1.1" viewBox="0 0 1152 288" width="1152pt" xmlns="http://www.w3.org/2000/svg" xmlns:xlink="http://www.w3.org/1999/xlink">
 <defs>
  <style type="text/css">
*{stroke-linecap:butt;stroke-linejoin:round;}
  </style>
 </defs>
 <g id="figure_1">
  <g id="patch_1">
   <path d="M 0 288 
L 1152 288 
L 1152 0 
L 0 0 
z
" style="fill:#ffffff;"/>
  </g>
  <g id="axes_1">
   <g id="patch_2">
    <path d="M 33.64 260.12 
L 1133.28 260.12 
L 1133.28 14.76 
L 33.64 14.76 
z
" style="fill:#ffffff;"/>
   </g>
   <g id="matplotlib.axis_1">
    <g id="xtick_1">
     <g id="line2d_1">
      <defs>
       <path d="M 0 0 
L 0 3.5 
" id="md3149e8949" style="stroke:#000000;stroke-width:0.8;"/>
      </defs>
      <g>
       <use style="stroke:#000000;stroke-width:0.8;" x="233.00045" xlink:href="#md3149e8949" y="260.12"/>
      </g>
     </g>
     <g id="text_1">
      <!-- Tue 00:00 -->
      <defs>
       <path d="M -0.296875 72.90625 
L 61.375 72.90625 
L 61.375 64.59375 
L 35.5 64.59375 
L 35.5 0 
L 25.59375 0 
L 25.59375 64.59375 
L -0.296875 64.59375 
z
" id="DejaVuSans-84"/>
       <path d="M 8.5 21.578125 
L 8.5 54.6875 
L 17.484375 54.6875 
L 17.484375 21.921875 
Q 17.484375 14.15625 20.5 10.265625 
Q 23.53125 6.390625 29.59375 6.390625 
Q 36.859375 6.390625 41.078125 11.03125 
Q 45.3125 15.671875 45.3125 23.6875 
L 45.3125 54.6875 
L 54.296875 54.6875 
L 54.296875 0 
L 45.3125 0 
L 45.3125 8.40625 
Q 42.046875 3.421875 37.71875 1 
Q 33.40625 -1.421875 27.6875 -1.421875 
Q 18.265625 -1.421875 13.375 4.4375 
Q 8.5 10.296875 8.5 21.578125 
z
M 31.109375 56 
z
" id="DejaVuSans-117"/>
       <path d="M 56.203125 29.59375 
L 56.203125 25.203125 
L 14.890625 25.203125 
Q 15.484375 15.921875 20.484375 11.0625 
Q 25.484375 6.203125 34.421875 6.203125 
Q 39.59375 6.203125 44.453125 7.46875 
Q 49.3125 8.734375 54.109375 11.28125 
L 54.109375 2.78125 
Q 49.265625 0.734375 44.1875 -0.34375 
Q 39.109375 -1.421875 33.890625 -1.421875 
Q 20.796875 -1.421875 13.15625 6.1875 
Q 5.515625 13.8125 5.515625 26.8125 
Q 5.515625 40.234375 12.765625 48.109375 
Q 20.015625 56 32.328125 56 
Q 43.359375 56 49.78125 48.890625 
Q 56.203125 41.796875 56.203125 29.59375 
z
M 47.21875 32.234375 
Q 47.125 39.59375 43.09375 43.984375 
Q 39.0625 48.390625 32.421875 48.390625 
Q 24.90625 48.390625 20.390625 44.140625 
Q 15.875 39.890625 15.1875 32.171875 
z
" id="DejaVuSans-101"/>
       <path id="DejaVuSans-32"/>
       <path d="M 31.78125 66.40625 
Q 24.171875 66.40625 20.328125 58.90625 
Q 16.5 51.421875 16.5 36.375 
Q 16.5 21.390625 20.328125 13.890625 
Q 24.171875 6.390625 31.78125 6.390625 
Q 39.453125 6.390625 43.28125 13.890625 
Q 47.125 21.390625 47.125 36.375 
Q 47.125 51.421875 43.28125 58.90625 
Q 39.453125 66.40625 31.78125 66.40625 
z
M 31.78125 74.21875 
Q 44.046875 74.21875 50.515625 64.515625 
Q 56.984375 54.828125 56.984375 36.375 
Q 56.984375 17.96875 50.515625 8.265625 
Q 44.046875 -1.421875 31.78125 -1.421875 
Q 19.53125 -1.421875 13.0625 8.265625 
Q 6.59375 17.96875 6.59375 36.375 
Q 6.59375 54.828125 13.0625 64.515625 
Q 19.53125 74.21875 31.78125 74.21875 
z
" id="DejaVuSans-48"/>
       <path d="M 11.71875 12.40625 
L 22.015625 12.40625 
L 22.015625 0 
L 11.71875 0 
z
M 11.71875 51.703125 
L 22.015625 51.703125 
L 22.015625 39.3125 
L 11.71875 39.3125 
z
" id="DejaVuSans-58"/>
      </defs>
      <g transform="translate(207.714513 274.718437)scale(0.1 -0.1)">
       <use xlink:href="#DejaVuSans-84"/>
       <use x="60.849609" xlink:href="#DejaVuSans-117"/>
       <use x="124.228516" xlink:href="#DejaVuSans-101"/>
       <use x="185.751953" xlink:href="#DejaVuSans-32"/>
       <use x="217.539062" xlink:href="#DejaVuSans-48"/>
       <use x="281.162109" xlink:href="#DejaVuSans-48"/>
       <use x="344.785156" xlink:href="#DejaVuSans-58"/>
       <use x="378.476562" xlink:href="#DejaVuSans-48"/>
       <use x="442.099609" xlink:href="#DejaVuSans-48"/>
      </g>
     </g>
    </g>
    <g id="xtick_2">
     <g id="line2d_2">
      <g>
       <use style="stroke:#000000;stroke-width:0.8;" x="432.563189" xlink:href="#md3149e8949" y="260.12"/>
      </g>
     </g>
     <g id="text_2">
      <!-- Wed 00:00 -->
      <defs>
       <path d="M 3.328125 72.90625 
L 13.28125 72.90625 
L 28.609375 11.28125 
L 43.890625 72.90625 
L 54.984375 72.90625 
L 70.3125 11.28125 
L 85.59375 72.90625 
L 95.609375 72.90625 
L 77.296875 0 
L 64.890625 0 
L 49.515625 63.28125 
L 33.984375 0 
L 21.578125 0 
z
" id="DejaVuSans-87"/>
       <path d="M 45.40625 46.390625 
L 45.40625 75.984375 
L 54.390625 75.984375 
L 54.390625 0 
L 45.40625 0 
L 45.40625 8.203125 
Q 42.578125 3.328125 38.25 0.953125 
Q 33.9375 -1.421875 27.875 -1.421875 
Q 17.96875 -1.421875 11.734375 6.484375 
Q 5.515625 14.40625 5.515625 27.296875 
Q 5.515625 40.1875 11.734375 48.09375 
Q 17.96875 56 27.875 56 
Q 33.9375 56 38.25 53.625 
Q 42.578125 51.265625 45.40625 46.390625 
z
M 14.796875 27.296875 
Q 14.796875 17.390625 18.875 11.75 
Q 22.953125 6.109375 30.078125 6.109375 
Q 37.203125 6.109375 41.296875 11.75 
Q 45.40625 17.390625 45.40625 27.296875 
Q 45.40625 37.203125 41.296875 42.84375 
Q 37.203125 48.484375 30.078125 48.484375 
Q 22.953125 48.484375 18.875 42.84375 
Q 14.796875 37.203125 14.796875 27.296875 
z
" id="DejaVuSans-100"/>
      </defs>
      <g transform="translate(405.374126 274.718437)scale(0.1 -0.1)">
       <use xlink:href="#DejaVuSans-87"/>
       <use x="98.798828" xlink:href="#DejaVuSans-101"/>
       <use x="160.322266" xlink:href="#DejaVuSans-100"/>
       <use x="223.798828" xlink:href="#DejaVuSans-32"/>
       <use x="255.585938" xlink:href="#DejaVuSans-48"/>
       <use x="319.208984" xlink:href="#DejaVuSans-48"/>
       <use x="382.832031" xlink:href="#DejaVuSans-58"/>
       <use x="416.523438" xlink:href="#DejaVuSans-48"/>
       <use x="480.146484" xlink:href="#DejaVuSans-48"/>
      </g>
     </g>
    </g>
    <g id="xtick_3">
     <g id="line2d_3">
      <g>
       <use style="stroke:#000000;stroke-width:0.8;" x="632.125927" xlink:href="#md3149e8949" y="260.12"/>
      </g>
     </g>
     <g id="text_3">
      <!-- Thu 00:00 -->
      <defs>
       <path d="M 54.890625 33.015625 
L 54.890625 0 
L 45.90625 0 
L 45.90625 32.71875 
Q 45.90625 40.484375 42.875 44.328125 
Q 39.84375 48.1875 33.796875 48.1875 
Q 26.515625 48.1875 22.3125 43.546875 
Q 18.109375 38.921875 18.109375 30.90625 
L 18.109375 0 
L 9.078125 0 
L 9.078125 75.984375 
L 18.109375 75.984375 
L 18.109375 46.1875 
Q 21.34375 51.125 25.703125 53.5625 
Q 30.078125 56 35.796875 56 
Q 45.21875 56 50.046875 50.171875 
Q 54.890625 44.34375 54.890625 33.015625 
z
" id="DejaVuSans-104"/>
      </defs>
      <g transform="translate(606.736083 274.718437)scale(0.1 -0.1)">
       <use xlink:href="#DejaVuSans-84"/>
       <use x="61.083984" xlink:href="#DejaVuSans-104"/>
       <use x="124.462891" xlink:href="#DejaVuSans-117"/>
       <use x="187.841797" xlink:href="#DejaVuSans-32"/>
       <use x="219.628906" xlink:href="#DejaVuSans-48"/>
       <use x="283.251953" xlink:href="#DejaVuSans-48"/>
       <use x="346.875" xlink:href="#DejaVuSans-58"/>
       <use x="380.566406" xlink:href="#DejaVuSans-48"/>
       <use x="444.189453" xlink:href="#DejaVuSans-48"/>
      </g>
     </g>
    </g>
    <g id="xtick_4">
     <g id="line2d_4">
      <g>
       <use style="stroke:#000000;stroke-width:0.8;" x="831.688665" xlink:href="#md3149e8949" y="260.12"/>
      </g>
     </g>
     <g id="text_4">
      <!-- Fri 00:00 -->
      <defs>
       <path d="M 9.8125 72.90625 
L 51.703125 72.90625 
L 51.703125 64.59375 
L 19.671875 64.59375 
L 19.671875 43.109375 
L 48.578125 43.109375 
L 48.578125 34.8125 
L 19.671875 34.8125 
L 19.671875 0 
L 9.8125 0 
z
" id="DejaVuSans-70"/>
       <path d="M 41.109375 46.296875 
Q 39.59375 47.171875 37.8125 47.578125 
Q 36.03125 48 33.890625 48 
Q 26.265625 48 22.1875 43.046875 
Q 18.109375 38.09375 18.109375 28.8125 
L 18.109375 0 
L 9.078125 0 
L 9.078125 54.6875 
L 18.109375 54.6875 
L 18.109375 46.1875 
Q 20.953125 51.171875 25.484375 53.578125 
Q 30.03125 56 36.53125 56 
Q 37.453125 56 38.578125 55.875 
Q 39.703125 55.765625 41.0625 55.515625 
z
" id="DejaVuSans-114"/>
       <path d="M 9.421875 54.6875 
L 18.40625 54.6875 
L 18.40625 0 
L 9.421875 0 
z
M 9.421875 75.984375 
L 18.40625 75.984375 
L 18.40625 64.59375 
L 9.421875 64.59375 
z
" id="DejaVuSans-105"/>
      </defs>
      <g transform="translate(809.375384 274.718437)scale(0.1 -0.1)">
       <use xlink:href="#DejaVuSans-70"/>
       <use x="57.410156" xlink:href="#DejaVuSans-114"/>
       <use x="98.523438" xlink:href="#DejaVuSans-105"/>
       <use x="126.306641" xlink:href="#DejaVuSans-32"/>
       <use x="158.09375" xlink:href="#DejaVuSans-48"/>
       <use x="221.716797" xlink:href="#DejaVuSans-48"/>
       <use x="285.339844" xlink:href="#DejaVuSans-58"/>
       <use x="319.03125" xlink:href="#DejaVuSans-48"/>
       <use x="382.654297" xlink:href="#DejaVuSans-48"/>
      </g>
     </g>
    </g>
    <g id="xtick_5">
     <g id="line2d_5">
      <g>
       <use style="stroke:#000000;stroke-width:0.8;" x="1031.251403" xlink:href="#md3149e8949" y="260.12"/>
      </g>
     </g>
     <g id="text_5">
      <!-- Sat 00:00 -->
      <defs>
       <path d="M 53.515625 70.515625 
L 53.515625 60.890625 
Q 47.90625 63.578125 42.921875 64.890625 
Q 37.9375 66.21875 33.296875 66.21875 
Q 25.25 66.21875 20.875 63.09375 
Q 16.5 59.96875 16.5 54.203125 
Q 16.5 49.359375 19.40625 46.890625 
Q 22.3125 44.4375 30.421875 42.921875 
L 36.375 41.703125 
Q 47.40625 39.59375 52.65625 34.296875 
Q 57.90625 29 57.90625 20.125 
Q 57.90625 9.515625 50.796875 4.046875 
Q 43.703125 -1.421875 29.984375 -1.421875 
Q 24.8125 -1.421875 18.96875 -0.25 
Q 13.140625 0.921875 6.890625 3.21875 
L 6.890625 13.375 
Q 12.890625 10.015625 18.65625 8.296875 
Q 24.421875 6.59375 29.984375 6.59375 
Q 38.421875 6.59375 43.015625 9.90625 
Q 47.609375 13.234375 47.609375 19.390625 
Q 47.609375 24.75 44.3125 27.78125 
Q 41.015625 30.8125 33.5 32.328125 
L 27.484375 33.5 
Q 16.453125 35.6875 11.515625 40.375 
Q 6.59375 45.0625 6.59375 53.421875 
Q 6.59375 63.09375 13.40625 68.65625 
Q 20.21875 74.21875 32.171875 74.21875 
Q 37.3125 74.21875 42.625 73.28125 
Q 47.953125 72.359375 53.515625 70.515625 
z
" id="DejaVuSans-83"/>
       <path d="M 34.28125 27.484375 
Q 23.390625 27.484375 19.1875 25 
Q 14.984375 22.515625 14.984375 16.5 
Q 14.984375 11.71875 18.140625 8.90625 
Q 21.296875 6.109375 26.703125 6.109375 
Q 34.1875 6.109375 38.703125 11.40625 
Q 43.21875 16.703125 43.21875 25.484375 
L 43.21875 27.484375 
z
M 52.203125 31.203125 
L 52.203125 0 
L 43.21875 0 
L 43.21875 8.296875 
Q 40.140625 3.328125 35.546875 0.953125 
Q 30.953125 -1.421875 24.3125 -1.421875 
Q 15.921875 -1.421875 10.953125 3.296875 
Q 6 8.015625 6 15.921875 
Q 6 25.140625 12.171875 29.828125 
Q 18.359375 34.515625 30.609375 34.515625 
L 43.21875 34.515625 
L 43.21875 35.40625 
Q 43.21875 41.609375 39.140625 45 
Q 35.0625 48.390625 27.6875 48.390625 
Q 23 48.390625 18.546875 47.265625 
Q 14.109375 46.140625 10.015625 43.890625 
L 10.015625 52.203125 
Q 14.9375 54.109375 19.578125 55.046875 
Q 24.21875 56 28.609375 56 
Q 40.484375 56 46.34375 49.84375 
Q 52.203125 43.703125 52.203125 31.203125 
z
" id="DejaVuSans-97"/>
       <path d="M 18.3125 70.21875 
L 18.3125 54.6875 
L 36.8125 54.6875 
L 36.8125 47.703125 
L 18.3125 47.703125 
L 18.3125 18.015625 
Q 18.3125 11.328125 20.140625 9.421875 
Q 21.96875 7.515625 27.59375 7.515625 
L 36.8125 7.515625 
L 36.8125 0 
L 27.59375 0 
Q 17.1875 0 13.234375 3.875 
Q 9.28125 7.765625 9.28125 18.015625 
L 9.28125 47.703125 
L 2.6875 47.703125 
L 2.6875 54.6875 
L 9.28125 54.6875 
L 9.28125 70.21875 
z
" id="DejaVuSans-116"/>
      </defs>
      <g transform="translate(1007.054528 274.718437)scale(0.1 -0.1)">
       <use xlink:href="#DejaVuSans-83"/>
       <use x="63.476562" xlink:href="#DejaVuSans-97"/>
       <use x="124.755859" xlink:href="#DejaVuSans-116"/>
       <use x="163.964844" xlink:href="#DejaVuSans-32"/>
       <use x="195.751953" xlink:href="#DejaVuSans-48"/>
       <use x="259.375" xlink:href="#DejaVuSans-48"/>
       <use x="322.998047" xlink:href="#DejaVuSans-58"/>
       <use x="356.689453" xlink:href="#DejaVuSans-48"/>
       <use x="420.3125" xlink:href="#DejaVuSans-48"/>
      </g>
     </g>
    </g>
   </g>
   <g id="matplotlib.axis_2">
    <g id="ytick_1">
     <g id="line2d_6">
      <defs>
       <path d="M 0 0 
L -3.5 0 
" id="m4b47849d17" style="stroke:#000000;stroke-width:0.8;"/>
      </defs>
      <g>
       <use style="stroke:#000000;stroke-width:0.8;" x="33.64" xlink:href="#m4b47849d17" y="260.12"/>
      </g>
     </g>
     <g id="text_6">
      <!-- 0 -->
      <g transform="translate(20.2775 263.919219)scale(0.1 -0.1)">
       <use xlink:href="#DejaVuSans-48"/>
      </g>
     </g>
    </g>
    <g id="ytick_2">
     <g id="line2d_7">
      <g>
       <use style="stroke:#000000;stroke-width:0.8;" x="33.64" xlink:href="#m4b47849d17" y="230.910476"/>
      </g>
     </g>
     <g id="text_7">
      <!-- 25 -->
      <defs>
       <path d="M 19.1875 8.296875 
L 53.609375 8.296875 
L 53.609375 0 
L 7.328125 0 
L 7.328125 8.296875 
Q 12.9375 14.109375 22.625 23.890625 
Q 32.328125 33.6875 34.8125 36.53125 
Q 39.546875 41.84375 41.421875 45.53125 
Q 43.3125 49.21875 43.3125 52.78125 
Q 43.3125 58.59375 39.234375 62.25 
Q 35.15625 65.921875 28.609375 65.921875 
Q 23.96875 65.921875 18.8125 64.3125 
Q 13.671875 62.703125 7.8125 59.421875 
L 7.8125 69.390625 
Q 13.765625 71.78125 18.9375 73 
Q 24.125 74.21875 28.421875 74.21875 
Q 39.75 74.21875 46.484375 68.546875 
Q 53.21875 62.890625 53.21875 53.421875 
Q 53.21875 48.921875 51.53125 44.890625 
Q 49.859375 40.875 45.40625 35.40625 
Q 44.1875 33.984375 37.640625 27.21875 
Q 31.109375 20.453125 19.1875 8.296875 
z
" id="DejaVuSans-50"/>
       <path d="M 10.796875 72.90625 
L 49.515625 72.90625 
L 49.515625 64.59375 
L 19.828125 64.59375 
L 19.828125 46.734375 
Q 21.96875 47.46875 24.109375 47.828125 
Q 26.265625 48.1875 28.421875 48.1875 
Q 40.625 48.1875 47.75 41.5 
Q 54.890625 34.8125 54.890625 23.390625 
Q 54.890625 11.625 47.5625 5.09375 
Q 40.234375 -1.421875 26.90625 -1.421875 
Q 22.3125 -1.421875 17.546875 -0.640625 
Q 12.796875 0.140625 7.71875 1.703125 
L 7.71875 11.625 
Q 12.109375 9.234375 16.796875 8.0625 
Q 21.484375 6.890625 26.703125 6.890625 
Q 35.15625 6.890625 40.078125 11.328125 
Q 45.015625 15.765625 45.015625 23.390625 
Q 45.015625 31 40.078125 35.4375 
Q 35.15625 39.890625 26.703125 39.890625 
Q 22.75 39.890625 18.8125 39.015625 
Q 14.890625 38.140625 10.796875 36.28125 
z
" id="DejaVuSans-53"/>
      </defs>
      <g transform="translate(13.915 234.709695)scale(0.1 -0.1)">
       <use xlink:href="#DejaVuSans-50"/>
       <use x="63.623047" xlink:href="#DejaVuSans-53"/>
      </g>
     </g>
    </g>
    <g id="ytick_3">
     <g id="line2d_8">
      <g>
       <use style="stroke:#000000;stroke-width:0.8;" x="33.64" xlink:href="#m4b47849d17" y="201.700952"/>
      </g>
     </g>
     <g id="text_8">
      <!-- 50 -->
      <g transform="translate(13.915 205.500171)scale(0.1 -0.1)">
       <use xlink:href="#DejaVuSans-53"/>
       <use x="63.623047" xlink:href="#DejaVuSans-48"/>
      </g>
     </g>
    </g>
    <g id="ytick_4">
     <g id="line2d_9">
      <g>
       <use style="stroke:#000000;stroke-width:0.8;" x="33.64" xlink:href="#m4b47849d17" y="172.491429"/>
      </g>
     </g>
     <g id="text_9">
      <!-- 75 -->
      <defs>
       <path d="M 8.203125 72.90625 
L 55.078125 72.90625 
L 55.078125 68.703125 
L 28.609375 0 
L 18.3125 0 
L 43.21875 64.59375 
L 8.203125 64.59375 
z
" id="DejaVuSans-55"/>
      </defs>
      <g transform="translate(13.915 176.290647)scale(0.1 -0.1)">
       <use xlink:href="#DejaVuSans-55"/>
       <use x="63.623047" xlink:href="#DejaVuSans-53"/>
      </g>
     </g>
    </g>
    <g id="ytick_5">
     <g id="line2d_10">
      <g>
       <use style="stroke:#000000;stroke-width:0.8;" x="33.64" xlink:href="#m4b47849d17" y="143.281905"/>
      </g>
     </g>
     <g id="text_10">
      <!-- 100 -->
      <defs>
       <path d="M 12.40625 8.296875 
L 28.515625 8.296875 
L 28.515625 63.921875 
L 10.984375 60.40625 
L 10.984375 69.390625 
L 28.421875 72.90625 
L 38.28125 72.90625 
L 38.28125 8.296875 
L 54.390625 8.296875 
L 54.390625 0 
L 12.40625 0 
z
" id="DejaVuSans-49"/>
      </defs>
      <g transform="translate(7.5525 147.081124)scale(0.1 -0.1)">
       <use xlink:href="#DejaVuSans-49"/>
       <use x="63.623047" xlink:href="#DejaVuSans-48"/>
       <use x="127.246094" xlink:href="#DejaVuSans-48"/>
      </g>
     </g>
    </g>
    <g id="ytick_6">
     <g id="line2d_11">
      <g>
       <use style="stroke:#000000;stroke-width:0.8;" x="33.64" xlink:href="#m4b47849d17" y="114.072381"/>
      </g>
     </g>
     <g id="text_11">
      <!-- 125 -->
      <g transform="translate(7.5525 117.8716)scale(0.1 -0.1)">
       <use xlink:href="#DejaVuSans-49"/>
       <use x="63.623047" xlink:href="#DejaVuSans-50"/>
       <use x="127.246094" xlink:href="#DejaVuSans-53"/>
      </g>
     </g>
    </g>
    <g id="ytick_7">
     <g id="line2d_12">
      <g>
       <use style="stroke:#000000;stroke-width:0.8;" x="33.64" xlink:href="#m4b47849d17" y="84.862857"/>
      </g>
     </g>
     <g id="text_12">
      <!-- 150 -->
      <g transform="translate(7.5525 88.662076)scale(0.1 -0.1)">
       <use xlink:href="#DejaVuSans-49"/>
       <use x="63.623047" xlink:href="#DejaVuSans-53"/>
       <use x="127.246094" xlink:href="#DejaVuSans-48"/>
      </g>
     </g>
    </g>
    <g id="ytick_8">
     <g id="line2d_13">
      <g>
       <use style="stroke:#000000;stroke-width:0.8;" x="33.64" xlink:href="#m4b47849d17" y="55.653333"/>
      </g>
     </g>
     <g id="text_13">
      <!-- 175 -->
      <g transform="translate(7.5525 59.452552)scale(0.1 -0.1)">
       <use xlink:href="#DejaVuSans-49"/>
       <use x="63.623047" xlink:href="#DejaVuSans-55"/>
       <use x="127.246094" xlink:href="#DejaVuSans-53"/>
      </g>
     </g>
    </g>
    <g id="ytick_9">
     <g id="line2d_14">
      <g>
       <use style="stroke:#000000;stroke-width:0.8;" x="33.64" xlink:href="#m4b47849d17" y="26.44381"/>
      </g>
     </g>
     <g id="text_14">
      <!-- 200 -->
      <g transform="translate(7.5525 30.243028)scale(0.1 -0.1)">
       <use xlink:href="#DejaVuSans-50"/>
       <use x="63.623047" xlink:href="#DejaVuSans-48"/>
       <use x="127.246094" xlink:href="#DejaVuSans-48"/>
      </g>
     </g>
    </g>
   </g>
   <g id="line2d_15">
    <path clip-path="url(#p6bb360e741)" d="M 33.64 260.12 
L 109.362394 260.12 
L 110.789075 257.783238 
L 112.216668 257.783238 
L 113.644352 254.278095 
L 115.071846 254.278095 
L 117.923889 249.604571 
L 119.350773 248.43619 
L 120.776235 248.43619 
L 122.202128 247.26781 
L 125.054597 247.26781 
L 126.481252 242.594286 
L 127.907341 236.752381 
L 129.332829 236.752381 
L 130.759247 229.742095 
L 132.187616 226.236952 
L 133.613572 226.236952 
L 135.039787 222.73181 
L 139.316885 222.73181 
L 140.74245 219.226667 
L 142.167432 218.058286 
L 145.020189 218.058286 
L 146.445955 223.90019 
L 147.871871 223.90019 
L 149.299728 229.742095 
L 150.725113 227.405333 
L 152.151696 227.405333 
L 153.577266 232.078857 
L 155.002766 233.247238 
L 156.429394 236.752381 
L 157.855555 236.752381 
L 159.283524 234.415619 
L 160.708002 234.415619 
L 162.13386 230.910476 
L 164.984201 216.889905 
L 166.40916 216.889905 
L 167.834708 212.216381 
L 169.261141 208.711238 
L 170.688667 208.711238 
L 172.113923 197.027429 
L 173.545488 192.353905 
L 174.976318 186.512 
L 176.401414 186.512 
L 177.8278 187.680381 
L 179.25313 187.680381 
L 180.679414 181.838476 
L 182.105273 164.312762 
L 183.530188 164.312762 
L 184.956038 150.29219 
L 186.382564 139.776762 
L 187.809258 116.409143 
L 189.234611 116.409143 
L 190.659706 89.536381 
L 192.087597 89.536381 
L 193.512733 67.337143 
L 194.93789 53.316571 
L 196.36258 47.474667 
L 197.787623 47.474667 
L 199.213053 54.484952 
L 200.637989 59.158476 
L 202.064176 59.158476 
L 203.490638 76.68419 
L 204.91519 74.347429 
L 206.343149 74.347429 
L 207.769842 79.020952 
L 209.194619 81.357714 
L 210.621906 93.041524 
L 212.046737 93.041524 
L 213.47188 100.05181 
L 214.896862 109.398857 
L 216.321166 109.398857 
L 217.746908 122.251048 
L 219.171864 128.092952 
L 220.599431 128.092952 
L 222.023749 129.261333 
L 223.449039 132.766476 
L 224.874217 139.776762 
L 226.298262 139.776762 
L 227.722025 260.12 
L 307.745165 260.12 
L 309.14752 258.951619 
L 310.57685 243.762667 
L 312.005507 243.762667 
L 313.433836 240.257524 
L 314.859645 235.584 
L 317.715915 235.584 
L 319.141625 232.078857 
L 320.567109 232.078857 
L 321.993347 227.405333 
L 323.41961 223.90019 
L 324.844162 223.90019 
L 326.271642 222.73181 
L 329.121904 222.73181 
L 330.547536 225.068571 
L 331.976073 218.058286 
L 333.404264 219.226667 
L 334.828915 219.226667 
L 336.25502 216.889905 
L 337.681286 218.058286 
L 339.107745 218.058286 
L 340.532827 221.563429 
L 341.957553 219.226667 
L 343.383673 219.226667 
L 344.810824 214.553143 
L 346.235756 218.058286 
L 347.660279 218.058286 
L 349.084913 213.384762 
L 350.512883 212.216381 
L 351.940631 208.711238 
L 353.367228 208.711238 
L 356.217303 201.700952 
L 357.64484 201.700952 
L 359.072405 204.037714 
L 361.932638 204.037714 
L 363.357106 200.532571 
L 366.210198 200.532571 
L 367.637941 197.027429 
L 369.063729 187.680381 
L 370.489046 187.680381 
L 371.913751 184.175238 
L 373.339527 178.333333 
L 374.765178 178.333333 
L 376.193135 171.323048 
L 377.619021 156.134095 
L 379.045246 128.092952 
L 380.474825 128.092952 
L 381.906112 116.409143 
L 384.756782 116.409143 
L 386.186615 98.883429 
L 387.612522 98.883429 
L 389.037636 79.020952 
L 390.462572 67.337143 
L 391.887733 49.811429 
L 393.312971 49.811429 
L 394.740024 38.127619 
L 399.015348 38.127619 
L 400.443706 26.44381 
L 401.871876 26.44381 
L 403.296643 48.643048 
L 404.72248 60.326857 
L 406.147832 74.347429 
L 407.576229 74.347429 
L 410.426157 110.567238 
L 411.854937 110.567238 
L 413.27992 125.75619 
L 414.705338 137.44 
L 416.130138 151.460571 
L 417.559141 151.460571 
L 418.984507 161.976 
L 420.41073 161.976 
L 421.839972 166.649524 
L 423.264685 174.82819 
L 424.690846 175.996571 
L 427.542593 175.996571 
L 428.966969 260.12 
L 507.563437 260.12 
L 508.988355 255.446476 
L 511.839963 241.425905 
L 513.267682 241.425905 
L 514.693357 240.257524 
L 517.548883 240.257524 
L 518.97419 239.089143 
L 520.39961 239.089143 
L 521.82729 232.078857 
L 523.254493 232.078857 
L 524.680298 228.573714 
L 526.107894 228.573714 
L 527.534245 226.236952 
L 528.961419 225.068571 
L 534.667534 225.068571 
L 536.09944 226.236952 
L 538.949596 226.236952 
L 540.37483 223.90019 
L 541.801982 216.889905 
L 543.227062 219.226667 
L 544.655217 219.226667 
L 546.083008 221.563429 
L 547.508073 221.563429 
L 550.35918 214.553143 
L 551.787234 212.216381 
L 553.214976 212.216381 
L 554.639923 208.711238 
L 556.067227 206.374476 
L 557.495105 206.374476 
L 558.92072 209.879619 
L 560.347926 207.542857 
L 561.775074 206.374476 
L 563.203387 206.374476 
L 564.632129 205.206095 
L 566.057879 205.206095 
L 567.483872 198.19581 
L 568.910938 190.017143 
L 570.340185 190.017143 
L 571.7683 184.175238 
L 573.195651 171.323048 
L 574.620618 170.154667 
L 576.050608 170.154667 
L 577.478758 159.639238 
L 578.906908 159.639238 
L 580.33338 156.134095 
L 581.76106 153.797333 
L 583.189404 129.261333 
L 584.627578 129.261333 
L 586.053642 123.419429 
L 587.479409 115.240762 
L 588.906613 115.240762 
L 590.332848 98.883429 
L 591.758382 96.546667 
L 593.184566 96.546667 
L 594.611233 108.230476 
L 596.041774 101.22019 
L 597.466274 101.22019 
L 598.891059 96.546667 
L 600.319445 89.536381 
L 601.75107 95.378286 
L 603.179725 95.378286 
L 604.607263 94.209905 
L 606.035923 119.914286 
L 607.463436 119.914286 
L 608.888119 125.75619 
L 610.315809 144.450286 
L 611.743621 146.787048 
L 613.171064 146.787048 
L 614.598663 156.134095 
L 616.023142 156.134095 
L 617.451127 165.481143 
L 618.879454 171.323048 
L 620.304381 173.65981 
L 621.732899 173.65981 
L 623.160792 180.670095 
L 624.585078 181.838476 
L 627.441123 181.838476 
L 628.869192 260.12 
L 708.901789 260.12 
L 710.326494 256.614857 
L 711.750867 248.43619 
L 713.175865 248.43619 
L 714.603699 244.931048 
L 716.029218 242.594286 
L 717.454765 242.594286 
L 720.308544 235.584 
L 721.735378 230.910476 
L 723.163756 230.910476 
L 724.588906 229.742095 
L 726.014833 229.742095 
L 727.439888 226.236952 
L 728.868284 223.90019 
L 730.294338 223.90019 
L 733.146741 221.563429 
L 734.572594 225.068571 
L 735.999786 225.068571 
L 737.425465 222.73181 
L 738.852069 219.226667 
L 740.278284 219.226667 
L 741.704588 211.048 
L 743.130647 211.048 
L 744.556353 212.216381 
L 748.836296 212.216381 
L 750.263685 205.206095 
L 753.115675 205.206095 
L 754.542847 197.027429 
L 755.970012 194.690667 
L 757.397626 199.36419 
L 758.825076 199.36419 
L 760.259003 195.859048 
L 761.684942 195.859048 
L 763.11027 191.185524 
L 764.536699 184.175238 
L 765.962719 175.996571 
L 767.390052 175.996571 
L 768.816412 167.817905 
L 770.244612 161.976 
L 771.67196 161.976 
L 773.100211 157.302476 
L 774.528335 143.281905 
L 775.957899 143.281905 
L 777.386037 138.608381 
L 778.813486 128.092952 
L 780.241096 114.072381 
L 781.667328 114.072381 
L 783.092837 98.883429 
L 784.518071 104.725333 
L 785.943901 104.725333 
L 787.370618 86.031238 
L 788.796163 86.031238 
L 790.228112 70.842286 
L 791.65451 59.158476 
L 793.081229 46.306286 
L 794.509628 46.306286 
L 795.938323 28.780571 
L 797.365814 32.285714 
L 798.7914 32.285714 
L 800.218152 38.127619 
L 801.642575 31.117333 
L 803.067656 31.117333 
L 804.492564 41.632762 
L 805.918735 54.484952 
L 807.344265 62.663619 
L 808.76965 62.663619 
L 810.194185 76.68419 
L 811.625075 96.546667 
L 813.049778 96.546667 
L 814.477242 105.893714 
L 815.904687 121.082667 
L 817.329826 121.082667 
L 818.755223 126.924571 
L 820.182549 144.450286 
L 821.609964 144.450286 
L 823.034766 152.628952 
L 824.460116 158.470857 
L 827.313411 158.470857 
L 828.738509 260.12 
L 905.9407 260.12 
L 907.342976 256.614857 
L 908.768754 256.614857 
L 910.194343 254.278095 
L 911.619267 249.604571 
L 913.044599 247.26781 
L 914.472756 247.26781 
L 915.899358 242.594286 
L 917.325284 233.247238 
L 918.751961 233.247238 
L 920.17707 227.405333 
L 921.601575 227.405333 
L 923.026393 223.90019 
L 924.454691 223.90019 
L 925.87953 216.889905 
L 927.304905 216.889905 
L 928.730459 213.384762 
L 930.155359 215.721524 
L 931.580894 215.721524 
L 933.006399 216.889905 
L 934.431933 220.395048 
L 937.289072 220.395048 
L 938.714047 221.563429 
L 940.139278 221.563429 
L 941.564601 219.226667 
L 942.990192 225.068571 
L 945.839445 225.068571 
L 947.264056 220.395048 
L 948.690401 222.73181 
L 950.117797 222.73181 
L 951.54409 220.395048 
L 952.971883 220.395048 
L 954.397808 218.058286 
L 955.822744 206.374476 
L 957.247866 202.869333 
L 958.674549 202.869333 
L 960.098923 194.690667 
L 961.524657 187.680381 
L 962.949272 187.680381 
L 964.377531 181.838476 
L 965.808213 171.323048 
L 967.235095 164.312762 
L 968.664508 164.312762 
L 970.089173 158.470857 
L 971.514163 158.470857 
L 972.943575 153.797333 
L 974.369435 147.955429 
L 975.796024 145.618667 
L 977.225029 145.618667 
L 978.65138 137.44 
L 980.077211 150.29219 
L 981.502445 150.29219 
L 982.934583 161.976 
L 984.359955 160.807619 
L 985.784631 160.807619 
L 987.209801 150.29219 
L 988.635242 144.450286 
L 990.062597 144.450286 
L 991.488582 135.103238 
L 992.914084 126.924571 
L 994.341742 126.924571 
L 995.76716 125.75619 
L 997.193263 128.092952 
L 998.623042 125.75619 
L 1000.061645 125.75619 
L 1001.491515 130.429714 
L 1002.922213 131.598095 
L 1004.353624 131.598095 
L 1005.795412 143.281905 
L 1008.658405 143.281905 
L 1010.089849 151.460571 
L 1011.516194 158.470857 
L 1012.948497 160.807619 
L 1014.375388 160.807619 
L 1015.803932 166.649524 
L 1017.230016 166.649524 
L 1018.658145 179.501714 
L 1020.084386 185.343619 
L 1021.510329 187.680381 
L 1022.935139 187.680381 
L 1024.362496 193.522286 
L 1027.21432 193.522286 
L 1028.652563 260.12 
L 1105.841066 260.12 
L 1107.242853 253.109714 
L 1108.668496 251.941333 
L 1110.095314 251.941333 
L 1111.522267 241.425905 
L 1112.946519 235.584 
L 1114.370955 235.584 
L 1115.795824 233.247238 
L 1117.220014 233.247238 
L 1118.644245 220.395048 
L 1120.070829 209.879619 
L 1121.495142 207.542857 
L 1122.919874 207.542857 
L 1125.768906 193.522286 
L 1127.192825 193.522286 
L 1130.044936 186.512 
L 1131.469332 187.680381 
L 1133.28 187.680381 
L 1133.28 187.680381 
" style="fill:none;stroke:#1f77b4;stroke-linecap:square;stroke-width:1.5;"/>
   </g>
   <g id="patch_3">
    <path d="M 33.64 260.12 
L 33.64 14.76 
" style="fill:none;stroke:#000000;stroke-linecap:square;stroke-linejoin:miter;stroke-width:0.8;"/>
   </g>
   <g id="patch_4">
    <path d="M 1133.28 260.12 
L 1133.28 14.76 
" style="fill:none;stroke:#000000;stroke-linecap:square;stroke-linejoin:miter;stroke-width:0.8;"/>
   </g>
   <g id="patch_5">
    <path d="M 33.64 260.12 
L 1133.28 260.12 
" style="fill:none;stroke:#000000;stroke-linecap:square;stroke-linejoin:miter;stroke-width:0.8;"/>
   </g>
   <g id="patch_6">
    <path d="M 33.64 14.76 
L 1133.28 14.76 
" style="fill:none;stroke:#000000;stroke-linecap:square;stroke-linejoin:miter;stroke-width:0.8;"/>
   </g>
  </g>
 </g>
 <defs>
  <clipPath id="p6bb360e741">
   <rect height="245.36" width="1099.64" x="33.64" y="14.76"/>
  </clipPath>
 </defs>
</svg>
