<?xml version="1.0" encoding="utf-8" standalone="no"?>
<!DOCTYPE svg PUBLIC "-//W3C//DTD SVG 1.1//EN"
  "http://www.w3.org/Graphics/SVG/1.1/DTD/svg11.dtd">
<!-- Created with matplotlib (https://matplotlib.org/) -->
<svg height="288pt" version="1.1" viewBox="0 0 1152 288" width="1152pt" xmlns="http://www.w3.org/2000/svg" xmlns:xlink="http://www.w3.org/1999/xlink">
 <defs>
  <style type="text/css">
*{stroke-linecap:butt;stroke-linejoin:round;}
  </style>
 </defs>
 <g id="figure_1">
  <g id="patch_1">
   <path d="M 0 288 
L 1152 288 
L 1152 0 
L 0 0 
z
" style="fill:#ffffff;"/>
  </g>
  <g id="axes_1">
   <g id="patch_2">
    <path d="M 33.64 260.12 
L 1133.28 260.12 
L 1133.28 14.76 
L 33.64 14.76 
z
" style="fill:#ffffff;"/>
   </g>
   <g id="matplotlib.axis_1">
    <g id="xtick_1">
     <g id="line2d_1">
      <defs>
       <path d="M 0 0 
L 0 3.5 
" id="mbaa1d8d122" style="stroke:#000000;stroke-width:0.8;"/>
      </defs>
      <g>
       <use style="stroke:#000000;stroke-width:0.8;" x="227.716907" xlink:href="#mbaa1d8d122" y="260.12"/>
      </g>
     </g>
     <g id="text_1">
      <!-- Tue 00:00 -->
      <defs>
       <path d="M -0.296875 72.90625 
L 61.375 72.90625 
L 61.375 64.59375 
L 35.5 64.59375 
L 35.5 0 
L 25.59375 0 
L 25.59375 64.59375 
L -0.296875 64.59375 
z
" id="DejaVuSans-84"/>
       <path d="M 8.5 21.578125 
L 8.5 54.6875 
L 17.484375 54.6875 
L 17.484375 21.921875 
Q 17.484375 14.15625 20.5 10.265625 
Q 23.53125 6.390625 29.59375 6.390625 
Q 36.859375 6.390625 41.078125 11.03125 
Q 45.3125 15.671875 45.3125 23.6875 
L 45.3125 54.6875 
L 54.296875 54.6875 
L 54.296875 0 
L 45.3125 0 
L 45.3125 8.40625 
Q 42.046875 3.421875 37.71875 1 
Q 33.40625 -1.421875 27.6875 -1.421875 
Q 18.265625 -1.421875 13.375 4.4375 
Q 8.5 10.296875 8.5 21.578125 
z
M 31.109375 56 
z
" id="DejaVuSans-117"/>
       <path d="M 56.203125 29.59375 
L 56.203125 25.203125 
L 14.890625 25.203125 
Q 15.484375 15.921875 20.484375 11.0625 
Q 25.484375 6.203125 34.421875 6.203125 
Q 39.59375 6.203125 44.453125 7.46875 
Q 49.3125 8.734375 54.109375 11.28125 
L 54.109375 2.78125 
Q 49.265625 0.734375 44.1875 -0.34375 
Q 39.109375 -1.421875 33.890625 -1.421875 
Q 20.796875 -1.421875 13.15625 6.1875 
Q 5.515625 13.8125 5.515625 26.8125 
Q 5.515625 40.234375 12.765625 48.109375 
Q 20.015625 56 32.328125 56 
Q 43.359375 56 49.78125 48.890625 
Q 56.203125 41.796875 56.203125 29.59375 
z
M 47.21875 32.234375 
Q 47.125 39.59375 43.09375 43.984375 
Q 39.0625 48.390625 32.421875 48.390625 
Q 24.90625 48.390625 20.390625 44.140625 
Q 15.875 39.890625 15.1875 32.171875 
z
" id="DejaVuSans-101"/>
       <path id="DejaVuSans-32"/>
       <path d="M 31.78125 66.40625 
Q 24.171875 66.40625 20.328125 58.90625 
Q 16.5 51.421875 16.5 36.375 
Q 16.5 21.390625 20.328125 13.890625 
Q 24.171875 6.390625 31.78125 6.390625 
Q 39.453125 6.390625 43.28125 13.890625 
Q 47.125 21.390625 47.125 36.375 
Q 47.125 51.421875 43.28125 58.90625 
Q 39.453125 66.40625 31.78125 66.40625 
z
M 31.78125 74.21875 
Q 44.046875 74.21875 50.515625 64.515625 
Q 56.984375 54.828125 56.984375 36.375 
Q 56.984375 17.96875 50.515625 8.265625 
Q 44.046875 -1.421875 31.78125 -1.421875 
Q 19.53125 -1.421875 13.0625 8.265625 
Q 6.59375 17.96875 6.59375 36.375 
Q 6.59375 54.828125 13.0625 64.515625 
Q 19.53125 74.21875 31.78125 74.21875 
z
" id="DejaVuSans-48"/>
       <path d="M 11.71875 12.40625 
L 22.015625 12.40625 
L 22.015625 0 
L 11.71875 0 
z
M 11.71875 51.703125 
L 22.015625 51.703125 
L 22.015625 39.3125 
L 11.71875 39.3125 
z
" id="DejaVuSans-58"/>
      </defs>
      <g transform="translate(202.430969 274.718437)scale(0.1 -0.1)">
       <use xlink:href="#DejaVuSans-84"/>
       <use x="60.849609" xlink:href="#DejaVuSans-117"/>
       <use x="124.228516" xlink:href="#DejaVuSans-101"/>
       <use x="185.751953" xlink:href="#DejaVuSans-32"/>
       <use x="217.539062" xlink:href="#DejaVuSans-48"/>
       <use x="281.162109" xlink:href="#DejaVuSans-48"/>
       <use x="344.785156" xlink:href="#DejaVuSans-58"/>
       <use x="378.476562" xlink:href="#DejaVuSans-48"/>
       <use x="442.099609" xlink:href="#DejaVuSans-48"/>
      </g>
     </g>
    </g>
    <g id="xtick_2">
     <g id="line2d_2">
      <g>
       <use style="stroke:#000000;stroke-width:0.8;" x="421.99074" xlink:href="#mbaa1d8d122" y="260.12"/>
      </g>
     </g>
     <g id="text_2">
      <!-- Wed 00:00 -->
      <defs>
       <path d="M 3.328125 72.90625 
L 13.28125 72.90625 
L 28.609375 11.28125 
L 43.890625 72.90625 
L 54.984375 72.90625 
L 70.3125 11.28125 
L 85.59375 72.90625 
L 95.609375 72.90625 
L 77.296875 0 
L 64.890625 0 
L 49.515625 63.28125 
L 33.984375 0 
L 21.578125 0 
z
" id="DejaVuSans-87"/>
       <path d="M 45.40625 46.390625 
L 45.40625 75.984375 
L 54.390625 75.984375 
L 54.390625 0 
L 45.40625 0 
L 45.40625 8.203125 
Q 42.578125 3.328125 38.25 0.953125 
Q 33.9375 -1.421875 27.875 -1.421875 
Q 17.96875 -1.421875 11.734375 6.484375 
Q 5.515625 14.40625 5.515625 27.296875 
Q 5.515625 40.1875 11.734375 48.09375 
Q 17.96875 56 27.875 56 
Q 33.9375 56 38.25 53.625 
Q 42.578125 51.265625 45.40625 46.390625 
z
M 14.796875 27.296875 
Q 14.796875 17.390625 18.875 11.75 
Q 22.953125 6.109375 30.078125 6.109375 
Q 37.203125 6.109375 41.296875 11.75 
Q 45.40625 17.390625 45.40625 27.296875 
Q 45.40625 37.203125 41.296875 42.84375 
Q 37.203125 48.484375 30.078125 48.484375 
Q 22.953125 48.484375 18.875 42.84375 
Q 14.796875 37.203125 14.796875 27.296875 
z
" id="DejaVuSans-100"/>
      </defs>
      <g transform="translate(394.801678 274.718437)scale(0.1 -0.1)">
       <use xlink:href="#DejaVuSans-87"/>
       <use x="98.798828" xlink:href="#DejaVuSans-101"/>
       <use x="160.322266" xlink:href="#DejaVuSans-100"/>
       <use x="223.798828" xlink:href="#DejaVuSans-32"/>
       <use x="255.585938" xlink:href="#DejaVuSans-48"/>
       <use x="319.208984" xlink:href="#DejaVuSans-48"/>
       <use x="382.832031" xlink:href="#DejaVuSans-58"/>
       <use x="416.523438" xlink:href="#DejaVuSans-48"/>
       <use x="480.146484" xlink:href="#DejaVuSans-48"/>
      </g>
     </g>
    </g>
    <g id="xtick_3">
     <g id="line2d_3">
      <g>
       <use style="stroke:#000000;stroke-width:0.8;" x="616.264574" xlink:href="#mbaa1d8d122" y="260.12"/>
      </g>
     </g>
     <g id="text_3">
      <!-- Thu 00:00 -->
      <defs>
       <path d="M 54.890625 33.015625 
L 54.890625 0 
L 45.90625 0 
L 45.90625 32.71875 
Q 45.90625 40.484375 42.875 44.328125 
Q 39.84375 48.1875 33.796875 48.1875 
Q 26.515625 48.1875 22.3125 43.546875 
Q 18.109375 38.921875 18.109375 30.90625 
L 18.109375 0 
L 9.078125 0 
L 9.078125 75.984375 
L 18.109375 75.984375 
L 18.109375 46.1875 
Q 21.34375 51.125 25.703125 53.5625 
Q 30.078125 56 35.796875 56 
Q 45.21875 56 50.046875 50.171875 
Q 54.890625 44.34375 54.890625 33.015625 
z
" id="DejaVuSans-104"/>
      </defs>
      <g transform="translate(590.87473 274.718437)scale(0.1 -0.1)">
       <use xlink:href="#DejaVuSans-84"/>
       <use x="61.083984" xlink:href="#DejaVuSans-104"/>
       <use x="124.462891" xlink:href="#DejaVuSans-117"/>
       <use x="187.841797" xlink:href="#DejaVuSans-32"/>
       <use x="219.628906" xlink:href="#DejaVuSans-48"/>
       <use x="283.251953" xlink:href="#DejaVuSans-48"/>
       <use x="346.875" xlink:href="#DejaVuSans-58"/>
       <use x="380.566406" xlink:href="#DejaVuSans-48"/>
       <use x="444.189453" xlink:href="#DejaVuSans-48"/>
      </g>
     </g>
    </g>
    <g id="xtick_4">
     <g id="line2d_4">
      <g>
       <use style="stroke:#000000;stroke-width:0.8;" x="810.538408" xlink:href="#mbaa1d8d122" y="260.12"/>
      </g>
     </g>
     <g id="text_4">
      <!-- Fri 00:00 -->
      <defs>
       <path d="M 9.8125 72.90625 
L 51.703125 72.90625 
L 51.703125 64.59375 
L 19.671875 64.59375 
L 19.671875 43.109375 
L 48.578125 43.109375 
L 48.578125 34.8125 
L 19.671875 34.8125 
L 19.671875 0 
L 9.8125 0 
z
" id="DejaVuSans-70"/>
       <path d="M 41.109375 46.296875 
Q 39.59375 47.171875 37.8125 47.578125 
Q 36.03125 48 33.890625 48 
Q 26.265625 48 22.1875 43.046875 
Q 18.109375 38.09375 18.109375 28.8125 
L 18.109375 0 
L 9.078125 0 
L 9.078125 54.6875 
L 18.109375 54.6875 
L 18.109375 46.1875 
Q 20.953125 51.171875 25.484375 53.578125 
Q 30.03125 56 36.53125 56 
Q 37.453125 56 38.578125 55.875 
Q 39.703125 55.765625 41.0625 55.515625 
z
" id="DejaVuSans-114"/>
       <path d="M 9.421875 54.6875 
L 18.40625 54.6875 
L 18.40625 0 
L 9.421875 0 
z
M 9.421875 75.984375 
L 18.40625 75.984375 
L 18.40625 64.59375 
L 9.421875 64.59375 
z
" id="DejaVuSans-105"/>
      </defs>
      <g transform="translate(788.225126 274.718437)scale(0.1 -0.1)">
       <use xlink:href="#DejaVuSans-70"/>
       <use x="57.410156" xlink:href="#DejaVuSans-114"/>
       <use x="98.523438" xlink:href="#DejaVuSans-105"/>
       <use x="126.306641" xlink:href="#DejaVuSans-32"/>
       <use x="158.09375" xlink:href="#DejaVuSans-48"/>
       <use x="221.716797" xlink:href="#DejaVuSans-48"/>
       <use x="285.339844" xlink:href="#DejaVuSans-58"/>
       <use x="319.03125" xlink:href="#DejaVuSans-48"/>
       <use x="382.654297" xlink:href="#DejaVuSans-48"/>
      </g>
     </g>
    </g>
    <g id="xtick_5">
     <g id="line2d_5">
      <g>
       <use style="stroke:#000000;stroke-width:0.8;" x="1004.812241" xlink:href="#mbaa1d8d122" y="260.12"/>
      </g>
     </g>
     <g id="text_5">
      <!-- Sat 00:00 -->
      <defs>
       <path d="M 53.515625 70.515625 
L 53.515625 60.890625 
Q 47.90625 63.578125 42.921875 64.890625 
Q 37.9375 66.21875 33.296875 66.21875 
Q 25.25 66.21875 20.875 63.09375 
Q 16.5 59.96875 16.5 54.203125 
Q 16.5 49.359375 19.40625 46.890625 
Q 22.3125 44.4375 30.421875 42.921875 
L 36.375 41.703125 
Q 47.40625 39.59375 52.65625 34.296875 
Q 57.90625 29 57.90625 20.125 
Q 57.90625 9.515625 50.796875 4.046875 
Q 43.703125 -1.421875 29.984375 -1.421875 
Q 24.8125 -1.421875 18.96875 -0.25 
Q 13.140625 0.921875 6.890625 3.21875 
L 6.890625 13.375 
Q 12.890625 10.015625 18.65625 8.296875 
Q 24.421875 6.59375 29.984375 6.59375 
Q 38.421875 6.59375 43.015625 9.90625 
Q 47.609375 13.234375 47.609375 19.390625 
Q 47.609375 24.75 44.3125 27.78125 
Q 41.015625 30.8125 33.5 32.328125 
L 27.484375 33.5 
Q 16.453125 35.6875 11.515625 40.375 
Q 6.59375 45.0625 6.59375 53.421875 
Q 6.59375 63.09375 13.40625 68.65625 
Q 20.21875 74.21875 32.171875 74.21875 
Q 37.3125 74.21875 42.625 73.28125 
Q 47.953125 72.359375 53.515625 70.515625 
z
" id="DejaVuSans-83"/>
       <path d="M 34.28125 27.484375 
Q 23.390625 27.484375 19.1875 25 
Q 14.984375 22.515625 14.984375 16.5 
Q 14.984375 11.71875 18.140625 8.90625 
Q 21.296875 6.109375 26.703125 6.109375 
Q 34.1875 6.109375 38.703125 11.40625 
Q 43.21875 16.703125 43.21875 25.484375 
L 43.21875 27.484375 
z
M 52.203125 31.203125 
L 52.203125 0 
L 43.21875 0 
L 43.21875 8.296875 
Q 40.140625 3.328125 35.546875 0.953125 
Q 30.953125 -1.421875 24.3125 -1.421875 
Q 15.921875 -1.421875 10.953125 3.296875 
Q 6 8.015625 6 15.921875 
Q 6 25.140625 12.171875 29.828125 
Q 18.359375 34.515625 30.609375 34.515625 
L 43.21875 34.515625 
L 43.21875 35.40625 
Q 43.21875 41.609375 39.140625 45 
Q 35.0625 48.390625 27.6875 48.390625 
Q 23 48.390625 18.546875 47.265625 
Q 14.109375 46.140625 10.015625 43.890625 
L 10.015625 52.203125 
Q 14.9375 54.109375 19.578125 55.046875 
Q 24.21875 56 28.609375 56 
Q 40.484375 56 46.34375 49.84375 
Q 52.203125 43.703125 52.203125 31.203125 
z
" id="DejaVuSans-97"/>
       <path d="M 18.3125 70.21875 
L 18.3125 54.6875 
L 36.8125 54.6875 
L 36.8125 47.703125 
L 18.3125 47.703125 
L 18.3125 18.015625 
Q 18.3125 11.328125 20.140625 9.421875 
Q 21.96875 7.515625 27.59375 7.515625 
L 36.8125 7.515625 
L 36.8125 0 
L 27.59375 0 
Q 17.1875 0 13.234375 3.875 
Q 9.28125 7.765625 9.28125 18.015625 
L 9.28125 47.703125 
L 2.6875 47.703125 
L 2.6875 54.6875 
L 9.28125 54.6875 
L 9.28125 70.21875 
z
" id="DejaVuSans-116"/>
      </defs>
      <g transform="translate(980.615366 274.718437)scale(0.1 -0.1)">
       <use xlink:href="#DejaVuSans-83"/>
       <use x="63.476562" xlink:href="#DejaVuSans-97"/>
       <use x="124.755859" xlink:href="#DejaVuSans-116"/>
       <use x="163.964844" xlink:href="#DejaVuSans-32"/>
       <use x="195.751953" xlink:href="#DejaVuSans-48"/>
       <use x="259.375" xlink:href="#DejaVuSans-48"/>
       <use x="322.998047" xlink:href="#DejaVuSans-58"/>
       <use x="356.689453" xlink:href="#DejaVuSans-48"/>
       <use x="420.3125" xlink:href="#DejaVuSans-48"/>
      </g>
     </g>
    </g>
   </g>
   <g id="matplotlib.axis_2">
    <g id="ytick_1">
     <g id="line2d_6">
      <defs>
       <path d="M 0 0 
L -3.5 0 
" id="m9b30cbffa0" style="stroke:#000000;stroke-width:0.8;"/>
      </defs>
      <g>
       <use style="stroke:#000000;stroke-width:0.8;" x="33.64" xlink:href="#m9b30cbffa0" y="260.12"/>
      </g>
     </g>
     <g id="text_6">
      <!-- 0 -->
      <g transform="translate(20.2775 263.919219)scale(0.1 -0.1)">
       <use xlink:href="#DejaVuSans-48"/>
      </g>
     </g>
    </g>
    <g id="ytick_2">
     <g id="line2d_7">
      <g>
       <use style="stroke:#000000;stroke-width:0.8;" x="33.64" xlink:href="#m9b30cbffa0" y="230.910476"/>
      </g>
     </g>
     <g id="text_7">
      <!-- 25 -->
      <defs>
       <path d="M 19.1875 8.296875 
L 53.609375 8.296875 
L 53.609375 0 
L 7.328125 0 
L 7.328125 8.296875 
Q 12.9375 14.109375 22.625 23.890625 
Q 32.328125 33.6875 34.8125 36.53125 
Q 39.546875 41.84375 41.421875 45.53125 
Q 43.3125 49.21875 43.3125 52.78125 
Q 43.3125 58.59375 39.234375 62.25 
Q 35.15625 65.921875 28.609375 65.921875 
Q 23.96875 65.921875 18.8125 64.3125 
Q 13.671875 62.703125 7.8125 59.421875 
L 7.8125 69.390625 
Q 13.765625 71.78125 18.9375 73 
Q 24.125 74.21875 28.421875 74.21875 
Q 39.75 74.21875 46.484375 68.546875 
Q 53.21875 62.890625 53.21875 53.421875 
Q 53.21875 48.921875 51.53125 44.890625 
Q 49.859375 40.875 45.40625 35.40625 
Q 44.1875 33.984375 37.640625 27.21875 
Q 31.109375 20.453125 19.1875 8.296875 
z
" id="DejaVuSans-50"/>
       <path d="M 10.796875 72.90625 
L 49.515625 72.90625 
L 49.515625 64.59375 
L 19.828125 64.59375 
L 19.828125 46.734375 
Q 21.96875 47.46875 24.109375 47.828125 
Q 26.265625 48.1875 28.421875 48.1875 
Q 40.625 48.1875 47.75 41.5 
Q 54.890625 34.8125 54.890625 23.390625 
Q 54.890625 11.625 47.5625 5.09375 
Q 40.234375 -1.421875 26.90625 -1.421875 
Q 22.3125 -1.421875 17.546875 -0.640625 
Q 12.796875 0.140625 7.71875 1.703125 
L 7.71875 11.625 
Q 12.109375 9.234375 16.796875 8.0625 
Q 21.484375 6.890625 26.703125 6.890625 
Q 35.15625 6.890625 40.078125 11.328125 
Q 45.015625 15.765625 45.015625 23.390625 
Q 45.015625 31 40.078125 35.4375 
Q 35.15625 39.890625 26.703125 39.890625 
Q 22.75 39.890625 18.8125 39.015625 
Q 14.890625 38.140625 10.796875 36.28125 
z
" id="DejaVuSans-53"/>
      </defs>
      <g transform="translate(13.915 234.709695)scale(0.1 -0.1)">
       <use xlink:href="#DejaVuSans-50"/>
       <use x="63.623047" xlink:href="#DejaVuSans-53"/>
      </g>
     </g>
    </g>
    <g id="ytick_3">
     <g id="line2d_8">
      <g>
       <use style="stroke:#000000;stroke-width:0.8;" x="33.64" xlink:href="#m9b30cbffa0" y="201.700952"/>
      </g>
     </g>
     <g id="text_8">
      <!-- 50 -->
      <g transform="translate(13.915 205.500171)scale(0.1 -0.1)">
       <use xlink:href="#DejaVuSans-53"/>
       <use x="63.623047" xlink:href="#DejaVuSans-48"/>
      </g>
     </g>
    </g>
    <g id="ytick_4">
     <g id="line2d_9">
      <g>
       <use style="stroke:#000000;stroke-width:0.8;" x="33.64" xlink:href="#m9b30cbffa0" y="172.491429"/>
      </g>
     </g>
     <g id="text_9">
      <!-- 75 -->
      <defs>
       <path d="M 8.203125 72.90625 
L 55.078125 72.90625 
L 55.078125 68.703125 
L 28.609375 0 
L 18.3125 0 
L 43.21875 64.59375 
L 8.203125 64.59375 
z
" id="DejaVuSans-55"/>
      </defs>
      <g transform="translate(13.915 176.290647)scale(0.1 -0.1)">
       <use xlink:href="#DejaVuSans-55"/>
       <use x="63.623047" xlink:href="#DejaVuSans-53"/>
      </g>
     </g>
    </g>
    <g id="ytick_5">
     <g id="line2d_10">
      <g>
       <use style="stroke:#000000;stroke-width:0.8;" x="33.64" xlink:href="#m9b30cbffa0" y="143.281905"/>
      </g>
     </g>
     <g id="text_10">
      <!-- 100 -->
      <defs>
       <path d="M 12.40625 8.296875 
L 28.515625 8.296875 
L 28.515625 63.921875 
L 10.984375 60.40625 
L 10.984375 69.390625 
L 28.421875 72.90625 
L 38.28125 72.90625 
L 38.28125 8.296875 
L 54.390625 8.296875 
L 54.390625 0 
L 12.40625 0 
z
" id="DejaVuSans-49"/>
      </defs>
      <g transform="translate(7.5525 147.081124)scale(0.1 -0.1)">
       <use xlink:href="#DejaVuSans-49"/>
       <use x="63.623047" xlink:href="#DejaVuSans-48"/>
       <use x="127.246094" xlink:href="#DejaVuSans-48"/>
      </g>
     </g>
    </g>
    <g id="ytick_6">
     <g id="line2d_11">
      <g>
       <use style="stroke:#000000;stroke-width:0.8;" x="33.64" xlink:href="#m9b30cbffa0" y="114.072381"/>
      </g>
     </g>
     <g id="text_11">
      <!-- 125 -->
      <g transform="translate(7.5525 117.8716)scale(0.1 -0.1)">
       <use xlink:href="#DejaVuSans-49"/>
       <use x="63.623047" xlink:href="#DejaVuSans-50"/>
       <use x="127.246094" xlink:href="#DejaVuSans-53"/>
      </g>
     </g>
    </g>
    <g id="ytick_7">
     <g id="line2d_12">
      <g>
       <use style="stroke:#000000;stroke-width:0.8;" x="33.64" xlink:href="#m9b30cbffa0" y="84.862857"/>
      </g>
     </g>
     <g id="text_12">
      <!-- 150 -->
      <g transform="translate(7.5525 88.662076)scale(0.1 -0.1)">
       <use xlink:href="#DejaVuSans-49"/>
       <use x="63.623047" xlink:href="#DejaVuSans-53"/>
       <use x="127.246094" xlink:href="#DejaVuSans-48"/>
      </g>
     </g>
    </g>
    <g id="ytick_8">
     <g id="line2d_13">
      <g>
       <use style="stroke:#000000;stroke-width:0.8;" x="33.64" xlink:href="#m9b30cbffa0" y="55.653333"/>
      </g>
     </g>
     <g id="text_13">
      <!-- 175 -->
      <g transform="translate(7.5525 59.452552)scale(0.1 -0.1)">
       <use xlink:href="#DejaVuSans-49"/>
       <use x="63.623047" xlink:href="#DejaVuSans-55"/>
       <use x="127.246094" xlink:href="#DejaVuSans-53"/>
      </g>
     </g>
    </g>
    <g id="ytick_9">
     <g id="line2d_14">
      <g>
       <use style="stroke:#000000;stroke-width:0.8;" x="33.64" xlink:href="#m9b30cbffa0" y="26.44381"/>
      </g>
     </g>
     <g id="text_14">
      <!-- 200 -->
      <g transform="translate(7.5525 30.243028)scale(0.1 -0.1)">
       <use xlink:href="#DejaVuSans-50"/>
       <use x="63.623047" xlink:href="#DejaVuSans-48"/>
       <use x="127.246094" xlink:href="#DejaVuSans-48"/>
      </g>
     </g>
    </g>
   </g>
   <g id="line2d_15">
    <path clip-path="url(#p3a664d5074)" d="M 33.64 260.12 
L 107.355564 260.12 
L 108.744434 257.783238 
L 110.134193 257.783238 
L 111.524039 254.278095 
L 112.913701 254.278095 
L 115.690158 249.604571 
L 117.079226 248.43619 
L 118.466909 248.43619 
L 119.855013 247.26781 
L 122.631885 247.26781 
L 124.02073 242.594286 
L 125.409024 236.752381 
L 126.796733 236.752381 
L 128.185348 229.742095 
L 129.575861 226.236952 
L 130.964026 226.236952 
L 132.352443 222.73181 
L 136.516187 222.73181 
L 137.903971 219.226667 
L 139.291188 218.058286 
L 142.068339 218.058286 
L 143.456319 223.90019 
L 144.844445 223.90019 
L 146.23446 229.742095 
L 147.622069 227.405333 
L 149.010844 227.405333 
L 150.398632 232.078857 
L 151.786353 233.247238 
L 153.175172 236.752381 
L 154.563537 236.752381 
L 155.953661 234.415619 
L 157.340387 234.415619 
L 158.728456 230.910476 
L 161.503256 216.889905 
L 162.89045 216.889905 
L 164.278217 212.216381 
L 165.666846 208.711238 
L 167.05654 208.711238 
L 168.444022 197.027429 
L 169.837648 192.353905 
L 171.230557 186.512 
L 172.617885 186.512 
L 174.006468 187.680381 
L 175.394023 187.680381 
L 176.782507 181.838476 
L 178.170577 164.312762 
L 179.557728 164.312762 
L 180.94579 150.29219 
L 182.334509 139.776762 
L 183.723392 116.409143 
L 185.110971 116.409143 
L 186.498296 89.536381 
L 187.888345 89.536381 
L 189.275711 67.337143 
L 190.663098 53.316571 
L 192.05003 47.474667 
L 193.437306 47.474667 
L 194.824959 54.484952 
L 196.21213 59.158476 
L 197.60052 59.158476 
L 198.989177 76.68419 
L 200.375975 74.347429 
L 201.76609 74.347429 
L 203.154972 79.020952 
L 204.541989 81.357714 
L 205.931449 93.041524 
L 207.318519 93.041524 
L 208.705892 100.05181 
L 210.093108 109.398857 
L 211.479665 109.398857 
L 212.867621 122.251048 
L 214.254812 128.092952 
L 215.644545 128.092952 
L 217.031115 129.261333 
L 218.418632 132.766476 
L 219.806039 139.776762 
L 221.192343 139.776762 
L 222.578372 260.12 
L 300.480702 260.12 
L 301.845891 258.951619 
L 303.237341 243.762667 
L 304.628134 243.762667 
L 306.01861 240.257524 
L 307.406631 235.584 
L 310.187203 235.584 
L 311.575128 232.078857 
L 312.962833 232.078857 
L 314.351272 227.405333 
L 315.739736 223.90019 
L 317.126534 223.90019 
L 318.516182 222.73181 
L 321.290905 222.73181 
L 322.678754 225.068571 
L 324.069431 218.058286 
L 325.459772 219.226667 
L 326.846666 219.226667 
L 328.234975 216.889905 
L 329.623442 218.058286 
L 331.012097 218.058286 
L 332.39941 221.563429 
L 333.786377 219.226667 
L 335.174702 219.226667 
L 336.56403 214.553143 
L 337.951198 218.058286 
L 339.337967 218.058286 
L 340.724845 213.384762 
L 342.114971 212.216381 
L 343.50488 208.711238 
L 344.893668 208.711238 
L 347.668209 201.700952 
L 349.057913 201.700952 
L 350.447644 204.037714 
L 353.232073 204.037714 
L 354.61879 200.532571 
L 357.396268 200.532571 
L 358.786172 197.027429 
L 360.174173 187.680381 
L 361.561715 187.680381 
L 362.948662 184.175238 
L 364.336652 178.333333 
L 365.72452 178.333333 
L 367.114632 171.323048 
L 368.502729 156.134095 
L 369.891155 128.092952 
L 371.282847 128.092952 
L 372.676201 116.409143 
L 375.451321 116.409143 
L 376.84326 98.883429 
L 378.231377 98.883429 
L 379.618722 79.020952 
L 381.005894 67.337143 
L 382.393285 49.811429 
L 383.780751 49.811429 
L 385.169983 38.127619 
L 389.332 38.127619 
L 390.722504 26.44381 
L 392.112824 26.44381 
L 393.499831 48.643048 
L 394.88788 60.326857 
L 396.275456 74.347429 
L 397.665997 74.347429 
L 400.440395 110.567238 
L 401.831309 110.567238 
L 403.218526 125.75619 
L 404.606167 137.44 
L 405.993206 151.460571 
L 407.384337 151.460571 
L 408.771927 161.976 
L 410.160352 161.976 
L 411.551716 166.649524 
L 412.93867 174.82819 
L 414.327035 175.996571 
L 417.103203 175.996571 
L 418.489829 260.12 
L 495.003297 260.12 
L 496.390451 255.446476 
L 499.166485 241.425905 
L 500.556366 241.425905 
L 501.944257 240.257524 
L 504.724105 240.257524 
L 506.111638 239.089143 
L 507.49928 239.089143 
L 508.889124 232.078857 
L 510.278502 232.078857 
L 511.666519 228.573714 
L 513.05628 228.573714 
L 514.444829 226.236952 
L 515.83418 225.068571 
L 521.389069 225.068571 
L 522.783026 226.236952 
L 525.557646 226.236952 
L 526.945108 223.90019 
L 528.334437 216.889905 
L 529.721749 219.226667 
L 531.112054 219.226667 
L 532.502005 221.563429 
L 533.889302 221.563429 
L 536.664848 214.553143 
L 538.055055 212.216381 
L 539.444958 212.216381 
L 540.83214 208.711238 
L 542.221617 206.374476 
L 543.611653 206.374476 
L 544.999485 209.879619 
L 546.388867 207.542857 
L 547.778193 206.374476 
L 549.168652 206.374476 
L 550.559528 205.206095 
L 551.947492 205.206095 
L 553.335693 198.19581 
L 554.724939 190.017143 
L 556.116306 190.017143 
L 557.506573 184.175238 
L 558.896095 171.323048 
L 560.283297 170.154667 
L 561.67539 170.154667 
L 563.06569 159.639238 
L 564.45599 159.639238 
L 565.844658 156.134095 
L 567.2345 153.797333 
L 568.62499 129.261333 
L 570.025049 129.261333 
L 571.413318 123.419429 
L 572.801299 115.240762 
L 574.190678 115.240762 
L 575.579114 98.883429 
L 576.966869 96.546667 
L 578.355256 96.546667 
L 579.744112 108.230476 
L 581.13674 101.22019 
L 582.523487 101.22019 
L 583.910512 96.546667 
L 585.301043 89.536381 
L 586.694726 95.378286 
L 588.085518 95.378286 
L 589.475222 94.209905 
L 590.86602 119.914286 
L 592.2557 119.914286 
L 593.642625 125.75619 
L 595.032478 144.450286 
L 596.422449 146.787048 
L 597.812062 146.787048 
L 599.201826 156.134095 
L 600.588553 156.134095 
L 601.978693 165.481143 
L 603.369166 171.323048 
L 604.756328 173.65981 
L 606.146987 173.65981 
L 607.537037 180.670095 
L 608.923577 181.838476 
L 611.703929 181.838476 
L 613.094151 260.12 
L 691.005687 260.12 
L 692.392633 256.614857 
L 693.779257 248.43619 
L 695.166489 248.43619 
L 696.556482 244.931048 
L 697.944221 242.594286 
L 699.331988 242.594286 
L 702.110134 235.584 
L 703.499154 230.910476 
L 704.889677 230.910476 
L 706.277057 229.742095 
L 707.665193 229.742095 
L 709.05248 226.236952 
L 710.44302 223.90019 
L 711.831281 223.90019 
L 714.608088 221.563429 
L 715.996152 225.068571 
L 717.38552 225.068571 
L 718.773415 222.73181 
L 720.16221 219.226667 
L 721.550627 219.226667 
L 722.93913 211.048 
L 724.327396 211.048 
L 725.715316 212.216381 
L 729.881831 212.216381 
L 731.27139 205.206095 
L 734.047795 205.206095 
L 735.437144 197.027429 
L 736.826486 194.690667 
L 738.216264 199.36419 
L 739.605883 199.36419 
L 741.001808 195.859048 
L 742.389956 195.859048 
L 743.777509 191.185524 
L 745.166134 184.175238 
L 746.554361 175.996571 
L 747.943867 175.996571 
L 749.332424 167.817905 
L 750.722773 161.976 
L 752.112293 161.976 
L 753.502692 157.302476 
L 754.892967 143.281905 
L 756.284644 143.281905 
L 757.674933 138.608381 
L 759.064552 128.092952 
L 760.454326 114.072381 
L 761.842759 114.072381 
L 763.230489 98.883429 
L 764.617951 104.725333 
L 766.005993 104.725333 
L 767.394898 86.031238 
L 768.782663 86.031238 
L 770.176662 70.842286 
L 771.565256 59.158476 
L 772.954164 46.306286 
L 774.344707 46.306286 
L 775.735538 28.780571 
L 777.125196 32.285714 
L 778.513002 32.285714 
L 779.901941 38.127619 
L 781.288613 31.117333 
L 782.675926 31.117333 
L 784.06307 41.632762 
L 785.451445 54.484952 
L 786.839194 62.663619 
L 788.226803 62.663619 
L 789.613584 76.68419 
L 791.006553 96.546667 
L 792.393497 96.546667 
L 793.78313 105.893714 
L 795.172744 121.082667 
L 796.560113 121.082667 
L 797.947734 126.924571 
L 799.337232 144.450286 
L 800.726817 144.450286 
L 802.113858 152.628952 
L 803.501433 158.470857 
L 806.279108 158.470857 
L 807.666438 260.12 
L 882.822581 260.12 
L 884.187693 256.614857 
L 885.575685 256.614857 
L 886.963492 254.278095 
L 888.350652 249.604571 
L 889.738208 247.26781 
L 891.128516 247.26781 
L 892.51731 242.594286 
L 893.905445 233.247238 
L 895.294312 233.247238 
L 896.681651 227.405333 
L 898.068404 227.405333 
L 899.455461 223.90019 
L 900.845905 223.90019 
L 902.232982 216.889905 
L 903.620582 216.889905 
L 905.008354 213.384762 
L 906.395492 215.721524 
L 907.783247 215.721524 
L 909.170972 216.889905 
L 910.558726 220.395048 
L 913.340144 220.395048 
L 914.727353 221.563429 
L 916.114812 221.563429 
L 917.50236 219.226667 
L 918.89017 225.068571 
L 921.66391 225.068571 
L 923.050765 220.395048 
L 924.439309 222.73181 
L 925.828876 222.73181 
L 927.217368 220.395048 
L 928.607321 220.395048 
L 929.995456 218.058286 
L 931.382628 206.374476 
L 932.769981 202.869333 
L 934.158852 202.869333 
L 935.545477 194.690667 
L 936.933426 187.680381 
L 938.320285 187.680381 
L 939.710692 181.838476 
L 941.103457 171.323048 
L 942.492523 164.312762 
L 943.884053 164.312762 
L 945.270961 158.470857 
L 946.658185 158.470857 
L 948.049714 153.797333 
L 949.437785 147.955429 
L 950.826566 145.618667 
L 952.2177 145.618667 
L 953.606249 137.44 
L 954.994292 150.29219 
L 956.381753 150.29219 
L 957.775936 161.976 
L 959.163532 160.807619 
L 960.55045 160.807619 
L 961.93785 150.29219 
L 963.325513 144.450286 
L 964.71504 144.450286 
L 966.103233 135.103238 
L 967.490956 126.924571 
L 968.880777 126.924571 
L 970.268418 125.75619 
L 971.656726 128.092952 
L 973.048612 125.75619 
L 974.449088 125.75619 
L 975.841063 130.429714 
L 977.233844 131.598095 
L 978.62732 131.598095 
L 980.030896 143.281905 
L 982.818013 143.281905 
L 984.211521 151.460571 
L 985.600064 158.470857 
L 986.994407 160.807619 
L 988.383482 160.807619 
L 989.774166 166.649524 
L 991.162456 166.649524 
L 992.552735 179.501714 
L 993.941177 185.343619 
L 995.32933 187.680381 
L 996.716379 187.680381 
L 998.105907 193.522286 
L 1000.882151 193.522286 
L 1002.282277 260.12 
L 1077.425094 260.12 
L 1078.78973 253.109714 
L 1080.177591 251.941333 
L 1081.566594 251.941333 
L 1082.955729 241.425905 
L 1084.342235 235.584 
L 1085.728919 235.584 
L 1087.116027 233.247238 
L 1088.502472 233.247238 
L 1089.888957 220.395048 
L 1091.277733 209.879619 
L 1092.664298 207.542857 
L 1094.051272 207.542857 
L 1096.824797 193.522286 
L 1098.210979 193.522286 
L 1100.987502 186.512 
L 1102.374148 187.680381 
L 1104.136829 187.680381 
L 1105.524665 195.859048 
L 1106.915107 199.36419 
L 1108.301745 199.36419 
L 1109.691141 200.532571 
L 1111.083087 200.532571 
L 1112.470227 187.680381 
L 1113.856926 187.680381 
L 1115.24366 180.670095 
L 1116.631071 180.670095 
L 1118.018945 175.996571 
L 1119.405272 177.164952 
L 1120.793337 177.164952 
L 1122.182709 187.680381 
L 1123.569394 186.512 
L 1124.956442 180.670095 
L 1126.343229 180.670095 
L 1127.730392 181.838476 
L 1129.116855 173.65981 
L 1130.5036 173.65981 
L 1131.89136 185.343619 
L 1133.28 198.19581 
L 1133.28 198.19581 
" style="fill:none;stroke:#1f77b4;stroke-linecap:square;stroke-width:1.5;"/>
   </g>
   <g id="patch_3">
    <path d="M 33.64 260.12 
L 33.64 14.76 
" style="fill:none;stroke:#000000;stroke-linecap:square;stroke-linejoin:miter;stroke-width:0.8;"/>
   </g>
   <g id="patch_4">
    <path d="M 1133.28 260.12 
L 1133.28 14.76 
" style="fill:none;stroke:#000000;stroke-linecap:square;stroke-linejoin:miter;stroke-width:0.8;"/>
   </g>
   <g id="patch_5">
    <path d="M 33.64 260.12 
L 1133.28 260.12 
" style="fill:none;stroke:#000000;stroke-linecap:square;stroke-linejoin:miter;stroke-width:0.8;"/>
   </g>
   <g id="patch_6">
    <path d="M 33.64 14.76 
L 1133.28 14.76 
" style="fill:none;stroke:#000000;stroke-linecap:square;stroke-linejoin:miter;stroke-width:0.8;"/>
   </g>
  </g>
 </g>
 <defs>
  <clipPath id="p3a664d5074">
   <rect height="245.36" width="1099.64" x="33.64" y="14.76"/>
  </clipPath>
 </defs>
</svg>
