<?xml version="1.0" encoding="utf-8" standalone="no"?>
<!DOCTYPE svg PUBLIC "-//W3C//DTD SVG 1.1//EN"
  "http://www.w3.org/Graphics/SVG/1.1/DTD/svg11.dtd">
<!-- Created with matplotlib (https://matplotlib.org/) -->
<svg height="288pt" version="1.1" viewBox="0 0 1152 288" width="1152pt" xmlns="http://www.w3.org/2000/svg" xmlns:xlink="http://www.w3.org/1999/xlink">
 <defs>
  <style type="text/css">
*{stroke-linecap:butt;stroke-linejoin:round;}
  </style>
 </defs>
 <g id="figure_1">
  <g id="patch_1">
   <path d="M 0 288 
L 1152 288 
L 1152 0 
L 0 0 
z
" style="fill:#ffffff;"/>
  </g>
  <g id="axes_1">
   <g id="patch_2">
    <path d="M 33.64 260.12 
L 1133.28 260.12 
L 1133.28 14.76 
L 33.64 14.76 
z
" style="fill:#ffffff;"/>
   </g>
   <g id="matplotlib.axis_1">
    <g id="xtick_1">
     <g id="line2d_1">
      <defs>
       <path d="M 0 0 
L 0 3.5 
" id="m01b45ee673" style="stroke:#000000;stroke-width:0.8;"/>
      </defs>
      <g>
       <use style="stroke:#000000;stroke-width:0.8;" x="224.056381" xlink:href="#m01b45ee673" y="260.12"/>
      </g>
     </g>
     <g id="text_1">
      <!-- Tue 00:00 -->
      <defs>
       <path d="M -0.296875 72.90625 
L 61.375 72.90625 
L 61.375 64.59375 
L 35.5 64.59375 
L 35.5 0 
L 25.59375 0 
L 25.59375 64.59375 
L -0.296875 64.59375 
z
" id="DejaVuSans-84"/>
       <path d="M 8.5 21.578125 
L 8.5 54.6875 
L 17.484375 54.6875 
L 17.484375 21.921875 
Q 17.484375 14.15625 20.5 10.265625 
Q 23.53125 6.390625 29.59375 6.390625 
Q 36.859375 6.390625 41.078125 11.03125 
Q 45.3125 15.671875 45.3125 23.6875 
L 45.3125 54.6875 
L 54.296875 54.6875 
L 54.296875 0 
L 45.3125 0 
L 45.3125 8.40625 
Q 42.046875 3.421875 37.71875 1 
Q 33.40625 -1.421875 27.6875 -1.421875 
Q 18.265625 -1.421875 13.375 4.4375 
Q 8.5 10.296875 8.5 21.578125 
z
M 31.109375 56 
z
" id="DejaVuSans-117"/>
       <path d="M 56.203125 29.59375 
L 56.203125 25.203125 
L 14.890625 25.203125 
Q 15.484375 15.921875 20.484375 11.0625 
Q 25.484375 6.203125 34.421875 6.203125 
Q 39.59375 6.203125 44.453125 7.46875 
Q 49.3125 8.734375 54.109375 11.28125 
L 54.109375 2.78125 
Q 49.265625 0.734375 44.1875 -0.34375 
Q 39.109375 -1.421875 33.890625 -1.421875 
Q 20.796875 -1.421875 13.15625 6.1875 
Q 5.515625 13.8125 5.515625 26.8125 
Q 5.515625 40.234375 12.765625 48.109375 
Q 20.015625 56 32.328125 56 
Q 43.359375 56 49.78125 48.890625 
Q 56.203125 41.796875 56.203125 29.59375 
z
M 47.21875 32.234375 
Q 47.125 39.59375 43.09375 43.984375 
Q 39.0625 48.390625 32.421875 48.390625 
Q 24.90625 48.390625 20.390625 44.140625 
Q 15.875 39.890625 15.1875 32.171875 
z
" id="DejaVuSans-101"/>
       <path id="DejaVuSans-32"/>
       <path d="M 31.78125 66.40625 
Q 24.171875 66.40625 20.328125 58.90625 
Q 16.5 51.421875 16.5 36.375 
Q 16.5 21.390625 20.328125 13.890625 
Q 24.171875 6.390625 31.78125 6.390625 
Q 39.453125 6.390625 43.28125 13.890625 
Q 47.125 21.390625 47.125 36.375 
Q 47.125 51.421875 43.28125 58.90625 
Q 39.453125 66.40625 31.78125 66.40625 
z
M 31.78125 74.21875 
Q 44.046875 74.21875 50.515625 64.515625 
Q 56.984375 54.828125 56.984375 36.375 
Q 56.984375 17.96875 50.515625 8.265625 
Q 44.046875 -1.421875 31.78125 -1.421875 
Q 19.53125 -1.421875 13.0625 8.265625 
Q 6.59375 17.96875 6.59375 36.375 
Q 6.59375 54.828125 13.0625 64.515625 
Q 19.53125 74.21875 31.78125 74.21875 
z
" id="DejaVuSans-48"/>
       <path d="M 11.71875 12.40625 
L 22.015625 12.40625 
L 22.015625 0 
L 11.71875 0 
z
M 11.71875 51.703125 
L 22.015625 51.703125 
L 22.015625 39.3125 
L 11.71875 39.3125 
z
" id="DejaVuSans-58"/>
      </defs>
      <g transform="translate(198.770444 274.718437)scale(0.1 -0.1)">
       <use xlink:href="#DejaVuSans-84"/>
       <use x="60.849609" xlink:href="#DejaVuSans-117"/>
       <use x="124.228516" xlink:href="#DejaVuSans-101"/>
       <use x="185.751953" xlink:href="#DejaVuSans-32"/>
       <use x="217.539062" xlink:href="#DejaVuSans-48"/>
       <use x="281.162109" xlink:href="#DejaVuSans-48"/>
       <use x="344.785156" xlink:href="#DejaVuSans-58"/>
       <use x="378.476562" xlink:href="#DejaVuSans-48"/>
       <use x="442.099609" xlink:href="#DejaVuSans-48"/>
      </g>
     </g>
    </g>
    <g id="xtick_2">
     <g id="line2d_2">
      <g>
       <use style="stroke:#000000;stroke-width:0.8;" x="414.55804" xlink:href="#m01b45ee673" y="260.12"/>
      </g>
     </g>
     <g id="text_2">
      <!-- Wed 00:00 -->
      <defs>
       <path d="M 3.328125 72.90625 
L 13.28125 72.90625 
L 28.609375 11.28125 
L 43.890625 72.90625 
L 54.984375 72.90625 
L 70.3125 11.28125 
L 85.59375 72.90625 
L 95.609375 72.90625 
L 77.296875 0 
L 64.890625 0 
L 49.515625 63.28125 
L 33.984375 0 
L 21.578125 0 
z
" id="DejaVuSans-87"/>
       <path d="M 45.40625 46.390625 
L 45.40625 75.984375 
L 54.390625 75.984375 
L 54.390625 0 
L 45.40625 0 
L 45.40625 8.203125 
Q 42.578125 3.328125 38.25 0.953125 
Q 33.9375 -1.421875 27.875 -1.421875 
Q 17.96875 -1.421875 11.734375 6.484375 
Q 5.515625 14.40625 5.515625 27.296875 
Q 5.515625 40.1875 11.734375 48.09375 
Q 17.96875 56 27.875 56 
Q 33.9375 56 38.25 53.625 
Q 42.578125 51.265625 45.40625 46.390625 
z
M 14.796875 27.296875 
Q 14.796875 17.390625 18.875 11.75 
Q 22.953125 6.109375 30.078125 6.109375 
Q 37.203125 6.109375 41.296875 11.75 
Q 45.40625 17.390625 45.40625 27.296875 
Q 45.40625 37.203125 41.296875 42.84375 
Q 37.203125 48.484375 30.078125 48.484375 
Q 22.953125 48.484375 18.875 42.84375 
Q 14.796875 37.203125 14.796875 27.296875 
z
" id="DejaVuSans-100"/>
      </defs>
      <g transform="translate(387.368977 274.718437)scale(0.1 -0.1)">
       <use xlink:href="#DejaVuSans-87"/>
       <use x="98.798828" xlink:href="#DejaVuSans-101"/>
       <use x="160.322266" xlink:href="#DejaVuSans-100"/>
       <use x="223.798828" xlink:href="#DejaVuSans-32"/>
       <use x="255.585938" xlink:href="#DejaVuSans-48"/>
       <use x="319.208984" xlink:href="#DejaVuSans-48"/>
       <use x="382.832031" xlink:href="#DejaVuSans-58"/>
       <use x="416.523438" xlink:href="#DejaVuSans-48"/>
       <use x="480.146484" xlink:href="#DejaVuSans-48"/>
      </g>
     </g>
    </g>
    <g id="xtick_3">
     <g id="line2d_3">
      <g>
       <use style="stroke:#000000;stroke-width:0.8;" x="605.059698" xlink:href="#m01b45ee673" y="260.12"/>
      </g>
     </g>
     <g id="text_3">
      <!-- Thu 00:00 -->
      <defs>
       <path d="M 54.890625 33.015625 
L 54.890625 0 
L 45.90625 0 
L 45.90625 32.71875 
Q 45.90625 40.484375 42.875 44.328125 
Q 39.84375 48.1875 33.796875 48.1875 
Q 26.515625 48.1875 22.3125 43.546875 
Q 18.109375 38.921875 18.109375 30.90625 
L 18.109375 0 
L 9.078125 0 
L 9.078125 75.984375 
L 18.109375 75.984375 
L 18.109375 46.1875 
Q 21.34375 51.125 25.703125 53.5625 
Q 30.078125 56 35.796875 56 
Q 45.21875 56 50.046875 50.171875 
Q 54.890625 44.34375 54.890625 33.015625 
z
" id="DejaVuSans-104"/>
      </defs>
      <g transform="translate(579.669854 274.718437)scale(0.1 -0.1)">
       <use xlink:href="#DejaVuSans-84"/>
       <use x="61.083984" xlink:href="#DejaVuSans-104"/>
       <use x="124.462891" xlink:href="#DejaVuSans-117"/>
       <use x="187.841797" xlink:href="#DejaVuSans-32"/>
       <use x="219.628906" xlink:href="#DejaVuSans-48"/>
       <use x="283.251953" xlink:href="#DejaVuSans-48"/>
       <use x="346.875" xlink:href="#DejaVuSans-58"/>
       <use x="380.566406" xlink:href="#DejaVuSans-48"/>
       <use x="444.189453" xlink:href="#DejaVuSans-48"/>
      </g>
     </g>
    </g>
    <g id="xtick_4">
     <g id="line2d_4">
      <g>
       <use style="stroke:#000000;stroke-width:0.8;" x="795.561357" xlink:href="#m01b45ee673" y="260.12"/>
      </g>
     </g>
     <g id="text_4">
      <!-- Fri 00:00 -->
      <defs>
       <path d="M 9.8125 72.90625 
L 51.703125 72.90625 
L 51.703125 64.59375 
L 19.671875 64.59375 
L 19.671875 43.109375 
L 48.578125 43.109375 
L 48.578125 34.8125 
L 19.671875 34.8125 
L 19.671875 0 
L 9.8125 0 
z
" id="DejaVuSans-70"/>
       <path d="M 41.109375 46.296875 
Q 39.59375 47.171875 37.8125 47.578125 
Q 36.03125 48 33.890625 48 
Q 26.265625 48 22.1875 43.046875 
Q 18.109375 38.09375 18.109375 28.8125 
L 18.109375 0 
L 9.078125 0 
L 9.078125 54.6875 
L 18.109375 54.6875 
L 18.109375 46.1875 
Q 20.953125 51.171875 25.484375 53.578125 
Q 30.03125 56 36.53125 56 
Q 37.453125 56 38.578125 55.875 
Q 39.703125 55.765625 41.0625 55.515625 
z
" id="DejaVuSans-114"/>
       <path d="M 9.421875 54.6875 
L 18.40625 54.6875 
L 18.40625 0 
L 9.421875 0 
z
M 9.421875 75.984375 
L 18.40625 75.984375 
L 18.40625 64.59375 
L 9.421875 64.59375 
z
" id="DejaVuSans-105"/>
      </defs>
      <g transform="translate(773.248075 274.718437)scale(0.1 -0.1)">
       <use xlink:href="#DejaVuSans-70"/>
       <use x="57.410156" xlink:href="#DejaVuSans-114"/>
       <use x="98.523438" xlink:href="#DejaVuSans-105"/>
       <use x="126.306641" xlink:href="#DejaVuSans-32"/>
       <use x="158.09375" xlink:href="#DejaVuSans-48"/>
       <use x="221.716797" xlink:href="#DejaVuSans-48"/>
       <use x="285.339844" xlink:href="#DejaVuSans-58"/>
       <use x="319.03125" xlink:href="#DejaVuSans-48"/>
       <use x="382.654297" xlink:href="#DejaVuSans-48"/>
      </g>
     </g>
    </g>
    <g id="xtick_5">
     <g id="line2d_5">
      <g>
       <use style="stroke:#000000;stroke-width:0.8;" x="986.063015" xlink:href="#m01b45ee673" y="260.12"/>
      </g>
     </g>
     <g id="text_5">
      <!-- Sat 00:00 -->
      <defs>
       <path d="M 53.515625 70.515625 
L 53.515625 60.890625 
Q 47.90625 63.578125 42.921875 64.890625 
Q 37.9375 66.21875 33.296875 66.21875 
Q 25.25 66.21875 20.875 63.09375 
Q 16.5 59.96875 16.5 54.203125 
Q 16.5 49.359375 19.40625 46.890625 
Q 22.3125 44.4375 30.421875 42.921875 
L 36.375 41.703125 
Q 47.40625 39.59375 52.65625 34.296875 
Q 57.90625 29 57.90625 20.125 
Q 57.90625 9.515625 50.796875 4.046875 
Q 43.703125 -1.421875 29.984375 -1.421875 
Q 24.8125 -1.421875 18.96875 -0.25 
Q 13.140625 0.921875 6.890625 3.21875 
L 6.890625 13.375 
Q 12.890625 10.015625 18.65625 8.296875 
Q 24.421875 6.59375 29.984375 6.59375 
Q 38.421875 6.59375 43.015625 9.90625 
Q 47.609375 13.234375 47.609375 19.390625 
Q 47.609375 24.75 44.3125 27.78125 
Q 41.015625 30.8125 33.5 32.328125 
L 27.484375 33.5 
Q 16.453125 35.6875 11.515625 40.375 
Q 6.59375 45.0625 6.59375 53.421875 
Q 6.59375 63.09375 13.40625 68.65625 
Q 20.21875 74.21875 32.171875 74.21875 
Q 37.3125 74.21875 42.625 73.28125 
Q 47.953125 72.359375 53.515625 70.515625 
z
" id="DejaVuSans-83"/>
       <path d="M 34.28125 27.484375 
Q 23.390625 27.484375 19.1875 25 
Q 14.984375 22.515625 14.984375 16.5 
Q 14.984375 11.71875 18.140625 8.90625 
Q 21.296875 6.109375 26.703125 6.109375 
Q 34.1875 6.109375 38.703125 11.40625 
Q 43.21875 16.703125 43.21875 25.484375 
L 43.21875 27.484375 
z
M 52.203125 31.203125 
L 52.203125 0 
L 43.21875 0 
L 43.21875 8.296875 
Q 40.140625 3.328125 35.546875 0.953125 
Q 30.953125 -1.421875 24.3125 -1.421875 
Q 15.921875 -1.421875 10.953125 3.296875 
Q 6 8.015625 6 15.921875 
Q 6 25.140625 12.171875 29.828125 
Q 18.359375 34.515625 30.609375 34.515625 
L 43.21875 34.515625 
L 43.21875 35.40625 
Q 43.21875 41.609375 39.140625 45 
Q 35.0625 48.390625 27.6875 48.390625 
Q 23 48.390625 18.546875 47.265625 
Q 14.109375 46.140625 10.015625 43.890625 
L 10.015625 52.203125 
Q 14.9375 54.109375 19.578125 55.046875 
Q 24.21875 56 28.609375 56 
Q 40.484375 56 46.34375 49.84375 
Q 52.203125 43.703125 52.203125 31.203125 
z
" id="DejaVuSans-97"/>
       <path d="M 18.3125 70.21875 
L 18.3125 54.6875 
L 36.8125 54.6875 
L 36.8125 47.703125 
L 18.3125 47.703125 
L 18.3125 18.015625 
Q 18.3125 11.328125 20.140625 9.421875 
Q 21.96875 7.515625 27.59375 7.515625 
L 36.8125 7.515625 
L 36.8125 0 
L 27.59375 0 
Q 17.1875 0 13.234375 3.875 
Q 9.28125 7.765625 9.28125 18.015625 
L 9.28125 47.703125 
L 2.6875 47.703125 
L 2.6875 54.6875 
L 9.28125 54.6875 
L 9.28125 70.21875 
z
" id="DejaVuSans-116"/>
      </defs>
      <g transform="translate(961.86614 274.718437)scale(0.1 -0.1)">
       <use xlink:href="#DejaVuSans-83"/>
       <use x="63.476562" xlink:href="#DejaVuSans-97"/>
       <use x="124.755859" xlink:href="#DejaVuSans-116"/>
       <use x="163.964844" xlink:href="#DejaVuSans-32"/>
       <use x="195.751953" xlink:href="#DejaVuSans-48"/>
       <use x="259.375" xlink:href="#DejaVuSans-48"/>
       <use x="322.998047" xlink:href="#DejaVuSans-58"/>
       <use x="356.689453" xlink:href="#DejaVuSans-48"/>
       <use x="420.3125" xlink:href="#DejaVuSans-48"/>
      </g>
     </g>
    </g>
   </g>
   <g id="matplotlib.axis_2">
    <g id="ytick_1">
     <g id="line2d_6">
      <defs>
       <path d="M 0 0 
L -3.5 0 
" id="m3139f91e25" style="stroke:#000000;stroke-width:0.8;"/>
      </defs>
      <g>
       <use style="stroke:#000000;stroke-width:0.8;" x="33.64" xlink:href="#m3139f91e25" y="260.12"/>
      </g>
     </g>
     <g id="text_6">
      <!-- 0 -->
      <g transform="translate(20.2775 263.919219)scale(0.1 -0.1)">
       <use xlink:href="#DejaVuSans-48"/>
      </g>
     </g>
    </g>
    <g id="ytick_2">
     <g id="line2d_7">
      <g>
       <use style="stroke:#000000;stroke-width:0.8;" x="33.64" xlink:href="#m3139f91e25" y="232.857778"/>
      </g>
     </g>
     <g id="text_7">
      <!-- 20 -->
      <defs>
       <path d="M 19.1875 8.296875 
L 53.609375 8.296875 
L 53.609375 0 
L 7.328125 0 
L 7.328125 8.296875 
Q 12.9375 14.109375 22.625 23.890625 
Q 32.328125 33.6875 34.8125 36.53125 
Q 39.546875 41.84375 41.421875 45.53125 
Q 43.3125 49.21875 43.3125 52.78125 
Q 43.3125 58.59375 39.234375 62.25 
Q 35.15625 65.921875 28.609375 65.921875 
Q 23.96875 65.921875 18.8125 64.3125 
Q 13.671875 62.703125 7.8125 59.421875 
L 7.8125 69.390625 
Q 13.765625 71.78125 18.9375 73 
Q 24.125 74.21875 28.421875 74.21875 
Q 39.75 74.21875 46.484375 68.546875 
Q 53.21875 62.890625 53.21875 53.421875 
Q 53.21875 48.921875 51.53125 44.890625 
Q 49.859375 40.875 45.40625 35.40625 
Q 44.1875 33.984375 37.640625 27.21875 
Q 31.109375 20.453125 19.1875 8.296875 
z
" id="DejaVuSans-50"/>
      </defs>
      <g transform="translate(13.915 236.656997)scale(0.1 -0.1)">
       <use xlink:href="#DejaVuSans-50"/>
       <use x="63.623047" xlink:href="#DejaVuSans-48"/>
      </g>
     </g>
    </g>
    <g id="ytick_3">
     <g id="line2d_8">
      <g>
       <use style="stroke:#000000;stroke-width:0.8;" x="33.64" xlink:href="#m3139f91e25" y="205.595556"/>
      </g>
     </g>
     <g id="text_8">
      <!-- 40 -->
      <defs>
       <path d="M 37.796875 64.3125 
L 12.890625 25.390625 
L 37.796875 25.390625 
z
M 35.203125 72.90625 
L 47.609375 72.90625 
L 47.609375 25.390625 
L 58.015625 25.390625 
L 58.015625 17.1875 
L 47.609375 17.1875 
L 47.609375 0 
L 37.796875 0 
L 37.796875 17.1875 
L 4.890625 17.1875 
L 4.890625 26.703125 
z
" id="DejaVuSans-52"/>
      </defs>
      <g transform="translate(13.915 209.394774)scale(0.1 -0.1)">
       <use xlink:href="#DejaVuSans-52"/>
       <use x="63.623047" xlink:href="#DejaVuSans-48"/>
      </g>
     </g>
    </g>
    <g id="ytick_4">
     <g id="line2d_9">
      <g>
       <use style="stroke:#000000;stroke-width:0.8;" x="33.64" xlink:href="#m3139f91e25" y="178.333333"/>
      </g>
     </g>
     <g id="text_9">
      <!-- 60 -->
      <defs>
       <path d="M 33.015625 40.375 
Q 26.375 40.375 22.484375 35.828125 
Q 18.609375 31.296875 18.609375 23.390625 
Q 18.609375 15.53125 22.484375 10.953125 
Q 26.375 6.390625 33.015625 6.390625 
Q 39.65625 6.390625 43.53125 10.953125 
Q 47.40625 15.53125 47.40625 23.390625 
Q 47.40625 31.296875 43.53125 35.828125 
Q 39.65625 40.375 33.015625 40.375 
z
M 52.59375 71.296875 
L 52.59375 62.3125 
Q 48.875 64.0625 45.09375 64.984375 
Q 41.3125 65.921875 37.59375 65.921875 
Q 27.828125 65.921875 22.671875 59.328125 
Q 17.53125 52.734375 16.796875 39.40625 
Q 19.671875 43.65625 24.015625 45.921875 
Q 28.375 48.1875 33.59375 48.1875 
Q 44.578125 48.1875 50.953125 41.515625 
Q 57.328125 34.859375 57.328125 23.390625 
Q 57.328125 12.15625 50.6875 5.359375 
Q 44.046875 -1.421875 33.015625 -1.421875 
Q 20.359375 -1.421875 13.671875 8.265625 
Q 6.984375 17.96875 6.984375 36.375 
Q 6.984375 53.65625 15.1875 63.9375 
Q 23.390625 74.21875 37.203125 74.21875 
Q 40.921875 74.21875 44.703125 73.484375 
Q 48.484375 72.75 52.59375 71.296875 
z
" id="DejaVuSans-54"/>
      </defs>
      <g transform="translate(13.915 182.132552)scale(0.1 -0.1)">
       <use xlink:href="#DejaVuSans-54"/>
       <use x="63.623047" xlink:href="#DejaVuSans-48"/>
      </g>
     </g>
    </g>
    <g id="ytick_5">
     <g id="line2d_10">
      <g>
       <use style="stroke:#000000;stroke-width:0.8;" x="33.64" xlink:href="#m3139f91e25" y="151.071111"/>
      </g>
     </g>
     <g id="text_10">
      <!-- 80 -->
      <defs>
       <path d="M 31.78125 34.625 
Q 24.75 34.625 20.71875 30.859375 
Q 16.703125 27.09375 16.703125 20.515625 
Q 16.703125 13.921875 20.71875 10.15625 
Q 24.75 6.390625 31.78125 6.390625 
Q 38.8125 6.390625 42.859375 10.171875 
Q 46.921875 13.96875 46.921875 20.515625 
Q 46.921875 27.09375 42.890625 30.859375 
Q 38.875 34.625 31.78125 34.625 
z
M 21.921875 38.8125 
Q 15.578125 40.375 12.03125 44.71875 
Q 8.5 49.078125 8.5 55.328125 
Q 8.5 64.0625 14.71875 69.140625 
Q 20.953125 74.21875 31.78125 74.21875 
Q 42.671875 74.21875 48.875 69.140625 
Q 55.078125 64.0625 55.078125 55.328125 
Q 55.078125 49.078125 51.53125 44.71875 
Q 48 40.375 41.703125 38.8125 
Q 48.828125 37.15625 52.796875 32.3125 
Q 56.78125 27.484375 56.78125 20.515625 
Q 56.78125 9.90625 50.3125 4.234375 
Q 43.84375 -1.421875 31.78125 -1.421875 
Q 19.734375 -1.421875 13.25 4.234375 
Q 6.78125 9.90625 6.78125 20.515625 
Q 6.78125 27.484375 10.78125 32.3125 
Q 14.796875 37.15625 21.921875 38.8125 
z
M 18.3125 54.390625 
Q 18.3125 48.734375 21.84375 45.5625 
Q 25.390625 42.390625 31.78125 42.390625 
Q 38.140625 42.390625 41.71875 45.5625 
Q 45.3125 48.734375 45.3125 54.390625 
Q 45.3125 60.0625 41.71875 63.234375 
Q 38.140625 66.40625 31.78125 66.40625 
Q 25.390625 66.40625 21.84375 63.234375 
Q 18.3125 60.0625 18.3125 54.390625 
z
" id="DejaVuSans-56"/>
      </defs>
      <g transform="translate(13.915 154.87033)scale(0.1 -0.1)">
       <use xlink:href="#DejaVuSans-56"/>
       <use x="63.623047" xlink:href="#DejaVuSans-48"/>
      </g>
     </g>
    </g>
    <g id="ytick_6">
     <g id="line2d_11">
      <g>
       <use style="stroke:#000000;stroke-width:0.8;" x="33.64" xlink:href="#m3139f91e25" y="123.808889"/>
      </g>
     </g>
     <g id="text_11">
      <!-- 100 -->
      <defs>
       <path d="M 12.40625 8.296875 
L 28.515625 8.296875 
L 28.515625 63.921875 
L 10.984375 60.40625 
L 10.984375 69.390625 
L 28.421875 72.90625 
L 38.28125 72.90625 
L 38.28125 8.296875 
L 54.390625 8.296875 
L 54.390625 0 
L 12.40625 0 
z
" id="DejaVuSans-49"/>
      </defs>
      <g transform="translate(7.5525 127.608108)scale(0.1 -0.1)">
       <use xlink:href="#DejaVuSans-49"/>
       <use x="63.623047" xlink:href="#DejaVuSans-48"/>
       <use x="127.246094" xlink:href="#DejaVuSans-48"/>
      </g>
     </g>
    </g>
    <g id="ytick_7">
     <g id="line2d_12">
      <g>
       <use style="stroke:#000000;stroke-width:0.8;" x="33.64" xlink:href="#m3139f91e25" y="96.546667"/>
      </g>
     </g>
     <g id="text_12">
      <!-- 120 -->
      <g transform="translate(7.5525 100.345885)scale(0.1 -0.1)">
       <use xlink:href="#DejaVuSans-49"/>
       <use x="63.623047" xlink:href="#DejaVuSans-50"/>
       <use x="127.246094" xlink:href="#DejaVuSans-48"/>
      </g>
     </g>
    </g>
    <g id="ytick_8">
     <g id="line2d_13">
      <g>
       <use style="stroke:#000000;stroke-width:0.8;" x="33.64" xlink:href="#m3139f91e25" y="69.284444"/>
      </g>
     </g>
     <g id="text_13">
      <!-- 140 -->
      <g transform="translate(7.5525 73.083663)scale(0.1 -0.1)">
       <use xlink:href="#DejaVuSans-49"/>
       <use x="63.623047" xlink:href="#DejaVuSans-52"/>
       <use x="127.246094" xlink:href="#DejaVuSans-48"/>
      </g>
     </g>
    </g>
    <g id="ytick_9">
     <g id="line2d_14">
      <g>
       <use style="stroke:#000000;stroke-width:0.8;" x="33.64" xlink:href="#m3139f91e25" y="42.022222"/>
      </g>
     </g>
     <g id="text_14">
      <!-- 160 -->
      <g transform="translate(7.5525 45.821441)scale(0.1 -0.1)">
       <use xlink:href="#DejaVuSans-49"/>
       <use x="63.623047" xlink:href="#DejaVuSans-54"/>
       <use x="127.246094" xlink:href="#DejaVuSans-48"/>
      </g>
     </g>
    </g>
    <g id="ytick_10">
     <g id="line2d_15">
      <g>
       <use style="stroke:#000000;stroke-width:0.8;" x="33.64" xlink:href="#m3139f91e25" y="14.76"/>
      </g>
     </g>
     <g id="text_15">
      <!-- 180 -->
      <g transform="translate(7.5525 18.559219)scale(0.1 -0.1)">
       <use xlink:href="#DejaVuSans-49"/>
       <use x="63.623047" xlink:href="#DejaVuSans-56"/>
       <use x="127.246094" xlink:href="#DejaVuSans-48"/>
      </g>
     </g>
    </g>
   </g>
   <g id="line2d_16">
    <path clip-path="url(#p9b145bb2f0)" d="M 33.64 260.12 
L 104.586706 260.12 
L 105.925223 257.393778 
L 107.289963 257.393778 
L 108.650296 253.304444 
L 110.010389 251.941333 
L 111.373654 249.215111 
L 112.735153 249.215111 
L 114.098572 246.488889 
L 115.460205 242.399556 
L 116.82098 242.399556 
L 118.182437 236.947111 
L 119.545619 235.584 
L 120.907987 235.584 
L 122.271271 232.857778 
L 123.631437 228.768444 
L 126.354047 228.768444 
L 127.714424 224.679111 
L 129.07627 221.952889 
L 130.438128 221.952889 
L 131.802434 219.226667 
L 133.164477 219.226667 
L 134.527482 221.952889 
L 135.887544 228.768444 
L 138.607479 228.768444 
L 141.328103 239.673333 
L 142.692816 239.673333 
L 144.055127 238.310222 
L 145.418642 235.584 
L 146.778695 235.584 
L 148.138863 227.405333 
L 149.498634 226.042222 
L 150.859362 223.316 
L 152.21945 223.316 
L 153.582404 221.952889 
L 156.303829 221.952889 
L 157.666577 209.684889 
L 159.026671 209.684889 
L 160.388069 208.321778 
L 161.748701 198.78 
L 163.112538 197.416889 
L 164.473122 197.416889 
L 165.833658 191.964444 
L 168.555169 191.964444 
L 169.91841 187.875111 
L 171.278591 189.238222 
L 172.639124 189.238222 
L 173.999539 174.244 
L 175.360504 166.065333 
L 176.722073 166.065333 
L 178.08501 141.529333 
L 179.448656 126.535111 
L 180.81081 126.535111 
L 184.899394 63.832 
L 186.262871 63.832 
L 187.625974 61.105778 
L 188.988911 61.105778 
L 190.352318 57.016444 
L 191.716692 76.1 
L 193.0808 84.278667 
L 194.444308 84.278667 
L 195.805453 87.004889 
L 198.526669 87.004889 
L 199.888008 92.457333 
L 201.248761 100.636 
L 202.611727 101.999111 
L 203.974719 101.999111 
L 205.335429 116.993333 
L 206.696405 116.993333 
L 208.058042 133.350667 
L 209.419218 157.886667 
L 210.780643 166.065333 
L 212.14253 166.065333 
L 213.503264 176.970222 
L 214.864467 190.601333 
L 217.589515 190.601333 
L 218.95111 260.12 
L 295.342934 260.12 
L 296.681479 258.756889 
L 298.042816 245.125778 
L 299.403342 245.125778 
L 300.763065 236.947111 
L 302.126844 236.947111 
L 303.487604 232.857778 
L 304.848137 227.405333 
L 306.208632 227.405333 
L 307.570504 224.679111 
L 308.932925 223.316 
L 313.01972 223.316 
L 314.380194 227.405333 
L 315.743825 227.405333 
L 317.110183 234.220889 
L 318.470672 235.584 
L 321.196295 235.584 
L 322.559458 232.857778 
L 323.921594 232.857778 
L 325.281777 228.768444 
L 326.642286 234.220889 
L 328.002059 231.494667 
L 329.366605 231.494667 
L 330.726819 232.857778 
L 332.086989 230.131556 
L 333.447619 230.131556 
L 334.807989 228.768444 
L 337.53111 215.137333 
L 338.89224 215.137333 
L 340.253254 204.232444 
L 341.613627 204.232444 
L 342.974926 208.321778 
L 344.335165 204.232444 
L 345.695161 204.232444 
L 347.05521 202.869333 
L 348.415272 206.958667 
L 349.778049 206.958667 
L 351.149466 201.506222 
L 352.511758 202.869333 
L 353.872216 193.327556 
L 355.233238 193.327556 
L 356.595229 179.696444 
L 357.958836 168.791556 
L 359.320587 168.791556 
L 360.684557 152.434222 
L 362.048339 130.624444 
L 363.408255 121.082667 
L 364.770123 121.082667 
L 366.130739 104.725333 
L 367.491989 99.272889 
L 368.85287 99.272889 
L 370.21452 82.915556 
L 371.577273 82.915556 
L 372.938007 69.284444 
L 374.299937 63.832 
L 375.661391 51.564 
L 377.02291 51.564 
L 378.383539 58.379556 
L 379.745088 37.932889 
L 381.107755 37.932889 
L 382.46813 46.111556 
L 383.829506 32.480444 
L 385.190877 32.480444 
L 386.552224 36.569778 
L 387.912315 31.117333 
L 389.273869 31.117333 
L 390.635488 29.754222 
L 391.99871 44.748444 
L 393.360051 63.832 
L 394.721682 63.832 
L 396.082821 77.463111 
L 397.446627 92.457333 
L 398.807304 92.457333 
L 400.168276 101.999111 
L 401.529608 108.814667 
L 402.890507 108.814667 
L 404.252749 134.713778 
L 405.61431 136.076889 
L 406.97524 136.076889 
L 408.336959 142.892444 
L 409.698263 260.12 
L 486.089329 260.12 
L 487.45012 258.756889 
L 488.810866 246.488889 
L 490.173852 246.488889 
L 491.533909 235.584 
L 492.894513 228.768444 
L 494.255855 220.589778 
L 495.616305 220.589778 
L 496.978009 215.137333 
L 498.340892 215.137333 
L 501.064843 204.232444 
L 502.427843 211.048 
L 503.789463 211.048 
L 506.512603 205.595556 
L 507.873603 205.595556 
L 509.23512 211.048 
L 510.596589 211.048 
L 511.95973 224.679111 
L 513.320538 224.679111 
L 514.681897 220.589778 
L 516.042895 220.589778 
L 517.408898 223.316 
L 518.769788 221.952889 
L 520.133481 221.952889 
L 521.496024 227.405333 
L 522.857349 223.316 
L 524.218679 223.316 
L 526.944718 215.137333 
L 528.307379 215.137333 
L 529.670347 212.411111 
L 531.032103 211.048 
L 532.393677 205.595556 
L 533.754707 205.595556 
L 535.116859 201.506222 
L 536.478015 200.143111 
L 537.839125 200.143111 
L 539.200579 197.416889 
L 540.562234 198.78 
L 541.923832 198.78 
L 543.285131 189.238222 
L 544.646394 183.785778 
L 546.008525 174.244 
L 547.368686 175.607111 
L 548.735002 172.880889 
L 550.096869 172.880889 
L 551.45928 167.428444 
L 552.824616 152.434222 
L 554.185159 144.255556 
L 555.545535 144.255556 
L 556.907027 121.082667 
L 558.269054 103.362222 
L 559.631 103.362222 
L 560.995062 76.1 
L 562.356209 54.290222 
L 563.716043 54.290222 
L 565.076416 35.206667 
L 566.440739 32.480444 
L 567.801186 32.480444 
L 569.161824 28.391111 
L 570.524646 39.296 
L 571.88837 39.296 
L 573.248318 40.659111 
L 574.611621 54.290222 
L 575.978903 63.832 
L 577.340832 63.832 
L 580.0672 108.814667 
L 581.4315 108.814667 
L 582.794452 126.535111 
L 584.156496 141.529333 
L 585.518269 160.612889 
L 586.880093 160.612889 
L 588.241048 172.880889 
L 589.602578 172.880889 
L 590.966024 189.238222 
L 593.690306 200.143111 
L 595.052231 200.143111 
L 596.41458 201.506222 
L 601.860232 201.506222 
L 603.222535 260.12 
L 675.564031 260.12 
L 676.902927 257.393778 
L 678.263858 257.393778 
L 679.627202 249.215111 
L 680.987489 249.215111 
L 682.347378 247.852 
L 683.707271 239.673333 
L 686.42864 239.673333 
L 689.152607 234.220889 
L 690.51284 234.220889 
L 691.873483 238.310222 
L 693.234419 239.673333 
L 694.594267 239.673333 
L 697.315601 236.947111 
L 698.676023 236.947111 
L 700.036984 235.584 
L 701.397759 231.494667 
L 702.757621 232.857778 
L 705.482271 232.857778 
L 706.84242 234.220889 
L 708.204099 234.220889 
L 709.564101 227.405333 
L 710.925176 223.316 
L 712.285705 223.316 
L 713.648883 217.863556 
L 716.370454 217.863556 
L 717.731132 215.137333 
L 719.092932 217.863556 
L 720.456395 217.863556 
L 721.817744 228.768444 
L 723.181476 226.042222 
L 724.544388 219.226667 
L 725.904998 219.226667 
L 727.266474 215.137333 
L 728.629676 209.684889 
L 729.991946 209.684889 
L 731.35282 206.958667 
L 732.718456 206.958667 
L 734.081593 201.506222 
L 735.442576 204.232444 
L 736.80572 190.601333 
L 738.166742 190.601333 
L 739.528136 171.517778 
L 740.890306 161.976 
L 742.252969 161.976 
L 743.61606 144.255556 
L 744.977949 122.445778 
L 746.341011 122.445778 
L 747.70231 100.636 
L 749.063743 101.999111 
L 750.425248 91.094222 
L 751.788147 91.094222 
L 753.149184 88.368 
L 754.510451 72.010667 
L 755.871832 72.010667 
L 757.233365 50.200889 
L 758.595226 35.206667 
L 759.956887 35.206667 
L 761.318376 40.659111 
L 762.679587 31.117333 
L 764.041319 31.117333 
L 765.403049 39.296 
L 766.765167 50.200889 
L 768.12596 50.200889 
L 769.487416 51.564 
L 772.210358 67.921333 
L 776.2939 67.921333 
L 777.655634 87.004889 
L 779.017766 96.546667 
L 780.380012 96.546667 
L 781.741118 127.898222 
L 783.10222 146.981778 
L 784.465454 163.339111 
L 785.826708 163.339111 
L 787.188128 168.791556 
L 788.550129 176.970222 
L 789.911968 179.696444 
L 793.995988 179.696444 
L 795.357227 260.12 
L 866.361021 260.12 
L 867.699155 257.393778 
L 869.060014 257.393778 
L 870.420126 243.762667 
L 871.780808 223.316 
L 873.143907 216.500444 
L 874.504216 216.500444 
L 875.867377 208.321778 
L 878.591588 208.321778 
L 879.954554 197.416889 
L 882.680953 197.416889 
L 884.045096 193.327556 
L 888.128879 193.327556 
L 889.490477 189.238222 
L 890.85252 189.238222 
L 892.214248 191.964444 
L 893.575506 198.78 
L 894.93678 198.78 
L 896.298308 194.690667 
L 900.382166 194.690667 
L 901.742007 196.053778 
L 903.103119 196.053778 
L 904.464977 190.601333 
L 905.825472 200.143111 
L 907.186963 200.143111 
L 909.907874 202.869333 
L 911.268647 196.053778 
L 912.629914 196.053778 
L 913.990966 194.690667 
L 915.352279 197.416889 
L 916.714577 197.416889 
L 918.077491 190.601333 
L 919.43953 194.690667 
L 920.800987 194.690667 
L 922.162403 186.512 
L 923.524384 185.148889 
L 924.88443 185.148889 
L 926.244649 189.238222 
L 927.607831 182.422667 
L 928.968258 174.244 
L 930.329425 174.244 
L 931.690098 191.964444 
L 933.051468 191.964444 
L 934.413049 181.059556 
L 935.775406 164.702222 
L 937.136369 146.981778 
L 938.500031 146.981778 
L 939.861112 133.350667 
L 941.222585 130.624444 
L 942.583031 130.624444 
L 943.943746 140.166222 
L 945.304665 137.44 
L 946.667603 131.987556 
L 948.028795 131.987556 
L 949.389244 123.808889 
L 950.752697 123.808889 
L 952.116113 108.814667 
L 953.477615 101.999111 
L 954.837881 97.909778 
L 956.202296 97.909778 
L 957.56345 96.546667 
L 958.923594 96.546667 
L 960.284355 95.183556 
L 961.645586 104.725333 
L 963.006109 119.719556 
L 964.366485 119.719556 
L 965.727295 121.082667 
L 967.087608 123.808889 
L 968.447518 123.808889 
L 969.808246 134.713778 
L 971.168384 140.166222 
L 972.529221 140.166222 
L 973.889676 155.160444 
L 975.249873 161.976 
L 976.613669 161.976 
L 977.974328 163.339111 
L 979.337552 167.428444 
L 980.701225 167.428444 
L 982.065303 179.696444 
L 983.429011 260.12 
L 1059.790375 260.12 
L 1061.150068 250.578222 
L 1062.510439 246.488889 
L 1063.873123 238.310222 
L 1065.235907 238.310222 
L 1067.95638 224.679111 
L 1069.317952 224.679111 
L 1070.677962 220.589778 
L 1072.038626 211.048 
L 1073.399262 211.048 
L 1074.75969 206.958667 
L 1076.119502 200.143111 
L 1077.479313 200.143111 
L 1078.83924 191.964444 
L 1080.198909 186.512 
L 1081.558311 186.512 
L 1084.278844 178.333333 
L 1085.6391 171.517778 
L 1086.998878 171.517778 
L 1088.361438 164.702222 
L 1089.720912 164.702222 
L 1091.083404 163.339111 
L 1092.444347 151.071111 
L 1093.806072 153.797333 
L 1095.166823 153.797333 
L 1096.526529 148.344889 
L 1097.889187 146.981778 
L 1099.252037 146.981778 
L 1100.612485 149.708 
L 1101.975231 153.797333 
L 1103.334667 166.065333 
L 1104.695125 166.065333 
L 1106.05517 171.517778 
L 1107.416077 171.517778 
L 1108.77699 178.333333 
L 1110.137195 176.970222 
L 1112.860079 176.970222 
L 1114.21988 178.333333 
L 1115.583157 187.875111 
L 1116.943608 187.875111 
L 1118.303132 178.333333 
L 1119.663885 178.333333 
L 1121.026121 166.065333 
L 1122.387141 176.970222 
L 1123.749307 174.244 
L 1126.470855 174.244 
L 1127.830178 166.065333 
L 1129.192735 166.065333 
L 1130.555856 170.154667 
L 1131.917772 168.791556 
L 1133.28 171.517778 
L 1133.28 171.517778 
" style="fill:none;stroke:#1f77b4;stroke-linecap:square;stroke-width:1.5;"/>
   </g>
   <g id="patch_3">
    <path d="M 33.64 260.12 
L 33.64 14.76 
" style="fill:none;stroke:#000000;stroke-linecap:square;stroke-linejoin:miter;stroke-width:0.8;"/>
   </g>
   <g id="patch_4">
    <path d="M 1133.28 260.12 
L 1133.28 14.76 
" style="fill:none;stroke:#000000;stroke-linecap:square;stroke-linejoin:miter;stroke-width:0.8;"/>
   </g>
   <g id="patch_5">
    <path d="M 33.64 260.12 
L 1133.28 260.12 
" style="fill:none;stroke:#000000;stroke-linecap:square;stroke-linejoin:miter;stroke-width:0.8;"/>
   </g>
   <g id="patch_6">
    <path d="M 33.64 14.76 
L 1133.28 14.76 
" style="fill:none;stroke:#000000;stroke-linecap:square;stroke-linejoin:miter;stroke-width:0.8;"/>
   </g>
  </g>
 </g>
 <defs>
  <clipPath id="p9b145bb2f0">
   <rect height="245.36" width="1099.64" x="33.64" y="14.76"/>
  </clipPath>
 </defs>
</svg>
