<?xml version="1.0" encoding="utf-8" standalone="no"?>
<!DOCTYPE svg PUBLIC "-//W3C//DTD SVG 1.1//EN"
  "http://www.w3.org/Graphics/SVG/1.1/DTD/svg11.dtd">
<!-- Created with matplotlib (https://matplotlib.org/) -->
<svg height="288pt" version="1.1" viewBox="0 0 1152 288" width="1152pt" xmlns="http://www.w3.org/2000/svg" xmlns:xlink="http://www.w3.org/1999/xlink">
 <defs>
  <style type="text/css">
*{stroke-linecap:butt;stroke-linejoin:round;}
  </style>
 </defs>
 <g id="figure_1">
  <g id="patch_1">
   <path d="M 0 288 
L 1152 288 
L 1152 0 
L 0 0 
z
" style="fill:#ffffff;"/>
  </g>
  <g id="axes_1">
   <g id="patch_2">
    <path d="M 33.64 260.12 
L 1133.28 260.12 
L 1133.28 14.76 
L 33.64 14.76 
z
" style="fill:#ffffff;"/>
   </g>
   <g id="matplotlib.axis_1">
    <g id="xtick_1">
     <g id="line2d_1">
      <defs>
       <path d="M 0 0 
L 0 3.5 
" id="mecc446ba3d" style="stroke:#000000;stroke-width:0.8;"/>
      </defs>
      <g>
       <use style="stroke:#000000;stroke-width:0.8;" x="219.415845" xlink:href="#mecc446ba3d" y="260.12"/>
      </g>
     </g>
     <g id="text_1">
      <!-- Tue 00:00 -->
      <defs>
       <path d="M -0.296875 72.90625 
L 61.375 72.90625 
L 61.375 64.59375 
L 35.5 64.59375 
L 35.5 0 
L 25.59375 0 
L 25.59375 64.59375 
L -0.296875 64.59375 
z
" id="DejaVuSans-84"/>
       <path d="M 8.5 21.578125 
L 8.5 54.6875 
L 17.484375 54.6875 
L 17.484375 21.921875 
Q 17.484375 14.15625 20.5 10.265625 
Q 23.53125 6.390625 29.59375 6.390625 
Q 36.859375 6.390625 41.078125 11.03125 
Q 45.3125 15.671875 45.3125 23.6875 
L 45.3125 54.6875 
L 54.296875 54.6875 
L 54.296875 0 
L 45.3125 0 
L 45.3125 8.40625 
Q 42.046875 3.421875 37.71875 1 
Q 33.40625 -1.421875 27.6875 -1.421875 
Q 18.265625 -1.421875 13.375 4.4375 
Q 8.5 10.296875 8.5 21.578125 
z
M 31.109375 56 
z
" id="DejaVuSans-117"/>
       <path d="M 56.203125 29.59375 
L 56.203125 25.203125 
L 14.890625 25.203125 
Q 15.484375 15.921875 20.484375 11.0625 
Q 25.484375 6.203125 34.421875 6.203125 
Q 39.59375 6.203125 44.453125 7.46875 
Q 49.3125 8.734375 54.109375 11.28125 
L 54.109375 2.78125 
Q 49.265625 0.734375 44.1875 -0.34375 
Q 39.109375 -1.421875 33.890625 -1.421875 
Q 20.796875 -1.421875 13.15625 6.1875 
Q 5.515625 13.8125 5.515625 26.8125 
Q 5.515625 40.234375 12.765625 48.109375 
Q 20.015625 56 32.328125 56 
Q 43.359375 56 49.78125 48.890625 
Q 56.203125 41.796875 56.203125 29.59375 
z
M 47.21875 32.234375 
Q 47.125 39.59375 43.09375 43.984375 
Q 39.0625 48.390625 32.421875 48.390625 
Q 24.90625 48.390625 20.390625 44.140625 
Q 15.875 39.890625 15.1875 32.171875 
z
" id="DejaVuSans-101"/>
       <path id="DejaVuSans-32"/>
       <path d="M 31.78125 66.40625 
Q 24.171875 66.40625 20.328125 58.90625 
Q 16.5 51.421875 16.5 36.375 
Q 16.5 21.390625 20.328125 13.890625 
Q 24.171875 6.390625 31.78125 6.390625 
Q 39.453125 6.390625 43.28125 13.890625 
Q 47.125 21.390625 47.125 36.375 
Q 47.125 51.421875 43.28125 58.90625 
Q 39.453125 66.40625 31.78125 66.40625 
z
M 31.78125 74.21875 
Q 44.046875 74.21875 50.515625 64.515625 
Q 56.984375 54.828125 56.984375 36.375 
Q 56.984375 17.96875 50.515625 8.265625 
Q 44.046875 -1.421875 31.78125 -1.421875 
Q 19.53125 -1.421875 13.0625 8.265625 
Q 6.59375 17.96875 6.59375 36.375 
Q 6.59375 54.828125 13.0625 64.515625 
Q 19.53125 74.21875 31.78125 74.21875 
z
" id="DejaVuSans-48"/>
       <path d="M 11.71875 12.40625 
L 22.015625 12.40625 
L 22.015625 0 
L 11.71875 0 
z
M 11.71875 51.703125 
L 22.015625 51.703125 
L 22.015625 39.3125 
L 11.71875 39.3125 
z
" id="DejaVuSans-58"/>
      </defs>
      <g transform="translate(194.129908 274.718437)scale(0.1 -0.1)">
       <use xlink:href="#DejaVuSans-84"/>
       <use x="60.849609" xlink:href="#DejaVuSans-117"/>
       <use x="124.228516" xlink:href="#DejaVuSans-101"/>
       <use x="185.751953" xlink:href="#DejaVuSans-32"/>
       <use x="217.539062" xlink:href="#DejaVuSans-48"/>
       <use x="281.162109" xlink:href="#DejaVuSans-48"/>
       <use x="344.785156" xlink:href="#DejaVuSans-58"/>
       <use x="378.476562" xlink:href="#DejaVuSans-48"/>
       <use x="442.099609" xlink:href="#DejaVuSans-48"/>
      </g>
     </g>
    </g>
    <g id="xtick_2">
     <g id="line2d_2">
      <g>
       <use style="stroke:#000000;stroke-width:0.8;" x="406.216925" xlink:href="#mecc446ba3d" y="260.12"/>
      </g>
     </g>
     <g id="text_2">
      <!-- Wed 00:00 -->
      <defs>
       <path d="M 3.328125 72.90625 
L 13.28125 72.90625 
L 28.609375 11.28125 
L 43.890625 72.90625 
L 54.984375 72.90625 
L 70.3125 11.28125 
L 85.59375 72.90625 
L 95.609375 72.90625 
L 77.296875 0 
L 64.890625 0 
L 49.515625 63.28125 
L 33.984375 0 
L 21.578125 0 
z
" id="DejaVuSans-87"/>
       <path d="M 45.40625 46.390625 
L 45.40625 75.984375 
L 54.390625 75.984375 
L 54.390625 0 
L 45.40625 0 
L 45.40625 8.203125 
Q 42.578125 3.328125 38.25 0.953125 
Q 33.9375 -1.421875 27.875 -1.421875 
Q 17.96875 -1.421875 11.734375 6.484375 
Q 5.515625 14.40625 5.515625 27.296875 
Q 5.515625 40.1875 11.734375 48.09375 
Q 17.96875 56 27.875 56 
Q 33.9375 56 38.25 53.625 
Q 42.578125 51.265625 45.40625 46.390625 
z
M 14.796875 27.296875 
Q 14.796875 17.390625 18.875 11.75 
Q 22.953125 6.109375 30.078125 6.109375 
Q 37.203125 6.109375 41.296875 11.75 
Q 45.40625 17.390625 45.40625 27.296875 
Q 45.40625 37.203125 41.296875 42.84375 
Q 37.203125 48.484375 30.078125 48.484375 
Q 22.953125 48.484375 18.875 42.84375 
Q 14.796875 37.203125 14.796875 27.296875 
z
" id="DejaVuSans-100"/>
      </defs>
      <g transform="translate(379.027862 274.718437)scale(0.1 -0.1)">
       <use xlink:href="#DejaVuSans-87"/>
       <use x="98.798828" xlink:href="#DejaVuSans-101"/>
       <use x="160.322266" xlink:href="#DejaVuSans-100"/>
       <use x="223.798828" xlink:href="#DejaVuSans-32"/>
       <use x="255.585938" xlink:href="#DejaVuSans-48"/>
       <use x="319.208984" xlink:href="#DejaVuSans-48"/>
       <use x="382.832031" xlink:href="#DejaVuSans-58"/>
       <use x="416.523438" xlink:href="#DejaVuSans-48"/>
       <use x="480.146484" xlink:href="#DejaVuSans-48"/>
      </g>
     </g>
    </g>
    <g id="xtick_3">
     <g id="line2d_3">
      <g>
       <use style="stroke:#000000;stroke-width:0.8;" x="593.018004" xlink:href="#mecc446ba3d" y="260.12"/>
      </g>
     </g>
     <g id="text_3">
      <!-- Thu 00:00 -->
      <defs>
       <path d="M 54.890625 33.015625 
L 54.890625 0 
L 45.90625 0 
L 45.90625 32.71875 
Q 45.90625 40.484375 42.875 44.328125 
Q 39.84375 48.1875 33.796875 48.1875 
Q 26.515625 48.1875 22.3125 43.546875 
Q 18.109375 38.921875 18.109375 30.90625 
L 18.109375 0 
L 9.078125 0 
L 9.078125 75.984375 
L 18.109375 75.984375 
L 18.109375 46.1875 
Q 21.34375 51.125 25.703125 53.5625 
Q 30.078125 56 35.796875 56 
Q 45.21875 56 50.046875 50.171875 
Q 54.890625 44.34375 54.890625 33.015625 
z
" id="DejaVuSans-104"/>
      </defs>
      <g transform="translate(567.62816 274.718437)scale(0.1 -0.1)">
       <use xlink:href="#DejaVuSans-84"/>
       <use x="61.083984" xlink:href="#DejaVuSans-104"/>
       <use x="124.462891" xlink:href="#DejaVuSans-117"/>
       <use x="187.841797" xlink:href="#DejaVuSans-32"/>
       <use x="219.628906" xlink:href="#DejaVuSans-48"/>
       <use x="283.251953" xlink:href="#DejaVuSans-48"/>
       <use x="346.875" xlink:href="#DejaVuSans-58"/>
       <use x="380.566406" xlink:href="#DejaVuSans-48"/>
       <use x="444.189453" xlink:href="#DejaVuSans-48"/>
      </g>
     </g>
    </g>
    <g id="xtick_4">
     <g id="line2d_4">
      <g>
       <use style="stroke:#000000;stroke-width:0.8;" x="779.819083" xlink:href="#mecc446ba3d" y="260.12"/>
      </g>
     </g>
     <g id="text_4">
      <!-- Fri 00:00 -->
      <defs>
       <path d="M 9.8125 72.90625 
L 51.703125 72.90625 
L 51.703125 64.59375 
L 19.671875 64.59375 
L 19.671875 43.109375 
L 48.578125 43.109375 
L 48.578125 34.8125 
L 19.671875 34.8125 
L 19.671875 0 
L 9.8125 0 
z
" id="DejaVuSans-70"/>
       <path d="M 41.109375 46.296875 
Q 39.59375 47.171875 37.8125 47.578125 
Q 36.03125 48 33.890625 48 
Q 26.265625 48 22.1875 43.046875 
Q 18.109375 38.09375 18.109375 28.8125 
L 18.109375 0 
L 9.078125 0 
L 9.078125 54.6875 
L 18.109375 54.6875 
L 18.109375 46.1875 
Q 20.953125 51.171875 25.484375 53.578125 
Q 30.03125 56 36.53125 56 
Q 37.453125 56 38.578125 55.875 
Q 39.703125 55.765625 41.0625 55.515625 
z
" id="DejaVuSans-114"/>
       <path d="M 9.421875 54.6875 
L 18.40625 54.6875 
L 18.40625 0 
L 9.421875 0 
z
M 9.421875 75.984375 
L 18.40625 75.984375 
L 18.40625 64.59375 
L 9.421875 64.59375 
z
" id="DejaVuSans-105"/>
      </defs>
      <g transform="translate(757.505802 274.718437)scale(0.1 -0.1)">
       <use xlink:href="#DejaVuSans-70"/>
       <use x="57.410156" xlink:href="#DejaVuSans-114"/>
       <use x="98.523438" xlink:href="#DejaVuSans-105"/>
       <use x="126.306641" xlink:href="#DejaVuSans-32"/>
       <use x="158.09375" xlink:href="#DejaVuSans-48"/>
       <use x="221.716797" xlink:href="#DejaVuSans-48"/>
       <use x="285.339844" xlink:href="#DejaVuSans-58"/>
       <use x="319.03125" xlink:href="#DejaVuSans-48"/>
       <use x="382.654297" xlink:href="#DejaVuSans-48"/>
      </g>
     </g>
    </g>
    <g id="xtick_5">
     <g id="line2d_5">
      <g>
       <use style="stroke:#000000;stroke-width:0.8;" x="966.620163" xlink:href="#mecc446ba3d" y="260.12"/>
      </g>
     </g>
     <g id="text_5">
      <!-- Sat 00:00 -->
      <defs>
       <path d="M 53.515625 70.515625 
L 53.515625 60.890625 
Q 47.90625 63.578125 42.921875 64.890625 
Q 37.9375 66.21875 33.296875 66.21875 
Q 25.25 66.21875 20.875 63.09375 
Q 16.5 59.96875 16.5 54.203125 
Q 16.5 49.359375 19.40625 46.890625 
Q 22.3125 44.4375 30.421875 42.921875 
L 36.375 41.703125 
Q 47.40625 39.59375 52.65625 34.296875 
Q 57.90625 29 57.90625 20.125 
Q 57.90625 9.515625 50.796875 4.046875 
Q 43.703125 -1.421875 29.984375 -1.421875 
Q 24.8125 -1.421875 18.96875 -0.25 
Q 13.140625 0.921875 6.890625 3.21875 
L 6.890625 13.375 
Q 12.890625 10.015625 18.65625 8.296875 
Q 24.421875 6.59375 29.984375 6.59375 
Q 38.421875 6.59375 43.015625 9.90625 
Q 47.609375 13.234375 47.609375 19.390625 
Q 47.609375 24.75 44.3125 27.78125 
Q 41.015625 30.8125 33.5 32.328125 
L 27.484375 33.5 
Q 16.453125 35.6875 11.515625 40.375 
Q 6.59375 45.0625 6.59375 53.421875 
Q 6.59375 63.09375 13.40625 68.65625 
Q 20.21875 74.21875 32.171875 74.21875 
Q 37.3125 74.21875 42.625 73.28125 
Q 47.953125 72.359375 53.515625 70.515625 
z
" id="DejaVuSans-83"/>
       <path d="M 34.28125 27.484375 
Q 23.390625 27.484375 19.1875 25 
Q 14.984375 22.515625 14.984375 16.5 
Q 14.984375 11.71875 18.140625 8.90625 
Q 21.296875 6.109375 26.703125 6.109375 
Q 34.1875 6.109375 38.703125 11.40625 
Q 43.21875 16.703125 43.21875 25.484375 
L 43.21875 27.484375 
z
M 52.203125 31.203125 
L 52.203125 0 
L 43.21875 0 
L 43.21875 8.296875 
Q 40.140625 3.328125 35.546875 0.953125 
Q 30.953125 -1.421875 24.3125 -1.421875 
Q 15.921875 -1.421875 10.953125 3.296875 
Q 6 8.015625 6 15.921875 
Q 6 25.140625 12.171875 29.828125 
Q 18.359375 34.515625 30.609375 34.515625 
L 43.21875 34.515625 
L 43.21875 35.40625 
Q 43.21875 41.609375 39.140625 45 
Q 35.0625 48.390625 27.6875 48.390625 
Q 23 48.390625 18.546875 47.265625 
Q 14.109375 46.140625 10.015625 43.890625 
L 10.015625 52.203125 
Q 14.9375 54.109375 19.578125 55.046875 
Q 24.21875 56 28.609375 56 
Q 40.484375 56 46.34375 49.84375 
Q 52.203125 43.703125 52.203125 31.203125 
z
" id="DejaVuSans-97"/>
       <path d="M 18.3125 70.21875 
L 18.3125 54.6875 
L 36.8125 54.6875 
L 36.8125 47.703125 
L 18.3125 47.703125 
L 18.3125 18.015625 
Q 18.3125 11.328125 20.140625 9.421875 
Q 21.96875 7.515625 27.59375 7.515625 
L 36.8125 7.515625 
L 36.8125 0 
L 27.59375 0 
Q 17.1875 0 13.234375 3.875 
Q 9.28125 7.765625 9.28125 18.015625 
L 9.28125 47.703125 
L 2.6875 47.703125 
L 2.6875 54.6875 
L 9.28125 54.6875 
L 9.28125 70.21875 
z
" id="DejaVuSans-116"/>
      </defs>
      <g transform="translate(942.423288 274.718437)scale(0.1 -0.1)">
       <use xlink:href="#DejaVuSans-83"/>
       <use x="63.476562" xlink:href="#DejaVuSans-97"/>
       <use x="124.755859" xlink:href="#DejaVuSans-116"/>
       <use x="163.964844" xlink:href="#DejaVuSans-32"/>
       <use x="195.751953" xlink:href="#DejaVuSans-48"/>
       <use x="259.375" xlink:href="#DejaVuSans-48"/>
       <use x="322.998047" xlink:href="#DejaVuSans-58"/>
       <use x="356.689453" xlink:href="#DejaVuSans-48"/>
       <use x="420.3125" xlink:href="#DejaVuSans-48"/>
      </g>
     </g>
    </g>
   </g>
   <g id="matplotlib.axis_2">
    <g id="ytick_1">
     <g id="line2d_6">
      <defs>
       <path d="M 0 0 
L -3.5 0 
" id="m7d3c295c9b" style="stroke:#000000;stroke-width:0.8;"/>
      </defs>
      <g>
       <use style="stroke:#000000;stroke-width:0.8;" x="33.64" xlink:href="#m7d3c295c9b" y="260.12"/>
      </g>
     </g>
     <g id="text_6">
      <!-- 0 -->
      <g transform="translate(20.2775 263.919219)scale(0.1 -0.1)">
       <use xlink:href="#DejaVuSans-48"/>
      </g>
     </g>
    </g>
    <g id="ytick_2">
     <g id="line2d_7">
      <g>
       <use style="stroke:#000000;stroke-width:0.8;" x="33.64" xlink:href="#m7d3c295c9b" y="232.857778"/>
      </g>
     </g>
     <g id="text_7">
      <!-- 20 -->
      <defs>
       <path d="M 19.1875 8.296875 
L 53.609375 8.296875 
L 53.609375 0 
L 7.328125 0 
L 7.328125 8.296875 
Q 12.9375 14.109375 22.625 23.890625 
Q 32.328125 33.6875 34.8125 36.53125 
Q 39.546875 41.84375 41.421875 45.53125 
Q 43.3125 49.21875 43.3125 52.78125 
Q 43.3125 58.59375 39.234375 62.25 
Q 35.15625 65.921875 28.609375 65.921875 
Q 23.96875 65.921875 18.8125 64.3125 
Q 13.671875 62.703125 7.8125 59.421875 
L 7.8125 69.390625 
Q 13.765625 71.78125 18.9375 73 
Q 24.125 74.21875 28.421875 74.21875 
Q 39.75 74.21875 46.484375 68.546875 
Q 53.21875 62.890625 53.21875 53.421875 
Q 53.21875 48.921875 51.53125 44.890625 
Q 49.859375 40.875 45.40625 35.40625 
Q 44.1875 33.984375 37.640625 27.21875 
Q 31.109375 20.453125 19.1875 8.296875 
z
" id="DejaVuSans-50"/>
      </defs>
      <g transform="translate(13.915 236.656997)scale(0.1 -0.1)">
       <use xlink:href="#DejaVuSans-50"/>
       <use x="63.623047" xlink:href="#DejaVuSans-48"/>
      </g>
     </g>
    </g>
    <g id="ytick_3">
     <g id="line2d_8">
      <g>
       <use style="stroke:#000000;stroke-width:0.8;" x="33.64" xlink:href="#m7d3c295c9b" y="205.595556"/>
      </g>
     </g>
     <g id="text_8">
      <!-- 40 -->
      <defs>
       <path d="M 37.796875 64.3125 
L 12.890625 25.390625 
L 37.796875 25.390625 
z
M 35.203125 72.90625 
L 47.609375 72.90625 
L 47.609375 25.390625 
L 58.015625 25.390625 
L 58.015625 17.1875 
L 47.609375 17.1875 
L 47.609375 0 
L 37.796875 0 
L 37.796875 17.1875 
L 4.890625 17.1875 
L 4.890625 26.703125 
z
" id="DejaVuSans-52"/>
      </defs>
      <g transform="translate(13.915 209.394774)scale(0.1 -0.1)">
       <use xlink:href="#DejaVuSans-52"/>
       <use x="63.623047" xlink:href="#DejaVuSans-48"/>
      </g>
     </g>
    </g>
    <g id="ytick_4">
     <g id="line2d_9">
      <g>
       <use style="stroke:#000000;stroke-width:0.8;" x="33.64" xlink:href="#m7d3c295c9b" y="178.333333"/>
      </g>
     </g>
     <g id="text_9">
      <!-- 60 -->
      <defs>
       <path d="M 33.015625 40.375 
Q 26.375 40.375 22.484375 35.828125 
Q 18.609375 31.296875 18.609375 23.390625 
Q 18.609375 15.53125 22.484375 10.953125 
Q 26.375 6.390625 33.015625 6.390625 
Q 39.65625 6.390625 43.53125 10.953125 
Q 47.40625 15.53125 47.40625 23.390625 
Q 47.40625 31.296875 43.53125 35.828125 
Q 39.65625 40.375 33.015625 40.375 
z
M 52.59375 71.296875 
L 52.59375 62.3125 
Q 48.875 64.0625 45.09375 64.984375 
Q 41.3125 65.921875 37.59375 65.921875 
Q 27.828125 65.921875 22.671875 59.328125 
Q 17.53125 52.734375 16.796875 39.40625 
Q 19.671875 43.65625 24.015625 45.921875 
Q 28.375 48.1875 33.59375 48.1875 
Q 44.578125 48.1875 50.953125 41.515625 
Q 57.328125 34.859375 57.328125 23.390625 
Q 57.328125 12.15625 50.6875 5.359375 
Q 44.046875 -1.421875 33.015625 -1.421875 
Q 20.359375 -1.421875 13.671875 8.265625 
Q 6.984375 17.96875 6.984375 36.375 
Q 6.984375 53.65625 15.1875 63.9375 
Q 23.390625 74.21875 37.203125 74.21875 
Q 40.921875 74.21875 44.703125 73.484375 
Q 48.484375 72.75 52.59375 71.296875 
z
" id="DejaVuSans-54"/>
      </defs>
      <g transform="translate(13.915 182.132552)scale(0.1 -0.1)">
       <use xlink:href="#DejaVuSans-54"/>
       <use x="63.623047" xlink:href="#DejaVuSans-48"/>
      </g>
     </g>
    </g>
    <g id="ytick_5">
     <g id="line2d_10">
      <g>
       <use style="stroke:#000000;stroke-width:0.8;" x="33.64" xlink:href="#m7d3c295c9b" y="151.071111"/>
      </g>
     </g>
     <g id="text_10">
      <!-- 80 -->
      <defs>
       <path d="M 31.78125 34.625 
Q 24.75 34.625 20.71875 30.859375 
Q 16.703125 27.09375 16.703125 20.515625 
Q 16.703125 13.921875 20.71875 10.15625 
Q 24.75 6.390625 31.78125 6.390625 
Q 38.8125 6.390625 42.859375 10.171875 
Q 46.921875 13.96875 46.921875 20.515625 
Q 46.921875 27.09375 42.890625 30.859375 
Q 38.875 34.625 31.78125 34.625 
z
M 21.921875 38.8125 
Q 15.578125 40.375 12.03125 44.71875 
Q 8.5 49.078125 8.5 55.328125 
Q 8.5 64.0625 14.71875 69.140625 
Q 20.953125 74.21875 31.78125 74.21875 
Q 42.671875 74.21875 48.875 69.140625 
Q 55.078125 64.0625 55.078125 55.328125 
Q 55.078125 49.078125 51.53125 44.71875 
Q 48 40.375 41.703125 38.8125 
Q 48.828125 37.15625 52.796875 32.3125 
Q 56.78125 27.484375 56.78125 20.515625 
Q 56.78125 9.90625 50.3125 4.234375 
Q 43.84375 -1.421875 31.78125 -1.421875 
Q 19.734375 -1.421875 13.25 4.234375 
Q 6.78125 9.90625 6.78125 20.515625 
Q 6.78125 27.484375 10.78125 32.3125 
Q 14.796875 37.15625 21.921875 38.8125 
z
M 18.3125 54.390625 
Q 18.3125 48.734375 21.84375 45.5625 
Q 25.390625 42.390625 31.78125 42.390625 
Q 38.140625 42.390625 41.71875 45.5625 
Q 45.3125 48.734375 45.3125 54.390625 
Q 45.3125 60.0625 41.71875 63.234375 
Q 38.140625 66.40625 31.78125 66.40625 
Q 25.390625 66.40625 21.84375 63.234375 
Q 18.3125 60.0625 18.3125 54.390625 
z
" id="DejaVuSans-56"/>
      </defs>
      <g transform="translate(13.915 154.87033)scale(0.1 -0.1)">
       <use xlink:href="#DejaVuSans-56"/>
       <use x="63.623047" xlink:href="#DejaVuSans-48"/>
      </g>
     </g>
    </g>
    <g id="ytick_6">
     <g id="line2d_11">
      <g>
       <use style="stroke:#000000;stroke-width:0.8;" x="33.64" xlink:href="#m7d3c295c9b" y="123.808889"/>
      </g>
     </g>
     <g id="text_11">
      <!-- 100 -->
      <defs>
       <path d="M 12.40625 8.296875 
L 28.515625 8.296875 
L 28.515625 63.921875 
L 10.984375 60.40625 
L 10.984375 69.390625 
L 28.421875 72.90625 
L 38.28125 72.90625 
L 38.28125 8.296875 
L 54.390625 8.296875 
L 54.390625 0 
L 12.40625 0 
z
" id="DejaVuSans-49"/>
      </defs>
      <g transform="translate(7.5525 127.608108)scale(0.1 -0.1)">
       <use xlink:href="#DejaVuSans-49"/>
       <use x="63.623047" xlink:href="#DejaVuSans-48"/>
       <use x="127.246094" xlink:href="#DejaVuSans-48"/>
      </g>
     </g>
    </g>
    <g id="ytick_7">
     <g id="line2d_12">
      <g>
       <use style="stroke:#000000;stroke-width:0.8;" x="33.64" xlink:href="#m7d3c295c9b" y="96.546667"/>
      </g>
     </g>
     <g id="text_12">
      <!-- 120 -->
      <g transform="translate(7.5525 100.345885)scale(0.1 -0.1)">
       <use xlink:href="#DejaVuSans-49"/>
       <use x="63.623047" xlink:href="#DejaVuSans-50"/>
       <use x="127.246094" xlink:href="#DejaVuSans-48"/>
      </g>
     </g>
    </g>
    <g id="ytick_8">
     <g id="line2d_13">
      <g>
       <use style="stroke:#000000;stroke-width:0.8;" x="33.64" xlink:href="#m7d3c295c9b" y="69.284444"/>
      </g>
     </g>
     <g id="text_13">
      <!-- 140 -->
      <g transform="translate(7.5525 73.083663)scale(0.1 -0.1)">
       <use xlink:href="#DejaVuSans-49"/>
       <use x="63.623047" xlink:href="#DejaVuSans-52"/>
       <use x="127.246094" xlink:href="#DejaVuSans-48"/>
      </g>
     </g>
    </g>
    <g id="ytick_9">
     <g id="line2d_14">
      <g>
       <use style="stroke:#000000;stroke-width:0.8;" x="33.64" xlink:href="#m7d3c295c9b" y="42.022222"/>
      </g>
     </g>
     <g id="text_14">
      <!-- 160 -->
      <g transform="translate(7.5525 45.821441)scale(0.1 -0.1)">
       <use xlink:href="#DejaVuSans-49"/>
       <use x="63.623047" xlink:href="#DejaVuSans-54"/>
       <use x="127.246094" xlink:href="#DejaVuSans-48"/>
      </g>
     </g>
    </g>
    <g id="ytick_10">
     <g id="line2d_15">
      <g>
       <use style="stroke:#000000;stroke-width:0.8;" x="33.64" xlink:href="#m7d3c295c9b" y="14.76"/>
      </g>
     </g>
     <g id="text_15">
      <!-- 180 -->
      <g transform="translate(7.5525 18.559219)scale(0.1 -0.1)">
       <use xlink:href="#DejaVuSans-49"/>
       <use x="63.623047" xlink:href="#DejaVuSans-56"/>
       <use x="127.246094" xlink:href="#DejaVuSans-48"/>
      </g>
     </g>
    </g>
   </g>
   <g id="line2d_16">
    <path clip-path="url(#pc739397287)" d="M 33.64 260.12 
L 104.538268 260.12 
L 105.873019 254.667556 
L 107.207139 254.667556 
L 108.544183 242.399556 
L 109.87748 241.036444 
L 111.21111 230.131556 
L 112.548671 230.131556 
L 113.887118 226.042222 
L 115.22156 224.679111 
L 117.889595 224.679111 
L 120.556624 216.500444 
L 121.890201 216.500444 
L 123.223641 221.952889 
L 124.557859 221.952889 
L 125.891 231.494667 
L 127.226083 235.584 
L 129.893866 235.584 
L 132.564199 227.405333 
L 133.897583 227.405333 
L 135.23137 231.494667 
L 136.565781 224.679111 
L 137.89905 224.679111 
L 139.232091 227.405333 
L 140.571095 224.679111 
L 141.905602 226.042222 
L 143.239813 226.042222 
L 144.573545 231.494667 
L 145.907692 231.494667 
L 147.240695 230.131556 
L 148.573508 227.405333 
L 149.907249 227.405333 
L 151.242623 226.042222 
L 152.577933 221.952889 
L 153.91303 223.316 
L 155.249453 223.316 
L 156.583875 219.226667 
L 157.918029 216.500444 
L 159.251635 216.500444 
L 160.585596 206.958667 
L 161.92 208.321778 
L 163.254105 205.595556 
L 164.589027 205.595556 
L 165.92299 198.78 
L 167.256691 198.78 
L 168.590567 197.416889 
L 171.25973 197.416889 
L 172.593291 193.327556 
L 175.26073 159.249778 
L 176.596225 159.249778 
L 177.93343 149.708 
L 179.268582 136.076889 
L 181.938423 136.076889 
L 183.273089 140.166222 
L 184.606845 140.166222 
L 185.942179 141.529333 
L 187.27696 137.44 
L 188.611192 137.44 
L 189.947264 131.987556 
L 191.286229 111.540889 
L 192.620843 116.993333 
L 193.957326 116.993333 
L 195.292383 121.082667 
L 196.630292 126.535111 
L 200.632539 126.535111 
L 201.966319 142.892444 
L 204.633105 153.797333 
L 205.969477 153.797333 
L 207.303211 168.791556 
L 208.638209 179.696444 
L 209.971884 179.696444 
L 211.306501 185.148889 
L 212.640914 193.327556 
L 215.311732 193.327556 
L 216.646282 260.12 
L 288.911615 260.12 
L 290.224336 258.756889 
L 291.561998 258.756889 
L 292.895743 251.941333 
L 294.229451 246.488889 
L 295.566634 246.488889 
L 296.906124 243.762667 
L 298.24092 224.679111 
L 299.576319 216.500444 
L 300.910533 216.500444 
L 302.245179 213.774222 
L 303.579103 213.774222 
L 304.913756 211.048 
L 307.58279 211.048 
L 308.918178 204.232444 
L 310.253427 211.048 
L 312.921149 211.048 
L 315.591533 213.774222 
L 316.928631 213.774222 
L 318.263808 215.137333 
L 319.598178 226.042222 
L 320.932869 226.042222 
L 322.267051 236.947111 
L 323.603047 242.399556 
L 324.936392 242.399556 
L 327.604872 239.673333 
L 328.940236 236.947111 
L 334.281983 236.947111 
L 336.952718 231.494667 
L 338.288948 227.405333 
L 339.623693 227.405333 
L 340.958965 226.042222 
L 342.292654 226.042222 
L 343.627267 220.589778 
L 345.03114 217.863556 
L 346.367257 217.863556 
L 347.702469 211.048 
L 349.036769 197.416889 
L 350.371822 194.690667 
L 351.708445 194.690667 
L 353.046817 183.785778 
L 354.385245 175.607111 
L 355.721849 175.607111 
L 357.059 151.071111 
L 358.395672 129.261333 
L 359.731383 129.261333 
L 361.065572 121.082667 
L 362.39974 103.362222 
L 363.734347 103.362222 
L 365.069402 93.820444 
L 366.409164 88.368 
L 367.743575 88.368 
L 369.077605 74.736889 
L 370.414118 77.463111 
L 371.752593 73.373778 
L 373.086752 73.373778 
L 374.421621 88.368 
L 375.757824 89.731111 
L 377.092268 89.731111 
L 378.42913 93.820444 
L 379.763422 115.630222 
L 381.098745 115.630222 
L 382.433539 131.987556 
L 383.767657 140.166222 
L 385.101831 140.166222 
L 386.435812 148.344889 
L 389.103023 148.344889 
L 390.439136 157.886667 
L 391.773519 163.339111 
L 393.110171 163.339111 
L 394.44371 168.791556 
L 395.780458 185.148889 
L 397.114487 185.148889 
L 399.791845 204.232444 
L 401.128519 260.12 
L 476.048352 260.12 
L 477.361182 258.756889 
L 478.695403 258.756889 
L 480.030753 241.036444 
L 481.368035 232.857778 
L 482.703069 230.131556 
L 484.037892 230.131556 
L 485.379422 226.042222 
L 488.050229 226.042222 
L 489.388091 224.679111 
L 490.723404 217.863556 
L 492.058597 217.863556 
L 493.393482 219.226667 
L 494.730987 216.500444 
L 496.067481 216.500444 
L 497.401884 219.226667 
L 498.736668 228.768444 
L 504.082373 228.768444 
L 505.416998 231.494667 
L 506.751118 238.310222 
L 508.087811 242.399556 
L 509.424893 242.399556 
L 510.759819 243.762667 
L 512.096163 242.399556 
L 513.430056 242.399556 
L 516.100971 236.947111 
L 517.435694 235.584 
L 518.769663 235.584 
L 520.104918 231.494667 
L 521.43944 231.494667 
L 522.774221 223.316 
L 524.108405 223.316 
L 525.443406 216.500444 
L 526.778051 216.500444 
L 528.114702 219.226667 
L 530.782565 219.226667 
L 532.119415 205.595556 
L 533.456444 204.232444 
L 534.794365 204.232444 
L 537.467919 190.601333 
L 538.801844 182.422667 
L 540.141678 182.422667 
L 541.476879 189.238222 
L 542.810583 189.238222 
L 544.143949 182.422667 
L 545.478841 167.428444 
L 546.812744 167.428444 
L 548.151665 164.702222 
L 549.485359 159.249778 
L 550.819728 151.071111 
L 552.153453 151.071111 
L 553.487392 155.160444 
L 554.82357 144.255556 
L 556.159023 144.255556 
L 557.494673 140.166222 
L 558.829527 126.535111 
L 560.165999 126.535111 
L 561.500776 125.172 
L 562.837381 131.987556 
L 564.171018 131.987556 
L 565.505914 111.540889 
L 566.840407 101.999111 
L 568.175167 97.909778 
L 569.509876 97.909778 
L 570.843967 101.999111 
L 572.178842 101.999111 
L 573.513748 108.814667 
L 574.850655 123.808889 
L 576.184612 137.44 
L 577.520263 137.44 
L 578.855341 153.797333 
L 580.192673 159.249778 
L 581.526561 159.249778 
L 582.861285 175.607111 
L 584.197437 187.875111 
L 585.535717 187.875111 
L 586.869524 196.053778 
L 588.203955 209.684889 
L 589.540553 209.684889 
L 590.87693 260.12 
L 664.457407 260.12 
L 665.791794 254.667556 
L 667.125859 254.667556 
L 668.460154 236.947111 
L 669.794385 227.405333 
L 671.128336 224.679111 
L 672.462348 224.679111 
L 673.796184 227.405333 
L 675.12972 227.405333 
L 676.462913 221.952889 
L 677.79726 220.589778 
L 679.133761 217.863556 
L 680.468629 217.863556 
L 681.803005 221.952889 
L 683.136457 220.589778 
L 684.471315 220.589778 
L 685.804417 224.679111 
L 687.138046 231.494667 
L 689.811399 231.494667 
L 691.145323 232.857778 
L 692.479095 232.857778 
L 693.813909 235.584 
L 695.148352 234.220889 
L 696.481977 234.220889 
L 697.815288 235.584 
L 699.149127 238.310222 
L 700.483363 243.762667 
L 704.484925 243.762667 
L 707.153731 238.310222 
L 708.490929 234.220889 
L 709.824682 234.220889 
L 711.158496 232.857778 
L 712.493236 228.768444 
L 717.833609 228.768444 
L 720.504286 226.042222 
L 721.838937 223.316 
L 723.173064 223.316 
L 725.844242 198.78 
L 727.179907 198.78 
L 728.515661 204.232444 
L 729.851327 204.232444 
L 731.188058 201.506222 
L 732.522185 189.238222 
L 733.856986 186.512 
L 735.190997 186.512 
L 737.859603 142.892444 
L 739.195126 142.892444 
L 740.529928 131.987556 
L 741.865321 136.076889 
L 743.199961 136.076889 
L 744.534716 119.719556 
L 745.869611 116.993333 
L 747.20413 116.993333 
L 748.538603 107.451556 
L 749.87491 108.814667 
L 751.210173 108.814667 
L 752.544401 103.362222 
L 753.879455 88.368 
L 755.215299 84.278667 
L 756.550904 84.278667 
L 757.886234 100.636 
L 759.220712 107.451556 
L 760.555006 107.451556 
L 761.889357 122.445778 
L 763.224793 160.612889 
L 764.559319 160.612889 
L 765.894358 163.339111 
L 767.229152 168.791556 
L 768.563576 168.791556 
L 769.898631 190.601333 
L 771.233377 198.78 
L 772.568602 211.048 
L 773.903122 211.048 
L 775.238168 260.12 
L 850.150731 260.12 
L 851.485877 256.030667 
L 852.820712 250.578222 
L 854.155502 250.578222 
L 855.491612 238.310222 
L 856.827875 234.220889 
L 858.165621 234.220889 
L 859.500184 228.768444 
L 860.835096 226.042222 
L 862.171657 220.589778 
L 864.845763 220.589778 
L 866.182948 221.952889 
L 867.516572 221.952889 
L 868.85071 220.589778 
L 872.855673 220.589778 
L 874.189725 223.316 
L 875.524632 223.316 
L 876.859965 224.679111 
L 878.19439 227.405333 
L 879.530951 227.405333 
L 880.865628 220.589778 
L 883.536939 217.863556 
L 884.873214 217.863556 
L 886.212274 215.137333 
L 887.550656 215.137333 
L 888.887462 213.774222 
L 890.221367 211.048 
L 891.557443 213.774222 
L 892.892272 213.774222 
L 895.560548 216.500444 
L 896.893647 216.500444 
L 898.22715 205.595556 
L 899.560939 212.411111 
L 900.894909 213.774222 
L 902.228642 213.774222 
L 903.562206 205.595556 
L 904.898156 205.595556 
L 906.23222 206.958667 
L 907.565526 213.774222 
L 908.899699 197.416889 
L 910.235059 197.416889 
L 911.571268 191.964444 
L 912.905475 183.785778 
L 914.242516 183.785778 
L 915.576549 170.154667 
L 916.910121 178.333333 
L 918.247297 178.333333 
L 919.581013 181.059556 
L 920.91601 166.065333 
L 922.249766 166.065333 
L 923.586877 163.339111 
L 924.923678 156.523556 
L 926.259433 140.166222 
L 927.593733 140.166222 
L 928.927624 145.618667 
L 930.264939 145.618667 
L 931.599546 148.344889 
L 932.936978 146.981778 
L 934.273465 159.249778 
L 935.610516 159.249778 
L 936.944737 156.523556 
L 938.281792 159.249778 
L 939.615624 159.249778 
L 942.287566 170.154667 
L 943.622203 176.970222 
L 944.957409 176.970222 
L 946.292191 179.696444 
L 947.627458 179.696444 
L 948.960993 190.601333 
L 950.295155 197.416889 
L 951.631754 197.416889 
L 952.966238 206.958667 
L 954.304104 215.137333 
L 955.638721 217.863556 
L 956.975234 217.863556 
L 958.310499 221.952889 
L 959.644621 227.405333 
L 960.980833 227.405333 
L 962.31493 260.12 
L 1038.549118 260.12 
L 1039.883486 258.756889 
L 1041.219726 238.310222 
L 1042.555654 238.310222 
L 1043.893078 221.952889 
L 1045.226514 212.411111 
L 1046.562412 212.411111 
L 1047.895875 208.321778 
L 1049.231993 201.506222 
L 1050.565748 201.506222 
L 1051.901633 190.601333 
L 1053.237973 181.059556 
L 1054.572202 182.422667 
L 1055.905835 182.422667 
L 1057.239722 179.696444 
L 1058.572623 187.875111 
L 1059.906699 187.875111 
L 1061.239927 197.416889 
L 1062.574397 197.416889 
L 1063.907328 194.690667 
L 1065.240392 197.416889 
L 1066.573965 194.690667 
L 1067.908054 194.690667 
L 1069.241516 197.416889 
L 1070.574464 201.506222 
L 1071.907596 201.506222 
L 1073.241554 200.143111 
L 1074.577669 197.416889 
L 1075.911214 202.869333 
L 1077.244794 202.869333 
L 1078.57813 206.958667 
L 1079.911125 206.958667 
L 1081.24438 194.690667 
L 1082.57757 206.958667 
L 1083.91238 208.321778 
L 1085.245624 208.321778 
L 1086.578661 211.048 
L 1087.911782 211.048 
L 1089.244849 206.958667 
L 1090.580943 209.684889 
L 1091.914025 209.684889 
L 1093.250373 212.411111 
L 1094.58488 209.684889 
L 1095.918301 211.048 
L 1097.254312 211.048 
L 1098.587828 205.595556 
L 1099.925156 208.321778 
L 1101.258929 208.321778 
L 1102.592152 212.411111 
L 1103.925408 220.589778 
L 1105.258746 217.863556 
L 1106.591605 217.863556 
L 1107.928033 234.220889 
L 1109.261167 234.220889 
L 1110.594575 236.947111 
L 1111.930808 241.036444 
L 1113.264401 236.947111 
L 1115.936591 236.947111 
L 1117.271309 234.220889 
L 1118.606338 234.220889 
L 1119.939726 230.131556 
L 1121.272891 236.947111 
L 1122.606856 236.947111 
L 1123.94319 235.584 
L 1125.276476 231.494667 
L 1126.610045 230.131556 
L 1131.946488 230.131556 
L 1133.28 228.768444 
L 1133.28 228.768444 
" style="fill:none;stroke:#1f77b4;stroke-linecap:square;stroke-width:1.5;"/>
   </g>
   <g id="patch_3">
    <path d="M 33.64 260.12 
L 33.64 14.76 
" style="fill:none;stroke:#000000;stroke-linecap:square;stroke-linejoin:miter;stroke-width:0.8;"/>
   </g>
   <g id="patch_4">
    <path d="M 1133.28 260.12 
L 1133.28 14.76 
" style="fill:none;stroke:#000000;stroke-linecap:square;stroke-linejoin:miter;stroke-width:0.8;"/>
   </g>
   <g id="patch_5">
    <path d="M 33.64 260.12 
L 1133.28 260.12 
" style="fill:none;stroke:#000000;stroke-linecap:square;stroke-linejoin:miter;stroke-width:0.8;"/>
   </g>
   <g id="patch_6">
    <path d="M 33.64 14.76 
L 1133.28 14.76 
" style="fill:none;stroke:#000000;stroke-linecap:square;stroke-linejoin:miter;stroke-width:0.8;"/>
   </g>
  </g>
 </g>
 <defs>
  <clipPath id="pc739397287">
   <rect height="245.36" width="1099.64" x="33.64" y="14.76"/>
  </clipPath>
 </defs>
</svg>
