<?xml version="1.0" encoding="utf-8" standalone="no"?>
<!DOCTYPE svg PUBLIC "-//W3C//DTD SVG 1.1//EN"
  "http://www.w3.org/Graphics/SVG/1.1/DTD/svg11.dtd">
<!-- Created with matplotlib (https://matplotlib.org/) -->
<svg height="288pt" version="1.1" viewBox="0 0 1152 288" width="1152pt" xmlns="http://www.w3.org/2000/svg" xmlns:xlink="http://www.w3.org/1999/xlink">
 <defs>
  <style type="text/css">
*{stroke-linecap:butt;stroke-linejoin:round;}
  </style>
 </defs>
 <g id="figure_1">
  <g id="patch_1">
   <path d="M 0 288 
L 1152 288 
L 1152 0 
L 0 0 
z
" style="fill:#ffffff;"/>
  </g>
  <g id="axes_1">
   <g id="patch_2">
    <path d="M 33.64 260.12 
L 1133.28 260.12 
L 1133.28 14.76 
L 33.64 14.76 
z
" style="fill:#ffffff;"/>
   </g>
   <g id="matplotlib.axis_1">
    <g id="xtick_1">
     <g id="line2d_1">
      <defs>
       <path d="M 0 0 
L 0 3.5 
" id="m14f35a9420" style="stroke:#000000;stroke-width:0.8;"/>
      </defs>
      <g>
       <use style="stroke:#000000;stroke-width:0.8;" x="156.252341" xlink:href="#m14f35a9420" y="260.12"/>
      </g>
     </g>
     <g id="text_1">
      <!-- Mon 12:00 -->
      <defs>
       <path d="M 9.8125 72.90625 
L 24.515625 72.90625 
L 43.109375 23.296875 
L 61.8125 72.90625 
L 76.515625 72.90625 
L 76.515625 0 
L 66.890625 0 
L 66.890625 64.015625 
L 48.09375 14.015625 
L 38.1875 14.015625 
L 19.390625 64.015625 
L 19.390625 0 
L 9.8125 0 
z
" id="DejaVuSans-77"/>
       <path d="M 30.609375 48.390625 
Q 23.390625 48.390625 19.1875 42.75 
Q 14.984375 37.109375 14.984375 27.296875 
Q 14.984375 17.484375 19.15625 11.84375 
Q 23.34375 6.203125 30.609375 6.203125 
Q 37.796875 6.203125 41.984375 11.859375 
Q 46.1875 17.53125 46.1875 27.296875 
Q 46.1875 37.015625 41.984375 42.703125 
Q 37.796875 48.390625 30.609375 48.390625 
z
M 30.609375 56 
Q 42.328125 56 49.015625 48.375 
Q 55.71875 40.765625 55.71875 27.296875 
Q 55.71875 13.875 49.015625 6.21875 
Q 42.328125 -1.421875 30.609375 -1.421875 
Q 18.84375 -1.421875 12.171875 6.21875 
Q 5.515625 13.875 5.515625 27.296875 
Q 5.515625 40.765625 12.171875 48.375 
Q 18.84375 56 30.609375 56 
z
" id="DejaVuSans-111"/>
       <path d="M 54.890625 33.015625 
L 54.890625 0 
L 45.90625 0 
L 45.90625 32.71875 
Q 45.90625 40.484375 42.875 44.328125 
Q 39.84375 48.1875 33.796875 48.1875 
Q 26.515625 48.1875 22.3125 43.546875 
Q 18.109375 38.921875 18.109375 30.90625 
L 18.109375 0 
L 9.078125 0 
L 9.078125 54.6875 
L 18.109375 54.6875 
L 18.109375 46.1875 
Q 21.34375 51.125 25.703125 53.5625 
Q 30.078125 56 35.796875 56 
Q 45.21875 56 50.046875 50.171875 
Q 54.890625 44.34375 54.890625 33.015625 
z
" id="DejaVuSans-110"/>
       <path id="DejaVuSans-32"/>
       <path d="M 12.40625 8.296875 
L 28.515625 8.296875 
L 28.515625 63.921875 
L 10.984375 60.40625 
L 10.984375 69.390625 
L 28.421875 72.90625 
L 38.28125 72.90625 
L 38.28125 8.296875 
L 54.390625 8.296875 
L 54.390625 0 
L 12.40625 0 
z
" id="DejaVuSans-49"/>
       <path d="M 19.1875 8.296875 
L 53.609375 8.296875 
L 53.609375 0 
L 7.328125 0 
L 7.328125 8.296875 
Q 12.9375 14.109375 22.625 23.890625 
Q 32.328125 33.6875 34.8125 36.53125 
Q 39.546875 41.84375 41.421875 45.53125 
Q 43.3125 49.21875 43.3125 52.78125 
Q 43.3125 58.59375 39.234375 62.25 
Q 35.15625 65.921875 28.609375 65.921875 
Q 23.96875 65.921875 18.8125 64.3125 
Q 13.671875 62.703125 7.8125 59.421875 
L 7.8125 69.390625 
Q 13.765625 71.78125 18.9375 73 
Q 24.125 74.21875 28.421875 74.21875 
Q 39.75 74.21875 46.484375 68.546875 
Q 53.21875 62.890625 53.21875 53.421875 
Q 53.21875 48.921875 51.53125 44.890625 
Q 49.859375 40.875 45.40625 35.40625 
Q 44.1875 33.984375 37.640625 27.21875 
Q 31.109375 20.453125 19.1875 8.296875 
z
" id="DejaVuSans-50"/>
       <path d="M 11.71875 12.40625 
L 22.015625 12.40625 
L 22.015625 0 
L 11.71875 0 
z
M 11.71875 51.703125 
L 22.015625 51.703125 
L 22.015625 39.3125 
L 11.71875 39.3125 
z
" id="DejaVuSans-58"/>
       <path d="M 31.78125 66.40625 
Q 24.171875 66.40625 20.328125 58.90625 
Q 16.5 51.421875 16.5 36.375 
Q 16.5 21.390625 20.328125 13.890625 
Q 24.171875 6.390625 31.78125 6.390625 
Q 39.453125 6.390625 43.28125 13.890625 
Q 47.125 21.390625 47.125 36.375 
Q 47.125 51.421875 43.28125 58.90625 
Q 39.453125 66.40625 31.78125 66.40625 
z
M 31.78125 74.21875 
Q 44.046875 74.21875 50.515625 64.515625 
Q 56.984375 54.828125 56.984375 36.375 
Q 56.984375 17.96875 50.515625 8.265625 
Q 44.046875 -1.421875 31.78125 -1.421875 
Q 19.53125 -1.421875 13.0625 8.265625 
Q 6.59375 17.96875 6.59375 36.375 
Q 6.59375 54.828125 13.0625 64.515625 
Q 19.53125 74.21875 31.78125 74.21875 
z
" id="DejaVuSans-48"/>
      </defs>
      <g transform="translate(129.711716 274.718437)scale(0.1 -0.1)">
       <use xlink:href="#DejaVuSans-77"/>
       <use x="86.279297" xlink:href="#DejaVuSans-111"/>
       <use x="147.460938" xlink:href="#DejaVuSans-110"/>
       <use x="210.839844" xlink:href="#DejaVuSans-32"/>
       <use x="242.626953" xlink:href="#DejaVuSans-49"/>
       <use x="306.25" xlink:href="#DejaVuSans-50"/>
       <use x="369.873047" xlink:href="#DejaVuSans-58"/>
       <use x="403.564453" xlink:href="#DejaVuSans-48"/>
       <use x="467.1875" xlink:href="#DejaVuSans-48"/>
      </g>
     </g>
    </g>
    <g id="xtick_2">
     <g id="line2d_2">
      <g>
       <use style="stroke:#000000;stroke-width:0.8;" x="279.760443" xlink:href="#m14f35a9420" y="260.12"/>
      </g>
     </g>
     <g id="text_2">
      <!-- Tue 00:00 -->
      <defs>
       <path d="M -0.296875 72.90625 
L 61.375 72.90625 
L 61.375 64.59375 
L 35.5 64.59375 
L 35.5 0 
L 25.59375 0 
L 25.59375 64.59375 
L -0.296875 64.59375 
z
" id="DejaVuSans-84"/>
       <path d="M 8.5 21.578125 
L 8.5 54.6875 
L 17.484375 54.6875 
L 17.484375 21.921875 
Q 17.484375 14.15625 20.5 10.265625 
Q 23.53125 6.390625 29.59375 6.390625 
Q 36.859375 6.390625 41.078125 11.03125 
Q 45.3125 15.671875 45.3125 23.6875 
L 45.3125 54.6875 
L 54.296875 54.6875 
L 54.296875 0 
L 45.3125 0 
L 45.3125 8.40625 
Q 42.046875 3.421875 37.71875 1 
Q 33.40625 -1.421875 27.6875 -1.421875 
Q 18.265625 -1.421875 13.375 4.4375 
Q 8.5 10.296875 8.5 21.578125 
z
M 31.109375 56 
z
" id="DejaVuSans-117"/>
       <path d="M 56.203125 29.59375 
L 56.203125 25.203125 
L 14.890625 25.203125 
Q 15.484375 15.921875 20.484375 11.0625 
Q 25.484375 6.203125 34.421875 6.203125 
Q 39.59375 6.203125 44.453125 7.46875 
Q 49.3125 8.734375 54.109375 11.28125 
L 54.109375 2.78125 
Q 49.265625 0.734375 44.1875 -0.34375 
Q 39.109375 -1.421875 33.890625 -1.421875 
Q 20.796875 -1.421875 13.15625 6.1875 
Q 5.515625 13.8125 5.515625 26.8125 
Q 5.515625 40.234375 12.765625 48.109375 
Q 20.015625 56 32.328125 56 
Q 43.359375 56 49.78125 48.890625 
Q 56.203125 41.796875 56.203125 29.59375 
z
M 47.21875 32.234375 
Q 47.125 39.59375 43.09375 43.984375 
Q 39.0625 48.390625 32.421875 48.390625 
Q 24.90625 48.390625 20.390625 44.140625 
Q 15.875 39.890625 15.1875 32.171875 
z
" id="DejaVuSans-101"/>
      </defs>
      <g transform="translate(254.474505 274.718437)scale(0.1 -0.1)">
       <use xlink:href="#DejaVuSans-84"/>
       <use x="60.849609" xlink:href="#DejaVuSans-117"/>
       <use x="124.228516" xlink:href="#DejaVuSans-101"/>
       <use x="185.751953" xlink:href="#DejaVuSans-32"/>
       <use x="217.539062" xlink:href="#DejaVuSans-48"/>
       <use x="281.162109" xlink:href="#DejaVuSans-48"/>
       <use x="344.785156" xlink:href="#DejaVuSans-58"/>
       <use x="378.476562" xlink:href="#DejaVuSans-48"/>
       <use x="442.099609" xlink:href="#DejaVuSans-48"/>
      </g>
     </g>
    </g>
    <g id="xtick_3">
     <g id="line2d_3">
      <g>
       <use style="stroke:#000000;stroke-width:0.8;" x="403.268545" xlink:href="#m14f35a9420" y="260.12"/>
      </g>
     </g>
     <g id="text_3">
      <!-- Tue 12:00 -->
      <g transform="translate(377.982608 274.718437)scale(0.1 -0.1)">
       <use xlink:href="#DejaVuSans-84"/>
       <use x="60.849609" xlink:href="#DejaVuSans-117"/>
       <use x="124.228516" xlink:href="#DejaVuSans-101"/>
       <use x="185.751953" xlink:href="#DejaVuSans-32"/>
       <use x="217.539062" xlink:href="#DejaVuSans-49"/>
       <use x="281.162109" xlink:href="#DejaVuSans-50"/>
       <use x="344.785156" xlink:href="#DejaVuSans-58"/>
       <use x="378.476562" xlink:href="#DejaVuSans-48"/>
       <use x="442.099609" xlink:href="#DejaVuSans-48"/>
      </g>
     </g>
    </g>
    <g id="xtick_4">
     <g id="line2d_4">
      <g>
       <use style="stroke:#000000;stroke-width:0.8;" x="526.776647" xlink:href="#m14f35a9420" y="260.12"/>
      </g>
     </g>
     <g id="text_4">
      <!-- Wed 00:00 -->
      <defs>
       <path d="M 3.328125 72.90625 
L 13.28125 72.90625 
L 28.609375 11.28125 
L 43.890625 72.90625 
L 54.984375 72.90625 
L 70.3125 11.28125 
L 85.59375 72.90625 
L 95.609375 72.90625 
L 77.296875 0 
L 64.890625 0 
L 49.515625 63.28125 
L 33.984375 0 
L 21.578125 0 
z
" id="DejaVuSans-87"/>
       <path d="M 45.40625 46.390625 
L 45.40625 75.984375 
L 54.390625 75.984375 
L 54.390625 0 
L 45.40625 0 
L 45.40625 8.203125 
Q 42.578125 3.328125 38.25 0.953125 
Q 33.9375 -1.421875 27.875 -1.421875 
Q 17.96875 -1.421875 11.734375 6.484375 
Q 5.515625 14.40625 5.515625 27.296875 
Q 5.515625 40.1875 11.734375 48.09375 
Q 17.96875 56 27.875 56 
Q 33.9375 56 38.25 53.625 
Q 42.578125 51.265625 45.40625 46.390625 
z
M 14.796875 27.296875 
Q 14.796875 17.390625 18.875 11.75 
Q 22.953125 6.109375 30.078125 6.109375 
Q 37.203125 6.109375 41.296875 11.75 
Q 45.40625 17.390625 45.40625 27.296875 
Q 45.40625 37.203125 41.296875 42.84375 
Q 37.203125 48.484375 30.078125 48.484375 
Q 22.953125 48.484375 18.875 42.84375 
Q 14.796875 37.203125 14.796875 27.296875 
z
" id="DejaVuSans-100"/>
      </defs>
      <g transform="translate(499.587585 274.718437)scale(0.1 -0.1)">
       <use xlink:href="#DejaVuSans-87"/>
       <use x="98.798828" xlink:href="#DejaVuSans-101"/>
       <use x="160.322266" xlink:href="#DejaVuSans-100"/>
       <use x="223.798828" xlink:href="#DejaVuSans-32"/>
       <use x="255.585938" xlink:href="#DejaVuSans-48"/>
       <use x="319.208984" xlink:href="#DejaVuSans-48"/>
       <use x="382.832031" xlink:href="#DejaVuSans-58"/>
       <use x="416.523438" xlink:href="#DejaVuSans-48"/>
       <use x="480.146484" xlink:href="#DejaVuSans-48"/>
      </g>
     </g>
    </g>
    <g id="xtick_5">
     <g id="line2d_5">
      <g>
       <use style="stroke:#000000;stroke-width:0.8;" x="650.28475" xlink:href="#m14f35a9420" y="260.12"/>
      </g>
     </g>
     <g id="text_5">
      <!-- Wed 12:00 -->
      <g transform="translate(623.095687 274.718437)scale(0.1 -0.1)">
       <use xlink:href="#DejaVuSans-87"/>
       <use x="98.798828" xlink:href="#DejaVuSans-101"/>
       <use x="160.322266" xlink:href="#DejaVuSans-100"/>
       <use x="223.798828" xlink:href="#DejaVuSans-32"/>
       <use x="255.585938" xlink:href="#DejaVuSans-49"/>
       <use x="319.208984" xlink:href="#DejaVuSans-50"/>
       <use x="382.832031" xlink:href="#DejaVuSans-58"/>
       <use x="416.523438" xlink:href="#DejaVuSans-48"/>
       <use x="480.146484" xlink:href="#DejaVuSans-48"/>
      </g>
     </g>
    </g>
    <g id="xtick_6">
     <g id="line2d_6">
      <g>
       <use style="stroke:#000000;stroke-width:0.8;" x="773.792852" xlink:href="#m14f35a9420" y="260.12"/>
      </g>
     </g>
     <g id="text_6">
      <!-- Thu 00:00 -->
      <defs>
       <path d="M 54.890625 33.015625 
L 54.890625 0 
L 45.90625 0 
L 45.90625 32.71875 
Q 45.90625 40.484375 42.875 44.328125 
Q 39.84375 48.1875 33.796875 48.1875 
Q 26.515625 48.1875 22.3125 43.546875 
Q 18.109375 38.921875 18.109375 30.90625 
L 18.109375 0 
L 9.078125 0 
L 9.078125 75.984375 
L 18.109375 75.984375 
L 18.109375 46.1875 
Q 21.34375 51.125 25.703125 53.5625 
Q 30.078125 56 35.796875 56 
Q 45.21875 56 50.046875 50.171875 
Q 54.890625 44.34375 54.890625 33.015625 
z
" id="DejaVuSans-104"/>
      </defs>
      <g transform="translate(748.403008 274.718437)scale(0.1 -0.1)">
       <use xlink:href="#DejaVuSans-84"/>
       <use x="61.083984" xlink:href="#DejaVuSans-104"/>
       <use x="124.462891" xlink:href="#DejaVuSans-117"/>
       <use x="187.841797" xlink:href="#DejaVuSans-32"/>
       <use x="219.628906" xlink:href="#DejaVuSans-48"/>
       <use x="283.251953" xlink:href="#DejaVuSans-48"/>
       <use x="346.875" xlink:href="#DejaVuSans-58"/>
       <use x="380.566406" xlink:href="#DejaVuSans-48"/>
       <use x="444.189453" xlink:href="#DejaVuSans-48"/>
      </g>
     </g>
    </g>
    <g id="xtick_7">
     <g id="line2d_7">
      <g>
       <use style="stroke:#000000;stroke-width:0.8;" x="897.300954" xlink:href="#m14f35a9420" y="260.12"/>
      </g>
     </g>
     <g id="text_7">
      <!-- Thu 12:00 -->
      <g transform="translate(871.91111 274.718437)scale(0.1 -0.1)">
       <use xlink:href="#DejaVuSans-84"/>
       <use x="61.083984" xlink:href="#DejaVuSans-104"/>
       <use x="124.462891" xlink:href="#DejaVuSans-117"/>
       <use x="187.841797" xlink:href="#DejaVuSans-32"/>
       <use x="219.628906" xlink:href="#DejaVuSans-49"/>
       <use x="283.251953" xlink:href="#DejaVuSans-50"/>
       <use x="346.875" xlink:href="#DejaVuSans-58"/>
       <use x="380.566406" xlink:href="#DejaVuSans-48"/>
       <use x="444.189453" xlink:href="#DejaVuSans-48"/>
      </g>
     </g>
    </g>
    <g id="xtick_8">
     <g id="line2d_8">
      <g>
       <use style="stroke:#000000;stroke-width:0.8;" x="1020.809056" xlink:href="#m14f35a9420" y="260.12"/>
      </g>
     </g>
     <g id="text_8">
      <!-- Fri 00:00 -->
      <defs>
       <path d="M 9.8125 72.90625 
L 51.703125 72.90625 
L 51.703125 64.59375 
L 19.671875 64.59375 
L 19.671875 43.109375 
L 48.578125 43.109375 
L 48.578125 34.8125 
L 19.671875 34.8125 
L 19.671875 0 
L 9.8125 0 
z
" id="DejaVuSans-70"/>
       <path d="M 41.109375 46.296875 
Q 39.59375 47.171875 37.8125 47.578125 
Q 36.03125 48 33.890625 48 
Q 26.265625 48 22.1875 43.046875 
Q 18.109375 38.09375 18.109375 28.8125 
L 18.109375 0 
L 9.078125 0 
L 9.078125 54.6875 
L 18.109375 54.6875 
L 18.109375 46.1875 
Q 20.953125 51.171875 25.484375 53.578125 
Q 30.03125 56 36.53125 56 
Q 37.453125 56 38.578125 55.875 
Q 39.703125 55.765625 41.0625 55.515625 
z
" id="DejaVuSans-114"/>
       <path d="M 9.421875 54.6875 
L 18.40625 54.6875 
L 18.40625 0 
L 9.421875 0 
z
M 9.421875 75.984375 
L 18.40625 75.984375 
L 18.40625 64.59375 
L 9.421875 64.59375 
z
" id="DejaVuSans-105"/>
      </defs>
      <g transform="translate(998.495775 274.718437)scale(0.1 -0.1)">
       <use xlink:href="#DejaVuSans-70"/>
       <use x="57.410156" xlink:href="#DejaVuSans-114"/>
       <use x="98.523438" xlink:href="#DejaVuSans-105"/>
       <use x="126.306641" xlink:href="#DejaVuSans-32"/>
       <use x="158.09375" xlink:href="#DejaVuSans-48"/>
       <use x="221.716797" xlink:href="#DejaVuSans-48"/>
       <use x="285.339844" xlink:href="#DejaVuSans-58"/>
       <use x="319.03125" xlink:href="#DejaVuSans-48"/>
       <use x="382.654297" xlink:href="#DejaVuSans-48"/>
      </g>
     </g>
    </g>
   </g>
   <g id="matplotlib.axis_2">
    <g id="ytick_1">
     <g id="line2d_9">
      <defs>
       <path d="M 0 0 
L -3.5 0 
" id="mf12af0dea9" style="stroke:#000000;stroke-width:0.8;"/>
      </defs>
      <g>
       <use style="stroke:#000000;stroke-width:0.8;" x="33.64" xlink:href="#mf12af0dea9" y="260.12"/>
      </g>
     </g>
     <g id="text_9">
      <!-- 0 -->
      <g transform="translate(20.2775 263.919219)scale(0.1 -0.1)">
       <use xlink:href="#DejaVuSans-48"/>
      </g>
     </g>
    </g>
    <g id="ytick_2">
     <g id="line2d_10">
      <g>
       <use style="stroke:#000000;stroke-width:0.8;" x="33.64" xlink:href="#mf12af0dea9" y="230.910476"/>
      </g>
     </g>
     <g id="text_10">
      <!-- 25 -->
      <defs>
       <path d="M 10.796875 72.90625 
L 49.515625 72.90625 
L 49.515625 64.59375 
L 19.828125 64.59375 
L 19.828125 46.734375 
Q 21.96875 47.46875 24.109375 47.828125 
Q 26.265625 48.1875 28.421875 48.1875 
Q 40.625 48.1875 47.75 41.5 
Q 54.890625 34.8125 54.890625 23.390625 
Q 54.890625 11.625 47.5625 5.09375 
Q 40.234375 -1.421875 26.90625 -1.421875 
Q 22.3125 -1.421875 17.546875 -0.640625 
Q 12.796875 0.140625 7.71875 1.703125 
L 7.71875 11.625 
Q 12.109375 9.234375 16.796875 8.0625 
Q 21.484375 6.890625 26.703125 6.890625 
Q 35.15625 6.890625 40.078125 11.328125 
Q 45.015625 15.765625 45.015625 23.390625 
Q 45.015625 31 40.078125 35.4375 
Q 35.15625 39.890625 26.703125 39.890625 
Q 22.75 39.890625 18.8125 39.015625 
Q 14.890625 38.140625 10.796875 36.28125 
z
" id="DejaVuSans-53"/>
      </defs>
      <g transform="translate(13.915 234.709695)scale(0.1 -0.1)">
       <use xlink:href="#DejaVuSans-50"/>
       <use x="63.623047" xlink:href="#DejaVuSans-53"/>
      </g>
     </g>
    </g>
    <g id="ytick_3">
     <g id="line2d_11">
      <g>
       <use style="stroke:#000000;stroke-width:0.8;" x="33.64" xlink:href="#mf12af0dea9" y="201.700952"/>
      </g>
     </g>
     <g id="text_11">
      <!-- 50 -->
      <g transform="translate(13.915 205.500171)scale(0.1 -0.1)">
       <use xlink:href="#DejaVuSans-53"/>
       <use x="63.623047" xlink:href="#DejaVuSans-48"/>
      </g>
     </g>
    </g>
    <g id="ytick_4">
     <g id="line2d_12">
      <g>
       <use style="stroke:#000000;stroke-width:0.8;" x="33.64" xlink:href="#mf12af0dea9" y="172.491429"/>
      </g>
     </g>
     <g id="text_12">
      <!-- 75 -->
      <defs>
       <path d="M 8.203125 72.90625 
L 55.078125 72.90625 
L 55.078125 68.703125 
L 28.609375 0 
L 18.3125 0 
L 43.21875 64.59375 
L 8.203125 64.59375 
z
" id="DejaVuSans-55"/>
      </defs>
      <g transform="translate(13.915 176.290647)scale(0.1 -0.1)">
       <use xlink:href="#DejaVuSans-55"/>
       <use x="63.623047" xlink:href="#DejaVuSans-53"/>
      </g>
     </g>
    </g>
    <g id="ytick_5">
     <g id="line2d_13">
      <g>
       <use style="stroke:#000000;stroke-width:0.8;" x="33.64" xlink:href="#mf12af0dea9" y="143.281905"/>
      </g>
     </g>
     <g id="text_13">
      <!-- 100 -->
      <g transform="translate(7.5525 147.081124)scale(0.1 -0.1)">
       <use xlink:href="#DejaVuSans-49"/>
       <use x="63.623047" xlink:href="#DejaVuSans-48"/>
       <use x="127.246094" xlink:href="#DejaVuSans-48"/>
      </g>
     </g>
    </g>
    <g id="ytick_6">
     <g id="line2d_14">
      <g>
       <use style="stroke:#000000;stroke-width:0.8;" x="33.64" xlink:href="#mf12af0dea9" y="114.072381"/>
      </g>
     </g>
     <g id="text_14">
      <!-- 125 -->
      <g transform="translate(7.5525 117.8716)scale(0.1 -0.1)">
       <use xlink:href="#DejaVuSans-49"/>
       <use x="63.623047" xlink:href="#DejaVuSans-50"/>
       <use x="127.246094" xlink:href="#DejaVuSans-53"/>
      </g>
     </g>
    </g>
    <g id="ytick_7">
     <g id="line2d_15">
      <g>
       <use style="stroke:#000000;stroke-width:0.8;" x="33.64" xlink:href="#mf12af0dea9" y="84.862857"/>
      </g>
     </g>
     <g id="text_15">
      <!-- 150 -->
      <g transform="translate(7.5525 88.662076)scale(0.1 -0.1)">
       <use xlink:href="#DejaVuSans-49"/>
       <use x="63.623047" xlink:href="#DejaVuSans-53"/>
       <use x="127.246094" xlink:href="#DejaVuSans-48"/>
      </g>
     </g>
    </g>
    <g id="ytick_8">
     <g id="line2d_16">
      <g>
       <use style="stroke:#000000;stroke-width:0.8;" x="33.64" xlink:href="#mf12af0dea9" y="55.653333"/>
      </g>
     </g>
     <g id="text_16">
      <!-- 175 -->
      <g transform="translate(7.5525 59.452552)scale(0.1 -0.1)">
       <use xlink:href="#DejaVuSans-49"/>
       <use x="63.623047" xlink:href="#DejaVuSans-55"/>
       <use x="127.246094" xlink:href="#DejaVuSans-53"/>
      </g>
     </g>
    </g>
    <g id="ytick_9">
     <g id="line2d_17">
      <g>
       <use style="stroke:#000000;stroke-width:0.8;" x="33.64" xlink:href="#mf12af0dea9" y="26.44381"/>
      </g>
     </g>
     <g id="text_17">
      <!-- 200 -->
      <g transform="translate(7.5525 30.243028)scale(0.1 -0.1)">
       <use xlink:href="#DejaVuSans-50"/>
       <use x="63.623047" xlink:href="#DejaVuSans-48"/>
       <use x="127.246094" xlink:href="#DejaVuSans-48"/>
      </g>
     </g>
    </g>
   </g>
   <g id="line2d_18">
    <path clip-path="url(#p320019bef3)" d="M 33.64 225.068571 
L 125.632497 225.068571 
L 127.401879 220.395048 
L 129.169604 220.395048 
L 130.936457 218.058286 
L 132.700062 218.058286 
L 134.463476 211.048 
L 136.23064 211.048 
L 137.99472 200.532571 
L 139.758175 195.859048 
L 141.523316 195.859048 
L 143.288045 186.512 
L 145.051909 179.501714 
L 146.819627 177.164952 
L 155.658494 177.164952 
L 157.423501 183.006857 
L 159.191691 190.017143 
L 160.955172 190.017143 
L 162.718612 195.859048 
L 164.485685 195.859048 
L 166.249742 200.532571 
L 168.015883 195.859048 
L 169.782575 195.859048 
L 171.546901 193.522286 
L 173.310682 192.353905 
L 175.074309 188.848762 
L 176.838107 188.848762 
L 178.603383 187.680381 
L 180.369784 191.185524 
L 182.133325 191.185524 
L 183.901283 188.848762 
L 185.665317 185.343619 
L 187.428873 185.343619 
L 189.195974 183.006857 
L 190.960169 185.343619 
L 194.487506 185.343619 
L 196.254725 178.333333 
L 198.01977 177.164952 
L 199.787306 177.164952 
L 201.554543 179.501714 
L 203.322012 173.65981 
L 205.092047 173.65981 
L 206.860079 170.154667 
L 208.632077 170.154667 
L 210.399346 175.996571 
L 212.16298 165.481143 
L 213.926924 153.797333 
L 215.690502 153.797333 
L 217.454178 147.955429 
L 219.218556 138.608381 
L 220.98243 138.608381 
L 222.747191 124.58781 
L 224.513252 108.230476 
L 226.276984 108.230476 
L 228.045339 90.704762 
L 229.810085 79.020952 
L 231.573601 60.326857 
L 233.338605 60.326857 
L 235.1025 52.14819 
L 236.865857 83.694476 
L 240.395811 83.694476 
L 242.163503 86.031238 
L 243.927659 86.031238 
L 245.695522 88.368 
L 247.460747 89.536381 
L 249.224869 89.536381 
L 250.991448 105.893714 
L 252.762292 119.914286 
L 254.52719 119.914286 
L 256.294058 133.934857 
L 258.061514 153.797333 
L 259.830172 153.797333 
L 261.595312 161.976 
L 263.362083 168.986286 
L 265.126209 172.491429 
L 266.893964 172.491429 
L 268.662138 184.175238 
L 270.426793 192.353905 
L 272.191041 192.353905 
L 273.960851 260.12 
L 374.777034 260.12 
L 376.543738 241.425905 
L 378.311274 236.752381 
L 380.07855 236.752381 
L 381.843795 233.247238 
L 383.608201 222.73181 
L 385.374671 222.73181 
L 387.140975 213.384762 
L 388.908612 211.048 
L 390.676844 211.048 
L 392.448828 207.542857 
L 394.21859 205.206095 
L 395.986319 205.206095 
L 397.749867 202.869333 
L 399.520979 201.700952 
L 403.057182 201.700952 
L 404.82039 215.721524 
L 406.586307 216.889905 
L 408.354296 214.553143 
L 410.118653 216.889905 
L 411.883883 216.889905 
L 415.529395 205.206095 
L 419.172367 208.711238 
L 422.877072 208.711238 
L 424.640415 211.048 
L 426.406093 211.048 
L 428.170119 213.384762 
L 429.933731 212.216381 
L 431.701032 212.216381 
L 433.468091 207.542857 
L 436.997824 207.542857 
L 438.761647 202.869333 
L 440.529872 205.206095 
L 442.29377 205.206095 
L 444.058866 201.700952 
L 445.823529 191.185524 
L 447.588086 186.512 
L 449.351641 186.512 
L 451.115959 185.343619 
L 452.88029 173.65981 
L 454.648201 173.65981 
L 456.414092 172.491429 
L 458.18141 181.838476 
L 459.945626 181.838476 
L 463.475609 158.470857 
L 465.240251 158.470857 
L 467.007624 153.797333 
L 468.772724 150.29219 
L 470.537206 150.29219 
L 472.303935 154.965714 
L 474.069392 158.470857 
L 475.833929 158.470857 
L 477.601719 144.450286 
L 479.369784 135.103238 
L 481.135042 130.429714 
L 482.899783 130.429714 
L 484.664871 116.409143 
L 486.42971 116.409143 
L 489.96465 114.072381 
L 491.732051 110.567238 
L 493.500545 110.567238 
L 495.266131 112.904 
L 497.033166 117.577524 
L 498.797948 117.577524 
L 500.565555 126.924571 
L 502.330277 142.113524 
L 504.096968 152.628952 
L 505.863341 152.628952 
L 507.626865 159.639238 
L 509.397617 159.639238 
L 511.161295 170.154667 
L 512.927845 178.333333 
L 514.695426 178.333333 
L 516.459827 186.512 
L 518.227764 187.680381 
L 519.994339 190.017143 
L 521.758432 190.017143 
L 523.521824 260.12 
L 619.063564 260.12 
L 622.562381 248.43619 
L 624.325826 248.43619 
L 626.090066 242.594286 
L 627.854409 237.920762 
L 629.617847 237.920762 
L 631.382561 228.573714 
L 633.147627 228.573714 
L 634.911822 223.90019 
L 636.675055 220.395048 
L 638.439961 220.395048 
L 640.204056 225.068571 
L 641.969949 225.068571 
L 643.735565 227.405333 
L 645.503275 227.405333 
L 647.271755 226.236952 
L 649.039326 223.90019 
L 650.803385 223.90019 
L 652.568082 220.395048 
L 654.332012 229.742095 
L 657.86252 229.742095 
L 659.630129 227.405333 
L 661.3961 227.405333 
L 663.160419 218.058286 
L 664.927237 218.058286 
L 666.692898 212.216381 
L 670.223954 212.216381 
L 673.75523 207.542857 
L 675.530098 207.542857 
L 677.298989 201.700952 
L 679.068725 201.700952 
L 680.833066 202.869333 
L 682.597238 200.532571 
L 684.360415 200.532571 
L 686.123977 191.185524 
L 689.652715 191.185524 
L 691.445712 188.848762 
L 693.210276 188.848762 
L 694.973745 179.501714 
L 696.74388 179.501714 
L 698.50999 177.164952 
L 700.274748 171.323048 
L 702.042936 171.323048 
L 703.806375 161.976 
L 705.572323 145.618667 
L 707.33606 117.577524 
L 709.10072 117.577524 
L 710.866508 109.398857 
L 712.630345 88.368 
L 714.394793 88.368 
L 716.163696 66.168762 
L 717.929236 52.14819 
L 719.693716 52.14819 
L 721.457399 42.801143 
L 723.222005 48.643048 
L 724.989922 48.643048 
L 726.757344 35.790857 
L 728.5209 33.454095 
L 730.288018 33.454095 
L 732.057705 34.622476 
L 733.825369 27.61219 
L 735.597515 27.61219 
L 737.361318 33.454095 
L 739.12876 38.127619 
L 740.892133 38.127619 
L 742.660952 48.643048 
L 744.423917 50.97981 
L 746.188376 72.010667 
L 747.951884 72.010667 
L 749.719329 89.536381 
L 751.483553 89.536381 
L 753.248669 104.725333 
L 755.013888 132.766476 
L 756.779824 140.945143 
L 758.548848 140.945143 
L 760.315991 165.481143 
L 762.078957 177.164952 
L 763.843752 177.164952 
L 765.61202 183.006857 
L 767.377695 194.690667 
L 770.910464 194.690667 
L 772.675754 260.12 
L 868.208042 260.12 
L 869.973684 253.109714 
L 871.740449 253.109714 
L 873.505063 249.604571 
L 875.272896 244.931048 
L 877.03612 244.931048 
L 878.800914 239.089143 
L 880.566991 236.752381 
L 882.331602 236.752381 
L 885.859561 229.742095 
L 887.627407 229.742095 
L 889.393719 233.247238 
L 891.162106 232.078857 
L 892.927452 228.573714 
L 894.694076 228.573714 
L 896.458544 229.742095 
L 898.222454 227.405333 
L 899.991317 227.405333 
L 901.756626 221.563429 
L 903.519986 219.226667 
L 905.291888 219.226667 
L 907.055319 214.553143 
L 908.819643 208.711238 
L 910.583799 208.711238 
L 912.348274 212.216381 
L 914.113242 214.553143 
L 915.881156 214.553143 
L 917.647469 208.711238 
L 919.411675 213.384762 
L 922.941584 213.384762 
L 924.706912 209.879619 
L 926.475472 199.36419 
L 928.238763 199.36419 
L 931.772958 197.027429 
L 933.537529 197.027429 
L 937.071202 185.343619 
L 940.605286 185.343619 
L 942.369109 180.670095 
L 944.134865 180.670095 
L 945.900268 170.154667 
L 947.666441 165.481143 
L 949.430082 165.481143 
L 951.194882 158.470857 
L 952.958701 142.113524 
L 954.722992 128.092952 
L 956.486551 128.092952 
L 958.255512 103.556952 
L 960.026957 107.062095 
L 961.795041 107.062095 
L 963.562202 102.388571 
L 965.329727 80.189333 
L 967.093552 80.189333 
L 968.858611 66.168762 
L 970.622127 60.326857 
L 972.385796 60.326857 
L 974.153012 61.495238 
L 975.919087 48.643048 
L 977.68352 45.137905 
L 979.451228 45.137905 
L 981.21547 63.832 
L 982.979627 72.010667 
L 984.744803 72.010667 
L 986.510148 83.694476 
L 988.275077 90.704762 
L 990.042716 90.704762 
L 991.806101 95.378286 
L 993.583002 107.062095 
L 995.352844 107.062095 
L 997.117388 114.072381 
L 998.880888 129.261333 
L 1000.646478 129.261333 
L 1004.174228 157.302476 
L 1005.943575 157.302476 
L 1007.71176 161.976 
L 1009.478898 177.164952 
L 1011.245613 177.164952 
L 1013.011998 184.175238 
L 1014.777644 260.12 
L 1115.620638 260.12 
L 1117.384642 248.43619 
L 1119.152297 242.594286 
L 1120.921045 242.594286 
L 1122.684641 234.415619 
L 1124.447747 234.415619 
L 1126.21232 222.73181 
L 1127.975893 219.226667 
L 1129.7427 214.553143 
L 1131.510796 214.553143 
L 1133.28 209.879619 
L 1133.28 209.879619 
" style="fill:none;stroke:#1f77b4;stroke-linecap:square;stroke-width:1.5;"/>
   </g>
   <g id="patch_3">
    <path d="M 33.64 260.12 
L 33.64 14.76 
" style="fill:none;stroke:#000000;stroke-linecap:square;stroke-linejoin:miter;stroke-width:0.8;"/>
   </g>
   <g id="patch_4">
    <path d="M 1133.28 260.12 
L 1133.28 14.76 
" style="fill:none;stroke:#000000;stroke-linecap:square;stroke-linejoin:miter;stroke-width:0.8;"/>
   </g>
   <g id="patch_5">
    <path d="M 33.64 260.12 
L 1133.28 260.12 
" style="fill:none;stroke:#000000;stroke-linecap:square;stroke-linejoin:miter;stroke-width:0.8;"/>
   </g>
   <g id="patch_6">
    <path d="M 33.64 14.76 
L 1133.28 14.76 
" style="fill:none;stroke:#000000;stroke-linecap:square;stroke-linejoin:miter;stroke-width:0.8;"/>
   </g>
  </g>
 </g>
 <defs>
  <clipPath id="p320019bef3">
   <rect height="245.36" width="1099.64" x="33.64" y="14.76"/>
  </clipPath>
 </defs>
</svg>
