<?xml version="1.0" encoding="utf-8" standalone="no"?>
<!DOCTYPE svg PUBLIC "-//W3C//DTD SVG 1.1//EN"
  "http://www.w3.org/Graphics/SVG/1.1/DTD/svg11.dtd">
<!-- Created with matplotlib (https://matplotlib.org/) -->
<svg height="288pt" version="1.1" viewBox="0 0 1152 288" width="1152pt" xmlns="http://www.w3.org/2000/svg" xmlns:xlink="http://www.w3.org/1999/xlink">
 <defs>
  <style type="text/css">
*{stroke-linecap:butt;stroke-linejoin:round;}
  </style>
 </defs>
 <g id="figure_1">
  <g id="patch_1">
   <path d="M 0 288 
L 1152 288 
L 1152 0 
L 0 0 
z
" style="fill:#ffffff;"/>
  </g>
  <g id="axes_1">
   <g id="patch_2">
    <path d="M 33.64 260.12 
L 1133.28 260.12 
L 1133.28 14.76 
L 33.64 14.76 
z
" style="fill:#ffffff;"/>
   </g>
   <g id="matplotlib.axis_1">
    <g id="xtick_1">
     <g id="line2d_1">
      <defs>
       <path d="M 0 0 
L 0 3.5 
" id="m70d25e4c3f" style="stroke:#000000;stroke-width:0.8;"/>
      </defs>
      <g>
       <use style="stroke:#000000;stroke-width:0.8;" x="221.928376" xlink:href="#m70d25e4c3f" y="260.12"/>
      </g>
     </g>
     <g id="text_1">
      <!-- Tue 00:00 -->
      <defs>
       <path d="M -0.296875 72.90625 
L 61.375 72.90625 
L 61.375 64.59375 
L 35.5 64.59375 
L 35.5 0 
L 25.59375 0 
L 25.59375 64.59375 
L -0.296875 64.59375 
z
" id="DejaVuSans-84"/>
       <path d="M 8.5 21.578125 
L 8.5 54.6875 
L 17.484375 54.6875 
L 17.484375 21.921875 
Q 17.484375 14.15625 20.5 10.265625 
Q 23.53125 6.390625 29.59375 6.390625 
Q 36.859375 6.390625 41.078125 11.03125 
Q 45.3125 15.671875 45.3125 23.6875 
L 45.3125 54.6875 
L 54.296875 54.6875 
L 54.296875 0 
L 45.3125 0 
L 45.3125 8.40625 
Q 42.046875 3.421875 37.71875 1 
Q 33.40625 -1.421875 27.6875 -1.421875 
Q 18.265625 -1.421875 13.375 4.4375 
Q 8.5 10.296875 8.5 21.578125 
z
M 31.109375 56 
z
" id="DejaVuSans-117"/>
       <path d="M 56.203125 29.59375 
L 56.203125 25.203125 
L 14.890625 25.203125 
Q 15.484375 15.921875 20.484375 11.0625 
Q 25.484375 6.203125 34.421875 6.203125 
Q 39.59375 6.203125 44.453125 7.46875 
Q 49.3125 8.734375 54.109375 11.28125 
L 54.109375 2.78125 
Q 49.265625 0.734375 44.1875 -0.34375 
Q 39.109375 -1.421875 33.890625 -1.421875 
Q 20.796875 -1.421875 13.15625 6.1875 
Q 5.515625 13.8125 5.515625 26.8125 
Q 5.515625 40.234375 12.765625 48.109375 
Q 20.015625 56 32.328125 56 
Q 43.359375 56 49.78125 48.890625 
Q 56.203125 41.796875 56.203125 29.59375 
z
M 47.21875 32.234375 
Q 47.125 39.59375 43.09375 43.984375 
Q 39.0625 48.390625 32.421875 48.390625 
Q 24.90625 48.390625 20.390625 44.140625 
Q 15.875 39.890625 15.1875 32.171875 
z
" id="DejaVuSans-101"/>
       <path id="DejaVuSans-32"/>
       <path d="M 31.78125 66.40625 
Q 24.171875 66.40625 20.328125 58.90625 
Q 16.5 51.421875 16.5 36.375 
Q 16.5 21.390625 20.328125 13.890625 
Q 24.171875 6.390625 31.78125 6.390625 
Q 39.453125 6.390625 43.28125 13.890625 
Q 47.125 21.390625 47.125 36.375 
Q 47.125 51.421875 43.28125 58.90625 
Q 39.453125 66.40625 31.78125 66.40625 
z
M 31.78125 74.21875 
Q 44.046875 74.21875 50.515625 64.515625 
Q 56.984375 54.828125 56.984375 36.375 
Q 56.984375 17.96875 50.515625 8.265625 
Q 44.046875 -1.421875 31.78125 -1.421875 
Q 19.53125 -1.421875 13.0625 8.265625 
Q 6.59375 17.96875 6.59375 36.375 
Q 6.59375 54.828125 13.0625 64.515625 
Q 19.53125 74.21875 31.78125 74.21875 
z
" id="DejaVuSans-48"/>
       <path d="M 11.71875 12.40625 
L 22.015625 12.40625 
L 22.015625 0 
L 11.71875 0 
z
M 11.71875 51.703125 
L 22.015625 51.703125 
L 22.015625 39.3125 
L 11.71875 39.3125 
z
" id="DejaVuSans-58"/>
      </defs>
      <g transform="translate(196.642439 274.718437)scale(0.1 -0.1)">
       <use xlink:href="#DejaVuSans-84"/>
       <use x="60.849609" xlink:href="#DejaVuSans-117"/>
       <use x="124.228516" xlink:href="#DejaVuSans-101"/>
       <use x="185.751953" xlink:href="#DejaVuSans-32"/>
       <use x="217.539062" xlink:href="#DejaVuSans-48"/>
       <use x="281.162109" xlink:href="#DejaVuSans-48"/>
       <use x="344.785156" xlink:href="#DejaVuSans-58"/>
       <use x="378.476562" xlink:href="#DejaVuSans-48"/>
       <use x="442.099609" xlink:href="#DejaVuSans-48"/>
      </g>
     </g>
    </g>
    <g id="xtick_2">
     <g id="line2d_2">
      <g>
       <use style="stroke:#000000;stroke-width:0.8;" x="411.255853" xlink:href="#m70d25e4c3f" y="260.12"/>
      </g>
     </g>
     <g id="text_2">
      <!-- Wed 00:00 -->
      <defs>
       <path d="M 3.328125 72.90625 
L 13.28125 72.90625 
L 28.609375 11.28125 
L 43.890625 72.90625 
L 54.984375 72.90625 
L 70.3125 11.28125 
L 85.59375 72.90625 
L 95.609375 72.90625 
L 77.296875 0 
L 64.890625 0 
L 49.515625 63.28125 
L 33.984375 0 
L 21.578125 0 
z
" id="DejaVuSans-87"/>
       <path d="M 45.40625 46.390625 
L 45.40625 75.984375 
L 54.390625 75.984375 
L 54.390625 0 
L 45.40625 0 
L 45.40625 8.203125 
Q 42.578125 3.328125 38.25 0.953125 
Q 33.9375 -1.421875 27.875 -1.421875 
Q 17.96875 -1.421875 11.734375 6.484375 
Q 5.515625 14.40625 5.515625 27.296875 
Q 5.515625 40.1875 11.734375 48.09375 
Q 17.96875 56 27.875 56 
Q 33.9375 56 38.25 53.625 
Q 42.578125 51.265625 45.40625 46.390625 
z
M 14.796875 27.296875 
Q 14.796875 17.390625 18.875 11.75 
Q 22.953125 6.109375 30.078125 6.109375 
Q 37.203125 6.109375 41.296875 11.75 
Q 45.40625 17.390625 45.40625 27.296875 
Q 45.40625 37.203125 41.296875 42.84375 
Q 37.203125 48.484375 30.078125 48.484375 
Q 22.953125 48.484375 18.875 42.84375 
Q 14.796875 37.203125 14.796875 27.296875 
z
" id="DejaVuSans-100"/>
      </defs>
      <g transform="translate(384.06679 274.718437)scale(0.1 -0.1)">
       <use xlink:href="#DejaVuSans-87"/>
       <use x="98.798828" xlink:href="#DejaVuSans-101"/>
       <use x="160.322266" xlink:href="#DejaVuSans-100"/>
       <use x="223.798828" xlink:href="#DejaVuSans-32"/>
       <use x="255.585938" xlink:href="#DejaVuSans-48"/>
       <use x="319.208984" xlink:href="#DejaVuSans-48"/>
       <use x="382.832031" xlink:href="#DejaVuSans-58"/>
       <use x="416.523438" xlink:href="#DejaVuSans-48"/>
       <use x="480.146484" xlink:href="#DejaVuSans-48"/>
      </g>
     </g>
    </g>
    <g id="xtick_3">
     <g id="line2d_3">
      <g>
       <use style="stroke:#000000;stroke-width:0.8;" x="600.583329" xlink:href="#m70d25e4c3f" y="260.12"/>
      </g>
     </g>
     <g id="text_3">
      <!-- Thu 00:00 -->
      <defs>
       <path d="M 54.890625 33.015625 
L 54.890625 0 
L 45.90625 0 
L 45.90625 32.71875 
Q 45.90625 40.484375 42.875 44.328125 
Q 39.84375 48.1875 33.796875 48.1875 
Q 26.515625 48.1875 22.3125 43.546875 
Q 18.109375 38.921875 18.109375 30.90625 
L 18.109375 0 
L 9.078125 0 
L 9.078125 75.984375 
L 18.109375 75.984375 
L 18.109375 46.1875 
Q 21.34375 51.125 25.703125 53.5625 
Q 30.078125 56 35.796875 56 
Q 45.21875 56 50.046875 50.171875 
Q 54.890625 44.34375 54.890625 33.015625 
z
" id="DejaVuSans-104"/>
      </defs>
      <g transform="translate(575.193486 274.718437)scale(0.1 -0.1)">
       <use xlink:href="#DejaVuSans-84"/>
       <use x="61.083984" xlink:href="#DejaVuSans-104"/>
       <use x="124.462891" xlink:href="#DejaVuSans-117"/>
       <use x="187.841797" xlink:href="#DejaVuSans-32"/>
       <use x="219.628906" xlink:href="#DejaVuSans-48"/>
       <use x="283.251953" xlink:href="#DejaVuSans-48"/>
       <use x="346.875" xlink:href="#DejaVuSans-58"/>
       <use x="380.566406" xlink:href="#DejaVuSans-48"/>
       <use x="444.189453" xlink:href="#DejaVuSans-48"/>
      </g>
     </g>
    </g>
    <g id="xtick_4">
     <g id="line2d_4">
      <g>
       <use style="stroke:#000000;stroke-width:0.8;" x="789.910806" xlink:href="#m70d25e4c3f" y="260.12"/>
      </g>
     </g>
     <g id="text_4">
      <!-- Fri 00:00 -->
      <defs>
       <path d="M 9.8125 72.90625 
L 51.703125 72.90625 
L 51.703125 64.59375 
L 19.671875 64.59375 
L 19.671875 43.109375 
L 48.578125 43.109375 
L 48.578125 34.8125 
L 19.671875 34.8125 
L 19.671875 0 
L 9.8125 0 
z
" id="DejaVuSans-70"/>
       <path d="M 41.109375 46.296875 
Q 39.59375 47.171875 37.8125 47.578125 
Q 36.03125 48 33.890625 48 
Q 26.265625 48 22.1875 43.046875 
Q 18.109375 38.09375 18.109375 28.8125 
L 18.109375 0 
L 9.078125 0 
L 9.078125 54.6875 
L 18.109375 54.6875 
L 18.109375 46.1875 
Q 20.953125 51.171875 25.484375 53.578125 
Q 30.03125 56 36.53125 56 
Q 37.453125 56 38.578125 55.875 
Q 39.703125 55.765625 41.0625 55.515625 
z
" id="DejaVuSans-114"/>
       <path d="M 9.421875 54.6875 
L 18.40625 54.6875 
L 18.40625 0 
L 9.421875 0 
z
M 9.421875 75.984375 
L 18.40625 75.984375 
L 18.40625 64.59375 
L 9.421875 64.59375 
z
" id="DejaVuSans-105"/>
      </defs>
      <g transform="translate(767.597525 274.718437)scale(0.1 -0.1)">
       <use xlink:href="#DejaVuSans-70"/>
       <use x="57.410156" xlink:href="#DejaVuSans-114"/>
       <use x="98.523438" xlink:href="#DejaVuSans-105"/>
       <use x="126.306641" xlink:href="#DejaVuSans-32"/>
       <use x="158.09375" xlink:href="#DejaVuSans-48"/>
       <use x="221.716797" xlink:href="#DejaVuSans-48"/>
       <use x="285.339844" xlink:href="#DejaVuSans-58"/>
       <use x="319.03125" xlink:href="#DejaVuSans-48"/>
       <use x="382.654297" xlink:href="#DejaVuSans-48"/>
      </g>
     </g>
    </g>
    <g id="xtick_5">
     <g id="line2d_5">
      <g>
       <use style="stroke:#000000;stroke-width:0.8;" x="979.238282" xlink:href="#m70d25e4c3f" y="260.12"/>
      </g>
     </g>
     <g id="text_5">
      <!-- Sat 00:00 -->
      <defs>
       <path d="M 53.515625 70.515625 
L 53.515625 60.890625 
Q 47.90625 63.578125 42.921875 64.890625 
Q 37.9375 66.21875 33.296875 66.21875 
Q 25.25 66.21875 20.875 63.09375 
Q 16.5 59.96875 16.5 54.203125 
Q 16.5 49.359375 19.40625 46.890625 
Q 22.3125 44.4375 30.421875 42.921875 
L 36.375 41.703125 
Q 47.40625 39.59375 52.65625 34.296875 
Q 57.90625 29 57.90625 20.125 
Q 57.90625 9.515625 50.796875 4.046875 
Q 43.703125 -1.421875 29.984375 -1.421875 
Q 24.8125 -1.421875 18.96875 -0.25 
Q 13.140625 0.921875 6.890625 3.21875 
L 6.890625 13.375 
Q 12.890625 10.015625 18.65625 8.296875 
Q 24.421875 6.59375 29.984375 6.59375 
Q 38.421875 6.59375 43.015625 9.90625 
Q 47.609375 13.234375 47.609375 19.390625 
Q 47.609375 24.75 44.3125 27.78125 
Q 41.015625 30.8125 33.5 32.328125 
L 27.484375 33.5 
Q 16.453125 35.6875 11.515625 40.375 
Q 6.59375 45.0625 6.59375 53.421875 
Q 6.59375 63.09375 13.40625 68.65625 
Q 20.21875 74.21875 32.171875 74.21875 
Q 37.3125 74.21875 42.625 73.28125 
Q 47.953125 72.359375 53.515625 70.515625 
z
" id="DejaVuSans-83"/>
       <path d="M 34.28125 27.484375 
Q 23.390625 27.484375 19.1875 25 
Q 14.984375 22.515625 14.984375 16.5 
Q 14.984375 11.71875 18.140625 8.90625 
Q 21.296875 6.109375 26.703125 6.109375 
Q 34.1875 6.109375 38.703125 11.40625 
Q 43.21875 16.703125 43.21875 25.484375 
L 43.21875 27.484375 
z
M 52.203125 31.203125 
L 52.203125 0 
L 43.21875 0 
L 43.21875 8.296875 
Q 40.140625 3.328125 35.546875 0.953125 
Q 30.953125 -1.421875 24.3125 -1.421875 
Q 15.921875 -1.421875 10.953125 3.296875 
Q 6 8.015625 6 15.921875 
Q 6 25.140625 12.171875 29.828125 
Q 18.359375 34.515625 30.609375 34.515625 
L 43.21875 34.515625 
L 43.21875 35.40625 
Q 43.21875 41.609375 39.140625 45 
Q 35.0625 48.390625 27.6875 48.390625 
Q 23 48.390625 18.546875 47.265625 
Q 14.109375 46.140625 10.015625 43.890625 
L 10.015625 52.203125 
Q 14.9375 54.109375 19.578125 55.046875 
Q 24.21875 56 28.609375 56 
Q 40.484375 56 46.34375 49.84375 
Q 52.203125 43.703125 52.203125 31.203125 
z
" id="DejaVuSans-97"/>
       <path d="M 18.3125 70.21875 
L 18.3125 54.6875 
L 36.8125 54.6875 
L 36.8125 47.703125 
L 18.3125 47.703125 
L 18.3125 18.015625 
Q 18.3125 11.328125 20.140625 9.421875 
Q 21.96875 7.515625 27.59375 7.515625 
L 36.8125 7.515625 
L 36.8125 0 
L 27.59375 0 
Q 17.1875 0 13.234375 3.875 
Q 9.28125 7.765625 9.28125 18.015625 
L 9.28125 47.703125 
L 2.6875 47.703125 
L 2.6875 54.6875 
L 9.28125 54.6875 
L 9.28125 70.21875 
z
" id="DejaVuSans-116"/>
      </defs>
      <g transform="translate(955.041407 274.718437)scale(0.1 -0.1)">
       <use xlink:href="#DejaVuSans-83"/>
       <use x="63.476562" xlink:href="#DejaVuSans-97"/>
       <use x="124.755859" xlink:href="#DejaVuSans-116"/>
       <use x="163.964844" xlink:href="#DejaVuSans-32"/>
       <use x="195.751953" xlink:href="#DejaVuSans-48"/>
       <use x="259.375" xlink:href="#DejaVuSans-48"/>
       <use x="322.998047" xlink:href="#DejaVuSans-58"/>
       <use x="356.689453" xlink:href="#DejaVuSans-48"/>
       <use x="420.3125" xlink:href="#DejaVuSans-48"/>
      </g>
     </g>
    </g>
   </g>
   <g id="matplotlib.axis_2">
    <g id="ytick_1">
     <g id="line2d_6">
      <defs>
       <path d="M 0 0 
L -3.5 0 
" id="m599996d267" style="stroke:#000000;stroke-width:0.8;"/>
      </defs>
      <g>
       <use style="stroke:#000000;stroke-width:0.8;" x="33.64" xlink:href="#m599996d267" y="260.12"/>
      </g>
     </g>
     <g id="text_6">
      <!-- 0 -->
      <g transform="translate(20.2775 263.919219)scale(0.1 -0.1)">
       <use xlink:href="#DejaVuSans-48"/>
      </g>
     </g>
    </g>
    <g id="ytick_2">
     <g id="line2d_7">
      <g>
       <use style="stroke:#000000;stroke-width:0.8;" x="33.64" xlink:href="#m599996d267" y="232.857778"/>
      </g>
     </g>
     <g id="text_7">
      <!-- 20 -->
      <defs>
       <path d="M 19.1875 8.296875 
L 53.609375 8.296875 
L 53.609375 0 
L 7.328125 0 
L 7.328125 8.296875 
Q 12.9375 14.109375 22.625 23.890625 
Q 32.328125 33.6875 34.8125 36.53125 
Q 39.546875 41.84375 41.421875 45.53125 
Q 43.3125 49.21875 43.3125 52.78125 
Q 43.3125 58.59375 39.234375 62.25 
Q 35.15625 65.921875 28.609375 65.921875 
Q 23.96875 65.921875 18.8125 64.3125 
Q 13.671875 62.703125 7.8125 59.421875 
L 7.8125 69.390625 
Q 13.765625 71.78125 18.9375 73 
Q 24.125 74.21875 28.421875 74.21875 
Q 39.75 74.21875 46.484375 68.546875 
Q 53.21875 62.890625 53.21875 53.421875 
Q 53.21875 48.921875 51.53125 44.890625 
Q 49.859375 40.875 45.40625 35.40625 
Q 44.1875 33.984375 37.640625 27.21875 
Q 31.109375 20.453125 19.1875 8.296875 
z
" id="DejaVuSans-50"/>
      </defs>
      <g transform="translate(13.915 236.656997)scale(0.1 -0.1)">
       <use xlink:href="#DejaVuSans-50"/>
       <use x="63.623047" xlink:href="#DejaVuSans-48"/>
      </g>
     </g>
    </g>
    <g id="ytick_3">
     <g id="line2d_8">
      <g>
       <use style="stroke:#000000;stroke-width:0.8;" x="33.64" xlink:href="#m599996d267" y="205.595556"/>
      </g>
     </g>
     <g id="text_8">
      <!-- 40 -->
      <defs>
       <path d="M 37.796875 64.3125 
L 12.890625 25.390625 
L 37.796875 25.390625 
z
M 35.203125 72.90625 
L 47.609375 72.90625 
L 47.609375 25.390625 
L 58.015625 25.390625 
L 58.015625 17.1875 
L 47.609375 17.1875 
L 47.609375 0 
L 37.796875 0 
L 37.796875 17.1875 
L 4.890625 17.1875 
L 4.890625 26.703125 
z
" id="DejaVuSans-52"/>
      </defs>
      <g transform="translate(13.915 209.394774)scale(0.1 -0.1)">
       <use xlink:href="#DejaVuSans-52"/>
       <use x="63.623047" xlink:href="#DejaVuSans-48"/>
      </g>
     </g>
    </g>
    <g id="ytick_4">
     <g id="line2d_9">
      <g>
       <use style="stroke:#000000;stroke-width:0.8;" x="33.64" xlink:href="#m599996d267" y="178.333333"/>
      </g>
     </g>
     <g id="text_9">
      <!-- 60 -->
      <defs>
       <path d="M 33.015625 40.375 
Q 26.375 40.375 22.484375 35.828125 
Q 18.609375 31.296875 18.609375 23.390625 
Q 18.609375 15.53125 22.484375 10.953125 
Q 26.375 6.390625 33.015625 6.390625 
Q 39.65625 6.390625 43.53125 10.953125 
Q 47.40625 15.53125 47.40625 23.390625 
Q 47.40625 31.296875 43.53125 35.828125 
Q 39.65625 40.375 33.015625 40.375 
z
M 52.59375 71.296875 
L 52.59375 62.3125 
Q 48.875 64.0625 45.09375 64.984375 
Q 41.3125 65.921875 37.59375 65.921875 
Q 27.828125 65.921875 22.671875 59.328125 
Q 17.53125 52.734375 16.796875 39.40625 
Q 19.671875 43.65625 24.015625 45.921875 
Q 28.375 48.1875 33.59375 48.1875 
Q 44.578125 48.1875 50.953125 41.515625 
Q 57.328125 34.859375 57.328125 23.390625 
Q 57.328125 12.15625 50.6875 5.359375 
Q 44.046875 -1.421875 33.015625 -1.421875 
Q 20.359375 -1.421875 13.671875 8.265625 
Q 6.984375 17.96875 6.984375 36.375 
Q 6.984375 53.65625 15.1875 63.9375 
Q 23.390625 74.21875 37.203125 74.21875 
Q 40.921875 74.21875 44.703125 73.484375 
Q 48.484375 72.75 52.59375 71.296875 
z
" id="DejaVuSans-54"/>
      </defs>
      <g transform="translate(13.915 182.132552)scale(0.1 -0.1)">
       <use xlink:href="#DejaVuSans-54"/>
       <use x="63.623047" xlink:href="#DejaVuSans-48"/>
      </g>
     </g>
    </g>
    <g id="ytick_5">
     <g id="line2d_10">
      <g>
       <use style="stroke:#000000;stroke-width:0.8;" x="33.64" xlink:href="#m599996d267" y="151.071111"/>
      </g>
     </g>
     <g id="text_10">
      <!-- 80 -->
      <defs>
       <path d="M 31.78125 34.625 
Q 24.75 34.625 20.71875 30.859375 
Q 16.703125 27.09375 16.703125 20.515625 
Q 16.703125 13.921875 20.71875 10.15625 
Q 24.75 6.390625 31.78125 6.390625 
Q 38.8125 6.390625 42.859375 10.171875 
Q 46.921875 13.96875 46.921875 20.515625 
Q 46.921875 27.09375 42.890625 30.859375 
Q 38.875 34.625 31.78125 34.625 
z
M 21.921875 38.8125 
Q 15.578125 40.375 12.03125 44.71875 
Q 8.5 49.078125 8.5 55.328125 
Q 8.5 64.0625 14.71875 69.140625 
Q 20.953125 74.21875 31.78125 74.21875 
Q 42.671875 74.21875 48.875 69.140625 
Q 55.078125 64.0625 55.078125 55.328125 
Q 55.078125 49.078125 51.53125 44.71875 
Q 48 40.375 41.703125 38.8125 
Q 48.828125 37.15625 52.796875 32.3125 
Q 56.78125 27.484375 56.78125 20.515625 
Q 56.78125 9.90625 50.3125 4.234375 
Q 43.84375 -1.421875 31.78125 -1.421875 
Q 19.734375 -1.421875 13.25 4.234375 
Q 6.78125 9.90625 6.78125 20.515625 
Q 6.78125 27.484375 10.78125 32.3125 
Q 14.796875 37.15625 21.921875 38.8125 
z
M 18.3125 54.390625 
Q 18.3125 48.734375 21.84375 45.5625 
Q 25.390625 42.390625 31.78125 42.390625 
Q 38.140625 42.390625 41.71875 45.5625 
Q 45.3125 48.734375 45.3125 54.390625 
Q 45.3125 60.0625 41.71875 63.234375 
Q 38.140625 66.40625 31.78125 66.40625 
Q 25.390625 66.40625 21.84375 63.234375 
Q 18.3125 60.0625 18.3125 54.390625 
z
" id="DejaVuSans-56"/>
      </defs>
      <g transform="translate(13.915 154.87033)scale(0.1 -0.1)">
       <use xlink:href="#DejaVuSans-56"/>
       <use x="63.623047" xlink:href="#DejaVuSans-48"/>
      </g>
     </g>
    </g>
    <g id="ytick_6">
     <g id="line2d_11">
      <g>
       <use style="stroke:#000000;stroke-width:0.8;" x="33.64" xlink:href="#m599996d267" y="123.808889"/>
      </g>
     </g>
     <g id="text_11">
      <!-- 100 -->
      <defs>
       <path d="M 12.40625 8.296875 
L 28.515625 8.296875 
L 28.515625 63.921875 
L 10.984375 60.40625 
L 10.984375 69.390625 
L 28.421875 72.90625 
L 38.28125 72.90625 
L 38.28125 8.296875 
L 54.390625 8.296875 
L 54.390625 0 
L 12.40625 0 
z
" id="DejaVuSans-49"/>
      </defs>
      <g transform="translate(7.5525 127.608108)scale(0.1 -0.1)">
       <use xlink:href="#DejaVuSans-49"/>
       <use x="63.623047" xlink:href="#DejaVuSans-48"/>
       <use x="127.246094" xlink:href="#DejaVuSans-48"/>
      </g>
     </g>
    </g>
    <g id="ytick_7">
     <g id="line2d_12">
      <g>
       <use style="stroke:#000000;stroke-width:0.8;" x="33.64" xlink:href="#m599996d267" y="96.546667"/>
      </g>
     </g>
     <g id="text_12">
      <!-- 120 -->
      <g transform="translate(7.5525 100.345885)scale(0.1 -0.1)">
       <use xlink:href="#DejaVuSans-49"/>
       <use x="63.623047" xlink:href="#DejaVuSans-50"/>
       <use x="127.246094" xlink:href="#DejaVuSans-48"/>
      </g>
     </g>
    </g>
    <g id="ytick_8">
     <g id="line2d_13">
      <g>
       <use style="stroke:#000000;stroke-width:0.8;" x="33.64" xlink:href="#m599996d267" y="69.284444"/>
      </g>
     </g>
     <g id="text_13">
      <!-- 140 -->
      <g transform="translate(7.5525 73.083663)scale(0.1 -0.1)">
       <use xlink:href="#DejaVuSans-49"/>
       <use x="63.623047" xlink:href="#DejaVuSans-52"/>
       <use x="127.246094" xlink:href="#DejaVuSans-48"/>
      </g>
     </g>
    </g>
    <g id="ytick_9">
     <g id="line2d_14">
      <g>
       <use style="stroke:#000000;stroke-width:0.8;" x="33.64" xlink:href="#m599996d267" y="42.022222"/>
      </g>
     </g>
     <g id="text_14">
      <!-- 160 -->
      <g transform="translate(7.5525 45.821441)scale(0.1 -0.1)">
       <use xlink:href="#DejaVuSans-49"/>
       <use x="63.623047" xlink:href="#DejaVuSans-54"/>
       <use x="127.246094" xlink:href="#DejaVuSans-48"/>
      </g>
     </g>
    </g>
    <g id="ytick_10">
     <g id="line2d_15">
      <g>
       <use style="stroke:#000000;stroke-width:0.8;" x="33.64" xlink:href="#m599996d267" y="14.76"/>
      </g>
     </g>
     <g id="text_15">
      <!-- 180 -->
      <g transform="translate(7.5525 18.559219)scale(0.1 -0.1)">
       <use xlink:href="#DejaVuSans-49"/>
       <use x="63.623047" xlink:href="#DejaVuSans-56"/>
       <use x="127.246094" xlink:href="#DejaVuSans-48"/>
      </g>
     </g>
    </g>
   </g>
   <g id="line2d_16">
    <path clip-path="url(#p2ab5661f7d)" d="M 33.64 260.12 
L 105.497134 260.12 
L 106.849937 254.667556 
L 108.2021 254.667556 
L 109.557227 242.399556 
L 110.908557 241.036444 
L 112.260222 230.131556 
L 113.615873 230.131556 
L 114.972422 226.042222 
L 116.324912 224.679111 
L 119.029031 224.679111 
L 121.732131 216.500444 
L 123.083744 216.500444 
L 124.435218 221.952889 
L 125.787481 221.952889 
L 127.138652 231.494667 
L 128.491791 235.584 
L 131.195654 235.584 
L 133.902102 227.405333 
L 135.25352 227.405333 
L 136.605346 231.494667 
L 137.957804 224.679111 
L 139.309105 224.679111 
L 140.660174 227.405333 
L 142.017288 224.679111 
L 143.369844 226.042222 
L 144.722099 226.042222 
L 146.073869 231.494667 
L 147.42606 231.494667 
L 148.777091 230.131556 
L 150.12793 227.405333 
L 151.479709 227.405333 
L 152.833143 226.042222 
L 154.186513 221.952889 
L 155.539667 223.316 
L 156.894164 223.316 
L 158.246633 219.226667 
L 159.598831 216.500444 
L 160.950474 216.500444 
L 162.302476 206.958667 
L 163.654927 208.321778 
L 165.007075 205.595556 
L 166.360052 205.595556 
L 167.712055 198.78 
L 169.063794 198.78 
L 170.41571 197.416889 
L 173.120972 197.416889 
L 174.472569 193.327556 
L 175.82439 176.970222 
L 177.176084 159.249778 
L 178.529641 159.249778 
L 179.884931 149.708 
L 181.23814 136.076889 
L 183.94409 136.076889 
L 185.296806 140.166222 
L 186.6486 140.166222 
L 188.001995 141.529333 
L 189.354828 137.44 
L 190.707105 137.44 
L 192.061246 131.987556 
L 193.418321 111.540889 
L 194.770985 116.993333 
L 196.125543 116.993333 
L 197.478656 121.082667 
L 198.834659 126.535111 
L 202.891035 126.535111 
L 204.242853 142.892444 
L 206.945707 153.797333 
L 208.300152 153.797333 
L 209.651925 168.791556 
L 211.004978 179.696444 
L 212.35669 179.696444 
L 213.709358 185.148889 
L 215.061818 193.327556 
L 217.768757 193.327556 
L 219.121356 260.12 
L 292.364044 260.12 
L 293.694519 258.756889 
L 295.050272 258.756889 
L 296.402056 251.941333 
L 297.753801 246.488889 
L 299.109069 246.488889 
L 300.466675 243.762667 
L 301.819523 224.679111 
L 303.172984 216.500444 
L 304.525242 216.500444 
L 305.877939 213.774222 
L 307.229903 213.774222 
L 308.582606 211.048 
L 311.287738 211.048 
L 312.641186 204.232444 
L 313.994494 211.048 
L 316.698296 211.048 
L 319.404796 213.774222 
L 320.759977 213.774222 
L 322.113212 215.137333 
L 323.465628 226.042222 
L 324.81837 226.042222 
L 326.170597 236.947111 
L 327.524662 242.399556 
L 328.876039 242.399556 
L 331.580609 239.673333 
L 332.934033 236.947111 
L 338.348025 236.947111 
L 341.05488 231.494667 
L 342.409182 227.405333 
L 343.76198 227.405333 
L 345.11531 226.042222 
L 346.467037 226.042222 
L 347.8197 220.589778 
L 349.24256 217.863556 
L 350.596747 217.863556 
L 351.950017 211.048 
L 353.302363 197.416889 
L 354.655472 194.690667 
L 356.010172 194.690667 
L 357.366645 183.785778 
L 358.723174 175.607111 
L 360.077855 175.607111 
L 361.433091 151.071111 
L 362.78784 129.261333 
L 364.141616 129.261333 
L 365.49385 121.082667 
L 366.846062 103.362222 
L 368.198719 103.362222 
L 369.551829 93.820444 
L 370.909711 88.368 
L 372.262169 88.368 
L 373.614241 74.736889 
L 374.96883 77.463111 
L 376.325407 73.373778 
L 377.67761 73.373778 
L 379.030532 88.368 
L 380.384807 89.731111 
L 381.737299 89.731111 
L 383.092242 93.820444 
L 384.444579 115.630222 
L 385.797962 115.630222 
L 387.150808 131.987556 
L 388.502969 140.166222 
L 389.855188 140.166222 
L 391.20721 148.344889 
L 393.910494 148.344889 
L 395.264677 157.886667 
L 396.617108 163.339111 
L 397.971836 163.339111 
L 399.323411 168.791556 
L 400.678238 185.148889 
L 402.030309 185.148889 
L 404.743877 204.232444 
L 406.098629 260.12 
L 482.031718 260.12 
L 483.362303 258.756889 
L 484.714569 258.756889 
L 486.067979 241.036444 
L 487.423347 232.857778 
L 488.776437 230.131556 
L 490.129312 230.131556 
L 491.488987 226.042222 
L 494.195914 226.042222 
L 495.551871 224.679111 
L 496.905243 217.863556 
L 498.258493 217.863556 
L 499.611432 219.226667 
L 500.967026 216.500444 
L 502.321596 216.500444 
L 503.674047 219.226667 
L 505.026882 228.768444 
L 510.444885 228.768444 
L 511.797561 231.494667 
L 513.149724 238.310222 
L 514.504496 242.399556 
L 515.85966 242.399556 
L 517.212641 243.762667 
L 518.567058 242.399556 
L 519.918991 242.399556 
L 522.62603 236.947111 
L 523.978804 235.584 
L 525.330815 235.584 
L 526.684128 231.494667 
L 528.036699 231.494667 
L 529.389533 223.316 
L 530.741761 223.316 
L 532.094817 216.500444 
L 533.447512 216.500444 
L 534.802241 219.226667 
L 537.506186 219.226667 
L 538.861116 205.595556 
L 540.216227 204.232444 
L 541.572243 204.232444 
L 544.281956 190.601333 
L 545.633922 182.422667 
L 546.991876 182.422667 
L 548.345134 189.238222 
L 549.696876 189.238222 
L 551.048275 182.422667 
L 552.401221 167.428444 
L 553.753165 167.428444 
L 555.110194 164.702222 
L 556.461926 159.249778 
L 557.814342 151.071111 
L 559.166105 151.071111 
L 560.518085 155.160444 
L 561.872334 144.255556 
L 563.225848 144.255556 
L 564.579562 140.166222 
L 565.932469 126.535111 
L 567.287016 126.535111 
L 568.639846 125.172 
L 569.994527 131.987556 
L 571.346201 131.987556 
L 572.699151 111.540889 
L 574.051693 101.999111 
L 575.404505 97.909778 
L 576.757265 97.909778 
L 578.109399 101.999111 
L 579.462328 101.999111 
L 580.815288 108.814667 
L 582.170275 123.808889 
L 583.522274 137.44 
L 584.875989 137.44 
L 586.229124 153.797333 
L 587.584542 159.249778 
L 588.93647 159.249778 
L 590.289245 175.607111 
L 591.643469 187.875111 
L 592.999848 187.875111 
L 594.351695 196.053778 
L 595.704173 209.684889 
L 597.058847 209.684889 
L 598.413299 260.12 
L 672.988917 260.12 
L 674.341351 254.667556 
L 675.693459 254.667556 
L 677.045799 236.947111 
L 678.398076 227.405333 
L 679.750067 224.679111 
L 681.102121 224.679111 
L 682.453997 227.405333 
L 683.805568 227.405333 
L 685.156792 221.952889 
L 686.509186 220.589778 
L 687.863762 217.863556 
L 689.216683 217.863556 
L 690.569106 221.952889 
L 691.920592 220.589778 
L 693.273504 220.589778 
L 694.624635 224.679111 
L 695.976301 231.494667 
L 698.68581 231.494667 
L 700.037774 232.857778 
L 701.389585 232.857778 
L 702.742451 235.584 
L 704.094943 234.220889 
L 705.446605 234.220889 
L 706.797948 235.584 
L 708.149826 238.310222 
L 709.502107 243.762667 
L 713.557788 243.762667 
L 716.262689 238.310222 
L 717.617972 234.220889 
L 718.969763 234.220889 
L 720.321616 232.857778 
L 721.674408 228.768444 
L 727.087007 228.768444 
L 729.793804 226.042222 
L 731.146505 223.316 
L 732.498676 223.316 
L 735.20598 198.78 
L 736.559709 198.78 
L 737.913529 204.232444 
L 739.267259 204.232444 
L 740.622069 201.506222 
L 741.974239 189.238222 
L 743.327093 186.512 
L 744.679146 186.512 
L 747.383844 142.892444 
L 748.737429 142.892444 
L 750.090283 131.987556 
L 751.443737 136.076889 
L 752.796427 136.076889 
L 754.149234 119.719556 
L 755.502183 116.993333 
L 756.854751 116.993333 
L 758.207272 107.451556 
L 759.561652 108.814667 
L 760.914974 108.814667 
L 762.267246 103.362222 
L 763.620356 88.368 
L 764.974267 84.278667 
L 766.327936 84.278667 
L 767.681325 100.636 
L 769.033851 107.451556 
L 770.386191 107.451556 
L 771.738588 122.445778 
L 773.092085 160.612889 
L 774.444661 160.612889 
L 775.797756 163.339111 
L 777.150602 168.791556 
L 778.503073 168.791556 
L 779.856184 190.601333 
L 781.208982 198.78 
L 782.562265 211.048 
L 783.914834 211.048 
L 785.267935 260.12 
L 861.193656 260.12 
L 862.54686 256.030667 
L 863.899747 250.578222 
L 865.25259 250.578222 
L 866.60677 238.310222 
L 867.961106 234.220889 
L 869.316944 234.220889 
L 870.669556 228.768444 
L 872.022522 226.042222 
L 873.377159 220.589778 
L 876.087431 220.589778 
L 877.442701 221.952889 
L 878.794362 221.952889 
L 880.146543 220.589778 
L 884.205672 220.589778 
L 885.557766 223.316 
L 886.910727 223.316 
L 888.26412 224.679111 
L 889.616592 227.405333 
L 890.97123 227.405333 
L 892.323958 220.589778 
L 895.031397 217.863556 
L 896.385744 217.863556 
L 897.742915 215.137333 
L 899.099398 215.137333 
L 900.454284 213.774222 
L 901.806229 211.048 
L 903.160375 213.774222 
L 904.513256 213.774222 
L 907.217619 216.500444 
L 908.568748 216.500444 
L 909.920286 205.595556 
L 911.272114 212.411111 
L 912.624126 213.774222 
L 913.975897 213.774222 
L 915.327496 205.595556 
L 916.681514 205.595556 
L 918.033621 206.958667 
L 919.384959 213.774222 
L 920.737176 197.416889 
L 922.090597 197.416889 
L 923.444877 191.964444 
L 924.797129 183.785778 
L 926.152253 183.785778 
L 927.504328 170.154667 
L 928.855936 178.333333 
L 930.211196 178.333333 
L 931.56295 181.059556 
L 932.916002 166.065333 
L 934.267797 166.065333 
L 935.622991 163.339111 
L 936.977873 156.523556 
L 938.331693 140.166222 
L 939.684039 140.166222 
L 941.03597 145.618667 
L 942.391371 145.618667 
L 943.744028 148.344889 
L 945.099549 146.981778 
L 946.45411 159.249778 
L 947.809245 159.249778 
L 949.16151 156.523556 
L 950.516649 159.249778 
L 951.86852 159.249778 
L 954.576599 170.154667 
L 955.929286 176.970222 
L 957.28255 176.970222 
L 958.635385 179.696444 
L 959.98871 179.696444 
L 961.340281 190.601333 
L 962.692487 197.416889 
L 964.047162 197.416889 
L 965.399695 206.958667 
L 966.755655 215.137333 
L 968.108322 217.863556 
L 969.462911 217.863556 
L 970.816234 221.952889 
L 972.1684 227.405333 
L 973.522684 227.405333 
L 974.874823 260.12 
L 1052.140043 260.12 
L 1053.492458 258.756889 
L 1054.84677 238.310222 
L 1056.200765 238.310222 
L 1057.556278 221.952889 
L 1058.907748 212.411111 
L 1060.261713 212.411111 
L 1061.613211 208.321778 
L 1062.967399 201.506222 
L 1064.319192 201.506222 
L 1065.673145 190.601333 
L 1067.027558 181.059556 
L 1068.379832 182.422667 
L 1069.731502 182.422667 
L 1071.083429 179.696444 
L 1072.434357 187.875111 
L 1073.786475 187.875111 
L 1075.137735 197.416889 
L 1076.490253 197.416889 
L 1077.841211 194.690667 
L 1079.192305 197.416889 
L 1080.543913 194.690667 
L 1081.896045 194.690667 
L 1083.247542 197.416889 
L 1084.598517 201.506222 
L 1085.949679 201.506222 
L 1087.301678 200.143111 
L 1088.655863 197.416889 
L 1090.007444 202.869333 
L 1091.35906 202.869333 
L 1092.710429 206.958667 
L 1094.061451 206.958667 
L 1095.412739 194.690667 
L 1096.763959 206.958667 
L 1098.116822 208.321778 
L 1099.468098 208.321778 
L 1100.819164 211.048 
L 1102.170314 211.048 
L 1103.52141 206.958667 
L 1104.875575 209.684889 
L 1106.226685 209.684889 
L 1107.581107 212.411111 
L 1108.933662 209.684889 
L 1110.285118 211.048 
L 1111.639198 211.048 
L 1112.990749 205.595556 
L 1114.346164 208.321778 
L 1115.697975 208.321778 
L 1117.049229 212.411111 
L 1118.400517 220.589778 
L 1119.751888 217.863556 
L 1121.102773 217.863556 
L 1122.457276 234.220889 
L 1123.80844 234.220889 
L 1125.159881 236.947111 
L 1126.514186 241.036444 
L 1127.865815 236.947111 
L 1130.574145 236.947111 
L 1131.926915 234.220889 
L 1133.28 234.220889 
L 1133.28 234.220889 
" style="fill:none;stroke:#1f77b4;stroke-linecap:square;stroke-width:1.5;"/>
   </g>
   <g id="patch_3">
    <path d="M 33.64 260.12 
L 33.64 14.76 
" style="fill:none;stroke:#000000;stroke-linecap:square;stroke-linejoin:miter;stroke-width:0.8;"/>
   </g>
   <g id="patch_4">
    <path d="M 1133.28 260.12 
L 1133.28 14.76 
" style="fill:none;stroke:#000000;stroke-linecap:square;stroke-linejoin:miter;stroke-width:0.8;"/>
   </g>
   <g id="patch_5">
    <path d="M 33.64 260.12 
L 1133.28 260.12 
" style="fill:none;stroke:#000000;stroke-linecap:square;stroke-linejoin:miter;stroke-width:0.8;"/>
   </g>
   <g id="patch_6">
    <path d="M 33.64 14.76 
L 1133.28 14.76 
" style="fill:none;stroke:#000000;stroke-linecap:square;stroke-linejoin:miter;stroke-width:0.8;"/>
   </g>
  </g>
 </g>
 <defs>
  <clipPath id="p2ab5661f7d">
   <rect height="245.36" width="1099.64" x="33.64" y="14.76"/>
  </clipPath>
 </defs>
</svg>
