<?xml version="1.0" encoding="utf-8" standalone="no"?>
<!DOCTYPE svg PUBLIC "-//W3C//DTD SVG 1.1//EN"
  "http://www.w3.org/Graphics/SVG/1.1/DTD/svg11.dtd">
<!-- Created with matplotlib (https://matplotlib.org/) -->
<svg height="288pt" version="1.1" viewBox="0 0 1152 288" width="1152pt" xmlns="http://www.w3.org/2000/svg" xmlns:xlink="http://www.w3.org/1999/xlink">
 <defs>
  <style type="text/css">
*{stroke-linecap:butt;stroke-linejoin:round;}
  </style>
 </defs>
 <g id="figure_1">
  <g id="patch_1">
   <path d="M 0 288 
L 1152 288 
L 1152 0 
L 0 0 
z
" style="fill:#ffffff;"/>
  </g>
  <g id="axes_1">
   <g id="patch_2">
    <path d="M 33.64 260.12 
L 1133.28 260.12 
L 1133.28 14.76 
L 33.64 14.76 
z
" style="fill:#ffffff;"/>
   </g>
   <g id="matplotlib.axis_1">
    <g id="xtick_1">
     <g id="line2d_1">
      <defs>
       <path d="M 0 0 
L 0 3.5 
" id="m700915a189" style="stroke:#000000;stroke-width:0.8;"/>
      </defs>
      <g>
       <use style="stroke:#000000;stroke-width:0.8;" x="200.844201" xlink:href="#m700915a189" y="260.12"/>
      </g>
     </g>
     <g id="text_1">
      <!-- Tue 00:00 -->
      <defs>
       <path d="M -0.296875 72.90625 
L 61.375 72.90625 
L 61.375 64.59375 
L 35.5 64.59375 
L 35.5 0 
L 25.59375 0 
L 25.59375 64.59375 
L -0.296875 64.59375 
z
" id="DejaVuSans-84"/>
       <path d="M 8.5 21.578125 
L 8.5 54.6875 
L 17.484375 54.6875 
L 17.484375 21.921875 
Q 17.484375 14.15625 20.5 10.265625 
Q 23.53125 6.390625 29.59375 6.390625 
Q 36.859375 6.390625 41.078125 11.03125 
Q 45.3125 15.671875 45.3125 23.6875 
L 45.3125 54.6875 
L 54.296875 54.6875 
L 54.296875 0 
L 45.3125 0 
L 45.3125 8.40625 
Q 42.046875 3.421875 37.71875 1 
Q 33.40625 -1.421875 27.6875 -1.421875 
Q 18.265625 -1.421875 13.375 4.4375 
Q 8.5 10.296875 8.5 21.578125 
z
M 31.109375 56 
z
" id="DejaVuSans-117"/>
       <path d="M 56.203125 29.59375 
L 56.203125 25.203125 
L 14.890625 25.203125 
Q 15.484375 15.921875 20.484375 11.0625 
Q 25.484375 6.203125 34.421875 6.203125 
Q 39.59375 6.203125 44.453125 7.46875 
Q 49.3125 8.734375 54.109375 11.28125 
L 54.109375 2.78125 
Q 49.265625 0.734375 44.1875 -0.34375 
Q 39.109375 -1.421875 33.890625 -1.421875 
Q 20.796875 -1.421875 13.15625 6.1875 
Q 5.515625 13.8125 5.515625 26.8125 
Q 5.515625 40.234375 12.765625 48.109375 
Q 20.015625 56 32.328125 56 
Q 43.359375 56 49.78125 48.890625 
Q 56.203125 41.796875 56.203125 29.59375 
z
M 47.21875 32.234375 
Q 47.125 39.59375 43.09375 43.984375 
Q 39.0625 48.390625 32.421875 48.390625 
Q 24.90625 48.390625 20.390625 44.140625 
Q 15.875 39.890625 15.1875 32.171875 
z
" id="DejaVuSans-101"/>
       <path id="DejaVuSans-32"/>
       <path d="M 31.78125 66.40625 
Q 24.171875 66.40625 20.328125 58.90625 
Q 16.5 51.421875 16.5 36.375 
Q 16.5 21.390625 20.328125 13.890625 
Q 24.171875 6.390625 31.78125 6.390625 
Q 39.453125 6.390625 43.28125 13.890625 
Q 47.125 21.390625 47.125 36.375 
Q 47.125 51.421875 43.28125 58.90625 
Q 39.453125 66.40625 31.78125 66.40625 
z
M 31.78125 74.21875 
Q 44.046875 74.21875 50.515625 64.515625 
Q 56.984375 54.828125 56.984375 36.375 
Q 56.984375 17.96875 50.515625 8.265625 
Q 44.046875 -1.421875 31.78125 -1.421875 
Q 19.53125 -1.421875 13.0625 8.265625 
Q 6.59375 17.96875 6.59375 36.375 
Q 6.59375 54.828125 13.0625 64.515625 
Q 19.53125 74.21875 31.78125 74.21875 
z
" id="DejaVuSans-48"/>
       <path d="M 11.71875 12.40625 
L 22.015625 12.40625 
L 22.015625 0 
L 11.71875 0 
z
M 11.71875 51.703125 
L 22.015625 51.703125 
L 22.015625 39.3125 
L 11.71875 39.3125 
z
" id="DejaVuSans-58"/>
      </defs>
      <g transform="translate(175.558263 274.718437)scale(0.1 -0.1)">
       <use xlink:href="#DejaVuSans-84"/>
       <use x="60.849609" xlink:href="#DejaVuSans-117"/>
       <use x="124.228516" xlink:href="#DejaVuSans-101"/>
       <use x="185.751953" xlink:href="#DejaVuSans-32"/>
       <use x="217.539062" xlink:href="#DejaVuSans-48"/>
       <use x="281.162109" xlink:href="#DejaVuSans-48"/>
       <use x="344.785156" xlink:href="#DejaVuSans-58"/>
       <use x="378.476562" xlink:href="#DejaVuSans-48"/>
       <use x="442.099609" xlink:href="#DejaVuSans-48"/>
      </g>
     </g>
    </g>
    <g id="xtick_2">
     <g id="line2d_2">
      <g>
       <use style="stroke:#000000;stroke-width:0.8;" x="368.21806" xlink:href="#m700915a189" y="260.12"/>
      </g>
     </g>
     <g id="text_2">
      <!-- Wed 00:00 -->
      <defs>
       <path d="M 3.328125 72.90625 
L 13.28125 72.90625 
L 28.609375 11.28125 
L 43.890625 72.90625 
L 54.984375 72.90625 
L 70.3125 11.28125 
L 85.59375 72.90625 
L 95.609375 72.90625 
L 77.296875 0 
L 64.890625 0 
L 49.515625 63.28125 
L 33.984375 0 
L 21.578125 0 
z
" id="DejaVuSans-87"/>
       <path d="M 45.40625 46.390625 
L 45.40625 75.984375 
L 54.390625 75.984375 
L 54.390625 0 
L 45.40625 0 
L 45.40625 8.203125 
Q 42.578125 3.328125 38.25 0.953125 
Q 33.9375 -1.421875 27.875 -1.421875 
Q 17.96875 -1.421875 11.734375 6.484375 
Q 5.515625 14.40625 5.515625 27.296875 
Q 5.515625 40.1875 11.734375 48.09375 
Q 17.96875 56 27.875 56 
Q 33.9375 56 38.25 53.625 
Q 42.578125 51.265625 45.40625 46.390625 
z
M 14.796875 27.296875 
Q 14.796875 17.390625 18.875 11.75 
Q 22.953125 6.109375 30.078125 6.109375 
Q 37.203125 6.109375 41.296875 11.75 
Q 45.40625 17.390625 45.40625 27.296875 
Q 45.40625 37.203125 41.296875 42.84375 
Q 37.203125 48.484375 30.078125 48.484375 
Q 22.953125 48.484375 18.875 42.84375 
Q 14.796875 37.203125 14.796875 27.296875 
z
" id="DejaVuSans-100"/>
      </defs>
      <g transform="translate(341.028998 274.718437)scale(0.1 -0.1)">
       <use xlink:href="#DejaVuSans-87"/>
       <use x="98.798828" xlink:href="#DejaVuSans-101"/>
       <use x="160.322266" xlink:href="#DejaVuSans-100"/>
       <use x="223.798828" xlink:href="#DejaVuSans-32"/>
       <use x="255.585938" xlink:href="#DejaVuSans-48"/>
       <use x="319.208984" xlink:href="#DejaVuSans-48"/>
       <use x="382.832031" xlink:href="#DejaVuSans-58"/>
       <use x="416.523438" xlink:href="#DejaVuSans-48"/>
       <use x="480.146484" xlink:href="#DejaVuSans-48"/>
      </g>
     </g>
    </g>
    <g id="xtick_3">
     <g id="line2d_3">
      <g>
       <use style="stroke:#000000;stroke-width:0.8;" x="535.59192" xlink:href="#m700915a189" y="260.12"/>
      </g>
     </g>
     <g id="text_3">
      <!-- Thu 00:00 -->
      <defs>
       <path d="M 54.890625 33.015625 
L 54.890625 0 
L 45.90625 0 
L 45.90625 32.71875 
Q 45.90625 40.484375 42.875 44.328125 
Q 39.84375 48.1875 33.796875 48.1875 
Q 26.515625 48.1875 22.3125 43.546875 
Q 18.109375 38.921875 18.109375 30.90625 
L 18.109375 0 
L 9.078125 0 
L 9.078125 75.984375 
L 18.109375 75.984375 
L 18.109375 46.1875 
Q 21.34375 51.125 25.703125 53.5625 
Q 30.078125 56 35.796875 56 
Q 45.21875 56 50.046875 50.171875 
Q 54.890625 44.34375 54.890625 33.015625 
z
" id="DejaVuSans-104"/>
      </defs>
      <g transform="translate(510.202077 274.718437)scale(0.1 -0.1)">
       <use xlink:href="#DejaVuSans-84"/>
       <use x="61.083984" xlink:href="#DejaVuSans-104"/>
       <use x="124.462891" xlink:href="#DejaVuSans-117"/>
       <use x="187.841797" xlink:href="#DejaVuSans-32"/>
       <use x="219.628906" xlink:href="#DejaVuSans-48"/>
       <use x="283.251953" xlink:href="#DejaVuSans-48"/>
       <use x="346.875" xlink:href="#DejaVuSans-58"/>
       <use x="380.566406" xlink:href="#DejaVuSans-48"/>
       <use x="444.189453" xlink:href="#DejaVuSans-48"/>
      </g>
     </g>
    </g>
    <g id="xtick_4">
     <g id="line2d_4">
      <g>
       <use style="stroke:#000000;stroke-width:0.8;" x="702.96578" xlink:href="#m700915a189" y="260.12"/>
      </g>
     </g>
     <g id="text_4">
      <!-- Fri 00:00 -->
      <defs>
       <path d="M 9.8125 72.90625 
L 51.703125 72.90625 
L 51.703125 64.59375 
L 19.671875 64.59375 
L 19.671875 43.109375 
L 48.578125 43.109375 
L 48.578125 34.8125 
L 19.671875 34.8125 
L 19.671875 0 
L 9.8125 0 
z
" id="DejaVuSans-70"/>
       <path d="M 41.109375 46.296875 
Q 39.59375 47.171875 37.8125 47.578125 
Q 36.03125 48 33.890625 48 
Q 26.265625 48 22.1875 43.046875 
Q 18.109375 38.09375 18.109375 28.8125 
L 18.109375 0 
L 9.078125 0 
L 9.078125 54.6875 
L 18.109375 54.6875 
L 18.109375 46.1875 
Q 20.953125 51.171875 25.484375 53.578125 
Q 30.03125 56 36.53125 56 
Q 37.453125 56 38.578125 55.875 
Q 39.703125 55.765625 41.0625 55.515625 
z
" id="DejaVuSans-114"/>
       <path d="M 9.421875 54.6875 
L 18.40625 54.6875 
L 18.40625 0 
L 9.421875 0 
z
M 9.421875 75.984375 
L 18.40625 75.984375 
L 18.40625 64.59375 
L 9.421875 64.59375 
z
" id="DejaVuSans-105"/>
      </defs>
      <g transform="translate(680.652499 274.718437)scale(0.1 -0.1)">
       <use xlink:href="#DejaVuSans-70"/>
       <use x="57.410156" xlink:href="#DejaVuSans-114"/>
       <use x="98.523438" xlink:href="#DejaVuSans-105"/>
       <use x="126.306641" xlink:href="#DejaVuSans-32"/>
       <use x="158.09375" xlink:href="#DejaVuSans-48"/>
       <use x="221.716797" xlink:href="#DejaVuSans-48"/>
       <use x="285.339844" xlink:href="#DejaVuSans-58"/>
       <use x="319.03125" xlink:href="#DejaVuSans-48"/>
       <use x="382.654297" xlink:href="#DejaVuSans-48"/>
      </g>
     </g>
    </g>
    <g id="xtick_5">
     <g id="line2d_5">
      <g>
       <use style="stroke:#000000;stroke-width:0.8;" x="870.33964" xlink:href="#m700915a189" y="260.12"/>
      </g>
     </g>
     <g id="text_5">
      <!-- Sat 00:00 -->
      <defs>
       <path d="M 53.515625 70.515625 
L 53.515625 60.890625 
Q 47.90625 63.578125 42.921875 64.890625 
Q 37.9375 66.21875 33.296875 66.21875 
Q 25.25 66.21875 20.875 63.09375 
Q 16.5 59.96875 16.5 54.203125 
Q 16.5 49.359375 19.40625 46.890625 
Q 22.3125 44.4375 30.421875 42.921875 
L 36.375 41.703125 
Q 47.40625 39.59375 52.65625 34.296875 
Q 57.90625 29 57.90625 20.125 
Q 57.90625 9.515625 50.796875 4.046875 
Q 43.703125 -1.421875 29.984375 -1.421875 
Q 24.8125 -1.421875 18.96875 -0.25 
Q 13.140625 0.921875 6.890625 3.21875 
L 6.890625 13.375 
Q 12.890625 10.015625 18.65625 8.296875 
Q 24.421875 6.59375 29.984375 6.59375 
Q 38.421875 6.59375 43.015625 9.90625 
Q 47.609375 13.234375 47.609375 19.390625 
Q 47.609375 24.75 44.3125 27.78125 
Q 41.015625 30.8125 33.5 32.328125 
L 27.484375 33.5 
Q 16.453125 35.6875 11.515625 40.375 
Q 6.59375 45.0625 6.59375 53.421875 
Q 6.59375 63.09375 13.40625 68.65625 
Q 20.21875 74.21875 32.171875 74.21875 
Q 37.3125 74.21875 42.625 73.28125 
Q 47.953125 72.359375 53.515625 70.515625 
z
" id="DejaVuSans-83"/>
       <path d="M 34.28125 27.484375 
Q 23.390625 27.484375 19.1875 25 
Q 14.984375 22.515625 14.984375 16.5 
Q 14.984375 11.71875 18.140625 8.90625 
Q 21.296875 6.109375 26.703125 6.109375 
Q 34.1875 6.109375 38.703125 11.40625 
Q 43.21875 16.703125 43.21875 25.484375 
L 43.21875 27.484375 
z
M 52.203125 31.203125 
L 52.203125 0 
L 43.21875 0 
L 43.21875 8.296875 
Q 40.140625 3.328125 35.546875 0.953125 
Q 30.953125 -1.421875 24.3125 -1.421875 
Q 15.921875 -1.421875 10.953125 3.296875 
Q 6 8.015625 6 15.921875 
Q 6 25.140625 12.171875 29.828125 
Q 18.359375 34.515625 30.609375 34.515625 
L 43.21875 34.515625 
L 43.21875 35.40625 
Q 43.21875 41.609375 39.140625 45 
Q 35.0625 48.390625 27.6875 48.390625 
Q 23 48.390625 18.546875 47.265625 
Q 14.109375 46.140625 10.015625 43.890625 
L 10.015625 52.203125 
Q 14.9375 54.109375 19.578125 55.046875 
Q 24.21875 56 28.609375 56 
Q 40.484375 56 46.34375 49.84375 
Q 52.203125 43.703125 52.203125 31.203125 
z
" id="DejaVuSans-97"/>
       <path d="M 18.3125 70.21875 
L 18.3125 54.6875 
L 36.8125 54.6875 
L 36.8125 47.703125 
L 18.3125 47.703125 
L 18.3125 18.015625 
Q 18.3125 11.328125 20.140625 9.421875 
Q 21.96875 7.515625 27.59375 7.515625 
L 36.8125 7.515625 
L 36.8125 0 
L 27.59375 0 
Q 17.1875 0 13.234375 3.875 
Q 9.28125 7.765625 9.28125 18.015625 
L 9.28125 47.703125 
L 2.6875 47.703125 
L 2.6875 54.6875 
L 9.28125 54.6875 
L 9.28125 70.21875 
z
" id="DejaVuSans-116"/>
      </defs>
      <g transform="translate(846.142765 274.718437)scale(0.1 -0.1)">
       <use xlink:href="#DejaVuSans-83"/>
       <use x="63.476562" xlink:href="#DejaVuSans-97"/>
       <use x="124.755859" xlink:href="#DejaVuSans-116"/>
       <use x="163.964844" xlink:href="#DejaVuSans-32"/>
       <use x="195.751953" xlink:href="#DejaVuSans-48"/>
       <use x="259.375" xlink:href="#DejaVuSans-48"/>
       <use x="322.998047" xlink:href="#DejaVuSans-58"/>
       <use x="356.689453" xlink:href="#DejaVuSans-48"/>
       <use x="420.3125" xlink:href="#DejaVuSans-48"/>
      </g>
     </g>
    </g>
    <g id="xtick_6">
     <g id="line2d_6">
      <g>
       <use style="stroke:#000000;stroke-width:0.8;" x="1037.7135" xlink:href="#m700915a189" y="260.12"/>
      </g>
     </g>
     <g id="text_6">
      <!-- Sun 00:00 -->
      <defs>
       <path d="M 54.890625 33.015625 
L 54.890625 0 
L 45.90625 0 
L 45.90625 32.71875 
Q 45.90625 40.484375 42.875 44.328125 
Q 39.84375 48.1875 33.796875 48.1875 
Q 26.515625 48.1875 22.3125 43.546875 
Q 18.109375 38.921875 18.109375 30.90625 
L 18.109375 0 
L 9.078125 0 
L 9.078125 54.6875 
L 18.109375 54.6875 
L 18.109375 46.1875 
Q 21.34375 51.125 25.703125 53.5625 
Q 30.078125 56 35.796875 56 
Q 45.21875 56 50.046875 50.171875 
Q 54.890625 44.34375 54.890625 33.015625 
z
" id="DejaVuSans-110"/>
      </defs>
      <g transform="translate(1012.203344 274.718437)scale(0.1 -0.1)">
       <use xlink:href="#DejaVuSans-83"/>
       <use x="63.476562" xlink:href="#DejaVuSans-117"/>
       <use x="126.855469" xlink:href="#DejaVuSans-110"/>
       <use x="190.234375" xlink:href="#DejaVuSans-32"/>
       <use x="222.021484" xlink:href="#DejaVuSans-48"/>
       <use x="285.644531" xlink:href="#DejaVuSans-48"/>
       <use x="349.267578" xlink:href="#DejaVuSans-58"/>
       <use x="382.958984" xlink:href="#DejaVuSans-48"/>
       <use x="446.582031" xlink:href="#DejaVuSans-48"/>
      </g>
     </g>
    </g>
   </g>
   <g id="matplotlib.axis_2">
    <g id="ytick_1">
     <g id="line2d_7">
      <defs>
       <path d="M 0 0 
L -3.5 0 
" id="mef25416d5e" style="stroke:#000000;stroke-width:0.8;"/>
      </defs>
      <g>
       <use style="stroke:#000000;stroke-width:0.8;" x="33.64" xlink:href="#mef25416d5e" y="260.12"/>
      </g>
     </g>
     <g id="text_7">
      <!-- 0 -->
      <g transform="translate(20.2775 263.919219)scale(0.1 -0.1)">
       <use xlink:href="#DejaVuSans-48"/>
      </g>
     </g>
    </g>
    <g id="ytick_2">
     <g id="line2d_8">
      <g>
       <use style="stroke:#000000;stroke-width:0.8;" x="33.64" xlink:href="#mef25416d5e" y="230.910476"/>
      </g>
     </g>
     <g id="text_8">
      <!-- 25 -->
      <defs>
       <path d="M 19.1875 8.296875 
L 53.609375 8.296875 
L 53.609375 0 
L 7.328125 0 
L 7.328125 8.296875 
Q 12.9375 14.109375 22.625 23.890625 
Q 32.328125 33.6875 34.8125 36.53125 
Q 39.546875 41.84375 41.421875 45.53125 
Q 43.3125 49.21875 43.3125 52.78125 
Q 43.3125 58.59375 39.234375 62.25 
Q 35.15625 65.921875 28.609375 65.921875 
Q 23.96875 65.921875 18.8125 64.3125 
Q 13.671875 62.703125 7.8125 59.421875 
L 7.8125 69.390625 
Q 13.765625 71.78125 18.9375 73 
Q 24.125 74.21875 28.421875 74.21875 
Q 39.75 74.21875 46.484375 68.546875 
Q 53.21875 62.890625 53.21875 53.421875 
Q 53.21875 48.921875 51.53125 44.890625 
Q 49.859375 40.875 45.40625 35.40625 
Q 44.1875 33.984375 37.640625 27.21875 
Q 31.109375 20.453125 19.1875 8.296875 
z
" id="DejaVuSans-50"/>
       <path d="M 10.796875 72.90625 
L 49.515625 72.90625 
L 49.515625 64.59375 
L 19.828125 64.59375 
L 19.828125 46.734375 
Q 21.96875 47.46875 24.109375 47.828125 
Q 26.265625 48.1875 28.421875 48.1875 
Q 40.625 48.1875 47.75 41.5 
Q 54.890625 34.8125 54.890625 23.390625 
Q 54.890625 11.625 47.5625 5.09375 
Q 40.234375 -1.421875 26.90625 -1.421875 
Q 22.3125 -1.421875 17.546875 -0.640625 
Q 12.796875 0.140625 7.71875 1.703125 
L 7.71875 11.625 
Q 12.109375 9.234375 16.796875 8.0625 
Q 21.484375 6.890625 26.703125 6.890625 
Q 35.15625 6.890625 40.078125 11.328125 
Q 45.015625 15.765625 45.015625 23.390625 
Q 45.015625 31 40.078125 35.4375 
Q 35.15625 39.890625 26.703125 39.890625 
Q 22.75 39.890625 18.8125 39.015625 
Q 14.890625 38.140625 10.796875 36.28125 
z
" id="DejaVuSans-53"/>
      </defs>
      <g transform="translate(13.915 234.709695)scale(0.1 -0.1)">
       <use xlink:href="#DejaVuSans-50"/>
       <use x="63.623047" xlink:href="#DejaVuSans-53"/>
      </g>
     </g>
    </g>
    <g id="ytick_3">
     <g id="line2d_9">
      <g>
       <use style="stroke:#000000;stroke-width:0.8;" x="33.64" xlink:href="#mef25416d5e" y="201.700952"/>
      </g>
     </g>
     <g id="text_9">
      <!-- 50 -->
      <g transform="translate(13.915 205.500171)scale(0.1 -0.1)">
       <use xlink:href="#DejaVuSans-53"/>
       <use x="63.623047" xlink:href="#DejaVuSans-48"/>
      </g>
     </g>
    </g>
    <g id="ytick_4">
     <g id="line2d_10">
      <g>
       <use style="stroke:#000000;stroke-width:0.8;" x="33.64" xlink:href="#mef25416d5e" y="172.491429"/>
      </g>
     </g>
     <g id="text_10">
      <!-- 75 -->
      <defs>
       <path d="M 8.203125 72.90625 
L 55.078125 72.90625 
L 55.078125 68.703125 
L 28.609375 0 
L 18.3125 0 
L 43.21875 64.59375 
L 8.203125 64.59375 
z
" id="DejaVuSans-55"/>
      </defs>
      <g transform="translate(13.915 176.290647)scale(0.1 -0.1)">
       <use xlink:href="#DejaVuSans-55"/>
       <use x="63.623047" xlink:href="#DejaVuSans-53"/>
      </g>
     </g>
    </g>
    <g id="ytick_5">
     <g id="line2d_11">
      <g>
       <use style="stroke:#000000;stroke-width:0.8;" x="33.64" xlink:href="#mef25416d5e" y="143.281905"/>
      </g>
     </g>
     <g id="text_11">
      <!-- 100 -->
      <defs>
       <path d="M 12.40625 8.296875 
L 28.515625 8.296875 
L 28.515625 63.921875 
L 10.984375 60.40625 
L 10.984375 69.390625 
L 28.421875 72.90625 
L 38.28125 72.90625 
L 38.28125 8.296875 
L 54.390625 8.296875 
L 54.390625 0 
L 12.40625 0 
z
" id="DejaVuSans-49"/>
      </defs>
      <g transform="translate(7.5525 147.081124)scale(0.1 -0.1)">
       <use xlink:href="#DejaVuSans-49"/>
       <use x="63.623047" xlink:href="#DejaVuSans-48"/>
       <use x="127.246094" xlink:href="#DejaVuSans-48"/>
      </g>
     </g>
    </g>
    <g id="ytick_6">
     <g id="line2d_12">
      <g>
       <use style="stroke:#000000;stroke-width:0.8;" x="33.64" xlink:href="#mef25416d5e" y="114.072381"/>
      </g>
     </g>
     <g id="text_12">
      <!-- 125 -->
      <g transform="translate(7.5525 117.8716)scale(0.1 -0.1)">
       <use xlink:href="#DejaVuSans-49"/>
       <use x="63.623047" xlink:href="#DejaVuSans-50"/>
       <use x="127.246094" xlink:href="#DejaVuSans-53"/>
      </g>
     </g>
    </g>
    <g id="ytick_7">
     <g id="line2d_13">
      <g>
       <use style="stroke:#000000;stroke-width:0.8;" x="33.64" xlink:href="#mef25416d5e" y="84.862857"/>
      </g>
     </g>
     <g id="text_13">
      <!-- 150 -->
      <g transform="translate(7.5525 88.662076)scale(0.1 -0.1)">
       <use xlink:href="#DejaVuSans-49"/>
       <use x="63.623047" xlink:href="#DejaVuSans-53"/>
       <use x="127.246094" xlink:href="#DejaVuSans-48"/>
      </g>
     </g>
    </g>
    <g id="ytick_8">
     <g id="line2d_14">
      <g>
       <use style="stroke:#000000;stroke-width:0.8;" x="33.64" xlink:href="#mef25416d5e" y="55.653333"/>
      </g>
     </g>
     <g id="text_14">
      <!-- 175 -->
      <g transform="translate(7.5525 59.452552)scale(0.1 -0.1)">
       <use xlink:href="#DejaVuSans-49"/>
       <use x="63.623047" xlink:href="#DejaVuSans-55"/>
       <use x="127.246094" xlink:href="#DejaVuSans-53"/>
      </g>
     </g>
    </g>
    <g id="ytick_9">
     <g id="line2d_15">
      <g>
       <use style="stroke:#000000;stroke-width:0.8;" x="33.64" xlink:href="#mef25416d5e" y="26.44381"/>
      </g>
     </g>
     <g id="text_15">
      <!-- 200 -->
      <g transform="translate(7.5525 30.243028)scale(0.1 -0.1)">
       <use xlink:href="#DejaVuSans-50"/>
       <use x="63.623047" xlink:href="#DejaVuSans-48"/>
       <use x="127.246094" xlink:href="#DejaVuSans-48"/>
      </g>
     </g>
    </g>
   </g>
   <g id="line2d_16">
    <path clip-path="url(#pa89057e463)" d="M 33.64 260.12 
L 97.148597 260.12 
L 98.345158 257.783238 
L 99.542484 257.783238 
L 100.739887 254.278095 
L 101.93713 254.278095 
L 104.329147 249.604571 
L 105.525879 248.43619 
L 106.721418 248.43619 
L 107.917319 247.26781 
L 110.309694 247.26781 
L 111.506233 242.594286 
L 112.702298 236.752381 
L 113.897859 236.752381 
L 115.094201 229.742095 
L 116.292177 226.236952 
L 117.488131 226.236952 
L 118.684302 222.73181 
L 122.271516 222.73181 
L 123.467142 219.226667 
L 124.662279 218.058286 
L 127.054895 218.058286 
L 128.250689 223.90019 
L 129.446609 223.90019 
L 130.644156 229.742095 
L 131.839631 227.405333 
L 133.036111 227.405333 
L 134.23174 232.078857 
L 135.427311 233.247238 
L 136.623829 236.752381 
L 137.819954 236.752381 
L 139.017596 234.415619 
L 140.21231 234.415619 
L 141.408181 230.910476 
L 143.798771 216.889905 
L 144.993888 216.889905 
L 146.189499 212.216381 
L 147.385853 208.711238 
L 148.583124 208.711238 
L 149.778489 197.027429 
L 150.979147 192.353905 
L 152.179189 186.512 
L 153.374421 186.512 
L 154.570735 187.680381 
L 155.766164 187.680381 
L 156.962393 181.838476 
L 158.158264 164.312762 
L 159.353345 164.312762 
L 160.549209 150.29219 
L 161.745641 139.776762 
L 162.942213 116.409143 
L 164.137662 116.409143 
L 165.332893 89.536381 
L 166.530469 89.536381 
L 167.725735 67.337143 
L 168.921018 53.316571 
L 170.11591 47.474667 
L 171.311098 47.474667 
L 172.50661 54.484952 
L 173.701708 59.158476 
L 174.897855 59.158476 
L 176.094234 76.68419 
L 177.28901 74.347429 
L 178.486643 74.347429 
L 179.683215 79.020952 
L 180.87818 81.357714 
L 182.075249 93.041524 
L 183.270259 93.041524 
L 184.46553 100.05181 
L 185.660667 109.398857 
L 186.855235 109.398857 
L 188.051009 122.251048 
L 189.246124 128.092952 
L 190.443429 128.092952 
L 191.638008 129.261333 
L 192.833404 132.766476 
L 194.028705 139.776762 
L 195.223056 139.776762 
L 196.417169 260.12 
L 263.532814 260.12 
L 264.708973 258.951619 
L 265.907757 243.762667 
L 267.105975 243.762667 
L 268.30392 240.257524 
L 269.49975 235.584 
L 271.895312 235.584 
L 273.091059 232.078857 
L 274.286617 232.078857 
L 275.482806 227.405333 
L 276.679018 223.90019 
L 277.873794 223.90019 
L 279.071025 222.73181 
L 281.461548 222.73181 
L 282.65723 225.068571 
L 283.855348 218.058286 
L 285.053177 219.226667 
L 286.248036 219.226667 
L 287.444114 216.889905 
L 288.640327 218.058286 
L 289.836703 218.058286 
L 291.031923 221.563429 
L 292.226845 219.226667 
L 293.422936 219.226667 
L 294.619892 214.553143 
L 295.814987 218.058286 
L 297.009739 218.058286 
L 298.204584 213.384762 
L 299.402226 212.216381 
L 300.599683 208.711238 
L 301.796173 208.711238 
L 304.18654 201.700952 
L 305.383819 201.700952 
L 306.581122 204.037714 
L 308.980008 204.037714 
L 310.174714 200.532571 
L 312.567611 200.532571 
L 313.765063 197.027429 
L 314.960875 187.680381 
L 316.156293 187.680381 
L 317.351197 184.175238 
L 318.547 178.333333 
L 319.742698 178.333333 
L 320.940329 171.323048 
L 322.136225 156.134095 
L 323.332403 128.092952 
L 324.531395 128.092952 
L 325.73182 116.409143 
L 328.122685 116.409143 
L 329.32189 98.883429 
L 330.517803 98.883429 
L 331.713051 79.020952 
L 332.908149 67.337143 
L 334.103435 49.811429 
L 335.298787 49.811429 
L 336.49566 38.127619 
L 340.081387 38.127619 
L 341.279355 26.44381 
L 342.477166 26.44381 
L 343.672122 48.643048 
L 344.867976 60.326857 
L 346.063423 74.347429 
L 347.261424 74.347429 
L 349.651666 110.567238 
L 350.849989 110.567238 
L 352.045126 125.75619 
L 353.240628 137.44 
L 354.435612 151.460571 
L 355.634121 151.460571 
L 356.82958 161.976 
L 358.025758 161.976 
L 359.224467 166.649524 
L 360.419378 174.82819 
L 361.615504 175.996571 
L 364.007272 175.996571 
L 365.2019 260.12 
L 431.120991 260.12 
L 432.316074 255.446476 
L 434.707727 241.425905 
L 435.905159 241.425905 
L 437.100876 240.257524 
L 439.495815 240.257524 
L 440.691224 239.089143 
L 441.886727 239.089143 
L 443.084127 232.078857 
L 444.281127 232.078857 
L 445.476953 228.573714 
L 446.674282 228.573714 
L 447.870567 226.236952 
L 449.067542 225.068571 
L 453.853277 225.068571 
L 455.054221 226.236952 
L 457.444656 226.236952 
L 458.640004 223.90019 
L 459.836961 216.889905 
L 461.032179 219.226667 
L 462.229977 219.226667 
L 463.42747 221.563429 
L 464.622676 221.563429 
L 467.013908 214.553143 
L 468.211621 212.216381 
L 469.409072 212.216381 
L 470.60418 208.711238 
L 471.801264 206.374476 
L 472.998829 206.374476 
L 474.194496 209.879619 
L 475.391498 207.542857 
L 476.588452 206.374476 
L 477.786382 206.374476 
L 478.984672 205.206095 
L 480.180453 205.206095 
L 481.376437 198.19581 
L 482.573322 190.017143 
L 483.772035 190.017143 
L 484.9698 184.175238 
L 486.166923 171.323048 
L 487.362047 170.154667 
L 488.561385 170.154667 
L 489.759178 159.639238 
L 490.956972 159.639238 
L 492.153358 156.134095 
L 493.350757 153.797333 
L 494.548714 129.261333 
L 495.754915 129.261333 
L 496.950958 123.419429 
L 498.146754 115.240762 
L 499.343754 115.240762 
L 500.539941 98.883429 
L 501.735541 96.546667 
L 502.931686 96.546667 
L 504.128235 108.230476 
L 505.328035 101.22019 
L 506.522767 101.22019 
L 507.717738 96.546667 
L 508.91573 89.536381 
L 510.116439 95.378286 
L 511.314655 95.378286 
L 512.511935 94.209905 
L 513.710157 119.914286 
L 514.907417 119.914286 
L 516.102302 125.75619 
L 517.29971 144.450286 
L 518.49722 146.787048 
L 519.694421 146.787048 
L 520.891753 156.134095 
L 522.086467 156.134095 
L 523.284123 165.481143 
L 524.482065 171.323048 
L 525.677155 173.65981 
L 526.875257 173.65981 
L 528.072835 180.670095 
L 529.267389 181.838476 
L 531.662762 181.838476 
L 532.860487 260.12 
L 599.984064 260.12 
L 601.178968 256.614857 
L 602.373594 248.43619 
L 603.568744 248.43619 
L 604.766272 244.931048 
L 605.961859 242.594286 
L 607.15747 242.594286 
L 609.550943 235.584 
L 610.747633 230.910476 
L 611.945618 230.910476 
L 613.140896 229.742095 
L 614.336825 229.742095 
L 615.532022 226.236952 
L 616.730022 223.90019 
L 617.926058 223.90019 
L 620.318377 221.563429 
L 621.514244 225.068571 
L 622.711234 225.068571 
L 623.906955 222.73181 
L 625.103452 219.226667 
L 626.299623 219.226667 
L 627.495868 211.048 
L 628.691909 211.048 
L 629.887652 212.216381 
L 633.477253 212.216381 
L 634.674409 205.206095 
L 637.066381 205.206095 
L 638.263354 197.027429 
L 639.460322 194.690667 
L 640.657666 199.36419 
L 641.854872 199.36419 
L 643.057511 195.859048 
L 644.253451 195.859048 
L 645.448877 191.185524 
L 646.645227 184.175238 
L 647.841235 175.996571 
L 649.038344 175.996571 
L 650.234635 167.817905 
L 651.432471 161.976 
L 652.629592 161.976 
L 653.827471 157.302476 
L 655.025242 143.281905 
L 656.224222 143.281905 
L 657.422005 138.608381 
L 658.619212 128.092952 
L 659.816552 114.072381 
L 661.012737 114.072381 
L 662.208315 98.883429 
L 663.403664 104.725333 
L 664.599511 104.725333 
L 665.796103 86.031238 
L 666.991712 86.031238 
L 668.192692 70.842286 
L 669.389016 59.158476 
L 670.58561 46.306286 
L 671.783612 46.306286 
L 672.981863 28.780571 
L 674.179103 32.285714 
L 675.374747 32.285714 
L 676.571368 38.127619 
L 677.766036 31.117333 
L 678.961256 31.117333 
L 680.15633 41.632762 
L 681.352464 54.484952 
L 682.54806 62.663619 
L 683.743534 62.663619 
L 684.938296 76.68419 
L 686.138388 96.546667 
L 687.333291 96.546667 
L 688.530509 105.893714 
L 689.727711 121.082667 
L 690.92298 121.082667 
L 692.118464 126.924571 
L 693.315567 144.450286 
L 694.512744 144.450286 
L 695.70773 152.628952 
L 696.903175 158.470857 
L 699.296242 158.470857 
L 700.491476 260.12 
L 765.241182 260.12 
L 766.417275 256.614857 
L 767.61308 256.614857 
L 768.808726 254.278095 
L 770.003813 249.604571 
L 771.199243 247.26781 
L 772.397043 247.26781 
L 773.593538 242.594286 
L 774.789467 233.247238 
L 775.986025 233.247238 
L 777.181268 227.405333 
L 778.376005 227.405333 
L 779.571004 223.90019 
L 780.768921 223.90019 
L 781.963938 216.889905 
L 783.159405 216.889905 
L 784.35502 213.384762 
L 785.550089 215.721524 
L 786.745689 215.721524 
L 787.941265 216.889905 
L 789.136864 220.395048 
L 791.533155 220.395048 
L 792.728286 221.563429 
L 793.923631 221.563429 
L 795.119054 219.226667 
L 796.314701 225.068571 
L 798.704378 225.068571 
L 799.899203 220.395048 
L 801.095483 222.73181 
L 802.292644 222.73181 
L 803.488881 220.395048 
L 804.686375 220.395048 
L 805.882303 218.058286 
L 807.077401 206.374476 
L 808.272655 202.869333 
L 809.469217 202.869333 
L 810.663845 194.690667 
L 811.859612 187.680381 
L 813.054441 187.680381 
L 814.252326 181.838476 
L 815.452243 171.323048 
L 816.648973 164.312762 
L 817.847826 164.312762 
L 819.042697 158.470857 
L 820.23784 158.470857 
L 821.436692 153.797333 
L 822.632565 147.955429 
L 823.82905 145.618667 
L 825.027561 145.618667 
L 826.223845 137.44 
L 827.419694 150.29219 
L 828.615042 150.29219 
L 829.81618 161.976 
L 831.011644 160.807619 
L 832.206524 160.807619 
L 833.401818 150.29219 
L 834.597339 144.450286 
L 835.794467 144.450286 
L 836.990444 135.103238 
L 838.186018 126.924571 
L 839.383398 126.924571 
L 840.578901 125.75619 
L 841.774977 128.092952 
L 842.974137 125.75619 
L 844.180698 125.75619 
L 845.379934 130.429714 
L 846.579865 131.598095 
L 847.780394 131.598095 
L 848.989625 143.281905 
L 851.390826 143.281905 
L 852.591383 151.460571 
L 853.787662 158.470857 
L 854.988939 160.807619 
L 856.185677 160.807619 
L 857.383801 166.649524 
L 858.579862 166.649524 
L 859.777637 179.501714 
L 860.97383 185.343619 
L 862.169773 187.680381 
L 863.364765 187.680381 
L 864.561894 193.522286 
L 866.953727 193.522286 
L 868.159986 260.12 
L 932.898212 260.12 
L 934.073895 253.109714 
L 935.269586 251.941333 
L 936.466262 251.941333 
L 937.663052 241.425905 
L 938.857576 235.584 
L 940.052255 235.584 
L 941.247297 233.247238 
L 942.441769 233.247238 
L 943.636276 220.395048 
L 944.832756 209.879619 
L 946.027332 207.542857 
L 947.222259 207.542857 
L 949.61175 193.522286 
L 950.805996 193.522286 
L 953.19807 186.512 
L 954.392715 187.680381 
L 955.911327 187.680381 
L 957.106998 195.859048 
L 958.304913 199.36419 
L 959.499552 199.36419 
L 960.696566 200.532571 
L 961.895777 200.532571 
L 963.090848 187.680381 
L 964.285539 187.680381 
L 965.480259 180.670095 
L 966.675564 180.670095 
L 967.871267 175.996571 
L 969.065637 177.164952 
L 970.261505 177.164952 
L 971.458499 187.680381 
L 972.653177 186.512 
L 973.848169 180.670095 
L 975.042935 180.670095 
L 976.238026 181.838476 
L 977.432514 173.65981 
L 978.627244 173.65981 
L 979.822849 185.343619 
L 981.019212 198.19581 
L 982.213853 198.19581 
L 984.60609 205.206095 
L 985.802469 205.206095 
L 986.999206 204.037714 
L 988.195967 205.206095 
L 989.393262 201.700952 
L 990.590836 201.700952 
L 991.787949 202.869333 
L 992.985115 211.048 
L 994.182093 211.048 
L 995.377918 214.553143 
L 996.573807 215.721524 
L 997.771037 215.721524 
L 1000.165625 208.711238 
L 1001.363287 208.711238 
L 1002.560493 204.037714 
L 1003.757943 205.206095 
L 1004.955201 205.206095 
L 1006.153386 227.405333 
L 1007.350553 216.889905 
L 1008.546921 214.553143 
L 1009.742213 214.553143 
L 1010.938013 216.889905 
L 1014.526775 216.889905 
L 1015.722609 215.721524 
L 1016.921114 215.721524 
L 1018.11596 218.058286 
L 1021.705593 218.058286 
L 1022.902686 222.73181 
L 1024.098827 222.73181 
L 1026.493379 234.415619 
L 1027.690592 234.415619 
L 1028.888284 235.584 
L 1032.476678 235.584 
L 1033.67393 239.089143 
L 1037.265297 239.089143 
L 1038.462178 260.12 
L 1102.183005 260.12 
L 1103.378253 246.099429 
L 1104.572779 236.752381 
L 1105.768646 236.752381 
L 1108.160898 220.395048 
L 1109.356719 220.395048 
L 1110.552264 211.048 
L 1111.748042 205.206095 
L 1112.944751 194.690667 
L 1114.140759 194.690667 
L 1115.336577 173.65981 
L 1116.534416 173.65981 
L 1117.72992 183.006857 
L 1118.925151 172.491429 
L 1120.120667 172.491429 
L 1121.316859 170.154667 
L 1122.512515 172.491429 
L 1123.709264 164.312762 
L 1124.907027 164.312762 
L 1126.10198 159.639238 
L 1127.298894 165.481143 
L 1128.493946 165.481143 
L 1129.689319 177.164952 
L 1130.884069 172.491429 
L 1132.083034 172.491429 
L 1133.28 170.154667 
L 1133.28 170.154667 
" style="fill:none;stroke:#1f77b4;stroke-linecap:square;stroke-width:1.5;"/>
   </g>
   <g id="patch_3">
    <path d="M 33.64 260.12 
L 33.64 14.76 
" style="fill:none;stroke:#000000;stroke-linecap:square;stroke-linejoin:miter;stroke-width:0.8;"/>
   </g>
   <g id="patch_4">
    <path d="M 1133.28 260.12 
L 1133.28 14.76 
" style="fill:none;stroke:#000000;stroke-linecap:square;stroke-linejoin:miter;stroke-width:0.8;"/>
   </g>
   <g id="patch_5">
    <path d="M 33.64 260.12 
L 1133.28 260.12 
" style="fill:none;stroke:#000000;stroke-linecap:square;stroke-linejoin:miter;stroke-width:0.8;"/>
   </g>
   <g id="patch_6">
    <path d="M 33.64 14.76 
L 1133.28 14.76 
" style="fill:none;stroke:#000000;stroke-linecap:square;stroke-linejoin:miter;stroke-width:0.8;"/>
   </g>
  </g>
 </g>
 <defs>
  <clipPath id="pa89057e463">
   <rect height="245.36" width="1099.64" x="33.64" y="14.76"/>
  </clipPath>
 </defs>
</svg>
