<?xml version="1.0" encoding="utf-8" standalone="no"?>
<!DOCTYPE svg PUBLIC "-//W3C//DTD SVG 1.1//EN"
  "http://www.w3.org/Graphics/SVG/1.1/DTD/svg11.dtd">
<!-- Created with matplotlib (https://matplotlib.org/) -->
<svg height="288pt" version="1.1" viewBox="0 0 1152 288" width="1152pt" xmlns="http://www.w3.org/2000/svg" xmlns:xlink="http://www.w3.org/1999/xlink">
 <defs>
  <style type="text/css">
*{stroke-linecap:butt;stroke-linejoin:round;}
  </style>
 </defs>
 <g id="figure_1">
  <g id="patch_1">
   <path d="M 0 288 
L 1152 288 
L 1152 0 
L 0 0 
z
" style="fill:#ffffff;"/>
  </g>
  <g id="axes_1">
   <g id="patch_2">
    <path d="M 33.64 260.12 
L 1133.28 260.12 
L 1133.28 14.76 
L 33.64 14.76 
z
" style="fill:#ffffff;"/>
   </g>
   <g id="matplotlib.axis_1">
    <g id="xtick_1">
     <g id="line2d_1">
      <defs>
       <path d="M 0 0 
L 0 3.5 
" id="m901317dae8" style="stroke:#000000;stroke-width:0.8;"/>
      </defs>
      <g>
       <use style="stroke:#000000;stroke-width:0.8;" x="199.581432" xlink:href="#m901317dae8" y="260.12"/>
      </g>
     </g>
     <g id="text_1">
      <!-- Tue 00:00 -->
      <defs>
       <path d="M -0.296875 72.90625 
L 61.375 72.90625 
L 61.375 64.59375 
L 35.5 64.59375 
L 35.5 0 
L 25.59375 0 
L 25.59375 64.59375 
L -0.296875 64.59375 
z
" id="DejaVuSans-84"/>
       <path d="M 8.5 21.578125 
L 8.5 54.6875 
L 17.484375 54.6875 
L 17.484375 21.921875 
Q 17.484375 14.15625 20.5 10.265625 
Q 23.53125 6.390625 29.59375 6.390625 
Q 36.859375 6.390625 41.078125 11.03125 
Q 45.3125 15.671875 45.3125 23.6875 
L 45.3125 54.6875 
L 54.296875 54.6875 
L 54.296875 0 
L 45.3125 0 
L 45.3125 8.40625 
Q 42.046875 3.421875 37.71875 1 
Q 33.40625 -1.421875 27.6875 -1.421875 
Q 18.265625 -1.421875 13.375 4.4375 
Q 8.5 10.296875 8.5 21.578125 
z
M 31.109375 56 
z
" id="DejaVuSans-117"/>
       <path d="M 56.203125 29.59375 
L 56.203125 25.203125 
L 14.890625 25.203125 
Q 15.484375 15.921875 20.484375 11.0625 
Q 25.484375 6.203125 34.421875 6.203125 
Q 39.59375 6.203125 44.453125 7.46875 
Q 49.3125 8.734375 54.109375 11.28125 
L 54.109375 2.78125 
Q 49.265625 0.734375 44.1875 -0.34375 
Q 39.109375 -1.421875 33.890625 -1.421875 
Q 20.796875 -1.421875 13.15625 6.1875 
Q 5.515625 13.8125 5.515625 26.8125 
Q 5.515625 40.234375 12.765625 48.109375 
Q 20.015625 56 32.328125 56 
Q 43.359375 56 49.78125 48.890625 
Q 56.203125 41.796875 56.203125 29.59375 
z
M 47.21875 32.234375 
Q 47.125 39.59375 43.09375 43.984375 
Q 39.0625 48.390625 32.421875 48.390625 
Q 24.90625 48.390625 20.390625 44.140625 
Q 15.875 39.890625 15.1875 32.171875 
z
" id="DejaVuSans-101"/>
       <path id="DejaVuSans-32"/>
       <path d="M 31.78125 66.40625 
Q 24.171875 66.40625 20.328125 58.90625 
Q 16.5 51.421875 16.5 36.375 
Q 16.5 21.390625 20.328125 13.890625 
Q 24.171875 6.390625 31.78125 6.390625 
Q 39.453125 6.390625 43.28125 13.890625 
Q 47.125 21.390625 47.125 36.375 
Q 47.125 51.421875 43.28125 58.90625 
Q 39.453125 66.40625 31.78125 66.40625 
z
M 31.78125 74.21875 
Q 44.046875 74.21875 50.515625 64.515625 
Q 56.984375 54.828125 56.984375 36.375 
Q 56.984375 17.96875 50.515625 8.265625 
Q 44.046875 -1.421875 31.78125 -1.421875 
Q 19.53125 -1.421875 13.0625 8.265625 
Q 6.59375 17.96875 6.59375 36.375 
Q 6.59375 54.828125 13.0625 64.515625 
Q 19.53125 74.21875 31.78125 74.21875 
z
" id="DejaVuSans-48"/>
       <path d="M 11.71875 12.40625 
L 22.015625 12.40625 
L 22.015625 0 
L 11.71875 0 
z
M 11.71875 51.703125 
L 22.015625 51.703125 
L 22.015625 39.3125 
L 11.71875 39.3125 
z
" id="DejaVuSans-58"/>
      </defs>
      <g transform="translate(174.295495 274.718437)scale(0.1 -0.1)">
       <use xlink:href="#DejaVuSans-84"/>
       <use x="60.849609" xlink:href="#DejaVuSans-117"/>
       <use x="124.228516" xlink:href="#DejaVuSans-101"/>
       <use x="185.751953" xlink:href="#DejaVuSans-32"/>
       <use x="217.539062" xlink:href="#DejaVuSans-48"/>
       <use x="281.162109" xlink:href="#DejaVuSans-48"/>
       <use x="344.785156" xlink:href="#DejaVuSans-58"/>
       <use x="378.476562" xlink:href="#DejaVuSans-48"/>
       <use x="442.099609" xlink:href="#DejaVuSans-48"/>
      </g>
     </g>
    </g>
    <g id="xtick_2">
     <g id="line2d_2">
      <g>
       <use style="stroke:#000000;stroke-width:0.8;" x="365.691242" xlink:href="#m901317dae8" y="260.12"/>
      </g>
     </g>
     <g id="text_2">
      <!-- Wed 00:00 -->
      <defs>
       <path d="M 3.328125 72.90625 
L 13.28125 72.90625 
L 28.609375 11.28125 
L 43.890625 72.90625 
L 54.984375 72.90625 
L 70.3125 11.28125 
L 85.59375 72.90625 
L 95.609375 72.90625 
L 77.296875 0 
L 64.890625 0 
L 49.515625 63.28125 
L 33.984375 0 
L 21.578125 0 
z
" id="DejaVuSans-87"/>
       <path d="M 45.40625 46.390625 
L 45.40625 75.984375 
L 54.390625 75.984375 
L 54.390625 0 
L 45.40625 0 
L 45.40625 8.203125 
Q 42.578125 3.328125 38.25 0.953125 
Q 33.9375 -1.421875 27.875 -1.421875 
Q 17.96875 -1.421875 11.734375 6.484375 
Q 5.515625 14.40625 5.515625 27.296875 
Q 5.515625 40.1875 11.734375 48.09375 
Q 17.96875 56 27.875 56 
Q 33.9375 56 38.25 53.625 
Q 42.578125 51.265625 45.40625 46.390625 
z
M 14.796875 27.296875 
Q 14.796875 17.390625 18.875 11.75 
Q 22.953125 6.109375 30.078125 6.109375 
Q 37.203125 6.109375 41.296875 11.75 
Q 45.40625 17.390625 45.40625 27.296875 
Q 45.40625 37.203125 41.296875 42.84375 
Q 37.203125 48.484375 30.078125 48.484375 
Q 22.953125 48.484375 18.875 42.84375 
Q 14.796875 37.203125 14.796875 27.296875 
z
" id="DejaVuSans-100"/>
      </defs>
      <g transform="translate(338.50218 274.718437)scale(0.1 -0.1)">
       <use xlink:href="#DejaVuSans-87"/>
       <use x="98.798828" xlink:href="#DejaVuSans-101"/>
       <use x="160.322266" xlink:href="#DejaVuSans-100"/>
       <use x="223.798828" xlink:href="#DejaVuSans-32"/>
       <use x="255.585938" xlink:href="#DejaVuSans-48"/>
       <use x="319.208984" xlink:href="#DejaVuSans-48"/>
       <use x="382.832031" xlink:href="#DejaVuSans-58"/>
       <use x="416.523438" xlink:href="#DejaVuSans-48"/>
       <use x="480.146484" xlink:href="#DejaVuSans-48"/>
      </g>
     </g>
    </g>
    <g id="xtick_3">
     <g id="line2d_3">
      <g>
       <use style="stroke:#000000;stroke-width:0.8;" x="531.801052" xlink:href="#m901317dae8" y="260.12"/>
      </g>
     </g>
     <g id="text_3">
      <!-- Thu 00:00 -->
      <defs>
       <path d="M 54.890625 33.015625 
L 54.890625 0 
L 45.90625 0 
L 45.90625 32.71875 
Q 45.90625 40.484375 42.875 44.328125 
Q 39.84375 48.1875 33.796875 48.1875 
Q 26.515625 48.1875 22.3125 43.546875 
Q 18.109375 38.921875 18.109375 30.90625 
L 18.109375 0 
L 9.078125 0 
L 9.078125 75.984375 
L 18.109375 75.984375 
L 18.109375 46.1875 
Q 21.34375 51.125 25.703125 53.5625 
Q 30.078125 56 35.796875 56 
Q 45.21875 56 50.046875 50.171875 
Q 54.890625 44.34375 54.890625 33.015625 
z
" id="DejaVuSans-104"/>
      </defs>
      <g transform="translate(506.411209 274.718437)scale(0.1 -0.1)">
       <use xlink:href="#DejaVuSans-84"/>
       <use x="61.083984" xlink:href="#DejaVuSans-104"/>
       <use x="124.462891" xlink:href="#DejaVuSans-117"/>
       <use x="187.841797" xlink:href="#DejaVuSans-32"/>
       <use x="219.628906" xlink:href="#DejaVuSans-48"/>
       <use x="283.251953" xlink:href="#DejaVuSans-48"/>
       <use x="346.875" xlink:href="#DejaVuSans-58"/>
       <use x="380.566406" xlink:href="#DejaVuSans-48"/>
       <use x="444.189453" xlink:href="#DejaVuSans-48"/>
      </g>
     </g>
    </g>
    <g id="xtick_4">
     <g id="line2d_4">
      <g>
       <use style="stroke:#000000;stroke-width:0.8;" x="697.910862" xlink:href="#m901317dae8" y="260.12"/>
      </g>
     </g>
     <g id="text_4">
      <!-- Fri 00:00 -->
      <defs>
       <path d="M 9.8125 72.90625 
L 51.703125 72.90625 
L 51.703125 64.59375 
L 19.671875 64.59375 
L 19.671875 43.109375 
L 48.578125 43.109375 
L 48.578125 34.8125 
L 19.671875 34.8125 
L 19.671875 0 
L 9.8125 0 
z
" id="DejaVuSans-70"/>
       <path d="M 41.109375 46.296875 
Q 39.59375 47.171875 37.8125 47.578125 
Q 36.03125 48 33.890625 48 
Q 26.265625 48 22.1875 43.046875 
Q 18.109375 38.09375 18.109375 28.8125 
L 18.109375 0 
L 9.078125 0 
L 9.078125 54.6875 
L 18.109375 54.6875 
L 18.109375 46.1875 
Q 20.953125 51.171875 25.484375 53.578125 
Q 30.03125 56 36.53125 56 
Q 37.453125 56 38.578125 55.875 
Q 39.703125 55.765625 41.0625 55.515625 
z
" id="DejaVuSans-114"/>
       <path d="M 9.421875 54.6875 
L 18.40625 54.6875 
L 18.40625 0 
L 9.421875 0 
z
M 9.421875 75.984375 
L 18.40625 75.984375 
L 18.40625 64.59375 
L 9.421875 64.59375 
z
" id="DejaVuSans-105"/>
      </defs>
      <g transform="translate(675.597581 274.718437)scale(0.1 -0.1)">
       <use xlink:href="#DejaVuSans-70"/>
       <use x="57.410156" xlink:href="#DejaVuSans-114"/>
       <use x="98.523438" xlink:href="#DejaVuSans-105"/>
       <use x="126.306641" xlink:href="#DejaVuSans-32"/>
       <use x="158.09375" xlink:href="#DejaVuSans-48"/>
       <use x="221.716797" xlink:href="#DejaVuSans-48"/>
       <use x="285.339844" xlink:href="#DejaVuSans-58"/>
       <use x="319.03125" xlink:href="#DejaVuSans-48"/>
       <use x="382.654297" xlink:href="#DejaVuSans-48"/>
      </g>
     </g>
    </g>
    <g id="xtick_5">
     <g id="line2d_5">
      <g>
       <use style="stroke:#000000;stroke-width:0.8;" x="864.020673" xlink:href="#m901317dae8" y="260.12"/>
      </g>
     </g>
     <g id="text_5">
      <!-- Sat 00:00 -->
      <defs>
       <path d="M 53.515625 70.515625 
L 53.515625 60.890625 
Q 47.90625 63.578125 42.921875 64.890625 
Q 37.9375 66.21875 33.296875 66.21875 
Q 25.25 66.21875 20.875 63.09375 
Q 16.5 59.96875 16.5 54.203125 
Q 16.5 49.359375 19.40625 46.890625 
Q 22.3125 44.4375 30.421875 42.921875 
L 36.375 41.703125 
Q 47.40625 39.59375 52.65625 34.296875 
Q 57.90625 29 57.90625 20.125 
Q 57.90625 9.515625 50.796875 4.046875 
Q 43.703125 -1.421875 29.984375 -1.421875 
Q 24.8125 -1.421875 18.96875 -0.25 
Q 13.140625 0.921875 6.890625 3.21875 
L 6.890625 13.375 
Q 12.890625 10.015625 18.65625 8.296875 
Q 24.421875 6.59375 29.984375 6.59375 
Q 38.421875 6.59375 43.015625 9.90625 
Q 47.609375 13.234375 47.609375 19.390625 
Q 47.609375 24.75 44.3125 27.78125 
Q 41.015625 30.8125 33.5 32.328125 
L 27.484375 33.5 
Q 16.453125 35.6875 11.515625 40.375 
Q 6.59375 45.0625 6.59375 53.421875 
Q 6.59375 63.09375 13.40625 68.65625 
Q 20.21875 74.21875 32.171875 74.21875 
Q 37.3125 74.21875 42.625 73.28125 
Q 47.953125 72.359375 53.515625 70.515625 
z
" id="DejaVuSans-83"/>
       <path d="M 34.28125 27.484375 
Q 23.390625 27.484375 19.1875 25 
Q 14.984375 22.515625 14.984375 16.5 
Q 14.984375 11.71875 18.140625 8.90625 
Q 21.296875 6.109375 26.703125 6.109375 
Q 34.1875 6.109375 38.703125 11.40625 
Q 43.21875 16.703125 43.21875 25.484375 
L 43.21875 27.484375 
z
M 52.203125 31.203125 
L 52.203125 0 
L 43.21875 0 
L 43.21875 8.296875 
Q 40.140625 3.328125 35.546875 0.953125 
Q 30.953125 -1.421875 24.3125 -1.421875 
Q 15.921875 -1.421875 10.953125 3.296875 
Q 6 8.015625 6 15.921875 
Q 6 25.140625 12.171875 29.828125 
Q 18.359375 34.515625 30.609375 34.515625 
L 43.21875 34.515625 
L 43.21875 35.40625 
Q 43.21875 41.609375 39.140625 45 
Q 35.0625 48.390625 27.6875 48.390625 
Q 23 48.390625 18.546875 47.265625 
Q 14.109375 46.140625 10.015625 43.890625 
L 10.015625 52.203125 
Q 14.9375 54.109375 19.578125 55.046875 
Q 24.21875 56 28.609375 56 
Q 40.484375 56 46.34375 49.84375 
Q 52.203125 43.703125 52.203125 31.203125 
z
" id="DejaVuSans-97"/>
       <path d="M 18.3125 70.21875 
L 18.3125 54.6875 
L 36.8125 54.6875 
L 36.8125 47.703125 
L 18.3125 47.703125 
L 18.3125 18.015625 
Q 18.3125 11.328125 20.140625 9.421875 
Q 21.96875 7.515625 27.59375 7.515625 
L 36.8125 7.515625 
L 36.8125 0 
L 27.59375 0 
Q 17.1875 0 13.234375 3.875 
Q 9.28125 7.765625 9.28125 18.015625 
L 9.28125 47.703125 
L 2.6875 47.703125 
L 2.6875 54.6875 
L 9.28125 54.6875 
L 9.28125 70.21875 
z
" id="DejaVuSans-116"/>
      </defs>
      <g transform="translate(839.823798 274.718437)scale(0.1 -0.1)">
       <use xlink:href="#DejaVuSans-83"/>
       <use x="63.476562" xlink:href="#DejaVuSans-97"/>
       <use x="124.755859" xlink:href="#DejaVuSans-116"/>
       <use x="163.964844" xlink:href="#DejaVuSans-32"/>
       <use x="195.751953" xlink:href="#DejaVuSans-48"/>
       <use x="259.375" xlink:href="#DejaVuSans-48"/>
       <use x="322.998047" xlink:href="#DejaVuSans-58"/>
       <use x="356.689453" xlink:href="#DejaVuSans-48"/>
       <use x="420.3125" xlink:href="#DejaVuSans-48"/>
      </g>
     </g>
    </g>
    <g id="xtick_6">
     <g id="line2d_6">
      <g>
       <use style="stroke:#000000;stroke-width:0.8;" x="1030.130483" xlink:href="#m901317dae8" y="260.12"/>
      </g>
     </g>
     <g id="text_6">
      <!-- Sun 00:00 -->
      <defs>
       <path d="M 54.890625 33.015625 
L 54.890625 0 
L 45.90625 0 
L 45.90625 32.71875 
Q 45.90625 40.484375 42.875 44.328125 
Q 39.84375 48.1875 33.796875 48.1875 
Q 26.515625 48.1875 22.3125 43.546875 
Q 18.109375 38.921875 18.109375 30.90625 
L 18.109375 0 
L 9.078125 0 
L 9.078125 54.6875 
L 18.109375 54.6875 
L 18.109375 46.1875 
Q 21.34375 51.125 25.703125 53.5625 
Q 30.078125 56 35.796875 56 
Q 45.21875 56 50.046875 50.171875 
Q 54.890625 44.34375 54.890625 33.015625 
z
" id="DejaVuSans-110"/>
      </defs>
      <g transform="translate(1004.620327 274.718437)scale(0.1 -0.1)">
       <use xlink:href="#DejaVuSans-83"/>
       <use x="63.476562" xlink:href="#DejaVuSans-117"/>
       <use x="126.855469" xlink:href="#DejaVuSans-110"/>
       <use x="190.234375" xlink:href="#DejaVuSans-32"/>
       <use x="222.021484" xlink:href="#DejaVuSans-48"/>
       <use x="285.644531" xlink:href="#DejaVuSans-48"/>
       <use x="349.267578" xlink:href="#DejaVuSans-58"/>
       <use x="382.958984" xlink:href="#DejaVuSans-48"/>
       <use x="446.582031" xlink:href="#DejaVuSans-48"/>
      </g>
     </g>
    </g>
   </g>
   <g id="matplotlib.axis_2">
    <g id="ytick_1">
     <g id="line2d_7">
      <defs>
       <path d="M 0 0 
L -3.5 0 
" id="mf2e921faa7" style="stroke:#000000;stroke-width:0.8;"/>
      </defs>
      <g>
       <use style="stroke:#000000;stroke-width:0.8;" x="33.64" xlink:href="#mf2e921faa7" y="260.12"/>
      </g>
     </g>
     <g id="text_7">
      <!-- 0 -->
      <g transform="translate(20.2775 263.919219)scale(0.1 -0.1)">
       <use xlink:href="#DejaVuSans-48"/>
      </g>
     </g>
    </g>
    <g id="ytick_2">
     <g id="line2d_8">
      <g>
       <use style="stroke:#000000;stroke-width:0.8;" x="33.64" xlink:href="#mf2e921faa7" y="230.910476"/>
      </g>
     </g>
     <g id="text_8">
      <!-- 25 -->
      <defs>
       <path d="M 19.1875 8.296875 
L 53.609375 8.296875 
L 53.609375 0 
L 7.328125 0 
L 7.328125 8.296875 
Q 12.9375 14.109375 22.625 23.890625 
Q 32.328125 33.6875 34.8125 36.53125 
Q 39.546875 41.84375 41.421875 45.53125 
Q 43.3125 49.21875 43.3125 52.78125 
Q 43.3125 58.59375 39.234375 62.25 
Q 35.15625 65.921875 28.609375 65.921875 
Q 23.96875 65.921875 18.8125 64.3125 
Q 13.671875 62.703125 7.8125 59.421875 
L 7.8125 69.390625 
Q 13.765625 71.78125 18.9375 73 
Q 24.125 74.21875 28.421875 74.21875 
Q 39.75 74.21875 46.484375 68.546875 
Q 53.21875 62.890625 53.21875 53.421875 
Q 53.21875 48.921875 51.53125 44.890625 
Q 49.859375 40.875 45.40625 35.40625 
Q 44.1875 33.984375 37.640625 27.21875 
Q 31.109375 20.453125 19.1875 8.296875 
z
" id="DejaVuSans-50"/>
       <path d="M 10.796875 72.90625 
L 49.515625 72.90625 
L 49.515625 64.59375 
L 19.828125 64.59375 
L 19.828125 46.734375 
Q 21.96875 47.46875 24.109375 47.828125 
Q 26.265625 48.1875 28.421875 48.1875 
Q 40.625 48.1875 47.75 41.5 
Q 54.890625 34.8125 54.890625 23.390625 
Q 54.890625 11.625 47.5625 5.09375 
Q 40.234375 -1.421875 26.90625 -1.421875 
Q 22.3125 -1.421875 17.546875 -0.640625 
Q 12.796875 0.140625 7.71875 1.703125 
L 7.71875 11.625 
Q 12.109375 9.234375 16.796875 8.0625 
Q 21.484375 6.890625 26.703125 6.890625 
Q 35.15625 6.890625 40.078125 11.328125 
Q 45.015625 15.765625 45.015625 23.390625 
Q 45.015625 31 40.078125 35.4375 
Q 35.15625 39.890625 26.703125 39.890625 
Q 22.75 39.890625 18.8125 39.015625 
Q 14.890625 38.140625 10.796875 36.28125 
z
" id="DejaVuSans-53"/>
      </defs>
      <g transform="translate(13.915 234.709695)scale(0.1 -0.1)">
       <use xlink:href="#DejaVuSans-50"/>
       <use x="63.623047" xlink:href="#DejaVuSans-53"/>
      </g>
     </g>
    </g>
    <g id="ytick_3">
     <g id="line2d_9">
      <g>
       <use style="stroke:#000000;stroke-width:0.8;" x="33.64" xlink:href="#mf2e921faa7" y="201.700952"/>
      </g>
     </g>
     <g id="text_9">
      <!-- 50 -->
      <g transform="translate(13.915 205.500171)scale(0.1 -0.1)">
       <use xlink:href="#DejaVuSans-53"/>
       <use x="63.623047" xlink:href="#DejaVuSans-48"/>
      </g>
     </g>
    </g>
    <g id="ytick_4">
     <g id="line2d_10">
      <g>
       <use style="stroke:#000000;stroke-width:0.8;" x="33.64" xlink:href="#mf2e921faa7" y="172.491429"/>
      </g>
     </g>
     <g id="text_10">
      <!-- 75 -->
      <defs>
       <path d="M 8.203125 72.90625 
L 55.078125 72.90625 
L 55.078125 68.703125 
L 28.609375 0 
L 18.3125 0 
L 43.21875 64.59375 
L 8.203125 64.59375 
z
" id="DejaVuSans-55"/>
      </defs>
      <g transform="translate(13.915 176.290647)scale(0.1 -0.1)">
       <use xlink:href="#DejaVuSans-55"/>
       <use x="63.623047" xlink:href="#DejaVuSans-53"/>
      </g>
     </g>
    </g>
    <g id="ytick_5">
     <g id="line2d_11">
      <g>
       <use style="stroke:#000000;stroke-width:0.8;" x="33.64" xlink:href="#mf2e921faa7" y="143.281905"/>
      </g>
     </g>
     <g id="text_11">
      <!-- 100 -->
      <defs>
       <path d="M 12.40625 8.296875 
L 28.515625 8.296875 
L 28.515625 63.921875 
L 10.984375 60.40625 
L 10.984375 69.390625 
L 28.421875 72.90625 
L 38.28125 72.90625 
L 38.28125 8.296875 
L 54.390625 8.296875 
L 54.390625 0 
L 12.40625 0 
z
" id="DejaVuSans-49"/>
      </defs>
      <g transform="translate(7.5525 147.081124)scale(0.1 -0.1)">
       <use xlink:href="#DejaVuSans-49"/>
       <use x="63.623047" xlink:href="#DejaVuSans-48"/>
       <use x="127.246094" xlink:href="#DejaVuSans-48"/>
      </g>
     </g>
    </g>
    <g id="ytick_6">
     <g id="line2d_12">
      <g>
       <use style="stroke:#000000;stroke-width:0.8;" x="33.64" xlink:href="#mf2e921faa7" y="114.072381"/>
      </g>
     </g>
     <g id="text_12">
      <!-- 125 -->
      <g transform="translate(7.5525 117.8716)scale(0.1 -0.1)">
       <use xlink:href="#DejaVuSans-49"/>
       <use x="63.623047" xlink:href="#DejaVuSans-50"/>
       <use x="127.246094" xlink:href="#DejaVuSans-53"/>
      </g>
     </g>
    </g>
    <g id="ytick_7">
     <g id="line2d_13">
      <g>
       <use style="stroke:#000000;stroke-width:0.8;" x="33.64" xlink:href="#mf2e921faa7" y="84.862857"/>
      </g>
     </g>
     <g id="text_13">
      <!-- 150 -->
      <g transform="translate(7.5525 88.662076)scale(0.1 -0.1)">
       <use xlink:href="#DejaVuSans-49"/>
       <use x="63.623047" xlink:href="#DejaVuSans-53"/>
       <use x="127.246094" xlink:href="#DejaVuSans-48"/>
      </g>
     </g>
    </g>
    <g id="ytick_8">
     <g id="line2d_14">
      <g>
       <use style="stroke:#000000;stroke-width:0.8;" x="33.64" xlink:href="#mf2e921faa7" y="55.653333"/>
      </g>
     </g>
     <g id="text_14">
      <!-- 175 -->
      <g transform="translate(7.5525 59.452552)scale(0.1 -0.1)">
       <use xlink:href="#DejaVuSans-49"/>
       <use x="63.623047" xlink:href="#DejaVuSans-55"/>
       <use x="127.246094" xlink:href="#DejaVuSans-53"/>
      </g>
     </g>
    </g>
    <g id="ytick_9">
     <g id="line2d_15">
      <g>
       <use style="stroke:#000000;stroke-width:0.8;" x="33.64" xlink:href="#mf2e921faa7" y="26.44381"/>
      </g>
     </g>
     <g id="text_15">
      <!-- 200 -->
      <g transform="translate(7.5525 30.243028)scale(0.1 -0.1)">
       <use xlink:href="#DejaVuSans-50"/>
       <use x="63.623047" xlink:href="#DejaVuSans-48"/>
       <use x="127.246094" xlink:href="#DejaVuSans-48"/>
      </g>
     </g>
    </g>
   </g>
   <g id="line2d_16">
    <path clip-path="url(#p5b8b0b19a4)" d="M 33.64 260.12 
L 96.668963 260.12 
L 97.856488 257.783238 
L 99.044772 257.783238 
L 100.233132 254.278095 
L 101.421333 254.278095 
L 103.795285 249.604571 
L 104.982979 248.43619 
L 106.169489 248.43619 
L 107.356358 247.26781 
L 109.730665 247.26781 
L 110.918168 242.594286 
L 112.1052 236.752381 
L 113.291731 236.752381 
L 114.479038 229.742095 
L 115.667967 226.236952 
L 116.854889 226.236952 
L 118.042026 222.73181 
L 121.602149 222.73181 
L 122.788745 219.226667 
L 123.974856 218.058286 
L 126.349402 218.058286 
L 127.536165 223.90019 
L 128.723053 223.90019 
L 129.911556 229.742095 
L 131.098003 227.405333 
L 132.285446 227.405333 
L 133.472046 232.078857 
L 134.658588 233.247238 
L 135.846069 236.752381 
L 137.033161 236.752381 
L 138.221758 234.415619 
L 139.407449 234.415619 
L 140.594289 230.910476 
L 142.966824 216.889905 
L 144.152916 216.889905 
L 145.339497 212.216381 
L 146.526815 208.711238 
L 147.715044 208.711238 
L 148.901382 197.027429 
L 150.092972 192.353905 
L 151.283951 186.512 
L 152.470156 186.512 
L 153.657436 187.680381 
L 154.843836 187.680381 
L 156.031031 181.838476 
L 157.217871 164.312762 
L 158.403926 164.312762 
L 159.590759 150.29219 
L 160.778155 139.776762 
L 161.96569 116.409143 
L 163.15211 116.409143 
L 164.338314 89.536381 
L 165.526846 89.536381 
L 166.713085 67.337143 
L 167.899342 53.316571 
L 169.085209 47.474667 
L 170.271371 47.474667 
L 171.457855 54.484952 
L 172.643926 59.158476 
L 173.83104 59.158476 
L 175.018383 76.68419 
L 176.204136 74.347429 
L 177.392725 74.347429 
L 178.580259 79.020952 
L 179.7662 81.357714 
L 180.954228 93.041524 
L 182.140214 93.041524 
L 183.326458 100.05181 
L 184.512569 109.398857 
L 185.698115 109.398857 
L 186.884858 122.251048 
L 188.070947 128.092952 
L 189.259209 128.092952 
L 190.444767 129.261333 
L 191.631135 132.766476 
L 192.817408 139.776762 
L 194.002739 139.776762 
L 195.187835 260.12 
L 261.796605 260.12 
L 262.963882 258.951619 
L 264.153612 243.762667 
L 265.342781 243.762667 
L 266.531678 240.257524 
L 267.718477 235.584 
L 270.095948 235.584 
L 271.282664 232.078857 
L 272.469192 232.078857 
L 273.656348 227.405333 
L 274.843526 223.90019 
L 276.029278 223.90019 
L 277.217468 222.73181 
L 279.589937 222.73181 
L 280.776589 225.068571 
L 281.965659 218.058286 
L 283.154441 219.226667 
L 284.340276 219.226667 
L 285.527321 216.889905 
L 286.7145 218.058286 
L 287.901841 218.058286 
L 289.088034 221.563429 
L 290.273932 219.226667 
L 291.46099 219.226667 
L 292.648906 214.553143 
L 293.834975 218.058286 
L 295.020704 218.058286 
L 296.206525 213.384762 
L 297.395123 212.216381 
L 298.583536 208.711238 
L 299.77099 208.711238 
L 302.143304 201.700952 
L 303.331541 201.700952 
L 304.519802 204.037714 
L 306.900571 204.037714 
L 308.086254 200.532571 
L 310.461079 200.532571 
L 311.649488 197.027429 
L 312.836269 187.680381 
L 314.022658 187.680381 
L 315.208538 184.175238 
L 316.39531 178.333333 
L 317.581978 178.333333 
L 318.770564 171.323048 
L 319.957428 156.134095 
L 321.144573 128.092952 
L 322.33451 128.092952 
L 323.525869 116.409143 
L 325.898678 116.409143 
L 327.088826 98.883429 
L 328.275707 98.883429 
L 329.461927 79.020952 
L 330.648 67.337143 
L 331.834259 49.811429 
L 333.020583 49.811429 
L 334.208417 38.127619 
L 337.767064 38.127619 
L 338.955985 26.44381 
L 340.144749 26.44381 
L 341.330681 48.643048 
L 342.517504 60.326857 
L 343.703922 74.347429 
L 344.892875 74.347429 
L 347.265066 110.567238 
L 348.454339 110.567238 
L 349.64045 125.75619 
L 350.826923 137.44 
L 352.012882 151.460571 
L 353.20234 151.460571 
L 354.38877 161.976 
L 355.575914 161.976 
L 356.765571 166.649524 
L 357.951457 174.82819 
L 359.13855 175.996571 
L 361.512255 175.996571 
L 362.697861 260.12 
L 428.119114 260.12 
L 429.305171 255.446476 
L 431.678761 241.425905 
L 432.86715 241.425905 
L 434.053837 240.257524 
L 436.430689 240.257524 
L 437.61707 239.089143 
L 438.803544 239.089143 
L 439.991902 232.078857 
L 441.179861 232.078857 
L 442.366656 228.573714 
L 443.554942 228.573714 
L 444.742192 226.236952 
L 445.930128 225.068571 
L 450.67972 225.068571 
L 451.871594 226.236952 
L 454.243976 226.236952 
L 455.430296 223.90019 
L 456.618213 216.889905 
L 457.804405 219.226667 
L 458.993157 219.226667 
L 460.181606 221.563429 
L 461.367785 221.563429 
L 463.740958 214.553143 
L 464.929626 212.216381 
L 466.118034 212.216381 
L 467.304115 208.711238 
L 468.492159 206.374476 
L 469.68068 206.374476 
L 470.867317 209.879619 
L 472.055279 207.542857 
L 473.243193 206.374476 
L 474.432076 206.374476 
L 475.621316 205.206095 
L 476.808066 205.206095 
L 477.995018 198.19581 
L 479.182864 190.017143 
L 480.372524 190.017143 
L 481.561243 184.175238 
L 482.749325 171.323048 
L 483.935423 170.154667 
L 485.125703 170.154667 
L 486.314451 159.639238 
L 487.503198 159.639238 
L 488.690549 156.134095 
L 489.878905 153.797333 
L 491.067814 129.261333 
L 492.264906 129.261333 
L 493.451917 123.419429 
L 494.638681 115.240762 
L 495.826641 115.240762 
L 497.013794 98.883429 
L 498.200365 96.546667 
L 499.387476 96.546667 
L 500.574989 108.230476 
L 501.765727 101.22019 
L 502.951436 101.22019 
L 504.137383 96.546667 
L 505.326328 89.536381 
L 506.517968 95.378286 
L 507.707135 95.378286 
L 508.895373 94.209905 
L 510.084545 119.914286 
L 511.272763 119.914286 
L 512.458625 125.75619 
L 513.646989 144.450286 
L 514.835455 146.787048 
L 516.023615 146.787048 
L 517.211904 156.134095 
L 518.397596 156.134095 
L 519.586206 165.481143 
L 520.775101 171.323048 
L 521.961165 173.65981 
L 523.150219 173.65981 
L 524.338753 180.670095 
L 525.524285 181.838476 
L 527.901568 181.838476 
L 529.090248 260.12 
L 595.70689 260.12 
L 596.89277 256.614857 
L 598.078373 248.43619 
L 599.264497 248.43619 
L 600.452982 244.931048 
L 601.63954 242.594286 
L 602.826121 242.594286 
L 605.201517 235.584 
L 606.38917 230.910476 
L 607.578107 230.910476 
L 608.764358 229.742095 
L 609.951255 229.742095 
L 611.137426 226.236952 
L 612.326379 223.90019 
L 613.513382 223.90019 
L 615.887633 221.563429 
L 617.074469 225.068571 
L 618.262419 225.068571 
L 619.44911 222.73181 
L 620.63657 219.226667 
L 621.823707 219.226667 
L 623.010918 211.048 
L 624.197926 211.048 
L 625.384639 212.216381 
L 628.94713 212.216381 
L 630.135244 205.206095 
L 632.509152 205.206095 
L 633.697086 197.027429 
L 634.885013 194.690667 
L 636.073315 199.36419 
L 637.261479 199.36419 
L 638.455036 195.859048 
L 639.641943 195.859048 
L 640.828341 191.185524 
L 642.015657 184.175238 
L 643.202631 175.996571 
L 644.390699 175.996571 
L 645.577956 167.817905 
L 646.766746 161.976 
L 647.954826 161.976 
L 649.143658 157.302476 
L 650.332383 143.281905 
L 651.522308 143.281905 
L 652.711046 138.608381 
L 653.89921 128.092952 
L 655.087508 114.072381 
L 656.274659 114.072381 
L 657.461208 98.883429 
L 658.647529 104.725333 
L 659.834345 104.725333 
L 661.0219 86.031238 
L 662.20848 86.031238 
L 663.400389 70.842286 
L 664.587678 59.158476 
L 665.775235 46.306286 
L 666.96419 46.306286 
L 668.153391 28.780571 
L 669.34159 32.285714 
L 670.528204 32.285714 
L 671.715787 38.127619 
L 672.901433 31.117333 
L 674.087626 31.117333 
L 675.273675 41.632762 
L 676.460776 54.484952 
L 677.647342 62.663619 
L 678.833788 62.663619 
L 680.019526 76.68419 
L 681.210555 96.546667 
L 682.396434 96.546667 
L 683.58461 105.893714 
L 684.772771 121.082667 
L 685.959012 121.082667 
L 687.145468 126.924571 
L 688.33353 144.450286 
L 689.521665 144.450286 
L 690.707627 152.628952 
L 691.894043 158.470857 
L 694.269037 158.470857 
L 695.455244 260.12 
L 759.715945 260.12 
L 760.883156 256.614857 
L 762.069929 256.614857 
L 763.256545 254.278095 
L 764.442607 249.604571 
L 765.629009 247.26781 
L 766.817763 247.26781 
L 768.005222 242.594286 
L 769.192118 233.247238 
L 770.37964 233.247238 
L 771.565856 227.405333 
L 772.75157 227.405333 
L 773.937544 223.90019 
L 775.126414 223.90019 
L 776.312406 216.889905 
L 777.498844 216.889905 
L 778.68543 213.384762 
L 779.871473 215.721524 
L 781.058044 215.721524 
L 782.24459 216.889905 
L 783.43116 220.395048 
L 785.809354 220.395048 
L 786.995459 221.563429 
L 788.181776 221.563429 
L 789.368171 219.226667 
L 790.554789 225.068571 
L 792.926418 225.068571 
L 794.112219 220.395048 
L 795.299465 222.73181 
L 796.487585 222.73181 
L 797.674787 220.395048 
L 798.863237 220.395048 
L 800.050133 218.058286 
L 801.236205 206.374476 
L 802.422433 202.869333 
L 803.609959 202.869333 
L 804.795564 194.690667 
L 805.9823 187.680381 
L 807.168105 187.680381 
L 808.356944 181.838476 
L 809.547799 171.323048 
L 810.735491 164.312762 
L 811.92529 164.312762 
L 813.111137 158.470857 
L 814.297254 158.470857 
L 815.487052 153.797333 
L 816.673893 147.955429 
L 817.861342 145.618667 
L 819.050801 145.618667 
L 820.238051 137.44 
L 821.424869 150.29219 
L 822.611189 150.29219 
L 823.803256 161.976 
L 824.989691 160.807619 
L 826.175547 160.807619 
L 827.361814 150.29219 
L 828.548307 144.450286 
L 829.736393 144.450286 
L 830.923338 135.103238 
L 832.109882 126.924571 
L 833.29822 126.924571 
L 834.484694 125.75619 
L 835.671737 128.092952 
L 836.86184 125.75619 
L 838.059289 125.75619 
L 839.249468 130.429714 
L 840.440337 131.598095 
L 841.631799 131.598095 
L 842.831898 143.281905 
L 845.214965 143.281905 
L 846.406454 151.460571 
L 847.593699 158.470857 
L 848.785904 160.807619 
L 849.973603 160.807619 
L 851.162679 166.649524 
L 852.349707 166.649524 
L 853.538436 179.501714 
L 854.725595 185.343619 
L 855.912506 187.680381 
L 857.098474 187.680381 
L 858.286561 193.522286 
L 860.660331 193.522286 
L 861.857479 260.12 
L 926.106786 260.12 
L 927.27359 253.109714 
L 928.460251 251.941333 
L 929.647889 251.941333 
L 930.83564 241.425905 
L 932.021144 235.584 
L 933.206799 235.584 
L 934.392817 233.247238 
L 935.578268 233.247238 
L 936.763753 220.395048 
L 937.951197 209.879619 
L 939.136751 207.542857 
L 940.322654 207.542857 
L 942.694099 193.522286 
L 943.879326 193.522286 
L 946.253334 186.512 
L 947.438957 187.680381 
L 948.9461 187.680381 
L 950.132741 195.859048 
L 951.321609 199.36419 
L 952.507226 199.36419 
L 953.6952 200.532571 
L 954.885354 200.532571 
L 956.0714 187.680381 
L 957.257068 187.680381 
L 958.442766 180.670095 
L 959.629043 180.670095 
L 960.815715 175.996571 
L 962.001066 177.164952 
L 963.187902 177.164952 
L 964.375856 187.680381 
L 965.561512 186.512 
L 966.747478 180.670095 
L 967.933222 180.670095 
L 969.119287 181.838476 
L 970.304753 173.65981 
L 971.490461 173.65981 
L 972.677036 185.343619 
L 973.864364 198.19581 
L 975.049983 198.19581 
L 977.424153 205.206095 
L 978.611497 205.206095 
L 979.799195 204.037714 
L 980.986919 205.206095 
L 982.175171 201.700952 
L 983.3637 201.700952 
L 984.551773 202.869333 
L 985.739898 211.048 
L 986.927836 211.048 
L 988.11463 214.553143 
L 989.301487 215.721524 
L 990.489675 215.721524 
L 992.866178 208.711238 
L 994.054795 208.711238 
L 995.24296 204.037714 
L 996.431367 205.206095 
L 997.619582 205.206095 
L 998.808718 227.405333 
L 999.996845 216.889905 
L 1001.184176 214.553143 
L 1002.370442 214.553143 
L 1003.55721 216.889905 
L 1007.118869 216.889905 
L 1008.305672 215.721524 
L 1009.495126 215.721524 
L 1010.680948 218.058286 
L 1014.243471 218.058286 
L 1015.431524 222.73181 
L 1016.618631 222.73181 
L 1018.995099 234.415619 
L 1020.18327 234.415619 
L 1021.371917 235.584 
L 1024.93321 235.584 
L 1026.121421 239.089143 
L 1029.685664 239.089143 
L 1030.873506 260.12 
L 1094.113098 260.12 
L 1095.299319 246.099429 
L 1096.484823 236.752381 
L 1097.671659 236.752381 
L 1100.045844 220.395048 
L 1101.232634 220.395048 
L 1102.41915 211.048 
L 1103.605897 205.206095 
L 1104.793568 194.690667 
L 1105.980543 194.690667 
L 1107.167331 173.65981 
L 1108.356123 173.65981 
L 1109.542598 183.006857 
L 1110.728803 172.491429 
L 1111.91529 172.491429 
L 1113.102447 170.154667 
L 1114.289074 172.491429 
L 1115.476785 164.312762 
L 1116.665501 164.312762 
L 1117.851431 159.639238 
L 1119.039305 165.481143 
L 1120.225332 165.481143 
L 1121.411677 177.164952 
L 1122.597404 172.491429 
L 1123.787314 172.491429 
L 1124.97524 170.154667 
L 1127.347655 170.154667 
L 1128.533052 167.817905 
L 1129.718815 178.333333 
L 1130.908657 170.154667 
L 1132.094111 170.154667 
L 1133.28 167.817905 
L 1133.28 167.817905 
" style="fill:none;stroke:#1f77b4;stroke-linecap:square;stroke-width:1.5;"/>
   </g>
   <g id="patch_3">
    <path d="M 33.64 260.12 
L 33.64 14.76 
" style="fill:none;stroke:#000000;stroke-linecap:square;stroke-linejoin:miter;stroke-width:0.8;"/>
   </g>
   <g id="patch_4">
    <path d="M 1133.28 260.12 
L 1133.28 14.76 
" style="fill:none;stroke:#000000;stroke-linecap:square;stroke-linejoin:miter;stroke-width:0.8;"/>
   </g>
   <g id="patch_5">
    <path d="M 33.64 260.12 
L 1133.28 260.12 
" style="fill:none;stroke:#000000;stroke-linecap:square;stroke-linejoin:miter;stroke-width:0.8;"/>
   </g>
   <g id="patch_6">
    <path d="M 33.64 14.76 
L 1133.28 14.76 
" style="fill:none;stroke:#000000;stroke-linecap:square;stroke-linejoin:miter;stroke-width:0.8;"/>
   </g>
  </g>
 </g>
 <defs>
  <clipPath id="p5b8b0b19a4">
   <rect height="245.36" width="1099.64" x="33.64" y="14.76"/>
  </clipPath>
 </defs>
</svg>
