<?xml version="1.0" encoding="utf-8" standalone="no"?>
<!DOCTYPE svg PUBLIC "-//W3C//DTD SVG 1.1//EN"
  "http://www.w3.org/Graphics/SVG/1.1/DTD/svg11.dtd">
<!-- Created with matplotlib (https://matplotlib.org/) -->
<svg height="288pt" version="1.1" viewBox="0 0 1152 288" width="1152pt" xmlns="http://www.w3.org/2000/svg" xmlns:xlink="http://www.w3.org/1999/xlink">
 <defs>
  <style type="text/css">
*{stroke-linecap:butt;stroke-linejoin:round;}
  </style>
 </defs>
 <g id="figure_1">
  <g id="patch_1">
   <path d="M 0 288 
L 1152 288 
L 1152 0 
L 0 0 
z
" style="fill:#ffffff;"/>
  </g>
  <g id="axes_1">
   <g id="patch_2">
    <path d="M 33.64 260.12 
L 1133.28 260.12 
L 1133.28 14.76 
L 33.64 14.76 
z
" style="fill:#ffffff;"/>
   </g>
   <g id="matplotlib.axis_1">
    <g id="xtick_1">
     <g id="line2d_1">
      <defs>
       <path d="M 0 0 
L 0 3.5 
" id="mc655ecbd1c" style="stroke:#000000;stroke-width:0.8;"/>
      </defs>
      <g>
       <use style="stroke:#000000;stroke-width:0.8;" x="205.517959" xlink:href="#mc655ecbd1c" y="260.12"/>
      </g>
     </g>
     <g id="text_1">
      <!-- Tue 00:00 -->
      <defs>
       <path d="M -0.296875 72.90625 
L 61.375 72.90625 
L 61.375 64.59375 
L 35.5 64.59375 
L 35.5 0 
L 25.59375 0 
L 25.59375 64.59375 
L -0.296875 64.59375 
z
" id="DejaVuSans-84"/>
       <path d="M 8.5 21.578125 
L 8.5 54.6875 
L 17.484375 54.6875 
L 17.484375 21.921875 
Q 17.484375 14.15625 20.5 10.265625 
Q 23.53125 6.390625 29.59375 6.390625 
Q 36.859375 6.390625 41.078125 11.03125 
Q 45.3125 15.671875 45.3125 23.6875 
L 45.3125 54.6875 
L 54.296875 54.6875 
L 54.296875 0 
L 45.3125 0 
L 45.3125 8.40625 
Q 42.046875 3.421875 37.71875 1 
Q 33.40625 -1.421875 27.6875 -1.421875 
Q 18.265625 -1.421875 13.375 4.4375 
Q 8.5 10.296875 8.5 21.578125 
z
M 31.109375 56 
z
" id="DejaVuSans-117"/>
       <path d="M 56.203125 29.59375 
L 56.203125 25.203125 
L 14.890625 25.203125 
Q 15.484375 15.921875 20.484375 11.0625 
Q 25.484375 6.203125 34.421875 6.203125 
Q 39.59375 6.203125 44.453125 7.46875 
Q 49.3125 8.734375 54.109375 11.28125 
L 54.109375 2.78125 
Q 49.265625 0.734375 44.1875 -0.34375 
Q 39.109375 -1.421875 33.890625 -1.421875 
Q 20.796875 -1.421875 13.15625 6.1875 
Q 5.515625 13.8125 5.515625 26.8125 
Q 5.515625 40.234375 12.765625 48.109375 
Q 20.015625 56 32.328125 56 
Q 43.359375 56 49.78125 48.890625 
Q 56.203125 41.796875 56.203125 29.59375 
z
M 47.21875 32.234375 
Q 47.125 39.59375 43.09375 43.984375 
Q 39.0625 48.390625 32.421875 48.390625 
Q 24.90625 48.390625 20.390625 44.140625 
Q 15.875 39.890625 15.1875 32.171875 
z
" id="DejaVuSans-101"/>
       <path id="DejaVuSans-32"/>
       <path d="M 31.78125 66.40625 
Q 24.171875 66.40625 20.328125 58.90625 
Q 16.5 51.421875 16.5 36.375 
Q 16.5 21.390625 20.328125 13.890625 
Q 24.171875 6.390625 31.78125 6.390625 
Q 39.453125 6.390625 43.28125 13.890625 
Q 47.125 21.390625 47.125 36.375 
Q 47.125 51.421875 43.28125 58.90625 
Q 39.453125 66.40625 31.78125 66.40625 
z
M 31.78125 74.21875 
Q 44.046875 74.21875 50.515625 64.515625 
Q 56.984375 54.828125 56.984375 36.375 
Q 56.984375 17.96875 50.515625 8.265625 
Q 44.046875 -1.421875 31.78125 -1.421875 
Q 19.53125 -1.421875 13.0625 8.265625 
Q 6.59375 17.96875 6.59375 36.375 
Q 6.59375 54.828125 13.0625 64.515625 
Q 19.53125 74.21875 31.78125 74.21875 
z
" id="DejaVuSans-48"/>
       <path d="M 11.71875 12.40625 
L 22.015625 12.40625 
L 22.015625 0 
L 11.71875 0 
z
M 11.71875 51.703125 
L 22.015625 51.703125 
L 22.015625 39.3125 
L 11.71875 39.3125 
z
" id="DejaVuSans-58"/>
      </defs>
      <g transform="translate(180.232021 274.718437)scale(0.1 -0.1)">
       <use xlink:href="#DejaVuSans-84"/>
       <use x="60.849609" xlink:href="#DejaVuSans-117"/>
       <use x="124.228516" xlink:href="#DejaVuSans-101"/>
       <use x="185.751953" xlink:href="#DejaVuSans-32"/>
       <use x="217.539062" xlink:href="#DejaVuSans-48"/>
       <use x="281.162109" xlink:href="#DejaVuSans-48"/>
       <use x="344.785156" xlink:href="#DejaVuSans-58"/>
       <use x="378.476562" xlink:href="#DejaVuSans-48"/>
       <use x="442.099609" xlink:href="#DejaVuSans-48"/>
      </g>
     </g>
    </g>
    <g id="xtick_2">
     <g id="line2d_2">
      <g>
       <use style="stroke:#000000;stroke-width:0.8;" x="377.570319" xlink:href="#mc655ecbd1c" y="260.12"/>
      </g>
     </g>
     <g id="text_2">
      <!-- Wed 00:00 -->
      <defs>
       <path d="M 3.328125 72.90625 
L 13.28125 72.90625 
L 28.609375 11.28125 
L 43.890625 72.90625 
L 54.984375 72.90625 
L 70.3125 11.28125 
L 85.59375 72.90625 
L 95.609375 72.90625 
L 77.296875 0 
L 64.890625 0 
L 49.515625 63.28125 
L 33.984375 0 
L 21.578125 0 
z
" id="DejaVuSans-87"/>
       <path d="M 45.40625 46.390625 
L 45.40625 75.984375 
L 54.390625 75.984375 
L 54.390625 0 
L 45.40625 0 
L 45.40625 8.203125 
Q 42.578125 3.328125 38.25 0.953125 
Q 33.9375 -1.421875 27.875 -1.421875 
Q 17.96875 -1.421875 11.734375 6.484375 
Q 5.515625 14.40625 5.515625 27.296875 
Q 5.515625 40.1875 11.734375 48.09375 
Q 17.96875 56 27.875 56 
Q 33.9375 56 38.25 53.625 
Q 42.578125 51.265625 45.40625 46.390625 
z
M 14.796875 27.296875 
Q 14.796875 17.390625 18.875 11.75 
Q 22.953125 6.109375 30.078125 6.109375 
Q 37.203125 6.109375 41.296875 11.75 
Q 45.40625 17.390625 45.40625 27.296875 
Q 45.40625 37.203125 41.296875 42.84375 
Q 37.203125 48.484375 30.078125 48.484375 
Q 22.953125 48.484375 18.875 42.84375 
Q 14.796875 37.203125 14.796875 27.296875 
z
" id="DejaVuSans-100"/>
      </defs>
      <g transform="translate(350.381256 274.718437)scale(0.1 -0.1)">
       <use xlink:href="#DejaVuSans-87"/>
       <use x="98.798828" xlink:href="#DejaVuSans-101"/>
       <use x="160.322266" xlink:href="#DejaVuSans-100"/>
       <use x="223.798828" xlink:href="#DejaVuSans-32"/>
       <use x="255.585938" xlink:href="#DejaVuSans-48"/>
       <use x="319.208984" xlink:href="#DejaVuSans-48"/>
       <use x="382.832031" xlink:href="#DejaVuSans-58"/>
       <use x="416.523438" xlink:href="#DejaVuSans-48"/>
       <use x="480.146484" xlink:href="#DejaVuSans-48"/>
      </g>
     </g>
    </g>
    <g id="xtick_3">
     <g id="line2d_3">
      <g>
       <use style="stroke:#000000;stroke-width:0.8;" x="549.622679" xlink:href="#mc655ecbd1c" y="260.12"/>
      </g>
     </g>
     <g id="text_3">
      <!-- Thu 00:00 -->
      <defs>
       <path d="M 54.890625 33.015625 
L 54.890625 0 
L 45.90625 0 
L 45.90625 32.71875 
Q 45.90625 40.484375 42.875 44.328125 
Q 39.84375 48.1875 33.796875 48.1875 
Q 26.515625 48.1875 22.3125 43.546875 
Q 18.109375 38.921875 18.109375 30.90625 
L 18.109375 0 
L 9.078125 0 
L 9.078125 75.984375 
L 18.109375 75.984375 
L 18.109375 46.1875 
Q 21.34375 51.125 25.703125 53.5625 
Q 30.078125 56 35.796875 56 
Q 45.21875 56 50.046875 50.171875 
Q 54.890625 44.34375 54.890625 33.015625 
z
" id="DejaVuSans-104"/>
      </defs>
      <g transform="translate(524.232835 274.718437)scale(0.1 -0.1)">
       <use xlink:href="#DejaVuSans-84"/>
       <use x="61.083984" xlink:href="#DejaVuSans-104"/>
       <use x="124.462891" xlink:href="#DejaVuSans-117"/>
       <use x="187.841797" xlink:href="#DejaVuSans-32"/>
       <use x="219.628906" xlink:href="#DejaVuSans-48"/>
       <use x="283.251953" xlink:href="#DejaVuSans-48"/>
       <use x="346.875" xlink:href="#DejaVuSans-58"/>
       <use x="380.566406" xlink:href="#DejaVuSans-48"/>
       <use x="444.189453" xlink:href="#DejaVuSans-48"/>
      </g>
     </g>
    </g>
    <g id="xtick_4">
     <g id="line2d_4">
      <g>
       <use style="stroke:#000000;stroke-width:0.8;" x="721.675039" xlink:href="#mc655ecbd1c" y="260.12"/>
      </g>
     </g>
     <g id="text_4">
      <!-- Fri 00:00 -->
      <defs>
       <path d="M 9.8125 72.90625 
L 51.703125 72.90625 
L 51.703125 64.59375 
L 19.671875 64.59375 
L 19.671875 43.109375 
L 48.578125 43.109375 
L 48.578125 34.8125 
L 19.671875 34.8125 
L 19.671875 0 
L 9.8125 0 
z
" id="DejaVuSans-70"/>
       <path d="M 41.109375 46.296875 
Q 39.59375 47.171875 37.8125 47.578125 
Q 36.03125 48 33.890625 48 
Q 26.265625 48 22.1875 43.046875 
Q 18.109375 38.09375 18.109375 28.8125 
L 18.109375 0 
L 9.078125 0 
L 9.078125 54.6875 
L 18.109375 54.6875 
L 18.109375 46.1875 
Q 20.953125 51.171875 25.484375 53.578125 
Q 30.03125 56 36.53125 56 
Q 37.453125 56 38.578125 55.875 
Q 39.703125 55.765625 41.0625 55.515625 
z
" id="DejaVuSans-114"/>
       <path d="M 9.421875 54.6875 
L 18.40625 54.6875 
L 18.40625 0 
L 9.421875 0 
z
M 9.421875 75.984375 
L 18.40625 75.984375 
L 18.40625 64.59375 
L 9.421875 64.59375 
z
" id="DejaVuSans-105"/>
      </defs>
      <g transform="translate(699.361758 274.718437)scale(0.1 -0.1)">
       <use xlink:href="#DejaVuSans-70"/>
       <use x="57.410156" xlink:href="#DejaVuSans-114"/>
       <use x="98.523438" xlink:href="#DejaVuSans-105"/>
       <use x="126.306641" xlink:href="#DejaVuSans-32"/>
       <use x="158.09375" xlink:href="#DejaVuSans-48"/>
       <use x="221.716797" xlink:href="#DejaVuSans-48"/>
       <use x="285.339844" xlink:href="#DejaVuSans-58"/>
       <use x="319.03125" xlink:href="#DejaVuSans-48"/>
       <use x="382.654297" xlink:href="#DejaVuSans-48"/>
      </g>
     </g>
    </g>
    <g id="xtick_5">
     <g id="line2d_5">
      <g>
       <use style="stroke:#000000;stroke-width:0.8;" x="893.7274" xlink:href="#mc655ecbd1c" y="260.12"/>
      </g>
     </g>
     <g id="text_5">
      <!-- Sat 00:00 -->
      <defs>
       <path d="M 53.515625 70.515625 
L 53.515625 60.890625 
Q 47.90625 63.578125 42.921875 64.890625 
Q 37.9375 66.21875 33.296875 66.21875 
Q 25.25 66.21875 20.875 63.09375 
Q 16.5 59.96875 16.5 54.203125 
Q 16.5 49.359375 19.40625 46.890625 
Q 22.3125 44.4375 30.421875 42.921875 
L 36.375 41.703125 
Q 47.40625 39.59375 52.65625 34.296875 
Q 57.90625 29 57.90625 20.125 
Q 57.90625 9.515625 50.796875 4.046875 
Q 43.703125 -1.421875 29.984375 -1.421875 
Q 24.8125 -1.421875 18.96875 -0.25 
Q 13.140625 0.921875 6.890625 3.21875 
L 6.890625 13.375 
Q 12.890625 10.015625 18.65625 8.296875 
Q 24.421875 6.59375 29.984375 6.59375 
Q 38.421875 6.59375 43.015625 9.90625 
Q 47.609375 13.234375 47.609375 19.390625 
Q 47.609375 24.75 44.3125 27.78125 
Q 41.015625 30.8125 33.5 32.328125 
L 27.484375 33.5 
Q 16.453125 35.6875 11.515625 40.375 
Q 6.59375 45.0625 6.59375 53.421875 
Q 6.59375 63.09375 13.40625 68.65625 
Q 20.21875 74.21875 32.171875 74.21875 
Q 37.3125 74.21875 42.625 73.28125 
Q 47.953125 72.359375 53.515625 70.515625 
z
" id="DejaVuSans-83"/>
       <path d="M 34.28125 27.484375 
Q 23.390625 27.484375 19.1875 25 
Q 14.984375 22.515625 14.984375 16.5 
Q 14.984375 11.71875 18.140625 8.90625 
Q 21.296875 6.109375 26.703125 6.109375 
Q 34.1875 6.109375 38.703125 11.40625 
Q 43.21875 16.703125 43.21875 25.484375 
L 43.21875 27.484375 
z
M 52.203125 31.203125 
L 52.203125 0 
L 43.21875 0 
L 43.21875 8.296875 
Q 40.140625 3.328125 35.546875 0.953125 
Q 30.953125 -1.421875 24.3125 -1.421875 
Q 15.921875 -1.421875 10.953125 3.296875 
Q 6 8.015625 6 15.921875 
Q 6 25.140625 12.171875 29.828125 
Q 18.359375 34.515625 30.609375 34.515625 
L 43.21875 34.515625 
L 43.21875 35.40625 
Q 43.21875 41.609375 39.140625 45 
Q 35.0625 48.390625 27.6875 48.390625 
Q 23 48.390625 18.546875 47.265625 
Q 14.109375 46.140625 10.015625 43.890625 
L 10.015625 52.203125 
Q 14.9375 54.109375 19.578125 55.046875 
Q 24.21875 56 28.609375 56 
Q 40.484375 56 46.34375 49.84375 
Q 52.203125 43.703125 52.203125 31.203125 
z
" id="DejaVuSans-97"/>
       <path d="M 18.3125 70.21875 
L 18.3125 54.6875 
L 36.8125 54.6875 
L 36.8125 47.703125 
L 18.3125 47.703125 
L 18.3125 18.015625 
Q 18.3125 11.328125 20.140625 9.421875 
Q 21.96875 7.515625 27.59375 7.515625 
L 36.8125 7.515625 
L 36.8125 0 
L 27.59375 0 
Q 17.1875 0 13.234375 3.875 
Q 9.28125 7.765625 9.28125 18.015625 
L 9.28125 47.703125 
L 2.6875 47.703125 
L 2.6875 54.6875 
L 9.28125 54.6875 
L 9.28125 70.21875 
z
" id="DejaVuSans-116"/>
      </defs>
      <g transform="translate(869.530525 274.718437)scale(0.1 -0.1)">
       <use xlink:href="#DejaVuSans-83"/>
       <use x="63.476562" xlink:href="#DejaVuSans-97"/>
       <use x="124.755859" xlink:href="#DejaVuSans-116"/>
       <use x="163.964844" xlink:href="#DejaVuSans-32"/>
       <use x="195.751953" xlink:href="#DejaVuSans-48"/>
       <use x="259.375" xlink:href="#DejaVuSans-48"/>
       <use x="322.998047" xlink:href="#DejaVuSans-58"/>
       <use x="356.689453" xlink:href="#DejaVuSans-48"/>
       <use x="420.3125" xlink:href="#DejaVuSans-48"/>
      </g>
     </g>
    </g>
    <g id="xtick_6">
     <g id="line2d_6">
      <g>
       <use style="stroke:#000000;stroke-width:0.8;" x="1065.77976" xlink:href="#mc655ecbd1c" y="260.12"/>
      </g>
     </g>
     <g id="text_6">
      <!-- Sun 00:00 -->
      <defs>
       <path d="M 54.890625 33.015625 
L 54.890625 0 
L 45.90625 0 
L 45.90625 32.71875 
Q 45.90625 40.484375 42.875 44.328125 
Q 39.84375 48.1875 33.796875 48.1875 
Q 26.515625 48.1875 22.3125 43.546875 
Q 18.109375 38.921875 18.109375 30.90625 
L 18.109375 0 
L 9.078125 0 
L 9.078125 54.6875 
L 18.109375 54.6875 
L 18.109375 46.1875 
Q 21.34375 51.125 25.703125 53.5625 
Q 30.078125 56 35.796875 56 
Q 45.21875 56 50.046875 50.171875 
Q 54.890625 44.34375 54.890625 33.015625 
z
" id="DejaVuSans-110"/>
      </defs>
      <g transform="translate(1040.269604 274.718437)scale(0.1 -0.1)">
       <use xlink:href="#DejaVuSans-83"/>
       <use x="63.476562" xlink:href="#DejaVuSans-117"/>
       <use x="126.855469" xlink:href="#DejaVuSans-110"/>
       <use x="190.234375" xlink:href="#DejaVuSans-32"/>
       <use x="222.021484" xlink:href="#DejaVuSans-48"/>
       <use x="285.644531" xlink:href="#DejaVuSans-48"/>
       <use x="349.267578" xlink:href="#DejaVuSans-58"/>
       <use x="382.958984" xlink:href="#DejaVuSans-48"/>
       <use x="446.582031" xlink:href="#DejaVuSans-48"/>
      </g>
     </g>
    </g>
   </g>
   <g id="matplotlib.axis_2">
    <g id="ytick_1">
     <g id="line2d_7">
      <defs>
       <path d="M 0 0 
L -3.5 0 
" id="m5f43d96c92" style="stroke:#000000;stroke-width:0.8;"/>
      </defs>
      <g>
       <use style="stroke:#000000;stroke-width:0.8;" x="33.64" xlink:href="#m5f43d96c92" y="260.12"/>
      </g>
     </g>
     <g id="text_7">
      <!-- 0 -->
      <g transform="translate(20.2775 263.919219)scale(0.1 -0.1)">
       <use xlink:href="#DejaVuSans-48"/>
      </g>
     </g>
    </g>
    <g id="ytick_2">
     <g id="line2d_8">
      <g>
       <use style="stroke:#000000;stroke-width:0.8;" x="33.64" xlink:href="#m5f43d96c92" y="230.910476"/>
      </g>
     </g>
     <g id="text_8">
      <!-- 25 -->
      <defs>
       <path d="M 19.1875 8.296875 
L 53.609375 8.296875 
L 53.609375 0 
L 7.328125 0 
L 7.328125 8.296875 
Q 12.9375 14.109375 22.625 23.890625 
Q 32.328125 33.6875 34.8125 36.53125 
Q 39.546875 41.84375 41.421875 45.53125 
Q 43.3125 49.21875 43.3125 52.78125 
Q 43.3125 58.59375 39.234375 62.25 
Q 35.15625 65.921875 28.609375 65.921875 
Q 23.96875 65.921875 18.8125 64.3125 
Q 13.671875 62.703125 7.8125 59.421875 
L 7.8125 69.390625 
Q 13.765625 71.78125 18.9375 73 
Q 24.125 74.21875 28.421875 74.21875 
Q 39.75 74.21875 46.484375 68.546875 
Q 53.21875 62.890625 53.21875 53.421875 
Q 53.21875 48.921875 51.53125 44.890625 
Q 49.859375 40.875 45.40625 35.40625 
Q 44.1875 33.984375 37.640625 27.21875 
Q 31.109375 20.453125 19.1875 8.296875 
z
" id="DejaVuSans-50"/>
       <path d="M 10.796875 72.90625 
L 49.515625 72.90625 
L 49.515625 64.59375 
L 19.828125 64.59375 
L 19.828125 46.734375 
Q 21.96875 47.46875 24.109375 47.828125 
Q 26.265625 48.1875 28.421875 48.1875 
Q 40.625 48.1875 47.75 41.5 
Q 54.890625 34.8125 54.890625 23.390625 
Q 54.890625 11.625 47.5625 5.09375 
Q 40.234375 -1.421875 26.90625 -1.421875 
Q 22.3125 -1.421875 17.546875 -0.640625 
Q 12.796875 0.140625 7.71875 1.703125 
L 7.71875 11.625 
Q 12.109375 9.234375 16.796875 8.0625 
Q 21.484375 6.890625 26.703125 6.890625 
Q 35.15625 6.890625 40.078125 11.328125 
Q 45.015625 15.765625 45.015625 23.390625 
Q 45.015625 31 40.078125 35.4375 
Q 35.15625 39.890625 26.703125 39.890625 
Q 22.75 39.890625 18.8125 39.015625 
Q 14.890625 38.140625 10.796875 36.28125 
z
" id="DejaVuSans-53"/>
      </defs>
      <g transform="translate(13.915 234.709695)scale(0.1 -0.1)">
       <use xlink:href="#DejaVuSans-50"/>
       <use x="63.623047" xlink:href="#DejaVuSans-53"/>
      </g>
     </g>
    </g>
    <g id="ytick_3">
     <g id="line2d_9">
      <g>
       <use style="stroke:#000000;stroke-width:0.8;" x="33.64" xlink:href="#m5f43d96c92" y="201.700952"/>
      </g>
     </g>
     <g id="text_9">
      <!-- 50 -->
      <g transform="translate(13.915 205.500171)scale(0.1 -0.1)">
       <use xlink:href="#DejaVuSans-53"/>
       <use x="63.623047" xlink:href="#DejaVuSans-48"/>
      </g>
     </g>
    </g>
    <g id="ytick_4">
     <g id="line2d_10">
      <g>
       <use style="stroke:#000000;stroke-width:0.8;" x="33.64" xlink:href="#m5f43d96c92" y="172.491429"/>
      </g>
     </g>
     <g id="text_10">
      <!-- 75 -->
      <defs>
       <path d="M 8.203125 72.90625 
L 55.078125 72.90625 
L 55.078125 68.703125 
L 28.609375 0 
L 18.3125 0 
L 43.21875 64.59375 
L 8.203125 64.59375 
z
" id="DejaVuSans-55"/>
      </defs>
      <g transform="translate(13.915 176.290647)scale(0.1 -0.1)">
       <use xlink:href="#DejaVuSans-55"/>
       <use x="63.623047" xlink:href="#DejaVuSans-53"/>
      </g>
     </g>
    </g>
    <g id="ytick_5">
     <g id="line2d_11">
      <g>
       <use style="stroke:#000000;stroke-width:0.8;" x="33.64" xlink:href="#m5f43d96c92" y="143.281905"/>
      </g>
     </g>
     <g id="text_11">
      <!-- 100 -->
      <defs>
       <path d="M 12.40625 8.296875 
L 28.515625 8.296875 
L 28.515625 63.921875 
L 10.984375 60.40625 
L 10.984375 69.390625 
L 28.421875 72.90625 
L 38.28125 72.90625 
L 38.28125 8.296875 
L 54.390625 8.296875 
L 54.390625 0 
L 12.40625 0 
z
" id="DejaVuSans-49"/>
      </defs>
      <g transform="translate(7.5525 147.081124)scale(0.1 -0.1)">
       <use xlink:href="#DejaVuSans-49"/>
       <use x="63.623047" xlink:href="#DejaVuSans-48"/>
       <use x="127.246094" xlink:href="#DejaVuSans-48"/>
      </g>
     </g>
    </g>
    <g id="ytick_6">
     <g id="line2d_12">
      <g>
       <use style="stroke:#000000;stroke-width:0.8;" x="33.64" xlink:href="#m5f43d96c92" y="114.072381"/>
      </g>
     </g>
     <g id="text_12">
      <!-- 125 -->
      <g transform="translate(7.5525 117.8716)scale(0.1 -0.1)">
       <use xlink:href="#DejaVuSans-49"/>
       <use x="63.623047" xlink:href="#DejaVuSans-50"/>
       <use x="127.246094" xlink:href="#DejaVuSans-53"/>
      </g>
     </g>
    </g>
    <g id="ytick_7">
     <g id="line2d_13">
      <g>
       <use style="stroke:#000000;stroke-width:0.8;" x="33.64" xlink:href="#m5f43d96c92" y="84.862857"/>
      </g>
     </g>
     <g id="text_13">
      <!-- 150 -->
      <g transform="translate(7.5525 88.662076)scale(0.1 -0.1)">
       <use xlink:href="#DejaVuSans-49"/>
       <use x="63.623047" xlink:href="#DejaVuSans-53"/>
       <use x="127.246094" xlink:href="#DejaVuSans-48"/>
      </g>
     </g>
    </g>
    <g id="ytick_8">
     <g id="line2d_14">
      <g>
       <use style="stroke:#000000;stroke-width:0.8;" x="33.64" xlink:href="#m5f43d96c92" y="55.653333"/>
      </g>
     </g>
     <g id="text_14">
      <!-- 175 -->
      <g transform="translate(7.5525 59.452552)scale(0.1 -0.1)">
       <use xlink:href="#DejaVuSans-49"/>
       <use x="63.623047" xlink:href="#DejaVuSans-55"/>
       <use x="127.246094" xlink:href="#DejaVuSans-53"/>
      </g>
     </g>
    </g>
    <g id="ytick_9">
     <g id="line2d_15">
      <g>
       <use style="stroke:#000000;stroke-width:0.8;" x="33.64" xlink:href="#m5f43d96c92" y="26.44381"/>
      </g>
     </g>
     <g id="text_15">
      <!-- 200 -->
      <g transform="translate(7.5525 30.243028)scale(0.1 -0.1)">
       <use xlink:href="#DejaVuSans-50"/>
       <use x="63.623047" xlink:href="#DejaVuSans-48"/>
       <use x="127.246094" xlink:href="#DejaVuSans-48"/>
      </g>
     </g>
    </g>
   </g>
   <g id="line2d_16">
    <path clip-path="url(#pfdf657bc26)" d="M 33.64 260.12 
L 98.923814 260.12 
L 100.153822 257.783238 
L 101.384617 257.783238 
L 102.61549 254.278095 
L 103.846199 254.278095 
L 106.305078 249.604571 
L 107.535262 248.43619 
L 108.764219 248.43619 
L 109.993548 247.26781 
L 112.452795 247.26781 
L 113.682781 242.594286 
L 114.912279 236.752381 
L 116.141259 236.752381 
L 117.371041 229.742095 
L 118.602504 226.236952 
L 119.831887 226.236952 
L 121.061494 222.73181 
L 124.74898 222.73181 
L 125.978026 219.226667 
L 127.20657 218.058286 
L 129.666065 218.058286 
L 130.895284 223.90019 
L 132.124633 223.90019 
L 133.355655 229.742095 
L 134.584546 227.405333 
L 135.81447 227.405333 
L 137.04352 232.078857 
L 138.272511 233.247238 
L 139.502473 236.752381 
L 140.732034 236.752381 
L 141.963153 234.415619 
L 143.191261 234.415619 
L 144.42056 230.910476 
L 146.877972 216.889905 
L 148.106496 216.889905 
L 149.335527 212.216381 
L 150.565322 208.711238 
L 151.796059 208.711238 
L 153.024838 197.027429 
L 154.259058 192.353905 
L 155.492643 186.512 
L 156.721285 186.512 
L 157.951039 187.680381 
L 159.179883 187.680381 
L 160.409549 181.838476 
L 161.638848 164.312762 
L 162.867334 164.312762 
L 164.096626 150.29219 
L 165.326501 139.776762 
L 166.55652 116.409143 
L 167.785384 116.409143 
L 169.014024 89.536381 
L 170.245076 89.536381 
L 171.473752 67.337143 
L 172.702447 53.316571 
L 173.930739 47.474667 
L 175.159335 47.474667 
L 176.388265 54.484952 
L 177.616768 59.158476 
L 178.846351 59.158476 
L 180.076171 76.68419 
L 181.304343 74.347429 
L 182.535454 74.347429 
L 183.765472 79.020952 
L 184.99384 81.357714 
L 186.22437 93.041524 
L 187.452784 93.041524 
L 188.681465 100.05181 
L 189.910009 109.398857 
L 191.137968 109.398857 
L 192.367167 122.251048 
L 193.595688 128.092952 
L 194.82646 128.092952 
L 196.054431 129.261333 
L 197.283241 132.766476 
L 198.511953 139.776762 
L 199.739689 139.776762 
L 200.967181 260.12 
L 269.958869 260.12 
L 271.167905 258.951619 
L 272.400197 243.762667 
L 273.631909 243.762667 
L 274.863339 240.257524 
L 276.092595 235.584 
L 278.555119 235.584 
L 279.78429 232.078857 
L 281.013266 232.078857 
L 282.242892 227.405333 
L 283.472541 223.90019 
L 284.700713 223.90019 
L 285.93141 222.73181 
L 288.388754 222.73181 
L 289.617858 225.068571 
L 290.849467 218.058286 
L 292.080777 219.226667 
L 293.309035 219.226667 
L 294.538547 216.889905 
L 295.768197 218.058286 
L 296.998015 218.058286 
L 298.226644 221.563429 
L 299.454967 219.226667 
L 300.684492 219.226667 
L 301.914906 214.553143 
L 303.143406 218.058286 
L 304.371554 218.058286 
L 305.599798 213.384762 
L 306.830917 212.216381 
L 308.061845 208.711238 
L 309.291781 208.711238 
L 311.748964 201.700952 
L 312.97971 201.700952 
L 314.210481 204.037714 
L 316.676421 204.037714 
L 317.904522 200.532571 
L 320.364306 200.532571 
L 321.59523 197.027429 
L 322.824468 187.680381 
L 324.0533 187.680381 
L 325.281605 184.175238 
L 326.510834 178.333333 
L 327.739954 178.333333 
L 328.971062 171.323048 
L 330.200385 156.134095 
L 331.43 128.092952 
L 332.662507 128.092952 
L 333.896486 116.409143 
L 336.354182 116.409143 
L 337.586908 98.883429 
L 338.816249 98.883429 
L 340.044906 79.020952 
L 341.273411 67.337143 
L 342.502108 49.811429 
L 343.730873 49.811429 
L 344.961201 38.127619 
L 348.647158 38.127619 
L 349.878612 26.44381 
L 351.109905 26.44381 
L 352.338263 48.643048 
L 353.567544 60.326857 
L 354.796406 74.347429 
L 356.027894 74.347429 
L 358.484949 110.567238 
L 359.716768 110.567238 
L 360.945312 125.75619 
L 362.174232 137.44 
L 363.402618 151.460571 
L 364.634628 151.460571 
L 365.863503 161.976 
L 367.093117 161.976 
L 368.325333 166.649524 
L 369.553644 174.82819 
L 370.783205 175.996571 
L 373.241829 175.996571 
L 374.46985 260.12 
L 442.231537 260.12 
L 443.460025 255.446476 
L 445.91853 241.425905 
L 447.149434 241.425905 
L 448.378574 240.257524 
L 450.840457 240.257524 
L 452.069281 239.089143 
L 453.298201 239.089143 
L 454.529072 232.078857 
L 455.75953 232.078857 
L 456.988782 228.573714 
L 458.21958 228.573714 
L 459.449303 226.236952 
L 460.679737 225.068571 
L 465.599245 225.068571 
L 466.833758 226.236952 
L 469.291011 226.236952 
L 470.519772 223.90019 
L 471.750187 216.889905 
L 472.978815 219.226667 
L 474.210094 219.226667 
L 475.441059 221.563429 
L 476.669674 221.563429 
L 479.127747 214.553143 
L 480.358939 212.216381 
L 481.589862 212.216381 
L 482.818375 208.711238 
L 484.048921 206.374476 
L 485.279961 206.374476 
L 486.50905 209.879619 
L 487.739511 207.542857 
L 488.969922 206.374476 
L 490.201338 206.374476 
L 491.433123 205.206095 
L 492.662328 205.206095 
L 493.891743 198.19581 
L 495.122084 190.017143 
L 496.354304 190.017143 
L 497.585549 184.175238 
L 498.816135 171.323048 
L 500.044665 170.154667 
L 501.277527 170.154667 
L 502.508802 159.639238 
L 503.740077 159.639238 
L 504.969905 156.134095 
L 506.200774 153.797333 
L 507.432217 129.261333 
L 508.672134 129.261333 
L 509.90161 123.419429 
L 511.13083 115.240762 
L 512.361289 115.240762 
L 513.590913 98.883429 
L 514.819933 96.546667 
L 516.049513 96.546667 
L 517.279509 108.230476 
L 518.512845 101.22019 
L 519.740973 101.22019 
L 520.969347 96.546667 
L 522.200826 89.536381 
L 523.435096 95.378286 
L 524.666806 95.378286 
L 525.897553 94.209905 
L 527.129268 119.914286 
L 528.359994 119.914286 
L 529.588279 125.75619 
L 530.819157 144.450286 
L 532.050141 146.787048 
L 533.280807 146.787048 
L 534.511606 156.134095 
L 535.739716 156.134095 
L 536.970849 165.481143 
L 538.202277 171.323048 
L 539.430772 173.65981 
L 540.662364 173.65981 
L 541.893418 180.670095 
L 543.121362 181.838476 
L 545.583691 181.838476 
L 546.814896 260.12 
L 615.814737 260.12 
L 617.043042 256.614857 
L 618.27106 248.43619 
L 619.499617 248.43619 
L 620.73062 244.931048 
L 621.959626 242.594286 
L 623.188657 242.594286 
L 625.649033 235.584 
L 626.879174 230.910476 
L 628.110645 230.910476 
L 629.339334 229.742095 
L 630.568692 229.742095 
L 631.797298 226.236952 
L 633.028785 223.90019 
L 634.258253 223.90019 
L 636.717443 221.563429 
L 637.946737 225.068571 
L 639.177187 225.068571 
L 640.406331 222.73181 
L 641.636273 219.226667 
L 642.865879 219.226667 
L 644.095562 211.048 
L 645.325035 211.048 
L 646.554202 212.216381 
L 650.244141 212.216381 
L 651.47476 205.206095 
L 653.933594 205.206095 
L 655.164026 197.027429 
L 656.394451 194.690667 
L 657.625264 199.36419 
L 658.855935 199.36419 
L 660.092191 195.859048 
L 661.321559 195.859048 
L 662.550401 191.185524 
L 663.780192 184.175238 
L 665.009631 175.996571 
L 666.240202 175.996571 
L 667.469932 167.817905 
L 668.701251 161.976 
L 669.931834 161.976 
L 671.163196 157.302476 
L 672.394448 143.281905 
L 673.626942 143.281905 
L 674.858207 138.608381 
L 676.088878 128.092952 
L 677.319687 114.072381 
L 678.549308 114.072381 
L 679.778305 98.883429 
L 681.007067 104.725333 
L 682.236341 104.725333 
L 683.46638 86.031238 
L 684.69541 86.031238 
L 685.92996 70.842286 
L 687.159724 59.158476 
L 688.389766 46.306286 
L 689.621255 46.306286 
L 690.853 28.780571 
L 692.083706 32.285714 
L 693.312771 32.285714 
L 694.54284 38.127619 
L 695.770902 31.117333 
L 696.999531 31.117333 
L 698.22801 41.632762 
L 699.457579 54.484952 
L 700.686595 62.663619 
L 701.915486 62.663619 
L 703.143644 76.68419 
L 704.377282 96.546667 
L 705.605585 96.546667 
L 706.836268 105.893714 
L 708.066935 121.082667 
L 709.295613 121.082667 
L 710.524515 126.924571 
L 711.755079 144.450286 
L 712.98572 144.450286 
L 714.214109 152.628952 
L 715.442969 158.470857 
L 717.902928 158.470857 
L 719.131572 260.12 
L 785.691188 260.12 
L 786.900156 256.614857 
L 788.129386 256.614857 
L 789.358453 254.278095 
L 790.586946 249.604571 
L 791.815791 247.26781 
L 793.047072 247.26781 
L 794.277012 242.594286 
L 795.50637 233.247238 
L 796.736375 233.247238 
L 797.965027 227.405333 
L 799.19316 227.405333 
L 800.421563 223.90019 
L 801.652964 223.90019 
L 802.881385 216.889905 
L 804.110267 216.889905 
L 805.339304 213.384762 
L 806.567777 215.721524 
L 807.796798 215.721524 
L 809.025792 216.889905 
L 810.254811 220.395048 
L 812.718084 220.395048 
L 813.946622 221.563429 
L 815.17538 221.563429 
L 816.404218 219.226667 
L 817.633286 225.068571 
L 820.08976 225.068571 
L 821.317984 220.395048 
L 822.547703 222.73181 
L 823.778327 222.73181 
L 825.008001 220.395048 
L 826.238968 220.395048 
L 827.468325 218.058286 
L 828.696829 206.374476 
L 829.925493 202.869333 
L 831.155503 202.869333 
L 832.383523 194.690667 
L 833.612714 187.680381 
L 834.840941 187.680381 
L 836.07231 181.838476 
L 837.305768 171.323048 
L 838.53595 164.312762 
L 839.768314 164.312762 
L 840.996584 158.470857 
L 842.225134 158.470857 
L 843.457497 153.797333 
L 844.686797 147.955429 
L 845.916727 145.618667 
L 847.148739 145.618667 
L 848.378463 137.44 
L 849.607738 150.29219 
L 850.836499 150.29219 
L 852.071212 161.976 
L 853.300092 160.807619 
L 854.528371 160.807619 
L 855.757077 150.29219 
L 856.986016 144.450286 
L 858.216606 144.450286 
L 859.446014 135.103238 
L 860.675006 126.924571 
L 861.905856 126.924571 
L 863.134776 125.75619 
L 864.364286 128.092952 
L 865.596965 125.75619 
L 866.837252 125.75619 
L 868.07001 130.429714 
L 869.303481 131.598095 
L 870.537568 131.598095 
L 871.7806 143.281905 
L 874.248921 143.281905 
L 875.483036 151.460571 
L 876.712754 158.470857 
L 877.94761 160.807619 
L 879.177799 160.807619 
L 880.409414 166.649524 
L 881.638907 166.649524 
L 882.870163 179.501714 
L 884.099792 185.343619 
L 885.329165 187.680381 
L 886.55756 187.680381 
L 887.788151 193.522286 
L 890.246842 193.522286 
L 891.486818 260.12 
L 958.034633 260.12 
L 959.243179 253.109714 
L 960.472293 251.941333 
L 961.702419 251.941333 
L 962.932662 241.425905 
L 964.160576 235.584 
L 965.388648 235.584 
L 966.617095 233.247238 
L 967.844956 233.247238 
L 969.072852 220.395048 
L 970.302777 209.879619 
L 971.530743 207.542857 
L 972.759071 207.542857 
L 975.215355 193.522286 
L 976.442982 193.522286 
L 978.901921 186.512 
L 980.129959 187.680381 
L 981.69102 187.680381 
L 982.920113 195.859048 
L 984.151513 199.36419 
L 985.379544 199.36419 
L 986.610018 200.532571 
L 987.84275 200.532571 
L 989.071226 187.680381 
L 990.299311 187.680381 
L 991.527427 180.670095 
L 992.756143 180.670095 
L 993.985269 175.996571 
L 995.213025 177.164952 
L 996.44232 177.164952 
L 997.672773 187.680381 
L 998.900845 186.512 
L 1000.129239 180.670095 
L 1001.357403 180.670095 
L 1002.585899 181.838476 
L 1003.813775 173.65981 
L 1005.041902 173.65981 
L 1006.270926 185.343619 
L 1007.500731 198.19581 
L 1008.728765 198.19581 
L 1011.18787 205.206095 
L 1012.417691 205.206095 
L 1013.647879 204.037714 
L 1014.878094 205.206095 
L 1016.108855 201.700952 
L 1017.339904 201.700952 
L 1018.57048 202.869333 
L 1019.801109 211.048 
L 1021.031546 211.048 
L 1022.260797 214.553143 
L 1023.490113 215.721524 
L 1024.720809 215.721524 
L 1027.182332 208.711238 
L 1028.413471 208.711238 
L 1029.644142 204.037714 
L 1030.875064 205.206095 
L 1032.105788 205.206095 
L 1033.337464 227.405333 
L 1034.568096 216.889905 
L 1035.797905 214.553143 
L 1037.026608 214.553143 
L 1038.255833 216.889905 
L 1041.94491 216.889905 
L 1043.17417 215.721524 
L 1044.406177 215.721524 
L 1045.634422 218.058286 
L 1049.324393 218.058286 
L 1050.554948 222.73181 
L 1051.784524 222.73181 
L 1054.24601 234.415619 
L 1055.476687 234.415619 
L 1056.707858 235.584 
L 1060.396556 235.584 
L 1061.627274 239.089143 
L 1065.319028 239.089143 
L 1066.549365 260.12 
L 1132.051342 260.12 
L 1133.28 246.099429 
L 1133.28 246.099429 
" style="fill:none;stroke:#1f77b4;stroke-linecap:square;stroke-width:1.5;"/>
   </g>
   <g id="patch_3">
    <path d="M 33.64 260.12 
L 33.64 14.76 
" style="fill:none;stroke:#000000;stroke-linecap:square;stroke-linejoin:miter;stroke-width:0.8;"/>
   </g>
   <g id="patch_4">
    <path d="M 1133.28 260.12 
L 1133.28 14.76 
" style="fill:none;stroke:#000000;stroke-linecap:square;stroke-linejoin:miter;stroke-width:0.8;"/>
   </g>
   <g id="patch_5">
    <path d="M 33.64 260.12 
L 1133.28 260.12 
" style="fill:none;stroke:#000000;stroke-linecap:square;stroke-linejoin:miter;stroke-width:0.8;"/>
   </g>
   <g id="patch_6">
    <path d="M 33.64 14.76 
L 1133.28 14.76 
" style="fill:none;stroke:#000000;stroke-linecap:square;stroke-linejoin:miter;stroke-width:0.8;"/>
   </g>
  </g>
 </g>
 <defs>
  <clipPath id="pfdf657bc26">
   <rect height="245.36" width="1099.64" x="33.64" y="14.76"/>
  </clipPath>
 </defs>
</svg>
