<?xml version="1.0" encoding="utf-8" standalone="no"?>
<!DOCTYPE svg PUBLIC "-//W3C//DTD SVG 1.1//EN"
  "http://www.w3.org/Graphics/SVG/1.1/DTD/svg11.dtd">
<!-- Created with matplotlib (https://matplotlib.org/) -->
<svg height="288pt" version="1.1" viewBox="0 0 1152 288" width="1152pt" xmlns="http://www.w3.org/2000/svg" xmlns:xlink="http://www.w3.org/1999/xlink">
 <defs>
  <style type="text/css">
*{stroke-linecap:butt;stroke-linejoin:round;}
  </style>
 </defs>
 <g id="figure_1">
  <g id="patch_1">
   <path d="M 0 288 
L 1152 288 
L 1152 0 
L 0 0 
z
" style="fill:#ffffff;"/>
  </g>
  <g id="axes_1">
   <g id="patch_2">
    <path d="M 33.64 260.12 
L 1133.28 260.12 
L 1133.28 14.76 
L 33.64 14.76 
z
" style="fill:#ffffff;"/>
   </g>
   <g id="matplotlib.axis_1">
    <g id="xtick_1">
     <g id="line2d_1">
      <defs>
       <path d="M 0 0 
L 0 3.5 
" id="m201909a00f" style="stroke:#000000;stroke-width:0.8;"/>
      </defs>
      <g>
       <use style="stroke:#000000;stroke-width:0.8;" x="236.348932" xlink:href="#m201909a00f" y="260.12"/>
      </g>
     </g>
     <g id="text_1">
      <!-- Tue 00:00 -->
      <defs>
       <path d="M -0.296875 72.90625 
L 61.375 72.90625 
L 61.375 64.59375 
L 35.5 64.59375 
L 35.5 0 
L 25.59375 0 
L 25.59375 64.59375 
L -0.296875 64.59375 
z
" id="DejaVuSans-84"/>
       <path d="M 8.5 21.578125 
L 8.5 54.6875 
L 17.484375 54.6875 
L 17.484375 21.921875 
Q 17.484375 14.15625 20.5 10.265625 
Q 23.53125 6.390625 29.59375 6.390625 
Q 36.859375 6.390625 41.078125 11.03125 
Q 45.3125 15.671875 45.3125 23.6875 
L 45.3125 54.6875 
L 54.296875 54.6875 
L 54.296875 0 
L 45.3125 0 
L 45.3125 8.40625 
Q 42.046875 3.421875 37.71875 1 
Q 33.40625 -1.421875 27.6875 -1.421875 
Q 18.265625 -1.421875 13.375 4.4375 
Q 8.5 10.296875 8.5 21.578125 
z
M 31.109375 56 
z
" id="DejaVuSans-117"/>
       <path d="M 56.203125 29.59375 
L 56.203125 25.203125 
L 14.890625 25.203125 
Q 15.484375 15.921875 20.484375 11.0625 
Q 25.484375 6.203125 34.421875 6.203125 
Q 39.59375 6.203125 44.453125 7.46875 
Q 49.3125 8.734375 54.109375 11.28125 
L 54.109375 2.78125 
Q 49.265625 0.734375 44.1875 -0.34375 
Q 39.109375 -1.421875 33.890625 -1.421875 
Q 20.796875 -1.421875 13.15625 6.1875 
Q 5.515625 13.8125 5.515625 26.8125 
Q 5.515625 40.234375 12.765625 48.109375 
Q 20.015625 56 32.328125 56 
Q 43.359375 56 49.78125 48.890625 
Q 56.203125 41.796875 56.203125 29.59375 
z
M 47.21875 32.234375 
Q 47.125 39.59375 43.09375 43.984375 
Q 39.0625 48.390625 32.421875 48.390625 
Q 24.90625 48.390625 20.390625 44.140625 
Q 15.875 39.890625 15.1875 32.171875 
z
" id="DejaVuSans-101"/>
       <path id="DejaVuSans-32"/>
       <path d="M 31.78125 66.40625 
Q 24.171875 66.40625 20.328125 58.90625 
Q 16.5 51.421875 16.5 36.375 
Q 16.5 21.390625 20.328125 13.890625 
Q 24.171875 6.390625 31.78125 6.390625 
Q 39.453125 6.390625 43.28125 13.890625 
Q 47.125 21.390625 47.125 36.375 
Q 47.125 51.421875 43.28125 58.90625 
Q 39.453125 66.40625 31.78125 66.40625 
z
M 31.78125 74.21875 
Q 44.046875 74.21875 50.515625 64.515625 
Q 56.984375 54.828125 56.984375 36.375 
Q 56.984375 17.96875 50.515625 8.265625 
Q 44.046875 -1.421875 31.78125 -1.421875 
Q 19.53125 -1.421875 13.0625 8.265625 
Q 6.59375 17.96875 6.59375 36.375 
Q 6.59375 54.828125 13.0625 64.515625 
Q 19.53125 74.21875 31.78125 74.21875 
z
" id="DejaVuSans-48"/>
       <path d="M 11.71875 12.40625 
L 22.015625 12.40625 
L 22.015625 0 
L 11.71875 0 
z
M 11.71875 51.703125 
L 22.015625 51.703125 
L 22.015625 39.3125 
L 11.71875 39.3125 
z
" id="DejaVuSans-58"/>
      </defs>
      <g transform="translate(211.062994 274.718437)scale(0.1 -0.1)">
       <use xlink:href="#DejaVuSans-84"/>
       <use x="60.849609" xlink:href="#DejaVuSans-117"/>
       <use x="124.228516" xlink:href="#DejaVuSans-101"/>
       <use x="185.751953" xlink:href="#DejaVuSans-32"/>
       <use x="217.539062" xlink:href="#DejaVuSans-48"/>
       <use x="281.162109" xlink:href="#DejaVuSans-48"/>
       <use x="344.785156" xlink:href="#DejaVuSans-58"/>
       <use x="378.476562" xlink:href="#DejaVuSans-48"/>
       <use x="442.099609" xlink:href="#DejaVuSans-48"/>
      </g>
     </g>
    </g>
    <g id="xtick_2">
     <g id="line2d_2">
      <g>
       <use style="stroke:#000000;stroke-width:0.8;" x="439.148646" xlink:href="#m201909a00f" y="260.12"/>
      </g>
     </g>
     <g id="text_2">
      <!-- Wed 00:00 -->
      <defs>
       <path d="M 3.328125 72.90625 
L 13.28125 72.90625 
L 28.609375 11.28125 
L 43.890625 72.90625 
L 54.984375 72.90625 
L 70.3125 11.28125 
L 85.59375 72.90625 
L 95.609375 72.90625 
L 77.296875 0 
L 64.890625 0 
L 49.515625 63.28125 
L 33.984375 0 
L 21.578125 0 
z
" id="DejaVuSans-87"/>
       <path d="M 45.40625 46.390625 
L 45.40625 75.984375 
L 54.390625 75.984375 
L 54.390625 0 
L 45.40625 0 
L 45.40625 8.203125 
Q 42.578125 3.328125 38.25 0.953125 
Q 33.9375 -1.421875 27.875 -1.421875 
Q 17.96875 -1.421875 11.734375 6.484375 
Q 5.515625 14.40625 5.515625 27.296875 
Q 5.515625 40.1875 11.734375 48.09375 
Q 17.96875 56 27.875 56 
Q 33.9375 56 38.25 53.625 
Q 42.578125 51.265625 45.40625 46.390625 
z
M 14.796875 27.296875 
Q 14.796875 17.390625 18.875 11.75 
Q 22.953125 6.109375 30.078125 6.109375 
Q 37.203125 6.109375 41.296875 11.75 
Q 45.40625 17.390625 45.40625 27.296875 
Q 45.40625 37.203125 41.296875 42.84375 
Q 37.203125 48.484375 30.078125 48.484375 
Q 22.953125 48.484375 18.875 42.84375 
Q 14.796875 37.203125 14.796875 27.296875 
z
" id="DejaVuSans-100"/>
      </defs>
      <g transform="translate(411.959584 274.718437)scale(0.1 -0.1)">
       <use xlink:href="#DejaVuSans-87"/>
       <use x="98.798828" xlink:href="#DejaVuSans-101"/>
       <use x="160.322266" xlink:href="#DejaVuSans-100"/>
       <use x="223.798828" xlink:href="#DejaVuSans-32"/>
       <use x="255.585938" xlink:href="#DejaVuSans-48"/>
       <use x="319.208984" xlink:href="#DejaVuSans-48"/>
       <use x="382.832031" xlink:href="#DejaVuSans-58"/>
       <use x="416.523438" xlink:href="#DejaVuSans-48"/>
       <use x="480.146484" xlink:href="#DejaVuSans-48"/>
      </g>
     </g>
    </g>
    <g id="xtick_3">
     <g id="line2d_3">
      <g>
       <use style="stroke:#000000;stroke-width:0.8;" x="641.948361" xlink:href="#m201909a00f" y="260.12"/>
      </g>
     </g>
     <g id="text_3">
      <!-- Thu 00:00 -->
      <defs>
       <path d="M 54.890625 33.015625 
L 54.890625 0 
L 45.90625 0 
L 45.90625 32.71875 
Q 45.90625 40.484375 42.875 44.328125 
Q 39.84375 48.1875 33.796875 48.1875 
Q 26.515625 48.1875 22.3125 43.546875 
Q 18.109375 38.921875 18.109375 30.90625 
L 18.109375 0 
L 9.078125 0 
L 9.078125 75.984375 
L 18.109375 75.984375 
L 18.109375 46.1875 
Q 21.34375 51.125 25.703125 53.5625 
Q 30.078125 56 35.796875 56 
Q 45.21875 56 50.046875 50.171875 
Q 54.890625 44.34375 54.890625 33.015625 
z
" id="DejaVuSans-104"/>
      </defs>
      <g transform="translate(616.558517 274.718437)scale(0.1 -0.1)">
       <use xlink:href="#DejaVuSans-84"/>
       <use x="61.083984" xlink:href="#DejaVuSans-104"/>
       <use x="124.462891" xlink:href="#DejaVuSans-117"/>
       <use x="187.841797" xlink:href="#DejaVuSans-32"/>
       <use x="219.628906" xlink:href="#DejaVuSans-48"/>
       <use x="283.251953" xlink:href="#DejaVuSans-48"/>
       <use x="346.875" xlink:href="#DejaVuSans-58"/>
       <use x="380.566406" xlink:href="#DejaVuSans-48"/>
       <use x="444.189453" xlink:href="#DejaVuSans-48"/>
      </g>
     </g>
    </g>
    <g id="xtick_4">
     <g id="line2d_4">
      <g>
       <use style="stroke:#000000;stroke-width:0.8;" x="844.748075" xlink:href="#m201909a00f" y="260.12"/>
      </g>
     </g>
     <g id="text_4">
      <!-- Fri 00:00 -->
      <defs>
       <path d="M 9.8125 72.90625 
L 51.703125 72.90625 
L 51.703125 64.59375 
L 19.671875 64.59375 
L 19.671875 43.109375 
L 48.578125 43.109375 
L 48.578125 34.8125 
L 19.671875 34.8125 
L 19.671875 0 
L 9.8125 0 
z
" id="DejaVuSans-70"/>
       <path d="M 41.109375 46.296875 
Q 39.59375 47.171875 37.8125 47.578125 
Q 36.03125 48 33.890625 48 
Q 26.265625 48 22.1875 43.046875 
Q 18.109375 38.09375 18.109375 28.8125 
L 18.109375 0 
L 9.078125 0 
L 9.078125 54.6875 
L 18.109375 54.6875 
L 18.109375 46.1875 
Q 20.953125 51.171875 25.484375 53.578125 
Q 30.03125 56 36.53125 56 
Q 37.453125 56 38.578125 55.875 
Q 39.703125 55.765625 41.0625 55.515625 
z
" id="DejaVuSans-114"/>
       <path d="M 9.421875 54.6875 
L 18.40625 54.6875 
L 18.40625 0 
L 9.421875 0 
z
M 9.421875 75.984375 
L 18.40625 75.984375 
L 18.40625 64.59375 
L 9.421875 64.59375 
z
" id="DejaVuSans-105"/>
      </defs>
      <g transform="translate(822.434794 274.718437)scale(0.1 -0.1)">
       <use xlink:href="#DejaVuSans-70"/>
       <use x="57.410156" xlink:href="#DejaVuSans-114"/>
       <use x="98.523438" xlink:href="#DejaVuSans-105"/>
       <use x="126.306641" xlink:href="#DejaVuSans-32"/>
       <use x="158.09375" xlink:href="#DejaVuSans-48"/>
       <use x="221.716797" xlink:href="#DejaVuSans-48"/>
       <use x="285.339844" xlink:href="#DejaVuSans-58"/>
       <use x="319.03125" xlink:href="#DejaVuSans-48"/>
       <use x="382.654297" xlink:href="#DejaVuSans-48"/>
      </g>
     </g>
    </g>
    <g id="xtick_5">
     <g id="line2d_5">
      <g>
       <use style="stroke:#000000;stroke-width:0.8;" x="1047.547789" xlink:href="#m201909a00f" y="260.12"/>
      </g>
     </g>
     <g id="text_5">
      <!-- Sat 00:00 -->
      <defs>
       <path d="M 53.515625 70.515625 
L 53.515625 60.890625 
Q 47.90625 63.578125 42.921875 64.890625 
Q 37.9375 66.21875 33.296875 66.21875 
Q 25.25 66.21875 20.875 63.09375 
Q 16.5 59.96875 16.5 54.203125 
Q 16.5 49.359375 19.40625 46.890625 
Q 22.3125 44.4375 30.421875 42.921875 
L 36.375 41.703125 
Q 47.40625 39.59375 52.65625 34.296875 
Q 57.90625 29 57.90625 20.125 
Q 57.90625 9.515625 50.796875 4.046875 
Q 43.703125 -1.421875 29.984375 -1.421875 
Q 24.8125 -1.421875 18.96875 -0.25 
Q 13.140625 0.921875 6.890625 3.21875 
L 6.890625 13.375 
Q 12.890625 10.015625 18.65625 8.296875 
Q 24.421875 6.59375 29.984375 6.59375 
Q 38.421875 6.59375 43.015625 9.90625 
Q 47.609375 13.234375 47.609375 19.390625 
Q 47.609375 24.75 44.3125 27.78125 
Q 41.015625 30.8125 33.5 32.328125 
L 27.484375 33.5 
Q 16.453125 35.6875 11.515625 40.375 
Q 6.59375 45.0625 6.59375 53.421875 
Q 6.59375 63.09375 13.40625 68.65625 
Q 20.21875 74.21875 32.171875 74.21875 
Q 37.3125 74.21875 42.625 73.28125 
Q 47.953125 72.359375 53.515625 70.515625 
z
" id="DejaVuSans-83"/>
       <path d="M 34.28125 27.484375 
Q 23.390625 27.484375 19.1875 25 
Q 14.984375 22.515625 14.984375 16.5 
Q 14.984375 11.71875 18.140625 8.90625 
Q 21.296875 6.109375 26.703125 6.109375 
Q 34.1875 6.109375 38.703125 11.40625 
Q 43.21875 16.703125 43.21875 25.484375 
L 43.21875 27.484375 
z
M 52.203125 31.203125 
L 52.203125 0 
L 43.21875 0 
L 43.21875 8.296875 
Q 40.140625 3.328125 35.546875 0.953125 
Q 30.953125 -1.421875 24.3125 -1.421875 
Q 15.921875 -1.421875 10.953125 3.296875 
Q 6 8.015625 6 15.921875 
Q 6 25.140625 12.171875 29.828125 
Q 18.359375 34.515625 30.609375 34.515625 
L 43.21875 34.515625 
L 43.21875 35.40625 
Q 43.21875 41.609375 39.140625 45 
Q 35.0625 48.390625 27.6875 48.390625 
Q 23 48.390625 18.546875 47.265625 
Q 14.109375 46.140625 10.015625 43.890625 
L 10.015625 52.203125 
Q 14.9375 54.109375 19.578125 55.046875 
Q 24.21875 56 28.609375 56 
Q 40.484375 56 46.34375 49.84375 
Q 52.203125 43.703125 52.203125 31.203125 
z
" id="DejaVuSans-97"/>
       <path d="M 18.3125 70.21875 
L 18.3125 54.6875 
L 36.8125 54.6875 
L 36.8125 47.703125 
L 18.3125 47.703125 
L 18.3125 18.015625 
Q 18.3125 11.328125 20.140625 9.421875 
Q 21.96875 7.515625 27.59375 7.515625 
L 36.8125 7.515625 
L 36.8125 0 
L 27.59375 0 
Q 17.1875 0 13.234375 3.875 
Q 9.28125 7.765625 9.28125 18.015625 
L 9.28125 47.703125 
L 2.6875 47.703125 
L 2.6875 54.6875 
L 9.28125 54.6875 
L 9.28125 70.21875 
z
" id="DejaVuSans-116"/>
      </defs>
      <g transform="translate(1023.350914 274.718437)scale(0.1 -0.1)">
       <use xlink:href="#DejaVuSans-83"/>
       <use x="63.476562" xlink:href="#DejaVuSans-97"/>
       <use x="124.755859" xlink:href="#DejaVuSans-116"/>
       <use x="163.964844" xlink:href="#DejaVuSans-32"/>
       <use x="195.751953" xlink:href="#DejaVuSans-48"/>
       <use x="259.375" xlink:href="#DejaVuSans-48"/>
       <use x="322.998047" xlink:href="#DejaVuSans-58"/>
       <use x="356.689453" xlink:href="#DejaVuSans-48"/>
       <use x="420.3125" xlink:href="#DejaVuSans-48"/>
      </g>
     </g>
    </g>
   </g>
   <g id="matplotlib.axis_2">
    <g id="ytick_1">
     <g id="line2d_6">
      <defs>
       <path d="M 0 0 
L -3.5 0 
" id="m8b3cf9c2a5" style="stroke:#000000;stroke-width:0.8;"/>
      </defs>
      <g>
       <use style="stroke:#000000;stroke-width:0.8;" x="33.64" xlink:href="#m8b3cf9c2a5" y="260.12"/>
      </g>
     </g>
     <g id="text_6">
      <!-- 0 -->
      <g transform="translate(20.2775 263.919219)scale(0.1 -0.1)">
       <use xlink:href="#DejaVuSans-48"/>
      </g>
     </g>
    </g>
    <g id="ytick_2">
     <g id="line2d_7">
      <g>
       <use style="stroke:#000000;stroke-width:0.8;" x="33.64" xlink:href="#m8b3cf9c2a5" y="232.857778"/>
      </g>
     </g>
     <g id="text_7">
      <!-- 20 -->
      <defs>
       <path d="M 19.1875 8.296875 
L 53.609375 8.296875 
L 53.609375 0 
L 7.328125 0 
L 7.328125 8.296875 
Q 12.9375 14.109375 22.625 23.890625 
Q 32.328125 33.6875 34.8125 36.53125 
Q 39.546875 41.84375 41.421875 45.53125 
Q 43.3125 49.21875 43.3125 52.78125 
Q 43.3125 58.59375 39.234375 62.25 
Q 35.15625 65.921875 28.609375 65.921875 
Q 23.96875 65.921875 18.8125 64.3125 
Q 13.671875 62.703125 7.8125 59.421875 
L 7.8125 69.390625 
Q 13.765625 71.78125 18.9375 73 
Q 24.125 74.21875 28.421875 74.21875 
Q 39.75 74.21875 46.484375 68.546875 
Q 53.21875 62.890625 53.21875 53.421875 
Q 53.21875 48.921875 51.53125 44.890625 
Q 49.859375 40.875 45.40625 35.40625 
Q 44.1875 33.984375 37.640625 27.21875 
Q 31.109375 20.453125 19.1875 8.296875 
z
" id="DejaVuSans-50"/>
      </defs>
      <g transform="translate(13.915 236.656997)scale(0.1 -0.1)">
       <use xlink:href="#DejaVuSans-50"/>
       <use x="63.623047" xlink:href="#DejaVuSans-48"/>
      </g>
     </g>
    </g>
    <g id="ytick_3">
     <g id="line2d_8">
      <g>
       <use style="stroke:#000000;stroke-width:0.8;" x="33.64" xlink:href="#m8b3cf9c2a5" y="205.595556"/>
      </g>
     </g>
     <g id="text_8">
      <!-- 40 -->
      <defs>
       <path d="M 37.796875 64.3125 
L 12.890625 25.390625 
L 37.796875 25.390625 
z
M 35.203125 72.90625 
L 47.609375 72.90625 
L 47.609375 25.390625 
L 58.015625 25.390625 
L 58.015625 17.1875 
L 47.609375 17.1875 
L 47.609375 0 
L 37.796875 0 
L 37.796875 17.1875 
L 4.890625 17.1875 
L 4.890625 26.703125 
z
" id="DejaVuSans-52"/>
      </defs>
      <g transform="translate(13.915 209.394774)scale(0.1 -0.1)">
       <use xlink:href="#DejaVuSans-52"/>
       <use x="63.623047" xlink:href="#DejaVuSans-48"/>
      </g>
     </g>
    </g>
    <g id="ytick_4">
     <g id="line2d_9">
      <g>
       <use style="stroke:#000000;stroke-width:0.8;" x="33.64" xlink:href="#m8b3cf9c2a5" y="178.333333"/>
      </g>
     </g>
     <g id="text_9">
      <!-- 60 -->
      <defs>
       <path d="M 33.015625 40.375 
Q 26.375 40.375 22.484375 35.828125 
Q 18.609375 31.296875 18.609375 23.390625 
Q 18.609375 15.53125 22.484375 10.953125 
Q 26.375 6.390625 33.015625 6.390625 
Q 39.65625 6.390625 43.53125 10.953125 
Q 47.40625 15.53125 47.40625 23.390625 
Q 47.40625 31.296875 43.53125 35.828125 
Q 39.65625 40.375 33.015625 40.375 
z
M 52.59375 71.296875 
L 52.59375 62.3125 
Q 48.875 64.0625 45.09375 64.984375 
Q 41.3125 65.921875 37.59375 65.921875 
Q 27.828125 65.921875 22.671875 59.328125 
Q 17.53125 52.734375 16.796875 39.40625 
Q 19.671875 43.65625 24.015625 45.921875 
Q 28.375 48.1875 33.59375 48.1875 
Q 44.578125 48.1875 50.953125 41.515625 
Q 57.328125 34.859375 57.328125 23.390625 
Q 57.328125 12.15625 50.6875 5.359375 
Q 44.046875 -1.421875 33.015625 -1.421875 
Q 20.359375 -1.421875 13.671875 8.265625 
Q 6.984375 17.96875 6.984375 36.375 
Q 6.984375 53.65625 15.1875 63.9375 
Q 23.390625 74.21875 37.203125 74.21875 
Q 40.921875 74.21875 44.703125 73.484375 
Q 48.484375 72.75 52.59375 71.296875 
z
" id="DejaVuSans-54"/>
      </defs>
      <g transform="translate(13.915 182.132552)scale(0.1 -0.1)">
       <use xlink:href="#DejaVuSans-54"/>
       <use x="63.623047" xlink:href="#DejaVuSans-48"/>
      </g>
     </g>
    </g>
    <g id="ytick_5">
     <g id="line2d_10">
      <g>
       <use style="stroke:#000000;stroke-width:0.8;" x="33.64" xlink:href="#m8b3cf9c2a5" y="151.071111"/>
      </g>
     </g>
     <g id="text_10">
      <!-- 80 -->
      <defs>
       <path d="M 31.78125 34.625 
Q 24.75 34.625 20.71875 30.859375 
Q 16.703125 27.09375 16.703125 20.515625 
Q 16.703125 13.921875 20.71875 10.15625 
Q 24.75 6.390625 31.78125 6.390625 
Q 38.8125 6.390625 42.859375 10.171875 
Q 46.921875 13.96875 46.921875 20.515625 
Q 46.921875 27.09375 42.890625 30.859375 
Q 38.875 34.625 31.78125 34.625 
z
M 21.921875 38.8125 
Q 15.578125 40.375 12.03125 44.71875 
Q 8.5 49.078125 8.5 55.328125 
Q 8.5 64.0625 14.71875 69.140625 
Q 20.953125 74.21875 31.78125 74.21875 
Q 42.671875 74.21875 48.875 69.140625 
Q 55.078125 64.0625 55.078125 55.328125 
Q 55.078125 49.078125 51.53125 44.71875 
Q 48 40.375 41.703125 38.8125 
Q 48.828125 37.15625 52.796875 32.3125 
Q 56.78125 27.484375 56.78125 20.515625 
Q 56.78125 9.90625 50.3125 4.234375 
Q 43.84375 -1.421875 31.78125 -1.421875 
Q 19.734375 -1.421875 13.25 4.234375 
Q 6.78125 9.90625 6.78125 20.515625 
Q 6.78125 27.484375 10.78125 32.3125 
Q 14.796875 37.15625 21.921875 38.8125 
z
M 18.3125 54.390625 
Q 18.3125 48.734375 21.84375 45.5625 
Q 25.390625 42.390625 31.78125 42.390625 
Q 38.140625 42.390625 41.71875 45.5625 
Q 45.3125 48.734375 45.3125 54.390625 
Q 45.3125 60.0625 41.71875 63.234375 
Q 38.140625 66.40625 31.78125 66.40625 
Q 25.390625 66.40625 21.84375 63.234375 
Q 18.3125 60.0625 18.3125 54.390625 
z
" id="DejaVuSans-56"/>
      </defs>
      <g transform="translate(13.915 154.87033)scale(0.1 -0.1)">
       <use xlink:href="#DejaVuSans-56"/>
       <use x="63.623047" xlink:href="#DejaVuSans-48"/>
      </g>
     </g>
    </g>
    <g id="ytick_6">
     <g id="line2d_11">
      <g>
       <use style="stroke:#000000;stroke-width:0.8;" x="33.64" xlink:href="#m8b3cf9c2a5" y="123.808889"/>
      </g>
     </g>
     <g id="text_11">
      <!-- 100 -->
      <defs>
       <path d="M 12.40625 8.296875 
L 28.515625 8.296875 
L 28.515625 63.921875 
L 10.984375 60.40625 
L 10.984375 69.390625 
L 28.421875 72.90625 
L 38.28125 72.90625 
L 38.28125 8.296875 
L 54.390625 8.296875 
L 54.390625 0 
L 12.40625 0 
z
" id="DejaVuSans-49"/>
      </defs>
      <g transform="translate(7.5525 127.608108)scale(0.1 -0.1)">
       <use xlink:href="#DejaVuSans-49"/>
       <use x="63.623047" xlink:href="#DejaVuSans-48"/>
       <use x="127.246094" xlink:href="#DejaVuSans-48"/>
      </g>
     </g>
    </g>
    <g id="ytick_7">
     <g id="line2d_12">
      <g>
       <use style="stroke:#000000;stroke-width:0.8;" x="33.64" xlink:href="#m8b3cf9c2a5" y="96.546667"/>
      </g>
     </g>
     <g id="text_12">
      <!-- 120 -->
      <g transform="translate(7.5525 100.345885)scale(0.1 -0.1)">
       <use xlink:href="#DejaVuSans-49"/>
       <use x="63.623047" xlink:href="#DejaVuSans-50"/>
       <use x="127.246094" xlink:href="#DejaVuSans-48"/>
      </g>
     </g>
    </g>
    <g id="ytick_8">
     <g id="line2d_13">
      <g>
       <use style="stroke:#000000;stroke-width:0.8;" x="33.64" xlink:href="#m8b3cf9c2a5" y="69.284444"/>
      </g>
     </g>
     <g id="text_13">
      <!-- 140 -->
      <g transform="translate(7.5525 73.083663)scale(0.1 -0.1)">
       <use xlink:href="#DejaVuSans-49"/>
       <use x="63.623047" xlink:href="#DejaVuSans-52"/>
       <use x="127.246094" xlink:href="#DejaVuSans-48"/>
      </g>
     </g>
    </g>
    <g id="ytick_9">
     <g id="line2d_14">
      <g>
       <use style="stroke:#000000;stroke-width:0.8;" x="33.64" xlink:href="#m8b3cf9c2a5" y="42.022222"/>
      </g>
     </g>
     <g id="text_14">
      <!-- 160 -->
      <g transform="translate(7.5525 45.821441)scale(0.1 -0.1)">
       <use xlink:href="#DejaVuSans-49"/>
       <use x="63.623047" xlink:href="#DejaVuSans-54"/>
       <use x="127.246094" xlink:href="#DejaVuSans-48"/>
      </g>
     </g>
    </g>
    <g id="ytick_10">
     <g id="line2d_15">
      <g>
       <use style="stroke:#000000;stroke-width:0.8;" x="33.64" xlink:href="#m8b3cf9c2a5" y="14.76"/>
      </g>
     </g>
     <g id="text_15">
      <!-- 180 -->
      <g transform="translate(7.5525 18.559219)scale(0.1 -0.1)">
       <use xlink:href="#DejaVuSans-49"/>
       <use x="63.623047" xlink:href="#DejaVuSans-56"/>
       <use x="127.246094" xlink:href="#DejaVuSans-48"/>
      </g>
     </g>
    </g>
   </g>
   <g id="line2d_16">
    <path clip-path="url(#p9e66ef532c)" d="M 33.64 260.12 
L 109.166753 260.12 
L 110.591679 257.393778 
L 112.044522 257.393778 
L 113.492673 253.304444 
L 114.940568 251.941333 
L 116.39184 249.215111 
L 117.841233 249.215111 
L 119.292669 246.488889 
L 120.742203 242.399556 
L 122.190825 242.399556 
L 123.640172 236.947111 
L 125.091356 235.584 
L 126.541674 235.584 
L 127.992966 232.857778 
L 129.440939 228.768444 
L 132.33931 228.768444 
L 133.787507 224.679111 
L 135.237269 221.952889 
L 136.687044 221.952889 
L 138.139424 219.226667 
L 139.589396 219.226667 
L 141.04039 221.952889 
L 142.488253 228.768444 
L 145.383777 228.768444 
L 148.280034 239.673333 
L 149.732847 239.673333 
L 151.183103 238.310222 
L 152.634642 235.584 
L 154.082495 235.584 
L 155.53047 227.405333 
L 156.978023 226.042222 
L 158.426594 223.316 
L 159.874484 223.316 
L 161.325425 221.952889 
L 164.222535 221.952889 
L 165.673257 209.684889 
L 167.121153 209.684889 
L 168.570438 208.321778 
L 170.018907 198.78 
L 171.470789 197.416889 
L 172.919206 197.416889 
L 174.367574 191.964444 
L 177.264775 191.964444 
L 178.716021 187.875111 
L 180.164011 189.238222 
L 181.612374 189.238222 
L 183.060612 174.244 
L 184.509436 166.065333 
L 185.958902 166.065333 
L 187.409825 141.529333 
L 188.861503 126.535111 
L 190.311592 126.535111 
L 194.66412 63.832 
L 196.115618 63.832 
L 197.566718 61.105778 
L 199.017641 61.105778 
L 200.469063 57.016444 
L 201.921516 76.1 
L 203.373686 84.278667 
L 204.825217 84.278667 
L 206.274232 87.004889 
L 209.17112 87.004889 
L 210.620341 92.457333 
L 212.068939 100.636 
L 213.519893 101.999111 
L 214.970875 101.999111 
L 216.419427 116.993333 
L 217.868262 116.993333 
L 219.317801 133.350667 
L 220.76685 157.886667 
L 222.216162 166.065333 
L 223.665968 166.065333 
L 225.114546 176.970222 
L 226.563623 190.601333 
L 229.464589 190.601333 
L 230.914084 260.12 
L 312.237471 260.12 
L 313.662427 258.756889 
L 315.111647 245.125778 
L 316.560003 245.125778 
L 318.007504 236.947111 
L 319.459324 236.947111 
L 320.907929 232.857778 
L 322.356294 227.405333 
L 323.804617 227.405333 
L 325.254405 224.679111 
L 326.704779 223.316 
L 331.055403 223.316 
L 332.503703 227.405333 
L 333.955365 227.405333 
L 335.40993 234.220889 
L 336.858247 235.584 
L 339.759825 235.584 
L 341.210989 232.857778 
L 342.66106 232.857778 
L 344.10905 228.768444 
L 345.557389 234.220889 
L 347.004943 231.494667 
L 348.45758 231.494667 
L 349.905604 232.857778 
L 351.353581 230.131556 
L 352.802048 230.131556 
L 354.250239 228.768444 
L 357.149154 215.137333 
L 358.598152 215.137333 
L 360.047029 204.232444 
L 361.495223 204.232444 
L 362.944402 208.321778 
L 364.392453 204.232444 
L 365.840245 204.232444 
L 367.288093 202.869333 
L 368.735955 206.958667 
L 370.186708 206.958667 
L 371.646658 201.506222 
L 373.096895 202.869333 
L 374.545179 193.327556 
L 375.994063 193.327556 
L 377.443979 179.696444 
L 378.895615 168.791556 
L 380.345276 168.791556 
L 381.797298 152.434222 
L 383.249121 130.624444 
L 384.696827 121.082667 
L 386.146613 121.082667 
L 387.595065 104.725333 
L 389.044192 99.272889 
L 390.492926 99.272889 
L 391.942479 82.915556 
L 393.393207 82.915556 
L 394.841784 69.284444 
L 396.291635 63.832 
L 397.74098 51.564 
L 399.190393 51.564 
L 400.638859 58.379556 
L 402.088304 37.932889 
L 403.53894 37.932889 
L 404.987135 46.111556 
L 406.436396 32.480444 
L 407.885652 32.480444 
L 409.334882 36.569778 
L 410.782776 31.117333 
L 412.232227 31.117333 
L 413.681746 29.754222 
L 415.132973 44.748444 
L 416.582197 63.832 
L 418.031729 63.832 
L 419.480739 77.463111 
L 420.932587 92.457333 
L 422.381103 92.457333 
L 423.829935 101.999111 
L 425.279149 108.814667 
L 426.727902 108.814667 
L 428.178085 134.713778 
L 429.627544 136.076889 
L 431.07633 136.076889 
L 432.525957 142.892444 
L 433.975141 260.12 
L 515.297721 260.12 
L 516.74636 258.756889 
L 518.19495 246.488889 
L 519.645925 246.488889 
L 521.093782 235.584 
L 522.542222 228.768444 
L 523.991446 220.589778 
L 525.439722 220.589778 
L 526.889332 215.137333 
L 528.340198 215.137333 
L 531.239997 204.232444 
L 532.690987 211.048 
L 534.140508 211.048 
L 537.039443 205.595556 
L 538.488304 205.595556 
L 539.937715 211.048 
L 541.387076 211.048 
L 542.838216 224.679111 
L 544.286873 224.679111 
L 545.736115 220.589778 
L 547.184974 220.589778 
L 548.639161 223.316 
L 550.087905 221.952889 
L 551.539633 221.952889 
L 552.990137 227.405333 
L 554.439343 223.316 
L 555.888556 223.316 
L 558.790577 215.137333 
L 560.241206 215.137333 
L 561.692162 212.411111 
L 563.141828 211.048 
L 564.5913 205.595556 
L 566.040193 205.595556 
L 567.49028 201.506222 
L 568.939308 200.143111 
L 570.388285 200.143111 
L 571.837629 197.416889 
L 573.287187 198.78 
L 574.736685 198.78 
L 576.185865 189.238222 
L 577.635005 183.785778 
L 579.08507 174.244 
L 580.533038 175.607111 
L 581.987559 172.880889 
L 583.437342 172.880889 
L 584.887705 167.428444 
L 586.341182 152.434222 
L 587.789556 144.255556 
L 589.237753 144.255556 
L 590.687138 121.082667 
L 592.137093 103.362222 
L 593.58696 103.362222 
L 595.039081 76.1 
L 596.488098 54.290222 
L 597.935718 54.290222 
L 599.383912 35.206667 
L 600.83631 32.480444 
L 602.284582 32.480444 
L 603.733057 28.391111 
L 605.183858 39.296 
L 606.635619 39.296 
L 608.083359 40.659111 
L 609.534672 54.290222 
L 610.990221 63.832 
L 612.440071 63.832 
L 615.342443 108.814667 
L 616.794816 108.814667 
L 618.245756 126.535111 
L 619.695728 141.529333 
L 621.145412 160.612889 
L 622.59515 160.612889 
L 624.043963 172.880889 
L 625.493388 172.880889 
L 626.944853 189.238222 
L 629.845004 200.143111 
L 631.29485 200.143111 
L 632.745146 201.506222 
L 638.542349 201.506222 
L 639.992598 260.12 
L 717.004183 260.12 
L 718.429513 257.393778 
L 719.8783 257.393778 
L 721.329657 249.215111 
L 722.777758 249.215111 
L 724.225437 247.852 
L 725.673119 239.673333 
L 728.570169 239.673333 
L 731.469985 234.220889 
L 732.918029 234.220889 
L 734.36651 238.310222 
L 735.815303 239.673333 
L 737.262938 239.673333 
L 740.159951 236.947111 
L 741.608196 236.947111 
L 743.057015 235.584 
L 744.505637 231.494667 
L 745.953287 232.857778 
L 748.85383 232.857778 
L 750.301784 234.220889 
L 751.751368 234.220889 
L 753.199167 227.405333 
L 754.648107 223.316 
L 756.096467 223.316 
L 757.547647 217.863556 
L 760.444912 217.863556 
L 761.893429 215.137333 
L 763.343143 217.863556 
L 764.794625 217.863556 
L 766.243858 228.768444 
L 767.695627 226.042222 
L 769.146523 219.226667 
L 770.594969 219.226667 
L 772.044337 215.137333 
L 773.495542 209.684889 
L 774.945755 209.684889 
L 776.394482 206.958667 
L 777.848278 206.958667 
L 779.299413 201.506222 
L 780.748257 204.232444 
L 782.1994 190.601333 
L 783.648284 190.601333 
L 785.097565 171.517778 
L 786.547671 161.976 
L 787.998302 161.976 
L 789.449389 144.255556 
L 790.899196 122.445778 
L 792.350253 122.445778 
L 793.799432 100.636 
L 795.248754 101.999111 
L 796.698152 91.094222 
L 798.149035 91.094222 
L 799.597935 88.368 
L 801.04708 72.010667 
L 802.496347 72.010667 
L 803.945776 50.200889 
L 805.395553 35.206667 
L 806.845118 35.206667 
L 808.294499 40.659111 
L 809.743584 31.117333 
L 811.193224 31.117333 
L 812.642863 39.296 
L 814.092913 50.200889 
L 815.541555 50.200889 
L 816.9909 51.564 
L 819.889626 67.921333 
L 824.236786 67.921333 
L 825.686427 87.004889 
L 827.136494 96.546667 
L 828.586681 96.546667 
L 830.035655 127.898222 
L 831.484625 146.981778 
L 832.935863 163.339111 
L 834.384995 163.339111 
L 835.834303 168.791556 
L 837.284229 176.970222 
L 838.733983 179.696444 
L 843.081652 179.696444 
L 844.530768 260.12 
L 920.118294 260.12 
L 921.542813 257.393778 
L 922.991523 257.393778 
L 924.43944 243.762667 
L 925.887961 223.316 
L 927.339057 216.500444 
L 928.787182 216.500444 
L 930.238344 208.321778 
L 933.138419 208.321778 
L 934.589373 197.416889 
L 937.491778 197.416889 
L 938.943985 193.327556 
L 943.291402 193.327556 
L 944.740899 189.238222 
L 946.19087 189.238222 
L 947.640506 191.964444 
L 949.089641 198.78 
L 950.538794 198.78 
L 951.988217 194.690667 
L 956.335713 194.690667 
L 957.783341 196.053778 
L 959.232321 196.053778 
L 960.682095 190.601333 
L 962.130418 200.143111 
L 963.579802 200.143111 
L 966.476365 202.869333 
L 967.924984 196.053778 
L 969.374129 196.053778 
L 970.823045 194.690667 
L 972.272239 197.416889 
L 973.722482 197.416889 
L 975.17338 190.601333 
L 976.623347 194.690667 
L 978.072695 194.690667 
L 979.521999 186.512 
L 980.971905 185.148889 
L 982.41975 185.148889 
L 983.867779 189.238222 
L 985.318963 182.422667 
L 986.767214 174.244 
L 988.216253 174.244 
L 989.664765 191.964444 
L 991.11402 191.964444 
L 992.563499 181.059556 
L 994.013805 164.702222 
L 995.462627 146.981778 
L 996.914322 146.981778 
L 998.363269 133.350667 
L 999.812633 130.624444 
L 1001.260905 130.624444 
L 1002.709462 140.166222 
L 1004.158237 137.44 
L 1005.60916 131.987556 
L 1007.058226 131.987556 
L 1008.506501 123.808889 
L 1009.957973 123.808889 
L 1011.409405 108.814667 
L 1012.8588 101.999111 
L 1014.30688 97.909778 
L 1015.759376 97.909778 
L 1017.208402 96.546667 
L 1018.656352 96.546667 
L 1020.104958 95.183556 
L 1021.554065 104.725333 
L 1023.002418 119.719556 
L 1024.450614 119.719556 
L 1025.899273 121.082667 
L 1027.347402 123.808889 
L 1028.795103 123.808889 
L 1030.243674 134.713778 
L 1031.691617 140.166222 
L 1033.140306 140.166222 
L 1034.588586 155.160444 
L 1036.036592 161.976 
L 1037.488429 161.976 
L 1038.936927 163.339111 
L 1040.388156 167.428444 
L 1041.839862 167.428444 
L 1043.292 179.696444 
L 1044.743744 260.12 
L 1126.034704 260.12 
L 1127.482174 250.578222 
L 1128.930365 246.488889 
L 1130.381019 238.310222 
L 1131.831779 238.310222 
L 1133.28 231.494667 
L 1133.28 231.494667 
" style="fill:none;stroke:#1f77b4;stroke-linecap:square;stroke-width:1.5;"/>
   </g>
   <g id="patch_3">
    <path d="M 33.64 260.12 
L 33.64 14.76 
" style="fill:none;stroke:#000000;stroke-linecap:square;stroke-linejoin:miter;stroke-width:0.8;"/>
   </g>
   <g id="patch_4">
    <path d="M 1133.28 260.12 
L 1133.28 14.76 
" style="fill:none;stroke:#000000;stroke-linecap:square;stroke-linejoin:miter;stroke-width:0.8;"/>
   </g>
   <g id="patch_5">
    <path d="M 33.64 260.12 
L 1133.28 260.12 
" style="fill:none;stroke:#000000;stroke-linecap:square;stroke-linejoin:miter;stroke-width:0.8;"/>
   </g>
   <g id="patch_6">
    <path d="M 33.64 14.76 
L 1133.28 14.76 
" style="fill:none;stroke:#000000;stroke-linecap:square;stroke-linejoin:miter;stroke-width:0.8;"/>
   </g>
  </g>
 </g>
 <defs>
  <clipPath id="p9e66ef532c">
   <rect height="245.36" width="1099.64" x="33.64" y="14.76"/>
  </clipPath>
 </defs>
</svg>
