<?xml version="1.0" encoding="utf-8" standalone="no"?>
<!DOCTYPE svg PUBLIC "-//W3C//DTD SVG 1.1//EN"
  "http://www.w3.org/Graphics/SVG/1.1/DTD/svg11.dtd">
<!-- Created with matplotlib (https://matplotlib.org/) -->
<svg height="288pt" version="1.1" viewBox="0 0 1152 288" width="1152pt" xmlns="http://www.w3.org/2000/svg" xmlns:xlink="http://www.w3.org/1999/xlink">
 <defs>
  <style type="text/css">
*{stroke-linecap:butt;stroke-linejoin:round;}
  </style>
 </defs>
 <g id="figure_1">
  <g id="patch_1">
   <path d="M 0 288 
L 1152 288 
L 1152 0 
L 0 0 
z
" style="fill:#ffffff;"/>
  </g>
  <g id="axes_1">
   <g id="patch_2">
    <path d="M 33.64 260.12 
L 1133.28 260.12 
L 1133.28 14.76 
L 33.64 14.76 
z
" style="fill:#ffffff;"/>
   </g>
   <g id="matplotlib.axis_1">
    <g id="xtick_1">
     <g id="line2d_1">
      <defs>
       <path d="M 0 0 
L 0 3.5 
" id="m07932bbbd0" style="stroke:#000000;stroke-width:0.8;"/>
      </defs>
      <g>
       <use style="stroke:#000000;stroke-width:0.8;" x="232.937285" xlink:href="#m07932bbbd0" y="260.12"/>
      </g>
     </g>
     <g id="text_1">
      <!-- Tue 00:00 -->
      <defs>
       <path d="M -0.296875 72.90625 
L 61.375 72.90625 
L 61.375 64.59375 
L 35.5 64.59375 
L 35.5 0 
L 25.59375 0 
L 25.59375 64.59375 
L -0.296875 64.59375 
z
" id="DejaVuSans-84"/>
       <path d="M 8.5 21.578125 
L 8.5 54.6875 
L 17.484375 54.6875 
L 17.484375 21.921875 
Q 17.484375 14.15625 20.5 10.265625 
Q 23.53125 6.390625 29.59375 6.390625 
Q 36.859375 6.390625 41.078125 11.03125 
Q 45.3125 15.671875 45.3125 23.6875 
L 45.3125 54.6875 
L 54.296875 54.6875 
L 54.296875 0 
L 45.3125 0 
L 45.3125 8.40625 
Q 42.046875 3.421875 37.71875 1 
Q 33.40625 -1.421875 27.6875 -1.421875 
Q 18.265625 -1.421875 13.375 4.4375 
Q 8.5 10.296875 8.5 21.578125 
z
M 31.109375 56 
z
" id="DejaVuSans-117"/>
       <path d="M 56.203125 29.59375 
L 56.203125 25.203125 
L 14.890625 25.203125 
Q 15.484375 15.921875 20.484375 11.0625 
Q 25.484375 6.203125 34.421875 6.203125 
Q 39.59375 6.203125 44.453125 7.46875 
Q 49.3125 8.734375 54.109375 11.28125 
L 54.109375 2.78125 
Q 49.265625 0.734375 44.1875 -0.34375 
Q 39.109375 -1.421875 33.890625 -1.421875 
Q 20.796875 -1.421875 13.15625 6.1875 
Q 5.515625 13.8125 5.515625 26.8125 
Q 5.515625 40.234375 12.765625 48.109375 
Q 20.015625 56 32.328125 56 
Q 43.359375 56 49.78125 48.890625 
Q 56.203125 41.796875 56.203125 29.59375 
z
M 47.21875 32.234375 
Q 47.125 39.59375 43.09375 43.984375 
Q 39.0625 48.390625 32.421875 48.390625 
Q 24.90625 48.390625 20.390625 44.140625 
Q 15.875 39.890625 15.1875 32.171875 
z
" id="DejaVuSans-101"/>
       <path id="DejaVuSans-32"/>
       <path d="M 31.78125 66.40625 
Q 24.171875 66.40625 20.328125 58.90625 
Q 16.5 51.421875 16.5 36.375 
Q 16.5 21.390625 20.328125 13.890625 
Q 24.171875 6.390625 31.78125 6.390625 
Q 39.453125 6.390625 43.28125 13.890625 
Q 47.125 21.390625 47.125 36.375 
Q 47.125 51.421875 43.28125 58.90625 
Q 39.453125 66.40625 31.78125 66.40625 
z
M 31.78125 74.21875 
Q 44.046875 74.21875 50.515625 64.515625 
Q 56.984375 54.828125 56.984375 36.375 
Q 56.984375 17.96875 50.515625 8.265625 
Q 44.046875 -1.421875 31.78125 -1.421875 
Q 19.53125 -1.421875 13.0625 8.265625 
Q 6.59375 17.96875 6.59375 36.375 
Q 6.59375 54.828125 13.0625 64.515625 
Q 19.53125 74.21875 31.78125 74.21875 
z
" id="DejaVuSans-48"/>
       <path d="M 11.71875 12.40625 
L 22.015625 12.40625 
L 22.015625 0 
L 11.71875 0 
z
M 11.71875 51.703125 
L 22.015625 51.703125 
L 22.015625 39.3125 
L 11.71875 39.3125 
z
" id="DejaVuSans-58"/>
      </defs>
      <g transform="translate(207.651348 274.718437)scale(0.1 -0.1)">
       <use xlink:href="#DejaVuSans-84"/>
       <use x="60.849609" xlink:href="#DejaVuSans-117"/>
       <use x="124.228516" xlink:href="#DejaVuSans-101"/>
       <use x="185.751953" xlink:href="#DejaVuSans-32"/>
       <use x="217.539062" xlink:href="#DejaVuSans-48"/>
       <use x="281.162109" xlink:href="#DejaVuSans-48"/>
       <use x="344.785156" xlink:href="#DejaVuSans-58"/>
       <use x="378.476562" xlink:href="#DejaVuSans-48"/>
       <use x="442.099609" xlink:href="#DejaVuSans-48"/>
      </g>
     </g>
    </g>
    <g id="xtick_2">
     <g id="line2d_2">
      <g>
       <use style="stroke:#000000;stroke-width:0.8;" x="432.323825" xlink:href="#m07932bbbd0" y="260.12"/>
      </g>
     </g>
     <g id="text_2">
      <!-- Wed 00:00 -->
      <defs>
       <path d="M 3.328125 72.90625 
L 13.28125 72.90625 
L 28.609375 11.28125 
L 43.890625 72.90625 
L 54.984375 72.90625 
L 70.3125 11.28125 
L 85.59375 72.90625 
L 95.609375 72.90625 
L 77.296875 0 
L 64.890625 0 
L 49.515625 63.28125 
L 33.984375 0 
L 21.578125 0 
z
" id="DejaVuSans-87"/>
       <path d="M 45.40625 46.390625 
L 45.40625 75.984375 
L 54.390625 75.984375 
L 54.390625 0 
L 45.40625 0 
L 45.40625 8.203125 
Q 42.578125 3.328125 38.25 0.953125 
Q 33.9375 -1.421875 27.875 -1.421875 
Q 17.96875 -1.421875 11.734375 6.484375 
Q 5.515625 14.40625 5.515625 27.296875 
Q 5.515625 40.1875 11.734375 48.09375 
Q 17.96875 56 27.875 56 
Q 33.9375 56 38.25 53.625 
Q 42.578125 51.265625 45.40625 46.390625 
z
M 14.796875 27.296875 
Q 14.796875 17.390625 18.875 11.75 
Q 22.953125 6.109375 30.078125 6.109375 
Q 37.203125 6.109375 41.296875 11.75 
Q 45.40625 17.390625 45.40625 27.296875 
Q 45.40625 37.203125 41.296875 42.84375 
Q 37.203125 48.484375 30.078125 48.484375 
Q 22.953125 48.484375 18.875 42.84375 
Q 14.796875 37.203125 14.796875 27.296875 
z
" id="DejaVuSans-100"/>
      </defs>
      <g transform="translate(405.134763 274.718437)scale(0.1 -0.1)">
       <use xlink:href="#DejaVuSans-87"/>
       <use x="98.798828" xlink:href="#DejaVuSans-101"/>
       <use x="160.322266" xlink:href="#DejaVuSans-100"/>
       <use x="223.798828" xlink:href="#DejaVuSans-32"/>
       <use x="255.585938" xlink:href="#DejaVuSans-48"/>
       <use x="319.208984" xlink:href="#DejaVuSans-48"/>
       <use x="382.832031" xlink:href="#DejaVuSans-58"/>
       <use x="416.523438" xlink:href="#DejaVuSans-48"/>
       <use x="480.146484" xlink:href="#DejaVuSans-48"/>
      </g>
     </g>
    </g>
    <g id="xtick_3">
     <g id="line2d_3">
      <g>
       <use style="stroke:#000000;stroke-width:0.8;" x="631.710365" xlink:href="#m07932bbbd0" y="260.12"/>
      </g>
     </g>
     <g id="text_3">
      <!-- Thu 00:00 -->
      <defs>
       <path d="M 54.890625 33.015625 
L 54.890625 0 
L 45.90625 0 
L 45.90625 32.71875 
Q 45.90625 40.484375 42.875 44.328125 
Q 39.84375 48.1875 33.796875 48.1875 
Q 26.515625 48.1875 22.3125 43.546875 
Q 18.109375 38.921875 18.109375 30.90625 
L 18.109375 0 
L 9.078125 0 
L 9.078125 75.984375 
L 18.109375 75.984375 
L 18.109375 46.1875 
Q 21.34375 51.125 25.703125 53.5625 
Q 30.078125 56 35.796875 56 
Q 45.21875 56 50.046875 50.171875 
Q 54.890625 44.34375 54.890625 33.015625 
z
" id="DejaVuSans-104"/>
      </defs>
      <g transform="translate(606.320521 274.718437)scale(0.1 -0.1)">
       <use xlink:href="#DejaVuSans-84"/>
       <use x="61.083984" xlink:href="#DejaVuSans-104"/>
       <use x="124.462891" xlink:href="#DejaVuSans-117"/>
       <use x="187.841797" xlink:href="#DejaVuSans-32"/>
       <use x="219.628906" xlink:href="#DejaVuSans-48"/>
       <use x="283.251953" xlink:href="#DejaVuSans-48"/>
       <use x="346.875" xlink:href="#DejaVuSans-58"/>
       <use x="380.566406" xlink:href="#DejaVuSans-48"/>
       <use x="444.189453" xlink:href="#DejaVuSans-48"/>
      </g>
     </g>
    </g>
    <g id="xtick_4">
     <g id="line2d_4">
      <g>
       <use style="stroke:#000000;stroke-width:0.8;" x="831.096905" xlink:href="#m07932bbbd0" y="260.12"/>
      </g>
     </g>
     <g id="text_4">
      <!-- Fri 00:00 -->
      <defs>
       <path d="M 9.8125 72.90625 
L 51.703125 72.90625 
L 51.703125 64.59375 
L 19.671875 64.59375 
L 19.671875 43.109375 
L 48.578125 43.109375 
L 48.578125 34.8125 
L 19.671875 34.8125 
L 19.671875 0 
L 9.8125 0 
z
" id="DejaVuSans-70"/>
       <path d="M 41.109375 46.296875 
Q 39.59375 47.171875 37.8125 47.578125 
Q 36.03125 48 33.890625 48 
Q 26.265625 48 22.1875 43.046875 
Q 18.109375 38.09375 18.109375 28.8125 
L 18.109375 0 
L 9.078125 0 
L 9.078125 54.6875 
L 18.109375 54.6875 
L 18.109375 46.1875 
Q 20.953125 51.171875 25.484375 53.578125 
Q 30.03125 56 36.53125 56 
Q 37.453125 56 38.578125 55.875 
Q 39.703125 55.765625 41.0625 55.515625 
z
" id="DejaVuSans-114"/>
       <path d="M 9.421875 54.6875 
L 18.40625 54.6875 
L 18.40625 0 
L 9.421875 0 
z
M 9.421875 75.984375 
L 18.40625 75.984375 
L 18.40625 64.59375 
L 9.421875 64.59375 
z
" id="DejaVuSans-105"/>
      </defs>
      <g transform="translate(808.783623 274.718437)scale(0.1 -0.1)">
       <use xlink:href="#DejaVuSans-70"/>
       <use x="57.410156" xlink:href="#DejaVuSans-114"/>
       <use x="98.523438" xlink:href="#DejaVuSans-105"/>
       <use x="126.306641" xlink:href="#DejaVuSans-32"/>
       <use x="158.09375" xlink:href="#DejaVuSans-48"/>
       <use x="221.716797" xlink:href="#DejaVuSans-48"/>
       <use x="285.339844" xlink:href="#DejaVuSans-58"/>
       <use x="319.03125" xlink:href="#DejaVuSans-48"/>
       <use x="382.654297" xlink:href="#DejaVuSans-48"/>
      </g>
     </g>
    </g>
    <g id="xtick_5">
     <g id="line2d_5">
      <g>
       <use style="stroke:#000000;stroke-width:0.8;" x="1030.483444" xlink:href="#m07932bbbd0" y="260.12"/>
      </g>
     </g>
     <g id="text_5">
      <!-- Sat 00:00 -->
      <defs>
       <path d="M 53.515625 70.515625 
L 53.515625 60.890625 
Q 47.90625 63.578125 42.921875 64.890625 
Q 37.9375 66.21875 33.296875 66.21875 
Q 25.25 66.21875 20.875 63.09375 
Q 16.5 59.96875 16.5 54.203125 
Q 16.5 49.359375 19.40625 46.890625 
Q 22.3125 44.4375 30.421875 42.921875 
L 36.375 41.703125 
Q 47.40625 39.59375 52.65625 34.296875 
Q 57.90625 29 57.90625 20.125 
Q 57.90625 9.515625 50.796875 4.046875 
Q 43.703125 -1.421875 29.984375 -1.421875 
Q 24.8125 -1.421875 18.96875 -0.25 
Q 13.140625 0.921875 6.890625 3.21875 
L 6.890625 13.375 
Q 12.890625 10.015625 18.65625 8.296875 
Q 24.421875 6.59375 29.984375 6.59375 
Q 38.421875 6.59375 43.015625 9.90625 
Q 47.609375 13.234375 47.609375 19.390625 
Q 47.609375 24.75 44.3125 27.78125 
Q 41.015625 30.8125 33.5 32.328125 
L 27.484375 33.5 
Q 16.453125 35.6875 11.515625 40.375 
Q 6.59375 45.0625 6.59375 53.421875 
Q 6.59375 63.09375 13.40625 68.65625 
Q 20.21875 74.21875 32.171875 74.21875 
Q 37.3125 74.21875 42.625 73.28125 
Q 47.953125 72.359375 53.515625 70.515625 
z
" id="DejaVuSans-83"/>
       <path d="M 34.28125 27.484375 
Q 23.390625 27.484375 19.1875 25 
Q 14.984375 22.515625 14.984375 16.5 
Q 14.984375 11.71875 18.140625 8.90625 
Q 21.296875 6.109375 26.703125 6.109375 
Q 34.1875 6.109375 38.703125 11.40625 
Q 43.21875 16.703125 43.21875 25.484375 
L 43.21875 27.484375 
z
M 52.203125 31.203125 
L 52.203125 0 
L 43.21875 0 
L 43.21875 8.296875 
Q 40.140625 3.328125 35.546875 0.953125 
Q 30.953125 -1.421875 24.3125 -1.421875 
Q 15.921875 -1.421875 10.953125 3.296875 
Q 6 8.015625 6 15.921875 
Q 6 25.140625 12.171875 29.828125 
Q 18.359375 34.515625 30.609375 34.515625 
L 43.21875 34.515625 
L 43.21875 35.40625 
Q 43.21875 41.609375 39.140625 45 
Q 35.0625 48.390625 27.6875 48.390625 
Q 23 48.390625 18.546875 47.265625 
Q 14.109375 46.140625 10.015625 43.890625 
L 10.015625 52.203125 
Q 14.9375 54.109375 19.578125 55.046875 
Q 24.21875 56 28.609375 56 
Q 40.484375 56 46.34375 49.84375 
Q 52.203125 43.703125 52.203125 31.203125 
z
" id="DejaVuSans-97"/>
       <path d="M 18.3125 70.21875 
L 18.3125 54.6875 
L 36.8125 54.6875 
L 36.8125 47.703125 
L 18.3125 47.703125 
L 18.3125 18.015625 
Q 18.3125 11.328125 20.140625 9.421875 
Q 21.96875 7.515625 27.59375 7.515625 
L 36.8125 7.515625 
L 36.8125 0 
L 27.59375 0 
Q 17.1875 0 13.234375 3.875 
Q 9.28125 7.765625 9.28125 18.015625 
L 9.28125 47.703125 
L 2.6875 47.703125 
L 2.6875 54.6875 
L 9.28125 54.6875 
L 9.28125 70.21875 
z
" id="DejaVuSans-116"/>
      </defs>
      <g transform="translate(1006.286569 274.718437)scale(0.1 -0.1)">
       <use xlink:href="#DejaVuSans-83"/>
       <use x="63.476562" xlink:href="#DejaVuSans-97"/>
       <use x="124.755859" xlink:href="#DejaVuSans-116"/>
       <use x="163.964844" xlink:href="#DejaVuSans-32"/>
       <use x="195.751953" xlink:href="#DejaVuSans-48"/>
       <use x="259.375" xlink:href="#DejaVuSans-48"/>
       <use x="322.998047" xlink:href="#DejaVuSans-58"/>
       <use x="356.689453" xlink:href="#DejaVuSans-48"/>
       <use x="420.3125" xlink:href="#DejaVuSans-48"/>
      </g>
     </g>
    </g>
   </g>
   <g id="matplotlib.axis_2">
    <g id="ytick_1">
     <g id="line2d_6">
      <defs>
       <path d="M 0 0 
L -3.5 0 
" id="m661bf3c0c2" style="stroke:#000000;stroke-width:0.8;"/>
      </defs>
      <g>
       <use style="stroke:#000000;stroke-width:0.8;" x="33.64" xlink:href="#m661bf3c0c2" y="260.12"/>
      </g>
     </g>
     <g id="text_6">
      <!-- 0 -->
      <g transform="translate(20.2775 263.919219)scale(0.1 -0.1)">
       <use xlink:href="#DejaVuSans-48"/>
      </g>
     </g>
    </g>
    <g id="ytick_2">
     <g id="line2d_7">
      <g>
       <use style="stroke:#000000;stroke-width:0.8;" x="33.64" xlink:href="#m661bf3c0c2" y="232.857778"/>
      </g>
     </g>
     <g id="text_7">
      <!-- 20 -->
      <defs>
       <path d="M 19.1875 8.296875 
L 53.609375 8.296875 
L 53.609375 0 
L 7.328125 0 
L 7.328125 8.296875 
Q 12.9375 14.109375 22.625 23.890625 
Q 32.328125 33.6875 34.8125 36.53125 
Q 39.546875 41.84375 41.421875 45.53125 
Q 43.3125 49.21875 43.3125 52.78125 
Q 43.3125 58.59375 39.234375 62.25 
Q 35.15625 65.921875 28.609375 65.921875 
Q 23.96875 65.921875 18.8125 64.3125 
Q 13.671875 62.703125 7.8125 59.421875 
L 7.8125 69.390625 
Q 13.765625 71.78125 18.9375 73 
Q 24.125 74.21875 28.421875 74.21875 
Q 39.75 74.21875 46.484375 68.546875 
Q 53.21875 62.890625 53.21875 53.421875 
Q 53.21875 48.921875 51.53125 44.890625 
Q 49.859375 40.875 45.40625 35.40625 
Q 44.1875 33.984375 37.640625 27.21875 
Q 31.109375 20.453125 19.1875 8.296875 
z
" id="DejaVuSans-50"/>
      </defs>
      <g transform="translate(13.915 236.656997)scale(0.1 -0.1)">
       <use xlink:href="#DejaVuSans-50"/>
       <use x="63.623047" xlink:href="#DejaVuSans-48"/>
      </g>
     </g>
    </g>
    <g id="ytick_3">
     <g id="line2d_8">
      <g>
       <use style="stroke:#000000;stroke-width:0.8;" x="33.64" xlink:href="#m661bf3c0c2" y="205.595556"/>
      </g>
     </g>
     <g id="text_8">
      <!-- 40 -->
      <defs>
       <path d="M 37.796875 64.3125 
L 12.890625 25.390625 
L 37.796875 25.390625 
z
M 35.203125 72.90625 
L 47.609375 72.90625 
L 47.609375 25.390625 
L 58.015625 25.390625 
L 58.015625 17.1875 
L 47.609375 17.1875 
L 47.609375 0 
L 37.796875 0 
L 37.796875 17.1875 
L 4.890625 17.1875 
L 4.890625 26.703125 
z
" id="DejaVuSans-52"/>
      </defs>
      <g transform="translate(13.915 209.394774)scale(0.1 -0.1)">
       <use xlink:href="#DejaVuSans-52"/>
       <use x="63.623047" xlink:href="#DejaVuSans-48"/>
      </g>
     </g>
    </g>
    <g id="ytick_4">
     <g id="line2d_9">
      <g>
       <use style="stroke:#000000;stroke-width:0.8;" x="33.64" xlink:href="#m661bf3c0c2" y="178.333333"/>
      </g>
     </g>
     <g id="text_9">
      <!-- 60 -->
      <defs>
       <path d="M 33.015625 40.375 
Q 26.375 40.375 22.484375 35.828125 
Q 18.609375 31.296875 18.609375 23.390625 
Q 18.609375 15.53125 22.484375 10.953125 
Q 26.375 6.390625 33.015625 6.390625 
Q 39.65625 6.390625 43.53125 10.953125 
Q 47.40625 15.53125 47.40625 23.390625 
Q 47.40625 31.296875 43.53125 35.828125 
Q 39.65625 40.375 33.015625 40.375 
z
M 52.59375 71.296875 
L 52.59375 62.3125 
Q 48.875 64.0625 45.09375 64.984375 
Q 41.3125 65.921875 37.59375 65.921875 
Q 27.828125 65.921875 22.671875 59.328125 
Q 17.53125 52.734375 16.796875 39.40625 
Q 19.671875 43.65625 24.015625 45.921875 
Q 28.375 48.1875 33.59375 48.1875 
Q 44.578125 48.1875 50.953125 41.515625 
Q 57.328125 34.859375 57.328125 23.390625 
Q 57.328125 12.15625 50.6875 5.359375 
Q 44.046875 -1.421875 33.015625 -1.421875 
Q 20.359375 -1.421875 13.671875 8.265625 
Q 6.984375 17.96875 6.984375 36.375 
Q 6.984375 53.65625 15.1875 63.9375 
Q 23.390625 74.21875 37.203125 74.21875 
Q 40.921875 74.21875 44.703125 73.484375 
Q 48.484375 72.75 52.59375 71.296875 
z
" id="DejaVuSans-54"/>
      </defs>
      <g transform="translate(13.915 182.132552)scale(0.1 -0.1)">
       <use xlink:href="#DejaVuSans-54"/>
       <use x="63.623047" xlink:href="#DejaVuSans-48"/>
      </g>
     </g>
    </g>
    <g id="ytick_5">
     <g id="line2d_10">
      <g>
       <use style="stroke:#000000;stroke-width:0.8;" x="33.64" xlink:href="#m661bf3c0c2" y="151.071111"/>
      </g>
     </g>
     <g id="text_10">
      <!-- 80 -->
      <defs>
       <path d="M 31.78125 34.625 
Q 24.75 34.625 20.71875 30.859375 
Q 16.703125 27.09375 16.703125 20.515625 
Q 16.703125 13.921875 20.71875 10.15625 
Q 24.75 6.390625 31.78125 6.390625 
Q 38.8125 6.390625 42.859375 10.171875 
Q 46.921875 13.96875 46.921875 20.515625 
Q 46.921875 27.09375 42.890625 30.859375 
Q 38.875 34.625 31.78125 34.625 
z
M 21.921875 38.8125 
Q 15.578125 40.375 12.03125 44.71875 
Q 8.5 49.078125 8.5 55.328125 
Q 8.5 64.0625 14.71875 69.140625 
Q 20.953125 74.21875 31.78125 74.21875 
Q 42.671875 74.21875 48.875 69.140625 
Q 55.078125 64.0625 55.078125 55.328125 
Q 55.078125 49.078125 51.53125 44.71875 
Q 48 40.375 41.703125 38.8125 
Q 48.828125 37.15625 52.796875 32.3125 
Q 56.78125 27.484375 56.78125 20.515625 
Q 56.78125 9.90625 50.3125 4.234375 
Q 43.84375 -1.421875 31.78125 -1.421875 
Q 19.734375 -1.421875 13.25 4.234375 
Q 6.78125 9.90625 6.78125 20.515625 
Q 6.78125 27.484375 10.78125 32.3125 
Q 14.796875 37.15625 21.921875 38.8125 
z
M 18.3125 54.390625 
Q 18.3125 48.734375 21.84375 45.5625 
Q 25.390625 42.390625 31.78125 42.390625 
Q 38.140625 42.390625 41.71875 45.5625 
Q 45.3125 48.734375 45.3125 54.390625 
Q 45.3125 60.0625 41.71875 63.234375 
Q 38.140625 66.40625 31.78125 66.40625 
Q 25.390625 66.40625 21.84375 63.234375 
Q 18.3125 60.0625 18.3125 54.390625 
z
" id="DejaVuSans-56"/>
      </defs>
      <g transform="translate(13.915 154.87033)scale(0.1 -0.1)">
       <use xlink:href="#DejaVuSans-56"/>
       <use x="63.623047" xlink:href="#DejaVuSans-48"/>
      </g>
     </g>
    </g>
    <g id="ytick_6">
     <g id="line2d_11">
      <g>
       <use style="stroke:#000000;stroke-width:0.8;" x="33.64" xlink:href="#m661bf3c0c2" y="123.808889"/>
      </g>
     </g>
     <g id="text_11">
      <!-- 100 -->
      <defs>
       <path d="M 12.40625 8.296875 
L 28.515625 8.296875 
L 28.515625 63.921875 
L 10.984375 60.40625 
L 10.984375 69.390625 
L 28.421875 72.90625 
L 38.28125 72.90625 
L 38.28125 8.296875 
L 54.390625 8.296875 
L 54.390625 0 
L 12.40625 0 
z
" id="DejaVuSans-49"/>
      </defs>
      <g transform="translate(7.5525 127.608108)scale(0.1 -0.1)">
       <use xlink:href="#DejaVuSans-49"/>
       <use x="63.623047" xlink:href="#DejaVuSans-48"/>
       <use x="127.246094" xlink:href="#DejaVuSans-48"/>
      </g>
     </g>
    </g>
    <g id="ytick_7">
     <g id="line2d_12">
      <g>
       <use style="stroke:#000000;stroke-width:0.8;" x="33.64" xlink:href="#m661bf3c0c2" y="96.546667"/>
      </g>
     </g>
     <g id="text_12">
      <!-- 120 -->
      <g transform="translate(7.5525 100.345885)scale(0.1 -0.1)">
       <use xlink:href="#DejaVuSans-49"/>
       <use x="63.623047" xlink:href="#DejaVuSans-50"/>
       <use x="127.246094" xlink:href="#DejaVuSans-48"/>
      </g>
     </g>
    </g>
    <g id="ytick_8">
     <g id="line2d_13">
      <g>
       <use style="stroke:#000000;stroke-width:0.8;" x="33.64" xlink:href="#m661bf3c0c2" y="69.284444"/>
      </g>
     </g>
     <g id="text_13">
      <!-- 140 -->
      <g transform="translate(7.5525 73.083663)scale(0.1 -0.1)">
       <use xlink:href="#DejaVuSans-49"/>
       <use x="63.623047" xlink:href="#DejaVuSans-52"/>
       <use x="127.246094" xlink:href="#DejaVuSans-48"/>
      </g>
     </g>
    </g>
    <g id="ytick_9">
     <g id="line2d_14">
      <g>
       <use style="stroke:#000000;stroke-width:0.8;" x="33.64" xlink:href="#m661bf3c0c2" y="42.022222"/>
      </g>
     </g>
     <g id="text_14">
      <!-- 160 -->
      <g transform="translate(7.5525 45.821441)scale(0.1 -0.1)">
       <use xlink:href="#DejaVuSans-49"/>
       <use x="63.623047" xlink:href="#DejaVuSans-54"/>
       <use x="127.246094" xlink:href="#DejaVuSans-48"/>
      </g>
     </g>
    </g>
    <g id="ytick_10">
     <g id="line2d_15">
      <g>
       <use style="stroke:#000000;stroke-width:0.8;" x="33.64" xlink:href="#m661bf3c0c2" y="14.76"/>
      </g>
     </g>
     <g id="text_15">
      <!-- 180 -->
      <g transform="translate(7.5525 18.559219)scale(0.1 -0.1)">
       <use xlink:href="#DejaVuSans-49"/>
       <use x="63.623047" xlink:href="#DejaVuSans-56"/>
       <use x="127.246094" xlink:href="#DejaVuSans-48"/>
      </g>
     </g>
    </g>
   </g>
   <g id="line2d_16">
    <path clip-path="url(#p5bec9975a4)" d="M 33.64 260.12 
L 107.895617 260.12 
L 109.296561 257.393778 
L 110.724952 257.393778 
L 112.14873 253.304444 
L 113.572258 251.941333 
L 114.999104 249.215111 
L 116.424103 249.215111 
L 117.851111 246.488889 
L 119.276249 242.399556 
L 120.70049 242.399556 
L 122.125445 236.947111 
L 123.552205 235.584 
L 124.978113 235.584 
L 126.40498 232.857778 
L 127.828583 228.768444 
L 130.678173 228.768444 
L 132.101997 224.679111 
L 133.527359 221.952889 
L 134.952734 221.952889 
L 136.38067 219.226667 
L 137.806238 219.226667 
L 139.232812 221.952889 
L 140.656307 228.768444 
L 143.503099 228.768444 
L 146.35061 239.673333 
L 147.778973 239.673333 
L 149.204821 238.310222 
L 150.63193 235.584 
L 152.055415 235.584 
L 153.47902 227.405333 
L 154.90221 226.042222 
L 156.326402 223.316 
L 157.749923 223.316 
L 159.176444 221.952889 
L 162.024795 221.952889 
L 163.451101 209.684889 
L 164.874629 209.684889 
L 166.299522 208.321778 
L 167.723613 198.78 
L 169.151059 197.416889 
L 170.575099 197.416889 
L 171.99909 191.964444 
L 174.847531 191.964444 
L 176.274352 187.875111 
L 177.697971 189.238222 
L 179.121958 189.238222 
L 180.545822 174.244 
L 181.970262 166.065333 
L 183.395334 166.065333 
L 184.821837 141.529333 
L 186.249083 126.535111 
L 187.674767 126.535111 
L 191.95404 63.832 
L 193.381109 63.832 
L 194.807786 61.105778 
L 196.23429 61.105778 
L 197.661285 57.016444 
L 199.089292 76.1 
L 200.517022 84.278667 
L 201.944123 84.278667 
L 203.368751 87.004889 
L 206.216883 87.004889 
L 207.641714 92.457333 
L 209.065931 100.636 
L 210.492465 101.999111 
L 211.919027 101.999111 
L 213.3432 116.993333 
L 214.76765 116.993333 
L 216.192793 133.350667 
L 217.617454 157.886667 
L 219.042374 166.065333 
L 220.467779 166.065333 
L 221.891977 176.970222 
L 223.316666 190.601333 
L 226.168808 190.601333 
L 227.593907 260.12 
L 307.548599 260.12 
L 308.949573 258.756889 
L 310.374402 245.125778 
L 311.798383 245.125778 
L 313.221522 236.947111 
L 314.648907 236.947111 
L 316.073131 232.857778 
L 317.49712 227.405333 
L 318.921067 227.405333 
L 320.346455 224.679111 
L 321.772419 223.316 
L 326.04982 223.316 
L 327.473746 227.405333 
L 328.900975 227.405333 
L 330.33106 234.220889 
L 331.755001 235.584 
L 334.607745 235.584 
L 336.034485 232.857778 
L 337.460151 232.857778 
L 338.883772 228.768444 
L 340.307734 234.220889 
L 341.730926 231.494667 
L 343.159114 231.494667 
L 344.582767 232.857778 
L 346.006375 230.131556 
L 347.430464 230.131556 
L 348.854281 228.768444 
L 351.704406 215.137333 
L 353.129018 215.137333 
L 354.55351 204.232444 
L 355.97733 204.232444 
L 357.402119 208.321778 
L 358.825799 204.232444 
L 360.249224 204.232444 
L 361.672705 202.869333 
L 363.096198 206.958667 
L 364.522535 206.958667 
L 365.957914 201.506222 
L 367.383743 202.869333 
L 368.807652 193.327556 
L 370.23215 193.327556 
L 371.657664 179.696444 
L 373.084869 168.791556 
L 374.510132 168.791556 
L 375.937716 152.434222 
L 377.365104 130.624444 
L 378.788445 121.082667 
L 380.213831 121.082667 
L 381.637905 104.725333 
L 383.062642 99.272889 
L 384.486994 99.272889 
L 385.912151 82.915556 
L 387.338462 82.915556 
L 388.762659 69.284444 
L 390.188109 63.832 
L 391.613061 51.564 
L 393.03808 51.564 
L 394.462168 58.379556 
L 395.887219 37.932889 
L 397.31344 37.932889 
L 398.737261 46.111556 
L 400.162131 32.480444 
L 401.586996 32.480444 
L 403.011835 36.569778 
L 404.43536 31.117333 
L 405.860417 31.117333 
L 407.28554 29.754222 
L 408.712342 44.748444 
L 410.137175 63.832 
L 411.562312 63.832 
L 412.986934 77.463111 
L 414.414347 92.457333 
L 415.838485 92.457333 
L 417.262931 101.999111 
L 418.687755 108.814667 
L 420.112125 108.814667 
L 421.537901 134.713778 
L 422.962966 136.076889 
L 424.387368 136.076889 
L 425.812597 142.892444 
L 427.237391 260.12 
L 507.19129 260.12 
L 508.615548 258.756889 
L 510.039758 246.488889 
L 511.466313 246.488889 
L 512.889802 235.584 
L 514.313864 228.768444 
L 515.738698 220.589778 
L 517.162598 220.589778 
L 518.587811 215.137333 
L 520.014259 215.137333 
L 522.865253 204.232444 
L 524.291823 211.048 
L 525.716948 211.048 
L 528.567093 205.595556 
L 529.99157 205.595556 
L 531.416587 211.048 
L 532.841554 211.048 
L 534.268271 224.679111 
L 535.692547 224.679111 
L 537.117398 220.589778 
L 538.541872 220.589778 
L 539.971585 223.316 
L 541.395946 221.952889 
L 542.823241 221.952889 
L 544.249332 227.405333 
L 545.674148 223.316 
L 547.09897 223.316 
L 549.95215 215.137333 
L 551.378364 215.137333 
L 552.8049 212.411111 
L 554.230168 211.048 
L 555.655244 205.595556 
L 557.079753 205.595556 
L 558.505434 201.506222 
L 559.930074 200.143111 
L 561.354665 200.143111 
L 562.779617 197.416889 
L 564.204778 198.78 
L 565.62988 198.78 
L 567.05467 189.238222 
L 568.479421 183.785778 
L 569.905081 174.244 
L 571.328679 175.607111 
L 572.75872 172.880889 
L 574.184103 172.880889 
L 575.610056 167.428444 
L 577.03907 152.434222 
L 578.463068 144.255556 
L 579.886891 144.255556 
L 581.311882 121.082667 
L 582.737434 103.362222 
L 584.1629 103.362222 
L 585.590581 76.1 
L 587.015211 54.290222 
L 588.438467 54.290222 
L 589.862287 35.206667 
L 591.290242 32.480444 
L 592.714138 32.480444 
L 594.138235 28.391111 
L 595.564619 39.296 
L 596.991946 39.296 
L 598.415321 40.659111 
L 599.842207 54.290222 
L 601.273259 63.832 
L 602.698708 63.832 
L 605.552232 108.814667 
L 606.980162 108.814667 
L 608.406681 126.535111 
L 609.83225 141.529333 
L 611.257536 160.612889 
L 612.682874 160.612889 
L 614.107303 172.880889 
L 615.532334 172.880889 
L 616.95937 189.238222 
L 619.810711 200.143111 
L 621.236155 200.143111 
L 622.662043 201.506222 
L 628.361677 201.506222 
L 629.787518 260.12 
L 705.502977 260.12 
L 706.904319 257.393778 
L 708.328723 257.393778 
L 709.755652 249.215111 
L 711.179381 249.215111 
L 712.602695 247.852 
L 714.026013 239.673333 
L 716.874305 239.673333 
L 719.725316 234.220889 
L 721.148989 234.220889 
L 722.573092 238.310222 
L 723.997502 239.673333 
L 725.420772 239.673333 
L 728.269027 236.947111 
L 729.692898 236.947111 
L 731.117334 235.584 
L 732.541574 231.494667 
L 733.96486 232.857778 
L 736.816586 232.857778 
L 738.24017 234.220889 
L 739.665358 234.220889 
L 741.08879 227.405333 
L 742.513344 223.316 
L 743.937327 223.316 
L 745.364084 217.863556 
L 748.212587 217.863556 
L 749.636725 215.137333 
L 751.06204 217.863556 
L 752.489094 217.863556 
L 753.913935 228.768444 
L 755.34127 226.042222 
L 756.767748 219.226667 
L 758.191816 219.226667 
L 759.61679 215.137333 
L 761.043571 209.684889 
L 762.469377 209.684889 
L 763.893721 206.958667 
L 765.32305 206.958667 
L 766.749762 201.506222 
L 768.174221 204.232444 
L 769.600941 190.601333 
L 771.02544 190.601333 
L 772.450329 171.517778 
L 773.87603 161.976 
L 775.302246 161.976 
L 776.728911 144.255556 
L 778.154317 122.445778 
L 779.580952 122.445778 
L 781.005741 100.636 
L 782.430671 101.999111 
L 783.855675 91.094222 
L 785.282139 91.094222 
L 786.706654 88.368 
L 788.13141 72.010667 
L 789.556285 72.010667 
L 790.981319 50.200889 
L 792.406696 35.206667 
L 793.831865 35.206667 
L 795.256852 40.659111 
L 796.681549 31.117333 
L 798.106792 31.117333 
L 799.532032 39.296 
L 800.957678 50.200889 
L 802.381938 50.200889 
L 803.806891 51.564 
L 806.65683 67.921333 
L 810.930826 67.921333 
L 812.35607 87.004889 
L 813.781731 96.546667 
L 815.207511 96.546667 
L 816.632099 127.898222 
L 818.056682 146.981778 
L 819.483496 163.339111 
L 820.908238 163.339111 
L 822.333154 168.791556 
L 823.758678 176.970222 
L 825.184032 179.696444 
L 829.458528 179.696444 
L 830.883255 260.12 
L 905.198623 260.12 
L 906.599166 257.393778 
L 908.023494 257.393778 
L 909.447042 243.762667 
L 910.871185 223.316 
L 912.297858 216.500444 
L 913.721611 216.500444 
L 915.148349 208.321778 
L 917.999615 208.321778 
L 919.426149 197.416889 
L 922.279706 197.416889 
L 923.707472 193.327556 
L 927.98172 193.327556 
L 929.406822 189.238222 
L 930.83239 189.238222 
L 932.257628 191.964444 
L 933.682374 198.78 
L 935.107138 198.78 
L 936.532166 194.690667 
L 940.806492 194.690667 
L 942.229756 196.053778 
L 943.654349 196.053778 
L 945.079723 190.601333 
L 946.503671 200.143111 
L 947.928661 200.143111 
L 950.776474 202.869333 
L 952.200713 196.053778 
L 953.625469 196.053778 
L 955.049999 194.690667 
L 956.474802 197.416889 
L 957.900637 197.416889 
L 959.327117 190.601333 
L 960.75268 194.690667 
L 962.177635 194.690667 
L 963.602547 186.512 
L 965.02805 185.148889 
L 966.451528 185.148889 
L 967.875186 189.238222 
L 969.301947 182.422667 
L 970.725823 174.244 
L 972.150474 174.244 
L 973.574608 191.964444 
L 974.999471 191.964444 
L 976.424555 181.059556 
L 977.850452 164.702222 
L 979.27489 146.981778 
L 980.702152 146.981778 
L 982.126713 133.350667 
L 983.551684 130.624444 
L 984.975581 130.624444 
L 986.399758 140.166222 
L 987.82415 137.44 
L 989.250654 131.987556 
L 990.675331 131.987556 
L 992.099231 123.808889 
L 993.526275 123.808889 
L 994.95328 108.814667 
L 996.378281 101.999111 
L 997.801989 97.909778 
L 999.230039 97.909778 
L 1000.654677 96.546667 
L 1002.078258 96.546667 
L 1003.502484 95.183556 
L 1004.927201 104.725333 
L 1006.351179 119.719556 
L 1007.775001 119.719556 
L 1009.199279 121.082667 
L 1010.623036 123.808889 
L 1012.046371 123.808889 
L 1013.470562 134.713778 
L 1014.894136 140.166222 
L 1016.318443 140.166222 
L 1017.742348 155.160444 
L 1019.165984 161.976 
L 1020.593386 161.976 
L 1022.017506 163.339111 
L 1023.44431 167.428444 
L 1024.871583 167.428444 
L 1026.299282 179.696444 
L 1027.726592 260.12 
L 1107.649403 260.12 
L 1109.072512 250.578222 
L 1110.496329 246.488889 
L 1111.922568 238.310222 
L 1113.348912 238.310222 
L 1116.196266 224.679111 
L 1117.62134 224.679111 
L 1119.044781 220.589778 
L 1120.468906 211.048 
L 1121.893001 211.048 
L 1123.316878 206.958667 
L 1124.740111 200.143111 
L 1126.163343 200.143111 
L 1127.586696 191.964444 
L 1129.009779 186.512 
L 1130.432583 186.512 
L 1133.28 178.333333 
L 1133.28 178.333333 
" style="fill:none;stroke:#1f77b4;stroke-linecap:square;stroke-width:1.5;"/>
   </g>
   <g id="patch_3">
    <path d="M 33.64 260.12 
L 33.64 14.76 
" style="fill:none;stroke:#000000;stroke-linecap:square;stroke-linejoin:miter;stroke-width:0.8;"/>
   </g>
   <g id="patch_4">
    <path d="M 1133.28 260.12 
L 1133.28 14.76 
" style="fill:none;stroke:#000000;stroke-linecap:square;stroke-linejoin:miter;stroke-width:0.8;"/>
   </g>
   <g id="patch_5">
    <path d="M 33.64 260.12 
L 1133.28 260.12 
" style="fill:none;stroke:#000000;stroke-linecap:square;stroke-linejoin:miter;stroke-width:0.8;"/>
   </g>
   <g id="patch_6">
    <path d="M 33.64 14.76 
L 1133.28 14.76 
" style="fill:none;stroke:#000000;stroke-linecap:square;stroke-linejoin:miter;stroke-width:0.8;"/>
   </g>
  </g>
 </g>
 <defs>
  <clipPath id="p5bec9975a4">
   <rect height="245.36" width="1099.64" x="33.64" y="14.76"/>
  </clipPath>
 </defs>
</svg>
