<?xml version="1.0" encoding="utf-8" standalone="no"?>
<!DOCTYPE svg PUBLIC "-//W3C//DTD SVG 1.1//EN"
  "http://www.w3.org/Graphics/SVG/1.1/DTD/svg11.dtd">
<!-- Created with matplotlib (https://matplotlib.org/) -->
<svg height="288pt" version="1.1" viewBox="0 0 1152 288" width="1152pt" xmlns="http://www.w3.org/2000/svg" xmlns:xlink="http://www.w3.org/1999/xlink">
 <defs>
  <style type="text/css">
*{stroke-linecap:butt;stroke-linejoin:round;}
  </style>
 </defs>
 <g id="figure_1">
  <g id="patch_1">
   <path d="M 0 288 
L 1152 288 
L 1152 0 
L 0 0 
z
" style="fill:#ffffff;"/>
  </g>
  <g id="axes_1">
   <g id="patch_2">
    <path d="M 33.64 260.12 
L 1133.28 260.12 
L 1133.28 14.76 
L 33.64 14.76 
z
" style="fill:#ffffff;"/>
   </g>
   <g id="matplotlib.axis_1">
    <g id="xtick_1">
     <g id="line2d_1">
      <defs>
       <path d="M 0 0 
L 0 3.5 
" id="m3018b37ed0" style="stroke:#000000;stroke-width:0.8;"/>
      </defs>
      <g>
       <use style="stroke:#000000;stroke-width:0.8;" x="226.231516" xlink:href="#m3018b37ed0" y="260.12"/>
      </g>
     </g>
     <g id="text_1">
      <!-- Tue 00:00 -->
      <defs>
       <path d="M -0.296875 72.90625 
L 61.375 72.90625 
L 61.375 64.59375 
L 35.5 64.59375 
L 35.5 0 
L 25.59375 0 
L 25.59375 64.59375 
L -0.296875 64.59375 
z
" id="DejaVuSans-84"/>
       <path d="M 8.5 21.578125 
L 8.5 54.6875 
L 17.484375 54.6875 
L 17.484375 21.921875 
Q 17.484375 14.15625 20.5 10.265625 
Q 23.53125 6.390625 29.59375 6.390625 
Q 36.859375 6.390625 41.078125 11.03125 
Q 45.3125 15.671875 45.3125 23.6875 
L 45.3125 54.6875 
L 54.296875 54.6875 
L 54.296875 0 
L 45.3125 0 
L 45.3125 8.40625 
Q 42.046875 3.421875 37.71875 1 
Q 33.40625 -1.421875 27.6875 -1.421875 
Q 18.265625 -1.421875 13.375 4.4375 
Q 8.5 10.296875 8.5 21.578125 
z
M 31.109375 56 
z
" id="DejaVuSans-117"/>
       <path d="M 56.203125 29.59375 
L 56.203125 25.203125 
L 14.890625 25.203125 
Q 15.484375 15.921875 20.484375 11.0625 
Q 25.484375 6.203125 34.421875 6.203125 
Q 39.59375 6.203125 44.453125 7.46875 
Q 49.3125 8.734375 54.109375 11.28125 
L 54.109375 2.78125 
Q 49.265625 0.734375 44.1875 -0.34375 
Q 39.109375 -1.421875 33.890625 -1.421875 
Q 20.796875 -1.421875 13.15625 6.1875 
Q 5.515625 13.8125 5.515625 26.8125 
Q 5.515625 40.234375 12.765625 48.109375 
Q 20.015625 56 32.328125 56 
Q 43.359375 56 49.78125 48.890625 
Q 56.203125 41.796875 56.203125 29.59375 
z
M 47.21875 32.234375 
Q 47.125 39.59375 43.09375 43.984375 
Q 39.0625 48.390625 32.421875 48.390625 
Q 24.90625 48.390625 20.390625 44.140625 
Q 15.875 39.890625 15.1875 32.171875 
z
" id="DejaVuSans-101"/>
       <path id="DejaVuSans-32"/>
       <path d="M 31.78125 66.40625 
Q 24.171875 66.40625 20.328125 58.90625 
Q 16.5 51.421875 16.5 36.375 
Q 16.5 21.390625 20.328125 13.890625 
Q 24.171875 6.390625 31.78125 6.390625 
Q 39.453125 6.390625 43.28125 13.890625 
Q 47.125 21.390625 47.125 36.375 
Q 47.125 51.421875 43.28125 58.90625 
Q 39.453125 66.40625 31.78125 66.40625 
z
M 31.78125 74.21875 
Q 44.046875 74.21875 50.515625 64.515625 
Q 56.984375 54.828125 56.984375 36.375 
Q 56.984375 17.96875 50.515625 8.265625 
Q 44.046875 -1.421875 31.78125 -1.421875 
Q 19.53125 -1.421875 13.0625 8.265625 
Q 6.59375 17.96875 6.59375 36.375 
Q 6.59375 54.828125 13.0625 64.515625 
Q 19.53125 74.21875 31.78125 74.21875 
z
" id="DejaVuSans-48"/>
       <path d="M 11.71875 12.40625 
L 22.015625 12.40625 
L 22.015625 0 
L 11.71875 0 
z
M 11.71875 51.703125 
L 22.015625 51.703125 
L 22.015625 39.3125 
L 11.71875 39.3125 
z
" id="DejaVuSans-58"/>
      </defs>
      <g transform="translate(200.945578 274.718437)scale(0.1 -0.1)">
       <use xlink:href="#DejaVuSans-84"/>
       <use x="60.849609" xlink:href="#DejaVuSans-117"/>
       <use x="124.228516" xlink:href="#DejaVuSans-101"/>
       <use x="185.751953" xlink:href="#DejaVuSans-32"/>
       <use x="217.539062" xlink:href="#DejaVuSans-48"/>
       <use x="281.162109" xlink:href="#DejaVuSans-48"/>
       <use x="344.785156" xlink:href="#DejaVuSans-58"/>
       <use x="378.476562" xlink:href="#DejaVuSans-48"/>
       <use x="442.099609" xlink:href="#DejaVuSans-48"/>
      </g>
     </g>
    </g>
    <g id="xtick_2">
     <g id="line2d_2">
      <g>
       <use style="stroke:#000000;stroke-width:0.8;" x="419.523974" xlink:href="#m3018b37ed0" y="260.12"/>
      </g>
     </g>
     <g id="text_2">
      <!-- Wed 00:00 -->
      <defs>
       <path d="M 3.328125 72.90625 
L 13.28125 72.90625 
L 28.609375 11.28125 
L 43.890625 72.90625 
L 54.984375 72.90625 
L 70.3125 11.28125 
L 85.59375 72.90625 
L 95.609375 72.90625 
L 77.296875 0 
L 64.890625 0 
L 49.515625 63.28125 
L 33.984375 0 
L 21.578125 0 
z
" id="DejaVuSans-87"/>
       <path d="M 45.40625 46.390625 
L 45.40625 75.984375 
L 54.390625 75.984375 
L 54.390625 0 
L 45.40625 0 
L 45.40625 8.203125 
Q 42.578125 3.328125 38.25 0.953125 
Q 33.9375 -1.421875 27.875 -1.421875 
Q 17.96875 -1.421875 11.734375 6.484375 
Q 5.515625 14.40625 5.515625 27.296875 
Q 5.515625 40.1875 11.734375 48.09375 
Q 17.96875 56 27.875 56 
Q 33.9375 56 38.25 53.625 
Q 42.578125 51.265625 45.40625 46.390625 
z
M 14.796875 27.296875 
Q 14.796875 17.390625 18.875 11.75 
Q 22.953125 6.109375 30.078125 6.109375 
Q 37.203125 6.109375 41.296875 11.75 
Q 45.40625 17.390625 45.40625 27.296875 
Q 45.40625 37.203125 41.296875 42.84375 
Q 37.203125 48.484375 30.078125 48.484375 
Q 22.953125 48.484375 18.875 42.84375 
Q 14.796875 37.203125 14.796875 27.296875 
z
" id="DejaVuSans-100"/>
      </defs>
      <g transform="translate(392.334911 274.718437)scale(0.1 -0.1)">
       <use xlink:href="#DejaVuSans-87"/>
       <use x="98.798828" xlink:href="#DejaVuSans-101"/>
       <use x="160.322266" xlink:href="#DejaVuSans-100"/>
       <use x="223.798828" xlink:href="#DejaVuSans-32"/>
       <use x="255.585938" xlink:href="#DejaVuSans-48"/>
       <use x="319.208984" xlink:href="#DejaVuSans-48"/>
       <use x="382.832031" xlink:href="#DejaVuSans-58"/>
       <use x="416.523438" xlink:href="#DejaVuSans-48"/>
       <use x="480.146484" xlink:href="#DejaVuSans-48"/>
      </g>
     </g>
    </g>
    <g id="xtick_3">
     <g id="line2d_3">
      <g>
       <use style="stroke:#000000;stroke-width:0.8;" x="612.816431" xlink:href="#m3018b37ed0" y="260.12"/>
      </g>
     </g>
     <g id="text_3">
      <!-- Thu 00:00 -->
      <defs>
       <path d="M 54.890625 33.015625 
L 54.890625 0 
L 45.90625 0 
L 45.90625 32.71875 
Q 45.90625 40.484375 42.875 44.328125 
Q 39.84375 48.1875 33.796875 48.1875 
Q 26.515625 48.1875 22.3125 43.546875 
Q 18.109375 38.921875 18.109375 30.90625 
L 18.109375 0 
L 9.078125 0 
L 9.078125 75.984375 
L 18.109375 75.984375 
L 18.109375 46.1875 
Q 21.34375 51.125 25.703125 53.5625 
Q 30.078125 56 35.796875 56 
Q 45.21875 56 50.046875 50.171875 
Q 54.890625 44.34375 54.890625 33.015625 
z
" id="DejaVuSans-104"/>
      </defs>
      <g transform="translate(587.426588 274.718437)scale(0.1 -0.1)">
       <use xlink:href="#DejaVuSans-84"/>
       <use x="61.083984" xlink:href="#DejaVuSans-104"/>
       <use x="124.462891" xlink:href="#DejaVuSans-117"/>
       <use x="187.841797" xlink:href="#DejaVuSans-32"/>
       <use x="219.628906" xlink:href="#DejaVuSans-48"/>
       <use x="283.251953" xlink:href="#DejaVuSans-48"/>
       <use x="346.875" xlink:href="#DejaVuSans-58"/>
       <use x="380.566406" xlink:href="#DejaVuSans-48"/>
       <use x="444.189453" xlink:href="#DejaVuSans-48"/>
      </g>
     </g>
    </g>
    <g id="xtick_4">
     <g id="line2d_4">
      <g>
       <use style="stroke:#000000;stroke-width:0.8;" x="806.108889" xlink:href="#m3018b37ed0" y="260.12"/>
      </g>
     </g>
     <g id="text_4">
      <!-- Fri 00:00 -->
      <defs>
       <path d="M 9.8125 72.90625 
L 51.703125 72.90625 
L 51.703125 64.59375 
L 19.671875 64.59375 
L 19.671875 43.109375 
L 48.578125 43.109375 
L 48.578125 34.8125 
L 19.671875 34.8125 
L 19.671875 0 
L 9.8125 0 
z
" id="DejaVuSans-70"/>
       <path d="M 41.109375 46.296875 
Q 39.59375 47.171875 37.8125 47.578125 
Q 36.03125 48 33.890625 48 
Q 26.265625 48 22.1875 43.046875 
Q 18.109375 38.09375 18.109375 28.8125 
L 18.109375 0 
L 9.078125 0 
L 9.078125 54.6875 
L 18.109375 54.6875 
L 18.109375 46.1875 
Q 20.953125 51.171875 25.484375 53.578125 
Q 30.03125 56 36.53125 56 
Q 37.453125 56 38.578125 55.875 
Q 39.703125 55.765625 41.0625 55.515625 
z
" id="DejaVuSans-114"/>
       <path d="M 9.421875 54.6875 
L 18.40625 54.6875 
L 18.40625 0 
L 9.421875 0 
z
M 9.421875 75.984375 
L 18.40625 75.984375 
L 18.40625 64.59375 
L 9.421875 64.59375 
z
" id="DejaVuSans-105"/>
      </defs>
      <g transform="translate(783.795608 274.718437)scale(0.1 -0.1)">
       <use xlink:href="#DejaVuSans-70"/>
       <use x="57.410156" xlink:href="#DejaVuSans-114"/>
       <use x="98.523438" xlink:href="#DejaVuSans-105"/>
       <use x="126.306641" xlink:href="#DejaVuSans-32"/>
       <use x="158.09375" xlink:href="#DejaVuSans-48"/>
       <use x="221.716797" xlink:href="#DejaVuSans-48"/>
       <use x="285.339844" xlink:href="#DejaVuSans-58"/>
       <use x="319.03125" xlink:href="#DejaVuSans-48"/>
       <use x="382.654297" xlink:href="#DejaVuSans-48"/>
      </g>
     </g>
    </g>
    <g id="xtick_5">
     <g id="line2d_5">
      <g>
       <use style="stroke:#000000;stroke-width:0.8;" x="999.401347" xlink:href="#m3018b37ed0" y="260.12"/>
      </g>
     </g>
     <g id="text_5">
      <!-- Sat 00:00 -->
      <defs>
       <path d="M 53.515625 70.515625 
L 53.515625 60.890625 
Q 47.90625 63.578125 42.921875 64.890625 
Q 37.9375 66.21875 33.296875 66.21875 
Q 25.25 66.21875 20.875 63.09375 
Q 16.5 59.96875 16.5 54.203125 
Q 16.5 49.359375 19.40625 46.890625 
Q 22.3125 44.4375 30.421875 42.921875 
L 36.375 41.703125 
Q 47.40625 39.59375 52.65625 34.296875 
Q 57.90625 29 57.90625 20.125 
Q 57.90625 9.515625 50.796875 4.046875 
Q 43.703125 -1.421875 29.984375 -1.421875 
Q 24.8125 -1.421875 18.96875 -0.25 
Q 13.140625 0.921875 6.890625 3.21875 
L 6.890625 13.375 
Q 12.890625 10.015625 18.65625 8.296875 
Q 24.421875 6.59375 29.984375 6.59375 
Q 38.421875 6.59375 43.015625 9.90625 
Q 47.609375 13.234375 47.609375 19.390625 
Q 47.609375 24.75 44.3125 27.78125 
Q 41.015625 30.8125 33.5 32.328125 
L 27.484375 33.5 
Q 16.453125 35.6875 11.515625 40.375 
Q 6.59375 45.0625 6.59375 53.421875 
Q 6.59375 63.09375 13.40625 68.65625 
Q 20.21875 74.21875 32.171875 74.21875 
Q 37.3125 74.21875 42.625 73.28125 
Q 47.953125 72.359375 53.515625 70.515625 
z
" id="DejaVuSans-83"/>
       <path d="M 34.28125 27.484375 
Q 23.390625 27.484375 19.1875 25 
Q 14.984375 22.515625 14.984375 16.5 
Q 14.984375 11.71875 18.140625 8.90625 
Q 21.296875 6.109375 26.703125 6.109375 
Q 34.1875 6.109375 38.703125 11.40625 
Q 43.21875 16.703125 43.21875 25.484375 
L 43.21875 27.484375 
z
M 52.203125 31.203125 
L 52.203125 0 
L 43.21875 0 
L 43.21875 8.296875 
Q 40.140625 3.328125 35.546875 0.953125 
Q 30.953125 -1.421875 24.3125 -1.421875 
Q 15.921875 -1.421875 10.953125 3.296875 
Q 6 8.015625 6 15.921875 
Q 6 25.140625 12.171875 29.828125 
Q 18.359375 34.515625 30.609375 34.515625 
L 43.21875 34.515625 
L 43.21875 35.40625 
Q 43.21875 41.609375 39.140625 45 
Q 35.0625 48.390625 27.6875 48.390625 
Q 23 48.390625 18.546875 47.265625 
Q 14.109375 46.140625 10.015625 43.890625 
L 10.015625 52.203125 
Q 14.9375 54.109375 19.578125 55.046875 
Q 24.21875 56 28.609375 56 
Q 40.484375 56 46.34375 49.84375 
Q 52.203125 43.703125 52.203125 31.203125 
z
" id="DejaVuSans-97"/>
       <path d="M 18.3125 70.21875 
L 18.3125 54.6875 
L 36.8125 54.6875 
L 36.8125 47.703125 
L 18.3125 47.703125 
L 18.3125 18.015625 
Q 18.3125 11.328125 20.140625 9.421875 
Q 21.96875 7.515625 27.59375 7.515625 
L 36.8125 7.515625 
L 36.8125 0 
L 27.59375 0 
Q 17.1875 0 13.234375 3.875 
Q 9.28125 7.765625 9.28125 18.015625 
L 9.28125 47.703125 
L 2.6875 47.703125 
L 2.6875 54.6875 
L 9.28125 54.6875 
L 9.28125 70.21875 
z
" id="DejaVuSans-116"/>
      </defs>
      <g transform="translate(975.204472 274.718437)scale(0.1 -0.1)">
       <use xlink:href="#DejaVuSans-83"/>
       <use x="63.476562" xlink:href="#DejaVuSans-97"/>
       <use x="124.755859" xlink:href="#DejaVuSans-116"/>
       <use x="163.964844" xlink:href="#DejaVuSans-32"/>
       <use x="195.751953" xlink:href="#DejaVuSans-48"/>
       <use x="259.375" xlink:href="#DejaVuSans-48"/>
       <use x="322.998047" xlink:href="#DejaVuSans-58"/>
       <use x="356.689453" xlink:href="#DejaVuSans-48"/>
       <use x="420.3125" xlink:href="#DejaVuSans-48"/>
      </g>
     </g>
    </g>
   </g>
   <g id="matplotlib.axis_2">
    <g id="ytick_1">
     <g id="line2d_6">
      <defs>
       <path d="M 0 0 
L -3.5 0 
" id="m72ac5399ae" style="stroke:#000000;stroke-width:0.8;"/>
      </defs>
      <g>
       <use style="stroke:#000000;stroke-width:0.8;" x="33.64" xlink:href="#m72ac5399ae" y="260.12"/>
      </g>
     </g>
     <g id="text_6">
      <!-- 0 -->
      <g transform="translate(20.2775 263.919219)scale(0.1 -0.1)">
       <use xlink:href="#DejaVuSans-48"/>
      </g>
     </g>
    </g>
    <g id="ytick_2">
     <g id="line2d_7">
      <g>
       <use style="stroke:#000000;stroke-width:0.8;" x="33.64" xlink:href="#m72ac5399ae" y="230.910476"/>
      </g>
     </g>
     <g id="text_7">
      <!-- 25 -->
      <defs>
       <path d="M 19.1875 8.296875 
L 53.609375 8.296875 
L 53.609375 0 
L 7.328125 0 
L 7.328125 8.296875 
Q 12.9375 14.109375 22.625 23.890625 
Q 32.328125 33.6875 34.8125 36.53125 
Q 39.546875 41.84375 41.421875 45.53125 
Q 43.3125 49.21875 43.3125 52.78125 
Q 43.3125 58.59375 39.234375 62.25 
Q 35.15625 65.921875 28.609375 65.921875 
Q 23.96875 65.921875 18.8125 64.3125 
Q 13.671875 62.703125 7.8125 59.421875 
L 7.8125 69.390625 
Q 13.765625 71.78125 18.9375 73 
Q 24.125 74.21875 28.421875 74.21875 
Q 39.75 74.21875 46.484375 68.546875 
Q 53.21875 62.890625 53.21875 53.421875 
Q 53.21875 48.921875 51.53125 44.890625 
Q 49.859375 40.875 45.40625 35.40625 
Q 44.1875 33.984375 37.640625 27.21875 
Q 31.109375 20.453125 19.1875 8.296875 
z
" id="DejaVuSans-50"/>
       <path d="M 10.796875 72.90625 
L 49.515625 72.90625 
L 49.515625 64.59375 
L 19.828125 64.59375 
L 19.828125 46.734375 
Q 21.96875 47.46875 24.109375 47.828125 
Q 26.265625 48.1875 28.421875 48.1875 
Q 40.625 48.1875 47.75 41.5 
Q 54.890625 34.8125 54.890625 23.390625 
Q 54.890625 11.625 47.5625 5.09375 
Q 40.234375 -1.421875 26.90625 -1.421875 
Q 22.3125 -1.421875 17.546875 -0.640625 
Q 12.796875 0.140625 7.71875 1.703125 
L 7.71875 11.625 
Q 12.109375 9.234375 16.796875 8.0625 
Q 21.484375 6.890625 26.703125 6.890625 
Q 35.15625 6.890625 40.078125 11.328125 
Q 45.015625 15.765625 45.015625 23.390625 
Q 45.015625 31 40.078125 35.4375 
Q 35.15625 39.890625 26.703125 39.890625 
Q 22.75 39.890625 18.8125 39.015625 
Q 14.890625 38.140625 10.796875 36.28125 
z
" id="DejaVuSans-53"/>
      </defs>
      <g transform="translate(13.915 234.709695)scale(0.1 -0.1)">
       <use xlink:href="#DejaVuSans-50"/>
       <use x="63.623047" xlink:href="#DejaVuSans-53"/>
      </g>
     </g>
    </g>
    <g id="ytick_3">
     <g id="line2d_8">
      <g>
       <use style="stroke:#000000;stroke-width:0.8;" x="33.64" xlink:href="#m72ac5399ae" y="201.700952"/>
      </g>
     </g>
     <g id="text_8">
      <!-- 50 -->
      <g transform="translate(13.915 205.500171)scale(0.1 -0.1)">
       <use xlink:href="#DejaVuSans-53"/>
       <use x="63.623047" xlink:href="#DejaVuSans-48"/>
      </g>
     </g>
    </g>
    <g id="ytick_4">
     <g id="line2d_9">
      <g>
       <use style="stroke:#000000;stroke-width:0.8;" x="33.64" xlink:href="#m72ac5399ae" y="172.491429"/>
      </g>
     </g>
     <g id="text_9">
      <!-- 75 -->
      <defs>
       <path d="M 8.203125 72.90625 
L 55.078125 72.90625 
L 55.078125 68.703125 
L 28.609375 0 
L 18.3125 0 
L 43.21875 64.59375 
L 8.203125 64.59375 
z
" id="DejaVuSans-55"/>
      </defs>
      <g transform="translate(13.915 176.290647)scale(0.1 -0.1)">
       <use xlink:href="#DejaVuSans-55"/>
       <use x="63.623047" xlink:href="#DejaVuSans-53"/>
      </g>
     </g>
    </g>
    <g id="ytick_5">
     <g id="line2d_10">
      <g>
       <use style="stroke:#000000;stroke-width:0.8;" x="33.64" xlink:href="#m72ac5399ae" y="143.281905"/>
      </g>
     </g>
     <g id="text_10">
      <!-- 100 -->
      <defs>
       <path d="M 12.40625 8.296875 
L 28.515625 8.296875 
L 28.515625 63.921875 
L 10.984375 60.40625 
L 10.984375 69.390625 
L 28.421875 72.90625 
L 38.28125 72.90625 
L 38.28125 8.296875 
L 54.390625 8.296875 
L 54.390625 0 
L 12.40625 0 
z
" id="DejaVuSans-49"/>
      </defs>
      <g transform="translate(7.5525 147.081124)scale(0.1 -0.1)">
       <use xlink:href="#DejaVuSans-49"/>
       <use x="63.623047" xlink:href="#DejaVuSans-48"/>
       <use x="127.246094" xlink:href="#DejaVuSans-48"/>
      </g>
     </g>
    </g>
    <g id="ytick_6">
     <g id="line2d_11">
      <g>
       <use style="stroke:#000000;stroke-width:0.8;" x="33.64" xlink:href="#m72ac5399ae" y="114.072381"/>
      </g>
     </g>
     <g id="text_11">
      <!-- 125 -->
      <g transform="translate(7.5525 117.8716)scale(0.1 -0.1)">
       <use xlink:href="#DejaVuSans-49"/>
       <use x="63.623047" xlink:href="#DejaVuSans-50"/>
       <use x="127.246094" xlink:href="#DejaVuSans-53"/>
      </g>
     </g>
    </g>
    <g id="ytick_7">
     <g id="line2d_12">
      <g>
       <use style="stroke:#000000;stroke-width:0.8;" x="33.64" xlink:href="#m72ac5399ae" y="84.862857"/>
      </g>
     </g>
     <g id="text_12">
      <!-- 150 -->
      <g transform="translate(7.5525 88.662076)scale(0.1 -0.1)">
       <use xlink:href="#DejaVuSans-49"/>
       <use x="63.623047" xlink:href="#DejaVuSans-53"/>
       <use x="127.246094" xlink:href="#DejaVuSans-48"/>
      </g>
     </g>
    </g>
    <g id="ytick_8">
     <g id="line2d_13">
      <g>
       <use style="stroke:#000000;stroke-width:0.8;" x="33.64" xlink:href="#m72ac5399ae" y="55.653333"/>
      </g>
     </g>
     <g id="text_13">
      <!-- 175 -->
      <g transform="translate(7.5525 59.452552)scale(0.1 -0.1)">
       <use xlink:href="#DejaVuSans-49"/>
       <use x="63.623047" xlink:href="#DejaVuSans-55"/>
       <use x="127.246094" xlink:href="#DejaVuSans-53"/>
      </g>
     </g>
    </g>
    <g id="ytick_9">
     <g id="line2d_14">
      <g>
       <use style="stroke:#000000;stroke-width:0.8;" x="33.64" xlink:href="#m72ac5399ae" y="26.44381"/>
      </g>
     </g>
     <g id="text_14">
      <!-- 200 -->
      <g transform="translate(7.5525 30.243028)scale(0.1 -0.1)">
       <use xlink:href="#DejaVuSans-50"/>
       <use x="63.623047" xlink:href="#DejaVuSans-48"/>
       <use x="127.246094" xlink:href="#DejaVuSans-48"/>
      </g>
     </g>
    </g>
   </g>
   <g id="line2d_15">
    <path clip-path="url(#pf9f74df302)" d="M 33.64 225.068571 
L 105.624977 225.068571 
L 107.009535 220.395048 
L 108.392796 220.395048 
L 109.775375 218.058286 
L 111.155412 218.058286 
L 112.5353 211.048 
L 113.918122 211.048 
L 115.298531 200.532571 
L 116.67845 195.859048 
L 118.059689 195.859048 
L 119.440606 186.512 
L 120.820846 179.501714 
L 122.204102 177.164952 
L 129.120596 177.164952 
L 130.501731 183.006857 
L 131.885356 190.017143 
L 133.265296 190.017143 
L 134.645204 195.859048 
L 136.027955 195.859048 
L 137.408346 200.532571 
L 138.790368 195.859048 
L 140.17282 195.859048 
L 141.553421 193.522286 
L 142.933597 192.353905 
L 144.313651 188.848762 
L 145.693839 188.848762 
L 147.075184 187.680381 
L 148.457409 191.185524 
L 149.837396 191.185524 
L 151.22084 188.848762 
L 152.601212 185.343619 
L 153.981211 185.343619 
L 155.363984 183.006857 
L 156.744483 185.343619 
L 159.504656 185.343619 
L 160.887522 178.333333 
L 162.268686 177.164952 
L 163.651799 177.164952 
L 165.034678 179.501714 
L 166.417739 173.65981 
L 167.802808 173.65981 
L 169.186309 170.154667 
L 170.572914 170.154667 
L 171.955818 175.996571 
L 173.335878 165.481143 
L 174.71618 153.797333 
L 176.096197 153.797333 
L 177.476289 147.955429 
L 178.856931 138.608381 
L 180.237179 138.608381 
L 181.61812 124.58781 
L 183.00008 108.230476 
L 184.380216 108.230476 
L 185.76397 90.704762 
L 187.144901 79.020952 
L 188.524868 60.326857 
L 189.906 60.326857 
L 191.286264 52.14819 
L 192.666107 83.694476 
L 195.428329 83.694476 
L 196.811564 86.031238 
L 198.192033 86.031238 
L 199.575401 88.368 
L 200.956706 89.536381 
L 202.337148 89.536381 
L 203.719512 105.893714 
L 205.105214 119.914286 
L 206.486263 119.914286 
L 207.868853 133.934857 
L 209.251904 153.797333 
L 210.635896 153.797333 
L 212.017134 161.976 
L 213.399648 168.986286 
L 214.780093 172.491429 
L 216.163378 172.491429 
L 217.54699 184.175238 
L 218.927849 192.353905 
L 220.30839 192.353905 
L 221.693282 260.12 
L 300.582874 260.12 
L 301.965337 241.425905 
L 303.34845 236.752381 
L 304.73136 236.752381 
L 306.11268 233.247238 
L 307.493344 222.73181 
L 308.875623 222.73181 
L 310.257773 213.384762 
L 311.640965 211.048 
L 313.024623 211.048 
L 314.411216 207.542857 
L 315.796071 205.206095 
L 317.179336 205.206095 
L 318.559328 202.869333 
L 319.94524 201.700952 
L 322.712351 201.700952 
L 324.092077 215.721524 
L 325.473924 216.889905 
L 326.857392 214.553143 
L 328.238018 216.889905 
L 329.619326 216.889905 
L 332.471973 205.206095 
L 335.322632 208.711238 
L 338.221598 208.711238 
L 339.60143 211.048 
L 340.98309 211.048 
L 342.363456 213.384762 
L 343.743499 212.216381 
L 345.126428 212.216381 
L 346.509168 207.542857 
L 349.271217 207.542857 
L 350.651425 202.869333 
L 352.035077 205.206095 
L 353.415343 205.206095 
L 354.796547 201.700952 
L 356.177412 191.185524 
L 357.558194 186.512 
L 358.938192 186.512 
L 360.318788 185.343619 
L 361.699393 173.65981 
L 363.082799 173.65981 
L 364.464626 172.491429 
L 365.847568 181.838476 
L 367.228083 181.838476 
L 369.990327 158.470857 
L 371.371176 158.470857 
L 372.754162 153.797333 
L 374.135369 150.29219 
L 375.516092 150.29219 
L 376.898574 154.965714 
L 378.280061 158.470857 
L 379.660827 158.470857 
L 381.044139 144.450286 
L 382.427666 135.103238 
L 383.808997 130.429714 
L 385.189923 130.429714 
L 386.571121 116.409143 
L 387.952124 116.409143 
L 390.718246 114.072381 
L 392.101254 110.567238 
L 393.485117 110.567238 
L 394.866704 112.904 
L 396.249425 117.577524 
L 397.630383 117.577524 
L 399.013552 126.924571 
L 400.394464 142.113524 
L 401.776915 152.628952 
L 403.159119 152.628952 
L 404.539093 159.639238 
L 405.924722 159.639238 
L 407.304817 170.154667 
L 408.687158 178.333333 
L 410.070307 178.333333 
L 411.450967 186.512 
L 412.834394 187.680381 
L 414.216754 190.017143 
L 415.597174 190.017143 
L 416.977044 260.12 
L 491.739337 260.12 
L 494.477194 248.43619 
L 495.857105 248.43619 
L 497.237639 242.594286 
L 498.618255 237.920762 
L 499.998161 237.920762 
L 501.379066 228.573714 
L 502.760246 228.573714 
L 504.140745 223.90019 
L 505.520491 220.395048 
L 506.901547 220.395048 
L 508.281967 225.068571 
L 509.663795 225.068571 
L 511.045405 227.405333 
L 512.428655 227.405333 
L 513.812506 226.236952 
L 515.195647 223.90019 
L 516.576039 223.90019 
L 517.956931 220.395048 
L 519.337223 229.742095 
L 522.099878 229.742095 
L 523.483048 227.405333 
L 524.864937 227.405333 
L 526.245532 218.058286 
L 527.628084 218.058286 
L 529.00973 212.216381 
L 531.772814 212.216381 
L 534.53607 207.542857 
L 535.92492 207.542857 
L 537.309094 201.700952 
L 538.693929 201.700952 
L 540.074542 202.869333 
L 541.455023 200.532571 
L 542.834725 200.532571 
L 544.214728 191.185524 
L 546.975999 191.185524 
L 548.379035 188.848762 
L 549.759822 188.848762 
L 551.139753 179.501714 
L 552.524901 179.501714 
L 553.906898 177.164952 
L 555.287838 171.323048 
L 556.671461 171.323048 
L 558.051368 161.976 
L 559.433239 145.618667 
L 560.813379 117.577524 
L 562.194242 117.577524 
L 563.575987 109.398857 
L 564.956205 88.368 
L 566.336903 88.368 
L 567.721086 66.168762 
L 569.102637 52.14819 
L 570.483359 52.14819 
L 571.863457 42.801143 
L 573.244277 48.643048 
L 574.627689 48.643048 
L 576.010713 35.790857 
L 577.390712 33.454095 
L 578.773498 33.454095 
L 580.158294 34.622476 
L 581.541508 27.61219 
L 582.928228 27.61219 
L 584.30842 33.454095 
L 585.69146 38.127619 
L 587.071316 38.127619 
L 588.455433 48.643048 
L 589.834969 50.97981 
L 591.215675 72.010667 
L 592.595635 72.010667 
L 593.978678 89.536381 
L 595.3592 89.536381 
L 596.740419 104.725333 
L 598.121719 132.766476 
L 599.503581 140.945143 
L 600.887858 140.945143 
L 602.270664 165.481143 
L 603.650201 177.164952 
L 605.031169 177.164952 
L 606.414855 183.006857 
L 607.796512 194.690667 
L 610.560936 194.690667 
L 611.942292 260.12 
L 686.697188 260.12 
L 688.07882 253.109714 
L 689.461329 253.109714 
L 690.842156 249.604571 
L 692.225502 244.931048 
L 693.605241 244.931048 
L 694.986209 239.089143 
L 696.36818 236.752381 
L 697.749004 236.752381 
L 700.509664 229.742095 
L 701.89302 229.742095 
L 703.275176 233.247238 
L 704.658955 232.078857 
L 706.040355 228.573714 
L 707.422754 228.573714 
L 708.803467 229.742095 
L 710.183743 227.405333 
L 711.567894 227.405333 
L 712.949264 221.563429 
L 714.32911 219.226667 
L 715.71564 219.226667 
L 717.09554 214.553143 
L 718.476141 208.711238 
L 719.856609 208.711238 
L 721.237327 212.216381 
L 722.61843 214.553143 
L 724.00184 214.553143 
L 725.383996 208.711238 
L 726.764504 213.384762 
L 729.526689 213.384762 
L 730.908075 209.879619 
L 732.29199 199.36419 
L 733.671781 199.36419 
L 736.437321 197.027429 
L 737.818114 197.027429 
L 740.583246 185.343619 
L 743.348699 185.343619 
L 744.728907 180.670095 
L 746.110628 180.670095 
L 747.492072 170.154667 
L 748.874118 165.481143 
L 750.254184 165.481143 
L 751.635156 158.470857 
L 753.015361 142.113524 
L 754.395934 128.092952 
L 755.775935 128.092952 
L 757.160164 103.556952 
L 758.546336 107.062095 
L 759.929878 107.062095 
L 761.312698 102.388571 
L 762.695802 80.189333 
L 764.076012 80.189333 
L 765.457186 66.168762 
L 766.837154 60.326857 
L 768.217242 60.326857 
L 769.600105 61.495238 
L 770.982074 48.643048 
L 772.36276 45.137905 
L 773.746007 45.137905 
L 775.126543 63.832 
L 776.507012 72.010667 
L 777.888278 72.010667 
L 779.269677 83.694476 
L 780.650751 90.704762 
L 782.033944 90.704762 
L 783.413809 95.378286 
L 784.80425 107.062095 
L 786.189168 107.062095 
L 787.56994 114.072381 
L 788.949896 129.261333 
L 790.331486 129.261333 
L 793.091983 157.302476 
L 794.476513 157.302476 
L 795.860134 161.976 
L 797.242936 177.164952 
L 798.625407 177.164952 
L 800.007619 184.175238 
L 801.389253 260.12 
L 880.299826 260.12 
L 881.680176 248.43619 
L 883.063381 242.594286 
L 884.447444 242.594286 
L 885.827473 234.415619 
L 887.20712 234.415619 
L 888.587915 222.73181 
L 889.967927 219.226667 
L 891.35047 214.553143 
L 892.734021 214.553143 
L 895.502023 205.206095 
L 896.885175 205.206095 
L 898.26653 201.700952 
L 899.649226 199.36419 
L 901.030466 205.206095 
L 902.411647 205.206095 
L 903.792041 207.542857 
L 905.17555 211.048 
L 906.557991 211.048 
L 907.942955 219.226667 
L 909.32406 219.226667 
L 910.704893 218.058286 
L 913.466761 218.058286 
L 914.846924 221.563429 
L 916.227789 218.058286 
L 918.989551 218.058286 
L 920.370546 221.563429 
L 921.751604 222.73181 
L 923.131768 222.73181 
L 925.895035 211.048 
L 927.275054 208.711238 
L 928.65738 208.711238 
L 930.037078 205.206095 
L 931.417323 209.879619 
L 932.797467 209.879619 
L 934.178207 202.869333 
L 935.560337 202.869333 
L 936.941832 195.859048 
L 938.322457 197.027429 
L 939.703879 192.353905 
L 941.084996 192.353905 
L 942.466211 187.680381 
L 943.848239 181.838476 
L 945.228527 181.838476 
L 946.609814 183.006857 
L 947.991481 178.333333 
L 949.374763 183.006857 
L 950.757813 183.006857 
L 952.138592 177.164952 
L 953.519974 177.164952 
L 954.903503 186.512 
L 956.287209 181.838476 
L 957.668416 181.838476 
L 959.049499 184.175238 
L 960.432015 188.848762 
L 961.812995 186.512 
L 963.196504 186.512 
L 964.576312 183.006857 
L 965.959517 177.164952 
L 967.342016 177.164952 
L 968.722398 178.333333 
L 970.102439 187.680381 
L 971.482358 187.680381 
L 972.863932 186.512 
L 975.629783 186.512 
L 977.012889 188.848762 
L 979.776734 188.848762 
L 981.160021 200.532571 
L 982.541305 200.532571 
L 983.922204 205.206095 
L 985.304542 205.206095 
L 986.687795 206.374476 
L 988.071262 206.374476 
L 989.454144 207.542857 
L 990.836794 209.879619 
L 994.987606 209.879619 
L 996.368599 260.12 
L 1072.503828 260.12 
L 1073.884462 258.951619 
L 1075.265126 254.278095 
L 1076.647095 243.762667 
L 1078.029369 243.762667 
L 1080.793604 236.752381 
L 1082.176071 236.752381 
L 1083.558365 229.742095 
L 1084.940834 220.395048 
L 1086.321748 220.395048 
L 1087.70204 218.058286 
L 1089.082524 216.889905 
L 1090.466063 216.889905 
L 1091.84844 206.374476 
L 1093.229203 206.374476 
L 1094.609394 198.19581 
L 1095.991154 198.19581 
L 1097.371478 195.859048 
L 1100.130963 195.859048 
L 1101.516363 197.027429 
L 1102.897121 204.037714 
L 1104.28179 204.037714 
L 1105.661555 200.532571 
L 1107.042097 199.36419 
L 1108.422545 199.36419 
L 1109.803037 194.690667 
L 1111.183578 192.353905 
L 1112.563704 192.353905 
L 1113.944038 199.36419 
L 1115.324681 198.19581 
L 1116.706814 198.19581 
L 1118.087158 199.36419 
L 1119.466874 204.037714 
L 1120.847127 204.037714 
L 1122.229873 206.374476 
L 1124.993706 197.027429 
L 1126.375716 197.027429 
L 1127.754995 198.19581 
L 1129.135867 197.027429 
L 1130.518513 197.027429 
L 1131.899053 205.206095 
L 1133.28 211.048 
L 1133.28 211.048 
" style="fill:none;stroke:#1f77b4;stroke-linecap:square;stroke-width:1.5;"/>
   </g>
   <g id="patch_3">
    <path d="M 33.64 260.12 
L 33.64 14.76 
" style="fill:none;stroke:#000000;stroke-linecap:square;stroke-linejoin:miter;stroke-width:0.8;"/>
   </g>
   <g id="patch_4">
    <path d="M 1133.28 260.12 
L 1133.28 14.76 
" style="fill:none;stroke:#000000;stroke-linecap:square;stroke-linejoin:miter;stroke-width:0.8;"/>
   </g>
   <g id="patch_5">
    <path d="M 33.64 260.12 
L 1133.28 260.12 
" style="fill:none;stroke:#000000;stroke-linecap:square;stroke-linejoin:miter;stroke-width:0.8;"/>
   </g>
   <g id="patch_6">
    <path d="M 33.64 14.76 
L 1133.28 14.76 
" style="fill:none;stroke:#000000;stroke-linecap:square;stroke-linejoin:miter;stroke-width:0.8;"/>
   </g>
  </g>
 </g>
 <defs>
  <clipPath id="pf9f74df302">
   <rect height="245.36" width="1099.64" x="33.64" y="14.76"/>
  </clipPath>
 </defs>
</svg>
