<?xml version="1.0" encoding="utf-8" standalone="no"?>
<!DOCTYPE svg PUBLIC "-//W3C//DTD SVG 1.1//EN"
  "http://www.w3.org/Graphics/SVG/1.1/DTD/svg11.dtd">
<!-- Created with matplotlib (https://matplotlib.org/) -->
<svg height="288pt" version="1.1" viewBox="0 0 1152 288" width="1152pt" xmlns="http://www.w3.org/2000/svg" xmlns:xlink="http://www.w3.org/1999/xlink">
 <defs>
  <style type="text/css">
*{stroke-linecap:butt;stroke-linejoin:round;}
  </style>
 </defs>
 <g id="figure_1">
  <g id="patch_1">
   <path d="M 0 288 
L 1152 288 
L 1152 0 
L 0 0 
z
" style="fill:#ffffff;"/>
  </g>
  <g id="axes_1">
   <g id="patch_2">
    <path d="M 33.64 260.12 
L 1133.28 260.12 
L 1133.28 14.76 
L 33.64 14.76 
z
" style="fill:#ffffff;"/>
   </g>
   <g id="matplotlib.axis_1">
    <g id="xtick_1">
     <g id="line2d_1">
      <defs>
       <path d="M 0 0 
L 0 3.5 
" id="m4cd6af6cdc" style="stroke:#000000;stroke-width:0.8;"/>
      </defs>
      <g>
       <use style="stroke:#000000;stroke-width:0.8;" x="219.725244" xlink:href="#m4cd6af6cdc" y="260.12"/>
      </g>
     </g>
     <g id="text_1">
      <!-- Tue 00:00 -->
      <defs>
       <path d="M -0.296875 72.90625 
L 61.375 72.90625 
L 61.375 64.59375 
L 35.5 64.59375 
L 35.5 0 
L 25.59375 0 
L 25.59375 64.59375 
L -0.296875 64.59375 
z
" id="DejaVuSans-84"/>
       <path d="M 8.5 21.578125 
L 8.5 54.6875 
L 17.484375 54.6875 
L 17.484375 21.921875 
Q 17.484375 14.15625 20.5 10.265625 
Q 23.53125 6.390625 29.59375 6.390625 
Q 36.859375 6.390625 41.078125 11.03125 
Q 45.3125 15.671875 45.3125 23.6875 
L 45.3125 54.6875 
L 54.296875 54.6875 
L 54.296875 0 
L 45.3125 0 
L 45.3125 8.40625 
Q 42.046875 3.421875 37.71875 1 
Q 33.40625 -1.421875 27.6875 -1.421875 
Q 18.265625 -1.421875 13.375 4.4375 
Q 8.5 10.296875 8.5 21.578125 
z
M 31.109375 56 
z
" id="DejaVuSans-117"/>
       <path d="M 56.203125 29.59375 
L 56.203125 25.203125 
L 14.890625 25.203125 
Q 15.484375 15.921875 20.484375 11.0625 
Q 25.484375 6.203125 34.421875 6.203125 
Q 39.59375 6.203125 44.453125 7.46875 
Q 49.3125 8.734375 54.109375 11.28125 
L 54.109375 2.78125 
Q 49.265625 0.734375 44.1875 -0.34375 
Q 39.109375 -1.421875 33.890625 -1.421875 
Q 20.796875 -1.421875 13.15625 6.1875 
Q 5.515625 13.8125 5.515625 26.8125 
Q 5.515625 40.234375 12.765625 48.109375 
Q 20.015625 56 32.328125 56 
Q 43.359375 56 49.78125 48.890625 
Q 56.203125 41.796875 56.203125 29.59375 
z
M 47.21875 32.234375 
Q 47.125 39.59375 43.09375 43.984375 
Q 39.0625 48.390625 32.421875 48.390625 
Q 24.90625 48.390625 20.390625 44.140625 
Q 15.875 39.890625 15.1875 32.171875 
z
" id="DejaVuSans-101"/>
       <path id="DejaVuSans-32"/>
       <path d="M 31.78125 66.40625 
Q 24.171875 66.40625 20.328125 58.90625 
Q 16.5 51.421875 16.5 36.375 
Q 16.5 21.390625 20.328125 13.890625 
Q 24.171875 6.390625 31.78125 6.390625 
Q 39.453125 6.390625 43.28125 13.890625 
Q 47.125 21.390625 47.125 36.375 
Q 47.125 51.421875 43.28125 58.90625 
Q 39.453125 66.40625 31.78125 66.40625 
z
M 31.78125 74.21875 
Q 44.046875 74.21875 50.515625 64.515625 
Q 56.984375 54.828125 56.984375 36.375 
Q 56.984375 17.96875 50.515625 8.265625 
Q 44.046875 -1.421875 31.78125 -1.421875 
Q 19.53125 -1.421875 13.0625 8.265625 
Q 6.59375 17.96875 6.59375 36.375 
Q 6.59375 54.828125 13.0625 64.515625 
Q 19.53125 74.21875 31.78125 74.21875 
z
" id="DejaVuSans-48"/>
       <path d="M 11.71875 12.40625 
L 22.015625 12.40625 
L 22.015625 0 
L 11.71875 0 
z
M 11.71875 51.703125 
L 22.015625 51.703125 
L 22.015625 39.3125 
L 11.71875 39.3125 
z
" id="DejaVuSans-58"/>
      </defs>
      <g transform="translate(194.439307 274.718437)scale(0.1 -0.1)">
       <use xlink:href="#DejaVuSans-84"/>
       <use x="60.849609" xlink:href="#DejaVuSans-117"/>
       <use x="124.228516" xlink:href="#DejaVuSans-101"/>
       <use x="185.751953" xlink:href="#DejaVuSans-32"/>
       <use x="217.539062" xlink:href="#DejaVuSans-48"/>
       <use x="281.162109" xlink:href="#DejaVuSans-48"/>
       <use x="344.785156" xlink:href="#DejaVuSans-58"/>
       <use x="378.476562" xlink:href="#DejaVuSans-48"/>
       <use x="442.099609" xlink:href="#DejaVuSans-48"/>
      </g>
     </g>
    </g>
    <g id="xtick_2">
     <g id="line2d_2">
      <g>
       <use style="stroke:#000000;stroke-width:0.8;" x="405.999306" xlink:href="#m4cd6af6cdc" y="260.12"/>
      </g>
     </g>
     <g id="text_2">
      <!-- Wed 00:00 -->
      <defs>
       <path d="M 3.328125 72.90625 
L 13.28125 72.90625 
L 28.609375 11.28125 
L 43.890625 72.90625 
L 54.984375 72.90625 
L 70.3125 11.28125 
L 85.59375 72.90625 
L 95.609375 72.90625 
L 77.296875 0 
L 64.890625 0 
L 49.515625 63.28125 
L 33.984375 0 
L 21.578125 0 
z
" id="DejaVuSans-87"/>
       <path d="M 45.40625 46.390625 
L 45.40625 75.984375 
L 54.390625 75.984375 
L 54.390625 0 
L 45.40625 0 
L 45.40625 8.203125 
Q 42.578125 3.328125 38.25 0.953125 
Q 33.9375 -1.421875 27.875 -1.421875 
Q 17.96875 -1.421875 11.734375 6.484375 
Q 5.515625 14.40625 5.515625 27.296875 
Q 5.515625 40.1875 11.734375 48.09375 
Q 17.96875 56 27.875 56 
Q 33.9375 56 38.25 53.625 
Q 42.578125 51.265625 45.40625 46.390625 
z
M 14.796875 27.296875 
Q 14.796875 17.390625 18.875 11.75 
Q 22.953125 6.109375 30.078125 6.109375 
Q 37.203125 6.109375 41.296875 11.75 
Q 45.40625 17.390625 45.40625 27.296875 
Q 45.40625 37.203125 41.296875 42.84375 
Q 37.203125 48.484375 30.078125 48.484375 
Q 22.953125 48.484375 18.875 42.84375 
Q 14.796875 37.203125 14.796875 27.296875 
z
" id="DejaVuSans-100"/>
      </defs>
      <g transform="translate(378.810243 274.718437)scale(0.1 -0.1)">
       <use xlink:href="#DejaVuSans-87"/>
       <use x="98.798828" xlink:href="#DejaVuSans-101"/>
       <use x="160.322266" xlink:href="#DejaVuSans-100"/>
       <use x="223.798828" xlink:href="#DejaVuSans-32"/>
       <use x="255.585938" xlink:href="#DejaVuSans-48"/>
       <use x="319.208984" xlink:href="#DejaVuSans-48"/>
       <use x="382.832031" xlink:href="#DejaVuSans-58"/>
       <use x="416.523438" xlink:href="#DejaVuSans-48"/>
       <use x="480.146484" xlink:href="#DejaVuSans-48"/>
      </g>
     </g>
    </g>
    <g id="xtick_3">
     <g id="line2d_3">
      <g>
       <use style="stroke:#000000;stroke-width:0.8;" x="592.273368" xlink:href="#m4cd6af6cdc" y="260.12"/>
      </g>
     </g>
     <g id="text_3">
      <!-- Thu 00:00 -->
      <defs>
       <path d="M 54.890625 33.015625 
L 54.890625 0 
L 45.90625 0 
L 45.90625 32.71875 
Q 45.90625 40.484375 42.875 44.328125 
Q 39.84375 48.1875 33.796875 48.1875 
Q 26.515625 48.1875 22.3125 43.546875 
Q 18.109375 38.921875 18.109375 30.90625 
L 18.109375 0 
L 9.078125 0 
L 9.078125 75.984375 
L 18.109375 75.984375 
L 18.109375 46.1875 
Q 21.34375 51.125 25.703125 53.5625 
Q 30.078125 56 35.796875 56 
Q 45.21875 56 50.046875 50.171875 
Q 54.890625 44.34375 54.890625 33.015625 
z
" id="DejaVuSans-104"/>
      </defs>
      <g transform="translate(566.883524 274.718437)scale(0.1 -0.1)">
       <use xlink:href="#DejaVuSans-84"/>
       <use x="61.083984" xlink:href="#DejaVuSans-104"/>
       <use x="124.462891" xlink:href="#DejaVuSans-117"/>
       <use x="187.841797" xlink:href="#DejaVuSans-32"/>
       <use x="219.628906" xlink:href="#DejaVuSans-48"/>
       <use x="283.251953" xlink:href="#DejaVuSans-48"/>
       <use x="346.875" xlink:href="#DejaVuSans-58"/>
       <use x="380.566406" xlink:href="#DejaVuSans-48"/>
       <use x="444.189453" xlink:href="#DejaVuSans-48"/>
      </g>
     </g>
    </g>
    <g id="xtick_4">
     <g id="line2d_4">
      <g>
       <use style="stroke:#000000;stroke-width:0.8;" x="778.54743" xlink:href="#m4cd6af6cdc" y="260.12"/>
      </g>
     </g>
     <g id="text_4">
      <!-- Fri 00:00 -->
      <defs>
       <path d="M 9.8125 72.90625 
L 51.703125 72.90625 
L 51.703125 64.59375 
L 19.671875 64.59375 
L 19.671875 43.109375 
L 48.578125 43.109375 
L 48.578125 34.8125 
L 19.671875 34.8125 
L 19.671875 0 
L 9.8125 0 
z
" id="DejaVuSans-70"/>
       <path d="M 41.109375 46.296875 
Q 39.59375 47.171875 37.8125 47.578125 
Q 36.03125 48 33.890625 48 
Q 26.265625 48 22.1875 43.046875 
Q 18.109375 38.09375 18.109375 28.8125 
L 18.109375 0 
L 9.078125 0 
L 9.078125 54.6875 
L 18.109375 54.6875 
L 18.109375 46.1875 
Q 20.953125 51.171875 25.484375 53.578125 
Q 30.03125 56 36.53125 56 
Q 37.453125 56 38.578125 55.875 
Q 39.703125 55.765625 41.0625 55.515625 
z
" id="DejaVuSans-114"/>
       <path d="M 9.421875 54.6875 
L 18.40625 54.6875 
L 18.40625 0 
L 9.421875 0 
z
M 9.421875 75.984375 
L 18.40625 75.984375 
L 18.40625 64.59375 
L 9.421875 64.59375 
z
" id="DejaVuSans-105"/>
      </defs>
      <g transform="translate(756.234148 274.718437)scale(0.1 -0.1)">
       <use xlink:href="#DejaVuSans-70"/>
       <use x="57.410156" xlink:href="#DejaVuSans-114"/>
       <use x="98.523438" xlink:href="#DejaVuSans-105"/>
       <use x="126.306641" xlink:href="#DejaVuSans-32"/>
       <use x="158.09375" xlink:href="#DejaVuSans-48"/>
       <use x="221.716797" xlink:href="#DejaVuSans-48"/>
       <use x="285.339844" xlink:href="#DejaVuSans-58"/>
       <use x="319.03125" xlink:href="#DejaVuSans-48"/>
       <use x="382.654297" xlink:href="#DejaVuSans-48"/>
      </g>
     </g>
    </g>
    <g id="xtick_5">
     <g id="line2d_5">
      <g>
       <use style="stroke:#000000;stroke-width:0.8;" x="964.821491" xlink:href="#m4cd6af6cdc" y="260.12"/>
      </g>
     </g>
     <g id="text_5">
      <!-- Sat 00:00 -->
      <defs>
       <path d="M 53.515625 70.515625 
L 53.515625 60.890625 
Q 47.90625 63.578125 42.921875 64.890625 
Q 37.9375 66.21875 33.296875 66.21875 
Q 25.25 66.21875 20.875 63.09375 
Q 16.5 59.96875 16.5 54.203125 
Q 16.5 49.359375 19.40625 46.890625 
Q 22.3125 44.4375 30.421875 42.921875 
L 36.375 41.703125 
Q 47.40625 39.59375 52.65625 34.296875 
Q 57.90625 29 57.90625 20.125 
Q 57.90625 9.515625 50.796875 4.046875 
Q 43.703125 -1.421875 29.984375 -1.421875 
Q 24.8125 -1.421875 18.96875 -0.25 
Q 13.140625 0.921875 6.890625 3.21875 
L 6.890625 13.375 
Q 12.890625 10.015625 18.65625 8.296875 
Q 24.421875 6.59375 29.984375 6.59375 
Q 38.421875 6.59375 43.015625 9.90625 
Q 47.609375 13.234375 47.609375 19.390625 
Q 47.609375 24.75 44.3125 27.78125 
Q 41.015625 30.8125 33.5 32.328125 
L 27.484375 33.5 
Q 16.453125 35.6875 11.515625 40.375 
Q 6.59375 45.0625 6.59375 53.421875 
Q 6.59375 63.09375 13.40625 68.65625 
Q 20.21875 74.21875 32.171875 74.21875 
Q 37.3125 74.21875 42.625 73.28125 
Q 47.953125 72.359375 53.515625 70.515625 
z
" id="DejaVuSans-83"/>
       <path d="M 34.28125 27.484375 
Q 23.390625 27.484375 19.1875 25 
Q 14.984375 22.515625 14.984375 16.5 
Q 14.984375 11.71875 18.140625 8.90625 
Q 21.296875 6.109375 26.703125 6.109375 
Q 34.1875 6.109375 38.703125 11.40625 
Q 43.21875 16.703125 43.21875 25.484375 
L 43.21875 27.484375 
z
M 52.203125 31.203125 
L 52.203125 0 
L 43.21875 0 
L 43.21875 8.296875 
Q 40.140625 3.328125 35.546875 0.953125 
Q 30.953125 -1.421875 24.3125 -1.421875 
Q 15.921875 -1.421875 10.953125 3.296875 
Q 6 8.015625 6 15.921875 
Q 6 25.140625 12.171875 29.828125 
Q 18.359375 34.515625 30.609375 34.515625 
L 43.21875 34.515625 
L 43.21875 35.40625 
Q 43.21875 41.609375 39.140625 45 
Q 35.0625 48.390625 27.6875 48.390625 
Q 23 48.390625 18.546875 47.265625 
Q 14.109375 46.140625 10.015625 43.890625 
L 10.015625 52.203125 
Q 14.9375 54.109375 19.578125 55.046875 
Q 24.21875 56 28.609375 56 
Q 40.484375 56 46.34375 49.84375 
Q 52.203125 43.703125 52.203125 31.203125 
z
" id="DejaVuSans-97"/>
       <path d="M 18.3125 70.21875 
L 18.3125 54.6875 
L 36.8125 54.6875 
L 36.8125 47.703125 
L 18.3125 47.703125 
L 18.3125 18.015625 
Q 18.3125 11.328125 20.140625 9.421875 
Q 21.96875 7.515625 27.59375 7.515625 
L 36.8125 7.515625 
L 36.8125 0 
L 27.59375 0 
Q 17.1875 0 13.234375 3.875 
Q 9.28125 7.765625 9.28125 18.015625 
L 9.28125 47.703125 
L 2.6875 47.703125 
L 2.6875 54.6875 
L 9.28125 54.6875 
L 9.28125 70.21875 
z
" id="DejaVuSans-116"/>
      </defs>
      <g transform="translate(940.624616 274.718437)scale(0.1 -0.1)">
       <use xlink:href="#DejaVuSans-83"/>
       <use x="63.476562" xlink:href="#DejaVuSans-97"/>
       <use x="124.755859" xlink:href="#DejaVuSans-116"/>
       <use x="163.964844" xlink:href="#DejaVuSans-32"/>
       <use x="195.751953" xlink:href="#DejaVuSans-48"/>
       <use x="259.375" xlink:href="#DejaVuSans-48"/>
       <use x="322.998047" xlink:href="#DejaVuSans-58"/>
       <use x="356.689453" xlink:href="#DejaVuSans-48"/>
       <use x="420.3125" xlink:href="#DejaVuSans-48"/>
      </g>
     </g>
    </g>
   </g>
   <g id="matplotlib.axis_2">
    <g id="ytick_1">
     <g id="line2d_6">
      <defs>
       <path d="M 0 0 
L -3.5 0 
" id="m22f868595d" style="stroke:#000000;stroke-width:0.8;"/>
      </defs>
      <g>
       <use style="stroke:#000000;stroke-width:0.8;" x="33.64" xlink:href="#m22f868595d" y="260.12"/>
      </g>
     </g>
     <g id="text_6">
      <!-- 0 -->
      <g transform="translate(20.2775 263.919219)scale(0.1 -0.1)">
       <use xlink:href="#DejaVuSans-48"/>
      </g>
     </g>
    </g>
    <g id="ytick_2">
     <g id="line2d_7">
      <g>
       <use style="stroke:#000000;stroke-width:0.8;" x="33.64" xlink:href="#m22f868595d" y="230.910476"/>
      </g>
     </g>
     <g id="text_7">
      <!-- 25 -->
      <defs>
       <path d="M 19.1875 8.296875 
L 53.609375 8.296875 
L 53.609375 0 
L 7.328125 0 
L 7.328125 8.296875 
Q 12.9375 14.109375 22.625 23.890625 
Q 32.328125 33.6875 34.8125 36.53125 
Q 39.546875 41.84375 41.421875 45.53125 
Q 43.3125 49.21875 43.3125 52.78125 
Q 43.3125 58.59375 39.234375 62.25 
Q 35.15625 65.921875 28.609375 65.921875 
Q 23.96875 65.921875 18.8125 64.3125 
Q 13.671875 62.703125 7.8125 59.421875 
L 7.8125 69.390625 
Q 13.765625 71.78125 18.9375 73 
Q 24.125 74.21875 28.421875 74.21875 
Q 39.75 74.21875 46.484375 68.546875 
Q 53.21875 62.890625 53.21875 53.421875 
Q 53.21875 48.921875 51.53125 44.890625 
Q 49.859375 40.875 45.40625 35.40625 
Q 44.1875 33.984375 37.640625 27.21875 
Q 31.109375 20.453125 19.1875 8.296875 
z
" id="DejaVuSans-50"/>
       <path d="M 10.796875 72.90625 
L 49.515625 72.90625 
L 49.515625 64.59375 
L 19.828125 64.59375 
L 19.828125 46.734375 
Q 21.96875 47.46875 24.109375 47.828125 
Q 26.265625 48.1875 28.421875 48.1875 
Q 40.625 48.1875 47.75 41.5 
Q 54.890625 34.8125 54.890625 23.390625 
Q 54.890625 11.625 47.5625 5.09375 
Q 40.234375 -1.421875 26.90625 -1.421875 
Q 22.3125 -1.421875 17.546875 -0.640625 
Q 12.796875 0.140625 7.71875 1.703125 
L 7.71875 11.625 
Q 12.109375 9.234375 16.796875 8.0625 
Q 21.484375 6.890625 26.703125 6.890625 
Q 35.15625 6.890625 40.078125 11.328125 
Q 45.015625 15.765625 45.015625 23.390625 
Q 45.015625 31 40.078125 35.4375 
Q 35.15625 39.890625 26.703125 39.890625 
Q 22.75 39.890625 18.8125 39.015625 
Q 14.890625 38.140625 10.796875 36.28125 
z
" id="DejaVuSans-53"/>
      </defs>
      <g transform="translate(13.915 234.709695)scale(0.1 -0.1)">
       <use xlink:href="#DejaVuSans-50"/>
       <use x="63.623047" xlink:href="#DejaVuSans-53"/>
      </g>
     </g>
    </g>
    <g id="ytick_3">
     <g id="line2d_8">
      <g>
       <use style="stroke:#000000;stroke-width:0.8;" x="33.64" xlink:href="#m22f868595d" y="201.700952"/>
      </g>
     </g>
     <g id="text_8">
      <!-- 50 -->
      <g transform="translate(13.915 205.500171)scale(0.1 -0.1)">
       <use xlink:href="#DejaVuSans-53"/>
       <use x="63.623047" xlink:href="#DejaVuSans-48"/>
      </g>
     </g>
    </g>
    <g id="ytick_4">
     <g id="line2d_9">
      <g>
       <use style="stroke:#000000;stroke-width:0.8;" x="33.64" xlink:href="#m22f868595d" y="172.491429"/>
      </g>
     </g>
     <g id="text_9">
      <!-- 75 -->
      <defs>
       <path d="M 8.203125 72.90625 
L 55.078125 72.90625 
L 55.078125 68.703125 
L 28.609375 0 
L 18.3125 0 
L 43.21875 64.59375 
L 8.203125 64.59375 
z
" id="DejaVuSans-55"/>
      </defs>
      <g transform="translate(13.915 176.290647)scale(0.1 -0.1)">
       <use xlink:href="#DejaVuSans-55"/>
       <use x="63.623047" xlink:href="#DejaVuSans-53"/>
      </g>
     </g>
    </g>
    <g id="ytick_5">
     <g id="line2d_10">
      <g>
       <use style="stroke:#000000;stroke-width:0.8;" x="33.64" xlink:href="#m22f868595d" y="143.281905"/>
      </g>
     </g>
     <g id="text_10">
      <!-- 100 -->
      <defs>
       <path d="M 12.40625 8.296875 
L 28.515625 8.296875 
L 28.515625 63.921875 
L 10.984375 60.40625 
L 10.984375 69.390625 
L 28.421875 72.90625 
L 38.28125 72.90625 
L 38.28125 8.296875 
L 54.390625 8.296875 
L 54.390625 0 
L 12.40625 0 
z
" id="DejaVuSans-49"/>
      </defs>
      <g transform="translate(7.5525 147.081124)scale(0.1 -0.1)">
       <use xlink:href="#DejaVuSans-49"/>
       <use x="63.623047" xlink:href="#DejaVuSans-48"/>
       <use x="127.246094" xlink:href="#DejaVuSans-48"/>
      </g>
     </g>
    </g>
    <g id="ytick_6">
     <g id="line2d_11">
      <g>
       <use style="stroke:#000000;stroke-width:0.8;" x="33.64" xlink:href="#m22f868595d" y="114.072381"/>
      </g>
     </g>
     <g id="text_11">
      <!-- 125 -->
      <g transform="translate(7.5525 117.8716)scale(0.1 -0.1)">
       <use xlink:href="#DejaVuSans-49"/>
       <use x="63.623047" xlink:href="#DejaVuSans-50"/>
       <use x="127.246094" xlink:href="#DejaVuSans-53"/>
      </g>
     </g>
    </g>
    <g id="ytick_7">
     <g id="line2d_12">
      <g>
       <use style="stroke:#000000;stroke-width:0.8;" x="33.64" xlink:href="#m22f868595d" y="84.862857"/>
      </g>
     </g>
     <g id="text_12">
      <!-- 150 -->
      <g transform="translate(7.5525 88.662076)scale(0.1 -0.1)">
       <use xlink:href="#DejaVuSans-49"/>
       <use x="63.623047" xlink:href="#DejaVuSans-53"/>
       <use x="127.246094" xlink:href="#DejaVuSans-48"/>
      </g>
     </g>
    </g>
    <g id="ytick_8">
     <g id="line2d_13">
      <g>
       <use style="stroke:#000000;stroke-width:0.8;" x="33.64" xlink:href="#m22f868595d" y="55.653333"/>
      </g>
     </g>
     <g id="text_13">
      <!-- 175 -->
      <g transform="translate(7.5525 59.452552)scale(0.1 -0.1)">
       <use xlink:href="#DejaVuSans-49"/>
       <use x="63.623047" xlink:href="#DejaVuSans-55"/>
       <use x="127.246094" xlink:href="#DejaVuSans-53"/>
      </g>
     </g>
    </g>
    <g id="ytick_9">
     <g id="line2d_14">
      <g>
       <use style="stroke:#000000;stroke-width:0.8;" x="33.64" xlink:href="#m22f868595d" y="26.44381"/>
      </g>
     </g>
     <g id="text_14">
      <!-- 200 -->
      <g transform="translate(7.5525 30.243028)scale(0.1 -0.1)">
       <use xlink:href="#DejaVuSans-50"/>
       <use x="63.623047" xlink:href="#DejaVuSans-48"/>
       <use x="127.246094" xlink:href="#DejaVuSans-48"/>
      </g>
     </g>
    </g>
   </g>
   <g id="line2d_15">
    <path clip-path="url(#p05ac4d924a)" d="M 33.64 260.12 
L 104.320118 260.12 
L 105.651798 257.783238 
L 106.984329 257.783238 
L 108.316945 254.278095 
L 109.649383 254.278095 
L 112.311512 249.604571 
L 113.643381 248.43619 
L 114.973923 248.43619 
L 116.304867 247.26781 
L 118.967394 247.26781 
L 120.299049 242.594286 
L 121.630176 236.752381 
L 122.960742 236.752381 
L 124.292177 229.742095 
L 125.625432 226.236952 
L 126.956435 226.236952 
L 128.28768 222.73181 
L 132.27997 222.73181 
L 133.610609 219.226667 
L 134.940703 218.058286 
L 137.603497 218.058286 
L 138.934323 223.90019 
L 140.265289 223.90019 
L 141.598066 229.742095 
L 142.928536 227.405333 
L 144.260125 227.405333 
L 145.590767 232.078857 
L 146.921345 233.247238 
L 148.252975 236.752381 
L 149.58417 236.752381 
L 150.917052 234.415619 
L 152.246675 234.415619 
L 153.577587 230.910476 
L 156.238127 216.889905 
L 157.568199 216.889905 
L 158.898821 212.216381 
L 160.23027 208.711238 
L 161.562738 208.711238 
L 162.893088 197.027429 
L 164.229326 192.353905 
L 165.564879 186.512 
L 166.895079 186.512 
L 168.226484 187.680381 
L 169.556902 187.680381 
L 170.888212 181.838476 
L 172.219124 164.312762 
L 173.549155 164.312762 
L 174.880059 150.29219 
L 176.211595 139.776762 
L 177.543286 116.409143 
L 178.873727 116.409143 
L 180.203926 89.536381 
L 181.536735 89.536381 
L 182.866973 67.337143 
L 184.19723 53.316571 
L 185.527052 47.474667 
L 186.857202 47.474667 
L 188.187715 54.484952 
L 189.517765 59.158476 
L 190.848984 59.158476 
L 192.18046 76.68419 
L 193.510152 74.347429 
L 194.843025 74.347429 
L 196.174716 79.020952 
L 197.504619 81.357714 
L 198.836864 93.041524 
L 200.166817 93.041524 
L 201.497061 100.05181 
L 202.827155 109.398857 
L 204.156616 109.398857 
L 205.487419 122.251048 
L 206.817489 128.092952 
L 208.149996 128.092952 
L 209.47947 129.261333 
L 210.809852 132.766476 
L 212.140128 139.776762 
L 213.469348 139.776762 
L 214.798303 260.12 
L 289.492785 260.12 
L 290.801759 258.951619 
L 292.135912 243.762667 
L 293.469435 243.762667 
L 294.802654 240.257524 
L 296.13352 235.584 
L 298.799594 235.584 
L 300.130367 232.078857 
L 301.460929 232.078857 
L 302.792195 227.405333 
L 304.123486 223.90019 
L 305.453178 223.90019 
L 306.785603 222.73181 
L 309.446069 222.73181 
L 310.77677 225.068571 
L 312.110182 218.058286 
L 313.443272 219.226667 
L 314.773057 219.226667 
L 316.104198 216.889905 
L 317.435491 218.058286 
L 318.766964 218.058286 
L 320.097151 221.563429 
L 321.427006 219.226667 
L 322.758162 219.226667 
L 324.090281 214.553143 
L 325.420328 218.058286 
L 326.749993 218.058286 
L 328.079763 213.384762 
L 329.412646 212.216381 
L 330.745321 208.711238 
L 332.076922 208.711238 
L 334.737214 201.700952 
L 336.069692 201.700952 
L 337.402198 204.037714 
L 340.07197 204.037714 
L 341.401585 200.532571 
L 344.064693 200.532571 
L 345.397364 197.027429 
L 346.728209 187.680381 
L 348.058616 187.680381 
L 349.388451 184.175238 
L 350.719287 178.333333 
L 352.050006 178.333333 
L 353.382876 171.323048 
L 354.713814 156.134095 
L 356.045068 128.092952 
L 357.379452 128.092952 
L 358.715432 116.409143 
L 361.376278 116.409143 
L 362.7109 98.883429 
L 364.041857 98.883429 
L 365.372075 79.020952 
L 366.702126 67.337143 
L 368.032387 49.811429 
L 369.36272 49.811429 
L 370.694746 38.127619 
L 374.685382 38.127619 
L 376.018627 26.44381 
L 377.351696 26.44381 
L 378.68159 48.643048 
L 380.012482 60.326857 
L 381.342921 74.347429 
L 382.676202 74.347429 
L 385.336356 110.567238 
L 386.669996 110.567238 
L 388.00009 125.75619 
L 389.330591 137.44 
L 390.660515 151.460571 
L 391.994362 151.460571 
L 393.324815 161.976 
L 394.656067 161.976 
L 395.990138 166.649524 
L 397.31998 174.82819 
L 398.651175 175.996571 
L 401.313027 175.996571 
L 402.642555 260.12 
L 476.005365 260.12 
L 477.335399 255.446476 
L 479.997122 241.425905 
L 481.329771 241.425905 
L 482.660511 240.257524 
L 485.325891 240.257524 
L 486.656288 239.089143 
L 487.986791 239.089143 
L 489.319404 232.078857 
L 490.651571 232.078857 
L 491.982432 228.573714 
L 493.314966 228.573714 
L 494.646338 226.236952 
L 495.978478 225.068571 
L 501.304628 225.068571 
L 502.641185 226.236952 
L 505.301553 226.236952 
L 506.631882 223.90019 
L 507.964002 216.889905 
L 509.294187 219.226667 
L 510.627242 219.226667 
L 511.959958 221.563429 
L 513.290129 221.563429 
L 515.951385 214.553143 
L 517.284346 212.216381 
L 518.617015 212.216381 
L 519.947077 208.711238 
L 521.279338 206.374476 
L 522.612135 206.374476 
L 523.94282 209.879619 
L 525.27499 207.542857 
L 526.607106 206.374476 
L 527.940309 206.374476 
L 529.273912 205.206095 
L 530.604723 205.206095 
L 531.93576 198.19581 
L 533.2678 190.017143 
L 534.601874 190.017143 
L 535.934893 184.175238 
L 537.267198 171.323048 
L 538.597278 170.154667 
L 539.932047 170.154667 
L 541.265098 159.639238 
L 542.598148 159.639238 
L 543.929634 156.134095 
L 545.262245 153.797333 
L 546.595478 129.261333 
L 547.937885 129.261333 
L 549.268989 123.419429 
L 550.599816 115.240762 
L 551.931983 115.240762 
L 553.263247 98.883429 
L 554.593856 96.546667 
L 555.925072 96.546667 
L 557.256738 108.230476 
L 558.592022 101.22019 
L 559.921665 101.22019 
L 561.251575 96.546667 
L 562.584847 89.536381 
L 563.921142 95.378286 
L 565.254664 95.378286 
L 566.587143 94.209905 
L 567.92067 119.914286 
L 569.253127 119.914286 
L 570.582942 125.75619 
L 571.915563 144.450286 
L 573.248298 146.787048 
L 574.58069 146.787048 
L 575.913227 156.134095 
L 577.242851 156.134095 
L 578.575748 165.481143 
L 579.908964 171.323048 
L 581.239006 173.65981 
L 582.572401 173.65981 
L 583.905212 180.670095 
L 585.234657 181.838476 
L 587.90052 181.838476 
L 589.233496 260.12 
L 663.936805 260.12 
L 665.26664 256.614857 
L 666.596165 248.43619 
L 667.926274 248.43619 
L 669.25903 244.931048 
L 670.589626 242.594286 
L 671.920247 242.594286 
L 674.583995 235.584 
L 675.915819 230.910476 
L 677.249082 230.910476 
L 678.579333 229.742095 
L 679.910309 229.742095 
L 681.240471 226.236952 
L 682.573752 223.90019 
L 683.904846 223.90019 
L 686.567311 221.563429 
L 687.898217 225.068571 
L 689.230374 225.068571 
L 690.561119 222.73181 
L 691.892727 219.226667 
L 693.223971 219.226667 
L 694.555299 211.048 
L 695.886399 211.048 
L 697.217168 212.216381 
L 701.212114 212.216381 
L 702.544455 205.206095 
L 705.206534 205.206095 
L 706.538672 197.027429 
L 707.870804 194.690667 
L 709.203354 199.36419 
L 710.535752 199.36419 
L 711.874195 195.859048 
L 713.205182 195.859048 
L 714.535599 191.185524 
L 715.867043 184.175238 
L 717.198107 175.996571 
L 718.530395 175.996571 
L 719.861775 167.817905 
L 721.194873 161.976 
L 722.527175 161.976 
L 723.86032 157.302476 
L 725.193347 143.281905 
L 726.527718 143.281905 
L 727.860757 138.608381 
L 729.193155 128.092952 
L 730.525701 114.072381 
L 731.856962 114.072381 
L 733.187547 98.883429 
L 734.517877 104.725333 
L 735.848762 104.725333 
L 737.180475 86.031238 
L 738.511095 86.031238 
L 739.847692 70.842286 
L 741.179107 59.158476 
L 742.510823 46.306286 
L 743.844106 46.306286 
L 745.177666 28.780571 
L 746.510101 32.285714 
L 747.84076 32.285714 
L 749.172506 38.127619 
L 750.502078 31.117333 
L 751.832264 31.117333 
L 753.162289 41.632762 
L 754.493493 54.484952 
L 755.824098 62.663619 
L 757.154568 62.663619 
L 758.484245 76.68419 
L 759.819854 96.546667 
L 761.149687 96.546667 
L 762.482098 105.893714 
L 763.81449 121.082667 
L 765.144731 121.082667 
L 766.475212 126.924571 
L 767.807494 144.450286 
L 769.139859 144.450286 
L 770.469785 152.628952 
L 771.800222 158.470857 
L 774.463519 158.470857 
L 775.793721 260.12 
L 847.855098 260.12 
L 849.163998 256.614857 
L 850.494836 256.614857 
L 851.825496 254.278095 
L 853.155536 249.604571 
L 854.485956 247.26781 
L 855.819014 247.26781 
L 857.15062 242.594286 
L 858.481595 233.247238 
L 859.813271 233.247238 
L 861.143483 227.405333 
L 862.473132 227.405333 
L 863.803073 223.90019 
L 865.136262 223.90019 
L 866.466222 216.889905 
L 867.796683 216.889905 
L 869.127311 213.384762 
L 870.457329 215.721524 
L 871.787939 215.721524 
L 873.118521 216.889905 
L 874.44913 220.395048 
L 877.116015 220.395048 
L 878.446102 221.563429 
L 879.776428 221.563429 
L 881.106841 219.226667 
L 882.437503 225.068571 
L 885.097027 225.068571 
L 886.426775 220.395048 
L 887.758141 222.73181 
L 889.090488 222.73181 
L 890.421806 220.395048 
L 891.754523 220.395048 
L 893.085498 218.058286 
L 894.415549 206.374476 
L 895.745774 202.869333 
L 897.077455 202.869333 
L 898.406982 194.690667 
L 899.737777 187.680381 
L 901.067529 187.680381 
L 902.400681 181.838476 
L 903.736096 171.323048 
L 905.067963 164.312762 
L 906.402193 164.312762 
L 907.731991 158.470857 
L 909.062092 158.470857 
L 910.396321 153.797333 
L 911.727235 147.955429 
L 913.058829 145.618667 
L 914.392678 145.618667 
L 915.72405 137.44 
L 917.054936 150.29219 
L 918.385265 150.29219 
L 919.722039 161.976 
L 921.052497 160.807619 
L 922.382305 160.807619 
L 923.712574 150.29219 
L 925.043096 144.450286 
L 926.375406 144.450286 
L 927.706436 135.103238 
L 929.037015 126.924571 
L 930.369606 126.924571 
L 931.700108 125.75619 
L 933.031248 128.092952 
L 934.365819 125.75619 
L 935.708627 125.75619 
L 937.043283 130.429714 
L 938.378713 131.598095 
L 939.714808 131.598095 
L 941.060588 143.281905 
L 943.732938 143.281905 
L 945.069064 151.460571 
L 946.40043 158.470857 
L 947.737357 160.807619 
L 949.069233 160.807619 
L 950.402652 166.649524 
L 951.733774 166.649524 
L 953.066805 179.501714 
L 954.398074 185.343619 
L 955.729066 187.680381 
L 957.058999 187.680381 
L 958.39131 193.522286 
L 961.053234 193.522286 
L 962.395706 260.12 
L 1034.444306 260.12 
L 1035.752749 253.109714 
L 1037.083461 251.941333 
L 1038.415268 251.941333 
L 1039.747201 241.425905 
L 1041.076614 235.584 
L 1042.406198 235.584 
L 1043.736187 233.247238 
L 1045.065541 233.247238 
L 1046.394934 220.395048 
L 1047.726524 209.879619 
L 1049.055993 207.542857 
L 1050.385854 207.542857 
L 1053.045171 193.522286 
L 1054.374274 193.522286 
L 1057.036466 186.512 
L 1058.366012 187.680381 
L 1060.05611 187.680381 
L 1061.386798 195.859048 
L 1062.719984 199.36419 
L 1064.049524 199.36419 
L 1065.381707 200.532571 
L 1066.716336 200.532571 
L 1068.046357 187.680381 
L 1069.375955 187.680381 
L 1070.705586 180.670095 
L 1072.035866 180.670095 
L 1073.36659 175.996571 
L 1074.695832 177.164952 
L 1076.026739 177.164952 
L 1077.3589 187.680381 
L 1078.688484 186.512 
L 1080.018417 180.670095 
L 1081.348099 180.670095 
L 1082.678142 181.838476 
L 1084.007513 173.65981 
L 1085.337155 173.65981 
L 1086.66777 185.343619 
L 1087.999229 198.19581 
L 1089.328772 198.19581 
L 1091.991145 205.206095 
L 1093.322622 205.206095 
L 1094.654496 204.037714 
L 1095.986398 205.206095 
L 1097.318893 201.700952 
L 1098.6517 201.700952 
L 1099.983994 202.869333 
L 1101.316347 211.048 
L 1102.64849 211.048 
L 1103.97935 214.553143 
L 1105.310281 215.721524 
L 1106.642704 215.721524 
L 1109.307694 208.711238 
L 1110.640598 208.711238 
L 1111.972996 204.037714 
L 1113.305664 205.206095 
L 1114.638119 205.206095 
L 1115.971605 227.405333 
L 1117.30396 216.889905 
L 1118.635423 214.553143 
L 1119.96569 214.553143 
L 1121.296522 216.889905 
L 1125.290535 216.889905 
L 1126.621405 215.721524 
L 1127.955248 215.721524 
L 1129.285018 218.058286 
L 1133.28 218.058286 
L 1133.28 218.058286 
" style="fill:none;stroke:#1f77b4;stroke-linecap:square;stroke-width:1.5;"/>
   </g>
   <g id="patch_3">
    <path d="M 33.64 260.12 
L 33.64 14.76 
" style="fill:none;stroke:#000000;stroke-linecap:square;stroke-linejoin:miter;stroke-width:0.8;"/>
   </g>
   <g id="patch_4">
    <path d="M 1133.28 260.12 
L 1133.28 14.76 
" style="fill:none;stroke:#000000;stroke-linecap:square;stroke-linejoin:miter;stroke-width:0.8;"/>
   </g>
   <g id="patch_5">
    <path d="M 33.64 260.12 
L 1133.28 260.12 
" style="fill:none;stroke:#000000;stroke-linecap:square;stroke-linejoin:miter;stroke-width:0.8;"/>
   </g>
   <g id="patch_6">
    <path d="M 33.64 14.76 
L 1133.28 14.76 
" style="fill:none;stroke:#000000;stroke-linecap:square;stroke-linejoin:miter;stroke-width:0.8;"/>
   </g>
  </g>
 </g>
 <defs>
  <clipPath id="p05ac4d924a">
   <rect height="245.36" width="1099.64" x="33.64" y="14.76"/>
  </clipPath>
 </defs>
</svg>
