<?xml version="1.0" encoding="utf-8" standalone="no"?>
<!DOCTYPE svg PUBLIC "-//W3C//DTD SVG 1.1//EN"
  "http://www.w3.org/Graphics/SVG/1.1/DTD/svg11.dtd">
<!-- Created with matplotlib (https://matplotlib.org/) -->
<svg height="288pt" version="1.1" viewBox="0 0 1152 288" width="1152pt" xmlns="http://www.w3.org/2000/svg" xmlns:xlink="http://www.w3.org/1999/xlink">
 <defs>
  <style type="text/css">
*{stroke-linecap:butt;stroke-linejoin:round;}
  </style>
 </defs>
 <g id="figure_1">
  <g id="patch_1">
   <path d="M 0 288 
L 1152 288 
L 1152 0 
L 0 0 
z
" style="fill:#ffffff;"/>
  </g>
  <g id="axes_1">
   <g id="patch_2">
    <path d="M 33.64 260.12 
L 1133.28 260.12 
L 1133.28 14.76 
L 33.64 14.76 
z
" style="fill:#ffffff;"/>
   </g>
   <g id="matplotlib.axis_1">
    <g id="xtick_1">
     <g id="line2d_1">
      <defs>
       <path d="M 0 0 
L 0 3.5 
" id="mdd52ee2a49" style="stroke:#000000;stroke-width:0.8;"/>
      </defs>
      <g>
       <use style="stroke:#000000;stroke-width:0.8;" x="192.545969" xlink:href="#mdd52ee2a49" y="260.12"/>
      </g>
     </g>
     <g id="text_1">
      <!-- Tue 00:00 -->
      <defs>
       <path d="M -0.296875 72.90625 
L 61.375 72.90625 
L 61.375 64.59375 
L 35.5 64.59375 
L 35.5 0 
L 25.59375 0 
L 25.59375 64.59375 
L -0.296875 64.59375 
z
" id="DejaVuSans-84"/>
       <path d="M 8.5 21.578125 
L 8.5 54.6875 
L 17.484375 54.6875 
L 17.484375 21.921875 
Q 17.484375 14.15625 20.5 10.265625 
Q 23.53125 6.390625 29.59375 6.390625 
Q 36.859375 6.390625 41.078125 11.03125 
Q 45.3125 15.671875 45.3125 23.6875 
L 45.3125 54.6875 
L 54.296875 54.6875 
L 54.296875 0 
L 45.3125 0 
L 45.3125 8.40625 
Q 42.046875 3.421875 37.71875 1 
Q 33.40625 -1.421875 27.6875 -1.421875 
Q 18.265625 -1.421875 13.375 4.4375 
Q 8.5 10.296875 8.5 21.578125 
z
M 31.109375 56 
z
" id="DejaVuSans-117"/>
       <path d="M 56.203125 29.59375 
L 56.203125 25.203125 
L 14.890625 25.203125 
Q 15.484375 15.921875 20.484375 11.0625 
Q 25.484375 6.203125 34.421875 6.203125 
Q 39.59375 6.203125 44.453125 7.46875 
Q 49.3125 8.734375 54.109375 11.28125 
L 54.109375 2.78125 
Q 49.265625 0.734375 44.1875 -0.34375 
Q 39.109375 -1.421875 33.890625 -1.421875 
Q 20.796875 -1.421875 13.15625 6.1875 
Q 5.515625 13.8125 5.515625 26.8125 
Q 5.515625 40.234375 12.765625 48.109375 
Q 20.015625 56 32.328125 56 
Q 43.359375 56 49.78125 48.890625 
Q 56.203125 41.796875 56.203125 29.59375 
z
M 47.21875 32.234375 
Q 47.125 39.59375 43.09375 43.984375 
Q 39.0625 48.390625 32.421875 48.390625 
Q 24.90625 48.390625 20.390625 44.140625 
Q 15.875 39.890625 15.1875 32.171875 
z
" id="DejaVuSans-101"/>
       <path id="DejaVuSans-32"/>
       <path d="M 31.78125 66.40625 
Q 24.171875 66.40625 20.328125 58.90625 
Q 16.5 51.421875 16.5 36.375 
Q 16.5 21.390625 20.328125 13.890625 
Q 24.171875 6.390625 31.78125 6.390625 
Q 39.453125 6.390625 43.28125 13.890625 
Q 47.125 21.390625 47.125 36.375 
Q 47.125 51.421875 43.28125 58.90625 
Q 39.453125 66.40625 31.78125 66.40625 
z
M 31.78125 74.21875 
Q 44.046875 74.21875 50.515625 64.515625 
Q 56.984375 54.828125 56.984375 36.375 
Q 56.984375 17.96875 50.515625 8.265625 
Q 44.046875 -1.421875 31.78125 -1.421875 
Q 19.53125 -1.421875 13.0625 8.265625 
Q 6.59375 17.96875 6.59375 36.375 
Q 6.59375 54.828125 13.0625 64.515625 
Q 19.53125 74.21875 31.78125 74.21875 
z
" id="DejaVuSans-48"/>
       <path d="M 11.71875 12.40625 
L 22.015625 12.40625 
L 22.015625 0 
L 11.71875 0 
z
M 11.71875 51.703125 
L 22.015625 51.703125 
L 22.015625 39.3125 
L 11.71875 39.3125 
z
" id="DejaVuSans-58"/>
      </defs>
      <g transform="translate(167.260031 274.718437)scale(0.1 -0.1)">
       <use xlink:href="#DejaVuSans-84"/>
       <use x="60.849609" xlink:href="#DejaVuSans-117"/>
       <use x="124.228516" xlink:href="#DejaVuSans-101"/>
       <use x="185.751953" xlink:href="#DejaVuSans-32"/>
       <use x="217.539062" xlink:href="#DejaVuSans-48"/>
       <use x="281.162109" xlink:href="#DejaVuSans-48"/>
       <use x="344.785156" xlink:href="#DejaVuSans-58"/>
       <use x="378.476562" xlink:href="#DejaVuSans-48"/>
       <use x="442.099609" xlink:href="#DejaVuSans-48"/>
      </g>
     </g>
    </g>
    <g id="xtick_2">
     <g id="line2d_2">
      <g>
       <use style="stroke:#000000;stroke-width:0.8;" x="351.523102" xlink:href="#mdd52ee2a49" y="260.12"/>
      </g>
     </g>
     <g id="text_2">
      <!-- Wed 00:00 -->
      <defs>
       <path d="M 3.328125 72.90625 
L 13.28125 72.90625 
L 28.609375 11.28125 
L 43.890625 72.90625 
L 54.984375 72.90625 
L 70.3125 11.28125 
L 85.59375 72.90625 
L 95.609375 72.90625 
L 77.296875 0 
L 64.890625 0 
L 49.515625 63.28125 
L 33.984375 0 
L 21.578125 0 
z
" id="DejaVuSans-87"/>
       <path d="M 45.40625 46.390625 
L 45.40625 75.984375 
L 54.390625 75.984375 
L 54.390625 0 
L 45.40625 0 
L 45.40625 8.203125 
Q 42.578125 3.328125 38.25 0.953125 
Q 33.9375 -1.421875 27.875 -1.421875 
Q 17.96875 -1.421875 11.734375 6.484375 
Q 5.515625 14.40625 5.515625 27.296875 
Q 5.515625 40.1875 11.734375 48.09375 
Q 17.96875 56 27.875 56 
Q 33.9375 56 38.25 53.625 
Q 42.578125 51.265625 45.40625 46.390625 
z
M 14.796875 27.296875 
Q 14.796875 17.390625 18.875 11.75 
Q 22.953125 6.109375 30.078125 6.109375 
Q 37.203125 6.109375 41.296875 11.75 
Q 45.40625 17.390625 45.40625 27.296875 
Q 45.40625 37.203125 41.296875 42.84375 
Q 37.203125 48.484375 30.078125 48.484375 
Q 22.953125 48.484375 18.875 42.84375 
Q 14.796875 37.203125 14.796875 27.296875 
z
" id="DejaVuSans-100"/>
      </defs>
      <g transform="translate(324.33404 274.718437)scale(0.1 -0.1)">
       <use xlink:href="#DejaVuSans-87"/>
       <use x="98.798828" xlink:href="#DejaVuSans-101"/>
       <use x="160.322266" xlink:href="#DejaVuSans-100"/>
       <use x="223.798828" xlink:href="#DejaVuSans-32"/>
       <use x="255.585938" xlink:href="#DejaVuSans-48"/>
       <use x="319.208984" xlink:href="#DejaVuSans-48"/>
       <use x="382.832031" xlink:href="#DejaVuSans-58"/>
       <use x="416.523438" xlink:href="#DejaVuSans-48"/>
       <use x="480.146484" xlink:href="#DejaVuSans-48"/>
      </g>
     </g>
    </g>
    <g id="xtick_3">
     <g id="line2d_3">
      <g>
       <use style="stroke:#000000;stroke-width:0.8;" x="510.500236" xlink:href="#mdd52ee2a49" y="260.12"/>
      </g>
     </g>
     <g id="text_3">
      <!-- Thu 00:00 -->
      <defs>
       <path d="M 54.890625 33.015625 
L 54.890625 0 
L 45.90625 0 
L 45.90625 32.71875 
Q 45.90625 40.484375 42.875 44.328125 
Q 39.84375 48.1875 33.796875 48.1875 
Q 26.515625 48.1875 22.3125 43.546875 
Q 18.109375 38.921875 18.109375 30.90625 
L 18.109375 0 
L 9.078125 0 
L 9.078125 75.984375 
L 18.109375 75.984375 
L 18.109375 46.1875 
Q 21.34375 51.125 25.703125 53.5625 
Q 30.078125 56 35.796875 56 
Q 45.21875 56 50.046875 50.171875 
Q 54.890625 44.34375 54.890625 33.015625 
z
" id="DejaVuSans-104"/>
      </defs>
      <g transform="translate(485.110393 274.718437)scale(0.1 -0.1)">
       <use xlink:href="#DejaVuSans-84"/>
       <use x="61.083984" xlink:href="#DejaVuSans-104"/>
       <use x="124.462891" xlink:href="#DejaVuSans-117"/>
       <use x="187.841797" xlink:href="#DejaVuSans-32"/>
       <use x="219.628906" xlink:href="#DejaVuSans-48"/>
       <use x="283.251953" xlink:href="#DejaVuSans-48"/>
       <use x="346.875" xlink:href="#DejaVuSans-58"/>
       <use x="380.566406" xlink:href="#DejaVuSans-48"/>
       <use x="444.189453" xlink:href="#DejaVuSans-48"/>
      </g>
     </g>
    </g>
    <g id="xtick_4">
     <g id="line2d_4">
      <g>
       <use style="stroke:#000000;stroke-width:0.8;" x="669.47737" xlink:href="#mdd52ee2a49" y="260.12"/>
      </g>
     </g>
     <g id="text_4">
      <!-- Fri 00:00 -->
      <defs>
       <path d="M 9.8125 72.90625 
L 51.703125 72.90625 
L 51.703125 64.59375 
L 19.671875 64.59375 
L 19.671875 43.109375 
L 48.578125 43.109375 
L 48.578125 34.8125 
L 19.671875 34.8125 
L 19.671875 0 
L 9.8125 0 
z
" id="DejaVuSans-70"/>
       <path d="M 41.109375 46.296875 
Q 39.59375 47.171875 37.8125 47.578125 
Q 36.03125 48 33.890625 48 
Q 26.265625 48 22.1875 43.046875 
Q 18.109375 38.09375 18.109375 28.8125 
L 18.109375 0 
L 9.078125 0 
L 9.078125 54.6875 
L 18.109375 54.6875 
L 18.109375 46.1875 
Q 20.953125 51.171875 25.484375 53.578125 
Q 30.03125 56 36.53125 56 
Q 37.453125 56 38.578125 55.875 
Q 39.703125 55.765625 41.0625 55.515625 
z
" id="DejaVuSans-114"/>
       <path d="M 9.421875 54.6875 
L 18.40625 54.6875 
L 18.40625 0 
L 9.421875 0 
z
M 9.421875 75.984375 
L 18.40625 75.984375 
L 18.40625 64.59375 
L 9.421875 64.59375 
z
" id="DejaVuSans-105"/>
      </defs>
      <g transform="translate(647.164089 274.718437)scale(0.1 -0.1)">
       <use xlink:href="#DejaVuSans-70"/>
       <use x="57.410156" xlink:href="#DejaVuSans-114"/>
       <use x="98.523438" xlink:href="#DejaVuSans-105"/>
       <use x="126.306641" xlink:href="#DejaVuSans-32"/>
       <use x="158.09375" xlink:href="#DejaVuSans-48"/>
       <use x="221.716797" xlink:href="#DejaVuSans-48"/>
       <use x="285.339844" xlink:href="#DejaVuSans-58"/>
       <use x="319.03125" xlink:href="#DejaVuSans-48"/>
       <use x="382.654297" xlink:href="#DejaVuSans-48"/>
      </g>
     </g>
    </g>
    <g id="xtick_5">
     <g id="line2d_5">
      <g>
       <use style="stroke:#000000;stroke-width:0.8;" x="828.454504" xlink:href="#mdd52ee2a49" y="260.12"/>
      </g>
     </g>
     <g id="text_5">
      <!-- Sat 00:00 -->
      <defs>
       <path d="M 53.515625 70.515625 
L 53.515625 60.890625 
Q 47.90625 63.578125 42.921875 64.890625 
Q 37.9375 66.21875 33.296875 66.21875 
Q 25.25 66.21875 20.875 63.09375 
Q 16.5 59.96875 16.5 54.203125 
Q 16.5 49.359375 19.40625 46.890625 
Q 22.3125 44.4375 30.421875 42.921875 
L 36.375 41.703125 
Q 47.40625 39.59375 52.65625 34.296875 
Q 57.90625 29 57.90625 20.125 
Q 57.90625 9.515625 50.796875 4.046875 
Q 43.703125 -1.421875 29.984375 -1.421875 
Q 24.8125 -1.421875 18.96875 -0.25 
Q 13.140625 0.921875 6.890625 3.21875 
L 6.890625 13.375 
Q 12.890625 10.015625 18.65625 8.296875 
Q 24.421875 6.59375 29.984375 6.59375 
Q 38.421875 6.59375 43.015625 9.90625 
Q 47.609375 13.234375 47.609375 19.390625 
Q 47.609375 24.75 44.3125 27.78125 
Q 41.015625 30.8125 33.5 32.328125 
L 27.484375 33.5 
Q 16.453125 35.6875 11.515625 40.375 
Q 6.59375 45.0625 6.59375 53.421875 
Q 6.59375 63.09375 13.40625 68.65625 
Q 20.21875 74.21875 32.171875 74.21875 
Q 37.3125 74.21875 42.625 73.28125 
Q 47.953125 72.359375 53.515625 70.515625 
z
" id="DejaVuSans-83"/>
       <path d="M 34.28125 27.484375 
Q 23.390625 27.484375 19.1875 25 
Q 14.984375 22.515625 14.984375 16.5 
Q 14.984375 11.71875 18.140625 8.90625 
Q 21.296875 6.109375 26.703125 6.109375 
Q 34.1875 6.109375 38.703125 11.40625 
Q 43.21875 16.703125 43.21875 25.484375 
L 43.21875 27.484375 
z
M 52.203125 31.203125 
L 52.203125 0 
L 43.21875 0 
L 43.21875 8.296875 
Q 40.140625 3.328125 35.546875 0.953125 
Q 30.953125 -1.421875 24.3125 -1.421875 
Q 15.921875 -1.421875 10.953125 3.296875 
Q 6 8.015625 6 15.921875 
Q 6 25.140625 12.171875 29.828125 
Q 18.359375 34.515625 30.609375 34.515625 
L 43.21875 34.515625 
L 43.21875 35.40625 
Q 43.21875 41.609375 39.140625 45 
Q 35.0625 48.390625 27.6875 48.390625 
Q 23 48.390625 18.546875 47.265625 
Q 14.109375 46.140625 10.015625 43.890625 
L 10.015625 52.203125 
Q 14.9375 54.109375 19.578125 55.046875 
Q 24.21875 56 28.609375 56 
Q 40.484375 56 46.34375 49.84375 
Q 52.203125 43.703125 52.203125 31.203125 
z
" id="DejaVuSans-97"/>
       <path d="M 18.3125 70.21875 
L 18.3125 54.6875 
L 36.8125 54.6875 
L 36.8125 47.703125 
L 18.3125 47.703125 
L 18.3125 18.015625 
Q 18.3125 11.328125 20.140625 9.421875 
Q 21.96875 7.515625 27.59375 7.515625 
L 36.8125 7.515625 
L 36.8125 0 
L 27.59375 0 
Q 17.1875 0 13.234375 3.875 
Q 9.28125 7.765625 9.28125 18.015625 
L 9.28125 47.703125 
L 2.6875 47.703125 
L 2.6875 54.6875 
L 9.28125 54.6875 
L 9.28125 70.21875 
z
" id="DejaVuSans-116"/>
      </defs>
      <g transform="translate(804.257629 274.718437)scale(0.1 -0.1)">
       <use xlink:href="#DejaVuSans-83"/>
       <use x="63.476562" xlink:href="#DejaVuSans-97"/>
       <use x="124.755859" xlink:href="#DejaVuSans-116"/>
       <use x="163.964844" xlink:href="#DejaVuSans-32"/>
       <use x="195.751953" xlink:href="#DejaVuSans-48"/>
       <use x="259.375" xlink:href="#DejaVuSans-48"/>
       <use x="322.998047" xlink:href="#DejaVuSans-58"/>
       <use x="356.689453" xlink:href="#DejaVuSans-48"/>
       <use x="420.3125" xlink:href="#DejaVuSans-48"/>
      </g>
     </g>
    </g>
    <g id="xtick_6">
     <g id="line2d_6">
      <g>
       <use style="stroke:#000000;stroke-width:0.8;" x="987.431638" xlink:href="#mdd52ee2a49" y="260.12"/>
      </g>
     </g>
     <g id="text_6">
      <!-- Sun 00:00 -->
      <defs>
       <path d="M 54.890625 33.015625 
L 54.890625 0 
L 45.90625 0 
L 45.90625 32.71875 
Q 45.90625 40.484375 42.875 44.328125 
Q 39.84375 48.1875 33.796875 48.1875 
Q 26.515625 48.1875 22.3125 43.546875 
Q 18.109375 38.921875 18.109375 30.90625 
L 18.109375 0 
L 9.078125 0 
L 9.078125 54.6875 
L 18.109375 54.6875 
L 18.109375 46.1875 
Q 21.34375 51.125 25.703125 53.5625 
Q 30.078125 56 35.796875 56 
Q 45.21875 56 50.046875 50.171875 
Q 54.890625 44.34375 54.890625 33.015625 
z
" id="DejaVuSans-110"/>
      </defs>
      <g transform="translate(961.921482 274.718437)scale(0.1 -0.1)">
       <use xlink:href="#DejaVuSans-83"/>
       <use x="63.476562" xlink:href="#DejaVuSans-117"/>
       <use x="126.855469" xlink:href="#DejaVuSans-110"/>
       <use x="190.234375" xlink:href="#DejaVuSans-32"/>
       <use x="222.021484" xlink:href="#DejaVuSans-48"/>
       <use x="285.644531" xlink:href="#DejaVuSans-48"/>
       <use x="349.267578" xlink:href="#DejaVuSans-58"/>
       <use x="382.958984" xlink:href="#DejaVuSans-48"/>
       <use x="446.582031" xlink:href="#DejaVuSans-48"/>
      </g>
     </g>
    </g>
   </g>
   <g id="matplotlib.axis_2">
    <g id="ytick_1">
     <g id="line2d_7">
      <defs>
       <path d="M 0 0 
L -3.5 0 
" id="m1e77b97585" style="stroke:#000000;stroke-width:0.8;"/>
      </defs>
      <g>
       <use style="stroke:#000000;stroke-width:0.8;" x="33.64" xlink:href="#m1e77b97585" y="260.12"/>
      </g>
     </g>
     <g id="text_7">
      <!-- 0 -->
      <g transform="translate(20.2775 263.919219)scale(0.1 -0.1)">
       <use xlink:href="#DejaVuSans-48"/>
      </g>
     </g>
    </g>
    <g id="ytick_2">
     <g id="line2d_8">
      <g>
       <use style="stroke:#000000;stroke-width:0.8;" x="33.64" xlink:href="#m1e77b97585" y="232.857778"/>
      </g>
     </g>
     <g id="text_8">
      <!-- 20 -->
      <defs>
       <path d="M 19.1875 8.296875 
L 53.609375 8.296875 
L 53.609375 0 
L 7.328125 0 
L 7.328125 8.296875 
Q 12.9375 14.109375 22.625 23.890625 
Q 32.328125 33.6875 34.8125 36.53125 
Q 39.546875 41.84375 41.421875 45.53125 
Q 43.3125 49.21875 43.3125 52.78125 
Q 43.3125 58.59375 39.234375 62.25 
Q 35.15625 65.921875 28.609375 65.921875 
Q 23.96875 65.921875 18.8125 64.3125 
Q 13.671875 62.703125 7.8125 59.421875 
L 7.8125 69.390625 
Q 13.765625 71.78125 18.9375 73 
Q 24.125 74.21875 28.421875 74.21875 
Q 39.75 74.21875 46.484375 68.546875 
Q 53.21875 62.890625 53.21875 53.421875 
Q 53.21875 48.921875 51.53125 44.890625 
Q 49.859375 40.875 45.40625 35.40625 
Q 44.1875 33.984375 37.640625 27.21875 
Q 31.109375 20.453125 19.1875 8.296875 
z
" id="DejaVuSans-50"/>
      </defs>
      <g transform="translate(13.915 236.656997)scale(0.1 -0.1)">
       <use xlink:href="#DejaVuSans-50"/>
       <use x="63.623047" xlink:href="#DejaVuSans-48"/>
      </g>
     </g>
    </g>
    <g id="ytick_3">
     <g id="line2d_9">
      <g>
       <use style="stroke:#000000;stroke-width:0.8;" x="33.64" xlink:href="#m1e77b97585" y="205.595556"/>
      </g>
     </g>
     <g id="text_9">
      <!-- 40 -->
      <defs>
       <path d="M 37.796875 64.3125 
L 12.890625 25.390625 
L 37.796875 25.390625 
z
M 35.203125 72.90625 
L 47.609375 72.90625 
L 47.609375 25.390625 
L 58.015625 25.390625 
L 58.015625 17.1875 
L 47.609375 17.1875 
L 47.609375 0 
L 37.796875 0 
L 37.796875 17.1875 
L 4.890625 17.1875 
L 4.890625 26.703125 
z
" id="DejaVuSans-52"/>
      </defs>
      <g transform="translate(13.915 209.394774)scale(0.1 -0.1)">
       <use xlink:href="#DejaVuSans-52"/>
       <use x="63.623047" xlink:href="#DejaVuSans-48"/>
      </g>
     </g>
    </g>
    <g id="ytick_4">
     <g id="line2d_10">
      <g>
       <use style="stroke:#000000;stroke-width:0.8;" x="33.64" xlink:href="#m1e77b97585" y="178.333333"/>
      </g>
     </g>
     <g id="text_10">
      <!-- 60 -->
      <defs>
       <path d="M 33.015625 40.375 
Q 26.375 40.375 22.484375 35.828125 
Q 18.609375 31.296875 18.609375 23.390625 
Q 18.609375 15.53125 22.484375 10.953125 
Q 26.375 6.390625 33.015625 6.390625 
Q 39.65625 6.390625 43.53125 10.953125 
Q 47.40625 15.53125 47.40625 23.390625 
Q 47.40625 31.296875 43.53125 35.828125 
Q 39.65625 40.375 33.015625 40.375 
z
M 52.59375 71.296875 
L 52.59375 62.3125 
Q 48.875 64.0625 45.09375 64.984375 
Q 41.3125 65.921875 37.59375 65.921875 
Q 27.828125 65.921875 22.671875 59.328125 
Q 17.53125 52.734375 16.796875 39.40625 
Q 19.671875 43.65625 24.015625 45.921875 
Q 28.375 48.1875 33.59375 48.1875 
Q 44.578125 48.1875 50.953125 41.515625 
Q 57.328125 34.859375 57.328125 23.390625 
Q 57.328125 12.15625 50.6875 5.359375 
Q 44.046875 -1.421875 33.015625 -1.421875 
Q 20.359375 -1.421875 13.671875 8.265625 
Q 6.984375 17.96875 6.984375 36.375 
Q 6.984375 53.65625 15.1875 63.9375 
Q 23.390625 74.21875 37.203125 74.21875 
Q 40.921875 74.21875 44.703125 73.484375 
Q 48.484375 72.75 52.59375 71.296875 
z
" id="DejaVuSans-54"/>
      </defs>
      <g transform="translate(13.915 182.132552)scale(0.1 -0.1)">
       <use xlink:href="#DejaVuSans-54"/>
       <use x="63.623047" xlink:href="#DejaVuSans-48"/>
      </g>
     </g>
    </g>
    <g id="ytick_5">
     <g id="line2d_11">
      <g>
       <use style="stroke:#000000;stroke-width:0.8;" x="33.64" xlink:href="#m1e77b97585" y="151.071111"/>
      </g>
     </g>
     <g id="text_11">
      <!-- 80 -->
      <defs>
       <path d="M 31.78125 34.625 
Q 24.75 34.625 20.71875 30.859375 
Q 16.703125 27.09375 16.703125 20.515625 
Q 16.703125 13.921875 20.71875 10.15625 
Q 24.75 6.390625 31.78125 6.390625 
Q 38.8125 6.390625 42.859375 10.171875 
Q 46.921875 13.96875 46.921875 20.515625 
Q 46.921875 27.09375 42.890625 30.859375 
Q 38.875 34.625 31.78125 34.625 
z
M 21.921875 38.8125 
Q 15.578125 40.375 12.03125 44.71875 
Q 8.5 49.078125 8.5 55.328125 
Q 8.5 64.0625 14.71875 69.140625 
Q 20.953125 74.21875 31.78125 74.21875 
Q 42.671875 74.21875 48.875 69.140625 
Q 55.078125 64.0625 55.078125 55.328125 
Q 55.078125 49.078125 51.53125 44.71875 
Q 48 40.375 41.703125 38.8125 
Q 48.828125 37.15625 52.796875 32.3125 
Q 56.78125 27.484375 56.78125 20.515625 
Q 56.78125 9.90625 50.3125 4.234375 
Q 43.84375 -1.421875 31.78125 -1.421875 
Q 19.734375 -1.421875 13.25 4.234375 
Q 6.78125 9.90625 6.78125 20.515625 
Q 6.78125 27.484375 10.78125 32.3125 
Q 14.796875 37.15625 21.921875 38.8125 
z
M 18.3125 54.390625 
Q 18.3125 48.734375 21.84375 45.5625 
Q 25.390625 42.390625 31.78125 42.390625 
Q 38.140625 42.390625 41.71875 45.5625 
Q 45.3125 48.734375 45.3125 54.390625 
Q 45.3125 60.0625 41.71875 63.234375 
Q 38.140625 66.40625 31.78125 66.40625 
Q 25.390625 66.40625 21.84375 63.234375 
Q 18.3125 60.0625 18.3125 54.390625 
z
" id="DejaVuSans-56"/>
      </defs>
      <g transform="translate(13.915 154.87033)scale(0.1 -0.1)">
       <use xlink:href="#DejaVuSans-56"/>
       <use x="63.623047" xlink:href="#DejaVuSans-48"/>
      </g>
     </g>
    </g>
    <g id="ytick_6">
     <g id="line2d_12">
      <g>
       <use style="stroke:#000000;stroke-width:0.8;" x="33.64" xlink:href="#m1e77b97585" y="123.808889"/>
      </g>
     </g>
     <g id="text_12">
      <!-- 100 -->
      <defs>
       <path d="M 12.40625 8.296875 
L 28.515625 8.296875 
L 28.515625 63.921875 
L 10.984375 60.40625 
L 10.984375 69.390625 
L 28.421875 72.90625 
L 38.28125 72.90625 
L 38.28125 8.296875 
L 54.390625 8.296875 
L 54.390625 0 
L 12.40625 0 
z
" id="DejaVuSans-49"/>
      </defs>
      <g transform="translate(7.5525 127.608108)scale(0.1 -0.1)">
       <use xlink:href="#DejaVuSans-49"/>
       <use x="63.623047" xlink:href="#DejaVuSans-48"/>
       <use x="127.246094" xlink:href="#DejaVuSans-48"/>
      </g>
     </g>
    </g>
    <g id="ytick_7">
     <g id="line2d_13">
      <g>
       <use style="stroke:#000000;stroke-width:0.8;" x="33.64" xlink:href="#m1e77b97585" y="96.546667"/>
      </g>
     </g>
     <g id="text_13">
      <!-- 120 -->
      <g transform="translate(7.5525 100.345885)scale(0.1 -0.1)">
       <use xlink:href="#DejaVuSans-49"/>
       <use x="63.623047" xlink:href="#DejaVuSans-50"/>
       <use x="127.246094" xlink:href="#DejaVuSans-48"/>
      </g>
     </g>
    </g>
    <g id="ytick_8">
     <g id="line2d_14">
      <g>
       <use style="stroke:#000000;stroke-width:0.8;" x="33.64" xlink:href="#m1e77b97585" y="69.284444"/>
      </g>
     </g>
     <g id="text_14">
      <!-- 140 -->
      <g transform="translate(7.5525 73.083663)scale(0.1 -0.1)">
       <use xlink:href="#DejaVuSans-49"/>
       <use x="63.623047" xlink:href="#DejaVuSans-52"/>
       <use x="127.246094" xlink:href="#DejaVuSans-48"/>
      </g>
     </g>
    </g>
    <g id="ytick_9">
     <g id="line2d_15">
      <g>
       <use style="stroke:#000000;stroke-width:0.8;" x="33.64" xlink:href="#m1e77b97585" y="42.022222"/>
      </g>
     </g>
     <g id="text_15">
      <!-- 160 -->
      <g transform="translate(7.5525 45.821441)scale(0.1 -0.1)">
       <use xlink:href="#DejaVuSans-49"/>
       <use x="63.623047" xlink:href="#DejaVuSans-54"/>
       <use x="127.246094" xlink:href="#DejaVuSans-48"/>
      </g>
     </g>
    </g>
    <g id="ytick_10">
     <g id="line2d_16">
      <g>
       <use style="stroke:#000000;stroke-width:0.8;" x="33.64" xlink:href="#m1e77b97585" y="14.76"/>
      </g>
     </g>
     <g id="text_16">
      <!-- 180 -->
      <g transform="translate(7.5525 18.559219)scale(0.1 -0.1)">
       <use xlink:href="#DejaVuSans-49"/>
       <use x="63.623047" xlink:href="#DejaVuSans-56"/>
       <use x="127.246094" xlink:href="#DejaVuSans-48"/>
      </g>
     </g>
    </g>
   </g>
   <g id="line2d_17">
    <path clip-path="url(#p12f4131a7e)" d="M 33.64 260.12 
L 92.84633 260.12 
L 93.963346 257.393778 
L 95.102247 257.393778 
L 96.23747 253.304444 
L 97.372493 251.941333 
L 98.510162 249.215111 
L 99.646359 249.215111 
L 100.784157 246.488889 
L 101.920464 242.399556 
L 103.056056 242.399556 
L 104.192217 236.947111 
L 105.329817 235.584 
L 106.466739 235.584 
L 107.604424 232.857778 
L 108.739507 228.768444 
L 111.011575 228.768444 
L 112.146835 224.679111 
L 113.28332 221.952889 
L 114.419817 221.952889 
L 115.558355 219.226667 
L 116.695005 219.226667 
L 117.832457 221.952889 
L 118.967454 228.768444 
L 121.23729 228.768444 
L 123.5077 239.673333 
L 124.646579 239.673333 
L 125.783452 238.310222 
L 126.921331 235.584 
L 128.05632 235.584 
L 129.191405 227.405333 
L 130.326159 226.042222 
L 131.461711 223.316 
L 132.59673 223.316 
L 133.734139 221.952889 
L 136.005219 221.952889 
L 137.142457 209.684889 
L 138.27748 209.684889 
L 139.413592 208.321778 
L 140.549065 198.78 
L 141.687212 197.416889 
L 142.822644 197.416889 
L 143.958037 191.964444 
L 146.229188 191.964444 
L 147.366837 187.875111 
L 148.501933 189.238222 
L 149.637322 189.238222 
L 150.772614 174.244 
L 151.908364 166.065333 
L 153.044618 166.065333 
L 154.182015 141.529333 
L 155.320002 126.535111 
L 156.456745 126.535111 
L 159.868743 63.832 
L 161.00659 63.832 
L 162.144125 61.105778 
L 163.281521 61.105778 
L 164.419308 57.016444 
L 165.557904 76.1 
L 166.696277 84.278667 
L 167.834149 84.278667 
L 168.97005 87.004889 
L 171.240955 87.004889 
L 172.377017 92.457333 
L 173.51259 100.636 
L 174.650011 101.999111 
L 175.787453 101.999111 
L 176.92299 116.993333 
L 178.058749 116.993333 
L 179.19506 133.350667 
L 180.330987 157.886667 
L 181.467121 166.065333 
L 182.603641 166.065333 
L 183.739198 176.970222 
L 184.875147 190.601333 
L 187.149249 190.601333 
L 188.285526 260.12 
L 252.035906 260.12 
L 253.152947 258.756889 
L 254.289007 245.125778 
L 255.424392 245.125778 
L 256.559105 236.947111 
L 257.697204 236.947111 
L 258.832783 232.857778 
L 259.968173 227.405333 
L 261.103531 227.405333 
L 262.240038 224.679111 
L 263.377003 223.316 
L 266.787509 223.316 
L 267.92285 227.405333 
L 269.060824 227.405333 
L 270.201076 234.220889 
L 271.336428 235.584 
L 273.611011 235.584 
L 274.748595 232.857778 
L 275.885323 232.857778 
L 277.020421 228.768444 
L 278.155791 234.220889 
L 279.290546 231.494667 
L 280.429285 231.494667 
L 281.564409 232.857778 
L 282.699496 230.131556 
L 283.834966 230.131556 
L 284.97022 228.768444 
L 287.242714 215.137333 
L 288.378602 215.137333 
L 289.514394 204.232444 
L 290.64965 204.232444 
L 291.785679 208.321778 
L 292.920824 204.232444 
L 294.055765 204.232444 
L 295.190751 202.869333 
L 296.325747 206.958667 
L 297.46301 206.958667 
L 298.607483 201.506222 
L 299.744341 202.869333 
L 300.879668 193.327556 
L 302.015465 193.327556 
L 303.152072 179.696444 
L 304.290027 168.791556 
L 305.426434 168.791556 
L 306.564691 152.434222 
L 307.702793 130.624444 
L 308.837667 121.082667 
L 309.974171 121.082667 
L 311.109631 104.725333 
L 312.245618 99.272889 
L 313.381298 99.272889 
L 314.517621 82.915556 
L 315.654863 82.915556 
L 316.79042 69.284444 
L 317.926976 63.832 
L 319.063135 51.564 
L 320.199347 51.564 
L 321.334817 58.379556 
L 322.471055 37.932889 
L 323.608225 37.932889 
L 324.743483 46.111556 
L 325.879576 32.480444 
L 327.015665 32.480444 
L 328.151734 36.569778 
L 329.286756 31.117333 
L 330.422998 31.117333 
L 331.559293 29.754222 
L 332.696927 44.748444 
L 333.832991 63.832 
L 334.969297 63.832 
L 337.243314 92.457333 
L 338.378824 92.457333 
L 339.51458 101.999111 
L 340.650636 108.814667 
L 341.786332 108.814667 
L 342.923148 134.713778 
L 344.059396 136.076889 
L 345.195116 136.076889 
L 346.331496 142.892444 
L 347.467529 260.12 
L 411.217278 260.12 
L 412.352883 258.756889 
L 413.48845 246.488889 
L 414.625887 246.488889 
L 415.76088 235.584 
L 416.896329 228.768444 
L 418.032393 220.589778 
L 419.167714 220.589778 
L 420.304081 215.137333 
L 421.441432 215.137333 
L 423.714619 204.232444 
L 424.852068 211.048 
L 425.988365 211.048 
L 428.260875 205.595556 
L 429.396655 205.595556 
L 430.532865 211.048 
L 431.669037 211.048 
L 432.806603 224.679111 
L 433.942222 224.679111 
L 435.0783 220.589778 
L 436.214078 220.589778 
L 437.354033 223.316 
L 438.489721 221.952889 
L 439.627748 221.952889 
L 440.764815 227.405333 
L 441.900865 223.316 
L 443.036921 223.316 
L 445.31185 215.137333 
L 446.449015 215.137333 
L 447.586438 212.411111 
L 448.722848 211.048 
L 449.859106 205.595556 
L 450.994912 205.595556 
L 452.131652 201.506222 
L 453.267562 200.143111 
L 454.403433 200.143111 
L 455.539591 197.416889 
L 456.675917 198.78 
L 457.812196 198.78 
L 458.948225 189.238222 
L 460.084224 183.785778 
L 461.220947 174.244 
L 462.356027 175.607111 
L 463.496243 172.880889 
L 464.632745 172.880889 
L 465.769702 167.428444 
L 466.909101 152.434222 
L 468.044499 144.255556 
L 469.179757 144.255556 
L 470.315948 121.082667 
L 471.452585 103.362222 
L 472.589153 103.362222 
L 473.727488 76.1 
L 474.86339 54.290222 
L 475.998197 54.290222 
L 477.133453 35.206667 
L 478.272006 32.480444 
L 479.407323 32.480444 
L 480.542801 28.391111 
L 481.680101 39.296 
L 482.818154 39.296 
L 483.953055 40.659111 
L 485.090756 54.290222 
L 486.231778 63.832 
L 487.368333 63.832 
L 489.643538 108.814667 
L 490.782071 108.814667 
L 491.919479 126.535111 
L 493.05613 141.529333 
L 494.192555 160.612889 
L 495.329022 160.612889 
L 496.464763 172.880889 
L 497.600985 172.880889 
L 498.738806 189.238222 
L 501.012269 200.143111 
L 502.148821 200.143111 
L 503.285726 201.506222 
L 507.830223 201.506222 
L 508.96709 260.12 
L 569.337398 260.12 
L 570.454731 257.393778 
L 571.590453 257.393778 
L 572.728189 249.215111 
L 573.863372 249.215111 
L 574.998225 247.852 
L 576.133081 239.673333 
L 578.404113 239.673333 
L 580.677314 234.220889 
L 581.812453 234.220889 
L 582.947935 238.310222 
L 584.083661 239.673333 
L 585.218479 239.673333 
L 587.489482 236.947111 
L 588.624779 236.947111 
L 589.760526 235.584 
L 590.896118 231.494667 
L 592.030948 232.857778 
L 594.304719 232.857778 
L 595.439787 234.220889 
L 596.576134 234.220889 
L 597.711081 227.405333 
L 598.846922 223.316 
L 599.982309 223.316 
L 601.119906 217.863556 
L 603.391107 217.863556 
L 604.526618 215.137333 
L 605.663065 217.863556 
L 606.8009 217.863556 
L 607.936971 228.768444 
L 609.07503 226.042222 
L 610.212405 219.226667 
L 611.347859 219.226667 
L 612.484036 215.137333 
L 613.621653 209.684889 
L 614.758492 209.684889 
L 615.894167 206.958667 
L 617.033815 206.958667 
L 618.171378 201.506222 
L 619.307143 204.232444 
L 620.444712 190.601333 
L 621.58051 190.601333 
L 622.716618 171.517778 
L 623.853374 161.976 
L 624.990541 161.976 
L 626.128066 144.255556 
L 627.264587 122.445778 
L 628.402088 122.445778 
L 629.538116 100.636 
L 630.674257 101.999111 
L 631.810458 91.094222 
L 632.947822 91.094222 
L 634.083633 88.368 
L 635.219635 72.010667 
L 636.355733 72.010667 
L 637.491957 50.200889 
L 638.628455 35.206667 
L 639.764786 35.206667 
L 640.900973 40.659111 
L 642.036929 31.117333 
L 643.17332 31.117333 
L 644.309709 39.296 
L 645.446421 50.200889 
L 646.582028 50.200889 
L 647.718187 51.564 
L 649.990533 67.921333 
L 653.398324 67.921333 
L 654.534715 87.004889 
L 655.67144 96.546667 
L 656.808259 96.546667 
L 657.944127 127.898222 
L 659.079992 146.981778 
L 660.217635 163.339111 
L 661.353627 163.339111 
L 662.489757 168.791556 
L 663.626372 176.970222 
L 664.762851 179.696444 
L 668.171041 179.696444 
L 669.30702 260.12 
L 728.560991 260.12 
L 729.677689 257.393778 
L 730.81335 257.393778 
L 731.948389 243.762667 
L 733.083903 223.316 
L 734.221434 216.500444 
L 735.356636 216.500444 
L 736.49422 208.321778 
L 738.767623 208.321778 
L 739.905044 197.416889 
L 742.180274 197.416889 
L 743.318677 193.327556 
L 746.726669 193.327556 
L 747.862947 189.238222 
L 748.999597 189.238222 
L 750.135984 191.964444 
L 751.271978 198.78 
L 752.407987 198.78 
L 753.544207 194.690667 
L 756.952261 194.690667 
L 758.087074 196.053778 
L 759.222947 196.053778 
L 760.359442 190.601333 
L 761.4948 200.143111 
L 762.630989 200.143111 
L 764.90164 202.869333 
L 766.03723 196.053778 
L 767.173232 196.053778 
L 768.309055 194.690667 
L 769.445095 197.416889 
L 770.581958 197.416889 
L 771.719335 190.601333 
L 772.855982 194.690667 
L 773.992143 194.690667 
L 775.128269 186.512 
L 776.264868 185.148889 
L 777.399851 185.148889 
L 778.534979 189.238222 
L 779.672579 182.422667 
L 780.80788 174.244 
L 781.943799 174.244 
L 783.079306 191.964444 
L 784.215394 191.964444 
L 785.351658 181.059556 
L 787.624319 146.981778 
L 788.76232 146.981778 
L 789.898167 133.350667 
L 791.034341 130.624444 
L 792.169659 130.624444 
L 793.3052 140.166222 
L 794.440912 137.44 
L 795.578309 131.987556 
L 796.714249 131.987556 
L 797.849569 123.808889 
L 798.987395 123.808889 
L 800.125191 108.814667 
L 801.261389 101.999111 
L 802.396556 97.909778 
L 803.535185 97.909778 
L 804.671094 96.546667 
L 805.806159 96.546667 
L 806.941739 95.183556 
L 808.077711 104.725333 
L 809.213093 119.719556 
L 810.348351 119.719556 
L 811.483972 121.082667 
L 812.619178 123.808889 
L 813.754048 123.808889 
L 814.8896 134.713778 
L 816.02466 140.166222 
L 817.160305 140.166222 
L 818.295629 155.160444 
L 819.430738 161.976 
L 820.568851 161.976 
L 821.704346 163.339111 
L 822.841982 167.428444 
L 823.979991 167.428444 
L 825.11834 179.696444 
L 826.25638 260.12 
L 889.98134 260.12 
L 891.116029 250.578222 
L 892.251284 246.488889 
L 893.388469 238.310222 
L 894.525737 238.310222 
L 896.796021 224.679111 
L 897.932278 224.679111 
L 899.067232 220.589778 
L 900.202731 211.048 
L 901.338207 211.048 
L 902.473508 206.958667 
L 903.608297 200.143111 
L 904.743084 200.143111 
L 905.877968 191.964444 
L 907.012637 186.512 
L 908.147083 186.512 
L 910.417418 178.333333 
L 911.552577 171.517778 
L 912.687336 171.517778 
L 913.824418 164.702222 
L 914.958923 164.702222 
L 916.095948 163.339111 
L 917.23168 151.071111 
L 918.368065 153.797333 
L 919.503636 153.797333 
L 920.638336 148.344889 
L 921.775499 146.981778 
L 922.912822 146.981778 
L 924.048141 149.708 
L 925.185378 153.797333 
L 926.319852 166.065333 
L 927.455179 166.065333 
L 928.590162 171.517778 
L 929.725864 171.517778 
L 930.861571 178.333333 
L 931.996687 176.970222 
L 934.268983 176.970222 
L 935.403763 178.333333 
L 936.541442 187.875111 
L 937.676763 187.875111 
L 938.811311 178.333333 
L 939.946884 178.333333 
L 941.083695 166.065333 
L 942.219492 176.970222 
L 943.356244 174.244 
L 945.627426 174.244 
L 946.761807 166.065333 
L 947.898885 166.065333 
L 949.036434 170.154667 
L 950.172978 168.791556 
L 951.309783 171.517778 
L 952.446204 171.517778 
L 953.582994 157.886667 
L 954.717516 167.428444 
L 955.854487 167.428444 
L 956.989585 164.702222 
L 958.126812 164.702222 
L 959.262587 156.523556 
L 960.397529 202.869333 
L 961.535219 202.869333 
L 962.670999 194.690667 
L 963.807852 191.964444 
L 964.945352 197.416889 
L 966.082276 197.416889 
L 968.353001 202.869333 
L 969.489812 209.684889 
L 970.62446 209.684889 
L 971.761532 208.321778 
L 972.896871 208.321778 
L 974.033424 212.411111 
L 975.170202 215.137333 
L 977.442586 215.137333 
L 978.577682 217.863556 
L 979.715201 226.042222 
L 981.98406 226.042222 
L 983.119884 260.12 
L 1049.116387 260.12 
L 1050.254049 251.941333 
L 1051.392566 247.852 
L 1052.529751 235.584 
L 1053.667384 235.584 
L 1054.802743 212.411111 
L 1055.937523 205.595556 
L 1057.072543 205.595556 
L 1058.208348 187.875111 
L 1060.481564 156.523556 
L 1061.618703 156.523556 
L 1062.755564 138.803111 
L 1063.893312 138.803111 
L 1065.02816 126.535111 
L 1066.16578 137.44 
L 1067.329353 137.44 
L 1068.46613 141.529333 
L 1069.601133 137.44 
L 1070.736343 137.44 
L 1071.871344 141.529333 
L 1073.008882 148.344889 
L 1074.143934 145.618667 
L 1075.282356 145.618667 
L 1076.417417 144.255556 
L 1077.552797 130.624444 
L 1078.687857 130.624444 
L 1079.823405 127.898222 
L 1080.958438 131.987556 
L 1082.095727 131.987556 
L 1083.23121 137.44 
L 1084.366002 141.529333 
L 1085.501146 141.529333 
L 1086.635829 127.898222 
L 1087.770674 122.445778 
L 1088.90608 123.808889 
L 1090.043815 123.808889 
L 1091.18136 125.172 
L 1092.318221 130.624444 
L 1093.455944 130.624444 
L 1094.593071 136.076889 
L 1095.729757 138.803111 
L 1098.000648 138.803111 
L 1099.136767 163.339111 
L 1100.27256 163.339111 
L 1101.410391 182.422667 
L 1102.545527 185.148889 
L 1103.682064 185.148889 
L 1104.820492 168.791556 
L 1105.955895 166.065333 
L 1107.090812 157.886667 
L 1108.228525 157.886667 
L 1109.364562 148.344889 
L 1111.636276 148.344889 
L 1112.772819 142.892444 
L 1115.045861 142.892444 
L 1116.182079 146.981778 
L 1117.318003 159.249778 
L 1118.453619 159.249778 
L 1120.772195 161.976 
L 1121.90726 161.976 
L 1123.043576 163.339111 
L 1124.18024 182.422667 
L 1125.316959 187.875111 
L 1126.456116 187.875111 
L 1127.591657 186.512 
L 1128.728975 186.512 
L 1129.865292 194.690667 
L 1131.00173 193.327556 
L 1132.139427 193.327556 
L 1133.28 198.78 
L 1133.28 198.78 
" style="fill:none;stroke:#1f77b4;stroke-linecap:square;stroke-width:1.5;"/>
   </g>
   <g id="patch_3">
    <path d="M 33.64 260.12 
L 33.64 14.76 
" style="fill:none;stroke:#000000;stroke-linecap:square;stroke-linejoin:miter;stroke-width:0.8;"/>
   </g>
   <g id="patch_4">
    <path d="M 1133.28 260.12 
L 1133.28 14.76 
" style="fill:none;stroke:#000000;stroke-linecap:square;stroke-linejoin:miter;stroke-width:0.8;"/>
   </g>
   <g id="patch_5">
    <path d="M 33.64 260.12 
L 1133.28 260.12 
" style="fill:none;stroke:#000000;stroke-linecap:square;stroke-linejoin:miter;stroke-width:0.8;"/>
   </g>
   <g id="patch_6">
    <path d="M 33.64 14.76 
L 1133.28 14.76 
" style="fill:none;stroke:#000000;stroke-linecap:square;stroke-linejoin:miter;stroke-width:0.8;"/>
   </g>
  </g>
 </g>
 <defs>
  <clipPath id="p12f4131a7e">
   <rect height="245.36" width="1099.64" x="33.64" y="14.76"/>
  </clipPath>
 </defs>
</svg>
