<?xml version="1.0" encoding="utf-8" standalone="no"?>
<!DOCTYPE svg PUBLIC "-//W3C//DTD SVG 1.1//EN"
  "http://www.w3.org/Graphics/SVG/1.1/DTD/svg11.dtd">
<!-- Created with matplotlib (https://matplotlib.org/) -->
<svg height="288pt" version="1.1" viewBox="0 0 1152 288" width="1152pt" xmlns="http://www.w3.org/2000/svg" xmlns:xlink="http://www.w3.org/1999/xlink">
 <defs>
  <style type="text/css">
*{stroke-linecap:butt;stroke-linejoin:round;}
  </style>
 </defs>
 <g id="figure_1">
  <g id="patch_1">
   <path d="M 0 288 
L 1152 288 
L 1152 0 
L 0 0 
z
" style="fill:#ffffff;"/>
  </g>
  <g id="axes_1">
   <g id="patch_2">
    <path d="M 33.64 260.12 
L 1133.28 260.12 
L 1133.28 14.76 
L 33.64 14.76 
z
" style="fill:#ffffff;"/>
   </g>
   <g id="matplotlib.axis_1">
    <g id="xtick_1">
     <g id="line2d_1">
      <defs>
       <path d="M 0 0 
L 0 3.5 
" id="m9fa79919bd" style="stroke:#000000;stroke-width:0.8;"/>
      </defs>
      <g>
       <use style="stroke:#000000;stroke-width:0.8;" x="200.48151" xlink:href="#m9fa79919bd" y="260.12"/>
      </g>
     </g>
     <g id="text_1">
      <!-- Tue 00:00 -->
      <defs>
       <path d="M -0.296875 72.90625 
L 61.375 72.90625 
L 61.375 64.59375 
L 35.5 64.59375 
L 35.5 0 
L 25.59375 0 
L 25.59375 64.59375 
L -0.296875 64.59375 
z
" id="DejaVuSans-84"/>
       <path d="M 8.5 21.578125 
L 8.5 54.6875 
L 17.484375 54.6875 
L 17.484375 21.921875 
Q 17.484375 14.15625 20.5 10.265625 
Q 23.53125 6.390625 29.59375 6.390625 
Q 36.859375 6.390625 41.078125 11.03125 
Q 45.3125 15.671875 45.3125 23.6875 
L 45.3125 54.6875 
L 54.296875 54.6875 
L 54.296875 0 
L 45.3125 0 
L 45.3125 8.40625 
Q 42.046875 3.421875 37.71875 1 
Q 33.40625 -1.421875 27.6875 -1.421875 
Q 18.265625 -1.421875 13.375 4.4375 
Q 8.5 10.296875 8.5 21.578125 
z
M 31.109375 56 
z
" id="DejaVuSans-117"/>
       <path d="M 56.203125 29.59375 
L 56.203125 25.203125 
L 14.890625 25.203125 
Q 15.484375 15.921875 20.484375 11.0625 
Q 25.484375 6.203125 34.421875 6.203125 
Q 39.59375 6.203125 44.453125 7.46875 
Q 49.3125 8.734375 54.109375 11.28125 
L 54.109375 2.78125 
Q 49.265625 0.734375 44.1875 -0.34375 
Q 39.109375 -1.421875 33.890625 -1.421875 
Q 20.796875 -1.421875 13.15625 6.1875 
Q 5.515625 13.8125 5.515625 26.8125 
Q 5.515625 40.234375 12.765625 48.109375 
Q 20.015625 56 32.328125 56 
Q 43.359375 56 49.78125 48.890625 
Q 56.203125 41.796875 56.203125 29.59375 
z
M 47.21875 32.234375 
Q 47.125 39.59375 43.09375 43.984375 
Q 39.0625 48.390625 32.421875 48.390625 
Q 24.90625 48.390625 20.390625 44.140625 
Q 15.875 39.890625 15.1875 32.171875 
z
" id="DejaVuSans-101"/>
       <path id="DejaVuSans-32"/>
       <path d="M 31.78125 66.40625 
Q 24.171875 66.40625 20.328125 58.90625 
Q 16.5 51.421875 16.5 36.375 
Q 16.5 21.390625 20.328125 13.890625 
Q 24.171875 6.390625 31.78125 6.390625 
Q 39.453125 6.390625 43.28125 13.890625 
Q 47.125 21.390625 47.125 36.375 
Q 47.125 51.421875 43.28125 58.90625 
Q 39.453125 66.40625 31.78125 66.40625 
z
M 31.78125 74.21875 
Q 44.046875 74.21875 50.515625 64.515625 
Q 56.984375 54.828125 56.984375 36.375 
Q 56.984375 17.96875 50.515625 8.265625 
Q 44.046875 -1.421875 31.78125 -1.421875 
Q 19.53125 -1.421875 13.0625 8.265625 
Q 6.59375 17.96875 6.59375 36.375 
Q 6.59375 54.828125 13.0625 64.515625 
Q 19.53125 74.21875 31.78125 74.21875 
z
" id="DejaVuSans-48"/>
       <path d="M 11.71875 12.40625 
L 22.015625 12.40625 
L 22.015625 0 
L 11.71875 0 
z
M 11.71875 51.703125 
L 22.015625 51.703125 
L 22.015625 39.3125 
L 11.71875 39.3125 
z
" id="DejaVuSans-58"/>
      </defs>
      <g transform="translate(175.195572 274.718437)scale(0.1 -0.1)">
       <use xlink:href="#DejaVuSans-84"/>
       <use x="60.849609" xlink:href="#DejaVuSans-117"/>
       <use x="124.228516" xlink:href="#DejaVuSans-101"/>
       <use x="185.751953" xlink:href="#DejaVuSans-32"/>
       <use x="217.539062" xlink:href="#DejaVuSans-48"/>
       <use x="281.162109" xlink:href="#DejaVuSans-48"/>
       <use x="344.785156" xlink:href="#DejaVuSans-58"/>
       <use x="378.476562" xlink:href="#DejaVuSans-48"/>
       <use x="442.099609" xlink:href="#DejaVuSans-48"/>
      </g>
     </g>
    </g>
    <g id="xtick_2">
     <g id="line2d_2">
      <g>
       <use style="stroke:#000000;stroke-width:0.8;" x="367.492311" xlink:href="#m9fa79919bd" y="260.12"/>
      </g>
     </g>
     <g id="text_2">
      <!-- Wed 00:00 -->
      <defs>
       <path d="M 3.328125 72.90625 
L 13.28125 72.90625 
L 28.609375 11.28125 
L 43.890625 72.90625 
L 54.984375 72.90625 
L 70.3125 11.28125 
L 85.59375 72.90625 
L 95.609375 72.90625 
L 77.296875 0 
L 64.890625 0 
L 49.515625 63.28125 
L 33.984375 0 
L 21.578125 0 
z
" id="DejaVuSans-87"/>
       <path d="M 45.40625 46.390625 
L 45.40625 75.984375 
L 54.390625 75.984375 
L 54.390625 0 
L 45.40625 0 
L 45.40625 8.203125 
Q 42.578125 3.328125 38.25 0.953125 
Q 33.9375 -1.421875 27.875 -1.421875 
Q 17.96875 -1.421875 11.734375 6.484375 
Q 5.515625 14.40625 5.515625 27.296875 
Q 5.515625 40.1875 11.734375 48.09375 
Q 17.96875 56 27.875 56 
Q 33.9375 56 38.25 53.625 
Q 42.578125 51.265625 45.40625 46.390625 
z
M 14.796875 27.296875 
Q 14.796875 17.390625 18.875 11.75 
Q 22.953125 6.109375 30.078125 6.109375 
Q 37.203125 6.109375 41.296875 11.75 
Q 45.40625 17.390625 45.40625 27.296875 
Q 45.40625 37.203125 41.296875 42.84375 
Q 37.203125 48.484375 30.078125 48.484375 
Q 22.953125 48.484375 18.875 42.84375 
Q 14.796875 37.203125 14.796875 27.296875 
z
" id="DejaVuSans-100"/>
      </defs>
      <g transform="translate(340.303248 274.718437)scale(0.1 -0.1)">
       <use xlink:href="#DejaVuSans-87"/>
       <use x="98.798828" xlink:href="#DejaVuSans-101"/>
       <use x="160.322266" xlink:href="#DejaVuSans-100"/>
       <use x="223.798828" xlink:href="#DejaVuSans-32"/>
       <use x="255.585938" xlink:href="#DejaVuSans-48"/>
       <use x="319.208984" xlink:href="#DejaVuSans-48"/>
       <use x="382.832031" xlink:href="#DejaVuSans-58"/>
       <use x="416.523438" xlink:href="#DejaVuSans-48"/>
       <use x="480.146484" xlink:href="#DejaVuSans-48"/>
      </g>
     </g>
    </g>
    <g id="xtick_3">
     <g id="line2d_3">
      <g>
       <use style="stroke:#000000;stroke-width:0.8;" x="534.503112" xlink:href="#m9fa79919bd" y="260.12"/>
      </g>
     </g>
     <g id="text_3">
      <!-- Thu 00:00 -->
      <defs>
       <path d="M 54.890625 33.015625 
L 54.890625 0 
L 45.90625 0 
L 45.90625 32.71875 
Q 45.90625 40.484375 42.875 44.328125 
Q 39.84375 48.1875 33.796875 48.1875 
Q 26.515625 48.1875 22.3125 43.546875 
Q 18.109375 38.921875 18.109375 30.90625 
L 18.109375 0 
L 9.078125 0 
L 9.078125 75.984375 
L 18.109375 75.984375 
L 18.109375 46.1875 
Q 21.34375 51.125 25.703125 53.5625 
Q 30.078125 56 35.796875 56 
Q 45.21875 56 50.046875 50.171875 
Q 54.890625 44.34375 54.890625 33.015625 
z
" id="DejaVuSans-104"/>
      </defs>
      <g transform="translate(509.113268 274.718437)scale(0.1 -0.1)">
       <use xlink:href="#DejaVuSans-84"/>
       <use x="61.083984" xlink:href="#DejaVuSans-104"/>
       <use x="124.462891" xlink:href="#DejaVuSans-117"/>
       <use x="187.841797" xlink:href="#DejaVuSans-32"/>
       <use x="219.628906" xlink:href="#DejaVuSans-48"/>
       <use x="283.251953" xlink:href="#DejaVuSans-48"/>
       <use x="346.875" xlink:href="#DejaVuSans-58"/>
       <use x="380.566406" xlink:href="#DejaVuSans-48"/>
       <use x="444.189453" xlink:href="#DejaVuSans-48"/>
      </g>
     </g>
    </g>
    <g id="xtick_4">
     <g id="line2d_4">
      <g>
       <use style="stroke:#000000;stroke-width:0.8;" x="701.513913" xlink:href="#m9fa79919bd" y="260.12"/>
      </g>
     </g>
     <g id="text_4">
      <!-- Fri 00:00 -->
      <defs>
       <path d="M 9.8125 72.90625 
L 51.703125 72.90625 
L 51.703125 64.59375 
L 19.671875 64.59375 
L 19.671875 43.109375 
L 48.578125 43.109375 
L 48.578125 34.8125 
L 19.671875 34.8125 
L 19.671875 0 
L 9.8125 0 
z
" id="DejaVuSans-70"/>
       <path d="M 41.109375 46.296875 
Q 39.59375 47.171875 37.8125 47.578125 
Q 36.03125 48 33.890625 48 
Q 26.265625 48 22.1875 43.046875 
Q 18.109375 38.09375 18.109375 28.8125 
L 18.109375 0 
L 9.078125 0 
L 9.078125 54.6875 
L 18.109375 54.6875 
L 18.109375 46.1875 
Q 20.953125 51.171875 25.484375 53.578125 
Q 30.03125 56 36.53125 56 
Q 37.453125 56 38.578125 55.875 
Q 39.703125 55.765625 41.0625 55.515625 
z
" id="DejaVuSans-114"/>
       <path d="M 9.421875 54.6875 
L 18.40625 54.6875 
L 18.40625 0 
L 9.421875 0 
z
M 9.421875 75.984375 
L 18.40625 75.984375 
L 18.40625 64.59375 
L 9.421875 64.59375 
z
" id="DejaVuSans-105"/>
      </defs>
      <g transform="translate(679.200632 274.718437)scale(0.1 -0.1)">
       <use xlink:href="#DejaVuSans-70"/>
       <use x="57.410156" xlink:href="#DejaVuSans-114"/>
       <use x="98.523438" xlink:href="#DejaVuSans-105"/>
       <use x="126.306641" xlink:href="#DejaVuSans-32"/>
       <use x="158.09375" xlink:href="#DejaVuSans-48"/>
       <use x="221.716797" xlink:href="#DejaVuSans-48"/>
       <use x="285.339844" xlink:href="#DejaVuSans-58"/>
       <use x="319.03125" xlink:href="#DejaVuSans-48"/>
       <use x="382.654297" xlink:href="#DejaVuSans-48"/>
      </g>
     </g>
    </g>
    <g id="xtick_5">
     <g id="line2d_5">
      <g>
       <use style="stroke:#000000;stroke-width:0.8;" x="868.524714" xlink:href="#m9fa79919bd" y="260.12"/>
      </g>
     </g>
     <g id="text_5">
      <!-- Sat 00:00 -->
      <defs>
       <path d="M 53.515625 70.515625 
L 53.515625 60.890625 
Q 47.90625 63.578125 42.921875 64.890625 
Q 37.9375 66.21875 33.296875 66.21875 
Q 25.25 66.21875 20.875 63.09375 
Q 16.5 59.96875 16.5 54.203125 
Q 16.5 49.359375 19.40625 46.890625 
Q 22.3125 44.4375 30.421875 42.921875 
L 36.375 41.703125 
Q 47.40625 39.59375 52.65625 34.296875 
Q 57.90625 29 57.90625 20.125 
Q 57.90625 9.515625 50.796875 4.046875 
Q 43.703125 -1.421875 29.984375 -1.421875 
Q 24.8125 -1.421875 18.96875 -0.25 
Q 13.140625 0.921875 6.890625 3.21875 
L 6.890625 13.375 
Q 12.890625 10.015625 18.65625 8.296875 
Q 24.421875 6.59375 29.984375 6.59375 
Q 38.421875 6.59375 43.015625 9.90625 
Q 47.609375 13.234375 47.609375 19.390625 
Q 47.609375 24.75 44.3125 27.78125 
Q 41.015625 30.8125 33.5 32.328125 
L 27.484375 33.5 
Q 16.453125 35.6875 11.515625 40.375 
Q 6.59375 45.0625 6.59375 53.421875 
Q 6.59375 63.09375 13.40625 68.65625 
Q 20.21875 74.21875 32.171875 74.21875 
Q 37.3125 74.21875 42.625 73.28125 
Q 47.953125 72.359375 53.515625 70.515625 
z
" id="DejaVuSans-83"/>
       <path d="M 34.28125 27.484375 
Q 23.390625 27.484375 19.1875 25 
Q 14.984375 22.515625 14.984375 16.5 
Q 14.984375 11.71875 18.140625 8.90625 
Q 21.296875 6.109375 26.703125 6.109375 
Q 34.1875 6.109375 38.703125 11.40625 
Q 43.21875 16.703125 43.21875 25.484375 
L 43.21875 27.484375 
z
M 52.203125 31.203125 
L 52.203125 0 
L 43.21875 0 
L 43.21875 8.296875 
Q 40.140625 3.328125 35.546875 0.953125 
Q 30.953125 -1.421875 24.3125 -1.421875 
Q 15.921875 -1.421875 10.953125 3.296875 
Q 6 8.015625 6 15.921875 
Q 6 25.140625 12.171875 29.828125 
Q 18.359375 34.515625 30.609375 34.515625 
L 43.21875 34.515625 
L 43.21875 35.40625 
Q 43.21875 41.609375 39.140625 45 
Q 35.0625 48.390625 27.6875 48.390625 
Q 23 48.390625 18.546875 47.265625 
Q 14.109375 46.140625 10.015625 43.890625 
L 10.015625 52.203125 
Q 14.9375 54.109375 19.578125 55.046875 
Q 24.21875 56 28.609375 56 
Q 40.484375 56 46.34375 49.84375 
Q 52.203125 43.703125 52.203125 31.203125 
z
" id="DejaVuSans-97"/>
       <path d="M 18.3125 70.21875 
L 18.3125 54.6875 
L 36.8125 54.6875 
L 36.8125 47.703125 
L 18.3125 47.703125 
L 18.3125 18.015625 
Q 18.3125 11.328125 20.140625 9.421875 
Q 21.96875 7.515625 27.59375 7.515625 
L 36.8125 7.515625 
L 36.8125 0 
L 27.59375 0 
Q 17.1875 0 13.234375 3.875 
Q 9.28125 7.765625 9.28125 18.015625 
L 9.28125 47.703125 
L 2.6875 47.703125 
L 2.6875 54.6875 
L 9.28125 54.6875 
L 9.28125 70.21875 
z
" id="DejaVuSans-116"/>
      </defs>
      <g transform="translate(844.327839 274.718437)scale(0.1 -0.1)">
       <use xlink:href="#DejaVuSans-83"/>
       <use x="63.476562" xlink:href="#DejaVuSans-97"/>
       <use x="124.755859" xlink:href="#DejaVuSans-116"/>
       <use x="163.964844" xlink:href="#DejaVuSans-32"/>
       <use x="195.751953" xlink:href="#DejaVuSans-48"/>
       <use x="259.375" xlink:href="#DejaVuSans-48"/>
       <use x="322.998047" xlink:href="#DejaVuSans-58"/>
       <use x="356.689453" xlink:href="#DejaVuSans-48"/>
       <use x="420.3125" xlink:href="#DejaVuSans-48"/>
      </g>
     </g>
    </g>
    <g id="xtick_6">
     <g id="line2d_6">
      <g>
       <use style="stroke:#000000;stroke-width:0.8;" x="1035.535515" xlink:href="#m9fa79919bd" y="260.12"/>
      </g>
     </g>
     <g id="text_6">
      <!-- Sun 00:00 -->
      <defs>
       <path d="M 54.890625 33.015625 
L 54.890625 0 
L 45.90625 0 
L 45.90625 32.71875 
Q 45.90625 40.484375 42.875 44.328125 
Q 39.84375 48.1875 33.796875 48.1875 
Q 26.515625 48.1875 22.3125 43.546875 
Q 18.109375 38.921875 18.109375 30.90625 
L 18.109375 0 
L 9.078125 0 
L 9.078125 54.6875 
L 18.109375 54.6875 
L 18.109375 46.1875 
Q 21.34375 51.125 25.703125 53.5625 
Q 30.078125 56 35.796875 56 
Q 45.21875 56 50.046875 50.171875 
Q 54.890625 44.34375 54.890625 33.015625 
z
" id="DejaVuSans-110"/>
      </defs>
      <g transform="translate(1010.025359 274.718437)scale(0.1 -0.1)">
       <use xlink:href="#DejaVuSans-83"/>
       <use x="63.476562" xlink:href="#DejaVuSans-117"/>
       <use x="126.855469" xlink:href="#DejaVuSans-110"/>
       <use x="190.234375" xlink:href="#DejaVuSans-32"/>
       <use x="222.021484" xlink:href="#DejaVuSans-48"/>
       <use x="285.644531" xlink:href="#DejaVuSans-48"/>
       <use x="349.267578" xlink:href="#DejaVuSans-58"/>
       <use x="382.958984" xlink:href="#DejaVuSans-48"/>
       <use x="446.582031" xlink:href="#DejaVuSans-48"/>
      </g>
     </g>
    </g>
   </g>
   <g id="matplotlib.axis_2">
    <g id="ytick_1">
     <g id="line2d_7">
      <defs>
       <path d="M 0 0 
L -3.5 0 
" id="m0bb51b5423" style="stroke:#000000;stroke-width:0.8;"/>
      </defs>
      <g>
       <use style="stroke:#000000;stroke-width:0.8;" x="33.64" xlink:href="#m0bb51b5423" y="260.12"/>
      </g>
     </g>
     <g id="text_7">
      <!-- 0 -->
      <g transform="translate(20.2775 263.919219)scale(0.1 -0.1)">
       <use xlink:href="#DejaVuSans-48"/>
      </g>
     </g>
    </g>
    <g id="ytick_2">
     <g id="line2d_8">
      <g>
       <use style="stroke:#000000;stroke-width:0.8;" x="33.64" xlink:href="#m0bb51b5423" y="230.910476"/>
      </g>
     </g>
     <g id="text_8">
      <!-- 25 -->
      <defs>
       <path d="M 19.1875 8.296875 
L 53.609375 8.296875 
L 53.609375 0 
L 7.328125 0 
L 7.328125 8.296875 
Q 12.9375 14.109375 22.625 23.890625 
Q 32.328125 33.6875 34.8125 36.53125 
Q 39.546875 41.84375 41.421875 45.53125 
Q 43.3125 49.21875 43.3125 52.78125 
Q 43.3125 58.59375 39.234375 62.25 
Q 35.15625 65.921875 28.609375 65.921875 
Q 23.96875 65.921875 18.8125 64.3125 
Q 13.671875 62.703125 7.8125 59.421875 
L 7.8125 69.390625 
Q 13.765625 71.78125 18.9375 73 
Q 24.125 74.21875 28.421875 74.21875 
Q 39.75 74.21875 46.484375 68.546875 
Q 53.21875 62.890625 53.21875 53.421875 
Q 53.21875 48.921875 51.53125 44.890625 
Q 49.859375 40.875 45.40625 35.40625 
Q 44.1875 33.984375 37.640625 27.21875 
Q 31.109375 20.453125 19.1875 8.296875 
z
" id="DejaVuSans-50"/>
       <path d="M 10.796875 72.90625 
L 49.515625 72.90625 
L 49.515625 64.59375 
L 19.828125 64.59375 
L 19.828125 46.734375 
Q 21.96875 47.46875 24.109375 47.828125 
Q 26.265625 48.1875 28.421875 48.1875 
Q 40.625 48.1875 47.75 41.5 
Q 54.890625 34.8125 54.890625 23.390625 
Q 54.890625 11.625 47.5625 5.09375 
Q 40.234375 -1.421875 26.90625 -1.421875 
Q 22.3125 -1.421875 17.546875 -0.640625 
Q 12.796875 0.140625 7.71875 1.703125 
L 7.71875 11.625 
Q 12.109375 9.234375 16.796875 8.0625 
Q 21.484375 6.890625 26.703125 6.890625 
Q 35.15625 6.890625 40.078125 11.328125 
Q 45.015625 15.765625 45.015625 23.390625 
Q 45.015625 31 40.078125 35.4375 
Q 35.15625 39.890625 26.703125 39.890625 
Q 22.75 39.890625 18.8125 39.015625 
Q 14.890625 38.140625 10.796875 36.28125 
z
" id="DejaVuSans-53"/>
      </defs>
      <g transform="translate(13.915 234.709695)scale(0.1 -0.1)">
       <use xlink:href="#DejaVuSans-50"/>
       <use x="63.623047" xlink:href="#DejaVuSans-53"/>
      </g>
     </g>
    </g>
    <g id="ytick_3">
     <g id="line2d_9">
      <g>
       <use style="stroke:#000000;stroke-width:0.8;" x="33.64" xlink:href="#m0bb51b5423" y="201.700952"/>
      </g>
     </g>
     <g id="text_9">
      <!-- 50 -->
      <g transform="translate(13.915 205.500171)scale(0.1 -0.1)">
       <use xlink:href="#DejaVuSans-53"/>
       <use x="63.623047" xlink:href="#DejaVuSans-48"/>
      </g>
     </g>
    </g>
    <g id="ytick_4">
     <g id="line2d_10">
      <g>
       <use style="stroke:#000000;stroke-width:0.8;" x="33.64" xlink:href="#m0bb51b5423" y="172.491429"/>
      </g>
     </g>
     <g id="text_10">
      <!-- 75 -->
      <defs>
       <path d="M 8.203125 72.90625 
L 55.078125 72.90625 
L 55.078125 68.703125 
L 28.609375 0 
L 18.3125 0 
L 43.21875 64.59375 
L 8.203125 64.59375 
z
" id="DejaVuSans-55"/>
      </defs>
      <g transform="translate(13.915 176.290647)scale(0.1 -0.1)">
       <use xlink:href="#DejaVuSans-55"/>
       <use x="63.623047" xlink:href="#DejaVuSans-53"/>
      </g>
     </g>
    </g>
    <g id="ytick_5">
     <g id="line2d_11">
      <g>
       <use style="stroke:#000000;stroke-width:0.8;" x="33.64" xlink:href="#m0bb51b5423" y="143.281905"/>
      </g>
     </g>
     <g id="text_11">
      <!-- 100 -->
      <defs>
       <path d="M 12.40625 8.296875 
L 28.515625 8.296875 
L 28.515625 63.921875 
L 10.984375 60.40625 
L 10.984375 69.390625 
L 28.421875 72.90625 
L 38.28125 72.90625 
L 38.28125 8.296875 
L 54.390625 8.296875 
L 54.390625 0 
L 12.40625 0 
z
" id="DejaVuSans-49"/>
      </defs>
      <g transform="translate(7.5525 147.081124)scale(0.1 -0.1)">
       <use xlink:href="#DejaVuSans-49"/>
       <use x="63.623047" xlink:href="#DejaVuSans-48"/>
       <use x="127.246094" xlink:href="#DejaVuSans-48"/>
      </g>
     </g>
    </g>
    <g id="ytick_6">
     <g id="line2d_12">
      <g>
       <use style="stroke:#000000;stroke-width:0.8;" x="33.64" xlink:href="#m0bb51b5423" y="114.072381"/>
      </g>
     </g>
     <g id="text_12">
      <!-- 125 -->
      <g transform="translate(7.5525 117.8716)scale(0.1 -0.1)">
       <use xlink:href="#DejaVuSans-49"/>
       <use x="63.623047" xlink:href="#DejaVuSans-50"/>
       <use x="127.246094" xlink:href="#DejaVuSans-53"/>
      </g>
     </g>
    </g>
    <g id="ytick_7">
     <g id="line2d_13">
      <g>
       <use style="stroke:#000000;stroke-width:0.8;" x="33.64" xlink:href="#m0bb51b5423" y="84.862857"/>
      </g>
     </g>
     <g id="text_13">
      <!-- 150 -->
      <g transform="translate(7.5525 88.662076)scale(0.1 -0.1)">
       <use xlink:href="#DejaVuSans-49"/>
       <use x="63.623047" xlink:href="#DejaVuSans-53"/>
       <use x="127.246094" xlink:href="#DejaVuSans-48"/>
      </g>
     </g>
    </g>
    <g id="ytick_8">
     <g id="line2d_14">
      <g>
       <use style="stroke:#000000;stroke-width:0.8;" x="33.64" xlink:href="#m0bb51b5423" y="55.653333"/>
      </g>
     </g>
     <g id="text_14">
      <!-- 175 -->
      <g transform="translate(7.5525 59.452552)scale(0.1 -0.1)">
       <use xlink:href="#DejaVuSans-49"/>
       <use x="63.623047" xlink:href="#DejaVuSans-55"/>
       <use x="127.246094" xlink:href="#DejaVuSans-53"/>
      </g>
     </g>
    </g>
    <g id="ytick_9">
     <g id="line2d_15">
      <g>
       <use style="stroke:#000000;stroke-width:0.8;" x="33.64" xlink:href="#m0bb51b5423" y="26.44381"/>
      </g>
     </g>
     <g id="text_15">
      <!-- 200 -->
      <g transform="translate(7.5525 30.243028)scale(0.1 -0.1)">
       <use xlink:href="#DejaVuSans-50"/>
       <use x="63.623047" xlink:href="#DejaVuSans-48"/>
       <use x="127.246094" xlink:href="#DejaVuSans-48"/>
      </g>
     </g>
    </g>
   </g>
   <g id="line2d_16">
    <path clip-path="url(#p6b029288cc)" d="M 33.64 260.12 
L 97.010837 260.12 
L 98.204803 257.783238 
L 99.399532 257.783238 
L 100.594337 254.278095 
L 101.788984 254.278095 
L 104.175812 249.604571 
L 105.369948 248.43619 
L 106.562894 248.43619 
L 107.7562 247.26781 
L 110.143386 247.26781 
L 111.33733 242.594286 
L 112.530801 236.752381 
L 113.723768 236.752381 
L 114.917514 229.742095 
L 116.112893 226.236952 
L 117.306252 226.236952 
L 118.499828 222.73181 
L 122.079261 222.73181 
L 123.272294 219.226667 
L 124.464838 218.058286 
L 126.852264 218.058286 
L 128.045464 223.90019 
L 129.23879 223.90019 
L 130.43374 229.742095 
L 131.626622 227.405333 
L 132.820506 227.405333 
L 134.013542 232.078857 
L 135.20652 233.247238 
L 136.400441 236.752381 
L 137.593972 236.752381 
L 138.789017 234.415619 
L 139.981139 234.415619 
L 141.174416 230.910476 
L 143.55982 216.889905 
L 144.752345 216.889905 
L 145.945362 212.216381 
L 147.139121 208.711238 
L 148.333795 208.711238 
L 149.526568 197.027429 
L 150.724621 192.353905 
L 151.92206 186.512 
L 153.114699 186.512 
L 154.308419 187.680381 
L 155.501254 187.680381 
L 156.694888 181.838476 
L 157.888165 164.312762 
L 159.080654 164.312762 
L 160.273924 150.29219 
L 161.467761 139.776762 
L 162.661738 116.409143 
L 163.854593 116.409143 
L 165.047231 89.536381 
L 166.24221 89.536381 
L 167.434883 67.337143 
L 168.627574 53.316571 
L 169.819873 47.474667 
L 171.012469 47.474667 
L 172.205388 54.484952 
L 173.397893 59.158476 
L 174.591446 59.158476 
L 175.785229 76.68419 
L 176.977413 74.347429 
L 178.172449 74.347429 
L 179.366425 79.020952 
L 180.558798 81.357714 
L 181.753271 93.041524 
L 182.945689 93.041524 
L 184.138367 100.05181 
L 185.330912 109.398857 
L 186.522889 109.398857 
L 187.716069 122.251048 
L 188.908591 128.092952 
L 190.103299 128.092952 
L 191.295287 129.261333 
L 192.48809 132.766476 
L 193.680798 139.776762 
L 194.872558 139.776762 
L 196.064081 260.12 
L 263.034142 260.12 
L 264.20775 258.951619 
L 265.403933 243.762667 
L 266.599553 243.762667 
L 267.794899 240.257524 
L 268.988135 235.584 
L 271.378501 235.584 
L 272.571654 232.078857 
L 273.764618 232.078857 
L 274.958213 227.405333 
L 276.15183 223.90019 
L 277.344014 223.90019 
L 278.538649 222.73181 
L 280.923987 222.73181 
L 282.117075 225.068571 
L 283.312594 218.058286 
L 284.507824 219.226667 
L 285.700091 219.226667 
L 286.893575 216.889905 
L 288.087193 218.058286 
L 289.280974 218.058286 
L 290.473602 221.563429 
L 291.665932 219.226667 
L 292.859428 219.226667 
L 294.053788 214.553143 
L 295.246291 218.058286 
L 296.43845 218.058286 
L 297.630704 213.384762 
L 298.825749 212.216381 
L 300.020607 208.711238 
L 301.214503 208.711238 
L 303.599684 201.700952 
L 304.794366 201.700952 
L 305.989072 204.037714 
L 308.382754 204.037714 
L 309.574869 200.532571 
L 311.962575 200.532571 
L 313.15743 197.027429 
L 314.350648 187.680381 
L 315.543473 187.680381 
L 316.735785 184.175238 
L 317.928995 178.333333 
L 319.122099 178.333333 
L 320.317132 171.323048 
L 321.510433 156.134095 
L 322.704017 128.092952 
L 323.900409 128.092952 
L 325.098229 116.409143 
L 327.483909 116.409143 
L 328.680512 98.883429 
L 329.873831 98.883429 
L 331.066486 79.020952 
L 332.258992 67.337143 
L 333.451685 49.811429 
L 334.644444 49.811429 
L 335.838721 38.127619 
L 339.41667 38.127619 
L 340.61204 26.44381 
L 341.807252 26.44381 
L 342.999616 48.643048 
L 344.192876 60.326857 
L 345.38573 74.347429 
L 346.581132 74.347429 
L 348.96619 110.567238 
L 350.161913 110.567238 
L 351.354458 125.75619 
L 352.547367 137.44 
L 353.739759 151.460571 
L 354.935668 151.460571 
L 356.128534 161.976 
L 357.322117 161.976 
L 358.518226 166.649524 
L 359.710544 174.82819 
L 360.904076 175.996571 
L 363.290656 175.996571 
L 364.482693 260.12 
L 430.258795 260.12 
L 431.451286 255.446476 
L 433.837751 241.425905 
L 435.032586 241.425905 
L 436.225709 240.257524 
L 438.615453 240.257524 
L 439.808269 239.089143 
L 441.001179 239.089143 
L 442.195982 232.078857 
L 443.390385 232.078857 
L 444.583617 228.573714 
L 445.778349 228.573714 
L 446.972039 226.236952 
L 448.166418 225.068571 
L 452.941772 225.068571 
L 454.140111 226.236952 
L 456.52536 226.236952 
L 457.718116 223.90019 
L 458.912476 216.889905 
L 460.105102 219.226667 
L 461.300301 219.226667 
L 462.495196 221.563429 
L 463.68781 221.563429 
L 466.073855 214.553143 
L 467.26897 212.216381 
L 468.463824 212.216381 
L 469.656339 208.711238 
L 470.850826 206.374476 
L 472.045794 206.374476 
L 473.238868 209.879619 
L 474.433273 207.542857 
L 475.627631 206.374476 
L 476.822963 206.374476 
L 478.018653 205.206095 
L 479.21184 205.206095 
L 480.40523 198.19581 
L 481.599519 190.017143 
L 482.795632 190.017143 
L 483.990798 184.175238 
L 485.185325 171.323048 
L 486.377856 170.154667 
L 487.574592 170.154667 
L 488.769788 159.639238 
L 489.964983 159.639238 
L 491.158774 156.134095 
L 492.353576 153.797333 
L 493.548934 129.261333 
L 494.752519 129.261333 
L 495.945968 123.419429 
L 497.139169 115.240762 
L 498.333573 115.240762 
L 499.527165 98.883429 
L 500.720172 96.546667 
L 501.913722 96.546667 
L 503.107676 108.230476 
L 504.304873 101.22019 
L 505.497014 101.22019 
L 506.689393 96.546667 
L 507.884786 89.536381 
L 509.08289 95.378286 
L 510.278507 95.378286 
L 511.473191 94.209905 
L 512.668813 119.914286 
L 513.863476 119.914286 
L 515.05577 125.75619 
L 516.25058 144.450286 
L 517.445492 146.787048 
L 518.640097 146.787048 
L 519.834831 156.134095 
L 521.026954 156.134095 
L 522.222012 165.481143 
L 523.417355 171.323048 
L 524.609853 173.65981 
L 525.805356 173.65981 
L 527.000337 180.670095 
L 528.192299 181.838476 
L 530.582476 181.838476 
L 531.777603 260.12 
L 598.755579 260.12 
L 599.947891 256.614857 
L 601.139925 248.43619 
L 602.332483 248.43619 
L 603.527414 244.931048 
L 604.720408 242.594286 
L 605.913425 242.594286 
L 608.301706 235.584 
L 609.495801 230.910476 
L 610.691187 230.910476 
L 611.883872 229.742095 
L 613.077207 229.742095 
L 614.269811 226.236952 
L 615.465213 223.90019 
L 616.658655 223.90019 
L 619.045784 221.563429 
L 620.239057 225.068571 
L 621.433451 225.068571 
L 622.626578 222.73181 
L 623.82048 219.226667 
L 625.014056 219.226667 
L 626.207706 211.048 
L 627.401152 211.048 
L 628.594302 212.216381 
L 632.176117 212.216381 
L 633.370675 205.206095 
L 635.757459 205.206095 
L 636.951836 197.027429 
L 638.146207 194.690667 
L 639.340954 199.36419 
L 640.535563 199.36419 
L 641.735594 195.859048 
L 642.928939 195.859048 
L 644.121772 191.185524 
L 645.315528 184.175238 
L 646.508941 175.996571 
L 647.703453 175.996571 
L 648.897149 167.817905 
L 650.092387 161.976 
L 651.286911 161.976 
L 652.482191 157.302476 
L 653.677365 143.281905 
L 654.873744 143.281905 
L 656.068929 138.608381 
L 657.263538 128.092952 
L 658.458282 114.072381 
L 659.651872 114.072381 
L 660.844857 98.883429 
L 662.037612 104.725333 
L 663.230866 104.725333 
L 664.424862 86.031238 
L 665.617878 86.031238 
L 666.816252 70.842286 
L 668.009981 59.158476 
L 669.20398 46.306286 
L 670.399383 46.306286 
L 671.595035 28.780571 
L 672.789678 32.285714 
L 673.982729 32.285714 
L 675.176754 38.127619 
L 676.36883 31.117333 
L 677.561457 31.117333 
L 678.753939 41.632762 
L 679.947479 54.484952 
L 681.140481 62.663619 
L 682.333363 62.663619 
L 683.525533 76.68419 
L 684.723022 96.546667 
L 685.915333 96.546667 
L 687.109954 105.893714 
L 688.304559 121.082667 
L 689.497235 121.082667 
L 690.690126 126.924571 
L 691.884632 144.450286 
L 693.079212 144.450286 
L 694.271606 152.628952 
L 695.464458 158.470857 
L 697.852334 158.470857 
L 699.044975 260.12 
L 763.65423 260.12 
L 764.827772 256.614857 
L 766.020983 256.614857 
L 767.214035 254.278095 
L 768.40653 249.604571 
L 769.599367 247.26781 
L 770.794569 247.26781 
L 771.988469 242.594286 
L 773.181803 233.247238 
L 774.375765 233.247238 
L 775.568416 227.405333 
L 776.760561 227.405333 
L 777.952968 223.90019 
L 779.148287 223.90019 
L 780.340712 216.889905 
L 781.533585 216.889905 
L 782.726607 213.384762 
L 783.919084 215.721524 
L 785.112091 215.721524 
L 786.305072 216.889905 
L 787.498078 220.395048 
L 789.889172 220.395048 
L 791.08171 221.563429 
L 792.274462 221.563429 
L 793.467292 219.226667 
L 794.660346 225.068571 
L 797.044839 225.068571 
L 798.237072 220.395048 
L 799.430758 222.73181 
L 800.625322 222.73181 
L 801.818964 220.395048 
L 803.01386 220.395048 
L 804.207194 218.058286 
L 805.399699 206.374476 
L 806.592361 202.869333 
L 807.786328 202.869333 
L 808.978364 194.690667 
L 810.171537 187.680381 
L 811.363774 187.680381 
L 812.559061 181.838476 
L 813.756376 171.323048 
L 814.95051 164.312762 
L 816.146762 164.312762 
L 817.339041 158.470857 
L 818.531592 158.470857 
L 819.727843 153.797333 
L 820.921122 147.955429 
L 822.115012 145.618667 
L 823.310923 145.618667 
L 824.504613 137.44 
L 825.697867 150.29219 
L 826.890623 150.29219 
L 828.089155 161.976 
L 829.282026 160.807619 
L 830.474314 160.807619 
L 831.667015 150.29219 
L 832.859943 144.450286 
L 834.054474 144.450286 
L 835.247857 135.103238 
L 836.440837 126.924571 
L 837.63562 126.924571 
L 838.82853 125.75619 
L 840.022012 128.092952 
L 841.21857 125.75619 
L 842.422514 125.75619 
L 843.619149 130.429714 
L 844.816477 131.598095 
L 846.014402 131.598095 
L 847.22101 143.281905 
L 849.617002 143.281905 
L 850.814955 151.460571 
L 852.00864 158.470857 
L 853.207311 160.807619 
L 854.401452 160.807619 
L 855.596978 166.649524 
L 856.790444 166.649524 
L 857.985621 179.501714 
L 859.179219 185.343619 
L 860.372568 187.680381 
L 861.564968 187.680381 
L 862.7595 193.522286 
L 865.146145 193.522286 
L 866.349787 260.12 
L 930.947587 260.12 
L 932.120719 253.109714 
L 933.313817 251.941333 
L 934.507897 251.941333 
L 935.702091 241.425905 
L 936.894024 235.584 
L 938.086111 235.584 
L 939.278561 233.247238 
L 940.470442 233.247238 
L 941.662358 220.395048 
L 942.856243 209.879619 
L 944.048227 207.542857 
L 945.240562 207.542857 
L 947.62487 193.522286 
L 948.816526 193.522286 
L 951.203411 186.512 
L 952.395464 187.680381 
L 953.910783 187.680381 
L 955.10386 195.859048 
L 956.299177 199.36419 
L 957.491224 199.36419 
L 958.685642 200.532571 
L 959.882252 200.532571 
L 961.074731 187.680381 
L 962.26683 187.680381 
L 963.458959 180.670095 
L 964.65167 180.670095 
L 965.84478 175.996571 
L 967.036559 177.164952 
L 968.229833 177.164952 
L 969.424231 187.680381 
L 970.616318 186.512 
L 971.808717 180.670095 
L 973.000892 180.670095 
L 974.193391 181.838476 
L 975.385287 173.65981 
L 976.577426 173.65981 
L 977.770437 185.343619 
L 978.964205 198.19581 
L 980.156255 198.19581 
L 982.543303 205.206095 
L 983.737087 205.206095 
L 984.931227 204.037714 
L 986.125393 205.206095 
L 987.32009 201.700952 
L 988.515066 201.700952 
L 989.709583 202.869333 
L 990.904152 211.048 
L 992.098534 211.048 
L 993.291765 214.553143 
L 994.485059 215.721524 
L 995.679692 215.721524 
L 998.069086 208.711238 
L 999.26415 208.711238 
L 1000.45876 204.037714 
L 1001.653612 205.206095 
L 1002.848273 205.206095 
L 1004.043859 227.405333 
L 1005.23843 216.889905 
L 1006.432202 214.553143 
L 1007.624901 214.553143 
L 1008.818107 216.889905 
L 1012.399085 216.889905 
L 1013.592325 215.721524 
L 1014.788231 215.721524 
L 1015.980485 218.058286 
L 1019.562331 218.058286 
L 1020.756828 222.73181 
L 1021.950374 222.73181 
L 1024.339732 234.415619 
L 1025.534348 234.415619 
L 1026.729442 235.584 
L 1030.310052 235.584 
L 1031.504707 239.089143 
L 1035.088284 239.089143 
L 1036.282569 260.12 
L 1099.865176 260.12 
L 1101.057831 246.099429 
L 1102.249766 236.752381 
L 1103.443039 236.752381 
L 1105.830102 220.395048 
L 1107.023329 220.395048 
L 1108.216281 211.048 
L 1109.409465 205.206095 
L 1110.603577 194.690667 
L 1111.796991 194.690667 
L 1112.990216 173.65981 
L 1114.185456 173.65981 
L 1115.378367 183.006857 
L 1116.571006 172.491429 
L 1117.763928 172.491429 
L 1118.957525 170.154667 
L 1120.150588 172.491429 
L 1121.344741 164.312762 
L 1122.539905 164.312762 
L 1123.732267 159.639238 
L 1124.926585 165.481143 
L 1126.119044 165.481143 
L 1127.311824 177.164952 
L 1128.503983 172.491429 
L 1129.700347 172.491429 
L 1130.894717 170.154667 
L 1133.28 170.154667 
L 1133.28 170.154667 
" style="fill:none;stroke:#1f77b4;stroke-linecap:square;stroke-width:1.5;"/>
   </g>
   <g id="patch_3">
    <path d="M 33.64 260.12 
L 33.64 14.76 
" style="fill:none;stroke:#000000;stroke-linecap:square;stroke-linejoin:miter;stroke-width:0.8;"/>
   </g>
   <g id="patch_4">
    <path d="M 1133.28 260.12 
L 1133.28 14.76 
" style="fill:none;stroke:#000000;stroke-linecap:square;stroke-linejoin:miter;stroke-width:0.8;"/>
   </g>
   <g id="patch_5">
    <path d="M 33.64 260.12 
L 1133.28 260.12 
" style="fill:none;stroke:#000000;stroke-linecap:square;stroke-linejoin:miter;stroke-width:0.8;"/>
   </g>
   <g id="patch_6">
    <path d="M 33.64 14.76 
L 1133.28 14.76 
" style="fill:none;stroke:#000000;stroke-linecap:square;stroke-linejoin:miter;stroke-width:0.8;"/>
   </g>
  </g>
 </g>
 <defs>
  <clipPath id="p6b029288cc">
   <rect height="245.36" width="1099.64" x="33.64" y="14.76"/>
  </clipPath>
 </defs>
</svg>
