<?xml version="1.0" encoding="utf-8" standalone="no"?>
<!DOCTYPE svg PUBLIC "-//W3C//DTD SVG 1.1//EN"
  "http://www.w3.org/Graphics/SVG/1.1/DTD/svg11.dtd">
<!-- Created with matplotlib (https://matplotlib.org/) -->
<svg height="288pt" version="1.1" viewBox="0 0 1152 288" width="1152pt" xmlns="http://www.w3.org/2000/svg" xmlns:xlink="http://www.w3.org/1999/xlink">
 <defs>
  <style type="text/css">
*{stroke-linecap:butt;stroke-linejoin:round;}
  </style>
 </defs>
 <g id="figure_1">
  <g id="patch_1">
   <path d="M 0 288 
L 1152 288 
L 1152 0 
L 0 0 
z
" style="fill:#ffffff;"/>
  </g>
  <g id="axes_1">
   <g id="patch_2">
    <path d="M 33.64 260.12 
L 1133.28 260.12 
L 1133.28 14.76 
L 33.64 14.76 
z
" style="fill:#ffffff;"/>
   </g>
   <g id="matplotlib.axis_1">
    <g id="xtick_1">
     <g id="line2d_1">
      <defs>
       <path d="M 0 0 
L 0 3.5 
" id="m81c0853aad" style="stroke:#000000;stroke-width:0.8;"/>
      </defs>
      <g>
       <use style="stroke:#000000;stroke-width:0.8;" x="224.079603" xlink:href="#m81c0853aad" y="260.12"/>
      </g>
     </g>
     <g id="text_1">
      <!-- Tue 00:00 -->
      <defs>
       <path d="M -0.296875 72.90625 
L 61.375 72.90625 
L 61.375 64.59375 
L 35.5 64.59375 
L 35.5 0 
L 25.59375 0 
L 25.59375 64.59375 
L -0.296875 64.59375 
z
" id="DejaVuSans-84"/>
       <path d="M 8.5 21.578125 
L 8.5 54.6875 
L 17.484375 54.6875 
L 17.484375 21.921875 
Q 17.484375 14.15625 20.5 10.265625 
Q 23.53125 6.390625 29.59375 6.390625 
Q 36.859375 6.390625 41.078125 11.03125 
Q 45.3125 15.671875 45.3125 23.6875 
L 45.3125 54.6875 
L 54.296875 54.6875 
L 54.296875 0 
L 45.3125 0 
L 45.3125 8.40625 
Q 42.046875 3.421875 37.71875 1 
Q 33.40625 -1.421875 27.6875 -1.421875 
Q 18.265625 -1.421875 13.375 4.4375 
Q 8.5 10.296875 8.5 21.578125 
z
M 31.109375 56 
z
" id="DejaVuSans-117"/>
       <path d="M 56.203125 29.59375 
L 56.203125 25.203125 
L 14.890625 25.203125 
Q 15.484375 15.921875 20.484375 11.0625 
Q 25.484375 6.203125 34.421875 6.203125 
Q 39.59375 6.203125 44.453125 7.46875 
Q 49.3125 8.734375 54.109375 11.28125 
L 54.109375 2.78125 
Q 49.265625 0.734375 44.1875 -0.34375 
Q 39.109375 -1.421875 33.890625 -1.421875 
Q 20.796875 -1.421875 13.15625 6.1875 
Q 5.515625 13.8125 5.515625 26.8125 
Q 5.515625 40.234375 12.765625 48.109375 
Q 20.015625 56 32.328125 56 
Q 43.359375 56 49.78125 48.890625 
Q 56.203125 41.796875 56.203125 29.59375 
z
M 47.21875 32.234375 
Q 47.125 39.59375 43.09375 43.984375 
Q 39.0625 48.390625 32.421875 48.390625 
Q 24.90625 48.390625 20.390625 44.140625 
Q 15.875 39.890625 15.1875 32.171875 
z
" id="DejaVuSans-101"/>
       <path id="DejaVuSans-32"/>
       <path d="M 31.78125 66.40625 
Q 24.171875 66.40625 20.328125 58.90625 
Q 16.5 51.421875 16.5 36.375 
Q 16.5 21.390625 20.328125 13.890625 
Q 24.171875 6.390625 31.78125 6.390625 
Q 39.453125 6.390625 43.28125 13.890625 
Q 47.125 21.390625 47.125 36.375 
Q 47.125 51.421875 43.28125 58.90625 
Q 39.453125 66.40625 31.78125 66.40625 
z
M 31.78125 74.21875 
Q 44.046875 74.21875 50.515625 64.515625 
Q 56.984375 54.828125 56.984375 36.375 
Q 56.984375 17.96875 50.515625 8.265625 
Q 44.046875 -1.421875 31.78125 -1.421875 
Q 19.53125 -1.421875 13.0625 8.265625 
Q 6.59375 17.96875 6.59375 36.375 
Q 6.59375 54.828125 13.0625 64.515625 
Q 19.53125 74.21875 31.78125 74.21875 
z
" id="DejaVuSans-48"/>
       <path d="M 11.71875 12.40625 
L 22.015625 12.40625 
L 22.015625 0 
L 11.71875 0 
z
M 11.71875 51.703125 
L 22.015625 51.703125 
L 22.015625 39.3125 
L 11.71875 39.3125 
z
" id="DejaVuSans-58"/>
      </defs>
      <g transform="translate(198.793666 274.718437)scale(0.1 -0.1)">
       <use xlink:href="#DejaVuSans-84"/>
       <use x="60.849609" xlink:href="#DejaVuSans-117"/>
       <use x="124.228516" xlink:href="#DejaVuSans-101"/>
       <use x="185.751953" xlink:href="#DejaVuSans-32"/>
       <use x="217.539062" xlink:href="#DejaVuSans-48"/>
       <use x="281.162109" xlink:href="#DejaVuSans-48"/>
       <use x="344.785156" xlink:href="#DejaVuSans-58"/>
       <use x="378.476562" xlink:href="#DejaVuSans-48"/>
       <use x="442.099609" xlink:href="#DejaVuSans-48"/>
      </g>
     </g>
    </g>
    <g id="xtick_2">
     <g id="line2d_2">
      <g>
       <use style="stroke:#000000;stroke-width:0.8;" x="415.212317" xlink:href="#m81c0853aad" y="260.12"/>
      </g>
     </g>
     <g id="text_2">
      <!-- Wed 00:00 -->
      <defs>
       <path d="M 3.328125 72.90625 
L 13.28125 72.90625 
L 28.609375 11.28125 
L 43.890625 72.90625 
L 54.984375 72.90625 
L 70.3125 11.28125 
L 85.59375 72.90625 
L 95.609375 72.90625 
L 77.296875 0 
L 64.890625 0 
L 49.515625 63.28125 
L 33.984375 0 
L 21.578125 0 
z
" id="DejaVuSans-87"/>
       <path d="M 45.40625 46.390625 
L 45.40625 75.984375 
L 54.390625 75.984375 
L 54.390625 0 
L 45.40625 0 
L 45.40625 8.203125 
Q 42.578125 3.328125 38.25 0.953125 
Q 33.9375 -1.421875 27.875 -1.421875 
Q 17.96875 -1.421875 11.734375 6.484375 
Q 5.515625 14.40625 5.515625 27.296875 
Q 5.515625 40.1875 11.734375 48.09375 
Q 17.96875 56 27.875 56 
Q 33.9375 56 38.25 53.625 
Q 42.578125 51.265625 45.40625 46.390625 
z
M 14.796875 27.296875 
Q 14.796875 17.390625 18.875 11.75 
Q 22.953125 6.109375 30.078125 6.109375 
Q 37.203125 6.109375 41.296875 11.75 
Q 45.40625 17.390625 45.40625 27.296875 
Q 45.40625 37.203125 41.296875 42.84375 
Q 37.203125 48.484375 30.078125 48.484375 
Q 22.953125 48.484375 18.875 42.84375 
Q 14.796875 37.203125 14.796875 27.296875 
z
" id="DejaVuSans-100"/>
      </defs>
      <g transform="translate(388.023254 274.718437)scale(0.1 -0.1)">
       <use xlink:href="#DejaVuSans-87"/>
       <use x="98.798828" xlink:href="#DejaVuSans-101"/>
       <use x="160.322266" xlink:href="#DejaVuSans-100"/>
       <use x="223.798828" xlink:href="#DejaVuSans-32"/>
       <use x="255.585938" xlink:href="#DejaVuSans-48"/>
       <use x="319.208984" xlink:href="#DejaVuSans-48"/>
       <use x="382.832031" xlink:href="#DejaVuSans-58"/>
       <use x="416.523438" xlink:href="#DejaVuSans-48"/>
       <use x="480.146484" xlink:href="#DejaVuSans-48"/>
      </g>
     </g>
    </g>
    <g id="xtick_3">
     <g id="line2d_3">
      <g>
       <use style="stroke:#000000;stroke-width:0.8;" x="606.34503" xlink:href="#m81c0853aad" y="260.12"/>
      </g>
     </g>
     <g id="text_3">
      <!-- Thu 00:00 -->
      <defs>
       <path d="M 54.890625 33.015625 
L 54.890625 0 
L 45.90625 0 
L 45.90625 32.71875 
Q 45.90625 40.484375 42.875 44.328125 
Q 39.84375 48.1875 33.796875 48.1875 
Q 26.515625 48.1875 22.3125 43.546875 
Q 18.109375 38.921875 18.109375 30.90625 
L 18.109375 0 
L 9.078125 0 
L 9.078125 75.984375 
L 18.109375 75.984375 
L 18.109375 46.1875 
Q 21.34375 51.125 25.703125 53.5625 
Q 30.078125 56 35.796875 56 
Q 45.21875 56 50.046875 50.171875 
Q 54.890625 44.34375 54.890625 33.015625 
z
" id="DejaVuSans-104"/>
      </defs>
      <g transform="translate(580.955186 274.718437)scale(0.1 -0.1)">
       <use xlink:href="#DejaVuSans-84"/>
       <use x="61.083984" xlink:href="#DejaVuSans-104"/>
       <use x="124.462891" xlink:href="#DejaVuSans-117"/>
       <use x="187.841797" xlink:href="#DejaVuSans-32"/>
       <use x="219.628906" xlink:href="#DejaVuSans-48"/>
       <use x="283.251953" xlink:href="#DejaVuSans-48"/>
       <use x="346.875" xlink:href="#DejaVuSans-58"/>
       <use x="380.566406" xlink:href="#DejaVuSans-48"/>
       <use x="444.189453" xlink:href="#DejaVuSans-48"/>
      </g>
     </g>
    </g>
    <g id="xtick_4">
     <g id="line2d_4">
      <g>
       <use style="stroke:#000000;stroke-width:0.8;" x="797.477743" xlink:href="#m81c0853aad" y="260.12"/>
      </g>
     </g>
     <g id="text_4">
      <!-- Fri 00:00 -->
      <defs>
       <path d="M 9.8125 72.90625 
L 51.703125 72.90625 
L 51.703125 64.59375 
L 19.671875 64.59375 
L 19.671875 43.109375 
L 48.578125 43.109375 
L 48.578125 34.8125 
L 19.671875 34.8125 
L 19.671875 0 
L 9.8125 0 
z
" id="DejaVuSans-70"/>
       <path d="M 41.109375 46.296875 
Q 39.59375 47.171875 37.8125 47.578125 
Q 36.03125 48 33.890625 48 
Q 26.265625 48 22.1875 43.046875 
Q 18.109375 38.09375 18.109375 28.8125 
L 18.109375 0 
L 9.078125 0 
L 9.078125 54.6875 
L 18.109375 54.6875 
L 18.109375 46.1875 
Q 20.953125 51.171875 25.484375 53.578125 
Q 30.03125 56 36.53125 56 
Q 37.453125 56 38.578125 55.875 
Q 39.703125 55.765625 41.0625 55.515625 
z
" id="DejaVuSans-114"/>
       <path d="M 9.421875 54.6875 
L 18.40625 54.6875 
L 18.40625 0 
L 9.421875 0 
z
M 9.421875 75.984375 
L 18.40625 75.984375 
L 18.40625 64.59375 
L 9.421875 64.59375 
z
" id="DejaVuSans-105"/>
      </defs>
      <g transform="translate(775.164462 274.718437)scale(0.1 -0.1)">
       <use xlink:href="#DejaVuSans-70"/>
       <use x="57.410156" xlink:href="#DejaVuSans-114"/>
       <use x="98.523438" xlink:href="#DejaVuSans-105"/>
       <use x="126.306641" xlink:href="#DejaVuSans-32"/>
       <use x="158.09375" xlink:href="#DejaVuSans-48"/>
       <use x="221.716797" xlink:href="#DejaVuSans-48"/>
       <use x="285.339844" xlink:href="#DejaVuSans-58"/>
       <use x="319.03125" xlink:href="#DejaVuSans-48"/>
       <use x="382.654297" xlink:href="#DejaVuSans-48"/>
      </g>
     </g>
    </g>
    <g id="xtick_5">
     <g id="line2d_5">
      <g>
       <use style="stroke:#000000;stroke-width:0.8;" x="988.610456" xlink:href="#m81c0853aad" y="260.12"/>
      </g>
     </g>
     <g id="text_5">
      <!-- Sat 00:00 -->
      <defs>
       <path d="M 53.515625 70.515625 
L 53.515625 60.890625 
Q 47.90625 63.578125 42.921875 64.890625 
Q 37.9375 66.21875 33.296875 66.21875 
Q 25.25 66.21875 20.875 63.09375 
Q 16.5 59.96875 16.5 54.203125 
Q 16.5 49.359375 19.40625 46.890625 
Q 22.3125 44.4375 30.421875 42.921875 
L 36.375 41.703125 
Q 47.40625 39.59375 52.65625 34.296875 
Q 57.90625 29 57.90625 20.125 
Q 57.90625 9.515625 50.796875 4.046875 
Q 43.703125 -1.421875 29.984375 -1.421875 
Q 24.8125 -1.421875 18.96875 -0.25 
Q 13.140625 0.921875 6.890625 3.21875 
L 6.890625 13.375 
Q 12.890625 10.015625 18.65625 8.296875 
Q 24.421875 6.59375 29.984375 6.59375 
Q 38.421875 6.59375 43.015625 9.90625 
Q 47.609375 13.234375 47.609375 19.390625 
Q 47.609375 24.75 44.3125 27.78125 
Q 41.015625 30.8125 33.5 32.328125 
L 27.484375 33.5 
Q 16.453125 35.6875 11.515625 40.375 
Q 6.59375 45.0625 6.59375 53.421875 
Q 6.59375 63.09375 13.40625 68.65625 
Q 20.21875 74.21875 32.171875 74.21875 
Q 37.3125 74.21875 42.625 73.28125 
Q 47.953125 72.359375 53.515625 70.515625 
z
" id="DejaVuSans-83"/>
       <path d="M 34.28125 27.484375 
Q 23.390625 27.484375 19.1875 25 
Q 14.984375 22.515625 14.984375 16.5 
Q 14.984375 11.71875 18.140625 8.90625 
Q 21.296875 6.109375 26.703125 6.109375 
Q 34.1875 6.109375 38.703125 11.40625 
Q 43.21875 16.703125 43.21875 25.484375 
L 43.21875 27.484375 
z
M 52.203125 31.203125 
L 52.203125 0 
L 43.21875 0 
L 43.21875 8.296875 
Q 40.140625 3.328125 35.546875 0.953125 
Q 30.953125 -1.421875 24.3125 -1.421875 
Q 15.921875 -1.421875 10.953125 3.296875 
Q 6 8.015625 6 15.921875 
Q 6 25.140625 12.171875 29.828125 
Q 18.359375 34.515625 30.609375 34.515625 
L 43.21875 34.515625 
L 43.21875 35.40625 
Q 43.21875 41.609375 39.140625 45 
Q 35.0625 48.390625 27.6875 48.390625 
Q 23 48.390625 18.546875 47.265625 
Q 14.109375 46.140625 10.015625 43.890625 
L 10.015625 52.203125 
Q 14.9375 54.109375 19.578125 55.046875 
Q 24.21875 56 28.609375 56 
Q 40.484375 56 46.34375 49.84375 
Q 52.203125 43.703125 52.203125 31.203125 
z
" id="DejaVuSans-97"/>
       <path d="M 18.3125 70.21875 
L 18.3125 54.6875 
L 36.8125 54.6875 
L 36.8125 47.703125 
L 18.3125 47.703125 
L 18.3125 18.015625 
Q 18.3125 11.328125 20.140625 9.421875 
Q 21.96875 7.515625 27.59375 7.515625 
L 36.8125 7.515625 
L 36.8125 0 
L 27.59375 0 
Q 17.1875 0 13.234375 3.875 
Q 9.28125 7.765625 9.28125 18.015625 
L 9.28125 47.703125 
L 2.6875 47.703125 
L 2.6875 54.6875 
L 9.28125 54.6875 
L 9.28125 70.21875 
z
" id="DejaVuSans-116"/>
      </defs>
      <g transform="translate(964.413581 274.718437)scale(0.1 -0.1)">
       <use xlink:href="#DejaVuSans-83"/>
       <use x="63.476562" xlink:href="#DejaVuSans-97"/>
       <use x="124.755859" xlink:href="#DejaVuSans-116"/>
       <use x="163.964844" xlink:href="#DejaVuSans-32"/>
       <use x="195.751953" xlink:href="#DejaVuSans-48"/>
       <use x="259.375" xlink:href="#DejaVuSans-48"/>
       <use x="322.998047" xlink:href="#DejaVuSans-58"/>
       <use x="356.689453" xlink:href="#DejaVuSans-48"/>
       <use x="420.3125" xlink:href="#DejaVuSans-48"/>
      </g>
     </g>
    </g>
   </g>
   <g id="matplotlib.axis_2">
    <g id="ytick_1">
     <g id="line2d_6">
      <defs>
       <path d="M 0 0 
L -3.5 0 
" id="md0a3a8dff5" style="stroke:#000000;stroke-width:0.8;"/>
      </defs>
      <g>
       <use style="stroke:#000000;stroke-width:0.8;" x="33.64" xlink:href="#md0a3a8dff5" y="260.12"/>
      </g>
     </g>
     <g id="text_6">
      <!-- 0 -->
      <g transform="translate(20.2775 263.919219)scale(0.1 -0.1)">
       <use xlink:href="#DejaVuSans-48"/>
      </g>
     </g>
    </g>
    <g id="ytick_2">
     <g id="line2d_7">
      <g>
       <use style="stroke:#000000;stroke-width:0.8;" x="33.64" xlink:href="#md0a3a8dff5" y="230.910476"/>
      </g>
     </g>
     <g id="text_7">
      <!-- 25 -->
      <defs>
       <path d="M 19.1875 8.296875 
L 53.609375 8.296875 
L 53.609375 0 
L 7.328125 0 
L 7.328125 8.296875 
Q 12.9375 14.109375 22.625 23.890625 
Q 32.328125 33.6875 34.8125 36.53125 
Q 39.546875 41.84375 41.421875 45.53125 
Q 43.3125 49.21875 43.3125 52.78125 
Q 43.3125 58.59375 39.234375 62.25 
Q 35.15625 65.921875 28.609375 65.921875 
Q 23.96875 65.921875 18.8125 64.3125 
Q 13.671875 62.703125 7.8125 59.421875 
L 7.8125 69.390625 
Q 13.765625 71.78125 18.9375 73 
Q 24.125 74.21875 28.421875 74.21875 
Q 39.75 74.21875 46.484375 68.546875 
Q 53.21875 62.890625 53.21875 53.421875 
Q 53.21875 48.921875 51.53125 44.890625 
Q 49.859375 40.875 45.40625 35.40625 
Q 44.1875 33.984375 37.640625 27.21875 
Q 31.109375 20.453125 19.1875 8.296875 
z
" id="DejaVuSans-50"/>
       <path d="M 10.796875 72.90625 
L 49.515625 72.90625 
L 49.515625 64.59375 
L 19.828125 64.59375 
L 19.828125 46.734375 
Q 21.96875 47.46875 24.109375 47.828125 
Q 26.265625 48.1875 28.421875 48.1875 
Q 40.625 48.1875 47.75 41.5 
Q 54.890625 34.8125 54.890625 23.390625 
Q 54.890625 11.625 47.5625 5.09375 
Q 40.234375 -1.421875 26.90625 -1.421875 
Q 22.3125 -1.421875 17.546875 -0.640625 
Q 12.796875 0.140625 7.71875 1.703125 
L 7.71875 11.625 
Q 12.109375 9.234375 16.796875 8.0625 
Q 21.484375 6.890625 26.703125 6.890625 
Q 35.15625 6.890625 40.078125 11.328125 
Q 45.015625 15.765625 45.015625 23.390625 
Q 45.015625 31 40.078125 35.4375 
Q 35.15625 39.890625 26.703125 39.890625 
Q 22.75 39.890625 18.8125 39.015625 
Q 14.890625 38.140625 10.796875 36.28125 
z
" id="DejaVuSans-53"/>
      </defs>
      <g transform="translate(13.915 234.709695)scale(0.1 -0.1)">
       <use xlink:href="#DejaVuSans-50"/>
       <use x="63.623047" xlink:href="#DejaVuSans-53"/>
      </g>
     </g>
    </g>
    <g id="ytick_3">
     <g id="line2d_8">
      <g>
       <use style="stroke:#000000;stroke-width:0.8;" x="33.64" xlink:href="#md0a3a8dff5" y="201.700952"/>
      </g>
     </g>
     <g id="text_8">
      <!-- 50 -->
      <g transform="translate(13.915 205.500171)scale(0.1 -0.1)">
       <use xlink:href="#DejaVuSans-53"/>
       <use x="63.623047" xlink:href="#DejaVuSans-48"/>
      </g>
     </g>
    </g>
    <g id="ytick_4">
     <g id="line2d_9">
      <g>
       <use style="stroke:#000000;stroke-width:0.8;" x="33.64" xlink:href="#md0a3a8dff5" y="172.491429"/>
      </g>
     </g>
     <g id="text_9">
      <!-- 75 -->
      <defs>
       <path d="M 8.203125 72.90625 
L 55.078125 72.90625 
L 55.078125 68.703125 
L 28.609375 0 
L 18.3125 0 
L 43.21875 64.59375 
L 8.203125 64.59375 
z
" id="DejaVuSans-55"/>
      </defs>
      <g transform="translate(13.915 176.290647)scale(0.1 -0.1)">
       <use xlink:href="#DejaVuSans-55"/>
       <use x="63.623047" xlink:href="#DejaVuSans-53"/>
      </g>
     </g>
    </g>
    <g id="ytick_5">
     <g id="line2d_10">
      <g>
       <use style="stroke:#000000;stroke-width:0.8;" x="33.64" xlink:href="#md0a3a8dff5" y="143.281905"/>
      </g>
     </g>
     <g id="text_10">
      <!-- 100 -->
      <defs>
       <path d="M 12.40625 8.296875 
L 28.515625 8.296875 
L 28.515625 63.921875 
L 10.984375 60.40625 
L 10.984375 69.390625 
L 28.421875 72.90625 
L 38.28125 72.90625 
L 38.28125 8.296875 
L 54.390625 8.296875 
L 54.390625 0 
L 12.40625 0 
z
" id="DejaVuSans-49"/>
      </defs>
      <g transform="translate(7.5525 147.081124)scale(0.1 -0.1)">
       <use xlink:href="#DejaVuSans-49"/>
       <use x="63.623047" xlink:href="#DejaVuSans-48"/>
       <use x="127.246094" xlink:href="#DejaVuSans-48"/>
      </g>
     </g>
    </g>
    <g id="ytick_6">
     <g id="line2d_11">
      <g>
       <use style="stroke:#000000;stroke-width:0.8;" x="33.64" xlink:href="#md0a3a8dff5" y="114.072381"/>
      </g>
     </g>
     <g id="text_11">
      <!-- 125 -->
      <g transform="translate(7.5525 117.8716)scale(0.1 -0.1)">
       <use xlink:href="#DejaVuSans-49"/>
       <use x="63.623047" xlink:href="#DejaVuSans-50"/>
       <use x="127.246094" xlink:href="#DejaVuSans-53"/>
      </g>
     </g>
    </g>
    <g id="ytick_7">
     <g id="line2d_12">
      <g>
       <use style="stroke:#000000;stroke-width:0.8;" x="33.64" xlink:href="#md0a3a8dff5" y="84.862857"/>
      </g>
     </g>
     <g id="text_12">
      <!-- 150 -->
      <g transform="translate(7.5525 88.662076)scale(0.1 -0.1)">
       <use xlink:href="#DejaVuSans-49"/>
       <use x="63.623047" xlink:href="#DejaVuSans-53"/>
       <use x="127.246094" xlink:href="#DejaVuSans-48"/>
      </g>
     </g>
    </g>
    <g id="ytick_8">
     <g id="line2d_13">
      <g>
       <use style="stroke:#000000;stroke-width:0.8;" x="33.64" xlink:href="#md0a3a8dff5" y="55.653333"/>
      </g>
     </g>
     <g id="text_13">
      <!-- 175 -->
      <g transform="translate(7.5525 59.452552)scale(0.1 -0.1)">
       <use xlink:href="#DejaVuSans-49"/>
       <use x="63.623047" xlink:href="#DejaVuSans-55"/>
       <use x="127.246094" xlink:href="#DejaVuSans-53"/>
      </g>
     </g>
    </g>
    <g id="ytick_9">
     <g id="line2d_14">
      <g>
       <use style="stroke:#000000;stroke-width:0.8;" x="33.64" xlink:href="#md0a3a8dff5" y="26.44381"/>
      </g>
     </g>
     <g id="text_14">
      <!-- 200 -->
      <g transform="translate(7.5525 30.243028)scale(0.1 -0.1)">
       <use xlink:href="#DejaVuSans-50"/>
       <use x="63.623047" xlink:href="#DejaVuSans-48"/>
       <use x="127.246094" xlink:href="#DejaVuSans-48"/>
      </g>
     </g>
    </g>
   </g>
   <g id="line2d_15">
    <path clip-path="url(#p94643f50d0)" d="M 33.64 225.068571 
L 104.820656 225.068571 
L 106.189744 220.395048 
L 107.557549 220.395048 
L 108.92468 218.058286 
L 110.289297 218.058286 
L 111.653767 211.048 
L 113.021138 211.048 
L 114.386123 200.532571 
L 115.750624 195.859048 
L 117.11643 195.859048 
L 118.481917 186.512 
L 119.846735 179.501714 
L 121.214535 177.164952 
L 128.053748 177.164952 
L 129.419451 183.006857 
L 130.787616 190.017143 
L 132.152137 190.017143 
L 133.516627 195.859048 
L 134.883927 195.859048 
L 136.248895 200.532571 
L 137.615475 195.859048 
L 138.98248 195.859048 
L 140.347656 193.522286 
L 141.71241 192.353905 
L 143.077044 188.848762 
L 144.441811 188.848762 
L 145.807721 187.680381 
L 147.174502 191.185524 
L 148.53907 191.185524 
L 149.907055 188.848762 
L 151.272005 185.343619 
L 152.636584 185.343619 
L 154.003907 183.006857 
L 155.368981 185.343619 
L 158.098313 185.343619 
L 159.465728 178.333333 
L 160.831459 177.164952 
L 162.199118 177.164952 
L 163.566545 179.501714 
L 164.934153 173.65981 
L 166.303746 173.65981 
L 167.671788 170.154667 
L 169.0429 170.154667 
L 170.410352 175.996571 
L 171.774993 165.481143 
L 173.139872 153.797333 
L 174.504469 153.797333 
L 175.869141 147.955429 
L 177.234356 138.608381 
L 178.599182 138.608381 
L 179.964694 124.58781 
L 181.331212 108.230476 
L 182.695927 108.230476 
L 184.06422 90.704762 
L 185.42972 79.020952 
L 186.794269 60.326857 
L 188.159969 60.326857 
L 189.524811 52.14819 
L 190.889236 83.694476 
L 193.620594 83.694476 
L 194.988374 86.031238 
L 196.353418 86.031238 
L 197.72133 88.368 
L 199.087201 89.536381 
L 200.452218 89.536381 
L 201.819136 105.893714 
L 203.189355 119.914286 
L 204.554973 119.914286 
L 205.922115 133.934857 
L 207.289713 153.797333 
L 208.65824 153.797333 
L 210.024045 161.976 
L 211.391112 168.986286 
L 212.756132 172.491429 
L 214.123961 172.491429 
L 215.492114 184.175238 
L 216.857544 192.353905 
L 218.222659 192.353905 
L 219.592077 260.12 
L 297.6002 260.12 
L 298.967216 241.425905 
L 300.334875 236.752381 
L 301.702333 236.752381 
L 303.068219 233.247238 
L 304.433456 222.73181 
L 305.80029 222.73181 
L 307.166997 213.384762 
L 308.534733 211.048 
L 309.902932 211.048 
L 311.274032 207.542857 
L 312.643413 205.206095 
L 314.011222 205.206095 
L 315.375795 202.869333 
L 316.746221 201.700952 
L 319.482414 201.700952 
L 320.846724 215.721524 
L 322.213131 216.889905 
L 323.58114 214.553143 
L 324.94634 216.889905 
L 326.312214 216.889905 
L 329.132988 205.206095 
L 331.951795 208.711238 
L 334.818369 208.711238 
L 336.182784 211.048 
L 337.549005 211.048 
L 338.913949 213.384762 
L 340.278572 212.216381 
L 341.646049 212.216381 
L 343.013339 207.542857 
L 345.744526 207.542857 
L 347.109312 202.869333 
L 348.477504 205.206095 
L 349.842348 205.206095 
L 351.208119 201.700952 
L 352.573555 191.185524 
L 353.938909 186.512 
L 355.303488 186.512 
L 356.668657 185.343619 
L 358.033836 173.65981 
L 359.401785 173.65981 
L 360.768172 172.491429 
L 362.135661 181.838476 
L 363.500752 181.838476 
L 366.232132 158.470857 
L 367.597552 158.470857 
L 368.965085 153.797333 
L 370.33086 150.29219 
L 371.696155 150.29219 
L 373.06319 154.965714 
L 374.42924 158.470857 
L 375.794578 158.470857 
L 377.162434 144.450286 
L 378.530503 135.103238 
L 379.896399 130.429714 
L 381.261896 130.429714 
L 382.627661 116.409143 
L 383.993233 116.409143 
L 386.728449 114.072381 
L 388.096003 110.567238 
L 389.464404 110.567238 
L 390.830554 112.904 
L 392.197825 117.577524 
L 393.563353 117.577524 
L 394.931068 126.924571 
L 396.296549 142.113524 
L 397.663554 152.628952 
L 399.030314 152.628952 
L 400.394869 159.639238 
L 401.765016 159.639238 
L 403.12969 170.154667 
L 404.496586 178.333333 
L 405.86428 178.333333 
L 407.229513 186.512 
L 408.597482 187.680381 
L 409.964397 190.017143 
L 411.329393 190.017143 
L 412.693845 260.12 
L 486.620785 260.12 
L 489.32805 248.43619 
L 490.692544 248.43619 
L 492.057652 242.594286 
L 493.422841 237.920762 
L 494.787329 237.920762 
L 496.152804 228.573714 
L 497.518552 228.573714 
L 498.883626 223.90019 
L 500.247956 220.395048 
L 501.61358 220.395048 
L 502.978577 225.068571 
L 504.344964 225.068571 
L 505.711138 227.405333 
L 507.078931 227.405333 
L 508.447321 226.236952 
L 509.815007 223.90019 
L 511.179975 223.90019 
L 512.545438 220.395048 
L 513.910307 229.742095 
L 516.642094 229.742095 
L 518.009809 227.405333 
L 519.376257 227.405333 
L 520.741427 218.058286 
L 522.108531 218.058286 
L 523.474739 212.216381 
L 526.206949 212.216381 
L 528.93933 207.542857 
L 530.312663 207.542857 
L 531.68137 201.700952 
L 533.050732 201.700952 
L 534.415918 202.869333 
L 535.780975 200.532571 
L 537.145261 200.532571 
L 538.509845 191.185524 
L 541.240262 191.185524 
L 542.627622 188.848762 
L 543.992981 188.848762 
L 545.357493 179.501714 
L 546.727164 179.501714 
L 548.093719 177.164952 
L 549.459229 171.323048 
L 550.827392 171.323048 
L 552.191881 161.976 
L 553.558312 145.618667 
L 554.923031 117.577524 
L 556.288465 117.577524 
L 557.654771 109.398857 
L 559.019568 88.368 
L 560.384838 88.368 
L 561.753555 66.168762 
L 563.119669 52.14819 
L 564.484964 52.14819 
L 565.849641 42.801143 
L 567.215033 48.643048 
L 568.582988 48.643048 
L 569.950558 35.790857 
L 571.315138 33.454095 
L 572.682473 33.454095 
L 574.051796 34.622476 
L 575.419555 27.61219 
L 576.790781 27.61219 
L 578.155551 33.454095 
L 579.523138 38.127619 
L 580.887576 38.127619 
L 582.256228 48.643048 
L 583.62035 50.97981 
L 584.985628 72.010667 
L 586.35017 72.010667 
L 587.717759 89.536381 
L 589.082856 89.536381 
L 590.448642 104.725333 
L 591.814508 132.766476 
L 593.180929 140.945143 
L 594.549739 140.945143 
L 595.917095 165.481143 
L 597.281218 177.164952 
L 598.646756 177.164952 
L 600.014981 183.006857 
L 601.3812 194.690667 
L 604.114736 194.690667 
L 605.480657 260.12 
L 679.400284 260.12 
L 680.766477 253.109714 
L 682.133539 253.109714 
L 683.498938 249.604571 
L 684.866826 244.931048 
L 686.231149 244.931048 
L 687.596687 239.089143 
L 688.963216 236.752381 
L 690.328612 236.752381 
L 693.058426 229.742095 
L 694.426326 229.742095 
L 695.793038 233.247238 
L 697.161355 232.078857 
L 698.52732 228.573714 
L 699.894273 228.573714 
L 701.259559 229.742095 
L 702.624412 227.405333 
L 703.993097 227.405333 
L 705.359033 221.563429 
L 706.723462 219.226667 
L 708.094498 219.226667 
L 709.458981 214.553143 
L 710.824155 208.711238 
L 712.189199 208.711238 
L 713.554489 212.216381 
L 714.920161 214.553143 
L 716.288113 214.553143 
L 717.654826 208.711238 
L 719.019908 213.384762 
L 721.751231 213.384762 
L 723.117182 209.879619 
L 724.485633 199.36419 
L 725.850008 199.36419 
L 728.584647 197.027429 
L 729.950012 197.027429 
L 732.684247 185.343619 
L 735.418801 185.343619 
L 736.783587 180.670095 
L 738.149869 180.670095 
L 739.515878 170.154667 
L 740.882482 165.481143 
L 742.247127 165.481143 
L 743.61267 158.470857 
L 744.977453 142.113524 
L 746.342601 128.092952 
L 747.707182 128.092952 
L 749.075944 103.556952 
L 750.446628 107.062095 
L 751.814711 107.062095 
L 753.18208 102.388571 
L 754.54973 80.189333 
L 755.914518 80.189333 
L 757.28026 66.168762 
L 758.644809 60.326857 
L 760.009476 60.326857 
L 761.376888 61.495238 
L 762.743416 48.643048 
L 764.108674 45.137905 
L 765.476466 45.137905 
L 766.841576 63.832 
L 768.206621 72.010667 
L 769.572454 72.010667 
L 770.938418 83.694476 
L 772.30406 90.704762 
L 773.671798 90.704762 
L 775.036245 95.378286 
L 776.411151 107.062095 
L 777.780594 107.062095 
L 779.145938 114.072381 
L 780.510475 129.261333 
L 781.876628 129.261333 
L 784.60628 157.302476 
L 785.975341 157.302476 
L 787.343502 161.976 
L 788.710853 177.164952 
L 790.077877 177.164952 
L 791.444645 184.175238 
L 792.810842 260.12 
L 870.83971 260.12 
L 872.204637 248.43619 
L 873.572388 242.594286 
L 874.940985 242.594286 
L 876.305595 234.415619 
L 877.669827 234.415619 
L 879.035193 222.73181 
L 880.399785 219.226667 
L 881.766881 214.553143 
L 883.134973 214.553143 
L 885.872047 205.206095 
L 887.239744 205.206095 
L 888.605665 201.700952 
L 889.972911 199.36419 
L 891.338718 205.206095 
L 892.704466 205.206095 
L 894.069436 207.542857 
L 895.437487 211.048 
L 896.804481 211.048 
L 898.173971 219.226667 
L 899.539644 219.226667 
L 900.905048 218.058286 
L 903.636057 218.058286 
L 905.000799 221.563429 
L 906.366234 218.058286 
L 909.097138 218.058286 
L 910.462702 221.563429 
L 911.82833 222.73181 
L 913.193072 222.73181 
L 915.925464 211.048 
L 917.290063 208.711238 
L 918.656943 208.711238 
L 920.021226 205.206095 
L 921.386049 209.879619 
L 922.750772 209.879619 
L 924.116084 202.869333 
L 925.482771 202.869333 
L 926.84883 195.859048 
L 928.214028 197.027429 
L 929.580015 192.353905 
L 930.945701 192.353905 
L 932.311483 187.680381 
L 933.678069 181.838476 
L 935.042934 181.838476 
L 936.408787 183.006857 
L 937.775016 178.333333 
L 939.142842 183.006857 
L 940.510439 183.006857 
L 941.87579 177.164952 
L 943.241737 177.164952 
L 944.609807 186.512 
L 945.978052 181.838476 
L 947.343826 181.838476 
L 948.709478 184.175238 
L 950.076547 188.848762 
L 951.442096 186.512 
L 952.810146 186.512 
L 954.174537 183.006857 
L 955.542287 177.164952 
L 956.909339 177.164952 
L 958.274297 178.333333 
L 959.638918 187.680381 
L 961.003419 187.680381 
L 962.369556 186.512 
L 965.104503 186.512 
L 966.472154 188.848762 
L 969.205118 188.848762 
L 970.572949 200.532571 
L 971.938799 200.532571 
L 973.304269 205.206095 
L 974.671161 205.206095 
L 976.038959 206.374476 
L 977.406968 206.374476 
L 978.774398 207.542857 
L 980.141599 209.879619 
L 984.246032 209.879619 
L 985.611594 260.12 
L 1060.89613 260.12 
L 1062.261338 258.951619 
L 1063.626575 254.278095 
L 1064.993103 243.762667 
L 1066.359932 243.762667 
L 1069.093281 236.752381 
L 1070.460301 236.752381 
L 1071.827149 229.742095 
L 1073.194172 220.395048 
L 1074.559656 220.395048 
L 1075.924525 218.058286 
L 1077.289585 216.889905 
L 1078.657665 216.889905 
L 1080.024596 206.374476 
L 1081.389932 206.374476 
L 1082.7547 198.19581 
L 1084.121021 198.19581 
L 1085.485922 195.859048 
L 1088.214574 195.859048 
L 1089.584495 197.027429 
L 1090.949825 204.037714 
L 1092.319023 204.037714 
L 1093.683371 200.532571 
L 1095.048488 199.36419 
L 1096.41351 199.36419 
L 1097.778578 194.690667 
L 1099.143694 192.353905 
L 1100.508399 192.353905 
L 1101.87331 199.36419 
L 1103.238526 198.19581 
L 1104.605216 198.19581 
L 1105.970137 199.36419 
L 1107.334437 204.037714 
L 1108.699267 204.037714 
L 1110.066563 206.374476 
L 1112.799515 197.027429 
L 1114.166083 197.027429 
L 1115.52995 198.19581 
L 1116.895394 197.027429 
L 1118.262591 197.027429 
L 1119.627705 205.206095 
L 1120.993222 211.048 
L 1122.358066 201.700952 
L 1125.087852 201.700952 
L 1126.452923 191.185524 
L 1127.819379 191.185524 
L 1129.184328 186.512 
L 1130.550353 186.512 
L 1131.915009 191.185524 
L 1133.28 194.690667 
L 1133.28 194.690667 
" style="fill:none;stroke:#1f77b4;stroke-linecap:square;stroke-width:1.5;"/>
   </g>
   <g id="patch_3">
    <path d="M 33.64 260.12 
L 33.64 14.76 
" style="fill:none;stroke:#000000;stroke-linecap:square;stroke-linejoin:miter;stroke-width:0.8;"/>
   </g>
   <g id="patch_4">
    <path d="M 1133.28 260.12 
L 1133.28 14.76 
" style="fill:none;stroke:#000000;stroke-linecap:square;stroke-linejoin:miter;stroke-width:0.8;"/>
   </g>
   <g id="patch_5">
    <path d="M 33.64 260.12 
L 1133.28 260.12 
" style="fill:none;stroke:#000000;stroke-linecap:square;stroke-linejoin:miter;stroke-width:0.8;"/>
   </g>
   <g id="patch_6">
    <path d="M 33.64 14.76 
L 1133.28 14.76 
" style="fill:none;stroke:#000000;stroke-linecap:square;stroke-linejoin:miter;stroke-width:0.8;"/>
   </g>
  </g>
 </g>
 <defs>
  <clipPath id="p94643f50d0">
   <rect height="245.36" width="1099.64" x="33.64" y="14.76"/>
  </clipPath>
 </defs>
</svg>
