<?xml version="1.0" encoding="utf-8" standalone="no"?>
<!DOCTYPE svg PUBLIC "-//W3C//DTD SVG 1.1//EN"
  "http://www.w3.org/Graphics/SVG/1.1/DTD/svg11.dtd">
<!-- Created with matplotlib (https://matplotlib.org/) -->
<svg height="288pt" version="1.1" viewBox="0 0 1152 288" width="1152pt" xmlns="http://www.w3.org/2000/svg" xmlns:xlink="http://www.w3.org/1999/xlink">
 <defs>
  <style type="text/css">
*{stroke-linecap:butt;stroke-linejoin:round;}
  </style>
 </defs>
 <g id="figure_1">
  <g id="patch_1">
   <path d="M 0 288 
L 1152 288 
L 1152 0 
L 0 0 
z
" style="fill:#ffffff;"/>
  </g>
  <g id="axes_1">
   <g id="patch_2">
    <path d="M 33.64 260.12 
L 1133.28 260.12 
L 1133.28 14.76 
L 33.64 14.76 
z
" style="fill:#ffffff;"/>
   </g>
   <g id="matplotlib.axis_1">
    <g id="xtick_1">
     <g id="line2d_1">
      <defs>
       <path d="M 0 0 
L 0 3.5 
" id="m903f33c2d9" style="stroke:#000000;stroke-width:0.8;"/>
      </defs>
      <g>
       <use style="stroke:#000000;stroke-width:0.8;" x="203.811685" xlink:href="#m903f33c2d9" y="260.12"/>
      </g>
     </g>
     <g id="text_1">
      <!-- Tue 00:00 -->
      <defs>
       <path d="M -0.296875 72.90625 
L 61.375 72.90625 
L 61.375 64.59375 
L 35.5 64.59375 
L 35.5 0 
L 25.59375 0 
L 25.59375 64.59375 
L -0.296875 64.59375 
z
" id="DejaVuSans-84"/>
       <path d="M 8.5 21.578125 
L 8.5 54.6875 
L 17.484375 54.6875 
L 17.484375 21.921875 
Q 17.484375 14.15625 20.5 10.265625 
Q 23.53125 6.390625 29.59375 6.390625 
Q 36.859375 6.390625 41.078125 11.03125 
Q 45.3125 15.671875 45.3125 23.6875 
L 45.3125 54.6875 
L 54.296875 54.6875 
L 54.296875 0 
L 45.3125 0 
L 45.3125 8.40625 
Q 42.046875 3.421875 37.71875 1 
Q 33.40625 -1.421875 27.6875 -1.421875 
Q 18.265625 -1.421875 13.375 4.4375 
Q 8.5 10.296875 8.5 21.578125 
z
M 31.109375 56 
z
" id="DejaVuSans-117"/>
       <path d="M 56.203125 29.59375 
L 56.203125 25.203125 
L 14.890625 25.203125 
Q 15.484375 15.921875 20.484375 11.0625 
Q 25.484375 6.203125 34.421875 6.203125 
Q 39.59375 6.203125 44.453125 7.46875 
Q 49.3125 8.734375 54.109375 11.28125 
L 54.109375 2.78125 
Q 49.265625 0.734375 44.1875 -0.34375 
Q 39.109375 -1.421875 33.890625 -1.421875 
Q 20.796875 -1.421875 13.15625 6.1875 
Q 5.515625 13.8125 5.515625 26.8125 
Q 5.515625 40.234375 12.765625 48.109375 
Q 20.015625 56 32.328125 56 
Q 43.359375 56 49.78125 48.890625 
Q 56.203125 41.796875 56.203125 29.59375 
z
M 47.21875 32.234375 
Q 47.125 39.59375 43.09375 43.984375 
Q 39.0625 48.390625 32.421875 48.390625 
Q 24.90625 48.390625 20.390625 44.140625 
Q 15.875 39.890625 15.1875 32.171875 
z
" id="DejaVuSans-101"/>
       <path id="DejaVuSans-32"/>
       <path d="M 31.78125 66.40625 
Q 24.171875 66.40625 20.328125 58.90625 
Q 16.5 51.421875 16.5 36.375 
Q 16.5 21.390625 20.328125 13.890625 
Q 24.171875 6.390625 31.78125 6.390625 
Q 39.453125 6.390625 43.28125 13.890625 
Q 47.125 21.390625 47.125 36.375 
Q 47.125 51.421875 43.28125 58.90625 
Q 39.453125 66.40625 31.78125 66.40625 
z
M 31.78125 74.21875 
Q 44.046875 74.21875 50.515625 64.515625 
Q 56.984375 54.828125 56.984375 36.375 
Q 56.984375 17.96875 50.515625 8.265625 
Q 44.046875 -1.421875 31.78125 -1.421875 
Q 19.53125 -1.421875 13.0625 8.265625 
Q 6.59375 17.96875 6.59375 36.375 
Q 6.59375 54.828125 13.0625 64.515625 
Q 19.53125 74.21875 31.78125 74.21875 
z
" id="DejaVuSans-48"/>
       <path d="M 11.71875 12.40625 
L 22.015625 12.40625 
L 22.015625 0 
L 11.71875 0 
z
M 11.71875 51.703125 
L 22.015625 51.703125 
L 22.015625 39.3125 
L 11.71875 39.3125 
z
" id="DejaVuSans-58"/>
      </defs>
      <g transform="translate(178.525747 274.718437)scale(0.1 -0.1)">
       <use xlink:href="#DejaVuSans-84"/>
       <use x="60.849609" xlink:href="#DejaVuSans-117"/>
       <use x="124.228516" xlink:href="#DejaVuSans-101"/>
       <use x="185.751953" xlink:href="#DejaVuSans-32"/>
       <use x="217.539062" xlink:href="#DejaVuSans-48"/>
       <use x="281.162109" xlink:href="#DejaVuSans-48"/>
       <use x="344.785156" xlink:href="#DejaVuSans-58"/>
       <use x="378.476562" xlink:href="#DejaVuSans-48"/>
       <use x="442.099609" xlink:href="#DejaVuSans-48"/>
      </g>
     </g>
    </g>
    <g id="xtick_2">
     <g id="line2d_2">
      <g>
       <use style="stroke:#000000;stroke-width:0.8;" x="374.059581" xlink:href="#m903f33c2d9" y="260.12"/>
      </g>
     </g>
     <g id="text_2">
      <!-- Wed 00:00 -->
      <defs>
       <path d="M 3.328125 72.90625 
L 13.28125 72.90625 
L 28.609375 11.28125 
L 43.890625 72.90625 
L 54.984375 72.90625 
L 70.3125 11.28125 
L 85.59375 72.90625 
L 95.609375 72.90625 
L 77.296875 0 
L 64.890625 0 
L 49.515625 63.28125 
L 33.984375 0 
L 21.578125 0 
z
" id="DejaVuSans-87"/>
       <path d="M 45.40625 46.390625 
L 45.40625 75.984375 
L 54.390625 75.984375 
L 54.390625 0 
L 45.40625 0 
L 45.40625 8.203125 
Q 42.578125 3.328125 38.25 0.953125 
Q 33.9375 -1.421875 27.875 -1.421875 
Q 17.96875 -1.421875 11.734375 6.484375 
Q 5.515625 14.40625 5.515625 27.296875 
Q 5.515625 40.1875 11.734375 48.09375 
Q 17.96875 56 27.875 56 
Q 33.9375 56 38.25 53.625 
Q 42.578125 51.265625 45.40625 46.390625 
z
M 14.796875 27.296875 
Q 14.796875 17.390625 18.875 11.75 
Q 22.953125 6.109375 30.078125 6.109375 
Q 37.203125 6.109375 41.296875 11.75 
Q 45.40625 17.390625 45.40625 27.296875 
Q 45.40625 37.203125 41.296875 42.84375 
Q 37.203125 48.484375 30.078125 48.484375 
Q 22.953125 48.484375 18.875 42.84375 
Q 14.796875 37.203125 14.796875 27.296875 
z
" id="DejaVuSans-100"/>
      </defs>
      <g transform="translate(346.870518 274.718437)scale(0.1 -0.1)">
       <use xlink:href="#DejaVuSans-87"/>
       <use x="98.798828" xlink:href="#DejaVuSans-101"/>
       <use x="160.322266" xlink:href="#DejaVuSans-100"/>
       <use x="223.798828" xlink:href="#DejaVuSans-32"/>
       <use x="255.585938" xlink:href="#DejaVuSans-48"/>
       <use x="319.208984" xlink:href="#DejaVuSans-48"/>
       <use x="382.832031" xlink:href="#DejaVuSans-58"/>
       <use x="416.523438" xlink:href="#DejaVuSans-48"/>
       <use x="480.146484" xlink:href="#DejaVuSans-48"/>
      </g>
     </g>
    </g>
    <g id="xtick_3">
     <g id="line2d_3">
      <g>
       <use style="stroke:#000000;stroke-width:0.8;" x="544.307476" xlink:href="#m903f33c2d9" y="260.12"/>
      </g>
     </g>
     <g id="text_3">
      <!-- Thu 00:00 -->
      <defs>
       <path d="M 54.890625 33.015625 
L 54.890625 0 
L 45.90625 0 
L 45.90625 32.71875 
Q 45.90625 40.484375 42.875 44.328125 
Q 39.84375 48.1875 33.796875 48.1875 
Q 26.515625 48.1875 22.3125 43.546875 
Q 18.109375 38.921875 18.109375 30.90625 
L 18.109375 0 
L 9.078125 0 
L 9.078125 75.984375 
L 18.109375 75.984375 
L 18.109375 46.1875 
Q 21.34375 51.125 25.703125 53.5625 
Q 30.078125 56 35.796875 56 
Q 45.21875 56 50.046875 50.171875 
Q 54.890625 44.34375 54.890625 33.015625 
z
" id="DejaVuSans-104"/>
      </defs>
      <g transform="translate(518.917633 274.718437)scale(0.1 -0.1)">
       <use xlink:href="#DejaVuSans-84"/>
       <use x="61.083984" xlink:href="#DejaVuSans-104"/>
       <use x="124.462891" xlink:href="#DejaVuSans-117"/>
       <use x="187.841797" xlink:href="#DejaVuSans-32"/>
       <use x="219.628906" xlink:href="#DejaVuSans-48"/>
       <use x="283.251953" xlink:href="#DejaVuSans-48"/>
       <use x="346.875" xlink:href="#DejaVuSans-58"/>
       <use x="380.566406" xlink:href="#DejaVuSans-48"/>
       <use x="444.189453" xlink:href="#DejaVuSans-48"/>
      </g>
     </g>
    </g>
    <g id="xtick_4">
     <g id="line2d_4">
      <g>
       <use style="stroke:#000000;stroke-width:0.8;" x="714.555372" xlink:href="#m903f33c2d9" y="260.12"/>
      </g>
     </g>
     <g id="text_4">
      <!-- Fri 00:00 -->
      <defs>
       <path d="M 9.8125 72.90625 
L 51.703125 72.90625 
L 51.703125 64.59375 
L 19.671875 64.59375 
L 19.671875 43.109375 
L 48.578125 43.109375 
L 48.578125 34.8125 
L 19.671875 34.8125 
L 19.671875 0 
L 9.8125 0 
z
" id="DejaVuSans-70"/>
       <path d="M 41.109375 46.296875 
Q 39.59375 47.171875 37.8125 47.578125 
Q 36.03125 48 33.890625 48 
Q 26.265625 48 22.1875 43.046875 
Q 18.109375 38.09375 18.109375 28.8125 
L 18.109375 0 
L 9.078125 0 
L 9.078125 54.6875 
L 18.109375 54.6875 
L 18.109375 46.1875 
Q 20.953125 51.171875 25.484375 53.578125 
Q 30.03125 56 36.53125 56 
Q 37.453125 56 38.578125 55.875 
Q 39.703125 55.765625 41.0625 55.515625 
z
" id="DejaVuSans-114"/>
       <path d="M 9.421875 54.6875 
L 18.40625 54.6875 
L 18.40625 0 
L 9.421875 0 
z
M 9.421875 75.984375 
L 18.40625 75.984375 
L 18.40625 64.59375 
L 9.421875 64.59375 
z
" id="DejaVuSans-105"/>
      </defs>
      <g transform="translate(692.242091 274.718437)scale(0.1 -0.1)">
       <use xlink:href="#DejaVuSans-70"/>
       <use x="57.410156" xlink:href="#DejaVuSans-114"/>
       <use x="98.523438" xlink:href="#DejaVuSans-105"/>
       <use x="126.306641" xlink:href="#DejaVuSans-32"/>
       <use x="158.09375" xlink:href="#DejaVuSans-48"/>
       <use x="221.716797" xlink:href="#DejaVuSans-48"/>
       <use x="285.339844" xlink:href="#DejaVuSans-58"/>
       <use x="319.03125" xlink:href="#DejaVuSans-48"/>
       <use x="382.654297" xlink:href="#DejaVuSans-48"/>
      </g>
     </g>
    </g>
    <g id="xtick_5">
     <g id="line2d_5">
      <g>
       <use style="stroke:#000000;stroke-width:0.8;" x="884.803268" xlink:href="#m903f33c2d9" y="260.12"/>
      </g>
     </g>
     <g id="text_5">
      <!-- Sat 00:00 -->
      <defs>
       <path d="M 53.515625 70.515625 
L 53.515625 60.890625 
Q 47.90625 63.578125 42.921875 64.890625 
Q 37.9375 66.21875 33.296875 66.21875 
Q 25.25 66.21875 20.875 63.09375 
Q 16.5 59.96875 16.5 54.203125 
Q 16.5 49.359375 19.40625 46.890625 
Q 22.3125 44.4375 30.421875 42.921875 
L 36.375 41.703125 
Q 47.40625 39.59375 52.65625 34.296875 
Q 57.90625 29 57.90625 20.125 
Q 57.90625 9.515625 50.796875 4.046875 
Q 43.703125 -1.421875 29.984375 -1.421875 
Q 24.8125 -1.421875 18.96875 -0.25 
Q 13.140625 0.921875 6.890625 3.21875 
L 6.890625 13.375 
Q 12.890625 10.015625 18.65625 8.296875 
Q 24.421875 6.59375 29.984375 6.59375 
Q 38.421875 6.59375 43.015625 9.90625 
Q 47.609375 13.234375 47.609375 19.390625 
Q 47.609375 24.75 44.3125 27.78125 
Q 41.015625 30.8125 33.5 32.328125 
L 27.484375 33.5 
Q 16.453125 35.6875 11.515625 40.375 
Q 6.59375 45.0625 6.59375 53.421875 
Q 6.59375 63.09375 13.40625 68.65625 
Q 20.21875 74.21875 32.171875 74.21875 
Q 37.3125 74.21875 42.625 73.28125 
Q 47.953125 72.359375 53.515625 70.515625 
z
" id="DejaVuSans-83"/>
       <path d="M 34.28125 27.484375 
Q 23.390625 27.484375 19.1875 25 
Q 14.984375 22.515625 14.984375 16.5 
Q 14.984375 11.71875 18.140625 8.90625 
Q 21.296875 6.109375 26.703125 6.109375 
Q 34.1875 6.109375 38.703125 11.40625 
Q 43.21875 16.703125 43.21875 25.484375 
L 43.21875 27.484375 
z
M 52.203125 31.203125 
L 52.203125 0 
L 43.21875 0 
L 43.21875 8.296875 
Q 40.140625 3.328125 35.546875 0.953125 
Q 30.953125 -1.421875 24.3125 -1.421875 
Q 15.921875 -1.421875 10.953125 3.296875 
Q 6 8.015625 6 15.921875 
Q 6 25.140625 12.171875 29.828125 
Q 18.359375 34.515625 30.609375 34.515625 
L 43.21875 34.515625 
L 43.21875 35.40625 
Q 43.21875 41.609375 39.140625 45 
Q 35.0625 48.390625 27.6875 48.390625 
Q 23 48.390625 18.546875 47.265625 
Q 14.109375 46.140625 10.015625 43.890625 
L 10.015625 52.203125 
Q 14.9375 54.109375 19.578125 55.046875 
Q 24.21875 56 28.609375 56 
Q 40.484375 56 46.34375 49.84375 
Q 52.203125 43.703125 52.203125 31.203125 
z
" id="DejaVuSans-97"/>
       <path d="M 18.3125 70.21875 
L 18.3125 54.6875 
L 36.8125 54.6875 
L 36.8125 47.703125 
L 18.3125 47.703125 
L 18.3125 18.015625 
Q 18.3125 11.328125 20.140625 9.421875 
Q 21.96875 7.515625 27.59375 7.515625 
L 36.8125 7.515625 
L 36.8125 0 
L 27.59375 0 
Q 17.1875 0 13.234375 3.875 
Q 9.28125 7.765625 9.28125 18.015625 
L 9.28125 47.703125 
L 2.6875 47.703125 
L 2.6875 54.6875 
L 9.28125 54.6875 
L 9.28125 70.21875 
z
" id="DejaVuSans-116"/>
      </defs>
      <g transform="translate(860.606393 274.718437)scale(0.1 -0.1)">
       <use xlink:href="#DejaVuSans-83"/>
       <use x="63.476562" xlink:href="#DejaVuSans-97"/>
       <use x="124.755859" xlink:href="#DejaVuSans-116"/>
       <use x="163.964844" xlink:href="#DejaVuSans-32"/>
       <use x="195.751953" xlink:href="#DejaVuSans-48"/>
       <use x="259.375" xlink:href="#DejaVuSans-48"/>
       <use x="322.998047" xlink:href="#DejaVuSans-58"/>
       <use x="356.689453" xlink:href="#DejaVuSans-48"/>
       <use x="420.3125" xlink:href="#DejaVuSans-48"/>
      </g>
     </g>
    </g>
    <g id="xtick_6">
     <g id="line2d_6">
      <g>
       <use style="stroke:#000000;stroke-width:0.8;" x="1055.051163" xlink:href="#m903f33c2d9" y="260.12"/>
      </g>
     </g>
     <g id="text_6">
      <!-- Sun 00:00 -->
      <defs>
       <path d="M 54.890625 33.015625 
L 54.890625 0 
L 45.90625 0 
L 45.90625 32.71875 
Q 45.90625 40.484375 42.875 44.328125 
Q 39.84375 48.1875 33.796875 48.1875 
Q 26.515625 48.1875 22.3125 43.546875 
Q 18.109375 38.921875 18.109375 30.90625 
L 18.109375 0 
L 9.078125 0 
L 9.078125 54.6875 
L 18.109375 54.6875 
L 18.109375 46.1875 
Q 21.34375 51.125 25.703125 53.5625 
Q 30.078125 56 35.796875 56 
Q 45.21875 56 50.046875 50.171875 
Q 54.890625 44.34375 54.890625 33.015625 
z
" id="DejaVuSans-110"/>
      </defs>
      <g transform="translate(1029.541007 274.718437)scale(0.1 -0.1)">
       <use xlink:href="#DejaVuSans-83"/>
       <use x="63.476562" xlink:href="#DejaVuSans-117"/>
       <use x="126.855469" xlink:href="#DejaVuSans-110"/>
       <use x="190.234375" xlink:href="#DejaVuSans-32"/>
       <use x="222.021484" xlink:href="#DejaVuSans-48"/>
       <use x="285.644531" xlink:href="#DejaVuSans-48"/>
       <use x="349.267578" xlink:href="#DejaVuSans-58"/>
       <use x="382.958984" xlink:href="#DejaVuSans-48"/>
       <use x="446.582031" xlink:href="#DejaVuSans-48"/>
      </g>
     </g>
    </g>
   </g>
   <g id="matplotlib.axis_2">
    <g id="ytick_1">
     <g id="line2d_7">
      <defs>
       <path d="M 0 0 
L -3.5 0 
" id="m294c44bebc" style="stroke:#000000;stroke-width:0.8;"/>
      </defs>
      <g>
       <use style="stroke:#000000;stroke-width:0.8;" x="33.64" xlink:href="#m294c44bebc" y="260.12"/>
      </g>
     </g>
     <g id="text_7">
      <!-- 0 -->
      <g transform="translate(20.2775 263.919219)scale(0.1 -0.1)">
       <use xlink:href="#DejaVuSans-48"/>
      </g>
     </g>
    </g>
    <g id="ytick_2">
     <g id="line2d_8">
      <g>
       <use style="stroke:#000000;stroke-width:0.8;" x="33.64" xlink:href="#m294c44bebc" y="232.857778"/>
      </g>
     </g>
     <g id="text_8">
      <!-- 20 -->
      <defs>
       <path d="M 19.1875 8.296875 
L 53.609375 8.296875 
L 53.609375 0 
L 7.328125 0 
L 7.328125 8.296875 
Q 12.9375 14.109375 22.625 23.890625 
Q 32.328125 33.6875 34.8125 36.53125 
Q 39.546875 41.84375 41.421875 45.53125 
Q 43.3125 49.21875 43.3125 52.78125 
Q 43.3125 58.59375 39.234375 62.25 
Q 35.15625 65.921875 28.609375 65.921875 
Q 23.96875 65.921875 18.8125 64.3125 
Q 13.671875 62.703125 7.8125 59.421875 
L 7.8125 69.390625 
Q 13.765625 71.78125 18.9375 73 
Q 24.125 74.21875 28.421875 74.21875 
Q 39.75 74.21875 46.484375 68.546875 
Q 53.21875 62.890625 53.21875 53.421875 
Q 53.21875 48.921875 51.53125 44.890625 
Q 49.859375 40.875 45.40625 35.40625 
Q 44.1875 33.984375 37.640625 27.21875 
Q 31.109375 20.453125 19.1875 8.296875 
z
" id="DejaVuSans-50"/>
      </defs>
      <g transform="translate(13.915 236.656997)scale(0.1 -0.1)">
       <use xlink:href="#DejaVuSans-50"/>
       <use x="63.623047" xlink:href="#DejaVuSans-48"/>
      </g>
     </g>
    </g>
    <g id="ytick_3">
     <g id="line2d_9">
      <g>
       <use style="stroke:#000000;stroke-width:0.8;" x="33.64" xlink:href="#m294c44bebc" y="205.595556"/>
      </g>
     </g>
     <g id="text_9">
      <!-- 40 -->
      <defs>
       <path d="M 37.796875 64.3125 
L 12.890625 25.390625 
L 37.796875 25.390625 
z
M 35.203125 72.90625 
L 47.609375 72.90625 
L 47.609375 25.390625 
L 58.015625 25.390625 
L 58.015625 17.1875 
L 47.609375 17.1875 
L 47.609375 0 
L 37.796875 0 
L 37.796875 17.1875 
L 4.890625 17.1875 
L 4.890625 26.703125 
z
" id="DejaVuSans-52"/>
      </defs>
      <g transform="translate(13.915 209.394774)scale(0.1 -0.1)">
       <use xlink:href="#DejaVuSans-52"/>
       <use x="63.623047" xlink:href="#DejaVuSans-48"/>
      </g>
     </g>
    </g>
    <g id="ytick_4">
     <g id="line2d_10">
      <g>
       <use style="stroke:#000000;stroke-width:0.8;" x="33.64" xlink:href="#m294c44bebc" y="178.333333"/>
      </g>
     </g>
     <g id="text_10">
      <!-- 60 -->
      <defs>
       <path d="M 33.015625 40.375 
Q 26.375 40.375 22.484375 35.828125 
Q 18.609375 31.296875 18.609375 23.390625 
Q 18.609375 15.53125 22.484375 10.953125 
Q 26.375 6.390625 33.015625 6.390625 
Q 39.65625 6.390625 43.53125 10.953125 
Q 47.40625 15.53125 47.40625 23.390625 
Q 47.40625 31.296875 43.53125 35.828125 
Q 39.65625 40.375 33.015625 40.375 
z
M 52.59375 71.296875 
L 52.59375 62.3125 
Q 48.875 64.0625 45.09375 64.984375 
Q 41.3125 65.921875 37.59375 65.921875 
Q 27.828125 65.921875 22.671875 59.328125 
Q 17.53125 52.734375 16.796875 39.40625 
Q 19.671875 43.65625 24.015625 45.921875 
Q 28.375 48.1875 33.59375 48.1875 
Q 44.578125 48.1875 50.953125 41.515625 
Q 57.328125 34.859375 57.328125 23.390625 
Q 57.328125 12.15625 50.6875 5.359375 
Q 44.046875 -1.421875 33.015625 -1.421875 
Q 20.359375 -1.421875 13.671875 8.265625 
Q 6.984375 17.96875 6.984375 36.375 
Q 6.984375 53.65625 15.1875 63.9375 
Q 23.390625 74.21875 37.203125 74.21875 
Q 40.921875 74.21875 44.703125 73.484375 
Q 48.484375 72.75 52.59375 71.296875 
z
" id="DejaVuSans-54"/>
      </defs>
      <g transform="translate(13.915 182.132552)scale(0.1 -0.1)">
       <use xlink:href="#DejaVuSans-54"/>
       <use x="63.623047" xlink:href="#DejaVuSans-48"/>
      </g>
     </g>
    </g>
    <g id="ytick_5">
     <g id="line2d_11">
      <g>
       <use style="stroke:#000000;stroke-width:0.8;" x="33.64" xlink:href="#m294c44bebc" y="151.071111"/>
      </g>
     </g>
     <g id="text_11">
      <!-- 80 -->
      <defs>
       <path d="M 31.78125 34.625 
Q 24.75 34.625 20.71875 30.859375 
Q 16.703125 27.09375 16.703125 20.515625 
Q 16.703125 13.921875 20.71875 10.15625 
Q 24.75 6.390625 31.78125 6.390625 
Q 38.8125 6.390625 42.859375 10.171875 
Q 46.921875 13.96875 46.921875 20.515625 
Q 46.921875 27.09375 42.890625 30.859375 
Q 38.875 34.625 31.78125 34.625 
z
M 21.921875 38.8125 
Q 15.578125 40.375 12.03125 44.71875 
Q 8.5 49.078125 8.5 55.328125 
Q 8.5 64.0625 14.71875 69.140625 
Q 20.953125 74.21875 31.78125 74.21875 
Q 42.671875 74.21875 48.875 69.140625 
Q 55.078125 64.0625 55.078125 55.328125 
Q 55.078125 49.078125 51.53125 44.71875 
Q 48 40.375 41.703125 38.8125 
Q 48.828125 37.15625 52.796875 32.3125 
Q 56.78125 27.484375 56.78125 20.515625 
Q 56.78125 9.90625 50.3125 4.234375 
Q 43.84375 -1.421875 31.78125 -1.421875 
Q 19.734375 -1.421875 13.25 4.234375 
Q 6.78125 9.90625 6.78125 20.515625 
Q 6.78125 27.484375 10.78125 32.3125 
Q 14.796875 37.15625 21.921875 38.8125 
z
M 18.3125 54.390625 
Q 18.3125 48.734375 21.84375 45.5625 
Q 25.390625 42.390625 31.78125 42.390625 
Q 38.140625 42.390625 41.71875 45.5625 
Q 45.3125 48.734375 45.3125 54.390625 
Q 45.3125 60.0625 41.71875 63.234375 
Q 38.140625 66.40625 31.78125 66.40625 
Q 25.390625 66.40625 21.84375 63.234375 
Q 18.3125 60.0625 18.3125 54.390625 
z
" id="DejaVuSans-56"/>
      </defs>
      <g transform="translate(13.915 154.87033)scale(0.1 -0.1)">
       <use xlink:href="#DejaVuSans-56"/>
       <use x="63.623047" xlink:href="#DejaVuSans-48"/>
      </g>
     </g>
    </g>
    <g id="ytick_6">
     <g id="line2d_12">
      <g>
       <use style="stroke:#000000;stroke-width:0.8;" x="33.64" xlink:href="#m294c44bebc" y="123.808889"/>
      </g>
     </g>
     <g id="text_12">
      <!-- 100 -->
      <defs>
       <path d="M 12.40625 8.296875 
L 28.515625 8.296875 
L 28.515625 63.921875 
L 10.984375 60.40625 
L 10.984375 69.390625 
L 28.421875 72.90625 
L 38.28125 72.90625 
L 38.28125 8.296875 
L 54.390625 8.296875 
L 54.390625 0 
L 12.40625 0 
z
" id="DejaVuSans-49"/>
      </defs>
      <g transform="translate(7.5525 127.608108)scale(0.1 -0.1)">
       <use xlink:href="#DejaVuSans-49"/>
       <use x="63.623047" xlink:href="#DejaVuSans-48"/>
       <use x="127.246094" xlink:href="#DejaVuSans-48"/>
      </g>
     </g>
    </g>
    <g id="ytick_7">
     <g id="line2d_13">
      <g>
       <use style="stroke:#000000;stroke-width:0.8;" x="33.64" xlink:href="#m294c44bebc" y="96.546667"/>
      </g>
     </g>
     <g id="text_13">
      <!-- 120 -->
      <g transform="translate(7.5525 100.345885)scale(0.1 -0.1)">
       <use xlink:href="#DejaVuSans-49"/>
       <use x="63.623047" xlink:href="#DejaVuSans-50"/>
       <use x="127.246094" xlink:href="#DejaVuSans-48"/>
      </g>
     </g>
    </g>
    <g id="ytick_8">
     <g id="line2d_14">
      <g>
       <use style="stroke:#000000;stroke-width:0.8;" x="33.64" xlink:href="#m294c44bebc" y="69.284444"/>
      </g>
     </g>
     <g id="text_14">
      <!-- 140 -->
      <g transform="translate(7.5525 73.083663)scale(0.1 -0.1)">
       <use xlink:href="#DejaVuSans-49"/>
       <use x="63.623047" xlink:href="#DejaVuSans-52"/>
       <use x="127.246094" xlink:href="#DejaVuSans-48"/>
      </g>
     </g>
    </g>
    <g id="ytick_9">
     <g id="line2d_15">
      <g>
       <use style="stroke:#000000;stroke-width:0.8;" x="33.64" xlink:href="#m294c44bebc" y="42.022222"/>
      </g>
     </g>
     <g id="text_15">
      <!-- 160 -->
      <g transform="translate(7.5525 45.821441)scale(0.1 -0.1)">
       <use xlink:href="#DejaVuSans-49"/>
       <use x="63.623047" xlink:href="#DejaVuSans-54"/>
       <use x="127.246094" xlink:href="#DejaVuSans-48"/>
      </g>
     </g>
    </g>
    <g id="ytick_10">
     <g id="line2d_16">
      <g>
       <use style="stroke:#000000;stroke-width:0.8;" x="33.64" xlink:href="#m294c44bebc" y="14.76"/>
      </g>
     </g>
     <g id="text_16">
      <!-- 180 -->
      <g transform="translate(7.5525 18.559219)scale(0.1 -0.1)">
       <use xlink:href="#DejaVuSans-49"/>
       <use x="63.623047" xlink:href="#DejaVuSans-56"/>
       <use x="127.246094" xlink:href="#DejaVuSans-48"/>
      </g>
     </g>
    </g>
   </g>
   <g id="line2d_17">
    <path clip-path="url(#pc88ffbc048)" d="M 33.64 260.12 
L 97.043791 260.12 
L 98.239999 257.393778 
L 99.459643 257.393778 
L 100.675348 253.304444 
L 101.890839 251.941333 
L 103.109164 249.215111 
L 104.325912 249.215111 
L 105.544374 246.488889 
L 106.761241 242.399556 
L 107.977341 242.399556 
L 109.194051 236.947111 
L 110.412302 235.584 
L 111.629826 235.584 
L 112.848168 232.857778 
L 114.063724 228.768444 
L 116.496871 228.768444 
L 117.712615 224.679111 
L 118.929672 221.952889 
L 120.146741 221.952889 
L 121.365997 219.226667 
L 122.58323 219.226667 
L 123.801322 221.952889 
L 125.016786 228.768444 
L 127.447543 228.768444 
L 129.878915 239.673333 
L 131.098535 239.673333 
L 132.316007 238.310222 
L 133.534556 235.584 
L 134.750011 235.584 
L 135.965569 227.405333 
L 137.180771 226.042222 
L 138.396829 223.316 
L 139.612315 223.316 
L 140.830362 221.952889 
L 143.262451 221.952889 
L 144.480314 209.684889 
L 145.695806 209.684889 
L 146.912463 208.321778 
L 148.128435 198.78 
L 149.347272 197.416889 
L 150.563201 197.416889 
L 151.779088 191.964444 
L 154.211253 191.964444 
L 155.429557 187.875111 
L 156.645126 189.238222 
L 157.861009 189.238222 
L 159.076788 174.244 
L 160.293058 166.065333 
L 161.509867 166.065333 
L 162.7279 141.529333 
L 163.946565 126.535111 
L 165.163898 126.535111 
L 168.817792 63.832 
L 170.036307 63.832 
L 171.254487 61.105778 
L 172.47252 61.105778 
L 173.690971 57.016444 
L 174.910288 76.1 
L 176.129367 84.278667 
L 177.347909 84.278667 
L 178.56434 87.004889 
L 180.996242 87.004889 
L 182.212845 92.457333 
L 183.428926 100.636 
L 184.646984 101.999111 
L 185.865066 101.999111 
L 187.081108 116.993333 
L 188.297387 116.993333 
L 189.514257 133.350667 
L 190.730717 157.886667 
L 191.947397 166.065333 
L 193.164491 166.065333 
L 194.380554 176.970222 
L 195.597037 190.601333 
L 198.032363 190.601333 
L 199.249196 260.12 
L 267.519191 260.12 
L 268.715424 258.756889 
L 269.932027 245.125778 
L 271.147905 245.125778 
L 272.363064 236.947111 
L 273.581849 236.947111 
L 274.797935 232.857778 
L 276.01382 227.405333 
L 277.22967 227.405333 
L 278.44675 224.679111 
L 279.664321 223.316 
L 283.316616 223.316 
L 284.532447 227.405333 
L 285.751099 227.405333 
L 286.972189 234.220889 
L 288.188033 235.584 
L 290.623873 235.584 
L 291.842107 232.857778 
L 293.059424 232.857778 
L 294.274995 228.768444 
L 295.490857 234.220889 
L 296.706062 231.494667 
L 297.925532 231.494667 
L 299.141131 232.857778 
L 300.35669 230.131556 
L 301.572661 230.131556 
L 302.788399 228.768444 
L 305.222003 215.137333 
L 306.43842 215.137333 
L 307.654734 204.232444 
L 308.870475 204.232444 
L 310.087043 208.321778 
L 311.302665 204.232444 
L 312.518068 204.232444 
L 313.73352 202.869333 
L 314.948982 206.958667 
L 316.166871 206.958667 
L 317.392482 201.506222 
L 318.609938 202.869333 
L 319.825755 193.327556 
L 321.042075 193.327556 
L 322.259262 179.696444 
L 323.477893 168.791556 
L 324.694866 168.791556 
L 325.913821 152.434222 
L 327.132609 130.624444 
L 328.34794 121.082667 
L 329.565018 121.082667 
L 330.780976 104.725333 
L 331.9975 99.272889 
L 333.213695 99.272889 
L 334.430577 82.915556 
L 335.648445 82.915556 
L 336.864508 69.284444 
L 338.08164 63.832 
L 339.298348 51.564 
L 340.515112 51.564 
L 341.731082 58.379556 
L 342.947874 37.932889 
L 344.165665 37.932889 
L 345.381407 46.111556 
L 346.598044 32.480444 
L 347.814677 32.480444 
L 349.031288 36.569778 
L 350.246777 31.117333 
L 351.463574 31.117333 
L 352.680428 29.754222 
L 353.898715 44.748444 
L 355.11532 63.832 
L 356.332186 63.832 
L 357.548611 77.463111 
L 358.76742 92.457333 
L 359.983432 92.457333 
L 361.199708 101.999111 
L 362.416306 108.814667 
L 363.632517 108.814667 
L 364.849928 134.713778 
L 366.066731 136.076889 
L 367.282969 136.076889 
L 368.499913 142.892444 
L 369.716485 260.12 
L 437.985804 260.12 
L 439.201918 258.756889 
L 440.417992 246.488889 
L 441.636068 246.488889 
L 442.851527 235.584 
L 444.067474 228.768444 
L 445.28408 220.589778 
L 446.49989 220.589778 
L 447.71682 215.137333 
L 448.934804 215.137333 
L 451.369151 204.232444 
L 452.587239 211.048 
L 453.804094 211.048 
L 456.237715 205.595556 
L 457.454016 205.595556 
L 458.670779 211.048 
L 459.8875 211.048 
L 461.105715 224.679111 
L 462.321844 224.679111 
L 463.538465 220.589778 
L 464.754765 220.589778 
L 465.975538 223.316 
L 467.19174 221.952889 
L 468.410448 221.952889 
L 469.628129 227.405333 
L 470.844719 223.316 
L 472.061316 223.316 
L 474.497528 215.137333 
L 475.715313 215.137333 
L 476.933373 212.411111 
L 478.15035 211.048 
L 479.367164 205.595556 
L 480.583492 205.595556 
L 481.800822 201.506222 
L 483.017264 200.143111 
L 484.233663 200.143111 
L 485.45037 197.416889 
L 486.667256 198.78 
L 487.884091 198.78 
L 489.10066 189.238222 
L 490.317196 183.785778 
L 491.534508 174.244 
L 492.750059 175.607111 
L 493.971112 172.880889 
L 495.188187 172.880889 
L 496.405749 167.428444 
L 497.625926 152.434222 
L 498.841818 144.255556 
L 500.057562 144.255556 
L 501.274303 121.082667 
L 502.491522 103.362222 
L 503.708668 103.362222 
L 504.927706 76.1 
L 506.144138 54.290222 
L 507.359398 54.290222 
L 508.575139 35.206667 
L 509.79441 32.480444 
L 511.010216 32.480444 
L 512.226194 28.391111 
L 513.444123 39.296 
L 514.662859 39.296 
L 515.878219 40.659111 
L 517.096579 54.290222 
L 518.318494 63.832 
L 519.535626 63.832 
L 521.972132 108.814667 
L 523.191382 108.814667 
L 524.409428 126.535111 
L 525.626662 141.529333 
L 526.843654 160.612889 
L 528.060691 160.612889 
L 529.276952 172.880889 
L 530.493726 172.880889 
L 531.712214 189.238222 
L 534.146855 200.143111 
L 535.363983 200.143111 
L 536.58149 201.506222 
L 541.448171 201.506222 
L 542.665637 260.12 
L 607.315927 260.12 
L 608.512474 257.393778 
L 609.728714 257.393778 
L 610.94711 249.215111 
L 612.162773 249.215111 
L 613.378082 247.852 
L 614.593394 239.673333 
L 617.025432 239.673333 
L 619.459792 234.220889 
L 620.675408 234.220889 
L 621.89139 238.310222 
L 623.107634 239.673333 
L 624.322906 239.673333 
L 626.754913 236.947111 
L 627.970697 236.947111 
L 629.186963 235.584 
L 630.403063 231.494667 
L 631.618348 232.857778 
L 634.053318 232.857778 
L 635.268858 234.220889 
L 636.485767 234.220889 
L 637.701176 227.405333 
L 638.917544 223.316 
L 640.133424 223.316 
L 641.351672 217.863556 
L 643.783891 217.863556 
L 644.999904 215.137333 
L 646.216921 217.863556 
L 647.435423 217.863556 
L 648.652036 228.768444 
L 649.870778 226.042222 
L 651.088788 219.226667 
L 652.304741 219.226667 
L 653.521467 215.137333 
L 654.739736 209.684889 
L 655.957172 209.684889 
L 657.173361 206.958667 
L 658.393805 206.958667 
L 659.612016 201.506222 
L 660.828302 204.232444 
L 662.04652 190.601333 
L 663.26284 190.601333 
L 664.479493 171.517778 
L 665.696841 161.976 
L 666.914628 161.976 
L 668.132797 144.255556 
L 669.349893 122.445778 
L 670.568037 122.445778 
L 671.784605 100.636 
L 673.001294 101.999111 
L 674.218046 91.094222 
L 675.436044 91.094222 
L 676.652379 88.368 
L 677.868918 72.010667 
L 679.08556 72.010667 
L 680.302338 50.200889 
L 681.519408 35.206667 
L 682.7363 35.206667 
L 683.953038 40.659111 
L 685.169528 31.117333 
L 686.386483 31.117333 
L 687.603437 39.296 
L 688.820736 50.200889 
L 690.036853 50.200889 
L 691.253561 51.564 
L 693.687006 67.921333 
L 697.336394 67.921333 
L 698.55335 87.004889 
L 699.770664 96.546667 
L 700.988078 96.546667 
L 702.204474 127.898222 
L 703.420867 146.981778 
L 704.639164 163.339111 
L 705.855692 163.339111 
L 707.072369 168.791556 
L 708.289565 176.970222 
L 709.506615 179.696444 
L 713.15643 179.696444 
L 714.372945 260.12 
L 777.827755 260.12 
L 779.023621 257.393778 
L 780.239796 257.393778 
L 781.455304 243.762667 
L 782.671321 223.316 
L 783.889498 216.500444 
L 785.105181 216.500444 
L 786.323414 208.321778 
L 788.757992 208.321778 
L 789.97605 197.416889 
L 792.412584 197.416889 
L 793.631694 193.327556 
L 797.281297 193.327556 
L 798.498133 189.238222 
L 799.715366 189.238222 
L 800.932318 191.964444 
L 802.148849 198.78 
L 803.365395 198.78 
L 804.582168 194.690667 
L 808.231838 194.690667 
L 809.447104 196.053778 
L 810.663505 196.053778 
L 811.880573 190.601333 
L 813.096423 200.143111 
L 814.313163 200.143111 
L 816.744792 202.869333 
L 817.96089 196.053778 
L 819.17743 196.053778 
L 820.393778 194.690667 
L 821.610358 197.416889 
L 822.827819 197.416889 
L 824.045831 190.601333 
L 825.263061 194.690667 
L 826.479771 194.690667 
L 827.696443 186.512 
L 828.913622 185.148889 
L 830.12907 185.148889 
L 831.344673 189.238222 
L 832.562924 182.422667 
L 833.778713 174.244 
L 834.995164 174.244 
L 836.211173 191.964444 
L 837.427804 191.964444 
L 838.644624 181.059556 
L 841.078407 146.981778 
L 842.297087 146.981778 
L 843.51346 133.350667 
L 844.730184 130.624444 
L 845.945991 130.624444 
L 847.162037 140.166222 
L 848.378266 137.44 
L 849.596298 131.987556 
L 850.812771 131.987556 
L 852.02858 123.808889 
L 853.247074 123.808889 
L 854.465534 108.814667 
L 855.682283 101.999111 
L 856.897929 97.909778 
L 858.117281 97.909778 
L 859.333721 96.546667 
L 860.549257 96.546667 
L 861.765345 95.183556 
L 862.981852 104.725333 
L 864.197727 119.719556 
L 865.41347 119.719556 
L 866.629602 121.082667 
L 867.845288 123.808889 
L 869.060616 123.808889 
L 870.276673 134.713778 
L 871.492204 140.166222 
L 872.70836 140.166222 
L 873.924174 155.160444 
L 875.139757 161.976 
L 876.358557 161.976 
L 877.574554 163.339111 
L 878.792843 167.428444 
L 880.011532 167.428444 
L 881.230585 179.696444 
L 882.449306 260.12 
L 950.692079 260.12 
L 951.907212 250.578222 
L 953.122951 246.488889 
L 954.340757 238.310222 
L 955.558653 238.310222 
L 957.98989 224.679111 
L 959.206703 224.679111 
L 960.42212 220.589778 
L 961.63812 211.048 
L 962.854096 211.048 
L 964.069886 206.958667 
L 965.285125 200.143111 
L 966.500364 200.143111 
L 967.715706 191.964444 
L 968.930818 186.512 
L 970.145691 186.512 
L 972.576982 178.333333 
L 973.792619 171.517778 
L 975.007828 171.517778 
L 976.225523 164.702222 
L 977.44046 164.702222 
L 978.658095 163.339111 
L 979.874345 151.071111 
L 981.091294 153.797333 
L 982.307373 153.797333 
L 983.522517 148.344889 
L 984.7403 146.981778 
L 985.958254 146.981778 
L 987.174062 149.708 
L 988.391924 153.797333 
L 989.606827 166.065333 
L 990.822644 166.065333 
L 992.038092 171.517778 
L 993.25431 171.517778 
L 994.470534 178.333333 
L 995.686124 176.970222 
L 998.119516 176.970222 
L 999.334746 178.333333 
L 1000.553082 187.875111 
L 1001.768893 187.875111 
L 1002.983875 178.333333 
L 1004.199955 178.333333 
L 1005.417361 166.065333 
L 1006.63368 176.970222 
L 1007.851023 174.244 
L 1010.283221 174.244 
L 1011.498024 166.065333 
L 1012.715717 166.065333 
L 1013.933913 170.154667 
L 1015.151032 168.791556 
L 1016.368431 171.517778 
L 1017.58542 171.517778 
L 1018.802803 157.886667 
L 1020.017758 167.428444 
L 1021.235335 167.428444 
L 1022.450906 164.702222 
L 1023.668757 164.702222 
L 1024.885053 156.523556 
L 1026.100457 202.869333 
L 1027.318805 202.869333 
L 1028.535107 194.690667 
L 1029.752557 191.964444 
L 1030.970701 197.416889 
L 1032.188228 197.416889 
L 1034.619937 202.869333 
L 1035.837343 209.684889 
L 1037.052432 209.684889 
L 1038.270118 208.321778 
L 1039.485947 208.321778 
L 1040.703076 212.411111 
L 1041.920446 215.137333 
L 1044.353932 215.137333 
L 1045.569502 217.863556 
L 1046.787666 226.042222 
L 1049.217376 226.042222 
L 1050.433725 260.12 
L 1121.109082 260.12 
L 1122.3274 251.941333 
L 1123.546633 247.852 
L 1124.764439 235.584 
L 1125.982725 235.584 
L 1127.198576 212.411111 
L 1128.413806 205.595556 
L 1129.629295 205.595556 
L 1130.845623 187.875111 
L 1133.28 156.523556 
L 1133.28 156.523556 
" style="fill:none;stroke:#1f77b4;stroke-linecap:square;stroke-width:1.5;"/>
   </g>
   <g id="patch_3">
    <path d="M 33.64 260.12 
L 33.64 14.76 
" style="fill:none;stroke:#000000;stroke-linecap:square;stroke-linejoin:miter;stroke-width:0.8;"/>
   </g>
   <g id="patch_4">
    <path d="M 1133.28 260.12 
L 1133.28 14.76 
" style="fill:none;stroke:#000000;stroke-linecap:square;stroke-linejoin:miter;stroke-width:0.8;"/>
   </g>
   <g id="patch_5">
    <path d="M 33.64 260.12 
L 1133.28 260.12 
" style="fill:none;stroke:#000000;stroke-linecap:square;stroke-linejoin:miter;stroke-width:0.8;"/>
   </g>
   <g id="patch_6">
    <path d="M 33.64 14.76 
L 1133.28 14.76 
" style="fill:none;stroke:#000000;stroke-linecap:square;stroke-linejoin:miter;stroke-width:0.8;"/>
   </g>
  </g>
 </g>
 <defs>
  <clipPath id="pc88ffbc048">
   <rect height="245.36" width="1099.64" x="33.64" y="14.76"/>
  </clipPath>
 </defs>
</svg>
