<?xml version="1.0" encoding="utf-8" standalone="no"?>
<!DOCTYPE svg PUBLIC "-//W3C//DTD SVG 1.1//EN"
  "http://www.w3.org/Graphics/SVG/1.1/DTD/svg11.dtd">
<!-- Created with matplotlib (https://matplotlib.org/) -->
<svg height="288pt" version="1.1" viewBox="0 0 1152 288" width="1152pt" xmlns="http://www.w3.org/2000/svg" xmlns:xlink="http://www.w3.org/1999/xlink">
 <defs>
  <style type="text/css">
*{stroke-linecap:butt;stroke-linejoin:round;}
  </style>
 </defs>
 <g id="figure_1">
  <g id="patch_1">
   <path d="M 0 288 
L 1152 288 
L 1152 0 
L 0 0 
z
" style="fill:#ffffff;"/>
  </g>
  <g id="axes_1">
   <g id="patch_2">
    <path d="M 33.64 260.12 
L 1133.28 260.12 
L 1133.28 14.76 
L 33.64 14.76 
z
" style="fill:#ffffff;"/>
   </g>
   <g id="matplotlib.axis_1">
    <g id="xtick_1">
     <g id="line2d_1">
      <defs>
       <path d="M 0 0 
L 0 3.5 
" id="m88dfd32b73" style="stroke:#000000;stroke-width:0.8;"/>
      </defs>
      <g>
       <use style="stroke:#000000;stroke-width:0.8;" x="202.024034" xlink:href="#m88dfd32b73" y="260.12"/>
      </g>
     </g>
     <g id="text_1">
      <!-- Tue 00:00 -->
      <defs>
       <path d="M -0.296875 72.90625 
L 61.375 72.90625 
L 61.375 64.59375 
L 35.5 64.59375 
L 35.5 0 
L 25.59375 0 
L 25.59375 64.59375 
L -0.296875 64.59375 
z
" id="DejaVuSans-84"/>
       <path d="M 8.5 21.578125 
L 8.5 54.6875 
L 17.484375 54.6875 
L 17.484375 21.921875 
Q 17.484375 14.15625 20.5 10.265625 
Q 23.53125 6.390625 29.59375 6.390625 
Q 36.859375 6.390625 41.078125 11.03125 
Q 45.3125 15.671875 45.3125 23.6875 
L 45.3125 54.6875 
L 54.296875 54.6875 
L 54.296875 0 
L 45.3125 0 
L 45.3125 8.40625 
Q 42.046875 3.421875 37.71875 1 
Q 33.40625 -1.421875 27.6875 -1.421875 
Q 18.265625 -1.421875 13.375 4.4375 
Q 8.5 10.296875 8.5 21.578125 
z
M 31.109375 56 
z
" id="DejaVuSans-117"/>
       <path d="M 56.203125 29.59375 
L 56.203125 25.203125 
L 14.890625 25.203125 
Q 15.484375 15.921875 20.484375 11.0625 
Q 25.484375 6.203125 34.421875 6.203125 
Q 39.59375 6.203125 44.453125 7.46875 
Q 49.3125 8.734375 54.109375 11.28125 
L 54.109375 2.78125 
Q 49.265625 0.734375 44.1875 -0.34375 
Q 39.109375 -1.421875 33.890625 -1.421875 
Q 20.796875 -1.421875 13.15625 6.1875 
Q 5.515625 13.8125 5.515625 26.8125 
Q 5.515625 40.234375 12.765625 48.109375 
Q 20.015625 56 32.328125 56 
Q 43.359375 56 49.78125 48.890625 
Q 56.203125 41.796875 56.203125 29.59375 
z
M 47.21875 32.234375 
Q 47.125 39.59375 43.09375 43.984375 
Q 39.0625 48.390625 32.421875 48.390625 
Q 24.90625 48.390625 20.390625 44.140625 
Q 15.875 39.890625 15.1875 32.171875 
z
" id="DejaVuSans-101"/>
       <path id="DejaVuSans-32"/>
       <path d="M 31.78125 66.40625 
Q 24.171875 66.40625 20.328125 58.90625 
Q 16.5 51.421875 16.5 36.375 
Q 16.5 21.390625 20.328125 13.890625 
Q 24.171875 6.390625 31.78125 6.390625 
Q 39.453125 6.390625 43.28125 13.890625 
Q 47.125 21.390625 47.125 36.375 
Q 47.125 51.421875 43.28125 58.90625 
Q 39.453125 66.40625 31.78125 66.40625 
z
M 31.78125 74.21875 
Q 44.046875 74.21875 50.515625 64.515625 
Q 56.984375 54.828125 56.984375 36.375 
Q 56.984375 17.96875 50.515625 8.265625 
Q 44.046875 -1.421875 31.78125 -1.421875 
Q 19.53125 -1.421875 13.0625 8.265625 
Q 6.59375 17.96875 6.59375 36.375 
Q 6.59375 54.828125 13.0625 64.515625 
Q 19.53125 74.21875 31.78125 74.21875 
z
" id="DejaVuSans-48"/>
       <path d="M 11.71875 12.40625 
L 22.015625 12.40625 
L 22.015625 0 
L 11.71875 0 
z
M 11.71875 51.703125 
L 22.015625 51.703125 
L 22.015625 39.3125 
L 11.71875 39.3125 
z
" id="DejaVuSans-58"/>
      </defs>
      <g transform="translate(176.738096 274.718437)scale(0.1 -0.1)">
       <use xlink:href="#DejaVuSans-84"/>
       <use x="60.849609" xlink:href="#DejaVuSans-117"/>
       <use x="124.228516" xlink:href="#DejaVuSans-101"/>
       <use x="185.751953" xlink:href="#DejaVuSans-32"/>
       <use x="217.539062" xlink:href="#DejaVuSans-48"/>
       <use x="281.162109" xlink:href="#DejaVuSans-48"/>
       <use x="344.785156" xlink:href="#DejaVuSans-58"/>
       <use x="378.476562" xlink:href="#DejaVuSans-48"/>
       <use x="442.099609" xlink:href="#DejaVuSans-48"/>
      </g>
     </g>
    </g>
    <g id="xtick_2">
     <g id="line2d_2">
      <g>
       <use style="stroke:#000000;stroke-width:0.8;" x="371.337322" xlink:href="#m88dfd32b73" y="260.12"/>
      </g>
     </g>
     <g id="text_2">
      <!-- Wed 00:00 -->
      <defs>
       <path d="M 3.328125 72.90625 
L 13.28125 72.90625 
L 28.609375 11.28125 
L 43.890625 72.90625 
L 54.984375 72.90625 
L 70.3125 11.28125 
L 85.59375 72.90625 
L 95.609375 72.90625 
L 77.296875 0 
L 64.890625 0 
L 49.515625 63.28125 
L 33.984375 0 
L 21.578125 0 
z
" id="DejaVuSans-87"/>
       <path d="M 45.40625 46.390625 
L 45.40625 75.984375 
L 54.390625 75.984375 
L 54.390625 0 
L 45.40625 0 
L 45.40625 8.203125 
Q 42.578125 3.328125 38.25 0.953125 
Q 33.9375 -1.421875 27.875 -1.421875 
Q 17.96875 -1.421875 11.734375 6.484375 
Q 5.515625 14.40625 5.515625 27.296875 
Q 5.515625 40.1875 11.734375 48.09375 
Q 17.96875 56 27.875 56 
Q 33.9375 56 38.25 53.625 
Q 42.578125 51.265625 45.40625 46.390625 
z
M 14.796875 27.296875 
Q 14.796875 17.390625 18.875 11.75 
Q 22.953125 6.109375 30.078125 6.109375 
Q 37.203125 6.109375 41.296875 11.75 
Q 45.40625 17.390625 45.40625 27.296875 
Q 45.40625 37.203125 41.296875 42.84375 
Q 37.203125 48.484375 30.078125 48.484375 
Q 22.953125 48.484375 18.875 42.84375 
Q 14.796875 37.203125 14.796875 27.296875 
z
" id="DejaVuSans-100"/>
      </defs>
      <g transform="translate(344.148259 274.718437)scale(0.1 -0.1)">
       <use xlink:href="#DejaVuSans-87"/>
       <use x="98.798828" xlink:href="#DejaVuSans-101"/>
       <use x="160.322266" xlink:href="#DejaVuSans-100"/>
       <use x="223.798828" xlink:href="#DejaVuSans-32"/>
       <use x="255.585938" xlink:href="#DejaVuSans-48"/>
       <use x="319.208984" xlink:href="#DejaVuSans-48"/>
       <use x="382.832031" xlink:href="#DejaVuSans-58"/>
       <use x="416.523438" xlink:href="#DejaVuSans-48"/>
       <use x="480.146484" xlink:href="#DejaVuSans-48"/>
      </g>
     </g>
    </g>
    <g id="xtick_3">
     <g id="line2d_3">
      <g>
       <use style="stroke:#000000;stroke-width:0.8;" x="540.65061" xlink:href="#m88dfd32b73" y="260.12"/>
      </g>
     </g>
     <g id="text_3">
      <!-- Thu 00:00 -->
      <defs>
       <path d="M 54.890625 33.015625 
L 54.890625 0 
L 45.90625 0 
L 45.90625 32.71875 
Q 45.90625 40.484375 42.875 44.328125 
Q 39.84375 48.1875 33.796875 48.1875 
Q 26.515625 48.1875 22.3125 43.546875 
Q 18.109375 38.921875 18.109375 30.90625 
L 18.109375 0 
L 9.078125 0 
L 9.078125 75.984375 
L 18.109375 75.984375 
L 18.109375 46.1875 
Q 21.34375 51.125 25.703125 53.5625 
Q 30.078125 56 35.796875 56 
Q 45.21875 56 50.046875 50.171875 
Q 54.890625 44.34375 54.890625 33.015625 
z
" id="DejaVuSans-104"/>
      </defs>
      <g transform="translate(515.260766 274.718437)scale(0.1 -0.1)">
       <use xlink:href="#DejaVuSans-84"/>
       <use x="61.083984" xlink:href="#DejaVuSans-104"/>
       <use x="124.462891" xlink:href="#DejaVuSans-117"/>
       <use x="187.841797" xlink:href="#DejaVuSans-32"/>
       <use x="219.628906" xlink:href="#DejaVuSans-48"/>
       <use x="283.251953" xlink:href="#DejaVuSans-48"/>
       <use x="346.875" xlink:href="#DejaVuSans-58"/>
       <use x="380.566406" xlink:href="#DejaVuSans-48"/>
       <use x="444.189453" xlink:href="#DejaVuSans-48"/>
      </g>
     </g>
    </g>
    <g id="xtick_4">
     <g id="line2d_4">
      <g>
       <use style="stroke:#000000;stroke-width:0.8;" x="709.963898" xlink:href="#m88dfd32b73" y="260.12"/>
      </g>
     </g>
     <g id="text_4">
      <!-- Fri 00:00 -->
      <defs>
       <path d="M 9.8125 72.90625 
L 51.703125 72.90625 
L 51.703125 64.59375 
L 19.671875 64.59375 
L 19.671875 43.109375 
L 48.578125 43.109375 
L 48.578125 34.8125 
L 19.671875 34.8125 
L 19.671875 0 
L 9.8125 0 
z
" id="DejaVuSans-70"/>
       <path d="M 41.109375 46.296875 
Q 39.59375 47.171875 37.8125 47.578125 
Q 36.03125 48 33.890625 48 
Q 26.265625 48 22.1875 43.046875 
Q 18.109375 38.09375 18.109375 28.8125 
L 18.109375 0 
L 9.078125 0 
L 9.078125 54.6875 
L 18.109375 54.6875 
L 18.109375 46.1875 
Q 20.953125 51.171875 25.484375 53.578125 
Q 30.03125 56 36.53125 56 
Q 37.453125 56 38.578125 55.875 
Q 39.703125 55.765625 41.0625 55.515625 
z
" id="DejaVuSans-114"/>
       <path d="M 9.421875 54.6875 
L 18.40625 54.6875 
L 18.40625 0 
L 9.421875 0 
z
M 9.421875 75.984375 
L 18.40625 75.984375 
L 18.40625 64.59375 
L 9.421875 64.59375 
z
" id="DejaVuSans-105"/>
      </defs>
      <g transform="translate(687.650617 274.718437)scale(0.1 -0.1)">
       <use xlink:href="#DejaVuSans-70"/>
       <use x="57.410156" xlink:href="#DejaVuSans-114"/>
       <use x="98.523438" xlink:href="#DejaVuSans-105"/>
       <use x="126.306641" xlink:href="#DejaVuSans-32"/>
       <use x="158.09375" xlink:href="#DejaVuSans-48"/>
       <use x="221.716797" xlink:href="#DejaVuSans-48"/>
       <use x="285.339844" xlink:href="#DejaVuSans-58"/>
       <use x="319.03125" xlink:href="#DejaVuSans-48"/>
       <use x="382.654297" xlink:href="#DejaVuSans-48"/>
      </g>
     </g>
    </g>
    <g id="xtick_5">
     <g id="line2d_5">
      <g>
       <use style="stroke:#000000;stroke-width:0.8;" x="879.277186" xlink:href="#m88dfd32b73" y="260.12"/>
      </g>
     </g>
     <g id="text_5">
      <!-- Sat 00:00 -->
      <defs>
       <path d="M 53.515625 70.515625 
L 53.515625 60.890625 
Q 47.90625 63.578125 42.921875 64.890625 
Q 37.9375 66.21875 33.296875 66.21875 
Q 25.25 66.21875 20.875 63.09375 
Q 16.5 59.96875 16.5 54.203125 
Q 16.5 49.359375 19.40625 46.890625 
Q 22.3125 44.4375 30.421875 42.921875 
L 36.375 41.703125 
Q 47.40625 39.59375 52.65625 34.296875 
Q 57.90625 29 57.90625 20.125 
Q 57.90625 9.515625 50.796875 4.046875 
Q 43.703125 -1.421875 29.984375 -1.421875 
Q 24.8125 -1.421875 18.96875 -0.25 
Q 13.140625 0.921875 6.890625 3.21875 
L 6.890625 13.375 
Q 12.890625 10.015625 18.65625 8.296875 
Q 24.421875 6.59375 29.984375 6.59375 
Q 38.421875 6.59375 43.015625 9.90625 
Q 47.609375 13.234375 47.609375 19.390625 
Q 47.609375 24.75 44.3125 27.78125 
Q 41.015625 30.8125 33.5 32.328125 
L 27.484375 33.5 
Q 16.453125 35.6875 11.515625 40.375 
Q 6.59375 45.0625 6.59375 53.421875 
Q 6.59375 63.09375 13.40625 68.65625 
Q 20.21875 74.21875 32.171875 74.21875 
Q 37.3125 74.21875 42.625 73.28125 
Q 47.953125 72.359375 53.515625 70.515625 
z
" id="DejaVuSans-83"/>
       <path d="M 34.28125 27.484375 
Q 23.390625 27.484375 19.1875 25 
Q 14.984375 22.515625 14.984375 16.5 
Q 14.984375 11.71875 18.140625 8.90625 
Q 21.296875 6.109375 26.703125 6.109375 
Q 34.1875 6.109375 38.703125 11.40625 
Q 43.21875 16.703125 43.21875 25.484375 
L 43.21875 27.484375 
z
M 52.203125 31.203125 
L 52.203125 0 
L 43.21875 0 
L 43.21875 8.296875 
Q 40.140625 3.328125 35.546875 0.953125 
Q 30.953125 -1.421875 24.3125 -1.421875 
Q 15.921875 -1.421875 10.953125 3.296875 
Q 6 8.015625 6 15.921875 
Q 6 25.140625 12.171875 29.828125 
Q 18.359375 34.515625 30.609375 34.515625 
L 43.21875 34.515625 
L 43.21875 35.40625 
Q 43.21875 41.609375 39.140625 45 
Q 35.0625 48.390625 27.6875 48.390625 
Q 23 48.390625 18.546875 47.265625 
Q 14.109375 46.140625 10.015625 43.890625 
L 10.015625 52.203125 
Q 14.9375 54.109375 19.578125 55.046875 
Q 24.21875 56 28.609375 56 
Q 40.484375 56 46.34375 49.84375 
Q 52.203125 43.703125 52.203125 31.203125 
z
" id="DejaVuSans-97"/>
       <path d="M 18.3125 70.21875 
L 18.3125 54.6875 
L 36.8125 54.6875 
L 36.8125 47.703125 
L 18.3125 47.703125 
L 18.3125 18.015625 
Q 18.3125 11.328125 20.140625 9.421875 
Q 21.96875 7.515625 27.59375 7.515625 
L 36.8125 7.515625 
L 36.8125 0 
L 27.59375 0 
Q 17.1875 0 13.234375 3.875 
Q 9.28125 7.765625 9.28125 18.015625 
L 9.28125 47.703125 
L 2.6875 47.703125 
L 2.6875 54.6875 
L 9.28125 54.6875 
L 9.28125 70.21875 
z
" id="DejaVuSans-116"/>
      </defs>
      <g transform="translate(855.080311 274.718437)scale(0.1 -0.1)">
       <use xlink:href="#DejaVuSans-83"/>
       <use x="63.476562" xlink:href="#DejaVuSans-97"/>
       <use x="124.755859" xlink:href="#DejaVuSans-116"/>
       <use x="163.964844" xlink:href="#DejaVuSans-32"/>
       <use x="195.751953" xlink:href="#DejaVuSans-48"/>
       <use x="259.375" xlink:href="#DejaVuSans-48"/>
       <use x="322.998047" xlink:href="#DejaVuSans-58"/>
       <use x="356.689453" xlink:href="#DejaVuSans-48"/>
       <use x="420.3125" xlink:href="#DejaVuSans-48"/>
      </g>
     </g>
    </g>
    <g id="xtick_6">
     <g id="line2d_6">
      <g>
       <use style="stroke:#000000;stroke-width:0.8;" x="1048.590475" xlink:href="#m88dfd32b73" y="260.12"/>
      </g>
     </g>
     <g id="text_6">
      <!-- Sun 00:00 -->
      <defs>
       <path d="M 54.890625 33.015625 
L 54.890625 0 
L 45.90625 0 
L 45.90625 32.71875 
Q 45.90625 40.484375 42.875 44.328125 
Q 39.84375 48.1875 33.796875 48.1875 
Q 26.515625 48.1875 22.3125 43.546875 
Q 18.109375 38.921875 18.109375 30.90625 
L 18.109375 0 
L 9.078125 0 
L 9.078125 54.6875 
L 18.109375 54.6875 
L 18.109375 46.1875 
Q 21.34375 51.125 25.703125 53.5625 
Q 30.078125 56 35.796875 56 
Q 45.21875 56 50.046875 50.171875 
Q 54.890625 44.34375 54.890625 33.015625 
z
" id="DejaVuSans-110"/>
      </defs>
      <g transform="translate(1023.080318 274.718437)scale(0.1 -0.1)">
       <use xlink:href="#DejaVuSans-83"/>
       <use x="63.476562" xlink:href="#DejaVuSans-117"/>
       <use x="126.855469" xlink:href="#DejaVuSans-110"/>
       <use x="190.234375" xlink:href="#DejaVuSans-32"/>
       <use x="222.021484" xlink:href="#DejaVuSans-48"/>
       <use x="285.644531" xlink:href="#DejaVuSans-48"/>
       <use x="349.267578" xlink:href="#DejaVuSans-58"/>
       <use x="382.958984" xlink:href="#DejaVuSans-48"/>
       <use x="446.582031" xlink:href="#DejaVuSans-48"/>
      </g>
     </g>
    </g>
   </g>
   <g id="matplotlib.axis_2">
    <g id="ytick_1">
     <g id="line2d_7">
      <defs>
       <path d="M 0 0 
L -3.5 0 
" id="ma6ad27f6c0" style="stroke:#000000;stroke-width:0.8;"/>
      </defs>
      <g>
       <use style="stroke:#000000;stroke-width:0.8;" x="33.64" xlink:href="#ma6ad27f6c0" y="260.12"/>
      </g>
     </g>
     <g id="text_7">
      <!-- 0 -->
      <g transform="translate(20.2775 263.919219)scale(0.1 -0.1)">
       <use xlink:href="#DejaVuSans-48"/>
      </g>
     </g>
    </g>
    <g id="ytick_2">
     <g id="line2d_8">
      <g>
       <use style="stroke:#000000;stroke-width:0.8;" x="33.64" xlink:href="#ma6ad27f6c0" y="232.857778"/>
      </g>
     </g>
     <g id="text_8">
      <!-- 20 -->
      <defs>
       <path d="M 19.1875 8.296875 
L 53.609375 8.296875 
L 53.609375 0 
L 7.328125 0 
L 7.328125 8.296875 
Q 12.9375 14.109375 22.625 23.890625 
Q 32.328125 33.6875 34.8125 36.53125 
Q 39.546875 41.84375 41.421875 45.53125 
Q 43.3125 49.21875 43.3125 52.78125 
Q 43.3125 58.59375 39.234375 62.25 
Q 35.15625 65.921875 28.609375 65.921875 
Q 23.96875 65.921875 18.8125 64.3125 
Q 13.671875 62.703125 7.8125 59.421875 
L 7.8125 69.390625 
Q 13.765625 71.78125 18.9375 73 
Q 24.125 74.21875 28.421875 74.21875 
Q 39.75 74.21875 46.484375 68.546875 
Q 53.21875 62.890625 53.21875 53.421875 
Q 53.21875 48.921875 51.53125 44.890625 
Q 49.859375 40.875 45.40625 35.40625 
Q 44.1875 33.984375 37.640625 27.21875 
Q 31.109375 20.453125 19.1875 8.296875 
z
" id="DejaVuSans-50"/>
      </defs>
      <g transform="translate(13.915 236.656997)scale(0.1 -0.1)">
       <use xlink:href="#DejaVuSans-50"/>
       <use x="63.623047" xlink:href="#DejaVuSans-48"/>
      </g>
     </g>
    </g>
    <g id="ytick_3">
     <g id="line2d_9">
      <g>
       <use style="stroke:#000000;stroke-width:0.8;" x="33.64" xlink:href="#ma6ad27f6c0" y="205.595556"/>
      </g>
     </g>
     <g id="text_9">
      <!-- 40 -->
      <defs>
       <path d="M 37.796875 64.3125 
L 12.890625 25.390625 
L 37.796875 25.390625 
z
M 35.203125 72.90625 
L 47.609375 72.90625 
L 47.609375 25.390625 
L 58.015625 25.390625 
L 58.015625 17.1875 
L 47.609375 17.1875 
L 47.609375 0 
L 37.796875 0 
L 37.796875 17.1875 
L 4.890625 17.1875 
L 4.890625 26.703125 
z
" id="DejaVuSans-52"/>
      </defs>
      <g transform="translate(13.915 209.394774)scale(0.1 -0.1)">
       <use xlink:href="#DejaVuSans-52"/>
       <use x="63.623047" xlink:href="#DejaVuSans-48"/>
      </g>
     </g>
    </g>
    <g id="ytick_4">
     <g id="line2d_10">
      <g>
       <use style="stroke:#000000;stroke-width:0.8;" x="33.64" xlink:href="#ma6ad27f6c0" y="178.333333"/>
      </g>
     </g>
     <g id="text_10">
      <!-- 60 -->
      <defs>
       <path d="M 33.015625 40.375 
Q 26.375 40.375 22.484375 35.828125 
Q 18.609375 31.296875 18.609375 23.390625 
Q 18.609375 15.53125 22.484375 10.953125 
Q 26.375 6.390625 33.015625 6.390625 
Q 39.65625 6.390625 43.53125 10.953125 
Q 47.40625 15.53125 47.40625 23.390625 
Q 47.40625 31.296875 43.53125 35.828125 
Q 39.65625 40.375 33.015625 40.375 
z
M 52.59375 71.296875 
L 52.59375 62.3125 
Q 48.875 64.0625 45.09375 64.984375 
Q 41.3125 65.921875 37.59375 65.921875 
Q 27.828125 65.921875 22.671875 59.328125 
Q 17.53125 52.734375 16.796875 39.40625 
Q 19.671875 43.65625 24.015625 45.921875 
Q 28.375 48.1875 33.59375 48.1875 
Q 44.578125 48.1875 50.953125 41.515625 
Q 57.328125 34.859375 57.328125 23.390625 
Q 57.328125 12.15625 50.6875 5.359375 
Q 44.046875 -1.421875 33.015625 -1.421875 
Q 20.359375 -1.421875 13.671875 8.265625 
Q 6.984375 17.96875 6.984375 36.375 
Q 6.984375 53.65625 15.1875 63.9375 
Q 23.390625 74.21875 37.203125 74.21875 
Q 40.921875 74.21875 44.703125 73.484375 
Q 48.484375 72.75 52.59375 71.296875 
z
" id="DejaVuSans-54"/>
      </defs>
      <g transform="translate(13.915 182.132552)scale(0.1 -0.1)">
       <use xlink:href="#DejaVuSans-54"/>
       <use x="63.623047" xlink:href="#DejaVuSans-48"/>
      </g>
     </g>
    </g>
    <g id="ytick_5">
     <g id="line2d_11">
      <g>
       <use style="stroke:#000000;stroke-width:0.8;" x="33.64" xlink:href="#ma6ad27f6c0" y="151.071111"/>
      </g>
     </g>
     <g id="text_11">
      <!-- 80 -->
      <defs>
       <path d="M 31.78125 34.625 
Q 24.75 34.625 20.71875 30.859375 
Q 16.703125 27.09375 16.703125 20.515625 
Q 16.703125 13.921875 20.71875 10.15625 
Q 24.75 6.390625 31.78125 6.390625 
Q 38.8125 6.390625 42.859375 10.171875 
Q 46.921875 13.96875 46.921875 20.515625 
Q 46.921875 27.09375 42.890625 30.859375 
Q 38.875 34.625 31.78125 34.625 
z
M 21.921875 38.8125 
Q 15.578125 40.375 12.03125 44.71875 
Q 8.5 49.078125 8.5 55.328125 
Q 8.5 64.0625 14.71875 69.140625 
Q 20.953125 74.21875 31.78125 74.21875 
Q 42.671875 74.21875 48.875 69.140625 
Q 55.078125 64.0625 55.078125 55.328125 
Q 55.078125 49.078125 51.53125 44.71875 
Q 48 40.375 41.703125 38.8125 
Q 48.828125 37.15625 52.796875 32.3125 
Q 56.78125 27.484375 56.78125 20.515625 
Q 56.78125 9.90625 50.3125 4.234375 
Q 43.84375 -1.421875 31.78125 -1.421875 
Q 19.734375 -1.421875 13.25 4.234375 
Q 6.78125 9.90625 6.78125 20.515625 
Q 6.78125 27.484375 10.78125 32.3125 
Q 14.796875 37.15625 21.921875 38.8125 
z
M 18.3125 54.390625 
Q 18.3125 48.734375 21.84375 45.5625 
Q 25.390625 42.390625 31.78125 42.390625 
Q 38.140625 42.390625 41.71875 45.5625 
Q 45.3125 48.734375 45.3125 54.390625 
Q 45.3125 60.0625 41.71875 63.234375 
Q 38.140625 66.40625 31.78125 66.40625 
Q 25.390625 66.40625 21.84375 63.234375 
Q 18.3125 60.0625 18.3125 54.390625 
z
" id="DejaVuSans-56"/>
      </defs>
      <g transform="translate(13.915 154.87033)scale(0.1 -0.1)">
       <use xlink:href="#DejaVuSans-56"/>
       <use x="63.623047" xlink:href="#DejaVuSans-48"/>
      </g>
     </g>
    </g>
    <g id="ytick_6">
     <g id="line2d_12">
      <g>
       <use style="stroke:#000000;stroke-width:0.8;" x="33.64" xlink:href="#ma6ad27f6c0" y="123.808889"/>
      </g>
     </g>
     <g id="text_12">
      <!-- 100 -->
      <defs>
       <path d="M 12.40625 8.296875 
L 28.515625 8.296875 
L 28.515625 63.921875 
L 10.984375 60.40625 
L 10.984375 69.390625 
L 28.421875 72.90625 
L 38.28125 72.90625 
L 38.28125 8.296875 
L 54.390625 8.296875 
L 54.390625 0 
L 12.40625 0 
z
" id="DejaVuSans-49"/>
      </defs>
      <g transform="translate(7.5525 127.608108)scale(0.1 -0.1)">
       <use xlink:href="#DejaVuSans-49"/>
       <use x="63.623047" xlink:href="#DejaVuSans-48"/>
       <use x="127.246094" xlink:href="#DejaVuSans-48"/>
      </g>
     </g>
    </g>
    <g id="ytick_7">
     <g id="line2d_13">
      <g>
       <use style="stroke:#000000;stroke-width:0.8;" x="33.64" xlink:href="#ma6ad27f6c0" y="96.546667"/>
      </g>
     </g>
     <g id="text_13">
      <!-- 120 -->
      <g transform="translate(7.5525 100.345885)scale(0.1 -0.1)">
       <use xlink:href="#DejaVuSans-49"/>
       <use x="63.623047" xlink:href="#DejaVuSans-50"/>
       <use x="127.246094" xlink:href="#DejaVuSans-48"/>
      </g>
     </g>
    </g>
    <g id="ytick_8">
     <g id="line2d_14">
      <g>
       <use style="stroke:#000000;stroke-width:0.8;" x="33.64" xlink:href="#ma6ad27f6c0" y="69.284444"/>
      </g>
     </g>
     <g id="text_14">
      <!-- 140 -->
      <g transform="translate(7.5525 73.083663)scale(0.1 -0.1)">
       <use xlink:href="#DejaVuSans-49"/>
       <use x="63.623047" xlink:href="#DejaVuSans-52"/>
       <use x="127.246094" xlink:href="#DejaVuSans-48"/>
      </g>
     </g>
    </g>
    <g id="ytick_9">
     <g id="line2d_15">
      <g>
       <use style="stroke:#000000;stroke-width:0.8;" x="33.64" xlink:href="#ma6ad27f6c0" y="42.022222"/>
      </g>
     </g>
     <g id="text_15">
      <!-- 160 -->
      <g transform="translate(7.5525 45.821441)scale(0.1 -0.1)">
       <use xlink:href="#DejaVuSans-49"/>
       <use x="63.623047" xlink:href="#DejaVuSans-54"/>
       <use x="127.246094" xlink:href="#DejaVuSans-48"/>
      </g>
     </g>
    </g>
    <g id="ytick_10">
     <g id="line2d_16">
      <g>
       <use style="stroke:#000000;stroke-width:0.8;" x="33.64" xlink:href="#ma6ad27f6c0" y="14.76"/>
      </g>
     </g>
     <g id="text_16">
      <!-- 180 -->
      <g transform="translate(7.5525 18.559219)scale(0.1 -0.1)">
       <use xlink:href="#DejaVuSans-49"/>
       <use x="63.623047" xlink:href="#DejaVuSans-56"/>
       <use x="127.246094" xlink:href="#DejaVuSans-48"/>
      </g>
     </g>
    </g>
   </g>
   <g id="line2d_17">
    <path clip-path="url(#p6a661d298f)" d="M 33.64 260.12 
L 97.900972 260.12 
L 99.110767 254.667556 
L 100.31999 254.667556 
L 101.531864 242.399556 
L 102.740342 241.036444 
L 103.949121 230.131556 
L 105.161463 230.131556 
L 106.374609 226.042222 
L 107.584124 224.679111 
L 110.002385 224.679111 
L 112.419735 216.500444 
L 113.628466 216.500444 
L 114.837073 221.952889 
L 116.046385 221.952889 
L 117.254721 231.494667 
L 118.464818 235.584 
L 120.88285 235.584 
L 123.303194 227.405333 
L 124.51175 227.405333 
L 125.720672 231.494667 
L 126.930159 224.679111 
L 128.138612 224.679111 
L 129.346856 227.405333 
L 130.560507 224.679111 
L 131.770081 226.042222 
L 132.979387 226.042222 
L 134.188259 231.494667 
L 135.397507 231.494667 
L 136.605717 230.131556 
L 137.813757 227.405333 
L 139.022636 227.405333 
L 140.232996 226.042222 
L 141.443299 221.952889 
L 142.653408 223.316 
L 143.864719 223.316 
L 145.074216 219.226667 
L 146.28347 216.500444 
L 147.492228 216.500444 
L 148.701307 206.958667 
L 149.910788 208.321778 
L 151.119998 205.595556 
L 152.329948 205.595556 
L 153.539029 198.78 
L 154.747873 198.78 
L 155.956875 197.416889 
L 158.376158 197.416889 
L 159.584875 193.327556 
L 162.002596 159.249778 
L 163.213066 159.249778 
L 164.425085 149.708 
L 165.635244 136.076889 
L 168.055142 136.076889 
L 169.26486 140.166222 
L 170.473754 140.166222 
L 171.684078 141.529333 
L 172.8939 137.44 
L 174.103225 137.44 
L 175.314218 131.987556 
L 176.527833 111.540889 
L 177.737504 116.993333 
L 178.94887 116.993333 
L 180.158942 121.082667 
L 181.3716 126.535111 
L 184.999168 126.535111 
L 186.208083 142.892444 
L 188.625212 153.797333 
L 189.836476 153.797333 
L 191.04535 168.791556 
L 192.255369 179.696444 
L 193.464189 179.696444 
L 194.673864 185.148889 
L 195.883353 193.327556 
L 198.304135 193.327556 
L 199.513749 260.12 
L 265.013805 260.12 
L 266.203633 258.756889 
L 267.416066 258.756889 
L 268.62495 251.941333 
L 269.8338 246.488889 
L 271.0458 246.488889 
L 272.259891 243.762667 
L 273.469727 224.679111 
L 274.68011 216.500444 
L 275.889418 216.500444 
L 277.099119 213.774222 
L 278.308164 213.774222 
L 279.517871 211.048 
L 281.937037 211.048 
L 283.14741 204.232444 
L 284.357657 211.048 
L 286.775634 211.048 
L 289.196025 213.774222 
L 290.407947 213.774222 
L 291.618129 215.137333 
L 292.827578 226.042222 
L 294.037319 226.042222 
L 295.246599 236.947111 
L 296.457523 242.399556 
L 297.666044 242.399556 
L 300.084708 239.673333 
L 301.295059 236.947111 
L 306.136727 236.947111 
L 308.557435 231.494667 
L 309.768571 227.405333 
L 310.978361 227.405333 
L 312.188628 226.042222 
L 313.397462 226.042222 
L 314.607132 220.589778 
L 315.879578 217.863556 
L 317.090612 217.863556 
L 318.300825 211.048 
L 319.510212 197.416889 
L 320.720281 194.690667 
L 321.931773 194.690667 
L 323.14485 183.785778 
L 324.357978 175.607111 
L 325.569453 175.607111 
L 326.781424 151.071111 
L 327.99296 129.261333 
L 329.203626 129.261333 
L 330.412912 121.082667 
L 331.622179 103.362222 
L 332.831844 103.362222 
L 334.041914 93.820444 
L 335.256252 88.368 
L 336.465739 88.368 
L 337.674881 74.736889 
L 338.886273 77.463111 
L 340.099444 73.373778 
L 341.308703 73.373778 
L 342.518605 88.368 
L 343.729716 89.731111 
L 344.939233 89.731111 
L 346.150942 93.820444 
L 347.360322 115.630222 
L 348.570636 115.630222 
L 349.78047 131.987556 
L 350.989691 140.166222 
L 352.198964 140.166222 
L 353.408061 148.344889 
L 355.825576 148.344889 
L 357.036605 157.886667 
L 358.246068 163.339111 
L 359.457585 163.339111 
L 360.666282 168.791556 
L 361.877888 185.148889 
L 363.087029 185.148889 
L 365.51374 204.232444 
L 366.725279 260.12 
L 434.631328 260.12 
L 435.821254 258.756889 
L 437.030569 258.756889 
L 438.240908 241.036444 
L 439.452997 232.857778 
L 440.663049 230.131556 
L 441.872909 230.131556 
L 443.08885 226.042222 
L 445.509622 226.042222 
L 446.722238 224.679111 
L 447.932543 217.863556 
L 449.142738 217.863556 
L 450.352655 219.226667 
L 451.564946 216.500444 
L 452.776322 216.500444 
L 453.985802 219.226667 
L 455.195627 228.768444 
L 460.040882 228.768444 
L 461.250564 231.494667 
L 462.459787 238.310222 
L 463.671343 242.399556 
L 464.88325 242.399556 
L 466.093205 243.762667 
L 467.304444 242.399556 
L 468.513461 242.399556 
L 470.934333 236.947111 
L 472.144103 235.584 
L 473.35319 235.584 
L 474.563442 231.494667 
L 475.77303 231.494667 
L 476.982853 223.316 
L 478.192134 223.316 
L 479.402156 216.500444 
L 480.611855 216.500444 
L 481.823372 219.226667 
L 484.241478 219.226667 
L 485.453176 205.595556 
L 486.665036 204.232444 
L 487.877704 204.232444 
L 490.300968 190.601333 
L 491.510015 182.422667 
L 492.724417 182.422667 
L 493.93462 189.238222 
L 495.143466 189.238222 
L 496.352006 182.422667 
L 497.561929 167.428444 
L 498.770956 167.428444 
L 499.984532 164.702222 
L 501.193369 159.249778 
L 502.402818 151.071111 
L 503.611684 151.071111 
L 504.820743 155.160444 
L 506.031831 144.255556 
L 507.242263 144.255556 
L 508.452874 140.166222 
L 509.662762 126.535111 
L 510.874117 126.535111 
L 512.083937 125.172 
L 513.295412 131.987556 
L 514.504197 131.987556 
L 515.714124 111.540889 
L 516.923686 101.999111 
L 518.13349 97.909778 
L 519.343247 97.909778 
L 520.552444 101.999111 
L 521.762352 101.999111 
L 522.972288 108.814667 
L 525.393113 137.44 
L 526.603724 137.44 
L 527.813816 153.797333 
L 529.025951 159.249778 
L 530.234964 159.249778 
L 531.444734 175.607111 
L 532.6558 187.875111 
L 533.868794 187.875111 
L 535.077734 196.053778 
L 536.287239 209.684889 
L 537.498708 209.684889 
L 538.709978 260.12 
L 605.402057 260.12 
L 606.611523 254.667556 
L 607.820697 254.667556 
L 609.030079 236.947111 
L 610.239403 227.405333 
L 611.448473 224.679111 
L 612.657598 224.679111 
L 613.866564 227.405333 
L 615.075258 227.405333 
L 616.283641 221.952889 
L 617.493071 220.589778 
L 618.704452 217.863556 
L 619.914354 217.863556 
L 621.123809 221.952889 
L 622.332427 220.589778 
L 623.542319 220.589778 
L 624.75062 224.679111 
L 625.959399 231.494667 
L 628.38248 231.494667 
L 629.591525 232.857778 
L 630.800434 232.857778 
L 632.010286 235.584 
L 633.219803 234.220889 
L 634.428578 234.220889 
L 635.637068 235.584 
L 636.846036 238.310222 
L 638.055365 243.762667 
L 641.682312 243.762667 
L 644.101272 238.310222 
L 645.313285 234.220889 
L 646.522175 234.220889 
L 647.731122 232.857778 
L 648.940907 228.768444 
L 653.78133 228.768444 
L 656.201986 226.042222 
L 657.41169 223.316 
L 658.62092 223.316 
L 661.042029 198.78 
L 662.252653 198.78 
L 663.463358 204.232444 
L 664.673983 204.232444 
L 665.885573 201.506222 
L 667.094803 189.238222 
L 668.304643 186.512 
L 669.513768 186.512 
L 671.932547 142.892444 
L 673.143041 142.892444 
L 674.352883 131.987556 
L 675.563261 136.076889 
L 676.772955 136.076889 
L 677.982754 119.719556 
L 679.19268 116.993333 
L 680.402265 116.993333 
L 681.611808 107.451556 
L 682.823014 108.814667 
L 684.033274 108.814667 
L 685.242595 103.362222 
L 686.452665 88.368 
L 687.663451 84.278667 
L 688.874021 84.278667 
L 690.08434 100.636 
L 691.293888 107.451556 
L 692.50327 107.451556 
L 693.712702 122.445778 
L 694.923118 160.612889 
L 696.13271 160.612889 
L 697.342767 163.339111 
L 698.552601 168.791556 
L 699.7621 168.791556 
L 700.97217 190.601333 
L 702.181961 198.78 
L 703.392186 211.048 
L 704.601772 211.048 
L 705.811835 260.12 
L 773.711295 260.12 
L 774.921449 256.030667 
L 776.13132 250.578222 
L 777.341151 250.578222 
L 778.552177 238.310222 
L 779.763344 234.220889 
L 780.975854 234.220889 
L 782.185479 228.768444 
L 783.39542 226.042222 
L 784.606855 220.589778 
L 787.030619 220.589778 
L 788.242621 221.952889 
L 789.451395 221.952889 
L 790.660634 220.589778 
L 794.290665 220.589778 
L 795.499826 223.316 
L 796.709763 223.316 
L 797.920086 224.679111 
L 799.129585 227.405333 
L 800.341022 227.405333 
L 801.55075 220.589778 
L 803.97198 217.863556 
L 805.183157 217.863556 
L 806.396858 215.137333 
L 807.609945 215.137333 
L 808.821603 213.774222 
L 810.030631 211.048 
L 811.241627 213.774222 
L 812.451493 213.774222 
L 814.869973 216.500444 
L 816.078271 216.500444 
L 817.286935 205.595556 
L 818.495858 212.411111 
L 819.704946 213.774222 
L 820.913819 213.774222 
L 822.122538 205.595556 
L 823.33342 205.595556 
L 824.542593 206.958667 
L 825.751079 213.774222 
L 826.96035 197.416889 
L 828.170698 197.416889 
L 829.381814 191.964444 
L 830.591117 183.785778 
L 831.802988 183.785778 
L 833.012132 170.154667 
L 834.220859 178.333333 
L 835.432852 178.333333 
L 836.641709 181.059556 
L 837.851728 166.065333 
L 839.060621 166.065333 
L 840.272556 163.339111 
L 841.48421 156.523556 
L 842.694914 140.166222 
L 843.904302 140.166222 
L 845.113317 145.618667 
L 846.325436 145.618667 
L 847.535101 148.344889 
L 848.747327 146.981778 
L 849.958695 159.249778 
L 851.170576 159.249778 
L 852.37989 156.523556 
L 853.591774 159.249778 
L 854.800737 159.249778 
L 857.222539 170.154667 
L 858.432231 176.970222 
L 859.642439 176.970222 
L 860.852263 179.696444 
L 862.062525 179.696444 
L 863.271219 190.601333 
L 864.48048 197.416889 
L 865.69195 197.416889 
L 866.901504 206.958667 
L 868.114122 215.137333 
L 869.323796 217.863556 
L 870.535189 217.863556 
L 871.74545 221.952889 
L 872.954676 227.405333 
L 874.165795 227.405333 
L 875.374997 260.12 
L 944.472356 260.12 
L 945.681804 258.756889 
L 946.892949 238.310222 
L 948.103811 238.310222 
L 949.316029 221.952889 
L 950.524633 212.411111 
L 951.735467 212.411111 
L 952.944095 208.321778 
L 954.15513 201.506222 
L 955.364022 201.506222 
L 956.574846 190.601333 
L 957.786081 181.059556 
L 958.995403 182.422667 
L 960.204186 182.422667 
L 961.413198 179.696444 
L 962.621317 187.875111 
L 963.830499 187.875111 
L 965.038915 197.416889 
L 966.248456 197.416889 
L 967.456602 194.690667 
L 968.664868 197.416889 
L 969.873595 194.690667 
L 971.08279 194.690667 
L 972.291418 197.416889 
L 973.499578 201.506222 
L 974.707906 201.506222 
L 975.916983 200.143111 
L 977.128015 197.416889 
L 978.336717 202.869333 
L 979.545451 202.869333 
L 980.753964 206.958667 
L 981.962167 206.958667 
L 983.170607 194.690667 
L 984.378988 206.958667 
L 985.588836 208.321778 
L 986.797266 208.321778 
L 988.005508 211.048 
L 989.213826 211.048 
L 990.422095 206.958667 
L 991.633108 209.684889 
L 992.84139 209.684889 
L 994.052633 212.411111 
L 995.262207 209.684889 
L 996.470797 211.048 
L 997.681735 211.048 
L 998.890411 205.595556 
L 1000.102542 208.321778 
L 1001.31145 208.321778 
L 1002.519861 212.411111 
L 1003.728301 220.589778 
L 1004.936816 217.863556 
L 1006.144897 217.863556 
L 1007.356212 234.220889 
L 1008.564542 234.220889 
L 1009.773119 236.947111 
L 1010.984258 241.036444 
L 1012.193004 236.947111 
L 1014.615031 236.947111 
L 1015.824797 234.220889 
L 1017.034844 234.220889 
L 1018.243404 230.131556 
L 1019.451761 236.947111 
L 1020.660845 236.947111 
L 1021.872075 235.584 
L 1023.080542 231.494667 
L 1024.289267 230.131556 
L 1029.126127 230.131556 
L 1030.334799 228.768444 
L 1031.543061 231.494667 
L 1032.75138 231.494667 
L 1033.959632 230.131556 
L 1036.376739 230.131556 
L 1037.584713 231.494667 
L 1040.002346 231.494667 
L 1041.21085 232.857778 
L 1043.628066 232.857778 
L 1044.837403 260.12 
L 1111.533869 260.12 
L 1112.723769 258.756889 
L 1113.933275 258.756889 
L 1115.141635 236.947111 
L 1116.350188 224.679111 
L 1117.559028 213.774222 
L 1118.767701 213.774222 
L 1121.188042 194.690667 
L 1122.396827 194.690667 
L 1123.605576 178.333333 
L 1124.814413 178.333333 
L 1126.023194 153.797333 
L 1127.231818 144.255556 
L 1128.441224 144.255556 
L 1129.650118 140.166222 
L 1130.859196 134.713778 
L 1132.068446 125.172 
L 1133.28 125.172 
L 1133.28 125.172 
" style="fill:none;stroke:#1f77b4;stroke-linecap:square;stroke-width:1.5;"/>
   </g>
   <g id="patch_3">
    <path d="M 33.64 260.12 
L 33.64 14.76 
" style="fill:none;stroke:#000000;stroke-linecap:square;stroke-linejoin:miter;stroke-width:0.8;"/>
   </g>
   <g id="patch_4">
    <path d="M 1133.28 260.12 
L 1133.28 14.76 
" style="fill:none;stroke:#000000;stroke-linecap:square;stroke-linejoin:miter;stroke-width:0.8;"/>
   </g>
   <g id="patch_5">
    <path d="M 33.64 260.12 
L 1133.28 260.12 
" style="fill:none;stroke:#000000;stroke-linecap:square;stroke-linejoin:miter;stroke-width:0.8;"/>
   </g>
   <g id="patch_6">
    <path d="M 33.64 14.76 
L 1133.28 14.76 
" style="fill:none;stroke:#000000;stroke-linecap:square;stroke-linejoin:miter;stroke-width:0.8;"/>
   </g>
  </g>
 </g>
 <defs>
  <clipPath id="p6a661d298f">
   <rect height="245.36" width="1099.64" x="33.64" y="14.76"/>
  </clipPath>
 </defs>
</svg>
