<?xml version="1.0" encoding="utf-8" standalone="no"?>
<!DOCTYPE svg PUBLIC "-//W3C//DTD SVG 1.1//EN"
  "http://www.w3.org/Graphics/SVG/1.1/DTD/svg11.dtd">
<!-- Created with matplotlib (https://matplotlib.org/) -->
<svg height="288pt" version="1.1" viewBox="0 0 1152 288" width="1152pt" xmlns="http://www.w3.org/2000/svg" xmlns:xlink="http://www.w3.org/1999/xlink">
 <defs>
  <style type="text/css">
*{stroke-linecap:butt;stroke-linejoin:round;}
  </style>
 </defs>
 <g id="figure_1">
  <g id="patch_1">
   <path d="M 0 288 
L 1152 288 
L 1152 0 
L 0 0 
z
" style="fill:#ffffff;"/>
  </g>
  <g id="axes_1">
   <g id="patch_2">
    <path d="M 33.64 260.12 
L 1133.28 260.12 
L 1133.28 14.76 
L 33.64 14.76 
z
" style="fill:#ffffff;"/>
   </g>
   <g id="matplotlib.axis_1">
    <g id="xtick_1">
     <g id="line2d_1">
      <defs>
       <path d="M 0 0 
L 0 3.5 
" id="m4a43015467" style="stroke:#000000;stroke-width:0.8;"/>
      </defs>
      <g>
       <use style="stroke:#000000;stroke-width:0.8;" x="197.166048" xlink:href="#m4a43015467" y="260.12"/>
      </g>
     </g>
     <g id="text_1">
      <!-- Tue 00:00 -->
      <defs>
       <path d="M -0.296875 72.90625 
L 61.375 72.90625 
L 61.375 64.59375 
L 35.5 64.59375 
L 35.5 0 
L 25.59375 0 
L 25.59375 64.59375 
L -0.296875 64.59375 
z
" id="DejaVuSans-84"/>
       <path d="M 8.5 21.578125 
L 8.5 54.6875 
L 17.484375 54.6875 
L 17.484375 21.921875 
Q 17.484375 14.15625 20.5 10.265625 
Q 23.53125 6.390625 29.59375 6.390625 
Q 36.859375 6.390625 41.078125 11.03125 
Q 45.3125 15.671875 45.3125 23.6875 
L 45.3125 54.6875 
L 54.296875 54.6875 
L 54.296875 0 
L 45.3125 0 
L 45.3125 8.40625 
Q 42.046875 3.421875 37.71875 1 
Q 33.40625 -1.421875 27.6875 -1.421875 
Q 18.265625 -1.421875 13.375 4.4375 
Q 8.5 10.296875 8.5 21.578125 
z
M 31.109375 56 
z
" id="DejaVuSans-117"/>
       <path d="M 56.203125 29.59375 
L 56.203125 25.203125 
L 14.890625 25.203125 
Q 15.484375 15.921875 20.484375 11.0625 
Q 25.484375 6.203125 34.421875 6.203125 
Q 39.59375 6.203125 44.453125 7.46875 
Q 49.3125 8.734375 54.109375 11.28125 
L 54.109375 2.78125 
Q 49.265625 0.734375 44.1875 -0.34375 
Q 39.109375 -1.421875 33.890625 -1.421875 
Q 20.796875 -1.421875 13.15625 6.1875 
Q 5.515625 13.8125 5.515625 26.8125 
Q 5.515625 40.234375 12.765625 48.109375 
Q 20.015625 56 32.328125 56 
Q 43.359375 56 49.78125 48.890625 
Q 56.203125 41.796875 56.203125 29.59375 
z
M 47.21875 32.234375 
Q 47.125 39.59375 43.09375 43.984375 
Q 39.0625 48.390625 32.421875 48.390625 
Q 24.90625 48.390625 20.390625 44.140625 
Q 15.875 39.890625 15.1875 32.171875 
z
" id="DejaVuSans-101"/>
       <path id="DejaVuSans-32"/>
       <path d="M 31.78125 66.40625 
Q 24.171875 66.40625 20.328125 58.90625 
Q 16.5 51.421875 16.5 36.375 
Q 16.5 21.390625 20.328125 13.890625 
Q 24.171875 6.390625 31.78125 6.390625 
Q 39.453125 6.390625 43.28125 13.890625 
Q 47.125 21.390625 47.125 36.375 
Q 47.125 51.421875 43.28125 58.90625 
Q 39.453125 66.40625 31.78125 66.40625 
z
M 31.78125 74.21875 
Q 44.046875 74.21875 50.515625 64.515625 
Q 56.984375 54.828125 56.984375 36.375 
Q 56.984375 17.96875 50.515625 8.265625 
Q 44.046875 -1.421875 31.78125 -1.421875 
Q 19.53125 -1.421875 13.0625 8.265625 
Q 6.59375 17.96875 6.59375 36.375 
Q 6.59375 54.828125 13.0625 64.515625 
Q 19.53125 74.21875 31.78125 74.21875 
z
" id="DejaVuSans-48"/>
       <path d="M 11.71875 12.40625 
L 22.015625 12.40625 
L 22.015625 0 
L 11.71875 0 
z
M 11.71875 51.703125 
L 22.015625 51.703125 
L 22.015625 39.3125 
L 11.71875 39.3125 
z
" id="DejaVuSans-58"/>
      </defs>
      <g transform="translate(171.880111 274.718437)scale(0.1 -0.1)">
       <use xlink:href="#DejaVuSans-84"/>
       <use x="60.849609" xlink:href="#DejaVuSans-117"/>
       <use x="124.228516" xlink:href="#DejaVuSans-101"/>
       <use x="185.751953" xlink:href="#DejaVuSans-32"/>
       <use x="217.539062" xlink:href="#DejaVuSans-48"/>
       <use x="281.162109" xlink:href="#DejaVuSans-48"/>
       <use x="344.785156" xlink:href="#DejaVuSans-58"/>
       <use x="378.476562" xlink:href="#DejaVuSans-48"/>
       <use x="442.099609" xlink:href="#DejaVuSans-48"/>
      </g>
     </g>
    </g>
    <g id="xtick_2">
     <g id="line2d_2">
      <g>
       <use style="stroke:#000000;stroke-width:0.8;" x="361.594541" xlink:href="#m4a43015467" y="260.12"/>
      </g>
     </g>
     <g id="text_2">
      <!-- Wed 00:00 -->
      <defs>
       <path d="M 3.328125 72.90625 
L 13.28125 72.90625 
L 28.609375 11.28125 
L 43.890625 72.90625 
L 54.984375 72.90625 
L 70.3125 11.28125 
L 85.59375 72.90625 
L 95.609375 72.90625 
L 77.296875 0 
L 64.890625 0 
L 49.515625 63.28125 
L 33.984375 0 
L 21.578125 0 
z
" id="DejaVuSans-87"/>
       <path d="M 45.40625 46.390625 
L 45.40625 75.984375 
L 54.390625 75.984375 
L 54.390625 0 
L 45.40625 0 
L 45.40625 8.203125 
Q 42.578125 3.328125 38.25 0.953125 
Q 33.9375 -1.421875 27.875 -1.421875 
Q 17.96875 -1.421875 11.734375 6.484375 
Q 5.515625 14.40625 5.515625 27.296875 
Q 5.515625 40.1875 11.734375 48.09375 
Q 17.96875 56 27.875 56 
Q 33.9375 56 38.25 53.625 
Q 42.578125 51.265625 45.40625 46.390625 
z
M 14.796875 27.296875 
Q 14.796875 17.390625 18.875 11.75 
Q 22.953125 6.109375 30.078125 6.109375 
Q 37.203125 6.109375 41.296875 11.75 
Q 45.40625 17.390625 45.40625 27.296875 
Q 45.40625 37.203125 41.296875 42.84375 
Q 37.203125 48.484375 30.078125 48.484375 
Q 22.953125 48.484375 18.875 42.84375 
Q 14.796875 37.203125 14.796875 27.296875 
z
" id="DejaVuSans-100"/>
      </defs>
      <g transform="translate(334.405479 274.718437)scale(0.1 -0.1)">
       <use xlink:href="#DejaVuSans-87"/>
       <use x="98.798828" xlink:href="#DejaVuSans-101"/>
       <use x="160.322266" xlink:href="#DejaVuSans-100"/>
       <use x="223.798828" xlink:href="#DejaVuSans-32"/>
       <use x="255.585938" xlink:href="#DejaVuSans-48"/>
       <use x="319.208984" xlink:href="#DejaVuSans-48"/>
       <use x="382.832031" xlink:href="#DejaVuSans-58"/>
       <use x="416.523438" xlink:href="#DejaVuSans-48"/>
       <use x="480.146484" xlink:href="#DejaVuSans-48"/>
      </g>
     </g>
    </g>
    <g id="xtick_3">
     <g id="line2d_3">
      <g>
       <use style="stroke:#000000;stroke-width:0.8;" x="526.023034" xlink:href="#m4a43015467" y="260.12"/>
      </g>
     </g>
     <g id="text_3">
      <!-- Thu 00:00 -->
      <defs>
       <path d="M 54.890625 33.015625 
L 54.890625 0 
L 45.90625 0 
L 45.90625 32.71875 
Q 45.90625 40.484375 42.875 44.328125 
Q 39.84375 48.1875 33.796875 48.1875 
Q 26.515625 48.1875 22.3125 43.546875 
Q 18.109375 38.921875 18.109375 30.90625 
L 18.109375 0 
L 9.078125 0 
L 9.078125 75.984375 
L 18.109375 75.984375 
L 18.109375 46.1875 
Q 21.34375 51.125 25.703125 53.5625 
Q 30.078125 56 35.796875 56 
Q 45.21875 56 50.046875 50.171875 
Q 54.890625 44.34375 54.890625 33.015625 
z
" id="DejaVuSans-104"/>
      </defs>
      <g transform="translate(500.633191 274.718437)scale(0.1 -0.1)">
       <use xlink:href="#DejaVuSans-84"/>
       <use x="61.083984" xlink:href="#DejaVuSans-104"/>
       <use x="124.462891" xlink:href="#DejaVuSans-117"/>
       <use x="187.841797" xlink:href="#DejaVuSans-32"/>
       <use x="219.628906" xlink:href="#DejaVuSans-48"/>
       <use x="283.251953" xlink:href="#DejaVuSans-48"/>
       <use x="346.875" xlink:href="#DejaVuSans-58"/>
       <use x="380.566406" xlink:href="#DejaVuSans-48"/>
       <use x="444.189453" xlink:href="#DejaVuSans-48"/>
      </g>
     </g>
    </g>
    <g id="xtick_4">
     <g id="line2d_4">
      <g>
       <use style="stroke:#000000;stroke-width:0.8;" x="690.451527" xlink:href="#m4a43015467" y="260.12"/>
      </g>
     </g>
     <g id="text_4">
      <!-- Fri 00:00 -->
      <defs>
       <path d="M 9.8125 72.90625 
L 51.703125 72.90625 
L 51.703125 64.59375 
L 19.671875 64.59375 
L 19.671875 43.109375 
L 48.578125 43.109375 
L 48.578125 34.8125 
L 19.671875 34.8125 
L 19.671875 0 
L 9.8125 0 
z
" id="DejaVuSans-70"/>
       <path d="M 41.109375 46.296875 
Q 39.59375 47.171875 37.8125 47.578125 
Q 36.03125 48 33.890625 48 
Q 26.265625 48 22.1875 43.046875 
Q 18.109375 38.09375 18.109375 28.8125 
L 18.109375 0 
L 9.078125 0 
L 9.078125 54.6875 
L 18.109375 54.6875 
L 18.109375 46.1875 
Q 20.953125 51.171875 25.484375 53.578125 
Q 30.03125 56 36.53125 56 
Q 37.453125 56 38.578125 55.875 
Q 39.703125 55.765625 41.0625 55.515625 
z
" id="DejaVuSans-114"/>
       <path d="M 9.421875 54.6875 
L 18.40625 54.6875 
L 18.40625 0 
L 9.421875 0 
z
M 9.421875 75.984375 
L 18.40625 75.984375 
L 18.40625 64.59375 
L 9.421875 64.59375 
z
" id="DejaVuSans-105"/>
      </defs>
      <g transform="translate(668.138246 274.718437)scale(0.1 -0.1)">
       <use xlink:href="#DejaVuSans-70"/>
       <use x="57.410156" xlink:href="#DejaVuSans-114"/>
       <use x="98.523438" xlink:href="#DejaVuSans-105"/>
       <use x="126.306641" xlink:href="#DejaVuSans-32"/>
       <use x="158.09375" xlink:href="#DejaVuSans-48"/>
       <use x="221.716797" xlink:href="#DejaVuSans-48"/>
       <use x="285.339844" xlink:href="#DejaVuSans-58"/>
       <use x="319.03125" xlink:href="#DejaVuSans-48"/>
       <use x="382.654297" xlink:href="#DejaVuSans-48"/>
      </g>
     </g>
    </g>
    <g id="xtick_5">
     <g id="line2d_5">
      <g>
       <use style="stroke:#000000;stroke-width:0.8;" x="854.880021" xlink:href="#m4a43015467" y="260.12"/>
      </g>
     </g>
     <g id="text_5">
      <!-- Sat 00:00 -->
      <defs>
       <path d="M 53.515625 70.515625 
L 53.515625 60.890625 
Q 47.90625 63.578125 42.921875 64.890625 
Q 37.9375 66.21875 33.296875 66.21875 
Q 25.25 66.21875 20.875 63.09375 
Q 16.5 59.96875 16.5 54.203125 
Q 16.5 49.359375 19.40625 46.890625 
Q 22.3125 44.4375 30.421875 42.921875 
L 36.375 41.703125 
Q 47.40625 39.59375 52.65625 34.296875 
Q 57.90625 29 57.90625 20.125 
Q 57.90625 9.515625 50.796875 4.046875 
Q 43.703125 -1.421875 29.984375 -1.421875 
Q 24.8125 -1.421875 18.96875 -0.25 
Q 13.140625 0.921875 6.890625 3.21875 
L 6.890625 13.375 
Q 12.890625 10.015625 18.65625 8.296875 
Q 24.421875 6.59375 29.984375 6.59375 
Q 38.421875 6.59375 43.015625 9.90625 
Q 47.609375 13.234375 47.609375 19.390625 
Q 47.609375 24.75 44.3125 27.78125 
Q 41.015625 30.8125 33.5 32.328125 
L 27.484375 33.5 
Q 16.453125 35.6875 11.515625 40.375 
Q 6.59375 45.0625 6.59375 53.421875 
Q 6.59375 63.09375 13.40625 68.65625 
Q 20.21875 74.21875 32.171875 74.21875 
Q 37.3125 74.21875 42.625 73.28125 
Q 47.953125 72.359375 53.515625 70.515625 
z
" id="DejaVuSans-83"/>
       <path d="M 34.28125 27.484375 
Q 23.390625 27.484375 19.1875 25 
Q 14.984375 22.515625 14.984375 16.5 
Q 14.984375 11.71875 18.140625 8.90625 
Q 21.296875 6.109375 26.703125 6.109375 
Q 34.1875 6.109375 38.703125 11.40625 
Q 43.21875 16.703125 43.21875 25.484375 
L 43.21875 27.484375 
z
M 52.203125 31.203125 
L 52.203125 0 
L 43.21875 0 
L 43.21875 8.296875 
Q 40.140625 3.328125 35.546875 0.953125 
Q 30.953125 -1.421875 24.3125 -1.421875 
Q 15.921875 -1.421875 10.953125 3.296875 
Q 6 8.015625 6 15.921875 
Q 6 25.140625 12.171875 29.828125 
Q 18.359375 34.515625 30.609375 34.515625 
L 43.21875 34.515625 
L 43.21875 35.40625 
Q 43.21875 41.609375 39.140625 45 
Q 35.0625 48.390625 27.6875 48.390625 
Q 23 48.390625 18.546875 47.265625 
Q 14.109375 46.140625 10.015625 43.890625 
L 10.015625 52.203125 
Q 14.9375 54.109375 19.578125 55.046875 
Q 24.21875 56 28.609375 56 
Q 40.484375 56 46.34375 49.84375 
Q 52.203125 43.703125 52.203125 31.203125 
z
" id="DejaVuSans-97"/>
       <path d="M 18.3125 70.21875 
L 18.3125 54.6875 
L 36.8125 54.6875 
L 36.8125 47.703125 
L 18.3125 47.703125 
L 18.3125 18.015625 
Q 18.3125 11.328125 20.140625 9.421875 
Q 21.96875 7.515625 27.59375 7.515625 
L 36.8125 7.515625 
L 36.8125 0 
L 27.59375 0 
Q 17.1875 0 13.234375 3.875 
Q 9.28125 7.765625 9.28125 18.015625 
L 9.28125 47.703125 
L 2.6875 47.703125 
L 2.6875 54.6875 
L 9.28125 54.6875 
L 9.28125 70.21875 
z
" id="DejaVuSans-116"/>
      </defs>
      <g transform="translate(830.683146 274.718437)scale(0.1 -0.1)">
       <use xlink:href="#DejaVuSans-83"/>
       <use x="63.476562" xlink:href="#DejaVuSans-97"/>
       <use x="124.755859" xlink:href="#DejaVuSans-116"/>
       <use x="163.964844" xlink:href="#DejaVuSans-32"/>
       <use x="195.751953" xlink:href="#DejaVuSans-48"/>
       <use x="259.375" xlink:href="#DejaVuSans-48"/>
       <use x="322.998047" xlink:href="#DejaVuSans-58"/>
       <use x="356.689453" xlink:href="#DejaVuSans-48"/>
       <use x="420.3125" xlink:href="#DejaVuSans-48"/>
      </g>
     </g>
    </g>
    <g id="xtick_6">
     <g id="line2d_6">
      <g>
       <use style="stroke:#000000;stroke-width:0.8;" x="1019.308514" xlink:href="#m4a43015467" y="260.12"/>
      </g>
     </g>
     <g id="text_6">
      <!-- Sun 00:00 -->
      <defs>
       <path d="M 54.890625 33.015625 
L 54.890625 0 
L 45.90625 0 
L 45.90625 32.71875 
Q 45.90625 40.484375 42.875 44.328125 
Q 39.84375 48.1875 33.796875 48.1875 
Q 26.515625 48.1875 22.3125 43.546875 
Q 18.109375 38.921875 18.109375 30.90625 
L 18.109375 0 
L 9.078125 0 
L 9.078125 54.6875 
L 18.109375 54.6875 
L 18.109375 46.1875 
Q 21.34375 51.125 25.703125 53.5625 
Q 30.078125 56 35.796875 56 
Q 45.21875 56 50.046875 50.171875 
Q 54.890625 44.34375 54.890625 33.015625 
z
" id="DejaVuSans-110"/>
      </defs>
      <g transform="translate(993.798357 274.718437)scale(0.1 -0.1)">
       <use xlink:href="#DejaVuSans-83"/>
       <use x="63.476562" xlink:href="#DejaVuSans-117"/>
       <use x="126.855469" xlink:href="#DejaVuSans-110"/>
       <use x="190.234375" xlink:href="#DejaVuSans-32"/>
       <use x="222.021484" xlink:href="#DejaVuSans-48"/>
       <use x="285.644531" xlink:href="#DejaVuSans-48"/>
       <use x="349.267578" xlink:href="#DejaVuSans-58"/>
       <use x="382.958984" xlink:href="#DejaVuSans-48"/>
       <use x="446.582031" xlink:href="#DejaVuSans-48"/>
      </g>
     </g>
    </g>
   </g>
   <g id="matplotlib.axis_2">
    <g id="ytick_1">
     <g id="line2d_7">
      <defs>
       <path d="M 0 0 
L -3.5 0 
" id="m1c877bbe2e" style="stroke:#000000;stroke-width:0.8;"/>
      </defs>
      <g>
       <use style="stroke:#000000;stroke-width:0.8;" x="33.64" xlink:href="#m1c877bbe2e" y="260.12"/>
      </g>
     </g>
     <g id="text_7">
      <!-- 0 -->
      <g transform="translate(20.2775 263.919219)scale(0.1 -0.1)">
       <use xlink:href="#DejaVuSans-48"/>
      </g>
     </g>
    </g>
    <g id="ytick_2">
     <g id="line2d_8">
      <g>
       <use style="stroke:#000000;stroke-width:0.8;" x="33.64" xlink:href="#m1c877bbe2e" y="232.857778"/>
      </g>
     </g>
     <g id="text_8">
      <!-- 20 -->
      <defs>
       <path d="M 19.1875 8.296875 
L 53.609375 8.296875 
L 53.609375 0 
L 7.328125 0 
L 7.328125 8.296875 
Q 12.9375 14.109375 22.625 23.890625 
Q 32.328125 33.6875 34.8125 36.53125 
Q 39.546875 41.84375 41.421875 45.53125 
Q 43.3125 49.21875 43.3125 52.78125 
Q 43.3125 58.59375 39.234375 62.25 
Q 35.15625 65.921875 28.609375 65.921875 
Q 23.96875 65.921875 18.8125 64.3125 
Q 13.671875 62.703125 7.8125 59.421875 
L 7.8125 69.390625 
Q 13.765625 71.78125 18.9375 73 
Q 24.125 74.21875 28.421875 74.21875 
Q 39.75 74.21875 46.484375 68.546875 
Q 53.21875 62.890625 53.21875 53.421875 
Q 53.21875 48.921875 51.53125 44.890625 
Q 49.859375 40.875 45.40625 35.40625 
Q 44.1875 33.984375 37.640625 27.21875 
Q 31.109375 20.453125 19.1875 8.296875 
z
" id="DejaVuSans-50"/>
      </defs>
      <g transform="translate(13.915 236.656997)scale(0.1 -0.1)">
       <use xlink:href="#DejaVuSans-50"/>
       <use x="63.623047" xlink:href="#DejaVuSans-48"/>
      </g>
     </g>
    </g>
    <g id="ytick_3">
     <g id="line2d_9">
      <g>
       <use style="stroke:#000000;stroke-width:0.8;" x="33.64" xlink:href="#m1c877bbe2e" y="205.595556"/>
      </g>
     </g>
     <g id="text_9">
      <!-- 40 -->
      <defs>
       <path d="M 37.796875 64.3125 
L 12.890625 25.390625 
L 37.796875 25.390625 
z
M 35.203125 72.90625 
L 47.609375 72.90625 
L 47.609375 25.390625 
L 58.015625 25.390625 
L 58.015625 17.1875 
L 47.609375 17.1875 
L 47.609375 0 
L 37.796875 0 
L 37.796875 17.1875 
L 4.890625 17.1875 
L 4.890625 26.703125 
z
" id="DejaVuSans-52"/>
      </defs>
      <g transform="translate(13.915 209.394774)scale(0.1 -0.1)">
       <use xlink:href="#DejaVuSans-52"/>
       <use x="63.623047" xlink:href="#DejaVuSans-48"/>
      </g>
     </g>
    </g>
    <g id="ytick_4">
     <g id="line2d_10">
      <g>
       <use style="stroke:#000000;stroke-width:0.8;" x="33.64" xlink:href="#m1c877bbe2e" y="178.333333"/>
      </g>
     </g>
     <g id="text_10">
      <!-- 60 -->
      <defs>
       <path d="M 33.015625 40.375 
Q 26.375 40.375 22.484375 35.828125 
Q 18.609375 31.296875 18.609375 23.390625 
Q 18.609375 15.53125 22.484375 10.953125 
Q 26.375 6.390625 33.015625 6.390625 
Q 39.65625 6.390625 43.53125 10.953125 
Q 47.40625 15.53125 47.40625 23.390625 
Q 47.40625 31.296875 43.53125 35.828125 
Q 39.65625 40.375 33.015625 40.375 
z
M 52.59375 71.296875 
L 52.59375 62.3125 
Q 48.875 64.0625 45.09375 64.984375 
Q 41.3125 65.921875 37.59375 65.921875 
Q 27.828125 65.921875 22.671875 59.328125 
Q 17.53125 52.734375 16.796875 39.40625 
Q 19.671875 43.65625 24.015625 45.921875 
Q 28.375 48.1875 33.59375 48.1875 
Q 44.578125 48.1875 50.953125 41.515625 
Q 57.328125 34.859375 57.328125 23.390625 
Q 57.328125 12.15625 50.6875 5.359375 
Q 44.046875 -1.421875 33.015625 -1.421875 
Q 20.359375 -1.421875 13.671875 8.265625 
Q 6.984375 17.96875 6.984375 36.375 
Q 6.984375 53.65625 15.1875 63.9375 
Q 23.390625 74.21875 37.203125 74.21875 
Q 40.921875 74.21875 44.703125 73.484375 
Q 48.484375 72.75 52.59375 71.296875 
z
" id="DejaVuSans-54"/>
      </defs>
      <g transform="translate(13.915 182.132552)scale(0.1 -0.1)">
       <use xlink:href="#DejaVuSans-54"/>
       <use x="63.623047" xlink:href="#DejaVuSans-48"/>
      </g>
     </g>
    </g>
    <g id="ytick_5">
     <g id="line2d_11">
      <g>
       <use style="stroke:#000000;stroke-width:0.8;" x="33.64" xlink:href="#m1c877bbe2e" y="151.071111"/>
      </g>
     </g>
     <g id="text_11">
      <!-- 80 -->
      <defs>
       <path d="M 31.78125 34.625 
Q 24.75 34.625 20.71875 30.859375 
Q 16.703125 27.09375 16.703125 20.515625 
Q 16.703125 13.921875 20.71875 10.15625 
Q 24.75 6.390625 31.78125 6.390625 
Q 38.8125 6.390625 42.859375 10.171875 
Q 46.921875 13.96875 46.921875 20.515625 
Q 46.921875 27.09375 42.890625 30.859375 
Q 38.875 34.625 31.78125 34.625 
z
M 21.921875 38.8125 
Q 15.578125 40.375 12.03125 44.71875 
Q 8.5 49.078125 8.5 55.328125 
Q 8.5 64.0625 14.71875 69.140625 
Q 20.953125 74.21875 31.78125 74.21875 
Q 42.671875 74.21875 48.875 69.140625 
Q 55.078125 64.0625 55.078125 55.328125 
Q 55.078125 49.078125 51.53125 44.71875 
Q 48 40.375 41.703125 38.8125 
Q 48.828125 37.15625 52.796875 32.3125 
Q 56.78125 27.484375 56.78125 20.515625 
Q 56.78125 9.90625 50.3125 4.234375 
Q 43.84375 -1.421875 31.78125 -1.421875 
Q 19.734375 -1.421875 13.25 4.234375 
Q 6.78125 9.90625 6.78125 20.515625 
Q 6.78125 27.484375 10.78125 32.3125 
Q 14.796875 37.15625 21.921875 38.8125 
z
M 18.3125 54.390625 
Q 18.3125 48.734375 21.84375 45.5625 
Q 25.390625 42.390625 31.78125 42.390625 
Q 38.140625 42.390625 41.71875 45.5625 
Q 45.3125 48.734375 45.3125 54.390625 
Q 45.3125 60.0625 41.71875 63.234375 
Q 38.140625 66.40625 31.78125 66.40625 
Q 25.390625 66.40625 21.84375 63.234375 
Q 18.3125 60.0625 18.3125 54.390625 
z
" id="DejaVuSans-56"/>
      </defs>
      <g transform="translate(13.915 154.87033)scale(0.1 -0.1)">
       <use xlink:href="#DejaVuSans-56"/>
       <use x="63.623047" xlink:href="#DejaVuSans-48"/>
      </g>
     </g>
    </g>
    <g id="ytick_6">
     <g id="line2d_12">
      <g>
       <use style="stroke:#000000;stroke-width:0.8;" x="33.64" xlink:href="#m1c877bbe2e" y="123.808889"/>
      </g>
     </g>
     <g id="text_12">
      <!-- 100 -->
      <defs>
       <path d="M 12.40625 8.296875 
L 28.515625 8.296875 
L 28.515625 63.921875 
L 10.984375 60.40625 
L 10.984375 69.390625 
L 28.421875 72.90625 
L 38.28125 72.90625 
L 38.28125 8.296875 
L 54.390625 8.296875 
L 54.390625 0 
L 12.40625 0 
z
" id="DejaVuSans-49"/>
      </defs>
      <g transform="translate(7.5525 127.608108)scale(0.1 -0.1)">
       <use xlink:href="#DejaVuSans-49"/>
       <use x="63.623047" xlink:href="#DejaVuSans-48"/>
       <use x="127.246094" xlink:href="#DejaVuSans-48"/>
      </g>
     </g>
    </g>
    <g id="ytick_7">
     <g id="line2d_13">
      <g>
       <use style="stroke:#000000;stroke-width:0.8;" x="33.64" xlink:href="#m1c877bbe2e" y="96.546667"/>
      </g>
     </g>
     <g id="text_13">
      <!-- 120 -->
      <g transform="translate(7.5525 100.345885)scale(0.1 -0.1)">
       <use xlink:href="#DejaVuSans-49"/>
       <use x="63.623047" xlink:href="#DejaVuSans-50"/>
       <use x="127.246094" xlink:href="#DejaVuSans-48"/>
      </g>
     </g>
    </g>
    <g id="ytick_8">
     <g id="line2d_14">
      <g>
       <use style="stroke:#000000;stroke-width:0.8;" x="33.64" xlink:href="#m1c877bbe2e" y="69.284444"/>
      </g>
     </g>
     <g id="text_14">
      <!-- 140 -->
      <g transform="translate(7.5525 73.083663)scale(0.1 -0.1)">
       <use xlink:href="#DejaVuSans-49"/>
       <use x="63.623047" xlink:href="#DejaVuSans-52"/>
       <use x="127.246094" xlink:href="#DejaVuSans-48"/>
      </g>
     </g>
    </g>
    <g id="ytick_9">
     <g id="line2d_15">
      <g>
       <use style="stroke:#000000;stroke-width:0.8;" x="33.64" xlink:href="#m1c877bbe2e" y="42.022222"/>
      </g>
     </g>
     <g id="text_15">
      <!-- 160 -->
      <g transform="translate(7.5525 45.821441)scale(0.1 -0.1)">
       <use xlink:href="#DejaVuSans-49"/>
       <use x="63.623047" xlink:href="#DejaVuSans-54"/>
       <use x="127.246094" xlink:href="#DejaVuSans-48"/>
      </g>
     </g>
    </g>
    <g id="ytick_10">
     <g id="line2d_16">
      <g>
       <use style="stroke:#000000;stroke-width:0.8;" x="33.64" xlink:href="#m1c877bbe2e" y="14.76"/>
      </g>
     </g>
     <g id="text_16">
      <!-- 180 -->
      <g transform="translate(7.5525 18.559219)scale(0.1 -0.1)">
       <use xlink:href="#DejaVuSans-49"/>
       <use x="63.623047" xlink:href="#DejaVuSans-56"/>
       <use x="127.246094" xlink:href="#DejaVuSans-48"/>
      </g>
     </g>
    </g>
   </g>
   <g id="line2d_17">
    <path clip-path="url(#p573314a943)" d="M 33.64 260.12 
L 96.047002 260.12 
L 97.221894 254.667556 
L 98.396231 254.667556 
L 99.573141 242.399556 
L 100.746754 241.036444 
L 101.920658 230.131556 
L 103.098024 230.131556 
L 104.276169 226.042222 
L 105.450789 224.679111 
L 107.799282 224.679111 
L 110.14689 216.500444 
L 111.320748 216.500444 
L 112.494486 221.952889 
L 113.668909 221.952889 
L 114.842384 231.494667 
L 116.017568 235.584 
L 118.365839 235.584 
L 120.716354 227.405333 
L 121.890043 227.405333 
L 123.064087 231.494667 
L 124.238679 224.679111 
L 125.412267 224.679111 
L 126.585653 227.405333 
L 127.764289 224.679111 
L 128.938967 226.042222 
L 130.113383 226.042222 
L 131.287378 231.494667 
L 132.461739 231.494667 
L 133.635092 230.131556 
L 134.808278 227.405333 
L 135.982281 227.405333 
L 137.157721 226.042222 
L 138.333106 221.952889 
L 139.508302 223.316 
L 140.684666 223.316 
L 141.859268 219.226667 
L 143.033635 216.500444 
L 144.207519 216.500444 
L 145.381716 206.958667 
L 146.556302 208.321778 
L 147.730626 205.595556 
L 148.905668 205.595556 
L 150.079866 198.78 
L 151.253834 198.78 
L 152.427956 197.416889 
L 154.777441 197.416889 
L 155.951286 193.327556 
L 158.299254 159.249778 
L 159.474801 159.249778 
L 160.651853 149.708 
L 161.827098 136.076889 
L 164.17718 136.076889 
L 165.351998 140.166222 
L 166.526014 140.166222 
L 167.701419 141.529333 
L 168.876338 137.44 
L 170.050773 137.44 
L 171.226827 131.987556 
L 172.405429 111.540889 
L 173.5802 116.993333 
L 174.756617 116.993333 
L 175.931778 121.082667 
L 177.10945 126.535111 
L 180.632361 126.535111 
L 181.806397 142.892444 
L 184.153791 153.797333 
L 185.33011 153.797333 
L 186.504107 168.791556 
L 187.679216 179.696444 
L 188.85316 179.696444 
L 190.027935 185.148889 
L 191.20253 193.327556 
L 193.553471 193.327556 
L 194.728187 260.12 
L 258.338525 260.12 
L 259.494026 258.756889 
L 260.671479 258.756889 
L 261.845486 251.941333 
L 263.01946 246.488889 
L 264.196493 246.488889 
L 265.375556 243.762667 
L 266.550488 224.679111 
L 267.725951 216.500444 
L 268.90037 216.500444 
L 270.07517 213.774222 
L 271.249333 213.774222 
L 272.424139 211.048 
L 274.773511 211.048 
L 275.948964 204.232444 
L 277.124294 211.048 
L 279.472511 211.048 
L 281.823072 213.774222 
L 283.00003 213.774222 
L 284.175297 215.137333 
L 285.349853 226.042222 
L 286.524692 226.042222 
L 287.699084 236.947111 
L 288.875072 242.399556 
L 290.048726 242.399556 
L 292.39761 239.673333 
L 293.573042 236.947111 
L 298.275025 236.947111 
L 300.625894 231.494667 
L 301.802088 227.405333 
L 302.976975 227.405333 
L 304.152325 226.042222 
L 305.326283 226.042222 
L 306.501053 220.589778 
L 307.736789 217.863556 
L 308.912883 217.863556 
L 310.088181 211.048 
L 311.262676 197.416889 
L 312.437834 194.690667 
L 313.614373 194.690667 
L 314.792453 183.785778 
L 315.970581 175.607111 
L 317.147105 175.607111 
L 318.324109 151.071111 
L 319.500692 129.261333 
L 320.676429 129.261333 
L 321.850826 121.082667 
L 323.025205 103.362222 
L 324.19997 103.362222 
L 325.375129 93.820444 
L 326.554433 88.368 
L 327.729025 88.368 
L 328.903283 74.736889 
L 330.079725 77.463111 
L 331.257896 73.373778 
L 332.432267 73.373778 
L 333.607262 88.368 
L 334.783433 89.731111 
L 335.958054 89.731111 
L 337.134805 93.820444 
L 338.309293 115.630222 
L 339.484688 115.630222 
L 340.659618 131.987556 
L 341.833952 140.166222 
L 343.008337 140.166222 
L 344.182551 148.344889 
L 346.530319 148.344889 
L 347.706409 157.886667 
L 348.880978 163.339111 
L 350.057542 163.339111 
L 351.231368 168.791556 
L 352.408018 185.148889 
L 353.582274 185.148889 
L 355.938974 204.232444 
L 357.115558 260.12 
L 423.062475 260.12 
L 424.218071 258.756889 
L 425.392497 258.756889 
L 426.567916 241.036444 
L 427.745036 232.857778 
L 428.920177 230.131556 
L 430.095132 230.131556 
L 431.275992 226.042222 
L 433.626924 226.042222 
L 434.804555 224.679111 
L 435.979942 217.863556 
L 437.155222 217.863556 
L 438.330232 219.226667 
L 439.507548 216.500444 
L 440.683975 216.500444 
L 441.858561 219.226667 
L 443.033482 228.768444 
L 447.738948 228.768444 
L 448.91373 231.494667 
L 450.088066 238.310222 
L 451.264668 242.399556 
L 452.441611 242.399556 
L 453.616657 243.762667 
L 454.792951 242.399556 
L 455.967088 242.399556 
L 458.318116 236.947111 
L 459.492983 235.584 
L 460.667187 235.584 
L 461.842523 231.494667 
L 463.017214 231.494667 
L 464.192132 223.316 
L 465.366525 223.316 
L 466.541637 216.500444 
L 467.716435 216.500444 
L 468.893 219.226667 
L 471.241341 219.226667 
L 472.418081 205.595556 
L 473.594978 204.232444 
L 474.77266 204.232444 
L 477.126011 190.601333 
L 478.300176 182.422667 
L 479.479542 182.422667 
L 480.65483 189.238222 
L 481.8288 189.238222 
L 483.002473 182.422667 
L 484.177489 167.428444 
L 485.351635 167.428444 
L 486.530198 164.702222 
L 487.704159 159.249778 
L 488.878715 151.071111 
L 490.052704 151.071111 
L 491.226881 155.160444 
L 492.403029 144.255556 
L 493.578539 144.255556 
L 494.754223 140.166222 
L 495.929205 126.535111 
L 497.105612 126.535111 
L 498.280527 125.172 
L 499.457051 131.987556 
L 500.630962 131.987556 
L 501.805982 111.540889 
L 502.980647 101.999111 
L 504.155547 97.909778 
L 505.330402 97.909778 
L 506.504713 101.999111 
L 507.679714 101.999111 
L 508.854743 108.814667 
L 511.205726 137.44 
L 512.38141 137.44 
L 513.55659 153.797333 
L 514.733754 159.249778 
L 515.907886 159.249778 
L 517.082754 175.607111 
L 518.25888 187.875111 
L 519.436878 187.875111 
L 520.610939 196.053778 
L 521.785549 209.684889 
L 522.962067 209.684889 
L 524.13839 260.12 
L 588.906362 260.12 
L 590.080933 254.667556 
L 591.255222 254.667556 
L 592.429712 236.947111 
L 593.604147 227.405333 
L 594.778334 224.679111 
L 595.952576 224.679111 
L 597.126662 227.405333 
L 598.300484 227.405333 
L 599.474005 221.952889 
L 600.648542 220.589778 
L 601.824974 217.863556 
L 602.999969 217.863556 
L 604.174531 221.952889 
L 605.348279 220.589778 
L 606.523266 220.589778 
L 607.696706 224.679111 
L 608.870611 231.494667 
L 611.223785 231.494667 
L 612.397948 232.857778 
L 613.571979 232.857778 
L 614.746926 235.584 
L 615.921548 234.220889 
L 617.095448 234.220889 
L 618.269073 235.584 
L 619.443161 238.310222 
L 620.617601 243.762667 
L 624.139908 243.762667 
L 626.489079 238.310222 
L 627.666125 234.220889 
L 628.840138 234.220889 
L 630.014206 232.857778 
L 631.189088 228.768444 
L 635.889861 228.768444 
L 638.24068 226.042222 
L 639.415483 223.316 
L 640.589826 223.316 
L 642.941085 198.78 
L 644.116782 198.78 
L 645.292557 204.232444 
L 646.468254 204.232444 
L 647.64489 201.506222 
L 648.819232 189.238222 
L 649.994168 186.512 
L 651.168409 186.512 
L 653.517404 142.892444 
L 654.692976 142.892444 
L 655.867912 131.987556 
L 657.04337 136.076889 
L 658.218164 136.076889 
L 659.39306 119.719556 
L 660.568078 116.993333 
L 661.742766 116.993333 
L 662.917413 107.451556 
L 664.093675 108.814667 
L 665.269018 108.814667 
L 666.443449 103.362222 
L 667.618608 88.368 
L 668.794462 84.278667 
L 669.970106 84.278667 
L 671.145507 100.636 
L 672.320159 107.451556 
L 673.494649 107.451556 
L 674.669189 122.445778 
L 675.844684 160.612889 
L 677.019378 160.612889 
L 678.194524 163.339111 
L 679.369453 168.791556 
L 680.544058 168.791556 
L 681.719217 190.601333 
L 682.894104 198.78 
L 684.069413 211.048 
L 685.244102 211.048 
L 686.419254 260.12 
L 752.359771 260.12 
L 753.535012 256.030667 
L 754.709977 250.578222 
L 755.884904 250.578222 
L 757.060991 238.310222 
L 758.237215 234.220889 
L 759.414743 234.220889 
L 760.58947 228.768444 
L 761.764504 226.042222 
L 762.940988 220.589778 
L 765.294825 220.589778 
L 766.47186 221.952889 
L 767.64576 221.952889 
L 768.820112 220.589778 
L 772.345413 220.589778 
L 773.51969 223.316 
L 774.694719 223.316 
L 775.870123 224.679111 
L 777.044728 227.405333 
L 778.221214 227.405333 
L 779.396041 220.589778 
L 781.747417 217.863556 
L 782.92365 217.863556 
L 784.102336 215.137333 
L 785.280424 215.137333 
L 786.457125 213.774222 
L 787.631272 211.048 
L 788.80733 213.774222 
L 789.982291 213.774222 
L 792.330995 216.500444 
L 793.504434 216.500444 
L 794.678227 205.595556 
L 795.852272 212.411111 
L 797.026477 213.774222 
L 798.200473 213.774222 
L 799.37432 205.595556 
L 800.550267 205.595556 
L 801.724554 206.958667 
L 802.898175 213.774222 
L 804.072557 197.416889 
L 805.247986 197.416889 
L 806.424161 191.964444 
L 807.598574 183.785778 
L 808.775482 183.785778 
L 809.949742 170.154667 
L 811.123597 178.333333 
L 812.300623 178.333333 
L 813.474604 181.059556 
L 814.649712 166.065333 
L 815.823729 166.065333 
L 817.000698 163.339111 
L 818.177395 156.523556 
L 819.35317 140.166222 
L 820.527666 140.166222 
L 821.701801 145.618667 
L 822.878949 145.618667 
L 824.053714 148.344889 
L 825.230967 146.981778 
L 826.407386 159.249778 
L 827.584303 159.249778 
L 828.758728 156.523556 
L 829.935649 159.249778 
L 831.109732 159.249778 
L 833.461663 170.154667 
L 834.636455 176.970222 
L 835.811748 176.970222 
L 836.986667 179.696444 
L 838.162013 179.696444 
L 839.335835 190.601333 
L 840.510209 197.416889 
L 841.686727 197.416889 
L 842.861384 206.958667 
L 844.039018 215.137333 
L 845.213792 217.863556 
L 846.390235 217.863556 
L 847.565579 221.952889 
L 848.739918 227.405333 
L 849.916096 227.405333 
L 851.090412 260.12 
L 918.194268 260.12 
L 919.368823 258.756889 
L 920.545025 238.310222 
L 921.720953 238.310222 
L 922.898198 221.952889 
L 924.071933 212.411111 
L 925.247834 212.411111 
L 926.421593 208.321778 
L 927.597688 201.506222 
L 928.771703 201.506222 
L 929.947593 190.601333 
L 931.123884 181.059556 
L 932.298317 182.422667 
L 933.472225 182.422667 
L 934.646356 179.696444 
L 935.81962 187.875111 
L 936.993917 187.875111 
L 938.167469 197.416889 
L 939.342114 197.416889 
L 940.515404 194.690667 
L 941.688811 197.416889 
L 942.862666 194.690667 
L 944.036975 194.690667 
L 945.210733 197.416889 
L 946.384037 201.506222 
L 947.557504 201.506222 
L 948.731698 200.143111 
L 949.907791 197.416889 
L 951.081621 202.869333 
L 952.255482 202.869333 
L 953.429129 206.958667 
L 954.602475 206.958667 
L 955.776051 194.690667 
L 956.949568 206.958667 
L 958.124512 208.321778 
L 959.298078 208.321778 
L 960.471462 211.048 
L 961.644919 211.048 
L 962.818328 206.958667 
L 963.994403 209.684889 
L 965.167825 209.684889 
L 966.344123 212.411111 
L 967.5188 209.684889 
L 968.692522 211.048 
L 969.868523 211.048 
L 971.042328 205.595556 
L 972.219488 208.321778 
L 973.393519 208.321778 
L 974.567066 212.411111 
L 975.740642 220.589778 
L 976.91429 217.863556 
L 978.087517 217.863556 
L 979.263886 234.220889 
L 980.437354 234.220889 
L 981.611063 236.947111 
L 982.78726 241.036444 
L 983.961133 236.947111 
L 986.313283 236.947111 
L 987.488146 234.220889 
L 988.663283 234.220889 
L 989.836975 230.131556 
L 991.010471 236.947111 
L 992.184671 236.947111 
L 993.360956 235.584 
L 994.534559 231.494667 
L 995.708411 230.131556 
L 1000.405724 230.131556 
L 1001.579526 228.768444 
L 1002.752928 231.494667 
L 1003.926387 231.494667 
L 1005.09978 230.131556 
L 1007.447152 230.131556 
L 1008.620275 231.494667 
L 1010.968158 231.494667 
L 1012.141796 232.857778 
L 1014.489273 232.857778 
L 1015.663721 260.12 
L 1080.435952 260.12 
L 1081.591522 258.756889 
L 1082.766133 258.756889 
L 1083.939631 236.947111 
L 1085.113317 224.679111 
L 1086.287281 213.774222 
L 1087.461083 213.774222 
L 1089.811596 194.690667 
L 1090.985507 194.690667 
L 1092.159382 178.333333 
L 1093.333344 178.333333 
L 1094.50725 153.797333 
L 1095.681004 144.255556 
L 1096.855518 144.255556 
L 1098.029535 140.166222 
L 1099.20373 134.713778 
L 1100.378093 125.172 
L 1101.554693 125.172 
L 1102.730718 114.267111 
L 1103.90486 119.719556 
L 1105.081419 119.719556 
L 1106.255174 122.445778 
L 1107.429104 126.535111 
L 1108.603055 126.535111 
L 1109.777086 133.350667 
L 1110.952985 131.987556 
L 1112.126688 131.987556 
L 1114.47526 137.44 
L 1116.825424 137.44 
L 1118.000535 133.350667 
L 1119.176574 140.166222 
L 1120.352868 140.166222 
L 1121.528906 134.713778 
L 1122.70522 145.618667 
L 1123.881302 145.618667 
L 1125.055948 142.892444 
L 1127.410356 142.892444 
L 1128.58461 144.255556 
L 1129.758649 136.076889 
L 1130.932476 155.160444 
L 1132.106353 155.160444 
L 1133.28 146.981778 
L 1133.28 146.981778 
" style="fill:none;stroke:#1f77b4;stroke-linecap:square;stroke-width:1.5;"/>
   </g>
   <g id="patch_3">
    <path d="M 33.64 260.12 
L 33.64 14.76 
" style="fill:none;stroke:#000000;stroke-linecap:square;stroke-linejoin:miter;stroke-width:0.8;"/>
   </g>
   <g id="patch_4">
    <path d="M 1133.28 260.12 
L 1133.28 14.76 
" style="fill:none;stroke:#000000;stroke-linecap:square;stroke-linejoin:miter;stroke-width:0.8;"/>
   </g>
   <g id="patch_5">
    <path d="M 33.64 260.12 
L 1133.28 260.12 
" style="fill:none;stroke:#000000;stroke-linecap:square;stroke-linejoin:miter;stroke-width:0.8;"/>
   </g>
   <g id="patch_6">
    <path d="M 33.64 14.76 
L 1133.28 14.76 
" style="fill:none;stroke:#000000;stroke-linecap:square;stroke-linejoin:miter;stroke-width:0.8;"/>
   </g>
  </g>
 </g>
 <defs>
  <clipPath id="p573314a943">
   <rect height="245.36" width="1099.64" x="33.64" y="14.76"/>
  </clipPath>
 </defs>
</svg>
