<?xml version="1.0" encoding="utf-8" standalone="no"?>
<!DOCTYPE svg PUBLIC "-//W3C//DTD SVG 1.1//EN"
  "http://www.w3.org/Graphics/SVG/1.1/DTD/svg11.dtd">
<!-- Created with matplotlib (https://matplotlib.org/) -->
<svg height="288pt" version="1.1" viewBox="0 0 1152 288" width="1152pt" xmlns="http://www.w3.org/2000/svg" xmlns:xlink="http://www.w3.org/1999/xlink">
 <defs>
  <style type="text/css">
*{stroke-linecap:butt;stroke-linejoin:round;}
  </style>
 </defs>
 <g id="figure_1">
  <g id="patch_1">
   <path d="M 0 288 
L 1152 288 
L 1152 0 
L 0 0 
z
" style="fill:#ffffff;"/>
  </g>
  <g id="axes_1">
   <g id="patch_2">
    <path d="M 33.64 260.12 
L 1133.28 260.12 
L 1133.28 14.76 
L 33.64 14.76 
z
" style="fill:#ffffff;"/>
   </g>
   <g id="matplotlib.axis_1">
    <g id="xtick_1">
     <g id="line2d_1">
      <defs>
       <path d="M 0 0 
L 0 3.5 
" id="mb3f1d7632f" style="stroke:#000000;stroke-width:0.8;"/>
      </defs>
      <g>
       <use style="stroke:#000000;stroke-width:0.8;" x="192.579295" xlink:href="#mb3f1d7632f" y="260.12"/>
      </g>
     </g>
     <g id="text_1">
      <!-- Tue 00:00 -->
      <defs>
       <path d="M -0.296875 72.90625 
L 61.375 72.90625 
L 61.375 64.59375 
L 35.5 64.59375 
L 35.5 0 
L 25.59375 0 
L 25.59375 64.59375 
L -0.296875 64.59375 
z
" id="DejaVuSans-84"/>
       <path d="M 8.5 21.578125 
L 8.5 54.6875 
L 17.484375 54.6875 
L 17.484375 21.921875 
Q 17.484375 14.15625 20.5 10.265625 
Q 23.53125 6.390625 29.59375 6.390625 
Q 36.859375 6.390625 41.078125 11.03125 
Q 45.3125 15.671875 45.3125 23.6875 
L 45.3125 54.6875 
L 54.296875 54.6875 
L 54.296875 0 
L 45.3125 0 
L 45.3125 8.40625 
Q 42.046875 3.421875 37.71875 1 
Q 33.40625 -1.421875 27.6875 -1.421875 
Q 18.265625 -1.421875 13.375 4.4375 
Q 8.5 10.296875 8.5 21.578125 
z
M 31.109375 56 
z
" id="DejaVuSans-117"/>
       <path d="M 56.203125 29.59375 
L 56.203125 25.203125 
L 14.890625 25.203125 
Q 15.484375 15.921875 20.484375 11.0625 
Q 25.484375 6.203125 34.421875 6.203125 
Q 39.59375 6.203125 44.453125 7.46875 
Q 49.3125 8.734375 54.109375 11.28125 
L 54.109375 2.78125 
Q 49.265625 0.734375 44.1875 -0.34375 
Q 39.109375 -1.421875 33.890625 -1.421875 
Q 20.796875 -1.421875 13.15625 6.1875 
Q 5.515625 13.8125 5.515625 26.8125 
Q 5.515625 40.234375 12.765625 48.109375 
Q 20.015625 56 32.328125 56 
Q 43.359375 56 49.78125 48.890625 
Q 56.203125 41.796875 56.203125 29.59375 
z
M 47.21875 32.234375 
Q 47.125 39.59375 43.09375 43.984375 
Q 39.0625 48.390625 32.421875 48.390625 
Q 24.90625 48.390625 20.390625 44.140625 
Q 15.875 39.890625 15.1875 32.171875 
z
" id="DejaVuSans-101"/>
       <path id="DejaVuSans-32"/>
       <path d="M 31.78125 66.40625 
Q 24.171875 66.40625 20.328125 58.90625 
Q 16.5 51.421875 16.5 36.375 
Q 16.5 21.390625 20.328125 13.890625 
Q 24.171875 6.390625 31.78125 6.390625 
Q 39.453125 6.390625 43.28125 13.890625 
Q 47.125 21.390625 47.125 36.375 
Q 47.125 51.421875 43.28125 58.90625 
Q 39.453125 66.40625 31.78125 66.40625 
z
M 31.78125 74.21875 
Q 44.046875 74.21875 50.515625 64.515625 
Q 56.984375 54.828125 56.984375 36.375 
Q 56.984375 17.96875 50.515625 8.265625 
Q 44.046875 -1.421875 31.78125 -1.421875 
Q 19.53125 -1.421875 13.0625 8.265625 
Q 6.59375 17.96875 6.59375 36.375 
Q 6.59375 54.828125 13.0625 64.515625 
Q 19.53125 74.21875 31.78125 74.21875 
z
" id="DejaVuSans-48"/>
       <path d="M 11.71875 12.40625 
L 22.015625 12.40625 
L 22.015625 0 
L 11.71875 0 
z
M 11.71875 51.703125 
L 22.015625 51.703125 
L 22.015625 39.3125 
L 11.71875 39.3125 
z
" id="DejaVuSans-58"/>
      </defs>
      <g transform="translate(167.293357 274.718437)scale(0.1 -0.1)">
       <use xlink:href="#DejaVuSans-84"/>
       <use x="60.849609" xlink:href="#DejaVuSans-117"/>
       <use x="124.228516" xlink:href="#DejaVuSans-101"/>
       <use x="185.751953" xlink:href="#DejaVuSans-32"/>
       <use x="217.539062" xlink:href="#DejaVuSans-48"/>
       <use x="281.162109" xlink:href="#DejaVuSans-48"/>
       <use x="344.785156" xlink:href="#DejaVuSans-58"/>
       <use x="378.476562" xlink:href="#DejaVuSans-48"/>
       <use x="442.099609" xlink:href="#DejaVuSans-48"/>
      </g>
     </g>
    </g>
    <g id="xtick_2">
     <g id="line2d_2">
      <g>
       <use style="stroke:#000000;stroke-width:0.8;" x="352.395722" xlink:href="#mb3f1d7632f" y="260.12"/>
      </g>
     </g>
     <g id="text_2">
      <!-- Wed 00:00 -->
      <defs>
       <path d="M 3.328125 72.90625 
L 13.28125 72.90625 
L 28.609375 11.28125 
L 43.890625 72.90625 
L 54.984375 72.90625 
L 70.3125 11.28125 
L 85.59375 72.90625 
L 95.609375 72.90625 
L 77.296875 0 
L 64.890625 0 
L 49.515625 63.28125 
L 33.984375 0 
L 21.578125 0 
z
" id="DejaVuSans-87"/>
       <path d="M 45.40625 46.390625 
L 45.40625 75.984375 
L 54.390625 75.984375 
L 54.390625 0 
L 45.40625 0 
L 45.40625 8.203125 
Q 42.578125 3.328125 38.25 0.953125 
Q 33.9375 -1.421875 27.875 -1.421875 
Q 17.96875 -1.421875 11.734375 6.484375 
Q 5.515625 14.40625 5.515625 27.296875 
Q 5.515625 40.1875 11.734375 48.09375 
Q 17.96875 56 27.875 56 
Q 33.9375 56 38.25 53.625 
Q 42.578125 51.265625 45.40625 46.390625 
z
M 14.796875 27.296875 
Q 14.796875 17.390625 18.875 11.75 
Q 22.953125 6.109375 30.078125 6.109375 
Q 37.203125 6.109375 41.296875 11.75 
Q 45.40625 17.390625 45.40625 27.296875 
Q 45.40625 37.203125 41.296875 42.84375 
Q 37.203125 48.484375 30.078125 48.484375 
Q 22.953125 48.484375 18.875 42.84375 
Q 14.796875 37.203125 14.796875 27.296875 
z
" id="DejaVuSans-100"/>
      </defs>
      <g transform="translate(325.206659 274.718437)scale(0.1 -0.1)">
       <use xlink:href="#DejaVuSans-87"/>
       <use x="98.798828" xlink:href="#DejaVuSans-101"/>
       <use x="160.322266" xlink:href="#DejaVuSans-100"/>
       <use x="223.798828" xlink:href="#DejaVuSans-32"/>
       <use x="255.585938" xlink:href="#DejaVuSans-48"/>
       <use x="319.208984" xlink:href="#DejaVuSans-48"/>
       <use x="382.832031" xlink:href="#DejaVuSans-58"/>
       <use x="416.523438" xlink:href="#DejaVuSans-48"/>
       <use x="480.146484" xlink:href="#DejaVuSans-48"/>
      </g>
     </g>
    </g>
    <g id="xtick_3">
     <g id="line2d_3">
      <g>
       <use style="stroke:#000000;stroke-width:0.8;" x="512.212149" xlink:href="#mb3f1d7632f" y="260.12"/>
      </g>
     </g>
     <g id="text_3">
      <!-- Thu 00:00 -->
      <defs>
       <path d="M 54.890625 33.015625 
L 54.890625 0 
L 45.90625 0 
L 45.90625 32.71875 
Q 45.90625 40.484375 42.875 44.328125 
Q 39.84375 48.1875 33.796875 48.1875 
Q 26.515625 48.1875 22.3125 43.546875 
Q 18.109375 38.921875 18.109375 30.90625 
L 18.109375 0 
L 9.078125 0 
L 9.078125 75.984375 
L 18.109375 75.984375 
L 18.109375 46.1875 
Q 21.34375 51.125 25.703125 53.5625 
Q 30.078125 56 35.796875 56 
Q 45.21875 56 50.046875 50.171875 
Q 54.890625 44.34375 54.890625 33.015625 
z
" id="DejaVuSans-104"/>
      </defs>
      <g transform="translate(486.822305 274.718437)scale(0.1 -0.1)">
       <use xlink:href="#DejaVuSans-84"/>
       <use x="61.083984" xlink:href="#DejaVuSans-104"/>
       <use x="124.462891" xlink:href="#DejaVuSans-117"/>
       <use x="187.841797" xlink:href="#DejaVuSans-32"/>
       <use x="219.628906" xlink:href="#DejaVuSans-48"/>
       <use x="283.251953" xlink:href="#DejaVuSans-48"/>
       <use x="346.875" xlink:href="#DejaVuSans-58"/>
       <use x="380.566406" xlink:href="#DejaVuSans-48"/>
       <use x="444.189453" xlink:href="#DejaVuSans-48"/>
      </g>
     </g>
    </g>
    <g id="xtick_4">
     <g id="line2d_4">
      <g>
       <use style="stroke:#000000;stroke-width:0.8;" x="672.028576" xlink:href="#mb3f1d7632f" y="260.12"/>
      </g>
     </g>
     <g id="text_4">
      <!-- Fri 00:00 -->
      <defs>
       <path d="M 9.8125 72.90625 
L 51.703125 72.90625 
L 51.703125 64.59375 
L 19.671875 64.59375 
L 19.671875 43.109375 
L 48.578125 43.109375 
L 48.578125 34.8125 
L 19.671875 34.8125 
L 19.671875 0 
L 9.8125 0 
z
" id="DejaVuSans-70"/>
       <path d="M 41.109375 46.296875 
Q 39.59375 47.171875 37.8125 47.578125 
Q 36.03125 48 33.890625 48 
Q 26.265625 48 22.1875 43.046875 
Q 18.109375 38.09375 18.109375 28.8125 
L 18.109375 0 
L 9.078125 0 
L 9.078125 54.6875 
L 18.109375 54.6875 
L 18.109375 46.1875 
Q 20.953125 51.171875 25.484375 53.578125 
Q 30.03125 56 36.53125 56 
Q 37.453125 56 38.578125 55.875 
Q 39.703125 55.765625 41.0625 55.515625 
z
" id="DejaVuSans-114"/>
       <path d="M 9.421875 54.6875 
L 18.40625 54.6875 
L 18.40625 0 
L 9.421875 0 
z
M 9.421875 75.984375 
L 18.40625 75.984375 
L 18.40625 64.59375 
L 9.421875 64.59375 
z
" id="DejaVuSans-105"/>
      </defs>
      <g transform="translate(649.715294 274.718437)scale(0.1 -0.1)">
       <use xlink:href="#DejaVuSans-70"/>
       <use x="57.410156" xlink:href="#DejaVuSans-114"/>
       <use x="98.523438" xlink:href="#DejaVuSans-105"/>
       <use x="126.306641" xlink:href="#DejaVuSans-32"/>
       <use x="158.09375" xlink:href="#DejaVuSans-48"/>
       <use x="221.716797" xlink:href="#DejaVuSans-48"/>
       <use x="285.339844" xlink:href="#DejaVuSans-58"/>
       <use x="319.03125" xlink:href="#DejaVuSans-48"/>
       <use x="382.654297" xlink:href="#DejaVuSans-48"/>
      </g>
     </g>
    </g>
    <g id="xtick_5">
     <g id="line2d_5">
      <g>
       <use style="stroke:#000000;stroke-width:0.8;" x="831.845003" xlink:href="#mb3f1d7632f" y="260.12"/>
      </g>
     </g>
     <g id="text_5">
      <!-- Sat 00:00 -->
      <defs>
       <path d="M 53.515625 70.515625 
L 53.515625 60.890625 
Q 47.90625 63.578125 42.921875 64.890625 
Q 37.9375 66.21875 33.296875 66.21875 
Q 25.25 66.21875 20.875 63.09375 
Q 16.5 59.96875 16.5 54.203125 
Q 16.5 49.359375 19.40625 46.890625 
Q 22.3125 44.4375 30.421875 42.921875 
L 36.375 41.703125 
Q 47.40625 39.59375 52.65625 34.296875 
Q 57.90625 29 57.90625 20.125 
Q 57.90625 9.515625 50.796875 4.046875 
Q 43.703125 -1.421875 29.984375 -1.421875 
Q 24.8125 -1.421875 18.96875 -0.25 
Q 13.140625 0.921875 6.890625 3.21875 
L 6.890625 13.375 
Q 12.890625 10.015625 18.65625 8.296875 
Q 24.421875 6.59375 29.984375 6.59375 
Q 38.421875 6.59375 43.015625 9.90625 
Q 47.609375 13.234375 47.609375 19.390625 
Q 47.609375 24.75 44.3125 27.78125 
Q 41.015625 30.8125 33.5 32.328125 
L 27.484375 33.5 
Q 16.453125 35.6875 11.515625 40.375 
Q 6.59375 45.0625 6.59375 53.421875 
Q 6.59375 63.09375 13.40625 68.65625 
Q 20.21875 74.21875 32.171875 74.21875 
Q 37.3125 74.21875 42.625 73.28125 
Q 47.953125 72.359375 53.515625 70.515625 
z
" id="DejaVuSans-83"/>
       <path d="M 34.28125 27.484375 
Q 23.390625 27.484375 19.1875 25 
Q 14.984375 22.515625 14.984375 16.5 
Q 14.984375 11.71875 18.140625 8.90625 
Q 21.296875 6.109375 26.703125 6.109375 
Q 34.1875 6.109375 38.703125 11.40625 
Q 43.21875 16.703125 43.21875 25.484375 
L 43.21875 27.484375 
z
M 52.203125 31.203125 
L 52.203125 0 
L 43.21875 0 
L 43.21875 8.296875 
Q 40.140625 3.328125 35.546875 0.953125 
Q 30.953125 -1.421875 24.3125 -1.421875 
Q 15.921875 -1.421875 10.953125 3.296875 
Q 6 8.015625 6 15.921875 
Q 6 25.140625 12.171875 29.828125 
Q 18.359375 34.515625 30.609375 34.515625 
L 43.21875 34.515625 
L 43.21875 35.40625 
Q 43.21875 41.609375 39.140625 45 
Q 35.0625 48.390625 27.6875 48.390625 
Q 23 48.390625 18.546875 47.265625 
Q 14.109375 46.140625 10.015625 43.890625 
L 10.015625 52.203125 
Q 14.9375 54.109375 19.578125 55.046875 
Q 24.21875 56 28.609375 56 
Q 40.484375 56 46.34375 49.84375 
Q 52.203125 43.703125 52.203125 31.203125 
z
" id="DejaVuSans-97"/>
       <path d="M 18.3125 70.21875 
L 18.3125 54.6875 
L 36.8125 54.6875 
L 36.8125 47.703125 
L 18.3125 47.703125 
L 18.3125 18.015625 
Q 18.3125 11.328125 20.140625 9.421875 
Q 21.96875 7.515625 27.59375 7.515625 
L 36.8125 7.515625 
L 36.8125 0 
L 27.59375 0 
Q 17.1875 0 13.234375 3.875 
Q 9.28125 7.765625 9.28125 18.015625 
L 9.28125 47.703125 
L 2.6875 47.703125 
L 2.6875 54.6875 
L 9.28125 54.6875 
L 9.28125 70.21875 
z
" id="DejaVuSans-116"/>
      </defs>
      <g transform="translate(807.648128 274.718437)scale(0.1 -0.1)">
       <use xlink:href="#DejaVuSans-83"/>
       <use x="63.476562" xlink:href="#DejaVuSans-97"/>
       <use x="124.755859" xlink:href="#DejaVuSans-116"/>
       <use x="163.964844" xlink:href="#DejaVuSans-32"/>
       <use x="195.751953" xlink:href="#DejaVuSans-48"/>
       <use x="259.375" xlink:href="#DejaVuSans-48"/>
       <use x="322.998047" xlink:href="#DejaVuSans-58"/>
       <use x="356.689453" xlink:href="#DejaVuSans-48"/>
       <use x="420.3125" xlink:href="#DejaVuSans-48"/>
      </g>
     </g>
    </g>
    <g id="xtick_6">
     <g id="line2d_6">
      <g>
       <use style="stroke:#000000;stroke-width:0.8;" x="991.661429" xlink:href="#mb3f1d7632f" y="260.12"/>
      </g>
     </g>
     <g id="text_6">
      <!-- Sun 00:00 -->
      <defs>
       <path d="M 54.890625 33.015625 
L 54.890625 0 
L 45.90625 0 
L 45.90625 32.71875 
Q 45.90625 40.484375 42.875 44.328125 
Q 39.84375 48.1875 33.796875 48.1875 
Q 26.515625 48.1875 22.3125 43.546875 
Q 18.109375 38.921875 18.109375 30.90625 
L 18.109375 0 
L 9.078125 0 
L 9.078125 54.6875 
L 18.109375 54.6875 
L 18.109375 46.1875 
Q 21.34375 51.125 25.703125 53.5625 
Q 30.078125 56 35.796875 56 
Q 45.21875 56 50.046875 50.171875 
Q 54.890625 44.34375 54.890625 33.015625 
z
" id="DejaVuSans-110"/>
      </defs>
      <g transform="translate(966.151273 274.718437)scale(0.1 -0.1)">
       <use xlink:href="#DejaVuSans-83"/>
       <use x="63.476562" xlink:href="#DejaVuSans-117"/>
       <use x="126.855469" xlink:href="#DejaVuSans-110"/>
       <use x="190.234375" xlink:href="#DejaVuSans-32"/>
       <use x="222.021484" xlink:href="#DejaVuSans-48"/>
       <use x="285.644531" xlink:href="#DejaVuSans-48"/>
       <use x="349.267578" xlink:href="#DejaVuSans-58"/>
       <use x="382.958984" xlink:href="#DejaVuSans-48"/>
       <use x="446.582031" xlink:href="#DejaVuSans-48"/>
      </g>
     </g>
    </g>
   </g>
   <g id="matplotlib.axis_2">
    <g id="ytick_1">
     <g id="line2d_7">
      <defs>
       <path d="M 0 0 
L -3.5 0 
" id="m605999d755" style="stroke:#000000;stroke-width:0.8;"/>
      </defs>
      <g>
       <use style="stroke:#000000;stroke-width:0.8;" x="33.64" xlink:href="#m605999d755" y="260.12"/>
      </g>
     </g>
     <g id="text_7">
      <!-- 0 -->
      <g transform="translate(20.2775 263.919219)scale(0.1 -0.1)">
       <use xlink:href="#DejaVuSans-48"/>
      </g>
     </g>
    </g>
    <g id="ytick_2">
     <g id="line2d_8">
      <g>
       <use style="stroke:#000000;stroke-width:0.8;" x="33.64" xlink:href="#m605999d755" y="232.857778"/>
      </g>
     </g>
     <g id="text_8">
      <!-- 20 -->
      <defs>
       <path d="M 19.1875 8.296875 
L 53.609375 8.296875 
L 53.609375 0 
L 7.328125 0 
L 7.328125 8.296875 
Q 12.9375 14.109375 22.625 23.890625 
Q 32.328125 33.6875 34.8125 36.53125 
Q 39.546875 41.84375 41.421875 45.53125 
Q 43.3125 49.21875 43.3125 52.78125 
Q 43.3125 58.59375 39.234375 62.25 
Q 35.15625 65.921875 28.609375 65.921875 
Q 23.96875 65.921875 18.8125 64.3125 
Q 13.671875 62.703125 7.8125 59.421875 
L 7.8125 69.390625 
Q 13.765625 71.78125 18.9375 73 
Q 24.125 74.21875 28.421875 74.21875 
Q 39.75 74.21875 46.484375 68.546875 
Q 53.21875 62.890625 53.21875 53.421875 
Q 53.21875 48.921875 51.53125 44.890625 
Q 49.859375 40.875 45.40625 35.40625 
Q 44.1875 33.984375 37.640625 27.21875 
Q 31.109375 20.453125 19.1875 8.296875 
z
" id="DejaVuSans-50"/>
      </defs>
      <g transform="translate(13.915 236.656997)scale(0.1 -0.1)">
       <use xlink:href="#DejaVuSans-50"/>
       <use x="63.623047" xlink:href="#DejaVuSans-48"/>
      </g>
     </g>
    </g>
    <g id="ytick_3">
     <g id="line2d_9">
      <g>
       <use style="stroke:#000000;stroke-width:0.8;" x="33.64" xlink:href="#m605999d755" y="205.595556"/>
      </g>
     </g>
     <g id="text_9">
      <!-- 40 -->
      <defs>
       <path d="M 37.796875 64.3125 
L 12.890625 25.390625 
L 37.796875 25.390625 
z
M 35.203125 72.90625 
L 47.609375 72.90625 
L 47.609375 25.390625 
L 58.015625 25.390625 
L 58.015625 17.1875 
L 47.609375 17.1875 
L 47.609375 0 
L 37.796875 0 
L 37.796875 17.1875 
L 4.890625 17.1875 
L 4.890625 26.703125 
z
" id="DejaVuSans-52"/>
      </defs>
      <g transform="translate(13.915 209.394774)scale(0.1 -0.1)">
       <use xlink:href="#DejaVuSans-52"/>
       <use x="63.623047" xlink:href="#DejaVuSans-48"/>
      </g>
     </g>
    </g>
    <g id="ytick_4">
     <g id="line2d_10">
      <g>
       <use style="stroke:#000000;stroke-width:0.8;" x="33.64" xlink:href="#m605999d755" y="178.333333"/>
      </g>
     </g>
     <g id="text_10">
      <!-- 60 -->
      <defs>
       <path d="M 33.015625 40.375 
Q 26.375 40.375 22.484375 35.828125 
Q 18.609375 31.296875 18.609375 23.390625 
Q 18.609375 15.53125 22.484375 10.953125 
Q 26.375 6.390625 33.015625 6.390625 
Q 39.65625 6.390625 43.53125 10.953125 
Q 47.40625 15.53125 47.40625 23.390625 
Q 47.40625 31.296875 43.53125 35.828125 
Q 39.65625 40.375 33.015625 40.375 
z
M 52.59375 71.296875 
L 52.59375 62.3125 
Q 48.875 64.0625 45.09375 64.984375 
Q 41.3125 65.921875 37.59375 65.921875 
Q 27.828125 65.921875 22.671875 59.328125 
Q 17.53125 52.734375 16.796875 39.40625 
Q 19.671875 43.65625 24.015625 45.921875 
Q 28.375 48.1875 33.59375 48.1875 
Q 44.578125 48.1875 50.953125 41.515625 
Q 57.328125 34.859375 57.328125 23.390625 
Q 57.328125 12.15625 50.6875 5.359375 
Q 44.046875 -1.421875 33.015625 -1.421875 
Q 20.359375 -1.421875 13.671875 8.265625 
Q 6.984375 17.96875 6.984375 36.375 
Q 6.984375 53.65625 15.1875 63.9375 
Q 23.390625 74.21875 37.203125 74.21875 
Q 40.921875 74.21875 44.703125 73.484375 
Q 48.484375 72.75 52.59375 71.296875 
z
" id="DejaVuSans-54"/>
      </defs>
      <g transform="translate(13.915 182.132552)scale(0.1 -0.1)">
       <use xlink:href="#DejaVuSans-54"/>
       <use x="63.623047" xlink:href="#DejaVuSans-48"/>
      </g>
     </g>
    </g>
    <g id="ytick_5">
     <g id="line2d_11">
      <g>
       <use style="stroke:#000000;stroke-width:0.8;" x="33.64" xlink:href="#m605999d755" y="151.071111"/>
      </g>
     </g>
     <g id="text_11">
      <!-- 80 -->
      <defs>
       <path d="M 31.78125 34.625 
Q 24.75 34.625 20.71875 30.859375 
Q 16.703125 27.09375 16.703125 20.515625 
Q 16.703125 13.921875 20.71875 10.15625 
Q 24.75 6.390625 31.78125 6.390625 
Q 38.8125 6.390625 42.859375 10.171875 
Q 46.921875 13.96875 46.921875 20.515625 
Q 46.921875 27.09375 42.890625 30.859375 
Q 38.875 34.625 31.78125 34.625 
z
M 21.921875 38.8125 
Q 15.578125 40.375 12.03125 44.71875 
Q 8.5 49.078125 8.5 55.328125 
Q 8.5 64.0625 14.71875 69.140625 
Q 20.953125 74.21875 31.78125 74.21875 
Q 42.671875 74.21875 48.875 69.140625 
Q 55.078125 64.0625 55.078125 55.328125 
Q 55.078125 49.078125 51.53125 44.71875 
Q 48 40.375 41.703125 38.8125 
Q 48.828125 37.15625 52.796875 32.3125 
Q 56.78125 27.484375 56.78125 20.515625 
Q 56.78125 9.90625 50.3125 4.234375 
Q 43.84375 -1.421875 31.78125 -1.421875 
Q 19.734375 -1.421875 13.25 4.234375 
Q 6.78125 9.90625 6.78125 20.515625 
Q 6.78125 27.484375 10.78125 32.3125 
Q 14.796875 37.15625 21.921875 38.8125 
z
M 18.3125 54.390625 
Q 18.3125 48.734375 21.84375 45.5625 
Q 25.390625 42.390625 31.78125 42.390625 
Q 38.140625 42.390625 41.71875 45.5625 
Q 45.3125 48.734375 45.3125 54.390625 
Q 45.3125 60.0625 41.71875 63.234375 
Q 38.140625 66.40625 31.78125 66.40625 
Q 25.390625 66.40625 21.84375 63.234375 
Q 18.3125 60.0625 18.3125 54.390625 
z
" id="DejaVuSans-56"/>
      </defs>
      <g transform="translate(13.915 154.87033)scale(0.1 -0.1)">
       <use xlink:href="#DejaVuSans-56"/>
       <use x="63.623047" xlink:href="#DejaVuSans-48"/>
      </g>
     </g>
    </g>
    <g id="ytick_6">
     <g id="line2d_12">
      <g>
       <use style="stroke:#000000;stroke-width:0.8;" x="33.64" xlink:href="#m605999d755" y="123.808889"/>
      </g>
     </g>
     <g id="text_12">
      <!-- 100 -->
      <defs>
       <path d="M 12.40625 8.296875 
L 28.515625 8.296875 
L 28.515625 63.921875 
L 10.984375 60.40625 
L 10.984375 69.390625 
L 28.421875 72.90625 
L 38.28125 72.90625 
L 38.28125 8.296875 
L 54.390625 8.296875 
L 54.390625 0 
L 12.40625 0 
z
" id="DejaVuSans-49"/>
      </defs>
      <g transform="translate(7.5525 127.608108)scale(0.1 -0.1)">
       <use xlink:href="#DejaVuSans-49"/>
       <use x="63.623047" xlink:href="#DejaVuSans-48"/>
       <use x="127.246094" xlink:href="#DejaVuSans-48"/>
      </g>
     </g>
    </g>
    <g id="ytick_7">
     <g id="line2d_13">
      <g>
       <use style="stroke:#000000;stroke-width:0.8;" x="33.64" xlink:href="#m605999d755" y="96.546667"/>
      </g>
     </g>
     <g id="text_13">
      <!-- 120 -->
      <g transform="translate(7.5525 100.345885)scale(0.1 -0.1)">
       <use xlink:href="#DejaVuSans-49"/>
       <use x="63.623047" xlink:href="#DejaVuSans-50"/>
       <use x="127.246094" xlink:href="#DejaVuSans-48"/>
      </g>
     </g>
    </g>
    <g id="ytick_8">
     <g id="line2d_14">
      <g>
       <use style="stroke:#000000;stroke-width:0.8;" x="33.64" xlink:href="#m605999d755" y="69.284444"/>
      </g>
     </g>
     <g id="text_14">
      <!-- 140 -->
      <g transform="translate(7.5525 73.083663)scale(0.1 -0.1)">
       <use xlink:href="#DejaVuSans-49"/>
       <use x="63.623047" xlink:href="#DejaVuSans-52"/>
       <use x="127.246094" xlink:href="#DejaVuSans-48"/>
      </g>
     </g>
    </g>
    <g id="ytick_9">
     <g id="line2d_15">
      <g>
       <use style="stroke:#000000;stroke-width:0.8;" x="33.64" xlink:href="#m605999d755" y="42.022222"/>
      </g>
     </g>
     <g id="text_15">
      <!-- 160 -->
      <g transform="translate(7.5525 45.821441)scale(0.1 -0.1)">
       <use xlink:href="#DejaVuSans-49"/>
       <use x="63.623047" xlink:href="#DejaVuSans-54"/>
       <use x="127.246094" xlink:href="#DejaVuSans-48"/>
      </g>
     </g>
    </g>
    <g id="ytick_10">
     <g id="line2d_16">
      <g>
       <use style="stroke:#000000;stroke-width:0.8;" x="33.64" xlink:href="#m605999d755" y="14.76"/>
      </g>
     </g>
     <g id="text_16">
      <!-- 180 -->
      <g transform="translate(7.5525 18.559219)scale(0.1 -0.1)">
       <use xlink:href="#DejaVuSans-49"/>
       <use x="63.623047" xlink:href="#DejaVuSans-56"/>
       <use x="127.246094" xlink:href="#DejaVuSans-48"/>
      </g>
     </g>
    </g>
   </g>
   <g id="line2d_17">
    <path clip-path="url(#pe3f41f2784)" d="M 33.64 260.12 
L 94.296544 260.12 
L 95.438481 254.667556 
L 96.579879 254.667556 
L 97.723778 242.399556 
L 98.864472 241.036444 
L 100.005449 230.131556 
L 101.149791 230.131556 
L 102.29489 226.042222 
L 103.436564 224.679111 
L 105.719183 224.679111 
L 108.000943 216.500444 
L 109.141876 216.500444 
L 110.282691 221.952889 
L 111.424173 221.952889 
L 112.564733 231.494667 
L 113.706954 235.584 
L 115.989358 235.584 
L 118.273944 227.405333 
L 119.414712 227.405333 
L 120.555825 231.494667 
L 121.697471 224.679111 
L 122.838141 224.679111 
L 123.978614 227.405333 
L 125.124191 224.679111 
L 126.265919 226.042222 
L 127.407395 226.042222 
L 128.54846 231.494667 
L 129.689881 231.494667 
L 130.830322 230.131556 
L 131.970602 227.405333 
L 133.111675 227.405333 
L 134.254146 226.042222 
L 135.396561 221.952889 
L 136.538795 223.316 
L 137.682163 223.316 
L 138.823819 219.226667 
L 139.965245 216.500444 
L 141.106203 216.500444 
L 142.247464 206.958667 
L 143.389105 208.321778 
L 144.53049 205.595556 
L 145.672574 205.595556 
L 146.813836 198.78 
L 147.954875 198.78 
L 149.096064 197.416889 
L 151.379649 197.416889 
L 152.520568 193.327556 
L 154.802678 159.249778 
L 155.945252 159.249778 
L 157.089289 149.708 
L 158.231569 136.076889 
L 160.515734 136.076889 
L 161.657599 140.166222 
L 162.798685 140.166222 
L 163.941121 141.529333 
L 165.083084 137.44 
L 166.224578 137.44 
L 167.367645 131.987556 
L 168.513188 111.540889 
L 169.655008 116.993333 
L 170.798427 116.993333 
L 171.940626 121.082667 
L 173.085266 126.535111 
L 176.509362 126.535111 
L 177.650468 142.892444 
L 179.932019 153.797333 
L 181.075343 153.797333 
L 182.216411 168.791556 
L 183.358559 179.696444 
L 184.499576 179.696444 
L 185.641399 185.148889 
L 186.783047 193.327556 
L 189.068047 193.327556 
L 190.209813 260.12 
L 252.035941 260.12 
L 253.15903 258.756889 
L 254.303458 258.756889 
L 255.444535 251.941333 
L 256.58558 246.488889 
L 257.729598 246.488889 
L 258.87559 243.762667 
L 260.017566 224.679111 
L 261.160058 216.500444 
L 262.301536 216.500444 
L 263.443383 213.774222 
L 264.584612 213.774222 
L 265.726466 211.048 
L 268.00994 211.048 
L 269.152423 204.232444 
L 270.294787 211.048 
L 272.577138 211.048 
L 274.861768 213.774222 
L 276.005713 213.774222 
L 277.148015 215.137333 
L 278.289626 226.042222 
L 279.431512 226.042222 
L 280.572963 236.947111 
L 281.715966 242.399556 
L 282.8567 242.399556 
L 285.1397 239.673333 
L 286.282162 236.947111 
L 290.852259 236.947111 
L 293.137188 231.494667 
L 294.280391 227.405333 
L 295.422324 227.405333 
L 296.564706 226.042222 
L 297.705735 226.042222 
L 298.847554 220.589778 
L 300.048629 217.863556 
L 301.191735 217.863556 
L 302.334067 211.048 
L 303.475618 197.416889 
L 304.617814 194.690667 
L 305.761353 194.690667 
L 306.906388 183.785778 
L 308.051471 175.607111 
L 309.194994 175.607111 
L 310.338985 151.071111 
L 311.482565 129.261333 
L 312.625324 129.261333 
L 313.766781 121.082667 
L 314.90822 103.362222 
L 316.050034 103.362222 
L 317.192231 93.820444 
L 318.338455 88.368 
L 319.480102 88.368 
L 320.621422 74.736889 
L 321.764867 77.463111 
L 322.909991 73.373778 
L 324.051422 73.373778 
L 325.19346 88.368 
L 326.33664 89.731111 
L 327.478314 89.731111 
L 328.622058 93.820444 
L 329.763603 115.630222 
L 330.90603 115.630222 
L 332.048004 131.987556 
L 333.189399 140.166222 
L 334.330843 140.166222 
L 335.472121 148.344889 
L 337.754037 148.344889 
L 338.897139 157.886667 
L 340.038762 163.339111 
L 341.182325 163.339111 
L 342.323226 168.791556 
L 343.466872 185.148889 
L 344.608192 185.148889 
L 346.898787 204.232444 
L 348.04237 260.12 
L 412.139537 260.12 
L 413.26272 258.756889 
L 414.404204 258.756889 
L 415.546654 241.036444 
L 416.690757 232.857778 
L 417.832936 230.131556 
L 418.974935 230.131556 
L 420.122673 226.042222 
L 422.407663 226.042222 
L 423.552263 224.679111 
L 424.694681 217.863556 
L 425.836996 217.863556 
L 426.979048 219.226667 
L 428.123341 216.500444 
L 429.26677 216.500444 
L 430.408411 219.226667 
L 431.550376 228.768444 
L 436.123858 228.768444 
L 437.265688 231.494667 
L 438.407086 238.310222 
L 439.550685 242.399556 
L 440.694616 242.399556 
L 441.836703 243.762667 
L 442.980003 242.399556 
L 444.121206 242.399556 
L 446.40629 236.947111 
L 447.548203 235.584 
L 448.689472 235.584 
L 449.831841 231.494667 
L 450.973582 231.494667 
L 452.115545 223.316 
L 453.256998 223.316 
L 454.399149 216.500444 
L 455.540996 216.500444 
L 456.684558 219.226667 
L 458.967031 219.226667 
L 460.110764 205.595556 
L 461.25465 204.232444 
L 462.3993 204.232444 
L 464.686641 190.601333 
L 465.827872 182.422667 
L 466.974158 182.422667 
L 468.11648 189.238222 
L 469.257522 189.238222 
L 470.398274 182.422667 
L 471.540332 167.428444 
L 472.681544 167.428444 
L 473.827049 164.702222 
L 474.968082 159.249778 
L 476.109693 151.071111 
L 477.250753 151.071111 
L 478.391995 155.160444 
L 479.535153 144.255556 
L 480.677691 144.255556 
L 481.820398 140.166222 
L 482.962423 126.535111 
L 484.105833 126.535111 
L 485.247793 125.172 
L 486.391316 131.987556 
L 487.5323 131.987556 
L 488.674362 111.540889 
L 489.816079 101.999111 
L 490.958024 97.909778 
L 492.099925 97.909778 
L 493.241298 101.999111 
L 494.383342 101.999111 
L 495.525412 108.814667 
L 497.810452 137.44 
L 498.953159 137.44 
L 500.095376 153.797333 
L 501.239522 159.249778 
L 502.380721 159.249778 
L 503.522635 175.607111 
L 504.665771 187.875111 
L 505.810728 187.875111 
L 506.951858 196.053778 
L 508.093521 209.684889 
L 509.237038 209.684889 
L 510.380367 260.12 
L 573.331657 260.12 
L 574.473283 254.667556 
L 575.614634 254.667556 
L 576.756181 236.947111 
L 577.897674 227.405333 
L 579.038926 224.679111 
L 580.180232 224.679111 
L 581.321386 227.405333 
L 582.462284 227.405333 
L 583.602888 221.952889 
L 584.74448 220.589778 
L 585.887914 217.863556 
L 587.029952 217.863556 
L 588.171569 221.952889 
L 589.312394 220.589778 
L 590.454423 220.589778 
L 591.59495 224.679111 
L 592.735928 231.494667 
L 595.023097 231.494667 
L 596.164327 232.857778 
L 597.305427 232.857778 
L 598.447418 235.584 
L 599.589092 234.220889 
L 600.730066 234.220889 
L 601.870772 235.584 
L 603.011928 238.310222 
L 604.153425 243.762667 
L 607.576935 243.762667 
L 609.860215 238.310222 
L 611.004245 234.220889 
L 612.145329 234.220889 
L 613.286465 232.857778 
L 614.428393 228.768444 
L 618.997313 228.768444 
L 621.282194 226.042222 
L 622.424045 223.316 
L 623.565449 223.316 
L 625.850757 198.78 
L 626.993477 198.78 
L 628.136272 204.232444 
L 629.278992 204.232444 
L 630.422624 201.506222 
L 631.564028 189.238222 
L 632.706008 186.512 
L 633.847312 186.512 
L 636.13042 142.892444 
L 637.273018 142.892444 
L 638.414999 131.987556 
L 639.557486 136.076889 
L 640.699328 136.076889 
L 641.841269 119.719556 
L 642.983329 116.993333 
L 644.125069 116.993333 
L 645.266768 107.451556 
L 646.410036 108.814667 
L 647.552412 108.814667 
L 648.693902 103.362222 
L 649.836098 88.368 
L 650.978971 84.278667 
L 652.121639 84.278667 
L 653.264071 100.636 
L 654.405775 107.451556 
L 655.547322 107.451556 
L 656.688917 122.445778 
L 657.83144 160.612889 
L 658.973185 160.612889 
L 660.115369 163.339111 
L 661.257343 168.791556 
L 662.399001 168.791556 
L 663.541198 190.601333 
L 664.683131 198.78 
L 665.825474 211.048 
L 666.967214 211.048 
L 668.109403 260.12 
L 732.200351 260.12 
L 733.342627 256.030667 
L 734.484635 250.578222 
L 735.626606 250.578222 
L 736.769706 238.310222 
L 737.912938 234.220889 
L 739.057438 234.220889 
L 740.199214 228.768444 
L 741.341289 226.042222 
L 742.484775 220.589778 
L 744.772588 220.589778 
L 745.916608 221.952889 
L 747.057582 221.952889 
L 748.198994 220.589778 
L 751.625414 220.589778 
L 752.766753 223.316 
L 753.908824 223.316 
L 755.051259 224.679111 
L 756.192918 227.405333 
L 757.336404 227.405333 
L 758.478278 220.589778 
L 760.7637 217.863556 
L 761.906942 217.863556 
L 763.052566 215.137333 
L 764.19761 215.137333 
L 765.341305 213.774222 
L 766.482519 211.048 
L 767.62559 213.774222 
L 768.767593 213.774222 
L 771.050419 216.500444 
L 772.190944 216.500444 
L 773.331813 205.595556 
L 774.472928 212.411111 
L 775.614197 213.774222 
L 776.755263 213.774222 
L 777.896185 205.595556 
L 779.039148 205.595556 
L 780.180498 206.958667 
L 781.321199 213.774222 
L 782.462642 197.416889 
L 783.6051 197.416889 
L 784.748285 191.964444 
L 785.889757 183.785778 
L 787.033654 183.785778 
L 788.174977 170.154667 
L 789.315906 178.333333 
L 790.459917 178.333333 
L 791.600969 181.059556 
L 792.743117 166.065333 
L 793.884203 166.065333 
L 795.02816 163.339111 
L 796.171852 156.523556 
L 797.314647 140.166222 
L 798.456199 140.166222 
L 799.597401 145.618667 
L 800.741531 145.618667 
L 801.883345 148.344889 
L 803.027577 146.981778 
L 804.170999 159.249778 
L 805.314905 159.249778 
L 806.456388 156.523556 
L 807.600297 159.249778 
L 808.741449 159.249778 
L 811.02741 170.154667 
L 812.16925 176.970222 
L 813.311577 176.970222 
L 814.453541 179.696444 
L 815.59592 179.696444 
L 816.736817 190.601333 
L 817.878251 197.416889 
L 819.021769 197.416889 
L 820.163477 206.958667 
L 821.30808 215.137333 
L 822.449903 217.863556 
L 823.593348 217.863556 
L 824.735725 221.952889 
L 825.877124 227.405333 
L 827.020312 227.405333 
L 828.161689 260.12 
L 893.383344 260.12 
L 894.524954 258.756889 
L 895.668165 238.310222 
L 896.811109 238.310222 
L 897.955334 221.952889 
L 899.096146 212.411111 
L 900.239064 212.411111 
L 901.3799 208.321778 
L 902.523007 201.506222 
L 903.664092 201.506222 
L 904.807 190.601333 
L 905.950296 181.059556 
L 907.091787 182.422667 
L 908.232769 182.422667 
L 909.373967 179.696444 
L 910.514322 187.875111 
L 911.655681 187.875111 
L 912.796316 197.416889 
L 913.938013 197.416889 
L 915.078393 194.690667 
L 916.218887 197.416889 
L 917.359817 194.690667 
L 918.501187 194.690667 
L 919.642022 197.416889 
L 920.782417 201.506222 
L 921.922969 201.506222 
L 923.064228 200.143111 
L 924.207332 197.416889 
L 925.348238 202.869333 
L 926.489173 202.869333 
L 927.6299 206.958667 
L 928.770335 206.958667 
L 929.910993 194.690667 
L 931.051595 206.958667 
L 932.193583 208.321778 
L 933.334231 208.321778 
L 934.474702 211.048 
L 935.615245 211.048 
L 936.755741 206.958667 
L 937.898828 209.684889 
L 939.039337 209.684889 
L 940.18264 212.411111 
L 941.324369 209.684889 
L 942.465169 211.048 
L 943.608184 211.048 
L 944.749065 205.595556 
L 945.893207 208.321778 
L 947.034308 208.321778 
L 948.174938 212.411111 
L 949.315596 220.589778 
L 950.456325 217.863556 
L 951.596644 217.863556 
L 952.740016 234.220889 
L 953.88057 234.220889 
L 955.021358 236.947111 
L 956.164563 241.036444 
L 957.30551 236.947111 
L 959.591684 236.947111 
L 960.733594 234.220889 
L 961.875769 234.220889 
L 963.01654 230.131556 
L 964.15712 236.947111 
L 965.298386 236.947111 
L 966.441677 235.584 
L 967.582361 231.494667 
L 968.723288 230.131556 
L 973.288846 230.131556 
L 974.429723 228.768444 
L 975.570213 231.494667 
L 976.710757 231.494667 
L 977.851238 230.131556 
L 980.132768 230.131556 
L 981.272986 231.494667 
L 983.555013 231.494667 
L 984.695732 232.857778 
L 986.977364 232.857778 
L 988.11887 260.12 
L 1051.0743 260.12 
L 1052.197458 258.756889 
L 1053.339122 258.756889 
L 1054.479704 236.947111 
L 1055.620469 224.679111 
L 1056.761505 213.774222 
L 1057.902382 213.774222 
L 1060.186966 194.690667 
L 1061.327949 194.690667 
L 1062.468899 178.333333 
L 1063.609932 178.333333 
L 1064.750911 153.797333 
L 1065.891743 144.255556 
L 1067.033313 144.255556 
L 1068.1744 140.166222 
L 1069.315659 134.713778 
L 1070.457083 125.172 
L 1071.60068 125.172 
L 1072.743718 114.267111 
L 1073.884927 119.719556 
L 1075.028485 119.719556 
L 1076.169317 122.445778 
L 1077.310319 126.535111 
L 1078.451342 126.535111 
L 1079.592442 133.350667 
L 1080.735359 131.987556 
L 1081.876141 131.987556 
L 1084.158837 137.44 
L 1086.443081 137.44 
L 1087.585231 133.350667 
L 1088.728284 140.166222 
L 1089.871584 140.166222 
L 1091.014635 134.713778 
L 1092.157954 145.618667 
L 1093.301049 145.618667 
L 1094.442747 142.892444 
L 1096.731116 142.892444 
L 1097.872433 144.255556 
L 1099.013542 136.076889 
L 1100.154443 155.160444 
L 1101.295394 155.160444 
L 1102.436122 146.981778 
L 1105.861453 146.981778 
L 1107.005127 142.892444 
L 1108.146151 142.892444 
L 1109.287685 144.255556 
L 1110.429266 137.44 
L 1111.572271 137.44 
L 1112.715525 145.618667 
L 1113.859006 136.076889 
L 1115.001877 136.076889 
L 1117.286023 130.624444 
L 1118.429384 130.624444 
L 1119.570817 138.803111 
L 1120.712873 145.618667 
L 1121.854146 145.618667 
L 1122.995317 151.071111 
L 1125.285117 151.071111 
L 1126.425936 145.618667 
L 1127.567561 137.44 
L 1128.712549 134.713778 
L 1129.854527 134.713778 
L 1130.996337 140.166222 
L 1132.138109 144.255556 
L 1133.28 144.255556 
L 1133.28 144.255556 
" style="fill:none;stroke:#1f77b4;stroke-linecap:square;stroke-width:1.5;"/>
   </g>
   <g id="patch_3">
    <path d="M 33.64 260.12 
L 33.64 14.76 
" style="fill:none;stroke:#000000;stroke-linecap:square;stroke-linejoin:miter;stroke-width:0.8;"/>
   </g>
   <g id="patch_4">
    <path d="M 1133.28 260.12 
L 1133.28 14.76 
" style="fill:none;stroke:#000000;stroke-linecap:square;stroke-linejoin:miter;stroke-width:0.8;"/>
   </g>
   <g id="patch_5">
    <path d="M 33.64 260.12 
L 1133.28 260.12 
" style="fill:none;stroke:#000000;stroke-linecap:square;stroke-linejoin:miter;stroke-width:0.8;"/>
   </g>
   <g id="patch_6">
    <path d="M 33.64 14.76 
L 1133.28 14.76 
" style="fill:none;stroke:#000000;stroke-linecap:square;stroke-linejoin:miter;stroke-width:0.8;"/>
   </g>
  </g>
 </g>
 <defs>
  <clipPath id="pe3f41f2784">
   <rect height="245.36" width="1099.64" x="33.64" y="14.76"/>
  </clipPath>
 </defs>
</svg>
