<?xml version="1.0" encoding="utf-8" standalone="no"?>
<!DOCTYPE svg PUBLIC "-//W3C//DTD SVG 1.1//EN"
  "http://www.w3.org/Graphics/SVG/1.1/DTD/svg11.dtd">
<!-- Created with matplotlib (https://matplotlib.org/) -->
<svg height="288pt" version="1.1" viewBox="0 0 1152 288" width="1152pt" xmlns="http://www.w3.org/2000/svg" xmlns:xlink="http://www.w3.org/1999/xlink">
 <defs>
  <style type="text/css">
*{stroke-linecap:butt;stroke-linejoin:round;}
  </style>
 </defs>
 <g id="figure_1">
  <g id="patch_1">
   <path d="M 0 288 
L 1152 288 
L 1152 0 
L 0 0 
z
" style="fill:#ffffff;"/>
  </g>
  <g id="axes_1">
   <g id="patch_2">
    <path d="M 33.64 260.12 
L 1133.28 260.12 
L 1133.28 14.76 
L 33.64 14.76 
z
" style="fill:#ffffff;"/>
   </g>
   <g id="matplotlib.axis_1">
    <g id="xtick_1">
     <g id="line2d_1">
      <defs>
       <path d="M 0 0 
L 0 3.5 
" id="m6fdb7d23d3" style="stroke:#000000;stroke-width:0.8;"/>
      </defs>
      <g>
       <use style="stroke:#000000;stroke-width:0.8;" x="191.3951" xlink:href="#m6fdb7d23d3" y="260.12"/>
      </g>
     </g>
     <g id="text_1">
      <!-- Tue 00:00 -->
      <defs>
       <path d="M -0.296875 72.90625 
L 61.375 72.90625 
L 61.375 64.59375 
L 35.5 64.59375 
L 35.5 0 
L 25.59375 0 
L 25.59375 64.59375 
L -0.296875 64.59375 
z
" id="DejaVuSans-84"/>
       <path d="M 8.5 21.578125 
L 8.5 54.6875 
L 17.484375 54.6875 
L 17.484375 21.921875 
Q 17.484375 14.15625 20.5 10.265625 
Q 23.53125 6.390625 29.59375 6.390625 
Q 36.859375 6.390625 41.078125 11.03125 
Q 45.3125 15.671875 45.3125 23.6875 
L 45.3125 54.6875 
L 54.296875 54.6875 
L 54.296875 0 
L 45.3125 0 
L 45.3125 8.40625 
Q 42.046875 3.421875 37.71875 1 
Q 33.40625 -1.421875 27.6875 -1.421875 
Q 18.265625 -1.421875 13.375 4.4375 
Q 8.5 10.296875 8.5 21.578125 
z
M 31.109375 56 
z
" id="DejaVuSans-117"/>
       <path d="M 56.203125 29.59375 
L 56.203125 25.203125 
L 14.890625 25.203125 
Q 15.484375 15.921875 20.484375 11.0625 
Q 25.484375 6.203125 34.421875 6.203125 
Q 39.59375 6.203125 44.453125 7.46875 
Q 49.3125 8.734375 54.109375 11.28125 
L 54.109375 2.78125 
Q 49.265625 0.734375 44.1875 -0.34375 
Q 39.109375 -1.421875 33.890625 -1.421875 
Q 20.796875 -1.421875 13.15625 6.1875 
Q 5.515625 13.8125 5.515625 26.8125 
Q 5.515625 40.234375 12.765625 48.109375 
Q 20.015625 56 32.328125 56 
Q 43.359375 56 49.78125 48.890625 
Q 56.203125 41.796875 56.203125 29.59375 
z
M 47.21875 32.234375 
Q 47.125 39.59375 43.09375 43.984375 
Q 39.0625 48.390625 32.421875 48.390625 
Q 24.90625 48.390625 20.390625 44.140625 
Q 15.875 39.890625 15.1875 32.171875 
z
" id="DejaVuSans-101"/>
       <path id="DejaVuSans-32"/>
       <path d="M 31.78125 66.40625 
Q 24.171875 66.40625 20.328125 58.90625 
Q 16.5 51.421875 16.5 36.375 
Q 16.5 21.390625 20.328125 13.890625 
Q 24.171875 6.390625 31.78125 6.390625 
Q 39.453125 6.390625 43.28125 13.890625 
Q 47.125 21.390625 47.125 36.375 
Q 47.125 51.421875 43.28125 58.90625 
Q 39.453125 66.40625 31.78125 66.40625 
z
M 31.78125 74.21875 
Q 44.046875 74.21875 50.515625 64.515625 
Q 56.984375 54.828125 56.984375 36.375 
Q 56.984375 17.96875 50.515625 8.265625 
Q 44.046875 -1.421875 31.78125 -1.421875 
Q 19.53125 -1.421875 13.0625 8.265625 
Q 6.59375 17.96875 6.59375 36.375 
Q 6.59375 54.828125 13.0625 64.515625 
Q 19.53125 74.21875 31.78125 74.21875 
z
" id="DejaVuSans-48"/>
       <path d="M 11.71875 12.40625 
L 22.015625 12.40625 
L 22.015625 0 
L 11.71875 0 
z
M 11.71875 51.703125 
L 22.015625 51.703125 
L 22.015625 39.3125 
L 11.71875 39.3125 
z
" id="DejaVuSans-58"/>
      </defs>
      <g transform="translate(166.109163 274.718437)scale(0.1 -0.1)">
       <use xlink:href="#DejaVuSans-84"/>
       <use x="60.849609" xlink:href="#DejaVuSans-117"/>
       <use x="124.228516" xlink:href="#DejaVuSans-101"/>
       <use x="185.751953" xlink:href="#DejaVuSans-32"/>
       <use x="217.539062" xlink:href="#DejaVuSans-48"/>
       <use x="281.162109" xlink:href="#DejaVuSans-48"/>
       <use x="344.785156" xlink:href="#DejaVuSans-58"/>
       <use x="378.476562" xlink:href="#DejaVuSans-48"/>
       <use x="442.099609" xlink:href="#DejaVuSans-48"/>
      </g>
     </g>
    </g>
    <g id="xtick_2">
     <g id="line2d_2">
      <g>
       <use style="stroke:#000000;stroke-width:0.8;" x="349.220851" xlink:href="#m6fdb7d23d3" y="260.12"/>
      </g>
     </g>
     <g id="text_2">
      <!-- Wed 00:00 -->
      <defs>
       <path d="M 3.328125 72.90625 
L 13.28125 72.90625 
L 28.609375 11.28125 
L 43.890625 72.90625 
L 54.984375 72.90625 
L 70.3125 11.28125 
L 85.59375 72.90625 
L 95.609375 72.90625 
L 77.296875 0 
L 64.890625 0 
L 49.515625 63.28125 
L 33.984375 0 
L 21.578125 0 
z
" id="DejaVuSans-87"/>
       <path d="M 45.40625 46.390625 
L 45.40625 75.984375 
L 54.390625 75.984375 
L 54.390625 0 
L 45.40625 0 
L 45.40625 8.203125 
Q 42.578125 3.328125 38.25 0.953125 
Q 33.9375 -1.421875 27.875 -1.421875 
Q 17.96875 -1.421875 11.734375 6.484375 
Q 5.515625 14.40625 5.515625 27.296875 
Q 5.515625 40.1875 11.734375 48.09375 
Q 17.96875 56 27.875 56 
Q 33.9375 56 38.25 53.625 
Q 42.578125 51.265625 45.40625 46.390625 
z
M 14.796875 27.296875 
Q 14.796875 17.390625 18.875 11.75 
Q 22.953125 6.109375 30.078125 6.109375 
Q 37.203125 6.109375 41.296875 11.75 
Q 45.40625 17.390625 45.40625 27.296875 
Q 45.40625 37.203125 41.296875 42.84375 
Q 37.203125 48.484375 30.078125 48.484375 
Q 22.953125 48.484375 18.875 42.84375 
Q 14.796875 37.203125 14.796875 27.296875 
z
" id="DejaVuSans-100"/>
      </defs>
      <g transform="translate(322.031788 274.718437)scale(0.1 -0.1)">
       <use xlink:href="#DejaVuSans-87"/>
       <use x="98.798828" xlink:href="#DejaVuSans-101"/>
       <use x="160.322266" xlink:href="#DejaVuSans-100"/>
       <use x="223.798828" xlink:href="#DejaVuSans-32"/>
       <use x="255.585938" xlink:href="#DejaVuSans-48"/>
       <use x="319.208984" xlink:href="#DejaVuSans-48"/>
       <use x="382.832031" xlink:href="#DejaVuSans-58"/>
       <use x="416.523438" xlink:href="#DejaVuSans-48"/>
       <use x="480.146484" xlink:href="#DejaVuSans-48"/>
      </g>
     </g>
    </g>
    <g id="xtick_3">
     <g id="line2d_3">
      <g>
       <use style="stroke:#000000;stroke-width:0.8;" x="507.046601" xlink:href="#m6fdb7d23d3" y="260.12"/>
      </g>
     </g>
     <g id="text_3">
      <!-- Thu 00:00 -->
      <defs>
       <path d="M 54.890625 33.015625 
L 54.890625 0 
L 45.90625 0 
L 45.90625 32.71875 
Q 45.90625 40.484375 42.875 44.328125 
Q 39.84375 48.1875 33.796875 48.1875 
Q 26.515625 48.1875 22.3125 43.546875 
Q 18.109375 38.921875 18.109375 30.90625 
L 18.109375 0 
L 9.078125 0 
L 9.078125 75.984375 
L 18.109375 75.984375 
L 18.109375 46.1875 
Q 21.34375 51.125 25.703125 53.5625 
Q 30.078125 56 35.796875 56 
Q 45.21875 56 50.046875 50.171875 
Q 54.890625 44.34375 54.890625 33.015625 
z
" id="DejaVuSans-104"/>
      </defs>
      <g transform="translate(481.656757 274.718437)scale(0.1 -0.1)">
       <use xlink:href="#DejaVuSans-84"/>
       <use x="61.083984" xlink:href="#DejaVuSans-104"/>
       <use x="124.462891" xlink:href="#DejaVuSans-117"/>
       <use x="187.841797" xlink:href="#DejaVuSans-32"/>
       <use x="219.628906" xlink:href="#DejaVuSans-48"/>
       <use x="283.251953" xlink:href="#DejaVuSans-48"/>
       <use x="346.875" xlink:href="#DejaVuSans-58"/>
       <use x="380.566406" xlink:href="#DejaVuSans-48"/>
       <use x="444.189453" xlink:href="#DejaVuSans-48"/>
      </g>
     </g>
    </g>
    <g id="xtick_4">
     <g id="line2d_4">
      <g>
       <use style="stroke:#000000;stroke-width:0.8;" x="664.872351" xlink:href="#m6fdb7d23d3" y="260.12"/>
      </g>
     </g>
     <g id="text_4">
      <!-- Fri 00:00 -->
      <defs>
       <path d="M 9.8125 72.90625 
L 51.703125 72.90625 
L 51.703125 64.59375 
L 19.671875 64.59375 
L 19.671875 43.109375 
L 48.578125 43.109375 
L 48.578125 34.8125 
L 19.671875 34.8125 
L 19.671875 0 
L 9.8125 0 
z
" id="DejaVuSans-70"/>
       <path d="M 41.109375 46.296875 
Q 39.59375 47.171875 37.8125 47.578125 
Q 36.03125 48 33.890625 48 
Q 26.265625 48 22.1875 43.046875 
Q 18.109375 38.09375 18.109375 28.8125 
L 18.109375 0 
L 9.078125 0 
L 9.078125 54.6875 
L 18.109375 54.6875 
L 18.109375 46.1875 
Q 20.953125 51.171875 25.484375 53.578125 
Q 30.03125 56 36.53125 56 
Q 37.453125 56 38.578125 55.875 
Q 39.703125 55.765625 41.0625 55.515625 
z
" id="DejaVuSans-114"/>
       <path d="M 9.421875 54.6875 
L 18.40625 54.6875 
L 18.40625 0 
L 9.421875 0 
z
M 9.421875 75.984375 
L 18.40625 75.984375 
L 18.40625 64.59375 
L 9.421875 64.59375 
z
" id="DejaVuSans-105"/>
      </defs>
      <g transform="translate(642.55907 274.718437)scale(0.1 -0.1)">
       <use xlink:href="#DejaVuSans-70"/>
       <use x="57.410156" xlink:href="#DejaVuSans-114"/>
       <use x="98.523438" xlink:href="#DejaVuSans-105"/>
       <use x="126.306641" xlink:href="#DejaVuSans-32"/>
       <use x="158.09375" xlink:href="#DejaVuSans-48"/>
       <use x="221.716797" xlink:href="#DejaVuSans-48"/>
       <use x="285.339844" xlink:href="#DejaVuSans-58"/>
       <use x="319.03125" xlink:href="#DejaVuSans-48"/>
       <use x="382.654297" xlink:href="#DejaVuSans-48"/>
      </g>
     </g>
    </g>
    <g id="xtick_5">
     <g id="line2d_5">
      <g>
       <use style="stroke:#000000;stroke-width:0.8;" x="822.698101" xlink:href="#m6fdb7d23d3" y="260.12"/>
      </g>
     </g>
     <g id="text_5">
      <!-- Sat 00:00 -->
      <defs>
       <path d="M 53.515625 70.515625 
L 53.515625 60.890625 
Q 47.90625 63.578125 42.921875 64.890625 
Q 37.9375 66.21875 33.296875 66.21875 
Q 25.25 66.21875 20.875 63.09375 
Q 16.5 59.96875 16.5 54.203125 
Q 16.5 49.359375 19.40625 46.890625 
Q 22.3125 44.4375 30.421875 42.921875 
L 36.375 41.703125 
Q 47.40625 39.59375 52.65625 34.296875 
Q 57.90625 29 57.90625 20.125 
Q 57.90625 9.515625 50.796875 4.046875 
Q 43.703125 -1.421875 29.984375 -1.421875 
Q 24.8125 -1.421875 18.96875 -0.25 
Q 13.140625 0.921875 6.890625 3.21875 
L 6.890625 13.375 
Q 12.890625 10.015625 18.65625 8.296875 
Q 24.421875 6.59375 29.984375 6.59375 
Q 38.421875 6.59375 43.015625 9.90625 
Q 47.609375 13.234375 47.609375 19.390625 
Q 47.609375 24.75 44.3125 27.78125 
Q 41.015625 30.8125 33.5 32.328125 
L 27.484375 33.5 
Q 16.453125 35.6875 11.515625 40.375 
Q 6.59375 45.0625 6.59375 53.421875 
Q 6.59375 63.09375 13.40625 68.65625 
Q 20.21875 74.21875 32.171875 74.21875 
Q 37.3125 74.21875 42.625 73.28125 
Q 47.953125 72.359375 53.515625 70.515625 
z
" id="DejaVuSans-83"/>
       <path d="M 34.28125 27.484375 
Q 23.390625 27.484375 19.1875 25 
Q 14.984375 22.515625 14.984375 16.5 
Q 14.984375 11.71875 18.140625 8.90625 
Q 21.296875 6.109375 26.703125 6.109375 
Q 34.1875 6.109375 38.703125 11.40625 
Q 43.21875 16.703125 43.21875 25.484375 
L 43.21875 27.484375 
z
M 52.203125 31.203125 
L 52.203125 0 
L 43.21875 0 
L 43.21875 8.296875 
Q 40.140625 3.328125 35.546875 0.953125 
Q 30.953125 -1.421875 24.3125 -1.421875 
Q 15.921875 -1.421875 10.953125 3.296875 
Q 6 8.015625 6 15.921875 
Q 6 25.140625 12.171875 29.828125 
Q 18.359375 34.515625 30.609375 34.515625 
L 43.21875 34.515625 
L 43.21875 35.40625 
Q 43.21875 41.609375 39.140625 45 
Q 35.0625 48.390625 27.6875 48.390625 
Q 23 48.390625 18.546875 47.265625 
Q 14.109375 46.140625 10.015625 43.890625 
L 10.015625 52.203125 
Q 14.9375 54.109375 19.578125 55.046875 
Q 24.21875 56 28.609375 56 
Q 40.484375 56 46.34375 49.84375 
Q 52.203125 43.703125 52.203125 31.203125 
z
" id="DejaVuSans-97"/>
       <path d="M 18.3125 70.21875 
L 18.3125 54.6875 
L 36.8125 54.6875 
L 36.8125 47.703125 
L 18.3125 47.703125 
L 18.3125 18.015625 
Q 18.3125 11.328125 20.140625 9.421875 
Q 21.96875 7.515625 27.59375 7.515625 
L 36.8125 7.515625 
L 36.8125 0 
L 27.59375 0 
Q 17.1875 0 13.234375 3.875 
Q 9.28125 7.765625 9.28125 18.015625 
L 9.28125 47.703125 
L 2.6875 47.703125 
L 2.6875 54.6875 
L 9.28125 54.6875 
L 9.28125 70.21875 
z
" id="DejaVuSans-116"/>
      </defs>
      <g transform="translate(798.501226 274.718437)scale(0.1 -0.1)">
       <use xlink:href="#DejaVuSans-83"/>
       <use x="63.476562" xlink:href="#DejaVuSans-97"/>
       <use x="124.755859" xlink:href="#DejaVuSans-116"/>
       <use x="163.964844" xlink:href="#DejaVuSans-32"/>
       <use x="195.751953" xlink:href="#DejaVuSans-48"/>
       <use x="259.375" xlink:href="#DejaVuSans-48"/>
       <use x="322.998047" xlink:href="#DejaVuSans-58"/>
       <use x="356.689453" xlink:href="#DejaVuSans-48"/>
       <use x="420.3125" xlink:href="#DejaVuSans-48"/>
      </g>
     </g>
    </g>
    <g id="xtick_6">
     <g id="line2d_6">
      <g>
       <use style="stroke:#000000;stroke-width:0.8;" x="980.523852" xlink:href="#m6fdb7d23d3" y="260.12"/>
      </g>
     </g>
     <g id="text_6">
      <!-- Sun 00:00 -->
      <defs>
       <path d="M 54.890625 33.015625 
L 54.890625 0 
L 45.90625 0 
L 45.90625 32.71875 
Q 45.90625 40.484375 42.875 44.328125 
Q 39.84375 48.1875 33.796875 48.1875 
Q 26.515625 48.1875 22.3125 43.546875 
Q 18.109375 38.921875 18.109375 30.90625 
L 18.109375 0 
L 9.078125 0 
L 9.078125 54.6875 
L 18.109375 54.6875 
L 18.109375 46.1875 
Q 21.34375 51.125 25.703125 53.5625 
Q 30.078125 56 35.796875 56 
Q 45.21875 56 50.046875 50.171875 
Q 54.890625 44.34375 54.890625 33.015625 
z
" id="DejaVuSans-110"/>
      </defs>
      <g transform="translate(955.013695 274.718437)scale(0.1 -0.1)">
       <use xlink:href="#DejaVuSans-83"/>
       <use x="63.476562" xlink:href="#DejaVuSans-117"/>
       <use x="126.855469" xlink:href="#DejaVuSans-110"/>
       <use x="190.234375" xlink:href="#DejaVuSans-32"/>
       <use x="222.021484" xlink:href="#DejaVuSans-48"/>
       <use x="285.644531" xlink:href="#DejaVuSans-48"/>
       <use x="349.267578" xlink:href="#DejaVuSans-58"/>
       <use x="382.958984" xlink:href="#DejaVuSans-48"/>
       <use x="446.582031" xlink:href="#DejaVuSans-48"/>
      </g>
     </g>
    </g>
   </g>
   <g id="matplotlib.axis_2">
    <g id="ytick_1">
     <g id="line2d_7">
      <defs>
       <path d="M 0 0 
L -3.5 0 
" id="m556c029bac" style="stroke:#000000;stroke-width:0.8;"/>
      </defs>
      <g>
       <use style="stroke:#000000;stroke-width:0.8;" x="33.64" xlink:href="#m556c029bac" y="260.12"/>
      </g>
     </g>
     <g id="text_7">
      <!-- 0 -->
      <g transform="translate(20.2775 263.919219)scale(0.1 -0.1)">
       <use xlink:href="#DejaVuSans-48"/>
      </g>
     </g>
    </g>
    <g id="ytick_2">
     <g id="line2d_8">
      <g>
       <use style="stroke:#000000;stroke-width:0.8;" x="33.64" xlink:href="#m556c029bac" y="232.857778"/>
      </g>
     </g>
     <g id="text_8">
      <!-- 20 -->
      <defs>
       <path d="M 19.1875 8.296875 
L 53.609375 8.296875 
L 53.609375 0 
L 7.328125 0 
L 7.328125 8.296875 
Q 12.9375 14.109375 22.625 23.890625 
Q 32.328125 33.6875 34.8125 36.53125 
Q 39.546875 41.84375 41.421875 45.53125 
Q 43.3125 49.21875 43.3125 52.78125 
Q 43.3125 58.59375 39.234375 62.25 
Q 35.15625 65.921875 28.609375 65.921875 
Q 23.96875 65.921875 18.8125 64.3125 
Q 13.671875 62.703125 7.8125 59.421875 
L 7.8125 69.390625 
Q 13.765625 71.78125 18.9375 73 
Q 24.125 74.21875 28.421875 74.21875 
Q 39.75 74.21875 46.484375 68.546875 
Q 53.21875 62.890625 53.21875 53.421875 
Q 53.21875 48.921875 51.53125 44.890625 
Q 49.859375 40.875 45.40625 35.40625 
Q 44.1875 33.984375 37.640625 27.21875 
Q 31.109375 20.453125 19.1875 8.296875 
z
" id="DejaVuSans-50"/>
      </defs>
      <g transform="translate(13.915 236.656997)scale(0.1 -0.1)">
       <use xlink:href="#DejaVuSans-50"/>
       <use x="63.623047" xlink:href="#DejaVuSans-48"/>
      </g>
     </g>
    </g>
    <g id="ytick_3">
     <g id="line2d_9">
      <g>
       <use style="stroke:#000000;stroke-width:0.8;" x="33.64" xlink:href="#m556c029bac" y="205.595556"/>
      </g>
     </g>
     <g id="text_9">
      <!-- 40 -->
      <defs>
       <path d="M 37.796875 64.3125 
L 12.890625 25.390625 
L 37.796875 25.390625 
z
M 35.203125 72.90625 
L 47.609375 72.90625 
L 47.609375 25.390625 
L 58.015625 25.390625 
L 58.015625 17.1875 
L 47.609375 17.1875 
L 47.609375 0 
L 37.796875 0 
L 37.796875 17.1875 
L 4.890625 17.1875 
L 4.890625 26.703125 
z
" id="DejaVuSans-52"/>
      </defs>
      <g transform="translate(13.915 209.394774)scale(0.1 -0.1)">
       <use xlink:href="#DejaVuSans-52"/>
       <use x="63.623047" xlink:href="#DejaVuSans-48"/>
      </g>
     </g>
    </g>
    <g id="ytick_4">
     <g id="line2d_10">
      <g>
       <use style="stroke:#000000;stroke-width:0.8;" x="33.64" xlink:href="#m556c029bac" y="178.333333"/>
      </g>
     </g>
     <g id="text_10">
      <!-- 60 -->
      <defs>
       <path d="M 33.015625 40.375 
Q 26.375 40.375 22.484375 35.828125 
Q 18.609375 31.296875 18.609375 23.390625 
Q 18.609375 15.53125 22.484375 10.953125 
Q 26.375 6.390625 33.015625 6.390625 
Q 39.65625 6.390625 43.53125 10.953125 
Q 47.40625 15.53125 47.40625 23.390625 
Q 47.40625 31.296875 43.53125 35.828125 
Q 39.65625 40.375 33.015625 40.375 
z
M 52.59375 71.296875 
L 52.59375 62.3125 
Q 48.875 64.0625 45.09375 64.984375 
Q 41.3125 65.921875 37.59375 65.921875 
Q 27.828125 65.921875 22.671875 59.328125 
Q 17.53125 52.734375 16.796875 39.40625 
Q 19.671875 43.65625 24.015625 45.921875 
Q 28.375 48.1875 33.59375 48.1875 
Q 44.578125 48.1875 50.953125 41.515625 
Q 57.328125 34.859375 57.328125 23.390625 
Q 57.328125 12.15625 50.6875 5.359375 
Q 44.046875 -1.421875 33.015625 -1.421875 
Q 20.359375 -1.421875 13.671875 8.265625 
Q 6.984375 17.96875 6.984375 36.375 
Q 6.984375 53.65625 15.1875 63.9375 
Q 23.390625 74.21875 37.203125 74.21875 
Q 40.921875 74.21875 44.703125 73.484375 
Q 48.484375 72.75 52.59375 71.296875 
z
" id="DejaVuSans-54"/>
      </defs>
      <g transform="translate(13.915 182.132552)scale(0.1 -0.1)">
       <use xlink:href="#DejaVuSans-54"/>
       <use x="63.623047" xlink:href="#DejaVuSans-48"/>
      </g>
     </g>
    </g>
    <g id="ytick_5">
     <g id="line2d_11">
      <g>
       <use style="stroke:#000000;stroke-width:0.8;" x="33.64" xlink:href="#m556c029bac" y="151.071111"/>
      </g>
     </g>
     <g id="text_11">
      <!-- 80 -->
      <defs>
       <path d="M 31.78125 34.625 
Q 24.75 34.625 20.71875 30.859375 
Q 16.703125 27.09375 16.703125 20.515625 
Q 16.703125 13.921875 20.71875 10.15625 
Q 24.75 6.390625 31.78125 6.390625 
Q 38.8125 6.390625 42.859375 10.171875 
Q 46.921875 13.96875 46.921875 20.515625 
Q 46.921875 27.09375 42.890625 30.859375 
Q 38.875 34.625 31.78125 34.625 
z
M 21.921875 38.8125 
Q 15.578125 40.375 12.03125 44.71875 
Q 8.5 49.078125 8.5 55.328125 
Q 8.5 64.0625 14.71875 69.140625 
Q 20.953125 74.21875 31.78125 74.21875 
Q 42.671875 74.21875 48.875 69.140625 
Q 55.078125 64.0625 55.078125 55.328125 
Q 55.078125 49.078125 51.53125 44.71875 
Q 48 40.375 41.703125 38.8125 
Q 48.828125 37.15625 52.796875 32.3125 
Q 56.78125 27.484375 56.78125 20.515625 
Q 56.78125 9.90625 50.3125 4.234375 
Q 43.84375 -1.421875 31.78125 -1.421875 
Q 19.734375 -1.421875 13.25 4.234375 
Q 6.78125 9.90625 6.78125 20.515625 
Q 6.78125 27.484375 10.78125 32.3125 
Q 14.796875 37.15625 21.921875 38.8125 
z
M 18.3125 54.390625 
Q 18.3125 48.734375 21.84375 45.5625 
Q 25.390625 42.390625 31.78125 42.390625 
Q 38.140625 42.390625 41.71875 45.5625 
Q 45.3125 48.734375 45.3125 54.390625 
Q 45.3125 60.0625 41.71875 63.234375 
Q 38.140625 66.40625 31.78125 66.40625 
Q 25.390625 66.40625 21.84375 63.234375 
Q 18.3125 60.0625 18.3125 54.390625 
z
" id="DejaVuSans-56"/>
      </defs>
      <g transform="translate(13.915 154.87033)scale(0.1 -0.1)">
       <use xlink:href="#DejaVuSans-56"/>
       <use x="63.623047" xlink:href="#DejaVuSans-48"/>
      </g>
     </g>
    </g>
    <g id="ytick_6">
     <g id="line2d_12">
      <g>
       <use style="stroke:#000000;stroke-width:0.8;" x="33.64" xlink:href="#m556c029bac" y="123.808889"/>
      </g>
     </g>
     <g id="text_12">
      <!-- 100 -->
      <defs>
       <path d="M 12.40625 8.296875 
L 28.515625 8.296875 
L 28.515625 63.921875 
L 10.984375 60.40625 
L 10.984375 69.390625 
L 28.421875 72.90625 
L 38.28125 72.90625 
L 38.28125 8.296875 
L 54.390625 8.296875 
L 54.390625 0 
L 12.40625 0 
z
" id="DejaVuSans-49"/>
      </defs>
      <g transform="translate(7.5525 127.608108)scale(0.1 -0.1)">
       <use xlink:href="#DejaVuSans-49"/>
       <use x="63.623047" xlink:href="#DejaVuSans-48"/>
       <use x="127.246094" xlink:href="#DejaVuSans-48"/>
      </g>
     </g>
    </g>
    <g id="ytick_7">
     <g id="line2d_13">
      <g>
       <use style="stroke:#000000;stroke-width:0.8;" x="33.64" xlink:href="#m556c029bac" y="96.546667"/>
      </g>
     </g>
     <g id="text_13">
      <!-- 120 -->
      <g transform="translate(7.5525 100.345885)scale(0.1 -0.1)">
       <use xlink:href="#DejaVuSans-49"/>
       <use x="63.623047" xlink:href="#DejaVuSans-50"/>
       <use x="127.246094" xlink:href="#DejaVuSans-48"/>
      </g>
     </g>
    </g>
    <g id="ytick_8">
     <g id="line2d_14">
      <g>
       <use style="stroke:#000000;stroke-width:0.8;" x="33.64" xlink:href="#m556c029bac" y="69.284444"/>
      </g>
     </g>
     <g id="text_14">
      <!-- 140 -->
      <g transform="translate(7.5525 73.083663)scale(0.1 -0.1)">
       <use xlink:href="#DejaVuSans-49"/>
       <use x="63.623047" xlink:href="#DejaVuSans-52"/>
       <use x="127.246094" xlink:href="#DejaVuSans-48"/>
      </g>
     </g>
    </g>
    <g id="ytick_9">
     <g id="line2d_15">
      <g>
       <use style="stroke:#000000;stroke-width:0.8;" x="33.64" xlink:href="#m556c029bac" y="42.022222"/>
      </g>
     </g>
     <g id="text_15">
      <!-- 160 -->
      <g transform="translate(7.5525 45.821441)scale(0.1 -0.1)">
       <use xlink:href="#DejaVuSans-49"/>
       <use x="63.623047" xlink:href="#DejaVuSans-54"/>
       <use x="127.246094" xlink:href="#DejaVuSans-48"/>
      </g>
     </g>
    </g>
    <g id="ytick_10">
     <g id="line2d_16">
      <g>
       <use style="stroke:#000000;stroke-width:0.8;" x="33.64" xlink:href="#m556c029bac" y="14.76"/>
      </g>
     </g>
     <g id="text_16">
      <!-- 180 -->
      <g transform="translate(7.5525 18.559219)scale(0.1 -0.1)">
       <use xlink:href="#DejaVuSans-49"/>
       <use x="63.623047" xlink:href="#DejaVuSans-56"/>
       <use x="127.246094" xlink:href="#DejaVuSans-48"/>
      </g>
     </g>
    </g>
   </g>
   <g id="line2d_17">
    <path clip-path="url(#pffd90b1087)" d="M 33.64 260.12 
L 92.417531 260.12 
L 93.526458 257.393778 
L 94.65711 257.393778 
L 95.784111 253.304444 
L 96.910914 251.941333 
L 98.040344 249.215111 
L 99.168311 249.215111 
L 100.297868 246.488889 
L 101.425946 242.399556 
L 102.553314 242.399556 
L 103.681246 236.947111 
L 104.810608 235.584 
L 105.939295 235.584 
L 107.068741 232.857778 
L 108.195603 228.768444 
L 110.451216 228.768444 
L 111.578253 224.679111 
L 112.706508 221.952889 
L 113.834773 221.952889 
L 114.965065 219.226667 
L 116.093483 219.226667 
L 117.222697 221.952889 
L 118.349474 228.768444 
L 120.602871 228.768444 
L 122.856838 239.673333 
L 123.987468 239.673333 
L 125.116108 238.310222 
L 126.245745 235.584 
L 127.372515 235.584 
L 128.499379 227.405333 
L 129.625914 226.042222 
L 130.753243 223.316 
L 131.880041 223.316 
L 133.009213 221.952889 
L 135.263844 221.952889 
L 136.392846 209.684889 
L 137.519649 209.684889 
L 138.647532 208.321778 
L 139.774781 198.78 
L 140.904686 197.416889 
L 142.031894 197.416889 
L 143.159064 191.964444 
L 145.413766 191.964444 
L 146.543176 187.875111 
L 147.670052 189.238222 
L 148.797218 189.238222 
L 149.924287 174.244 
L 151.051812 166.065333 
L 152.179837 166.065333 
L 153.308995 141.529333 
L 154.438741 126.535111 
L 155.567251 126.535111 
L 158.954538 63.832 
L 160.084144 63.832 
L 161.21344 61.105778 
L 162.342599 61.105778 
L 163.472146 57.016444 
L 164.602495 76.1 
L 165.732624 84.278667 
L 166.862255 84.278667 
L 167.989929 87.004889 
L 170.244387 87.004889 
L 171.372221 92.457333 
L 172.49957 100.636 
L 173.628753 101.999111 
L 174.757957 101.999111 
L 175.885271 116.993333 
L 177.012804 116.993333 
L 178.140885 133.350667 
L 179.268585 157.886667 
L 180.39649 166.065333 
L 181.524779 166.065333 
L 182.652112 176.970222 
L 183.779835 190.601333 
L 186.037467 190.601333 
L 187.165513 260.12 
L 250.454185 260.12 
L 251.563135 258.756889 
L 252.690968 245.125778 
L 253.81813 245.125778 
L 254.944625 236.947111 
L 256.074481 236.947111 
L 257.201836 232.857778 
L 258.329003 227.405333 
L 259.456138 227.405333 
L 260.584414 224.679111 
L 261.713145 223.316 
L 265.098951 223.316 
L 266.226068 227.405333 
L 267.355801 227.405333 
L 268.487794 234.220889 
L 269.614924 235.584 
L 271.873033 235.584 
L 273.002379 232.857778 
L 274.130874 232.857778 
L 275.257751 228.768444 
L 276.384898 234.220889 
L 277.511435 231.494667 
L 278.641927 231.494667 
L 279.768829 232.857778 
L 280.895695 230.131556 
L 282.022942 230.131556 
L 283.149974 228.768444 
L 285.40601 215.137333 
L 286.533671 215.137333 
L 287.661237 204.232444 
L 288.788271 204.232444 
L 289.916072 208.321778 
L 291.042996 204.232444 
L 292.169718 204.232444 
L 293.296483 202.869333 
L 294.423259 206.958667 
L 295.552285 206.958667 
L 296.688469 201.506222 
L 297.817094 202.869333 
L 298.944198 193.327556 
L 300.07177 193.327556 
L 301.200145 179.696444 
L 302.329858 168.791556 
L 303.458035 168.791556 
L 304.588048 152.434222 
L 305.717907 130.624444 
L 306.844562 121.082667 
L 307.972836 121.082667 
L 309.100071 104.725333 
L 310.227832 99.272889 
L 311.355287 99.272889 
L 312.483379 82.915556 
L 313.612385 82.915556 
L 314.739718 69.284444 
L 315.868042 63.832 
L 316.995973 51.564 
L 318.123956 51.564 
L 319.251202 58.379556 
L 320.379211 37.932889 
L 321.508146 37.932889 
L 322.635181 46.111556 
L 323.763046 32.480444 
L 324.890907 32.480444 
L 326.018748 36.569778 
L 327.145549 31.117333 
L 328.273562 31.117333 
L 329.401628 29.754222 
L 330.531023 44.748444 
L 331.658859 63.832 
L 332.786936 63.832 
L 335.044483 92.457333 
L 336.171769 92.457333 
L 337.299299 101.999111 
L 338.427128 108.814667 
L 339.554598 108.814667 
L 340.68318 134.713778 
L 341.8112 136.076889 
L 342.938695 136.076889 
L 344.066844 142.892444 
L 345.194649 260.12 
L 408.482694 260.12 
L 409.610075 258.756889 
L 410.737418 246.488889 
L 411.866616 246.488889 
L 412.993389 235.584 
L 414.120615 228.768444 
L 415.248451 220.589778 
L 416.375549 220.589778 
L 417.503686 215.137333 
L 418.6328 215.137333 
L 420.889524 204.232444 
L 422.018735 211.048 
L 423.146802 211.048 
L 425.402853 205.595556 
L 426.530408 205.595556 
L 427.658389 211.048 
L 428.786332 211.048 
L 429.915659 224.679111 
L 431.043054 224.679111 
L 432.170904 220.589778 
L 433.298457 220.589778 
L 434.430155 223.316 
L 435.557618 221.952889 
L 436.687403 221.952889 
L 437.816235 227.405333 
L 438.944057 223.316 
L 440.071885 223.316 
L 442.330338 215.137333 
L 443.459268 215.137333 
L 444.588452 212.411111 
L 445.716632 211.048 
L 446.844661 205.595556 
L 447.97224 205.595556 
L 449.100748 201.506222 
L 450.228431 200.143111 
L 451.356076 200.143111 
L 452.484006 197.416889 
L 453.612102 198.78 
L 454.740151 198.78 
L 455.867953 189.238222 
L 456.995724 183.785778 
L 458.124214 174.244 
L 459.251073 175.607111 
L 460.383031 172.880889 
L 461.511303 172.880889 
L 462.640025 167.428444 
L 463.771172 152.434222 
L 464.898347 144.255556 
L 466.025383 144.255556 
L 467.153345 121.082667 
L 468.28175 103.362222 
L 469.410086 103.362222 
L 470.540177 76.1 
L 471.667853 54.290222 
L 472.79444 54.290222 
L 473.921475 35.206667 
L 475.051782 32.480444 
L 476.178877 32.480444 
L 477.30613 28.391111 
L 478.435193 39.296 
L 479.565004 39.296 
L 480.691686 40.659111 
L 481.821147 54.290222 
L 482.953906 63.832 
L 484.082229 63.832 
L 486.340956 108.814667 
L 487.471243 108.814667 
L 488.600414 126.535111 
L 489.728833 141.529333 
L 490.857027 160.612889 
L 491.985263 160.612889 
L 493.112779 172.880889 
L 494.240772 172.880889 
L 495.370352 189.238222 
L 497.62735 200.143111 
L 498.75567 200.143111 
L 499.884341 201.506222 
L 504.395925 201.506222 
L 505.524559 260.12 
L 565.457637 260.12 
L 566.566878 257.393778 
L 567.694375 257.393778 
L 568.82387 249.215111 
L 569.950833 249.215111 
L 571.077467 247.852 
L 572.204103 239.673333 
L 574.458688 239.673333 
L 576.715424 234.220889 
L 577.842343 234.220889 
L 578.969601 238.310222 
L 580.097102 239.673333 
L 581.223701 239.673333 
L 583.478256 236.947111 
L 584.605331 236.947111 
L 585.732852 235.584 
L 586.860219 231.494667 
L 587.986831 232.857778 
L 590.244133 232.857778 
L 591.370981 234.220889 
L 592.499098 234.220889 
L 593.625825 227.405333 
L 594.753441 223.316 
L 595.880604 223.316 
L 597.009963 217.863556 
L 599.264715 217.863556 
L 600.392001 215.137333 
L 601.520218 217.863556 
L 602.649812 217.863556 
L 603.777655 228.768444 
L 604.907471 226.042222 
L 606.036609 219.226667 
L 607.16384 219.226667 
L 608.291788 215.137333 
L 609.421166 209.684889 
L 610.549772 209.684889 
L 611.677221 206.958667 
L 612.808616 206.958667 
L 613.93794 201.506222 
L 615.06548 204.232444 
L 616.19481 190.601333 
L 617.322381 190.601333 
L 618.450261 171.517778 
L 619.578785 161.976 
L 620.707716 161.976 
L 621.837002 144.255556 
L 622.965292 122.445778 
L 624.094554 122.445778 
L 625.222355 100.636 
L 626.350268 101.999111 
L 627.47824 91.094222 
L 628.607367 91.094222 
L 629.734951 88.368 
L 630.862726 72.010667 
L 631.990595 72.010667 
L 633.118591 50.200889 
L 634.246857 35.206667 
L 635.374959 35.206667 
L 636.502917 40.659111 
L 637.630646 31.117333 
L 638.758806 31.117333 
L 639.886965 39.296 
L 641.015444 50.200889 
L 642.142827 50.200889 
L 643.270758 51.564 
L 645.526646 67.921333 
L 648.909756 67.921333 
L 650.037918 87.004889 
L 651.16641 96.546667 
L 652.294995 96.546667 
L 653.422637 127.898222 
L 654.550276 146.981778 
L 655.679679 163.339111 
L 656.807444 163.339111 
L 657.935345 168.791556 
L 659.063728 176.970222 
L 660.191977 179.696444 
L 663.575483 179.696444 
L 664.703235 260.12 
L 723.528062 260.12 
L 724.636672 257.393778 
L 725.764108 257.393778 
L 726.890927 243.762667 
L 728.018216 223.316 
L 729.14751 216.500444 
L 730.27449 216.500444 
L 731.403834 208.321778 
L 733.660773 208.321778 
L 734.789956 197.416889 
L 737.048708 197.416889 
L 738.178866 193.327556 
L 741.562175 193.327556 
L 742.690224 189.238222 
L 743.818642 189.238222 
L 744.946799 191.964444 
L 746.074566 198.78 
L 747.202347 198.78 
L 748.330338 194.690667 
L 751.71371 194.690667 
L 752.840304 196.053778 
L 753.96795 196.053778 
L 755.096214 190.601333 
L 756.22335 200.143111 
L 757.35131 200.143111 
L 759.605515 202.869333 
L 760.732881 196.053778 
L 761.860656 196.053778 
L 762.988253 194.690667 
L 764.116065 197.416889 
L 765.244694 197.416889 
L 766.373834 190.601333 
L 767.502248 194.690667 
L 768.630181 194.690667 
L 769.758079 186.512 
L 770.886446 185.148889 
L 772.013209 185.148889 
L 773.140115 189.238222 
L 774.269477 182.422667 
L 775.396556 174.244 
L 776.524248 174.244 
L 777.651531 191.964444 
L 778.77939 191.964444 
L 779.907425 181.059556 
L 782.163627 146.981778 
L 783.293386 146.981778 
L 784.421007 133.350667 
L 785.548952 130.624444 
L 786.676047 130.624444 
L 787.803365 140.166222 
L 788.930851 137.44 
L 790.06001 131.987556 
L 791.187723 131.987556 
L 792.31482 123.808889 
L 793.444407 123.808889 
L 794.573961 108.814667 
L 795.701931 101.999111 
L 796.828877 97.909778 
L 797.959259 97.909778 
L 799.086941 96.546667 
L 800.213786 96.546667 
L 801.341141 95.183556 
L 802.468886 104.725333 
L 803.596045 119.719556 
L 804.723081 119.719556 
L 805.850478 121.082667 
L 806.977462 123.808889 
L 808.104113 123.808889 
L 809.231441 134.713778 
L 810.35828 140.166222 
L 811.4857 140.166222 
L 812.612801 155.160444 
L 813.73969 161.976 
L 814.86956 161.976 
L 815.996831 163.339111 
L 817.126227 167.428444 
L 818.255995 167.428444 
L 819.386099 179.696444 
L 820.515897 260.12 
L 883.779333 260.12 
L 884.905804 250.578222 
L 886.032836 246.488889 
L 887.161785 238.310222 
L 888.290817 238.310222 
L 890.544659 224.679111 
L 891.672686 224.679111 
L 892.79942 220.589778 
L 893.926696 211.048 
L 895.053948 211.048 
L 896.181027 206.958667 
L 897.307596 200.143111 
L 898.434165 200.143111 
L 899.56083 191.964444 
L 900.687281 186.512 
L 901.813511 186.512 
L 904.067403 178.333333 
L 905.19434 171.517778 
L 906.320882 171.517778 
L 907.449728 164.702222 
L 908.576017 164.702222 
L 909.704807 163.339111 
L 910.832313 151.071111 
L 911.960468 153.797333 
L 913.087815 153.797333 
L 914.214296 148.344889 
L 915.343224 146.981778 
L 916.47231 146.981778 
L 917.599406 149.708 
L 918.728407 153.797333 
L 919.854664 166.065333 
L 920.981769 166.065333 
L 922.108531 171.517778 
L 923.236009 171.517778 
L 924.36349 178.333333 
L 925.490385 176.970222 
L 927.746225 176.970222 
L 928.872785 178.333333 
L 930.002225 187.875111 
L 931.129324 187.875111 
L 932.255655 178.333333 
L 933.383004 178.333333 
L 934.511582 166.065333 
L 935.639152 176.970222 
L 936.767671 174.244 
L 939.022404 174.244 
L 940.148569 166.065333 
L 941.277413 166.065333 
L 942.406723 170.154667 
L 943.535036 168.791556 
L 944.663607 171.517778 
L 945.791797 171.517778 
L 946.920354 157.886667 
L 948.04666 167.428444 
L 949.175397 167.428444 
L 950.302273 164.702222 
L 951.431264 164.702222 
L 952.558813 156.523556 
L 953.685535 202.869333 
L 954.814986 202.869333 
L 955.94254 194.690667 
L 957.071159 191.964444 
L 958.200421 197.416889 
L 959.329111 197.416889 
L 961.583391 202.869333 
L 962.711969 209.684889 
L 963.838398 209.684889 
L 964.967236 208.321778 
L 966.094352 208.321778 
L 967.222673 212.411111 
L 968.351218 215.137333 
L 970.607145 215.137333 
L 971.73402 217.863556 
L 972.863301 226.042222 
L 975.115727 226.042222 
L 976.243325 260.12 
L 1041.761852 260.12 
L 1042.891275 251.941333 
L 1044.021546 247.852 
L 1045.150495 235.584 
L 1046.279889 235.584 
L 1047.407025 212.411111 
L 1048.533586 205.595556 
L 1049.660386 205.595556 
L 1050.787965 187.875111 
L 1053.044718 156.523556 
L 1054.17362 156.523556 
L 1055.302248 138.803111 
L 1056.431755 138.803111 
L 1057.558385 126.535111 
L 1058.687766 137.44 
L 1059.842911 137.44 
L 1060.971455 141.529333 
L 1062.098238 137.44 
L 1063.225227 137.44 
L 1064.352008 141.529333 
L 1065.481307 148.344889 
L 1066.608139 145.618667 
L 1067.738316 145.618667 
L 1068.865156 144.255556 
L 1069.992313 130.624444 
L 1071.119152 130.624444 
L 1072.246476 127.898222 
L 1073.373289 131.987556 
L 1074.502341 131.987556 
L 1075.6296 137.44 
L 1076.756174 141.529333 
L 1077.883097 141.529333 
L 1079.009561 127.898222 
L 1080.136188 122.445778 
L 1081.26337 123.808889 
L 1082.392865 123.808889 
L 1083.522172 125.172 
L 1084.650799 130.624444 
L 1085.780282 130.624444 
L 1086.909173 136.076889 
L 1088.037627 138.803111 
L 1090.292072 138.803111 
L 1091.419962 163.339111 
L 1092.547529 163.339111 
L 1093.67712 182.422667 
L 1094.804034 185.148889 
L 1095.93234 185.148889 
L 1097.062523 168.791556 
L 1098.189703 166.065333 
L 1099.316401 157.886667 
L 1100.445873 157.886667 
L 1101.573682 148.344889 
L 1103.828944 148.344889 
L 1104.957256 142.892444 
L 1107.213835 142.892444 
L 1108.341824 146.981778 
L 1109.469521 159.249778 
L 1110.596913 159.249778 
L 1112.898697 161.976 
L 1114.025541 161.976 
L 1115.153627 163.339111 
L 1116.282058 182.422667 
L 1117.410546 187.875111 
L 1118.541452 187.875111 
L 1119.668768 186.512 
L 1120.79785 186.512 
L 1121.925937 194.690667 
L 1123.054145 193.327556 
L 1124.183602 193.327556 
L 1125.315914 198.78 
L 1126.443989 206.958667 
L 1127.57015 212.411111 
L 1129.90009 217.863556 
L 1131.026967 221.952889 
L 1132.153468 224.679111 
L 1133.28 224.679111 
L 1133.28 224.679111 
" style="fill:none;stroke:#1f77b4;stroke-linecap:square;stroke-width:1.5;"/>
   </g>
   <g id="patch_3">
    <path d="M 33.64 260.12 
L 33.64 14.76 
" style="fill:none;stroke:#000000;stroke-linecap:square;stroke-linejoin:miter;stroke-width:0.8;"/>
   </g>
   <g id="patch_4">
    <path d="M 1133.28 260.12 
L 1133.28 14.76 
" style="fill:none;stroke:#000000;stroke-linecap:square;stroke-linejoin:miter;stroke-width:0.8;"/>
   </g>
   <g id="patch_5">
    <path d="M 33.64 260.12 
L 1133.28 260.12 
" style="fill:none;stroke:#000000;stroke-linecap:square;stroke-linejoin:miter;stroke-width:0.8;"/>
   </g>
   <g id="patch_6">
    <path d="M 33.64 14.76 
L 1133.28 14.76 
" style="fill:none;stroke:#000000;stroke-linecap:square;stroke-linejoin:miter;stroke-width:0.8;"/>
   </g>
  </g>
 </g>
 <defs>
  <clipPath id="pffd90b1087">
   <rect height="245.36" width="1099.64" x="33.64" y="14.76"/>
  </clipPath>
 </defs>
</svg>
