<?xml version="1.0" encoding="utf-8" standalone="no"?>
<!DOCTYPE svg PUBLIC "-//W3C//DTD SVG 1.1//EN"
  "http://www.w3.org/Graphics/SVG/1.1/DTD/svg11.dtd">
<!-- Created with matplotlib (https://matplotlib.org/) -->
<svg height="288pt" version="1.1" viewBox="0 0 1152 288" width="1152pt" xmlns="http://www.w3.org/2000/svg" xmlns:xlink="http://www.w3.org/1999/xlink">
 <defs>
  <style type="text/css">
*{stroke-linecap:butt;stroke-linejoin:round;}
  </style>
 </defs>
 <g id="figure_1">
  <g id="patch_1">
   <path d="M 0 288 
L 1152 288 
L 1152 0 
L 0 0 
z
" style="fill:#ffffff;"/>
  </g>
  <g id="axes_1">
   <g id="patch_2">
    <path d="M 33.64 260.12 
L 1133.28 260.12 
L 1133.28 14.76 
L 33.64 14.76 
z
" style="fill:#ffffff;"/>
   </g>
   <g id="matplotlib.axis_1">
    <g id="xtick_1">
     <g id="line2d_1">
      <defs>
       <path d="M 0 0 
L 0 3.5 
" id="mc1650a627f" style="stroke:#000000;stroke-width:0.8;"/>
      </defs>
      <g>
       <use style="stroke:#000000;stroke-width:0.8;" x="201.539996" xlink:href="#mc1650a627f" y="260.12"/>
      </g>
     </g>
     <g id="text_1">
      <!-- Tue 00:00 -->
      <defs>
       <path d="M -0.296875 72.90625 
L 61.375 72.90625 
L 61.375 64.59375 
L 35.5 64.59375 
L 35.5 0 
L 25.59375 0 
L 25.59375 64.59375 
L -0.296875 64.59375 
z
" id="DejaVuSans-84"/>
       <path d="M 8.5 21.578125 
L 8.5 54.6875 
L 17.484375 54.6875 
L 17.484375 21.921875 
Q 17.484375 14.15625 20.5 10.265625 
Q 23.53125 6.390625 29.59375 6.390625 
Q 36.859375 6.390625 41.078125 11.03125 
Q 45.3125 15.671875 45.3125 23.6875 
L 45.3125 54.6875 
L 54.296875 54.6875 
L 54.296875 0 
L 45.3125 0 
L 45.3125 8.40625 
Q 42.046875 3.421875 37.71875 1 
Q 33.40625 -1.421875 27.6875 -1.421875 
Q 18.265625 -1.421875 13.375 4.4375 
Q 8.5 10.296875 8.5 21.578125 
z
M 31.109375 56 
z
" id="DejaVuSans-117"/>
       <path d="M 56.203125 29.59375 
L 56.203125 25.203125 
L 14.890625 25.203125 
Q 15.484375 15.921875 20.484375 11.0625 
Q 25.484375 6.203125 34.421875 6.203125 
Q 39.59375 6.203125 44.453125 7.46875 
Q 49.3125 8.734375 54.109375 11.28125 
L 54.109375 2.78125 
Q 49.265625 0.734375 44.1875 -0.34375 
Q 39.109375 -1.421875 33.890625 -1.421875 
Q 20.796875 -1.421875 13.15625 6.1875 
Q 5.515625 13.8125 5.515625 26.8125 
Q 5.515625 40.234375 12.765625 48.109375 
Q 20.015625 56 32.328125 56 
Q 43.359375 56 49.78125 48.890625 
Q 56.203125 41.796875 56.203125 29.59375 
z
M 47.21875 32.234375 
Q 47.125 39.59375 43.09375 43.984375 
Q 39.0625 48.390625 32.421875 48.390625 
Q 24.90625 48.390625 20.390625 44.140625 
Q 15.875 39.890625 15.1875 32.171875 
z
" id="DejaVuSans-101"/>
       <path id="DejaVuSans-32"/>
       <path d="M 31.78125 66.40625 
Q 24.171875 66.40625 20.328125 58.90625 
Q 16.5 51.421875 16.5 36.375 
Q 16.5 21.390625 20.328125 13.890625 
Q 24.171875 6.390625 31.78125 6.390625 
Q 39.453125 6.390625 43.28125 13.890625 
Q 47.125 21.390625 47.125 36.375 
Q 47.125 51.421875 43.28125 58.90625 
Q 39.453125 66.40625 31.78125 66.40625 
z
M 31.78125 74.21875 
Q 44.046875 74.21875 50.515625 64.515625 
Q 56.984375 54.828125 56.984375 36.375 
Q 56.984375 17.96875 50.515625 8.265625 
Q 44.046875 -1.421875 31.78125 -1.421875 
Q 19.53125 -1.421875 13.0625 8.265625 
Q 6.59375 17.96875 6.59375 36.375 
Q 6.59375 54.828125 13.0625 64.515625 
Q 19.53125 74.21875 31.78125 74.21875 
z
" id="DejaVuSans-48"/>
       <path d="M 11.71875 12.40625 
L 22.015625 12.40625 
L 22.015625 0 
L 11.71875 0 
z
M 11.71875 51.703125 
L 22.015625 51.703125 
L 22.015625 39.3125 
L 11.71875 39.3125 
z
" id="DejaVuSans-58"/>
      </defs>
      <g transform="translate(176.254058 274.718437)scale(0.1 -0.1)">
       <use xlink:href="#DejaVuSans-84"/>
       <use x="60.849609" xlink:href="#DejaVuSans-117"/>
       <use x="124.228516" xlink:href="#DejaVuSans-101"/>
       <use x="185.751953" xlink:href="#DejaVuSans-32"/>
       <use x="217.539062" xlink:href="#DejaVuSans-48"/>
       <use x="281.162109" xlink:href="#DejaVuSans-48"/>
       <use x="344.785156" xlink:href="#DejaVuSans-58"/>
       <use x="378.476562" xlink:href="#DejaVuSans-48"/>
       <use x="442.099609" xlink:href="#DejaVuSans-48"/>
      </g>
     </g>
    </g>
    <g id="xtick_2">
     <g id="line2d_2">
      <g>
       <use style="stroke:#000000;stroke-width:0.8;" x="370.051068" xlink:href="#mc1650a627f" y="260.12"/>
      </g>
     </g>
     <g id="text_2">
      <!-- Wed 00:00 -->
      <defs>
       <path d="M 3.328125 72.90625 
L 13.28125 72.90625 
L 28.609375 11.28125 
L 43.890625 72.90625 
L 54.984375 72.90625 
L 70.3125 11.28125 
L 85.59375 72.90625 
L 95.609375 72.90625 
L 77.296875 0 
L 64.890625 0 
L 49.515625 63.28125 
L 33.984375 0 
L 21.578125 0 
z
" id="DejaVuSans-87"/>
       <path d="M 45.40625 46.390625 
L 45.40625 75.984375 
L 54.390625 75.984375 
L 54.390625 0 
L 45.40625 0 
L 45.40625 8.203125 
Q 42.578125 3.328125 38.25 0.953125 
Q 33.9375 -1.421875 27.875 -1.421875 
Q 17.96875 -1.421875 11.734375 6.484375 
Q 5.515625 14.40625 5.515625 27.296875 
Q 5.515625 40.1875 11.734375 48.09375 
Q 17.96875 56 27.875 56 
Q 33.9375 56 38.25 53.625 
Q 42.578125 51.265625 45.40625 46.390625 
z
M 14.796875 27.296875 
Q 14.796875 17.390625 18.875 11.75 
Q 22.953125 6.109375 30.078125 6.109375 
Q 37.203125 6.109375 41.296875 11.75 
Q 45.40625 17.390625 45.40625 27.296875 
Q 45.40625 37.203125 41.296875 42.84375 
Q 37.203125 48.484375 30.078125 48.484375 
Q 22.953125 48.484375 18.875 42.84375 
Q 14.796875 37.203125 14.796875 27.296875 
z
" id="DejaVuSans-100"/>
      </defs>
      <g transform="translate(342.862005 274.718437)scale(0.1 -0.1)">
       <use xlink:href="#DejaVuSans-87"/>
       <use x="98.798828" xlink:href="#DejaVuSans-101"/>
       <use x="160.322266" xlink:href="#DejaVuSans-100"/>
       <use x="223.798828" xlink:href="#DejaVuSans-32"/>
       <use x="255.585938" xlink:href="#DejaVuSans-48"/>
       <use x="319.208984" xlink:href="#DejaVuSans-48"/>
       <use x="382.832031" xlink:href="#DejaVuSans-58"/>
       <use x="416.523438" xlink:href="#DejaVuSans-48"/>
       <use x="480.146484" xlink:href="#DejaVuSans-48"/>
      </g>
     </g>
    </g>
    <g id="xtick_3">
     <g id="line2d_3">
      <g>
       <use style="stroke:#000000;stroke-width:0.8;" x="538.56214" xlink:href="#mc1650a627f" y="260.12"/>
      </g>
     </g>
     <g id="text_3">
      <!-- Thu 00:00 -->
      <defs>
       <path d="M 54.890625 33.015625 
L 54.890625 0 
L 45.90625 0 
L 45.90625 32.71875 
Q 45.90625 40.484375 42.875 44.328125 
Q 39.84375 48.1875 33.796875 48.1875 
Q 26.515625 48.1875 22.3125 43.546875 
Q 18.109375 38.921875 18.109375 30.90625 
L 18.109375 0 
L 9.078125 0 
L 9.078125 75.984375 
L 18.109375 75.984375 
L 18.109375 46.1875 
Q 21.34375 51.125 25.703125 53.5625 
Q 30.078125 56 35.796875 56 
Q 45.21875 56 50.046875 50.171875 
Q 54.890625 44.34375 54.890625 33.015625 
z
" id="DejaVuSans-104"/>
      </defs>
      <g transform="translate(513.172296 274.718437)scale(0.1 -0.1)">
       <use xlink:href="#DejaVuSans-84"/>
       <use x="61.083984" xlink:href="#DejaVuSans-104"/>
       <use x="124.462891" xlink:href="#DejaVuSans-117"/>
       <use x="187.841797" xlink:href="#DejaVuSans-32"/>
       <use x="219.628906" xlink:href="#DejaVuSans-48"/>
       <use x="283.251953" xlink:href="#DejaVuSans-48"/>
       <use x="346.875" xlink:href="#DejaVuSans-58"/>
       <use x="380.566406" xlink:href="#DejaVuSans-48"/>
       <use x="444.189453" xlink:href="#DejaVuSans-48"/>
      </g>
     </g>
    </g>
    <g id="xtick_4">
     <g id="line2d_4">
      <g>
       <use style="stroke:#000000;stroke-width:0.8;" x="707.073212" xlink:href="#mc1650a627f" y="260.12"/>
      </g>
     </g>
     <g id="text_4">
      <!-- Fri 00:00 -->
      <defs>
       <path d="M 9.8125 72.90625 
L 51.703125 72.90625 
L 51.703125 64.59375 
L 19.671875 64.59375 
L 19.671875 43.109375 
L 48.578125 43.109375 
L 48.578125 34.8125 
L 19.671875 34.8125 
L 19.671875 0 
L 9.8125 0 
z
" id="DejaVuSans-70"/>
       <path d="M 41.109375 46.296875 
Q 39.59375 47.171875 37.8125 47.578125 
Q 36.03125 48 33.890625 48 
Q 26.265625 48 22.1875 43.046875 
Q 18.109375 38.09375 18.109375 28.8125 
L 18.109375 0 
L 9.078125 0 
L 9.078125 54.6875 
L 18.109375 54.6875 
L 18.109375 46.1875 
Q 20.953125 51.171875 25.484375 53.578125 
Q 30.03125 56 36.53125 56 
Q 37.453125 56 38.578125 55.875 
Q 39.703125 55.765625 41.0625 55.515625 
z
" id="DejaVuSans-114"/>
       <path d="M 9.421875 54.6875 
L 18.40625 54.6875 
L 18.40625 0 
L 9.421875 0 
z
M 9.421875 75.984375 
L 18.40625 75.984375 
L 18.40625 64.59375 
L 9.421875 64.59375 
z
" id="DejaVuSans-105"/>
      </defs>
      <g transform="translate(684.759931 274.718437)scale(0.1 -0.1)">
       <use xlink:href="#DejaVuSans-70"/>
       <use x="57.410156" xlink:href="#DejaVuSans-114"/>
       <use x="98.523438" xlink:href="#DejaVuSans-105"/>
       <use x="126.306641" xlink:href="#DejaVuSans-32"/>
       <use x="158.09375" xlink:href="#DejaVuSans-48"/>
       <use x="221.716797" xlink:href="#DejaVuSans-48"/>
       <use x="285.339844" xlink:href="#DejaVuSans-58"/>
       <use x="319.03125" xlink:href="#DejaVuSans-48"/>
       <use x="382.654297" xlink:href="#DejaVuSans-48"/>
      </g>
     </g>
    </g>
    <g id="xtick_5">
     <g id="line2d_5">
      <g>
       <use style="stroke:#000000;stroke-width:0.8;" x="875.584284" xlink:href="#mc1650a627f" y="260.12"/>
      </g>
     </g>
     <g id="text_5">
      <!-- Sat 00:00 -->
      <defs>
       <path d="M 53.515625 70.515625 
L 53.515625 60.890625 
Q 47.90625 63.578125 42.921875 64.890625 
Q 37.9375 66.21875 33.296875 66.21875 
Q 25.25 66.21875 20.875 63.09375 
Q 16.5 59.96875 16.5 54.203125 
Q 16.5 49.359375 19.40625 46.890625 
Q 22.3125 44.4375 30.421875 42.921875 
L 36.375 41.703125 
Q 47.40625 39.59375 52.65625 34.296875 
Q 57.90625 29 57.90625 20.125 
Q 57.90625 9.515625 50.796875 4.046875 
Q 43.703125 -1.421875 29.984375 -1.421875 
Q 24.8125 -1.421875 18.96875 -0.25 
Q 13.140625 0.921875 6.890625 3.21875 
L 6.890625 13.375 
Q 12.890625 10.015625 18.65625 8.296875 
Q 24.421875 6.59375 29.984375 6.59375 
Q 38.421875 6.59375 43.015625 9.90625 
Q 47.609375 13.234375 47.609375 19.390625 
Q 47.609375 24.75 44.3125 27.78125 
Q 41.015625 30.8125 33.5 32.328125 
L 27.484375 33.5 
Q 16.453125 35.6875 11.515625 40.375 
Q 6.59375 45.0625 6.59375 53.421875 
Q 6.59375 63.09375 13.40625 68.65625 
Q 20.21875 74.21875 32.171875 74.21875 
Q 37.3125 74.21875 42.625 73.28125 
Q 47.953125 72.359375 53.515625 70.515625 
z
" id="DejaVuSans-83"/>
       <path d="M 34.28125 27.484375 
Q 23.390625 27.484375 19.1875 25 
Q 14.984375 22.515625 14.984375 16.5 
Q 14.984375 11.71875 18.140625 8.90625 
Q 21.296875 6.109375 26.703125 6.109375 
Q 34.1875 6.109375 38.703125 11.40625 
Q 43.21875 16.703125 43.21875 25.484375 
L 43.21875 27.484375 
z
M 52.203125 31.203125 
L 52.203125 0 
L 43.21875 0 
L 43.21875 8.296875 
Q 40.140625 3.328125 35.546875 0.953125 
Q 30.953125 -1.421875 24.3125 -1.421875 
Q 15.921875 -1.421875 10.953125 3.296875 
Q 6 8.015625 6 15.921875 
Q 6 25.140625 12.171875 29.828125 
Q 18.359375 34.515625 30.609375 34.515625 
L 43.21875 34.515625 
L 43.21875 35.40625 
Q 43.21875 41.609375 39.140625 45 
Q 35.0625 48.390625 27.6875 48.390625 
Q 23 48.390625 18.546875 47.265625 
Q 14.109375 46.140625 10.015625 43.890625 
L 10.015625 52.203125 
Q 14.9375 54.109375 19.578125 55.046875 
Q 24.21875 56 28.609375 56 
Q 40.484375 56 46.34375 49.84375 
Q 52.203125 43.703125 52.203125 31.203125 
z
" id="DejaVuSans-97"/>
       <path d="M 18.3125 70.21875 
L 18.3125 54.6875 
L 36.8125 54.6875 
L 36.8125 47.703125 
L 18.3125 47.703125 
L 18.3125 18.015625 
Q 18.3125 11.328125 20.140625 9.421875 
Q 21.96875 7.515625 27.59375 7.515625 
L 36.8125 7.515625 
L 36.8125 0 
L 27.59375 0 
Q 17.1875 0 13.234375 3.875 
Q 9.28125 7.765625 9.28125 18.015625 
L 9.28125 47.703125 
L 2.6875 47.703125 
L 2.6875 54.6875 
L 9.28125 54.6875 
L 9.28125 70.21875 
z
" id="DejaVuSans-116"/>
      </defs>
      <g transform="translate(851.387409 274.718437)scale(0.1 -0.1)">
       <use xlink:href="#DejaVuSans-83"/>
       <use x="63.476562" xlink:href="#DejaVuSans-97"/>
       <use x="124.755859" xlink:href="#DejaVuSans-116"/>
       <use x="163.964844" xlink:href="#DejaVuSans-32"/>
       <use x="195.751953" xlink:href="#DejaVuSans-48"/>
       <use x="259.375" xlink:href="#DejaVuSans-48"/>
       <use x="322.998047" xlink:href="#DejaVuSans-58"/>
       <use x="356.689453" xlink:href="#DejaVuSans-48"/>
       <use x="420.3125" xlink:href="#DejaVuSans-48"/>
      </g>
     </g>
    </g>
    <g id="xtick_6">
     <g id="line2d_6">
      <g>
       <use style="stroke:#000000;stroke-width:0.8;" x="1044.095356" xlink:href="#mc1650a627f" y="260.12"/>
      </g>
     </g>
     <g id="text_6">
      <!-- Sun 00:00 -->
      <defs>
       <path d="M 54.890625 33.015625 
L 54.890625 0 
L 45.90625 0 
L 45.90625 32.71875 
Q 45.90625 40.484375 42.875 44.328125 
Q 39.84375 48.1875 33.796875 48.1875 
Q 26.515625 48.1875 22.3125 43.546875 
Q 18.109375 38.921875 18.109375 30.90625 
L 18.109375 0 
L 9.078125 0 
L 9.078125 54.6875 
L 18.109375 54.6875 
L 18.109375 46.1875 
Q 21.34375 51.125 25.703125 53.5625 
Q 30.078125 56 35.796875 56 
Q 45.21875 56 50.046875 50.171875 
Q 54.890625 44.34375 54.890625 33.015625 
z
" id="DejaVuSans-110"/>
      </defs>
      <g transform="translate(1018.5852 274.718437)scale(0.1 -0.1)">
       <use xlink:href="#DejaVuSans-83"/>
       <use x="63.476562" xlink:href="#DejaVuSans-117"/>
       <use x="126.855469" xlink:href="#DejaVuSans-110"/>
       <use x="190.234375" xlink:href="#DejaVuSans-32"/>
       <use x="222.021484" xlink:href="#DejaVuSans-48"/>
       <use x="285.644531" xlink:href="#DejaVuSans-48"/>
       <use x="349.267578" xlink:href="#DejaVuSans-58"/>
       <use x="382.958984" xlink:href="#DejaVuSans-48"/>
       <use x="446.582031" xlink:href="#DejaVuSans-48"/>
      </g>
     </g>
    </g>
   </g>
   <g id="matplotlib.axis_2">
    <g id="ytick_1">
     <g id="line2d_7">
      <defs>
       <path d="M 0 0 
L -3.5 0 
" id="m890d1f752c" style="stroke:#000000;stroke-width:0.8;"/>
      </defs>
      <g>
       <use style="stroke:#000000;stroke-width:0.8;" x="33.64" xlink:href="#m890d1f752c" y="260.12"/>
      </g>
     </g>
     <g id="text_7">
      <!-- 0 -->
      <g transform="translate(20.2775 263.919219)scale(0.1 -0.1)">
       <use xlink:href="#DejaVuSans-48"/>
      </g>
     </g>
    </g>
    <g id="ytick_2">
     <g id="line2d_8">
      <g>
       <use style="stroke:#000000;stroke-width:0.8;" x="33.64" xlink:href="#m890d1f752c" y="230.910476"/>
      </g>
     </g>
     <g id="text_8">
      <!-- 25 -->
      <defs>
       <path d="M 19.1875 8.296875 
L 53.609375 8.296875 
L 53.609375 0 
L 7.328125 0 
L 7.328125 8.296875 
Q 12.9375 14.109375 22.625 23.890625 
Q 32.328125 33.6875 34.8125 36.53125 
Q 39.546875 41.84375 41.421875 45.53125 
Q 43.3125 49.21875 43.3125 52.78125 
Q 43.3125 58.59375 39.234375 62.25 
Q 35.15625 65.921875 28.609375 65.921875 
Q 23.96875 65.921875 18.8125 64.3125 
Q 13.671875 62.703125 7.8125 59.421875 
L 7.8125 69.390625 
Q 13.765625 71.78125 18.9375 73 
Q 24.125 74.21875 28.421875 74.21875 
Q 39.75 74.21875 46.484375 68.546875 
Q 53.21875 62.890625 53.21875 53.421875 
Q 53.21875 48.921875 51.53125 44.890625 
Q 49.859375 40.875 45.40625 35.40625 
Q 44.1875 33.984375 37.640625 27.21875 
Q 31.109375 20.453125 19.1875 8.296875 
z
" id="DejaVuSans-50"/>
       <path d="M 10.796875 72.90625 
L 49.515625 72.90625 
L 49.515625 64.59375 
L 19.828125 64.59375 
L 19.828125 46.734375 
Q 21.96875 47.46875 24.109375 47.828125 
Q 26.265625 48.1875 28.421875 48.1875 
Q 40.625 48.1875 47.75 41.5 
Q 54.890625 34.8125 54.890625 23.390625 
Q 54.890625 11.625 47.5625 5.09375 
Q 40.234375 -1.421875 26.90625 -1.421875 
Q 22.3125 -1.421875 17.546875 -0.640625 
Q 12.796875 0.140625 7.71875 1.703125 
L 7.71875 11.625 
Q 12.109375 9.234375 16.796875 8.0625 
Q 21.484375 6.890625 26.703125 6.890625 
Q 35.15625 6.890625 40.078125 11.328125 
Q 45.015625 15.765625 45.015625 23.390625 
Q 45.015625 31 40.078125 35.4375 
Q 35.15625 39.890625 26.703125 39.890625 
Q 22.75 39.890625 18.8125 39.015625 
Q 14.890625 38.140625 10.796875 36.28125 
z
" id="DejaVuSans-53"/>
      </defs>
      <g transform="translate(13.915 234.709695)scale(0.1 -0.1)">
       <use xlink:href="#DejaVuSans-50"/>
       <use x="63.623047" xlink:href="#DejaVuSans-53"/>
      </g>
     </g>
    </g>
    <g id="ytick_3">
     <g id="line2d_9">
      <g>
       <use style="stroke:#000000;stroke-width:0.8;" x="33.64" xlink:href="#m890d1f752c" y="201.700952"/>
      </g>
     </g>
     <g id="text_9">
      <!-- 50 -->
      <g transform="translate(13.915 205.500171)scale(0.1 -0.1)">
       <use xlink:href="#DejaVuSans-53"/>
       <use x="63.623047" xlink:href="#DejaVuSans-48"/>
      </g>
     </g>
    </g>
    <g id="ytick_4">
     <g id="line2d_10">
      <g>
       <use style="stroke:#000000;stroke-width:0.8;" x="33.64" xlink:href="#m890d1f752c" y="172.491429"/>
      </g>
     </g>
     <g id="text_10">
      <!-- 75 -->
      <defs>
       <path d="M 8.203125 72.90625 
L 55.078125 72.90625 
L 55.078125 68.703125 
L 28.609375 0 
L 18.3125 0 
L 43.21875 64.59375 
L 8.203125 64.59375 
z
" id="DejaVuSans-55"/>
      </defs>
      <g transform="translate(13.915 176.290647)scale(0.1 -0.1)">
       <use xlink:href="#DejaVuSans-55"/>
       <use x="63.623047" xlink:href="#DejaVuSans-53"/>
      </g>
     </g>
    </g>
    <g id="ytick_5">
     <g id="line2d_11">
      <g>
       <use style="stroke:#000000;stroke-width:0.8;" x="33.64" xlink:href="#m890d1f752c" y="143.281905"/>
      </g>
     </g>
     <g id="text_11">
      <!-- 100 -->
      <defs>
       <path d="M 12.40625 8.296875 
L 28.515625 8.296875 
L 28.515625 63.921875 
L 10.984375 60.40625 
L 10.984375 69.390625 
L 28.421875 72.90625 
L 38.28125 72.90625 
L 38.28125 8.296875 
L 54.390625 8.296875 
L 54.390625 0 
L 12.40625 0 
z
" id="DejaVuSans-49"/>
      </defs>
      <g transform="translate(7.5525 147.081124)scale(0.1 -0.1)">
       <use xlink:href="#DejaVuSans-49"/>
       <use x="63.623047" xlink:href="#DejaVuSans-48"/>
       <use x="127.246094" xlink:href="#DejaVuSans-48"/>
      </g>
     </g>
    </g>
    <g id="ytick_6">
     <g id="line2d_12">
      <g>
       <use style="stroke:#000000;stroke-width:0.8;" x="33.64" xlink:href="#m890d1f752c" y="114.072381"/>
      </g>
     </g>
     <g id="text_12">
      <!-- 125 -->
      <g transform="translate(7.5525 117.8716)scale(0.1 -0.1)">
       <use xlink:href="#DejaVuSans-49"/>
       <use x="63.623047" xlink:href="#DejaVuSans-50"/>
       <use x="127.246094" xlink:href="#DejaVuSans-53"/>
      </g>
     </g>
    </g>
    <g id="ytick_7">
     <g id="line2d_13">
      <g>
       <use style="stroke:#000000;stroke-width:0.8;" x="33.64" xlink:href="#m890d1f752c" y="84.862857"/>
      </g>
     </g>
     <g id="text_13">
      <!-- 150 -->
      <g transform="translate(7.5525 88.662076)scale(0.1 -0.1)">
       <use xlink:href="#DejaVuSans-49"/>
       <use x="63.623047" xlink:href="#DejaVuSans-53"/>
       <use x="127.246094" xlink:href="#DejaVuSans-48"/>
      </g>
     </g>
    </g>
    <g id="ytick_8">
     <g id="line2d_14">
      <g>
       <use style="stroke:#000000;stroke-width:0.8;" x="33.64" xlink:href="#m890d1f752c" y="55.653333"/>
      </g>
     </g>
     <g id="text_14">
      <!-- 175 -->
      <g transform="translate(7.5525 59.452552)scale(0.1 -0.1)">
       <use xlink:href="#DejaVuSans-49"/>
       <use x="63.623047" xlink:href="#DejaVuSans-55"/>
       <use x="127.246094" xlink:href="#DejaVuSans-53"/>
      </g>
     </g>
    </g>
    <g id="ytick_9">
     <g id="line2d_15">
      <g>
       <use style="stroke:#000000;stroke-width:0.8;" x="33.64" xlink:href="#m890d1f752c" y="26.44381"/>
      </g>
     </g>
     <g id="text_15">
      <!-- 200 -->
      <g transform="translate(7.5525 30.243028)scale(0.1 -0.1)">
       <use xlink:href="#DejaVuSans-50"/>
       <use x="63.623047" xlink:href="#DejaVuSans-48"/>
       <use x="127.246094" xlink:href="#DejaVuSans-48"/>
      </g>
     </g>
    </g>
   </g>
   <g id="line2d_16">
    <path clip-path="url(#p7745d594ca)" d="M 33.64 225.068571 
L 96.396022 225.068571 
L 97.60307 220.395048 
L 98.808987 220.395048 
L 100.014311 218.058286 
L 101.217418 218.058286 
L 102.420395 211.048 
L 103.62593 211.048 
L 104.829361 200.532571 
L 106.032366 195.859048 
L 107.236521 195.859048 
L 108.440395 186.512 
L 109.643679 179.501714 
L 110.849592 177.164952 
L 116.879346 177.164952 
L 118.083409 183.006857 
L 119.289644 190.017143 
L 120.492667 190.017143 
L 121.695662 195.859048 
L 122.901134 195.859048 
L 124.10455 200.532571 
L 125.309388 195.859048 
L 126.5146 195.859048 
L 127.718199 193.522286 
L 128.921427 192.353905 
L 130.124549 188.848762 
L 131.327788 188.848762 
L 132.532035 187.680381 
L 133.737049 191.185524 
L 134.940113 191.185524 
L 136.14619 188.848762 
L 137.349589 185.343619 
L 138.552663 185.343619 
L 139.758156 183.006857 
L 140.961665 185.343619 
L 143.367966 185.343619 
L 144.573539 178.333333 
L 145.777628 177.164952 
L 146.983417 177.164952 
L 148.189002 179.501714 
L 149.394745 173.65981 
L 150.602239 173.65981 
L 151.808366 170.154667 
L 153.017198 170.154667 
L 154.222805 175.996571 
L 155.425933 165.481143 
L 156.629271 153.797333 
L 157.83236 153.797333 
L 159.035515 147.955429 
L 160.23915 138.608381 
L 161.44244 138.608381 
L 162.646336 124.58781 
L 163.851119 108.230476 
L 165.054313 108.230476 
L 166.26066 90.704762 
L 167.464546 79.020952 
L 168.667592 60.326857 
L 169.871654 60.326857 
L 171.074959 52.14819 
L 172.277896 83.694476 
L 174.685983 83.694476 
L 175.891878 86.031238 
L 177.095362 86.031238 
L 178.301373 88.368 
L 179.505586 89.536381 
L 180.709045 89.536381 
L 181.914181 105.893714 
L 183.122227 119.914286 
L 184.326216 119.914286 
L 185.531549 133.934857 
L 186.737284 153.797333 
L 187.943838 153.797333 
L 189.147992 161.976 
L 190.353259 168.986286 
L 191.556722 172.491429 
L 192.76266 172.491429 
L 193.968884 184.175238 
L 195.172708 192.353905 
L 196.376254 192.353905 
L 197.583594 260.12 
L 266.359013 260.12 
L 267.564234 241.425905 
L 268.770023 236.752381 
L 269.975635 236.752381 
L 271.179861 233.247238 
L 272.383514 222.73181 
L 273.588576 222.73181 
L 274.793525 213.384762 
L 275.999382 211.048 
L 277.205646 211.048 
L 278.414469 207.542857 
L 279.621776 205.206095 
L 280.827697 205.206095 
L 282.030765 202.869333 
L 283.238994 201.700952 
L 285.651343 201.700952 
L 286.854179 215.721524 
L 288.058864 216.889905 
L 289.264961 214.553143 
L 290.468582 216.889905 
L 291.672797 216.889905 
L 294.159716 205.206095 
L 296.644901 208.711238 
L 299.1722 208.711238 
L 300.375129 211.048 
L 301.57965 211.048 
L 302.783045 213.384762 
L 303.986157 212.216381 
L 305.191785 212.216381 
L 306.397249 207.542857 
L 308.805184 207.542857 
L 310.00844 202.869333 
L 311.214699 205.206095 
L 312.418006 205.206095 
L 313.62213 201.700952 
L 314.825959 191.185524 
L 316.029716 186.512 
L 317.232789 186.512 
L 318.436383 185.343619 
L 319.639985 173.65981 
L 320.846029 173.65981 
L 322.050696 172.491429 
L 323.256336 181.838476 
L 324.45986 181.838476 
L 326.867966 158.470857 
L 328.071781 158.470857 
L 329.277459 153.797333 
L 330.481586 150.29219 
L 331.685291 150.29219 
L 332.890529 154.965714 
L 334.0949 158.470857 
L 335.298643 158.470857 
L 336.504605 144.450286 
L 337.710755 135.103238 
L 338.91499 130.429714 
L 340.118872 130.429714 
L 341.322991 116.409143 
L 342.52694 116.409143 
L 344.938427 114.072381 
L 346.144124 110.567238 
L 347.350567 110.567238 
L 348.555025 112.904 
L 349.760472 117.577524 
L 350.964382 117.577524 
L 352.17022 126.924571 
L 353.374089 142.113524 
L 354.579301 152.628952 
L 355.784297 152.628952 
L 356.987349 159.639238 
L 358.195331 159.639238 
L 359.398489 170.154667 
L 360.603605 178.333333 
L 361.809424 178.333333 
L 363.013075 186.512 
L 364.219137 187.680381 
L 365.42427 190.017143 
L 366.62771 190.017143 
L 367.830672 260.12 
L 433.007939 260.12 
L 435.394784 248.43619 
L 436.597782 248.43619 
L 437.801322 242.594286 
L 439.004933 237.920762 
L 440.207926 237.920762 
L 441.41179 228.573714 
L 442.615894 228.573714 
L 443.819403 223.90019 
L 445.022257 220.395048 
L 446.226252 220.395048 
L 447.429693 225.068571 
L 448.634361 225.068571 
L 449.83884 227.405333 
L 451.044747 227.405333 
L 452.25118 226.236952 
L 453.456993 223.90019 
L 454.66041 223.90019 
L 455.864262 220.395048 
L 457.067591 229.742095 
L 459.476055 229.742095 
L 460.681894 227.405333 
L 461.886615 227.405333 
L 463.090209 218.058286 
L 464.295509 218.058286 
L 465.500018 212.216381 
L 467.908856 212.216381 
L 470.317844 207.542857 
L 471.528635 207.542857 
L 472.735348 201.700952 
L 473.942638 201.700952 
L 475.146247 202.869333 
L 476.349741 200.532571 
L 477.552556 200.532571 
L 478.755634 191.185524 
L 481.162891 191.185524 
L 482.386049 188.848762 
L 483.58981 188.848762 
L 484.792824 179.501714 
L 486.000387 179.501714 
L 487.205203 177.164952 
L 488.409097 171.323048 
L 489.61533 171.323048 
L 490.818324 161.976 
L 492.02303 145.618667 
L 493.226227 117.577524 
L 494.430054 117.577524 
L 495.63465 109.398857 
L 496.837915 88.368 
L 498.041598 88.368 
L 499.248319 66.168762 
L 500.452746 52.14819 
L 501.65645 52.14819 
L 502.85961 42.801143 
L 504.063401 48.643048 
L 505.26945 48.643048 
L 506.475161 35.790857 
L 507.678235 33.454095 
L 508.883738 33.454095 
L 510.090994 34.622476 
L 511.296871 27.61219 
L 512.505804 27.61219 
L 513.709046 33.454095 
L 514.914772 38.127619 
L 516.11772 38.127619 
L 517.324384 48.643048 
L 518.527055 50.97981 
L 519.730745 72.010667 
L 520.933785 72.010667 
L 522.139512 89.536381 
L 523.343042 89.536381 
L 524.54718 104.725333 
L 525.751388 132.766476 
L 526.956086 140.945143 
L 528.162889 140.945143 
L 529.36841 165.481143 
L 530.571081 177.164952 
L 531.775 177.164952 
L 532.981289 183.006857 
L 534.185808 194.690667 
L 536.595814 194.690667 
L 537.800071 260.12 
L 602.97089 260.12 
L 604.175387 253.109714 
L 605.380649 253.109714 
L 606.584445 249.604571 
L 607.790436 244.931048 
L 608.993284 244.931048 
L 610.197202 239.089143 
L 611.401996 236.752381 
L 612.605789 236.752381 
L 615.012514 229.742095 
L 616.218515 229.742095 
L 617.423469 233.247238 
L 618.629838 232.078857 
L 619.834133 228.573714 
L 621.039299 228.573714 
L 622.242996 229.742095 
L 623.446311 227.405333 
L 624.653005 227.405333 
L 625.857274 221.563429 
L 627.060215 219.226667 
L 628.268982 219.226667 
L 629.47197 214.553143 
L 630.675568 208.711238 
L 631.879051 208.711238 
L 633.082752 212.216381 
L 634.286788 214.553143 
L 635.492835 214.553143 
L 636.69779 208.711238 
L 637.901307 213.384762 
L 640.309363 213.384762 
L 641.513645 209.879619 
L 642.720133 199.36419 
L 643.923026 199.36419 
L 646.334005 197.027429 
L 647.537771 197.027429 
L 649.948394 185.343619 
L 652.359298 185.343619 
L 653.562554 180.670095 
L 654.767129 180.670095 
L 655.971463 170.154667 
L 657.176321 165.481143 
L 658.379453 165.481143 
L 659.583376 158.470857 
L 660.786629 142.113524 
L 661.990204 128.092952 
L 663.19328 128.092952 
L 664.400041 103.556952 
L 665.608496 107.062095 
L 666.814659 107.062095 
L 668.020192 102.388571 
L 669.225973 80.189333 
L 670.429231 80.189333 
L 671.63333 66.168762 
L 672.836376 60.326857 
L 674.039527 60.326857 
L 675.245098 61.495238 
L 676.44989 48.643048 
L 677.653562 45.137905 
L 678.859468 45.137905 
L 680.06301 63.832 
L 681.266494 72.010667 
L 682.470672 72.010667 
L 683.674967 83.694476 
L 684.878977 90.704762 
L 686.084836 90.704762 
L 687.287793 95.378286 
L 688.499971 107.062095 
L 689.707332 107.062095 
L 690.91108 114.072381 
L 692.114116 129.261333 
L 693.318577 129.261333 
L 695.72516 157.302476 
L 696.932184 157.302476 
L 698.138416 161.976 
L 699.343933 177.164952 
L 700.549162 177.164952 
L 701.754166 184.175238 
L 702.958665 260.12 
L 771.752375 260.12 
L 772.955754 248.43619 
L 774.161624 242.594286 
L 775.36824 242.594286 
L 776.571341 234.415619 
L 777.774108 234.415619 
L 778.977875 222.73181 
L 780.18096 219.226667 
L 781.386252 214.553143 
L 782.592423 214.553143 
L 785.005548 205.206095 
L 786.211371 205.206095 
L 787.415628 201.700952 
L 788.621052 199.36419 
L 789.825208 205.206095 
L 791.029313 205.206095 
L 792.23273 207.542857 
L 793.438865 211.048 
L 794.644068 211.048 
L 795.85147 219.226667 
L 797.055508 219.226667 
L 798.259309 218.058286 
L 800.667087 218.058286 
L 801.870304 221.563429 
L 803.074133 218.058286 
L 805.481818 218.058286 
L 806.68576 221.563429 
L 807.889758 222.73181 
L 809.092976 222.73181 
L 811.501973 211.048 
L 812.705065 208.711238 
L 813.910167 208.711238 
L 815.112979 205.206095 
L 816.316267 209.879619 
L 817.519468 209.879619 
L 818.723187 202.869333 
L 819.928119 202.869333 
L 821.132497 195.859048 
L 822.336116 197.027429 
L 823.540431 192.353905 
L 824.74448 192.353905 
L 825.948614 187.680381 
L 827.153457 181.838476 
L 828.356782 181.838476 
L 829.560979 183.006857 
L 830.765507 178.333333 
L 831.971443 183.006857 
L 833.177177 183.006857 
L 834.380931 177.164952 
L 835.58521 177.164952 
L 836.791361 186.512 
L 837.997667 181.838476 
L 839.201794 181.838476 
L 840.405813 184.175238 
L 841.611081 188.848762 
L 842.81501 186.512 
L 844.021144 186.512 
L 845.224052 183.006857 
L 846.429921 177.164952 
L 847.635174 177.164952 
L 848.838582 178.333333 
L 850.041692 187.680381 
L 851.244696 187.680381 
L 852.449144 186.512 
L 854.860394 186.512 
L 856.066176 188.848762 
L 858.475678 188.848762 
L 859.681618 200.532571 
L 860.885812 200.532571 
L 862.089671 205.206095 
L 863.294784 205.206095 
L 864.500695 206.374476 
L 865.706792 206.374476 
L 866.912379 207.542857 
L 868.117764 209.879619 
L 871.736415 209.879619 
L 872.940355 260.12 
L 939.314539 260.12 
L 940.518166 258.951619 
L 941.72182 254.278095 
L 942.926611 243.762667 
L 944.131668 243.762667 
L 946.54151 236.752381 
L 947.746735 236.752381 
L 948.95181 229.742095 
L 950.157037 220.395048 
L 951.360908 220.395048 
L 952.564238 218.058286 
L 953.767735 216.889905 
L 954.973895 216.889905 
L 956.179042 206.374476 
L 957.382782 206.374476 
L 958.586023 198.19581 
L 959.790632 198.19581 
L 960.993989 195.859048 
L 963.39969 195.859048 
L 964.607472 197.027429 
L 965.811208 204.037714 
L 967.018354 204.037714 
L 968.221224 200.532571 
L 969.424771 199.36419 
L 970.628235 199.36419 
L 971.831739 194.690667 
L 973.035286 192.353905 
L 974.23847 192.353905 
L 975.441837 199.36419 
L 976.645471 198.19581 
L 977.850406 198.19581 
L 979.053781 199.36419 
L 980.256608 204.037714 
L 981.459903 204.037714 
L 982.665372 206.374476 
L 985.074863 197.027429 
L 986.27969 197.027429 
L 987.482136 198.19581 
L 988.685971 197.027429 
L 989.891353 197.027429 
L 991.094898 205.206095 
L 992.298799 211.048 
L 993.502106 201.700952 
L 995.908806 201.700952 
L 997.112313 191.185524 
L 998.317041 191.185524 
L 999.520441 186.512 
L 1000.724789 186.512 
L 1001.92793 191.185524 
L 1003.131367 194.690667 
L 1004.33492 193.522286 
L 1005.538181 193.522286 
L 1006.74151 200.532571 
L 1007.944998 197.027429 
L 1009.148606 197.027429 
L 1010.352335 201.700952 
L 1011.555893 202.869333 
L 1012.759507 201.700952 
L 1013.962832 201.700952 
L 1015.166621 200.532571 
L 1016.370132 200.532571 
L 1017.573726 199.36419 
L 1018.778708 212.216381 
L 1019.981293 212.216381 
L 1021.18431 214.553143 
L 1022.387197 225.068571 
L 1023.589665 227.405333 
L 1025.996265 227.405333 
L 1027.200951 229.742095 
L 1028.403733 229.742095 
L 1029.608575 233.247238 
L 1030.811076 235.584 
L 1032.016678 235.584 
L 1033.21899 236.752381 
L 1039.234342 236.752381 
L 1040.436818 260.12 
L 1106.821907 260.12 
L 1108.005908 257.783238 
L 1109.209859 257.783238 
L 1110.415027 243.762667 
L 1111.618223 237.920762 
L 1112.820922 237.920762 
L 1114.023846 221.563429 
L 1115.226157 208.711238 
L 1116.428925 202.869333 
L 1117.635269 202.869333 
L 1118.840385 192.353905 
L 1120.043186 192.353905 
L 1121.246067 165.481143 
L 1122.448422 158.470857 
L 1123.651096 158.470857 
L 1124.854834 145.618667 
L 1127.260609 100.05181 
L 1128.466319 100.05181 
L 1129.671746 102.388571 
L 1130.874335 90.704762 
L 1132.076924 90.704762 
L 1133.28 84.862857 
L 1133.28 84.862857 
" style="fill:none;stroke:#1f77b4;stroke-linecap:square;stroke-width:1.5;"/>
   </g>
   <g id="patch_3">
    <path d="M 33.64 260.12 
L 33.64 14.76 
" style="fill:none;stroke:#000000;stroke-linecap:square;stroke-linejoin:miter;stroke-width:0.8;"/>
   </g>
   <g id="patch_4">
    <path d="M 1133.28 260.12 
L 1133.28 14.76 
" style="fill:none;stroke:#000000;stroke-linecap:square;stroke-linejoin:miter;stroke-width:0.8;"/>
   </g>
   <g id="patch_5">
    <path d="M 33.64 260.12 
L 1133.28 260.12 
" style="fill:none;stroke:#000000;stroke-linecap:square;stroke-linejoin:miter;stroke-width:0.8;"/>
   </g>
   <g id="patch_6">
    <path d="M 33.64 14.76 
L 1133.28 14.76 
" style="fill:none;stroke:#000000;stroke-linecap:square;stroke-linejoin:miter;stroke-width:0.8;"/>
   </g>
  </g>
 </g>
 <defs>
  <clipPath id="p7745d594ca">
   <rect height="245.36" width="1099.64" x="33.64" y="14.76"/>
  </clipPath>
 </defs>
</svg>
