<?xml version="1.0" encoding="utf-8" standalone="no"?>
<!DOCTYPE svg PUBLIC "-//W3C//DTD SVG 1.1//EN"
  "http://www.w3.org/Graphics/SVG/1.1/DTD/svg11.dtd">
<!-- Created with matplotlib (https://matplotlib.org/) -->
<svg height="288pt" version="1.1" viewBox="0 0 1152 288" width="1152pt" xmlns="http://www.w3.org/2000/svg" xmlns:xlink="http://www.w3.org/1999/xlink">
 <defs>
  <style type="text/css">
*{stroke-linecap:butt;stroke-linejoin:round;}
  </style>
 </defs>
 <g id="figure_1">
  <g id="patch_1">
   <path d="M 0 288 
L 1152 288 
L 1152 0 
L 0 0 
z
" style="fill:#ffffff;"/>
  </g>
  <g id="axes_1">
   <g id="patch_2">
    <path d="M 33.64 260.12 
L 1133.28 260.12 
L 1133.28 14.76 
L 33.64 14.76 
z
" style="fill:#ffffff;"/>
   </g>
   <g id="matplotlib.axis_1">
    <g id="xtick_1">
     <g id="line2d_1">
      <defs>
       <path d="M 0 0 
L 0 3.5 
" id="m40ef1255e3" style="stroke:#000000;stroke-width:0.8;"/>
      </defs>
      <g>
       <use style="stroke:#000000;stroke-width:0.8;" x="217.852616" xlink:href="#m40ef1255e3" y="260.12"/>
      </g>
     </g>
     <g id="text_1">
      <!-- Tue 00:00 -->
      <defs>
       <path d="M -0.296875 72.90625 
L 61.375 72.90625 
L 61.375 64.59375 
L 35.5 64.59375 
L 35.5 0 
L 25.59375 0 
L 25.59375 64.59375 
L -0.296875 64.59375 
z
" id="DejaVuSans-84"/>
       <path d="M 8.5 21.578125 
L 8.5 54.6875 
L 17.484375 54.6875 
L 17.484375 21.921875 
Q 17.484375 14.15625 20.5 10.265625 
Q 23.53125 6.390625 29.59375 6.390625 
Q 36.859375 6.390625 41.078125 11.03125 
Q 45.3125 15.671875 45.3125 23.6875 
L 45.3125 54.6875 
L 54.296875 54.6875 
L 54.296875 0 
L 45.3125 0 
L 45.3125 8.40625 
Q 42.046875 3.421875 37.71875 1 
Q 33.40625 -1.421875 27.6875 -1.421875 
Q 18.265625 -1.421875 13.375 4.4375 
Q 8.5 10.296875 8.5 21.578125 
z
M 31.109375 56 
z
" id="DejaVuSans-117"/>
       <path d="M 56.203125 29.59375 
L 56.203125 25.203125 
L 14.890625 25.203125 
Q 15.484375 15.921875 20.484375 11.0625 
Q 25.484375 6.203125 34.421875 6.203125 
Q 39.59375 6.203125 44.453125 7.46875 
Q 49.3125 8.734375 54.109375 11.28125 
L 54.109375 2.78125 
Q 49.265625 0.734375 44.1875 -0.34375 
Q 39.109375 -1.421875 33.890625 -1.421875 
Q 20.796875 -1.421875 13.15625 6.1875 
Q 5.515625 13.8125 5.515625 26.8125 
Q 5.515625 40.234375 12.765625 48.109375 
Q 20.015625 56 32.328125 56 
Q 43.359375 56 49.78125 48.890625 
Q 56.203125 41.796875 56.203125 29.59375 
z
M 47.21875 32.234375 
Q 47.125 39.59375 43.09375 43.984375 
Q 39.0625 48.390625 32.421875 48.390625 
Q 24.90625 48.390625 20.390625 44.140625 
Q 15.875 39.890625 15.1875 32.171875 
z
" id="DejaVuSans-101"/>
       <path id="DejaVuSans-32"/>
       <path d="M 31.78125 66.40625 
Q 24.171875 66.40625 20.328125 58.90625 
Q 16.5 51.421875 16.5 36.375 
Q 16.5 21.390625 20.328125 13.890625 
Q 24.171875 6.390625 31.78125 6.390625 
Q 39.453125 6.390625 43.28125 13.890625 
Q 47.125 21.390625 47.125 36.375 
Q 47.125 51.421875 43.28125 58.90625 
Q 39.453125 66.40625 31.78125 66.40625 
z
M 31.78125 74.21875 
Q 44.046875 74.21875 50.515625 64.515625 
Q 56.984375 54.828125 56.984375 36.375 
Q 56.984375 17.96875 50.515625 8.265625 
Q 44.046875 -1.421875 31.78125 -1.421875 
Q 19.53125 -1.421875 13.0625 8.265625 
Q 6.59375 17.96875 6.59375 36.375 
Q 6.59375 54.828125 13.0625 64.515625 
Q 19.53125 74.21875 31.78125 74.21875 
z
" id="DejaVuSans-48"/>
       <path d="M 11.71875 12.40625 
L 22.015625 12.40625 
L 22.015625 0 
L 11.71875 0 
z
M 11.71875 51.703125 
L 22.015625 51.703125 
L 22.015625 39.3125 
L 11.71875 39.3125 
z
" id="DejaVuSans-58"/>
      </defs>
      <g transform="translate(192.566679 274.718437)scale(0.1 -0.1)">
       <use xlink:href="#DejaVuSans-84"/>
       <use x="60.849609" xlink:href="#DejaVuSans-117"/>
       <use x="124.228516" xlink:href="#DejaVuSans-101"/>
       <use x="185.751953" xlink:href="#DejaVuSans-32"/>
       <use x="217.539062" xlink:href="#DejaVuSans-48"/>
       <use x="281.162109" xlink:href="#DejaVuSans-48"/>
       <use x="344.785156" xlink:href="#DejaVuSans-58"/>
       <use x="378.476562" xlink:href="#DejaVuSans-48"/>
       <use x="442.099609" xlink:href="#DejaVuSans-48"/>
      </g>
     </g>
    </g>
    <g id="xtick_2">
     <g id="line2d_2">
      <g>
       <use style="stroke:#000000;stroke-width:0.8;" x="403.08184" xlink:href="#m40ef1255e3" y="260.12"/>
      </g>
     </g>
     <g id="text_2">
      <!-- Wed 00:00 -->
      <defs>
       <path d="M 3.328125 72.90625 
L 13.28125 72.90625 
L 28.609375 11.28125 
L 43.890625 72.90625 
L 54.984375 72.90625 
L 70.3125 11.28125 
L 85.59375 72.90625 
L 95.609375 72.90625 
L 77.296875 0 
L 64.890625 0 
L 49.515625 63.28125 
L 33.984375 0 
L 21.578125 0 
z
" id="DejaVuSans-87"/>
       <path d="M 45.40625 46.390625 
L 45.40625 75.984375 
L 54.390625 75.984375 
L 54.390625 0 
L 45.40625 0 
L 45.40625 8.203125 
Q 42.578125 3.328125 38.25 0.953125 
Q 33.9375 -1.421875 27.875 -1.421875 
Q 17.96875 -1.421875 11.734375 6.484375 
Q 5.515625 14.40625 5.515625 27.296875 
Q 5.515625 40.1875 11.734375 48.09375 
Q 17.96875 56 27.875 56 
Q 33.9375 56 38.25 53.625 
Q 42.578125 51.265625 45.40625 46.390625 
z
M 14.796875 27.296875 
Q 14.796875 17.390625 18.875 11.75 
Q 22.953125 6.109375 30.078125 6.109375 
Q 37.203125 6.109375 41.296875 11.75 
Q 45.40625 17.390625 45.40625 27.296875 
Q 45.40625 37.203125 41.296875 42.84375 
Q 37.203125 48.484375 30.078125 48.484375 
Q 22.953125 48.484375 18.875 42.84375 
Q 14.796875 37.203125 14.796875 27.296875 
z
" id="DejaVuSans-100"/>
      </defs>
      <g transform="translate(375.892778 274.718437)scale(0.1 -0.1)">
       <use xlink:href="#DejaVuSans-87"/>
       <use x="98.798828" xlink:href="#DejaVuSans-101"/>
       <use x="160.322266" xlink:href="#DejaVuSans-100"/>
       <use x="223.798828" xlink:href="#DejaVuSans-32"/>
       <use x="255.585938" xlink:href="#DejaVuSans-48"/>
       <use x="319.208984" xlink:href="#DejaVuSans-48"/>
       <use x="382.832031" xlink:href="#DejaVuSans-58"/>
       <use x="416.523438" xlink:href="#DejaVuSans-48"/>
       <use x="480.146484" xlink:href="#DejaVuSans-48"/>
      </g>
     </g>
    </g>
    <g id="xtick_3">
     <g id="line2d_3">
      <g>
       <use style="stroke:#000000;stroke-width:0.8;" x="588.311064" xlink:href="#m40ef1255e3" y="260.12"/>
      </g>
     </g>
     <g id="text_3">
      <!-- Thu 00:00 -->
      <defs>
       <path d="M 54.890625 33.015625 
L 54.890625 0 
L 45.90625 0 
L 45.90625 32.71875 
Q 45.90625 40.484375 42.875 44.328125 
Q 39.84375 48.1875 33.796875 48.1875 
Q 26.515625 48.1875 22.3125 43.546875 
Q 18.109375 38.921875 18.109375 30.90625 
L 18.109375 0 
L 9.078125 0 
L 9.078125 75.984375 
L 18.109375 75.984375 
L 18.109375 46.1875 
Q 21.34375 51.125 25.703125 53.5625 
Q 30.078125 56 35.796875 56 
Q 45.21875 56 50.046875 50.171875 
Q 54.890625 44.34375 54.890625 33.015625 
z
" id="DejaVuSans-104"/>
      </defs>
      <g transform="translate(562.92122 274.718437)scale(0.1 -0.1)">
       <use xlink:href="#DejaVuSans-84"/>
       <use x="61.083984" xlink:href="#DejaVuSans-104"/>
       <use x="124.462891" xlink:href="#DejaVuSans-117"/>
       <use x="187.841797" xlink:href="#DejaVuSans-32"/>
       <use x="219.628906" xlink:href="#DejaVuSans-48"/>
       <use x="283.251953" xlink:href="#DejaVuSans-48"/>
       <use x="346.875" xlink:href="#DejaVuSans-58"/>
       <use x="380.566406" xlink:href="#DejaVuSans-48"/>
       <use x="444.189453" xlink:href="#DejaVuSans-48"/>
      </g>
     </g>
    </g>
    <g id="xtick_4">
     <g id="line2d_4">
      <g>
       <use style="stroke:#000000;stroke-width:0.8;" x="773.540288" xlink:href="#m40ef1255e3" y="260.12"/>
      </g>
     </g>
     <g id="text_4">
      <!-- Fri 00:00 -->
      <defs>
       <path d="M 9.8125 72.90625 
L 51.703125 72.90625 
L 51.703125 64.59375 
L 19.671875 64.59375 
L 19.671875 43.109375 
L 48.578125 43.109375 
L 48.578125 34.8125 
L 19.671875 34.8125 
L 19.671875 0 
L 9.8125 0 
z
" id="DejaVuSans-70"/>
       <path d="M 41.109375 46.296875 
Q 39.59375 47.171875 37.8125 47.578125 
Q 36.03125 48 33.890625 48 
Q 26.265625 48 22.1875 43.046875 
Q 18.109375 38.09375 18.109375 28.8125 
L 18.109375 0 
L 9.078125 0 
L 9.078125 54.6875 
L 18.109375 54.6875 
L 18.109375 46.1875 
Q 20.953125 51.171875 25.484375 53.578125 
Q 30.03125 56 36.53125 56 
Q 37.453125 56 38.578125 55.875 
Q 39.703125 55.765625 41.0625 55.515625 
z
" id="DejaVuSans-114"/>
       <path d="M 9.421875 54.6875 
L 18.40625 54.6875 
L 18.40625 0 
L 9.421875 0 
z
M 9.421875 75.984375 
L 18.40625 75.984375 
L 18.40625 64.59375 
L 9.421875 64.59375 
z
" id="DejaVuSans-105"/>
      </defs>
      <g transform="translate(751.227006 274.718437)scale(0.1 -0.1)">
       <use xlink:href="#DejaVuSans-70"/>
       <use x="57.410156" xlink:href="#DejaVuSans-114"/>
       <use x="98.523438" xlink:href="#DejaVuSans-105"/>
       <use x="126.306641" xlink:href="#DejaVuSans-32"/>
       <use x="158.09375" xlink:href="#DejaVuSans-48"/>
       <use x="221.716797" xlink:href="#DejaVuSans-48"/>
       <use x="285.339844" xlink:href="#DejaVuSans-58"/>
       <use x="319.03125" xlink:href="#DejaVuSans-48"/>
       <use x="382.654297" xlink:href="#DejaVuSans-48"/>
      </g>
     </g>
    </g>
    <g id="xtick_5">
     <g id="line2d_5">
      <g>
       <use style="stroke:#000000;stroke-width:0.8;" x="958.769511" xlink:href="#m40ef1255e3" y="260.12"/>
      </g>
     </g>
     <g id="text_5">
      <!-- Sat 00:00 -->
      <defs>
       <path d="M 53.515625 70.515625 
L 53.515625 60.890625 
Q 47.90625 63.578125 42.921875 64.890625 
Q 37.9375 66.21875 33.296875 66.21875 
Q 25.25 66.21875 20.875 63.09375 
Q 16.5 59.96875 16.5 54.203125 
Q 16.5 49.359375 19.40625 46.890625 
Q 22.3125 44.4375 30.421875 42.921875 
L 36.375 41.703125 
Q 47.40625 39.59375 52.65625 34.296875 
Q 57.90625 29 57.90625 20.125 
Q 57.90625 9.515625 50.796875 4.046875 
Q 43.703125 -1.421875 29.984375 -1.421875 
Q 24.8125 -1.421875 18.96875 -0.25 
Q 13.140625 0.921875 6.890625 3.21875 
L 6.890625 13.375 
Q 12.890625 10.015625 18.65625 8.296875 
Q 24.421875 6.59375 29.984375 6.59375 
Q 38.421875 6.59375 43.015625 9.90625 
Q 47.609375 13.234375 47.609375 19.390625 
Q 47.609375 24.75 44.3125 27.78125 
Q 41.015625 30.8125 33.5 32.328125 
L 27.484375 33.5 
Q 16.453125 35.6875 11.515625 40.375 
Q 6.59375 45.0625 6.59375 53.421875 
Q 6.59375 63.09375 13.40625 68.65625 
Q 20.21875 74.21875 32.171875 74.21875 
Q 37.3125 74.21875 42.625 73.28125 
Q 47.953125 72.359375 53.515625 70.515625 
z
" id="DejaVuSans-83"/>
       <path d="M 34.28125 27.484375 
Q 23.390625 27.484375 19.1875 25 
Q 14.984375 22.515625 14.984375 16.5 
Q 14.984375 11.71875 18.140625 8.90625 
Q 21.296875 6.109375 26.703125 6.109375 
Q 34.1875 6.109375 38.703125 11.40625 
Q 43.21875 16.703125 43.21875 25.484375 
L 43.21875 27.484375 
z
M 52.203125 31.203125 
L 52.203125 0 
L 43.21875 0 
L 43.21875 8.296875 
Q 40.140625 3.328125 35.546875 0.953125 
Q 30.953125 -1.421875 24.3125 -1.421875 
Q 15.921875 -1.421875 10.953125 3.296875 
Q 6 8.015625 6 15.921875 
Q 6 25.140625 12.171875 29.828125 
Q 18.359375 34.515625 30.609375 34.515625 
L 43.21875 34.515625 
L 43.21875 35.40625 
Q 43.21875 41.609375 39.140625 45 
Q 35.0625 48.390625 27.6875 48.390625 
Q 23 48.390625 18.546875 47.265625 
Q 14.109375 46.140625 10.015625 43.890625 
L 10.015625 52.203125 
Q 14.9375 54.109375 19.578125 55.046875 
Q 24.21875 56 28.609375 56 
Q 40.484375 56 46.34375 49.84375 
Q 52.203125 43.703125 52.203125 31.203125 
z
" id="DejaVuSans-97"/>
       <path d="M 18.3125 70.21875 
L 18.3125 54.6875 
L 36.8125 54.6875 
L 36.8125 47.703125 
L 18.3125 47.703125 
L 18.3125 18.015625 
Q 18.3125 11.328125 20.140625 9.421875 
Q 21.96875 7.515625 27.59375 7.515625 
L 36.8125 7.515625 
L 36.8125 0 
L 27.59375 0 
Q 17.1875 0 13.234375 3.875 
Q 9.28125 7.765625 9.28125 18.015625 
L 9.28125 47.703125 
L 2.6875 47.703125 
L 2.6875 54.6875 
L 9.28125 54.6875 
L 9.28125 70.21875 
z
" id="DejaVuSans-116"/>
      </defs>
      <g transform="translate(934.572636 274.718437)scale(0.1 -0.1)">
       <use xlink:href="#DejaVuSans-83"/>
       <use x="63.476562" xlink:href="#DejaVuSans-97"/>
       <use x="124.755859" xlink:href="#DejaVuSans-116"/>
       <use x="163.964844" xlink:href="#DejaVuSans-32"/>
       <use x="195.751953" xlink:href="#DejaVuSans-48"/>
       <use x="259.375" xlink:href="#DejaVuSans-48"/>
       <use x="322.998047" xlink:href="#DejaVuSans-58"/>
       <use x="356.689453" xlink:href="#DejaVuSans-48"/>
       <use x="420.3125" xlink:href="#DejaVuSans-48"/>
      </g>
     </g>
    </g>
   </g>
   <g id="matplotlib.axis_2">
    <g id="ytick_1">
     <g id="line2d_6">
      <defs>
       <path d="M 0 0 
L -3.5 0 
" id="ma175b380f5" style="stroke:#000000;stroke-width:0.8;"/>
      </defs>
      <g>
       <use style="stroke:#000000;stroke-width:0.8;" x="33.64" xlink:href="#ma175b380f5" y="260.12"/>
      </g>
     </g>
     <g id="text_6">
      <!-- 0 -->
      <g transform="translate(20.2775 263.919219)scale(0.1 -0.1)">
       <use xlink:href="#DejaVuSans-48"/>
      </g>
     </g>
    </g>
    <g id="ytick_2">
     <g id="line2d_7">
      <g>
       <use style="stroke:#000000;stroke-width:0.8;" x="33.64" xlink:href="#ma175b380f5" y="232.857778"/>
      </g>
     </g>
     <g id="text_7">
      <!-- 20 -->
      <defs>
       <path d="M 19.1875 8.296875 
L 53.609375 8.296875 
L 53.609375 0 
L 7.328125 0 
L 7.328125 8.296875 
Q 12.9375 14.109375 22.625 23.890625 
Q 32.328125 33.6875 34.8125 36.53125 
Q 39.546875 41.84375 41.421875 45.53125 
Q 43.3125 49.21875 43.3125 52.78125 
Q 43.3125 58.59375 39.234375 62.25 
Q 35.15625 65.921875 28.609375 65.921875 
Q 23.96875 65.921875 18.8125 64.3125 
Q 13.671875 62.703125 7.8125 59.421875 
L 7.8125 69.390625 
Q 13.765625 71.78125 18.9375 73 
Q 24.125 74.21875 28.421875 74.21875 
Q 39.75 74.21875 46.484375 68.546875 
Q 53.21875 62.890625 53.21875 53.421875 
Q 53.21875 48.921875 51.53125 44.890625 
Q 49.859375 40.875 45.40625 35.40625 
Q 44.1875 33.984375 37.640625 27.21875 
Q 31.109375 20.453125 19.1875 8.296875 
z
" id="DejaVuSans-50"/>
      </defs>
      <g transform="translate(13.915 236.656997)scale(0.1 -0.1)">
       <use xlink:href="#DejaVuSans-50"/>
       <use x="63.623047" xlink:href="#DejaVuSans-48"/>
      </g>
     </g>
    </g>
    <g id="ytick_3">
     <g id="line2d_8">
      <g>
       <use style="stroke:#000000;stroke-width:0.8;" x="33.64" xlink:href="#ma175b380f5" y="205.595556"/>
      </g>
     </g>
     <g id="text_8">
      <!-- 40 -->
      <defs>
       <path d="M 37.796875 64.3125 
L 12.890625 25.390625 
L 37.796875 25.390625 
z
M 35.203125 72.90625 
L 47.609375 72.90625 
L 47.609375 25.390625 
L 58.015625 25.390625 
L 58.015625 17.1875 
L 47.609375 17.1875 
L 47.609375 0 
L 37.796875 0 
L 37.796875 17.1875 
L 4.890625 17.1875 
L 4.890625 26.703125 
z
" id="DejaVuSans-52"/>
      </defs>
      <g transform="translate(13.915 209.394774)scale(0.1 -0.1)">
       <use xlink:href="#DejaVuSans-52"/>
       <use x="63.623047" xlink:href="#DejaVuSans-48"/>
      </g>
     </g>
    </g>
    <g id="ytick_4">
     <g id="line2d_9">
      <g>
       <use style="stroke:#000000;stroke-width:0.8;" x="33.64" xlink:href="#ma175b380f5" y="178.333333"/>
      </g>
     </g>
     <g id="text_9">
      <!-- 60 -->
      <defs>
       <path d="M 33.015625 40.375 
Q 26.375 40.375 22.484375 35.828125 
Q 18.609375 31.296875 18.609375 23.390625 
Q 18.609375 15.53125 22.484375 10.953125 
Q 26.375 6.390625 33.015625 6.390625 
Q 39.65625 6.390625 43.53125 10.953125 
Q 47.40625 15.53125 47.40625 23.390625 
Q 47.40625 31.296875 43.53125 35.828125 
Q 39.65625 40.375 33.015625 40.375 
z
M 52.59375 71.296875 
L 52.59375 62.3125 
Q 48.875 64.0625 45.09375 64.984375 
Q 41.3125 65.921875 37.59375 65.921875 
Q 27.828125 65.921875 22.671875 59.328125 
Q 17.53125 52.734375 16.796875 39.40625 
Q 19.671875 43.65625 24.015625 45.921875 
Q 28.375 48.1875 33.59375 48.1875 
Q 44.578125 48.1875 50.953125 41.515625 
Q 57.328125 34.859375 57.328125 23.390625 
Q 57.328125 12.15625 50.6875 5.359375 
Q 44.046875 -1.421875 33.015625 -1.421875 
Q 20.359375 -1.421875 13.671875 8.265625 
Q 6.984375 17.96875 6.984375 36.375 
Q 6.984375 53.65625 15.1875 63.9375 
Q 23.390625 74.21875 37.203125 74.21875 
Q 40.921875 74.21875 44.703125 73.484375 
Q 48.484375 72.75 52.59375 71.296875 
z
" id="DejaVuSans-54"/>
      </defs>
      <g transform="translate(13.915 182.132552)scale(0.1 -0.1)">
       <use xlink:href="#DejaVuSans-54"/>
       <use x="63.623047" xlink:href="#DejaVuSans-48"/>
      </g>
     </g>
    </g>
    <g id="ytick_5">
     <g id="line2d_10">
      <g>
       <use style="stroke:#000000;stroke-width:0.8;" x="33.64" xlink:href="#ma175b380f5" y="151.071111"/>
      </g>
     </g>
     <g id="text_10">
      <!-- 80 -->
      <defs>
       <path d="M 31.78125 34.625 
Q 24.75 34.625 20.71875 30.859375 
Q 16.703125 27.09375 16.703125 20.515625 
Q 16.703125 13.921875 20.71875 10.15625 
Q 24.75 6.390625 31.78125 6.390625 
Q 38.8125 6.390625 42.859375 10.171875 
Q 46.921875 13.96875 46.921875 20.515625 
Q 46.921875 27.09375 42.890625 30.859375 
Q 38.875 34.625 31.78125 34.625 
z
M 21.921875 38.8125 
Q 15.578125 40.375 12.03125 44.71875 
Q 8.5 49.078125 8.5 55.328125 
Q 8.5 64.0625 14.71875 69.140625 
Q 20.953125 74.21875 31.78125 74.21875 
Q 42.671875 74.21875 48.875 69.140625 
Q 55.078125 64.0625 55.078125 55.328125 
Q 55.078125 49.078125 51.53125 44.71875 
Q 48 40.375 41.703125 38.8125 
Q 48.828125 37.15625 52.796875 32.3125 
Q 56.78125 27.484375 56.78125 20.515625 
Q 56.78125 9.90625 50.3125 4.234375 
Q 43.84375 -1.421875 31.78125 -1.421875 
Q 19.734375 -1.421875 13.25 4.234375 
Q 6.78125 9.90625 6.78125 20.515625 
Q 6.78125 27.484375 10.78125 32.3125 
Q 14.796875 37.15625 21.921875 38.8125 
z
M 18.3125 54.390625 
Q 18.3125 48.734375 21.84375 45.5625 
Q 25.390625 42.390625 31.78125 42.390625 
Q 38.140625 42.390625 41.71875 45.5625 
Q 45.3125 48.734375 45.3125 54.390625 
Q 45.3125 60.0625 41.71875 63.234375 
Q 38.140625 66.40625 31.78125 66.40625 
Q 25.390625 66.40625 21.84375 63.234375 
Q 18.3125 60.0625 18.3125 54.390625 
z
" id="DejaVuSans-56"/>
      </defs>
      <g transform="translate(13.915 154.87033)scale(0.1 -0.1)">
       <use xlink:href="#DejaVuSans-56"/>
       <use x="63.623047" xlink:href="#DejaVuSans-48"/>
      </g>
     </g>
    </g>
    <g id="ytick_6">
     <g id="line2d_11">
      <g>
       <use style="stroke:#000000;stroke-width:0.8;" x="33.64" xlink:href="#ma175b380f5" y="123.808889"/>
      </g>
     </g>
     <g id="text_11">
      <!-- 100 -->
      <defs>
       <path d="M 12.40625 8.296875 
L 28.515625 8.296875 
L 28.515625 63.921875 
L 10.984375 60.40625 
L 10.984375 69.390625 
L 28.421875 72.90625 
L 38.28125 72.90625 
L 38.28125 8.296875 
L 54.390625 8.296875 
L 54.390625 0 
L 12.40625 0 
z
" id="DejaVuSans-49"/>
      </defs>
      <g transform="translate(7.5525 127.608108)scale(0.1 -0.1)">
       <use xlink:href="#DejaVuSans-49"/>
       <use x="63.623047" xlink:href="#DejaVuSans-48"/>
       <use x="127.246094" xlink:href="#DejaVuSans-48"/>
      </g>
     </g>
    </g>
    <g id="ytick_7">
     <g id="line2d_12">
      <g>
       <use style="stroke:#000000;stroke-width:0.8;" x="33.64" xlink:href="#ma175b380f5" y="96.546667"/>
      </g>
     </g>
     <g id="text_12">
      <!-- 120 -->
      <g transform="translate(7.5525 100.345885)scale(0.1 -0.1)">
       <use xlink:href="#DejaVuSans-49"/>
       <use x="63.623047" xlink:href="#DejaVuSans-50"/>
       <use x="127.246094" xlink:href="#DejaVuSans-48"/>
      </g>
     </g>
    </g>
    <g id="ytick_8">
     <g id="line2d_13">
      <g>
       <use style="stroke:#000000;stroke-width:0.8;" x="33.64" xlink:href="#ma175b380f5" y="69.284444"/>
      </g>
     </g>
     <g id="text_13">
      <!-- 140 -->
      <g transform="translate(7.5525 73.083663)scale(0.1 -0.1)">
       <use xlink:href="#DejaVuSans-49"/>
       <use x="63.623047" xlink:href="#DejaVuSans-52"/>
       <use x="127.246094" xlink:href="#DejaVuSans-48"/>
      </g>
     </g>
    </g>
    <g id="ytick_9">
     <g id="line2d_14">
      <g>
       <use style="stroke:#000000;stroke-width:0.8;" x="33.64" xlink:href="#ma175b380f5" y="42.022222"/>
      </g>
     </g>
     <g id="text_14">
      <!-- 160 -->
      <g transform="translate(7.5525 45.821441)scale(0.1 -0.1)">
       <use xlink:href="#DejaVuSans-49"/>
       <use x="63.623047" xlink:href="#DejaVuSans-54"/>
       <use x="127.246094" xlink:href="#DejaVuSans-48"/>
      </g>
     </g>
    </g>
    <g id="ytick_10">
     <g id="line2d_15">
      <g>
       <use style="stroke:#000000;stroke-width:0.8;" x="33.64" xlink:href="#ma175b380f5" y="14.76"/>
      </g>
     </g>
     <g id="text_15">
      <!-- 180 -->
      <g transform="translate(7.5525 18.559219)scale(0.1 -0.1)">
       <use xlink:href="#DejaVuSans-49"/>
       <use x="63.623047" xlink:href="#DejaVuSans-56"/>
       <use x="127.246094" xlink:href="#DejaVuSans-48"/>
      </g>
     </g>
    </g>
   </g>
   <g id="line2d_16">
    <path clip-path="url(#pa53d5aceba)" d="M 33.64 260.12 
L 103.941688 260.12 
L 105.265207 254.667556 
L 106.588101 254.667556 
L 107.913895 242.399556 
L 109.235973 241.036444 
L 110.55838 230.131556 
L 111.884686 230.131556 
L 113.211871 226.042222 
L 114.535084 224.679111 
L 117.180669 224.679111 
L 119.825256 216.500444 
L 121.147611 216.500444 
L 122.469831 221.952889 
L 123.792822 221.952889 
L 125.114745 231.494667 
L 126.438594 235.584 
L 129.083928 235.584 
L 131.731792 227.405333 
L 133.053956 227.405333 
L 134.37652 231.494667 
L 135.699702 224.679111 
L 137.021753 224.679111 
L 138.343576 227.405333 
L 139.671313 224.679111 
L 140.994591 226.042222 
L 142.317575 226.042222 
L 143.640084 231.494667 
L 144.963005 231.494667 
L 146.284791 230.131556 
L 147.606389 227.405333 
L 148.928907 227.405333 
L 150.253044 226.042222 
L 151.577118 221.952889 
L 152.900981 223.316 
L 154.226159 223.316 
L 155.549352 219.226667 
L 156.872279 216.500444 
L 158.194664 216.500444 
L 159.5174 206.958667 
L 160.840576 208.321778 
L 162.163455 205.595556 
L 163.487144 205.595556 
L 164.809882 198.78 
L 166.13236 198.78 
L 167.455012 197.416889 
L 170.101715 197.416889 
L 171.424055 193.327556 
L 174.069049 159.249778 
L 175.393306 159.249778 
L 176.719259 149.708 
L 178.043176 136.076889 
L 180.690551 136.076889 
L 182.013987 140.166222 
L 183.33652 140.166222 
L 184.660618 141.529333 
L 185.984167 137.44 
L 187.307172 137.44 
L 188.632001 131.987556 
L 189.9597 111.540889 
L 191.283084 116.993333 
L 192.608321 116.993333 
L 193.932143 121.082667 
L 195.258795 126.535111 
L 199.227365 126.535111 
L 200.549921 142.892444 
L 203.194267 153.797333 
L 204.519394 153.797333 
L 205.841905 168.791556 
L 207.16567 179.696444 
L 208.488122 179.696444 
L 209.811509 185.148889 
L 211.134694 193.327556 
L 213.783037 193.327556 
L 215.106358 260.12 
L 286.763607 260.12 
L 288.065283 258.756889 
L 289.391688 258.756889 
L 290.714211 251.941333 
L 292.036696 246.488889 
L 293.362628 246.488889 
L 294.690846 243.762667 
L 296.01441 224.679111 
L 297.338573 216.500444 
L 298.66156 216.500444 
L 299.984975 213.774222 
L 301.307674 213.774222 
L 302.631097 211.048 
L 305.277672 211.048 
L 306.601823 204.232444 
L 307.925837 211.048 
L 310.571111 211.048 
L 313.219025 213.774222 
L 314.544872 213.774222 
L 315.868814 215.137333 
L 317.191955 226.042222 
L 318.515415 226.042222 
L 319.838371 236.947111 
L 321.163125 242.399556 
L 322.48525 242.399556 
L 325.131276 239.673333 
L 326.455404 236.947111 
L 331.752202 236.947111 
L 334.400464 231.494667 
L 335.72545 227.405333 
L 337.048964 227.405333 
L 338.373 226.042222 
L 339.695467 226.042222 
L 341.018849 220.589778 
L 342.41091 217.863556 
L 343.735784 217.863556 
L 345.05976 211.048 
L 346.382833 197.416889 
L 347.706652 194.690667 
L 349.032028 194.690667 
L 350.359138 183.785778 
L 351.686303 175.607111 
L 353.011661 175.607111 
L 354.33756 151.071111 
L 355.662984 129.261333 
L 356.987456 129.261333 
L 358.310418 121.082667 
L 359.63336 103.362222 
L 360.956737 103.362222 
L 362.280557 93.820444 
L 363.609046 88.368 
L 364.932228 88.368 
L 366.255033 74.736889 
L 367.580299 77.463111 
L 368.907512 73.373778 
L 370.230445 73.373778 
L 371.554081 88.368 
L 372.879041 89.731111 
L 374.202256 89.731111 
L 375.527869 93.820444 
L 376.850933 115.630222 
L 378.17502 115.630222 
L 379.498582 131.987556 
L 380.821474 140.166222 
L 382.144422 140.166222 
L 383.467177 148.344889 
L 386.111945 148.344889 
L 387.436815 157.886667 
L 388.759971 163.339111 
L 390.085374 163.339111 
L 391.407692 168.791556 
L 392.733193 185.148889 
L 394.055996 185.148889 
L 396.710825 204.232444 
L 398.036252 260.12 
L 472.325664 260.12 
L 473.627447 258.756889 
L 474.950442 258.756889 
L 476.274555 241.036444 
L 477.600585 232.857778 
L 478.924385 230.131556 
L 480.247975 230.131556 
L 481.578218 226.042222 
L 484.22655 226.042222 
L 485.553155 224.679111 
L 486.877232 217.863556 
L 488.201189 217.863556 
L 489.524842 219.226667 
L 490.851092 216.500444 
L 492.17634 216.500444 
L 493.499516 219.226667 
L 494.823067 228.768444 
L 500.12379 228.768444 
L 501.447185 231.494667 
L 502.770079 238.310222 
L 504.095525 242.399556 
L 505.421355 242.399556 
L 506.745048 243.762667 
L 508.070148 242.399556 
L 509.392816 242.399556 
L 512.041257 236.947111 
L 513.364748 235.584 
L 514.687493 235.584 
L 516.011512 231.494667 
L 517.334805 231.494667 
L 518.658354 223.316 
L 519.981312 223.316 
L 521.305079 216.500444 
L 522.628494 216.500444 
L 523.953897 219.226667 
L 526.599311 219.226667 
L 527.924912 205.595556 
L 529.250691 204.232444 
L 530.577353 204.232444 
L 533.228411 190.601333 
L 534.551111 182.422667 
L 535.879671 182.422667 
L 537.203636 189.238222 
L 538.526118 189.238222 
L 539.848264 182.422667 
L 541.171923 167.428444 
L 542.494602 167.428444 
L 543.822257 164.702222 
L 545.144729 159.249778 
L 546.46787 151.071111 
L 547.790372 151.071111 
L 549.113086 155.160444 
L 550.438021 144.255556 
L 551.762236 144.255556 
L 553.086648 140.166222 
L 554.410269 126.535111 
L 555.735495 126.535111 
L 557.059041 125.172 
L 558.384398 131.987556 
L 559.706813 131.987556 
L 561.030477 111.540889 
L 562.353741 101.999111 
L 563.677269 97.909778 
L 565.000747 97.909778 
L 566.323612 101.999111 
L 567.647255 101.999111 
L 568.970928 108.814667 
L 570.296586 123.808889 
L 571.619318 137.44 
L 572.94373 137.44 
L 574.267574 153.797333 
L 575.593653 159.249778 
L 576.916317 159.249778 
L 578.239809 175.607111 
L 579.564719 187.875111 
L 580.891738 187.875111 
L 582.214321 196.053778 
L 583.537523 209.684889 
L 584.862874 209.684889 
L 586.188006 260.12 
L 659.149333 260.12 
L 660.472492 254.667556 
L 661.795332 254.667556 
L 663.118399 236.947111 
L 664.441403 227.405333 
L 665.764129 224.679111 
L 667.086916 224.679111 
L 668.409528 227.405333 
L 669.731843 227.405333 
L 671.053818 221.952889 
L 672.376937 220.589778 
L 673.702191 217.863556 
L 675.025827 217.863556 
L 676.348975 221.952889 
L 677.671206 220.589778 
L 678.994832 220.589778 
L 680.316717 224.679111 
L 681.639124 231.494667 
L 684.289982 231.494667 
L 685.612681 232.857778 
L 686.93523 232.857778 
L 688.258812 235.584 
L 689.582027 234.220889 
L 690.90443 234.220889 
L 692.226522 235.584 
L 693.549136 238.310222 
L 694.872146 243.762667 
L 698.840036 243.762667 
L 701.486385 238.310222 
L 702.812331 234.220889 
L 704.134861 234.220889 
L 705.457452 232.857778 
L 706.78096 228.768444 
L 712.076396 228.768444 
L 714.724601 226.042222 
L 716.048021 223.316 
L 717.370922 223.316 
L 720.019622 198.78 
L 721.344049 198.78 
L 722.668563 204.232444 
L 723.99299 204.232444 
L 725.318473 201.506222 
L 726.641374 189.238222 
L 727.964943 186.512 
L 729.287729 186.512 
L 731.93388 142.892444 
L 733.258165 142.892444 
L 734.581735 131.987556 
L 735.905891 136.076889 
L 737.229301 136.076889 
L 738.552824 119.719556 
L 739.876487 116.993333 
L 741.199776 116.993333 
L 742.52302 107.451556 
L 743.848082 108.814667 
L 745.17211 108.814667 
L 746.495111 103.362222 
L 747.818931 88.368 
L 749.143534 84.278667 
L 750.467901 84.278667 
L 751.791994 100.636 
L 753.115243 107.451556 
L 754.43831 107.451556 
L 755.761433 122.445778 
L 757.085631 160.612889 
L 758.408928 160.612889 
L 759.732734 163.339111 
L 761.056296 168.791556 
L 762.379491 168.791556 
L 763.703312 190.601333 
L 765.026826 198.78 
L 766.350816 211.048 
L 767.674106 211.048 
L 768.997918 260.12 
L 843.280122 260.12 
L 844.604035 256.030667 
L 845.927637 250.578222 
L 847.251195 250.578222 
L 848.576062 238.310222 
L 849.901082 234.220889 
L 851.227571 234.220889 
L 852.550904 228.768444 
L 853.874584 226.042222 
L 855.199897 220.589778 
L 857.851502 220.589778 
L 859.177435 221.952889 
L 860.499838 221.952889 
L 861.822749 220.589778 
L 865.794012 220.589778 
L 867.116839 223.316 
L 868.440513 223.316 
L 869.764609 224.679111 
L 871.087806 227.405333 
L 872.413121 227.405333 
L 873.736567 220.589778 
L 876.385399 217.863556 
L 877.71043 217.863556 
L 879.038223 215.137333 
L 880.365343 215.137333 
L 881.6909 213.774222 
L 883.013581 211.048 
L 884.338414 213.774222 
L 885.662011 213.774222 
L 888.307834 216.500444 
L 889.629716 216.500444 
L 890.951998 205.595556 
L 892.274564 212.411111 
L 893.597309 213.774222 
L 894.919819 213.774222 
L 896.242162 205.595556 
L 897.56687 205.595556 
L 898.889708 206.958667 
L 900.211796 213.774222 
L 901.534742 197.416889 
L 902.858866 197.416889 
L 904.183831 191.964444 
L 905.506811 183.785778 
L 906.832602 183.785778 
L 908.155409 170.154667 
L 909.47776 178.333333 
L 910.803683 178.333333 
L 912.126177 181.059556 
L 913.44994 166.065333 
L 914.772474 166.065333 
L 916.098333 163.339111 
L 917.423886 156.523556 
L 918.748401 140.166222 
L 920.071474 140.166222 
L 921.39414 145.618667 
L 922.720202 145.618667 
L 924.043579 148.344889 
L 925.369758 146.981778 
L 926.694998 159.249778 
L 928.020799 159.249778 
L 929.343792 156.523556 
L 930.669597 159.249778 
L 931.992205 159.249778 
L 934.641664 170.154667 
L 935.96507 176.970222 
L 937.289041 176.970222 
L 938.612592 179.696444 
L 939.936623 179.696444 
L 941.258937 190.601333 
L 942.581873 197.416889 
L 943.907224 197.416889 
L 945.230479 206.958667 
L 946.557087 215.137333 
L 947.880474 217.863556 
L 949.205741 217.863556 
L 950.52977 221.952889 
L 951.852666 227.405333 
L 953.177635 227.405333 
L 954.500505 260.12 
L 1030.093214 260.12 
L 1031.416354 258.756889 
L 1032.741349 238.310222 
L 1034.066036 238.310222 
L 1035.392206 221.952889 
L 1036.714422 212.411111 
L 1038.039079 212.411111 
L 1039.361321 208.321778 
L 1040.686196 201.506222 
L 1042.008728 201.506222 
L 1043.333372 190.601333 
L 1044.658467 181.059556 
L 1045.98147 182.422667 
L 1047.303881 182.422667 
L 1048.626544 179.696444 
L 1049.948229 187.875111 
L 1051.271079 187.875111 
L 1052.593089 197.416889 
L 1053.91633 197.416889 
L 1055.238045 194.690667 
L 1056.559892 197.416889 
L 1057.882243 194.690667 
L 1059.205106 194.690667 
L 1060.527348 197.416889 
L 1061.849079 201.506222 
L 1063.170993 201.506222 
L 1064.493727 200.143111 
L 1065.818599 197.416889 
L 1067.140923 202.869333 
L 1068.463281 202.869333 
L 1069.785397 206.958667 
L 1071.107176 206.958667 
L 1072.429212 194.690667 
L 1073.751184 206.958667 
L 1075.074762 208.321778 
L 1076.396787 208.321778 
L 1077.718608 211.048 
L 1079.040511 211.048 
L 1080.362361 206.958667 
L 1081.687212 209.684889 
L 1083.009076 209.684889 
L 1084.334179 212.411111 
L 1085.657457 209.684889 
L 1086.979658 211.048 
L 1088.304427 211.048 
L 1089.626722 205.595556 
L 1090.952797 208.321778 
L 1092.275347 208.321778 
L 1093.597352 212.411111 
L 1094.919389 220.589778 
L 1096.241507 217.863556 
L 1097.563151 217.863556 
L 1098.888333 234.220889 
L 1100.21025 234.220889 
L 1101.532437 236.947111 
L 1102.857426 241.036444 
L 1104.179798 236.947111 
L 1106.829502 236.947111 
L 1108.152989 234.220889 
L 1109.476785 234.220889 
L 1110.798953 230.131556 
L 1112.120899 236.947111 
L 1113.44364 236.947111 
L 1114.768729 235.584 
L 1116.090795 231.494667 
L 1117.413144 230.131556 
L 1122.704683 230.131556 
L 1124.026973 228.768444 
L 1125.348815 231.494667 
L 1126.67072 231.494667 
L 1127.992552 230.131556 
L 1130.636873 230.131556 
L 1131.9584 231.494667 
L 1133.28 231.494667 
L 1133.28 231.494667 
" style="fill:none;stroke:#1f77b4;stroke-linecap:square;stroke-width:1.5;"/>
   </g>
   <g id="patch_3">
    <path d="M 33.64 260.12 
L 33.64 14.76 
" style="fill:none;stroke:#000000;stroke-linecap:square;stroke-linejoin:miter;stroke-width:0.8;"/>
   </g>
   <g id="patch_4">
    <path d="M 1133.28 260.12 
L 1133.28 14.76 
" style="fill:none;stroke:#000000;stroke-linecap:square;stroke-linejoin:miter;stroke-width:0.8;"/>
   </g>
   <g id="patch_5">
    <path d="M 33.64 260.12 
L 1133.28 260.12 
" style="fill:none;stroke:#000000;stroke-linecap:square;stroke-linejoin:miter;stroke-width:0.8;"/>
   </g>
   <g id="patch_6">
    <path d="M 33.64 14.76 
L 1133.28 14.76 
" style="fill:none;stroke:#000000;stroke-linecap:square;stroke-linejoin:miter;stroke-width:0.8;"/>
   </g>
  </g>
 </g>
 <defs>
  <clipPath id="pa53d5aceba">
   <rect height="245.36" width="1099.64" x="33.64" y="14.76"/>
  </clipPath>
 </defs>
</svg>
