<?xml version="1.0" encoding="utf-8" standalone="no"?>
<!DOCTYPE svg PUBLIC "-//W3C//DTD SVG 1.1//EN"
  "http://www.w3.org/Graphics/SVG/1.1/DTD/svg11.dtd">
<!-- Created with matplotlib (https://matplotlib.org/) -->
<svg height="288pt" version="1.1" viewBox="0 0 1152 288" width="1152pt" xmlns="http://www.w3.org/2000/svg" xmlns:xlink="http://www.w3.org/1999/xlink">
 <defs>
  <style type="text/css">
*{stroke-linecap:butt;stroke-linejoin:round;}
  </style>
 </defs>
 <g id="figure_1">
  <g id="patch_1">
   <path d="M 0 288 
L 1152 288 
L 1152 0 
L 0 0 
z
" style="fill:#ffffff;"/>
  </g>
  <g id="axes_1">
   <g id="patch_2">
    <path d="M 33.64 260.12 
L 1133.28 260.12 
L 1133.28 14.76 
L 33.64 14.76 
z
" style="fill:#ffffff;"/>
   </g>
   <g id="matplotlib.axis_1">
    <g id="xtick_1">
     <g id="line2d_1">
      <defs>
       <path d="M 0 0 
L 0 3.5 
" id="m1bd6a02221" style="stroke:#000000;stroke-width:0.8;"/>
      </defs>
      <g>
       <use style="stroke:#000000;stroke-width:0.8;" x="199.362676" xlink:href="#m1bd6a02221" y="260.12"/>
      </g>
     </g>
     <g id="text_1">
      <!-- Tue 00:00 -->
      <defs>
       <path d="M -0.296875 72.90625 
L 61.375 72.90625 
L 61.375 64.59375 
L 35.5 64.59375 
L 35.5 0 
L 25.59375 0 
L 25.59375 64.59375 
L -0.296875 64.59375 
z
" id="DejaVuSans-84"/>
       <path d="M 8.5 21.578125 
L 8.5 54.6875 
L 17.484375 54.6875 
L 17.484375 21.921875 
Q 17.484375 14.15625 20.5 10.265625 
Q 23.53125 6.390625 29.59375 6.390625 
Q 36.859375 6.390625 41.078125 11.03125 
Q 45.3125 15.671875 45.3125 23.6875 
L 45.3125 54.6875 
L 54.296875 54.6875 
L 54.296875 0 
L 45.3125 0 
L 45.3125 8.40625 
Q 42.046875 3.421875 37.71875 1 
Q 33.40625 -1.421875 27.6875 -1.421875 
Q 18.265625 -1.421875 13.375 4.4375 
Q 8.5 10.296875 8.5 21.578125 
z
M 31.109375 56 
z
" id="DejaVuSans-117"/>
       <path d="M 56.203125 29.59375 
L 56.203125 25.203125 
L 14.890625 25.203125 
Q 15.484375 15.921875 20.484375 11.0625 
Q 25.484375 6.203125 34.421875 6.203125 
Q 39.59375 6.203125 44.453125 7.46875 
Q 49.3125 8.734375 54.109375 11.28125 
L 54.109375 2.78125 
Q 49.265625 0.734375 44.1875 -0.34375 
Q 39.109375 -1.421875 33.890625 -1.421875 
Q 20.796875 -1.421875 13.15625 6.1875 
Q 5.515625 13.8125 5.515625 26.8125 
Q 5.515625 40.234375 12.765625 48.109375 
Q 20.015625 56 32.328125 56 
Q 43.359375 56 49.78125 48.890625 
Q 56.203125 41.796875 56.203125 29.59375 
z
M 47.21875 32.234375 
Q 47.125 39.59375 43.09375 43.984375 
Q 39.0625 48.390625 32.421875 48.390625 
Q 24.90625 48.390625 20.390625 44.140625 
Q 15.875 39.890625 15.1875 32.171875 
z
" id="DejaVuSans-101"/>
       <path id="DejaVuSans-32"/>
       <path d="M 31.78125 66.40625 
Q 24.171875 66.40625 20.328125 58.90625 
Q 16.5 51.421875 16.5 36.375 
Q 16.5 21.390625 20.328125 13.890625 
Q 24.171875 6.390625 31.78125 6.390625 
Q 39.453125 6.390625 43.28125 13.890625 
Q 47.125 21.390625 47.125 36.375 
Q 47.125 51.421875 43.28125 58.90625 
Q 39.453125 66.40625 31.78125 66.40625 
z
M 31.78125 74.21875 
Q 44.046875 74.21875 50.515625 64.515625 
Q 56.984375 54.828125 56.984375 36.375 
Q 56.984375 17.96875 50.515625 8.265625 
Q 44.046875 -1.421875 31.78125 -1.421875 
Q 19.53125 -1.421875 13.0625 8.265625 
Q 6.59375 17.96875 6.59375 36.375 
Q 6.59375 54.828125 13.0625 64.515625 
Q 19.53125 74.21875 31.78125 74.21875 
z
" id="DejaVuSans-48"/>
       <path d="M 11.71875 12.40625 
L 22.015625 12.40625 
L 22.015625 0 
L 11.71875 0 
z
M 11.71875 51.703125 
L 22.015625 51.703125 
L 22.015625 39.3125 
L 11.71875 39.3125 
z
" id="DejaVuSans-58"/>
      </defs>
      <g transform="translate(174.076738 274.718437)scale(0.1 -0.1)">
       <use xlink:href="#DejaVuSans-84"/>
       <use x="60.849609" xlink:href="#DejaVuSans-117"/>
       <use x="124.228516" xlink:href="#DejaVuSans-101"/>
       <use x="185.751953" xlink:href="#DejaVuSans-32"/>
       <use x="217.539062" xlink:href="#DejaVuSans-48"/>
       <use x="281.162109" xlink:href="#DejaVuSans-48"/>
       <use x="344.785156" xlink:href="#DejaVuSans-58"/>
       <use x="378.476562" xlink:href="#DejaVuSans-48"/>
       <use x="442.099609" xlink:href="#DejaVuSans-48"/>
      </g>
     </g>
    </g>
    <g id="xtick_2">
     <g id="line2d_2">
      <g>
       <use style="stroke:#000000;stroke-width:0.8;" x="365.688503" xlink:href="#m1bd6a02221" y="260.12"/>
      </g>
     </g>
     <g id="text_2">
      <!-- Wed 00:00 -->
      <defs>
       <path d="M 3.328125 72.90625 
L 13.28125 72.90625 
L 28.609375 11.28125 
L 43.890625 72.90625 
L 54.984375 72.90625 
L 70.3125 11.28125 
L 85.59375 72.90625 
L 95.609375 72.90625 
L 77.296875 0 
L 64.890625 0 
L 49.515625 63.28125 
L 33.984375 0 
L 21.578125 0 
z
" id="DejaVuSans-87"/>
       <path d="M 45.40625 46.390625 
L 45.40625 75.984375 
L 54.390625 75.984375 
L 54.390625 0 
L 45.40625 0 
L 45.40625 8.203125 
Q 42.578125 3.328125 38.25 0.953125 
Q 33.9375 -1.421875 27.875 -1.421875 
Q 17.96875 -1.421875 11.734375 6.484375 
Q 5.515625 14.40625 5.515625 27.296875 
Q 5.515625 40.1875 11.734375 48.09375 
Q 17.96875 56 27.875 56 
Q 33.9375 56 38.25 53.625 
Q 42.578125 51.265625 45.40625 46.390625 
z
M 14.796875 27.296875 
Q 14.796875 17.390625 18.875 11.75 
Q 22.953125 6.109375 30.078125 6.109375 
Q 37.203125 6.109375 41.296875 11.75 
Q 45.40625 17.390625 45.40625 27.296875 
Q 45.40625 37.203125 41.296875 42.84375 
Q 37.203125 48.484375 30.078125 48.484375 
Q 22.953125 48.484375 18.875 42.84375 
Q 14.796875 37.203125 14.796875 27.296875 
z
" id="DejaVuSans-100"/>
      </defs>
      <g transform="translate(338.499441 274.718437)scale(0.1 -0.1)">
       <use xlink:href="#DejaVuSans-87"/>
       <use x="98.798828" xlink:href="#DejaVuSans-101"/>
       <use x="160.322266" xlink:href="#DejaVuSans-100"/>
       <use x="223.798828" xlink:href="#DejaVuSans-32"/>
       <use x="255.585938" xlink:href="#DejaVuSans-48"/>
       <use x="319.208984" xlink:href="#DejaVuSans-48"/>
       <use x="382.832031" xlink:href="#DejaVuSans-58"/>
       <use x="416.523438" xlink:href="#DejaVuSans-48"/>
       <use x="480.146484" xlink:href="#DejaVuSans-48"/>
      </g>
     </g>
    </g>
    <g id="xtick_3">
     <g id="line2d_3">
      <g>
       <use style="stroke:#000000;stroke-width:0.8;" x="532.014331" xlink:href="#m1bd6a02221" y="260.12"/>
      </g>
     </g>
     <g id="text_3">
      <!-- Thu 00:00 -->
      <defs>
       <path d="M 54.890625 33.015625 
L 54.890625 0 
L 45.90625 0 
L 45.90625 32.71875 
Q 45.90625 40.484375 42.875 44.328125 
Q 39.84375 48.1875 33.796875 48.1875 
Q 26.515625 48.1875 22.3125 43.546875 
Q 18.109375 38.921875 18.109375 30.90625 
L 18.109375 0 
L 9.078125 0 
L 9.078125 75.984375 
L 18.109375 75.984375 
L 18.109375 46.1875 
Q 21.34375 51.125 25.703125 53.5625 
Q 30.078125 56 35.796875 56 
Q 45.21875 56 50.046875 50.171875 
Q 54.890625 44.34375 54.890625 33.015625 
z
" id="DejaVuSans-104"/>
      </defs>
      <g transform="translate(506.624487 274.718437)scale(0.1 -0.1)">
       <use xlink:href="#DejaVuSans-84"/>
       <use x="61.083984" xlink:href="#DejaVuSans-104"/>
       <use x="124.462891" xlink:href="#DejaVuSans-117"/>
       <use x="187.841797" xlink:href="#DejaVuSans-32"/>
       <use x="219.628906" xlink:href="#DejaVuSans-48"/>
       <use x="283.251953" xlink:href="#DejaVuSans-48"/>
       <use x="346.875" xlink:href="#DejaVuSans-58"/>
       <use x="380.566406" xlink:href="#DejaVuSans-48"/>
       <use x="444.189453" xlink:href="#DejaVuSans-48"/>
      </g>
     </g>
    </g>
    <g id="xtick_4">
     <g id="line2d_4">
      <g>
       <use style="stroke:#000000;stroke-width:0.8;" x="698.340159" xlink:href="#m1bd6a02221" y="260.12"/>
      </g>
     </g>
     <g id="text_4">
      <!-- Fri 00:00 -->
      <defs>
       <path d="M 9.8125 72.90625 
L 51.703125 72.90625 
L 51.703125 64.59375 
L 19.671875 64.59375 
L 19.671875 43.109375 
L 48.578125 43.109375 
L 48.578125 34.8125 
L 19.671875 34.8125 
L 19.671875 0 
L 9.8125 0 
z
" id="DejaVuSans-70"/>
       <path d="M 41.109375 46.296875 
Q 39.59375 47.171875 37.8125 47.578125 
Q 36.03125 48 33.890625 48 
Q 26.265625 48 22.1875 43.046875 
Q 18.109375 38.09375 18.109375 28.8125 
L 18.109375 0 
L 9.078125 0 
L 9.078125 54.6875 
L 18.109375 54.6875 
L 18.109375 46.1875 
Q 20.953125 51.171875 25.484375 53.578125 
Q 30.03125 56 36.53125 56 
Q 37.453125 56 38.578125 55.875 
Q 39.703125 55.765625 41.0625 55.515625 
z
" id="DejaVuSans-114"/>
       <path d="M 9.421875 54.6875 
L 18.40625 54.6875 
L 18.40625 0 
L 9.421875 0 
z
M 9.421875 75.984375 
L 18.40625 75.984375 
L 18.40625 64.59375 
L 9.421875 64.59375 
z
" id="DejaVuSans-105"/>
      </defs>
      <g transform="translate(676.026877 274.718437)scale(0.1 -0.1)">
       <use xlink:href="#DejaVuSans-70"/>
       <use x="57.410156" xlink:href="#DejaVuSans-114"/>
       <use x="98.523438" xlink:href="#DejaVuSans-105"/>
       <use x="126.306641" xlink:href="#DejaVuSans-32"/>
       <use x="158.09375" xlink:href="#DejaVuSans-48"/>
       <use x="221.716797" xlink:href="#DejaVuSans-48"/>
       <use x="285.339844" xlink:href="#DejaVuSans-58"/>
       <use x="319.03125" xlink:href="#DejaVuSans-48"/>
       <use x="382.654297" xlink:href="#DejaVuSans-48"/>
      </g>
     </g>
    </g>
    <g id="xtick_5">
     <g id="line2d_5">
      <g>
       <use style="stroke:#000000;stroke-width:0.8;" x="864.665986" xlink:href="#m1bd6a02221" y="260.12"/>
      </g>
     </g>
     <g id="text_5">
      <!-- Sat 00:00 -->
      <defs>
       <path d="M 53.515625 70.515625 
L 53.515625 60.890625 
Q 47.90625 63.578125 42.921875 64.890625 
Q 37.9375 66.21875 33.296875 66.21875 
Q 25.25 66.21875 20.875 63.09375 
Q 16.5 59.96875 16.5 54.203125 
Q 16.5 49.359375 19.40625 46.890625 
Q 22.3125 44.4375 30.421875 42.921875 
L 36.375 41.703125 
Q 47.40625 39.59375 52.65625 34.296875 
Q 57.90625 29 57.90625 20.125 
Q 57.90625 9.515625 50.796875 4.046875 
Q 43.703125 -1.421875 29.984375 -1.421875 
Q 24.8125 -1.421875 18.96875 -0.25 
Q 13.140625 0.921875 6.890625 3.21875 
L 6.890625 13.375 
Q 12.890625 10.015625 18.65625 8.296875 
Q 24.421875 6.59375 29.984375 6.59375 
Q 38.421875 6.59375 43.015625 9.90625 
Q 47.609375 13.234375 47.609375 19.390625 
Q 47.609375 24.75 44.3125 27.78125 
Q 41.015625 30.8125 33.5 32.328125 
L 27.484375 33.5 
Q 16.453125 35.6875 11.515625 40.375 
Q 6.59375 45.0625 6.59375 53.421875 
Q 6.59375 63.09375 13.40625 68.65625 
Q 20.21875 74.21875 32.171875 74.21875 
Q 37.3125 74.21875 42.625 73.28125 
Q 47.953125 72.359375 53.515625 70.515625 
z
" id="DejaVuSans-83"/>
       <path d="M 34.28125 27.484375 
Q 23.390625 27.484375 19.1875 25 
Q 14.984375 22.515625 14.984375 16.5 
Q 14.984375 11.71875 18.140625 8.90625 
Q 21.296875 6.109375 26.703125 6.109375 
Q 34.1875 6.109375 38.703125 11.40625 
Q 43.21875 16.703125 43.21875 25.484375 
L 43.21875 27.484375 
z
M 52.203125 31.203125 
L 52.203125 0 
L 43.21875 0 
L 43.21875 8.296875 
Q 40.140625 3.328125 35.546875 0.953125 
Q 30.953125 -1.421875 24.3125 -1.421875 
Q 15.921875 -1.421875 10.953125 3.296875 
Q 6 8.015625 6 15.921875 
Q 6 25.140625 12.171875 29.828125 
Q 18.359375 34.515625 30.609375 34.515625 
L 43.21875 34.515625 
L 43.21875 35.40625 
Q 43.21875 41.609375 39.140625 45 
Q 35.0625 48.390625 27.6875 48.390625 
Q 23 48.390625 18.546875 47.265625 
Q 14.109375 46.140625 10.015625 43.890625 
L 10.015625 52.203125 
Q 14.9375 54.109375 19.578125 55.046875 
Q 24.21875 56 28.609375 56 
Q 40.484375 56 46.34375 49.84375 
Q 52.203125 43.703125 52.203125 31.203125 
z
" id="DejaVuSans-97"/>
       <path d="M 18.3125 70.21875 
L 18.3125 54.6875 
L 36.8125 54.6875 
L 36.8125 47.703125 
L 18.3125 47.703125 
L 18.3125 18.015625 
Q 18.3125 11.328125 20.140625 9.421875 
Q 21.96875 7.515625 27.59375 7.515625 
L 36.8125 7.515625 
L 36.8125 0 
L 27.59375 0 
Q 17.1875 0 13.234375 3.875 
Q 9.28125 7.765625 9.28125 18.015625 
L 9.28125 47.703125 
L 2.6875 47.703125 
L 2.6875 54.6875 
L 9.28125 54.6875 
L 9.28125 70.21875 
z
" id="DejaVuSans-116"/>
      </defs>
      <g transform="translate(840.469111 274.718437)scale(0.1 -0.1)">
       <use xlink:href="#DejaVuSans-83"/>
       <use x="63.476562" xlink:href="#DejaVuSans-97"/>
       <use x="124.755859" xlink:href="#DejaVuSans-116"/>
       <use x="163.964844" xlink:href="#DejaVuSans-32"/>
       <use x="195.751953" xlink:href="#DejaVuSans-48"/>
       <use x="259.375" xlink:href="#DejaVuSans-48"/>
       <use x="322.998047" xlink:href="#DejaVuSans-58"/>
       <use x="356.689453" xlink:href="#DejaVuSans-48"/>
       <use x="420.3125" xlink:href="#DejaVuSans-48"/>
      </g>
     </g>
    </g>
    <g id="xtick_6">
     <g id="line2d_6">
      <g>
       <use style="stroke:#000000;stroke-width:0.8;" x="1030.991814" xlink:href="#m1bd6a02221" y="260.12"/>
      </g>
     </g>
     <g id="text_6">
      <!-- Sun 00:00 -->
      <defs>
       <path d="M 54.890625 33.015625 
L 54.890625 0 
L 45.90625 0 
L 45.90625 32.71875 
Q 45.90625 40.484375 42.875 44.328125 
Q 39.84375 48.1875 33.796875 48.1875 
Q 26.515625 48.1875 22.3125 43.546875 
Q 18.109375 38.921875 18.109375 30.90625 
L 18.109375 0 
L 9.078125 0 
L 9.078125 54.6875 
L 18.109375 54.6875 
L 18.109375 46.1875 
Q 21.34375 51.125 25.703125 53.5625 
Q 30.078125 56 35.796875 56 
Q 45.21875 56 50.046875 50.171875 
Q 54.890625 44.34375 54.890625 33.015625 
z
" id="DejaVuSans-110"/>
      </defs>
      <g transform="translate(1005.481658 274.718437)scale(0.1 -0.1)">
       <use xlink:href="#DejaVuSans-83"/>
       <use x="63.476562" xlink:href="#DejaVuSans-117"/>
       <use x="126.855469" xlink:href="#DejaVuSans-110"/>
       <use x="190.234375" xlink:href="#DejaVuSans-32"/>
       <use x="222.021484" xlink:href="#DejaVuSans-48"/>
       <use x="285.644531" xlink:href="#DejaVuSans-48"/>
       <use x="349.267578" xlink:href="#DejaVuSans-58"/>
       <use x="382.958984" xlink:href="#DejaVuSans-48"/>
       <use x="446.582031" xlink:href="#DejaVuSans-48"/>
      </g>
     </g>
    </g>
   </g>
   <g id="matplotlib.axis_2">
    <g id="ytick_1">
     <g id="line2d_7">
      <defs>
       <path d="M 0 0 
L -3.5 0 
" id="m55042bf528" style="stroke:#000000;stroke-width:0.8;"/>
      </defs>
      <g>
       <use style="stroke:#000000;stroke-width:0.8;" x="33.64" xlink:href="#m55042bf528" y="260.12"/>
      </g>
     </g>
     <g id="text_7">
      <!-- 0 -->
      <g transform="translate(20.2775 263.919219)scale(0.1 -0.1)">
       <use xlink:href="#DejaVuSans-48"/>
      </g>
     </g>
    </g>
    <g id="ytick_2">
     <g id="line2d_8">
      <g>
       <use style="stroke:#000000;stroke-width:0.8;" x="33.64" xlink:href="#m55042bf528" y="230.910476"/>
      </g>
     </g>
     <g id="text_8">
      <!-- 25 -->
      <defs>
       <path d="M 19.1875 8.296875 
L 53.609375 8.296875 
L 53.609375 0 
L 7.328125 0 
L 7.328125 8.296875 
Q 12.9375 14.109375 22.625 23.890625 
Q 32.328125 33.6875 34.8125 36.53125 
Q 39.546875 41.84375 41.421875 45.53125 
Q 43.3125 49.21875 43.3125 52.78125 
Q 43.3125 58.59375 39.234375 62.25 
Q 35.15625 65.921875 28.609375 65.921875 
Q 23.96875 65.921875 18.8125 64.3125 
Q 13.671875 62.703125 7.8125 59.421875 
L 7.8125 69.390625 
Q 13.765625 71.78125 18.9375 73 
Q 24.125 74.21875 28.421875 74.21875 
Q 39.75 74.21875 46.484375 68.546875 
Q 53.21875 62.890625 53.21875 53.421875 
Q 53.21875 48.921875 51.53125 44.890625 
Q 49.859375 40.875 45.40625 35.40625 
Q 44.1875 33.984375 37.640625 27.21875 
Q 31.109375 20.453125 19.1875 8.296875 
z
" id="DejaVuSans-50"/>
       <path d="M 10.796875 72.90625 
L 49.515625 72.90625 
L 49.515625 64.59375 
L 19.828125 64.59375 
L 19.828125 46.734375 
Q 21.96875 47.46875 24.109375 47.828125 
Q 26.265625 48.1875 28.421875 48.1875 
Q 40.625 48.1875 47.75 41.5 
Q 54.890625 34.8125 54.890625 23.390625 
Q 54.890625 11.625 47.5625 5.09375 
Q 40.234375 -1.421875 26.90625 -1.421875 
Q 22.3125 -1.421875 17.546875 -0.640625 
Q 12.796875 0.140625 7.71875 1.703125 
L 7.71875 11.625 
Q 12.109375 9.234375 16.796875 8.0625 
Q 21.484375 6.890625 26.703125 6.890625 
Q 35.15625 6.890625 40.078125 11.328125 
Q 45.015625 15.765625 45.015625 23.390625 
Q 45.015625 31 40.078125 35.4375 
Q 35.15625 39.890625 26.703125 39.890625 
Q 22.75 39.890625 18.8125 39.015625 
Q 14.890625 38.140625 10.796875 36.28125 
z
" id="DejaVuSans-53"/>
      </defs>
      <g transform="translate(13.915 234.709695)scale(0.1 -0.1)">
       <use xlink:href="#DejaVuSans-50"/>
       <use x="63.623047" xlink:href="#DejaVuSans-53"/>
      </g>
     </g>
    </g>
    <g id="ytick_3">
     <g id="line2d_9">
      <g>
       <use style="stroke:#000000;stroke-width:0.8;" x="33.64" xlink:href="#m55042bf528" y="201.700952"/>
      </g>
     </g>
     <g id="text_9">
      <!-- 50 -->
      <g transform="translate(13.915 205.500171)scale(0.1 -0.1)">
       <use xlink:href="#DejaVuSans-53"/>
       <use x="63.623047" xlink:href="#DejaVuSans-48"/>
      </g>
     </g>
    </g>
    <g id="ytick_4">
     <g id="line2d_10">
      <g>
       <use style="stroke:#000000;stroke-width:0.8;" x="33.64" xlink:href="#m55042bf528" y="172.491429"/>
      </g>
     </g>
     <g id="text_10">
      <!-- 75 -->
      <defs>
       <path d="M 8.203125 72.90625 
L 55.078125 72.90625 
L 55.078125 68.703125 
L 28.609375 0 
L 18.3125 0 
L 43.21875 64.59375 
L 8.203125 64.59375 
z
" id="DejaVuSans-55"/>
      </defs>
      <g transform="translate(13.915 176.290647)scale(0.1 -0.1)">
       <use xlink:href="#DejaVuSans-55"/>
       <use x="63.623047" xlink:href="#DejaVuSans-53"/>
      </g>
     </g>
    </g>
    <g id="ytick_5">
     <g id="line2d_11">
      <g>
       <use style="stroke:#000000;stroke-width:0.8;" x="33.64" xlink:href="#m55042bf528" y="143.281905"/>
      </g>
     </g>
     <g id="text_11">
      <!-- 100 -->
      <defs>
       <path d="M 12.40625 8.296875 
L 28.515625 8.296875 
L 28.515625 63.921875 
L 10.984375 60.40625 
L 10.984375 69.390625 
L 28.421875 72.90625 
L 38.28125 72.90625 
L 38.28125 8.296875 
L 54.390625 8.296875 
L 54.390625 0 
L 12.40625 0 
z
" id="DejaVuSans-49"/>
      </defs>
      <g transform="translate(7.5525 147.081124)scale(0.1 -0.1)">
       <use xlink:href="#DejaVuSans-49"/>
       <use x="63.623047" xlink:href="#DejaVuSans-48"/>
       <use x="127.246094" xlink:href="#DejaVuSans-48"/>
      </g>
     </g>
    </g>
    <g id="ytick_6">
     <g id="line2d_12">
      <g>
       <use style="stroke:#000000;stroke-width:0.8;" x="33.64" xlink:href="#m55042bf528" y="114.072381"/>
      </g>
     </g>
     <g id="text_12">
      <!-- 125 -->
      <g transform="translate(7.5525 117.8716)scale(0.1 -0.1)">
       <use xlink:href="#DejaVuSans-49"/>
       <use x="63.623047" xlink:href="#DejaVuSans-50"/>
       <use x="127.246094" xlink:href="#DejaVuSans-53"/>
      </g>
     </g>
    </g>
    <g id="ytick_7">
     <g id="line2d_13">
      <g>
       <use style="stroke:#000000;stroke-width:0.8;" x="33.64" xlink:href="#m55042bf528" y="84.862857"/>
      </g>
     </g>
     <g id="text_13">
      <!-- 150 -->
      <g transform="translate(7.5525 88.662076)scale(0.1 -0.1)">
       <use xlink:href="#DejaVuSans-49"/>
       <use x="63.623047" xlink:href="#DejaVuSans-53"/>
       <use x="127.246094" xlink:href="#DejaVuSans-48"/>
      </g>
     </g>
    </g>
    <g id="ytick_8">
     <g id="line2d_14">
      <g>
       <use style="stroke:#000000;stroke-width:0.8;" x="33.64" xlink:href="#m55042bf528" y="55.653333"/>
      </g>
     </g>
     <g id="text_14">
      <!-- 175 -->
      <g transform="translate(7.5525 59.452552)scale(0.1 -0.1)">
       <use xlink:href="#DejaVuSans-49"/>
       <use x="63.623047" xlink:href="#DejaVuSans-55"/>
       <use x="127.246094" xlink:href="#DejaVuSans-53"/>
      </g>
     </g>
    </g>
    <g id="ytick_9">
     <g id="line2d_15">
      <g>
       <use style="stroke:#000000;stroke-width:0.8;" x="33.64" xlink:href="#m55042bf528" y="26.44381"/>
      </g>
     </g>
     <g id="text_15">
      <!-- 200 -->
      <g transform="translate(7.5525 30.243028)scale(0.1 -0.1)">
       <use xlink:href="#DejaVuSans-50"/>
       <use x="63.623047" xlink:href="#DejaVuSans-48"/>
       <use x="127.246094" xlink:href="#DejaVuSans-48"/>
      </g>
     </g>
    </g>
   </g>
   <g id="line2d_16">
    <path clip-path="url(#p2746eb3ae3)" d="M 33.64 225.068571 
L 95.582204 225.068571 
L 96.773599 220.395048 
L 97.963879 220.395048 
L 99.153571 218.058286 
L 100.341077 218.058286 
L 101.528453 211.048 
L 102.718355 211.048 
L 103.90618 200.532571 
L 105.093585 195.859048 
L 106.282124 195.859048 
L 107.470387 186.512 
L 108.658066 179.501714 
L 109.848341 177.164952 
L 115.799901 177.164952 
L 116.988351 183.006857 
L 118.178943 190.017143 
L 119.366365 190.017143 
L 120.55376 195.859048 
L 121.7436 195.859048 
L 122.93141 200.532571 
L 124.120623 195.859048 
L 125.310206 195.859048 
L 126.498197 193.522286 
L 127.685821 192.353905 
L 128.873341 188.848762 
L 130.060977 188.848762 
L 131.249607 187.680381 
L 132.438995 191.185524 
L 133.626457 191.185524 
L 134.816894 188.848762 
L 136.004688 185.343619 
L 137.19216 185.343619 
L 138.38202 183.006857 
L 139.569922 185.343619 
L 141.945018 185.343619 
L 143.134957 178.333333 
L 144.323432 177.164952 
L 145.513585 177.164952 
L 146.703535 179.501714 
L 147.893643 173.65981 
L 149.085477 173.65981 
L 150.275963 170.154667 
L 151.46912 170.154667 
L 152.659092 175.996571 
L 153.846618 165.481143 
L 155.034351 153.797333 
L 156.221839 153.797333 
L 157.409392 147.955429 
L 158.597417 138.608381 
L 159.785103 138.608381 
L 160.973387 124.58781 
L 162.162546 108.230476 
L 163.350137 108.230476 
L 164.540841 90.704762 
L 165.729115 79.020952 
L 166.91656 60.326857 
L 168.105008 60.326857 
L 169.292708 52.14819 
L 170.480046 83.694476 
L 172.856905 83.694476 
L 174.047162 86.031238 
L 175.235039 86.031238 
L 176.425411 88.368 
L 177.614007 89.536381 
L 178.80186 89.536381 
L 179.991368 105.893714 
L 181.183748 119.914286 
L 182.372124 119.914286 
L 183.561826 133.934857 
L 184.751925 153.797333 
L 185.942833 153.797333 
L 187.131371 161.976 
L 188.321008 168.986286 
L 189.508864 172.491429 
L 190.699164 172.491429 
L 191.889746 184.175238 
L 193.077959 192.353905 
L 194.265897 192.353905 
L 195.45758 260.12 
L 263.341123 260.12 
L 264.530715 241.425905 
L 265.720867 236.752381 
L 266.910844 236.752381 
L 268.099454 233.247238 
L 269.287498 222.73181 
L 270.476933 222.73181 
L 271.666256 213.384762 
L 272.856476 211.048 
L 274.047097 211.048 
L 275.240244 207.542857 
L 276.431895 205.206095 
L 277.622178 205.206095 
L 278.809644 202.869333 
L 280.002205 201.700952 
L 282.38327 201.700952 
L 283.570508 215.721524 
L 284.759571 216.889905 
L 285.950028 214.553143 
L 287.13804 216.889905 
L 288.326639 216.889905 
L 290.781307 205.206095 
L 293.234265 208.711238 
L 295.72879 208.711238 
L 296.916119 211.048 
L 298.10502 211.048 
L 299.292809 213.384762 
L 300.480319 212.216381 
L 301.670313 212.216381 
L 302.860144 207.542857 
L 305.236854 207.542857 
L 306.424506 202.869333 
L 307.615122 205.206095 
L 308.802825 205.206095 
L 309.991334 201.700952 
L 311.179551 191.185524 
L 312.367698 186.512 
L 313.555169 186.512 
L 314.743155 185.343619 
L 315.931149 173.65981 
L 317.121554 173.65981 
L 318.310599 172.491429 
L 319.500604 181.838476 
L 320.688521 181.838476 
L 323.065398 158.470857 
L 324.253602 158.470857 
L 325.443645 153.797333 
L 326.632157 150.29219 
L 327.820252 150.29219 
L 329.009861 154.965714 
L 330.198614 158.470857 
L 331.386746 158.470857 
L 332.57707 144.450286 
L 333.767578 135.103238 
L 334.956197 130.429714 
L 336.144467 130.429714 
L 337.332971 116.409143 
L 338.521307 116.409143 
L 340.901522 114.072381 
L 342.091584 110.567238 
L 343.282381 110.567238 
L 344.471221 112.904 
L 345.661035 117.577524 
L 346.849333 117.577524 
L 348.039533 126.924571 
L 349.227791 142.113524 
L 350.417374 152.628952 
L 351.606743 152.628952 
L 352.794194 159.639238 
L 353.986511 159.639238 
L 355.174066 170.154667 
L 356.363555 178.333333 
L 357.553737 178.333333 
L 358.741778 186.512 
L 359.932201 187.680381 
L 361.121705 190.017143 
L 362.309539 190.017143 
L 363.496901 260.12 
L 427.828952 260.12 
L 430.184845 248.43619 
L 431.372242 248.43619 
L 432.560175 242.594286 
L 433.748178 237.920762 
L 434.93557 237.920762 
L 436.123822 228.573714 
L 437.312311 228.573714 
L 438.500214 223.90019 
L 439.687469 220.395048 
L 440.875851 220.395048 
L 442.063686 225.068571 
L 443.252732 225.068571 
L 444.441591 227.405333 
L 445.63186 227.405333 
L 446.822648 226.236952 
L 448.012824 223.90019 
L 449.200635 223.90019 
L 450.388876 220.395048 
L 451.5766 229.742095 
L 453.953831 229.742095 
L 455.144033 227.405333 
L 456.333131 227.405333 
L 457.521117 218.058286 
L 458.710786 218.058286 
L 459.899676 212.216381 
L 462.277276 212.216381 
L 464.655024 207.542857 
L 465.850114 207.542857 
L 467.041178 201.700952 
L 468.232812 201.700952 
L 469.420813 202.869333 
L 470.6087 200.532571 
L 471.795917 200.532571 
L 472.983393 191.185524 
L 475.359433 191.185524 
L 476.566729 188.848762 
L 477.75488 188.848762 
L 478.942294 179.501714 
L 480.134196 179.501714 
L 481.323388 177.164952 
L 482.51167 171.323048 
L 483.702261 171.323048 
L 484.889655 161.976 
L 486.078738 145.618667 
L 487.266332 117.577524 
L 488.454548 117.577524 
L 489.643523 109.398857 
L 490.831184 88.368 
L 492.019257 88.368 
L 493.21033 66.168762 
L 494.399138 52.14819 
L 495.587233 52.14819 
L 496.77479 42.801143 
L 497.96297 48.643048 
L 499.153379 48.643048 
L 500.343454 35.790857 
L 501.530927 33.454095 
L 502.720797 33.454095 
L 503.912398 34.622476 
L 505.102636 27.61219 
L 506.295892 27.61219 
L 507.483531 33.454095 
L 508.673621 38.127619 
L 509.86097 38.127619 
L 511.051986 48.643048 
L 512.23906 50.97981 
L 513.427141 72.010667 
L 514.61458 72.010667 
L 515.804671 89.536381 
L 516.992594 89.536381 
L 518.181116 104.725333 
L 519.369708 132.766476 
L 520.558783 140.945143 
L 521.749937 140.945143 
L 522.939825 165.481143 
L 524.1269 177.164952 
L 525.315207 177.164952 
L 526.505852 183.006857 
L 527.694751 194.690667 
L 530.073504 194.690667 
L 531.262144 260.12 
L 595.587831 260.12 
L 596.776708 253.109714 
L 597.966341 253.109714 
L 599.154526 249.604571 
L 600.344878 244.931048 
L 601.532127 244.931048 
L 602.720433 239.089143 
L 603.909602 236.752381 
L 605.097785 236.752381 
L 607.4733 229.742095 
L 608.663661 229.742095 
L 609.852989 233.247238 
L 611.043714 232.078857 
L 612.232392 228.573714 
L 613.42193 228.573714 
L 614.610017 229.742095 
L 615.797727 227.405333 
L 616.988773 227.405333 
L 618.177425 221.563429 
L 619.364766 219.226667 
L 620.557858 219.226667 
L 621.745246 214.553143 
L 622.933236 208.711238 
L 624.121112 208.711238 
L 625.309203 212.216381 
L 626.497626 214.553143 
L 627.688033 214.553143 
L 628.877362 208.711238 
L 630.065272 213.384762 
L 632.4421 213.384762 
L 633.630766 209.879619 
L 634.821607 199.36419 
L 636.008901 199.36419 
L 638.388615 197.027429 
L 639.576771 197.027429 
L 641.956133 185.343619 
L 644.335772 185.343619 
L 645.523425 180.670095 
L 646.712378 180.670095 
L 647.901095 170.154667 
L 649.090329 165.481143 
L 650.277858 165.481143 
L 651.466169 158.470857 
L 652.653818 142.113524 
L 653.841785 128.092952 
L 655.029259 128.092952 
L 656.220371 103.556952 
L 657.413156 107.062095 
L 658.603677 107.062095 
L 659.793577 102.388571 
L 660.983721 80.189333 
L 662.171375 80.189333 
L 663.359859 66.168762 
L 664.547305 60.326857 
L 665.734853 60.326857 
L 666.92479 61.495238 
L 668.113958 48.643048 
L 669.302021 45.137905 
L 670.492289 45.137905 
L 671.680223 63.832 
L 672.8681 72.010667 
L 674.056664 72.010667 
L 675.245341 83.694476 
L 676.433738 90.704762 
L 677.623959 90.704762 
L 678.811316 95.378286 
L 680.007774 107.062095 
L 681.199479 107.062095 
L 682.387617 114.072381 
L 683.575052 129.261333 
L 684.763893 129.261333 
L 687.139268 157.302476 
L 688.330639 157.302476 
L 689.521228 161.976 
L 690.711112 177.164952 
L 691.900712 177.164952 
L 693.090089 184.175238 
L 694.278969 260.12 
L 762.180564 260.12 
L 763.368339 248.43619 
L 764.558571 242.594286 
L 765.749539 242.594286 
L 766.937038 234.415619 
L 768.124208 234.415619 
L 769.312365 222.73181 
L 770.499849 219.226667 
L 771.68951 214.553143 
L 772.880039 214.553143 
L 775.261871 205.206095 
L 776.452057 205.206095 
L 777.640697 201.700952 
L 778.830489 199.36419 
L 780.01903 205.206095 
L 781.20752 205.206095 
L 782.395332 207.542857 
L 783.585825 211.048 
L 784.775399 211.048 
L 785.967144 219.226667 
L 787.155568 219.226667 
L 788.343758 218.058286 
L 790.720312 218.058286 
L 791.907926 221.563429 
L 793.096143 218.058286 
L 795.472606 218.058286 
L 796.660935 221.563429 
L 797.84932 222.73181 
L 799.036934 222.73181 
L 801.414692 211.048 
L 802.602182 208.711238 
L 803.791656 208.711238 
L 804.97887 205.206095 
L 806.166554 209.879619 
L 807.354152 209.879619 
L 808.542261 202.869333 
L 809.731567 202.869333 
L 810.920328 195.859048 
L 812.108338 197.027429 
L 813.297035 192.353905 
L 814.48547 192.353905 
L 815.673989 187.680381 
L 816.863207 181.838476 
L 818.050928 181.838476 
L 819.239509 183.006857 
L 820.428417 178.333333 
L 821.618714 183.006857 
L 822.808812 183.006857 
L 823.996956 177.164952 
L 825.185618 177.164952 
L 826.376128 186.512 
L 827.566791 181.838476 
L 828.755303 181.838476 
L 829.943708 184.175238 
L 831.133346 188.848762 
L 832.321663 186.512 
L 833.512155 186.512 
L 834.699464 183.006857 
L 835.889695 177.164952 
L 837.079319 177.164952 
L 838.267121 178.333333 
L 839.45463 187.680381 
L 840.642033 187.680381 
L 841.830861 186.512 
L 844.210842 186.512 
L 845.400988 188.848762 
L 847.779244 188.848762 
L 848.969545 200.532571 
L 850.158123 200.532571 
L 851.346371 205.206095 
L 852.535856 205.206095 
L 853.726128 206.374476 
L 854.916585 206.374476 
L 856.106538 207.542857 
L 857.296291 209.879619 
L 860.868016 209.879619 
L 862.056343 260.12 
L 927.56979 260.12 
L 928.757808 258.951619 
L 929.945853 254.278095 
L 931.135021 243.762667 
L 932.32445 243.762667 
L 934.703042 236.752381 
L 935.892637 236.752381 
L 937.082085 229.742095 
L 938.271683 220.395048 
L 939.459942 220.395048 
L 940.647667 218.058286 
L 941.835557 216.889905 
L 943.026076 216.889905 
L 944.215595 206.374476 
L 945.403725 206.374476 
L 946.591362 198.19581 
L 947.78035 198.19581 
L 948.968102 195.859048 
L 951.342605 195.859048 
L 952.534725 197.027429 
L 953.722851 204.037714 
L 954.914342 204.037714 
L 956.101614 200.532571 
L 957.289553 199.36419 
L 958.477411 199.36419 
L 959.665308 194.690667 
L 960.853248 192.353905 
L 962.040829 192.353905 
L 963.22859 199.36419 
L 964.416616 198.19581 
L 965.605925 198.19581 
L 966.793695 199.36419 
L 967.980924 204.037714 
L 969.168614 204.037714 
L 970.358451 206.374476 
L 972.736696 197.027429 
L 973.925899 197.027429 
L 975.112751 198.19581 
L 976.300976 197.027429 
L 977.490726 197.027429 
L 978.678664 205.206095 
L 979.866952 211.048 
L 981.054654 201.700952 
L 983.430145 201.700952 
L 984.618045 191.185524 
L 985.80715 191.185524 
L 986.994944 186.512 
L 988.183674 186.512 
L 989.371213 191.185524 
L 990.559043 194.690667 
L 991.746989 193.522286 
L 992.934647 193.522286 
L 994.122371 200.532571 
L 995.310252 197.027429 
L 996.498251 197.027429 
L 997.686371 201.700952 
L 998.87432 202.869333 
L 1000.062327 201.700952 
L 1001.250047 201.700952 
L 1002.438225 200.532571 
L 1003.626129 200.532571 
L 1004.814115 199.36419 
L 1006.00347 212.216381 
L 1007.190461 212.216381 
L 1008.377877 214.553143 
L 1009.565165 225.068571 
L 1010.752039 227.405333 
L 1013.127431 227.405333 
L 1014.316494 229.742095 
L 1015.503679 229.742095 
L 1016.692896 233.247238 
L 1017.879804 235.584 
L 1019.069771 235.584 
L 1020.256491 236.752381 
L 1026.193837 236.752381 
L 1027.38072 260.12 
L 1092.904929 260.12 
L 1094.073576 257.783238 
L 1095.261915 257.783238 
L 1096.451453 243.762667 
L 1097.639047 237.920762 
L 1098.826149 237.920762 
L 1100.013474 221.563429 
L 1101.200194 208.711238 
L 1102.387363 202.869333 
L 1103.578063 202.869333 
L 1104.767552 192.353905 
L 1105.954755 192.353905 
L 1107.142037 165.481143 
L 1108.3288 158.470857 
L 1109.515878 158.470857 
L 1110.704006 145.618667 
L 1113.078583 100.05181 
L 1114.268657 100.05181 
L 1115.458453 102.388571 
L 1116.645446 90.704762 
L 1117.83244 90.704762 
L 1119.019915 84.862857 
L 1120.206934 83.694476 
L 1121.394431 83.694476 
L 1122.581318 84.862857 
L 1123.768875 83.694476 
L 1124.958233 83.694476 
L 1126.147898 91.873143 
L 1127.337526 94.209905 
L 1128.525442 94.209905 
L 1129.715105 110.567238 
L 1130.902931 102.388571 
L 1132.092371 116.409143 
L 1133.28 116.409143 
L 1133.28 116.409143 
" style="fill:none;stroke:#1f77b4;stroke-linecap:square;stroke-width:1.5;"/>
   </g>
   <g id="patch_3">
    <path d="M 33.64 260.12 
L 33.64 14.76 
" style="fill:none;stroke:#000000;stroke-linecap:square;stroke-linejoin:miter;stroke-width:0.8;"/>
   </g>
   <g id="patch_4">
    <path d="M 1133.28 260.12 
L 1133.28 14.76 
" style="fill:none;stroke:#000000;stroke-linecap:square;stroke-linejoin:miter;stroke-width:0.8;"/>
   </g>
   <g id="patch_5">
    <path d="M 33.64 260.12 
L 1133.28 260.12 
" style="fill:none;stroke:#000000;stroke-linecap:square;stroke-linejoin:miter;stroke-width:0.8;"/>
   </g>
   <g id="patch_6">
    <path d="M 33.64 14.76 
L 1133.28 14.76 
" style="fill:none;stroke:#000000;stroke-linecap:square;stroke-linejoin:miter;stroke-width:0.8;"/>
   </g>
  </g>
 </g>
 <defs>
  <clipPath id="p2746eb3ae3">
   <rect height="245.36" width="1099.64" x="33.64" y="14.76"/>
  </clipPath>
 </defs>
</svg>
