<?xml version="1.0" encoding="utf-8" standalone="no"?>
<!DOCTYPE svg PUBLIC "-//W3C//DTD SVG 1.1//EN"
  "http://www.w3.org/Graphics/SVG/1.1/DTD/svg11.dtd">
<!-- Created with matplotlib (https://matplotlib.org/) -->
<svg height="288pt" version="1.1" viewBox="0 0 1152 288" width="1152pt" xmlns="http://www.w3.org/2000/svg" xmlns:xlink="http://www.w3.org/1999/xlink">
 <defs>
  <style type="text/css">
*{stroke-linecap:butt;stroke-linejoin:round;}
  </style>
 </defs>
 <g id="figure_1">
  <g id="patch_1">
   <path d="M 0 288 
L 1152 288 
L 1152 0 
L 0 0 
z
" style="fill:#ffffff;"/>
  </g>
  <g id="axes_1">
   <g id="patch_2">
    <path d="M 33.64 260.12 
L 1133.28 260.12 
L 1133.28 14.76 
L 33.64 14.76 
z
" style="fill:#ffffff;"/>
   </g>
   <g id="matplotlib.axis_1">
    <g id="xtick_1">
     <g id="line2d_1">
      <defs>
       <path d="M 0 0 
L 0 3.5 
" id="m2bb8deb9ff" style="stroke:#000000;stroke-width:0.8;"/>
      </defs>
      <g>
       <use style="stroke:#000000;stroke-width:0.8;" x="232.67959" xlink:href="#m2bb8deb9ff" y="260.12"/>
      </g>
     </g>
     <g id="text_1">
      <!-- Tue 00:00 -->
      <defs>
       <path d="M -0.296875 72.90625 
L 61.375 72.90625 
L 61.375 64.59375 
L 35.5 64.59375 
L 35.5 0 
L 25.59375 0 
L 25.59375 64.59375 
L -0.296875 64.59375 
z
" id="DejaVuSans-84"/>
       <path d="M 8.5 21.578125 
L 8.5 54.6875 
L 17.484375 54.6875 
L 17.484375 21.921875 
Q 17.484375 14.15625 20.5 10.265625 
Q 23.53125 6.390625 29.59375 6.390625 
Q 36.859375 6.390625 41.078125 11.03125 
Q 45.3125 15.671875 45.3125 23.6875 
L 45.3125 54.6875 
L 54.296875 54.6875 
L 54.296875 0 
L 45.3125 0 
L 45.3125 8.40625 
Q 42.046875 3.421875 37.71875 1 
Q 33.40625 -1.421875 27.6875 -1.421875 
Q 18.265625 -1.421875 13.375 4.4375 
Q 8.5 10.296875 8.5 21.578125 
z
M 31.109375 56 
z
" id="DejaVuSans-117"/>
       <path d="M 56.203125 29.59375 
L 56.203125 25.203125 
L 14.890625 25.203125 
Q 15.484375 15.921875 20.484375 11.0625 
Q 25.484375 6.203125 34.421875 6.203125 
Q 39.59375 6.203125 44.453125 7.46875 
Q 49.3125 8.734375 54.109375 11.28125 
L 54.109375 2.78125 
Q 49.265625 0.734375 44.1875 -0.34375 
Q 39.109375 -1.421875 33.890625 -1.421875 
Q 20.796875 -1.421875 13.15625 6.1875 
Q 5.515625 13.8125 5.515625 26.8125 
Q 5.515625 40.234375 12.765625 48.109375 
Q 20.015625 56 32.328125 56 
Q 43.359375 56 49.78125 48.890625 
Q 56.203125 41.796875 56.203125 29.59375 
z
M 47.21875 32.234375 
Q 47.125 39.59375 43.09375 43.984375 
Q 39.0625 48.390625 32.421875 48.390625 
Q 24.90625 48.390625 20.390625 44.140625 
Q 15.875 39.890625 15.1875 32.171875 
z
" id="DejaVuSans-101"/>
       <path id="DejaVuSans-32"/>
       <path d="M 31.78125 66.40625 
Q 24.171875 66.40625 20.328125 58.90625 
Q 16.5 51.421875 16.5 36.375 
Q 16.5 21.390625 20.328125 13.890625 
Q 24.171875 6.390625 31.78125 6.390625 
Q 39.453125 6.390625 43.28125 13.890625 
Q 47.125 21.390625 47.125 36.375 
Q 47.125 51.421875 43.28125 58.90625 
Q 39.453125 66.40625 31.78125 66.40625 
z
M 31.78125 74.21875 
Q 44.046875 74.21875 50.515625 64.515625 
Q 56.984375 54.828125 56.984375 36.375 
Q 56.984375 17.96875 50.515625 8.265625 
Q 44.046875 -1.421875 31.78125 -1.421875 
Q 19.53125 -1.421875 13.0625 8.265625 
Q 6.59375 17.96875 6.59375 36.375 
Q 6.59375 54.828125 13.0625 64.515625 
Q 19.53125 74.21875 31.78125 74.21875 
z
" id="DejaVuSans-48"/>
       <path d="M 11.71875 12.40625 
L 22.015625 12.40625 
L 22.015625 0 
L 11.71875 0 
z
M 11.71875 51.703125 
L 22.015625 51.703125 
L 22.015625 39.3125 
L 11.71875 39.3125 
z
" id="DejaVuSans-58"/>
      </defs>
      <g transform="translate(207.393652 274.718437)scale(0.1 -0.1)">
       <use xlink:href="#DejaVuSans-84"/>
       <use x="60.849609" xlink:href="#DejaVuSans-117"/>
       <use x="124.228516" xlink:href="#DejaVuSans-101"/>
       <use x="185.751953" xlink:href="#DejaVuSans-32"/>
       <use x="217.539062" xlink:href="#DejaVuSans-48"/>
       <use x="281.162109" xlink:href="#DejaVuSans-48"/>
       <use x="344.785156" xlink:href="#DejaVuSans-58"/>
       <use x="378.476562" xlink:href="#DejaVuSans-48"/>
       <use x="442.099609" xlink:href="#DejaVuSans-48"/>
      </g>
     </g>
    </g>
    <g id="xtick_2">
     <g id="line2d_2">
      <g>
       <use style="stroke:#000000;stroke-width:0.8;" x="431.808319" xlink:href="#m2bb8deb9ff" y="260.12"/>
      </g>
     </g>
     <g id="text_2">
      <!-- Wed 00:00 -->
      <defs>
       <path d="M 3.328125 72.90625 
L 13.28125 72.90625 
L 28.609375 11.28125 
L 43.890625 72.90625 
L 54.984375 72.90625 
L 70.3125 11.28125 
L 85.59375 72.90625 
L 95.609375 72.90625 
L 77.296875 0 
L 64.890625 0 
L 49.515625 63.28125 
L 33.984375 0 
L 21.578125 0 
z
" id="DejaVuSans-87"/>
       <path d="M 45.40625 46.390625 
L 45.40625 75.984375 
L 54.390625 75.984375 
L 54.390625 0 
L 45.40625 0 
L 45.40625 8.203125 
Q 42.578125 3.328125 38.25 0.953125 
Q 33.9375 -1.421875 27.875 -1.421875 
Q 17.96875 -1.421875 11.734375 6.484375 
Q 5.515625 14.40625 5.515625 27.296875 
Q 5.515625 40.1875 11.734375 48.09375 
Q 17.96875 56 27.875 56 
Q 33.9375 56 38.25 53.625 
Q 42.578125 51.265625 45.40625 46.390625 
z
M 14.796875 27.296875 
Q 14.796875 17.390625 18.875 11.75 
Q 22.953125 6.109375 30.078125 6.109375 
Q 37.203125 6.109375 41.296875 11.75 
Q 45.40625 17.390625 45.40625 27.296875 
Q 45.40625 37.203125 41.296875 42.84375 
Q 37.203125 48.484375 30.078125 48.484375 
Q 22.953125 48.484375 18.875 42.84375 
Q 14.796875 37.203125 14.796875 27.296875 
z
" id="DejaVuSans-100"/>
      </defs>
      <g transform="translate(404.619256 274.718437)scale(0.1 -0.1)">
       <use xlink:href="#DejaVuSans-87"/>
       <use x="98.798828" xlink:href="#DejaVuSans-101"/>
       <use x="160.322266" xlink:href="#DejaVuSans-100"/>
       <use x="223.798828" xlink:href="#DejaVuSans-32"/>
       <use x="255.585938" xlink:href="#DejaVuSans-48"/>
       <use x="319.208984" xlink:href="#DejaVuSans-48"/>
       <use x="382.832031" xlink:href="#DejaVuSans-58"/>
       <use x="416.523438" xlink:href="#DejaVuSans-48"/>
       <use x="480.146484" xlink:href="#DejaVuSans-48"/>
      </g>
     </g>
    </g>
    <g id="xtick_3">
     <g id="line2d_3">
      <g>
       <use style="stroke:#000000;stroke-width:0.8;" x="630.937048" xlink:href="#m2bb8deb9ff" y="260.12"/>
      </g>
     </g>
     <g id="text_3">
      <!-- Thu 00:00 -->
      <defs>
       <path d="M 54.890625 33.015625 
L 54.890625 0 
L 45.90625 0 
L 45.90625 32.71875 
Q 45.90625 40.484375 42.875 44.328125 
Q 39.84375 48.1875 33.796875 48.1875 
Q 26.515625 48.1875 22.3125 43.546875 
Q 18.109375 38.921875 18.109375 30.90625 
L 18.109375 0 
L 9.078125 0 
L 9.078125 75.984375 
L 18.109375 75.984375 
L 18.109375 46.1875 
Q 21.34375 51.125 25.703125 53.5625 
Q 30.078125 56 35.796875 56 
Q 45.21875 56 50.046875 50.171875 
Q 54.890625 44.34375 54.890625 33.015625 
z
" id="DejaVuSans-104"/>
      </defs>
      <g transform="translate(605.547204 274.718437)scale(0.1 -0.1)">
       <use xlink:href="#DejaVuSans-84"/>
       <use x="61.083984" xlink:href="#DejaVuSans-104"/>
       <use x="124.462891" xlink:href="#DejaVuSans-117"/>
       <use x="187.841797" xlink:href="#DejaVuSans-32"/>
       <use x="219.628906" xlink:href="#DejaVuSans-48"/>
       <use x="283.251953" xlink:href="#DejaVuSans-48"/>
       <use x="346.875" xlink:href="#DejaVuSans-58"/>
       <use x="380.566406" xlink:href="#DejaVuSans-48"/>
       <use x="444.189453" xlink:href="#DejaVuSans-48"/>
      </g>
     </g>
    </g>
    <g id="xtick_4">
     <g id="line2d_4">
      <g>
       <use style="stroke:#000000;stroke-width:0.8;" x="830.065777" xlink:href="#m2bb8deb9ff" y="260.12"/>
      </g>
     </g>
     <g id="text_4">
      <!-- Fri 00:00 -->
      <defs>
       <path d="M 9.8125 72.90625 
L 51.703125 72.90625 
L 51.703125 64.59375 
L 19.671875 64.59375 
L 19.671875 43.109375 
L 48.578125 43.109375 
L 48.578125 34.8125 
L 19.671875 34.8125 
L 19.671875 0 
L 9.8125 0 
z
" id="DejaVuSans-70"/>
       <path d="M 41.109375 46.296875 
Q 39.59375 47.171875 37.8125 47.578125 
Q 36.03125 48 33.890625 48 
Q 26.265625 48 22.1875 43.046875 
Q 18.109375 38.09375 18.109375 28.8125 
L 18.109375 0 
L 9.078125 0 
L 9.078125 54.6875 
L 18.109375 54.6875 
L 18.109375 46.1875 
Q 20.953125 51.171875 25.484375 53.578125 
Q 30.03125 56 36.53125 56 
Q 37.453125 56 38.578125 55.875 
Q 39.703125 55.765625 41.0625 55.515625 
z
" id="DejaVuSans-114"/>
       <path d="M 9.421875 54.6875 
L 18.40625 54.6875 
L 18.40625 0 
L 9.421875 0 
z
M 9.421875 75.984375 
L 18.40625 75.984375 
L 18.40625 64.59375 
L 9.421875 64.59375 
z
" id="DejaVuSans-105"/>
      </defs>
      <g transform="translate(807.752496 274.718437)scale(0.1 -0.1)">
       <use xlink:href="#DejaVuSans-70"/>
       <use x="57.410156" xlink:href="#DejaVuSans-114"/>
       <use x="98.523438" xlink:href="#DejaVuSans-105"/>
       <use x="126.306641" xlink:href="#DejaVuSans-32"/>
       <use x="158.09375" xlink:href="#DejaVuSans-48"/>
       <use x="221.716797" xlink:href="#DejaVuSans-48"/>
       <use x="285.339844" xlink:href="#DejaVuSans-58"/>
       <use x="319.03125" xlink:href="#DejaVuSans-48"/>
       <use x="382.654297" xlink:href="#DejaVuSans-48"/>
      </g>
     </g>
    </g>
    <g id="xtick_5">
     <g id="line2d_5">
      <g>
       <use style="stroke:#000000;stroke-width:0.8;" x="1029.194506" xlink:href="#m2bb8deb9ff" y="260.12"/>
      </g>
     </g>
     <g id="text_5">
      <!-- Sat 00:00 -->
      <defs>
       <path d="M 53.515625 70.515625 
L 53.515625 60.890625 
Q 47.90625 63.578125 42.921875 64.890625 
Q 37.9375 66.21875 33.296875 66.21875 
Q 25.25 66.21875 20.875 63.09375 
Q 16.5 59.96875 16.5 54.203125 
Q 16.5 49.359375 19.40625 46.890625 
Q 22.3125 44.4375 30.421875 42.921875 
L 36.375 41.703125 
Q 47.40625 39.59375 52.65625 34.296875 
Q 57.90625 29 57.90625 20.125 
Q 57.90625 9.515625 50.796875 4.046875 
Q 43.703125 -1.421875 29.984375 -1.421875 
Q 24.8125 -1.421875 18.96875 -0.25 
Q 13.140625 0.921875 6.890625 3.21875 
L 6.890625 13.375 
Q 12.890625 10.015625 18.65625 8.296875 
Q 24.421875 6.59375 29.984375 6.59375 
Q 38.421875 6.59375 43.015625 9.90625 
Q 47.609375 13.234375 47.609375 19.390625 
Q 47.609375 24.75 44.3125 27.78125 
Q 41.015625 30.8125 33.5 32.328125 
L 27.484375 33.5 
Q 16.453125 35.6875 11.515625 40.375 
Q 6.59375 45.0625 6.59375 53.421875 
Q 6.59375 63.09375 13.40625 68.65625 
Q 20.21875 74.21875 32.171875 74.21875 
Q 37.3125 74.21875 42.625 73.28125 
Q 47.953125 72.359375 53.515625 70.515625 
z
" id="DejaVuSans-83"/>
       <path d="M 34.28125 27.484375 
Q 23.390625 27.484375 19.1875 25 
Q 14.984375 22.515625 14.984375 16.5 
Q 14.984375 11.71875 18.140625 8.90625 
Q 21.296875 6.109375 26.703125 6.109375 
Q 34.1875 6.109375 38.703125 11.40625 
Q 43.21875 16.703125 43.21875 25.484375 
L 43.21875 27.484375 
z
M 52.203125 31.203125 
L 52.203125 0 
L 43.21875 0 
L 43.21875 8.296875 
Q 40.140625 3.328125 35.546875 0.953125 
Q 30.953125 -1.421875 24.3125 -1.421875 
Q 15.921875 -1.421875 10.953125 3.296875 
Q 6 8.015625 6 15.921875 
Q 6 25.140625 12.171875 29.828125 
Q 18.359375 34.515625 30.609375 34.515625 
L 43.21875 34.515625 
L 43.21875 35.40625 
Q 43.21875 41.609375 39.140625 45 
Q 35.0625 48.390625 27.6875 48.390625 
Q 23 48.390625 18.546875 47.265625 
Q 14.109375 46.140625 10.015625 43.890625 
L 10.015625 52.203125 
Q 14.9375 54.109375 19.578125 55.046875 
Q 24.21875 56 28.609375 56 
Q 40.484375 56 46.34375 49.84375 
Q 52.203125 43.703125 52.203125 31.203125 
z
" id="DejaVuSans-97"/>
       <path d="M 18.3125 70.21875 
L 18.3125 54.6875 
L 36.8125 54.6875 
L 36.8125 47.703125 
L 18.3125 47.703125 
L 18.3125 18.015625 
Q 18.3125 11.328125 20.140625 9.421875 
Q 21.96875 7.515625 27.59375 7.515625 
L 36.8125 7.515625 
L 36.8125 0 
L 27.59375 0 
Q 17.1875 0 13.234375 3.875 
Q 9.28125 7.765625 9.28125 18.015625 
L 9.28125 47.703125 
L 2.6875 47.703125 
L 2.6875 54.6875 
L 9.28125 54.6875 
L 9.28125 70.21875 
z
" id="DejaVuSans-116"/>
      </defs>
      <g transform="translate(1004.997631 274.718437)scale(0.1 -0.1)">
       <use xlink:href="#DejaVuSans-83"/>
       <use x="63.476562" xlink:href="#DejaVuSans-97"/>
       <use x="124.755859" xlink:href="#DejaVuSans-116"/>
       <use x="163.964844" xlink:href="#DejaVuSans-32"/>
       <use x="195.751953" xlink:href="#DejaVuSans-48"/>
       <use x="259.375" xlink:href="#DejaVuSans-48"/>
       <use x="322.998047" xlink:href="#DejaVuSans-58"/>
       <use x="356.689453" xlink:href="#DejaVuSans-48"/>
       <use x="420.3125" xlink:href="#DejaVuSans-48"/>
      </g>
     </g>
    </g>
   </g>
   <g id="matplotlib.axis_2">
    <g id="ytick_1">
     <g id="line2d_6">
      <defs>
       <path d="M 0 0 
L -3.5 0 
" id="m701a1a8b08" style="stroke:#000000;stroke-width:0.8;"/>
      </defs>
      <g>
       <use style="stroke:#000000;stroke-width:0.8;" x="33.64" xlink:href="#m701a1a8b08" y="260.12"/>
      </g>
     </g>
     <g id="text_6">
      <!-- 0 -->
      <g transform="translate(20.2775 263.919219)scale(0.1 -0.1)">
       <use xlink:href="#DejaVuSans-48"/>
      </g>
     </g>
    </g>
    <g id="ytick_2">
     <g id="line2d_7">
      <g>
       <use style="stroke:#000000;stroke-width:0.8;" x="33.64" xlink:href="#m701a1a8b08" y="232.857778"/>
      </g>
     </g>
     <g id="text_7">
      <!-- 20 -->
      <defs>
       <path d="M 19.1875 8.296875 
L 53.609375 8.296875 
L 53.609375 0 
L 7.328125 0 
L 7.328125 8.296875 
Q 12.9375 14.109375 22.625 23.890625 
Q 32.328125 33.6875 34.8125 36.53125 
Q 39.546875 41.84375 41.421875 45.53125 
Q 43.3125 49.21875 43.3125 52.78125 
Q 43.3125 58.59375 39.234375 62.25 
Q 35.15625 65.921875 28.609375 65.921875 
Q 23.96875 65.921875 18.8125 64.3125 
Q 13.671875 62.703125 7.8125 59.421875 
L 7.8125 69.390625 
Q 13.765625 71.78125 18.9375 73 
Q 24.125 74.21875 28.421875 74.21875 
Q 39.75 74.21875 46.484375 68.546875 
Q 53.21875 62.890625 53.21875 53.421875 
Q 53.21875 48.921875 51.53125 44.890625 
Q 49.859375 40.875 45.40625 35.40625 
Q 44.1875 33.984375 37.640625 27.21875 
Q 31.109375 20.453125 19.1875 8.296875 
z
" id="DejaVuSans-50"/>
      </defs>
      <g transform="translate(13.915 236.656997)scale(0.1 -0.1)">
       <use xlink:href="#DejaVuSans-50"/>
       <use x="63.623047" xlink:href="#DejaVuSans-48"/>
      </g>
     </g>
    </g>
    <g id="ytick_3">
     <g id="line2d_8">
      <g>
       <use style="stroke:#000000;stroke-width:0.8;" x="33.64" xlink:href="#m701a1a8b08" y="205.595556"/>
      </g>
     </g>
     <g id="text_8">
      <!-- 40 -->
      <defs>
       <path d="M 37.796875 64.3125 
L 12.890625 25.390625 
L 37.796875 25.390625 
z
M 35.203125 72.90625 
L 47.609375 72.90625 
L 47.609375 25.390625 
L 58.015625 25.390625 
L 58.015625 17.1875 
L 47.609375 17.1875 
L 47.609375 0 
L 37.796875 0 
L 37.796875 17.1875 
L 4.890625 17.1875 
L 4.890625 26.703125 
z
" id="DejaVuSans-52"/>
      </defs>
      <g transform="translate(13.915 209.394774)scale(0.1 -0.1)">
       <use xlink:href="#DejaVuSans-52"/>
       <use x="63.623047" xlink:href="#DejaVuSans-48"/>
      </g>
     </g>
    </g>
    <g id="ytick_4">
     <g id="line2d_9">
      <g>
       <use style="stroke:#000000;stroke-width:0.8;" x="33.64" xlink:href="#m701a1a8b08" y="178.333333"/>
      </g>
     </g>
     <g id="text_9">
      <!-- 60 -->
      <defs>
       <path d="M 33.015625 40.375 
Q 26.375 40.375 22.484375 35.828125 
Q 18.609375 31.296875 18.609375 23.390625 
Q 18.609375 15.53125 22.484375 10.953125 
Q 26.375 6.390625 33.015625 6.390625 
Q 39.65625 6.390625 43.53125 10.953125 
Q 47.40625 15.53125 47.40625 23.390625 
Q 47.40625 31.296875 43.53125 35.828125 
Q 39.65625 40.375 33.015625 40.375 
z
M 52.59375 71.296875 
L 52.59375 62.3125 
Q 48.875 64.0625 45.09375 64.984375 
Q 41.3125 65.921875 37.59375 65.921875 
Q 27.828125 65.921875 22.671875 59.328125 
Q 17.53125 52.734375 16.796875 39.40625 
Q 19.671875 43.65625 24.015625 45.921875 
Q 28.375 48.1875 33.59375 48.1875 
Q 44.578125 48.1875 50.953125 41.515625 
Q 57.328125 34.859375 57.328125 23.390625 
Q 57.328125 12.15625 50.6875 5.359375 
Q 44.046875 -1.421875 33.015625 -1.421875 
Q 20.359375 -1.421875 13.671875 8.265625 
Q 6.984375 17.96875 6.984375 36.375 
Q 6.984375 53.65625 15.1875 63.9375 
Q 23.390625 74.21875 37.203125 74.21875 
Q 40.921875 74.21875 44.703125 73.484375 
Q 48.484375 72.75 52.59375 71.296875 
z
" id="DejaVuSans-54"/>
      </defs>
      <g transform="translate(13.915 182.132552)scale(0.1 -0.1)">
       <use xlink:href="#DejaVuSans-54"/>
       <use x="63.623047" xlink:href="#DejaVuSans-48"/>
      </g>
     </g>
    </g>
    <g id="ytick_5">
     <g id="line2d_10">
      <g>
       <use style="stroke:#000000;stroke-width:0.8;" x="33.64" xlink:href="#m701a1a8b08" y="151.071111"/>
      </g>
     </g>
     <g id="text_10">
      <!-- 80 -->
      <defs>
       <path d="M 31.78125 34.625 
Q 24.75 34.625 20.71875 30.859375 
Q 16.703125 27.09375 16.703125 20.515625 
Q 16.703125 13.921875 20.71875 10.15625 
Q 24.75 6.390625 31.78125 6.390625 
Q 38.8125 6.390625 42.859375 10.171875 
Q 46.921875 13.96875 46.921875 20.515625 
Q 46.921875 27.09375 42.890625 30.859375 
Q 38.875 34.625 31.78125 34.625 
z
M 21.921875 38.8125 
Q 15.578125 40.375 12.03125 44.71875 
Q 8.5 49.078125 8.5 55.328125 
Q 8.5 64.0625 14.71875 69.140625 
Q 20.953125 74.21875 31.78125 74.21875 
Q 42.671875 74.21875 48.875 69.140625 
Q 55.078125 64.0625 55.078125 55.328125 
Q 55.078125 49.078125 51.53125 44.71875 
Q 48 40.375 41.703125 38.8125 
Q 48.828125 37.15625 52.796875 32.3125 
Q 56.78125 27.484375 56.78125 20.515625 
Q 56.78125 9.90625 50.3125 4.234375 
Q 43.84375 -1.421875 31.78125 -1.421875 
Q 19.734375 -1.421875 13.25 4.234375 
Q 6.78125 9.90625 6.78125 20.515625 
Q 6.78125 27.484375 10.78125 32.3125 
Q 14.796875 37.15625 21.921875 38.8125 
z
M 18.3125 54.390625 
Q 18.3125 48.734375 21.84375 45.5625 
Q 25.390625 42.390625 31.78125 42.390625 
Q 38.140625 42.390625 41.71875 45.5625 
Q 45.3125 48.734375 45.3125 54.390625 
Q 45.3125 60.0625 41.71875 63.234375 
Q 38.140625 66.40625 31.78125 66.40625 
Q 25.390625 66.40625 21.84375 63.234375 
Q 18.3125 60.0625 18.3125 54.390625 
z
" id="DejaVuSans-56"/>
      </defs>
      <g transform="translate(13.915 154.87033)scale(0.1 -0.1)">
       <use xlink:href="#DejaVuSans-56"/>
       <use x="63.623047" xlink:href="#DejaVuSans-48"/>
      </g>
     </g>
    </g>
    <g id="ytick_6">
     <g id="line2d_11">
      <g>
       <use style="stroke:#000000;stroke-width:0.8;" x="33.64" xlink:href="#m701a1a8b08" y="123.808889"/>
      </g>
     </g>
     <g id="text_11">
      <!-- 100 -->
      <defs>
       <path d="M 12.40625 8.296875 
L 28.515625 8.296875 
L 28.515625 63.921875 
L 10.984375 60.40625 
L 10.984375 69.390625 
L 28.421875 72.90625 
L 38.28125 72.90625 
L 38.28125 8.296875 
L 54.390625 8.296875 
L 54.390625 0 
L 12.40625 0 
z
" id="DejaVuSans-49"/>
      </defs>
      <g transform="translate(7.5525 127.608108)scale(0.1 -0.1)">
       <use xlink:href="#DejaVuSans-49"/>
       <use x="63.623047" xlink:href="#DejaVuSans-48"/>
       <use x="127.246094" xlink:href="#DejaVuSans-48"/>
      </g>
     </g>
    </g>
    <g id="ytick_7">
     <g id="line2d_12">
      <g>
       <use style="stroke:#000000;stroke-width:0.8;" x="33.64" xlink:href="#m701a1a8b08" y="96.546667"/>
      </g>
     </g>
     <g id="text_12">
      <!-- 120 -->
      <g transform="translate(7.5525 100.345885)scale(0.1 -0.1)">
       <use xlink:href="#DejaVuSans-49"/>
       <use x="63.623047" xlink:href="#DejaVuSans-50"/>
       <use x="127.246094" xlink:href="#DejaVuSans-48"/>
      </g>
     </g>
    </g>
    <g id="ytick_8">
     <g id="line2d_13">
      <g>
       <use style="stroke:#000000;stroke-width:0.8;" x="33.64" xlink:href="#m701a1a8b08" y="69.284444"/>
      </g>
     </g>
     <g id="text_13">
      <!-- 140 -->
      <g transform="translate(7.5525 73.083663)scale(0.1 -0.1)">
       <use xlink:href="#DejaVuSans-49"/>
       <use x="63.623047" xlink:href="#DejaVuSans-52"/>
       <use x="127.246094" xlink:href="#DejaVuSans-48"/>
      </g>
     </g>
    </g>
    <g id="ytick_9">
     <g id="line2d_14">
      <g>
       <use style="stroke:#000000;stroke-width:0.8;" x="33.64" xlink:href="#m701a1a8b08" y="42.022222"/>
      </g>
     </g>
     <g id="text_14">
      <!-- 160 -->
      <g transform="translate(7.5525 45.821441)scale(0.1 -0.1)">
       <use xlink:href="#DejaVuSans-49"/>
       <use x="63.623047" xlink:href="#DejaVuSans-54"/>
       <use x="127.246094" xlink:href="#DejaVuSans-48"/>
      </g>
     </g>
    </g>
    <g id="ytick_10">
     <g id="line2d_15">
      <g>
       <use style="stroke:#000000;stroke-width:0.8;" x="33.64" xlink:href="#m701a1a8b08" y="14.76"/>
      </g>
     </g>
     <g id="text_15">
      <!-- 180 -->
      <g transform="translate(7.5525 18.559219)scale(0.1 -0.1)">
       <use xlink:href="#DejaVuSans-49"/>
       <use x="63.623047" xlink:href="#DejaVuSans-56"/>
       <use x="127.246094" xlink:href="#DejaVuSans-48"/>
      </g>
     </g>
    </g>
   </g>
   <g id="line2d_16">
    <path clip-path="url(#pb54da63268)" d="M 33.64 260.12 
L 107.799603 260.12 
L 109.198736 257.393778 
L 110.62528 257.393778 
L 112.047217 253.304444 
L 113.468904 251.941333 
L 114.893905 249.215111 
L 116.317062 249.215111 
L 117.742224 246.488889 
L 119.16552 242.399556 
L 120.587919 242.399556 
L 122.011032 236.947111 
L 123.435946 235.584 
L 124.860011 235.584 
L 126.285033 232.857778 
L 127.706795 228.768444 
L 130.552701 228.768444 
L 131.974684 224.679111 
L 133.398203 221.952889 
L 134.821735 221.952889 
L 136.247824 219.226667 
L 137.671549 219.226667 
L 139.096279 221.952889 
L 140.517933 228.768444 
L 143.361044 228.768444 
L 146.204873 239.673333 
L 147.631389 239.673333 
L 149.055393 238.310222 
L 150.480657 235.584 
L 151.902302 235.584 
L 153.324066 227.405333 
L 154.745416 226.042222 
L 156.167766 223.316 
L 157.589447 223.316 
L 159.014123 221.952889 
L 161.858791 221.952889 
L 163.283253 209.684889 
L 164.70494 209.684889 
L 166.12799 208.321778 
L 167.55024 198.78 
L 168.97584 197.416889 
L 170.398039 197.416889 
L 171.820189 191.964444 
L 174.664946 191.964444 
L 176.089923 187.875111 
L 177.511702 189.238222 
L 178.933847 189.238222 
L 180.35587 174.244 
L 181.778468 166.065333 
L 183.201697 166.065333 
L 184.626356 141.529333 
L 186.051756 126.535111 
L 187.475597 126.535111 
L 191.749337 63.832 
L 193.174561 63.832 
L 194.599393 61.105778 
L 196.024052 61.105778 
L 197.449202 57.016444 
L 198.875363 76.1 
L 200.301247 84.278667 
L 201.726502 84.278667 
L 203.149288 87.004889 
L 205.993738 87.004889 
L 207.416726 92.457333 
L 208.839102 100.636 
L 210.263792 101.999111 
L 211.688509 101.999111 
L 213.11084 116.993333 
L 214.533448 116.993333 
L 215.956748 133.350667 
L 217.379568 157.886667 
L 218.802645 166.065333 
L 220.226207 166.065333 
L 221.648563 176.970222 
L 223.07141 190.601333 
L 225.919864 190.601333 
L 227.343121 260.12 
L 307.19443 260.12 
L 308.593592 258.756889 
L 310.016579 245.125778 
L 311.438718 245.125778 
L 312.860017 236.947111 
L 314.285557 236.947111 
L 315.70794 232.857778 
L 317.130087 227.405333 
L 318.552193 227.405333 
L 319.975738 224.679111 
L 321.399858 223.316 
L 325.671728 223.316 
L 327.093813 227.405333 
L 328.519197 227.405333 
L 329.947432 234.220889 
L 331.369532 235.584 
L 334.218588 235.584 
L 335.643483 232.857778 
L 337.067305 232.857778 
L 338.489085 228.768444 
L 339.911206 234.220889 
L 341.332558 231.494667 
L 342.7589 231.494667 
L 344.180712 232.857778 
L 345.602479 230.131556 
L 347.024727 230.131556 
L 348.446703 228.768444 
L 351.293143 215.137333 
L 352.715912 215.137333 
L 354.138562 204.232444 
L 355.560541 204.232444 
L 356.983488 208.321778 
L 358.405327 204.232444 
L 359.826912 204.232444 
L 361.248552 202.869333 
L 362.670205 206.958667 
L 364.094697 206.958667 
L 365.52822 201.506222 
L 366.952205 202.869333 
L 368.374273 193.327556 
L 369.79693 193.327556 
L 371.2206 179.696444 
L 372.64596 168.791556 
L 374.06938 168.791556 
L 375.495118 152.434222 
L 376.920661 130.624444 
L 378.342161 121.082667 
L 379.765704 121.082667 
L 381.187937 104.725333 
L 382.610832 99.272889 
L 384.033342 99.272889 
L 385.456656 82.915556 
L 386.881123 82.915556 
L 388.303478 69.284444 
L 389.727085 63.832 
L 391.150194 51.564 
L 392.573371 51.564 
L 393.995618 58.379556 
L 395.418826 37.932889 
L 396.843202 37.932889 
L 398.265183 46.111556 
L 399.68821 32.480444 
L 401.111233 32.480444 
L 402.53423 36.569778 
L 403.955914 31.117333 
L 405.379128 31.117333 
L 406.802409 29.754222 
L 408.227366 44.748444 
L 409.650357 63.832 
L 411.073651 63.832 
L 412.49643 77.463111 
L 413.921998 92.457333 
L 415.344294 92.457333 
L 416.766899 101.999111 
L 418.18988 108.814667 
L 419.612409 108.814667 
L 421.036342 134.713778 
L 422.459563 136.076889 
L 423.882124 136.076889 
L 425.30551 142.892444 
L 426.728462 260.12 
L 506.578979 260.12 
L 508.001395 258.756889 
L 509.423764 246.488889 
L 510.848474 246.488889 
L 512.270123 235.584 
L 513.692343 228.768444 
L 515.115334 220.589778 
L 516.537394 220.589778 
L 517.960764 215.137333 
L 519.385367 215.137333 
L 522.232675 204.232444 
L 523.6574 211.048 
L 525.080682 211.048 
L 527.927142 205.595556 
L 529.349777 205.595556 
L 530.772951 211.048 
L 532.196077 211.048 
L 533.620949 224.679111 
L 535.043383 224.679111 
L 536.466391 220.589778 
L 537.889024 220.589778 
L 539.316888 223.316 
L 540.739407 221.952889 
L 542.164857 221.952889 
L 543.589104 227.405333 
L 545.012077 223.316 
L 546.435057 223.316 
L 549.284548 215.137333 
L 550.708918 215.137333 
L 552.13361 212.411111 
L 553.557034 211.048 
L 554.980268 205.595556 
L 556.402935 205.595556 
L 557.826772 201.506222 
L 559.24957 200.143111 
L 560.67232 200.143111 
L 562.095428 197.416889 
L 563.518747 198.78 
L 564.942006 198.78 
L 566.364954 189.238222 
L 567.787863 183.785778 
L 569.211679 174.244 
L 570.633437 175.607111 
L 572.061628 172.880889 
L 573.485168 172.880889 
L 574.909277 167.428444 
L 576.336444 152.434222 
L 577.758601 144.255556 
L 579.180583 144.255556 
L 580.603732 121.082667 
L 582.02744 103.362222 
L 583.451063 103.362222 
L 584.876898 76.1 
L 586.299686 54.290222 
L 587.721101 54.290222 
L 589.143081 35.206667 
L 590.569188 32.480444 
L 591.991244 32.480444 
L 593.4135 28.391111 
L 594.838039 39.296 
L 596.263521 39.296 
L 597.685055 40.659111 
L 599.110097 54.290222 
L 600.539298 63.832 
L 601.962903 63.832 
L 604.812738 108.814667 
L 606.238821 108.814667 
L 607.663496 126.535111 
L 609.087222 141.529333 
L 610.510664 160.612889 
L 611.93416 160.612889 
L 613.356747 172.880889 
L 614.779935 172.880889 
L 616.205127 189.238222 
L 619.05278 200.143111 
L 620.476382 200.143111 
L 621.900426 201.506222 
L 627.59269 201.506222 
L 629.016687 260.12 
L 704.634245 260.12 
L 706.033774 257.393778 
L 707.456336 257.393778 
L 708.881421 249.215111 
L 710.303309 249.215111 
L 711.724783 247.852 
L 713.14626 239.673333 
L 715.990869 239.673333 
L 718.838193 234.220889 
L 720.260026 234.220889 
L 721.682288 238.310222 
L 723.104855 239.673333 
L 724.526285 239.673333 
L 727.370858 236.947111 
L 728.792888 236.947111 
L 730.215481 235.584 
L 731.63788 231.494667 
L 733.059325 232.857778 
L 735.907364 232.857778 
L 737.329108 234.220889 
L 738.752453 234.220889 
L 740.174044 227.405333 
L 741.596756 223.316 
L 743.018899 223.316 
L 744.44381 217.863556 
L 747.28863 217.863556 
L 748.710927 215.137333 
L 750.134399 217.863556 
L 751.559607 217.863556 
L 752.982606 228.768444 
L 754.408096 226.042222 
L 755.832729 219.226667 
L 757.254956 219.226667 
L 758.678088 215.137333 
L 760.103023 209.684889 
L 761.526985 209.684889 
L 762.949489 206.958667 
L 764.376969 206.958667 
L 765.801836 201.506222 
L 767.224453 204.232444 
L 768.649329 190.601333 
L 770.071986 190.601333 
L 771.495032 171.517778 
L 772.91889 161.976 
L 774.343262 161.976 
L 775.768082 144.255556 
L 777.191645 122.445778 
L 778.616436 122.445778 
L 780.039382 100.636 
L 781.462469 101.999111 
L 782.885631 91.094222 
L 784.31025 91.094222 
L 785.732924 88.368 
L 787.155837 72.010667 
L 788.57887 72.010667 
L 790.002062 50.200889 
L 791.425595 35.206667 
L 792.848921 35.206667 
L 794.272066 40.659111 
L 795.694921 31.117333 
L 797.118321 31.117333 
L 798.541718 39.296 
L 799.965521 50.200889 
L 801.387939 50.200889 
L 802.81105 51.564 
L 805.657304 67.921333 
L 809.925773 67.921333 
L 811.349174 87.004889 
L 812.772992 96.546667 
L 814.196929 96.546667 
L 815.619674 127.898222 
L 817.042415 146.981778 
L 818.467384 163.339111 
L 819.890284 163.339111 
L 821.313357 168.791556 
L 822.737038 176.970222 
L 824.160549 179.696444 
L 828.429519 179.696444 
L 829.852403 260.12 
L 904.07168 260.12 
L 905.470412 257.393778 
L 906.892899 257.393778 
L 908.314606 243.762667 
L 909.736907 223.316 
L 911.161736 216.500444 
L 912.583647 216.500444 
L 914.008541 208.321778 
L 916.85612 208.321778 
L 918.28081 197.416889 
L 921.130677 197.416889 
L 922.556597 193.327556 
L 926.825318 193.327556 
L 928.248578 189.238222 
L 929.672302 189.238222 
L 931.095697 191.964444 
L 932.518601 198.78 
L 933.941522 198.78 
L 935.364708 194.690667 
L 939.633508 194.690667 
L 941.054931 196.053778 
L 942.477682 196.053778 
L 943.901213 190.601333 
L 945.32332 200.143111 
L 946.746467 200.143111 
L 949.590598 202.869333 
L 951.012995 196.053778 
L 952.435909 196.053778 
L 953.858597 194.690667 
L 955.281558 197.416889 
L 956.705549 197.416889 
L 958.130185 190.601333 
L 959.553905 194.690667 
L 960.977017 194.690667 
L 962.400086 186.512 
L 963.823747 185.148889 
L 965.245383 185.148889 
L 966.667201 189.238222 
L 968.092117 182.422667 
L 969.514152 174.244 
L 970.936961 174.244 
L 972.359253 191.964444 
L 973.782274 191.964444 
L 975.205516 181.059556 
L 976.629569 164.702222 
L 978.052165 146.981778 
L 979.477582 146.981778 
L 980.9003 133.350667 
L 982.323429 130.624444 
L 983.745485 130.624444 
L 985.167821 140.166222 
L 986.590371 137.44 
L 988.01503 131.987556 
L 989.437865 131.987556 
L 990.859924 123.808889 
L 992.285123 123.808889 
L 993.710282 108.814667 
L 995.133441 101.999111 
L 996.555308 97.909778 
L 997.981512 97.909778 
L 999.404308 96.546667 
L 1000.826048 96.546667 
L 1002.248432 95.183556 
L 1003.671307 104.725333 
L 1005.093443 119.719556 
L 1006.515425 119.719556 
L 1007.937861 121.082667 
L 1009.359777 123.808889 
L 1010.781272 123.808889 
L 1012.203622 134.713778 
L 1013.625355 140.166222 
L 1015.04782 140.166222 
L 1016.469884 155.160444 
L 1017.891679 161.976 
L 1019.317236 161.976 
L 1020.739513 163.339111 
L 1022.164473 167.428444 
L 1023.589901 167.428444 
L 1025.015753 179.696444 
L 1026.441218 260.12 
L 1106.260687 260.12 
L 1107.681956 250.578222 
L 1109.103932 246.488889 
L 1110.528327 238.310222 
L 1111.952827 238.310222 
L 1114.796499 224.679111 
L 1116.219731 224.679111 
L 1117.641331 220.589778 
L 1119.063614 211.048 
L 1120.485868 211.048 
L 1121.907904 206.958667 
L 1123.329296 200.143111 
L 1124.750688 200.143111 
L 1126.172201 191.964444 
L 1127.593444 186.512 
L 1129.014408 186.512 
L 1131.858143 178.333333 
L 1133.28 171.517778 
L 1133.28 171.517778 
" style="fill:none;stroke:#1f77b4;stroke-linecap:square;stroke-width:1.5;"/>
   </g>
   <g id="patch_3">
    <path d="M 33.64 260.12 
L 33.64 14.76 
" style="fill:none;stroke:#000000;stroke-linecap:square;stroke-linejoin:miter;stroke-width:0.8;"/>
   </g>
   <g id="patch_4">
    <path d="M 1133.28 260.12 
L 1133.28 14.76 
" style="fill:none;stroke:#000000;stroke-linecap:square;stroke-linejoin:miter;stroke-width:0.8;"/>
   </g>
   <g id="patch_5">
    <path d="M 33.64 260.12 
L 1133.28 260.12 
" style="fill:none;stroke:#000000;stroke-linecap:square;stroke-linejoin:miter;stroke-width:0.8;"/>
   </g>
   <g id="patch_6">
    <path d="M 33.64 14.76 
L 1133.28 14.76 
" style="fill:none;stroke:#000000;stroke-linecap:square;stroke-linejoin:miter;stroke-width:0.8;"/>
   </g>
  </g>
 </g>
 <defs>
  <clipPath id="pb54da63268">
   <rect height="245.36" width="1099.64" x="33.64" y="14.76"/>
  </clipPath>
 </defs>
</svg>
