<?xml version="1.0" encoding="utf-8" standalone="no"?>
<!DOCTYPE svg PUBLIC "-//W3C//DTD SVG 1.1//EN"
  "http://www.w3.org/Graphics/SVG/1.1/DTD/svg11.dtd">
<!-- Created with matplotlib (https://matplotlib.org/) -->
<svg height="288pt" version="1.1" viewBox="0 0 1152 288" width="1152pt" xmlns="http://www.w3.org/2000/svg" xmlns:xlink="http://www.w3.org/1999/xlink">
 <defs>
  <style type="text/css">
*{stroke-linecap:butt;stroke-linejoin:round;}
  </style>
 </defs>
 <g id="figure_1">
  <g id="patch_1">
   <path d="M 0 288 
L 1152 288 
L 1152 0 
L 0 0 
z
" style="fill:#ffffff;"/>
  </g>
  <g id="axes_1">
   <g id="patch_2">
    <path d="M 33.64 260.12 
L 1133.28 260.12 
L 1133.28 14.76 
L 33.64 14.76 
z
" style="fill:#ffffff;"/>
   </g>
   <g id="matplotlib.axis_1">
    <g id="xtick_1">
     <g id="line2d_1">
      <defs>
       <path d="M 0 0 
L 0 3.5 
" id="m18b6880ea8" style="stroke:#000000;stroke-width:0.8;"/>
      </defs>
      <g>
       <use style="stroke:#000000;stroke-width:0.8;" x="198.513999" xlink:href="#m18b6880ea8" y="260.12"/>
      </g>
     </g>
     <g id="text_1">
      <!-- Tue 00:00 -->
      <defs>
       <path d="M -0.296875 72.90625 
L 61.375 72.90625 
L 61.375 64.59375 
L 35.5 64.59375 
L 35.5 0 
L 25.59375 0 
L 25.59375 64.59375 
L -0.296875 64.59375 
z
" id="DejaVuSans-84"/>
       <path d="M 8.5 21.578125 
L 8.5 54.6875 
L 17.484375 54.6875 
L 17.484375 21.921875 
Q 17.484375 14.15625 20.5 10.265625 
Q 23.53125 6.390625 29.59375 6.390625 
Q 36.859375 6.390625 41.078125 11.03125 
Q 45.3125 15.671875 45.3125 23.6875 
L 45.3125 54.6875 
L 54.296875 54.6875 
L 54.296875 0 
L 45.3125 0 
L 45.3125 8.40625 
Q 42.046875 3.421875 37.71875 1 
Q 33.40625 -1.421875 27.6875 -1.421875 
Q 18.265625 -1.421875 13.375 4.4375 
Q 8.5 10.296875 8.5 21.578125 
z
M 31.109375 56 
z
" id="DejaVuSans-117"/>
       <path d="M 56.203125 29.59375 
L 56.203125 25.203125 
L 14.890625 25.203125 
Q 15.484375 15.921875 20.484375 11.0625 
Q 25.484375 6.203125 34.421875 6.203125 
Q 39.59375 6.203125 44.453125 7.46875 
Q 49.3125 8.734375 54.109375 11.28125 
L 54.109375 2.78125 
Q 49.265625 0.734375 44.1875 -0.34375 
Q 39.109375 -1.421875 33.890625 -1.421875 
Q 20.796875 -1.421875 13.15625 6.1875 
Q 5.515625 13.8125 5.515625 26.8125 
Q 5.515625 40.234375 12.765625 48.109375 
Q 20.015625 56 32.328125 56 
Q 43.359375 56 49.78125 48.890625 
Q 56.203125 41.796875 56.203125 29.59375 
z
M 47.21875 32.234375 
Q 47.125 39.59375 43.09375 43.984375 
Q 39.0625 48.390625 32.421875 48.390625 
Q 24.90625 48.390625 20.390625 44.140625 
Q 15.875 39.890625 15.1875 32.171875 
z
" id="DejaVuSans-101"/>
       <path id="DejaVuSans-32"/>
       <path d="M 31.78125 66.40625 
Q 24.171875 66.40625 20.328125 58.90625 
Q 16.5 51.421875 16.5 36.375 
Q 16.5 21.390625 20.328125 13.890625 
Q 24.171875 6.390625 31.78125 6.390625 
Q 39.453125 6.390625 43.28125 13.890625 
Q 47.125 21.390625 47.125 36.375 
Q 47.125 51.421875 43.28125 58.90625 
Q 39.453125 66.40625 31.78125 66.40625 
z
M 31.78125 74.21875 
Q 44.046875 74.21875 50.515625 64.515625 
Q 56.984375 54.828125 56.984375 36.375 
Q 56.984375 17.96875 50.515625 8.265625 
Q 44.046875 -1.421875 31.78125 -1.421875 
Q 19.53125 -1.421875 13.0625 8.265625 
Q 6.59375 17.96875 6.59375 36.375 
Q 6.59375 54.828125 13.0625 64.515625 
Q 19.53125 74.21875 31.78125 74.21875 
z
" id="DejaVuSans-48"/>
       <path d="M 11.71875 12.40625 
L 22.015625 12.40625 
L 22.015625 0 
L 11.71875 0 
z
M 11.71875 51.703125 
L 22.015625 51.703125 
L 22.015625 39.3125 
L 11.71875 39.3125 
z
" id="DejaVuSans-58"/>
      </defs>
      <g transform="translate(173.228062 274.718437)scale(0.1 -0.1)">
       <use xlink:href="#DejaVuSans-84"/>
       <use x="60.849609" xlink:href="#DejaVuSans-117"/>
       <use x="124.228516" xlink:href="#DejaVuSans-101"/>
       <use x="185.751953" xlink:href="#DejaVuSans-32"/>
       <use x="217.539062" xlink:href="#DejaVuSans-48"/>
       <use x="281.162109" xlink:href="#DejaVuSans-48"/>
       <use x="344.785156" xlink:href="#DejaVuSans-58"/>
       <use x="378.476562" xlink:href="#DejaVuSans-48"/>
       <use x="442.099609" xlink:href="#DejaVuSans-48"/>
      </g>
     </g>
    </g>
    <g id="xtick_2">
     <g id="line2d_2">
      <g>
       <use style="stroke:#000000;stroke-width:0.8;" x="363.555293" xlink:href="#m18b6880ea8" y="260.12"/>
      </g>
     </g>
     <g id="text_2">
      <!-- Wed 00:00 -->
      <defs>
       <path d="M 3.328125 72.90625 
L 13.28125 72.90625 
L 28.609375 11.28125 
L 43.890625 72.90625 
L 54.984375 72.90625 
L 70.3125 11.28125 
L 85.59375 72.90625 
L 95.609375 72.90625 
L 77.296875 0 
L 64.890625 0 
L 49.515625 63.28125 
L 33.984375 0 
L 21.578125 0 
z
" id="DejaVuSans-87"/>
       <path d="M 45.40625 46.390625 
L 45.40625 75.984375 
L 54.390625 75.984375 
L 54.390625 0 
L 45.40625 0 
L 45.40625 8.203125 
Q 42.578125 3.328125 38.25 0.953125 
Q 33.9375 -1.421875 27.875 -1.421875 
Q 17.96875 -1.421875 11.734375 6.484375 
Q 5.515625 14.40625 5.515625 27.296875 
Q 5.515625 40.1875 11.734375 48.09375 
Q 17.96875 56 27.875 56 
Q 33.9375 56 38.25 53.625 
Q 42.578125 51.265625 45.40625 46.390625 
z
M 14.796875 27.296875 
Q 14.796875 17.390625 18.875 11.75 
Q 22.953125 6.109375 30.078125 6.109375 
Q 37.203125 6.109375 41.296875 11.75 
Q 45.40625 17.390625 45.40625 27.296875 
Q 45.40625 37.203125 41.296875 42.84375 
Q 37.203125 48.484375 30.078125 48.484375 
Q 22.953125 48.484375 18.875 42.84375 
Q 14.796875 37.203125 14.796875 27.296875 
z
" id="DejaVuSans-100"/>
      </defs>
      <g transform="translate(336.366231 274.718437)scale(0.1 -0.1)">
       <use xlink:href="#DejaVuSans-87"/>
       <use x="98.798828" xlink:href="#DejaVuSans-101"/>
       <use x="160.322266" xlink:href="#DejaVuSans-100"/>
       <use x="223.798828" xlink:href="#DejaVuSans-32"/>
       <use x="255.585938" xlink:href="#DejaVuSans-48"/>
       <use x="319.208984" xlink:href="#DejaVuSans-48"/>
       <use x="382.832031" xlink:href="#DejaVuSans-58"/>
       <use x="416.523438" xlink:href="#DejaVuSans-48"/>
       <use x="480.146484" xlink:href="#DejaVuSans-48"/>
      </g>
     </g>
    </g>
    <g id="xtick_3">
     <g id="line2d_3">
      <g>
       <use style="stroke:#000000;stroke-width:0.8;" x="528.596587" xlink:href="#m18b6880ea8" y="260.12"/>
      </g>
     </g>
     <g id="text_3">
      <!-- Thu 00:00 -->
      <defs>
       <path d="M 54.890625 33.015625 
L 54.890625 0 
L 45.90625 0 
L 45.90625 32.71875 
Q 45.90625 40.484375 42.875 44.328125 
Q 39.84375 48.1875 33.796875 48.1875 
Q 26.515625 48.1875 22.3125 43.546875 
Q 18.109375 38.921875 18.109375 30.90625 
L 18.109375 0 
L 9.078125 0 
L 9.078125 75.984375 
L 18.109375 75.984375 
L 18.109375 46.1875 
Q 21.34375 51.125 25.703125 53.5625 
Q 30.078125 56 35.796875 56 
Q 45.21875 56 50.046875 50.171875 
Q 54.890625 44.34375 54.890625 33.015625 
z
" id="DejaVuSans-104"/>
      </defs>
      <g transform="translate(503.206744 274.718437)scale(0.1 -0.1)">
       <use xlink:href="#DejaVuSans-84"/>
       <use x="61.083984" xlink:href="#DejaVuSans-104"/>
       <use x="124.462891" xlink:href="#DejaVuSans-117"/>
       <use x="187.841797" xlink:href="#DejaVuSans-32"/>
       <use x="219.628906" xlink:href="#DejaVuSans-48"/>
       <use x="283.251953" xlink:href="#DejaVuSans-48"/>
       <use x="346.875" xlink:href="#DejaVuSans-58"/>
       <use x="380.566406" xlink:href="#DejaVuSans-48"/>
       <use x="444.189453" xlink:href="#DejaVuSans-48"/>
      </g>
     </g>
    </g>
    <g id="xtick_4">
     <g id="line2d_4">
      <g>
       <use style="stroke:#000000;stroke-width:0.8;" x="693.637881" xlink:href="#m18b6880ea8" y="260.12"/>
      </g>
     </g>
     <g id="text_4">
      <!-- Fri 00:00 -->
      <defs>
       <path d="M 9.8125 72.90625 
L 51.703125 72.90625 
L 51.703125 64.59375 
L 19.671875 64.59375 
L 19.671875 43.109375 
L 48.578125 43.109375 
L 48.578125 34.8125 
L 19.671875 34.8125 
L 19.671875 0 
L 9.8125 0 
z
" id="DejaVuSans-70"/>
       <path d="M 41.109375 46.296875 
Q 39.59375 47.171875 37.8125 47.578125 
Q 36.03125 48 33.890625 48 
Q 26.265625 48 22.1875 43.046875 
Q 18.109375 38.09375 18.109375 28.8125 
L 18.109375 0 
L 9.078125 0 
L 9.078125 54.6875 
L 18.109375 54.6875 
L 18.109375 46.1875 
Q 20.953125 51.171875 25.484375 53.578125 
Q 30.03125 56 36.53125 56 
Q 37.453125 56 38.578125 55.875 
Q 39.703125 55.765625 41.0625 55.515625 
z
" id="DejaVuSans-114"/>
       <path d="M 9.421875 54.6875 
L 18.40625 54.6875 
L 18.40625 0 
L 9.421875 0 
z
M 9.421875 75.984375 
L 18.40625 75.984375 
L 18.40625 64.59375 
L 9.421875 64.59375 
z
" id="DejaVuSans-105"/>
      </defs>
      <g transform="translate(671.3246 274.718437)scale(0.1 -0.1)">
       <use xlink:href="#DejaVuSans-70"/>
       <use x="57.410156" xlink:href="#DejaVuSans-114"/>
       <use x="98.523438" xlink:href="#DejaVuSans-105"/>
       <use x="126.306641" xlink:href="#DejaVuSans-32"/>
       <use x="158.09375" xlink:href="#DejaVuSans-48"/>
       <use x="221.716797" xlink:href="#DejaVuSans-48"/>
       <use x="285.339844" xlink:href="#DejaVuSans-58"/>
       <use x="319.03125" xlink:href="#DejaVuSans-48"/>
       <use x="382.654297" xlink:href="#DejaVuSans-48"/>
      </g>
     </g>
    </g>
    <g id="xtick_5">
     <g id="line2d_5">
      <g>
       <use style="stroke:#000000;stroke-width:0.8;" x="858.679175" xlink:href="#m18b6880ea8" y="260.12"/>
      </g>
     </g>
     <g id="text_5">
      <!-- Sat 00:00 -->
      <defs>
       <path d="M 53.515625 70.515625 
L 53.515625 60.890625 
Q 47.90625 63.578125 42.921875 64.890625 
Q 37.9375 66.21875 33.296875 66.21875 
Q 25.25 66.21875 20.875 63.09375 
Q 16.5 59.96875 16.5 54.203125 
Q 16.5 49.359375 19.40625 46.890625 
Q 22.3125 44.4375 30.421875 42.921875 
L 36.375 41.703125 
Q 47.40625 39.59375 52.65625 34.296875 
Q 57.90625 29 57.90625 20.125 
Q 57.90625 9.515625 50.796875 4.046875 
Q 43.703125 -1.421875 29.984375 -1.421875 
Q 24.8125 -1.421875 18.96875 -0.25 
Q 13.140625 0.921875 6.890625 3.21875 
L 6.890625 13.375 
Q 12.890625 10.015625 18.65625 8.296875 
Q 24.421875 6.59375 29.984375 6.59375 
Q 38.421875 6.59375 43.015625 9.90625 
Q 47.609375 13.234375 47.609375 19.390625 
Q 47.609375 24.75 44.3125 27.78125 
Q 41.015625 30.8125 33.5 32.328125 
L 27.484375 33.5 
Q 16.453125 35.6875 11.515625 40.375 
Q 6.59375 45.0625 6.59375 53.421875 
Q 6.59375 63.09375 13.40625 68.65625 
Q 20.21875 74.21875 32.171875 74.21875 
Q 37.3125 74.21875 42.625 73.28125 
Q 47.953125 72.359375 53.515625 70.515625 
z
" id="DejaVuSans-83"/>
       <path d="M 34.28125 27.484375 
Q 23.390625 27.484375 19.1875 25 
Q 14.984375 22.515625 14.984375 16.5 
Q 14.984375 11.71875 18.140625 8.90625 
Q 21.296875 6.109375 26.703125 6.109375 
Q 34.1875 6.109375 38.703125 11.40625 
Q 43.21875 16.703125 43.21875 25.484375 
L 43.21875 27.484375 
z
M 52.203125 31.203125 
L 52.203125 0 
L 43.21875 0 
L 43.21875 8.296875 
Q 40.140625 3.328125 35.546875 0.953125 
Q 30.953125 -1.421875 24.3125 -1.421875 
Q 15.921875 -1.421875 10.953125 3.296875 
Q 6 8.015625 6 15.921875 
Q 6 25.140625 12.171875 29.828125 
Q 18.359375 34.515625 30.609375 34.515625 
L 43.21875 34.515625 
L 43.21875 35.40625 
Q 43.21875 41.609375 39.140625 45 
Q 35.0625 48.390625 27.6875 48.390625 
Q 23 48.390625 18.546875 47.265625 
Q 14.109375 46.140625 10.015625 43.890625 
L 10.015625 52.203125 
Q 14.9375 54.109375 19.578125 55.046875 
Q 24.21875 56 28.609375 56 
Q 40.484375 56 46.34375 49.84375 
Q 52.203125 43.703125 52.203125 31.203125 
z
" id="DejaVuSans-97"/>
       <path d="M 18.3125 70.21875 
L 18.3125 54.6875 
L 36.8125 54.6875 
L 36.8125 47.703125 
L 18.3125 47.703125 
L 18.3125 18.015625 
Q 18.3125 11.328125 20.140625 9.421875 
Q 21.96875 7.515625 27.59375 7.515625 
L 36.8125 7.515625 
L 36.8125 0 
L 27.59375 0 
Q 17.1875 0 13.234375 3.875 
Q 9.28125 7.765625 9.28125 18.015625 
L 9.28125 47.703125 
L 2.6875 47.703125 
L 2.6875 54.6875 
L 9.28125 54.6875 
L 9.28125 70.21875 
z
" id="DejaVuSans-116"/>
      </defs>
      <g transform="translate(834.4823 274.718437)scale(0.1 -0.1)">
       <use xlink:href="#DejaVuSans-83"/>
       <use x="63.476562" xlink:href="#DejaVuSans-97"/>
       <use x="124.755859" xlink:href="#DejaVuSans-116"/>
       <use x="163.964844" xlink:href="#DejaVuSans-32"/>
       <use x="195.751953" xlink:href="#DejaVuSans-48"/>
       <use x="259.375" xlink:href="#DejaVuSans-48"/>
       <use x="322.998047" xlink:href="#DejaVuSans-58"/>
       <use x="356.689453" xlink:href="#DejaVuSans-48"/>
       <use x="420.3125" xlink:href="#DejaVuSans-48"/>
      </g>
     </g>
    </g>
    <g id="xtick_6">
     <g id="line2d_6">
      <g>
       <use style="stroke:#000000;stroke-width:0.8;" x="1023.720469" xlink:href="#m18b6880ea8" y="260.12"/>
      </g>
     </g>
     <g id="text_6">
      <!-- Sun 00:00 -->
      <defs>
       <path d="M 54.890625 33.015625 
L 54.890625 0 
L 45.90625 0 
L 45.90625 32.71875 
Q 45.90625 40.484375 42.875 44.328125 
Q 39.84375 48.1875 33.796875 48.1875 
Q 26.515625 48.1875 22.3125 43.546875 
Q 18.109375 38.921875 18.109375 30.90625 
L 18.109375 0 
L 9.078125 0 
L 9.078125 54.6875 
L 18.109375 54.6875 
L 18.109375 46.1875 
Q 21.34375 51.125 25.703125 53.5625 
Q 30.078125 56 35.796875 56 
Q 45.21875 56 50.046875 50.171875 
Q 54.890625 44.34375 54.890625 33.015625 
z
" id="DejaVuSans-110"/>
      </defs>
      <g transform="translate(998.210313 274.718437)scale(0.1 -0.1)">
       <use xlink:href="#DejaVuSans-83"/>
       <use x="63.476562" xlink:href="#DejaVuSans-117"/>
       <use x="126.855469" xlink:href="#DejaVuSans-110"/>
       <use x="190.234375" xlink:href="#DejaVuSans-32"/>
       <use x="222.021484" xlink:href="#DejaVuSans-48"/>
       <use x="285.644531" xlink:href="#DejaVuSans-48"/>
       <use x="349.267578" xlink:href="#DejaVuSans-58"/>
       <use x="382.958984" xlink:href="#DejaVuSans-48"/>
       <use x="446.582031" xlink:href="#DejaVuSans-48"/>
      </g>
     </g>
    </g>
   </g>
   <g id="matplotlib.axis_2">
    <g id="ytick_1">
     <g id="line2d_7">
      <defs>
       <path d="M 0 0 
L -3.5 0 
" id="m074623830e" style="stroke:#000000;stroke-width:0.8;"/>
      </defs>
      <g>
       <use style="stroke:#000000;stroke-width:0.8;" x="33.64" xlink:href="#m074623830e" y="260.12"/>
      </g>
     </g>
     <g id="text_7">
      <!-- 0 -->
      <g transform="translate(20.2775 263.919219)scale(0.1 -0.1)">
       <use xlink:href="#DejaVuSans-48"/>
      </g>
     </g>
    </g>
    <g id="ytick_2">
     <g id="line2d_8">
      <g>
       <use style="stroke:#000000;stroke-width:0.8;" x="33.64" xlink:href="#m074623830e" y="230.910476"/>
      </g>
     </g>
     <g id="text_8">
      <!-- 25 -->
      <defs>
       <path d="M 19.1875 8.296875 
L 53.609375 8.296875 
L 53.609375 0 
L 7.328125 0 
L 7.328125 8.296875 
Q 12.9375 14.109375 22.625 23.890625 
Q 32.328125 33.6875 34.8125 36.53125 
Q 39.546875 41.84375 41.421875 45.53125 
Q 43.3125 49.21875 43.3125 52.78125 
Q 43.3125 58.59375 39.234375 62.25 
Q 35.15625 65.921875 28.609375 65.921875 
Q 23.96875 65.921875 18.8125 64.3125 
Q 13.671875 62.703125 7.8125 59.421875 
L 7.8125 69.390625 
Q 13.765625 71.78125 18.9375 73 
Q 24.125 74.21875 28.421875 74.21875 
Q 39.75 74.21875 46.484375 68.546875 
Q 53.21875 62.890625 53.21875 53.421875 
Q 53.21875 48.921875 51.53125 44.890625 
Q 49.859375 40.875 45.40625 35.40625 
Q 44.1875 33.984375 37.640625 27.21875 
Q 31.109375 20.453125 19.1875 8.296875 
z
" id="DejaVuSans-50"/>
       <path d="M 10.796875 72.90625 
L 49.515625 72.90625 
L 49.515625 64.59375 
L 19.828125 64.59375 
L 19.828125 46.734375 
Q 21.96875 47.46875 24.109375 47.828125 
Q 26.265625 48.1875 28.421875 48.1875 
Q 40.625 48.1875 47.75 41.5 
Q 54.890625 34.8125 54.890625 23.390625 
Q 54.890625 11.625 47.5625 5.09375 
Q 40.234375 -1.421875 26.90625 -1.421875 
Q 22.3125 -1.421875 17.546875 -0.640625 
Q 12.796875 0.140625 7.71875 1.703125 
L 7.71875 11.625 
Q 12.109375 9.234375 16.796875 8.0625 
Q 21.484375 6.890625 26.703125 6.890625 
Q 35.15625 6.890625 40.078125 11.328125 
Q 45.015625 15.765625 45.015625 23.390625 
Q 45.015625 31 40.078125 35.4375 
Q 35.15625 39.890625 26.703125 39.890625 
Q 22.75 39.890625 18.8125 39.015625 
Q 14.890625 38.140625 10.796875 36.28125 
z
" id="DejaVuSans-53"/>
      </defs>
      <g transform="translate(13.915 234.709695)scale(0.1 -0.1)">
       <use xlink:href="#DejaVuSans-50"/>
       <use x="63.623047" xlink:href="#DejaVuSans-53"/>
      </g>
     </g>
    </g>
    <g id="ytick_3">
     <g id="line2d_9">
      <g>
       <use style="stroke:#000000;stroke-width:0.8;" x="33.64" xlink:href="#m074623830e" y="201.700952"/>
      </g>
     </g>
     <g id="text_9">
      <!-- 50 -->
      <g transform="translate(13.915 205.500171)scale(0.1 -0.1)">
       <use xlink:href="#DejaVuSans-53"/>
       <use x="63.623047" xlink:href="#DejaVuSans-48"/>
      </g>
     </g>
    </g>
    <g id="ytick_4">
     <g id="line2d_10">
      <g>
       <use style="stroke:#000000;stroke-width:0.8;" x="33.64" xlink:href="#m074623830e" y="172.491429"/>
      </g>
     </g>
     <g id="text_10">
      <!-- 75 -->
      <defs>
       <path d="M 8.203125 72.90625 
L 55.078125 72.90625 
L 55.078125 68.703125 
L 28.609375 0 
L 18.3125 0 
L 43.21875 64.59375 
L 8.203125 64.59375 
z
" id="DejaVuSans-55"/>
      </defs>
      <g transform="translate(13.915 176.290647)scale(0.1 -0.1)">
       <use xlink:href="#DejaVuSans-55"/>
       <use x="63.623047" xlink:href="#DejaVuSans-53"/>
      </g>
     </g>
    </g>
    <g id="ytick_5">
     <g id="line2d_11">
      <g>
       <use style="stroke:#000000;stroke-width:0.8;" x="33.64" xlink:href="#m074623830e" y="143.281905"/>
      </g>
     </g>
     <g id="text_11">
      <!-- 100 -->
      <defs>
       <path d="M 12.40625 8.296875 
L 28.515625 8.296875 
L 28.515625 63.921875 
L 10.984375 60.40625 
L 10.984375 69.390625 
L 28.421875 72.90625 
L 38.28125 72.90625 
L 38.28125 8.296875 
L 54.390625 8.296875 
L 54.390625 0 
L 12.40625 0 
z
" id="DejaVuSans-49"/>
      </defs>
      <g transform="translate(7.5525 147.081124)scale(0.1 -0.1)">
       <use xlink:href="#DejaVuSans-49"/>
       <use x="63.623047" xlink:href="#DejaVuSans-48"/>
       <use x="127.246094" xlink:href="#DejaVuSans-48"/>
      </g>
     </g>
    </g>
    <g id="ytick_6">
     <g id="line2d_12">
      <g>
       <use style="stroke:#000000;stroke-width:0.8;" x="33.64" xlink:href="#m074623830e" y="114.072381"/>
      </g>
     </g>
     <g id="text_12">
      <!-- 125 -->
      <g transform="translate(7.5525 117.8716)scale(0.1 -0.1)">
       <use xlink:href="#DejaVuSans-49"/>
       <use x="63.623047" xlink:href="#DejaVuSans-50"/>
       <use x="127.246094" xlink:href="#DejaVuSans-53"/>
      </g>
     </g>
    </g>
    <g id="ytick_7">
     <g id="line2d_13">
      <g>
       <use style="stroke:#000000;stroke-width:0.8;" x="33.64" xlink:href="#m074623830e" y="84.862857"/>
      </g>
     </g>
     <g id="text_13">
      <!-- 150 -->
      <g transform="translate(7.5525 88.662076)scale(0.1 -0.1)">
       <use xlink:href="#DejaVuSans-49"/>
       <use x="63.623047" xlink:href="#DejaVuSans-53"/>
       <use x="127.246094" xlink:href="#DejaVuSans-48"/>
      </g>
     </g>
    </g>
    <g id="ytick_8">
     <g id="line2d_14">
      <g>
       <use style="stroke:#000000;stroke-width:0.8;" x="33.64" xlink:href="#m074623830e" y="55.653333"/>
      </g>
     </g>
     <g id="text_14">
      <!-- 175 -->
      <g transform="translate(7.5525 59.452552)scale(0.1 -0.1)">
       <use xlink:href="#DejaVuSans-49"/>
       <use x="63.623047" xlink:href="#DejaVuSans-55"/>
       <use x="127.246094" xlink:href="#DejaVuSans-53"/>
      </g>
     </g>
    </g>
    <g id="ytick_9">
     <g id="line2d_15">
      <g>
       <use style="stroke:#000000;stroke-width:0.8;" x="33.64" xlink:href="#m074623830e" y="26.44381"/>
      </g>
     </g>
     <g id="text_15">
      <!-- 200 -->
      <g transform="translate(7.5525 30.243028)scale(0.1 -0.1)">
       <use xlink:href="#DejaVuSans-50"/>
       <use x="63.623047" xlink:href="#DejaVuSans-48"/>
       <use x="127.246094" xlink:href="#DejaVuSans-48"/>
      </g>
     </g>
    </g>
   </g>
   <g id="line2d_16">
    <path clip-path="url(#pb47a94e3b3)" d="M 33.64 260.12 
L 96.263524 260.12 
L 97.44341 257.783238 
L 98.62405 257.783238 
L 99.804765 254.278095 
L 100.985324 254.278095 
L 103.344005 249.604571 
L 104.524059 248.43619 
L 105.702936 248.43619 
L 106.882171 247.26781 
L 109.241205 247.26781 
L 110.421069 242.594286 
L 111.600466 236.752381 
L 112.779365 236.752381 
L 113.959034 229.742095 
L 115.140315 226.236952 
L 116.319601 226.236952 
L 117.499102 222.73181 
L 121.036324 222.73181 
L 122.215288 219.226667 
L 123.393769 218.058286 
L 125.75304 218.058286 
L 126.93217 223.90019 
L 128.111423 223.90019 
L 129.292281 229.742095 
L 130.471096 227.405333 
L 131.6509 227.405333 
L 132.829867 232.078857 
L 134.008777 233.247238 
L 135.188619 236.752381 
L 136.368075 236.752381 
L 137.549027 234.415619 
L 138.72709 234.415619 
L 139.906296 230.910476 
L 142.263569 216.889905 
L 143.442031 216.889905 
L 144.62098 212.216381 
L 145.800661 208.711238 
L 146.981246 208.711238 
L 148.159953 197.027429 
L 149.343878 192.353905 
L 150.527196 186.512 
L 151.705771 186.512 
L 152.885413 187.680381 
L 154.064182 187.680381 
L 155.24374 181.838476 
L 156.422945 164.312762 
L 157.601371 164.312762 
L 158.78057 150.29219 
L 159.960327 139.776762 
L 161.140224 116.409143 
L 162.319012 116.409143 
L 163.497586 89.536381 
L 164.678473 89.536381 
L 165.857081 67.337143 
L 167.035707 53.316571 
L 168.213946 47.474667 
L 169.392477 47.474667 
L 170.571329 54.484952 
L 171.749771 59.158476 
L 172.929249 59.158476 
L 174.108954 76.68419 
L 175.287079 74.347429 
L 176.468022 74.347429 
L 177.647918 79.020952 
L 178.82623 81.357714 
L 180.006617 93.041524 
L 181.184973 93.041524 
L 182.363586 100.05181 
L 183.542067 109.398857 
L 184.719988 109.398857 
L 185.899097 122.251048 
L 187.077556 128.092952 
L 188.258175 128.092952 
L 189.436107 129.261333 
L 190.614843 132.766476 
L 191.793486 139.776762 
L 192.971192 139.776762 
L 194.148664 260.12 
L 260.328968 260.12 
L 261.488736 258.951619 
L 262.670813 243.762667 
L 263.852333 243.762667 
L 265.033582 240.257524 
L 266.212747 235.584 
L 268.574924 235.584 
L 269.754006 232.078857 
L 270.932902 232.078857 
L 272.112422 227.405333 
L 273.291963 223.90019 
L 274.470088 223.90019 
L 275.650634 222.73181 
L 278.007843 222.73181 
L 279.186861 225.068571 
L 280.368282 218.058286 
L 281.549417 219.226667 
L 282.727624 219.226667 
L 283.907033 216.889905 
L 285.086576 218.058286 
L 286.266279 218.058286 
L 287.444842 221.563429 
L 288.623111 219.226667 
L 289.802533 219.226667 
L 290.982808 214.553143 
L 292.161248 218.058286 
L 293.339349 218.058286 
L 294.517542 213.384762 
L 295.698495 212.216381 
L 296.879263 208.711238 
L 298.059079 208.711238 
L 300.416132 201.700952 
L 301.596726 201.700952 
L 302.777344 204.037714 
L 305.142798 204.037714 
L 306.320854 200.532571 
L 308.680403 200.532571 
L 309.861167 197.027429 
L 311.040314 187.680381 
L 312.219072 187.680381 
L 313.397324 184.175238 
L 314.576462 178.333333 
L 315.755496 178.333333 
L 316.936437 171.323048 
L 318.115666 156.134095 
L 319.295174 128.092952 
L 320.477457 128.092952 
L 321.661152 116.409143 
L 324.018698 116.409143 
L 325.20119 98.883429 
L 326.380436 98.883429 
L 327.559027 79.020952 
L 328.73747 67.337143 
L 329.916098 49.811429 
L 331.094791 49.811429 
L 332.274984 38.127619 
L 335.81074 38.127619 
L 336.992013 26.44381 
L 338.17313 26.44381 
L 339.351433 48.643048 
L 340.530622 60.326857 
L 341.709408 74.347429 
L 342.890714 74.347429 
L 345.247645 110.567238 
L 346.429267 110.567238 
L 347.607749 125.75619 
L 348.786591 137.44 
L 349.964921 151.460571 
L 351.146727 151.460571 
L 352.325526 161.976 
L 353.505033 161.976 
L 354.687037 166.649524 
L 355.865295 174.82819 
L 357.044751 175.996571 
L 359.403187 175.996571 
L 360.581167 260.12 
L 425.581592 260.12 
L 426.76002 255.446476 
L 429.118342 241.425905 
L 430.299086 241.425905 
L 431.47814 240.257524 
L 433.839702 240.257524 
L 435.018451 239.089143 
L 436.197294 239.089143 
L 437.378007 232.078857 
L 438.558325 232.078857 
L 439.737486 228.573714 
L 440.918128 228.573714 
L 442.097741 226.236952 
L 443.278035 225.068571 
L 447.997075 225.068571 
L 449.181282 226.236952 
L 451.538403 226.236952 
L 452.717093 223.90019 
L 453.897368 216.889905 
L 455.07593 219.226667 
L 456.257035 219.226667 
L 457.437839 221.563429 
L 458.616388 221.563429 
L 460.974296 214.553143 
L 462.155317 212.216381 
L 463.33608 212.216381 
L 464.514532 208.711238 
L 465.694934 206.374476 
L 466.87581 206.374476 
L 468.054814 209.879619 
L 469.235134 207.542857 
L 470.415407 206.374476 
L 471.596642 206.374476 
L 472.778233 205.206095 
L 473.957348 205.206095 
L 475.136665 198.19581 
L 476.31687 190.017143 
L 477.498878 190.017143 
L 478.67995 184.175238 
L 479.86039 171.323048 
L 481.038858 170.154667 
L 482.221481 170.154667 
L 483.402582 159.639238 
L 484.583683 159.639238 
L 485.763396 156.134095 
L 486.944108 153.797333 
L 488.12537 129.261333 
L 489.314761 129.261333 
L 490.494136 123.419429 
L 491.673266 115.240762 
L 492.853584 115.240762 
L 494.033101 98.883429 
L 495.212039 96.546667 
L 496.391514 96.546667 
L 497.571388 108.230476 
L 498.754467 101.22019 
L 499.932549 101.22019 
L 501.110867 96.546667 
L 502.292164 89.536381 
L 503.476138 95.378286 
L 504.657656 95.378286 
L 505.838251 94.209905 
L 507.019774 119.914286 
L 508.200348 119.914286 
L 509.378581 125.75619 
L 510.559302 144.450286 
L 511.740123 146.787048 
L 512.92064 146.787048 
L 514.101285 156.134095 
L 515.27935 156.134095 
L 516.460314 165.481143 
L 517.641562 171.323048 
L 518.819996 173.65981 
L 520.001401 173.65981 
L 521.18229 180.670095 
L 522.360196 181.838476 
L 524.722186 181.838476 
L 525.90322 260.12 
L 592.091345 260.12 
L 593.269597 256.614857 
L 594.447573 248.43619 
L 595.626068 248.43619 
L 596.806907 244.931048 
L 597.985832 242.594286 
L 599.164781 242.594286 
L 601.524897 235.584 
L 602.70491 230.910476 
L 603.8862 230.910476 
L 605.06482 229.742095 
L 606.244082 229.742095 
L 607.422623 226.236952 
L 608.603927 223.90019 
L 609.783295 223.90019 
L 612.142274 221.563429 
L 613.321475 225.068571 
L 614.501784 225.068571 
L 615.680841 222.73181 
L 616.860663 219.226667 
L 618.040163 219.226667 
L 619.219738 211.048 
L 620.39911 211.048 
L 621.578189 212.216381 
L 625.117764 212.216381 
L 626.298236 205.206095 
L 628.656873 205.206095 
L 629.837165 197.027429 
L 631.017452 194.690667 
L 632.198109 199.36419 
L 633.378631 199.36419 
L 634.564509 195.859048 
L 635.743782 195.859048 
L 636.922549 191.185524 
L 638.102226 184.175238 
L 639.281566 175.996571 
L 640.461991 175.996571 
L 641.641611 167.817905 
L 642.822754 161.976 
L 644.003191 161.976 
L 645.184376 157.302476 
L 646.365455 143.281905 
L 647.547725 143.281905 
L 648.728816 138.608381 
L 649.909338 128.092952 
L 651.089992 114.072381 
L 652.269506 114.072381 
L 653.448423 98.883429 
L 654.627113 104.725333 
L 655.806295 104.725333 
L 656.98621 86.031238 
L 658.165157 86.031238 
L 659.3494 70.842286 
L 660.529051 59.158476 
L 661.708969 46.306286 
L 662.890276 46.306286 
L 664.071828 28.780571 
L 665.252383 32.285714 
L 666.431364 32.285714 
L 667.611308 38.127619 
L 668.789327 31.117333 
L 669.96789 31.117333 
L 671.146309 41.632762 
L 672.325774 54.484952 
L 673.504707 62.663619 
L 674.683522 62.663619 
L 675.861633 76.68419 
L 677.045 96.546667 
L 678.22325 96.546667 
L 679.403784 105.893714 
L 680.584301 121.082667 
L 681.762912 121.082667 
L 682.941736 126.924571 
L 684.122156 144.450286 
L 685.302649 144.450286 
L 686.480981 152.628952 
L 687.659766 158.470857 
L 690.019482 158.470857 
L 691.198059 260.12 
L 755.045397 260.12 
L 756.2051 256.614857 
L 757.384239 256.614857 
L 758.563222 254.278095 
L 759.741655 249.604571 
L 760.920425 247.26781 
L 762.101532 247.26781 
L 763.281352 242.594286 
L 764.460614 233.247238 
L 765.640497 233.247238 
L 766.819082 227.405333 
L 767.997169 227.405333 
L 769.175515 223.90019 
L 770.356737 223.90019 
L 771.5351 216.889905 
L 772.713906 216.889905 
L 773.89286 213.384762 
L 775.071273 215.721524 
L 776.250212 215.721524 
L 777.429125 216.889905 
L 778.608062 220.395048 
L 780.970958 220.395048 
L 782.149433 221.563429 
L 783.328119 221.563429 
L 784.506883 219.226667 
L 785.685867 225.068571 
L 788.042241 225.068571 
L 789.220415 220.395048 
L 790.400023 222.73181 
L 791.5805 222.73181 
L 792.760065 220.395048 
L 793.940871 220.395048 
L 795.120132 218.058286 
L 796.298575 206.374476 
L 797.477172 202.869333 
L 798.657059 202.869333 
L 799.835037 194.690667 
L 801.01414 187.680381 
L 802.192317 187.680381 
L 803.373508 181.838476 
L 804.556703 171.323048 
L 805.736755 164.312762 
L 806.918901 164.312762 
L 808.097119 158.470857 
L 809.275607 158.470857 
L 810.457751 153.797333 
L 811.636958 147.955429 
L 812.816768 145.618667 
L 813.998577 145.618667 
L 815.17819 137.44 
L 816.357373 150.29219 
L 817.536062 150.29219 
L 818.720461 161.976 
L 819.899265 160.807619 
L 821.077492 160.807619 
L 822.256128 150.29219 
L 823.434988 144.450286 
L 824.615432 144.450286 
L 825.794743 135.103238 
L 826.973654 126.924571 
L 828.154347 126.924571 
L 829.333189 125.75619 
L 830.512597 128.092952 
L 831.695045 125.75619 
L 832.884791 125.75619 
L 834.067314 130.429714 
L 835.250522 131.598095 
L 836.43432 131.598095 
L 837.6267 143.281905 
L 839.994437 143.281905 
L 841.178262 151.460571 
L 842.35787 158.470857 
L 843.542406 160.807619 
L 844.722465 160.807619 
L 845.903892 166.649524 
L 847.083284 166.649524 
L 848.264367 179.501714 
L 849.443889 185.343619 
L 850.623166 187.680381 
L 851.801504 187.680381 
L 852.981949 193.522286 
L 855.340449 193.522286 
L 856.529897 260.12 
L 920.365915 260.12 
L 921.525212 253.109714 
L 922.70424 251.941333 
L 923.884239 251.941333 
L 925.06435 241.425905 
L 926.242227 235.584 
L 927.420256 235.584 
L 928.598644 233.247238 
L 929.77647 233.247238 
L 930.95433 220.395048 
L 932.134136 209.879619 
L 933.312063 207.542857 
L 934.490337 207.542857 
L 936.846528 193.522286 
L 938.02413 193.522286 
L 940.382868 186.512 
L 941.560864 187.680381 
L 943.058313 187.680381 
L 944.23732 195.859048 
L 945.418541 199.36419 
L 946.596531 199.36419 
L 947.776863 200.532571 
L 948.959362 200.532571 
L 950.137778 187.680381 
L 951.315819 187.680381 
L 952.49389 180.670095 
L 953.672536 180.670095 
L 954.851576 175.996571 
L 956.029301 177.164952 
L 957.208503 177.164952 
L 958.388815 187.680381 
L 959.566844 186.512 
L 960.745182 180.670095 
L 961.923298 180.670095 
L 963.101734 181.838476 
L 964.279574 173.65981 
L 965.457655 173.65981 
L 966.636597 185.343619 
L 967.816288 198.19581 
L 968.99428 198.19581 
L 971.353178 205.206095 
L 972.532884 205.206095 
L 973.712942 204.037714 
L 974.893026 205.206095 
L 976.073634 201.700952 
L 977.254519 201.700952 
L 978.434949 202.869333 
L 979.615431 211.048 
L 980.795727 211.048 
L 981.974887 214.553143 
L 983.154109 215.721524 
L 984.334654 215.721524 
L 986.695871 208.711238 
L 987.876842 208.711238 
L 989.057364 204.037714 
L 990.238126 205.206095 
L 991.418698 205.206095 
L 992.600185 227.405333 
L 993.780669 216.889905 
L 994.960363 214.553143 
L 996.138997 214.553143 
L 997.318132 216.889905 
L 1000.85688 216.889905 
L 1002.036049 215.721524 
L 1003.217852 215.721524 
L 1004.396046 218.058286 
L 1007.935653 218.058286 
L 1009.116063 222.73181 
L 1010.295534 222.73181 
L 1012.656715 234.415619 
L 1013.837243 234.415619 
L 1015.018244 235.584 
L 1018.556629 235.584 
L 1019.737196 239.089143 
L 1023.278512 239.089143 
L 1024.458713 260.12 
L 1087.29151 260.12 
L 1088.470101 246.099429 
L 1089.64798 236.752381 
L 1090.827181 236.752381 
L 1093.186094 220.395048 
L 1094.36525 220.395048 
L 1095.544133 211.048 
L 1096.723246 205.206095 
L 1097.903277 194.690667 
L 1099.082617 194.690667 
L 1100.261771 173.65981 
L 1101.442916 173.65981 
L 1102.62176 183.006857 
L 1103.800334 172.491429 
L 1104.979188 172.491429 
L 1106.15871 170.154667 
L 1107.337703 172.491429 
L 1108.517774 164.312762 
L 1109.698844 164.312762 
L 1110.877145 159.639238 
L 1112.057378 165.481143 
L 1113.235775 165.481143 
L 1114.414489 177.164952 
L 1115.592589 172.491429 
L 1116.774845 172.491429 
L 1117.955129 170.154667 
L 1120.312284 170.154667 
L 1121.490055 167.817905 
L 1122.668191 178.333333 
L 1123.85038 170.154667 
L 1125.028207 170.154667 
L 1126.206468 167.817905 
L 1127.386827 157.302476 
L 1128.565682 157.302476 
L 1129.744848 151.460571 
L 1130.923682 151.460571 
L 1132.101568 139.776762 
L 1133.28 132.766476 
L 1133.28 132.766476 
" style="fill:none;stroke:#1f77b4;stroke-linecap:square;stroke-width:1.5;"/>
   </g>
   <g id="patch_3">
    <path d="M 33.64 260.12 
L 33.64 14.76 
" style="fill:none;stroke:#000000;stroke-linecap:square;stroke-linejoin:miter;stroke-width:0.8;"/>
   </g>
   <g id="patch_4">
    <path d="M 1133.28 260.12 
L 1133.28 14.76 
" style="fill:none;stroke:#000000;stroke-linecap:square;stroke-linejoin:miter;stroke-width:0.8;"/>
   </g>
   <g id="patch_5">
    <path d="M 33.64 260.12 
L 1133.28 260.12 
" style="fill:none;stroke:#000000;stroke-linecap:square;stroke-linejoin:miter;stroke-width:0.8;"/>
   </g>
   <g id="patch_6">
    <path d="M 33.64 14.76 
L 1133.28 14.76 
" style="fill:none;stroke:#000000;stroke-linecap:square;stroke-linejoin:miter;stroke-width:0.8;"/>
   </g>
  </g>
 </g>
 <defs>
  <clipPath id="pb47a94e3b3">
   <rect height="245.36" width="1099.64" x="33.64" y="14.76"/>
  </clipPath>
 </defs>
</svg>
