<?xml version="1.0" encoding="utf-8" standalone="no"?>
<!DOCTYPE svg PUBLIC "-//W3C//DTD SVG 1.1//EN"
  "http://www.w3.org/Graphics/SVG/1.1/DTD/svg11.dtd">
<!-- Created with matplotlib (https://matplotlib.org/) -->
<svg height="288pt" version="1.1" viewBox="0 0 1152 288" width="1152pt" xmlns="http://www.w3.org/2000/svg" xmlns:xlink="http://www.w3.org/1999/xlink">
 <defs>
  <style type="text/css">
*{stroke-linecap:butt;stroke-linejoin:round;}
  </style>
 </defs>
 <g id="figure_1">
  <g id="patch_1">
   <path d="M 0 288 
L 1152 288 
L 1152 0 
L 0 0 
z
" style="fill:#ffffff;"/>
  </g>
  <g id="axes_1">
   <g id="patch_2">
    <path d="M 33.64 260.12 
L 1133.28 260.12 
L 1133.28 14.76 
L 33.64 14.76 
z
" style="fill:#ffffff;"/>
   </g>
   <g id="matplotlib.axis_1">
    <g id="xtick_1">
     <g id="line2d_1">
      <defs>
       <path d="M 0 0 
L 0 3.5 
" id="mc0bc8f2c80" style="stroke:#000000;stroke-width:0.8;"/>
      </defs>
      <g>
       <use style="stroke:#000000;stroke-width:0.8;" x="220.370796" xlink:href="#mc0bc8f2c80" y="260.12"/>
      </g>
     </g>
     <g id="text_1">
      <!-- Tue 00:00 -->
      <defs>
       <path d="M -0.296875 72.90625 
L 61.375 72.90625 
L 61.375 64.59375 
L 35.5 64.59375 
L 35.5 0 
L 25.59375 0 
L 25.59375 64.59375 
L -0.296875 64.59375 
z
" id="DejaVuSans-84"/>
       <path d="M 8.5 21.578125 
L 8.5 54.6875 
L 17.484375 54.6875 
L 17.484375 21.921875 
Q 17.484375 14.15625 20.5 10.265625 
Q 23.53125 6.390625 29.59375 6.390625 
Q 36.859375 6.390625 41.078125 11.03125 
Q 45.3125 15.671875 45.3125 23.6875 
L 45.3125 54.6875 
L 54.296875 54.6875 
L 54.296875 0 
L 45.3125 0 
L 45.3125 8.40625 
Q 42.046875 3.421875 37.71875 1 
Q 33.40625 -1.421875 27.6875 -1.421875 
Q 18.265625 -1.421875 13.375 4.4375 
Q 8.5 10.296875 8.5 21.578125 
z
M 31.109375 56 
z
" id="DejaVuSans-117"/>
       <path d="M 56.203125 29.59375 
L 56.203125 25.203125 
L 14.890625 25.203125 
Q 15.484375 15.921875 20.484375 11.0625 
Q 25.484375 6.203125 34.421875 6.203125 
Q 39.59375 6.203125 44.453125 7.46875 
Q 49.3125 8.734375 54.109375 11.28125 
L 54.109375 2.78125 
Q 49.265625 0.734375 44.1875 -0.34375 
Q 39.109375 -1.421875 33.890625 -1.421875 
Q 20.796875 -1.421875 13.15625 6.1875 
Q 5.515625 13.8125 5.515625 26.8125 
Q 5.515625 40.234375 12.765625 48.109375 
Q 20.015625 56 32.328125 56 
Q 43.359375 56 49.78125 48.890625 
Q 56.203125 41.796875 56.203125 29.59375 
z
M 47.21875 32.234375 
Q 47.125 39.59375 43.09375 43.984375 
Q 39.0625 48.390625 32.421875 48.390625 
Q 24.90625 48.390625 20.390625 44.140625 
Q 15.875 39.890625 15.1875 32.171875 
z
" id="DejaVuSans-101"/>
       <path id="DejaVuSans-32"/>
       <path d="M 31.78125 66.40625 
Q 24.171875 66.40625 20.328125 58.90625 
Q 16.5 51.421875 16.5 36.375 
Q 16.5 21.390625 20.328125 13.890625 
Q 24.171875 6.390625 31.78125 6.390625 
Q 39.453125 6.390625 43.28125 13.890625 
Q 47.125 21.390625 47.125 36.375 
Q 47.125 51.421875 43.28125 58.90625 
Q 39.453125 66.40625 31.78125 66.40625 
z
M 31.78125 74.21875 
Q 44.046875 74.21875 50.515625 64.515625 
Q 56.984375 54.828125 56.984375 36.375 
Q 56.984375 17.96875 50.515625 8.265625 
Q 44.046875 -1.421875 31.78125 -1.421875 
Q 19.53125 -1.421875 13.0625 8.265625 
Q 6.59375 17.96875 6.59375 36.375 
Q 6.59375 54.828125 13.0625 64.515625 
Q 19.53125 74.21875 31.78125 74.21875 
z
" id="DejaVuSans-48"/>
       <path d="M 11.71875 12.40625 
L 22.015625 12.40625 
L 22.015625 0 
L 11.71875 0 
z
M 11.71875 51.703125 
L 22.015625 51.703125 
L 22.015625 39.3125 
L 11.71875 39.3125 
z
" id="DejaVuSans-58"/>
      </defs>
      <g transform="translate(195.084859 274.718437)scale(0.1 -0.1)">
       <use xlink:href="#DejaVuSans-84"/>
       <use x="60.849609" xlink:href="#DejaVuSans-117"/>
       <use x="124.228516" xlink:href="#DejaVuSans-101"/>
       <use x="185.751953" xlink:href="#DejaVuSans-32"/>
       <use x="217.539062" xlink:href="#DejaVuSans-48"/>
       <use x="281.162109" xlink:href="#DejaVuSans-48"/>
       <use x="344.785156" xlink:href="#DejaVuSans-58"/>
       <use x="378.476562" xlink:href="#DejaVuSans-48"/>
       <use x="442.099609" xlink:href="#DejaVuSans-48"/>
      </g>
     </g>
    </g>
    <g id="xtick_2">
     <g id="line2d_2">
      <g>
       <use style="stroke:#000000;stroke-width:0.8;" x="407.781204" xlink:href="#mc0bc8f2c80" y="260.12"/>
      </g>
     </g>
     <g id="text_2">
      <!-- Wed 00:00 -->
      <defs>
       <path d="M 3.328125 72.90625 
L 13.28125 72.90625 
L 28.609375 11.28125 
L 43.890625 72.90625 
L 54.984375 72.90625 
L 70.3125 11.28125 
L 85.59375 72.90625 
L 95.609375 72.90625 
L 77.296875 0 
L 64.890625 0 
L 49.515625 63.28125 
L 33.984375 0 
L 21.578125 0 
z
" id="DejaVuSans-87"/>
       <path d="M 45.40625 46.390625 
L 45.40625 75.984375 
L 54.390625 75.984375 
L 54.390625 0 
L 45.40625 0 
L 45.40625 8.203125 
Q 42.578125 3.328125 38.25 0.953125 
Q 33.9375 -1.421875 27.875 -1.421875 
Q 17.96875 -1.421875 11.734375 6.484375 
Q 5.515625 14.40625 5.515625 27.296875 
Q 5.515625 40.1875 11.734375 48.09375 
Q 17.96875 56 27.875 56 
Q 33.9375 56 38.25 53.625 
Q 42.578125 51.265625 45.40625 46.390625 
z
M 14.796875 27.296875 
Q 14.796875 17.390625 18.875 11.75 
Q 22.953125 6.109375 30.078125 6.109375 
Q 37.203125 6.109375 41.296875 11.75 
Q 45.40625 17.390625 45.40625 27.296875 
Q 45.40625 37.203125 41.296875 42.84375 
Q 37.203125 48.484375 30.078125 48.484375 
Q 22.953125 48.484375 18.875 42.84375 
Q 14.796875 37.203125 14.796875 27.296875 
z
" id="DejaVuSans-100"/>
      </defs>
      <g transform="translate(380.592141 274.718437)scale(0.1 -0.1)">
       <use xlink:href="#DejaVuSans-87"/>
       <use x="98.798828" xlink:href="#DejaVuSans-101"/>
       <use x="160.322266" xlink:href="#DejaVuSans-100"/>
       <use x="223.798828" xlink:href="#DejaVuSans-32"/>
       <use x="255.585938" xlink:href="#DejaVuSans-48"/>
       <use x="319.208984" xlink:href="#DejaVuSans-48"/>
       <use x="382.832031" xlink:href="#DejaVuSans-58"/>
       <use x="416.523438" xlink:href="#DejaVuSans-48"/>
       <use x="480.146484" xlink:href="#DejaVuSans-48"/>
      </g>
     </g>
    </g>
    <g id="xtick_3">
     <g id="line2d_3">
      <g>
       <use style="stroke:#000000;stroke-width:0.8;" x="595.191612" xlink:href="#mc0bc8f2c80" y="260.12"/>
      </g>
     </g>
     <g id="text_3">
      <!-- Thu 00:00 -->
      <defs>
       <path d="M 54.890625 33.015625 
L 54.890625 0 
L 45.90625 0 
L 45.90625 32.71875 
Q 45.90625 40.484375 42.875 44.328125 
Q 39.84375 48.1875 33.796875 48.1875 
Q 26.515625 48.1875 22.3125 43.546875 
Q 18.109375 38.921875 18.109375 30.90625 
L 18.109375 0 
L 9.078125 0 
L 9.078125 75.984375 
L 18.109375 75.984375 
L 18.109375 46.1875 
Q 21.34375 51.125 25.703125 53.5625 
Q 30.078125 56 35.796875 56 
Q 45.21875 56 50.046875 50.171875 
Q 54.890625 44.34375 54.890625 33.015625 
z
" id="DejaVuSans-104"/>
      </defs>
      <g transform="translate(569.801768 274.718437)scale(0.1 -0.1)">
       <use xlink:href="#DejaVuSans-84"/>
       <use x="61.083984" xlink:href="#DejaVuSans-104"/>
       <use x="124.462891" xlink:href="#DejaVuSans-117"/>
       <use x="187.841797" xlink:href="#DejaVuSans-32"/>
       <use x="219.628906" xlink:href="#DejaVuSans-48"/>
       <use x="283.251953" xlink:href="#DejaVuSans-48"/>
       <use x="346.875" xlink:href="#DejaVuSans-58"/>
       <use x="380.566406" xlink:href="#DejaVuSans-48"/>
       <use x="444.189453" xlink:href="#DejaVuSans-48"/>
      </g>
     </g>
    </g>
    <g id="xtick_4">
     <g id="line2d_4">
      <g>
       <use style="stroke:#000000;stroke-width:0.8;" x="782.602019" xlink:href="#mc0bc8f2c80" y="260.12"/>
      </g>
     </g>
     <g id="text_4">
      <!-- Fri 00:00 -->
      <defs>
       <path d="M 9.8125 72.90625 
L 51.703125 72.90625 
L 51.703125 64.59375 
L 19.671875 64.59375 
L 19.671875 43.109375 
L 48.578125 43.109375 
L 48.578125 34.8125 
L 19.671875 34.8125 
L 19.671875 0 
L 9.8125 0 
z
" id="DejaVuSans-70"/>
       <path d="M 41.109375 46.296875 
Q 39.59375 47.171875 37.8125 47.578125 
Q 36.03125 48 33.890625 48 
Q 26.265625 48 22.1875 43.046875 
Q 18.109375 38.09375 18.109375 28.8125 
L 18.109375 0 
L 9.078125 0 
L 9.078125 54.6875 
L 18.109375 54.6875 
L 18.109375 46.1875 
Q 20.953125 51.171875 25.484375 53.578125 
Q 30.03125 56 36.53125 56 
Q 37.453125 56 38.578125 55.875 
Q 39.703125 55.765625 41.0625 55.515625 
z
" id="DejaVuSans-114"/>
       <path d="M 9.421875 54.6875 
L 18.40625 54.6875 
L 18.40625 0 
L 9.421875 0 
z
M 9.421875 75.984375 
L 18.40625 75.984375 
L 18.40625 64.59375 
L 9.421875 64.59375 
z
" id="DejaVuSans-105"/>
      </defs>
      <g transform="translate(760.288738 274.718437)scale(0.1 -0.1)">
       <use xlink:href="#DejaVuSans-70"/>
       <use x="57.410156" xlink:href="#DejaVuSans-114"/>
       <use x="98.523438" xlink:href="#DejaVuSans-105"/>
       <use x="126.306641" xlink:href="#DejaVuSans-32"/>
       <use x="158.09375" xlink:href="#DejaVuSans-48"/>
       <use x="221.716797" xlink:href="#DejaVuSans-48"/>
       <use x="285.339844" xlink:href="#DejaVuSans-58"/>
       <use x="319.03125" xlink:href="#DejaVuSans-48"/>
       <use x="382.654297" xlink:href="#DejaVuSans-48"/>
      </g>
     </g>
    </g>
    <g id="xtick_5">
     <g id="line2d_5">
      <g>
       <use style="stroke:#000000;stroke-width:0.8;" x="970.012427" xlink:href="#mc0bc8f2c80" y="260.12"/>
      </g>
     </g>
     <g id="text_5">
      <!-- Sat 00:00 -->
      <defs>
       <path d="M 53.515625 70.515625 
L 53.515625 60.890625 
Q 47.90625 63.578125 42.921875 64.890625 
Q 37.9375 66.21875 33.296875 66.21875 
Q 25.25 66.21875 20.875 63.09375 
Q 16.5 59.96875 16.5 54.203125 
Q 16.5 49.359375 19.40625 46.890625 
Q 22.3125 44.4375 30.421875 42.921875 
L 36.375 41.703125 
Q 47.40625 39.59375 52.65625 34.296875 
Q 57.90625 29 57.90625 20.125 
Q 57.90625 9.515625 50.796875 4.046875 
Q 43.703125 -1.421875 29.984375 -1.421875 
Q 24.8125 -1.421875 18.96875 -0.25 
Q 13.140625 0.921875 6.890625 3.21875 
L 6.890625 13.375 
Q 12.890625 10.015625 18.65625 8.296875 
Q 24.421875 6.59375 29.984375 6.59375 
Q 38.421875 6.59375 43.015625 9.90625 
Q 47.609375 13.234375 47.609375 19.390625 
Q 47.609375 24.75 44.3125 27.78125 
Q 41.015625 30.8125 33.5 32.328125 
L 27.484375 33.5 
Q 16.453125 35.6875 11.515625 40.375 
Q 6.59375 45.0625 6.59375 53.421875 
Q 6.59375 63.09375 13.40625 68.65625 
Q 20.21875 74.21875 32.171875 74.21875 
Q 37.3125 74.21875 42.625 73.28125 
Q 47.953125 72.359375 53.515625 70.515625 
z
" id="DejaVuSans-83"/>
       <path d="M 34.28125 27.484375 
Q 23.390625 27.484375 19.1875 25 
Q 14.984375 22.515625 14.984375 16.5 
Q 14.984375 11.71875 18.140625 8.90625 
Q 21.296875 6.109375 26.703125 6.109375 
Q 34.1875 6.109375 38.703125 11.40625 
Q 43.21875 16.703125 43.21875 25.484375 
L 43.21875 27.484375 
z
M 52.203125 31.203125 
L 52.203125 0 
L 43.21875 0 
L 43.21875 8.296875 
Q 40.140625 3.328125 35.546875 0.953125 
Q 30.953125 -1.421875 24.3125 -1.421875 
Q 15.921875 -1.421875 10.953125 3.296875 
Q 6 8.015625 6 15.921875 
Q 6 25.140625 12.171875 29.828125 
Q 18.359375 34.515625 30.609375 34.515625 
L 43.21875 34.515625 
L 43.21875 35.40625 
Q 43.21875 41.609375 39.140625 45 
Q 35.0625 48.390625 27.6875 48.390625 
Q 23 48.390625 18.546875 47.265625 
Q 14.109375 46.140625 10.015625 43.890625 
L 10.015625 52.203125 
Q 14.9375 54.109375 19.578125 55.046875 
Q 24.21875 56 28.609375 56 
Q 40.484375 56 46.34375 49.84375 
Q 52.203125 43.703125 52.203125 31.203125 
z
" id="DejaVuSans-97"/>
       <path d="M 18.3125 70.21875 
L 18.3125 54.6875 
L 36.8125 54.6875 
L 36.8125 47.703125 
L 18.3125 47.703125 
L 18.3125 18.015625 
Q 18.3125 11.328125 20.140625 9.421875 
Q 21.96875 7.515625 27.59375 7.515625 
L 36.8125 7.515625 
L 36.8125 0 
L 27.59375 0 
Q 17.1875 0 13.234375 3.875 
Q 9.28125 7.765625 9.28125 18.015625 
L 9.28125 47.703125 
L 2.6875 47.703125 
L 2.6875 54.6875 
L 9.28125 54.6875 
L 9.28125 70.21875 
z
" id="DejaVuSans-116"/>
      </defs>
      <g transform="translate(945.815552 274.718437)scale(0.1 -0.1)">
       <use xlink:href="#DejaVuSans-83"/>
       <use x="63.476562" xlink:href="#DejaVuSans-97"/>
       <use x="124.755859" xlink:href="#DejaVuSans-116"/>
       <use x="163.964844" xlink:href="#DejaVuSans-32"/>
       <use x="195.751953" xlink:href="#DejaVuSans-48"/>
       <use x="259.375" xlink:href="#DejaVuSans-48"/>
       <use x="322.998047" xlink:href="#DejaVuSans-58"/>
       <use x="356.689453" xlink:href="#DejaVuSans-48"/>
       <use x="420.3125" xlink:href="#DejaVuSans-48"/>
      </g>
     </g>
    </g>
   </g>
   <g id="matplotlib.axis_2">
    <g id="ytick_1">
     <g id="line2d_6">
      <defs>
       <path d="M 0 0 
L -3.5 0 
" id="me4ff8b02d1" style="stroke:#000000;stroke-width:0.8;"/>
      </defs>
      <g>
       <use style="stroke:#000000;stroke-width:0.8;" x="33.64" xlink:href="#me4ff8b02d1" y="260.12"/>
      </g>
     </g>
     <g id="text_6">
      <!-- 0 -->
      <g transform="translate(20.2775 263.919219)scale(0.1 -0.1)">
       <use xlink:href="#DejaVuSans-48"/>
      </g>
     </g>
    </g>
    <g id="ytick_2">
     <g id="line2d_7">
      <g>
       <use style="stroke:#000000;stroke-width:0.8;" x="33.64" xlink:href="#me4ff8b02d1" y="230.910476"/>
      </g>
     </g>
     <g id="text_7">
      <!-- 25 -->
      <defs>
       <path d="M 19.1875 8.296875 
L 53.609375 8.296875 
L 53.609375 0 
L 7.328125 0 
L 7.328125 8.296875 
Q 12.9375 14.109375 22.625 23.890625 
Q 32.328125 33.6875 34.8125 36.53125 
Q 39.546875 41.84375 41.421875 45.53125 
Q 43.3125 49.21875 43.3125 52.78125 
Q 43.3125 58.59375 39.234375 62.25 
Q 35.15625 65.921875 28.609375 65.921875 
Q 23.96875 65.921875 18.8125 64.3125 
Q 13.671875 62.703125 7.8125 59.421875 
L 7.8125 69.390625 
Q 13.765625 71.78125 18.9375 73 
Q 24.125 74.21875 28.421875 74.21875 
Q 39.75 74.21875 46.484375 68.546875 
Q 53.21875 62.890625 53.21875 53.421875 
Q 53.21875 48.921875 51.53125 44.890625 
Q 49.859375 40.875 45.40625 35.40625 
Q 44.1875 33.984375 37.640625 27.21875 
Q 31.109375 20.453125 19.1875 8.296875 
z
" id="DejaVuSans-50"/>
       <path d="M 10.796875 72.90625 
L 49.515625 72.90625 
L 49.515625 64.59375 
L 19.828125 64.59375 
L 19.828125 46.734375 
Q 21.96875 47.46875 24.109375 47.828125 
Q 26.265625 48.1875 28.421875 48.1875 
Q 40.625 48.1875 47.75 41.5 
Q 54.890625 34.8125 54.890625 23.390625 
Q 54.890625 11.625 47.5625 5.09375 
Q 40.234375 -1.421875 26.90625 -1.421875 
Q 22.3125 -1.421875 17.546875 -0.640625 
Q 12.796875 0.140625 7.71875 1.703125 
L 7.71875 11.625 
Q 12.109375 9.234375 16.796875 8.0625 
Q 21.484375 6.890625 26.703125 6.890625 
Q 35.15625 6.890625 40.078125 11.328125 
Q 45.015625 15.765625 45.015625 23.390625 
Q 45.015625 31 40.078125 35.4375 
Q 35.15625 39.890625 26.703125 39.890625 
Q 22.75 39.890625 18.8125 39.015625 
Q 14.890625 38.140625 10.796875 36.28125 
z
" id="DejaVuSans-53"/>
      </defs>
      <g transform="translate(13.915 234.709695)scale(0.1 -0.1)">
       <use xlink:href="#DejaVuSans-50"/>
       <use x="63.623047" xlink:href="#DejaVuSans-53"/>
      </g>
     </g>
    </g>
    <g id="ytick_3">
     <g id="line2d_8">
      <g>
       <use style="stroke:#000000;stroke-width:0.8;" x="33.64" xlink:href="#me4ff8b02d1" y="201.700952"/>
      </g>
     </g>
     <g id="text_8">
      <!-- 50 -->
      <g transform="translate(13.915 205.500171)scale(0.1 -0.1)">
       <use xlink:href="#DejaVuSans-53"/>
       <use x="63.623047" xlink:href="#DejaVuSans-48"/>
      </g>
     </g>
    </g>
    <g id="ytick_4">
     <g id="line2d_9">
      <g>
       <use style="stroke:#000000;stroke-width:0.8;" x="33.64" xlink:href="#me4ff8b02d1" y="172.491429"/>
      </g>
     </g>
     <g id="text_9">
      <!-- 75 -->
      <defs>
       <path d="M 8.203125 72.90625 
L 55.078125 72.90625 
L 55.078125 68.703125 
L 28.609375 0 
L 18.3125 0 
L 43.21875 64.59375 
L 8.203125 64.59375 
z
" id="DejaVuSans-55"/>
      </defs>
      <g transform="translate(13.915 176.290647)scale(0.1 -0.1)">
       <use xlink:href="#DejaVuSans-55"/>
       <use x="63.623047" xlink:href="#DejaVuSans-53"/>
      </g>
     </g>
    </g>
    <g id="ytick_5">
     <g id="line2d_10">
      <g>
       <use style="stroke:#000000;stroke-width:0.8;" x="33.64" xlink:href="#me4ff8b02d1" y="143.281905"/>
      </g>
     </g>
     <g id="text_10">
      <!-- 100 -->
      <defs>
       <path d="M 12.40625 8.296875 
L 28.515625 8.296875 
L 28.515625 63.921875 
L 10.984375 60.40625 
L 10.984375 69.390625 
L 28.421875 72.90625 
L 38.28125 72.90625 
L 38.28125 8.296875 
L 54.390625 8.296875 
L 54.390625 0 
L 12.40625 0 
z
" id="DejaVuSans-49"/>
      </defs>
      <g transform="translate(7.5525 147.081124)scale(0.1 -0.1)">
       <use xlink:href="#DejaVuSans-49"/>
       <use x="63.623047" xlink:href="#DejaVuSans-48"/>
       <use x="127.246094" xlink:href="#DejaVuSans-48"/>
      </g>
     </g>
    </g>
    <g id="ytick_6">
     <g id="line2d_11">
      <g>
       <use style="stroke:#000000;stroke-width:0.8;" x="33.64" xlink:href="#me4ff8b02d1" y="114.072381"/>
      </g>
     </g>
     <g id="text_11">
      <!-- 125 -->
      <g transform="translate(7.5525 117.8716)scale(0.1 -0.1)">
       <use xlink:href="#DejaVuSans-49"/>
       <use x="63.623047" xlink:href="#DejaVuSans-50"/>
       <use x="127.246094" xlink:href="#DejaVuSans-53"/>
      </g>
     </g>
    </g>
    <g id="ytick_7">
     <g id="line2d_12">
      <g>
       <use style="stroke:#000000;stroke-width:0.8;" x="33.64" xlink:href="#me4ff8b02d1" y="84.862857"/>
      </g>
     </g>
     <g id="text_12">
      <!-- 150 -->
      <g transform="translate(7.5525 88.662076)scale(0.1 -0.1)">
       <use xlink:href="#DejaVuSans-49"/>
       <use x="63.623047" xlink:href="#DejaVuSans-53"/>
       <use x="127.246094" xlink:href="#DejaVuSans-48"/>
      </g>
     </g>
    </g>
    <g id="ytick_8">
     <g id="line2d_13">
      <g>
       <use style="stroke:#000000;stroke-width:0.8;" x="33.64" xlink:href="#me4ff8b02d1" y="55.653333"/>
      </g>
     </g>
     <g id="text_13">
      <!-- 175 -->
      <g transform="translate(7.5525 59.452552)scale(0.1 -0.1)">
       <use xlink:href="#DejaVuSans-49"/>
       <use x="63.623047" xlink:href="#DejaVuSans-55"/>
       <use x="127.246094" xlink:href="#DejaVuSans-53"/>
      </g>
     </g>
    </g>
    <g id="ytick_9">
     <g id="line2d_14">
      <g>
       <use style="stroke:#000000;stroke-width:0.8;" x="33.64" xlink:href="#me4ff8b02d1" y="26.44381"/>
      </g>
     </g>
     <g id="text_14">
      <!-- 200 -->
      <g transform="translate(7.5525 30.243028)scale(0.1 -0.1)">
       <use xlink:href="#DejaVuSans-50"/>
       <use x="63.623047" xlink:href="#DejaVuSans-48"/>
       <use x="127.246094" xlink:href="#DejaVuSans-48"/>
      </g>
     </g>
    </g>
   </g>
   <g id="line2d_15">
    <path clip-path="url(#pbc4769b7fc)" d="M 33.64 225.068571 
L 103.434415 225.068571 
L 104.776839 220.395048 
L 106.118006 220.395048 
L 107.458512 218.058286 
L 108.796554 218.058286 
L 110.13445 211.048 
L 111.475192 211.048 
L 112.813594 200.532571 
L 114.151521 195.859048 
L 115.490728 195.859048 
L 116.829623 186.512 
L 118.167861 179.501714 
L 119.509023 177.164952 
L 126.215043 177.164952 
L 127.554148 183.006857 
L 128.895668 190.017143 
L 130.233616 190.017143 
L 131.571532 195.859048 
L 132.912204 195.859048 
L 134.250589 200.532571 
L 135.590555 195.859048 
L 136.930938 195.859048 
L 138.269526 193.522286 
L 139.607702 192.353905 
L 140.94576 188.848762 
L 142.283948 188.848762 
L 143.623257 187.680381 
L 144.96342 191.185524 
L 146.301413 191.185524 
L 147.642757 188.848762 
L 148.981124 185.343619 
L 150.319128 185.343619 
L 151.659822 183.006857 
L 152.998311 185.343619 
L 155.67449 185.343619 
L 157.015274 178.333333 
L 158.354408 177.164952 
L 159.695432 177.164952 
L 161.036229 179.501714 
L 162.377202 173.65981 
L 163.720122 173.65981 
L 165.061522 170.154667 
L 166.405931 170.154667 
L 167.746753 175.996571 
L 169.084817 165.481143 
L 170.423115 153.797333 
L 171.761137 153.797333 
L 173.099232 147.955429 
L 174.43786 138.608381 
L 175.776105 138.608381 
L 177.115023 124.58781 
L 178.454928 108.230476 
L 179.793066 108.230476 
L 181.134711 90.704762 
L 182.473619 79.020952 
L 183.811593 60.326857 
L 185.150696 60.326857 
L 186.488958 52.14819 
L 187.82681 83.694476 
L 190.504975 83.694476 
L 191.846118 86.031238 
L 193.184578 86.031238 
L 194.525849 88.368 
L 195.86512 89.536381 
L 197.203553 89.536381 
L 198.543851 105.893714 
L 199.887385 119.914286 
L 201.226407 119.914286 
L 202.566925 133.934857 
L 203.907888 153.797333 
L 205.249764 153.797333 
L 206.588969 161.976 
L 207.929413 168.986286 
L 209.26785 172.491429 
L 210.60904 172.491429 
L 211.950548 184.175238 
L 213.289386 192.353905 
L 214.627915 192.353905 
L 215.970664 260.12 
L 292.459581 260.12 
L 293.799974 241.425905 
L 295.140998 236.752381 
L 296.481825 236.752381 
L 297.821111 233.247238 
L 299.159759 222.73181 
L 300.499975 222.73181 
L 301.840064 213.384762 
L 303.181164 211.048 
L 304.522717 211.048 
L 305.867115 207.542857 
L 307.209828 205.206095 
L 308.550999 205.206095 
L 309.888997 202.869333 
L 311.232734 201.700952 
L 313.915639 201.700952 
L 315.253379 215.721524 
L 316.593176 216.889905 
L 317.934543 214.553143 
L 319.273155 216.889905 
L 320.612429 216.889905 
L 323.378268 205.206095 
L 326.142179 208.711238 
L 328.952927 208.711238 
L 330.290769 211.048 
L 331.630384 211.048 
L 332.968745 213.384762 
L 334.306792 212.216381 
L 335.647637 212.216381 
L 336.988299 207.542857 
L 339.666297 207.542857 
L 341.004504 202.869333 
L 342.34605 205.206095 
L 343.684314 205.206095 
L 345.023487 201.700952 
L 346.362331 191.185524 
L 347.701095 186.512 
L 349.039098 186.512 
L 350.377681 185.343619 
L 351.716273 173.65981 
L 353.057581 173.65981 
L 354.397357 172.491429 
L 355.738216 181.838476 
L 357.076721 181.838476 
L 359.754908 158.470857 
L 361.093736 158.470857 
L 362.434636 153.797333 
L 363.773812 150.29219 
L 365.112519 150.29219 
L 366.45293 154.965714 
L 367.792377 158.470857 
L 369.131125 158.470857 
L 370.472342 144.450286 
L 371.813768 135.103238 
L 373.153063 130.429714 
L 374.491967 130.429714 
L 375.831134 116.409143 
L 377.170111 116.409143 
L 379.852059 114.072381 
L 381.19298 110.567238 
L 382.534731 110.567238 
L 383.874276 112.904 
L 385.21492 117.577524 
L 386.553853 117.577524 
L 387.894932 126.924571 
L 389.233821 142.113524 
L 390.574203 152.628952 
L 391.914345 152.628952 
L 393.252325 159.639238 
L 394.595789 159.639238 
L 395.933886 170.154667 
L 397.274162 178.333333 
L 398.61522 178.333333 
L 399.953865 186.512 
L 401.295194 187.680381 
L 402.635488 190.017143 
L 403.9739 190.017143 
L 405.31178 260.12 
L 477.798994 260.12 
L 480.453535 248.43619 
L 481.791455 248.43619 
L 483.129978 242.594286 
L 484.46858 237.920762 
L 485.806495 237.920762 
L 487.145378 228.573714 
L 488.484528 228.573714 
L 489.823016 223.90019 
L 491.160776 220.395048 
L 492.499805 220.395048 
L 493.838218 225.068571 
L 495.177995 225.068571 
L 496.517562 227.405333 
L 497.858718 227.405333 
L 499.200458 226.236952 
L 500.541508 223.90019 
L 501.879894 223.90019 
L 503.218765 220.395048 
L 504.557053 229.742095 
L 507.235638 229.742095 
L 508.576717 227.405333 
L 509.916554 227.405333 
L 511.255137 218.058286 
L 512.595617 218.058286 
L 513.935218 212.216381 
L 516.614218 212.216381 
L 519.293386 207.542857 
L 520.639973 207.542857 
L 521.982025 201.700952 
L 523.324719 201.700952 
L 524.663318 202.869333 
L 526.00179 200.532571 
L 527.339507 200.532571 
L 528.677515 191.185524 
L 531.354758 191.185524 
L 532.715099 188.848762 
L 534.053868 188.848762 
L 535.391806 179.501714 
L 536.734802 179.501714 
L 538.074744 177.164952 
L 539.413661 171.323048 
L 540.755179 171.323048 
L 542.093095 161.976 
L 543.432914 145.618667 
L 544.771055 117.577524 
L 546.109897 117.577524 
L 547.449595 109.398857 
L 548.787812 88.368 
L 550.126494 88.368 
L 551.468555 66.168762 
L 552.808064 52.14819 
L 554.14677 52.14819 
L 555.48487 42.801143 
L 556.823671 48.643048 
L 558.164985 48.643048 
L 559.505922 35.790857 
L 560.843926 33.454095 
L 562.184633 33.454095 
L 563.527288 34.622476 
L 564.86841 27.61219 
L 566.212931 27.61219 
L 567.551123 33.454095 
L 568.892076 38.127619 
L 570.229941 38.127619 
L 571.571939 48.643048 
L 572.909494 50.97981 
L 574.248184 72.010667 
L 575.586151 72.010667 
L 576.927107 89.536381 
L 578.265618 89.536381 
L 579.604806 104.725333 
L 580.944072 132.766476 
L 582.283882 140.945143 
L 583.626034 140.945143 
L 584.96676 165.481143 
L 586.304317 177.164952 
L 587.643261 177.164952 
L 588.984841 183.006857 
L 590.324453 194.690667 
L 593.004753 194.690667 
L 594.344073 260.12 
L 666.824116 260.12 
L 668.163703 253.109714 
L 669.504142 253.109714 
L 670.842949 249.604571 
L 672.184198 244.931048 
L 673.52195 244.931048 
L 674.860894 239.089143 
L 676.200811 236.752381 
L 677.539616 236.752381 
L 680.216267 229.742095 
L 681.557526 229.742095 
L 682.897622 233.247238 
L 684.239291 232.078857 
L 685.578654 228.573714 
L 686.918985 228.573714 
L 688.257682 229.742095 
L 689.595955 227.405333 
L 690.937985 227.405333 
L 692.277319 221.563429 
L 693.615176 219.226667 
L 694.959511 219.226667 
L 696.297421 214.553143 
L 697.636008 208.711238 
L 698.974468 208.711238 
L 700.313169 212.216381 
L 701.652245 214.553143 
L 702.993556 214.553143 
L 704.333652 208.711238 
L 705.672149 213.384762 
L 708.35028 213.384762 
L 709.689629 209.879619 
L 711.03143 199.36419 
L 712.369233 199.36419 
L 715.050615 197.027429 
L 716.38939 197.027429 
L 719.070376 185.343619 
L 721.751674 185.343619 
L 723.089881 180.670095 
L 724.429555 180.670095 
L 725.768961 170.154667 
L 727.10895 165.481143 
L 728.447019 165.481143 
L 729.785967 158.470857 
L 731.124171 142.113524 
L 732.462733 128.092952 
L 733.800739 128.092952 
L 735.142844 103.556952 
L 736.486834 107.062095 
L 737.828274 107.062095 
L 739.169013 102.388571 
L 740.510029 80.189333 
L 741.848237 80.189333 
L 743.187382 66.168762 
L 744.525356 60.326857 
L 745.863446 60.326857 
L 747.204227 61.495238 
L 748.544143 48.643048 
L 749.882813 45.137905 
L 751.223967 45.137905 
L 752.562491 63.832 
L 753.900952 72.010667 
L 755.240185 72.010667 
L 756.579547 83.694476 
L 757.918593 90.704762 
L 759.259695 90.704762 
L 760.597569 95.378286 
L 761.945698 107.062095 
L 763.288472 107.062095 
L 764.627226 114.072381 
L 765.965188 129.261333 
L 767.304736 129.261333 
L 769.981228 157.302476 
L 771.323626 157.302476 
L 772.665142 161.976 
L 774.005864 177.164952 
L 775.346265 177.164952 
L 776.686416 184.175238 
L 778.026006 260.12 
L 854.535264 260.12 
L 855.873609 248.43619 
L 857.214723 242.594286 
L 858.556667 242.594286 
L 859.894701 234.415619 
L 861.232364 234.415619 
L 862.57114 222.73181 
L 863.909157 219.226667 
L 865.249628 214.553143 
L 866.591076 214.553143 
L 869.274846 205.206095 
L 870.615907 205.206095 
L 871.955227 201.700952 
L 873.295846 199.36419 
L 874.635054 205.206095 
L 875.974204 205.206095 
L 877.312591 207.542857 
L 878.654 211.048 
L 879.994372 211.048 
L 881.33719 219.226667 
L 882.676267 219.226667 
L 884.01508 218.058286 
L 886.692902 218.058286 
L 888.031066 221.563429 
L 889.36991 218.058286 
L 892.047629 218.058286 
L 893.386599 221.563429 
L 894.725631 222.73181 
L 896.063795 222.73181 
L 898.742974 211.048 
L 900.080997 208.711238 
L 901.421258 208.711238 
L 902.758971 205.206095 
L 904.097214 209.879619 
L 905.435359 209.879619 
L 906.774081 202.869333 
L 908.114152 202.869333 
L 909.453607 195.859048 
L 910.792218 197.027429 
L 912.131602 192.353905 
L 913.470692 192.353905 
L 914.809875 187.680381 
L 916.149847 181.838476 
L 917.488131 181.838476 
L 918.827384 183.006857 
L 920.167006 178.333333 
L 921.508193 183.006857 
L 922.849156 183.006857 
L 924.187917 177.164952 
L 925.527262 177.164952 
L 926.868689 186.512 
L 928.210288 181.838476 
L 929.549464 181.838476 
L 930.888519 184.175238 
L 932.228965 188.848762 
L 933.56792 186.512 
L 934.909327 186.512 
L 936.247147 183.006857 
L 937.58826 177.164952 
L 938.928688 177.164952 
L 940.267064 178.333333 
L 941.605109 187.680381 
L 942.943036 187.680381 
L 944.282568 186.512 
L 946.964252 186.512 
L 948.305268 188.848762 
L 950.985008 188.848762 
L 952.3262 200.532571 
L 953.66545 200.532571 
L 955.004328 205.206095 
L 956.3446 205.206095 
L 957.685759 206.374476 
L 959.027126 206.374476 
L 960.367926 207.542857 
L 961.7085 209.879619 
L 965.733 209.879619 
L 967.071968 260.12 
L 1040.890339 260.12 
L 1042.228959 258.951619 
L 1043.567608 254.278095 
L 1044.907523 243.762667 
L 1046.247733 243.762667 
L 1048.927851 236.752381 
L 1050.268247 236.752381 
L 1051.608477 229.742095 
L 1052.948877 220.395048 
L 1054.287768 220.395048 
L 1055.626057 218.058286 
L 1056.964531 216.889905 
L 1058.305968 216.889905 
L 1059.646279 206.374476 
L 1060.985024 206.374476 
L 1062.323214 198.19581 
L 1063.662926 198.19581 
L 1065.001245 195.859048 
L 1067.676757 195.859048 
L 1069.019998 197.027429 
L 1070.358739 204.037714 
L 1071.701272 204.037714 
L 1073.039049 200.532571 
L 1074.37758 199.36419 
L 1075.716019 199.36419 
L 1077.054502 194.690667 
L 1078.393032 192.353905 
L 1079.73116 192.353905 
L 1081.069489 199.36419 
L 1082.408118 198.19581 
L 1083.748191 198.19581 
L 1085.086531 199.36419 
L 1086.424261 204.037714 
L 1087.762511 204.037714 
L 1089.103179 206.374476 
L 1091.782906 197.027429 
L 1093.122861 197.027429 
L 1094.460167 198.19581 
L 1095.799018 197.027429 
L 1097.139589 197.027429 
L 1098.478118 205.206095 
L 1099.817042 211.048 
L 1101.155305 201.700952 
L 1103.831929 201.700952 
L 1105.170415 191.185524 
L 1106.510259 191.185524 
L 1107.848626 186.512 
L 1109.188047 186.512 
L 1110.526127 191.185524 
L 1111.864535 194.690667 
L 1113.203072 193.522286 
L 1114.541285 193.522286 
L 1115.879573 200.532571 
L 1117.218038 197.027429 
L 1118.556636 197.027429 
L 1119.89537 201.700952 
L 1121.233912 202.869333 
L 1122.572518 201.700952 
L 1123.910801 201.700952 
L 1125.249601 200.532571 
L 1126.588092 200.532571 
L 1127.926675 199.36419 
L 1129.266801 212.216381 
L 1130.604262 212.216381 
L 1131.942203 214.553143 
L 1133.28 225.068571 
L 1133.28 225.068571 
" style="fill:none;stroke:#1f77b4;stroke-linecap:square;stroke-width:1.5;"/>
   </g>
   <g id="patch_3">
    <path d="M 33.64 260.12 
L 33.64 14.76 
" style="fill:none;stroke:#000000;stroke-linecap:square;stroke-linejoin:miter;stroke-width:0.8;"/>
   </g>
   <g id="patch_4">
    <path d="M 1133.28 260.12 
L 1133.28 14.76 
" style="fill:none;stroke:#000000;stroke-linecap:square;stroke-linejoin:miter;stroke-width:0.8;"/>
   </g>
   <g id="patch_5">
    <path d="M 33.64 260.12 
L 1133.28 260.12 
" style="fill:none;stroke:#000000;stroke-linecap:square;stroke-linejoin:miter;stroke-width:0.8;"/>
   </g>
   <g id="patch_6">
    <path d="M 33.64 14.76 
L 1133.28 14.76 
" style="fill:none;stroke:#000000;stroke-linecap:square;stroke-linejoin:miter;stroke-width:0.8;"/>
   </g>
  </g>
 </g>
 <defs>
  <clipPath id="pbc4769b7fc">
   <rect height="245.36" width="1099.64" x="33.64" y="14.76"/>
  </clipPath>
 </defs>
</svg>
