<?xml version="1.0" encoding="utf-8" standalone="no"?>
<!DOCTYPE svg PUBLIC "-//W3C//DTD SVG 1.1//EN"
  "http://www.w3.org/Graphics/SVG/1.1/DTD/svg11.dtd">
<!-- Created with matplotlib (https://matplotlib.org/) -->
<svg height="288pt" version="1.1" viewBox="0 0 1152 288" width="1152pt" xmlns="http://www.w3.org/2000/svg" xmlns:xlink="http://www.w3.org/1999/xlink">
 <defs>
  <style type="text/css">
*{stroke-linecap:butt;stroke-linejoin:round;}
  </style>
 </defs>
 <g id="figure_1">
  <g id="patch_1">
   <path d="M 0 288 
L 1152 288 
L 1152 0 
L 0 0 
z
" style="fill:#ffffff;"/>
  </g>
  <g id="axes_1">
   <g id="patch_2">
    <path d="M 33.64 260.12 
L 1133.28 260.12 
L 1133.28 14.76 
L 33.64 14.76 
z
" style="fill:#ffffff;"/>
   </g>
   <g id="matplotlib.axis_1">
    <g id="xtick_1">
     <g id="line2d_1">
      <defs>
       <path d="M 0 0 
L 0 3.5 
" id="m236931345f" style="stroke:#000000;stroke-width:0.8;"/>
      </defs>
      <g>
       <use style="stroke:#000000;stroke-width:0.8;" x="221.545303" xlink:href="#m236931345f" y="260.12"/>
      </g>
     </g>
     <g id="text_1">
      <!-- Tue 00:00 -->
      <defs>
       <path d="M -0.296875 72.90625 
L 61.375 72.90625 
L 61.375 64.59375 
L 35.5 64.59375 
L 35.5 0 
L 25.59375 0 
L 25.59375 64.59375 
L -0.296875 64.59375 
z
" id="DejaVuSans-84"/>
       <path d="M 8.5 21.578125 
L 8.5 54.6875 
L 17.484375 54.6875 
L 17.484375 21.921875 
Q 17.484375 14.15625 20.5 10.265625 
Q 23.53125 6.390625 29.59375 6.390625 
Q 36.859375 6.390625 41.078125 11.03125 
Q 45.3125 15.671875 45.3125 23.6875 
L 45.3125 54.6875 
L 54.296875 54.6875 
L 54.296875 0 
L 45.3125 0 
L 45.3125 8.40625 
Q 42.046875 3.421875 37.71875 1 
Q 33.40625 -1.421875 27.6875 -1.421875 
Q 18.265625 -1.421875 13.375 4.4375 
Q 8.5 10.296875 8.5 21.578125 
z
M 31.109375 56 
z
" id="DejaVuSans-117"/>
       <path d="M 56.203125 29.59375 
L 56.203125 25.203125 
L 14.890625 25.203125 
Q 15.484375 15.921875 20.484375 11.0625 
Q 25.484375 6.203125 34.421875 6.203125 
Q 39.59375 6.203125 44.453125 7.46875 
Q 49.3125 8.734375 54.109375 11.28125 
L 54.109375 2.78125 
Q 49.265625 0.734375 44.1875 -0.34375 
Q 39.109375 -1.421875 33.890625 -1.421875 
Q 20.796875 -1.421875 13.15625 6.1875 
Q 5.515625 13.8125 5.515625 26.8125 
Q 5.515625 40.234375 12.765625 48.109375 
Q 20.015625 56 32.328125 56 
Q 43.359375 56 49.78125 48.890625 
Q 56.203125 41.796875 56.203125 29.59375 
z
M 47.21875 32.234375 
Q 47.125 39.59375 43.09375 43.984375 
Q 39.0625 48.390625 32.421875 48.390625 
Q 24.90625 48.390625 20.390625 44.140625 
Q 15.875 39.890625 15.1875 32.171875 
z
" id="DejaVuSans-101"/>
       <path id="DejaVuSans-32"/>
       <path d="M 31.78125 66.40625 
Q 24.171875 66.40625 20.328125 58.90625 
Q 16.5 51.421875 16.5 36.375 
Q 16.5 21.390625 20.328125 13.890625 
Q 24.171875 6.390625 31.78125 6.390625 
Q 39.453125 6.390625 43.28125 13.890625 
Q 47.125 21.390625 47.125 36.375 
Q 47.125 51.421875 43.28125 58.90625 
Q 39.453125 66.40625 31.78125 66.40625 
z
M 31.78125 74.21875 
Q 44.046875 74.21875 50.515625 64.515625 
Q 56.984375 54.828125 56.984375 36.375 
Q 56.984375 17.96875 50.515625 8.265625 
Q 44.046875 -1.421875 31.78125 -1.421875 
Q 19.53125 -1.421875 13.0625 8.265625 
Q 6.59375 17.96875 6.59375 36.375 
Q 6.59375 54.828125 13.0625 64.515625 
Q 19.53125 74.21875 31.78125 74.21875 
z
" id="DejaVuSans-48"/>
       <path d="M 11.71875 12.40625 
L 22.015625 12.40625 
L 22.015625 0 
L 11.71875 0 
z
M 11.71875 51.703125 
L 22.015625 51.703125 
L 22.015625 39.3125 
L 11.71875 39.3125 
z
" id="DejaVuSans-58"/>
      </defs>
      <g transform="translate(196.259365 274.718437)scale(0.1 -0.1)">
       <use xlink:href="#DejaVuSans-84"/>
       <use x="60.849609" xlink:href="#DejaVuSans-117"/>
       <use x="124.228516" xlink:href="#DejaVuSans-101"/>
       <use x="185.751953" xlink:href="#DejaVuSans-32"/>
       <use x="217.539062" xlink:href="#DejaVuSans-48"/>
       <use x="281.162109" xlink:href="#DejaVuSans-48"/>
       <use x="344.785156" xlink:href="#DejaVuSans-58"/>
       <use x="378.476562" xlink:href="#DejaVuSans-48"/>
       <use x="442.099609" xlink:href="#DejaVuSans-48"/>
      </g>
     </g>
    </g>
    <g id="xtick_2">
     <g id="line2d_2">
      <g>
       <use style="stroke:#000000;stroke-width:0.8;" x="409.64127" xlink:href="#m236931345f" y="260.12"/>
      </g>
     </g>
     <g id="text_2">
      <!-- Wed 00:00 -->
      <defs>
       <path d="M 3.328125 72.90625 
L 13.28125 72.90625 
L 28.609375 11.28125 
L 43.890625 72.90625 
L 54.984375 72.90625 
L 70.3125 11.28125 
L 85.59375 72.90625 
L 95.609375 72.90625 
L 77.296875 0 
L 64.890625 0 
L 49.515625 63.28125 
L 33.984375 0 
L 21.578125 0 
z
" id="DejaVuSans-87"/>
       <path d="M 45.40625 46.390625 
L 45.40625 75.984375 
L 54.390625 75.984375 
L 54.390625 0 
L 45.40625 0 
L 45.40625 8.203125 
Q 42.578125 3.328125 38.25 0.953125 
Q 33.9375 -1.421875 27.875 -1.421875 
Q 17.96875 -1.421875 11.734375 6.484375 
Q 5.515625 14.40625 5.515625 27.296875 
Q 5.515625 40.1875 11.734375 48.09375 
Q 17.96875 56 27.875 56 
Q 33.9375 56 38.25 53.625 
Q 42.578125 51.265625 45.40625 46.390625 
z
M 14.796875 27.296875 
Q 14.796875 17.390625 18.875 11.75 
Q 22.953125 6.109375 30.078125 6.109375 
Q 37.203125 6.109375 41.296875 11.75 
Q 45.40625 17.390625 45.40625 27.296875 
Q 45.40625 37.203125 41.296875 42.84375 
Q 37.203125 48.484375 30.078125 48.484375 
Q 22.953125 48.484375 18.875 42.84375 
Q 14.796875 37.203125 14.796875 27.296875 
z
" id="DejaVuSans-100"/>
      </defs>
      <g transform="translate(382.452207 274.718437)scale(0.1 -0.1)">
       <use xlink:href="#DejaVuSans-87"/>
       <use x="98.798828" xlink:href="#DejaVuSans-101"/>
       <use x="160.322266" xlink:href="#DejaVuSans-100"/>
       <use x="223.798828" xlink:href="#DejaVuSans-32"/>
       <use x="255.585938" xlink:href="#DejaVuSans-48"/>
       <use x="319.208984" xlink:href="#DejaVuSans-48"/>
       <use x="382.832031" xlink:href="#DejaVuSans-58"/>
       <use x="416.523438" xlink:href="#DejaVuSans-48"/>
       <use x="480.146484" xlink:href="#DejaVuSans-48"/>
      </g>
     </g>
    </g>
    <g id="xtick_3">
     <g id="line2d_3">
      <g>
       <use style="stroke:#000000;stroke-width:0.8;" x="597.737237" xlink:href="#m236931345f" y="260.12"/>
      </g>
     </g>
     <g id="text_3">
      <!-- Thu 00:00 -->
      <defs>
       <path d="M 54.890625 33.015625 
L 54.890625 0 
L 45.90625 0 
L 45.90625 32.71875 
Q 45.90625 40.484375 42.875 44.328125 
Q 39.84375 48.1875 33.796875 48.1875 
Q 26.515625 48.1875 22.3125 43.546875 
Q 18.109375 38.921875 18.109375 30.90625 
L 18.109375 0 
L 9.078125 0 
L 9.078125 75.984375 
L 18.109375 75.984375 
L 18.109375 46.1875 
Q 21.34375 51.125 25.703125 53.5625 
Q 30.078125 56 35.796875 56 
Q 45.21875 56 50.046875 50.171875 
Q 54.890625 44.34375 54.890625 33.015625 
z
" id="DejaVuSans-104"/>
      </defs>
      <g transform="translate(572.347393 274.718437)scale(0.1 -0.1)">
       <use xlink:href="#DejaVuSans-84"/>
       <use x="61.083984" xlink:href="#DejaVuSans-104"/>
       <use x="124.462891" xlink:href="#DejaVuSans-117"/>
       <use x="187.841797" xlink:href="#DejaVuSans-32"/>
       <use x="219.628906" xlink:href="#DejaVuSans-48"/>
       <use x="283.251953" xlink:href="#DejaVuSans-48"/>
       <use x="346.875" xlink:href="#DejaVuSans-58"/>
       <use x="380.566406" xlink:href="#DejaVuSans-48"/>
       <use x="444.189453" xlink:href="#DejaVuSans-48"/>
      </g>
     </g>
    </g>
    <g id="xtick_4">
     <g id="line2d_4">
      <g>
       <use style="stroke:#000000;stroke-width:0.8;" x="785.833204" xlink:href="#m236931345f" y="260.12"/>
      </g>
     </g>
     <g id="text_4">
      <!-- Fri 00:00 -->
      <defs>
       <path d="M 9.8125 72.90625 
L 51.703125 72.90625 
L 51.703125 64.59375 
L 19.671875 64.59375 
L 19.671875 43.109375 
L 48.578125 43.109375 
L 48.578125 34.8125 
L 19.671875 34.8125 
L 19.671875 0 
L 9.8125 0 
z
" id="DejaVuSans-70"/>
       <path d="M 41.109375 46.296875 
Q 39.59375 47.171875 37.8125 47.578125 
Q 36.03125 48 33.890625 48 
Q 26.265625 48 22.1875 43.046875 
Q 18.109375 38.09375 18.109375 28.8125 
L 18.109375 0 
L 9.078125 0 
L 9.078125 54.6875 
L 18.109375 54.6875 
L 18.109375 46.1875 
Q 20.953125 51.171875 25.484375 53.578125 
Q 30.03125 56 36.53125 56 
Q 37.453125 56 38.578125 55.875 
Q 39.703125 55.765625 41.0625 55.515625 
z
" id="DejaVuSans-114"/>
       <path d="M 9.421875 54.6875 
L 18.40625 54.6875 
L 18.40625 0 
L 9.421875 0 
z
M 9.421875 75.984375 
L 18.40625 75.984375 
L 18.40625 64.59375 
L 9.421875 64.59375 
z
" id="DejaVuSans-105"/>
      </defs>
      <g transform="translate(763.519923 274.718437)scale(0.1 -0.1)">
       <use xlink:href="#DejaVuSans-70"/>
       <use x="57.410156" xlink:href="#DejaVuSans-114"/>
       <use x="98.523438" xlink:href="#DejaVuSans-105"/>
       <use x="126.306641" xlink:href="#DejaVuSans-32"/>
       <use x="158.09375" xlink:href="#DejaVuSans-48"/>
       <use x="221.716797" xlink:href="#DejaVuSans-48"/>
       <use x="285.339844" xlink:href="#DejaVuSans-58"/>
       <use x="319.03125" xlink:href="#DejaVuSans-48"/>
       <use x="382.654297" xlink:href="#DejaVuSans-48"/>
      </g>
     </g>
    </g>
    <g id="xtick_5">
     <g id="line2d_5">
      <g>
       <use style="stroke:#000000;stroke-width:0.8;" x="973.929171" xlink:href="#m236931345f" y="260.12"/>
      </g>
     </g>
     <g id="text_5">
      <!-- Sat 00:00 -->
      <defs>
       <path d="M 53.515625 70.515625 
L 53.515625 60.890625 
Q 47.90625 63.578125 42.921875 64.890625 
Q 37.9375 66.21875 33.296875 66.21875 
Q 25.25 66.21875 20.875 63.09375 
Q 16.5 59.96875 16.5 54.203125 
Q 16.5 49.359375 19.40625 46.890625 
Q 22.3125 44.4375 30.421875 42.921875 
L 36.375 41.703125 
Q 47.40625 39.59375 52.65625 34.296875 
Q 57.90625 29 57.90625 20.125 
Q 57.90625 9.515625 50.796875 4.046875 
Q 43.703125 -1.421875 29.984375 -1.421875 
Q 24.8125 -1.421875 18.96875 -0.25 
Q 13.140625 0.921875 6.890625 3.21875 
L 6.890625 13.375 
Q 12.890625 10.015625 18.65625 8.296875 
Q 24.421875 6.59375 29.984375 6.59375 
Q 38.421875 6.59375 43.015625 9.90625 
Q 47.609375 13.234375 47.609375 19.390625 
Q 47.609375 24.75 44.3125 27.78125 
Q 41.015625 30.8125 33.5 32.328125 
L 27.484375 33.5 
Q 16.453125 35.6875 11.515625 40.375 
Q 6.59375 45.0625 6.59375 53.421875 
Q 6.59375 63.09375 13.40625 68.65625 
Q 20.21875 74.21875 32.171875 74.21875 
Q 37.3125 74.21875 42.625 73.28125 
Q 47.953125 72.359375 53.515625 70.515625 
z
" id="DejaVuSans-83"/>
       <path d="M 34.28125 27.484375 
Q 23.390625 27.484375 19.1875 25 
Q 14.984375 22.515625 14.984375 16.5 
Q 14.984375 11.71875 18.140625 8.90625 
Q 21.296875 6.109375 26.703125 6.109375 
Q 34.1875 6.109375 38.703125 11.40625 
Q 43.21875 16.703125 43.21875 25.484375 
L 43.21875 27.484375 
z
M 52.203125 31.203125 
L 52.203125 0 
L 43.21875 0 
L 43.21875 8.296875 
Q 40.140625 3.328125 35.546875 0.953125 
Q 30.953125 -1.421875 24.3125 -1.421875 
Q 15.921875 -1.421875 10.953125 3.296875 
Q 6 8.015625 6 15.921875 
Q 6 25.140625 12.171875 29.828125 
Q 18.359375 34.515625 30.609375 34.515625 
L 43.21875 34.515625 
L 43.21875 35.40625 
Q 43.21875 41.609375 39.140625 45 
Q 35.0625 48.390625 27.6875 48.390625 
Q 23 48.390625 18.546875 47.265625 
Q 14.109375 46.140625 10.015625 43.890625 
L 10.015625 52.203125 
Q 14.9375 54.109375 19.578125 55.046875 
Q 24.21875 56 28.609375 56 
Q 40.484375 56 46.34375 49.84375 
Q 52.203125 43.703125 52.203125 31.203125 
z
" id="DejaVuSans-97"/>
       <path d="M 18.3125 70.21875 
L 18.3125 54.6875 
L 36.8125 54.6875 
L 36.8125 47.703125 
L 18.3125 47.703125 
L 18.3125 18.015625 
Q 18.3125 11.328125 20.140625 9.421875 
Q 21.96875 7.515625 27.59375 7.515625 
L 36.8125 7.515625 
L 36.8125 0 
L 27.59375 0 
Q 17.1875 0 13.234375 3.875 
Q 9.28125 7.765625 9.28125 18.015625 
L 9.28125 47.703125 
L 2.6875 47.703125 
L 2.6875 54.6875 
L 9.28125 54.6875 
L 9.28125 70.21875 
z
" id="DejaVuSans-116"/>
      </defs>
      <g transform="translate(949.732296 274.718437)scale(0.1 -0.1)">
       <use xlink:href="#DejaVuSans-83"/>
       <use x="63.476562" xlink:href="#DejaVuSans-97"/>
       <use x="124.755859" xlink:href="#DejaVuSans-116"/>
       <use x="163.964844" xlink:href="#DejaVuSans-32"/>
       <use x="195.751953" xlink:href="#DejaVuSans-48"/>
       <use x="259.375" xlink:href="#DejaVuSans-48"/>
       <use x="322.998047" xlink:href="#DejaVuSans-58"/>
       <use x="356.689453" xlink:href="#DejaVuSans-48"/>
       <use x="420.3125" xlink:href="#DejaVuSans-48"/>
      </g>
     </g>
    </g>
   </g>
   <g id="matplotlib.axis_2">
    <g id="ytick_1">
     <g id="line2d_6">
      <defs>
       <path d="M 0 0 
L -3.5 0 
" id="m7ef022f7bc" style="stroke:#000000;stroke-width:0.8;"/>
      </defs>
      <g>
       <use style="stroke:#000000;stroke-width:0.8;" x="33.64" xlink:href="#m7ef022f7bc" y="260.12"/>
      </g>
     </g>
     <g id="text_6">
      <!-- 0 -->
      <g transform="translate(20.2775 263.919219)scale(0.1 -0.1)">
       <use xlink:href="#DejaVuSans-48"/>
      </g>
     </g>
    </g>
    <g id="ytick_2">
     <g id="line2d_7">
      <g>
       <use style="stroke:#000000;stroke-width:0.8;" x="33.64" xlink:href="#m7ef022f7bc" y="230.910476"/>
      </g>
     </g>
     <g id="text_7">
      <!-- 25 -->
      <defs>
       <path d="M 19.1875 8.296875 
L 53.609375 8.296875 
L 53.609375 0 
L 7.328125 0 
L 7.328125 8.296875 
Q 12.9375 14.109375 22.625 23.890625 
Q 32.328125 33.6875 34.8125 36.53125 
Q 39.546875 41.84375 41.421875 45.53125 
Q 43.3125 49.21875 43.3125 52.78125 
Q 43.3125 58.59375 39.234375 62.25 
Q 35.15625 65.921875 28.609375 65.921875 
Q 23.96875 65.921875 18.8125 64.3125 
Q 13.671875 62.703125 7.8125 59.421875 
L 7.8125 69.390625 
Q 13.765625 71.78125 18.9375 73 
Q 24.125 74.21875 28.421875 74.21875 
Q 39.75 74.21875 46.484375 68.546875 
Q 53.21875 62.890625 53.21875 53.421875 
Q 53.21875 48.921875 51.53125 44.890625 
Q 49.859375 40.875 45.40625 35.40625 
Q 44.1875 33.984375 37.640625 27.21875 
Q 31.109375 20.453125 19.1875 8.296875 
z
" id="DejaVuSans-50"/>
       <path d="M 10.796875 72.90625 
L 49.515625 72.90625 
L 49.515625 64.59375 
L 19.828125 64.59375 
L 19.828125 46.734375 
Q 21.96875 47.46875 24.109375 47.828125 
Q 26.265625 48.1875 28.421875 48.1875 
Q 40.625 48.1875 47.75 41.5 
Q 54.890625 34.8125 54.890625 23.390625 
Q 54.890625 11.625 47.5625 5.09375 
Q 40.234375 -1.421875 26.90625 -1.421875 
Q 22.3125 -1.421875 17.546875 -0.640625 
Q 12.796875 0.140625 7.71875 1.703125 
L 7.71875 11.625 
Q 12.109375 9.234375 16.796875 8.0625 
Q 21.484375 6.890625 26.703125 6.890625 
Q 35.15625 6.890625 40.078125 11.328125 
Q 45.015625 15.765625 45.015625 23.390625 
Q 45.015625 31 40.078125 35.4375 
Q 35.15625 39.890625 26.703125 39.890625 
Q 22.75 39.890625 18.8125 39.015625 
Q 14.890625 38.140625 10.796875 36.28125 
z
" id="DejaVuSans-53"/>
      </defs>
      <g transform="translate(13.915 234.709695)scale(0.1 -0.1)">
       <use xlink:href="#DejaVuSans-50"/>
       <use x="63.623047" xlink:href="#DejaVuSans-53"/>
      </g>
     </g>
    </g>
    <g id="ytick_3">
     <g id="line2d_8">
      <g>
       <use style="stroke:#000000;stroke-width:0.8;" x="33.64" xlink:href="#m7ef022f7bc" y="201.700952"/>
      </g>
     </g>
     <g id="text_8">
      <!-- 50 -->
      <g transform="translate(13.915 205.500171)scale(0.1 -0.1)">
       <use xlink:href="#DejaVuSans-53"/>
       <use x="63.623047" xlink:href="#DejaVuSans-48"/>
      </g>
     </g>
    </g>
    <g id="ytick_4">
     <g id="line2d_9">
      <g>
       <use style="stroke:#000000;stroke-width:0.8;" x="33.64" xlink:href="#m7ef022f7bc" y="172.491429"/>
      </g>
     </g>
     <g id="text_9">
      <!-- 75 -->
      <defs>
       <path d="M 8.203125 72.90625 
L 55.078125 72.90625 
L 55.078125 68.703125 
L 28.609375 0 
L 18.3125 0 
L 43.21875 64.59375 
L 8.203125 64.59375 
z
" id="DejaVuSans-55"/>
      </defs>
      <g transform="translate(13.915 176.290647)scale(0.1 -0.1)">
       <use xlink:href="#DejaVuSans-55"/>
       <use x="63.623047" xlink:href="#DejaVuSans-53"/>
      </g>
     </g>
    </g>
    <g id="ytick_5">
     <g id="line2d_10">
      <g>
       <use style="stroke:#000000;stroke-width:0.8;" x="33.64" xlink:href="#m7ef022f7bc" y="143.281905"/>
      </g>
     </g>
     <g id="text_10">
      <!-- 100 -->
      <defs>
       <path d="M 12.40625 8.296875 
L 28.515625 8.296875 
L 28.515625 63.921875 
L 10.984375 60.40625 
L 10.984375 69.390625 
L 28.421875 72.90625 
L 38.28125 72.90625 
L 38.28125 8.296875 
L 54.390625 8.296875 
L 54.390625 0 
L 12.40625 0 
z
" id="DejaVuSans-49"/>
      </defs>
      <g transform="translate(7.5525 147.081124)scale(0.1 -0.1)">
       <use xlink:href="#DejaVuSans-49"/>
       <use x="63.623047" xlink:href="#DejaVuSans-48"/>
       <use x="127.246094" xlink:href="#DejaVuSans-48"/>
      </g>
     </g>
    </g>
    <g id="ytick_6">
     <g id="line2d_11">
      <g>
       <use style="stroke:#000000;stroke-width:0.8;" x="33.64" xlink:href="#m7ef022f7bc" y="114.072381"/>
      </g>
     </g>
     <g id="text_11">
      <!-- 125 -->
      <g transform="translate(7.5525 117.8716)scale(0.1 -0.1)">
       <use xlink:href="#DejaVuSans-49"/>
       <use x="63.623047" xlink:href="#DejaVuSans-50"/>
       <use x="127.246094" xlink:href="#DejaVuSans-53"/>
      </g>
     </g>
    </g>
    <g id="ytick_7">
     <g id="line2d_12">
      <g>
       <use style="stroke:#000000;stroke-width:0.8;" x="33.64" xlink:href="#m7ef022f7bc" y="84.862857"/>
      </g>
     </g>
     <g id="text_12">
      <!-- 150 -->
      <g transform="translate(7.5525 88.662076)scale(0.1 -0.1)">
       <use xlink:href="#DejaVuSans-49"/>
       <use x="63.623047" xlink:href="#DejaVuSans-53"/>
       <use x="127.246094" xlink:href="#DejaVuSans-48"/>
      </g>
     </g>
    </g>
    <g id="ytick_8">
     <g id="line2d_13">
      <g>
       <use style="stroke:#000000;stroke-width:0.8;" x="33.64" xlink:href="#m7ef022f7bc" y="55.653333"/>
      </g>
     </g>
     <g id="text_13">
      <!-- 175 -->
      <g transform="translate(7.5525 59.452552)scale(0.1 -0.1)">
       <use xlink:href="#DejaVuSans-49"/>
       <use x="63.623047" xlink:href="#DejaVuSans-55"/>
       <use x="127.246094" xlink:href="#DejaVuSans-53"/>
      </g>
     </g>
    </g>
    <g id="ytick_9">
     <g id="line2d_14">
      <g>
       <use style="stroke:#000000;stroke-width:0.8;" x="33.64" xlink:href="#m7ef022f7bc" y="26.44381"/>
      </g>
     </g>
     <g id="text_14">
      <!-- 200 -->
      <g transform="translate(7.5525 30.243028)scale(0.1 -0.1)">
       <use xlink:href="#DejaVuSans-50"/>
       <use x="63.623047" xlink:href="#DejaVuSans-48"/>
       <use x="127.246094" xlink:href="#DejaVuSans-48"/>
      </g>
     </g>
    </g>
   </g>
   <g id="line2d_15">
    <path clip-path="url(#pc8442529c5)" d="M 33.64 260.12 
L 105.011425 260.12 
L 106.356129 257.783238 
L 107.701694 257.783238 
L 109.047343 254.278095 
L 110.392814 254.278095 
L 113.08098 249.604571 
L 114.425876 248.43619 
L 115.769432 248.43619 
L 117.113394 247.26781 
L 119.801962 247.26781 
L 121.146642 242.594286 
L 122.490789 236.752381 
L 123.834369 236.752381 
L 125.178826 229.742095 
L 126.525121 226.236952 
L 127.869142 226.236952 
L 129.213408 222.73181 
L 133.244746 222.73181 
L 134.588399 219.226667 
L 135.931502 218.058286 
L 138.620341 218.058286 
L 139.964184 223.90019 
L 141.308167 223.90019 
L 142.65398 229.742095 
L 143.997463 227.405333 
L 145.342076 227.405333 
L 146.685733 232.078857 
L 148.029324 233.247238 
L 149.373979 236.752381 
L 150.718194 236.752381 
L 152.064113 234.415619 
L 153.406741 234.415619 
L 154.75067 230.910476 
L 157.437232 216.889905 
L 158.780314 216.889905 
L 160.123949 212.216381 
L 161.468421 208.711238 
L 162.813922 208.711238 
L 164.157283 197.027429 
L 165.506591 192.353905 
L 166.855207 186.512 
L 168.198418 186.512 
L 169.542844 187.680381 
L 170.886276 187.680381 
L 172.230606 181.838476 
L 173.574535 164.312762 
L 174.917576 164.312762 
L 176.261497 150.29219 
L 177.606056 139.776762 
L 178.950773 116.409143 
L 180.294226 116.409143 
L 181.637435 89.536381 
L 182.98328 89.536381 
L 184.326529 67.337143 
L 185.669797 53.316571 
L 187.012625 47.474667 
L 188.355786 47.474667 
L 189.699312 54.484952 
L 191.042371 59.158476 
L 192.38661 59.158476 
L 193.731109 76.68419 
L 195.073807 74.347429 
L 196.419716 74.347429 
L 197.764432 79.020952 
L 199.107342 81.357714 
L 200.452618 93.041524 
L 201.795579 93.041524 
L 203.138834 100.05181 
L 204.481937 109.398857 
L 205.824401 109.398857 
L 207.168221 122.251048 
L 208.5113 128.092952 
L 209.856839 128.092952 
L 211.199316 129.261333 
L 212.542711 132.766476 
L 213.885999 139.776762 
L 215.228219 139.776762 
L 216.570172 260.12 
L 291.995224 260.12 
L 293.317001 258.951619 
L 294.664203 243.762667 
L 296.01077 243.762667 
L 297.357028 240.257524 
L 298.700911 235.584 
L 301.393061 235.584 
L 302.73685 232.078857 
L 304.080427 232.078857 
L 305.424713 227.405333 
L 306.769025 223.90019 
L 308.111722 223.90019 
L 309.45718 222.73181 
L 312.143667 222.73181 
L 313.487383 225.068571 
L 314.833837 218.058286 
L 316.179966 219.226667 
L 317.522757 219.226667 
L 318.866918 216.889905 
L 320.211231 218.058286 
L 321.555727 218.058286 
L 322.898925 221.563429 
L 324.241787 219.226667 
L 325.585963 219.226667 
L 326.93111 214.553143 
L 328.274167 218.058286 
L 329.616837 218.058286 
L 330.959613 213.384762 
L 332.305533 212.216381 
L 333.651243 208.711238 
L 334.995867 208.711238 
L 337.682179 201.700952 
L 339.02769 201.700952 
L 340.373228 204.037714 
L 343.069113 204.037714 
L 344.411733 200.532571 
L 347.100888 200.532571 
L 348.446593 197.027429 
L 349.790456 187.680381 
L 351.133875 187.680381 
L 352.476717 184.175238 
L 353.820569 178.333333 
L 355.164303 178.333333 
L 356.51021 171.323048 
L 357.854166 156.134095 
L 359.19844 128.092952 
L 360.545876 128.092952 
L 361.894922 116.409143 
L 364.581794 116.409143 
L 365.92947 98.883429 
L 367.273445 98.883429 
L 368.616673 79.020952 
L 369.959733 67.337143 
L 371.303005 49.811429 
L 372.646349 49.811429 
L 373.991404 38.127619 
L 378.021071 38.127619 
L 379.367356 26.44381 
L 380.713464 26.44381 
L 382.056365 48.643048 
L 383.400274 60.326857 
L 384.743726 74.347429 
L 386.090048 74.347429 
L 388.77622 110.567238 
L 390.122904 110.567238 
L 391.466008 125.75619 
L 392.809522 137.44 
L 394.152454 151.460571 
L 395.499347 151.460571 
L 396.842812 161.976 
L 398.187085 161.976 
L 399.534204 166.649524 
L 400.877053 174.82819 
L 402.221268 175.996571 
L 404.909155 175.996571 
L 406.251687 260.12 
L 480.332043 260.12 
L 481.675085 255.446476 
L 484.362842 241.425905 
L 485.708525 241.425905 
L 487.052281 240.257524 
L 489.743731 240.257524 
L 491.08714 239.089143 
L 492.430656 239.089143 
L 493.776303 232.078857 
L 495.1215 232.078857 
L 496.465378 228.573714 
L 497.810945 228.573714 
L 499.155338 226.236952 
L 500.500508 225.068571 
L 505.878752 225.068571 
L 507.228382 226.236952 
L 509.91477 226.236952 
L 511.258111 223.90019 
L 512.603259 216.889905 
L 513.946455 219.226667 
L 515.292549 219.226667 
L 516.6383 221.563429 
L 517.981481 221.563429 
L 520.668765 214.553143 
L 522.014764 212.216381 
L 523.360468 212.216381 
L 524.703539 208.711238 
L 526.04883 206.374476 
L 527.394664 206.374476 
L 528.738363 209.879619 
L 530.083563 207.542857 
L 531.428708 206.374476 
L 532.774951 206.374476 
L 534.121598 205.206095 
L 535.465425 205.206095 
L 536.809481 198.19581 
L 538.154549 190.017143 
L 539.501671 190.017143 
L 540.847728 184.175238 
L 542.193064 171.323048 
L 543.536153 170.154667 
L 544.883977 170.154667 
L 546.230066 159.639238 
L 547.576155 159.639238 
L 548.920663 156.134095 
L 550.266309 153.797333 
L 551.612581 129.261333 
L 552.968119 129.261333 
L 554.312241 123.419429 
L 555.656085 115.240762 
L 557.001282 115.240762 
L 558.345566 98.883429 
L 559.689191 96.546667 
L 561.033427 96.546667 
L 562.378118 108.230476 
L 563.726461 101.22019 
L 565.06911 101.22019 
L 566.412027 96.546667 
L 567.758339 89.536381 
L 569.107704 95.378286 
L 570.454269 95.378286 
L 571.799781 94.209905 
L 573.146351 119.914286 
L 574.49184 119.914286 
L 575.834661 125.75619 
L 577.180317 144.450286 
L 578.526087 146.787048 
L 579.871511 146.787048 
L 581.217081 156.134095 
L 582.55971 156.134095 
L 583.905644 165.481143 
L 585.2519 171.323048 
L 586.594951 173.65981 
L 587.941387 173.65981 
L 589.287234 180.670095 
L 590.629682 181.838476 
L 593.32162 181.838476 
L 594.667632 260.12 
L 670.101598 260.12 
L 671.44444 256.614857 
L 672.786969 248.43619 
L 674.130088 248.43619 
L 675.475879 244.931048 
L 676.819489 242.594286 
L 678.163125 242.594286 
L 680.852926 235.584 
L 682.197776 230.910476 
L 683.54408 230.910476 
L 684.887342 229.742095 
L 686.231336 229.742095 
L 687.574507 226.236952 
L 688.920829 223.90019 
L 690.264943 223.90019 
L 692.953448 221.563429 
L 694.297372 225.068571 
L 695.642559 225.068571 
L 696.986319 222.73181 
L 698.33095 219.226667 
L 699.675216 219.226667 
L 701.019565 211.048 
L 702.363684 211.048 
L 703.707469 212.216381 
L 707.741489 212.216381 
L 709.086861 205.206095 
L 711.774977 205.206095 
L 713.120145 197.027429 
L 714.465306 194.690667 
L 715.81089 199.36419 
L 717.156319 199.36419 
L 718.507853 195.859048 
L 719.851859 195.859048 
L 721.195288 191.185524 
L 722.539755 184.175238 
L 723.883837 175.996571 
L 725.229156 175.996571 
L 726.573558 167.817905 
L 727.919694 161.976 
L 729.265027 161.976 
L 730.611212 157.302476 
L 731.957277 143.281905 
L 733.304699 143.281905 
L 734.650777 138.608381 
L 735.996206 128.092952 
L 737.341786 114.072381 
L 738.686067 114.072381 
L 740.029667 98.883429 
L 741.373008 104.725333 
L 742.716911 104.725333 
L 744.061649 86.031238 
L 745.405283 86.031238 
L 746.754953 70.842286 
L 748.09939 59.158476 
L 749.444132 46.306286 
L 750.790455 46.306286 
L 752.137058 28.780571 
L 753.482526 32.285714 
L 754.826199 32.285714 
L 756.17097 38.127619 
L 757.513547 31.117333 
L 758.856744 31.117333 
L 760.199777 41.632762 
L 761.544001 54.484952 
L 762.88762 62.663619 
L 764.231103 62.663619 
L 765.573785 76.68419 
L 766.922458 96.546667 
L 768.265298 96.546667 
L 769.610741 105.893714 
L 770.956165 121.082667 
L 772.299416 121.082667 
L 773.642911 126.924571 
L 774.988223 144.450286 
L 776.33362 144.450286 
L 777.676554 152.628952 
L 779.020003 158.470857 
L 781.709349 158.470857 
L 783.052562 260.12 
L 855.818756 260.12 
L 857.140458 256.614857 
L 858.484312 256.614857 
L 859.827987 254.278095 
L 861.171035 249.604571 
L 862.514468 247.26781 
L 863.860565 247.26781 
L 865.205195 242.594286 
L 866.549188 233.247238 
L 867.893888 233.247238 
L 869.237111 227.405333 
L 870.579765 227.405333 
L 871.922714 223.90019 
L 873.268942 223.90019 
L 874.611911 216.889905 
L 875.955385 216.889905 
L 877.299027 213.384762 
L 878.642053 215.721524 
L 879.985678 215.721524 
L 881.329274 216.889905 
L 882.672897 220.395048 
L 885.365867 220.395048 
L 886.708964 221.563429 
L 888.052301 221.563429 
L 889.395726 219.226667 
L 890.739404 225.068571 
L 893.42494 225.068571 
L 894.767693 220.395048 
L 896.112081 222.73181 
L 897.45746 222.73181 
L 898.801799 220.395048 
L 900.147551 220.395048 
L 901.491544 218.058286 
L 902.834604 206.374476 
L 904.177839 202.869333 
L 905.522545 202.869333 
L 906.865076 194.690667 
L 908.208887 187.680381 
L 909.551645 187.680381 
L 910.897837 181.838476 
L 912.246313 171.323048 
L 913.591207 164.312762 
L 914.938487 164.312762 
L 916.281291 158.470857 
L 917.624401 158.470857 
L 918.97168 153.797333 
L 920.315611 147.955429 
L 921.660229 145.618667 
L 923.007125 145.618667 
L 924.351518 137.44 
L 925.695422 150.29219 
L 927.038763 150.29219 
L 928.388611 161.976 
L 929.732082 160.807619 
L 931.074896 160.807619 
L 932.418176 150.29219 
L 933.761712 144.450286 
L 935.107053 144.450286 
L 936.451101 135.103238 
L 937.794695 126.924571 
L 939.14032 126.924571 
L 940.483835 125.75619 
L 941.827994 128.092952 
L 943.175618 125.75619 
L 944.53156 125.75619 
L 945.879271 130.429714 
L 947.227761 131.598095 
L 948.576925 131.598095 
L 949.935868 143.281905 
L 952.634355 143.281905 
L 953.983549 151.460571 
L 955.327937 158.470857 
L 956.677941 160.807619 
L 958.022843 160.807619 
L 959.369304 166.649524 
L 960.713446 166.649524 
L 962.059515 179.501714 
L 963.403805 185.343619 
L 964.747815 187.680381 
L 966.090755 187.680381 
L 967.436097 193.522286 
L 970.124057 193.522286 
L 971.479659 260.12 
L 1044.232951 260.12 
L 1045.554192 253.109714 
L 1046.897919 251.941333 
L 1048.242752 251.941333 
L 1049.587713 241.425905 
L 1050.930128 235.584 
L 1052.272716 235.584 
L 1053.615714 233.247238 
L 1054.95807 233.247238 
L 1056.300466 220.395048 
L 1057.645079 209.879619 
L 1058.987552 207.542857 
L 1060.330419 207.542857 
L 1063.015747 193.522286 
L 1064.357849 193.522286 
L 1067.046079 186.512 
L 1068.38863 187.680381 
L 1070.095258 187.680381 
L 1071.438962 195.859048 
L 1072.785188 199.36419 
L 1074.127731 199.36419 
L 1075.472944 200.532571 
L 1076.820627 200.532571 
L 1078.163656 187.680381 
L 1079.506258 187.680381 
L 1080.848894 180.670095 
L 1082.192186 180.670095 
L 1083.535926 175.996571 
L 1084.878168 177.164952 
L 1086.222092 177.164952 
L 1087.567283 187.680381 
L 1088.909872 186.512 
L 1090.252812 180.670095 
L 1091.595499 180.670095 
L 1092.938551 181.838476 
L 1094.280925 173.65981 
L 1095.623572 173.65981 
L 1096.967201 185.343619 
L 1098.311683 198.19581 
L 1099.654229 198.19581 
L 1102.342642 205.206095 
L 1103.687142 205.206095 
L 1105.032043 204.037714 
L 1106.376973 205.206095 
L 1107.722501 201.700952 
L 1109.068343 201.700952 
L 1110.413668 202.869333 
L 1111.759052 211.048 
L 1113.104225 211.048 
L 1114.448102 214.553143 
L 1115.79205 215.721524 
L 1117.137505 215.721524 
L 1119.828561 208.711238 
L 1121.174502 208.711238 
L 1122.519932 204.037714 
L 1123.865635 205.206095 
L 1125.211122 205.206095 
L 1126.557651 227.405333 
L 1127.903036 216.889905 
L 1129.247523 214.553143 
L 1130.590801 214.553143 
L 1131.93465 216.889905 
L 1133.28 216.889905 
L 1133.28 216.889905 
" style="fill:none;stroke:#1f77b4;stroke-linecap:square;stroke-width:1.5;"/>
   </g>
   <g id="patch_3">
    <path d="M 33.64 260.12 
L 33.64 14.76 
" style="fill:none;stroke:#000000;stroke-linecap:square;stroke-linejoin:miter;stroke-width:0.8;"/>
   </g>
   <g id="patch_4">
    <path d="M 1133.28 260.12 
L 1133.28 14.76 
" style="fill:none;stroke:#000000;stroke-linecap:square;stroke-linejoin:miter;stroke-width:0.8;"/>
   </g>
   <g id="patch_5">
    <path d="M 33.64 260.12 
L 1133.28 260.12 
" style="fill:none;stroke:#000000;stroke-linecap:square;stroke-linejoin:miter;stroke-width:0.8;"/>
   </g>
   <g id="patch_6">
    <path d="M 33.64 14.76 
L 1133.28 14.76 
" style="fill:none;stroke:#000000;stroke-linecap:square;stroke-linejoin:miter;stroke-width:0.8;"/>
   </g>
  </g>
 </g>
 <defs>
  <clipPath id="pc8442529c5">
   <rect height="245.36" width="1099.64" x="33.64" y="14.76"/>
  </clipPath>
 </defs>
</svg>
