<?xml version="1.0" encoding="utf-8" standalone="no"?>
<!DOCTYPE svg PUBLIC "-//W3C//DTD SVG 1.1//EN"
  "http://www.w3.org/Graphics/SVG/1.1/DTD/svg11.dtd">
<!-- Created with matplotlib (https://matplotlib.org/) -->
<svg height="288pt" version="1.1" viewBox="0 0 1152 288" width="1152pt" xmlns="http://www.w3.org/2000/svg" xmlns:xlink="http://www.w3.org/1999/xlink">
 <defs>
  <style type="text/css">
*{stroke-linecap:butt;stroke-linejoin:round;}
  </style>
 </defs>
 <g id="figure_1">
  <g id="patch_1">
   <path d="M 0 288 
L 1152 288 
L 1152 0 
L 0 0 
z
" style="fill:#ffffff;"/>
  </g>
  <g id="axes_1">
   <g id="patch_2">
    <path d="M 33.64 260.12 
L 1133.28 260.12 
L 1133.28 14.76 
L 33.64 14.76 
z
" style="fill:#ffffff;"/>
   </g>
   <g id="matplotlib.axis_1">
    <g id="xtick_1">
     <g id="line2d_1">
      <defs>
       <path d="M 0 0 
L 0 3.5 
" id="mc5d5118bf1" style="stroke:#000000;stroke-width:0.8;"/>
      </defs>
      <g>
       <use style="stroke:#000000;stroke-width:0.8;" x="225.296187" xlink:href="#mc5d5118bf1" y="260.12"/>
      </g>
     </g>
     <g id="text_1">
      <!-- Tue 00:00 -->
      <defs>
       <path d="M -0.296875 72.90625 
L 61.375 72.90625 
L 61.375 64.59375 
L 35.5 64.59375 
L 35.5 0 
L 25.59375 0 
L 25.59375 64.59375 
L -0.296875 64.59375 
z
" id="DejaVuSans-84"/>
       <path d="M 8.5 21.578125 
L 8.5 54.6875 
L 17.484375 54.6875 
L 17.484375 21.921875 
Q 17.484375 14.15625 20.5 10.265625 
Q 23.53125 6.390625 29.59375 6.390625 
Q 36.859375 6.390625 41.078125 11.03125 
Q 45.3125 15.671875 45.3125 23.6875 
L 45.3125 54.6875 
L 54.296875 54.6875 
L 54.296875 0 
L 45.3125 0 
L 45.3125 8.40625 
Q 42.046875 3.421875 37.71875 1 
Q 33.40625 -1.421875 27.6875 -1.421875 
Q 18.265625 -1.421875 13.375 4.4375 
Q 8.5 10.296875 8.5 21.578125 
z
M 31.109375 56 
z
" id="DejaVuSans-117"/>
       <path d="M 56.203125 29.59375 
L 56.203125 25.203125 
L 14.890625 25.203125 
Q 15.484375 15.921875 20.484375 11.0625 
Q 25.484375 6.203125 34.421875 6.203125 
Q 39.59375 6.203125 44.453125 7.46875 
Q 49.3125 8.734375 54.109375 11.28125 
L 54.109375 2.78125 
Q 49.265625 0.734375 44.1875 -0.34375 
Q 39.109375 -1.421875 33.890625 -1.421875 
Q 20.796875 -1.421875 13.15625 6.1875 
Q 5.515625 13.8125 5.515625 26.8125 
Q 5.515625 40.234375 12.765625 48.109375 
Q 20.015625 56 32.328125 56 
Q 43.359375 56 49.78125 48.890625 
Q 56.203125 41.796875 56.203125 29.59375 
z
M 47.21875 32.234375 
Q 47.125 39.59375 43.09375 43.984375 
Q 39.0625 48.390625 32.421875 48.390625 
Q 24.90625 48.390625 20.390625 44.140625 
Q 15.875 39.890625 15.1875 32.171875 
z
" id="DejaVuSans-101"/>
       <path id="DejaVuSans-32"/>
       <path d="M 31.78125 66.40625 
Q 24.171875 66.40625 20.328125 58.90625 
Q 16.5 51.421875 16.5 36.375 
Q 16.5 21.390625 20.328125 13.890625 
Q 24.171875 6.390625 31.78125 6.390625 
Q 39.453125 6.390625 43.28125 13.890625 
Q 47.125 21.390625 47.125 36.375 
Q 47.125 51.421875 43.28125 58.90625 
Q 39.453125 66.40625 31.78125 66.40625 
z
M 31.78125 74.21875 
Q 44.046875 74.21875 50.515625 64.515625 
Q 56.984375 54.828125 56.984375 36.375 
Q 56.984375 17.96875 50.515625 8.265625 
Q 44.046875 -1.421875 31.78125 -1.421875 
Q 19.53125 -1.421875 13.0625 8.265625 
Q 6.59375 17.96875 6.59375 36.375 
Q 6.59375 54.828125 13.0625 64.515625 
Q 19.53125 74.21875 31.78125 74.21875 
z
" id="DejaVuSans-48"/>
       <path d="M 11.71875 12.40625 
L 22.015625 12.40625 
L 22.015625 0 
L 11.71875 0 
z
M 11.71875 51.703125 
L 22.015625 51.703125 
L 22.015625 39.3125 
L 11.71875 39.3125 
z
" id="DejaVuSans-58"/>
      </defs>
      <g transform="translate(200.01025 274.718437)scale(0.1 -0.1)">
       <use xlink:href="#DejaVuSans-84"/>
       <use x="60.849609" xlink:href="#DejaVuSans-117"/>
       <use x="124.228516" xlink:href="#DejaVuSans-101"/>
       <use x="185.751953" xlink:href="#DejaVuSans-32"/>
       <use x="217.539062" xlink:href="#DejaVuSans-48"/>
       <use x="281.162109" xlink:href="#DejaVuSans-48"/>
       <use x="344.785156" xlink:href="#DejaVuSans-58"/>
       <use x="378.476562" xlink:href="#DejaVuSans-48"/>
       <use x="442.099609" xlink:href="#DejaVuSans-48"/>
      </g>
     </g>
    </g>
    <g id="xtick_2">
     <g id="line2d_2">
      <g>
       <use style="stroke:#000000;stroke-width:0.8;" x="417.146845" xlink:href="#mc5d5118bf1" y="260.12"/>
      </g>
     </g>
     <g id="text_2">
      <!-- Wed 00:00 -->
      <defs>
       <path d="M 3.328125 72.90625 
L 13.28125 72.90625 
L 28.609375 11.28125 
L 43.890625 72.90625 
L 54.984375 72.90625 
L 70.3125 11.28125 
L 85.59375 72.90625 
L 95.609375 72.90625 
L 77.296875 0 
L 64.890625 0 
L 49.515625 63.28125 
L 33.984375 0 
L 21.578125 0 
z
" id="DejaVuSans-87"/>
       <path d="M 45.40625 46.390625 
L 45.40625 75.984375 
L 54.390625 75.984375 
L 54.390625 0 
L 45.40625 0 
L 45.40625 8.203125 
Q 42.578125 3.328125 38.25 0.953125 
Q 33.9375 -1.421875 27.875 -1.421875 
Q 17.96875 -1.421875 11.734375 6.484375 
Q 5.515625 14.40625 5.515625 27.296875 
Q 5.515625 40.1875 11.734375 48.09375 
Q 17.96875 56 27.875 56 
Q 33.9375 56 38.25 53.625 
Q 42.578125 51.265625 45.40625 46.390625 
z
M 14.796875 27.296875 
Q 14.796875 17.390625 18.875 11.75 
Q 22.953125 6.109375 30.078125 6.109375 
Q 37.203125 6.109375 41.296875 11.75 
Q 45.40625 17.390625 45.40625 27.296875 
Q 45.40625 37.203125 41.296875 42.84375 
Q 37.203125 48.484375 30.078125 48.484375 
Q 22.953125 48.484375 18.875 42.84375 
Q 14.796875 37.203125 14.796875 27.296875 
z
" id="DejaVuSans-100"/>
      </defs>
      <g transform="translate(389.957783 274.718437)scale(0.1 -0.1)">
       <use xlink:href="#DejaVuSans-87"/>
       <use x="98.798828" xlink:href="#DejaVuSans-101"/>
       <use x="160.322266" xlink:href="#DejaVuSans-100"/>
       <use x="223.798828" xlink:href="#DejaVuSans-32"/>
       <use x="255.585938" xlink:href="#DejaVuSans-48"/>
       <use x="319.208984" xlink:href="#DejaVuSans-48"/>
       <use x="382.832031" xlink:href="#DejaVuSans-58"/>
       <use x="416.523438" xlink:href="#DejaVuSans-48"/>
       <use x="480.146484" xlink:href="#DejaVuSans-48"/>
      </g>
     </g>
    </g>
    <g id="xtick_3">
     <g id="line2d_3">
      <g>
       <use style="stroke:#000000;stroke-width:0.8;" x="608.997503" xlink:href="#mc5d5118bf1" y="260.12"/>
      </g>
     </g>
     <g id="text_3">
      <!-- Thu 00:00 -->
      <defs>
       <path d="M 54.890625 33.015625 
L 54.890625 0 
L 45.90625 0 
L 45.90625 32.71875 
Q 45.90625 40.484375 42.875 44.328125 
Q 39.84375 48.1875 33.796875 48.1875 
Q 26.515625 48.1875 22.3125 43.546875 
Q 18.109375 38.921875 18.109375 30.90625 
L 18.109375 0 
L 9.078125 0 
L 9.078125 75.984375 
L 18.109375 75.984375 
L 18.109375 46.1875 
Q 21.34375 51.125 25.703125 53.5625 
Q 30.078125 56 35.796875 56 
Q 45.21875 56 50.046875 50.171875 
Q 54.890625 44.34375 54.890625 33.015625 
z
" id="DejaVuSans-104"/>
      </defs>
      <g transform="translate(583.607659 274.718437)scale(0.1 -0.1)">
       <use xlink:href="#DejaVuSans-84"/>
       <use x="61.083984" xlink:href="#DejaVuSans-104"/>
       <use x="124.462891" xlink:href="#DejaVuSans-117"/>
       <use x="187.841797" xlink:href="#DejaVuSans-32"/>
       <use x="219.628906" xlink:href="#DejaVuSans-48"/>
       <use x="283.251953" xlink:href="#DejaVuSans-48"/>
       <use x="346.875" xlink:href="#DejaVuSans-58"/>
       <use x="380.566406" xlink:href="#DejaVuSans-48"/>
       <use x="444.189453" xlink:href="#DejaVuSans-48"/>
      </g>
     </g>
    </g>
    <g id="xtick_4">
     <g id="line2d_4">
      <g>
       <use style="stroke:#000000;stroke-width:0.8;" x="800.84816" xlink:href="#mc5d5118bf1" y="260.12"/>
      </g>
     </g>
     <g id="text_4">
      <!-- Fri 00:00 -->
      <defs>
       <path d="M 9.8125 72.90625 
L 51.703125 72.90625 
L 51.703125 64.59375 
L 19.671875 64.59375 
L 19.671875 43.109375 
L 48.578125 43.109375 
L 48.578125 34.8125 
L 19.671875 34.8125 
L 19.671875 0 
L 9.8125 0 
z
" id="DejaVuSans-70"/>
       <path d="M 41.109375 46.296875 
Q 39.59375 47.171875 37.8125 47.578125 
Q 36.03125 48 33.890625 48 
Q 26.265625 48 22.1875 43.046875 
Q 18.109375 38.09375 18.109375 28.8125 
L 18.109375 0 
L 9.078125 0 
L 9.078125 54.6875 
L 18.109375 54.6875 
L 18.109375 46.1875 
Q 20.953125 51.171875 25.484375 53.578125 
Q 30.03125 56 36.53125 56 
Q 37.453125 56 38.578125 55.875 
Q 39.703125 55.765625 41.0625 55.515625 
z
" id="DejaVuSans-114"/>
       <path d="M 9.421875 54.6875 
L 18.40625 54.6875 
L 18.40625 0 
L 9.421875 0 
z
M 9.421875 75.984375 
L 18.40625 75.984375 
L 18.40625 64.59375 
L 9.421875 64.59375 
z
" id="DejaVuSans-105"/>
      </defs>
      <g transform="translate(778.534879 274.718437)scale(0.1 -0.1)">
       <use xlink:href="#DejaVuSans-70"/>
       <use x="57.410156" xlink:href="#DejaVuSans-114"/>
       <use x="98.523438" xlink:href="#DejaVuSans-105"/>
       <use x="126.306641" xlink:href="#DejaVuSans-32"/>
       <use x="158.09375" xlink:href="#DejaVuSans-48"/>
       <use x="221.716797" xlink:href="#DejaVuSans-48"/>
       <use x="285.339844" xlink:href="#DejaVuSans-58"/>
       <use x="319.03125" xlink:href="#DejaVuSans-48"/>
       <use x="382.654297" xlink:href="#DejaVuSans-48"/>
      </g>
     </g>
    </g>
    <g id="xtick_5">
     <g id="line2d_5">
      <g>
       <use style="stroke:#000000;stroke-width:0.8;" x="992.698818" xlink:href="#mc5d5118bf1" y="260.12"/>
      </g>
     </g>
     <g id="text_5">
      <!-- Sat 00:00 -->
      <defs>
       <path d="M 53.515625 70.515625 
L 53.515625 60.890625 
Q 47.90625 63.578125 42.921875 64.890625 
Q 37.9375 66.21875 33.296875 66.21875 
Q 25.25 66.21875 20.875 63.09375 
Q 16.5 59.96875 16.5 54.203125 
Q 16.5 49.359375 19.40625 46.890625 
Q 22.3125 44.4375 30.421875 42.921875 
L 36.375 41.703125 
Q 47.40625 39.59375 52.65625 34.296875 
Q 57.90625 29 57.90625 20.125 
Q 57.90625 9.515625 50.796875 4.046875 
Q 43.703125 -1.421875 29.984375 -1.421875 
Q 24.8125 -1.421875 18.96875 -0.25 
Q 13.140625 0.921875 6.890625 3.21875 
L 6.890625 13.375 
Q 12.890625 10.015625 18.65625 8.296875 
Q 24.421875 6.59375 29.984375 6.59375 
Q 38.421875 6.59375 43.015625 9.90625 
Q 47.609375 13.234375 47.609375 19.390625 
Q 47.609375 24.75 44.3125 27.78125 
Q 41.015625 30.8125 33.5 32.328125 
L 27.484375 33.5 
Q 16.453125 35.6875 11.515625 40.375 
Q 6.59375 45.0625 6.59375 53.421875 
Q 6.59375 63.09375 13.40625 68.65625 
Q 20.21875 74.21875 32.171875 74.21875 
Q 37.3125 74.21875 42.625 73.28125 
Q 47.953125 72.359375 53.515625 70.515625 
z
" id="DejaVuSans-83"/>
       <path d="M 34.28125 27.484375 
Q 23.390625 27.484375 19.1875 25 
Q 14.984375 22.515625 14.984375 16.5 
Q 14.984375 11.71875 18.140625 8.90625 
Q 21.296875 6.109375 26.703125 6.109375 
Q 34.1875 6.109375 38.703125 11.40625 
Q 43.21875 16.703125 43.21875 25.484375 
L 43.21875 27.484375 
z
M 52.203125 31.203125 
L 52.203125 0 
L 43.21875 0 
L 43.21875 8.296875 
Q 40.140625 3.328125 35.546875 0.953125 
Q 30.953125 -1.421875 24.3125 -1.421875 
Q 15.921875 -1.421875 10.953125 3.296875 
Q 6 8.015625 6 15.921875 
Q 6 25.140625 12.171875 29.828125 
Q 18.359375 34.515625 30.609375 34.515625 
L 43.21875 34.515625 
L 43.21875 35.40625 
Q 43.21875 41.609375 39.140625 45 
Q 35.0625 48.390625 27.6875 48.390625 
Q 23 48.390625 18.546875 47.265625 
Q 14.109375 46.140625 10.015625 43.890625 
L 10.015625 52.203125 
Q 14.9375 54.109375 19.578125 55.046875 
Q 24.21875 56 28.609375 56 
Q 40.484375 56 46.34375 49.84375 
Q 52.203125 43.703125 52.203125 31.203125 
z
" id="DejaVuSans-97"/>
       <path d="M 18.3125 70.21875 
L 18.3125 54.6875 
L 36.8125 54.6875 
L 36.8125 47.703125 
L 18.3125 47.703125 
L 18.3125 18.015625 
Q 18.3125 11.328125 20.140625 9.421875 
Q 21.96875 7.515625 27.59375 7.515625 
L 36.8125 7.515625 
L 36.8125 0 
L 27.59375 0 
Q 17.1875 0 13.234375 3.875 
Q 9.28125 7.765625 9.28125 18.015625 
L 9.28125 47.703125 
L 2.6875 47.703125 
L 2.6875 54.6875 
L 9.28125 54.6875 
L 9.28125 70.21875 
z
" id="DejaVuSans-116"/>
      </defs>
      <g transform="translate(968.501943 274.718437)scale(0.1 -0.1)">
       <use xlink:href="#DejaVuSans-83"/>
       <use x="63.476562" xlink:href="#DejaVuSans-97"/>
       <use x="124.755859" xlink:href="#DejaVuSans-116"/>
       <use x="163.964844" xlink:href="#DejaVuSans-32"/>
       <use x="195.751953" xlink:href="#DejaVuSans-48"/>
       <use x="259.375" xlink:href="#DejaVuSans-48"/>
       <use x="322.998047" xlink:href="#DejaVuSans-58"/>
       <use x="356.689453" xlink:href="#DejaVuSans-48"/>
       <use x="420.3125" xlink:href="#DejaVuSans-48"/>
      </g>
     </g>
    </g>
   </g>
   <g id="matplotlib.axis_2">
    <g id="ytick_1">
     <g id="line2d_6">
      <defs>
       <path d="M 0 0 
L -3.5 0 
" id="m309fc1f2bd" style="stroke:#000000;stroke-width:0.8;"/>
      </defs>
      <g>
       <use style="stroke:#000000;stroke-width:0.8;" x="33.64" xlink:href="#m309fc1f2bd" y="260.12"/>
      </g>
     </g>
     <g id="text_6">
      <!-- 0 -->
      <g transform="translate(20.2775 263.919219)scale(0.1 -0.1)">
       <use xlink:href="#DejaVuSans-48"/>
      </g>
     </g>
    </g>
    <g id="ytick_2">
     <g id="line2d_7">
      <g>
       <use style="stroke:#000000;stroke-width:0.8;" x="33.64" xlink:href="#m309fc1f2bd" y="230.910476"/>
      </g>
     </g>
     <g id="text_7">
      <!-- 25 -->
      <defs>
       <path d="M 19.1875 8.296875 
L 53.609375 8.296875 
L 53.609375 0 
L 7.328125 0 
L 7.328125 8.296875 
Q 12.9375 14.109375 22.625 23.890625 
Q 32.328125 33.6875 34.8125 36.53125 
Q 39.546875 41.84375 41.421875 45.53125 
Q 43.3125 49.21875 43.3125 52.78125 
Q 43.3125 58.59375 39.234375 62.25 
Q 35.15625 65.921875 28.609375 65.921875 
Q 23.96875 65.921875 18.8125 64.3125 
Q 13.671875 62.703125 7.8125 59.421875 
L 7.8125 69.390625 
Q 13.765625 71.78125 18.9375 73 
Q 24.125 74.21875 28.421875 74.21875 
Q 39.75 74.21875 46.484375 68.546875 
Q 53.21875 62.890625 53.21875 53.421875 
Q 53.21875 48.921875 51.53125 44.890625 
Q 49.859375 40.875 45.40625 35.40625 
Q 44.1875 33.984375 37.640625 27.21875 
Q 31.109375 20.453125 19.1875 8.296875 
z
" id="DejaVuSans-50"/>
       <path d="M 10.796875 72.90625 
L 49.515625 72.90625 
L 49.515625 64.59375 
L 19.828125 64.59375 
L 19.828125 46.734375 
Q 21.96875 47.46875 24.109375 47.828125 
Q 26.265625 48.1875 28.421875 48.1875 
Q 40.625 48.1875 47.75 41.5 
Q 54.890625 34.8125 54.890625 23.390625 
Q 54.890625 11.625 47.5625 5.09375 
Q 40.234375 -1.421875 26.90625 -1.421875 
Q 22.3125 -1.421875 17.546875 -0.640625 
Q 12.796875 0.140625 7.71875 1.703125 
L 7.71875 11.625 
Q 12.109375 9.234375 16.796875 8.0625 
Q 21.484375 6.890625 26.703125 6.890625 
Q 35.15625 6.890625 40.078125 11.328125 
Q 45.015625 15.765625 45.015625 23.390625 
Q 45.015625 31 40.078125 35.4375 
Q 35.15625 39.890625 26.703125 39.890625 
Q 22.75 39.890625 18.8125 39.015625 
Q 14.890625 38.140625 10.796875 36.28125 
z
" id="DejaVuSans-53"/>
      </defs>
      <g transform="translate(13.915 234.709695)scale(0.1 -0.1)">
       <use xlink:href="#DejaVuSans-50"/>
       <use x="63.623047" xlink:href="#DejaVuSans-53"/>
      </g>
     </g>
    </g>
    <g id="ytick_3">
     <g id="line2d_8">
      <g>
       <use style="stroke:#000000;stroke-width:0.8;" x="33.64" xlink:href="#m309fc1f2bd" y="201.700952"/>
      </g>
     </g>
     <g id="text_8">
      <!-- 50 -->
      <g transform="translate(13.915 205.500171)scale(0.1 -0.1)">
       <use xlink:href="#DejaVuSans-53"/>
       <use x="63.623047" xlink:href="#DejaVuSans-48"/>
      </g>
     </g>
    </g>
    <g id="ytick_4">
     <g id="line2d_9">
      <g>
       <use style="stroke:#000000;stroke-width:0.8;" x="33.64" xlink:href="#m309fc1f2bd" y="172.491429"/>
      </g>
     </g>
     <g id="text_9">
      <!-- 75 -->
      <defs>
       <path d="M 8.203125 72.90625 
L 55.078125 72.90625 
L 55.078125 68.703125 
L 28.609375 0 
L 18.3125 0 
L 43.21875 64.59375 
L 8.203125 64.59375 
z
" id="DejaVuSans-55"/>
      </defs>
      <g transform="translate(13.915 176.290647)scale(0.1 -0.1)">
       <use xlink:href="#DejaVuSans-55"/>
       <use x="63.623047" xlink:href="#DejaVuSans-53"/>
      </g>
     </g>
    </g>
    <g id="ytick_5">
     <g id="line2d_10">
      <g>
       <use style="stroke:#000000;stroke-width:0.8;" x="33.64" xlink:href="#m309fc1f2bd" y="143.281905"/>
      </g>
     </g>
     <g id="text_10">
      <!-- 100 -->
      <defs>
       <path d="M 12.40625 8.296875 
L 28.515625 8.296875 
L 28.515625 63.921875 
L 10.984375 60.40625 
L 10.984375 69.390625 
L 28.421875 72.90625 
L 38.28125 72.90625 
L 38.28125 8.296875 
L 54.390625 8.296875 
L 54.390625 0 
L 12.40625 0 
z
" id="DejaVuSans-49"/>
      </defs>
      <g transform="translate(7.5525 147.081124)scale(0.1 -0.1)">
       <use xlink:href="#DejaVuSans-49"/>
       <use x="63.623047" xlink:href="#DejaVuSans-48"/>
       <use x="127.246094" xlink:href="#DejaVuSans-48"/>
      </g>
     </g>
    </g>
    <g id="ytick_6">
     <g id="line2d_11">
      <g>
       <use style="stroke:#000000;stroke-width:0.8;" x="33.64" xlink:href="#m309fc1f2bd" y="114.072381"/>
      </g>
     </g>
     <g id="text_11">
      <!-- 125 -->
      <g transform="translate(7.5525 117.8716)scale(0.1 -0.1)">
       <use xlink:href="#DejaVuSans-49"/>
       <use x="63.623047" xlink:href="#DejaVuSans-50"/>
       <use x="127.246094" xlink:href="#DejaVuSans-53"/>
      </g>
     </g>
    </g>
    <g id="ytick_7">
     <g id="line2d_12">
      <g>
       <use style="stroke:#000000;stroke-width:0.8;" x="33.64" xlink:href="#m309fc1f2bd" y="84.862857"/>
      </g>
     </g>
     <g id="text_12">
      <!-- 150 -->
      <g transform="translate(7.5525 88.662076)scale(0.1 -0.1)">
       <use xlink:href="#DejaVuSans-49"/>
       <use x="63.623047" xlink:href="#DejaVuSans-53"/>
       <use x="127.246094" xlink:href="#DejaVuSans-48"/>
      </g>
     </g>
    </g>
    <g id="ytick_8">
     <g id="line2d_13">
      <g>
       <use style="stroke:#000000;stroke-width:0.8;" x="33.64" xlink:href="#m309fc1f2bd" y="55.653333"/>
      </g>
     </g>
     <g id="text_13">
      <!-- 175 -->
      <g transform="translate(7.5525 59.452552)scale(0.1 -0.1)">
       <use xlink:href="#DejaVuSans-49"/>
       <use x="63.623047" xlink:href="#DejaVuSans-55"/>
       <use x="127.246094" xlink:href="#DejaVuSans-53"/>
      </g>
     </g>
    </g>
    <g id="ytick_9">
     <g id="line2d_14">
      <g>
       <use style="stroke:#000000;stroke-width:0.8;" x="33.64" xlink:href="#m309fc1f2bd" y="26.44381"/>
      </g>
     </g>
     <g id="text_14">
      <!-- 200 -->
      <g transform="translate(7.5525 30.243028)scale(0.1 -0.1)">
       <use xlink:href="#DejaVuSans-50"/>
       <use x="63.623047" xlink:href="#DejaVuSans-48"/>
       <use x="127.246094" xlink:href="#DejaVuSans-48"/>
      </g>
     </g>
    </g>
   </g>
   <g id="line2d_15">
    <path clip-path="url(#pb44b463f70)" d="M 33.64 260.12 
L 106.436111 260.12 
L 107.807657 257.783238 
L 109.180081 257.783238 
L 110.552592 254.278095 
L 111.924921 254.278095 
L 114.666747 249.604571 
L 116.038489 248.43619 
L 117.408864 248.43619 
L 118.779654 247.26781 
L 121.52189 247.26781 
L 122.893412 242.594286 
L 124.26439 236.752381 
L 125.63479 236.752381 
L 127.006085 229.742095 
L 128.379254 226.236952 
L 129.750104 226.236952 
L 131.121203 222.73181 
L 135.233013 222.73181 
L 136.603488 219.226667 
L 137.973401 218.058286 
L 140.715914 218.058286 
L 142.086581 223.90019 
L 143.457392 223.90019 
L 144.83007 229.742095 
L 146.200372 227.405333 
L 147.571824 227.405333 
L 148.942303 232.078857 
L 150.312715 233.247238 
L 151.684211 236.752381 
L 153.055259 236.752381 
L 154.428044 234.415619 
L 155.797473 234.415619 
L 157.168229 230.910476 
L 159.908419 216.889905 
L 161.278311 216.889905 
L 162.648768 212.216381 
L 164.020077 208.711238 
L 165.392436 208.711238 
L 166.762613 197.027429 
L 168.138855 192.353905 
L 169.514391 186.512 
L 170.884415 186.512 
L 172.255678 187.680381 
L 173.625927 187.680381 
L 174.997092 181.838476 
L 176.367848 164.312762 
L 177.737698 164.312762 
L 179.108446 150.29219 
L 180.479844 139.776762 
L 181.851404 116.409143 
L 183.221675 116.409143 
L 184.591696 89.536381 
L 185.964406 89.536381 
L 187.334468 67.337143 
L 188.70455 53.316571 
L 190.074183 47.474667 
L 191.444156 47.474667 
L 192.814501 54.484952 
L 194.184369 59.158476 
L 195.555441 59.158476 
L 196.926779 76.68419 
L 198.296279 74.347429 
L 199.669055 74.347429 
L 201.040613 79.020952 
L 202.41033 81.357714 
L 203.782459 93.041524 
L 205.152228 93.041524 
L 206.522296 100.05181 
L 207.89221 109.398857 
L 209.261472 109.398857 
L 210.632116 122.251048 
L 212.002005 128.092952 
L 213.374404 128.092952 
L 214.743679 129.261333 
L 216.11389 132.766476 
L 217.483991 139.776762 
L 218.853005 139.776762 
L 220.221746 260.12 
L 297.1524 260.12 
L 298.500561 258.951619 
L 299.874655 243.762667 
L 301.248102 243.762667 
L 302.621234 240.257524 
L 303.991942 235.584 
L 306.737832 235.584 
L 308.108445 232.078857 
L 309.478842 232.078857 
L 310.849963 227.405333 
L 312.221109 223.90019 
L 313.590609 223.90019 
L 314.962923 222.73181 
L 317.703038 222.73181 
L 319.073576 225.068571 
L 320.446907 218.058286 
L 321.819907 219.226667 
L 323.189502 219.226667 
L 324.560495 216.889905 
L 325.931643 218.058286 
L 327.302977 218.058286 
L 328.672987 221.563429 
L 330.042654 219.226667 
L 331.413662 219.226667 
L 332.785661 214.553143 
L 334.155527 218.058286 
L 335.524999 218.058286 
L 336.894579 213.384762 
L 338.267365 212.216381 
L 339.639938 208.711238 
L 341.011403 208.711238 
L 343.751338 201.700952 
L 345.123708 201.700952 
L 346.496105 204.037714 
L 349.245804 204.037714 
L 350.615225 200.532571 
L 353.358059 200.532571 
L 354.730627 197.027429 
L 356.101315 187.680381 
L 357.471551 187.680381 
L 358.841198 184.175238 
L 360.211876 178.333333 
L 361.582433 178.333333 
L 362.955206 171.323048 
L 364.325989 156.134095 
L 365.697098 128.092952 
L 367.07143 128.092952 
L 368.447406 116.409143 
L 371.187912 116.409143 
L 372.562489 98.883429 
L 373.933292 98.883429 
L 375.303333 79.020952 
L 376.673203 67.337143 
L 378.043288 49.811429 
L 379.413448 49.811429 
L 380.785352 38.127619 
L 384.895457 38.127619 
L 386.268617 26.44381 
L 387.641595 26.44381 
L 389.011302 48.643048 
L 390.382038 60.326857 
L 391.752307 74.347429 
L 393.125504 74.347429 
L 395.865296 110.567238 
L 397.238862 110.567238 
L 398.608776 125.75619 
L 399.979109 137.44 
L 401.348848 151.460571 
L 402.722627 151.460571 
L 404.09291 161.976 
L 405.464017 161.976 
L 406.838026 166.649524 
L 408.207681 174.82819 
L 409.578729 175.996571 
L 412.32027 175.996571 
L 413.689601 260.12 
L 489.248717 260.12 
L 490.618569 255.446476 
L 493.359978 241.425905 
L 494.732522 241.425905 
L 496.103102 240.257524 
L 498.848277 240.257524 
L 500.218503 239.089143 
L 501.588837 239.089143 
L 502.961345 232.078857 
L 504.333394 232.078857 
L 505.704098 228.573714 
L 507.076525 228.573714 
L 508.447755 226.236952 
L 509.819776 225.068571 
L 515.305379 225.068571 
L 516.681949 226.236952 
L 519.421961 226.236952 
L 520.792118 223.90019 
L 522.164118 216.889905 
L 523.534125 219.226667 
L 524.907089 219.226667 
L 526.279703 221.563429 
L 527.649697 221.563429 
L 530.390624 214.553143 
L 531.763491 212.216381 
L 533.136057 212.216381 
L 534.505937 208.711238 
L 535.878083 206.374476 
L 537.250781 206.374476 
L 538.621303 209.879619 
L 539.993355 207.542857 
L 541.365351 206.374476 
L 542.738467 206.374476 
L 544.111996 205.206095 
L 545.482647 205.206095 
L 546.853533 198.19581 
L 548.225451 190.017143 
L 549.599464 190.017143 
L 550.97239 184.175238 
L 552.344581 171.323048 
L 553.71448 170.154667 
L 555.089209 170.154667 
L 556.462168 159.639238 
L 557.835127 159.639238 
L 559.206474 156.134095 
L 560.57898 153.797333 
L 561.952127 129.261333 
L 563.334723 129.261333 
L 564.705676 123.419429 
L 566.076345 115.240762 
L 567.448394 115.240762 
L 568.819513 98.883429 
L 570.189958 96.546667 
L 571.561027 96.546667 
L 572.93256 108.230476 
L 574.307818 101.22019 
L 575.677268 101.22019 
L 577.046993 96.546667 
L 578.42018 89.536381 
L 579.79648 95.378286 
L 581.169924 95.378286 
L 582.542295 94.209905 
L 583.915744 119.914286 
L 585.288092 119.914286 
L 586.657718 125.75619 
L 588.030234 144.450286 
L 589.402869 146.787048 
L 590.775149 146.787048 
L 592.147579 156.134095 
L 593.517009 156.134095 
L 594.889809 165.481143 
L 596.262939 171.323048 
L 597.632799 173.65981 
L 599.006112 173.65981 
L 600.378825 180.670095 
L 601.74807 181.838476 
L 604.493743 181.838476 
L 605.866624 260.12 
L 682.806371 260.12 
L 684.176018 256.614857 
L 685.545345 248.43619 
L 686.915275 248.43619 
L 688.28793 244.931048 
L 689.65836 242.594286 
L 691.028817 242.594286 
L 693.772312 235.584 
L 695.144007 230.910476 
L 696.517185 230.910476 
L 697.887261 229.742095 
L 699.258083 229.742095 
L 700.628066 226.236952 
L 702.001262 223.90019 
L 703.372207 223.90019 
L 706.114379 221.563429 
L 707.48513 225.068571 
L 708.857168 225.068571 
L 710.227752 222.73181 
L 711.599225 219.226667 
L 712.970324 219.226667 
L 714.341508 211.048 
L 715.712458 211.048 
L 717.083067 212.216381 
L 721.197612 212.216381 
L 722.56984 205.206095 
L 725.311615 205.206095 
L 726.683634 197.027429 
L 728.055647 194.690667 
L 729.428091 199.36419 
L 730.800377 199.36419 
L 732.17889 195.859048 
L 733.549724 195.859048 
L 734.91997 191.185524 
L 736.291275 184.175238 
L 737.662187 175.996571 
L 739.034361 175.996571 
L 740.405599 167.817905 
L 741.778606 161.976 
L 743.150794 161.976 
L 744.523851 157.302476 
L 745.896785 143.281905 
L 747.271104 143.281905 
L 748.644052 138.608381 
L 750.016338 128.092952 
L 751.388777 114.072381 
L 752.759893 114.072381 
L 754.130313 98.883429 
L 755.500469 104.725333 
L 756.871198 104.725333 
L 758.24278 86.031238 
L 759.613235 86.031238 
L 760.989846 70.842286 
L 762.361121 59.158476 
L 763.732705 46.306286 
L 765.105904 46.306286 
L 766.479387 28.780571 
L 767.851712 32.285714 
L 769.222207 32.285714 
L 770.593822 38.127619 
L 771.963199 31.117333 
L 773.333208 31.117333 
L 774.70305 41.632762 
L 776.074107 54.484952 
L 777.444547 62.663619 
L 778.814848 62.663619 
L 780.184332 76.68419 
L 781.559926 96.546667 
L 782.929572 96.546667 
L 784.301872 105.893714 
L 785.674153 121.082667 
L 787.044217 121.082667 
L 788.41453 126.924571 
L 789.786697 144.450286 
L 791.15895 144.450286 
L 792.528691 152.628952 
L 793.898958 158.470857 
L 796.641987 158.470857 
L 798.012013 260.12 
L 872.230734 260.12 
L 873.578819 256.614857 
L 874.949498 256.614857 
L 876.319996 254.278095 
L 877.689853 249.604571 
L 879.060103 247.26781 
L 880.43307 247.26781 
L 881.804541 242.594286 
L 883.175362 233.247238 
L 884.546905 233.247238 
L 885.91694 227.405333 
L 887.286396 227.405333 
L 888.656152 223.90019 
L 890.029253 223.90019 
L 891.39903 216.889905 
L 892.769322 216.889905 
L 894.139785 213.384762 
L 895.50962 215.721524 
L 896.880066 215.721524 
L 898.250482 216.889905 
L 899.620926 220.395048 
L 902.367652 220.395048 
L 903.737558 221.563429 
L 905.107711 221.563429 
L 906.477953 219.226667 
L 907.848452 225.068571 
L 910.587596 225.068571 
L 911.957153 220.395048 
L 913.328377 222.73181 
L 914.700612 222.73181 
L 916.071786 220.395048 
L 917.444401 220.395048 
L 918.815222 218.058286 
L 920.185092 206.374476 
L 921.55514 202.869333 
L 922.926688 202.869333 
L 924.296018 194.690667 
L 925.666655 187.680381 
L 927.036216 187.680381 
L 928.40928 181.838476 
L 929.784673 171.323048 
L 931.156414 164.312762 
L 932.530587 164.312762 
L 933.900196 158.470857 
L 935.270117 158.470857 
L 936.64429 153.797333 
L 938.015048 147.955429 
L 939.386506 145.618667 
L 940.760288 145.618667 
L 942.131518 137.44 
L 943.502248 150.29219 
L 944.872404 150.29219 
L 946.249197 161.976 
L 947.619485 160.807619 
L 948.989105 160.807619 
L 950.359199 150.29219 
L 951.729554 144.450286 
L 953.101749 144.450286 
L 954.472627 135.103238 
L 955.843041 126.924571 
L 957.215527 126.924571 
L 958.58586 125.75619 
L 959.956851 128.092952 
L 961.331376 125.75619 
L 962.714385 125.75619 
L 964.088998 130.429714 
L 965.464407 131.598095 
L 966.840501 131.598095 
L 968.226571 143.281905 
L 970.978924 143.281905 
L 972.355051 151.460571 
L 973.726275 158.470857 
L 975.103226 160.807619 
L 976.474975 160.807619 
L 977.848313 166.649524 
L 979.219286 166.649524 
L 980.592225 179.501714 
L 981.963349 185.343619 
L 983.334187 187.680381 
L 984.703936 187.680381 
L 986.076132 193.522286 
L 988.817748 193.522286 
L 990.20041 260.12 
L 1064.405972 260.12 
L 1065.753587 253.109714 
L 1067.124136 251.941333 
L 1068.495815 251.941333 
L 1069.867623 241.425905 
L 1071.236835 235.584 
L 1072.606224 235.584 
L 1073.976029 233.247238 
L 1075.345181 233.247238 
L 1076.714373 220.395048 
L 1078.085827 209.879619 
L 1079.455098 207.542857 
L 1080.824771 207.542857 
L 1083.563702 193.522286 
L 1084.932595 193.522286 
L 1087.674486 186.512 
L 1089.043836 187.680381 
L 1090.784531 187.680381 
L 1092.155057 195.859048 
L 1093.528156 199.36419 
L 1094.897499 199.36419 
L 1096.269564 200.532571 
L 1097.644149 200.532571 
L 1099.013987 187.680381 
L 1100.38339 187.680381 
L 1101.752827 180.670095 
L 1103.122933 180.670095 
L 1104.493496 175.996571 
L 1105.862531 177.164952 
L 1107.233283 177.164952 
L 1108.605326 187.680381 
L 1109.974714 186.512 
L 1111.344461 180.670095 
L 1112.713951 180.670095 
L 1114.083813 181.838476 
L 1115.452982 173.65981 
L 1116.82243 173.65981 
L 1118.19288 185.343619 
L 1119.5642 198.19581 
L 1120.933546 198.19581 
L 1123.675624 205.206095 
L 1125.046962 205.206095 
L 1126.418709 204.037714 
L 1127.790486 205.206095 
L 1129.162873 201.700952 
L 1130.53558 201.700952 
L 1131.90776 202.869333 
L 1133.28 211.048 
L 1133.28 211.048 
" style="fill:none;stroke:#1f77b4;stroke-linecap:square;stroke-width:1.5;"/>
   </g>
   <g id="patch_3">
    <path d="M 33.64 260.12 
L 33.64 14.76 
" style="fill:none;stroke:#000000;stroke-linecap:square;stroke-linejoin:miter;stroke-width:0.8;"/>
   </g>
   <g id="patch_4">
    <path d="M 1133.28 260.12 
L 1133.28 14.76 
" style="fill:none;stroke:#000000;stroke-linecap:square;stroke-linejoin:miter;stroke-width:0.8;"/>
   </g>
   <g id="patch_5">
    <path d="M 33.64 260.12 
L 1133.28 260.12 
" style="fill:none;stroke:#000000;stroke-linecap:square;stroke-linejoin:miter;stroke-width:0.8;"/>
   </g>
   <g id="patch_6">
    <path d="M 33.64 14.76 
L 1133.28 14.76 
" style="fill:none;stroke:#000000;stroke-linecap:square;stroke-linejoin:miter;stroke-width:0.8;"/>
   </g>
  </g>
 </g>
 <defs>
  <clipPath id="pb44b463f70">
   <rect height="245.36" width="1099.64" x="33.64" y="14.76"/>
  </clipPath>
 </defs>
</svg>
