<?xml version="1.0" encoding="utf-8" standalone="no"?>
<!DOCTYPE svg PUBLIC "-//W3C//DTD SVG 1.1//EN"
  "http://www.w3.org/Graphics/SVG/1.1/DTD/svg11.dtd">
<!-- Created with matplotlib (https://matplotlib.org/) -->
<svg height="288pt" version="1.1" viewBox="0 0 1152 288" width="1152pt" xmlns="http://www.w3.org/2000/svg" xmlns:xlink="http://www.w3.org/1999/xlink">
 <defs>
  <style type="text/css">
*{stroke-linecap:butt;stroke-linejoin:round;}
  </style>
 </defs>
 <g id="figure_1">
  <g id="patch_1">
   <path d="M 0 288 
L 1152 288 
L 1152 0 
L 0 0 
z
" style="fill:#ffffff;"/>
  </g>
  <g id="axes_1">
   <g id="patch_2">
    <path d="M 33.64 260.12 
L 1133.28 260.12 
L 1133.28 14.76 
L 33.64 14.76 
z
" style="fill:#ffffff;"/>
   </g>
   <g id="matplotlib.axis_1">
    <g id="xtick_1">
     <g id="line2d_1">
      <defs>
       <path d="M 0 0 
L 0 3.5 
" id="m625dd56341" style="stroke:#000000;stroke-width:0.8;"/>
      </defs>
      <g>
       <use style="stroke:#000000;stroke-width:0.8;" x="231.654824" xlink:href="#m625dd56341" y="260.12"/>
      </g>
     </g>
     <g id="text_1">
      <!-- Tue 00:00 -->
      <defs>
       <path d="M -0.296875 72.90625 
L 61.375 72.90625 
L 61.375 64.59375 
L 35.5 64.59375 
L 35.5 0 
L 25.59375 0 
L 25.59375 64.59375 
L -0.296875 64.59375 
z
" id="DejaVuSans-84"/>
       <path d="M 8.5 21.578125 
L 8.5 54.6875 
L 17.484375 54.6875 
L 17.484375 21.921875 
Q 17.484375 14.15625 20.5 10.265625 
Q 23.53125 6.390625 29.59375 6.390625 
Q 36.859375 6.390625 41.078125 11.03125 
Q 45.3125 15.671875 45.3125 23.6875 
L 45.3125 54.6875 
L 54.296875 54.6875 
L 54.296875 0 
L 45.3125 0 
L 45.3125 8.40625 
Q 42.046875 3.421875 37.71875 1 
Q 33.40625 -1.421875 27.6875 -1.421875 
Q 18.265625 -1.421875 13.375 4.4375 
Q 8.5 10.296875 8.5 21.578125 
z
M 31.109375 56 
z
" id="DejaVuSans-117"/>
       <path d="M 56.203125 29.59375 
L 56.203125 25.203125 
L 14.890625 25.203125 
Q 15.484375 15.921875 20.484375 11.0625 
Q 25.484375 6.203125 34.421875 6.203125 
Q 39.59375 6.203125 44.453125 7.46875 
Q 49.3125 8.734375 54.109375 11.28125 
L 54.109375 2.78125 
Q 49.265625 0.734375 44.1875 -0.34375 
Q 39.109375 -1.421875 33.890625 -1.421875 
Q 20.796875 -1.421875 13.15625 6.1875 
Q 5.515625 13.8125 5.515625 26.8125 
Q 5.515625 40.234375 12.765625 48.109375 
Q 20.015625 56 32.328125 56 
Q 43.359375 56 49.78125 48.890625 
Q 56.203125 41.796875 56.203125 29.59375 
z
M 47.21875 32.234375 
Q 47.125 39.59375 43.09375 43.984375 
Q 39.0625 48.390625 32.421875 48.390625 
Q 24.90625 48.390625 20.390625 44.140625 
Q 15.875 39.890625 15.1875 32.171875 
z
" id="DejaVuSans-101"/>
       <path id="DejaVuSans-32"/>
       <path d="M 31.78125 66.40625 
Q 24.171875 66.40625 20.328125 58.90625 
Q 16.5 51.421875 16.5 36.375 
Q 16.5 21.390625 20.328125 13.890625 
Q 24.171875 6.390625 31.78125 6.390625 
Q 39.453125 6.390625 43.28125 13.890625 
Q 47.125 21.390625 47.125 36.375 
Q 47.125 51.421875 43.28125 58.90625 
Q 39.453125 66.40625 31.78125 66.40625 
z
M 31.78125 74.21875 
Q 44.046875 74.21875 50.515625 64.515625 
Q 56.984375 54.828125 56.984375 36.375 
Q 56.984375 17.96875 50.515625 8.265625 
Q 44.046875 -1.421875 31.78125 -1.421875 
Q 19.53125 -1.421875 13.0625 8.265625 
Q 6.59375 17.96875 6.59375 36.375 
Q 6.59375 54.828125 13.0625 64.515625 
Q 19.53125 74.21875 31.78125 74.21875 
z
" id="DejaVuSans-48"/>
       <path d="M 11.71875 12.40625 
L 22.015625 12.40625 
L 22.015625 0 
L 11.71875 0 
z
M 11.71875 51.703125 
L 22.015625 51.703125 
L 22.015625 39.3125 
L 11.71875 39.3125 
z
" id="DejaVuSans-58"/>
      </defs>
      <g transform="translate(206.368886 274.718437)scale(0.1 -0.1)">
       <use xlink:href="#DejaVuSans-84"/>
       <use x="60.849609" xlink:href="#DejaVuSans-117"/>
       <use x="124.228516" xlink:href="#DejaVuSans-101"/>
       <use x="185.751953" xlink:href="#DejaVuSans-32"/>
       <use x="217.539062" xlink:href="#DejaVuSans-48"/>
       <use x="281.162109" xlink:href="#DejaVuSans-48"/>
       <use x="344.785156" xlink:href="#DejaVuSans-58"/>
       <use x="378.476562" xlink:href="#DejaVuSans-48"/>
       <use x="442.099609" xlink:href="#DejaVuSans-48"/>
      </g>
     </g>
    </g>
    <g id="xtick_2">
     <g id="line2d_2">
      <g>
       <use style="stroke:#000000;stroke-width:0.8;" x="429.758328" xlink:href="#m625dd56341" y="260.12"/>
      </g>
     </g>
     <g id="text_2">
      <!-- Wed 00:00 -->
      <defs>
       <path d="M 3.328125 72.90625 
L 13.28125 72.90625 
L 28.609375 11.28125 
L 43.890625 72.90625 
L 54.984375 72.90625 
L 70.3125 11.28125 
L 85.59375 72.90625 
L 95.609375 72.90625 
L 77.296875 0 
L 64.890625 0 
L 49.515625 63.28125 
L 33.984375 0 
L 21.578125 0 
z
" id="DejaVuSans-87"/>
       <path d="M 45.40625 46.390625 
L 45.40625 75.984375 
L 54.390625 75.984375 
L 54.390625 0 
L 45.40625 0 
L 45.40625 8.203125 
Q 42.578125 3.328125 38.25 0.953125 
Q 33.9375 -1.421875 27.875 -1.421875 
Q 17.96875 -1.421875 11.734375 6.484375 
Q 5.515625 14.40625 5.515625 27.296875 
Q 5.515625 40.1875 11.734375 48.09375 
Q 17.96875 56 27.875 56 
Q 33.9375 56 38.25 53.625 
Q 42.578125 51.265625 45.40625 46.390625 
z
M 14.796875 27.296875 
Q 14.796875 17.390625 18.875 11.75 
Q 22.953125 6.109375 30.078125 6.109375 
Q 37.203125 6.109375 41.296875 11.75 
Q 45.40625 17.390625 45.40625 27.296875 
Q 45.40625 37.203125 41.296875 42.84375 
Q 37.203125 48.484375 30.078125 48.484375 
Q 22.953125 48.484375 18.875 42.84375 
Q 14.796875 37.203125 14.796875 27.296875 
z
" id="DejaVuSans-100"/>
      </defs>
      <g transform="translate(402.569265 274.718437)scale(0.1 -0.1)">
       <use xlink:href="#DejaVuSans-87"/>
       <use x="98.798828" xlink:href="#DejaVuSans-101"/>
       <use x="160.322266" xlink:href="#DejaVuSans-100"/>
       <use x="223.798828" xlink:href="#DejaVuSans-32"/>
       <use x="255.585938" xlink:href="#DejaVuSans-48"/>
       <use x="319.208984" xlink:href="#DejaVuSans-48"/>
       <use x="382.832031" xlink:href="#DejaVuSans-58"/>
       <use x="416.523438" xlink:href="#DejaVuSans-48"/>
       <use x="480.146484" xlink:href="#DejaVuSans-48"/>
      </g>
     </g>
    </g>
    <g id="xtick_3">
     <g id="line2d_3">
      <g>
       <use style="stroke:#000000;stroke-width:0.8;" x="627.861832" xlink:href="#m625dd56341" y="260.12"/>
      </g>
     </g>
     <g id="text_3">
      <!-- Thu 00:00 -->
      <defs>
       <path d="M 54.890625 33.015625 
L 54.890625 0 
L 45.90625 0 
L 45.90625 32.71875 
Q 45.90625 40.484375 42.875 44.328125 
Q 39.84375 48.1875 33.796875 48.1875 
Q 26.515625 48.1875 22.3125 43.546875 
Q 18.109375 38.921875 18.109375 30.90625 
L 18.109375 0 
L 9.078125 0 
L 9.078125 75.984375 
L 18.109375 75.984375 
L 18.109375 46.1875 
Q 21.34375 51.125 25.703125 53.5625 
Q 30.078125 56 35.796875 56 
Q 45.21875 56 50.046875 50.171875 
Q 54.890625 44.34375 54.890625 33.015625 
z
" id="DejaVuSans-104"/>
      </defs>
      <g transform="translate(602.471988 274.718437)scale(0.1 -0.1)">
       <use xlink:href="#DejaVuSans-84"/>
       <use x="61.083984" xlink:href="#DejaVuSans-104"/>
       <use x="124.462891" xlink:href="#DejaVuSans-117"/>
       <use x="187.841797" xlink:href="#DejaVuSans-32"/>
       <use x="219.628906" xlink:href="#DejaVuSans-48"/>
       <use x="283.251953" xlink:href="#DejaVuSans-48"/>
       <use x="346.875" xlink:href="#DejaVuSans-58"/>
       <use x="380.566406" xlink:href="#DejaVuSans-48"/>
       <use x="444.189453" xlink:href="#DejaVuSans-48"/>
      </g>
     </g>
    </g>
    <g id="xtick_4">
     <g id="line2d_4">
      <g>
       <use style="stroke:#000000;stroke-width:0.8;" x="825.965336" xlink:href="#m625dd56341" y="260.12"/>
      </g>
     </g>
     <g id="text_4">
      <!-- Fri 00:00 -->
      <defs>
       <path d="M 9.8125 72.90625 
L 51.703125 72.90625 
L 51.703125 64.59375 
L 19.671875 64.59375 
L 19.671875 43.109375 
L 48.578125 43.109375 
L 48.578125 34.8125 
L 19.671875 34.8125 
L 19.671875 0 
L 9.8125 0 
z
" id="DejaVuSans-70"/>
       <path d="M 41.109375 46.296875 
Q 39.59375 47.171875 37.8125 47.578125 
Q 36.03125 48 33.890625 48 
Q 26.265625 48 22.1875 43.046875 
Q 18.109375 38.09375 18.109375 28.8125 
L 18.109375 0 
L 9.078125 0 
L 9.078125 54.6875 
L 18.109375 54.6875 
L 18.109375 46.1875 
Q 20.953125 51.171875 25.484375 53.578125 
Q 30.03125 56 36.53125 56 
Q 37.453125 56 38.578125 55.875 
Q 39.703125 55.765625 41.0625 55.515625 
z
" id="DejaVuSans-114"/>
       <path d="M 9.421875 54.6875 
L 18.40625 54.6875 
L 18.40625 0 
L 9.421875 0 
z
M 9.421875 75.984375 
L 18.40625 75.984375 
L 18.40625 64.59375 
L 9.421875 64.59375 
z
" id="DejaVuSans-105"/>
      </defs>
      <g transform="translate(803.652055 274.718437)scale(0.1 -0.1)">
       <use xlink:href="#DejaVuSans-70"/>
       <use x="57.410156" xlink:href="#DejaVuSans-114"/>
       <use x="98.523438" xlink:href="#DejaVuSans-105"/>
       <use x="126.306641" xlink:href="#DejaVuSans-32"/>
       <use x="158.09375" xlink:href="#DejaVuSans-48"/>
       <use x="221.716797" xlink:href="#DejaVuSans-48"/>
       <use x="285.339844" xlink:href="#DejaVuSans-58"/>
       <use x="319.03125" xlink:href="#DejaVuSans-48"/>
       <use x="382.654297" xlink:href="#DejaVuSans-48"/>
      </g>
     </g>
    </g>
    <g id="xtick_5">
     <g id="line2d_5">
      <g>
       <use style="stroke:#000000;stroke-width:0.8;" x="1024.06884" xlink:href="#m625dd56341" y="260.12"/>
      </g>
     </g>
     <g id="text_5">
      <!-- Sat 00:00 -->
      <defs>
       <path d="M 53.515625 70.515625 
L 53.515625 60.890625 
Q 47.90625 63.578125 42.921875 64.890625 
Q 37.9375 66.21875 33.296875 66.21875 
Q 25.25 66.21875 20.875 63.09375 
Q 16.5 59.96875 16.5 54.203125 
Q 16.5 49.359375 19.40625 46.890625 
Q 22.3125 44.4375 30.421875 42.921875 
L 36.375 41.703125 
Q 47.40625 39.59375 52.65625 34.296875 
Q 57.90625 29 57.90625 20.125 
Q 57.90625 9.515625 50.796875 4.046875 
Q 43.703125 -1.421875 29.984375 -1.421875 
Q 24.8125 -1.421875 18.96875 -0.25 
Q 13.140625 0.921875 6.890625 3.21875 
L 6.890625 13.375 
Q 12.890625 10.015625 18.65625 8.296875 
Q 24.421875 6.59375 29.984375 6.59375 
Q 38.421875 6.59375 43.015625 9.90625 
Q 47.609375 13.234375 47.609375 19.390625 
Q 47.609375 24.75 44.3125 27.78125 
Q 41.015625 30.8125 33.5 32.328125 
L 27.484375 33.5 
Q 16.453125 35.6875 11.515625 40.375 
Q 6.59375 45.0625 6.59375 53.421875 
Q 6.59375 63.09375 13.40625 68.65625 
Q 20.21875 74.21875 32.171875 74.21875 
Q 37.3125 74.21875 42.625 73.28125 
Q 47.953125 72.359375 53.515625 70.515625 
z
" id="DejaVuSans-83"/>
       <path d="M 34.28125 27.484375 
Q 23.390625 27.484375 19.1875 25 
Q 14.984375 22.515625 14.984375 16.5 
Q 14.984375 11.71875 18.140625 8.90625 
Q 21.296875 6.109375 26.703125 6.109375 
Q 34.1875 6.109375 38.703125 11.40625 
Q 43.21875 16.703125 43.21875 25.484375 
L 43.21875 27.484375 
z
M 52.203125 31.203125 
L 52.203125 0 
L 43.21875 0 
L 43.21875 8.296875 
Q 40.140625 3.328125 35.546875 0.953125 
Q 30.953125 -1.421875 24.3125 -1.421875 
Q 15.921875 -1.421875 10.953125 3.296875 
Q 6 8.015625 6 15.921875 
Q 6 25.140625 12.171875 29.828125 
Q 18.359375 34.515625 30.609375 34.515625 
L 43.21875 34.515625 
L 43.21875 35.40625 
Q 43.21875 41.609375 39.140625 45 
Q 35.0625 48.390625 27.6875 48.390625 
Q 23 48.390625 18.546875 47.265625 
Q 14.109375 46.140625 10.015625 43.890625 
L 10.015625 52.203125 
Q 14.9375 54.109375 19.578125 55.046875 
Q 24.21875 56 28.609375 56 
Q 40.484375 56 46.34375 49.84375 
Q 52.203125 43.703125 52.203125 31.203125 
z
" id="DejaVuSans-97"/>
       <path d="M 18.3125 70.21875 
L 18.3125 54.6875 
L 36.8125 54.6875 
L 36.8125 47.703125 
L 18.3125 47.703125 
L 18.3125 18.015625 
Q 18.3125 11.328125 20.140625 9.421875 
Q 21.96875 7.515625 27.59375 7.515625 
L 36.8125 7.515625 
L 36.8125 0 
L 27.59375 0 
Q 17.1875 0 13.234375 3.875 
Q 9.28125 7.765625 9.28125 18.015625 
L 9.28125 47.703125 
L 2.6875 47.703125 
L 2.6875 54.6875 
L 9.28125 54.6875 
L 9.28125 70.21875 
z
" id="DejaVuSans-116"/>
      </defs>
      <g transform="translate(999.871965 274.718437)scale(0.1 -0.1)">
       <use xlink:href="#DejaVuSans-83"/>
       <use x="63.476562" xlink:href="#DejaVuSans-97"/>
       <use x="124.755859" xlink:href="#DejaVuSans-116"/>
       <use x="163.964844" xlink:href="#DejaVuSans-32"/>
       <use x="195.751953" xlink:href="#DejaVuSans-48"/>
       <use x="259.375" xlink:href="#DejaVuSans-48"/>
       <use x="322.998047" xlink:href="#DejaVuSans-58"/>
       <use x="356.689453" xlink:href="#DejaVuSans-48"/>
       <use x="420.3125" xlink:href="#DejaVuSans-48"/>
      </g>
     </g>
    </g>
   </g>
   <g id="matplotlib.axis_2">
    <g id="ytick_1">
     <g id="line2d_6">
      <defs>
       <path d="M 0 0 
L -3.5 0 
" id="m3d3b1cc304" style="stroke:#000000;stroke-width:0.8;"/>
      </defs>
      <g>
       <use style="stroke:#000000;stroke-width:0.8;" x="33.64" xlink:href="#m3d3b1cc304" y="260.12"/>
      </g>
     </g>
     <g id="text_6">
      <!-- 0 -->
      <g transform="translate(20.2775 263.919219)scale(0.1 -0.1)">
       <use xlink:href="#DejaVuSans-48"/>
      </g>
     </g>
    </g>
    <g id="ytick_2">
     <g id="line2d_7">
      <g>
       <use style="stroke:#000000;stroke-width:0.8;" x="33.64" xlink:href="#m3d3b1cc304" y="232.857778"/>
      </g>
     </g>
     <g id="text_7">
      <!-- 20 -->
      <defs>
       <path d="M 19.1875 8.296875 
L 53.609375 8.296875 
L 53.609375 0 
L 7.328125 0 
L 7.328125 8.296875 
Q 12.9375 14.109375 22.625 23.890625 
Q 32.328125 33.6875 34.8125 36.53125 
Q 39.546875 41.84375 41.421875 45.53125 
Q 43.3125 49.21875 43.3125 52.78125 
Q 43.3125 58.59375 39.234375 62.25 
Q 35.15625 65.921875 28.609375 65.921875 
Q 23.96875 65.921875 18.8125 64.3125 
Q 13.671875 62.703125 7.8125 59.421875 
L 7.8125 69.390625 
Q 13.765625 71.78125 18.9375 73 
Q 24.125 74.21875 28.421875 74.21875 
Q 39.75 74.21875 46.484375 68.546875 
Q 53.21875 62.890625 53.21875 53.421875 
Q 53.21875 48.921875 51.53125 44.890625 
Q 49.859375 40.875 45.40625 35.40625 
Q 44.1875 33.984375 37.640625 27.21875 
Q 31.109375 20.453125 19.1875 8.296875 
z
" id="DejaVuSans-50"/>
      </defs>
      <g transform="translate(13.915 236.656997)scale(0.1 -0.1)">
       <use xlink:href="#DejaVuSans-50"/>
       <use x="63.623047" xlink:href="#DejaVuSans-48"/>
      </g>
     </g>
    </g>
    <g id="ytick_3">
     <g id="line2d_8">
      <g>
       <use style="stroke:#000000;stroke-width:0.8;" x="33.64" xlink:href="#m3d3b1cc304" y="205.595556"/>
      </g>
     </g>
     <g id="text_8">
      <!-- 40 -->
      <defs>
       <path d="M 37.796875 64.3125 
L 12.890625 25.390625 
L 37.796875 25.390625 
z
M 35.203125 72.90625 
L 47.609375 72.90625 
L 47.609375 25.390625 
L 58.015625 25.390625 
L 58.015625 17.1875 
L 47.609375 17.1875 
L 47.609375 0 
L 37.796875 0 
L 37.796875 17.1875 
L 4.890625 17.1875 
L 4.890625 26.703125 
z
" id="DejaVuSans-52"/>
      </defs>
      <g transform="translate(13.915 209.394774)scale(0.1 -0.1)">
       <use xlink:href="#DejaVuSans-52"/>
       <use x="63.623047" xlink:href="#DejaVuSans-48"/>
      </g>
     </g>
    </g>
    <g id="ytick_4">
     <g id="line2d_9">
      <g>
       <use style="stroke:#000000;stroke-width:0.8;" x="33.64" xlink:href="#m3d3b1cc304" y="178.333333"/>
      </g>
     </g>
     <g id="text_9">
      <!-- 60 -->
      <defs>
       <path d="M 33.015625 40.375 
Q 26.375 40.375 22.484375 35.828125 
Q 18.609375 31.296875 18.609375 23.390625 
Q 18.609375 15.53125 22.484375 10.953125 
Q 26.375 6.390625 33.015625 6.390625 
Q 39.65625 6.390625 43.53125 10.953125 
Q 47.40625 15.53125 47.40625 23.390625 
Q 47.40625 31.296875 43.53125 35.828125 
Q 39.65625 40.375 33.015625 40.375 
z
M 52.59375 71.296875 
L 52.59375 62.3125 
Q 48.875 64.0625 45.09375 64.984375 
Q 41.3125 65.921875 37.59375 65.921875 
Q 27.828125 65.921875 22.671875 59.328125 
Q 17.53125 52.734375 16.796875 39.40625 
Q 19.671875 43.65625 24.015625 45.921875 
Q 28.375 48.1875 33.59375 48.1875 
Q 44.578125 48.1875 50.953125 41.515625 
Q 57.328125 34.859375 57.328125 23.390625 
Q 57.328125 12.15625 50.6875 5.359375 
Q 44.046875 -1.421875 33.015625 -1.421875 
Q 20.359375 -1.421875 13.671875 8.265625 
Q 6.984375 17.96875 6.984375 36.375 
Q 6.984375 53.65625 15.1875 63.9375 
Q 23.390625 74.21875 37.203125 74.21875 
Q 40.921875 74.21875 44.703125 73.484375 
Q 48.484375 72.75 52.59375 71.296875 
z
" id="DejaVuSans-54"/>
      </defs>
      <g transform="translate(13.915 182.132552)scale(0.1 -0.1)">
       <use xlink:href="#DejaVuSans-54"/>
       <use x="63.623047" xlink:href="#DejaVuSans-48"/>
      </g>
     </g>
    </g>
    <g id="ytick_5">
     <g id="line2d_10">
      <g>
       <use style="stroke:#000000;stroke-width:0.8;" x="33.64" xlink:href="#m3d3b1cc304" y="151.071111"/>
      </g>
     </g>
     <g id="text_10">
      <!-- 80 -->
      <defs>
       <path d="M 31.78125 34.625 
Q 24.75 34.625 20.71875 30.859375 
Q 16.703125 27.09375 16.703125 20.515625 
Q 16.703125 13.921875 20.71875 10.15625 
Q 24.75 6.390625 31.78125 6.390625 
Q 38.8125 6.390625 42.859375 10.171875 
Q 46.921875 13.96875 46.921875 20.515625 
Q 46.921875 27.09375 42.890625 30.859375 
Q 38.875 34.625 31.78125 34.625 
z
M 21.921875 38.8125 
Q 15.578125 40.375 12.03125 44.71875 
Q 8.5 49.078125 8.5 55.328125 
Q 8.5 64.0625 14.71875 69.140625 
Q 20.953125 74.21875 31.78125 74.21875 
Q 42.671875 74.21875 48.875 69.140625 
Q 55.078125 64.0625 55.078125 55.328125 
Q 55.078125 49.078125 51.53125 44.71875 
Q 48 40.375 41.703125 38.8125 
Q 48.828125 37.15625 52.796875 32.3125 
Q 56.78125 27.484375 56.78125 20.515625 
Q 56.78125 9.90625 50.3125 4.234375 
Q 43.84375 -1.421875 31.78125 -1.421875 
Q 19.734375 -1.421875 13.25 4.234375 
Q 6.78125 9.90625 6.78125 20.515625 
Q 6.78125 27.484375 10.78125 32.3125 
Q 14.796875 37.15625 21.921875 38.8125 
z
M 18.3125 54.390625 
Q 18.3125 48.734375 21.84375 45.5625 
Q 25.390625 42.390625 31.78125 42.390625 
Q 38.140625 42.390625 41.71875 45.5625 
Q 45.3125 48.734375 45.3125 54.390625 
Q 45.3125 60.0625 41.71875 63.234375 
Q 38.140625 66.40625 31.78125 66.40625 
Q 25.390625 66.40625 21.84375 63.234375 
Q 18.3125 60.0625 18.3125 54.390625 
z
" id="DejaVuSans-56"/>
      </defs>
      <g transform="translate(13.915 154.87033)scale(0.1 -0.1)">
       <use xlink:href="#DejaVuSans-56"/>
       <use x="63.623047" xlink:href="#DejaVuSans-48"/>
      </g>
     </g>
    </g>
    <g id="ytick_6">
     <g id="line2d_11">
      <g>
       <use style="stroke:#000000;stroke-width:0.8;" x="33.64" xlink:href="#m3d3b1cc304" y="123.808889"/>
      </g>
     </g>
     <g id="text_11">
      <!-- 100 -->
      <defs>
       <path d="M 12.40625 8.296875 
L 28.515625 8.296875 
L 28.515625 63.921875 
L 10.984375 60.40625 
L 10.984375 69.390625 
L 28.421875 72.90625 
L 38.28125 72.90625 
L 38.28125 8.296875 
L 54.390625 8.296875 
L 54.390625 0 
L 12.40625 0 
z
" id="DejaVuSans-49"/>
      </defs>
      <g transform="translate(7.5525 127.608108)scale(0.1 -0.1)">
       <use xlink:href="#DejaVuSans-49"/>
       <use x="63.623047" xlink:href="#DejaVuSans-48"/>
       <use x="127.246094" xlink:href="#DejaVuSans-48"/>
      </g>
     </g>
    </g>
    <g id="ytick_7">
     <g id="line2d_12">
      <g>
       <use style="stroke:#000000;stroke-width:0.8;" x="33.64" xlink:href="#m3d3b1cc304" y="96.546667"/>
      </g>
     </g>
     <g id="text_12">
      <!-- 120 -->
      <g transform="translate(7.5525 100.345885)scale(0.1 -0.1)">
       <use xlink:href="#DejaVuSans-49"/>
       <use x="63.623047" xlink:href="#DejaVuSans-50"/>
       <use x="127.246094" xlink:href="#DejaVuSans-48"/>
      </g>
     </g>
    </g>
    <g id="ytick_8">
     <g id="line2d_13">
      <g>
       <use style="stroke:#000000;stroke-width:0.8;" x="33.64" xlink:href="#m3d3b1cc304" y="69.284444"/>
      </g>
     </g>
     <g id="text_13">
      <!-- 140 -->
      <g transform="translate(7.5525 73.083663)scale(0.1 -0.1)">
       <use xlink:href="#DejaVuSans-49"/>
       <use x="63.623047" xlink:href="#DejaVuSans-52"/>
       <use x="127.246094" xlink:href="#DejaVuSans-48"/>
      </g>
     </g>
    </g>
    <g id="ytick_9">
     <g id="line2d_14">
      <g>
       <use style="stroke:#000000;stroke-width:0.8;" x="33.64" xlink:href="#m3d3b1cc304" y="42.022222"/>
      </g>
     </g>
     <g id="text_14">
      <!-- 160 -->
      <g transform="translate(7.5525 45.821441)scale(0.1 -0.1)">
       <use xlink:href="#DejaVuSans-49"/>
       <use x="63.623047" xlink:href="#DejaVuSans-54"/>
       <use x="127.246094" xlink:href="#DejaVuSans-48"/>
      </g>
     </g>
    </g>
    <g id="ytick_10">
     <g id="line2d_15">
      <g>
       <use style="stroke:#000000;stroke-width:0.8;" x="33.64" xlink:href="#m3d3b1cc304" y="14.76"/>
      </g>
     </g>
     <g id="text_15">
      <!-- 180 -->
      <g transform="translate(7.5525 18.559219)scale(0.1 -0.1)">
       <use xlink:href="#DejaVuSans-49"/>
       <use x="63.623047" xlink:href="#DejaVuSans-56"/>
       <use x="127.246094" xlink:href="#DejaVuSans-48"/>
      </g>
     </g>
    </g>
   </g>
   <g id="line2d_16">
    <path clip-path="url(#p96b6726787)" d="M 33.64 260.12 
L 107.417789 260.12 
L 108.809718 257.393778 
L 110.228917 257.393778 
L 111.643533 253.304444 
L 113.0579 251.941333 
L 114.475565 249.215111 
L 115.891394 249.215111 
L 117.309219 246.488889 
L 118.725187 242.399556 
L 120.140263 242.399556 
L 121.556049 236.947111 
L 122.973627 235.584 
L 124.39036 235.584 
L 125.808045 232.857778 
L 127.222487 228.768444 
L 130.053741 228.768444 
L 131.468403 224.679111 
L 132.884592 221.952889 
L 134.300795 221.952889 
L 135.719543 219.226667 
L 137.135937 219.226667 
L 138.553331 221.952889 
L 139.967666 228.768444 
L 142.796139 228.768444 
L 145.625327 239.673333 
L 147.044498 239.673333 
L 148.461171 238.310222 
L 149.879097 235.584 
L 151.293422 235.584 
L 152.707866 227.405333 
L 154.121898 226.042222 
L 155.536925 223.316 
L 156.951286 223.316 
L 158.368628 221.952889 
L 161.19865 221.952889 
L 162.615777 209.684889 
L 164.030145 209.684889 
L 165.445869 208.321778 
L 166.860796 198.78 
L 168.279056 197.416889 
L 169.693933 197.416889 
L 171.108761 191.964444 
L 173.938872 191.964444 
L 175.356512 187.875111 
L 176.77097 189.238222 
L 178.185794 189.238222 
L 179.600495 174.244 
L 181.015769 166.065333 
L 182.43167 166.065333 
L 183.848995 141.529333 
L 185.267056 126.535111 
L 186.683566 126.535111 
L 190.935302 63.832 
L 192.353188 63.832 
L 193.770685 61.105778 
L 195.188009 61.105778 
L 196.605821 57.016444 
L 198.02464 76.1 
L 199.443182 84.278667 
L 200.8611 84.278667 
L 202.276561 87.004889 
L 205.106365 87.004889 
L 206.522027 92.457333 
L 207.93708 100.636 
L 209.354435 101.999111 
L 210.771816 101.999111 
L 212.186824 116.993333 
L 213.602109 116.993333 
L 215.018081 133.350667 
L 216.433575 157.886667 
L 217.849325 166.065333 
L 219.265558 166.065333 
L 220.680591 176.970222 
L 222.096112 190.601333 
L 224.929901 190.601333 
L 226.34583 260.12 
L 305.78602 260.12 
L 307.177979 258.756889 
L 308.593639 245.125778 
L 310.008457 245.125778 
L 311.422438 236.947111 
L 312.840638 236.947111 
L 314.255698 232.857778 
L 315.670523 227.405333 
L 317.085307 227.405333 
L 318.501523 224.679111 
L 319.918311 223.316 
L 324.168187 223.316 
L 325.58295 227.405333 
L 327.000995 227.405333 
L 328.421878 234.220889 
L 329.836655 235.584 
L 332.671043 235.584 
L 334.088602 232.857778 
L 335.505094 232.857778 
L 336.919553 228.768444 
L 338.334353 234.220889 
L 339.748386 231.494667 
L 341.167384 231.494667 
L 342.581876 232.857778 
L 343.996323 230.131556 
L 345.411249 230.131556 
L 346.825903 228.768444 
L 349.657688 215.137333 
L 351.073133 215.137333 
L 352.488458 204.232444 
L 353.903116 204.232444 
L 355.318736 208.321778 
L 356.733255 204.232444 
L 358.147521 204.232444 
L 359.561842 202.869333 
L 360.976175 206.958667 
L 362.393333 206.958667 
L 363.819476 201.506222 
L 365.23613 202.869333 
L 366.650876 193.327556 
L 368.066208 193.327556 
L 369.482548 179.696444 
L 370.900569 168.791556 
L 372.316661 168.791556 
L 373.735058 152.434222 
L 375.153262 130.624444 
L 376.567444 121.082667 
L 377.983657 121.082667 
L 379.398567 104.725333 
L 380.814137 99.272889 
L 382.229323 99.272889 
L 383.645309 82.915556 
L 385.062442 82.915556 
L 386.477474 69.284444 
L 387.893751 63.832 
L 389.309534 51.564 
L 390.725383 51.564 
L 392.140307 58.379556 
L 393.556188 37.932889 
L 394.973231 37.932889 
L 396.387891 46.111556 
L 397.803591 32.480444 
L 399.219287 32.480444 
L 400.634958 36.569778 
L 402.049323 31.117333 
L 403.465209 31.117333 
L 404.881162 29.754222 
L 406.298783 44.748444 
L 407.714447 63.832 
L 409.130413 63.832 
L 410.545868 77.463111 
L 411.964095 92.457333 
L 413.379069 92.457333 
L 414.79435 101.999111 
L 416.210005 108.814667 
L 417.625209 108.814667 
L 419.041811 134.713778 
L 420.457705 136.076889 
L 421.872941 136.076889 
L 423.288999 142.892444 
L 424.704624 260.12 
L 504.144027 260.12 
L 505.55912 258.756889 
L 506.974165 246.488889 
L 508.39154 246.488889 
L 509.80587 235.584 
L 511.220768 228.768444 
L 512.636433 220.589778 
L 514.051171 220.589778 
L 515.467212 215.137333 
L 516.884481 215.137333 
L 519.71713 204.232444 
L 521.134519 211.048 
L 522.550473 211.048 
L 525.382278 205.595556 
L 526.797589 205.595556 
L 528.213436 211.048 
L 529.629234 211.048 
L 531.04677 224.679111 
L 532.46188 224.679111 
L 533.877562 220.589778 
L 535.29287 220.589778 
L 536.713383 223.316 
L 538.128579 221.952889 
L 539.546689 221.952889 
L 540.963604 227.405333 
L 542.379251 223.316 
L 543.794904 223.316 
L 546.629724 215.137333 
L 548.04676 215.137333 
L 549.464117 212.411111 
L 550.880214 211.048 
L 552.29612 205.595556 
L 553.711462 205.595556 
L 555.127969 201.506222 
L 556.543441 200.143111 
L 557.958865 200.143111 
L 559.374647 197.416889 
L 560.790638 198.78 
L 562.20657 198.78 
L 563.622191 189.238222 
L 565.037774 183.785778 
L 566.454259 174.244 
L 567.868697 175.607111 
L 569.289535 172.880889 
L 570.705746 172.880889 
L 572.122523 167.428444 
L 573.542342 152.434222 
L 574.957177 144.255556 
L 576.371838 144.255556 
L 577.787659 121.082667 
L 579.204038 103.362222 
L 580.620331 103.362222 
L 582.038825 76.1 
L 583.454288 54.290222 
L 584.868385 54.290222 
L 586.283043 35.206667 
L 587.701809 32.480444 
L 589.116543 32.480444 
L 590.531476 28.391111 
L 591.94868 39.296 
L 593.366823 39.296 
L 594.781039 40.659111 
L 596.198743 54.290222 
L 597.620586 63.832 
L 599.036862 63.832 
L 601.872024 108.814667 
L 603.290765 108.814667 
L 604.708106 126.535111 
L 606.124501 141.529333 
L 607.540615 160.612889 
L 608.956781 160.612889 
L 610.372044 172.880889 
L 611.787905 172.880889 
L 613.205759 189.238222 
L 616.038751 200.143111 
L 617.455023 200.143111 
L 618.871736 201.506222 
L 624.534693 201.506222 
L 625.951358 260.12 
L 701.179595 260.12 
L 702.571919 257.393778 
L 703.987157 257.393778 
L 705.404904 249.215111 
L 706.819472 249.215111 
L 708.233627 247.852 
L 709.647786 239.673333 
L 712.477749 239.673333 
L 715.310414 234.220889 
L 716.724926 234.220889 
L 718.139865 238.310222 
L 719.555108 239.673333 
L 720.96922 239.673333 
L 723.799147 236.947111 
L 725.213856 236.947111 
L 726.629125 235.584 
L 728.0442 231.494667 
L 729.458328 232.857778 
L 732.291703 232.857778 
L 733.706127 234.220889 
L 735.122143 234.220889 
L 736.536416 227.405333 
L 737.951803 223.316 
L 739.366623 223.316 
L 740.784198 217.863556 
L 743.614372 217.863556 
L 745.029346 215.137333 
L 746.445489 217.863556 
L 747.86336 217.863556 
L 749.279032 228.768444 
L 750.697182 226.042222 
L 752.114481 219.226667 
L 753.529385 219.226667 
L 754.94519 215.137333 
L 756.362789 209.684889 
L 757.77942 209.684889 
L 759.194599 206.958667 
L 760.61473 206.958667 
L 762.032262 201.506222 
L 763.447554 204.232444 
L 764.865094 190.601333 
L 766.280426 190.601333 
L 767.696146 171.517778 
L 769.112673 161.976 
L 770.529711 161.976 
L 771.947196 144.255556 
L 773.36343 122.445778 
L 774.780885 122.445778 
L 776.196505 100.636 
L 777.612265 101.999111 
L 779.0281 91.094222 
L 780.445384 91.094222 
L 781.860733 88.368 
L 783.27632 72.010667 
L 784.692026 72.010667 
L 786.107891 50.200889 
L 787.524095 35.206667 
L 788.940093 35.206667 
L 790.355911 40.659111 
L 791.77144 31.117333 
L 793.187511 31.117333 
L 794.603581 39.296 
L 796.020052 50.200889 
L 797.435148 50.200889 
L 798.850931 51.564 
L 801.682531 67.921333 
L 805.929024 67.921333 
L 807.345097 87.004889 
L 808.761584 96.546667 
L 810.178189 96.546667 
L 811.59361 127.898222 
L 813.009026 146.981778 
L 814.426658 163.339111 
L 815.842232 163.339111 
L 817.257979 168.791556 
L 818.67433 176.970222 
L 820.090512 179.696444 
L 824.337502 179.696444 
L 825.753061 260.12 
L 899.590215 260.12 
L 900.981747 257.393778 
L 902.396909 257.393778 
L 903.811297 243.762667 
L 905.226275 223.316 
L 906.643768 216.500444 
L 908.058359 216.500444 
L 909.475916 208.321778 
L 912.308834 208.321778 
L 913.726189 197.416889 
L 916.561383 197.416889 
L 917.979962 193.327556 
L 922.226706 193.327556 
L 923.642637 189.238222 
L 925.059032 189.238222 
L 926.475099 191.964444 
L 927.890676 198.78 
L 929.306272 198.78 
L 930.72213 194.690667 
L 934.968951 194.690667 
L 936.383057 196.053778 
L 937.798483 196.053778 
L 939.214685 190.601333 
L 940.62947 200.143111 
L 942.04529 200.143111 
L 944.874777 202.869333 
L 946.289851 196.053778 
L 947.705439 196.053778 
L 949.120802 194.690667 
L 950.536437 197.416889 
L 951.953097 197.416889 
L 953.370397 190.601333 
L 954.786787 194.690667 
L 956.202573 194.690667 
L 957.618315 186.512 
L 959.034646 185.148889 
L 960.448963 185.148889 
L 961.863461 189.238222 
L 963.28104 182.422667 
L 964.695753 174.244 
L 966.111237 174.244 
L 967.526207 191.964444 
L 968.941901 191.964444 
L 970.357815 181.059556 
L 971.774536 164.702222 
L 973.189808 146.981778 
L 974.607886 146.981778 
L 976.02328 133.350667 
L 977.439081 130.624444 
L 978.853816 130.624444 
L 980.268829 140.166222 
L 981.684054 137.44 
L 983.101379 131.987556 
L 984.516889 131.987556 
L 985.931626 123.808889 
L 987.349487 123.808889 
L 988.767309 108.814667 
L 990.18314 101.999111 
L 991.597687 97.909778 
L 993.016548 97.909778 
L 994.432018 96.546667 
L 995.846438 96.546667 
L 997.261499 95.183556 
L 998.677049 104.725333 
L 1000.091863 119.719556 
L 1001.506524 119.719556 
L 1002.921636 121.082667 
L 1004.336231 123.808889 
L 1005.750408 123.808889 
L 1007.165434 134.713778 
L 1008.579848 140.166222 
L 1009.994989 140.166222 
L 1011.409731 155.160444 
L 1012.824206 161.976 
L 1014.242423 161.976 
L 1015.657379 163.339111 
L 1017.075002 167.428444 
L 1018.493091 167.428444 
L 1019.911602 179.696444 
L 1021.329728 260.12 
L 1100.738242 260.12 
L 1102.152193 250.578222 
L 1103.566849 246.488889 
L 1104.98391 238.310222 
L 1106.401075 238.310222 
L 1109.230106 224.679111 
L 1110.646011 224.679111 
L 1112.060292 220.589778 
L 1113.475252 211.048 
L 1114.890183 211.048 
L 1116.304898 206.958667 
L 1117.718972 200.143111 
L 1119.133046 200.143111 
L 1120.54724 191.964444 
L 1121.961166 186.512 
L 1123.374814 186.512 
L 1126.203908 178.333333 
L 1127.618444 171.517778 
L 1129.032483 171.517778 
L 1130.449415 164.702222 
L 1131.863138 164.702222 
L 1133.28 163.339111 
L 1133.28 163.339111 
" style="fill:none;stroke:#1f77b4;stroke-linecap:square;stroke-width:1.5;"/>
   </g>
   <g id="patch_3">
    <path d="M 33.64 260.12 
L 33.64 14.76 
" style="fill:none;stroke:#000000;stroke-linecap:square;stroke-linejoin:miter;stroke-width:0.8;"/>
   </g>
   <g id="patch_4">
    <path d="M 1133.28 260.12 
L 1133.28 14.76 
" style="fill:none;stroke:#000000;stroke-linecap:square;stroke-linejoin:miter;stroke-width:0.8;"/>
   </g>
   <g id="patch_5">
    <path d="M 33.64 260.12 
L 1133.28 260.12 
" style="fill:none;stroke:#000000;stroke-linecap:square;stroke-linejoin:miter;stroke-width:0.8;"/>
   </g>
   <g id="patch_6">
    <path d="M 33.64 14.76 
L 1133.28 14.76 
" style="fill:none;stroke:#000000;stroke-linecap:square;stroke-linejoin:miter;stroke-width:0.8;"/>
   </g>
  </g>
 </g>
 <defs>
  <clipPath id="p96b6726787">
   <rect height="245.36" width="1099.64" x="33.64" y="14.76"/>
  </clipPath>
 </defs>
</svg>
