<?xml version="1.0" encoding="utf-8" standalone="no"?>
<!DOCTYPE svg PUBLIC "-//W3C//DTD SVG 1.1//EN"
  "http://www.w3.org/Graphics/SVG/1.1/DTD/svg11.dtd">
<!-- Created with matplotlib (https://matplotlib.org/) -->
<svg height="288pt" version="1.1" viewBox="0 0 1152 288" width="1152pt" xmlns="http://www.w3.org/2000/svg" xmlns:xlink="http://www.w3.org/1999/xlink">
 <defs>
  <style type="text/css">
*{stroke-linecap:butt;stroke-linejoin:round;}
  </style>
 </defs>
 <g id="figure_1">
  <g id="patch_1">
   <path d="M 0 288 
L 1152 288 
L 1152 0 
L 0 0 
z
" style="fill:#ffffff;"/>
  </g>
  <g id="axes_1">
   <g id="patch_2">
    <path d="M 33.64 260.12 
L 1133.28 260.12 
L 1133.28 14.76 
L 33.64 14.76 
z
" style="fill:#ffffff;"/>
   </g>
   <g id="matplotlib.axis_1">
    <g id="xtick_1">
     <g id="line2d_1">
      <defs>
       <path d="M 0 0 
L 0 3.5 
" id="mf04c3de931" style="stroke:#000000;stroke-width:0.8;"/>
      </defs>
      <g>
       <use style="stroke:#000000;stroke-width:0.8;" x="197.813074" xlink:href="#mf04c3de931" y="260.12"/>
      </g>
     </g>
     <g id="text_1">
      <!-- Tue 00:00 -->
      <defs>
       <path d="M -0.296875 72.90625 
L 61.375 72.90625 
L 61.375 64.59375 
L 35.5 64.59375 
L 35.5 0 
L 25.59375 0 
L 25.59375 64.59375 
L -0.296875 64.59375 
z
" id="DejaVuSans-84"/>
       <path d="M 8.5 21.578125 
L 8.5 54.6875 
L 17.484375 54.6875 
L 17.484375 21.921875 
Q 17.484375 14.15625 20.5 10.265625 
Q 23.53125 6.390625 29.59375 6.390625 
Q 36.859375 6.390625 41.078125 11.03125 
Q 45.3125 15.671875 45.3125 23.6875 
L 45.3125 54.6875 
L 54.296875 54.6875 
L 54.296875 0 
L 45.3125 0 
L 45.3125 8.40625 
Q 42.046875 3.421875 37.71875 1 
Q 33.40625 -1.421875 27.6875 -1.421875 
Q 18.265625 -1.421875 13.375 4.4375 
Q 8.5 10.296875 8.5 21.578125 
z
M 31.109375 56 
z
" id="DejaVuSans-117"/>
       <path d="M 56.203125 29.59375 
L 56.203125 25.203125 
L 14.890625 25.203125 
Q 15.484375 15.921875 20.484375 11.0625 
Q 25.484375 6.203125 34.421875 6.203125 
Q 39.59375 6.203125 44.453125 7.46875 
Q 49.3125 8.734375 54.109375 11.28125 
L 54.109375 2.78125 
Q 49.265625 0.734375 44.1875 -0.34375 
Q 39.109375 -1.421875 33.890625 -1.421875 
Q 20.796875 -1.421875 13.15625 6.1875 
Q 5.515625 13.8125 5.515625 26.8125 
Q 5.515625 40.234375 12.765625 48.109375 
Q 20.015625 56 32.328125 56 
Q 43.359375 56 49.78125 48.890625 
Q 56.203125 41.796875 56.203125 29.59375 
z
M 47.21875 32.234375 
Q 47.125 39.59375 43.09375 43.984375 
Q 39.0625 48.390625 32.421875 48.390625 
Q 24.90625 48.390625 20.390625 44.140625 
Q 15.875 39.890625 15.1875 32.171875 
z
" id="DejaVuSans-101"/>
       <path id="DejaVuSans-32"/>
       <path d="M 31.78125 66.40625 
Q 24.171875 66.40625 20.328125 58.90625 
Q 16.5 51.421875 16.5 36.375 
Q 16.5 21.390625 20.328125 13.890625 
Q 24.171875 6.390625 31.78125 6.390625 
Q 39.453125 6.390625 43.28125 13.890625 
Q 47.125 21.390625 47.125 36.375 
Q 47.125 51.421875 43.28125 58.90625 
Q 39.453125 66.40625 31.78125 66.40625 
z
M 31.78125 74.21875 
Q 44.046875 74.21875 50.515625 64.515625 
Q 56.984375 54.828125 56.984375 36.375 
Q 56.984375 17.96875 50.515625 8.265625 
Q 44.046875 -1.421875 31.78125 -1.421875 
Q 19.53125 -1.421875 13.0625 8.265625 
Q 6.59375 17.96875 6.59375 36.375 
Q 6.59375 54.828125 13.0625 64.515625 
Q 19.53125 74.21875 31.78125 74.21875 
z
" id="DejaVuSans-48"/>
       <path d="M 11.71875 12.40625 
L 22.015625 12.40625 
L 22.015625 0 
L 11.71875 0 
z
M 11.71875 51.703125 
L 22.015625 51.703125 
L 22.015625 39.3125 
L 11.71875 39.3125 
z
" id="DejaVuSans-58"/>
      </defs>
      <g transform="translate(172.527136 274.718437)scale(0.1 -0.1)">
       <use xlink:href="#DejaVuSans-84"/>
       <use x="60.849609" xlink:href="#DejaVuSans-117"/>
       <use x="124.228516" xlink:href="#DejaVuSans-101"/>
       <use x="185.751953" xlink:href="#DejaVuSans-32"/>
       <use x="217.539062" xlink:href="#DejaVuSans-48"/>
       <use x="281.162109" xlink:href="#DejaVuSans-48"/>
       <use x="344.785156" xlink:href="#DejaVuSans-58"/>
       <use x="378.476562" xlink:href="#DejaVuSans-48"/>
       <use x="442.099609" xlink:href="#DejaVuSans-48"/>
      </g>
     </g>
    </g>
    <g id="xtick_2">
     <g id="line2d_2">
      <g>
       <use style="stroke:#000000;stroke-width:0.8;" x="362.059672" xlink:href="#mf04c3de931" y="260.12"/>
      </g>
     </g>
     <g id="text_2">
      <!-- Wed 00:00 -->
      <defs>
       <path d="M 3.328125 72.90625 
L 13.28125 72.90625 
L 28.609375 11.28125 
L 43.890625 72.90625 
L 54.984375 72.90625 
L 70.3125 11.28125 
L 85.59375 72.90625 
L 95.609375 72.90625 
L 77.296875 0 
L 64.890625 0 
L 49.515625 63.28125 
L 33.984375 0 
L 21.578125 0 
z
" id="DejaVuSans-87"/>
       <path d="M 45.40625 46.390625 
L 45.40625 75.984375 
L 54.390625 75.984375 
L 54.390625 0 
L 45.40625 0 
L 45.40625 8.203125 
Q 42.578125 3.328125 38.25 0.953125 
Q 33.9375 -1.421875 27.875 -1.421875 
Q 17.96875 -1.421875 11.734375 6.484375 
Q 5.515625 14.40625 5.515625 27.296875 
Q 5.515625 40.1875 11.734375 48.09375 
Q 17.96875 56 27.875 56 
Q 33.9375 56 38.25 53.625 
Q 42.578125 51.265625 45.40625 46.390625 
z
M 14.796875 27.296875 
Q 14.796875 17.390625 18.875 11.75 
Q 22.953125 6.109375 30.078125 6.109375 
Q 37.203125 6.109375 41.296875 11.75 
Q 45.40625 17.390625 45.40625 27.296875 
Q 45.40625 37.203125 41.296875 42.84375 
Q 37.203125 48.484375 30.078125 48.484375 
Q 22.953125 48.484375 18.875 42.84375 
Q 14.796875 37.203125 14.796875 27.296875 
z
" id="DejaVuSans-100"/>
      </defs>
      <g transform="translate(334.870609 274.718437)scale(0.1 -0.1)">
       <use xlink:href="#DejaVuSans-87"/>
       <use x="98.798828" xlink:href="#DejaVuSans-101"/>
       <use x="160.322266" xlink:href="#DejaVuSans-100"/>
       <use x="223.798828" xlink:href="#DejaVuSans-32"/>
       <use x="255.585938" xlink:href="#DejaVuSans-48"/>
       <use x="319.208984" xlink:href="#DejaVuSans-48"/>
       <use x="382.832031" xlink:href="#DejaVuSans-58"/>
       <use x="416.523438" xlink:href="#DejaVuSans-48"/>
       <use x="480.146484" xlink:href="#DejaVuSans-48"/>
      </g>
     </g>
    </g>
    <g id="xtick_3">
     <g id="line2d_3">
      <g>
       <use style="stroke:#000000;stroke-width:0.8;" x="526.30627" xlink:href="#mf04c3de931" y="260.12"/>
      </g>
     </g>
     <g id="text_3">
      <!-- Thu 00:00 -->
      <defs>
       <path d="M 54.890625 33.015625 
L 54.890625 0 
L 45.90625 0 
L 45.90625 32.71875 
Q 45.90625 40.484375 42.875 44.328125 
Q 39.84375 48.1875 33.796875 48.1875 
Q 26.515625 48.1875 22.3125 43.546875 
Q 18.109375 38.921875 18.109375 30.90625 
L 18.109375 0 
L 9.078125 0 
L 9.078125 75.984375 
L 18.109375 75.984375 
L 18.109375 46.1875 
Q 21.34375 51.125 25.703125 53.5625 
Q 30.078125 56 35.796875 56 
Q 45.21875 56 50.046875 50.171875 
Q 54.890625 44.34375 54.890625 33.015625 
z
" id="DejaVuSans-104"/>
      </defs>
      <g transform="translate(500.916426 274.718437)scale(0.1 -0.1)">
       <use xlink:href="#DejaVuSans-84"/>
       <use x="61.083984" xlink:href="#DejaVuSans-104"/>
       <use x="124.462891" xlink:href="#DejaVuSans-117"/>
       <use x="187.841797" xlink:href="#DejaVuSans-32"/>
       <use x="219.628906" xlink:href="#DejaVuSans-48"/>
       <use x="283.251953" xlink:href="#DejaVuSans-48"/>
       <use x="346.875" xlink:href="#DejaVuSans-58"/>
       <use x="380.566406" xlink:href="#DejaVuSans-48"/>
       <use x="444.189453" xlink:href="#DejaVuSans-48"/>
      </g>
     </g>
    </g>
    <g id="xtick_4">
     <g id="line2d_4">
      <g>
       <use style="stroke:#000000;stroke-width:0.8;" x="690.552868" xlink:href="#mf04c3de931" y="260.12"/>
      </g>
     </g>
     <g id="text_4">
      <!-- Fri 00:00 -->
      <defs>
       <path d="M 9.8125 72.90625 
L 51.703125 72.90625 
L 51.703125 64.59375 
L 19.671875 64.59375 
L 19.671875 43.109375 
L 48.578125 43.109375 
L 48.578125 34.8125 
L 19.671875 34.8125 
L 19.671875 0 
L 9.8125 0 
z
" id="DejaVuSans-70"/>
       <path d="M 41.109375 46.296875 
Q 39.59375 47.171875 37.8125 47.578125 
Q 36.03125 48 33.890625 48 
Q 26.265625 48 22.1875 43.046875 
Q 18.109375 38.09375 18.109375 28.8125 
L 18.109375 0 
L 9.078125 0 
L 9.078125 54.6875 
L 18.109375 54.6875 
L 18.109375 46.1875 
Q 20.953125 51.171875 25.484375 53.578125 
Q 30.03125 56 36.53125 56 
Q 37.453125 56 38.578125 55.875 
Q 39.703125 55.765625 41.0625 55.515625 
z
" id="DejaVuSans-114"/>
       <path d="M 9.421875 54.6875 
L 18.40625 54.6875 
L 18.40625 0 
L 9.421875 0 
z
M 9.421875 75.984375 
L 18.40625 75.984375 
L 18.40625 64.59375 
L 9.421875 64.59375 
z
" id="DejaVuSans-105"/>
      </defs>
      <g transform="translate(668.239586 274.718437)scale(0.1 -0.1)">
       <use xlink:href="#DejaVuSans-70"/>
       <use x="57.410156" xlink:href="#DejaVuSans-114"/>
       <use x="98.523438" xlink:href="#DejaVuSans-105"/>
       <use x="126.306641" xlink:href="#DejaVuSans-32"/>
       <use x="158.09375" xlink:href="#DejaVuSans-48"/>
       <use x="221.716797" xlink:href="#DejaVuSans-48"/>
       <use x="285.339844" xlink:href="#DejaVuSans-58"/>
       <use x="319.03125" xlink:href="#DejaVuSans-48"/>
       <use x="382.654297" xlink:href="#DejaVuSans-48"/>
      </g>
     </g>
    </g>
    <g id="xtick_5">
     <g id="line2d_5">
      <g>
       <use style="stroke:#000000;stroke-width:0.8;" x="854.799466" xlink:href="#mf04c3de931" y="260.12"/>
      </g>
     </g>
     <g id="text_5">
      <!-- Sat 00:00 -->
      <defs>
       <path d="M 53.515625 70.515625 
L 53.515625 60.890625 
Q 47.90625 63.578125 42.921875 64.890625 
Q 37.9375 66.21875 33.296875 66.21875 
Q 25.25 66.21875 20.875 63.09375 
Q 16.5 59.96875 16.5 54.203125 
Q 16.5 49.359375 19.40625 46.890625 
Q 22.3125 44.4375 30.421875 42.921875 
L 36.375 41.703125 
Q 47.40625 39.59375 52.65625 34.296875 
Q 57.90625 29 57.90625 20.125 
Q 57.90625 9.515625 50.796875 4.046875 
Q 43.703125 -1.421875 29.984375 -1.421875 
Q 24.8125 -1.421875 18.96875 -0.25 
Q 13.140625 0.921875 6.890625 3.21875 
L 6.890625 13.375 
Q 12.890625 10.015625 18.65625 8.296875 
Q 24.421875 6.59375 29.984375 6.59375 
Q 38.421875 6.59375 43.015625 9.90625 
Q 47.609375 13.234375 47.609375 19.390625 
Q 47.609375 24.75 44.3125 27.78125 
Q 41.015625 30.8125 33.5 32.328125 
L 27.484375 33.5 
Q 16.453125 35.6875 11.515625 40.375 
Q 6.59375 45.0625 6.59375 53.421875 
Q 6.59375 63.09375 13.40625 68.65625 
Q 20.21875 74.21875 32.171875 74.21875 
Q 37.3125 74.21875 42.625 73.28125 
Q 47.953125 72.359375 53.515625 70.515625 
z
" id="DejaVuSans-83"/>
       <path d="M 34.28125 27.484375 
Q 23.390625 27.484375 19.1875 25 
Q 14.984375 22.515625 14.984375 16.5 
Q 14.984375 11.71875 18.140625 8.90625 
Q 21.296875 6.109375 26.703125 6.109375 
Q 34.1875 6.109375 38.703125 11.40625 
Q 43.21875 16.703125 43.21875 25.484375 
L 43.21875 27.484375 
z
M 52.203125 31.203125 
L 52.203125 0 
L 43.21875 0 
L 43.21875 8.296875 
Q 40.140625 3.328125 35.546875 0.953125 
Q 30.953125 -1.421875 24.3125 -1.421875 
Q 15.921875 -1.421875 10.953125 3.296875 
Q 6 8.015625 6 15.921875 
Q 6 25.140625 12.171875 29.828125 
Q 18.359375 34.515625 30.609375 34.515625 
L 43.21875 34.515625 
L 43.21875 35.40625 
Q 43.21875 41.609375 39.140625 45 
Q 35.0625 48.390625 27.6875 48.390625 
Q 23 48.390625 18.546875 47.265625 
Q 14.109375 46.140625 10.015625 43.890625 
L 10.015625 52.203125 
Q 14.9375 54.109375 19.578125 55.046875 
Q 24.21875 56 28.609375 56 
Q 40.484375 56 46.34375 49.84375 
Q 52.203125 43.703125 52.203125 31.203125 
z
" id="DejaVuSans-97"/>
       <path d="M 18.3125 70.21875 
L 18.3125 54.6875 
L 36.8125 54.6875 
L 36.8125 47.703125 
L 18.3125 47.703125 
L 18.3125 18.015625 
Q 18.3125 11.328125 20.140625 9.421875 
Q 21.96875 7.515625 27.59375 7.515625 
L 36.8125 7.515625 
L 36.8125 0 
L 27.59375 0 
Q 17.1875 0 13.234375 3.875 
Q 9.28125 7.765625 9.28125 18.015625 
L 9.28125 47.703125 
L 2.6875 47.703125 
L 2.6875 54.6875 
L 9.28125 54.6875 
L 9.28125 70.21875 
z
" id="DejaVuSans-116"/>
      </defs>
      <g transform="translate(830.602591 274.718437)scale(0.1 -0.1)">
       <use xlink:href="#DejaVuSans-83"/>
       <use x="63.476562" xlink:href="#DejaVuSans-97"/>
       <use x="124.755859" xlink:href="#DejaVuSans-116"/>
       <use x="163.964844" xlink:href="#DejaVuSans-32"/>
       <use x="195.751953" xlink:href="#DejaVuSans-48"/>
       <use x="259.375" xlink:href="#DejaVuSans-48"/>
       <use x="322.998047" xlink:href="#DejaVuSans-58"/>
       <use x="356.689453" xlink:href="#DejaVuSans-48"/>
       <use x="420.3125" xlink:href="#DejaVuSans-48"/>
      </g>
     </g>
    </g>
    <g id="xtick_6">
     <g id="line2d_6">
      <g>
       <use style="stroke:#000000;stroke-width:0.8;" x="1019.046064" xlink:href="#mf04c3de931" y="260.12"/>
      </g>
     </g>
     <g id="text_6">
      <!-- Sun 00:00 -->
      <defs>
       <path d="M 54.890625 33.015625 
L 54.890625 0 
L 45.90625 0 
L 45.90625 32.71875 
Q 45.90625 40.484375 42.875 44.328125 
Q 39.84375 48.1875 33.796875 48.1875 
Q 26.515625 48.1875 22.3125 43.546875 
Q 18.109375 38.921875 18.109375 30.90625 
L 18.109375 0 
L 9.078125 0 
L 9.078125 54.6875 
L 18.109375 54.6875 
L 18.109375 46.1875 
Q 21.34375 51.125 25.703125 53.5625 
Q 30.078125 56 35.796875 56 
Q 45.21875 56 50.046875 50.171875 
Q 54.890625 44.34375 54.890625 33.015625 
z
" id="DejaVuSans-110"/>
      </defs>
      <g transform="translate(993.535907 274.718437)scale(0.1 -0.1)">
       <use xlink:href="#DejaVuSans-83"/>
       <use x="63.476562" xlink:href="#DejaVuSans-117"/>
       <use x="126.855469" xlink:href="#DejaVuSans-110"/>
       <use x="190.234375" xlink:href="#DejaVuSans-32"/>
       <use x="222.021484" xlink:href="#DejaVuSans-48"/>
       <use x="285.644531" xlink:href="#DejaVuSans-48"/>
       <use x="349.267578" xlink:href="#DejaVuSans-58"/>
       <use x="382.958984" xlink:href="#DejaVuSans-48"/>
       <use x="446.582031" xlink:href="#DejaVuSans-48"/>
      </g>
     </g>
    </g>
   </g>
   <g id="matplotlib.axis_2">
    <g id="ytick_1">
     <g id="line2d_7">
      <defs>
       <path d="M 0 0 
L -3.5 0 
" id="m7576cb57cd" style="stroke:#000000;stroke-width:0.8;"/>
      </defs>
      <g>
       <use style="stroke:#000000;stroke-width:0.8;" x="33.64" xlink:href="#m7576cb57cd" y="260.12"/>
      </g>
     </g>
     <g id="text_7">
      <!-- 0 -->
      <g transform="translate(20.2775 263.919219)scale(0.1 -0.1)">
       <use xlink:href="#DejaVuSans-48"/>
      </g>
     </g>
    </g>
    <g id="ytick_2">
     <g id="line2d_8">
      <g>
       <use style="stroke:#000000;stroke-width:0.8;" x="33.64" xlink:href="#m7576cb57cd" y="232.857778"/>
      </g>
     </g>
     <g id="text_8">
      <!-- 20 -->
      <defs>
       <path d="M 19.1875 8.296875 
L 53.609375 8.296875 
L 53.609375 0 
L 7.328125 0 
L 7.328125 8.296875 
Q 12.9375 14.109375 22.625 23.890625 
Q 32.328125 33.6875 34.8125 36.53125 
Q 39.546875 41.84375 41.421875 45.53125 
Q 43.3125 49.21875 43.3125 52.78125 
Q 43.3125 58.59375 39.234375 62.25 
Q 35.15625 65.921875 28.609375 65.921875 
Q 23.96875 65.921875 18.8125 64.3125 
Q 13.671875 62.703125 7.8125 59.421875 
L 7.8125 69.390625 
Q 13.765625 71.78125 18.9375 73 
Q 24.125 74.21875 28.421875 74.21875 
Q 39.75 74.21875 46.484375 68.546875 
Q 53.21875 62.890625 53.21875 53.421875 
Q 53.21875 48.921875 51.53125 44.890625 
Q 49.859375 40.875 45.40625 35.40625 
Q 44.1875 33.984375 37.640625 27.21875 
Q 31.109375 20.453125 19.1875 8.296875 
z
" id="DejaVuSans-50"/>
      </defs>
      <g transform="translate(13.915 236.656997)scale(0.1 -0.1)">
       <use xlink:href="#DejaVuSans-50"/>
       <use x="63.623047" xlink:href="#DejaVuSans-48"/>
      </g>
     </g>
    </g>
    <g id="ytick_3">
     <g id="line2d_9">
      <g>
       <use style="stroke:#000000;stroke-width:0.8;" x="33.64" xlink:href="#m7576cb57cd" y="205.595556"/>
      </g>
     </g>
     <g id="text_9">
      <!-- 40 -->
      <defs>
       <path d="M 37.796875 64.3125 
L 12.890625 25.390625 
L 37.796875 25.390625 
z
M 35.203125 72.90625 
L 47.609375 72.90625 
L 47.609375 25.390625 
L 58.015625 25.390625 
L 58.015625 17.1875 
L 47.609375 17.1875 
L 47.609375 0 
L 37.796875 0 
L 37.796875 17.1875 
L 4.890625 17.1875 
L 4.890625 26.703125 
z
" id="DejaVuSans-52"/>
      </defs>
      <g transform="translate(13.915 209.394774)scale(0.1 -0.1)">
       <use xlink:href="#DejaVuSans-52"/>
       <use x="63.623047" xlink:href="#DejaVuSans-48"/>
      </g>
     </g>
    </g>
    <g id="ytick_4">
     <g id="line2d_10">
      <g>
       <use style="stroke:#000000;stroke-width:0.8;" x="33.64" xlink:href="#m7576cb57cd" y="178.333333"/>
      </g>
     </g>
     <g id="text_10">
      <!-- 60 -->
      <defs>
       <path d="M 33.015625 40.375 
Q 26.375 40.375 22.484375 35.828125 
Q 18.609375 31.296875 18.609375 23.390625 
Q 18.609375 15.53125 22.484375 10.953125 
Q 26.375 6.390625 33.015625 6.390625 
Q 39.65625 6.390625 43.53125 10.953125 
Q 47.40625 15.53125 47.40625 23.390625 
Q 47.40625 31.296875 43.53125 35.828125 
Q 39.65625 40.375 33.015625 40.375 
z
M 52.59375 71.296875 
L 52.59375 62.3125 
Q 48.875 64.0625 45.09375 64.984375 
Q 41.3125 65.921875 37.59375 65.921875 
Q 27.828125 65.921875 22.671875 59.328125 
Q 17.53125 52.734375 16.796875 39.40625 
Q 19.671875 43.65625 24.015625 45.921875 
Q 28.375 48.1875 33.59375 48.1875 
Q 44.578125 48.1875 50.953125 41.515625 
Q 57.328125 34.859375 57.328125 23.390625 
Q 57.328125 12.15625 50.6875 5.359375 
Q 44.046875 -1.421875 33.015625 -1.421875 
Q 20.359375 -1.421875 13.671875 8.265625 
Q 6.984375 17.96875 6.984375 36.375 
Q 6.984375 53.65625 15.1875 63.9375 
Q 23.390625 74.21875 37.203125 74.21875 
Q 40.921875 74.21875 44.703125 73.484375 
Q 48.484375 72.75 52.59375 71.296875 
z
" id="DejaVuSans-54"/>
      </defs>
      <g transform="translate(13.915 182.132552)scale(0.1 -0.1)">
       <use xlink:href="#DejaVuSans-54"/>
       <use x="63.623047" xlink:href="#DejaVuSans-48"/>
      </g>
     </g>
    </g>
    <g id="ytick_5">
     <g id="line2d_11">
      <g>
       <use style="stroke:#000000;stroke-width:0.8;" x="33.64" xlink:href="#m7576cb57cd" y="151.071111"/>
      </g>
     </g>
     <g id="text_11">
      <!-- 80 -->
      <defs>
       <path d="M 31.78125 34.625 
Q 24.75 34.625 20.71875 30.859375 
Q 16.703125 27.09375 16.703125 20.515625 
Q 16.703125 13.921875 20.71875 10.15625 
Q 24.75 6.390625 31.78125 6.390625 
Q 38.8125 6.390625 42.859375 10.171875 
Q 46.921875 13.96875 46.921875 20.515625 
Q 46.921875 27.09375 42.890625 30.859375 
Q 38.875 34.625 31.78125 34.625 
z
M 21.921875 38.8125 
Q 15.578125 40.375 12.03125 44.71875 
Q 8.5 49.078125 8.5 55.328125 
Q 8.5 64.0625 14.71875 69.140625 
Q 20.953125 74.21875 31.78125 74.21875 
Q 42.671875 74.21875 48.875 69.140625 
Q 55.078125 64.0625 55.078125 55.328125 
Q 55.078125 49.078125 51.53125 44.71875 
Q 48 40.375 41.703125 38.8125 
Q 48.828125 37.15625 52.796875 32.3125 
Q 56.78125 27.484375 56.78125 20.515625 
Q 56.78125 9.90625 50.3125 4.234375 
Q 43.84375 -1.421875 31.78125 -1.421875 
Q 19.734375 -1.421875 13.25 4.234375 
Q 6.78125 9.90625 6.78125 20.515625 
Q 6.78125 27.484375 10.78125 32.3125 
Q 14.796875 37.15625 21.921875 38.8125 
z
M 18.3125 54.390625 
Q 18.3125 48.734375 21.84375 45.5625 
Q 25.390625 42.390625 31.78125 42.390625 
Q 38.140625 42.390625 41.71875 45.5625 
Q 45.3125 48.734375 45.3125 54.390625 
Q 45.3125 60.0625 41.71875 63.234375 
Q 38.140625 66.40625 31.78125 66.40625 
Q 25.390625 66.40625 21.84375 63.234375 
Q 18.3125 60.0625 18.3125 54.390625 
z
" id="DejaVuSans-56"/>
      </defs>
      <g transform="translate(13.915 154.87033)scale(0.1 -0.1)">
       <use xlink:href="#DejaVuSans-56"/>
       <use x="63.623047" xlink:href="#DejaVuSans-48"/>
      </g>
     </g>
    </g>
    <g id="ytick_6">
     <g id="line2d_12">
      <g>
       <use style="stroke:#000000;stroke-width:0.8;" x="33.64" xlink:href="#m7576cb57cd" y="123.808889"/>
      </g>
     </g>
     <g id="text_12">
      <!-- 100 -->
      <defs>
       <path d="M 12.40625 8.296875 
L 28.515625 8.296875 
L 28.515625 63.921875 
L 10.984375 60.40625 
L 10.984375 69.390625 
L 28.421875 72.90625 
L 38.28125 72.90625 
L 38.28125 8.296875 
L 54.390625 8.296875 
L 54.390625 0 
L 12.40625 0 
z
" id="DejaVuSans-49"/>
      </defs>
      <g transform="translate(7.5525 127.608108)scale(0.1 -0.1)">
       <use xlink:href="#DejaVuSans-49"/>
       <use x="63.623047" xlink:href="#DejaVuSans-48"/>
       <use x="127.246094" xlink:href="#DejaVuSans-48"/>
      </g>
     </g>
    </g>
    <g id="ytick_7">
     <g id="line2d_13">
      <g>
       <use style="stroke:#000000;stroke-width:0.8;" x="33.64" xlink:href="#m7576cb57cd" y="96.546667"/>
      </g>
     </g>
     <g id="text_13">
      <!-- 120 -->
      <g transform="translate(7.5525 100.345885)scale(0.1 -0.1)">
       <use xlink:href="#DejaVuSans-49"/>
       <use x="63.623047" xlink:href="#DejaVuSans-50"/>
       <use x="127.246094" xlink:href="#DejaVuSans-48"/>
      </g>
     </g>
    </g>
    <g id="ytick_8">
     <g id="line2d_14">
      <g>
       <use style="stroke:#000000;stroke-width:0.8;" x="33.64" xlink:href="#m7576cb57cd" y="69.284444"/>
      </g>
     </g>
     <g id="text_14">
      <!-- 140 -->
      <g transform="translate(7.5525 73.083663)scale(0.1 -0.1)">
       <use xlink:href="#DejaVuSans-49"/>
       <use x="63.623047" xlink:href="#DejaVuSans-52"/>
       <use x="127.246094" xlink:href="#DejaVuSans-48"/>
      </g>
     </g>
    </g>
    <g id="ytick_9">
     <g id="line2d_15">
      <g>
       <use style="stroke:#000000;stroke-width:0.8;" x="33.64" xlink:href="#m7576cb57cd" y="42.022222"/>
      </g>
     </g>
     <g id="text_15">
      <!-- 160 -->
      <g transform="translate(7.5525 45.821441)scale(0.1 -0.1)">
       <use xlink:href="#DejaVuSans-49"/>
       <use x="63.623047" xlink:href="#DejaVuSans-54"/>
       <use x="127.246094" xlink:href="#DejaVuSans-48"/>
      </g>
     </g>
    </g>
    <g id="ytick_10">
     <g id="line2d_16">
      <g>
       <use style="stroke:#000000;stroke-width:0.8;" x="33.64" xlink:href="#m7576cb57cd" y="14.76"/>
      </g>
     </g>
     <g id="text_16">
      <!-- 180 -->
      <g transform="translate(7.5525 18.559219)scale(0.1 -0.1)">
       <use xlink:href="#DejaVuSans-49"/>
       <use x="63.623047" xlink:href="#DejaVuSans-56"/>
       <use x="127.246094" xlink:href="#DejaVuSans-48"/>
      </g>
     </g>
    </g>
   </g>
   <g id="line2d_17">
    <path clip-path="url(#p0e9f3f6941)" d="M 33.64 260.12 
L 94.808786 260.12 
L 95.962827 257.393778 
L 97.139478 257.393778 
L 98.312329 253.304444 
L 99.484973 251.941333 
L 100.660352 249.215111 
L 101.834209 249.215111 
L 103.00972 246.488889 
L 104.183692 242.399556 
L 105.356924 242.399556 
L 106.530744 236.947111 
L 107.706052 235.584 
L 108.880657 235.584 
L 110.056053 232.857778 
L 111.22876 228.768444 
L 113.576137 228.768444 
L 114.749026 224.679111 
L 115.923182 221.952889 
L 117.097348 221.952889 
L 118.273625 219.226667 
L 119.44795 219.226667 
L 120.623104 221.952889 
L 121.795722 228.768444 
L 124.140794 228.768444 
L 126.48646 239.673333 
L 127.663087 239.673333 
L 128.837643 238.310222 
L 130.013238 235.584 
L 131.185848 235.584 
L 132.358557 227.405333 
L 133.530923 226.042222 
L 134.704115 223.316 
L 135.876754 223.316 
L 137.051865 221.952889 
L 139.398221 221.952889 
L 140.573155 209.684889 
L 141.7458 209.684889 
L 142.919569 208.321778 
L 144.092678 198.78 
L 145.26855 197.416889 
L 146.441618 197.416889 
L 147.614644 191.964444 
L 149.961074 191.964444 
L 151.136432 187.875111 
L 152.309153 189.238222 
L 153.482175 189.238222 
L 154.655097 174.244 
L 155.828494 166.065333 
L 157.00241 166.065333 
L 158.177506 141.529333 
L 159.353213 126.535111 
L 160.527635 126.535111 
L 164.052727 63.832 
L 165.228289 63.832 
L 166.403529 61.105778 
L 167.578625 61.105778 
L 168.754126 57.016444 
L 169.930461 76.1 
L 171.106567 84.278667 
L 172.282155 84.278667 
L 173.455707 87.004889 
L 175.801883 87.004889 
L 176.975601 92.457333 
L 178.148814 100.636 
L 179.323935 101.999111 
L 180.499079 101.999111 
L 181.672255 116.993333 
L 182.84566 116.993333 
L 184.019636 133.350667 
L 185.193214 157.886667 
L 186.367006 166.065333 
L 187.541197 166.065333 
L 188.714394 176.970222 
L 189.887995 190.601333 
L 192.237475 190.601333 
L 193.411414 260.12 
L 259.274868 260.12 
L 260.428934 258.756889 
L 261.60265 245.125778 
L 262.775668 245.125778 
L 263.947993 236.947111 
L 265.123815 236.947111 
L 266.297034 232.857778 
L 267.470058 227.405333 
L 268.643049 227.405333 
L 269.817226 224.679111 
L 270.991878 223.316 
L 274.515428 223.316 
L 275.688401 227.405333 
L 276.864095 227.405333 
L 278.042141 234.220889 
L 279.215126 235.584 
L 281.565102 235.584 
L 282.740393 232.857778 
L 283.914799 232.857778 
L 285.08752 228.768444 
L 286.260523 234.220889 
L 287.432891 231.494667 
L 288.609375 231.494667 
L 289.782124 232.857778 
L 290.954834 230.131556 
L 292.127941 230.131556 
L 293.300824 228.768444 
L 295.648643 215.137333 
L 296.822181 215.137333 
L 297.99562 204.232444 
L 299.168505 204.232444 
L 300.342189 208.321778 
L 301.514959 204.232444 
L 302.687519 204.232444 
L 303.860126 202.869333 
L 305.032742 206.958667 
L 306.207701 206.958667 
L 307.390108 201.506222 
L 308.564648 202.869333 
L 309.737607 193.327556 
L 310.911052 193.327556 
L 312.085333 179.696444 
L 313.261006 168.791556 
L 314.435081 168.791556 
L 315.611066 152.434222 
L 316.786892 130.624444 
L 317.959383 121.082667 
L 319.133558 121.082667 
L 320.306653 104.725333 
L 321.480294 99.272889 
L 322.653618 99.272889 
L 323.827604 82.915556 
L 325.002542 82.915556 
L 326.175738 69.284444 
L 327.349966 63.832 
L 328.523784 51.564 
L 329.697658 51.564 
L 330.870764 58.379556 
L 332.044664 37.932889 
L 333.219527 37.932889 
L 334.392414 46.111556 
L 335.566164 32.480444 
L 336.73991 32.480444 
L 337.913635 36.569778 
L 339.086278 31.117333 
L 340.260182 31.117333 
L 341.434141 29.754222 
L 342.609483 44.748444 
L 343.783203 63.832 
L 344.957174 63.832 
L 346.13072 77.463111 
L 347.306565 92.457333 
L 348.479712 92.457333 
L 349.653114 101.999111 
L 350.826826 108.814667 
L 352.000165 108.814667 
L 353.174662 134.713778 
L 354.348573 136.076889 
L 355.521938 136.076889 
L 356.695984 142.892444 
L 357.869672 260.12 
L 423.732473 260.12 
L 424.905719 258.756889 
L 426.078926 246.488889 
L 427.254064 246.488889 
L 428.426678 235.584 
L 429.599762 228.768444 
L 430.773483 220.589778 
L 431.946435 220.589778 
L 433.120468 215.137333 
L 434.295518 215.137333 
L 436.644052 204.232444 
L 437.819203 211.048 
L 438.993163 211.048 
L 441.340998 205.595556 
L 442.514425 205.595556 
L 443.688296 211.048 
L 444.862127 211.048 
L 446.037399 224.679111 
L 447.21066 224.679111 
L 448.384395 220.589778 
L 449.557819 220.589778 
L 450.735559 223.316 
L 451.90889 221.952889 
L 453.084639 221.952889 
L 454.259395 227.405333 
L 455.433101 223.316 
L 456.606812 223.316 
L 458.957146 215.137333 
L 460.132004 215.137333 
L 461.307127 212.411111 
L 462.481205 211.048 
L 463.655126 205.595556 
L 464.828578 205.595556 
L 466.002997 201.506222 
L 467.176558 200.143111 
L 468.350079 200.143111 
L 469.523897 197.416889 
L 470.697887 198.78 
L 471.871829 198.78 
L 473.045513 189.238222 
L 474.219166 183.785778 
L 475.393567 174.244 
L 476.56627 175.607111 
L 477.74428 172.880889 
L 478.918453 172.880889 
L 480.093095 167.428444 
L 481.27026 152.434222 
L 482.443292 144.255556 
L 483.61618 144.255556 
L 484.79003 121.082667 
L 485.964342 103.362222 
L 487.138584 103.362222 
L 488.31465 76.1 
L 489.488203 54.290222 
L 490.660624 54.290222 
L 491.833509 35.206667 
L 493.009801 32.480444 
L 494.18275 32.480444 
L 495.355863 28.391111 
L 496.53086 39.296 
L 497.706635 39.296 
L 498.879154 40.659111 
L 500.054566 54.290222 
L 501.233408 63.832 
L 502.407635 63.832 
L 504.758254 108.814667 
L 505.934525 108.814667 
L 507.109634 126.535111 
L 508.28396 141.529333 
L 509.458053 160.612889 
L 510.632189 160.612889 
L 511.805576 172.880889 
L 512.979459 172.880889 
L 514.154995 189.238222 
L 516.503814 200.143111 
L 517.678038 200.143111 
L 518.852627 201.506222 
L 523.547756 201.506222 
L 524.722306 260.12 
L 587.093651 260.12 
L 588.248019 257.393778 
L 589.421386 257.393778 
L 590.596833 249.215111 
L 591.769644 249.215111 
L 592.942112 247.852 
L 594.114584 239.673333 
L 596.460892 239.673333 
L 598.80944 234.220889 
L 599.982205 234.220889 
L 601.155323 238.310222 
L 602.328695 239.673333 
L 603.501127 239.673333 
L 605.847405 236.947111 
L 607.020333 236.947111 
L 608.193725 235.584 
L 609.366957 231.494667 
L 610.539403 232.857778 
L 612.88854 232.857778 
L 614.061231 234.220889 
L 615.235243 234.220889 
L 616.407809 227.405333 
L 617.581299 223.316 
L 618.75432 223.316 
L 619.929624 217.863556 
L 622.276106 217.863556 
L 623.449254 215.137333 
L 624.623371 217.863556 
L 625.79892 217.863556 
L 626.972647 228.768444 
L 628.148428 226.042222 
L 629.323503 219.226667 
L 630.496593 219.226667 
L 631.670429 215.137333 
L 632.845754 209.684889 
L 634.020275 209.684889 
L 635.193593 206.958667 
L 636.371016 206.958667 
L 637.546284 201.506222 
L 638.719696 204.232444 
L 639.894971 190.601333 
L 641.068416 190.601333 
L 642.242181 171.517778 
L 643.416616 161.976 
L 644.591476 161.976 
L 645.766705 144.255556 
L 646.940897 122.445778 
L 648.116102 122.445778 
L 649.289785 100.636 
L 650.463585 101.999111 
L 651.637446 91.094222 
L 652.81251 91.094222 
L 653.985968 88.368 
L 655.159624 72.010667 
L 656.333379 72.010667 
L 657.507265 50.200889 
L 658.681433 35.206667 
L 659.855429 35.206667 
L 661.029276 40.659111 
L 662.202885 31.117333 
L 663.376942 31.117333 
L 664.550998 39.296 
L 665.725387 50.200889 
L 666.898635 50.200889 
L 668.072454 51.564 
L 670.420119 67.921333 
L 673.940865 67.921333 
L 675.114923 87.004889 
L 676.289325 96.546667 
L 677.463826 96.546667 
L 678.637343 127.898222 
L 679.810858 146.981778 
L 680.986209 163.339111 
L 682.159855 163.339111 
L 683.333643 168.791556 
L 684.507932 176.970222 
L 685.682081 179.696444 
L 689.203239 179.696444 
L 690.376871 260.12 
L 751.594877 260.12 
L 752.748589 257.393778 
L 753.921893 257.393778 
L 755.094554 243.762667 
L 756.267705 223.316 
L 757.442942 216.500444 
L 758.615771 216.500444 
L 759.791061 208.321778 
L 762.139819 208.321778 
L 763.31494 197.416889 
L 765.665585 197.416889 
L 766.841722 193.327556 
L 770.362675 193.327556 
L 771.536617 189.238222 
L 772.710942 189.238222 
L 773.884996 191.964444 
L 775.058644 198.78 
L 776.232307 198.78 
L 777.406188 194.690667 
L 780.927206 194.690667 
L 782.099633 196.053778 
L 783.273156 196.053778 
L 784.447321 190.601333 
L 785.620312 200.143111 
L 786.794161 200.143111 
L 789.140075 202.869333 
L 790.313305 196.053778 
L 791.486962 196.053778 
L 792.660433 194.690667 
L 793.834128 197.416889 
L 795.008673 197.416889 
L 796.18375 190.601333 
L 797.358072 194.690667 
L 798.531892 194.690667 
L 799.705677 186.512 
L 800.879949 185.148889 
L 802.052552 185.148889 
L 803.225305 189.238222 
L 804.400613 182.422667 
L 805.573544 174.244 
L 806.747115 174.244 
L 807.920259 191.964444 
L 809.094004 191.964444 
L 810.267931 181.059556 
L 812.615921 146.981778 
L 813.791643 146.981778 
L 814.965138 133.350667 
L 816.138972 130.624444 
L 817.311921 130.624444 
L 818.485101 140.166222 
L 819.658458 137.44 
L 820.833554 131.987556 
L 822.007146 131.987556 
L 823.180097 123.808889 
L 824.355639 123.808889 
L 825.531147 108.814667 
L 826.705006 101.999111 
L 827.8778 97.909778 
L 829.05417 97.909778 
L 830.227729 96.546667 
L 831.400417 96.546667 
L 832.573637 95.183556 
L 833.747262 104.725333 
L 834.920277 119.719556 
L 836.093165 119.719556 
L 837.266428 121.082667 
L 838.439261 123.808889 
L 839.611748 123.808889 
L 840.784939 134.713778 
L 841.957622 140.166222 
L 843.130908 140.166222 
L 844.303864 155.160444 
L 845.476598 161.976 
L 846.652434 161.976 
L 847.825566 163.339111 
L 849.00091 167.428444 
L 850.176641 167.428444 
L 851.352721 179.696444 
L 852.528482 260.12 
L 918.365674 260.12 
L 919.537973 250.578222 
L 920.710857 246.488889 
L 921.885735 238.310222 
L 923.060699 238.310222 
L 925.406234 224.679111 
L 926.580154 224.679111 
L 927.752727 220.589778 
L 928.925863 211.048 
L 930.098975 211.048 
L 931.271908 206.958667 
L 932.44431 200.143111 
L 933.616711 200.143111 
L 934.789212 191.964444 
L 935.961491 186.512 
L 937.133539 186.512 
L 939.479126 178.333333 
L 940.651911 171.517778 
L 941.824284 171.517778 
L 942.999055 164.702222 
L 944.171165 164.702222 
L 945.345878 163.339111 
L 946.519254 151.071111 
L 947.693306 153.797333 
L 948.866517 153.797333 
L 950.038827 148.344889 
L 951.213683 146.981778 
L 952.388704 146.981778 
L 953.561654 149.708 
L 954.736586 153.797333 
L 955.908663 166.065333 
L 957.081622 166.065333 
L 958.254225 171.517778 
L 959.427571 171.517778 
L 960.600922 178.333333 
L 961.773663 176.970222 
L 964.121277 176.970222 
L 965.29367 178.333333 
L 966.469058 187.875111 
L 967.642012 187.875111 
L 968.814165 178.333333 
L 969.987378 178.333333 
L 971.16187 166.065333 
L 972.335313 176.970222 
L 973.509745 174.244 
L 975.856207 174.244 
L 977.028188 166.065333 
L 978.202956 166.065333 
L 979.37821 170.154667 
L 980.552426 168.791556 
L 981.726912 171.517778 
L 982.901 171.517778 
L 984.075471 157.886667 
L 985.247598 167.428444 
L 986.422255 167.428444 
L 987.594977 164.702222 
L 988.769898 164.702222 
L 989.94332 156.523556 
L 991.11588 202.869333 
L 992.29128 202.869333 
L 993.464707 194.690667 
L 994.639242 191.964444 
L 995.814446 197.416889 
L 996.989055 197.416889 
L 999.335045 202.869333 
L 1000.509538 209.684889 
L 1001.681794 209.684889 
L 1002.856556 208.321778 
L 1004.029527 208.321778 
L 1005.203752 212.411111 
L 1006.378209 215.137333 
L 1008.725914 215.137333 
L 1009.898634 217.863556 
L 1011.073857 226.042222 
L 1013.41792 226.042222 
L 1014.591392 260.12 
L 1082.775418 260.12 
L 1083.95079 251.941333 
L 1085.127044 247.852 
L 1086.301922 235.584 
L 1087.477263 235.584 
L 1088.650255 212.411111 
L 1089.822648 205.595556 
L 1090.99529 205.595556 
L 1092.168742 187.875111 
L 1094.517307 156.523556 
L 1095.692137 156.523556 
L 1096.866681 138.803111 
L 1098.04214 138.803111 
L 1099.214604 126.535111 
L 1100.389932 137.44 
L 1101.592072 137.44 
L 1102.766529 141.529333 
L 1103.939153 137.44 
L 1105.111991 137.44 
L 1106.284613 141.529333 
L 1107.459856 148.344889 
L 1108.63253 145.618667 
L 1109.808686 145.618667 
L 1110.98137 144.255556 
L 1112.154383 130.624444 
L 1113.327066 130.624444 
L 1114.500253 127.898222 
L 1115.672908 131.987556 
L 1116.847893 131.987556 
L 1118.021013 137.44 
L 1119.193419 141.529333 
L 1120.366189 141.529333 
L 1121.538482 127.898222 
L 1122.710943 122.445778 
L 1123.883982 123.808889 
L 1125.059429 123.808889 
L 1126.234679 125.172 
L 1127.409223 130.624444 
L 1128.584656 130.624444 
L 1129.759475 136.076889 
L 1130.933838 138.803111 
L 1133.28 138.803111 
L 1133.28 138.803111 
" style="fill:none;stroke:#1f77b4;stroke-linecap:square;stroke-width:1.5;"/>
   </g>
   <g id="patch_3">
    <path d="M 33.64 260.12 
L 33.64 14.76 
" style="fill:none;stroke:#000000;stroke-linecap:square;stroke-linejoin:miter;stroke-width:0.8;"/>
   </g>
   <g id="patch_4">
    <path d="M 1133.28 260.12 
L 1133.28 14.76 
" style="fill:none;stroke:#000000;stroke-linecap:square;stroke-linejoin:miter;stroke-width:0.8;"/>
   </g>
   <g id="patch_5">
    <path d="M 33.64 260.12 
L 1133.28 260.12 
" style="fill:none;stroke:#000000;stroke-linecap:square;stroke-linejoin:miter;stroke-width:0.8;"/>
   </g>
   <g id="patch_6">
    <path d="M 33.64 14.76 
L 1133.28 14.76 
" style="fill:none;stroke:#000000;stroke-linecap:square;stroke-linejoin:miter;stroke-width:0.8;"/>
   </g>
  </g>
 </g>
 <defs>
  <clipPath id="p0e9f3f6941">
   <rect height="245.36" width="1099.64" x="33.64" y="14.76"/>
  </clipPath>
 </defs>
</svg>
