<?xml version="1.0" encoding="utf-8" standalone="no"?>
<!DOCTYPE svg PUBLIC "-//W3C//DTD SVG 1.1//EN"
  "http://www.w3.org/Graphics/SVG/1.1/DTD/svg11.dtd">
<!-- Created with matplotlib (https://matplotlib.org/) -->
<svg height="288pt" version="1.1" viewBox="0 0 1152 288" width="1152pt" xmlns="http://www.w3.org/2000/svg" xmlns:xlink="http://www.w3.org/1999/xlink">
 <defs>
  <style type="text/css">
*{stroke-linecap:butt;stroke-linejoin:round;}
  </style>
 </defs>
 <g id="figure_1">
  <g id="patch_1">
   <path d="M 0 288 
L 1152 288 
L 1152 0 
L 0 0 
z
" style="fill:#ffffff;"/>
  </g>
  <g id="axes_1">
   <g id="patch_2">
    <path d="M 33.64 260.12 
L 1133.28 260.12 
L 1133.28 14.76 
L 33.64 14.76 
z
" style="fill:#ffffff;"/>
   </g>
   <g id="matplotlib.axis_1">
    <g id="xtick_1">
     <g id="line2d_1">
      <defs>
       <path d="M 0 0 
L 0 3.5 
" id="m1b081a645e" style="stroke:#000000;stroke-width:0.8;"/>
      </defs>
      <g>
       <use style="stroke:#000000;stroke-width:0.8;" x="196.718843" xlink:href="#m1b081a645e" y="260.12"/>
      </g>
     </g>
     <g id="text_1">
      <!-- Tue 00:00 -->
      <defs>
       <path d="M -0.296875 72.90625 
L 61.375 72.90625 
L 61.375 64.59375 
L 35.5 64.59375 
L 35.5 0 
L 25.59375 0 
L 25.59375 64.59375 
L -0.296875 64.59375 
z
" id="DejaVuSans-84"/>
       <path d="M 8.5 21.578125 
L 8.5 54.6875 
L 17.484375 54.6875 
L 17.484375 21.921875 
Q 17.484375 14.15625 20.5 10.265625 
Q 23.53125 6.390625 29.59375 6.390625 
Q 36.859375 6.390625 41.078125 11.03125 
Q 45.3125 15.671875 45.3125 23.6875 
L 45.3125 54.6875 
L 54.296875 54.6875 
L 54.296875 0 
L 45.3125 0 
L 45.3125 8.40625 
Q 42.046875 3.421875 37.71875 1 
Q 33.40625 -1.421875 27.6875 -1.421875 
Q 18.265625 -1.421875 13.375 4.4375 
Q 8.5 10.296875 8.5 21.578125 
z
M 31.109375 56 
z
" id="DejaVuSans-117"/>
       <path d="M 56.203125 29.59375 
L 56.203125 25.203125 
L 14.890625 25.203125 
Q 15.484375 15.921875 20.484375 11.0625 
Q 25.484375 6.203125 34.421875 6.203125 
Q 39.59375 6.203125 44.453125 7.46875 
Q 49.3125 8.734375 54.109375 11.28125 
L 54.109375 2.78125 
Q 49.265625 0.734375 44.1875 -0.34375 
Q 39.109375 -1.421875 33.890625 -1.421875 
Q 20.796875 -1.421875 13.15625 6.1875 
Q 5.515625 13.8125 5.515625 26.8125 
Q 5.515625 40.234375 12.765625 48.109375 
Q 20.015625 56 32.328125 56 
Q 43.359375 56 49.78125 48.890625 
Q 56.203125 41.796875 56.203125 29.59375 
z
M 47.21875 32.234375 
Q 47.125 39.59375 43.09375 43.984375 
Q 39.0625 48.390625 32.421875 48.390625 
Q 24.90625 48.390625 20.390625 44.140625 
Q 15.875 39.890625 15.1875 32.171875 
z
" id="DejaVuSans-101"/>
       <path id="DejaVuSans-32"/>
       <path d="M 31.78125 66.40625 
Q 24.171875 66.40625 20.328125 58.90625 
Q 16.5 51.421875 16.5 36.375 
Q 16.5 21.390625 20.328125 13.890625 
Q 24.171875 6.390625 31.78125 6.390625 
Q 39.453125 6.390625 43.28125 13.890625 
Q 47.125 21.390625 47.125 36.375 
Q 47.125 51.421875 43.28125 58.90625 
Q 39.453125 66.40625 31.78125 66.40625 
z
M 31.78125 74.21875 
Q 44.046875 74.21875 50.515625 64.515625 
Q 56.984375 54.828125 56.984375 36.375 
Q 56.984375 17.96875 50.515625 8.265625 
Q 44.046875 -1.421875 31.78125 -1.421875 
Q 19.53125 -1.421875 13.0625 8.265625 
Q 6.59375 17.96875 6.59375 36.375 
Q 6.59375 54.828125 13.0625 64.515625 
Q 19.53125 74.21875 31.78125 74.21875 
z
" id="DejaVuSans-48"/>
       <path d="M 11.71875 12.40625 
L 22.015625 12.40625 
L 22.015625 0 
L 11.71875 0 
z
M 11.71875 51.703125 
L 22.015625 51.703125 
L 22.015625 39.3125 
L 11.71875 39.3125 
z
" id="DejaVuSans-58"/>
      </defs>
      <g transform="translate(171.432905 274.718437)scale(0.1 -0.1)">
       <use xlink:href="#DejaVuSans-84"/>
       <use x="60.849609" xlink:href="#DejaVuSans-117"/>
       <use x="124.228516" xlink:href="#DejaVuSans-101"/>
       <use x="185.751953" xlink:href="#DejaVuSans-32"/>
       <use x="217.539062" xlink:href="#DejaVuSans-48"/>
       <use x="281.162109" xlink:href="#DejaVuSans-48"/>
       <use x="344.785156" xlink:href="#DejaVuSans-58"/>
       <use x="378.476562" xlink:href="#DejaVuSans-48"/>
       <use x="442.099609" xlink:href="#DejaVuSans-48"/>
      </g>
     </g>
    </g>
    <g id="xtick_2">
     <g id="line2d_2">
      <g>
       <use style="stroke:#000000;stroke-width:0.8;" x="360.391215" xlink:href="#m1b081a645e" y="260.12"/>
      </g>
     </g>
     <g id="text_2">
      <!-- Wed 00:00 -->
      <defs>
       <path d="M 3.328125 72.90625 
L 13.28125 72.90625 
L 28.609375 11.28125 
L 43.890625 72.90625 
L 54.984375 72.90625 
L 70.3125 11.28125 
L 85.59375 72.90625 
L 95.609375 72.90625 
L 77.296875 0 
L 64.890625 0 
L 49.515625 63.28125 
L 33.984375 0 
L 21.578125 0 
z
" id="DejaVuSans-87"/>
       <path d="M 45.40625 46.390625 
L 45.40625 75.984375 
L 54.390625 75.984375 
L 54.390625 0 
L 45.40625 0 
L 45.40625 8.203125 
Q 42.578125 3.328125 38.25 0.953125 
Q 33.9375 -1.421875 27.875 -1.421875 
Q 17.96875 -1.421875 11.734375 6.484375 
Q 5.515625 14.40625 5.515625 27.296875 
Q 5.515625 40.1875 11.734375 48.09375 
Q 17.96875 56 27.875 56 
Q 33.9375 56 38.25 53.625 
Q 42.578125 51.265625 45.40625 46.390625 
z
M 14.796875 27.296875 
Q 14.796875 17.390625 18.875 11.75 
Q 22.953125 6.109375 30.078125 6.109375 
Q 37.203125 6.109375 41.296875 11.75 
Q 45.40625 17.390625 45.40625 27.296875 
Q 45.40625 37.203125 41.296875 42.84375 
Q 37.203125 48.484375 30.078125 48.484375 
Q 22.953125 48.484375 18.875 42.84375 
Q 14.796875 37.203125 14.796875 27.296875 
z
" id="DejaVuSans-100"/>
      </defs>
      <g transform="translate(333.202152 274.718437)scale(0.1 -0.1)">
       <use xlink:href="#DejaVuSans-87"/>
       <use x="98.798828" xlink:href="#DejaVuSans-101"/>
       <use x="160.322266" xlink:href="#DejaVuSans-100"/>
       <use x="223.798828" xlink:href="#DejaVuSans-32"/>
       <use x="255.585938" xlink:href="#DejaVuSans-48"/>
       <use x="319.208984" xlink:href="#DejaVuSans-48"/>
       <use x="382.832031" xlink:href="#DejaVuSans-58"/>
       <use x="416.523438" xlink:href="#DejaVuSans-48"/>
       <use x="480.146484" xlink:href="#DejaVuSans-48"/>
      </g>
     </g>
    </g>
    <g id="xtick_3">
     <g id="line2d_3">
      <g>
       <use style="stroke:#000000;stroke-width:0.8;" x="524.063587" xlink:href="#m1b081a645e" y="260.12"/>
      </g>
     </g>
     <g id="text_3">
      <!-- Thu 00:00 -->
      <defs>
       <path d="M 54.890625 33.015625 
L 54.890625 0 
L 45.90625 0 
L 45.90625 32.71875 
Q 45.90625 40.484375 42.875 44.328125 
Q 39.84375 48.1875 33.796875 48.1875 
Q 26.515625 48.1875 22.3125 43.546875 
Q 18.109375 38.921875 18.109375 30.90625 
L 18.109375 0 
L 9.078125 0 
L 9.078125 75.984375 
L 18.109375 75.984375 
L 18.109375 46.1875 
Q 21.34375 51.125 25.703125 53.5625 
Q 30.078125 56 35.796875 56 
Q 45.21875 56 50.046875 50.171875 
Q 54.890625 44.34375 54.890625 33.015625 
z
" id="DejaVuSans-104"/>
      </defs>
      <g transform="translate(498.673743 274.718437)scale(0.1 -0.1)">
       <use xlink:href="#DejaVuSans-84"/>
       <use x="61.083984" xlink:href="#DejaVuSans-104"/>
       <use x="124.462891" xlink:href="#DejaVuSans-117"/>
       <use x="187.841797" xlink:href="#DejaVuSans-32"/>
       <use x="219.628906" xlink:href="#DejaVuSans-48"/>
       <use x="283.251953" xlink:href="#DejaVuSans-48"/>
       <use x="346.875" xlink:href="#DejaVuSans-58"/>
       <use x="380.566406" xlink:href="#DejaVuSans-48"/>
       <use x="444.189453" xlink:href="#DejaVuSans-48"/>
      </g>
     </g>
    </g>
    <g id="xtick_4">
     <g id="line2d_4">
      <g>
       <use style="stroke:#000000;stroke-width:0.8;" x="687.735959" xlink:href="#m1b081a645e" y="260.12"/>
      </g>
     </g>
     <g id="text_4">
      <!-- Fri 00:00 -->
      <defs>
       <path d="M 9.8125 72.90625 
L 51.703125 72.90625 
L 51.703125 64.59375 
L 19.671875 64.59375 
L 19.671875 43.109375 
L 48.578125 43.109375 
L 48.578125 34.8125 
L 19.671875 34.8125 
L 19.671875 0 
L 9.8125 0 
z
" id="DejaVuSans-70"/>
       <path d="M 41.109375 46.296875 
Q 39.59375 47.171875 37.8125 47.578125 
Q 36.03125 48 33.890625 48 
Q 26.265625 48 22.1875 43.046875 
Q 18.109375 38.09375 18.109375 28.8125 
L 18.109375 0 
L 9.078125 0 
L 9.078125 54.6875 
L 18.109375 54.6875 
L 18.109375 46.1875 
Q 20.953125 51.171875 25.484375 53.578125 
Q 30.03125 56 36.53125 56 
Q 37.453125 56 38.578125 55.875 
Q 39.703125 55.765625 41.0625 55.515625 
z
" id="DejaVuSans-114"/>
       <path d="M 9.421875 54.6875 
L 18.40625 54.6875 
L 18.40625 0 
L 9.421875 0 
z
M 9.421875 75.984375 
L 18.40625 75.984375 
L 18.40625 64.59375 
L 9.421875 64.59375 
z
" id="DejaVuSans-105"/>
      </defs>
      <g transform="translate(665.422678 274.718437)scale(0.1 -0.1)">
       <use xlink:href="#DejaVuSans-70"/>
       <use x="57.410156" xlink:href="#DejaVuSans-114"/>
       <use x="98.523438" xlink:href="#DejaVuSans-105"/>
       <use x="126.306641" xlink:href="#DejaVuSans-32"/>
       <use x="158.09375" xlink:href="#DejaVuSans-48"/>
       <use x="221.716797" xlink:href="#DejaVuSans-48"/>
       <use x="285.339844" xlink:href="#DejaVuSans-58"/>
       <use x="319.03125" xlink:href="#DejaVuSans-48"/>
       <use x="382.654297" xlink:href="#DejaVuSans-48"/>
      </g>
     </g>
    </g>
    <g id="xtick_5">
     <g id="line2d_5">
      <g>
       <use style="stroke:#000000;stroke-width:0.8;" x="851.408331" xlink:href="#m1b081a645e" y="260.12"/>
      </g>
     </g>
     <g id="text_5">
      <!-- Sat 00:00 -->
      <defs>
       <path d="M 53.515625 70.515625 
L 53.515625 60.890625 
Q 47.90625 63.578125 42.921875 64.890625 
Q 37.9375 66.21875 33.296875 66.21875 
Q 25.25 66.21875 20.875 63.09375 
Q 16.5 59.96875 16.5 54.203125 
Q 16.5 49.359375 19.40625 46.890625 
Q 22.3125 44.4375 30.421875 42.921875 
L 36.375 41.703125 
Q 47.40625 39.59375 52.65625 34.296875 
Q 57.90625 29 57.90625 20.125 
Q 57.90625 9.515625 50.796875 4.046875 
Q 43.703125 -1.421875 29.984375 -1.421875 
Q 24.8125 -1.421875 18.96875 -0.25 
Q 13.140625 0.921875 6.890625 3.21875 
L 6.890625 13.375 
Q 12.890625 10.015625 18.65625 8.296875 
Q 24.421875 6.59375 29.984375 6.59375 
Q 38.421875 6.59375 43.015625 9.90625 
Q 47.609375 13.234375 47.609375 19.390625 
Q 47.609375 24.75 44.3125 27.78125 
Q 41.015625 30.8125 33.5 32.328125 
L 27.484375 33.5 
Q 16.453125 35.6875 11.515625 40.375 
Q 6.59375 45.0625 6.59375 53.421875 
Q 6.59375 63.09375 13.40625 68.65625 
Q 20.21875 74.21875 32.171875 74.21875 
Q 37.3125 74.21875 42.625 73.28125 
Q 47.953125 72.359375 53.515625 70.515625 
z
" id="DejaVuSans-83"/>
       <path d="M 34.28125 27.484375 
Q 23.390625 27.484375 19.1875 25 
Q 14.984375 22.515625 14.984375 16.5 
Q 14.984375 11.71875 18.140625 8.90625 
Q 21.296875 6.109375 26.703125 6.109375 
Q 34.1875 6.109375 38.703125 11.40625 
Q 43.21875 16.703125 43.21875 25.484375 
L 43.21875 27.484375 
z
M 52.203125 31.203125 
L 52.203125 0 
L 43.21875 0 
L 43.21875 8.296875 
Q 40.140625 3.328125 35.546875 0.953125 
Q 30.953125 -1.421875 24.3125 -1.421875 
Q 15.921875 -1.421875 10.953125 3.296875 
Q 6 8.015625 6 15.921875 
Q 6 25.140625 12.171875 29.828125 
Q 18.359375 34.515625 30.609375 34.515625 
L 43.21875 34.515625 
L 43.21875 35.40625 
Q 43.21875 41.609375 39.140625 45 
Q 35.0625 48.390625 27.6875 48.390625 
Q 23 48.390625 18.546875 47.265625 
Q 14.109375 46.140625 10.015625 43.890625 
L 10.015625 52.203125 
Q 14.9375 54.109375 19.578125 55.046875 
Q 24.21875 56 28.609375 56 
Q 40.484375 56 46.34375 49.84375 
Q 52.203125 43.703125 52.203125 31.203125 
z
" id="DejaVuSans-97"/>
       <path d="M 18.3125 70.21875 
L 18.3125 54.6875 
L 36.8125 54.6875 
L 36.8125 47.703125 
L 18.3125 47.703125 
L 18.3125 18.015625 
Q 18.3125 11.328125 20.140625 9.421875 
Q 21.96875 7.515625 27.59375 7.515625 
L 36.8125 7.515625 
L 36.8125 0 
L 27.59375 0 
Q 17.1875 0 13.234375 3.875 
Q 9.28125 7.765625 9.28125 18.015625 
L 9.28125 47.703125 
L 2.6875 47.703125 
L 2.6875 54.6875 
L 9.28125 54.6875 
L 9.28125 70.21875 
z
" id="DejaVuSans-116"/>
      </defs>
      <g transform="translate(827.211456 274.718437)scale(0.1 -0.1)">
       <use xlink:href="#DejaVuSans-83"/>
       <use x="63.476562" xlink:href="#DejaVuSans-97"/>
       <use x="124.755859" xlink:href="#DejaVuSans-116"/>
       <use x="163.964844" xlink:href="#DejaVuSans-32"/>
       <use x="195.751953" xlink:href="#DejaVuSans-48"/>
       <use x="259.375" xlink:href="#DejaVuSans-48"/>
       <use x="322.998047" xlink:href="#DejaVuSans-58"/>
       <use x="356.689453" xlink:href="#DejaVuSans-48"/>
       <use x="420.3125" xlink:href="#DejaVuSans-48"/>
      </g>
     </g>
    </g>
    <g id="xtick_6">
     <g id="line2d_6">
      <g>
       <use style="stroke:#000000;stroke-width:0.8;" x="1015.080703" xlink:href="#m1b081a645e" y="260.12"/>
      </g>
     </g>
     <g id="text_6">
      <!-- Sun 00:00 -->
      <defs>
       <path d="M 54.890625 33.015625 
L 54.890625 0 
L 45.90625 0 
L 45.90625 32.71875 
Q 45.90625 40.484375 42.875 44.328125 
Q 39.84375 48.1875 33.796875 48.1875 
Q 26.515625 48.1875 22.3125 43.546875 
Q 18.109375 38.921875 18.109375 30.90625 
L 18.109375 0 
L 9.078125 0 
L 9.078125 54.6875 
L 18.109375 54.6875 
L 18.109375 46.1875 
Q 21.34375 51.125 25.703125 53.5625 
Q 30.078125 56 35.796875 56 
Q 45.21875 56 50.046875 50.171875 
Q 54.890625 44.34375 54.890625 33.015625 
z
" id="DejaVuSans-110"/>
      </defs>
      <g transform="translate(989.570547 274.718437)scale(0.1 -0.1)">
       <use xlink:href="#DejaVuSans-83"/>
       <use x="63.476562" xlink:href="#DejaVuSans-117"/>
       <use x="126.855469" xlink:href="#DejaVuSans-110"/>
       <use x="190.234375" xlink:href="#DejaVuSans-32"/>
       <use x="222.021484" xlink:href="#DejaVuSans-48"/>
       <use x="285.644531" xlink:href="#DejaVuSans-48"/>
       <use x="349.267578" xlink:href="#DejaVuSans-58"/>
       <use x="382.958984" xlink:href="#DejaVuSans-48"/>
       <use x="446.582031" xlink:href="#DejaVuSans-48"/>
      </g>
     </g>
    </g>
   </g>
   <g id="matplotlib.axis_2">
    <g id="ytick_1">
     <g id="line2d_7">
      <defs>
       <path d="M 0 0 
L -3.5 0 
" id="m5e32a19c4f" style="stroke:#000000;stroke-width:0.8;"/>
      </defs>
      <g>
       <use style="stroke:#000000;stroke-width:0.8;" x="33.64" xlink:href="#m5e32a19c4f" y="260.12"/>
      </g>
     </g>
     <g id="text_7">
      <!-- 0 -->
      <g transform="translate(20.2775 263.919219)scale(0.1 -0.1)">
       <use xlink:href="#DejaVuSans-48"/>
      </g>
     </g>
    </g>
    <g id="ytick_2">
     <g id="line2d_8">
      <g>
       <use style="stroke:#000000;stroke-width:0.8;" x="33.64" xlink:href="#m5e32a19c4f" y="230.910476"/>
      </g>
     </g>
     <g id="text_8">
      <!-- 25 -->
      <defs>
       <path d="M 19.1875 8.296875 
L 53.609375 8.296875 
L 53.609375 0 
L 7.328125 0 
L 7.328125 8.296875 
Q 12.9375 14.109375 22.625 23.890625 
Q 32.328125 33.6875 34.8125 36.53125 
Q 39.546875 41.84375 41.421875 45.53125 
Q 43.3125 49.21875 43.3125 52.78125 
Q 43.3125 58.59375 39.234375 62.25 
Q 35.15625 65.921875 28.609375 65.921875 
Q 23.96875 65.921875 18.8125 64.3125 
Q 13.671875 62.703125 7.8125 59.421875 
L 7.8125 69.390625 
Q 13.765625 71.78125 18.9375 73 
Q 24.125 74.21875 28.421875 74.21875 
Q 39.75 74.21875 46.484375 68.546875 
Q 53.21875 62.890625 53.21875 53.421875 
Q 53.21875 48.921875 51.53125 44.890625 
Q 49.859375 40.875 45.40625 35.40625 
Q 44.1875 33.984375 37.640625 27.21875 
Q 31.109375 20.453125 19.1875 8.296875 
z
" id="DejaVuSans-50"/>
       <path d="M 10.796875 72.90625 
L 49.515625 72.90625 
L 49.515625 64.59375 
L 19.828125 64.59375 
L 19.828125 46.734375 
Q 21.96875 47.46875 24.109375 47.828125 
Q 26.265625 48.1875 28.421875 48.1875 
Q 40.625 48.1875 47.75 41.5 
Q 54.890625 34.8125 54.890625 23.390625 
Q 54.890625 11.625 47.5625 5.09375 
Q 40.234375 -1.421875 26.90625 -1.421875 
Q 22.3125 -1.421875 17.546875 -0.640625 
Q 12.796875 0.140625 7.71875 1.703125 
L 7.71875 11.625 
Q 12.109375 9.234375 16.796875 8.0625 
Q 21.484375 6.890625 26.703125 6.890625 
Q 35.15625 6.890625 40.078125 11.328125 
Q 45.015625 15.765625 45.015625 23.390625 
Q 45.015625 31 40.078125 35.4375 
Q 35.15625 39.890625 26.703125 39.890625 
Q 22.75 39.890625 18.8125 39.015625 
Q 14.890625 38.140625 10.796875 36.28125 
z
" id="DejaVuSans-53"/>
      </defs>
      <g transform="translate(13.915 234.709695)scale(0.1 -0.1)">
       <use xlink:href="#DejaVuSans-50"/>
       <use x="63.623047" xlink:href="#DejaVuSans-53"/>
      </g>
     </g>
    </g>
    <g id="ytick_3">
     <g id="line2d_9">
      <g>
       <use style="stroke:#000000;stroke-width:0.8;" x="33.64" xlink:href="#m5e32a19c4f" y="201.700952"/>
      </g>
     </g>
     <g id="text_9">
      <!-- 50 -->
      <g transform="translate(13.915 205.500171)scale(0.1 -0.1)">
       <use xlink:href="#DejaVuSans-53"/>
       <use x="63.623047" xlink:href="#DejaVuSans-48"/>
      </g>
     </g>
    </g>
    <g id="ytick_4">
     <g id="line2d_10">
      <g>
       <use style="stroke:#000000;stroke-width:0.8;" x="33.64" xlink:href="#m5e32a19c4f" y="172.491429"/>
      </g>
     </g>
     <g id="text_10">
      <!-- 75 -->
      <defs>
       <path d="M 8.203125 72.90625 
L 55.078125 72.90625 
L 55.078125 68.703125 
L 28.609375 0 
L 18.3125 0 
L 43.21875 64.59375 
L 8.203125 64.59375 
z
" id="DejaVuSans-55"/>
      </defs>
      <g transform="translate(13.915 176.290647)scale(0.1 -0.1)">
       <use xlink:href="#DejaVuSans-55"/>
       <use x="63.623047" xlink:href="#DejaVuSans-53"/>
      </g>
     </g>
    </g>
    <g id="ytick_5">
     <g id="line2d_11">
      <g>
       <use style="stroke:#000000;stroke-width:0.8;" x="33.64" xlink:href="#m5e32a19c4f" y="143.281905"/>
      </g>
     </g>
     <g id="text_11">
      <!-- 100 -->
      <defs>
       <path d="M 12.40625 8.296875 
L 28.515625 8.296875 
L 28.515625 63.921875 
L 10.984375 60.40625 
L 10.984375 69.390625 
L 28.421875 72.90625 
L 38.28125 72.90625 
L 38.28125 8.296875 
L 54.390625 8.296875 
L 54.390625 0 
L 12.40625 0 
z
" id="DejaVuSans-49"/>
      </defs>
      <g transform="translate(7.5525 147.081124)scale(0.1 -0.1)">
       <use xlink:href="#DejaVuSans-49"/>
       <use x="63.623047" xlink:href="#DejaVuSans-48"/>
       <use x="127.246094" xlink:href="#DejaVuSans-48"/>
      </g>
     </g>
    </g>
    <g id="ytick_6">
     <g id="line2d_12">
      <g>
       <use style="stroke:#000000;stroke-width:0.8;" x="33.64" xlink:href="#m5e32a19c4f" y="114.072381"/>
      </g>
     </g>
     <g id="text_12">
      <!-- 125 -->
      <g transform="translate(7.5525 117.8716)scale(0.1 -0.1)">
       <use xlink:href="#DejaVuSans-49"/>
       <use x="63.623047" xlink:href="#DejaVuSans-50"/>
       <use x="127.246094" xlink:href="#DejaVuSans-53"/>
      </g>
     </g>
    </g>
    <g id="ytick_7">
     <g id="line2d_13">
      <g>
       <use style="stroke:#000000;stroke-width:0.8;" x="33.64" xlink:href="#m5e32a19c4f" y="84.862857"/>
      </g>
     </g>
     <g id="text_13">
      <!-- 150 -->
      <g transform="translate(7.5525 88.662076)scale(0.1 -0.1)">
       <use xlink:href="#DejaVuSans-49"/>
       <use x="63.623047" xlink:href="#DejaVuSans-53"/>
       <use x="127.246094" xlink:href="#DejaVuSans-48"/>
      </g>
     </g>
    </g>
    <g id="ytick_8">
     <g id="line2d_14">
      <g>
       <use style="stroke:#000000;stroke-width:0.8;" x="33.64" xlink:href="#m5e32a19c4f" y="55.653333"/>
      </g>
     </g>
     <g id="text_14">
      <!-- 175 -->
      <g transform="translate(7.5525 59.452552)scale(0.1 -0.1)">
       <use xlink:href="#DejaVuSans-49"/>
       <use x="63.623047" xlink:href="#DejaVuSans-55"/>
       <use x="127.246094" xlink:href="#DejaVuSans-53"/>
      </g>
     </g>
    </g>
    <g id="ytick_9">
     <g id="line2d_15">
      <g>
       <use style="stroke:#000000;stroke-width:0.8;" x="33.64" xlink:href="#m5e32a19c4f" y="26.44381"/>
      </g>
     </g>
     <g id="text_15">
      <!-- 200 -->
      <g transform="translate(7.5525 30.243028)scale(0.1 -0.1)">
       <use xlink:href="#DejaVuSans-50"/>
       <use x="63.623047" xlink:href="#DejaVuSans-48"/>
       <use x="127.246094" xlink:href="#DejaVuSans-48"/>
      </g>
     </g>
    </g>
   </g>
   <g id="line2d_16">
    <path clip-path="url(#p51d2b72d6b)" d="M 33.64 225.068571 
L 94.594018 225.068571 
L 95.766407 220.395048 
L 96.937697 220.395048 
L 98.10841 218.058286 
L 99.276971 218.058286 
L 100.445405 211.048 
L 101.616324 211.048 
L 102.785199 200.532571 
L 103.95366 195.859048 
L 105.123238 195.859048 
L 106.292544 186.512 
L 107.461276 179.501714 
L 108.632562 177.164952 
L 114.489175 177.164952 
L 115.658665 183.006857 
L 116.830263 190.017143 
L 117.998742 190.017143 
L 119.167193 195.859048 
L 120.338051 195.859048 
L 121.506912 200.532571 
L 122.677153 195.859048 
L 123.847758 195.859048 
L 125.016797 193.522286 
L 126.185475 192.353905 
L 127.35405 188.848762 
L 128.522739 188.848762 
L 129.692406 187.680381 
L 130.862819 191.185524 
L 132.031337 191.185524 
L 133.202782 188.848762 
L 134.371627 185.343619 
L 135.540155 185.343619 
L 136.711033 183.006857 
L 137.879984 185.343619 
L 140.217189 185.343619 
L 141.388145 178.333333 
L 142.557659 177.164952 
L 143.728825 177.164952 
L 144.899792 179.501714 
L 146.070913 173.65981 
L 147.243734 173.65981 
L 148.415228 170.154667 
L 149.58935 170.154667 
L 150.760338 175.996571 
L 151.928919 165.481143 
L 153.097703 153.797333 
L 154.266247 153.797333 
L 155.434854 147.955429 
L 156.603927 138.608381 
L 157.772665 138.608381 
L 158.941992 124.58781 
L 160.11218 108.230476 
L 161.280825 108.230476 
L 162.452533 90.704762 
L 163.62185 79.020952 
L 164.790351 60.326857 
L 165.959839 60.326857 
L 167.128592 52.14819 
L 168.296988 83.694476 
L 170.635928 83.694476 
L 171.807196 86.031238 
L 172.976122 86.031238 
L 174.147504 88.368 
L 175.317138 89.536381 
L 176.486041 89.536381 
L 177.656572 105.893714 
L 178.82993 119.914286 
L 179.999347 119.914286 
L 181.170069 133.934857 
L 182.341182 153.797333 
L 183.513091 153.797333 
L 184.682668 161.976 
L 185.853327 168.986286 
L 187.022233 172.491429 
L 188.193543 172.491429 
L 189.365131 184.175238 
L 190.534388 192.353905 
L 191.703374 192.353905 
L 192.876046 260.12 
L 259.676618 260.12 
L 260.847232 241.425905 
L 262.018398 236.752381 
L 263.189391 236.752381 
L 264.359038 233.247238 
L 265.528129 222.73181 
L 266.698588 222.73181 
L 267.868938 213.384762 
L 269.04017 211.048 
L 270.211797 211.048 
L 271.385909 207.542857 
L 272.558549 205.206095 
L 273.729843 205.206095 
L 274.898365 202.869333 
L 276.0719 201.700952 
L 278.41498 201.700952 
L 279.583277 215.721524 
L 280.75337 216.889905 
L 281.924835 214.553143 
L 283.093895 216.889905 
L 284.263531 216.889905 
L 286.67904 205.206095 
L 289.092864 208.711238 
L 291.547594 208.711238 
L 292.71598 211.048 
L 293.885915 211.048 
L 295.054755 213.384762 
L 296.22332 212.216381 
L 297.394329 212.216381 
L 298.565179 207.542857 
L 300.903972 207.542857 
L 302.072677 202.869333 
L 303.244299 205.206095 
L 304.413054 205.206095 
L 305.582602 201.700952 
L 306.751863 191.185524 
L 307.921055 186.512 
L 309.089582 186.512 
L 310.258616 185.343619 
L 311.427658 173.65981 
L 312.599071 173.65981 
L 313.769147 172.491429 
L 314.940167 181.838476 
L 316.109133 181.838476 
L 318.448091 158.470857 
L 319.617339 158.470857 
L 320.788397 153.797333 
L 321.957948 150.29219 
L 323.127089 150.29219 
L 324.29772 154.965714 
L 325.467508 158.470857 
L 326.636686 158.470857 
L 327.80802 144.450286 
L 328.979536 135.103238 
L 330.149191 130.429714 
L 331.318505 130.429714 
L 332.488048 116.409143 
L 333.657427 116.409143 
L 335.999669 114.072381 
L 337.170745 110.567238 
L 338.342546 110.567238 
L 339.512419 112.904 
L 340.683252 117.577524 
L 341.852592 117.577524 
L 343.023805 126.924571 
L 344.193106 142.113524 
L 345.363711 152.628952 
L 346.534106 152.628952 
L 347.702613 159.639238 
L 348.875909 159.639238 
L 350.044518 170.154667 
L 351.21503 178.333333 
L 352.386225 178.333333 
L 353.555313 186.512 
L 354.726744 187.680381 
L 355.897272 190.017143 
L 357.066157 190.017143 
L 358.234576 260.12 
L 421.540315 260.12 
L 423.858623 248.43619 
L 425.027077 248.43619 
L 426.196058 242.594286 
L 427.365109 237.920762 
L 428.533559 237.920762 
L 429.702854 228.573714 
L 430.872383 228.573714 
L 432.041334 223.90019 
L 433.209648 220.395048 
L 434.379071 220.395048 
L 435.547956 225.068571 
L 436.718033 225.068571 
L 437.887926 227.405333 
L 439.059207 227.405333 
L 440.230997 226.236952 
L 441.402186 223.90019 
L 442.571047 223.90019 
L 443.740332 220.395048 
L 444.909108 229.742095 
L 447.248414 229.742095 
L 448.419628 227.405333 
L 449.589756 227.405333 
L 450.75879 218.058286 
L 451.92948 218.058286 
L 453.099402 212.216381 
L 455.439072 212.216381 
L 457.778887 207.542857 
L 458.954911 207.542857 
L 460.126974 201.700952 
L 461.299597 201.700952 
L 462.468645 202.869333 
L 463.637582 200.532571 
L 464.805859 200.532571 
L 465.974391 191.185524 
L 468.312525 191.185524 
L 469.50056 188.848762 
L 470.669756 188.848762 
L 471.838227 179.501714 
L 473.011114 179.501714 
L 474.181335 177.164952 
L 475.35066 171.323048 
L 476.522257 171.323048 
L 477.690707 161.976 
L 478.860821 145.618667 
L 480.029469 117.577524 
L 481.198728 117.577524 
L 482.368735 109.398857 
L 483.537449 88.368 
L 484.706569 88.368 
L 485.87864 66.168762 
L 487.048483 52.14819 
L 488.217623 52.14819 
L 489.386235 42.801143 
L 490.555459 48.643048 
L 491.726877 48.643048 
L 492.897967 35.790857 
L 494.066495 33.454095 
L 495.237383 33.454095 
L 496.409974 34.622476 
L 497.581224 27.61219 
L 498.755444 27.61219 
L 499.924135 33.454095 
L 501.095239 38.127619 
L 502.263646 38.127619 
L 503.435661 48.643048 
L 504.603798 50.97981 
L 505.772925 72.010667 
L 506.94142 72.010667 
L 508.112526 89.536381 
L 509.281497 89.536381 
L 510.451058 104.725333 
L 511.620688 132.766476 
L 512.790794 140.945143 
L 513.962944 140.945143 
L 515.13385 165.481143 
L 516.301987 177.164952 
L 517.471336 177.164952 
L 518.642986 183.006857 
L 519.812919 194.690667 
L 522.153723 194.690667 
L 523.3234 260.12 
L 586.622876 260.12 
L 587.792786 253.109714 
L 588.963441 253.109714 
L 590.13267 249.604571 
L 591.304032 244.931048 
L 592.47234 244.931048 
L 593.641689 239.089143 
L 594.811887 236.752381 
L 595.981114 236.752381 
L 598.318732 229.742095 
L 599.490103 229.742095 
L 600.660457 233.247238 
L 601.832186 232.078857 
L 603.001901 228.573714 
L 604.172461 228.573714 
L 605.341594 229.742095 
L 606.510357 227.405333 
L 607.682401 227.405333 
L 608.852091 221.563429 
L 610.020489 219.226667 
L 611.194547 219.226667 
L 612.362992 214.553143 
L 613.53203 208.711238 
L 614.700956 208.711238 
L 615.870093 212.216381 
L 617.039556 214.553143 
L 618.210972 214.553143 
L 619.381327 208.711238 
L 620.550286 213.384762 
L 622.889195 213.384762 
L 624.058898 209.879619 
L 625.230742 199.36419 
L 626.399094 199.36419 
L 628.740844 197.027429 
L 629.910045 197.027429 
L 632.251448 185.343619 
L 634.593124 185.343619 
L 635.761829 180.670095 
L 636.931815 180.670095 
L 638.101567 170.154667 
L 639.271829 165.481143 
L 640.440414 165.481143 
L 641.609766 158.470857 
L 642.778469 142.113524 
L 643.947484 128.092952 
L 645.116014 128.092952 
L 646.288123 103.556952 
L 647.461879 107.062095 
L 648.633407 107.062095 
L 649.804324 102.388571 
L 650.975482 80.189333 
L 652.144188 80.189333 
L 653.313713 66.168762 
L 654.482214 60.326857 
L 655.650817 60.326857 
L 656.821771 61.495238 
L 657.991968 48.643048 
L 659.161077 45.137905 
L 660.332356 45.137905 
L 661.501339 63.832 
L 662.670266 72.010667 
L 663.839867 72.010667 
L 665.009581 83.694476 
L 666.179019 90.704762 
L 667.350252 90.704762 
L 668.518667 95.378286 
L 669.696037 107.062095 
L 670.868731 107.062095 
L 672.037914 114.072381 
L 673.206405 129.261333 
L 674.376281 129.261333 
L 676.71376 157.302476 
L 677.886125 157.302476 
L 679.05772 161.976 
L 680.228622 177.164952 
L 681.399243 177.164952 
L 682.569646 184.175238 
L 683.739559 260.12 
L 750.557896 260.12 
L 751.726721 248.43619 
L 752.897965 242.594286 
L 754.069934 242.594286 
L 755.238488 234.415619 
L 756.406718 234.415619 
L 757.57592 222.73181 
L 758.74446 219.226667 
L 759.915142 214.553143 
L 761.086678 214.553143 
L 763.430512 205.206095 
L 764.60171 205.206095 
L 765.771387 201.700952 
L 766.942199 199.36419 
L 768.111778 205.206095 
L 769.281307 205.206095 
L 770.45017 207.542857 
L 771.621671 211.048 
L 772.792267 211.048 
L 773.965 219.226667 
L 775.134464 219.226667 
L 776.303699 218.058286 
L 778.642339 218.058286 
L 779.811006 221.563429 
L 780.980267 218.058286 
L 783.318818 218.058286 
L 784.488189 221.563429 
L 785.657615 222.73181 
L 786.826283 222.73181 
L 789.166107 211.048 
L 790.334653 208.711238 
L 791.505151 208.711238 
L 792.673425 205.206095 
L 793.842161 209.879619 
L 795.010813 209.879619 
L 796.179968 202.869333 
L 797.350301 202.869333 
L 798.520096 195.859048 
L 799.689154 197.027429 
L 800.858887 192.353905 
L 802.028363 192.353905 
L 803.197921 187.680381 
L 804.368167 181.838476 
L 805.53694 181.838476 
L 806.706559 183.006857 
L 807.8765 178.333333 
L 809.047807 183.006857 
L 810.21892 183.006857 
L 811.388109 177.164952 
L 812.557808 177.164952 
L 813.729325 186.512 
L 814.900992 181.838476 
L 816.070543 181.838476 
L 817.23999 184.175238 
L 818.41065 188.848762 
L 819.580008 186.512 
L 820.751508 186.512 
L 821.919875 183.006857 
L 823.091118 177.164952 
L 824.261763 177.164952 
L 825.430616 178.333333 
L 826.59918 187.680381 
L 827.76764 187.680381 
L 828.937503 186.512 
L 831.279515 186.512 
L 832.450674 188.848762 
L 834.790989 188.848762 
L 835.962301 200.532571 
L 837.131917 200.532571 
L 838.301208 205.206095 
L 839.471717 205.206095 
L 840.643001 206.374476 
L 841.814466 206.374476 
L 842.985435 207.542857 
L 844.156208 209.879619 
L 847.670951 209.879619 
L 848.84032 260.12 
L 913.308607 260.12 
L 914.477673 258.951619 
L 915.646764 254.278095 
L 916.816961 243.762667 
L 917.987416 243.762667 
L 920.32806 236.752381 
L 921.498678 236.752381 
L 922.669149 229.742095 
L 923.83977 220.395048 
L 925.009072 220.395048 
L 926.177849 218.058286 
L 927.346788 216.889905 
L 928.518314 216.889905 
L 929.688856 206.374476 
L 930.858032 206.374476 
L 932.026722 198.19581 
L 933.196741 198.19581 
L 934.365545 195.859048 
L 936.702167 195.859048 
L 937.875269 197.027429 
L 939.04444 204.037714 
L 940.216923 204.037714 
L 941.385253 200.532571 
L 942.554241 199.36419 
L 943.723149 199.36419 
L 944.892095 194.690667 
L 946.061083 192.353905 
L 947.229718 192.353905 
L 948.39853 199.36419 
L 949.567603 198.19581 
L 950.737939 198.19581 
L 951.90676 199.36419 
L 953.075048 204.037714 
L 954.243791 204.037714 
L 955.414646 206.374476 
L 957.75495 197.027429 
L 958.925181 197.027429 
L 960.093099 198.19581 
L 961.262367 197.027429 
L 962.433137 197.027429 
L 963.602123 205.206095 
L 964.771454 211.048 
L 965.940209 201.700952 
L 968.277803 201.700952 
L 969.446751 191.185524 
L 970.616886 191.185524 
L 971.785731 186.512 
L 972.955497 186.512 
L 974.124091 191.185524 
L 975.292971 194.690667 
L 976.461965 193.522286 
L 977.630676 193.522286 
L 978.799452 200.532571 
L 979.968382 197.027429 
L 981.137429 197.027429 
L 982.306594 201.700952 
L 983.475592 202.869333 
L 984.644645 201.700952 
L 985.813417 201.700952 
L 986.98264 200.532571 
L 988.151593 200.532571 
L 989.320626 199.36419 
L 990.491008 212.216381 
L 991.659061 212.216381 
L 992.827535 214.553143 
L 993.995881 225.068571 
L 995.163821 227.405333 
L 997.501317 227.405333 
L 998.671411 229.742095 
L 999.839656 229.742095 
L 1001.009901 233.247238 
L 1002.177874 235.584 
L 1003.348857 235.584 
L 1004.516645 236.752381 
L 1010.35927 236.752381 
L 1011.527218 260.12 
L 1076.006097 260.12 
L 1077.156099 257.783238 
L 1078.32548 257.783238 
L 1079.496042 243.762667 
L 1080.664689 237.920762 
L 1081.832853 237.920762 
L 1083.001236 221.563429 
L 1084.169024 208.711238 
L 1085.337254 202.869333 
L 1086.508958 202.869333 
L 1087.67947 192.353905 
L 1088.847734 192.353905 
L 1090.016075 165.481143 
L 1091.183905 158.470857 
L 1092.352045 158.470857 
L 1093.521218 145.618667 
L 1095.857913 100.05181 
L 1097.029001 100.05181 
L 1098.199815 102.388571 
L 1099.367873 90.704762 
L 1100.53593 90.704762 
L 1101.70446 84.862857 
L 1102.872543 83.694476 
L 1104.041095 83.694476 
L 1105.209047 84.862857 
L 1106.377658 83.694476 
L 1107.548042 83.694476 
L 1108.718728 91.873143 
L 1109.889378 94.209905 
L 1111.058343 94.209905 
L 1112.229026 110.567238 
L 1113.397902 102.388571 
L 1114.568367 116.409143 
L 1115.737049 116.409143 
L 1116.907623 117.577524 
L 1118.076693 121.082667 
L 1120.414998 121.082667 
L 1121.584149 115.240762 
L 1122.755613 94.209905 
L 1123.925181 94.209905 
L 1125.093357 102.388571 
L 1126.262339 86.031238 
L 1127.430403 86.031238 
L 1128.602307 65.000381 
L 1129.77022 65.000381 
L 1130.940713 79.020952 
L 1132.110927 70.842286 
L 1133.28 83.694476 
L 1133.28 83.694476 
" style="fill:none;stroke:#1f77b4;stroke-linecap:square;stroke-width:1.5;"/>
   </g>
   <g id="patch_3">
    <path d="M 33.64 260.12 
L 33.64 14.76 
" style="fill:none;stroke:#000000;stroke-linecap:square;stroke-linejoin:miter;stroke-width:0.8;"/>
   </g>
   <g id="patch_4">
    <path d="M 1133.28 260.12 
L 1133.28 14.76 
" style="fill:none;stroke:#000000;stroke-linecap:square;stroke-linejoin:miter;stroke-width:0.8;"/>
   </g>
   <g id="patch_5">
    <path d="M 33.64 260.12 
L 1133.28 260.12 
" style="fill:none;stroke:#000000;stroke-linecap:square;stroke-linejoin:miter;stroke-width:0.8;"/>
   </g>
   <g id="patch_6">
    <path d="M 33.64 14.76 
L 1133.28 14.76 
" style="fill:none;stroke:#000000;stroke-linecap:square;stroke-linejoin:miter;stroke-width:0.8;"/>
   </g>
  </g>
 </g>
 <defs>
  <clipPath id="p51d2b72d6b">
   <rect height="245.36" width="1099.64" x="33.64" y="14.76"/>
  </clipPath>
 </defs>
</svg>
