<?xml version="1.0" encoding="utf-8" standalone="no"?>
<!DOCTYPE svg PUBLIC "-//W3C//DTD SVG 1.1//EN"
  "http://www.w3.org/Graphics/SVG/1.1/DTD/svg11.dtd">
<!-- Created with matplotlib (https://matplotlib.org/) -->
<svg height="288pt" version="1.1" viewBox="0 0 1152 288" width="1152pt" xmlns="http://www.w3.org/2000/svg" xmlns:xlink="http://www.w3.org/1999/xlink">
 <defs>
  <style type="text/css">
*{stroke-linecap:butt;stroke-linejoin:round;}
  </style>
 </defs>
 <g id="figure_1">
  <g id="patch_1">
   <path d="M 0 288 
L 1152 288 
L 1152 0 
L 0 0 
z
" style="fill:#ffffff;"/>
  </g>
  <g id="axes_1">
   <g id="patch_2">
    <path d="M 33.64 260.12 
L 1133.28 260.12 
L 1133.28 14.76 
L 33.64 14.76 
z
" style="fill:#ffffff;"/>
   </g>
   <g id="matplotlib.axis_1">
    <g id="xtick_1">
     <g id="line2d_1">
      <defs>
       <path d="M 0 0 
L 0 3.5 
" id="m9dff6be7da" style="stroke:#000000;stroke-width:0.8;"/>
      </defs>
      <g>
       <use style="stroke:#000000;stroke-width:0.8;" x="223.167911" xlink:href="#m9dff6be7da" y="260.12"/>
      </g>
     </g>
     <g id="text_1">
      <!-- Tue 00:00 -->
      <defs>
       <path d="M -0.296875 72.90625 
L 61.375 72.90625 
L 61.375 64.59375 
L 35.5 64.59375 
L 35.5 0 
L 25.59375 0 
L 25.59375 64.59375 
L -0.296875 64.59375 
z
" id="DejaVuSans-84"/>
       <path d="M 8.5 21.578125 
L 8.5 54.6875 
L 17.484375 54.6875 
L 17.484375 21.921875 
Q 17.484375 14.15625 20.5 10.265625 
Q 23.53125 6.390625 29.59375 6.390625 
Q 36.859375 6.390625 41.078125 11.03125 
Q 45.3125 15.671875 45.3125 23.6875 
L 45.3125 54.6875 
L 54.296875 54.6875 
L 54.296875 0 
L 45.3125 0 
L 45.3125 8.40625 
Q 42.046875 3.421875 37.71875 1 
Q 33.40625 -1.421875 27.6875 -1.421875 
Q 18.265625 -1.421875 13.375 4.4375 
Q 8.5 10.296875 8.5 21.578125 
z
M 31.109375 56 
z
" id="DejaVuSans-117"/>
       <path d="M 56.203125 29.59375 
L 56.203125 25.203125 
L 14.890625 25.203125 
Q 15.484375 15.921875 20.484375 11.0625 
Q 25.484375 6.203125 34.421875 6.203125 
Q 39.59375 6.203125 44.453125 7.46875 
Q 49.3125 8.734375 54.109375 11.28125 
L 54.109375 2.78125 
Q 49.265625 0.734375 44.1875 -0.34375 
Q 39.109375 -1.421875 33.890625 -1.421875 
Q 20.796875 -1.421875 13.15625 6.1875 
Q 5.515625 13.8125 5.515625 26.8125 
Q 5.515625 40.234375 12.765625 48.109375 
Q 20.015625 56 32.328125 56 
Q 43.359375 56 49.78125 48.890625 
Q 56.203125 41.796875 56.203125 29.59375 
z
M 47.21875 32.234375 
Q 47.125 39.59375 43.09375 43.984375 
Q 39.0625 48.390625 32.421875 48.390625 
Q 24.90625 48.390625 20.390625 44.140625 
Q 15.875 39.890625 15.1875 32.171875 
z
" id="DejaVuSans-101"/>
       <path id="DejaVuSans-32"/>
       <path d="M 31.78125 66.40625 
Q 24.171875 66.40625 20.328125 58.90625 
Q 16.5 51.421875 16.5 36.375 
Q 16.5 21.390625 20.328125 13.890625 
Q 24.171875 6.390625 31.78125 6.390625 
Q 39.453125 6.390625 43.28125 13.890625 
Q 47.125 21.390625 47.125 36.375 
Q 47.125 51.421875 43.28125 58.90625 
Q 39.453125 66.40625 31.78125 66.40625 
z
M 31.78125 74.21875 
Q 44.046875 74.21875 50.515625 64.515625 
Q 56.984375 54.828125 56.984375 36.375 
Q 56.984375 17.96875 50.515625 8.265625 
Q 44.046875 -1.421875 31.78125 -1.421875 
Q 19.53125 -1.421875 13.0625 8.265625 
Q 6.59375 17.96875 6.59375 36.375 
Q 6.59375 54.828125 13.0625 64.515625 
Q 19.53125 74.21875 31.78125 74.21875 
z
" id="DejaVuSans-48"/>
       <path d="M 11.71875 12.40625 
L 22.015625 12.40625 
L 22.015625 0 
L 11.71875 0 
z
M 11.71875 51.703125 
L 22.015625 51.703125 
L 22.015625 39.3125 
L 11.71875 39.3125 
z
" id="DejaVuSans-58"/>
      </defs>
      <g transform="translate(197.881973 274.718437)scale(0.1 -0.1)">
       <use xlink:href="#DejaVuSans-84"/>
       <use x="60.849609" xlink:href="#DejaVuSans-117"/>
       <use x="124.228516" xlink:href="#DejaVuSans-101"/>
       <use x="185.751953" xlink:href="#DejaVuSans-32"/>
       <use x="217.539062" xlink:href="#DejaVuSans-48"/>
       <use x="281.162109" xlink:href="#DejaVuSans-48"/>
       <use x="344.785156" xlink:href="#DejaVuSans-58"/>
       <use x="378.476562" xlink:href="#DejaVuSans-48"/>
       <use x="442.099609" xlink:href="#DejaVuSans-48"/>
      </g>
     </g>
    </g>
    <g id="xtick_2">
     <g id="line2d_2">
      <g>
       <use style="stroke:#000000;stroke-width:0.8;" x="412.888133" xlink:href="#m9dff6be7da" y="260.12"/>
      </g>
     </g>
     <g id="text_2">
      <!-- Wed 00:00 -->
      <defs>
       <path d="M 3.328125 72.90625 
L 13.28125 72.90625 
L 28.609375 11.28125 
L 43.890625 72.90625 
L 54.984375 72.90625 
L 70.3125 11.28125 
L 85.59375 72.90625 
L 95.609375 72.90625 
L 77.296875 0 
L 64.890625 0 
L 49.515625 63.28125 
L 33.984375 0 
L 21.578125 0 
z
" id="DejaVuSans-87"/>
       <path d="M 45.40625 46.390625 
L 45.40625 75.984375 
L 54.390625 75.984375 
L 54.390625 0 
L 45.40625 0 
L 45.40625 8.203125 
Q 42.578125 3.328125 38.25 0.953125 
Q 33.9375 -1.421875 27.875 -1.421875 
Q 17.96875 -1.421875 11.734375 6.484375 
Q 5.515625 14.40625 5.515625 27.296875 
Q 5.515625 40.1875 11.734375 48.09375 
Q 17.96875 56 27.875 56 
Q 33.9375 56 38.25 53.625 
Q 42.578125 51.265625 45.40625 46.390625 
z
M 14.796875 27.296875 
Q 14.796875 17.390625 18.875 11.75 
Q 22.953125 6.109375 30.078125 6.109375 
Q 37.203125 6.109375 41.296875 11.75 
Q 45.40625 17.390625 45.40625 27.296875 
Q 45.40625 37.203125 41.296875 42.84375 
Q 37.203125 48.484375 30.078125 48.484375 
Q 22.953125 48.484375 18.875 42.84375 
Q 14.796875 37.203125 14.796875 27.296875 
z
" id="DejaVuSans-100"/>
      </defs>
      <g transform="translate(385.69907 274.718437)scale(0.1 -0.1)">
       <use xlink:href="#DejaVuSans-87"/>
       <use x="98.798828" xlink:href="#DejaVuSans-101"/>
       <use x="160.322266" xlink:href="#DejaVuSans-100"/>
       <use x="223.798828" xlink:href="#DejaVuSans-32"/>
       <use x="255.585938" xlink:href="#DejaVuSans-48"/>
       <use x="319.208984" xlink:href="#DejaVuSans-48"/>
       <use x="382.832031" xlink:href="#DejaVuSans-58"/>
       <use x="416.523438" xlink:href="#DejaVuSans-48"/>
       <use x="480.146484" xlink:href="#DejaVuSans-48"/>
      </g>
     </g>
    </g>
    <g id="xtick_3">
     <g id="line2d_3">
      <g>
       <use style="stroke:#000000;stroke-width:0.8;" x="602.608355" xlink:href="#m9dff6be7da" y="260.12"/>
      </g>
     </g>
     <g id="text_3">
      <!-- Thu 00:00 -->
      <defs>
       <path d="M 54.890625 33.015625 
L 54.890625 0 
L 45.90625 0 
L 45.90625 32.71875 
Q 45.90625 40.484375 42.875 44.328125 
Q 39.84375 48.1875 33.796875 48.1875 
Q 26.515625 48.1875 22.3125 43.546875 
Q 18.109375 38.921875 18.109375 30.90625 
L 18.109375 0 
L 9.078125 0 
L 9.078125 75.984375 
L 18.109375 75.984375 
L 18.109375 46.1875 
Q 21.34375 51.125 25.703125 53.5625 
Q 30.078125 56 35.796875 56 
Q 45.21875 56 50.046875 50.171875 
Q 54.890625 44.34375 54.890625 33.015625 
z
" id="DejaVuSans-104"/>
      </defs>
      <g transform="translate(577.218511 274.718437)scale(0.1 -0.1)">
       <use xlink:href="#DejaVuSans-84"/>
       <use x="61.083984" xlink:href="#DejaVuSans-104"/>
       <use x="124.462891" xlink:href="#DejaVuSans-117"/>
       <use x="187.841797" xlink:href="#DejaVuSans-32"/>
       <use x="219.628906" xlink:href="#DejaVuSans-48"/>
       <use x="283.251953" xlink:href="#DejaVuSans-48"/>
       <use x="346.875" xlink:href="#DejaVuSans-58"/>
       <use x="380.566406" xlink:href="#DejaVuSans-48"/>
       <use x="444.189453" xlink:href="#DejaVuSans-48"/>
      </g>
     </g>
    </g>
    <g id="xtick_4">
     <g id="line2d_4">
      <g>
       <use style="stroke:#000000;stroke-width:0.8;" x="792.328576" xlink:href="#m9dff6be7da" y="260.12"/>
      </g>
     </g>
     <g id="text_4">
      <!-- Fri 00:00 -->
      <defs>
       <path d="M 9.8125 72.90625 
L 51.703125 72.90625 
L 51.703125 64.59375 
L 19.671875 64.59375 
L 19.671875 43.109375 
L 48.578125 43.109375 
L 48.578125 34.8125 
L 19.671875 34.8125 
L 19.671875 0 
L 9.8125 0 
z
" id="DejaVuSans-70"/>
       <path d="M 41.109375 46.296875 
Q 39.59375 47.171875 37.8125 47.578125 
Q 36.03125 48 33.890625 48 
Q 26.265625 48 22.1875 43.046875 
Q 18.109375 38.09375 18.109375 28.8125 
L 18.109375 0 
L 9.078125 0 
L 9.078125 54.6875 
L 18.109375 54.6875 
L 18.109375 46.1875 
Q 20.953125 51.171875 25.484375 53.578125 
Q 30.03125 56 36.53125 56 
Q 37.453125 56 38.578125 55.875 
Q 39.703125 55.765625 41.0625 55.515625 
z
" id="DejaVuSans-114"/>
       <path d="M 9.421875 54.6875 
L 18.40625 54.6875 
L 18.40625 0 
L 9.421875 0 
z
M 9.421875 75.984375 
L 18.40625 75.984375 
L 18.40625 64.59375 
L 9.421875 64.59375 
z
" id="DejaVuSans-105"/>
      </defs>
      <g transform="translate(770.015295 274.718437)scale(0.1 -0.1)">
       <use xlink:href="#DejaVuSans-70"/>
       <use x="57.410156" xlink:href="#DejaVuSans-114"/>
       <use x="98.523438" xlink:href="#DejaVuSans-105"/>
       <use x="126.306641" xlink:href="#DejaVuSans-32"/>
       <use x="158.09375" xlink:href="#DejaVuSans-48"/>
       <use x="221.716797" xlink:href="#DejaVuSans-48"/>
       <use x="285.339844" xlink:href="#DejaVuSans-58"/>
       <use x="319.03125" xlink:href="#DejaVuSans-48"/>
       <use x="382.654297" xlink:href="#DejaVuSans-48"/>
      </g>
     </g>
    </g>
    <g id="xtick_5">
     <g id="line2d_5">
      <g>
       <use style="stroke:#000000;stroke-width:0.8;" x="982.048798" xlink:href="#m9dff6be7da" y="260.12"/>
      </g>
     </g>
     <g id="text_5">
      <!-- Sat 00:00 -->
      <defs>
       <path d="M 53.515625 70.515625 
L 53.515625 60.890625 
Q 47.90625 63.578125 42.921875 64.890625 
Q 37.9375 66.21875 33.296875 66.21875 
Q 25.25 66.21875 20.875 63.09375 
Q 16.5 59.96875 16.5 54.203125 
Q 16.5 49.359375 19.40625 46.890625 
Q 22.3125 44.4375 30.421875 42.921875 
L 36.375 41.703125 
Q 47.40625 39.59375 52.65625 34.296875 
Q 57.90625 29 57.90625 20.125 
Q 57.90625 9.515625 50.796875 4.046875 
Q 43.703125 -1.421875 29.984375 -1.421875 
Q 24.8125 -1.421875 18.96875 -0.25 
Q 13.140625 0.921875 6.890625 3.21875 
L 6.890625 13.375 
Q 12.890625 10.015625 18.65625 8.296875 
Q 24.421875 6.59375 29.984375 6.59375 
Q 38.421875 6.59375 43.015625 9.90625 
Q 47.609375 13.234375 47.609375 19.390625 
Q 47.609375 24.75 44.3125 27.78125 
Q 41.015625 30.8125 33.5 32.328125 
L 27.484375 33.5 
Q 16.453125 35.6875 11.515625 40.375 
Q 6.59375 45.0625 6.59375 53.421875 
Q 6.59375 63.09375 13.40625 68.65625 
Q 20.21875 74.21875 32.171875 74.21875 
Q 37.3125 74.21875 42.625 73.28125 
Q 47.953125 72.359375 53.515625 70.515625 
z
" id="DejaVuSans-83"/>
       <path d="M 34.28125 27.484375 
Q 23.390625 27.484375 19.1875 25 
Q 14.984375 22.515625 14.984375 16.5 
Q 14.984375 11.71875 18.140625 8.90625 
Q 21.296875 6.109375 26.703125 6.109375 
Q 34.1875 6.109375 38.703125 11.40625 
Q 43.21875 16.703125 43.21875 25.484375 
L 43.21875 27.484375 
z
M 52.203125 31.203125 
L 52.203125 0 
L 43.21875 0 
L 43.21875 8.296875 
Q 40.140625 3.328125 35.546875 0.953125 
Q 30.953125 -1.421875 24.3125 -1.421875 
Q 15.921875 -1.421875 10.953125 3.296875 
Q 6 8.015625 6 15.921875 
Q 6 25.140625 12.171875 29.828125 
Q 18.359375 34.515625 30.609375 34.515625 
L 43.21875 34.515625 
L 43.21875 35.40625 
Q 43.21875 41.609375 39.140625 45 
Q 35.0625 48.390625 27.6875 48.390625 
Q 23 48.390625 18.546875 47.265625 
Q 14.109375 46.140625 10.015625 43.890625 
L 10.015625 52.203125 
Q 14.9375 54.109375 19.578125 55.046875 
Q 24.21875 56 28.609375 56 
Q 40.484375 56 46.34375 49.84375 
Q 52.203125 43.703125 52.203125 31.203125 
z
" id="DejaVuSans-97"/>
       <path d="M 18.3125 70.21875 
L 18.3125 54.6875 
L 36.8125 54.6875 
L 36.8125 47.703125 
L 18.3125 47.703125 
L 18.3125 18.015625 
Q 18.3125 11.328125 20.140625 9.421875 
Q 21.96875 7.515625 27.59375 7.515625 
L 36.8125 7.515625 
L 36.8125 0 
L 27.59375 0 
Q 17.1875 0 13.234375 3.875 
Q 9.28125 7.765625 9.28125 18.015625 
L 9.28125 47.703125 
L 2.6875 47.703125 
L 2.6875 54.6875 
L 9.28125 54.6875 
L 9.28125 70.21875 
z
" id="DejaVuSans-116"/>
      </defs>
      <g transform="translate(957.851923 274.718437)scale(0.1 -0.1)">
       <use xlink:href="#DejaVuSans-83"/>
       <use x="63.476562" xlink:href="#DejaVuSans-97"/>
       <use x="124.755859" xlink:href="#DejaVuSans-116"/>
       <use x="163.964844" xlink:href="#DejaVuSans-32"/>
       <use x="195.751953" xlink:href="#DejaVuSans-48"/>
       <use x="259.375" xlink:href="#DejaVuSans-48"/>
       <use x="322.998047" xlink:href="#DejaVuSans-58"/>
       <use x="356.689453" xlink:href="#DejaVuSans-48"/>
       <use x="420.3125" xlink:href="#DejaVuSans-48"/>
      </g>
     </g>
    </g>
   </g>
   <g id="matplotlib.axis_2">
    <g id="ytick_1">
     <g id="line2d_6">
      <defs>
       <path d="M 0 0 
L -3.5 0 
" id="m0c192822e4" style="stroke:#000000;stroke-width:0.8;"/>
      </defs>
      <g>
       <use style="stroke:#000000;stroke-width:0.8;" x="33.64" xlink:href="#m0c192822e4" y="260.12"/>
      </g>
     </g>
     <g id="text_6">
      <!-- 0 -->
      <g transform="translate(20.2775 263.919219)scale(0.1 -0.1)">
       <use xlink:href="#DejaVuSans-48"/>
      </g>
     </g>
    </g>
    <g id="ytick_2">
     <g id="line2d_7">
      <g>
       <use style="stroke:#000000;stroke-width:0.8;" x="33.64" xlink:href="#m0c192822e4" y="230.910476"/>
      </g>
     </g>
     <g id="text_7">
      <!-- 25 -->
      <defs>
       <path d="M 19.1875 8.296875 
L 53.609375 8.296875 
L 53.609375 0 
L 7.328125 0 
L 7.328125 8.296875 
Q 12.9375 14.109375 22.625 23.890625 
Q 32.328125 33.6875 34.8125 36.53125 
Q 39.546875 41.84375 41.421875 45.53125 
Q 43.3125 49.21875 43.3125 52.78125 
Q 43.3125 58.59375 39.234375 62.25 
Q 35.15625 65.921875 28.609375 65.921875 
Q 23.96875 65.921875 18.8125 64.3125 
Q 13.671875 62.703125 7.8125 59.421875 
L 7.8125 69.390625 
Q 13.765625 71.78125 18.9375 73 
Q 24.125 74.21875 28.421875 74.21875 
Q 39.75 74.21875 46.484375 68.546875 
Q 53.21875 62.890625 53.21875 53.421875 
Q 53.21875 48.921875 51.53125 44.890625 
Q 49.859375 40.875 45.40625 35.40625 
Q 44.1875 33.984375 37.640625 27.21875 
Q 31.109375 20.453125 19.1875 8.296875 
z
" id="DejaVuSans-50"/>
       <path d="M 10.796875 72.90625 
L 49.515625 72.90625 
L 49.515625 64.59375 
L 19.828125 64.59375 
L 19.828125 46.734375 
Q 21.96875 47.46875 24.109375 47.828125 
Q 26.265625 48.1875 28.421875 48.1875 
Q 40.625 48.1875 47.75 41.5 
Q 54.890625 34.8125 54.890625 23.390625 
Q 54.890625 11.625 47.5625 5.09375 
Q 40.234375 -1.421875 26.90625 -1.421875 
Q 22.3125 -1.421875 17.546875 -0.640625 
Q 12.796875 0.140625 7.71875 1.703125 
L 7.71875 11.625 
Q 12.109375 9.234375 16.796875 8.0625 
Q 21.484375 6.890625 26.703125 6.890625 
Q 35.15625 6.890625 40.078125 11.328125 
Q 45.015625 15.765625 45.015625 23.390625 
Q 45.015625 31 40.078125 35.4375 
Q 35.15625 39.890625 26.703125 39.890625 
Q 22.75 39.890625 18.8125 39.015625 
Q 14.890625 38.140625 10.796875 36.28125 
z
" id="DejaVuSans-53"/>
      </defs>
      <g transform="translate(13.915 234.709695)scale(0.1 -0.1)">
       <use xlink:href="#DejaVuSans-50"/>
       <use x="63.623047" xlink:href="#DejaVuSans-53"/>
      </g>
     </g>
    </g>
    <g id="ytick_3">
     <g id="line2d_8">
      <g>
       <use style="stroke:#000000;stroke-width:0.8;" x="33.64" xlink:href="#m0c192822e4" y="201.700952"/>
      </g>
     </g>
     <g id="text_8">
      <!-- 50 -->
      <g transform="translate(13.915 205.500171)scale(0.1 -0.1)">
       <use xlink:href="#DejaVuSans-53"/>
       <use x="63.623047" xlink:href="#DejaVuSans-48"/>
      </g>
     </g>
    </g>
    <g id="ytick_4">
     <g id="line2d_9">
      <g>
       <use style="stroke:#000000;stroke-width:0.8;" x="33.64" xlink:href="#m0c192822e4" y="172.491429"/>
      </g>
     </g>
     <g id="text_9">
      <!-- 75 -->
      <defs>
       <path d="M 8.203125 72.90625 
L 55.078125 72.90625 
L 55.078125 68.703125 
L 28.609375 0 
L 18.3125 0 
L 43.21875 64.59375 
L 8.203125 64.59375 
z
" id="DejaVuSans-55"/>
      </defs>
      <g transform="translate(13.915 176.290647)scale(0.1 -0.1)">
       <use xlink:href="#DejaVuSans-55"/>
       <use x="63.623047" xlink:href="#DejaVuSans-53"/>
      </g>
     </g>
    </g>
    <g id="ytick_5">
     <g id="line2d_10">
      <g>
       <use style="stroke:#000000;stroke-width:0.8;" x="33.64" xlink:href="#m0c192822e4" y="143.281905"/>
      </g>
     </g>
     <g id="text_10">
      <!-- 100 -->
      <defs>
       <path d="M 12.40625 8.296875 
L 28.515625 8.296875 
L 28.515625 63.921875 
L 10.984375 60.40625 
L 10.984375 69.390625 
L 28.421875 72.90625 
L 38.28125 72.90625 
L 38.28125 8.296875 
L 54.390625 8.296875 
L 54.390625 0 
L 12.40625 0 
z
" id="DejaVuSans-49"/>
      </defs>
      <g transform="translate(7.5525 147.081124)scale(0.1 -0.1)">
       <use xlink:href="#DejaVuSans-49"/>
       <use x="63.623047" xlink:href="#DejaVuSans-48"/>
       <use x="127.246094" xlink:href="#DejaVuSans-48"/>
      </g>
     </g>
    </g>
    <g id="ytick_6">
     <g id="line2d_11">
      <g>
       <use style="stroke:#000000;stroke-width:0.8;" x="33.64" xlink:href="#m0c192822e4" y="114.072381"/>
      </g>
     </g>
     <g id="text_11">
      <!-- 125 -->
      <g transform="translate(7.5525 117.8716)scale(0.1 -0.1)">
       <use xlink:href="#DejaVuSans-49"/>
       <use x="63.623047" xlink:href="#DejaVuSans-50"/>
       <use x="127.246094" xlink:href="#DejaVuSans-53"/>
      </g>
     </g>
    </g>
    <g id="ytick_7">
     <g id="line2d_12">
      <g>
       <use style="stroke:#000000;stroke-width:0.8;" x="33.64" xlink:href="#m0c192822e4" y="84.862857"/>
      </g>
     </g>
     <g id="text_12">
      <!-- 150 -->
      <g transform="translate(7.5525 88.662076)scale(0.1 -0.1)">
       <use xlink:href="#DejaVuSans-49"/>
       <use x="63.623047" xlink:href="#DejaVuSans-53"/>
       <use x="127.246094" xlink:href="#DejaVuSans-48"/>
      </g>
     </g>
    </g>
    <g id="ytick_8">
     <g id="line2d_13">
      <g>
       <use style="stroke:#000000;stroke-width:0.8;" x="33.64" xlink:href="#m0c192822e4" y="55.653333"/>
      </g>
     </g>
     <g id="text_13">
      <!-- 175 -->
      <g transform="translate(7.5525 59.452552)scale(0.1 -0.1)">
       <use xlink:href="#DejaVuSans-49"/>
       <use x="63.623047" xlink:href="#DejaVuSans-55"/>
       <use x="127.246094" xlink:href="#DejaVuSans-53"/>
      </g>
     </g>
    </g>
    <g id="ytick_9">
     <g id="line2d_14">
      <g>
       <use style="stroke:#000000;stroke-width:0.8;" x="33.64" xlink:href="#m0c192822e4" y="26.44381"/>
      </g>
     </g>
     <g id="text_14">
      <!-- 200 -->
      <g transform="translate(7.5525 30.243028)scale(0.1 -0.1)">
       <use xlink:href="#DejaVuSans-50"/>
       <use x="63.623047" xlink:href="#DejaVuSans-48"/>
       <use x="127.246094" xlink:href="#DejaVuSans-48"/>
      </g>
     </g>
    </g>
   </g>
   <g id="line2d_15">
    <path clip-path="url(#p2be7cf3d34)" d="M 33.64 260.12 
L 105.627735 260.12 
L 106.984051 257.783238 
L 108.341234 257.783238 
L 109.698504 254.278095 
L 111.055593 254.278095 
L 113.766973 249.604571 
L 115.123482 248.43619 
L 116.47864 248.43619 
L 117.834207 247.26781 
L 120.545992 247.26781 
L 121.902283 242.594286 
L 123.258037 236.752381 
L 124.613219 236.752381 
L 125.969286 229.742095 
L 127.327207 226.236952 
L 128.682834 226.236952 
L 130.038708 222.73181 
L 134.104857 222.73181 
L 135.460113 219.226667 
L 136.814814 218.058286 
L 139.526872 218.058286 
L 140.882319 223.90019 
L 142.237908 223.90019 
L 143.595342 229.742095 
L 144.950427 227.405333 
L 146.30665 227.405333 
L 147.66191 232.078857 
L 149.017104 233.247238 
L 150.37337 236.752381 
L 151.729193 236.752381 
L 153.086734 234.415619 
L 154.440956 234.415619 
L 155.79649 230.910476 
L 158.506251 216.889905 
L 159.860931 216.889905 
L 161.216169 212.216381 
L 162.572251 208.711238 
L 163.929371 208.711238 
L 165.284332 197.027429 
L 166.645292 192.353905 
L 168.005553 186.512 
L 169.360362 186.512 
L 170.716399 187.680381 
L 172.071431 187.680381 
L 173.42737 181.838476 
L 174.782904 164.312762 
L 176.137542 164.312762 
L 177.493069 150.29219 
L 178.849238 139.776762 
L 180.205567 116.409143 
L 181.560621 116.409143 
L 182.915429 89.536381 
L 184.272896 89.536381 
L 185.627744 67.337143 
L 186.982612 53.316571 
L 188.337035 47.474667 
L 189.691795 47.474667 
L 191.046922 54.484952 
L 192.401579 59.158476 
L 193.757426 59.158476 
L 195.113535 76.68419 
L 196.467827 74.347429 
L 197.825359 74.347429 
L 199.181687 79.020952 
L 200.536193 81.357714 
L 201.893086 93.041524 
L 203.247644 93.041524 
L 204.602497 100.05181 
L 205.957199 109.398857 
L 207.311256 109.398857 
L 208.666679 122.251048 
L 210.021356 128.092952 
L 211.378515 128.092952 
L 212.732585 129.261333 
L 214.087579 132.766476 
L 215.442467 139.776762 
L 216.796278 139.776762 
L 218.149819 260.12 
L 294.226185 260.12 
L 295.559375 258.951619 
L 296.918211 243.762667 
L 298.276405 243.762667 
L 299.634289 240.257524 
L 300.989777 235.584 
L 303.705174 235.584 
L 305.060567 232.078857 
L 306.415746 232.078857 
L 307.771641 227.405333 
L 309.127561 223.90019 
L 310.481853 223.90019 
L 311.838929 222.73181 
L 314.548615 222.73181 
L 315.903934 225.068571 
L 317.262015 218.058286 
L 318.619767 219.226667 
L 319.974154 219.226667 
L 321.329922 216.889905 
L 322.685844 218.058286 
L 324.04195 218.058286 
L 325.396746 221.563429 
L 326.751204 219.226667 
L 328.106987 219.226667 
L 329.463751 214.553143 
L 330.818405 218.058286 
L 332.17267 218.058286 
L 333.52704 213.384762 
L 334.884582 212.216381 
L 336.241913 208.711238 
L 337.598149 208.711238 
L 340.307657 201.700952 
L 341.664788 201.700952 
L 343.021945 204.037714 
L 345.74111 204.037714 
L 347.095323 200.532571 
L 349.807699 200.532571 
L 351.165025 197.027429 
L 352.520492 187.680381 
L 353.875512 187.680381 
L 355.22995 184.175238 
L 356.585407 178.333333 
L 357.940744 178.333333 
L 359.298273 171.323048 
L 360.653835 156.134095 
L 362.009717 128.092952 
L 363.368789 128.092952 
L 364.729484 116.409143 
L 367.439558 116.409143 
L 368.79887 98.883429 
L 370.154451 98.883429 
L 371.509278 79.020952 
L 372.863936 67.337143 
L 374.218807 49.811429 
L 375.573752 49.811429 
L 376.930422 38.127619 
L 380.994886 38.127619 
L 382.352796 26.44381 
L 383.710529 26.44381 
L 385.065025 48.643048 
L 386.42054 60.326857 
L 387.775592 74.347429 
L 389.133541 74.347429 
L 391.842908 110.567238 
L 393.201221 110.567238 
L 394.555923 125.75619 
L 395.911039 137.44 
L 397.265567 151.460571 
L 398.624091 151.460571 
L 399.979157 161.976 
L 401.335039 161.976 
L 402.69379 166.649524 
L 404.048235 174.82819 
L 405.404058 175.996571 
L 408.115155 175.996571 
L 409.46928 260.12 
L 484.189338 260.12 
L 485.543978 255.446476 
L 488.254945 241.425905 
L 489.612248 241.425905 
L 490.967607 240.257524 
L 493.682298 240.257524 
L 495.037308 239.089143 
L 496.392425 239.089143 
L 497.749692 232.078857 
L 499.106505 232.078857 
L 500.461988 228.573714 
L 501.819175 228.573714 
L 503.175177 226.236952 
L 504.531963 225.068571 
L 509.95665 225.068571 
L 511.317933 226.236952 
L 514.027519 226.236952 
L 515.38246 223.90019 
L 516.739224 216.889905 
L 518.094019 219.226667 
L 519.451736 219.226667 
L 520.809108 221.563429 
L 522.163888 221.563429 
L 524.874378 214.553143 
L 526.232 212.216381 
L 527.589324 212.216381 
L 528.943992 208.711238 
L 530.300901 206.374476 
L 531.658356 206.374476 
L 533.013658 209.879619 
L 534.370474 207.542857 
L 535.727235 206.374476 
L 537.085103 206.374476 
L 538.443379 205.206095 
L 539.79881 205.206095 
L 541.154472 198.19581 
L 542.511155 190.017143 
L 543.869911 190.017143 
L 545.227591 184.175238 
L 546.584544 171.323048 
L 547.939231 170.154667 
L 549.298694 170.154667 
L 550.656407 159.639238 
L 552.01412 159.639238 
L 553.370238 156.134095 
L 554.727503 153.797333 
L 556.085401 129.261333 
L 557.452644 129.261333 
L 558.808374 123.419429 
L 560.163822 115.240762 
L 561.520635 115.240762 
L 562.876527 98.883429 
L 564.231754 96.546667 
L 565.587598 96.546667 
L 566.943901 108.230476 
L 568.303887 101.22019 
L 569.65813 101.22019 
L 571.012644 96.546667 
L 572.370582 89.536381 
L 573.731599 95.378286 
L 575.089791 95.378286 
L 576.446922 94.209905 
L 577.80512 119.914286 
L 579.162228 119.914286 
L 580.516645 125.75619 
L 581.87392 144.450286 
L 583.231312 146.787048 
L 584.588354 146.787048 
L 585.945543 156.134095 
L 587.299766 156.134095 
L 588.657322 165.481143 
L 590.015204 171.323048 
L 591.369852 173.65981 
L 592.727915 173.65981 
L 594.085384 180.670095 
L 595.439424 181.838476 
L 598.154607 181.838476 
L 599.512243 260.12 
L 675.5976 260.12 
L 676.952038 256.614857 
L 678.30616 248.43619 
L 679.660876 248.43619 
L 681.018289 244.931048 
L 682.373501 242.594286 
L 683.72874 242.594286 
L 686.441769 235.584 
L 687.798231 230.910476 
L 689.156161 230.910476 
L 690.511022 229.742095 
L 691.866622 229.742095 
L 693.221392 226.236952 
L 694.579339 223.90019 
L 695.93506 223.90019 
L 698.646781 221.563429 
L 700.00231 225.068571 
L 701.359113 225.068571 
L 702.714476 222.73181 
L 704.07072 219.226667 
L 705.426593 219.226667 
L 706.782551 211.048 
L 708.138277 211.048 
L 709.493666 212.216381 
L 713.56252 212.216381 
L 714.91951 205.206095 
L 717.630838 205.206095 
L 718.987622 197.027429 
L 720.344399 194.690667 
L 721.701602 199.36419 
L 723.058649 199.36419 
L 724.421855 195.859048 
L 725.777466 195.859048 
L 727.132496 191.185524 
L 728.488573 184.175238 
L 729.844261 175.996571 
L 731.201198 175.996571 
L 732.557208 167.817905 
L 733.914969 161.976 
L 735.27192 161.976 
L 736.629729 157.302476 
L 737.987417 143.281905 
L 739.346475 143.281905 
L 740.704176 138.608381 
L 742.061224 128.092952 
L 743.418423 114.072381 
L 744.774312 114.072381 
L 746.129514 98.883429 
L 747.484456 104.725333 
L 748.839963 104.725333 
L 750.196314 86.031238 
L 751.551551 86.031238 
L 752.912875 70.842286 
L 754.268922 59.158476 
L 755.625275 46.306286 
L 756.983225 46.306286 
L 758.341456 28.780571 
L 759.698542 32.285714 
L 761.053818 32.285714 
L 762.410202 38.127619 
L 763.764372 31.117333 
L 765.119168 31.117333 
L 766.473798 41.632762 
L 767.82963 54.484952 
L 769.184852 62.663619 
L 770.539936 62.663619 
L 771.894213 76.68419 
L 773.254531 96.546667 
L 774.608967 96.546667 
L 775.966028 105.893714 
L 777.323071 121.082667 
L 778.677921 121.082667 
L 780.033017 126.924571 
L 781.389947 144.450286 
L 782.746961 144.450286 
L 784.101492 152.628952 
L 785.456542 158.470857 
L 788.169111 158.470857 
L 789.523923 260.12 
L 862.918471 260.12 
L 864.251586 256.614857 
L 865.607044 256.614857 
L 866.962323 254.278095 
L 868.316968 249.604571 
L 869.672002 247.26781 
L 871.029722 247.26781 
L 872.385964 242.594286 
L 873.741562 233.247238 
L 875.097875 233.247238 
L 876.452697 227.405333 
L 877.806945 227.405333 
L 879.161491 223.90019 
L 880.519344 223.90019 
L 881.873909 216.889905 
L 883.228984 216.889905 
L 884.584229 213.384762 
L 885.938853 215.721524 
L 887.29408 215.721524 
L 888.649278 216.889905 
L 890.004504 220.395048 
L 892.720728 220.395048 
L 894.075423 221.563429 
L 895.43036 221.563429 
L 896.785386 219.226667 
L 898.140667 225.068571 
L 900.849393 225.068571 
L 902.203741 220.395048 
L 903.559739 222.73181 
L 904.916735 222.73181 
L 906.272683 220.395048 
L 907.630056 220.395048 
L 908.985654 218.058286 
L 910.340312 206.374476 
L 911.695146 202.869333 
L 913.051464 202.869333 
L 914.405588 194.690667 
L 915.761004 187.680381 
L 917.115356 187.680381 
L 918.473173 181.838476 
L 919.833293 171.323048 
L 921.189801 164.312762 
L 922.548715 164.312762 
L 923.903115 158.470857 
L 925.257823 158.470857 
L 926.616736 153.797333 
L 927.972272 147.955429 
L 929.328501 145.618667 
L 930.687028 145.618667 
L 932.04303 137.44 
L 933.398539 150.29219 
L 934.75348 150.29219 
L 936.114984 161.976 
L 937.470056 160.807619 
L 938.824466 160.807619 
L 940.179346 150.29219 
L 941.534483 144.450286 
L 942.891441 144.450286 
L 944.247096 135.103238 
L 945.602292 126.924571 
L 946.959537 126.924571 
L 948.314653 125.75619 
L 949.67042 128.092952 
L 951.029681 125.75619 
L 952.397332 125.75619 
L 953.75668 130.429714 
L 955.116815 131.598095 
L 956.477629 131.598095 
L 957.848307 143.281905 
L 960.570096 143.281905 
L 961.930941 151.460571 
L 963.286938 158.470857 
L 964.648599 160.807619 
L 966.005116 160.807619 
L 967.363203 166.649524 
L 968.718952 166.649524 
L 970.076644 179.501714 
L 971.432543 185.343619 
L 972.788158 187.680381 
L 974.142696 187.680381 
L 975.499655 193.522286 
L 978.210826 193.522286 
L 979.578134 260.12 
L 1052.959669 260.12 
L 1054.292319 253.109714 
L 1055.647649 251.941333 
L 1057.004095 251.941333 
L 1058.36067 241.425905 
L 1059.714677 235.584 
L 1061.068859 235.584 
L 1062.423454 233.247238 
L 1063.777402 233.247238 
L 1065.131389 220.395048 
L 1066.487613 209.879619 
L 1067.841679 207.542857 
L 1069.196143 207.542857 
L 1071.904659 193.522286 
L 1073.25835 193.522286 
L 1075.969794 186.512 
L 1077.323938 187.680381 
L 1079.045303 187.680381 
L 1080.40061 195.859048 
L 1081.758461 199.36419 
L 1083.112597 199.36419 
L 1084.469427 200.532571 
L 1085.828747 200.532571 
L 1087.183374 187.680381 
L 1088.537569 187.680381 
L 1089.891799 180.670095 
L 1091.246691 180.670095 
L 1092.602034 175.996571 
L 1093.955867 177.164952 
L 1095.311396 177.164952 
L 1096.668203 187.680381 
L 1098.022386 186.512 
L 1099.376922 180.670095 
L 1100.731204 180.670095 
L 1102.085854 181.838476 
L 1103.439819 173.65981 
L 1104.79406 173.65981 
L 1106.149292 185.343619 
L 1107.505383 198.19581 
L 1108.859523 198.19581 
L 1111.571151 205.206095 
L 1112.927261 205.206095 
L 1114.283776 204.037714 
L 1115.640319 205.206095 
L 1116.997466 201.700952 
L 1118.35493 201.700952 
L 1119.711872 202.869333 
L 1121.068874 211.048 
L 1122.425662 211.048 
L 1123.781144 214.553143 
L 1125.136698 215.721524 
L 1126.493772 215.721524 
L 1129.208065 208.711238 
L 1130.565629 208.711238 
L 1131.922677 204.037714 
L 1133.28 205.206095 
L 1133.28 205.206095 
" style="fill:none;stroke:#1f77b4;stroke-linecap:square;stroke-width:1.5;"/>
   </g>
   <g id="patch_3">
    <path d="M 33.64 260.12 
L 33.64 14.76 
" style="fill:none;stroke:#000000;stroke-linecap:square;stroke-linejoin:miter;stroke-width:0.8;"/>
   </g>
   <g id="patch_4">
    <path d="M 1133.28 260.12 
L 1133.28 14.76 
" style="fill:none;stroke:#000000;stroke-linecap:square;stroke-linejoin:miter;stroke-width:0.8;"/>
   </g>
   <g id="patch_5">
    <path d="M 33.64 260.12 
L 1133.28 260.12 
" style="fill:none;stroke:#000000;stroke-linecap:square;stroke-linejoin:miter;stroke-width:0.8;"/>
   </g>
   <g id="patch_6">
    <path d="M 33.64 14.76 
L 1133.28 14.76 
" style="fill:none;stroke:#000000;stroke-linecap:square;stroke-linejoin:miter;stroke-width:0.8;"/>
   </g>
  </g>
 </g>
 <defs>
  <clipPath id="p2be7cf3d34">
   <rect height="245.36" width="1099.64" x="33.64" y="14.76"/>
  </clipPath>
 </defs>
</svg>
