<?xml version="1.0" encoding="utf-8" standalone="no"?>
<!DOCTYPE svg PUBLIC "-//W3C//DTD SVG 1.1//EN"
  "http://www.w3.org/Graphics/SVG/1.1/DTD/svg11.dtd">
<!-- Created with matplotlib (https://matplotlib.org/) -->
<svg height="288pt" version="1.1" viewBox="0 0 1152 288" width="1152pt" xmlns="http://www.w3.org/2000/svg" xmlns:xlink="http://www.w3.org/1999/xlink">
 <defs>
  <style type="text/css">
*{stroke-linecap:butt;stroke-linejoin:round;}
  </style>
 </defs>
 <g id="figure_1">
  <g id="patch_1">
   <path d="M 0 288 
L 1152 288 
L 1152 0 
L 0 0 
z
" style="fill:#ffffff;"/>
  </g>
  <g id="axes_1">
   <g id="patch_2">
    <path d="M 33.64 260.12 
L 1133.28 260.12 
L 1133.28 14.76 
L 33.64 14.76 
z
" style="fill:#ffffff;"/>
   </g>
   <g id="matplotlib.axis_1">
    <g id="xtick_1">
     <g id="line2d_1">
      <defs>
       <path d="M 0 0 
L 0 3.5 
" id="mad6bf45bd2" style="stroke:#000000;stroke-width:0.8;"/>
      </defs>
      <g>
       <use style="stroke:#000000;stroke-width:0.8;" x="205.134743" xlink:href="#mad6bf45bd2" y="260.12"/>
      </g>
     </g>
     <g id="text_1">
      <!-- Tue 00:00 -->
      <defs>
       <path d="M -0.296875 72.90625 
L 61.375 72.90625 
L 61.375 64.59375 
L 35.5 64.59375 
L 35.5 0 
L 25.59375 0 
L 25.59375 64.59375 
L -0.296875 64.59375 
z
" id="DejaVuSans-84"/>
       <path d="M 8.5 21.578125 
L 8.5 54.6875 
L 17.484375 54.6875 
L 17.484375 21.921875 
Q 17.484375 14.15625 20.5 10.265625 
Q 23.53125 6.390625 29.59375 6.390625 
Q 36.859375 6.390625 41.078125 11.03125 
Q 45.3125 15.671875 45.3125 23.6875 
L 45.3125 54.6875 
L 54.296875 54.6875 
L 54.296875 0 
L 45.3125 0 
L 45.3125 8.40625 
Q 42.046875 3.421875 37.71875 1 
Q 33.40625 -1.421875 27.6875 -1.421875 
Q 18.265625 -1.421875 13.375 4.4375 
Q 8.5 10.296875 8.5 21.578125 
z
M 31.109375 56 
z
" id="DejaVuSans-117"/>
       <path d="M 56.203125 29.59375 
L 56.203125 25.203125 
L 14.890625 25.203125 
Q 15.484375 15.921875 20.484375 11.0625 
Q 25.484375 6.203125 34.421875 6.203125 
Q 39.59375 6.203125 44.453125 7.46875 
Q 49.3125 8.734375 54.109375 11.28125 
L 54.109375 2.78125 
Q 49.265625 0.734375 44.1875 -0.34375 
Q 39.109375 -1.421875 33.890625 -1.421875 
Q 20.796875 -1.421875 13.15625 6.1875 
Q 5.515625 13.8125 5.515625 26.8125 
Q 5.515625 40.234375 12.765625 48.109375 
Q 20.015625 56 32.328125 56 
Q 43.359375 56 49.78125 48.890625 
Q 56.203125 41.796875 56.203125 29.59375 
z
M 47.21875 32.234375 
Q 47.125 39.59375 43.09375 43.984375 
Q 39.0625 48.390625 32.421875 48.390625 
Q 24.90625 48.390625 20.390625 44.140625 
Q 15.875 39.890625 15.1875 32.171875 
z
" id="DejaVuSans-101"/>
       <path id="DejaVuSans-32"/>
       <path d="M 31.78125 66.40625 
Q 24.171875 66.40625 20.328125 58.90625 
Q 16.5 51.421875 16.5 36.375 
Q 16.5 21.390625 20.328125 13.890625 
Q 24.171875 6.390625 31.78125 6.390625 
Q 39.453125 6.390625 43.28125 13.890625 
Q 47.125 21.390625 47.125 36.375 
Q 47.125 51.421875 43.28125 58.90625 
Q 39.453125 66.40625 31.78125 66.40625 
z
M 31.78125 74.21875 
Q 44.046875 74.21875 50.515625 64.515625 
Q 56.984375 54.828125 56.984375 36.375 
Q 56.984375 17.96875 50.515625 8.265625 
Q 44.046875 -1.421875 31.78125 -1.421875 
Q 19.53125 -1.421875 13.0625 8.265625 
Q 6.59375 17.96875 6.59375 36.375 
Q 6.59375 54.828125 13.0625 64.515625 
Q 19.53125 74.21875 31.78125 74.21875 
z
" id="DejaVuSans-48"/>
       <path d="M 11.71875 12.40625 
L 22.015625 12.40625 
L 22.015625 0 
L 11.71875 0 
z
M 11.71875 51.703125 
L 22.015625 51.703125 
L 22.015625 39.3125 
L 11.71875 39.3125 
z
" id="DejaVuSans-58"/>
      </defs>
      <g transform="translate(179.848806 274.718437)scale(0.1 -0.1)">
       <use xlink:href="#DejaVuSans-84"/>
       <use x="60.849609" xlink:href="#DejaVuSans-117"/>
       <use x="124.228516" xlink:href="#DejaVuSans-101"/>
       <use x="185.751953" xlink:href="#DejaVuSans-32"/>
       <use x="217.539062" xlink:href="#DejaVuSans-48"/>
       <use x="281.162109" xlink:href="#DejaVuSans-48"/>
       <use x="344.785156" xlink:href="#DejaVuSans-58"/>
       <use x="378.476562" xlink:href="#DejaVuSans-48"/>
       <use x="442.099609" xlink:href="#DejaVuSans-48"/>
      </g>
     </g>
    </g>
    <g id="xtick_2">
     <g id="line2d_2">
      <g>
       <use style="stroke:#000000;stroke-width:0.8;" x="376.8035" xlink:href="#mad6bf45bd2" y="260.12"/>
      </g>
     </g>
     <g id="text_2">
      <!-- Wed 00:00 -->
      <defs>
       <path d="M 3.328125 72.90625 
L 13.28125 72.90625 
L 28.609375 11.28125 
L 43.890625 72.90625 
L 54.984375 72.90625 
L 70.3125 11.28125 
L 85.59375 72.90625 
L 95.609375 72.90625 
L 77.296875 0 
L 64.890625 0 
L 49.515625 63.28125 
L 33.984375 0 
L 21.578125 0 
z
" id="DejaVuSans-87"/>
       <path d="M 45.40625 46.390625 
L 45.40625 75.984375 
L 54.390625 75.984375 
L 54.390625 0 
L 45.40625 0 
L 45.40625 8.203125 
Q 42.578125 3.328125 38.25 0.953125 
Q 33.9375 -1.421875 27.875 -1.421875 
Q 17.96875 -1.421875 11.734375 6.484375 
Q 5.515625 14.40625 5.515625 27.296875 
Q 5.515625 40.1875 11.734375 48.09375 
Q 17.96875 56 27.875 56 
Q 33.9375 56 38.25 53.625 
Q 42.578125 51.265625 45.40625 46.390625 
z
M 14.796875 27.296875 
Q 14.796875 17.390625 18.875 11.75 
Q 22.953125 6.109375 30.078125 6.109375 
Q 37.203125 6.109375 41.296875 11.75 
Q 45.40625 17.390625 45.40625 27.296875 
Q 45.40625 37.203125 41.296875 42.84375 
Q 37.203125 48.484375 30.078125 48.484375 
Q 22.953125 48.484375 18.875 42.84375 
Q 14.796875 37.203125 14.796875 27.296875 
z
" id="DejaVuSans-100"/>
      </defs>
      <g transform="translate(349.614437 274.718437)scale(0.1 -0.1)">
       <use xlink:href="#DejaVuSans-87"/>
       <use x="98.798828" xlink:href="#DejaVuSans-101"/>
       <use x="160.322266" xlink:href="#DejaVuSans-100"/>
       <use x="223.798828" xlink:href="#DejaVuSans-32"/>
       <use x="255.585938" xlink:href="#DejaVuSans-48"/>
       <use x="319.208984" xlink:href="#DejaVuSans-48"/>
       <use x="382.832031" xlink:href="#DejaVuSans-58"/>
       <use x="416.523438" xlink:href="#DejaVuSans-48"/>
       <use x="480.146484" xlink:href="#DejaVuSans-48"/>
      </g>
     </g>
    </g>
    <g id="xtick_3">
     <g id="line2d_3">
      <g>
       <use style="stroke:#000000;stroke-width:0.8;" x="548.472256" xlink:href="#mad6bf45bd2" y="260.12"/>
      </g>
     </g>
     <g id="text_3">
      <!-- Thu 00:00 -->
      <defs>
       <path d="M 54.890625 33.015625 
L 54.890625 0 
L 45.90625 0 
L 45.90625 32.71875 
Q 45.90625 40.484375 42.875 44.328125 
Q 39.84375 48.1875 33.796875 48.1875 
Q 26.515625 48.1875 22.3125 43.546875 
Q 18.109375 38.921875 18.109375 30.90625 
L 18.109375 0 
L 9.078125 0 
L 9.078125 75.984375 
L 18.109375 75.984375 
L 18.109375 46.1875 
Q 21.34375 51.125 25.703125 53.5625 
Q 30.078125 56 35.796875 56 
Q 45.21875 56 50.046875 50.171875 
Q 54.890625 44.34375 54.890625 33.015625 
z
" id="DejaVuSans-104"/>
      </defs>
      <g transform="translate(523.082412 274.718437)scale(0.1 -0.1)">
       <use xlink:href="#DejaVuSans-84"/>
       <use x="61.083984" xlink:href="#DejaVuSans-104"/>
       <use x="124.462891" xlink:href="#DejaVuSans-117"/>
       <use x="187.841797" xlink:href="#DejaVuSans-32"/>
       <use x="219.628906" xlink:href="#DejaVuSans-48"/>
       <use x="283.251953" xlink:href="#DejaVuSans-48"/>
       <use x="346.875" xlink:href="#DejaVuSans-58"/>
       <use x="380.566406" xlink:href="#DejaVuSans-48"/>
       <use x="444.189453" xlink:href="#DejaVuSans-48"/>
      </g>
     </g>
    </g>
    <g id="xtick_4">
     <g id="line2d_4">
      <g>
       <use style="stroke:#000000;stroke-width:0.8;" x="720.141012" xlink:href="#mad6bf45bd2" y="260.12"/>
      </g>
     </g>
     <g id="text_4">
      <!-- Fri 00:00 -->
      <defs>
       <path d="M 9.8125 72.90625 
L 51.703125 72.90625 
L 51.703125 64.59375 
L 19.671875 64.59375 
L 19.671875 43.109375 
L 48.578125 43.109375 
L 48.578125 34.8125 
L 19.671875 34.8125 
L 19.671875 0 
L 9.8125 0 
z
" id="DejaVuSans-70"/>
       <path d="M 41.109375 46.296875 
Q 39.59375 47.171875 37.8125 47.578125 
Q 36.03125 48 33.890625 48 
Q 26.265625 48 22.1875 43.046875 
Q 18.109375 38.09375 18.109375 28.8125 
L 18.109375 0 
L 9.078125 0 
L 9.078125 54.6875 
L 18.109375 54.6875 
L 18.109375 46.1875 
Q 20.953125 51.171875 25.484375 53.578125 
Q 30.03125 56 36.53125 56 
Q 37.453125 56 38.578125 55.875 
Q 39.703125 55.765625 41.0625 55.515625 
z
" id="DejaVuSans-114"/>
       <path d="M 9.421875 54.6875 
L 18.40625 54.6875 
L 18.40625 0 
L 9.421875 0 
z
M 9.421875 75.984375 
L 18.40625 75.984375 
L 18.40625 64.59375 
L 9.421875 64.59375 
z
" id="DejaVuSans-105"/>
      </defs>
      <g transform="translate(697.827731 274.718437)scale(0.1 -0.1)">
       <use xlink:href="#DejaVuSans-70"/>
       <use x="57.410156" xlink:href="#DejaVuSans-114"/>
       <use x="98.523438" xlink:href="#DejaVuSans-105"/>
       <use x="126.306641" xlink:href="#DejaVuSans-32"/>
       <use x="158.09375" xlink:href="#DejaVuSans-48"/>
       <use x="221.716797" xlink:href="#DejaVuSans-48"/>
       <use x="285.339844" xlink:href="#DejaVuSans-58"/>
       <use x="319.03125" xlink:href="#DejaVuSans-48"/>
       <use x="382.654297" xlink:href="#DejaVuSans-48"/>
      </g>
     </g>
    </g>
    <g id="xtick_5">
     <g id="line2d_5">
      <g>
       <use style="stroke:#000000;stroke-width:0.8;" x="891.809769" xlink:href="#mad6bf45bd2" y="260.12"/>
      </g>
     </g>
     <g id="text_5">
      <!-- Sat 00:00 -->
      <defs>
       <path d="M 53.515625 70.515625 
L 53.515625 60.890625 
Q 47.90625 63.578125 42.921875 64.890625 
Q 37.9375 66.21875 33.296875 66.21875 
Q 25.25 66.21875 20.875 63.09375 
Q 16.5 59.96875 16.5 54.203125 
Q 16.5 49.359375 19.40625 46.890625 
Q 22.3125 44.4375 30.421875 42.921875 
L 36.375 41.703125 
Q 47.40625 39.59375 52.65625 34.296875 
Q 57.90625 29 57.90625 20.125 
Q 57.90625 9.515625 50.796875 4.046875 
Q 43.703125 -1.421875 29.984375 -1.421875 
Q 24.8125 -1.421875 18.96875 -0.25 
Q 13.140625 0.921875 6.890625 3.21875 
L 6.890625 13.375 
Q 12.890625 10.015625 18.65625 8.296875 
Q 24.421875 6.59375 29.984375 6.59375 
Q 38.421875 6.59375 43.015625 9.90625 
Q 47.609375 13.234375 47.609375 19.390625 
Q 47.609375 24.75 44.3125 27.78125 
Q 41.015625 30.8125 33.5 32.328125 
L 27.484375 33.5 
Q 16.453125 35.6875 11.515625 40.375 
Q 6.59375 45.0625 6.59375 53.421875 
Q 6.59375 63.09375 13.40625 68.65625 
Q 20.21875 74.21875 32.171875 74.21875 
Q 37.3125 74.21875 42.625 73.28125 
Q 47.953125 72.359375 53.515625 70.515625 
z
" id="DejaVuSans-83"/>
       <path d="M 34.28125 27.484375 
Q 23.390625 27.484375 19.1875 25 
Q 14.984375 22.515625 14.984375 16.5 
Q 14.984375 11.71875 18.140625 8.90625 
Q 21.296875 6.109375 26.703125 6.109375 
Q 34.1875 6.109375 38.703125 11.40625 
Q 43.21875 16.703125 43.21875 25.484375 
L 43.21875 27.484375 
z
M 52.203125 31.203125 
L 52.203125 0 
L 43.21875 0 
L 43.21875 8.296875 
Q 40.140625 3.328125 35.546875 0.953125 
Q 30.953125 -1.421875 24.3125 -1.421875 
Q 15.921875 -1.421875 10.953125 3.296875 
Q 6 8.015625 6 15.921875 
Q 6 25.140625 12.171875 29.828125 
Q 18.359375 34.515625 30.609375 34.515625 
L 43.21875 34.515625 
L 43.21875 35.40625 
Q 43.21875 41.609375 39.140625 45 
Q 35.0625 48.390625 27.6875 48.390625 
Q 23 48.390625 18.546875 47.265625 
Q 14.109375 46.140625 10.015625 43.890625 
L 10.015625 52.203125 
Q 14.9375 54.109375 19.578125 55.046875 
Q 24.21875 56 28.609375 56 
Q 40.484375 56 46.34375 49.84375 
Q 52.203125 43.703125 52.203125 31.203125 
z
" id="DejaVuSans-97"/>
       <path d="M 18.3125 70.21875 
L 18.3125 54.6875 
L 36.8125 54.6875 
L 36.8125 47.703125 
L 18.3125 47.703125 
L 18.3125 18.015625 
Q 18.3125 11.328125 20.140625 9.421875 
Q 21.96875 7.515625 27.59375 7.515625 
L 36.8125 7.515625 
L 36.8125 0 
L 27.59375 0 
Q 17.1875 0 13.234375 3.875 
Q 9.28125 7.765625 9.28125 18.015625 
L 9.28125 47.703125 
L 2.6875 47.703125 
L 2.6875 54.6875 
L 9.28125 54.6875 
L 9.28125 70.21875 
z
" id="DejaVuSans-116"/>
      </defs>
      <g transform="translate(867.612894 274.718437)scale(0.1 -0.1)">
       <use xlink:href="#DejaVuSans-83"/>
       <use x="63.476562" xlink:href="#DejaVuSans-97"/>
       <use x="124.755859" xlink:href="#DejaVuSans-116"/>
       <use x="163.964844" xlink:href="#DejaVuSans-32"/>
       <use x="195.751953" xlink:href="#DejaVuSans-48"/>
       <use x="259.375" xlink:href="#DejaVuSans-48"/>
       <use x="322.998047" xlink:href="#DejaVuSans-58"/>
       <use x="356.689453" xlink:href="#DejaVuSans-48"/>
       <use x="420.3125" xlink:href="#DejaVuSans-48"/>
      </g>
     </g>
    </g>
    <g id="xtick_6">
     <g id="line2d_6">
      <g>
       <use style="stroke:#000000;stroke-width:0.8;" x="1063.478525" xlink:href="#mad6bf45bd2" y="260.12"/>
      </g>
     </g>
     <g id="text_6">
      <!-- Sun 00:00 -->
      <defs>
       <path d="M 54.890625 33.015625 
L 54.890625 0 
L 45.90625 0 
L 45.90625 32.71875 
Q 45.90625 40.484375 42.875 44.328125 
Q 39.84375 48.1875 33.796875 48.1875 
Q 26.515625 48.1875 22.3125 43.546875 
Q 18.109375 38.921875 18.109375 30.90625 
L 18.109375 0 
L 9.078125 0 
L 9.078125 54.6875 
L 18.109375 54.6875 
L 18.109375 46.1875 
Q 21.34375 51.125 25.703125 53.5625 
Q 30.078125 56 35.796875 56 
Q 45.21875 56 50.046875 50.171875 
Q 54.890625 44.34375 54.890625 33.015625 
z
" id="DejaVuSans-110"/>
      </defs>
      <g transform="translate(1037.968369 274.718437)scale(0.1 -0.1)">
       <use xlink:href="#DejaVuSans-83"/>
       <use x="63.476562" xlink:href="#DejaVuSans-117"/>
       <use x="126.855469" xlink:href="#DejaVuSans-110"/>
       <use x="190.234375" xlink:href="#DejaVuSans-32"/>
       <use x="222.021484" xlink:href="#DejaVuSans-48"/>
       <use x="285.644531" xlink:href="#DejaVuSans-48"/>
       <use x="349.267578" xlink:href="#DejaVuSans-58"/>
       <use x="382.958984" xlink:href="#DejaVuSans-48"/>
       <use x="446.582031" xlink:href="#DejaVuSans-48"/>
      </g>
     </g>
    </g>
   </g>
   <g id="matplotlib.axis_2">
    <g id="ytick_1">
     <g id="line2d_7">
      <defs>
       <path d="M 0 0 
L -3.5 0 
" id="m63fe1690fd" style="stroke:#000000;stroke-width:0.8;"/>
      </defs>
      <g>
       <use style="stroke:#000000;stroke-width:0.8;" x="33.64" xlink:href="#m63fe1690fd" y="260.12"/>
      </g>
     </g>
     <g id="text_7">
      <!-- 0 -->
      <g transform="translate(20.2775 263.919219)scale(0.1 -0.1)">
       <use xlink:href="#DejaVuSans-48"/>
      </g>
     </g>
    </g>
    <g id="ytick_2">
     <g id="line2d_8">
      <g>
       <use style="stroke:#000000;stroke-width:0.8;" x="33.64" xlink:href="#m63fe1690fd" y="230.910476"/>
      </g>
     </g>
     <g id="text_8">
      <!-- 25 -->
      <defs>
       <path d="M 19.1875 8.296875 
L 53.609375 8.296875 
L 53.609375 0 
L 7.328125 0 
L 7.328125 8.296875 
Q 12.9375 14.109375 22.625 23.890625 
Q 32.328125 33.6875 34.8125 36.53125 
Q 39.546875 41.84375 41.421875 45.53125 
Q 43.3125 49.21875 43.3125 52.78125 
Q 43.3125 58.59375 39.234375 62.25 
Q 35.15625 65.921875 28.609375 65.921875 
Q 23.96875 65.921875 18.8125 64.3125 
Q 13.671875 62.703125 7.8125 59.421875 
L 7.8125 69.390625 
Q 13.765625 71.78125 18.9375 73 
Q 24.125 74.21875 28.421875 74.21875 
Q 39.75 74.21875 46.484375 68.546875 
Q 53.21875 62.890625 53.21875 53.421875 
Q 53.21875 48.921875 51.53125 44.890625 
Q 49.859375 40.875 45.40625 35.40625 
Q 44.1875 33.984375 37.640625 27.21875 
Q 31.109375 20.453125 19.1875 8.296875 
z
" id="DejaVuSans-50"/>
       <path d="M 10.796875 72.90625 
L 49.515625 72.90625 
L 49.515625 64.59375 
L 19.828125 64.59375 
L 19.828125 46.734375 
Q 21.96875 47.46875 24.109375 47.828125 
Q 26.265625 48.1875 28.421875 48.1875 
Q 40.625 48.1875 47.75 41.5 
Q 54.890625 34.8125 54.890625 23.390625 
Q 54.890625 11.625 47.5625 5.09375 
Q 40.234375 -1.421875 26.90625 -1.421875 
Q 22.3125 -1.421875 17.546875 -0.640625 
Q 12.796875 0.140625 7.71875 1.703125 
L 7.71875 11.625 
Q 12.109375 9.234375 16.796875 8.0625 
Q 21.484375 6.890625 26.703125 6.890625 
Q 35.15625 6.890625 40.078125 11.328125 
Q 45.015625 15.765625 45.015625 23.390625 
Q 45.015625 31 40.078125 35.4375 
Q 35.15625 39.890625 26.703125 39.890625 
Q 22.75 39.890625 18.8125 39.015625 
Q 14.890625 38.140625 10.796875 36.28125 
z
" id="DejaVuSans-53"/>
      </defs>
      <g transform="translate(13.915 234.709695)scale(0.1 -0.1)">
       <use xlink:href="#DejaVuSans-50"/>
       <use x="63.623047" xlink:href="#DejaVuSans-53"/>
      </g>
     </g>
    </g>
    <g id="ytick_3">
     <g id="line2d_9">
      <g>
       <use style="stroke:#000000;stroke-width:0.8;" x="33.64" xlink:href="#m63fe1690fd" y="201.700952"/>
      </g>
     </g>
     <g id="text_9">
      <!-- 50 -->
      <g transform="translate(13.915 205.500171)scale(0.1 -0.1)">
       <use xlink:href="#DejaVuSans-53"/>
       <use x="63.623047" xlink:href="#DejaVuSans-48"/>
      </g>
     </g>
    </g>
    <g id="ytick_4">
     <g id="line2d_10">
      <g>
       <use style="stroke:#000000;stroke-width:0.8;" x="33.64" xlink:href="#m63fe1690fd" y="172.491429"/>
      </g>
     </g>
     <g id="text_10">
      <!-- 75 -->
      <defs>
       <path d="M 8.203125 72.90625 
L 55.078125 72.90625 
L 55.078125 68.703125 
L 28.609375 0 
L 18.3125 0 
L 43.21875 64.59375 
L 8.203125 64.59375 
z
" id="DejaVuSans-55"/>
      </defs>
      <g transform="translate(13.915 176.290647)scale(0.1 -0.1)">
       <use xlink:href="#DejaVuSans-55"/>
       <use x="63.623047" xlink:href="#DejaVuSans-53"/>
      </g>
     </g>
    </g>
    <g id="ytick_5">
     <g id="line2d_11">
      <g>
       <use style="stroke:#000000;stroke-width:0.8;" x="33.64" xlink:href="#m63fe1690fd" y="143.281905"/>
      </g>
     </g>
     <g id="text_11">
      <!-- 100 -->
      <defs>
       <path d="M 12.40625 8.296875 
L 28.515625 8.296875 
L 28.515625 63.921875 
L 10.984375 60.40625 
L 10.984375 69.390625 
L 28.421875 72.90625 
L 38.28125 72.90625 
L 38.28125 8.296875 
L 54.390625 8.296875 
L 54.390625 0 
L 12.40625 0 
z
" id="DejaVuSans-49"/>
      </defs>
      <g transform="translate(7.5525 147.081124)scale(0.1 -0.1)">
       <use xlink:href="#DejaVuSans-49"/>
       <use x="63.623047" xlink:href="#DejaVuSans-48"/>
       <use x="127.246094" xlink:href="#DejaVuSans-48"/>
      </g>
     </g>
    </g>
    <g id="ytick_6">
     <g id="line2d_12">
      <g>
       <use style="stroke:#000000;stroke-width:0.8;" x="33.64" xlink:href="#m63fe1690fd" y="114.072381"/>
      </g>
     </g>
     <g id="text_12">
      <!-- 125 -->
      <g transform="translate(7.5525 117.8716)scale(0.1 -0.1)">
       <use xlink:href="#DejaVuSans-49"/>
       <use x="63.623047" xlink:href="#DejaVuSans-50"/>
       <use x="127.246094" xlink:href="#DejaVuSans-53"/>
      </g>
     </g>
    </g>
    <g id="ytick_7">
     <g id="line2d_13">
      <g>
       <use style="stroke:#000000;stroke-width:0.8;" x="33.64" xlink:href="#m63fe1690fd" y="84.862857"/>
      </g>
     </g>
     <g id="text_13">
      <!-- 150 -->
      <g transform="translate(7.5525 88.662076)scale(0.1 -0.1)">
       <use xlink:href="#DejaVuSans-49"/>
       <use x="63.623047" xlink:href="#DejaVuSans-53"/>
       <use x="127.246094" xlink:href="#DejaVuSans-48"/>
      </g>
     </g>
    </g>
    <g id="ytick_8">
     <g id="line2d_14">
      <g>
       <use style="stroke:#000000;stroke-width:0.8;" x="33.64" xlink:href="#m63fe1690fd" y="55.653333"/>
      </g>
     </g>
     <g id="text_14">
      <!-- 175 -->
      <g transform="translate(7.5525 59.452552)scale(0.1 -0.1)">
       <use xlink:href="#DejaVuSans-49"/>
       <use x="63.623047" xlink:href="#DejaVuSans-55"/>
       <use x="127.246094" xlink:href="#DejaVuSans-53"/>
      </g>
     </g>
    </g>
    <g id="ytick_9">
     <g id="line2d_15">
      <g>
       <use style="stroke:#000000;stroke-width:0.8;" x="33.64" xlink:href="#m63fe1690fd" y="26.44381"/>
      </g>
     </g>
     <g id="text_15">
      <!-- 200 -->
      <g transform="translate(7.5525 30.243028)scale(0.1 -0.1)">
       <use xlink:href="#DejaVuSans-50"/>
       <use x="63.623047" xlink:href="#DejaVuSans-48"/>
       <use x="127.246094" xlink:href="#DejaVuSans-48"/>
      </g>
     </g>
    </g>
   </g>
   <g id="line2d_16">
    <path clip-path="url(#pdc4914a35d)" d="M 33.64 260.12 
L 98.778259 260.12 
L 100.005524 257.783238 
L 101.233575 257.783238 
L 102.461703 254.278095 
L 103.689669 254.278095 
L 106.143066 249.604571 
L 107.370507 248.43619 
L 108.596724 248.43619 
L 109.823312 247.26781 
L 112.277076 247.26781 
L 113.504319 242.594286 
L 114.731076 236.752381 
L 115.957316 236.752381 
L 117.184356 229.742095 
L 118.413073 226.236952 
L 119.639716 226.236952 
L 120.866581 222.73181 
L 124.545845 222.73181 
L 125.772152 219.226667 
L 126.997956 218.058286 
L 129.451967 218.058286 
L 130.678446 223.90019 
L 131.905054 223.90019 
L 133.133331 229.742095 
L 134.359483 227.405333 
L 135.586664 227.405333 
L 136.812974 232.078857 
L 138.039224 233.247238 
L 139.266445 236.752381 
L 140.493264 236.752381 
L 141.721638 234.415619 
L 142.947008 234.415619 
L 144.173566 230.910476 
L 146.6255 216.889905 
L 147.851284 216.889905 
L 149.077575 212.216381 
L 150.304628 208.711238 
L 151.532621 208.711238 
L 152.758661 197.027429 
L 153.990128 192.353905 
L 155.220963 186.512 
L 156.446866 186.512 
L 157.673878 187.680381 
L 158.899982 187.680381 
L 160.126906 181.838476 
L 161.353465 164.312762 
L 162.579212 164.312762 
L 163.805763 150.29219 
L 165.032895 139.776762 
L 166.260172 116.409143 
L 167.486297 116.409143 
L 168.712198 89.536381 
L 169.940504 89.536381 
L 171.166441 67.337143 
L 172.392396 53.316571 
L 173.61795 47.474667 
L 174.843807 47.474667 
L 176.069997 54.484952 
L 177.295761 59.158476 
L 178.522602 59.158476 
L 179.74968 76.68419 
L 180.975114 74.347429 
L 182.20348 74.347429 
L 183.430756 79.020952 
L 184.656384 81.357714 
L 185.884171 93.041524 
L 187.109846 93.041524 
L 188.335789 100.05181 
L 189.561593 109.398857 
L 190.786814 109.398857 
L 192.013272 122.251048 
L 193.239055 128.092952 
L 194.467083 128.092952 
L 195.692316 129.261333 
L 196.918386 132.766476 
L 198.144358 139.776762 
L 199.369357 139.776762 
L 200.594112 260.12 
L 269.431978 260.12 
L 270.638318 258.951619 
L 271.867863 243.762667 
L 273.096828 243.762667 
L 274.325513 240.257524 
L 275.552028 235.584 
L 278.009062 235.584 
L 279.235492 232.078857 
L 280.461728 232.078857 
L 281.688613 227.405333 
L 282.91552 223.90019 
L 284.140954 223.90019 
L 285.368907 222.73181 
L 287.820773 222.73181 
L 289.047136 225.068571 
L 290.275998 218.058286 
L 291.504564 219.226667 
L 292.730083 219.226667 
L 293.956853 216.889905 
L 295.183762 218.058286 
L 296.410838 218.058286 
L 297.636728 221.563429 
L 298.862312 219.226667 
L 300.089096 219.226667 
L 301.316766 214.553143 
L 302.542528 218.058286 
L 303.767937 218.058286 
L 304.993442 213.384762 
L 306.221817 212.216381 
L 307.450001 208.711238 
L 308.677194 208.711238 
L 311.128898 201.700952 
L 312.356901 201.700952 
L 313.584927 204.037714 
L 316.045369 204.037714 
L 317.270733 200.532571 
L 319.725032 200.532571 
L 320.953211 197.027429 
L 322.179709 187.680381 
L 323.405801 187.680381 
L 324.631368 184.175238 
L 325.857856 178.333333 
L 327.084235 178.333333 
L 328.312598 171.323048 
L 329.539181 156.134095 
L 330.766054 128.092952 
L 331.995813 128.092952 
L 333.227041 116.409143 
L 335.679257 116.409143 
L 336.909235 98.883429 
L 338.135835 98.883429 
L 339.361753 79.020952 
L 340.587518 67.337143 
L 341.813476 49.811429 
L 343.039501 49.811429 
L 344.267087 38.127619 
L 347.944826 38.127619 
L 349.173534 26.44381 
L 350.402081 26.44381 
L 351.6277 48.643048 
L 352.854241 60.326857 
L 354.080363 74.347429 
L 355.309105 74.347429 
L 357.760683 110.567238 
L 358.989755 110.567238 
L 360.21556 125.75619 
L 361.441739 137.44 
L 362.667387 151.460571 
L 363.89665 151.460571 
L 365.122785 161.976 
L 366.349657 161.976 
L 367.579127 166.649524 
L 368.804699 174.82819 
L 370.031518 175.996571 
L 372.48466 175.996571 
L 373.709943 260.12 
L 441.320551 260.12 
L 442.5463 255.446476 
L 444.999324 241.425905 
L 446.227483 241.425905 
L 447.453883 240.257524 
L 449.910276 240.257524 
L 451.13636 239.089143 
L 452.362541 239.089143 
L 453.590667 232.078857 
L 454.818382 232.078857 
L 456.044894 228.573714 
L 457.272947 228.573714 
L 458.499929 226.236952 
L 459.727619 225.068571 
L 464.636159 225.068571 
L 465.867919 226.236952 
L 468.319694 226.236952 
L 469.545715 223.90019 
L 470.773386 216.889905 
L 471.999275 219.226667 
L 473.227809 219.226667 
L 474.45603 221.563429 
L 475.681905 221.563429 
L 478.134498 214.553143 
L 479.362945 212.216381 
L 480.591123 212.216381 
L 481.816897 208.711238 
L 483.044699 206.374476 
L 484.272995 206.374476 
L 485.499344 209.879619 
L 486.727061 207.542857 
L 487.954729 206.374476 
L 489.183399 206.374476 
L 490.412438 205.206095 
L 491.638903 205.206095 
L 492.865577 198.19581 
L 494.093174 190.017143 
L 495.322647 190.017143 
L 496.551147 184.175238 
L 497.778989 171.323048 
L 499.00478 170.154667 
L 500.234893 170.154667 
L 501.463423 159.639238 
L 502.691952 159.639238 
L 503.919039 156.134095 
L 505.147163 153.797333 
L 506.37586 129.261333 
L 507.613013 129.261333 
L 508.839748 123.419429 
L 510.066228 115.240762 
L 511.293943 115.240762 
L 512.520826 98.883429 
L 513.747105 96.546667 
L 514.973944 96.546667 
L 516.201197 108.230476 
L 517.431784 101.22019 
L 518.657174 101.22019 
L 519.882809 96.546667 
L 521.111542 89.536381 
L 522.343061 95.378286 
L 523.572024 95.378286 
L 524.800027 94.209905 
L 526.028996 119.914286 
L 527.256978 119.914286 
L 528.482525 125.75619 
L 529.710658 144.450286 
L 530.938897 146.787048 
L 532.166819 146.787048 
L 533.394875 156.134095 
L 534.620246 156.134095 
L 535.848634 165.481143 
L 537.077316 171.323048 
L 538.303073 173.65981 
L 539.531919 173.65981 
L 540.760228 180.670095 
L 541.985434 181.838476 
L 544.442273 181.838476 
L 545.670733 260.12 
L 614.516734 260.12 
L 615.7423 256.614857 
L 616.96758 248.43619 
L 618.193398 248.43619 
L 619.421656 244.931048 
L 620.647923 242.594286 
L 621.874213 242.594286 
L 624.329103 235.584 
L 625.556502 230.910476 
L 626.785227 230.910476 
L 628.011176 229.742095 
L 629.237794 229.742095 
L 630.46366 226.236952 
L 631.692402 223.90019 
L 632.919129 223.90019 
L 635.372836 221.563429 
L 636.599389 225.068571 
L 637.827095 225.068571 
L 639.053499 222.73181 
L 640.280698 219.226667 
L 641.507563 219.226667 
L 642.734505 211.048 
L 643.961236 211.048 
L 645.187663 212.216381 
L 648.869375 212.216381 
L 650.09725 205.206095 
L 652.550601 205.206095 
L 653.77829 197.027429 
L 655.005972 194.690667 
L 656.234041 199.36419 
L 657.461968 199.36419 
L 658.695467 195.859048 
L 659.922095 195.859048 
L 661.148197 191.185524 
L 662.375246 184.175238 
L 663.601944 175.996571 
L 664.829771 175.996571 
L 666.05676 167.817905 
L 667.285333 161.976 
L 668.513172 161.976 
L 669.741789 157.302476 
L 670.970296 143.281905 
L 672.200042 143.281905 
L 673.428561 138.608381 
L 674.656489 128.092952 
L 675.884553 114.072381 
L 677.111433 114.072381 
L 678.33769 98.883429 
L 679.563712 104.725333 
L 680.790246 104.725333 
L 682.017543 86.031238 
L 683.243832 86.031238 
L 684.475629 70.842286 
L 685.702651 59.158476 
L 686.929951 46.306286 
L 688.158694 46.306286 
L 689.387693 28.780571 
L 690.615655 32.285714 
L 691.841979 32.285714 
L 693.069306 38.127619 
L 694.29463 31.117333 
L 695.52052 31.117333 
L 696.74626 41.632762 
L 697.973088 54.484952 
L 699.199363 62.663619 
L 700.425514 62.663619 
L 701.650934 76.68419 
L 702.881821 96.546667 
L 704.107386 96.546667 
L 705.335325 105.893714 
L 706.563248 121.082667 
L 707.789187 121.082667 
L 709.015349 126.924571 
L 710.24317 144.450286 
L 711.471067 144.450286 
L 712.696717 152.628952 
L 713.922837 158.470857 
L 716.377311 158.470857 
L 717.603216 260.12 
L 784.014432 260.12 
L 785.220704 256.614857 
L 786.447194 256.614857 
L 787.67352 254.278095 
L 788.899275 249.604571 
L 790.12538 247.26781 
L 791.353916 247.26781 
L 792.581114 242.594286 
L 793.80773 233.247238 
L 795.034993 233.247238 
L 796.260906 227.405333 
L 797.486301 227.405333 
L 798.711964 223.90019 
L 799.94062 223.90019 
L 801.166302 216.889905 
L 802.392445 216.889905 
L 803.618741 213.384762 
L 804.844475 215.721524 
L 806.070755 215.721524 
L 807.29701 216.889905 
L 808.523289 220.395048 
L 810.98107 220.395048 
L 812.206868 221.563429 
L 813.432886 221.563429 
L 814.658985 219.226667 
L 815.885313 225.068571 
L 818.33631 225.068571 
L 819.561795 220.395048 
L 820.788772 222.73181 
L 822.016653 222.73181 
L 823.243585 220.395048 
L 824.471808 220.395048 
L 825.698424 218.058286 
L 826.924188 206.374476 
L 828.150114 202.869333 
L 829.377381 202.869333 
L 830.602663 194.690667 
L 831.829113 187.680381 
L 833.054602 187.680381 
L 834.283226 181.838476 
L 835.513934 171.323048 
L 836.741372 164.312762 
L 837.970989 164.312762 
L 839.19652 158.470857 
L 840.422331 158.470857 
L 841.651946 153.797333 
L 842.878506 147.955429 
L 844.105693 145.618667 
L 845.334959 145.618667 
L 846.561941 137.44 
L 847.788475 150.29219 
L 849.014497 150.29219 
L 850.246457 161.976 
L 851.472597 160.807619 
L 852.698137 160.807619 
L 853.924103 150.29219 
L 855.150303 144.450286 
L 856.378149 144.450286 
L 857.604816 135.103238 
L 858.831068 126.924571 
L 860.059174 126.924571 
L 861.285354 125.75619 
L 862.512122 128.092952 
L 863.742053 125.75619 
L 864.979575 125.75619 
L 866.209584 130.429714 
L 867.440305 131.598095 
L 868.671641 131.598095 
L 869.911902 143.281905 
L 872.374718 143.281905 
L 873.606082 151.460571 
L 874.833059 158.470857 
L 876.065161 160.807619 
L 877.292608 160.807619 
L 878.521476 166.649524 
L 879.748228 166.649524 
L 880.976739 179.501714 
L 882.203627 185.343619 
L 883.430259 187.680381 
L 884.655915 187.680381 
L 885.883762 193.522286 
L 888.336971 193.522286 
L 889.574183 260.12 
L 955.973624 260.12 
L 957.179476 253.109714 
L 958.405849 251.941333 
L 959.633232 251.941333 
L 960.860732 241.425905 
L 962.085909 235.584 
L 963.311243 235.584 
L 964.536951 233.247238 
L 965.762074 233.247238 
L 966.987232 220.395048 
L 968.214415 209.879619 
L 969.439644 207.542857 
L 970.665233 207.542857 
L 973.11604 193.522286 
L 974.340931 193.522286 
L 976.794386 186.512 
L 978.019687 187.680381 
L 979.577267 187.680381 
L 980.80362 195.859048 
L 982.032274 199.36419 
L 983.257568 199.36419 
L 984.485298 200.532571 
L 985.715282 200.532571 
L 986.941019 187.680381 
L 988.166366 187.680381 
L 989.391743 180.670095 
L 990.61772 180.670095 
L 991.844105 175.996571 
L 993.069124 177.164952 
L 994.295678 177.164952 
L 995.523387 187.680381 
L 996.748722 186.512 
L 997.974377 180.670095 
L 999.199802 180.670095 
L 1000.42556 181.838476 
L 1001.650698 173.65981 
L 1002.876086 173.65981 
L 1004.102371 185.343619 
L 1005.329433 198.19581 
L 1006.55473 198.19581 
L 1009.008352 205.206095 
L 1010.235431 205.206095 
L 1011.462876 204.037714 
L 1012.690348 205.206095 
L 1013.918365 201.700952 
L 1015.146669 201.700952 
L 1016.374501 202.869333 
L 1017.602387 211.048 
L 1018.83008 211.048 
L 1020.056591 214.553143 
L 1021.283166 215.721524 
L 1022.511118 215.721524 
L 1024.967153 208.711238 
L 1026.195547 208.711238 
L 1027.423475 204.037714 
L 1028.651651 205.206095 
L 1029.879631 205.206095 
L 1031.108562 227.405333 
L 1032.33645 216.889905 
L 1033.563516 214.553143 
L 1034.789481 214.553143 
L 1036.015965 216.889905 
L 1039.696817 216.889905 
L 1040.923336 215.721524 
L 1042.152596 215.721524 
L 1043.378102 218.058286 
L 1047.059847 218.058286 
L 1048.287658 222.73181 
L 1049.514493 222.73181 
L 1051.97049 234.415619 
L 1053.198424 234.415619 
L 1054.426849 235.584 
L 1058.107323 235.584 
L 1059.335298 239.089143 
L 1063.018821 239.089143 
L 1064.246414 260.12 
L 1129.602349 260.12 
L 1130.828268 246.099429 
L 1132.053446 236.752381 
L 1133.28 236.752381 
L 1133.28 236.752381 
" style="fill:none;stroke:#1f77b4;stroke-linecap:square;stroke-width:1.5;"/>
   </g>
   <g id="patch_3">
    <path d="M 33.64 260.12 
L 33.64 14.76 
" style="fill:none;stroke:#000000;stroke-linecap:square;stroke-linejoin:miter;stroke-width:0.8;"/>
   </g>
   <g id="patch_4">
    <path d="M 1133.28 260.12 
L 1133.28 14.76 
" style="fill:none;stroke:#000000;stroke-linecap:square;stroke-linejoin:miter;stroke-width:0.8;"/>
   </g>
   <g id="patch_5">
    <path d="M 33.64 260.12 
L 1133.28 260.12 
" style="fill:none;stroke:#000000;stroke-linecap:square;stroke-linejoin:miter;stroke-width:0.8;"/>
   </g>
   <g id="patch_6">
    <path d="M 33.64 14.76 
L 1133.28 14.76 
" style="fill:none;stroke:#000000;stroke-linecap:square;stroke-linejoin:miter;stroke-width:0.8;"/>
   </g>
  </g>
 </g>
 <defs>
  <clipPath id="pdc4914a35d">
   <rect height="245.36" width="1099.64" x="33.64" y="14.76"/>
  </clipPath>
 </defs>
</svg>
