<?xml version="1.0" encoding="utf-8" standalone="no"?>
<!DOCTYPE svg PUBLIC "-//W3C//DTD SVG 1.1//EN"
  "http://www.w3.org/Graphics/SVG/1.1/DTD/svg11.dtd">
<!-- Created with matplotlib (https://matplotlib.org/) -->
<svg height="288pt" version="1.1" viewBox="0 0 1152 288" width="1152pt" xmlns="http://www.w3.org/2000/svg" xmlns:xlink="http://www.w3.org/1999/xlink">
 <defs>
  <style type="text/css">
*{stroke-linecap:butt;stroke-linejoin:round;}
  </style>
 </defs>
 <g id="figure_1">
  <g id="patch_1">
   <path d="M 0 288 
L 1152 288 
L 1152 0 
L 0 0 
z
" style="fill:#ffffff;"/>
  </g>
  <g id="axes_1">
   <g id="patch_2">
    <path d="M 33.64 260.12 
L 1133.28 260.12 
L 1133.28 14.76 
L 33.64 14.76 
z
" style="fill:#ffffff;"/>
   </g>
   <g id="matplotlib.axis_1">
    <g id="xtick_1">
     <g id="line2d_1">
      <defs>
       <path d="M 0 0 
L 0 3.5 
" id="m711eb0f90d" style="stroke:#000000;stroke-width:0.8;"/>
      </defs>
      <g>
       <use style="stroke:#000000;stroke-width:0.8;" x="202.874863" xlink:href="#m711eb0f90d" y="260.12"/>
      </g>
     </g>
     <g id="text_1">
      <!-- Tue 00:00 -->
      <defs>
       <path d="M -0.296875 72.90625 
L 61.375 72.90625 
L 61.375 64.59375 
L 35.5 64.59375 
L 35.5 0 
L 25.59375 0 
L 25.59375 64.59375 
L -0.296875 64.59375 
z
" id="DejaVuSans-84"/>
       <path d="M 8.5 21.578125 
L 8.5 54.6875 
L 17.484375 54.6875 
L 17.484375 21.921875 
Q 17.484375 14.15625 20.5 10.265625 
Q 23.53125 6.390625 29.59375 6.390625 
Q 36.859375 6.390625 41.078125 11.03125 
Q 45.3125 15.671875 45.3125 23.6875 
L 45.3125 54.6875 
L 54.296875 54.6875 
L 54.296875 0 
L 45.3125 0 
L 45.3125 8.40625 
Q 42.046875 3.421875 37.71875 1 
Q 33.40625 -1.421875 27.6875 -1.421875 
Q 18.265625 -1.421875 13.375 4.4375 
Q 8.5 10.296875 8.5 21.578125 
z
M 31.109375 56 
z
" id="DejaVuSans-117"/>
       <path d="M 56.203125 29.59375 
L 56.203125 25.203125 
L 14.890625 25.203125 
Q 15.484375 15.921875 20.484375 11.0625 
Q 25.484375 6.203125 34.421875 6.203125 
Q 39.59375 6.203125 44.453125 7.46875 
Q 49.3125 8.734375 54.109375 11.28125 
L 54.109375 2.78125 
Q 49.265625 0.734375 44.1875 -0.34375 
Q 39.109375 -1.421875 33.890625 -1.421875 
Q 20.796875 -1.421875 13.15625 6.1875 
Q 5.515625 13.8125 5.515625 26.8125 
Q 5.515625 40.234375 12.765625 48.109375 
Q 20.015625 56 32.328125 56 
Q 43.359375 56 49.78125 48.890625 
Q 56.203125 41.796875 56.203125 29.59375 
z
M 47.21875 32.234375 
Q 47.125 39.59375 43.09375 43.984375 
Q 39.0625 48.390625 32.421875 48.390625 
Q 24.90625 48.390625 20.390625 44.140625 
Q 15.875 39.890625 15.1875 32.171875 
z
" id="DejaVuSans-101"/>
       <path id="DejaVuSans-32"/>
       <path d="M 31.78125 66.40625 
Q 24.171875 66.40625 20.328125 58.90625 
Q 16.5 51.421875 16.5 36.375 
Q 16.5 21.390625 20.328125 13.890625 
Q 24.171875 6.390625 31.78125 6.390625 
Q 39.453125 6.390625 43.28125 13.890625 
Q 47.125 21.390625 47.125 36.375 
Q 47.125 51.421875 43.28125 58.90625 
Q 39.453125 66.40625 31.78125 66.40625 
z
M 31.78125 74.21875 
Q 44.046875 74.21875 50.515625 64.515625 
Q 56.984375 54.828125 56.984375 36.375 
Q 56.984375 17.96875 50.515625 8.265625 
Q 44.046875 -1.421875 31.78125 -1.421875 
Q 19.53125 -1.421875 13.0625 8.265625 
Q 6.59375 17.96875 6.59375 36.375 
Q 6.59375 54.828125 13.0625 64.515625 
Q 19.53125 74.21875 31.78125 74.21875 
z
" id="DejaVuSans-48"/>
       <path d="M 11.71875 12.40625 
L 22.015625 12.40625 
L 22.015625 0 
L 11.71875 0 
z
M 11.71875 51.703125 
L 22.015625 51.703125 
L 22.015625 39.3125 
L 11.71875 39.3125 
z
" id="DejaVuSans-58"/>
      </defs>
      <g transform="translate(177.588926 274.718437)scale(0.1 -0.1)">
       <use xlink:href="#DejaVuSans-84"/>
       <use x="60.849609" xlink:href="#DejaVuSans-117"/>
       <use x="124.228516" xlink:href="#DejaVuSans-101"/>
       <use x="185.751953" xlink:href="#DejaVuSans-32"/>
       <use x="217.539062" xlink:href="#DejaVuSans-48"/>
       <use x="281.162109" xlink:href="#DejaVuSans-48"/>
       <use x="344.785156" xlink:href="#DejaVuSans-58"/>
       <use x="378.476562" xlink:href="#DejaVuSans-48"/>
       <use x="442.099609" xlink:href="#DejaVuSans-48"/>
      </g>
     </g>
    </g>
    <g id="xtick_2">
     <g id="line2d_2">
      <g>
       <use style="stroke:#000000;stroke-width:0.8;" x="372.185518" xlink:href="#m711eb0f90d" y="260.12"/>
      </g>
     </g>
     <g id="text_2">
      <!-- Wed 00:00 -->
      <defs>
       <path d="M 3.328125 72.90625 
L 13.28125 72.90625 
L 28.609375 11.28125 
L 43.890625 72.90625 
L 54.984375 72.90625 
L 70.3125 11.28125 
L 85.59375 72.90625 
L 95.609375 72.90625 
L 77.296875 0 
L 64.890625 0 
L 49.515625 63.28125 
L 33.984375 0 
L 21.578125 0 
z
" id="DejaVuSans-87"/>
       <path d="M 45.40625 46.390625 
L 45.40625 75.984375 
L 54.390625 75.984375 
L 54.390625 0 
L 45.40625 0 
L 45.40625 8.203125 
Q 42.578125 3.328125 38.25 0.953125 
Q 33.9375 -1.421875 27.875 -1.421875 
Q 17.96875 -1.421875 11.734375 6.484375 
Q 5.515625 14.40625 5.515625 27.296875 
Q 5.515625 40.1875 11.734375 48.09375 
Q 17.96875 56 27.875 56 
Q 33.9375 56 38.25 53.625 
Q 42.578125 51.265625 45.40625 46.390625 
z
M 14.796875 27.296875 
Q 14.796875 17.390625 18.875 11.75 
Q 22.953125 6.109375 30.078125 6.109375 
Q 37.203125 6.109375 41.296875 11.75 
Q 45.40625 17.390625 45.40625 27.296875 
Q 45.40625 37.203125 41.296875 42.84375 
Q 37.203125 48.484375 30.078125 48.484375 
Q 22.953125 48.484375 18.875 42.84375 
Q 14.796875 37.203125 14.796875 27.296875 
z
" id="DejaVuSans-100"/>
      </defs>
      <g transform="translate(344.996455 274.718437)scale(0.1 -0.1)">
       <use xlink:href="#DejaVuSans-87"/>
       <use x="98.798828" xlink:href="#DejaVuSans-101"/>
       <use x="160.322266" xlink:href="#DejaVuSans-100"/>
       <use x="223.798828" xlink:href="#DejaVuSans-32"/>
       <use x="255.585938" xlink:href="#DejaVuSans-48"/>
       <use x="319.208984" xlink:href="#DejaVuSans-48"/>
       <use x="382.832031" xlink:href="#DejaVuSans-58"/>
       <use x="416.523438" xlink:href="#DejaVuSans-48"/>
       <use x="480.146484" xlink:href="#DejaVuSans-48"/>
      </g>
     </g>
    </g>
    <g id="xtick_3">
     <g id="line2d_3">
      <g>
       <use style="stroke:#000000;stroke-width:0.8;" x="541.496172" xlink:href="#m711eb0f90d" y="260.12"/>
      </g>
     </g>
     <g id="text_3">
      <!-- Thu 00:00 -->
      <defs>
       <path d="M 54.890625 33.015625 
L 54.890625 0 
L 45.90625 0 
L 45.90625 32.71875 
Q 45.90625 40.484375 42.875 44.328125 
Q 39.84375 48.1875 33.796875 48.1875 
Q 26.515625 48.1875 22.3125 43.546875 
Q 18.109375 38.921875 18.109375 30.90625 
L 18.109375 0 
L 9.078125 0 
L 9.078125 75.984375 
L 18.109375 75.984375 
L 18.109375 46.1875 
Q 21.34375 51.125 25.703125 53.5625 
Q 30.078125 56 35.796875 56 
Q 45.21875 56 50.046875 50.171875 
Q 54.890625 44.34375 54.890625 33.015625 
z
" id="DejaVuSans-104"/>
      </defs>
      <g transform="translate(516.106328 274.718437)scale(0.1 -0.1)">
       <use xlink:href="#DejaVuSans-84"/>
       <use x="61.083984" xlink:href="#DejaVuSans-104"/>
       <use x="124.462891" xlink:href="#DejaVuSans-117"/>
       <use x="187.841797" xlink:href="#DejaVuSans-32"/>
       <use x="219.628906" xlink:href="#DejaVuSans-48"/>
       <use x="283.251953" xlink:href="#DejaVuSans-48"/>
       <use x="346.875" xlink:href="#DejaVuSans-58"/>
       <use x="380.566406" xlink:href="#DejaVuSans-48"/>
       <use x="444.189453" xlink:href="#DejaVuSans-48"/>
      </g>
     </g>
    </g>
    <g id="xtick_4">
     <g id="line2d_4">
      <g>
       <use style="stroke:#000000;stroke-width:0.8;" x="710.806826" xlink:href="#m711eb0f90d" y="260.12"/>
      </g>
     </g>
     <g id="text_4">
      <!-- Fri 00:00 -->
      <defs>
       <path d="M 9.8125 72.90625 
L 51.703125 72.90625 
L 51.703125 64.59375 
L 19.671875 64.59375 
L 19.671875 43.109375 
L 48.578125 43.109375 
L 48.578125 34.8125 
L 19.671875 34.8125 
L 19.671875 0 
L 9.8125 0 
z
" id="DejaVuSans-70"/>
       <path d="M 41.109375 46.296875 
Q 39.59375 47.171875 37.8125 47.578125 
Q 36.03125 48 33.890625 48 
Q 26.265625 48 22.1875 43.046875 
Q 18.109375 38.09375 18.109375 28.8125 
L 18.109375 0 
L 9.078125 0 
L 9.078125 54.6875 
L 18.109375 54.6875 
L 18.109375 46.1875 
Q 20.953125 51.171875 25.484375 53.578125 
Q 30.03125 56 36.53125 56 
Q 37.453125 56 38.578125 55.875 
Q 39.703125 55.765625 41.0625 55.515625 
z
" id="DejaVuSans-114"/>
       <path d="M 9.421875 54.6875 
L 18.40625 54.6875 
L 18.40625 0 
L 9.421875 0 
z
M 9.421875 75.984375 
L 18.40625 75.984375 
L 18.40625 64.59375 
L 9.421875 64.59375 
z
" id="DejaVuSans-105"/>
      </defs>
      <g transform="translate(688.493545 274.718437)scale(0.1 -0.1)">
       <use xlink:href="#DejaVuSans-70"/>
       <use x="57.410156" xlink:href="#DejaVuSans-114"/>
       <use x="98.523438" xlink:href="#DejaVuSans-105"/>
       <use x="126.306641" xlink:href="#DejaVuSans-32"/>
       <use x="158.09375" xlink:href="#DejaVuSans-48"/>
       <use x="221.716797" xlink:href="#DejaVuSans-48"/>
       <use x="285.339844" xlink:href="#DejaVuSans-58"/>
       <use x="319.03125" xlink:href="#DejaVuSans-48"/>
       <use x="382.654297" xlink:href="#DejaVuSans-48"/>
      </g>
     </g>
    </g>
    <g id="xtick_5">
     <g id="line2d_5">
      <g>
       <use style="stroke:#000000;stroke-width:0.8;" x="880.117481" xlink:href="#m711eb0f90d" y="260.12"/>
      </g>
     </g>
     <g id="text_5">
      <!-- Sat 00:00 -->
      <defs>
       <path d="M 53.515625 70.515625 
L 53.515625 60.890625 
Q 47.90625 63.578125 42.921875 64.890625 
Q 37.9375 66.21875 33.296875 66.21875 
Q 25.25 66.21875 20.875 63.09375 
Q 16.5 59.96875 16.5 54.203125 
Q 16.5 49.359375 19.40625 46.890625 
Q 22.3125 44.4375 30.421875 42.921875 
L 36.375 41.703125 
Q 47.40625 39.59375 52.65625 34.296875 
Q 57.90625 29 57.90625 20.125 
Q 57.90625 9.515625 50.796875 4.046875 
Q 43.703125 -1.421875 29.984375 -1.421875 
Q 24.8125 -1.421875 18.96875 -0.25 
Q 13.140625 0.921875 6.890625 3.21875 
L 6.890625 13.375 
Q 12.890625 10.015625 18.65625 8.296875 
Q 24.421875 6.59375 29.984375 6.59375 
Q 38.421875 6.59375 43.015625 9.90625 
Q 47.609375 13.234375 47.609375 19.390625 
Q 47.609375 24.75 44.3125 27.78125 
Q 41.015625 30.8125 33.5 32.328125 
L 27.484375 33.5 
Q 16.453125 35.6875 11.515625 40.375 
Q 6.59375 45.0625 6.59375 53.421875 
Q 6.59375 63.09375 13.40625 68.65625 
Q 20.21875 74.21875 32.171875 74.21875 
Q 37.3125 74.21875 42.625 73.28125 
Q 47.953125 72.359375 53.515625 70.515625 
z
" id="DejaVuSans-83"/>
       <path d="M 34.28125 27.484375 
Q 23.390625 27.484375 19.1875 25 
Q 14.984375 22.515625 14.984375 16.5 
Q 14.984375 11.71875 18.140625 8.90625 
Q 21.296875 6.109375 26.703125 6.109375 
Q 34.1875 6.109375 38.703125 11.40625 
Q 43.21875 16.703125 43.21875 25.484375 
L 43.21875 27.484375 
z
M 52.203125 31.203125 
L 52.203125 0 
L 43.21875 0 
L 43.21875 8.296875 
Q 40.140625 3.328125 35.546875 0.953125 
Q 30.953125 -1.421875 24.3125 -1.421875 
Q 15.921875 -1.421875 10.953125 3.296875 
Q 6 8.015625 6 15.921875 
Q 6 25.140625 12.171875 29.828125 
Q 18.359375 34.515625 30.609375 34.515625 
L 43.21875 34.515625 
L 43.21875 35.40625 
Q 43.21875 41.609375 39.140625 45 
Q 35.0625 48.390625 27.6875 48.390625 
Q 23 48.390625 18.546875 47.265625 
Q 14.109375 46.140625 10.015625 43.890625 
L 10.015625 52.203125 
Q 14.9375 54.109375 19.578125 55.046875 
Q 24.21875 56 28.609375 56 
Q 40.484375 56 46.34375 49.84375 
Q 52.203125 43.703125 52.203125 31.203125 
z
" id="DejaVuSans-97"/>
       <path d="M 18.3125 70.21875 
L 18.3125 54.6875 
L 36.8125 54.6875 
L 36.8125 47.703125 
L 18.3125 47.703125 
L 18.3125 18.015625 
Q 18.3125 11.328125 20.140625 9.421875 
Q 21.96875 7.515625 27.59375 7.515625 
L 36.8125 7.515625 
L 36.8125 0 
L 27.59375 0 
Q 17.1875 0 13.234375 3.875 
Q 9.28125 7.765625 9.28125 18.015625 
L 9.28125 47.703125 
L 2.6875 47.703125 
L 2.6875 54.6875 
L 9.28125 54.6875 
L 9.28125 70.21875 
z
" id="DejaVuSans-116"/>
      </defs>
      <g transform="translate(855.920606 274.718437)scale(0.1 -0.1)">
       <use xlink:href="#DejaVuSans-83"/>
       <use x="63.476562" xlink:href="#DejaVuSans-97"/>
       <use x="124.755859" xlink:href="#DejaVuSans-116"/>
       <use x="163.964844" xlink:href="#DejaVuSans-32"/>
       <use x="195.751953" xlink:href="#DejaVuSans-48"/>
       <use x="259.375" xlink:href="#DejaVuSans-48"/>
       <use x="322.998047" xlink:href="#DejaVuSans-58"/>
       <use x="356.689453" xlink:href="#DejaVuSans-48"/>
       <use x="420.3125" xlink:href="#DejaVuSans-48"/>
      </g>
     </g>
    </g>
    <g id="xtick_6">
     <g id="line2d_6">
      <g>
       <use style="stroke:#000000;stroke-width:0.8;" x="1049.428135" xlink:href="#m711eb0f90d" y="260.12"/>
      </g>
     </g>
     <g id="text_6">
      <!-- Sun 00:00 -->
      <defs>
       <path d="M 54.890625 33.015625 
L 54.890625 0 
L 45.90625 0 
L 45.90625 32.71875 
Q 45.90625 40.484375 42.875 44.328125 
Q 39.84375 48.1875 33.796875 48.1875 
Q 26.515625 48.1875 22.3125 43.546875 
Q 18.109375 38.921875 18.109375 30.90625 
L 18.109375 0 
L 9.078125 0 
L 9.078125 54.6875 
L 18.109375 54.6875 
L 18.109375 46.1875 
Q 21.34375 51.125 25.703125 53.5625 
Q 30.078125 56 35.796875 56 
Q 45.21875 56 50.046875 50.171875 
Q 54.890625 44.34375 54.890625 33.015625 
z
" id="DejaVuSans-110"/>
      </defs>
      <g transform="translate(1023.917979 274.718437)scale(0.1 -0.1)">
       <use xlink:href="#DejaVuSans-83"/>
       <use x="63.476562" xlink:href="#DejaVuSans-117"/>
       <use x="126.855469" xlink:href="#DejaVuSans-110"/>
       <use x="190.234375" xlink:href="#DejaVuSans-32"/>
       <use x="222.021484" xlink:href="#DejaVuSans-48"/>
       <use x="285.644531" xlink:href="#DejaVuSans-48"/>
       <use x="349.267578" xlink:href="#DejaVuSans-58"/>
       <use x="382.958984" xlink:href="#DejaVuSans-48"/>
       <use x="446.582031" xlink:href="#DejaVuSans-48"/>
      </g>
     </g>
    </g>
   </g>
   <g id="matplotlib.axis_2">
    <g id="ytick_1">
     <g id="line2d_7">
      <defs>
       <path d="M 0 0 
L -3.5 0 
" id="mfc4aa7558c" style="stroke:#000000;stroke-width:0.8;"/>
      </defs>
      <g>
       <use style="stroke:#000000;stroke-width:0.8;" x="33.64" xlink:href="#mfc4aa7558c" y="260.12"/>
      </g>
     </g>
     <g id="text_7">
      <!-- 0 -->
      <g transform="translate(20.2775 263.919219)scale(0.1 -0.1)">
       <use xlink:href="#DejaVuSans-48"/>
      </g>
     </g>
    </g>
    <g id="ytick_2">
     <g id="line2d_8">
      <g>
       <use style="stroke:#000000;stroke-width:0.8;" x="33.64" xlink:href="#mfc4aa7558c" y="232.857778"/>
      </g>
     </g>
     <g id="text_8">
      <!-- 20 -->
      <defs>
       <path d="M 19.1875 8.296875 
L 53.609375 8.296875 
L 53.609375 0 
L 7.328125 0 
L 7.328125 8.296875 
Q 12.9375 14.109375 22.625 23.890625 
Q 32.328125 33.6875 34.8125 36.53125 
Q 39.546875 41.84375 41.421875 45.53125 
Q 43.3125 49.21875 43.3125 52.78125 
Q 43.3125 58.59375 39.234375 62.25 
Q 35.15625 65.921875 28.609375 65.921875 
Q 23.96875 65.921875 18.8125 64.3125 
Q 13.671875 62.703125 7.8125 59.421875 
L 7.8125 69.390625 
Q 13.765625 71.78125 18.9375 73 
Q 24.125 74.21875 28.421875 74.21875 
Q 39.75 74.21875 46.484375 68.546875 
Q 53.21875 62.890625 53.21875 53.421875 
Q 53.21875 48.921875 51.53125 44.890625 
Q 49.859375 40.875 45.40625 35.40625 
Q 44.1875 33.984375 37.640625 27.21875 
Q 31.109375 20.453125 19.1875 8.296875 
z
" id="DejaVuSans-50"/>
      </defs>
      <g transform="translate(13.915 236.656997)scale(0.1 -0.1)">
       <use xlink:href="#DejaVuSans-50"/>
       <use x="63.623047" xlink:href="#DejaVuSans-48"/>
      </g>
     </g>
    </g>
    <g id="ytick_3">
     <g id="line2d_9">
      <g>
       <use style="stroke:#000000;stroke-width:0.8;" x="33.64" xlink:href="#mfc4aa7558c" y="205.595556"/>
      </g>
     </g>
     <g id="text_9">
      <!-- 40 -->
      <defs>
       <path d="M 37.796875 64.3125 
L 12.890625 25.390625 
L 37.796875 25.390625 
z
M 35.203125 72.90625 
L 47.609375 72.90625 
L 47.609375 25.390625 
L 58.015625 25.390625 
L 58.015625 17.1875 
L 47.609375 17.1875 
L 47.609375 0 
L 37.796875 0 
L 37.796875 17.1875 
L 4.890625 17.1875 
L 4.890625 26.703125 
z
" id="DejaVuSans-52"/>
      </defs>
      <g transform="translate(13.915 209.394774)scale(0.1 -0.1)">
       <use xlink:href="#DejaVuSans-52"/>
       <use x="63.623047" xlink:href="#DejaVuSans-48"/>
      </g>
     </g>
    </g>
    <g id="ytick_4">
     <g id="line2d_10">
      <g>
       <use style="stroke:#000000;stroke-width:0.8;" x="33.64" xlink:href="#mfc4aa7558c" y="178.333333"/>
      </g>
     </g>
     <g id="text_10">
      <!-- 60 -->
      <defs>
       <path d="M 33.015625 40.375 
Q 26.375 40.375 22.484375 35.828125 
Q 18.609375 31.296875 18.609375 23.390625 
Q 18.609375 15.53125 22.484375 10.953125 
Q 26.375 6.390625 33.015625 6.390625 
Q 39.65625 6.390625 43.53125 10.953125 
Q 47.40625 15.53125 47.40625 23.390625 
Q 47.40625 31.296875 43.53125 35.828125 
Q 39.65625 40.375 33.015625 40.375 
z
M 52.59375 71.296875 
L 52.59375 62.3125 
Q 48.875 64.0625 45.09375 64.984375 
Q 41.3125 65.921875 37.59375 65.921875 
Q 27.828125 65.921875 22.671875 59.328125 
Q 17.53125 52.734375 16.796875 39.40625 
Q 19.671875 43.65625 24.015625 45.921875 
Q 28.375 48.1875 33.59375 48.1875 
Q 44.578125 48.1875 50.953125 41.515625 
Q 57.328125 34.859375 57.328125 23.390625 
Q 57.328125 12.15625 50.6875 5.359375 
Q 44.046875 -1.421875 33.015625 -1.421875 
Q 20.359375 -1.421875 13.671875 8.265625 
Q 6.984375 17.96875 6.984375 36.375 
Q 6.984375 53.65625 15.1875 63.9375 
Q 23.390625 74.21875 37.203125 74.21875 
Q 40.921875 74.21875 44.703125 73.484375 
Q 48.484375 72.75 52.59375 71.296875 
z
" id="DejaVuSans-54"/>
      </defs>
      <g transform="translate(13.915 182.132552)scale(0.1 -0.1)">
       <use xlink:href="#DejaVuSans-54"/>
       <use x="63.623047" xlink:href="#DejaVuSans-48"/>
      </g>
     </g>
    </g>
    <g id="ytick_5">
     <g id="line2d_11">
      <g>
       <use style="stroke:#000000;stroke-width:0.8;" x="33.64" xlink:href="#mfc4aa7558c" y="151.071111"/>
      </g>
     </g>
     <g id="text_11">
      <!-- 80 -->
      <defs>
       <path d="M 31.78125 34.625 
Q 24.75 34.625 20.71875 30.859375 
Q 16.703125 27.09375 16.703125 20.515625 
Q 16.703125 13.921875 20.71875 10.15625 
Q 24.75 6.390625 31.78125 6.390625 
Q 38.8125 6.390625 42.859375 10.171875 
Q 46.921875 13.96875 46.921875 20.515625 
Q 46.921875 27.09375 42.890625 30.859375 
Q 38.875 34.625 31.78125 34.625 
z
M 21.921875 38.8125 
Q 15.578125 40.375 12.03125 44.71875 
Q 8.5 49.078125 8.5 55.328125 
Q 8.5 64.0625 14.71875 69.140625 
Q 20.953125 74.21875 31.78125 74.21875 
Q 42.671875 74.21875 48.875 69.140625 
Q 55.078125 64.0625 55.078125 55.328125 
Q 55.078125 49.078125 51.53125 44.71875 
Q 48 40.375 41.703125 38.8125 
Q 48.828125 37.15625 52.796875 32.3125 
Q 56.78125 27.484375 56.78125 20.515625 
Q 56.78125 9.90625 50.3125 4.234375 
Q 43.84375 -1.421875 31.78125 -1.421875 
Q 19.734375 -1.421875 13.25 4.234375 
Q 6.78125 9.90625 6.78125 20.515625 
Q 6.78125 27.484375 10.78125 32.3125 
Q 14.796875 37.15625 21.921875 38.8125 
z
M 18.3125 54.390625 
Q 18.3125 48.734375 21.84375 45.5625 
Q 25.390625 42.390625 31.78125 42.390625 
Q 38.140625 42.390625 41.71875 45.5625 
Q 45.3125 48.734375 45.3125 54.390625 
Q 45.3125 60.0625 41.71875 63.234375 
Q 38.140625 66.40625 31.78125 66.40625 
Q 25.390625 66.40625 21.84375 63.234375 
Q 18.3125 60.0625 18.3125 54.390625 
z
" id="DejaVuSans-56"/>
      </defs>
      <g transform="translate(13.915 154.87033)scale(0.1 -0.1)">
       <use xlink:href="#DejaVuSans-56"/>
       <use x="63.623047" xlink:href="#DejaVuSans-48"/>
      </g>
     </g>
    </g>
    <g id="ytick_6">
     <g id="line2d_12">
      <g>
       <use style="stroke:#000000;stroke-width:0.8;" x="33.64" xlink:href="#mfc4aa7558c" y="123.808889"/>
      </g>
     </g>
     <g id="text_12">
      <!-- 100 -->
      <defs>
       <path d="M 12.40625 8.296875 
L 28.515625 8.296875 
L 28.515625 63.921875 
L 10.984375 60.40625 
L 10.984375 69.390625 
L 28.421875 72.90625 
L 38.28125 72.90625 
L 38.28125 8.296875 
L 54.390625 8.296875 
L 54.390625 0 
L 12.40625 0 
z
" id="DejaVuSans-49"/>
      </defs>
      <g transform="translate(7.5525 127.608108)scale(0.1 -0.1)">
       <use xlink:href="#DejaVuSans-49"/>
       <use x="63.623047" xlink:href="#DejaVuSans-48"/>
       <use x="127.246094" xlink:href="#DejaVuSans-48"/>
      </g>
     </g>
    </g>
    <g id="ytick_7">
     <g id="line2d_13">
      <g>
       <use style="stroke:#000000;stroke-width:0.8;" x="33.64" xlink:href="#mfc4aa7558c" y="96.546667"/>
      </g>
     </g>
     <g id="text_13">
      <!-- 120 -->
      <g transform="translate(7.5525 100.345885)scale(0.1 -0.1)">
       <use xlink:href="#DejaVuSans-49"/>
       <use x="63.623047" xlink:href="#DejaVuSans-50"/>
       <use x="127.246094" xlink:href="#DejaVuSans-48"/>
      </g>
     </g>
    </g>
    <g id="ytick_8">
     <g id="line2d_14">
      <g>
       <use style="stroke:#000000;stroke-width:0.8;" x="33.64" xlink:href="#mfc4aa7558c" y="69.284444"/>
      </g>
     </g>
     <g id="text_14">
      <!-- 140 -->
      <g transform="translate(7.5525 73.083663)scale(0.1 -0.1)">
       <use xlink:href="#DejaVuSans-49"/>
       <use x="63.623047" xlink:href="#DejaVuSans-52"/>
       <use x="127.246094" xlink:href="#DejaVuSans-48"/>
      </g>
     </g>
    </g>
    <g id="ytick_9">
     <g id="line2d_15">
      <g>
       <use style="stroke:#000000;stroke-width:0.8;" x="33.64" xlink:href="#mfc4aa7558c" y="42.022222"/>
      </g>
     </g>
     <g id="text_15">
      <!-- 160 -->
      <g transform="translate(7.5525 45.821441)scale(0.1 -0.1)">
       <use xlink:href="#DejaVuSans-49"/>
       <use x="63.623047" xlink:href="#DejaVuSans-54"/>
       <use x="127.246094" xlink:href="#DejaVuSans-48"/>
      </g>
     </g>
    </g>
    <g id="ytick_10">
     <g id="line2d_16">
      <g>
       <use style="stroke:#000000;stroke-width:0.8;" x="33.64" xlink:href="#mfc4aa7558c" y="14.76"/>
      </g>
     </g>
     <g id="text_16">
      <!-- 180 -->
      <g transform="translate(7.5525 18.559219)scale(0.1 -0.1)">
       <use xlink:href="#DejaVuSans-49"/>
       <use x="63.623047" xlink:href="#DejaVuSans-56"/>
       <use x="127.246094" xlink:href="#DejaVuSans-48"/>
      </g>
     </g>
    </g>
   </g>
   <g id="line2d_17">
    <path clip-path="url(#pf34826691e)" d="M 33.64 260.12 
L 96.694744 260.12 
L 97.884366 257.393778 
L 99.097296 257.393778 
L 100.306308 253.304444 
L 101.515108 251.941333 
L 102.726726 249.215111 
L 103.936775 249.215111 
L 105.14853 246.488889 
L 106.358697 242.399556 
L 107.568103 242.399556 
L 108.778114 236.947111 
L 109.989659 235.584 
L 111.20048 235.584 
L 112.412115 232.857778 
L 113.620979 228.768444 
L 116.040731 228.768444 
L 117.249782 224.679111 
L 118.460139 221.952889 
L 119.670508 221.952889 
L 120.883051 219.226667 
L 122.093584 219.226667 
L 123.30497 221.952889 
L 124.513742 228.768444 
L 126.931118 228.768444 
L 129.349105 239.673333 
L 130.56201 239.673333 
L 131.77278 238.310222 
L 132.984621 235.584 
L 134.193385 235.584 
L 135.40225 227.405333 
L 136.610763 226.042222 
L 137.820127 223.316 
L 139.028921 223.316 
L 140.240263 221.952889 
L 142.658962 221.952889 
L 143.870121 209.684889 
L 145.078921 209.684889 
L 146.28888 208.321778 
L 147.498159 198.78 
L 148.710285 197.416889 
L 149.919521 197.416889 
L 151.128714 191.964444 
L 153.54749 191.964444 
L 154.759086 187.875111 
L 155.967964 189.238222 
L 157.177153 189.238222 
L 158.386239 174.244 
L 159.595813 166.065333 
L 160.805924 166.065333 
L 162.017251 141.529333 
L 163.229207 126.535111 
L 164.439838 126.535111 
L 168.073617 63.832 
L 169.285424 63.832 
L 170.496898 61.105778 
L 171.708225 61.105778 
L 172.919969 57.016444 
L 174.132573 76.1 
L 175.344941 84.278667 
L 176.556775 84.278667 
L 177.766509 87.004889 
L 180.185023 87.004889 
L 181.394929 92.457333 
L 182.604314 100.636 
L 183.815667 101.999111 
L 185.027043 101.999111 
L 186.236391 116.993333 
L 187.445974 116.993333 
L 188.656145 133.350667 
L 189.865908 157.886667 
L 191.07589 166.065333 
L 192.286284 166.065333 
L 193.495652 176.970222 
L 194.705438 190.601333 
L 197.127357 190.601333 
L 198.337491 260.12 
L 266.23165 260.12 
L 267.421297 258.756889 
L 268.631202 245.125778 
L 269.840387 245.125778 
L 271.048856 236.947111 
L 272.260932 236.947111 
L 273.470323 232.857778 
L 274.679514 227.405333 
L 275.88867 227.405333 
L 277.09905 224.679111 
L 278.309918 223.316 
L 281.942107 223.316 
L 283.151245 227.405333 
L 284.363188 227.405333 
L 285.577556 234.220889 
L 286.786706 235.584 
L 289.209137 235.584 
L 290.420664 232.857778 
L 291.63128 232.857778 
L 292.840158 228.768444 
L 294.049327 234.220889 
L 295.257842 231.494667 
L 296.470599 231.494667 
L 297.679506 232.857778 
L 298.888373 230.131556 
L 300.09765 230.131556 
L 301.306695 228.768444 
L 303.726902 215.137333 
L 304.936622 215.137333 
L 306.14624 204.232444 
L 307.355288 204.232444 
L 308.565159 208.321778 
L 309.774088 204.232444 
L 310.982801 204.232444 
L 312.191561 202.869333 
L 313.400332 206.958667 
L 314.611517 206.958667 
L 315.83038 201.506222 
L 317.041134 202.869333 
L 318.250257 193.327556 
L 319.459882 193.327556 
L 320.670368 179.696444 
L 321.88229 168.791556 
L 323.092563 168.791556 
L 324.304807 152.434222 
L 325.516886 130.624444 
L 326.725527 121.082667 
L 327.935904 121.082667 
L 329.145168 104.725333 
L 330.354995 99.272889 
L 331.564495 99.272889 
L 332.774678 82.915556 
L 333.985841 82.915556 
L 335.19521 69.284444 
L 336.405641 63.832 
L 337.615651 51.564 
L 338.825717 51.564 
L 340.034993 58.379556 
L 341.245086 37.932889 
L 342.456172 37.932889 
L 343.665222 46.111556 
L 344.875161 32.480444 
L 346.085096 32.480444 
L 347.29501 36.569778 
L 348.503807 31.117333 
L 349.713905 31.117333 
L 350.92406 29.754222 
L 352.13564 44.748444 
L 353.345549 63.832 
L 354.555715 63.832 
L 355.765444 77.463111 
L 356.977543 92.457333 
L 358.186861 92.457333 
L 359.396441 101.999111 
L 360.606341 108.814667 
L 361.815856 108.814667 
L 363.026565 134.713778 
L 364.23667 136.076889 
L 365.446212 136.076889 
L 366.656457 142.892444 
L 367.866332 260.12 
L 435.759817 260.12 
L 436.969236 258.756889 
L 438.178616 246.488889 
L 439.389986 246.488889 
L 440.598753 235.584 
L 441.808006 228.768444 
L 443.017915 220.589778 
L 444.227032 220.589778 
L 445.437262 215.137333 
L 446.648542 215.137333 
L 449.069486 204.232444 
L 450.280869 211.048 
L 451.491025 211.048 
L 453.911248 205.595556 
L 455.120854 205.595556 
L 456.330918 211.048 
L 457.540941 211.048 
L 458.752449 224.679111 
L 459.961884 224.679111 
L 461.171807 220.589778 
L 462.381411 220.589778 
L 463.595463 223.316 
L 464.80497 221.952889 
L 466.016969 221.952889 
L 467.227946 227.405333 
L 468.437839 223.316 
L 469.647738 223.316 
L 472.070538 215.137333 
L 473.281619 215.137333 
L 474.492974 212.411111 
L 475.703251 211.048 
L 476.913366 205.595556 
L 478.122999 205.595556 
L 479.333627 201.506222 
L 480.543371 200.143111 
L 481.753074 200.143111 
L 482.963083 197.416889 
L 484.17327 198.78 
L 485.383407 198.78 
L 486.593278 189.238222 
L 487.803117 183.785778 
L 489.013727 174.244 
L 490.222587 175.607111 
L 491.436917 172.880889 
L 492.647292 172.880889 
L 493.858152 167.428444 
L 495.071611 152.434222 
L 496.28081 144.255556 
L 497.48986 144.255556 
L 498.699903 121.082667 
L 499.910421 103.362222 
L 501.120867 103.362222 
L 502.333194 76.1 
L 503.542929 54.290222 
L 504.751498 54.290222 
L 505.960546 35.206667 
L 507.173105 32.480444 
L 508.382218 32.480444 
L 509.591502 28.391111 
L 510.802726 39.296 
L 512.014753 39.296 
L 513.223423 40.659111 
L 514.435075 54.290222 
L 515.650263 63.832 
L 516.860694 63.832 
L 519.283787 108.814667 
L 520.496325 108.814667 
L 521.707665 126.535111 
L 522.918198 141.529333 
L 524.12849 160.612889 
L 525.338828 160.612889 
L 526.548393 172.880889 
L 527.758469 172.880889 
L 528.970249 189.238222 
L 531.391487 200.143111 
L 532.601914 200.143111 
L 533.812718 201.506222 
L 538.652608 201.506222 
L 539.863371 260.12 
L 604.157751 260.12 
L 605.347711 257.393778 
L 606.557255 257.393778 
L 607.768944 249.215111 
L 608.977915 249.215111 
L 610.186533 247.852 
L 611.395155 239.673333 
L 613.813804 239.673333 
L 616.234762 234.220889 
L 617.443686 234.220889 
L 618.652974 238.310222 
L 619.862523 239.673333 
L 621.071104 239.673333 
L 623.489722 236.947111 
L 624.698814 236.947111 
L 625.908384 235.584 
L 627.117789 231.494667 
L 628.326384 232.857778 
L 630.747949 232.857778 
L 631.956797 234.220889 
L 633.167007 234.220889 
L 634.375725 227.405333 
L 635.585396 223.316 
L 636.794583 223.316 
L 638.006125 217.863556 
L 640.424954 217.863556 
L 641.634272 215.137333 
L 642.844589 217.863556 
L 644.056383 217.863556 
L 645.266298 228.768444 
L 646.478331 226.042222 
L 647.689636 219.226667 
L 648.898895 219.226667 
L 650.108923 215.137333 
L 651.320485 209.684889 
L 652.531219 209.684889 
L 653.740713 206.958667 
L 654.954438 206.958667 
L 656.165942 201.506222 
L 657.375533 204.232444 
L 658.587044 190.601333 
L 659.796668 190.601333 
L 661.006623 171.517778 
L 662.217269 161.976 
L 663.428352 161.976 
L 664.639815 144.255556 
L 665.85021 122.445778 
L 667.061649 122.445778 
L 668.271519 100.636 
L 669.48151 101.999111 
L 670.691564 91.094222 
L 671.902856 91.094222 
L 673.112495 88.368 
L 674.322337 72.010667 
L 675.532281 72.010667 
L 676.74236 50.200889 
L 677.95273 35.206667 
L 679.162923 35.206667 
L 680.372963 40.659111 
L 681.582756 31.117333 
L 682.793011 31.117333 
L 684.003266 39.296 
L 685.213864 50.200889 
L 686.423286 50.200889 
L 687.633296 51.564 
L 690.053344 67.921333 
L 693.682641 67.921333 
L 694.892898 87.004889 
L 696.10351 96.546667 
L 697.314223 96.546667 
L 698.523922 127.898222 
L 699.733618 146.981778 
L 700.945208 163.339111 
L 702.15504 163.339111 
L 703.365018 168.791556 
L 704.575513 176.970222 
L 705.785864 179.696444 
L 709.415586 179.696444 
L 710.625404 260.12 
L 773.730885 260.12 
L 774.920168 257.393778 
L 776.129647 257.393778 
L 777.338464 243.762667 
L 778.547786 223.316 
L 779.759257 216.500444 
L 780.968248 216.500444 
L 782.179774 208.321778 
L 784.600949 208.321778 
L 785.812302 197.416889 
L 788.235422 197.416889 
L 789.447821 193.327556 
L 793.077333 193.327556 
L 794.287469 189.238222 
L 795.498001 189.238222 
L 796.708253 191.964444 
L 797.918087 198.78 
L 799.127937 198.78 
L 800.338011 194.690667 
L 803.967589 194.690667 
L 805.176165 196.053778 
L 806.385869 196.053778 
L 807.596237 190.601333 
L 808.805393 200.143111 
L 810.015435 200.143111 
L 812.433678 202.869333 
L 813.643081 196.053778 
L 814.852924 196.053778 
L 816.062575 194.690667 
L 817.272458 197.416889 
L 818.483217 197.416889 
L 819.694523 190.601333 
L 820.905052 194.690667 
L 822.115064 194.690667 
L 823.325038 186.512 
L 824.535516 185.148889 
L 825.744273 185.148889 
L 826.953184 189.238222 
L 828.164729 182.422667 
L 829.373824 174.244 
L 830.583578 174.244 
L 831.792893 191.964444 
L 833.002826 191.964444 
L 834.212948 181.059556 
L 836.633332 146.981778 
L 837.845303 146.981778 
L 839.05498 133.350667 
L 840.265006 130.624444 
L 841.474119 130.624444 
L 842.683471 140.166222 
L 843.893004 137.44 
L 845.104331 131.987556 
L 846.314107 131.987556 
L 847.523223 123.808889 
L 848.735009 123.808889 
L 849.946761 108.814667 
L 851.156812 101.999111 
L 852.365765 97.909778 
L 853.578405 97.909778 
L 854.788148 96.546667 
L 855.996992 96.546667 
L 857.206385 95.183556 
L 858.416195 104.725333 
L 859.625377 119.719556 
L 860.834427 119.719556 
L 862.043864 121.082667 
L 863.252858 123.808889 
L 864.461494 123.808889 
L 865.670858 134.713778 
L 866.879697 140.166222 
L 868.089158 140.166222 
L 869.298278 155.160444 
L 870.50717 161.976 
L 871.71926 161.976 
L 872.928562 163.339111 
L 874.140144 167.428444 
L 875.352125 167.428444 
L 876.564466 179.696444 
L 877.776478 260.12 
L 945.643564 260.12 
L 946.852008 250.578222 
L 948.061054 246.488889 
L 949.272156 238.310222 
L 950.483347 238.310222 
L 952.9012 224.679111 
L 954.111313 224.679111 
L 955.320039 220.589778 
L 956.529346 211.048 
L 957.738627 211.048 
L 958.947724 206.958667 
L 960.156273 200.143111 
L 961.364822 200.143111 
L 962.573473 191.964444 
L 963.781896 186.512 
L 964.99008 186.512 
L 967.407987 178.333333 
L 968.616931 171.517778 
L 969.825451 171.517778 
L 971.036442 164.702222 
L 972.244691 164.702222 
L 973.455623 163.339111 
L 974.665177 151.071111 
L 975.875427 153.797333 
L 977.08481 153.797333 
L 978.293266 148.344889 
L 979.504345 146.981778 
L 980.715594 146.981778 
L 981.924708 149.708 
L 983.135865 153.797333 
L 984.34408 166.065333 
L 985.553204 166.065333 
L 986.76196 171.517778 
L 987.971483 171.517778 
L 989.181011 178.333333 
L 990.38991 176.970222 
L 992.809905 176.970222 
L 994.018446 178.333333 
L 995.230074 187.875111 
L 996.439192 187.875111 
L 997.647485 178.333333 
L 998.85687 178.333333 
L 1000.067574 166.065333 
L 1001.277197 176.970222 
L 1002.487839 174.244 
L 1004.906647 174.244 
L 1006.114763 166.065333 
L 1007.325752 166.065333 
L 1008.537241 170.154667 
L 1009.747661 168.791556 
L 1010.958358 171.517778 
L 1012.168646 171.517778 
L 1013.379328 157.886667 
L 1014.587594 167.428444 
L 1015.798468 167.428444 
L 1017.007347 164.702222 
L 1018.218494 164.702222 
L 1019.428094 156.523556 
L 1020.636807 202.869333 
L 1021.848447 202.869333 
L 1023.058054 194.690667 
L 1024.268801 191.964444 
L 1025.480239 197.416889 
L 1026.691064 197.416889 
L 1029.109386 202.869333 
L 1030.32009 209.684889 
L 1031.52849 209.684889 
L 1032.739472 208.321778 
L 1033.948608 208.321778 
L 1035.159036 212.411111 
L 1036.369705 215.137333 
L 1038.789794 215.137333 
L 1039.998672 217.863556 
L 1041.21013 226.042222 
L 1043.626464 226.042222 
L 1044.836117 260.12 
L 1115.122395 260.12 
L 1116.334006 251.941333 
L 1117.546527 247.852 
L 1118.757628 235.584 
L 1119.969207 235.584 
L 1121.178365 212.411111 
L 1122.386905 205.595556 
L 1123.595702 205.595556 
L 1124.805335 187.875111 
L 1127.22631 156.523556 
L 1128.437362 156.523556 
L 1129.64812 138.803111 
L 1130.859821 138.803111 
L 1132.068434 126.535111 
L 1133.28 137.44 
L 1133.28 137.44 
" style="fill:none;stroke:#1f77b4;stroke-linecap:square;stroke-width:1.5;"/>
   </g>
   <g id="patch_3">
    <path d="M 33.64 260.12 
L 33.64 14.76 
" style="fill:none;stroke:#000000;stroke-linecap:square;stroke-linejoin:miter;stroke-width:0.8;"/>
   </g>
   <g id="patch_4">
    <path d="M 1133.28 260.12 
L 1133.28 14.76 
" style="fill:none;stroke:#000000;stroke-linecap:square;stroke-linejoin:miter;stroke-width:0.8;"/>
   </g>
   <g id="patch_5">
    <path d="M 33.64 260.12 
L 1133.28 260.12 
" style="fill:none;stroke:#000000;stroke-linecap:square;stroke-linejoin:miter;stroke-width:0.8;"/>
   </g>
   <g id="patch_6">
    <path d="M 33.64 14.76 
L 1133.28 14.76 
" style="fill:none;stroke:#000000;stroke-linecap:square;stroke-linejoin:miter;stroke-width:0.8;"/>
   </g>
  </g>
 </g>
 <defs>
  <clipPath id="pf34826691e">
   <rect height="245.36" width="1099.64" x="33.64" y="14.76"/>
  </clipPath>
 </defs>
</svg>
