<?xml version="1.0" encoding="utf-8" standalone="no"?>
<!DOCTYPE svg PUBLIC "-//W3C//DTD SVG 1.1//EN"
  "http://www.w3.org/Graphics/SVG/1.1/DTD/svg11.dtd">
<!-- Created with matplotlib (https://matplotlib.org/) -->
<svg height="288pt" version="1.1" viewBox="0 0 1152 288" width="1152pt" xmlns="http://www.w3.org/2000/svg" xmlns:xlink="http://www.w3.org/1999/xlink">
 <defs>
  <style type="text/css">
*{stroke-linecap:butt;stroke-linejoin:round;}
  </style>
 </defs>
 <g id="figure_1">
  <g id="patch_1">
   <path d="M 0 288 
L 1152 288 
L 1152 0 
L 0 0 
z
" style="fill:#ffffff;"/>
  </g>
  <g id="axes_1">
   <g id="patch_2">
    <path d="M 33.64 260.12 
L 1133.28 260.12 
L 1133.28 14.76 
L 33.64 14.76 
z
" style="fill:#ffffff;"/>
   </g>
   <g id="matplotlib.axis_1">
    <g id="xtick_1">
     <g id="line2d_1">
      <defs>
       <path d="M 0 0 
L 0 3.5 
" id="mc2fafb68e3" style="stroke:#000000;stroke-width:0.8;"/>
      </defs>
      <g>
       <use style="stroke:#000000;stroke-width:0.8;" x="228.208158" xlink:href="#mc2fafb68e3" y="260.12"/>
      </g>
     </g>
     <g id="text_1">
      <!-- Tue 00:00 -->
      <defs>
       <path d="M -0.296875 72.90625 
L 61.375 72.90625 
L 61.375 64.59375 
L 35.5 64.59375 
L 35.5 0 
L 25.59375 0 
L 25.59375 64.59375 
L -0.296875 64.59375 
z
" id="DejaVuSans-84"/>
       <path d="M 8.5 21.578125 
L 8.5 54.6875 
L 17.484375 54.6875 
L 17.484375 21.921875 
Q 17.484375 14.15625 20.5 10.265625 
Q 23.53125 6.390625 29.59375 6.390625 
Q 36.859375 6.390625 41.078125 11.03125 
Q 45.3125 15.671875 45.3125 23.6875 
L 45.3125 54.6875 
L 54.296875 54.6875 
L 54.296875 0 
L 45.3125 0 
L 45.3125 8.40625 
Q 42.046875 3.421875 37.71875 1 
Q 33.40625 -1.421875 27.6875 -1.421875 
Q 18.265625 -1.421875 13.375 4.4375 
Q 8.5 10.296875 8.5 21.578125 
z
M 31.109375 56 
z
" id="DejaVuSans-117"/>
       <path d="M 56.203125 29.59375 
L 56.203125 25.203125 
L 14.890625 25.203125 
Q 15.484375 15.921875 20.484375 11.0625 
Q 25.484375 6.203125 34.421875 6.203125 
Q 39.59375 6.203125 44.453125 7.46875 
Q 49.3125 8.734375 54.109375 11.28125 
L 54.109375 2.78125 
Q 49.265625 0.734375 44.1875 -0.34375 
Q 39.109375 -1.421875 33.890625 -1.421875 
Q 20.796875 -1.421875 13.15625 6.1875 
Q 5.515625 13.8125 5.515625 26.8125 
Q 5.515625 40.234375 12.765625 48.109375 
Q 20.015625 56 32.328125 56 
Q 43.359375 56 49.78125 48.890625 
Q 56.203125 41.796875 56.203125 29.59375 
z
M 47.21875 32.234375 
Q 47.125 39.59375 43.09375 43.984375 
Q 39.0625 48.390625 32.421875 48.390625 
Q 24.90625 48.390625 20.390625 44.140625 
Q 15.875 39.890625 15.1875 32.171875 
z
" id="DejaVuSans-101"/>
       <path id="DejaVuSans-32"/>
       <path d="M 31.78125 66.40625 
Q 24.171875 66.40625 20.328125 58.90625 
Q 16.5 51.421875 16.5 36.375 
Q 16.5 21.390625 20.328125 13.890625 
Q 24.171875 6.390625 31.78125 6.390625 
Q 39.453125 6.390625 43.28125 13.890625 
Q 47.125 21.390625 47.125 36.375 
Q 47.125 51.421875 43.28125 58.90625 
Q 39.453125 66.40625 31.78125 66.40625 
z
M 31.78125 74.21875 
Q 44.046875 74.21875 50.515625 64.515625 
Q 56.984375 54.828125 56.984375 36.375 
Q 56.984375 17.96875 50.515625 8.265625 
Q 44.046875 -1.421875 31.78125 -1.421875 
Q 19.53125 -1.421875 13.0625 8.265625 
Q 6.59375 17.96875 6.59375 36.375 
Q 6.59375 54.828125 13.0625 64.515625 
Q 19.53125 74.21875 31.78125 74.21875 
z
" id="DejaVuSans-48"/>
       <path d="M 11.71875 12.40625 
L 22.015625 12.40625 
L 22.015625 0 
L 11.71875 0 
z
M 11.71875 51.703125 
L 22.015625 51.703125 
L 22.015625 39.3125 
L 11.71875 39.3125 
z
" id="DejaVuSans-58"/>
      </defs>
      <g transform="translate(202.92222 274.718437)scale(0.1 -0.1)">
       <use xlink:href="#DejaVuSans-84"/>
       <use x="60.849609" xlink:href="#DejaVuSans-117"/>
       <use x="124.228516" xlink:href="#DejaVuSans-101"/>
       <use x="185.751953" xlink:href="#DejaVuSans-32"/>
       <use x="217.539062" xlink:href="#DejaVuSans-48"/>
       <use x="281.162109" xlink:href="#DejaVuSans-48"/>
       <use x="344.785156" xlink:href="#DejaVuSans-58"/>
       <use x="378.476562" xlink:href="#DejaVuSans-48"/>
       <use x="442.099609" xlink:href="#DejaVuSans-48"/>
      </g>
     </g>
    </g>
    <g id="xtick_2">
     <g id="line2d_2">
      <g>
       <use style="stroke:#000000;stroke-width:0.8;" x="422.97374" xlink:href="#mc2fafb68e3" y="260.12"/>
      </g>
     </g>
     <g id="text_2">
      <!-- Wed 00:00 -->
      <defs>
       <path d="M 3.328125 72.90625 
L 13.28125 72.90625 
L 28.609375 11.28125 
L 43.890625 72.90625 
L 54.984375 72.90625 
L 70.3125 11.28125 
L 85.59375 72.90625 
L 95.609375 72.90625 
L 77.296875 0 
L 64.890625 0 
L 49.515625 63.28125 
L 33.984375 0 
L 21.578125 0 
z
" id="DejaVuSans-87"/>
       <path d="M 45.40625 46.390625 
L 45.40625 75.984375 
L 54.390625 75.984375 
L 54.390625 0 
L 45.40625 0 
L 45.40625 8.203125 
Q 42.578125 3.328125 38.25 0.953125 
Q 33.9375 -1.421875 27.875 -1.421875 
Q 17.96875 -1.421875 11.734375 6.484375 
Q 5.515625 14.40625 5.515625 27.296875 
Q 5.515625 40.1875 11.734375 48.09375 
Q 17.96875 56 27.875 56 
Q 33.9375 56 38.25 53.625 
Q 42.578125 51.265625 45.40625 46.390625 
z
M 14.796875 27.296875 
Q 14.796875 17.390625 18.875 11.75 
Q 22.953125 6.109375 30.078125 6.109375 
Q 37.203125 6.109375 41.296875 11.75 
Q 45.40625 17.390625 45.40625 27.296875 
Q 45.40625 37.203125 41.296875 42.84375 
Q 37.203125 48.484375 30.078125 48.484375 
Q 22.953125 48.484375 18.875 42.84375 
Q 14.796875 37.203125 14.796875 27.296875 
z
" id="DejaVuSans-100"/>
      </defs>
      <g transform="translate(395.784678 274.718437)scale(0.1 -0.1)">
       <use xlink:href="#DejaVuSans-87"/>
       <use x="98.798828" xlink:href="#DejaVuSans-101"/>
       <use x="160.322266" xlink:href="#DejaVuSans-100"/>
       <use x="223.798828" xlink:href="#DejaVuSans-32"/>
       <use x="255.585938" xlink:href="#DejaVuSans-48"/>
       <use x="319.208984" xlink:href="#DejaVuSans-48"/>
       <use x="382.832031" xlink:href="#DejaVuSans-58"/>
       <use x="416.523438" xlink:href="#DejaVuSans-48"/>
       <use x="480.146484" xlink:href="#DejaVuSans-48"/>
      </g>
     </g>
    </g>
    <g id="xtick_3">
     <g id="line2d_3">
      <g>
       <use style="stroke:#000000;stroke-width:0.8;" x="617.739323" xlink:href="#mc2fafb68e3" y="260.12"/>
      </g>
     </g>
     <g id="text_3">
      <!-- Thu 00:00 -->
      <defs>
       <path d="M 54.890625 33.015625 
L 54.890625 0 
L 45.90625 0 
L 45.90625 32.71875 
Q 45.90625 40.484375 42.875 44.328125 
Q 39.84375 48.1875 33.796875 48.1875 
Q 26.515625 48.1875 22.3125 43.546875 
Q 18.109375 38.921875 18.109375 30.90625 
L 18.109375 0 
L 9.078125 0 
L 9.078125 75.984375 
L 18.109375 75.984375 
L 18.109375 46.1875 
Q 21.34375 51.125 25.703125 53.5625 
Q 30.078125 56 35.796875 56 
Q 45.21875 56 50.046875 50.171875 
Q 54.890625 44.34375 54.890625 33.015625 
z
" id="DejaVuSans-104"/>
      </defs>
      <g transform="translate(592.349479 274.718437)scale(0.1 -0.1)">
       <use xlink:href="#DejaVuSans-84"/>
       <use x="61.083984" xlink:href="#DejaVuSans-104"/>
       <use x="124.462891" xlink:href="#DejaVuSans-117"/>
       <use x="187.841797" xlink:href="#DejaVuSans-32"/>
       <use x="219.628906" xlink:href="#DejaVuSans-48"/>
       <use x="283.251953" xlink:href="#DejaVuSans-48"/>
       <use x="346.875" xlink:href="#DejaVuSans-58"/>
       <use x="380.566406" xlink:href="#DejaVuSans-48"/>
       <use x="444.189453" xlink:href="#DejaVuSans-48"/>
      </g>
     </g>
    </g>
    <g id="xtick_4">
     <g id="line2d_4">
      <g>
       <use style="stroke:#000000;stroke-width:0.8;" x="812.504906" xlink:href="#mc2fafb68e3" y="260.12"/>
      </g>
     </g>
     <g id="text_4">
      <!-- Fri 00:00 -->
      <defs>
       <path d="M 9.8125 72.90625 
L 51.703125 72.90625 
L 51.703125 64.59375 
L 19.671875 64.59375 
L 19.671875 43.109375 
L 48.578125 43.109375 
L 48.578125 34.8125 
L 19.671875 34.8125 
L 19.671875 0 
L 9.8125 0 
z
" id="DejaVuSans-70"/>
       <path d="M 41.109375 46.296875 
Q 39.59375 47.171875 37.8125 47.578125 
Q 36.03125 48 33.890625 48 
Q 26.265625 48 22.1875 43.046875 
Q 18.109375 38.09375 18.109375 28.8125 
L 18.109375 0 
L 9.078125 0 
L 9.078125 54.6875 
L 18.109375 54.6875 
L 18.109375 46.1875 
Q 20.953125 51.171875 25.484375 53.578125 
Q 30.03125 56 36.53125 56 
Q 37.453125 56 38.578125 55.875 
Q 39.703125 55.765625 41.0625 55.515625 
z
" id="DejaVuSans-114"/>
       <path d="M 9.421875 54.6875 
L 18.40625 54.6875 
L 18.40625 0 
L 9.421875 0 
z
M 9.421875 75.984375 
L 18.40625 75.984375 
L 18.40625 64.59375 
L 9.421875 64.59375 
z
" id="DejaVuSans-105"/>
      </defs>
      <g transform="translate(790.191625 274.718437)scale(0.1 -0.1)">
       <use xlink:href="#DejaVuSans-70"/>
       <use x="57.410156" xlink:href="#DejaVuSans-114"/>
       <use x="98.523438" xlink:href="#DejaVuSans-105"/>
       <use x="126.306641" xlink:href="#DejaVuSans-32"/>
       <use x="158.09375" xlink:href="#DejaVuSans-48"/>
       <use x="221.716797" xlink:href="#DejaVuSans-48"/>
       <use x="285.339844" xlink:href="#DejaVuSans-58"/>
       <use x="319.03125" xlink:href="#DejaVuSans-48"/>
       <use x="382.654297" xlink:href="#DejaVuSans-48"/>
      </g>
     </g>
    </g>
    <g id="xtick_5">
     <g id="line2d_5">
      <g>
       <use style="stroke:#000000;stroke-width:0.8;" x="1007.270489" xlink:href="#mc2fafb68e3" y="260.12"/>
      </g>
     </g>
     <g id="text_5">
      <!-- Sat 00:00 -->
      <defs>
       <path d="M 53.515625 70.515625 
L 53.515625 60.890625 
Q 47.90625 63.578125 42.921875 64.890625 
Q 37.9375 66.21875 33.296875 66.21875 
Q 25.25 66.21875 20.875 63.09375 
Q 16.5 59.96875 16.5 54.203125 
Q 16.5 49.359375 19.40625 46.890625 
Q 22.3125 44.4375 30.421875 42.921875 
L 36.375 41.703125 
Q 47.40625 39.59375 52.65625 34.296875 
Q 57.90625 29 57.90625 20.125 
Q 57.90625 9.515625 50.796875 4.046875 
Q 43.703125 -1.421875 29.984375 -1.421875 
Q 24.8125 -1.421875 18.96875 -0.25 
Q 13.140625 0.921875 6.890625 3.21875 
L 6.890625 13.375 
Q 12.890625 10.015625 18.65625 8.296875 
Q 24.421875 6.59375 29.984375 6.59375 
Q 38.421875 6.59375 43.015625 9.90625 
Q 47.609375 13.234375 47.609375 19.390625 
Q 47.609375 24.75 44.3125 27.78125 
Q 41.015625 30.8125 33.5 32.328125 
L 27.484375 33.5 
Q 16.453125 35.6875 11.515625 40.375 
Q 6.59375 45.0625 6.59375 53.421875 
Q 6.59375 63.09375 13.40625 68.65625 
Q 20.21875 74.21875 32.171875 74.21875 
Q 37.3125 74.21875 42.625 73.28125 
Q 47.953125 72.359375 53.515625 70.515625 
z
" id="DejaVuSans-83"/>
       <path d="M 34.28125 27.484375 
Q 23.390625 27.484375 19.1875 25 
Q 14.984375 22.515625 14.984375 16.5 
Q 14.984375 11.71875 18.140625 8.90625 
Q 21.296875 6.109375 26.703125 6.109375 
Q 34.1875 6.109375 38.703125 11.40625 
Q 43.21875 16.703125 43.21875 25.484375 
L 43.21875 27.484375 
z
M 52.203125 31.203125 
L 52.203125 0 
L 43.21875 0 
L 43.21875 8.296875 
Q 40.140625 3.328125 35.546875 0.953125 
Q 30.953125 -1.421875 24.3125 -1.421875 
Q 15.921875 -1.421875 10.953125 3.296875 
Q 6 8.015625 6 15.921875 
Q 6 25.140625 12.171875 29.828125 
Q 18.359375 34.515625 30.609375 34.515625 
L 43.21875 34.515625 
L 43.21875 35.40625 
Q 43.21875 41.609375 39.140625 45 
Q 35.0625 48.390625 27.6875 48.390625 
Q 23 48.390625 18.546875 47.265625 
Q 14.109375 46.140625 10.015625 43.890625 
L 10.015625 52.203125 
Q 14.9375 54.109375 19.578125 55.046875 
Q 24.21875 56 28.609375 56 
Q 40.484375 56 46.34375 49.84375 
Q 52.203125 43.703125 52.203125 31.203125 
z
" id="DejaVuSans-97"/>
       <path d="M 18.3125 70.21875 
L 18.3125 54.6875 
L 36.8125 54.6875 
L 36.8125 47.703125 
L 18.3125 47.703125 
L 18.3125 18.015625 
Q 18.3125 11.328125 20.140625 9.421875 
Q 21.96875 7.515625 27.59375 7.515625 
L 36.8125 7.515625 
L 36.8125 0 
L 27.59375 0 
Q 17.1875 0 13.234375 3.875 
Q 9.28125 7.765625 9.28125 18.015625 
L 9.28125 47.703125 
L 2.6875 47.703125 
L 2.6875 54.6875 
L 9.28125 54.6875 
L 9.28125 70.21875 
z
" id="DejaVuSans-116"/>
      </defs>
      <g transform="translate(983.073614 274.718437)scale(0.1 -0.1)">
       <use xlink:href="#DejaVuSans-83"/>
       <use x="63.476562" xlink:href="#DejaVuSans-97"/>
       <use x="124.755859" xlink:href="#DejaVuSans-116"/>
       <use x="163.964844" xlink:href="#DejaVuSans-32"/>
       <use x="195.751953" xlink:href="#DejaVuSans-48"/>
       <use x="259.375" xlink:href="#DejaVuSans-48"/>
       <use x="322.998047" xlink:href="#DejaVuSans-58"/>
       <use x="356.689453" xlink:href="#DejaVuSans-48"/>
       <use x="420.3125" xlink:href="#DejaVuSans-48"/>
      </g>
     </g>
    </g>
   </g>
   <g id="matplotlib.axis_2">
    <g id="ytick_1">
     <g id="line2d_6">
      <defs>
       <path d="M 0 0 
L -3.5 0 
" id="m150e6d79ca" style="stroke:#000000;stroke-width:0.8;"/>
      </defs>
      <g>
       <use style="stroke:#000000;stroke-width:0.8;" x="33.64" xlink:href="#m150e6d79ca" y="260.12"/>
      </g>
     </g>
     <g id="text_6">
      <!-- 0 -->
      <g transform="translate(20.2775 263.919219)scale(0.1 -0.1)">
       <use xlink:href="#DejaVuSans-48"/>
      </g>
     </g>
    </g>
    <g id="ytick_2">
     <g id="line2d_7">
      <g>
       <use style="stroke:#000000;stroke-width:0.8;" x="33.64" xlink:href="#m150e6d79ca" y="230.910476"/>
      </g>
     </g>
     <g id="text_7">
      <!-- 25 -->
      <defs>
       <path d="M 19.1875 8.296875 
L 53.609375 8.296875 
L 53.609375 0 
L 7.328125 0 
L 7.328125 8.296875 
Q 12.9375 14.109375 22.625 23.890625 
Q 32.328125 33.6875 34.8125 36.53125 
Q 39.546875 41.84375 41.421875 45.53125 
Q 43.3125 49.21875 43.3125 52.78125 
Q 43.3125 58.59375 39.234375 62.25 
Q 35.15625 65.921875 28.609375 65.921875 
Q 23.96875 65.921875 18.8125 64.3125 
Q 13.671875 62.703125 7.8125 59.421875 
L 7.8125 69.390625 
Q 13.765625 71.78125 18.9375 73 
Q 24.125 74.21875 28.421875 74.21875 
Q 39.75 74.21875 46.484375 68.546875 
Q 53.21875 62.890625 53.21875 53.421875 
Q 53.21875 48.921875 51.53125 44.890625 
Q 49.859375 40.875 45.40625 35.40625 
Q 44.1875 33.984375 37.640625 27.21875 
Q 31.109375 20.453125 19.1875 8.296875 
z
" id="DejaVuSans-50"/>
       <path d="M 10.796875 72.90625 
L 49.515625 72.90625 
L 49.515625 64.59375 
L 19.828125 64.59375 
L 19.828125 46.734375 
Q 21.96875 47.46875 24.109375 47.828125 
Q 26.265625 48.1875 28.421875 48.1875 
Q 40.625 48.1875 47.75 41.5 
Q 54.890625 34.8125 54.890625 23.390625 
Q 54.890625 11.625 47.5625 5.09375 
Q 40.234375 -1.421875 26.90625 -1.421875 
Q 22.3125 -1.421875 17.546875 -0.640625 
Q 12.796875 0.140625 7.71875 1.703125 
L 7.71875 11.625 
Q 12.109375 9.234375 16.796875 8.0625 
Q 21.484375 6.890625 26.703125 6.890625 
Q 35.15625 6.890625 40.078125 11.328125 
Q 45.015625 15.765625 45.015625 23.390625 
Q 45.015625 31 40.078125 35.4375 
Q 35.15625 39.890625 26.703125 39.890625 
Q 22.75 39.890625 18.8125 39.015625 
Q 14.890625 38.140625 10.796875 36.28125 
z
" id="DejaVuSans-53"/>
      </defs>
      <g transform="translate(13.915 234.709695)scale(0.1 -0.1)">
       <use xlink:href="#DejaVuSans-50"/>
       <use x="63.623047" xlink:href="#DejaVuSans-53"/>
      </g>
     </g>
    </g>
    <g id="ytick_3">
     <g id="line2d_8">
      <g>
       <use style="stroke:#000000;stroke-width:0.8;" x="33.64" xlink:href="#m150e6d79ca" y="201.700952"/>
      </g>
     </g>
     <g id="text_8">
      <!-- 50 -->
      <g transform="translate(13.915 205.500171)scale(0.1 -0.1)">
       <use xlink:href="#DejaVuSans-53"/>
       <use x="63.623047" xlink:href="#DejaVuSans-48"/>
      </g>
     </g>
    </g>
    <g id="ytick_4">
     <g id="line2d_9">
      <g>
       <use style="stroke:#000000;stroke-width:0.8;" x="33.64" xlink:href="#m150e6d79ca" y="172.491429"/>
      </g>
     </g>
     <g id="text_9">
      <!-- 75 -->
      <defs>
       <path d="M 8.203125 72.90625 
L 55.078125 72.90625 
L 55.078125 68.703125 
L 28.609375 0 
L 18.3125 0 
L 43.21875 64.59375 
L 8.203125 64.59375 
z
" id="DejaVuSans-55"/>
      </defs>
      <g transform="translate(13.915 176.290647)scale(0.1 -0.1)">
       <use xlink:href="#DejaVuSans-55"/>
       <use x="63.623047" xlink:href="#DejaVuSans-53"/>
      </g>
     </g>
    </g>
    <g id="ytick_5">
     <g id="line2d_10">
      <g>
       <use style="stroke:#000000;stroke-width:0.8;" x="33.64" xlink:href="#m150e6d79ca" y="143.281905"/>
      </g>
     </g>
     <g id="text_10">
      <!-- 100 -->
      <defs>
       <path d="M 12.40625 8.296875 
L 28.515625 8.296875 
L 28.515625 63.921875 
L 10.984375 60.40625 
L 10.984375 69.390625 
L 28.421875 72.90625 
L 38.28125 72.90625 
L 38.28125 8.296875 
L 54.390625 8.296875 
L 54.390625 0 
L 12.40625 0 
z
" id="DejaVuSans-49"/>
      </defs>
      <g transform="translate(7.5525 147.081124)scale(0.1 -0.1)">
       <use xlink:href="#DejaVuSans-49"/>
       <use x="63.623047" xlink:href="#DejaVuSans-48"/>
       <use x="127.246094" xlink:href="#DejaVuSans-48"/>
      </g>
     </g>
    </g>
    <g id="ytick_6">
     <g id="line2d_11">
      <g>
       <use style="stroke:#000000;stroke-width:0.8;" x="33.64" xlink:href="#m150e6d79ca" y="114.072381"/>
      </g>
     </g>
     <g id="text_11">
      <!-- 125 -->
      <g transform="translate(7.5525 117.8716)scale(0.1 -0.1)">
       <use xlink:href="#DejaVuSans-49"/>
       <use x="63.623047" xlink:href="#DejaVuSans-50"/>
       <use x="127.246094" xlink:href="#DejaVuSans-53"/>
      </g>
     </g>
    </g>
    <g id="ytick_7">
     <g id="line2d_12">
      <g>
       <use style="stroke:#000000;stroke-width:0.8;" x="33.64" xlink:href="#m150e6d79ca" y="84.862857"/>
      </g>
     </g>
     <g id="text_12">
      <!-- 150 -->
      <g transform="translate(7.5525 88.662076)scale(0.1 -0.1)">
       <use xlink:href="#DejaVuSans-49"/>
       <use x="63.623047" xlink:href="#DejaVuSans-53"/>
       <use x="127.246094" xlink:href="#DejaVuSans-48"/>
      </g>
     </g>
    </g>
    <g id="ytick_8">
     <g id="line2d_13">
      <g>
       <use style="stroke:#000000;stroke-width:0.8;" x="33.64" xlink:href="#m150e6d79ca" y="55.653333"/>
      </g>
     </g>
     <g id="text_13">
      <!-- 175 -->
      <g transform="translate(7.5525 59.452552)scale(0.1 -0.1)">
       <use xlink:href="#DejaVuSans-49"/>
       <use x="63.623047" xlink:href="#DejaVuSans-55"/>
       <use x="127.246094" xlink:href="#DejaVuSans-53"/>
      </g>
     </g>
    </g>
    <g id="ytick_9">
     <g id="line2d_14">
      <g>
       <use style="stroke:#000000;stroke-width:0.8;" x="33.64" xlink:href="#m150e6d79ca" y="26.44381"/>
      </g>
     </g>
     <g id="text_14">
      <!-- 200 -->
      <g transform="translate(7.5525 30.243028)scale(0.1 -0.1)">
       <use xlink:href="#DejaVuSans-50"/>
       <use x="63.623047" xlink:href="#DejaVuSans-48"/>
       <use x="127.246094" xlink:href="#DejaVuSans-48"/>
      </g>
     </g>
    </g>
   </g>
   <g id="line2d_15">
    <path clip-path="url(#pe6fa39f692)" d="M 33.64 260.12 
L 107.542154 260.12 
L 108.93454 257.783238 
L 110.327816 257.783238 
L 111.721181 254.278095 
L 113.11436 254.278095 
L 115.897845 249.604571 
L 117.290429 248.43619 
L 118.681625 248.43619 
L 120.073242 247.26781 
L 122.857143 247.26781 
L 124.249503 242.594286 
L 125.641312 236.752381 
L 127.032533 236.752381 
L 128.424663 229.742095 
L 129.818696 226.236952 
L 131.210374 226.236952 
L 132.602305 222.73181 
L 136.776589 222.73181 
L 138.167886 219.226667 
L 139.558614 218.058286 
L 142.342795 218.058286 
L 143.734288 223.90019 
L 145.125927 223.90019 
L 146.519461 229.742095 
L 147.910582 227.405333 
L 149.302872 227.405333 
L 150.694174 232.078857 
L 152.085407 233.247238 
L 153.477742 236.752381 
L 154.86962 236.752381 
L 156.263264 234.415619 
L 157.653499 234.415619 
L 159.045082 230.910476 
L 161.826906 216.889905 
L 163.217611 216.889905 
L 164.608891 212.216381 
L 166.001035 208.711238 
L 167.394246 208.711238 
L 168.785241 197.027429 
L 170.182393 192.353905 
L 171.578829 186.512 
L 172.969668 186.512 
L 174.361766 187.680381 
L 175.752833 187.680381 
L 177.144832 181.838476 
L 178.536415 164.312762 
L 179.927078 164.312762 
L 181.318653 150.29219 
L 182.710887 139.776762 
L 184.103286 116.409143 
L 185.494377 116.409143 
L 186.885214 89.536381 
L 188.278781 89.536381 
L 189.669659 67.337143 
L 191.060558 53.316571 
L 192.451 47.474667 
L 193.841788 47.474667 
L 195.232953 54.484952 
L 196.623635 59.158476 
L 198.015539 59.158476 
L 199.407712 76.68419 
L 200.79802 74.347429 
L 202.191654 74.347429 
L 203.584051 79.020952 
L 204.974579 81.357714 
L 206.367556 93.041524 
L 207.758137 93.041524 
L 209.149021 100.05181 
L 210.539749 109.398857 
L 211.929815 109.398857 
L 213.321285 122.251048 
L 214.711987 128.092952 
L 216.105238 128.092952 
L 217.495317 129.261333 
L 218.886347 132.766476 
L 220.277265 139.776762 
L 221.667079 139.776762 
L 223.056616 260.12 
L 301.156134 260.12 
L 302.524778 258.951619 
L 303.91975 243.762667 
L 305.314064 243.762667 
L 306.708059 240.257524 
L 308.099594 235.584 
L 310.887204 235.584 
L 312.278642 232.078857 
L 313.66986 232.078857 
L 315.061813 227.405333 
L 316.453792 223.90019 
L 317.8441 223.90019 
L 319.237265 222.73181 
L 322.019012 222.73181 
L 323.410374 225.068571 
L 324.804571 218.058286 
L 326.198431 219.226667 
L 327.588836 219.226667 
L 328.980659 216.889905 
L 330.37264 218.058286 
L 331.76481 218.058286 
L 333.155635 221.563429 
L 334.546113 219.226667 
L 335.937952 219.226667 
L 337.330796 214.553143 
L 338.721476 218.058286 
L 340.111755 218.058286 
L 341.502144 213.384762 
L 342.895788 212.216381 
L 344.289215 208.711238 
L 345.681518 208.711238 
L 348.463082 201.700952 
L 349.856304 201.700952 
L 351.249553 204.037714 
L 354.04103 204.037714 
L 355.431257 200.532571 
L 358.215765 200.532571 
L 359.609188 197.027429 
L 361.000702 187.680381 
L 362.391756 187.680381 
L 363.782214 184.175238 
L 365.173717 178.333333 
L 366.565098 178.333333 
L 367.958729 171.323048 
L 369.350339 156.134095 
L 370.74228 128.092952 
L 372.137494 128.092952 
L 373.534375 116.409143 
L 376.31652 116.409143 
L 377.711982 98.883429 
L 379.103613 98.883429 
L 380.49447 79.020952 
L 381.885153 67.337143 
L 383.276055 49.811429 
L 384.667033 49.811429 
L 386.059781 38.127619 
L 390.232334 38.127619 
L 391.626357 26.44381 
L 393.020196 26.44381 
L 394.410714 48.643048 
L 395.802277 60.326857 
L 397.193365 74.347429 
L 398.587426 74.347429 
L 401.368846 110.567238 
L 402.763281 110.567238 
L 404.154009 125.75619 
L 405.545163 137.44 
L 406.935713 151.460571 
L 408.330365 151.460571 
L 409.721468 161.976 
L 411.113407 161.976 
L 412.508293 166.649524 
L 413.898757 174.82819 
L 415.290636 175.996571 
L 418.073832 175.996571 
L 419.463968 260.12 
L 496.171108 260.12 
L 497.561773 255.446476 
L 500.344834 241.425905 
L 501.738233 241.425905 
L 503.129637 240.257524 
L 505.916521 240.257524 
L 507.307566 239.089143 
L 508.69872 239.089143 
L 510.092082 232.078857 
L 511.484978 232.078857 
L 512.876508 228.573714 
L 514.269787 228.573714 
L 515.661851 226.236952 
L 517.054718 225.068571 
L 522.623667 225.068571 
L 524.021153 226.236952 
L 526.802796 226.236952 
L 528.19377 223.90019 
L 529.586616 216.889905 
L 530.977439 219.226667 
L 532.371264 219.226667 
L 533.764733 221.563429 
L 535.155541 221.563429 
L 537.938113 214.553143 
L 539.331839 212.216381 
L 540.72526 212.216381 
L 542.115954 208.711238 
L 543.508948 206.374476 
L 544.902502 206.374476 
L 546.293847 209.879619 
L 547.686746 207.542857 
L 549.079588 206.374476 
L 550.473567 206.374476 
L 551.867964 205.206095 
L 553.259441 205.206095 
L 554.651156 198.19581 
L 556.043918 190.017143 
L 557.438807 190.017143 
L 558.832593 184.175238 
L 560.225633 171.323048 
L 561.616346 170.154667 
L 563.011962 170.154667 
L 564.405782 159.639238 
L 565.799601 159.639238 
L 567.191783 156.134095 
L 568.585143 153.797333 
L 569.979153 129.261333 
L 571.382756 129.261333 
L 572.774539 123.419429 
L 574.166033 115.240762 
L 575.558929 115.240762 
L 576.95088 98.883429 
L 578.342147 96.546667 
L 579.734048 96.546667 
L 581.12642 108.230476 
L 582.522573 101.22019 
L 583.912831 101.22019 
L 585.303366 96.546667 
L 586.697417 89.536381 
L 588.094628 95.378286 
L 589.48894 95.378286 
L 590.882162 94.209905 
L 592.27648 119.914286 
L 593.669678 119.914286 
L 595.060114 125.75619 
L 596.453484 144.450286 
L 597.846974 146.787048 
L 599.240104 146.787048 
L 600.633386 156.134095 
L 602.023623 156.134095 
L 603.417282 165.481143 
L 604.811274 171.323048 
L 606.201947 173.65981 
L 607.596126 173.65981 
L 608.989695 180.670095 
L 610.379744 181.838476 
L 613.167134 181.838476 
L 614.560875 260.12 
L 692.669622 260.12 
L 694.060079 256.614857 
L 695.450212 248.43619 
L 696.840956 248.43619 
L 698.234467 244.931048 
L 699.625719 242.594286 
L 701.016999 242.594286 
L 703.802177 235.584 
L 705.194713 230.910476 
L 706.588755 230.910476 
L 707.979647 229.742095 
L 709.371297 229.742095 
L 710.762095 226.236952 
L 712.156156 223.90019 
L 713.54793 223.90019 
L 716.331766 221.563429 
L 717.723344 225.068571 
L 719.116228 225.068571 
L 720.507636 222.73181 
L 721.899947 219.226667 
L 723.291878 219.226667 
L 724.683896 211.048 
L 726.075676 211.048 
L 727.467109 212.216381 
L 731.64417 212.216381 
L 733.037247 205.206095 
L 735.82068 205.206095 
L 737.213545 197.027429 
L 738.606403 194.690667 
L 739.9997 199.36419 
L 741.392836 199.36419 
L 742.792294 195.859048 
L 744.183956 195.859048 
L 745.575021 191.185524 
L 746.967161 184.175238 
L 748.358902 175.996571 
L 749.751925 175.996571 
L 751.143997 167.817905 
L 752.537866 161.976 
L 753.930902 161.976 
L 755.324821 157.302476 
L 756.718615 143.281905 
L 758.113815 143.281905 
L 759.507623 138.608381 
L 760.900759 128.092952 
L 762.294051 114.072381 
L 763.685999 114.072381 
L 765.07724 98.883429 
L 766.468215 104.725333 
L 767.85977 104.725333 
L 769.252191 86.031238 
L 770.643469 86.031238 
L 772.040996 70.842286 
L 773.433105 59.158476 
L 774.825529 46.306286 
L 776.219591 46.306286 
L 777.613943 28.780571 
L 779.007119 32.285714 
L 780.398437 32.285714 
L 781.790892 38.127619 
L 783.181074 31.117333 
L 784.571899 31.117333 
L 785.962554 41.632762 
L 787.354443 54.484952 
L 788.745705 62.663619 
L 790.136826 62.663619 
L 791.527117 76.68419 
L 792.923612 96.546667 
L 794.314067 96.546667 
L 795.707217 105.893714 
L 797.100349 121.082667 
L 798.49123 121.082667 
L 799.882362 126.924571 
L 801.275378 144.450286 
L 802.66848 144.450286 
L 804.059033 152.628952 
L 805.450119 158.470857 
L 808.234825 158.470857 
L 809.625667 260.12 
L 884.972046 260.12 
L 886.340614 256.614857 
L 887.732119 256.614857 
L 889.123439 254.278095 
L 890.51411 249.604571 
L 891.905179 247.26781 
L 893.299006 247.26781 
L 894.691315 242.594286 
L 896.082964 233.247238 
L 897.475346 233.247238 
L 898.866197 227.405333 
L 900.25646 227.405333 
L 901.647028 223.90019 
L 903.040991 223.90019 
L 904.43158 216.889905 
L 905.822691 216.889905 
L 907.213977 213.384762 
L 908.604625 215.721524 
L 909.995893 215.721524 
L 911.387131 216.889905 
L 912.778397 220.395048 
L 915.566856 220.395048 
L 916.957577 221.563429 
L 918.348547 221.563429 
L 919.739608 219.226667 
L 921.13093 225.068571 
L 923.911692 225.068571 
L 925.302057 220.395048 
L 926.694116 222.73181 
L 928.087199 222.73181 
L 929.479207 220.395048 
L 930.872678 220.395048 
L 932.264326 218.058286 
L 933.655009 206.374476 
L 935.045874 202.869333 
L 936.438261 202.869333 
L 937.828396 194.690667 
L 939.219857 187.680381 
L 940.610227 187.680381 
L 942.004153 181.838476 
L 943.400444 171.323048 
L 944.793026 164.312762 
L 946.188079 164.312762 
L 947.578497 158.470857 
L 948.969232 158.470857 
L 950.364283 153.797333 
L 951.755868 147.955429 
L 953.148165 145.618667 
L 954.542819 145.618667 
L 955.934883 137.44 
L 957.326439 150.29219 
L 958.717413 150.29219 
L 960.115125 161.976 
L 961.506233 160.807619 
L 962.896662 160.807619 
L 964.287573 150.29219 
L 965.678749 144.450286 
L 967.071793 144.450286 
L 968.4635 135.103238 
L 969.854735 126.924571 
L 971.248074 126.924571 
L 972.639228 125.75619 
L 974.03105 128.092952 
L 975.426459 125.75619 
L 976.83048 125.75619 
L 978.225979 130.429714 
L 979.622285 131.598095 
L 981.019288 131.598095 
L 982.426417 143.281905 
L 985.220589 143.281905 
L 986.617624 151.460571 
L 988.009682 158.470857 
L 989.407554 160.807619 
L 990.800145 160.807619 
L 992.19435 166.649524 
L 993.586153 166.649524 
L 994.979951 179.501714 
L 996.371908 185.343619 
L 997.763574 187.680381 
L 999.154134 187.680381 
L 1000.54718 193.522286 
L 1003.330451 193.522286 
L 1004.734121 260.12 
L 1080.067141 260.12 
L 1081.435231 253.109714 
L 1082.826604 251.941333 
L 1084.219123 251.941333 
L 1085.611775 241.425905 
L 1087.00179 235.584 
L 1088.391985 235.584 
L 1089.782603 233.247238 
L 1091.172557 233.247238 
L 1092.562552 220.395048 
L 1093.954844 209.879619 
L 1095.344919 207.542857 
L 1096.735403 207.542857 
L 1099.515948 193.522286 
L 1100.905639 193.522286 
L 1103.68919 186.512 
L 1105.079346 187.680381 
L 1106.846489 187.680381 
L 1108.237838 195.859048 
L 1109.631799 199.36419 
L 1111.021948 199.36419 
L 1112.41486 200.532571 
L 1113.810329 200.532571 
L 1115.200981 187.680381 
L 1116.59119 187.680381 
L 1117.981433 180.670095 
L 1119.372357 180.670095 
L 1120.763743 175.996571 
L 1122.153579 177.164952 
L 1123.545158 177.164952 
L 1124.938047 187.680381 
L 1126.328242 186.512 
L 1127.718801 180.670095 
L 1129.109098 180.670095 
L 1130.499773 181.838476 
L 1131.889745 173.65981 
L 1133.28 173.65981 
L 1133.28 173.65981 
" style="fill:none;stroke:#1f77b4;stroke-linecap:square;stroke-width:1.5;"/>
   </g>
   <g id="patch_3">
    <path d="M 33.64 260.12 
L 33.64 14.76 
" style="fill:none;stroke:#000000;stroke-linecap:square;stroke-linejoin:miter;stroke-width:0.8;"/>
   </g>
   <g id="patch_4">
    <path d="M 1133.28 260.12 
L 1133.28 14.76 
" style="fill:none;stroke:#000000;stroke-linecap:square;stroke-linejoin:miter;stroke-width:0.8;"/>
   </g>
   <g id="patch_5">
    <path d="M 33.64 260.12 
L 1133.28 260.12 
" style="fill:none;stroke:#000000;stroke-linecap:square;stroke-linejoin:miter;stroke-width:0.8;"/>
   </g>
   <g id="patch_6">
    <path d="M 33.64 14.76 
L 1133.28 14.76 
" style="fill:none;stroke:#000000;stroke-linecap:square;stroke-linejoin:miter;stroke-width:0.8;"/>
   </g>
  </g>
 </g>
 <defs>
  <clipPath id="pe6fa39f692">
   <rect height="245.36" width="1099.64" x="33.64" y="14.76"/>
  </clipPath>
 </defs>
</svg>
