<?xml version="1.0" encoding="utf-8" standalone="no"?>
<!DOCTYPE svg PUBLIC "-//W3C//DTD SVG 1.1//EN"
  "http://www.w3.org/Graphics/SVG/1.1/DTD/svg11.dtd">
<!-- Created with matplotlib (https://matplotlib.org/) -->
<svg height="288pt" version="1.1" viewBox="0 0 1152 288" width="1152pt" xmlns="http://www.w3.org/2000/svg" xmlns:xlink="http://www.w3.org/1999/xlink">
 <defs>
  <style type="text/css">
*{stroke-linecap:butt;stroke-linejoin:round;}
  </style>
 </defs>
 <g id="figure_1">
  <g id="patch_1">
   <path d="M 0 288 
L 1152 288 
L 1152 0 
L 0 0 
z
" style="fill:#ffffff;"/>
  </g>
  <g id="axes_1">
   <g id="patch_2">
    <path d="M 33.64 260.12 
L 1133.28 260.12 
L 1133.28 14.76 
L 33.64 14.76 
z
" style="fill:#ffffff;"/>
   </g>
   <g id="matplotlib.axis_1">
    <g id="xtick_1">
     <g id="line2d_1">
      <defs>
       <path d="M 0 0 
L 0 3.5 
" id="m09e0af68c2" style="stroke:#000000;stroke-width:0.8;"/>
      </defs>
      <g>
       <use style="stroke:#000000;stroke-width:0.8;" x="229.67864" xlink:href="#m09e0af68c2" y="260.12"/>
      </g>
     </g>
     <g id="text_1">
      <!-- Tue 00:00 -->
      <defs>
       <path d="M -0.296875 72.90625 
L 61.375 72.90625 
L 61.375 64.59375 
L 35.5 64.59375 
L 35.5 0 
L 25.59375 0 
L 25.59375 64.59375 
L -0.296875 64.59375 
z
" id="DejaVuSans-84"/>
       <path d="M 8.5 21.578125 
L 8.5 54.6875 
L 17.484375 54.6875 
L 17.484375 21.921875 
Q 17.484375 14.15625 20.5 10.265625 
Q 23.53125 6.390625 29.59375 6.390625 
Q 36.859375 6.390625 41.078125 11.03125 
Q 45.3125 15.671875 45.3125 23.6875 
L 45.3125 54.6875 
L 54.296875 54.6875 
L 54.296875 0 
L 45.3125 0 
L 45.3125 8.40625 
Q 42.046875 3.421875 37.71875 1 
Q 33.40625 -1.421875 27.6875 -1.421875 
Q 18.265625 -1.421875 13.375 4.4375 
Q 8.5 10.296875 8.5 21.578125 
z
M 31.109375 56 
z
" id="DejaVuSans-117"/>
       <path d="M 56.203125 29.59375 
L 56.203125 25.203125 
L 14.890625 25.203125 
Q 15.484375 15.921875 20.484375 11.0625 
Q 25.484375 6.203125 34.421875 6.203125 
Q 39.59375 6.203125 44.453125 7.46875 
Q 49.3125 8.734375 54.109375 11.28125 
L 54.109375 2.78125 
Q 49.265625 0.734375 44.1875 -0.34375 
Q 39.109375 -1.421875 33.890625 -1.421875 
Q 20.796875 -1.421875 13.15625 6.1875 
Q 5.515625 13.8125 5.515625 26.8125 
Q 5.515625 40.234375 12.765625 48.109375 
Q 20.015625 56 32.328125 56 
Q 43.359375 56 49.78125 48.890625 
Q 56.203125 41.796875 56.203125 29.59375 
z
M 47.21875 32.234375 
Q 47.125 39.59375 43.09375 43.984375 
Q 39.0625 48.390625 32.421875 48.390625 
Q 24.90625 48.390625 20.390625 44.140625 
Q 15.875 39.890625 15.1875 32.171875 
z
" id="DejaVuSans-101"/>
       <path id="DejaVuSans-32"/>
       <path d="M 31.78125 66.40625 
Q 24.171875 66.40625 20.328125 58.90625 
Q 16.5 51.421875 16.5 36.375 
Q 16.5 21.390625 20.328125 13.890625 
Q 24.171875 6.390625 31.78125 6.390625 
Q 39.453125 6.390625 43.28125 13.890625 
Q 47.125 21.390625 47.125 36.375 
Q 47.125 51.421875 43.28125 58.90625 
Q 39.453125 66.40625 31.78125 66.40625 
z
M 31.78125 74.21875 
Q 44.046875 74.21875 50.515625 64.515625 
Q 56.984375 54.828125 56.984375 36.375 
Q 56.984375 17.96875 50.515625 8.265625 
Q 44.046875 -1.421875 31.78125 -1.421875 
Q 19.53125 -1.421875 13.0625 8.265625 
Q 6.59375 17.96875 6.59375 36.375 
Q 6.59375 54.828125 13.0625 64.515625 
Q 19.53125 74.21875 31.78125 74.21875 
z
" id="DejaVuSans-48"/>
       <path d="M 11.71875 12.40625 
L 22.015625 12.40625 
L 22.015625 0 
L 11.71875 0 
z
M 11.71875 51.703125 
L 22.015625 51.703125 
L 22.015625 39.3125 
L 11.71875 39.3125 
z
" id="DejaVuSans-58"/>
      </defs>
      <g transform="translate(204.392703 274.718437)scale(0.1 -0.1)">
       <use xlink:href="#DejaVuSans-84"/>
       <use x="60.849609" xlink:href="#DejaVuSans-117"/>
       <use x="124.228516" xlink:href="#DejaVuSans-101"/>
       <use x="185.751953" xlink:href="#DejaVuSans-32"/>
       <use x="217.539062" xlink:href="#DejaVuSans-48"/>
       <use x="281.162109" xlink:href="#DejaVuSans-48"/>
       <use x="344.785156" xlink:href="#DejaVuSans-58"/>
       <use x="378.476562" xlink:href="#DejaVuSans-48"/>
       <use x="442.099609" xlink:href="#DejaVuSans-48"/>
      </g>
     </g>
    </g>
    <g id="xtick_2">
     <g id="line2d_2">
      <g>
       <use style="stroke:#000000;stroke-width:0.8;" x="426.430768" xlink:href="#m09e0af68c2" y="260.12"/>
      </g>
     </g>
     <g id="text_2">
      <!-- Wed 00:00 -->
      <defs>
       <path d="M 3.328125 72.90625 
L 13.28125 72.90625 
L 28.609375 11.28125 
L 43.890625 72.90625 
L 54.984375 72.90625 
L 70.3125 11.28125 
L 85.59375 72.90625 
L 95.609375 72.90625 
L 77.296875 0 
L 64.890625 0 
L 49.515625 63.28125 
L 33.984375 0 
L 21.578125 0 
z
" id="DejaVuSans-87"/>
       <path d="M 45.40625 46.390625 
L 45.40625 75.984375 
L 54.390625 75.984375 
L 54.390625 0 
L 45.40625 0 
L 45.40625 8.203125 
Q 42.578125 3.328125 38.25 0.953125 
Q 33.9375 -1.421875 27.875 -1.421875 
Q 17.96875 -1.421875 11.734375 6.484375 
Q 5.515625 14.40625 5.515625 27.296875 
Q 5.515625 40.1875 11.734375 48.09375 
Q 17.96875 56 27.875 56 
Q 33.9375 56 38.25 53.625 
Q 42.578125 51.265625 45.40625 46.390625 
z
M 14.796875 27.296875 
Q 14.796875 17.390625 18.875 11.75 
Q 22.953125 6.109375 30.078125 6.109375 
Q 37.203125 6.109375 41.296875 11.75 
Q 45.40625 17.390625 45.40625 27.296875 
Q 45.40625 37.203125 41.296875 42.84375 
Q 37.203125 48.484375 30.078125 48.484375 
Q 22.953125 48.484375 18.875 42.84375 
Q 14.796875 37.203125 14.796875 27.296875 
z
" id="DejaVuSans-100"/>
      </defs>
      <g transform="translate(399.241706 274.718437)scale(0.1 -0.1)">
       <use xlink:href="#DejaVuSans-87"/>
       <use x="98.798828" xlink:href="#DejaVuSans-101"/>
       <use x="160.322266" xlink:href="#DejaVuSans-100"/>
       <use x="223.798828" xlink:href="#DejaVuSans-32"/>
       <use x="255.585938" xlink:href="#DejaVuSans-48"/>
       <use x="319.208984" xlink:href="#DejaVuSans-48"/>
       <use x="382.832031" xlink:href="#DejaVuSans-58"/>
       <use x="416.523438" xlink:href="#DejaVuSans-48"/>
       <use x="480.146484" xlink:href="#DejaVuSans-48"/>
      </g>
     </g>
    </g>
    <g id="xtick_3">
     <g id="line2d_3">
      <g>
       <use style="stroke:#000000;stroke-width:0.8;" x="623.182896" xlink:href="#m09e0af68c2" y="260.12"/>
      </g>
     </g>
     <g id="text_3">
      <!-- Thu 00:00 -->
      <defs>
       <path d="M 54.890625 33.015625 
L 54.890625 0 
L 45.90625 0 
L 45.90625 32.71875 
Q 45.90625 40.484375 42.875 44.328125 
Q 39.84375 48.1875 33.796875 48.1875 
Q 26.515625 48.1875 22.3125 43.546875 
Q 18.109375 38.921875 18.109375 30.90625 
L 18.109375 0 
L 9.078125 0 
L 9.078125 75.984375 
L 18.109375 75.984375 
L 18.109375 46.1875 
Q 21.34375 51.125 25.703125 53.5625 
Q 30.078125 56 35.796875 56 
Q 45.21875 56 50.046875 50.171875 
Q 54.890625 44.34375 54.890625 33.015625 
z
" id="DejaVuSans-104"/>
      </defs>
      <g transform="translate(597.793052 274.718437)scale(0.1 -0.1)">
       <use xlink:href="#DejaVuSans-84"/>
       <use x="61.083984" xlink:href="#DejaVuSans-104"/>
       <use x="124.462891" xlink:href="#DejaVuSans-117"/>
       <use x="187.841797" xlink:href="#DejaVuSans-32"/>
       <use x="219.628906" xlink:href="#DejaVuSans-48"/>
       <use x="283.251953" xlink:href="#DejaVuSans-48"/>
       <use x="346.875" xlink:href="#DejaVuSans-58"/>
       <use x="380.566406" xlink:href="#DejaVuSans-48"/>
       <use x="444.189453" xlink:href="#DejaVuSans-48"/>
      </g>
     </g>
    </g>
    <g id="xtick_4">
     <g id="line2d_4">
      <g>
       <use style="stroke:#000000;stroke-width:0.8;" x="819.935024" xlink:href="#m09e0af68c2" y="260.12"/>
      </g>
     </g>
     <g id="text_4">
      <!-- Fri 00:00 -->
      <defs>
       <path d="M 9.8125 72.90625 
L 51.703125 72.90625 
L 51.703125 64.59375 
L 19.671875 64.59375 
L 19.671875 43.109375 
L 48.578125 43.109375 
L 48.578125 34.8125 
L 19.671875 34.8125 
L 19.671875 0 
L 9.8125 0 
z
" id="DejaVuSans-70"/>
       <path d="M 41.109375 46.296875 
Q 39.59375 47.171875 37.8125 47.578125 
Q 36.03125 48 33.890625 48 
Q 26.265625 48 22.1875 43.046875 
Q 18.109375 38.09375 18.109375 28.8125 
L 18.109375 0 
L 9.078125 0 
L 9.078125 54.6875 
L 18.109375 54.6875 
L 18.109375 46.1875 
Q 20.953125 51.171875 25.484375 53.578125 
Q 30.03125 56 36.53125 56 
Q 37.453125 56 38.578125 55.875 
Q 39.703125 55.765625 41.0625 55.515625 
z
" id="DejaVuSans-114"/>
       <path d="M 9.421875 54.6875 
L 18.40625 54.6875 
L 18.40625 0 
L 9.421875 0 
z
M 9.421875 75.984375 
L 18.40625 75.984375 
L 18.40625 64.59375 
L 9.421875 64.59375 
z
" id="DejaVuSans-105"/>
      </defs>
      <g transform="translate(797.621742 274.718437)scale(0.1 -0.1)">
       <use xlink:href="#DejaVuSans-70"/>
       <use x="57.410156" xlink:href="#DejaVuSans-114"/>
       <use x="98.523438" xlink:href="#DejaVuSans-105"/>
       <use x="126.306641" xlink:href="#DejaVuSans-32"/>
       <use x="158.09375" xlink:href="#DejaVuSans-48"/>
       <use x="221.716797" xlink:href="#DejaVuSans-48"/>
       <use x="285.339844" xlink:href="#DejaVuSans-58"/>
       <use x="319.03125" xlink:href="#DejaVuSans-48"/>
       <use x="382.654297" xlink:href="#DejaVuSans-48"/>
      </g>
     </g>
    </g>
    <g id="xtick_5">
     <g id="line2d_5">
      <g>
       <use style="stroke:#000000;stroke-width:0.8;" x="1016.687152" xlink:href="#m09e0af68c2" y="260.12"/>
      </g>
     </g>
     <g id="text_5">
      <!-- Sat 00:00 -->
      <defs>
       <path d="M 53.515625 70.515625 
L 53.515625 60.890625 
Q 47.90625 63.578125 42.921875 64.890625 
Q 37.9375 66.21875 33.296875 66.21875 
Q 25.25 66.21875 20.875 63.09375 
Q 16.5 59.96875 16.5 54.203125 
Q 16.5 49.359375 19.40625 46.890625 
Q 22.3125 44.4375 30.421875 42.921875 
L 36.375 41.703125 
Q 47.40625 39.59375 52.65625 34.296875 
Q 57.90625 29 57.90625 20.125 
Q 57.90625 9.515625 50.796875 4.046875 
Q 43.703125 -1.421875 29.984375 -1.421875 
Q 24.8125 -1.421875 18.96875 -0.25 
Q 13.140625 0.921875 6.890625 3.21875 
L 6.890625 13.375 
Q 12.890625 10.015625 18.65625 8.296875 
Q 24.421875 6.59375 29.984375 6.59375 
Q 38.421875 6.59375 43.015625 9.90625 
Q 47.609375 13.234375 47.609375 19.390625 
Q 47.609375 24.75 44.3125 27.78125 
Q 41.015625 30.8125 33.5 32.328125 
L 27.484375 33.5 
Q 16.453125 35.6875 11.515625 40.375 
Q 6.59375 45.0625 6.59375 53.421875 
Q 6.59375 63.09375 13.40625 68.65625 
Q 20.21875 74.21875 32.171875 74.21875 
Q 37.3125 74.21875 42.625 73.28125 
Q 47.953125 72.359375 53.515625 70.515625 
z
" id="DejaVuSans-83"/>
       <path d="M 34.28125 27.484375 
Q 23.390625 27.484375 19.1875 25 
Q 14.984375 22.515625 14.984375 16.5 
Q 14.984375 11.71875 18.140625 8.90625 
Q 21.296875 6.109375 26.703125 6.109375 
Q 34.1875 6.109375 38.703125 11.40625 
Q 43.21875 16.703125 43.21875 25.484375 
L 43.21875 27.484375 
z
M 52.203125 31.203125 
L 52.203125 0 
L 43.21875 0 
L 43.21875 8.296875 
Q 40.140625 3.328125 35.546875 0.953125 
Q 30.953125 -1.421875 24.3125 -1.421875 
Q 15.921875 -1.421875 10.953125 3.296875 
Q 6 8.015625 6 15.921875 
Q 6 25.140625 12.171875 29.828125 
Q 18.359375 34.515625 30.609375 34.515625 
L 43.21875 34.515625 
L 43.21875 35.40625 
Q 43.21875 41.609375 39.140625 45 
Q 35.0625 48.390625 27.6875 48.390625 
Q 23 48.390625 18.546875 47.265625 
Q 14.109375 46.140625 10.015625 43.890625 
L 10.015625 52.203125 
Q 14.9375 54.109375 19.578125 55.046875 
Q 24.21875 56 28.609375 56 
Q 40.484375 56 46.34375 49.84375 
Q 52.203125 43.703125 52.203125 31.203125 
z
" id="DejaVuSans-97"/>
       <path d="M 18.3125 70.21875 
L 18.3125 54.6875 
L 36.8125 54.6875 
L 36.8125 47.703125 
L 18.3125 47.703125 
L 18.3125 18.015625 
Q 18.3125 11.328125 20.140625 9.421875 
Q 21.96875 7.515625 27.59375 7.515625 
L 36.8125 7.515625 
L 36.8125 0 
L 27.59375 0 
Q 17.1875 0 13.234375 3.875 
Q 9.28125 7.765625 9.28125 18.015625 
L 9.28125 47.703125 
L 2.6875 47.703125 
L 2.6875 54.6875 
L 9.28125 54.6875 
L 9.28125 70.21875 
z
" id="DejaVuSans-116"/>
      </defs>
      <g transform="translate(992.490277 274.718437)scale(0.1 -0.1)">
       <use xlink:href="#DejaVuSans-83"/>
       <use x="63.476562" xlink:href="#DejaVuSans-97"/>
       <use x="124.755859" xlink:href="#DejaVuSans-116"/>
       <use x="163.964844" xlink:href="#DejaVuSans-32"/>
       <use x="195.751953" xlink:href="#DejaVuSans-48"/>
       <use x="259.375" xlink:href="#DejaVuSans-48"/>
       <use x="322.998047" xlink:href="#DejaVuSans-58"/>
       <use x="356.689453" xlink:href="#DejaVuSans-48"/>
       <use x="420.3125" xlink:href="#DejaVuSans-48"/>
      </g>
     </g>
    </g>
   </g>
   <g id="matplotlib.axis_2">
    <g id="ytick_1">
     <g id="line2d_6">
      <defs>
       <path d="M 0 0 
L -3.5 0 
" id="me9d5ccc160" style="stroke:#000000;stroke-width:0.8;"/>
      </defs>
      <g>
       <use style="stroke:#000000;stroke-width:0.8;" x="33.64" xlink:href="#me9d5ccc160" y="260.12"/>
      </g>
     </g>
     <g id="text_6">
      <!-- 0 -->
      <g transform="translate(20.2775 263.919219)scale(0.1 -0.1)">
       <use xlink:href="#DejaVuSans-48"/>
      </g>
     </g>
    </g>
    <g id="ytick_2">
     <g id="line2d_7">
      <g>
       <use style="stroke:#000000;stroke-width:0.8;" x="33.64" xlink:href="#me9d5ccc160" y="230.910476"/>
      </g>
     </g>
     <g id="text_7">
      <!-- 25 -->
      <defs>
       <path d="M 19.1875 8.296875 
L 53.609375 8.296875 
L 53.609375 0 
L 7.328125 0 
L 7.328125 8.296875 
Q 12.9375 14.109375 22.625 23.890625 
Q 32.328125 33.6875 34.8125 36.53125 
Q 39.546875 41.84375 41.421875 45.53125 
Q 43.3125 49.21875 43.3125 52.78125 
Q 43.3125 58.59375 39.234375 62.25 
Q 35.15625 65.921875 28.609375 65.921875 
Q 23.96875 65.921875 18.8125 64.3125 
Q 13.671875 62.703125 7.8125 59.421875 
L 7.8125 69.390625 
Q 13.765625 71.78125 18.9375 73 
Q 24.125 74.21875 28.421875 74.21875 
Q 39.75 74.21875 46.484375 68.546875 
Q 53.21875 62.890625 53.21875 53.421875 
Q 53.21875 48.921875 51.53125 44.890625 
Q 49.859375 40.875 45.40625 35.40625 
Q 44.1875 33.984375 37.640625 27.21875 
Q 31.109375 20.453125 19.1875 8.296875 
z
" id="DejaVuSans-50"/>
       <path d="M 10.796875 72.90625 
L 49.515625 72.90625 
L 49.515625 64.59375 
L 19.828125 64.59375 
L 19.828125 46.734375 
Q 21.96875 47.46875 24.109375 47.828125 
Q 26.265625 48.1875 28.421875 48.1875 
Q 40.625 48.1875 47.75 41.5 
Q 54.890625 34.8125 54.890625 23.390625 
Q 54.890625 11.625 47.5625 5.09375 
Q 40.234375 -1.421875 26.90625 -1.421875 
Q 22.3125 -1.421875 17.546875 -0.640625 
Q 12.796875 0.140625 7.71875 1.703125 
L 7.71875 11.625 
Q 12.109375 9.234375 16.796875 8.0625 
Q 21.484375 6.890625 26.703125 6.890625 
Q 35.15625 6.890625 40.078125 11.328125 
Q 45.015625 15.765625 45.015625 23.390625 
Q 45.015625 31 40.078125 35.4375 
Q 35.15625 39.890625 26.703125 39.890625 
Q 22.75 39.890625 18.8125 39.015625 
Q 14.890625 38.140625 10.796875 36.28125 
z
" id="DejaVuSans-53"/>
      </defs>
      <g transform="translate(13.915 234.709695)scale(0.1 -0.1)">
       <use xlink:href="#DejaVuSans-50"/>
       <use x="63.623047" xlink:href="#DejaVuSans-53"/>
      </g>
     </g>
    </g>
    <g id="ytick_3">
     <g id="line2d_8">
      <g>
       <use style="stroke:#000000;stroke-width:0.8;" x="33.64" xlink:href="#me9d5ccc160" y="201.700952"/>
      </g>
     </g>
     <g id="text_8">
      <!-- 50 -->
      <g transform="translate(13.915 205.500171)scale(0.1 -0.1)">
       <use xlink:href="#DejaVuSans-53"/>
       <use x="63.623047" xlink:href="#DejaVuSans-48"/>
      </g>
     </g>
    </g>
    <g id="ytick_4">
     <g id="line2d_9">
      <g>
       <use style="stroke:#000000;stroke-width:0.8;" x="33.64" xlink:href="#me9d5ccc160" y="172.491429"/>
      </g>
     </g>
     <g id="text_9">
      <!-- 75 -->
      <defs>
       <path d="M 8.203125 72.90625 
L 55.078125 72.90625 
L 55.078125 68.703125 
L 28.609375 0 
L 18.3125 0 
L 43.21875 64.59375 
L 8.203125 64.59375 
z
" id="DejaVuSans-55"/>
      </defs>
      <g transform="translate(13.915 176.290647)scale(0.1 -0.1)">
       <use xlink:href="#DejaVuSans-55"/>
       <use x="63.623047" xlink:href="#DejaVuSans-53"/>
      </g>
     </g>
    </g>
    <g id="ytick_5">
     <g id="line2d_10">
      <g>
       <use style="stroke:#000000;stroke-width:0.8;" x="33.64" xlink:href="#me9d5ccc160" y="143.281905"/>
      </g>
     </g>
     <g id="text_10">
      <!-- 100 -->
      <defs>
       <path d="M 12.40625 8.296875 
L 28.515625 8.296875 
L 28.515625 63.921875 
L 10.984375 60.40625 
L 10.984375 69.390625 
L 28.421875 72.90625 
L 38.28125 72.90625 
L 38.28125 8.296875 
L 54.390625 8.296875 
L 54.390625 0 
L 12.40625 0 
z
" id="DejaVuSans-49"/>
      </defs>
      <g transform="translate(7.5525 147.081124)scale(0.1 -0.1)">
       <use xlink:href="#DejaVuSans-49"/>
       <use x="63.623047" xlink:href="#DejaVuSans-48"/>
       <use x="127.246094" xlink:href="#DejaVuSans-48"/>
      </g>
     </g>
    </g>
    <g id="ytick_6">
     <g id="line2d_11">
      <g>
       <use style="stroke:#000000;stroke-width:0.8;" x="33.64" xlink:href="#me9d5ccc160" y="114.072381"/>
      </g>
     </g>
     <g id="text_11">
      <!-- 125 -->
      <g transform="translate(7.5525 117.8716)scale(0.1 -0.1)">
       <use xlink:href="#DejaVuSans-49"/>
       <use x="63.623047" xlink:href="#DejaVuSans-50"/>
       <use x="127.246094" xlink:href="#DejaVuSans-53"/>
      </g>
     </g>
    </g>
    <g id="ytick_7">
     <g id="line2d_12">
      <g>
       <use style="stroke:#000000;stroke-width:0.8;" x="33.64" xlink:href="#me9d5ccc160" y="84.862857"/>
      </g>
     </g>
     <g id="text_12">
      <!-- 150 -->
      <g transform="translate(7.5525 88.662076)scale(0.1 -0.1)">
       <use xlink:href="#DejaVuSans-49"/>
       <use x="63.623047" xlink:href="#DejaVuSans-53"/>
       <use x="127.246094" xlink:href="#DejaVuSans-48"/>
      </g>
     </g>
    </g>
    <g id="ytick_8">
     <g id="line2d_13">
      <g>
       <use style="stroke:#000000;stroke-width:0.8;" x="33.64" xlink:href="#me9d5ccc160" y="55.653333"/>
      </g>
     </g>
     <g id="text_13">
      <!-- 175 -->
      <g transform="translate(7.5525 59.452552)scale(0.1 -0.1)">
       <use xlink:href="#DejaVuSans-49"/>
       <use x="63.623047" xlink:href="#DejaVuSans-55"/>
       <use x="127.246094" xlink:href="#DejaVuSans-53"/>
      </g>
     </g>
    </g>
    <g id="ytick_9">
     <g id="line2d_14">
      <g>
       <use style="stroke:#000000;stroke-width:0.8;" x="33.64" xlink:href="#me9d5ccc160" y="26.44381"/>
      </g>
     </g>
     <g id="text_14">
      <!-- 200 -->
      <g transform="translate(7.5525 30.243028)scale(0.1 -0.1)">
       <use xlink:href="#DejaVuSans-50"/>
       <use x="63.623047" xlink:href="#DejaVuSans-48"/>
       <use x="127.246094" xlink:href="#DejaVuSans-48"/>
      </g>
     </g>
    </g>
   </g>
   <g id="line2d_15">
    <path clip-path="url(#p64d74d936c)" d="M 33.64 225.068571 
L 106.91341 225.068571 
L 108.322749 220.395048 
L 109.730768 220.395048 
L 111.138094 218.058286 
L 112.542832 218.058286 
L 113.947417 211.048 
L 115.35499 211.048 
L 116.760106 200.532571 
L 118.164725 195.859048 
L 119.570686 195.859048 
L 120.97632 186.512 
L 122.381264 179.501714 
L 123.789278 177.164952 
L 130.829568 177.164952 
L 132.235423 183.006857 
L 133.643813 190.017143 
L 135.048452 190.017143 
L 136.453059 195.859048 
L 137.860559 195.859048 
L 139.265657 200.532571 
L 140.672415 195.859048 
L 142.079611 195.859048 
L 143.484924 193.522286 
L 144.889802 192.353905 
L 146.294558 188.848762 
L 147.69945 188.848762 
L 149.105519 187.680381 
L 150.512483 191.185524 
L 151.91717 191.185524 
L 153.325375 188.848762 
L 154.730455 185.343619 
L 156.135154 185.343619 
L 157.542677 183.006857 
L 158.947885 185.343619 
L 161.757461 185.343619 
L 163.165078 178.333333 
L 164.570963 177.164952 
L 165.978832 177.164952 
L 167.386463 179.501714 
L 168.794279 173.65981 
L 170.204138 173.65981 
L 171.612402 170.154667 
L 173.023825 170.154667 
L 174.431481 175.996571 
L 175.836243 165.481143 
L 177.241251 153.797333 
L 178.645968 153.797333 
L 180.050762 147.955429 
L 181.456115 138.608381 
L 182.861067 138.608381 
L 184.266726 124.58781 
L 185.67342 108.230476 
L 187.07826 108.230476 
L 188.486781 90.704762 
L 189.892428 79.020952 
L 191.297095 60.326857 
L 192.702947 60.326857 
L 194.107916 52.14819 
L 195.512456 83.694476 
L 198.324118 83.694476 
L 199.732111 86.031238 
L 201.137288 86.031238 
L 202.545418 88.368 
L 203.951446 89.536381 
L 205.356595 89.536381 
L 206.763702 105.893714 
L 208.174206 119.914286 
L 209.579974 119.914286 
L 210.987311 133.934857 
L 212.395117 153.797333 
L 213.80388 153.797333 
L 215.20984 161.976 
L 216.617099 168.986286 
L 218.022252 172.491429 
L 219.430296 172.491429 
L 220.838673 184.175238 
L 222.244248 192.353905 
L 223.649498 192.353905 
L 225.059178 260.12 
L 305.360786 260.12 
L 306.767993 241.425905 
L 308.175862 236.752381 
L 309.583524 236.752381 
L 310.989568 233.247238 
L 312.394944 222.73181 
L 313.801964 222.73181 
L 315.208852 213.384762 
L 316.616801 211.048 
L 318.025225 211.048 
L 319.436636 207.542857 
L 320.846278 205.206095 
L 322.254302 205.206095 
L 323.658994 202.869333 
L 325.069711 201.700952 
L 327.88635 201.700952 
L 329.290772 215.721524 
L 330.697352 216.889905 
L 332.105581 214.553143 
L 333.510919 216.889905 
L 334.91695 216.889905 
L 337.820656 205.206095 
L 340.722338 208.711238 
L 343.673191 208.711238 
L 345.07772 211.048 
L 346.48411 211.048 
L 347.889183 213.384762 
L 349.293927 212.216381 
L 350.701608 212.216381 
L 352.109097 207.542857 
L 354.920583 207.542857 
L 356.325495 202.869333 
L 357.733913 205.206095 
L 359.138884 205.206095 
L 360.544809 201.700952 
L 361.950389 191.185524 
L 363.355886 186.512 
L 364.760584 186.512 
L 366.16589 185.343619 
L 367.571207 173.65981 
L 368.979374 173.65981 
L 370.385933 172.491429 
L 371.793628 181.838476 
L 373.198853 181.838476 
L 376.010537 158.470857 
L 377.416102 158.470857 
L 378.823841 153.797333 
L 380.22977 150.29219 
L 381.635206 150.29219 
L 383.042432 154.965714 
L 384.448645 158.470857 
L 385.854125 158.470857 
L 387.262197 144.450286 
L 388.670488 135.103238 
L 390.076542 130.429714 
L 391.482185 130.429714 
L 392.888104 116.409143 
L 394.293825 116.409143 
L 397.109457 114.072381 
L 398.517219 110.567238 
L 399.925852 110.567238 
L 401.332167 112.904 
L 402.739637 117.577524 
L 404.145312 117.577524 
L 405.553238 126.924571 
L 406.958866 142.113524 
L 408.366062 152.628952 
L 409.773005 152.628952 
L 411.177678 159.639238 
L 412.588109 159.639238 
L 413.992905 170.154667 
L 415.399989 178.333333 
L 416.807893 178.333333 
L 418.213265 186.512 
L 419.621454 187.680381 
L 421.028557 190.017143 
L 422.433684 190.017143 
L 423.838252 260.12 
L 499.938687 260.12 
L 502.725548 248.43619 
L 504.130158 248.43619 
L 505.535402 242.594286 
L 506.940728 237.920762 
L 508.345333 237.920762 
L 509.750954 228.573714 
L 511.156856 228.573714 
L 512.562063 223.90019 
L 513.966505 220.395048 
L 515.37228 220.395048 
L 516.777408 225.068571 
L 518.183968 225.068571 
L 519.590308 227.405333 
L 520.998315 227.405333 
L 522.406936 226.236952 
L 523.814833 223.90019 
L 525.219933 223.90019 
L 526.625541 220.395048 
L 528.030538 229.742095 
L 530.842641 229.742095 
L 532.250567 227.405333 
L 533.65719 227.405333 
L 535.062496 218.058286 
L 536.469794 218.058286 
L 537.876169 212.216381 
L 540.688708 212.216381 
L 543.501423 207.542857 
L 544.915132 207.542857 
L 546.32408 201.700952 
L 547.733702 201.700952 
L 549.139026 202.869333 
L 550.544216 200.532571 
L 551.948613 200.532571 
L 553.353316 191.185524 
L 556.16401 191.185524 
L 557.592159 188.848762 
L 558.99766 188.848762 
L 560.40229 179.501714 
L 561.812229 179.501714 
L 563.218962 177.164952 
L 564.624619 171.323048 
L 566.033007 171.323048 
L 567.437613 161.976 
L 568.844217 145.618667 
L 570.24906 117.577524 
L 571.654638 117.577524 
L 573.061115 109.398857 
L 574.466037 88.368 
L 575.871447 88.368 
L 577.280405 66.168762 
L 578.686684 52.14819 
L 580.092119 52.14819 
L 581.496919 42.801143 
L 582.902454 48.643048 
L 584.310627 48.643048 
L 585.718405 35.790857 
L 587.123104 33.454095 
L 588.53064 33.454095 
L 589.940222 34.622476 
L 591.348194 27.61219 
L 592.759734 27.61219 
L 594.16463 33.454095 
L 595.572425 38.127619 
L 596.976978 38.127619 
L 598.385869 48.643048 
L 599.790097 50.97981 
L 601.195515 72.010667 
L 602.600175 72.010667 
L 604.007972 89.536381 
L 605.413204 89.536381 
L 606.819145 104.725333 
L 608.225169 132.766476 
L 609.631763 140.945143 
L 611.040817 140.945143 
L 612.448373 165.481143 
L 613.852602 177.164952 
L 615.258288 177.164952 
L 616.66674 183.006857 
L 618.073127 194.690667 
L 620.88703 194.690667 
L 622.29311 260.12 
L 698.386017 260.12 
L 699.792378 253.109714 
L 701.199632 253.109714 
L 702.605174 249.604571 
L 704.01328 244.931048 
L 705.417714 244.931048 
L 706.823399 239.089143 
L 708.230106 236.752381 
L 709.635645 236.752381 
L 712.445718 229.742095 
L 713.853834 229.742095 
L 715.260728 233.247238 
L 716.669275 232.078857 
L 718.0754 228.573714 
L 719.482542 228.573714 
L 720.887968 229.742095 
L 722.292949 227.405333 
L 723.701874 227.405333 
L 725.107969 221.563429 
L 726.512513 219.226667 
L 727.923859 219.226667 
L 729.328458 214.553143 
L 730.733769 208.711238 
L 732.138946 208.711238 
L 733.544377 212.216381 
L 734.9502 214.553143 
L 736.35837 214.553143 
L 737.765266 208.711238 
L 739.170482 213.384762 
L 741.982108 213.384762 
L 743.388218 209.879619 
L 744.796903 199.36419 
L 746.201391 199.36419 
L 749.01643 197.027429 
L 750.421938 197.027429 
L 753.236561 185.343619 
L 756.051512 185.343619 
L 757.456424 180.670095 
L 758.862875 180.670095 
L 760.269046 170.154667 
L 761.675829 165.481143 
L 763.080595 165.481143 
L 764.486286 158.470857 
L 765.891194 142.113524 
L 767.296478 128.092952 
L 768.701179 128.092952 
L 770.110183 103.556952 
L 771.521166 107.062095 
L 772.929471 107.062095 
L 774.337042 102.388571 
L 775.744902 80.189333 
L 777.149815 80.189333 
L 778.555711 66.168762 
L 779.960379 60.326857 
L 781.365168 60.326857 
L 782.772782 61.495238 
L 784.179487 48.643048 
L 785.584885 45.137905 
L 786.99289 45.137905 
L 788.398136 63.832 
L 789.803313 72.010667 
L 791.209303 72.010667 
L 792.615427 83.694476 
L 794.021219 90.704762 
L 795.42917 90.704762 
L 796.833733 95.378286 
L 798.249061 107.062095 
L 799.658767 107.062095 
L 801.064253 114.072381 
L 802.468908 129.261333 
L 803.875227 129.261333 
L 806.685133 157.302476 
L 808.094444 157.302476 
L 809.50283 161.976 
L 810.910382 177.164952 
L 812.317597 177.164952 
L 813.724549 184.175238 
L 815.130913 260.12 
L 895.453876 260.12 
L 896.858933 248.43619 
L 898.266896 242.594286 
L 899.675731 242.594286 
L 901.080461 234.415619 
L 902.484802 234.415619 
L 903.890311 222.73181 
L 905.295023 219.226667 
L 906.702312 214.553143 
L 908.110627 214.553143 
L 910.928172 205.206095 
L 912.33608 205.206095 
L 913.742161 201.700952 
L 915.149604 199.36419 
L 916.555567 205.206095 
L 917.961469 205.206095 
L 919.36657 207.542857 
L 920.774843 211.048 
L 922.182027 211.048 
L 923.59178 219.226667 
L 924.997605 219.226667 
L 926.403153 218.058286 
L 929.214454 218.058286 
L 930.619321 221.563429 
L 932.024901 218.058286 
L 934.836095 218.058286 
L 936.241807 221.563429 
L 937.647585 222.73181 
L 939.052452 222.73181 
L 941.865178 211.048 
L 943.269897 208.711238 
L 944.676964 208.711238 
L 946.081358 205.206095 
L 947.486307 209.879619 
L 948.891154 209.879619 
L 950.296607 202.869333 
L 951.703475 202.869333 
L 953.109697 195.859048 
L 954.515033 197.027429 
L 955.921181 192.353905 
L 957.327018 192.353905 
L 958.732955 187.680381 
L 960.139719 181.838476 
L 961.544712 181.838476 
L 962.950723 183.006857 
L 964.35712 178.333333 
L 965.76516 183.006857 
L 967.172965 183.006857 
L 968.578458 177.164952 
L 969.984565 177.164952 
L 971.392857 186.512 
L 972.80133 181.838476 
L 974.207258 181.838476 
L 975.613061 184.175238 
L 977.020322 188.848762 
L 978.42602 186.512 
L 979.834291 186.512 
L 981.238796 183.006857 
L 982.646759 177.164952 
L 984.054002 177.164952 
L 985.459091 178.333333 
L 986.863834 187.680381 
L 988.268451 187.680381 
L 989.674753 186.512 
L 992.490109 186.512 
L 993.897971 188.848762 
L 996.711285 188.848762 
L 998.119331 200.532571 
L 999.525338 200.532571 
L 1000.930954 205.206095 
L 1002.338033 205.206095 
L 1003.746045 206.374476 
L 1005.154274 206.374476 
L 1006.561907 207.542857 
L 1007.969305 209.879619 
L 1012.194411 209.879619 
L 1013.600121 260.12 
L 1091.098067 260.12 
L 1092.503412 258.951619 
L 1093.908788 254.278095 
L 1095.315493 243.762667 
L 1096.722507 243.762667 
L 1099.536219 236.752381 
L 1100.94343 236.752381 
L 1102.350465 229.742095 
L 1103.757678 220.395048 
L 1105.163309 220.395048 
L 1106.568306 218.058286 
L 1107.973499 216.889905 
L 1109.381801 216.889905 
L 1110.788921 206.374476 
L 1112.194398 206.374476 
L 1113.599292 198.19581 
L 1115.005784 198.19581 
L 1116.410813 195.859048 
L 1119.21969 195.859048 
L 1120.629886 197.027429 
L 1122.035358 204.037714 
L 1123.444811 204.037714 
L 1124.849272 200.532571 
L 1126.254524 199.36419 
L 1127.659679 199.36419 
L 1129.06488 194.690667 
L 1130.470132 192.353905 
L 1131.87496 192.353905 
L 1133.28 199.36419 
L 1133.28 199.36419 
" style="fill:none;stroke:#1f77b4;stroke-linecap:square;stroke-width:1.5;"/>
   </g>
   <g id="patch_3">
    <path d="M 33.64 260.12 
L 33.64 14.76 
" style="fill:none;stroke:#000000;stroke-linecap:square;stroke-linejoin:miter;stroke-width:0.8;"/>
   </g>
   <g id="patch_4">
    <path d="M 1133.28 260.12 
L 1133.28 14.76 
" style="fill:none;stroke:#000000;stroke-linecap:square;stroke-linejoin:miter;stroke-width:0.8;"/>
   </g>
   <g id="patch_5">
    <path d="M 33.64 260.12 
L 1133.28 260.12 
" style="fill:none;stroke:#000000;stroke-linecap:square;stroke-linejoin:miter;stroke-width:0.8;"/>
   </g>
   <g id="patch_6">
    <path d="M 33.64 14.76 
L 1133.28 14.76 
" style="fill:none;stroke:#000000;stroke-linecap:square;stroke-linejoin:miter;stroke-width:0.8;"/>
   </g>
  </g>
 </g>
 <defs>
  <clipPath id="p64d74d936c">
   <rect height="245.36" width="1099.64" x="33.64" y="14.76"/>
  </clipPath>
 </defs>
</svg>
