<?xml version="1.0" encoding="utf-8" standalone="no"?>
<!DOCTYPE svg PUBLIC "-//W3C//DTD SVG 1.1//EN"
  "http://www.w3.org/Graphics/SVG/1.1/DTD/svg11.dtd">
<!-- Created with matplotlib (https://matplotlib.org/) -->
<svg height="288pt" version="1.1" viewBox="0 0 1152 288" width="1152pt" xmlns="http://www.w3.org/2000/svg" xmlns:xlink="http://www.w3.org/1999/xlink">
 <defs>
  <style type="text/css">
*{stroke-linecap:butt;stroke-linejoin:round;}
  </style>
 </defs>
 <g id="figure_1">
  <g id="patch_1">
   <path d="M 0 288 
L 1152 288 
L 1152 0 
L 0 0 
z
" style="fill:#ffffff;"/>
  </g>
  <g id="axes_1">
   <g id="patch_2">
    <path d="M 33.64 260.12 
L 1133.28 260.12 
L 1133.28 14.76 
L 33.64 14.76 
z
" style="fill:#ffffff;"/>
   </g>
   <g id="matplotlib.axis_1">
    <g id="xtick_1">
     <g id="line2d_1">
      <defs>
       <path d="M 0 0 
L 0 3.5 
" id="m851ca4bb11" style="stroke:#000000;stroke-width:0.8;"/>
      </defs>
      <g>
       <use style="stroke:#000000;stroke-width:0.8;" x="198.826906" xlink:href="#m851ca4bb11" y="260.12"/>
      </g>
     </g>
     <g id="text_1">
      <!-- Tue 00:00 -->
      <defs>
       <path d="M -0.296875 72.90625 
L 61.375 72.90625 
L 61.375 64.59375 
L 35.5 64.59375 
L 35.5 0 
L 25.59375 0 
L 25.59375 64.59375 
L -0.296875 64.59375 
z
" id="DejaVuSans-84"/>
       <path d="M 8.5 21.578125 
L 8.5 54.6875 
L 17.484375 54.6875 
L 17.484375 21.921875 
Q 17.484375 14.15625 20.5 10.265625 
Q 23.53125 6.390625 29.59375 6.390625 
Q 36.859375 6.390625 41.078125 11.03125 
Q 45.3125 15.671875 45.3125 23.6875 
L 45.3125 54.6875 
L 54.296875 54.6875 
L 54.296875 0 
L 45.3125 0 
L 45.3125 8.40625 
Q 42.046875 3.421875 37.71875 1 
Q 33.40625 -1.421875 27.6875 -1.421875 
Q 18.265625 -1.421875 13.375 4.4375 
Q 8.5 10.296875 8.5 21.578125 
z
M 31.109375 56 
z
" id="DejaVuSans-117"/>
       <path d="M 56.203125 29.59375 
L 56.203125 25.203125 
L 14.890625 25.203125 
Q 15.484375 15.921875 20.484375 11.0625 
Q 25.484375 6.203125 34.421875 6.203125 
Q 39.59375 6.203125 44.453125 7.46875 
Q 49.3125 8.734375 54.109375 11.28125 
L 54.109375 2.78125 
Q 49.265625 0.734375 44.1875 -0.34375 
Q 39.109375 -1.421875 33.890625 -1.421875 
Q 20.796875 -1.421875 13.15625 6.1875 
Q 5.515625 13.8125 5.515625 26.8125 
Q 5.515625 40.234375 12.765625 48.109375 
Q 20.015625 56 32.328125 56 
Q 43.359375 56 49.78125 48.890625 
Q 56.203125 41.796875 56.203125 29.59375 
z
M 47.21875 32.234375 
Q 47.125 39.59375 43.09375 43.984375 
Q 39.0625 48.390625 32.421875 48.390625 
Q 24.90625 48.390625 20.390625 44.140625 
Q 15.875 39.890625 15.1875 32.171875 
z
" id="DejaVuSans-101"/>
       <path id="DejaVuSans-32"/>
       <path d="M 31.78125 66.40625 
Q 24.171875 66.40625 20.328125 58.90625 
Q 16.5 51.421875 16.5 36.375 
Q 16.5 21.390625 20.328125 13.890625 
Q 24.171875 6.390625 31.78125 6.390625 
Q 39.453125 6.390625 43.28125 13.890625 
Q 47.125 21.390625 47.125 36.375 
Q 47.125 51.421875 43.28125 58.90625 
Q 39.453125 66.40625 31.78125 66.40625 
z
M 31.78125 74.21875 
Q 44.046875 74.21875 50.515625 64.515625 
Q 56.984375 54.828125 56.984375 36.375 
Q 56.984375 17.96875 50.515625 8.265625 
Q 44.046875 -1.421875 31.78125 -1.421875 
Q 19.53125 -1.421875 13.0625 8.265625 
Q 6.59375 17.96875 6.59375 36.375 
Q 6.59375 54.828125 13.0625 64.515625 
Q 19.53125 74.21875 31.78125 74.21875 
z
" id="DejaVuSans-48"/>
       <path d="M 11.71875 12.40625 
L 22.015625 12.40625 
L 22.015625 0 
L 11.71875 0 
z
M 11.71875 51.703125 
L 22.015625 51.703125 
L 22.015625 39.3125 
L 11.71875 39.3125 
z
" id="DejaVuSans-58"/>
      </defs>
      <g transform="translate(173.540969 274.718437)scale(0.1 -0.1)">
       <use xlink:href="#DejaVuSans-84"/>
       <use x="60.849609" xlink:href="#DejaVuSans-117"/>
       <use x="124.228516" xlink:href="#DejaVuSans-101"/>
       <use x="185.751953" xlink:href="#DejaVuSans-32"/>
       <use x="217.539062" xlink:href="#DejaVuSans-48"/>
       <use x="281.162109" xlink:href="#DejaVuSans-48"/>
       <use x="344.785156" xlink:href="#DejaVuSans-58"/>
       <use x="378.476562" xlink:href="#DejaVuSans-48"/>
       <use x="442.099609" xlink:href="#DejaVuSans-48"/>
      </g>
     </g>
    </g>
    <g id="xtick_2">
     <g id="line2d_2">
      <g>
       <use style="stroke:#000000;stroke-width:0.8;" x="364.615014" xlink:href="#m851ca4bb11" y="260.12"/>
      </g>
     </g>
     <g id="text_2">
      <!-- Wed 00:00 -->
      <defs>
       <path d="M 3.328125 72.90625 
L 13.28125 72.90625 
L 28.609375 11.28125 
L 43.890625 72.90625 
L 54.984375 72.90625 
L 70.3125 11.28125 
L 85.59375 72.90625 
L 95.609375 72.90625 
L 77.296875 0 
L 64.890625 0 
L 49.515625 63.28125 
L 33.984375 0 
L 21.578125 0 
z
" id="DejaVuSans-87"/>
       <path d="M 45.40625 46.390625 
L 45.40625 75.984375 
L 54.390625 75.984375 
L 54.390625 0 
L 45.40625 0 
L 45.40625 8.203125 
Q 42.578125 3.328125 38.25 0.953125 
Q 33.9375 -1.421875 27.875 -1.421875 
Q 17.96875 -1.421875 11.734375 6.484375 
Q 5.515625 14.40625 5.515625 27.296875 
Q 5.515625 40.1875 11.734375 48.09375 
Q 17.96875 56 27.875 56 
Q 33.9375 56 38.25 53.625 
Q 42.578125 51.265625 45.40625 46.390625 
z
M 14.796875 27.296875 
Q 14.796875 17.390625 18.875 11.75 
Q 22.953125 6.109375 30.078125 6.109375 
Q 37.203125 6.109375 41.296875 11.75 
Q 45.40625 17.390625 45.40625 27.296875 
Q 45.40625 37.203125 41.296875 42.84375 
Q 37.203125 48.484375 30.078125 48.484375 
Q 22.953125 48.484375 18.875 42.84375 
Q 14.796875 37.203125 14.796875 27.296875 
z
" id="DejaVuSans-100"/>
      </defs>
      <g transform="translate(337.425952 274.718437)scale(0.1 -0.1)">
       <use xlink:href="#DejaVuSans-87"/>
       <use x="98.798828" xlink:href="#DejaVuSans-101"/>
       <use x="160.322266" xlink:href="#DejaVuSans-100"/>
       <use x="223.798828" xlink:href="#DejaVuSans-32"/>
       <use x="255.585938" xlink:href="#DejaVuSans-48"/>
       <use x="319.208984" xlink:href="#DejaVuSans-48"/>
       <use x="382.832031" xlink:href="#DejaVuSans-58"/>
       <use x="416.523438" xlink:href="#DejaVuSans-48"/>
       <use x="480.146484" xlink:href="#DejaVuSans-48"/>
      </g>
     </g>
    </g>
    <g id="xtick_3">
     <g id="line2d_3">
      <g>
       <use style="stroke:#000000;stroke-width:0.8;" x="530.403122" xlink:href="#m851ca4bb11" y="260.12"/>
      </g>
     </g>
     <g id="text_3">
      <!-- Thu 00:00 -->
      <defs>
       <path d="M 54.890625 33.015625 
L 54.890625 0 
L 45.90625 0 
L 45.90625 32.71875 
Q 45.90625 40.484375 42.875 44.328125 
Q 39.84375 48.1875 33.796875 48.1875 
Q 26.515625 48.1875 22.3125 43.546875 
Q 18.109375 38.921875 18.109375 30.90625 
L 18.109375 0 
L 9.078125 0 
L 9.078125 75.984375 
L 18.109375 75.984375 
L 18.109375 46.1875 
Q 21.34375 51.125 25.703125 53.5625 
Q 30.078125 56 35.796875 56 
Q 45.21875 56 50.046875 50.171875 
Q 54.890625 44.34375 54.890625 33.015625 
z
" id="DejaVuSans-104"/>
      </defs>
      <g transform="translate(505.013279 274.718437)scale(0.1 -0.1)">
       <use xlink:href="#DejaVuSans-84"/>
       <use x="61.083984" xlink:href="#DejaVuSans-104"/>
       <use x="124.462891" xlink:href="#DejaVuSans-117"/>
       <use x="187.841797" xlink:href="#DejaVuSans-32"/>
       <use x="219.628906" xlink:href="#DejaVuSans-48"/>
       <use x="283.251953" xlink:href="#DejaVuSans-48"/>
       <use x="346.875" xlink:href="#DejaVuSans-58"/>
       <use x="380.566406" xlink:href="#DejaVuSans-48"/>
       <use x="444.189453" xlink:href="#DejaVuSans-48"/>
      </g>
     </g>
    </g>
    <g id="xtick_4">
     <g id="line2d_4">
      <g>
       <use style="stroke:#000000;stroke-width:0.8;" x="696.19123" xlink:href="#m851ca4bb11" y="260.12"/>
      </g>
     </g>
     <g id="text_4">
      <!-- Fri 00:00 -->
      <defs>
       <path d="M 9.8125 72.90625 
L 51.703125 72.90625 
L 51.703125 64.59375 
L 19.671875 64.59375 
L 19.671875 43.109375 
L 48.578125 43.109375 
L 48.578125 34.8125 
L 19.671875 34.8125 
L 19.671875 0 
L 9.8125 0 
z
" id="DejaVuSans-70"/>
       <path d="M 41.109375 46.296875 
Q 39.59375 47.171875 37.8125 47.578125 
Q 36.03125 48 33.890625 48 
Q 26.265625 48 22.1875 43.046875 
Q 18.109375 38.09375 18.109375 28.8125 
L 18.109375 0 
L 9.078125 0 
L 9.078125 54.6875 
L 18.109375 54.6875 
L 18.109375 46.1875 
Q 20.953125 51.171875 25.484375 53.578125 
Q 30.03125 56 36.53125 56 
Q 37.453125 56 38.578125 55.875 
Q 39.703125 55.765625 41.0625 55.515625 
z
" id="DejaVuSans-114"/>
       <path d="M 9.421875 54.6875 
L 18.40625 54.6875 
L 18.40625 0 
L 9.421875 0 
z
M 9.421875 75.984375 
L 18.40625 75.984375 
L 18.40625 64.59375 
L 9.421875 64.59375 
z
" id="DejaVuSans-105"/>
      </defs>
      <g transform="translate(673.877949 274.718437)scale(0.1 -0.1)">
       <use xlink:href="#DejaVuSans-70"/>
       <use x="57.410156" xlink:href="#DejaVuSans-114"/>
       <use x="98.523438" xlink:href="#DejaVuSans-105"/>
       <use x="126.306641" xlink:href="#DejaVuSans-32"/>
       <use x="158.09375" xlink:href="#DejaVuSans-48"/>
       <use x="221.716797" xlink:href="#DejaVuSans-48"/>
       <use x="285.339844" xlink:href="#DejaVuSans-58"/>
       <use x="319.03125" xlink:href="#DejaVuSans-48"/>
       <use x="382.654297" xlink:href="#DejaVuSans-48"/>
      </g>
     </g>
    </g>
    <g id="xtick_5">
     <g id="line2d_5">
      <g>
       <use style="stroke:#000000;stroke-width:0.8;" x="861.979338" xlink:href="#m851ca4bb11" y="260.12"/>
      </g>
     </g>
     <g id="text_5">
      <!-- Sat 00:00 -->
      <defs>
       <path d="M 53.515625 70.515625 
L 53.515625 60.890625 
Q 47.90625 63.578125 42.921875 64.890625 
Q 37.9375 66.21875 33.296875 66.21875 
Q 25.25 66.21875 20.875 63.09375 
Q 16.5 59.96875 16.5 54.203125 
Q 16.5 49.359375 19.40625 46.890625 
Q 22.3125 44.4375 30.421875 42.921875 
L 36.375 41.703125 
Q 47.40625 39.59375 52.65625 34.296875 
Q 57.90625 29 57.90625 20.125 
Q 57.90625 9.515625 50.796875 4.046875 
Q 43.703125 -1.421875 29.984375 -1.421875 
Q 24.8125 -1.421875 18.96875 -0.25 
Q 13.140625 0.921875 6.890625 3.21875 
L 6.890625 13.375 
Q 12.890625 10.015625 18.65625 8.296875 
Q 24.421875 6.59375 29.984375 6.59375 
Q 38.421875 6.59375 43.015625 9.90625 
Q 47.609375 13.234375 47.609375 19.390625 
Q 47.609375 24.75 44.3125 27.78125 
Q 41.015625 30.8125 33.5 32.328125 
L 27.484375 33.5 
Q 16.453125 35.6875 11.515625 40.375 
Q 6.59375 45.0625 6.59375 53.421875 
Q 6.59375 63.09375 13.40625 68.65625 
Q 20.21875 74.21875 32.171875 74.21875 
Q 37.3125 74.21875 42.625 73.28125 
Q 47.953125 72.359375 53.515625 70.515625 
z
" id="DejaVuSans-83"/>
       <path d="M 34.28125 27.484375 
Q 23.390625 27.484375 19.1875 25 
Q 14.984375 22.515625 14.984375 16.5 
Q 14.984375 11.71875 18.140625 8.90625 
Q 21.296875 6.109375 26.703125 6.109375 
Q 34.1875 6.109375 38.703125 11.40625 
Q 43.21875 16.703125 43.21875 25.484375 
L 43.21875 27.484375 
z
M 52.203125 31.203125 
L 52.203125 0 
L 43.21875 0 
L 43.21875 8.296875 
Q 40.140625 3.328125 35.546875 0.953125 
Q 30.953125 -1.421875 24.3125 -1.421875 
Q 15.921875 -1.421875 10.953125 3.296875 
Q 6 8.015625 6 15.921875 
Q 6 25.140625 12.171875 29.828125 
Q 18.359375 34.515625 30.609375 34.515625 
L 43.21875 34.515625 
L 43.21875 35.40625 
Q 43.21875 41.609375 39.140625 45 
Q 35.0625 48.390625 27.6875 48.390625 
Q 23 48.390625 18.546875 47.265625 
Q 14.109375 46.140625 10.015625 43.890625 
L 10.015625 52.203125 
Q 14.9375 54.109375 19.578125 55.046875 
Q 24.21875 56 28.609375 56 
Q 40.484375 56 46.34375 49.84375 
Q 52.203125 43.703125 52.203125 31.203125 
z
" id="DejaVuSans-97"/>
       <path d="M 18.3125 70.21875 
L 18.3125 54.6875 
L 36.8125 54.6875 
L 36.8125 47.703125 
L 18.3125 47.703125 
L 18.3125 18.015625 
Q 18.3125 11.328125 20.140625 9.421875 
Q 21.96875 7.515625 27.59375 7.515625 
L 36.8125 7.515625 
L 36.8125 0 
L 27.59375 0 
Q 17.1875 0 13.234375 3.875 
Q 9.28125 7.765625 9.28125 18.015625 
L 9.28125 47.703125 
L 2.6875 47.703125 
L 2.6875 54.6875 
L 9.28125 54.6875 
L 9.28125 70.21875 
z
" id="DejaVuSans-116"/>
      </defs>
      <g transform="translate(837.782463 274.718437)scale(0.1 -0.1)">
       <use xlink:href="#DejaVuSans-83"/>
       <use x="63.476562" xlink:href="#DejaVuSans-97"/>
       <use x="124.755859" xlink:href="#DejaVuSans-116"/>
       <use x="163.964844" xlink:href="#DejaVuSans-32"/>
       <use x="195.751953" xlink:href="#DejaVuSans-48"/>
       <use x="259.375" xlink:href="#DejaVuSans-48"/>
       <use x="322.998047" xlink:href="#DejaVuSans-58"/>
       <use x="356.689453" xlink:href="#DejaVuSans-48"/>
       <use x="420.3125" xlink:href="#DejaVuSans-48"/>
      </g>
     </g>
    </g>
    <g id="xtick_6">
     <g id="line2d_6">
      <g>
       <use style="stroke:#000000;stroke-width:0.8;" x="1027.767447" xlink:href="#m851ca4bb11" y="260.12"/>
      </g>
     </g>
     <g id="text_6">
      <!-- Sun 00:00 -->
      <defs>
       <path d="M 54.890625 33.015625 
L 54.890625 0 
L 45.90625 0 
L 45.90625 32.71875 
Q 45.90625 40.484375 42.875 44.328125 
Q 39.84375 48.1875 33.796875 48.1875 
Q 26.515625 48.1875 22.3125 43.546875 
Q 18.109375 38.921875 18.109375 30.90625 
L 18.109375 0 
L 9.078125 0 
L 9.078125 54.6875 
L 18.109375 54.6875 
L 18.109375 46.1875 
Q 21.34375 51.125 25.703125 53.5625 
Q 30.078125 56 35.796875 56 
Q 45.21875 56 50.046875 50.171875 
Q 54.890625 44.34375 54.890625 33.015625 
z
" id="DejaVuSans-110"/>
      </defs>
      <g transform="translate(1002.25729 274.718437)scale(0.1 -0.1)">
       <use xlink:href="#DejaVuSans-83"/>
       <use x="63.476562" xlink:href="#DejaVuSans-117"/>
       <use x="126.855469" xlink:href="#DejaVuSans-110"/>
       <use x="190.234375" xlink:href="#DejaVuSans-32"/>
       <use x="222.021484" xlink:href="#DejaVuSans-48"/>
       <use x="285.644531" xlink:href="#DejaVuSans-48"/>
       <use x="349.267578" xlink:href="#DejaVuSans-58"/>
       <use x="382.958984" xlink:href="#DejaVuSans-48"/>
       <use x="446.582031" xlink:href="#DejaVuSans-48"/>
      </g>
     </g>
    </g>
   </g>
   <g id="matplotlib.axis_2">
    <g id="ytick_1">
     <g id="line2d_7">
      <defs>
       <path d="M 0 0 
L -3.5 0 
" id="mbe96f76cc7" style="stroke:#000000;stroke-width:0.8;"/>
      </defs>
      <g>
       <use style="stroke:#000000;stroke-width:0.8;" x="33.64" xlink:href="#mbe96f76cc7" y="260.12"/>
      </g>
     </g>
     <g id="text_7">
      <!-- 0 -->
      <g transform="translate(20.2775 263.919219)scale(0.1 -0.1)">
       <use xlink:href="#DejaVuSans-48"/>
      </g>
     </g>
    </g>
    <g id="ytick_2">
     <g id="line2d_8">
      <g>
       <use style="stroke:#000000;stroke-width:0.8;" x="33.64" xlink:href="#mbe96f76cc7" y="230.910476"/>
      </g>
     </g>
     <g id="text_8">
      <!-- 25 -->
      <defs>
       <path d="M 19.1875 8.296875 
L 53.609375 8.296875 
L 53.609375 0 
L 7.328125 0 
L 7.328125 8.296875 
Q 12.9375 14.109375 22.625 23.890625 
Q 32.328125 33.6875 34.8125 36.53125 
Q 39.546875 41.84375 41.421875 45.53125 
Q 43.3125 49.21875 43.3125 52.78125 
Q 43.3125 58.59375 39.234375 62.25 
Q 35.15625 65.921875 28.609375 65.921875 
Q 23.96875 65.921875 18.8125 64.3125 
Q 13.671875 62.703125 7.8125 59.421875 
L 7.8125 69.390625 
Q 13.765625 71.78125 18.9375 73 
Q 24.125 74.21875 28.421875 74.21875 
Q 39.75 74.21875 46.484375 68.546875 
Q 53.21875 62.890625 53.21875 53.421875 
Q 53.21875 48.921875 51.53125 44.890625 
Q 49.859375 40.875 45.40625 35.40625 
Q 44.1875 33.984375 37.640625 27.21875 
Q 31.109375 20.453125 19.1875 8.296875 
z
" id="DejaVuSans-50"/>
       <path d="M 10.796875 72.90625 
L 49.515625 72.90625 
L 49.515625 64.59375 
L 19.828125 64.59375 
L 19.828125 46.734375 
Q 21.96875 47.46875 24.109375 47.828125 
Q 26.265625 48.1875 28.421875 48.1875 
Q 40.625 48.1875 47.75 41.5 
Q 54.890625 34.8125 54.890625 23.390625 
Q 54.890625 11.625 47.5625 5.09375 
Q 40.234375 -1.421875 26.90625 -1.421875 
Q 22.3125 -1.421875 17.546875 -0.640625 
Q 12.796875 0.140625 7.71875 1.703125 
L 7.71875 11.625 
Q 12.109375 9.234375 16.796875 8.0625 
Q 21.484375 6.890625 26.703125 6.890625 
Q 35.15625 6.890625 40.078125 11.328125 
Q 45.015625 15.765625 45.015625 23.390625 
Q 45.015625 31 40.078125 35.4375 
Q 35.15625 39.890625 26.703125 39.890625 
Q 22.75 39.890625 18.8125 39.015625 
Q 14.890625 38.140625 10.796875 36.28125 
z
" id="DejaVuSans-53"/>
      </defs>
      <g transform="translate(13.915 234.709695)scale(0.1 -0.1)">
       <use xlink:href="#DejaVuSans-50"/>
       <use x="63.623047" xlink:href="#DejaVuSans-53"/>
      </g>
     </g>
    </g>
    <g id="ytick_3">
     <g id="line2d_9">
      <g>
       <use style="stroke:#000000;stroke-width:0.8;" x="33.64" xlink:href="#mbe96f76cc7" y="201.700952"/>
      </g>
     </g>
     <g id="text_9">
      <!-- 50 -->
      <g transform="translate(13.915 205.500171)scale(0.1 -0.1)">
       <use xlink:href="#DejaVuSans-53"/>
       <use x="63.623047" xlink:href="#DejaVuSans-48"/>
      </g>
     </g>
    </g>
    <g id="ytick_4">
     <g id="line2d_10">
      <g>
       <use style="stroke:#000000;stroke-width:0.8;" x="33.64" xlink:href="#mbe96f76cc7" y="172.491429"/>
      </g>
     </g>
     <g id="text_10">
      <!-- 75 -->
      <defs>
       <path d="M 8.203125 72.90625 
L 55.078125 72.90625 
L 55.078125 68.703125 
L 28.609375 0 
L 18.3125 0 
L 43.21875 64.59375 
L 8.203125 64.59375 
z
" id="DejaVuSans-55"/>
      </defs>
      <g transform="translate(13.915 176.290647)scale(0.1 -0.1)">
       <use xlink:href="#DejaVuSans-55"/>
       <use x="63.623047" xlink:href="#DejaVuSans-53"/>
      </g>
     </g>
    </g>
    <g id="ytick_5">
     <g id="line2d_11">
      <g>
       <use style="stroke:#000000;stroke-width:0.8;" x="33.64" xlink:href="#mbe96f76cc7" y="143.281905"/>
      </g>
     </g>
     <g id="text_11">
      <!-- 100 -->
      <defs>
       <path d="M 12.40625 8.296875 
L 28.515625 8.296875 
L 28.515625 63.921875 
L 10.984375 60.40625 
L 10.984375 69.390625 
L 28.421875 72.90625 
L 38.28125 72.90625 
L 38.28125 8.296875 
L 54.390625 8.296875 
L 54.390625 0 
L 12.40625 0 
z
" id="DejaVuSans-49"/>
      </defs>
      <g transform="translate(7.5525 147.081124)scale(0.1 -0.1)">
       <use xlink:href="#DejaVuSans-49"/>
       <use x="63.623047" xlink:href="#DejaVuSans-48"/>
       <use x="127.246094" xlink:href="#DejaVuSans-48"/>
      </g>
     </g>
    </g>
    <g id="ytick_6">
     <g id="line2d_12">
      <g>
       <use style="stroke:#000000;stroke-width:0.8;" x="33.64" xlink:href="#mbe96f76cc7" y="114.072381"/>
      </g>
     </g>
     <g id="text_12">
      <!-- 125 -->
      <g transform="translate(7.5525 117.8716)scale(0.1 -0.1)">
       <use xlink:href="#DejaVuSans-49"/>
       <use x="63.623047" xlink:href="#DejaVuSans-50"/>
       <use x="127.246094" xlink:href="#DejaVuSans-53"/>
      </g>
     </g>
    </g>
    <g id="ytick_7">
     <g id="line2d_13">
      <g>
       <use style="stroke:#000000;stroke-width:0.8;" x="33.64" xlink:href="#mbe96f76cc7" y="84.862857"/>
      </g>
     </g>
     <g id="text_13">
      <!-- 150 -->
      <g transform="translate(7.5525 88.662076)scale(0.1 -0.1)">
       <use xlink:href="#DejaVuSans-49"/>
       <use x="63.623047" xlink:href="#DejaVuSans-53"/>
       <use x="127.246094" xlink:href="#DejaVuSans-48"/>
      </g>
     </g>
    </g>
    <g id="ytick_8">
     <g id="line2d_14">
      <g>
       <use style="stroke:#000000;stroke-width:0.8;" x="33.64" xlink:href="#mbe96f76cc7" y="55.653333"/>
      </g>
     </g>
     <g id="text_14">
      <!-- 175 -->
      <g transform="translate(7.5525 59.452552)scale(0.1 -0.1)">
       <use xlink:href="#DejaVuSans-49"/>
       <use x="63.623047" xlink:href="#DejaVuSans-55"/>
       <use x="127.246094" xlink:href="#DejaVuSans-53"/>
      </g>
     </g>
    </g>
    <g id="ytick_9">
     <g id="line2d_15">
      <g>
       <use style="stroke:#000000;stroke-width:0.8;" x="33.64" xlink:href="#mbe96f76cc7" y="26.44381"/>
      </g>
     </g>
     <g id="text_15">
      <!-- 200 -->
      <g transform="translate(7.5525 30.243028)scale(0.1 -0.1)">
       <use xlink:href="#DejaVuSans-50"/>
       <use x="63.623047" xlink:href="#DejaVuSans-48"/>
       <use x="127.246094" xlink:href="#DejaVuSans-48"/>
      </g>
     </g>
    </g>
   </g>
   <g id="line2d_16">
    <path clip-path="url(#pe062610ba3)" d="M 33.64 225.068571 
L 95.38195 225.068571 
L 96.569493 220.395048 
L 97.755924 220.395048 
L 98.941771 218.058286 
L 100.125437 218.058286 
L 101.308975 211.048 
L 102.49503 211.048 
L 103.679015 200.532571 
L 104.86258 195.859048 
L 106.047277 195.859048 
L 107.231698 186.512 
L 108.415538 179.501714 
L 109.601965 177.164952 
L 115.534284 177.164952 
L 116.718891 183.006857 
L 117.905635 190.017143 
L 119.089218 190.017143 
L 120.272774 195.859048 
L 121.458767 195.859048 
L 122.642737 200.532571 
L 123.828105 195.859048 
L 125.013843 195.859048 
L 126.197993 193.522286 
L 127.381778 192.353905 
L 128.565459 188.848762 
L 129.749255 188.848762 
L 130.934042 187.680381 
L 132.119585 191.185524 
L 133.303208 191.185524 
L 134.489796 188.848762 
L 135.67375 185.343619 
L 136.857383 185.343619 
L 138.043396 183.006857 
L 139.227458 185.343619 
L 141.594876 185.343619 
L 142.780968 178.333333 
L 143.9656 177.164952 
L 145.151905 177.164952 
L 146.338009 179.501714 
L 147.524269 173.65981 
L 148.71225 173.65981 
L 149.898888 170.154667 
L 151.088187 170.154667 
L 152.274312 175.996571 
L 153.457998 165.481143 
L 154.641892 153.797333 
L 155.82554 153.797333 
L 157.009254 147.955429 
L 158.193439 138.608381 
L 159.377285 138.608381 
L 160.561727 124.58781 
L 161.747042 108.230476 
L 162.930794 108.230476 
L 164.117648 90.704762 
L 165.30208 79.020952 
L 166.485686 60.326857 
L 167.670292 60.326857 
L 168.854153 52.14819 
L 170.037652 83.694476 
L 172.406826 83.694476 
L 173.593235 86.031238 
L 174.777272 86.031238 
L 175.963796 88.368 
L 177.148549 89.536381 
L 178.332562 89.536381 
L 179.518224 105.893714 
L 180.706749 119.914286 
L 181.891283 119.914286 
L 183.077139 133.934857 
L 184.263391 153.797333 
L 185.450448 153.797333 
L 186.635145 161.976 
L 187.820936 168.986286 
L 189.004951 172.491429 
L 190.191403 172.491429 
L 191.378136 184.175238 
L 192.562507 192.353905 
L 193.746605 192.353905 
L 194.934435 260.12 
L 262.598515 260.12 
L 263.784262 241.425905 
L 264.970566 236.752381 
L 266.156696 236.752381 
L 267.341463 233.247238 
L 268.525667 222.73181 
L 269.711256 222.73181 
L 270.896734 213.384762 
L 272.083106 211.048 
L 273.269878 211.048 
L 274.459167 207.542857 
L 275.646966 205.206095 
L 276.833401 205.206095 
L 278.017028 202.869333 
L 279.205733 201.700952 
L 281.579101 201.700952 
L 282.762501 215.721524 
L 283.947719 216.889905 
L 285.134327 214.553143 
L 286.318499 216.889905 
L 287.503255 216.889905 
L 289.949988 205.206095 
L 292.395015 208.711238 
L 294.881475 208.711238 
L 296.064966 211.048 
L 297.250024 211.048 
L 298.433972 213.384762 
L 299.617644 212.216381 
L 300.80379 212.216381 
L 301.989775 207.542857 
L 304.3588 207.542857 
L 305.542613 202.869333 
L 306.72938 205.206095 
L 307.913243 205.206095 
L 309.097909 201.700952 
L 310.282286 191.185524 
L 311.466591 186.512 
L 312.650224 186.512 
L 313.834369 185.343619 
L 315.018522 173.65981 
L 316.205078 173.65981 
L 317.390279 172.491429 
L 318.576437 181.838476 
L 319.760513 181.838476 
L 322.129707 158.470857 
L 323.314069 158.470857 
L 324.500264 153.797333 
L 325.684934 150.29219 
L 326.869189 150.29219 
L 328.054951 154.965714 
L 329.239861 158.470857 
L 330.424152 158.470857 
L 331.610627 144.450286 
L 332.797287 135.103238 
L 333.982063 130.429714 
L 335.166491 130.429714 
L 336.351153 116.409143 
L 337.535648 116.409143 
L 339.908168 114.072381 
L 341.094382 110.567238 
L 342.28133 110.567238 
L 343.466325 112.904 
L 344.652294 117.577524 
L 345.836749 117.577524 
L 347.023102 126.924571 
L 348.207518 142.113524 
L 349.393255 152.628952 
L 350.578779 152.628952 
L 351.762391 159.639238 
L 352.950854 159.639238 
L 354.134569 170.154667 
L 355.320212 178.333333 
L 356.506547 178.333333 
L 357.690748 186.512 
L 358.877321 187.680381 
L 360.06298 190.017143 
L 361.246974 190.017143 
L 362.430498 260.12 
L 426.554567 260.12 
L 428.902844 248.43619 
L 430.086402 248.43619 
L 431.270494 242.594286 
L 432.454656 237.920762 
L 433.638211 237.920762 
L 434.822621 228.573714 
L 436.007268 228.573714 
L 437.19133 223.90019 
L 438.374747 220.395048 
L 439.559286 220.395048 
L 440.743281 225.068571 
L 441.928483 225.068571 
L 443.113499 227.405333 
L 444.29992 227.405333 
L 445.486858 226.236952 
L 446.673186 223.90019 
L 447.857157 223.90019 
L 449.041556 220.395048 
L 450.225441 229.742095 
L 452.594987 229.742095 
L 453.78134 227.405333 
L 454.966594 227.405333 
L 456.150739 218.058286 
L 457.336562 218.058286 
L 458.521608 212.216381 
L 460.891522 212.216381 
L 463.261583 207.542857 
L 464.452809 207.542857 
L 465.640023 201.700952 
L 466.827805 201.700952 
L 468.011964 202.869333 
L 469.196011 200.532571 
L 470.37939 200.532571 
L 471.563027 191.185524 
L 473.931386 191.185524 
L 475.134779 188.848762 
L 476.319088 188.848762 
L 477.502663 179.501714 
L 478.690712 179.501714 
L 479.87606 177.164952 
L 481.0605 171.323048 
L 482.247242 171.323048 
L 483.430797 161.976 
L 484.616036 145.618667 
L 485.79979 117.577524 
L 486.984165 117.577524 
L 488.169296 109.398857 
L 489.353118 88.368 
L 490.53735 88.368 
L 491.724572 66.168762 
L 492.909537 52.14819 
L 494.09379 52.14819 
L 495.277509 42.801143 
L 496.461847 48.643048 
L 497.648407 48.643048 
L 498.834635 35.790857 
L 500.018269 33.454095 
L 501.204293 33.454095 
L 502.392041 34.622476 
L 503.578431 27.61219 
L 504.76783 27.61219 
L 505.951629 33.454095 
L 507.137871 38.127619 
L 508.321381 38.127619 
L 509.508547 48.643048 
L 510.691783 50.97981 
L 511.876023 72.010667 
L 513.059624 72.010667 
L 514.245867 89.536381 
L 515.429949 89.536381 
L 516.614629 104.725333 
L 517.799379 132.766476 
L 518.98461 140.945143 
L 520.171912 140.945143 
L 521.357954 165.481143 
L 522.541191 177.164952 
L 523.725656 177.164952 
L 524.912452 183.006857 
L 526.097507 194.690667 
L 528.46857 194.690667 
L 529.653367 260.12 
L 593.771094 260.12 
L 594.956127 253.109714 
L 596.141914 253.109714 
L 597.326258 249.604571 
L 598.512761 244.931048 
L 599.696172 244.931048 
L 600.880636 239.089143 
L 602.065961 236.752381 
L 603.250303 236.752381 
L 605.618138 229.742095 
L 606.804651 229.742095 
L 607.990134 233.247238 
L 609.177009 232.078857 
L 610.361844 228.573714 
L 611.547536 228.573714 
L 612.731782 229.742095 
L 613.915653 227.405333 
L 615.102848 227.405333 
L 616.287658 221.563429 
L 617.47116 219.226667 
L 618.660394 219.226667 
L 619.843944 214.553143 
L 621.028093 208.711238 
L 622.212129 208.711238 
L 623.396379 212.216381 
L 624.58096 214.553143 
L 625.767518 214.553143 
L 626.953002 208.711238 
L 628.137072 213.384762 
L 630.506215 213.384762 
L 631.691038 209.879619 
L 632.87803 199.36419 
L 634.061485 199.36419 
L 636.433506 197.027429 
L 637.617821 197.027429 
L 639.98949 185.343619 
L 642.361436 185.343619 
L 643.545249 180.670095 
L 644.730359 180.670095 
L 645.915232 170.154667 
L 647.100622 165.481143 
L 648.284312 165.481143 
L 649.468781 158.470857 
L 650.652591 142.113524 
L 651.836717 128.092952 
L 653.020352 128.092952 
L 654.207613 103.556952 
L 655.396542 107.062095 
L 656.583214 107.062095 
L 657.769267 102.388571 
L 658.955564 80.189333 
L 660.139377 80.189333 
L 661.32402 66.168762 
L 662.507626 60.326857 
L 663.691336 60.326857 
L 664.877425 61.495238 
L 666.062749 48.643048 
L 667.246971 45.137905 
L 668.433391 45.137905 
L 669.617485 63.832 
L 670.801522 72.010667 
L 671.986242 72.010667 
L 673.171076 83.694476 
L 674.355631 90.704762 
L 675.542005 90.704762 
L 676.725523 95.378286 
L 677.918113 107.062095 
L 679.105965 107.062095 
L 680.290262 114.072381 
L 681.473858 129.261333 
L 682.658856 129.261333 
L 685.026551 157.302476 
L 686.214071 157.302476 
L 687.400811 161.976 
L 688.586848 177.164952 
L 689.772602 177.164952 
L 690.958134 184.175238 
L 692.14317 260.12 
L 759.825245 260.12 
L 761.009179 248.43619 
L 762.195563 242.594286 
L 763.382682 242.594286 
L 764.566341 234.415619 
L 765.749673 234.415619 
L 766.933989 222.73181 
L 768.117633 219.226667 
L 769.303449 214.553143 
L 770.490129 214.553143 
L 772.864261 205.206095 
L 774.050599 205.206095 
L 775.235396 201.700952 
L 776.421342 199.36419 
L 777.60604 205.206095 
L 778.790687 205.206095 
L 779.974659 207.542857 
L 781.161304 211.048 
L 782.347032 211.048 
L 783.534924 219.226667 
L 784.719506 219.226667 
L 785.903855 218.058286 
L 788.272725 218.058286 
L 789.4565 221.563429 
L 790.640876 218.058286 
L 793.009656 218.058286 
L 794.194143 221.563429 
L 795.378686 222.73181 
L 796.56246 222.73181 
L 798.932531 211.048 
L 800.116182 208.711238 
L 801.301811 208.711238 
L 802.485186 205.206095 
L 803.669031 209.879619 
L 804.852789 209.879619 
L 806.037058 202.869333 
L 807.222519 202.869333 
L 808.407436 195.859048 
L 809.591606 197.027429 
L 810.77646 192.353905 
L 811.961053 192.353905 
L 813.145729 187.680381 
L 814.331103 181.838476 
L 815.514984 181.838476 
L 816.699722 183.006857 
L 817.884786 178.333333 
L 819.071235 183.006857 
L 820.257486 183.006857 
L 821.441788 177.164952 
L 822.626608 177.164952 
L 823.813269 186.512 
L 825.000082 181.838476 
L 826.184752 181.838476 
L 827.369315 184.175238 
L 828.555107 188.848762 
L 829.739582 186.512 
L 830.926226 186.512 
L 832.109696 183.006857 
L 833.296079 177.164952 
L 834.481857 177.164952 
L 835.665819 178.333333 
L 836.849488 187.680381 
L 838.033053 187.680381 
L 839.218038 186.512 
L 841.590325 186.512 
L 842.776623 188.848762 
L 845.14719 188.848762 
L 846.333643 200.532571 
L 847.518378 200.532571 
L 848.702784 205.206095 
L 849.888424 205.206095 
L 851.074848 206.374476 
L 852.261457 206.374476 
L 853.447563 207.542857 
L 854.633469 209.879619 
L 858.193646 209.879619 
L 859.378132 260.12 
L 924.679778 260.12 
L 925.863956 258.951619 
L 927.04816 254.278095 
L 928.233483 243.762667 
L 929.419068 243.762667 
L 931.789969 236.752381 
L 932.975719 236.752381 
L 934.161321 229.742095 
L 935.347073 220.395048 
L 936.531491 220.395048 
L 937.715376 218.058286 
L 938.899425 216.889905 
L 940.086095 216.889905 
L 941.271769 206.374476 
L 942.456058 206.374476 
L 943.639855 198.19581 
L 944.824999 198.19581 
L 946.008911 195.859048 
L 948.375738 195.859048 
L 949.564004 197.027429 
L 950.748289 204.037714 
L 951.935928 204.037714 
L 953.119361 200.532571 
L 954.30346 199.36419 
L 955.487478 199.36419 
L 956.671534 194.690667 
L 957.855633 192.353905 
L 959.039375 192.353905 
L 960.223296 199.36419 
L 961.407482 198.19581 
L 962.592946 198.19581 
L 963.776875 199.36419 
L 964.960266 204.037714 
L 966.144117 204.037714 
L 967.330107 206.374476 
L 969.700663 197.027429 
L 970.886021 197.027429 
L 972.069037 198.19581 
L 973.25342 197.027429 
L 974.439324 197.027429 
L 975.623421 205.206095 
L 976.807868 211.048 
L 977.99173 201.700952 
L 980.359541 201.700952 
L 981.5436 191.185524 
L 982.728861 191.185524 
L 983.912815 186.512 
L 985.097702 186.512 
L 986.281402 191.185524 
L 987.465392 194.690667 
L 988.649497 193.522286 
L 989.833315 193.522286 
L 991.0172 200.532571 
L 992.201241 197.027429 
L 993.385399 197.027429 
L 994.569677 201.700952 
L 995.753787 202.869333 
L 996.937952 201.700952 
L 998.121832 201.700952 
L 999.306169 200.532571 
L 1000.490233 200.532571 
L 1001.674378 199.36419 
L 1002.859889 212.216381 
L 1004.043041 212.216381 
L 1005.226619 214.553143 
L 1006.410069 225.068571 
L 1007.593106 227.405333 
L 1009.960818 227.405333 
L 1011.146037 229.742095 
L 1012.329383 229.742095 
L 1013.514756 233.247238 
L 1014.697827 235.584 
L 1015.883947 235.584 
L 1017.066831 236.752381 
L 1022.984981 236.752381 
L 1024.168027 260.12 
L 1089.480401 260.12 
L 1090.64527 257.783238 
L 1091.829767 257.783238 
L 1093.01546 243.762667 
L 1094.199214 237.920762 
L 1095.382478 237.920762 
L 1096.565965 221.563429 
L 1097.748848 208.711238 
L 1098.932179 202.869333 
L 1100.11903 202.869333 
L 1101.304673 192.353905 
L 1102.488038 192.353905 
L 1103.671482 165.481143 
L 1104.854408 158.470857 
L 1106.037648 158.470857 
L 1107.221935 145.618667 
L 1109.588835 100.05181 
L 1110.775062 100.05181 
L 1111.961011 102.388571 
L 1113.144167 90.704762 
L 1114.327323 90.704762 
L 1115.510959 84.862857 
L 1116.694141 83.694476 
L 1117.877799 83.694476 
L 1119.060849 84.862857 
L 1120.244566 83.694476 
L 1121.430079 83.694476 
L 1122.615897 91.873143 
L 1123.80168 94.209905 
L 1124.985756 94.209905 
L 1126.171572 110.567238 
L 1127.355558 102.388571 
L 1128.541152 116.409143 
L 1129.724942 116.409143 
L 1130.910647 117.577524 
L 1132.094829 121.082667 
L 1133.28 121.082667 
L 1133.28 121.082667 
" style="fill:none;stroke:#1f77b4;stroke-linecap:square;stroke-width:1.5;"/>
   </g>
   <g id="patch_3">
    <path d="M 33.64 260.12 
L 33.64 14.76 
" style="fill:none;stroke:#000000;stroke-linecap:square;stroke-linejoin:miter;stroke-width:0.8;"/>
   </g>
   <g id="patch_4">
    <path d="M 1133.28 260.12 
L 1133.28 14.76 
" style="fill:none;stroke:#000000;stroke-linecap:square;stroke-linejoin:miter;stroke-width:0.8;"/>
   </g>
   <g id="patch_5">
    <path d="M 33.64 260.12 
L 1133.28 260.12 
" style="fill:none;stroke:#000000;stroke-linecap:square;stroke-linejoin:miter;stroke-width:0.8;"/>
   </g>
   <g id="patch_6">
    <path d="M 33.64 14.76 
L 1133.28 14.76 
" style="fill:none;stroke:#000000;stroke-linecap:square;stroke-linejoin:miter;stroke-width:0.8;"/>
   </g>
  </g>
 </g>
 <defs>
  <clipPath id="pe062610ba3">
   <rect height="245.36" width="1099.64" x="33.64" y="14.76"/>
  </clipPath>
 </defs>
</svg>
