<?xml version="1.0" encoding="utf-8" standalone="no"?>
<!DOCTYPE svg PUBLIC "-//W3C//DTD SVG 1.1//EN"
  "http://www.w3.org/Graphics/SVG/1.1/DTD/svg11.dtd">
<!-- Created with matplotlib (https://matplotlib.org/) -->
<svg height="288pt" version="1.1" viewBox="0 0 1152 288" width="1152pt" xmlns="http://www.w3.org/2000/svg" xmlns:xlink="http://www.w3.org/1999/xlink">
 <defs>
  <style type="text/css">
*{stroke-linecap:butt;stroke-linejoin:round;}
  </style>
 </defs>
 <g id="figure_1">
  <g id="patch_1">
   <path d="M 0 288 
L 1152 288 
L 1152 0 
L 0 0 
z
" style="fill:#ffffff;"/>
  </g>
  <g id="axes_1">
   <g id="patch_2">
    <path d="M 33.64 260.12 
L 1133.28 260.12 
L 1133.28 14.76 
L 33.64 14.76 
z
" style="fill:#ffffff;"/>
   </g>
   <g id="matplotlib.axis_1">
    <g id="xtick_1">
     <g id="line2d_1">
      <defs>
       <path d="M 0 0 
L 0 3.5 
" id="maa67d60eb8" style="stroke:#000000;stroke-width:0.8;"/>
      </defs>
      <g>
       <use style="stroke:#000000;stroke-width:0.8;" x="228.642919" xlink:href="#maa67d60eb8" y="260.12"/>
      </g>
     </g>
     <g id="text_1">
      <!-- Tue 00:00 -->
      <defs>
       <path d="M -0.296875 72.90625 
L 61.375 72.90625 
L 61.375 64.59375 
L 35.5 64.59375 
L 35.5 0 
L 25.59375 0 
L 25.59375 64.59375 
L -0.296875 64.59375 
z
" id="DejaVuSans-84"/>
       <path d="M 8.5 21.578125 
L 8.5 54.6875 
L 17.484375 54.6875 
L 17.484375 21.921875 
Q 17.484375 14.15625 20.5 10.265625 
Q 23.53125 6.390625 29.59375 6.390625 
Q 36.859375 6.390625 41.078125 11.03125 
Q 45.3125 15.671875 45.3125 23.6875 
L 45.3125 54.6875 
L 54.296875 54.6875 
L 54.296875 0 
L 45.3125 0 
L 45.3125 8.40625 
Q 42.046875 3.421875 37.71875 1 
Q 33.40625 -1.421875 27.6875 -1.421875 
Q 18.265625 -1.421875 13.375 4.4375 
Q 8.5 10.296875 8.5 21.578125 
z
M 31.109375 56 
z
" id="DejaVuSans-117"/>
       <path d="M 56.203125 29.59375 
L 56.203125 25.203125 
L 14.890625 25.203125 
Q 15.484375 15.921875 20.484375 11.0625 
Q 25.484375 6.203125 34.421875 6.203125 
Q 39.59375 6.203125 44.453125 7.46875 
Q 49.3125 8.734375 54.109375 11.28125 
L 54.109375 2.78125 
Q 49.265625 0.734375 44.1875 -0.34375 
Q 39.109375 -1.421875 33.890625 -1.421875 
Q 20.796875 -1.421875 13.15625 6.1875 
Q 5.515625 13.8125 5.515625 26.8125 
Q 5.515625 40.234375 12.765625 48.109375 
Q 20.015625 56 32.328125 56 
Q 43.359375 56 49.78125 48.890625 
Q 56.203125 41.796875 56.203125 29.59375 
z
M 47.21875 32.234375 
Q 47.125 39.59375 43.09375 43.984375 
Q 39.0625 48.390625 32.421875 48.390625 
Q 24.90625 48.390625 20.390625 44.140625 
Q 15.875 39.890625 15.1875 32.171875 
z
" id="DejaVuSans-101"/>
       <path id="DejaVuSans-32"/>
       <path d="M 31.78125 66.40625 
Q 24.171875 66.40625 20.328125 58.90625 
Q 16.5 51.421875 16.5 36.375 
Q 16.5 21.390625 20.328125 13.890625 
Q 24.171875 6.390625 31.78125 6.390625 
Q 39.453125 6.390625 43.28125 13.890625 
Q 47.125 21.390625 47.125 36.375 
Q 47.125 51.421875 43.28125 58.90625 
Q 39.453125 66.40625 31.78125 66.40625 
z
M 31.78125 74.21875 
Q 44.046875 74.21875 50.515625 64.515625 
Q 56.984375 54.828125 56.984375 36.375 
Q 56.984375 17.96875 50.515625 8.265625 
Q 44.046875 -1.421875 31.78125 -1.421875 
Q 19.53125 -1.421875 13.0625 8.265625 
Q 6.59375 17.96875 6.59375 36.375 
Q 6.59375 54.828125 13.0625 64.515625 
Q 19.53125 74.21875 31.78125 74.21875 
z
" id="DejaVuSans-48"/>
       <path d="M 11.71875 12.40625 
L 22.015625 12.40625 
L 22.015625 0 
L 11.71875 0 
z
M 11.71875 51.703125 
L 22.015625 51.703125 
L 22.015625 39.3125 
L 11.71875 39.3125 
z
" id="DejaVuSans-58"/>
      </defs>
      <g transform="translate(203.356982 274.718437)scale(0.1 -0.1)">
       <use xlink:href="#DejaVuSans-84"/>
       <use x="60.849609" xlink:href="#DejaVuSans-117"/>
       <use x="124.228516" xlink:href="#DejaVuSans-101"/>
       <use x="185.751953" xlink:href="#DejaVuSans-32"/>
       <use x="217.539062" xlink:href="#DejaVuSans-48"/>
       <use x="281.162109" xlink:href="#DejaVuSans-48"/>
       <use x="344.785156" xlink:href="#DejaVuSans-58"/>
       <use x="378.476562" xlink:href="#DejaVuSans-48"/>
       <use x="442.099609" xlink:href="#DejaVuSans-48"/>
      </g>
     </g>
    </g>
    <g id="xtick_2">
     <g id="line2d_2">
      <g>
       <use style="stroke:#000000;stroke-width:0.8;" x="423.733169" xlink:href="#maa67d60eb8" y="260.12"/>
      </g>
     </g>
     <g id="text_2">
      <!-- Wed 00:00 -->
      <defs>
       <path d="M 3.328125 72.90625 
L 13.28125 72.90625 
L 28.609375 11.28125 
L 43.890625 72.90625 
L 54.984375 72.90625 
L 70.3125 11.28125 
L 85.59375 72.90625 
L 95.609375 72.90625 
L 77.296875 0 
L 64.890625 0 
L 49.515625 63.28125 
L 33.984375 0 
L 21.578125 0 
z
" id="DejaVuSans-87"/>
       <path d="M 45.40625 46.390625 
L 45.40625 75.984375 
L 54.390625 75.984375 
L 54.390625 0 
L 45.40625 0 
L 45.40625 8.203125 
Q 42.578125 3.328125 38.25 0.953125 
Q 33.9375 -1.421875 27.875 -1.421875 
Q 17.96875 -1.421875 11.734375 6.484375 
Q 5.515625 14.40625 5.515625 27.296875 
Q 5.515625 40.1875 11.734375 48.09375 
Q 17.96875 56 27.875 56 
Q 33.9375 56 38.25 53.625 
Q 42.578125 51.265625 45.40625 46.390625 
z
M 14.796875 27.296875 
Q 14.796875 17.390625 18.875 11.75 
Q 22.953125 6.109375 30.078125 6.109375 
Q 37.203125 6.109375 41.296875 11.75 
Q 45.40625 17.390625 45.40625 27.296875 
Q 45.40625 37.203125 41.296875 42.84375 
Q 37.203125 48.484375 30.078125 48.484375 
Q 22.953125 48.484375 18.875 42.84375 
Q 14.796875 37.203125 14.796875 27.296875 
z
" id="DejaVuSans-100"/>
      </defs>
      <g transform="translate(396.544107 274.718437)scale(0.1 -0.1)">
       <use xlink:href="#DejaVuSans-87"/>
       <use x="98.798828" xlink:href="#DejaVuSans-101"/>
       <use x="160.322266" xlink:href="#DejaVuSans-100"/>
       <use x="223.798828" xlink:href="#DejaVuSans-32"/>
       <use x="255.585938" xlink:href="#DejaVuSans-48"/>
       <use x="319.208984" xlink:href="#DejaVuSans-48"/>
       <use x="382.832031" xlink:href="#DejaVuSans-58"/>
       <use x="416.523438" xlink:href="#DejaVuSans-48"/>
       <use x="480.146484" xlink:href="#DejaVuSans-48"/>
      </g>
     </g>
    </g>
    <g id="xtick_3">
     <g id="line2d_3">
      <g>
       <use style="stroke:#000000;stroke-width:0.8;" x="618.82342" xlink:href="#maa67d60eb8" y="260.12"/>
      </g>
     </g>
     <g id="text_3">
      <!-- Thu 00:00 -->
      <defs>
       <path d="M 54.890625 33.015625 
L 54.890625 0 
L 45.90625 0 
L 45.90625 32.71875 
Q 45.90625 40.484375 42.875 44.328125 
Q 39.84375 48.1875 33.796875 48.1875 
Q 26.515625 48.1875 22.3125 43.546875 
Q 18.109375 38.921875 18.109375 30.90625 
L 18.109375 0 
L 9.078125 0 
L 9.078125 75.984375 
L 18.109375 75.984375 
L 18.109375 46.1875 
Q 21.34375 51.125 25.703125 53.5625 
Q 30.078125 56 35.796875 56 
Q 45.21875 56 50.046875 50.171875 
Q 54.890625 44.34375 54.890625 33.015625 
z
" id="DejaVuSans-104"/>
      </defs>
      <g transform="translate(593.433576 274.718437)scale(0.1 -0.1)">
       <use xlink:href="#DejaVuSans-84"/>
       <use x="61.083984" xlink:href="#DejaVuSans-104"/>
       <use x="124.462891" xlink:href="#DejaVuSans-117"/>
       <use x="187.841797" xlink:href="#DejaVuSans-32"/>
       <use x="219.628906" xlink:href="#DejaVuSans-48"/>
       <use x="283.251953" xlink:href="#DejaVuSans-48"/>
       <use x="346.875" xlink:href="#DejaVuSans-58"/>
       <use x="380.566406" xlink:href="#DejaVuSans-48"/>
       <use x="444.189453" xlink:href="#DejaVuSans-48"/>
      </g>
     </g>
    </g>
    <g id="xtick_4">
     <g id="line2d_4">
      <g>
       <use style="stroke:#000000;stroke-width:0.8;" x="813.91367" xlink:href="#maa67d60eb8" y="260.12"/>
      </g>
     </g>
     <g id="text_4">
      <!-- Fri 00:00 -->
      <defs>
       <path d="M 9.8125 72.90625 
L 51.703125 72.90625 
L 51.703125 64.59375 
L 19.671875 64.59375 
L 19.671875 43.109375 
L 48.578125 43.109375 
L 48.578125 34.8125 
L 19.671875 34.8125 
L 19.671875 0 
L 9.8125 0 
z
" id="DejaVuSans-70"/>
       <path d="M 41.109375 46.296875 
Q 39.59375 47.171875 37.8125 47.578125 
Q 36.03125 48 33.890625 48 
Q 26.265625 48 22.1875 43.046875 
Q 18.109375 38.09375 18.109375 28.8125 
L 18.109375 0 
L 9.078125 0 
L 9.078125 54.6875 
L 18.109375 54.6875 
L 18.109375 46.1875 
Q 20.953125 51.171875 25.484375 53.578125 
Q 30.03125 56 36.53125 56 
Q 37.453125 56 38.578125 55.875 
Q 39.703125 55.765625 41.0625 55.515625 
z
" id="DejaVuSans-114"/>
       <path d="M 9.421875 54.6875 
L 18.40625 54.6875 
L 18.40625 0 
L 9.421875 0 
z
M 9.421875 75.984375 
L 18.40625 75.984375 
L 18.40625 64.59375 
L 9.421875 64.59375 
z
" id="DejaVuSans-105"/>
      </defs>
      <g transform="translate(791.600389 274.718437)scale(0.1 -0.1)">
       <use xlink:href="#DejaVuSans-70"/>
       <use x="57.410156" xlink:href="#DejaVuSans-114"/>
       <use x="98.523438" xlink:href="#DejaVuSans-105"/>
       <use x="126.306641" xlink:href="#DejaVuSans-32"/>
       <use x="158.09375" xlink:href="#DejaVuSans-48"/>
       <use x="221.716797" xlink:href="#DejaVuSans-48"/>
       <use x="285.339844" xlink:href="#DejaVuSans-58"/>
       <use x="319.03125" xlink:href="#DejaVuSans-48"/>
       <use x="382.654297" xlink:href="#DejaVuSans-48"/>
      </g>
     </g>
    </g>
    <g id="xtick_5">
     <g id="line2d_5">
      <g>
       <use style="stroke:#000000;stroke-width:0.8;" x="1009.00392" xlink:href="#maa67d60eb8" y="260.12"/>
      </g>
     </g>
     <g id="text_5">
      <!-- Sat 00:00 -->
      <defs>
       <path d="M 53.515625 70.515625 
L 53.515625 60.890625 
Q 47.90625 63.578125 42.921875 64.890625 
Q 37.9375 66.21875 33.296875 66.21875 
Q 25.25 66.21875 20.875 63.09375 
Q 16.5 59.96875 16.5 54.203125 
Q 16.5 49.359375 19.40625 46.890625 
Q 22.3125 44.4375 30.421875 42.921875 
L 36.375 41.703125 
Q 47.40625 39.59375 52.65625 34.296875 
Q 57.90625 29 57.90625 20.125 
Q 57.90625 9.515625 50.796875 4.046875 
Q 43.703125 -1.421875 29.984375 -1.421875 
Q 24.8125 -1.421875 18.96875 -0.25 
Q 13.140625 0.921875 6.890625 3.21875 
L 6.890625 13.375 
Q 12.890625 10.015625 18.65625 8.296875 
Q 24.421875 6.59375 29.984375 6.59375 
Q 38.421875 6.59375 43.015625 9.90625 
Q 47.609375 13.234375 47.609375 19.390625 
Q 47.609375 24.75 44.3125 27.78125 
Q 41.015625 30.8125 33.5 32.328125 
L 27.484375 33.5 
Q 16.453125 35.6875 11.515625 40.375 
Q 6.59375 45.0625 6.59375 53.421875 
Q 6.59375 63.09375 13.40625 68.65625 
Q 20.21875 74.21875 32.171875 74.21875 
Q 37.3125 74.21875 42.625 73.28125 
Q 47.953125 72.359375 53.515625 70.515625 
z
" id="DejaVuSans-83"/>
       <path d="M 34.28125 27.484375 
Q 23.390625 27.484375 19.1875 25 
Q 14.984375 22.515625 14.984375 16.5 
Q 14.984375 11.71875 18.140625 8.90625 
Q 21.296875 6.109375 26.703125 6.109375 
Q 34.1875 6.109375 38.703125 11.40625 
Q 43.21875 16.703125 43.21875 25.484375 
L 43.21875 27.484375 
z
M 52.203125 31.203125 
L 52.203125 0 
L 43.21875 0 
L 43.21875 8.296875 
Q 40.140625 3.328125 35.546875 0.953125 
Q 30.953125 -1.421875 24.3125 -1.421875 
Q 15.921875 -1.421875 10.953125 3.296875 
Q 6 8.015625 6 15.921875 
Q 6 25.140625 12.171875 29.828125 
Q 18.359375 34.515625 30.609375 34.515625 
L 43.21875 34.515625 
L 43.21875 35.40625 
Q 43.21875 41.609375 39.140625 45 
Q 35.0625 48.390625 27.6875 48.390625 
Q 23 48.390625 18.546875 47.265625 
Q 14.109375 46.140625 10.015625 43.890625 
L 10.015625 52.203125 
Q 14.9375 54.109375 19.578125 55.046875 
Q 24.21875 56 28.609375 56 
Q 40.484375 56 46.34375 49.84375 
Q 52.203125 43.703125 52.203125 31.203125 
z
" id="DejaVuSans-97"/>
       <path d="M 18.3125 70.21875 
L 18.3125 54.6875 
L 36.8125 54.6875 
L 36.8125 47.703125 
L 18.3125 47.703125 
L 18.3125 18.015625 
Q 18.3125 11.328125 20.140625 9.421875 
Q 21.96875 7.515625 27.59375 7.515625 
L 36.8125 7.515625 
L 36.8125 0 
L 27.59375 0 
Q 17.1875 0 13.234375 3.875 
Q 9.28125 7.765625 9.28125 18.015625 
L 9.28125 47.703125 
L 2.6875 47.703125 
L 2.6875 54.6875 
L 9.28125 54.6875 
L 9.28125 70.21875 
z
" id="DejaVuSans-116"/>
      </defs>
      <g transform="translate(984.807045 274.718437)scale(0.1 -0.1)">
       <use xlink:href="#DejaVuSans-83"/>
       <use x="63.476562" xlink:href="#DejaVuSans-97"/>
       <use x="124.755859" xlink:href="#DejaVuSans-116"/>
       <use x="163.964844" xlink:href="#DejaVuSans-32"/>
       <use x="195.751953" xlink:href="#DejaVuSans-48"/>
       <use x="259.375" xlink:href="#DejaVuSans-48"/>
       <use x="322.998047" xlink:href="#DejaVuSans-58"/>
       <use x="356.689453" xlink:href="#DejaVuSans-48"/>
       <use x="420.3125" xlink:href="#DejaVuSans-48"/>
      </g>
     </g>
    </g>
   </g>
   <g id="matplotlib.axis_2">
    <g id="ytick_1">
     <g id="line2d_6">
      <defs>
       <path d="M 0 0 
L -3.5 0 
" id="mc09375c518" style="stroke:#000000;stroke-width:0.8;"/>
      </defs>
      <g>
       <use style="stroke:#000000;stroke-width:0.8;" x="33.64" xlink:href="#mc09375c518" y="260.12"/>
      </g>
     </g>
     <g id="text_6">
      <!-- 0 -->
      <g transform="translate(20.2775 263.919219)scale(0.1 -0.1)">
       <use xlink:href="#DejaVuSans-48"/>
      </g>
     </g>
    </g>
    <g id="ytick_2">
     <g id="line2d_7">
      <g>
       <use style="stroke:#000000;stroke-width:0.8;" x="33.64" xlink:href="#mc09375c518" y="232.857778"/>
      </g>
     </g>
     <g id="text_7">
      <!-- 20 -->
      <defs>
       <path d="M 19.1875 8.296875 
L 53.609375 8.296875 
L 53.609375 0 
L 7.328125 0 
L 7.328125 8.296875 
Q 12.9375 14.109375 22.625 23.890625 
Q 32.328125 33.6875 34.8125 36.53125 
Q 39.546875 41.84375 41.421875 45.53125 
Q 43.3125 49.21875 43.3125 52.78125 
Q 43.3125 58.59375 39.234375 62.25 
Q 35.15625 65.921875 28.609375 65.921875 
Q 23.96875 65.921875 18.8125 64.3125 
Q 13.671875 62.703125 7.8125 59.421875 
L 7.8125 69.390625 
Q 13.765625 71.78125 18.9375 73 
Q 24.125 74.21875 28.421875 74.21875 
Q 39.75 74.21875 46.484375 68.546875 
Q 53.21875 62.890625 53.21875 53.421875 
Q 53.21875 48.921875 51.53125 44.890625 
Q 49.859375 40.875 45.40625 35.40625 
Q 44.1875 33.984375 37.640625 27.21875 
Q 31.109375 20.453125 19.1875 8.296875 
z
" id="DejaVuSans-50"/>
      </defs>
      <g transform="translate(13.915 236.656997)scale(0.1 -0.1)">
       <use xlink:href="#DejaVuSans-50"/>
       <use x="63.623047" xlink:href="#DejaVuSans-48"/>
      </g>
     </g>
    </g>
    <g id="ytick_3">
     <g id="line2d_8">
      <g>
       <use style="stroke:#000000;stroke-width:0.8;" x="33.64" xlink:href="#mc09375c518" y="205.595556"/>
      </g>
     </g>
     <g id="text_8">
      <!-- 40 -->
      <defs>
       <path d="M 37.796875 64.3125 
L 12.890625 25.390625 
L 37.796875 25.390625 
z
M 35.203125 72.90625 
L 47.609375 72.90625 
L 47.609375 25.390625 
L 58.015625 25.390625 
L 58.015625 17.1875 
L 47.609375 17.1875 
L 47.609375 0 
L 37.796875 0 
L 37.796875 17.1875 
L 4.890625 17.1875 
L 4.890625 26.703125 
z
" id="DejaVuSans-52"/>
      </defs>
      <g transform="translate(13.915 209.394774)scale(0.1 -0.1)">
       <use xlink:href="#DejaVuSans-52"/>
       <use x="63.623047" xlink:href="#DejaVuSans-48"/>
      </g>
     </g>
    </g>
    <g id="ytick_4">
     <g id="line2d_9">
      <g>
       <use style="stroke:#000000;stroke-width:0.8;" x="33.64" xlink:href="#mc09375c518" y="178.333333"/>
      </g>
     </g>
     <g id="text_9">
      <!-- 60 -->
      <defs>
       <path d="M 33.015625 40.375 
Q 26.375 40.375 22.484375 35.828125 
Q 18.609375 31.296875 18.609375 23.390625 
Q 18.609375 15.53125 22.484375 10.953125 
Q 26.375 6.390625 33.015625 6.390625 
Q 39.65625 6.390625 43.53125 10.953125 
Q 47.40625 15.53125 47.40625 23.390625 
Q 47.40625 31.296875 43.53125 35.828125 
Q 39.65625 40.375 33.015625 40.375 
z
M 52.59375 71.296875 
L 52.59375 62.3125 
Q 48.875 64.0625 45.09375 64.984375 
Q 41.3125 65.921875 37.59375 65.921875 
Q 27.828125 65.921875 22.671875 59.328125 
Q 17.53125 52.734375 16.796875 39.40625 
Q 19.671875 43.65625 24.015625 45.921875 
Q 28.375 48.1875 33.59375 48.1875 
Q 44.578125 48.1875 50.953125 41.515625 
Q 57.328125 34.859375 57.328125 23.390625 
Q 57.328125 12.15625 50.6875 5.359375 
Q 44.046875 -1.421875 33.015625 -1.421875 
Q 20.359375 -1.421875 13.671875 8.265625 
Q 6.984375 17.96875 6.984375 36.375 
Q 6.984375 53.65625 15.1875 63.9375 
Q 23.390625 74.21875 37.203125 74.21875 
Q 40.921875 74.21875 44.703125 73.484375 
Q 48.484375 72.75 52.59375 71.296875 
z
" id="DejaVuSans-54"/>
      </defs>
      <g transform="translate(13.915 182.132552)scale(0.1 -0.1)">
       <use xlink:href="#DejaVuSans-54"/>
       <use x="63.623047" xlink:href="#DejaVuSans-48"/>
      </g>
     </g>
    </g>
    <g id="ytick_5">
     <g id="line2d_10">
      <g>
       <use style="stroke:#000000;stroke-width:0.8;" x="33.64" xlink:href="#mc09375c518" y="151.071111"/>
      </g>
     </g>
     <g id="text_10">
      <!-- 80 -->
      <defs>
       <path d="M 31.78125 34.625 
Q 24.75 34.625 20.71875 30.859375 
Q 16.703125 27.09375 16.703125 20.515625 
Q 16.703125 13.921875 20.71875 10.15625 
Q 24.75 6.390625 31.78125 6.390625 
Q 38.8125 6.390625 42.859375 10.171875 
Q 46.921875 13.96875 46.921875 20.515625 
Q 46.921875 27.09375 42.890625 30.859375 
Q 38.875 34.625 31.78125 34.625 
z
M 21.921875 38.8125 
Q 15.578125 40.375 12.03125 44.71875 
Q 8.5 49.078125 8.5 55.328125 
Q 8.5 64.0625 14.71875 69.140625 
Q 20.953125 74.21875 31.78125 74.21875 
Q 42.671875 74.21875 48.875 69.140625 
Q 55.078125 64.0625 55.078125 55.328125 
Q 55.078125 49.078125 51.53125 44.71875 
Q 48 40.375 41.703125 38.8125 
Q 48.828125 37.15625 52.796875 32.3125 
Q 56.78125 27.484375 56.78125 20.515625 
Q 56.78125 9.90625 50.3125 4.234375 
Q 43.84375 -1.421875 31.78125 -1.421875 
Q 19.734375 -1.421875 13.25 4.234375 
Q 6.78125 9.90625 6.78125 20.515625 
Q 6.78125 27.484375 10.78125 32.3125 
Q 14.796875 37.15625 21.921875 38.8125 
z
M 18.3125 54.390625 
Q 18.3125 48.734375 21.84375 45.5625 
Q 25.390625 42.390625 31.78125 42.390625 
Q 38.140625 42.390625 41.71875 45.5625 
Q 45.3125 48.734375 45.3125 54.390625 
Q 45.3125 60.0625 41.71875 63.234375 
Q 38.140625 66.40625 31.78125 66.40625 
Q 25.390625 66.40625 21.84375 63.234375 
Q 18.3125 60.0625 18.3125 54.390625 
z
" id="DejaVuSans-56"/>
      </defs>
      <g transform="translate(13.915 154.87033)scale(0.1 -0.1)">
       <use xlink:href="#DejaVuSans-56"/>
       <use x="63.623047" xlink:href="#DejaVuSans-48"/>
      </g>
     </g>
    </g>
    <g id="ytick_6">
     <g id="line2d_11">
      <g>
       <use style="stroke:#000000;stroke-width:0.8;" x="33.64" xlink:href="#mc09375c518" y="123.808889"/>
      </g>
     </g>
     <g id="text_11">
      <!-- 100 -->
      <defs>
       <path d="M 12.40625 8.296875 
L 28.515625 8.296875 
L 28.515625 63.921875 
L 10.984375 60.40625 
L 10.984375 69.390625 
L 28.421875 72.90625 
L 38.28125 72.90625 
L 38.28125 8.296875 
L 54.390625 8.296875 
L 54.390625 0 
L 12.40625 0 
z
" id="DejaVuSans-49"/>
      </defs>
      <g transform="translate(7.5525 127.608108)scale(0.1 -0.1)">
       <use xlink:href="#DejaVuSans-49"/>
       <use x="63.623047" xlink:href="#DejaVuSans-48"/>
       <use x="127.246094" xlink:href="#DejaVuSans-48"/>
      </g>
     </g>
    </g>
    <g id="ytick_7">
     <g id="line2d_12">
      <g>
       <use style="stroke:#000000;stroke-width:0.8;" x="33.64" xlink:href="#mc09375c518" y="96.546667"/>
      </g>
     </g>
     <g id="text_12">
      <!-- 120 -->
      <g transform="translate(7.5525 100.345885)scale(0.1 -0.1)">
       <use xlink:href="#DejaVuSans-49"/>
       <use x="63.623047" xlink:href="#DejaVuSans-50"/>
       <use x="127.246094" xlink:href="#DejaVuSans-48"/>
      </g>
     </g>
    </g>
    <g id="ytick_8">
     <g id="line2d_13">
      <g>
       <use style="stroke:#000000;stroke-width:0.8;" x="33.64" xlink:href="#mc09375c518" y="69.284444"/>
      </g>
     </g>
     <g id="text_13">
      <!-- 140 -->
      <g transform="translate(7.5525 73.083663)scale(0.1 -0.1)">
       <use xlink:href="#DejaVuSans-49"/>
       <use x="63.623047" xlink:href="#DejaVuSans-52"/>
       <use x="127.246094" xlink:href="#DejaVuSans-48"/>
      </g>
     </g>
    </g>
    <g id="ytick_9">
     <g id="line2d_14">
      <g>
       <use style="stroke:#000000;stroke-width:0.8;" x="33.64" xlink:href="#mc09375c518" y="42.022222"/>
      </g>
     </g>
     <g id="text_14">
      <!-- 160 -->
      <g transform="translate(7.5525 45.821441)scale(0.1 -0.1)">
       <use xlink:href="#DejaVuSans-49"/>
       <use x="63.623047" xlink:href="#DejaVuSans-54"/>
       <use x="127.246094" xlink:href="#DejaVuSans-48"/>
      </g>
     </g>
    </g>
    <g id="ytick_10">
     <g id="line2d_15">
      <g>
       <use style="stroke:#000000;stroke-width:0.8;" x="33.64" xlink:href="#mc09375c518" y="14.76"/>
      </g>
     </g>
     <g id="text_15">
      <!-- 180 -->
      <g transform="translate(7.5525 18.559219)scale(0.1 -0.1)">
       <use xlink:href="#DejaVuSans-49"/>
       <use x="63.623047" xlink:href="#DejaVuSans-56"/>
       <use x="127.246094" xlink:href="#DejaVuSans-48"/>
      </g>
     </g>
    </g>
   </g>
   <g id="line2d_16">
    <path clip-path="url(#p10e798e15a)" d="M 33.64 260.12 
L 106.295591 260.12 
L 107.666349 257.393778 
L 109.063961 257.393778 
L 110.45706 253.304444 
L 111.849914 251.941333 
L 113.246016 249.215111 
L 114.640309 249.215111 
L 116.036569 246.488889 
L 117.430999 242.399556 
L 118.824551 242.399556 
L 120.218801 236.947111 
L 121.614818 235.584 
L 123.010001 235.584 
L 124.406123 232.857778 
L 125.799051 228.768444 
L 128.587239 228.768444 
L 129.980383 224.679111 
L 131.375032 221.952889 
L 132.769694 221.952889 
L 134.166862 219.226667 
L 135.561712 219.226667 
L 136.957547 221.952889 
L 138.350369 228.768444 
L 141.135819 228.768444 
L 143.921974 239.673333 
L 145.319559 239.673333 
L 146.714683 238.310222 
L 148.111042 235.584 
L 149.503854 235.584 
L 150.896784 227.405333 
L 152.289308 226.042222 
L 153.682812 223.316 
L 155.07566 223.316 
L 156.471443 221.952889 
L 159.258419 221.952889 
L 160.653991 209.684889 
L 162.046845 209.684889 
L 163.441035 208.321778 
L 164.834441 198.78 
L 166.231129 197.416889 
L 167.624485 197.416889 
L 169.017792 191.964444 
L 171.804856 191.964444 
L 173.200933 187.875111 
L 174.593877 189.238222 
L 175.98718 189.238222 
L 177.380363 174.244 
L 178.77411 166.065333 
L 180.168474 166.065333 
L 181.56424 141.529333 
L 182.960732 126.535111 
L 184.355696 126.535111 
L 188.542762 63.832 
L 189.939081 63.832 
L 191.335017 61.105778 
L 192.730783 61.105778 
L 194.127029 57.016444 
L 195.524267 76.1 
L 196.921233 84.278667 
L 198.317583 84.278667 
L 199.711514 87.004889 
L 202.498276 87.004889 
L 203.892405 92.457333 
L 205.285934 100.636 
L 206.68173 101.999111 
L 208.077552 101.999111 
L 209.471038 116.993333 
L 210.864795 116.993333 
L 212.259229 133.350667 
L 213.653193 157.886667 
L 215.047409 166.065333 
L 216.4421 166.065333 
L 217.83561 176.970222 
L 219.2296 190.601333 
L 222.020286 190.601333 
L 223.414677 260.12 
L 301.646543 260.12 
L 303.017329 258.756889 
L 304.411456 245.125778 
L 305.804754 245.125778 
L 307.197228 236.947111 
L 308.593856 236.947111 
L 309.987392 232.857778 
L 311.380697 227.405333 
L 312.773962 227.405333 
L 314.168637 224.679111 
L 315.563874 223.316 
L 319.749108 223.316 
L 321.142351 227.405333 
L 322.538827 227.405333 
L 323.938097 234.220889 
L 325.331356 235.584 
L 328.12263 235.584 
L 329.518628 232.857778 
L 330.913574 232.857778 
L 332.306519 228.768444 
L 333.699799 234.220889 
L 335.092324 231.494667 
L 336.489738 231.494667 
L 337.882716 232.857778 
L 339.275648 230.131556 
L 340.669051 230.131556 
L 342.062189 228.768444 
L 344.850901 215.137333 
L 346.244816 215.137333 
L 347.638613 204.232444 
L 349.031753 204.232444 
L 350.425841 208.321778 
L 351.818845 204.232444 
L 353.211599 204.232444 
L 354.604407 202.869333 
L 355.997228 206.958667 
L 357.39283 206.958667 
L 358.79728 201.506222 
L 360.192386 202.869333 
L 361.585613 193.327556 
L 362.979417 193.327556 
L 364.374215 179.696444 
L 365.770667 168.791556 
L 367.165219 168.791556 
L 368.562042 152.434222 
L 369.958674 130.624444 
L 371.351345 121.082667 
L 372.746017 121.082667 
L 374.139406 104.725333 
L 375.533444 99.272889 
L 376.927104 99.272889 
L 378.321552 82.915556 
L 379.71713 82.915556 
L 381.110639 69.284444 
L 382.505374 63.832 
L 383.899622 51.564 
L 385.293935 51.564 
L 386.687338 58.379556 
L 388.081682 37.932889 
L 389.477172 37.932889 
L 390.870313 46.111556 
L 392.264481 32.480444 
L 393.658643 32.480444 
L 395.05278 36.569778 
L 396.445632 31.117333 
L 397.839982 31.117333 
L 399.234398 29.754222 
L 400.630456 44.748444 
L 402.024587 63.832 
L 403.419016 63.832 
L 404.81294 77.463111 
L 406.209596 92.457333 
L 407.603047 92.457333 
L 408.996801 101.999111 
L 410.390923 108.814667 
L 411.784602 108.814667 
L 413.179656 134.713778 
L 414.574014 136.076889 
L 415.967723 136.076889 
L 417.362242 142.892444 
L 418.756335 260.12 
L 496.987425 260.12 
L 498.380993 258.756889 
L 499.774515 246.488889 
L 501.170331 246.488889 
L 502.563148 235.584 
L 503.956525 228.768444 
L 505.350657 220.589778 
L 506.743876 220.589778 
L 508.138379 215.137333 
L 509.53409 215.137333 
L 512.323653 204.232444 
L 513.719483 211.048 
L 515.1139 211.048 
L 517.902631 205.595556 
L 519.296414 205.595556 
L 520.690726 211.048 
L 522.084989 211.048 
L 523.480963 224.679111 
L 524.874549 224.679111 
L 526.268698 220.589778 
L 527.662479 220.589778 
L 529.061385 223.316 
L 530.455054 221.952889 
L 531.851595 221.952889 
L 533.246957 227.405333 
L 534.641071 223.316 
L 536.035192 223.316 
L 538.826893 215.137333 
L 540.222376 215.137333 
L 541.618174 212.411111 
L 543.012731 211.048 
L 544.4071 205.595556 
L 545.800914 205.595556 
L 547.195875 201.506222 
L 548.589818 200.143111 
L 549.983712 200.143111 
L 551.377959 197.416889 
L 552.772412 198.78 
L 554.166807 198.78 
L 555.560896 189.238222 
L 556.954947 183.785778 
L 558.349887 174.244 
L 559.742811 175.607111 
L 561.142037 172.880889 
L 562.536707 172.880889 
L 563.931934 167.428444 
L 565.330157 152.434222 
L 566.723471 144.255556 
L 568.116615 144.255556 
L 569.510901 121.082667 
L 570.905735 103.362222 
L 572.300485 103.362222 
L 573.697404 76.1 
L 575.091336 54.290222 
L 576.483925 54.290222 
L 577.877065 35.206667 
L 579.274251 32.480444 
L 580.667466 32.480444 
L 582.060877 28.391111 
L 583.456525 39.296 
L 584.853098 39.296 
L 586.245802 40.659111 
L 587.641943 54.290222 
L 589.042159 63.832 
L 590.436892 63.832 
L 593.22893 108.814667 
L 594.626092 108.814667 
L 596.021873 126.535111 
L 597.416724 141.529333 
L 598.811298 160.612889 
L 600.205924 160.612889 
L 601.59966 172.880889 
L 602.993985 172.880889 
L 604.390273 189.238222 
L 607.180174 200.143111 
L 608.574904 200.143111 
L 609.970067 201.506222 
L 615.546888 201.506222 
L 616.942006 260.12 
L 691.025983 260.12 
L 692.397129 257.393778 
L 693.79084 257.393778 
L 695.187023 249.215111 
L 696.580074 249.215111 
L 697.97272 247.852 
L 699.365368 239.673333 
L 702.152286 239.673333 
L 704.941865 234.220889 
L 706.334862 234.220889 
L 707.728279 238.310222 
L 709.121996 239.673333 
L 710.514598 239.673333 
L 713.30148 236.947111 
L 714.694671 236.947111 
L 716.088413 235.584 
L 717.481964 231.494667 
L 718.874582 232.857778 
L 721.66486 232.857778 
L 723.05777 234.220889 
L 724.452248 234.220889 
L 725.845008 227.405333 
L 727.238867 223.316 
L 728.632167 223.316 
L 730.02818 217.863556 
L 732.815306 217.863556 
L 734.208757 215.137333 
L 735.60336 217.863556 
L 736.999664 217.863556 
L 738.393804 228.768444 
L 739.790383 226.042222 
L 741.186124 219.226667 
L 742.579507 219.226667 
L 743.973776 215.137333 
L 745.369813 209.684889 
L 746.764896 209.684889 
L 748.15855 206.958667 
L 749.55708 206.958667 
L 750.95305 201.506222 
L 752.346815 204.232444 
L 753.742793 190.601333 
L 755.136598 190.601333 
L 756.530784 171.517778 
L 757.925764 161.976 
L 759.321249 161.976 
L 760.717173 144.255556 
L 762.111865 122.445778 
L 763.50776 122.445778 
L 764.901848 100.636 
L 766.296074 101.999111 
L 767.690373 91.094222 
L 769.0861 91.094222 
L 770.47992 88.368 
L 771.873976 72.010667 
L 773.268148 72.010667 
L 774.662477 50.200889 
L 776.05714 35.206667 
L 777.4516 35.206667 
L 778.845882 40.659111 
L 780.239881 31.117333 
L 781.634413 31.117333 
L 783.028943 39.296 
L 784.423869 50.200889 
L 785.817441 50.200889 
L 787.211689 51.564 
L 790.000219 67.921333 
L 794.182121 67.921333 
L 795.576654 87.004889 
L 796.971596 96.546667 
L 798.366654 96.546667 
L 799.760545 127.898222 
L 801.154432 146.981778 
L 802.550501 163.339111 
L 803.944544 163.339111 
L 805.338756 168.791556 
L 806.733564 176.970222 
L 808.128205 179.696444 
L 812.310596 179.696444 
L 813.704624 260.12 
L 886.418678 260.12 
L 887.789044 257.393778 
L 889.182681 257.393778 
L 890.575555 243.762667 
L 891.969011 223.316 
L 893.364943 216.500444 
L 894.758017 216.500444 
L 896.154013 208.321778 
L 898.943841 208.321778 
L 900.339637 197.416889 
L 903.131706 197.416889 
L 904.528708 193.327556 
L 908.710856 193.327556 
L 910.105251 189.238222 
L 911.500101 189.238222 
L 912.894629 191.964444 
L 914.288675 198.78 
L 915.682738 198.78 
L 917.077061 194.690667 
L 921.259286 194.690667 
L 922.651882 196.053778 
L 924.045779 196.053778 
L 925.440439 190.601333 
L 926.833705 200.143111 
L 928.22799 200.143111 
L 931.014439 202.869333 
L 932.407989 196.053778 
L 933.802045 196.053778 
L 935.19588 194.690667 
L 936.589982 197.416889 
L 937.985094 197.416889 
L 939.380836 190.601333 
L 940.775683 194.690667 
L 942.169933 194.690667 
L 943.564141 186.512 
L 944.958929 185.148889 
L 946.351734 185.148889 
L 947.744716 189.238222 
L 949.140733 182.422667 
L 950.533928 174.244 
L 951.927882 174.244 
L 953.321329 191.964444 
L 954.71549 191.964444 
L 956.109867 181.059556 
L 957.505039 164.702222 
L 958.898784 146.981778 
L 960.295292 146.981778 
L 961.689157 133.350667 
L 963.083424 130.624444 
L 964.476639 130.624444 
L 965.870129 140.166222 
L 967.263829 137.44 
L 968.659595 131.987556 
L 970.053574 131.987556 
L 971.446793 123.808889 
L 972.843087 123.808889 
L 974.239343 108.814667 
L 975.633639 101.999111 
L 977.02667 97.909778 
L 978.423949 97.909778 
L 979.81789 96.546667 
L 981.210796 96.546667 
L 982.604333 95.183556 
L 983.998351 104.725333 
L 985.391645 119.719556 
L 986.784788 119.719556 
L 988.178376 121.082667 
L 989.571454 123.808889 
L 990.964121 123.808889 
L 992.357624 134.713778 
L 993.750524 140.166222 
L 995.14414 140.166222 
L 996.537363 155.160444 
L 997.930323 161.976 
L 999.326969 161.976 
L 1000.720402 163.339111 
L 1002.116462 167.428444 
L 1003.512981 167.428444 
L 1004.909916 179.696444 
L 1006.306472 260.12 
L 1084.507143 260.12 
L 1085.899587 250.578222 
L 1087.292725 246.488889 
L 1088.688231 238.310222 
L 1090.083841 238.310222 
L 1092.869841 224.679111 
L 1094.264209 224.679111 
L 1095.656978 220.589778 
L 1097.050416 211.048 
L 1098.443826 211.048 
L 1099.837022 206.958667 
L 1101.229587 200.143111 
L 1102.622152 200.143111 
L 1104.014836 191.964444 
L 1105.407255 186.512 
L 1106.7994 186.512 
L 1109.585463 178.333333 
L 1110.978483 171.517778 
L 1112.371014 171.517778 
L 1113.766394 164.702222 
L 1115.158613 164.702222 
L 1116.553924 163.339111 
L 1117.947647 151.071111 
L 1119.342173 153.797333 
L 1120.735699 153.797333 
L 1122.128156 148.344889 
L 1123.523637 146.981778 
L 1124.919313 146.981778 
L 1126.31253 149.708 
L 1127.708101 153.797333 
L 1129.100281 166.065333 
L 1130.493509 166.065333 
L 1131.886312 171.517778 
L 1133.28 171.517778 
L 1133.28 171.517778 
" style="fill:none;stroke:#1f77b4;stroke-linecap:square;stroke-width:1.5;"/>
   </g>
   <g id="patch_3">
    <path d="M 33.64 260.12 
L 33.64 14.76 
" style="fill:none;stroke:#000000;stroke-linecap:square;stroke-linejoin:miter;stroke-width:0.8;"/>
   </g>
   <g id="patch_4">
    <path d="M 1133.28 260.12 
L 1133.28 14.76 
" style="fill:none;stroke:#000000;stroke-linecap:square;stroke-linejoin:miter;stroke-width:0.8;"/>
   </g>
   <g id="patch_5">
    <path d="M 33.64 260.12 
L 1133.28 260.12 
" style="fill:none;stroke:#000000;stroke-linecap:square;stroke-linejoin:miter;stroke-width:0.8;"/>
   </g>
   <g id="patch_6">
    <path d="M 33.64 14.76 
L 1133.28 14.76 
" style="fill:none;stroke:#000000;stroke-linecap:square;stroke-linejoin:miter;stroke-width:0.8;"/>
   </g>
  </g>
 </g>
 <defs>
  <clipPath id="p10e798e15a">
   <rect height="245.36" width="1099.64" x="33.64" y="14.76"/>
  </clipPath>
 </defs>
</svg>
