<?xml version="1.0" encoding="utf-8" standalone="no"?>
<!DOCTYPE svg PUBLIC "-//W3C//DTD SVG 1.1//EN"
  "http://www.w3.org/Graphics/SVG/1.1/DTD/svg11.dtd">
<!-- Created with matplotlib (https://matplotlib.org/) -->
<svg height="288pt" version="1.1" viewBox="0 0 1152 288" width="1152pt" xmlns="http://www.w3.org/2000/svg" xmlns:xlink="http://www.w3.org/1999/xlink">
 <defs>
  <style type="text/css">
*{stroke-linecap:butt;stroke-linejoin:round;}
  </style>
 </defs>
 <g id="figure_1">
  <g id="patch_1">
   <path d="M 0 288 
L 1152 288 
L 1152 0 
L 0 0 
z
" style="fill:#ffffff;"/>
  </g>
  <g id="axes_1">
   <g id="patch_2">
    <path d="M 33.64 260.12 
L 1133.28 260.12 
L 1133.28 14.76 
L 33.64 14.76 
z
" style="fill:#ffffff;"/>
   </g>
   <g id="matplotlib.axis_1">
    <g id="xtick_1">
     <g id="line2d_1">
      <defs>
       <path d="M 0 0 
L 0 3.5 
" id="m841d2f3149" style="stroke:#000000;stroke-width:0.8;"/>
      </defs>
      <g>
       <use style="stroke:#000000;stroke-width:0.8;" x="195.225364" xlink:href="#m841d2f3149" y="260.12"/>
      </g>
     </g>
     <g id="text_1">
      <!-- Tue 00:00 -->
      <defs>
       <path d="M -0.296875 72.90625 
L 61.375 72.90625 
L 61.375 64.59375 
L 35.5 64.59375 
L 35.5 0 
L 25.59375 0 
L 25.59375 64.59375 
L -0.296875 64.59375 
z
" id="DejaVuSans-84"/>
       <path d="M 8.5 21.578125 
L 8.5 54.6875 
L 17.484375 54.6875 
L 17.484375 21.921875 
Q 17.484375 14.15625 20.5 10.265625 
Q 23.53125 6.390625 29.59375 6.390625 
Q 36.859375 6.390625 41.078125 11.03125 
Q 45.3125 15.671875 45.3125 23.6875 
L 45.3125 54.6875 
L 54.296875 54.6875 
L 54.296875 0 
L 45.3125 0 
L 45.3125 8.40625 
Q 42.046875 3.421875 37.71875 1 
Q 33.40625 -1.421875 27.6875 -1.421875 
Q 18.265625 -1.421875 13.375 4.4375 
Q 8.5 10.296875 8.5 21.578125 
z
M 31.109375 56 
z
" id="DejaVuSans-117"/>
       <path d="M 56.203125 29.59375 
L 56.203125 25.203125 
L 14.890625 25.203125 
Q 15.484375 15.921875 20.484375 11.0625 
Q 25.484375 6.203125 34.421875 6.203125 
Q 39.59375 6.203125 44.453125 7.46875 
Q 49.3125 8.734375 54.109375 11.28125 
L 54.109375 2.78125 
Q 49.265625 0.734375 44.1875 -0.34375 
Q 39.109375 -1.421875 33.890625 -1.421875 
Q 20.796875 -1.421875 13.15625 6.1875 
Q 5.515625 13.8125 5.515625 26.8125 
Q 5.515625 40.234375 12.765625 48.109375 
Q 20.015625 56 32.328125 56 
Q 43.359375 56 49.78125 48.890625 
Q 56.203125 41.796875 56.203125 29.59375 
z
M 47.21875 32.234375 
Q 47.125 39.59375 43.09375 43.984375 
Q 39.0625 48.390625 32.421875 48.390625 
Q 24.90625 48.390625 20.390625 44.140625 
Q 15.875 39.890625 15.1875 32.171875 
z
" id="DejaVuSans-101"/>
       <path id="DejaVuSans-32"/>
       <path d="M 31.78125 66.40625 
Q 24.171875 66.40625 20.328125 58.90625 
Q 16.5 51.421875 16.5 36.375 
Q 16.5 21.390625 20.328125 13.890625 
Q 24.171875 6.390625 31.78125 6.390625 
Q 39.453125 6.390625 43.28125 13.890625 
Q 47.125 21.390625 47.125 36.375 
Q 47.125 51.421875 43.28125 58.90625 
Q 39.453125 66.40625 31.78125 66.40625 
z
M 31.78125 74.21875 
Q 44.046875 74.21875 50.515625 64.515625 
Q 56.984375 54.828125 56.984375 36.375 
Q 56.984375 17.96875 50.515625 8.265625 
Q 44.046875 -1.421875 31.78125 -1.421875 
Q 19.53125 -1.421875 13.0625 8.265625 
Q 6.59375 17.96875 6.59375 36.375 
Q 6.59375 54.828125 13.0625 64.515625 
Q 19.53125 74.21875 31.78125 74.21875 
z
" id="DejaVuSans-48"/>
       <path d="M 11.71875 12.40625 
L 22.015625 12.40625 
L 22.015625 0 
L 11.71875 0 
z
M 11.71875 51.703125 
L 22.015625 51.703125 
L 22.015625 39.3125 
L 11.71875 39.3125 
z
" id="DejaVuSans-58"/>
      </defs>
      <g transform="translate(169.939426 274.718437)scale(0.1 -0.1)">
       <use xlink:href="#DejaVuSans-84"/>
       <use x="60.849609" xlink:href="#DejaVuSans-117"/>
       <use x="124.228516" xlink:href="#DejaVuSans-101"/>
       <use x="185.751953" xlink:href="#DejaVuSans-32"/>
       <use x="217.539062" xlink:href="#DejaVuSans-48"/>
       <use x="281.162109" xlink:href="#DejaVuSans-48"/>
       <use x="344.785156" xlink:href="#DejaVuSans-58"/>
       <use x="378.476562" xlink:href="#DejaVuSans-48"/>
       <use x="442.099609" xlink:href="#DejaVuSans-48"/>
      </g>
     </g>
    </g>
    <g id="xtick_2">
     <g id="line2d_2">
      <g>
       <use style="stroke:#000000;stroke-width:0.8;" x="356.883093" xlink:href="#m841d2f3149" y="260.12"/>
      </g>
     </g>
     <g id="text_2">
      <!-- Wed 00:00 -->
      <defs>
       <path d="M 3.328125 72.90625 
L 13.28125 72.90625 
L 28.609375 11.28125 
L 43.890625 72.90625 
L 54.984375 72.90625 
L 70.3125 11.28125 
L 85.59375 72.90625 
L 95.609375 72.90625 
L 77.296875 0 
L 64.890625 0 
L 49.515625 63.28125 
L 33.984375 0 
L 21.578125 0 
z
" id="DejaVuSans-87"/>
       <path d="M 45.40625 46.390625 
L 45.40625 75.984375 
L 54.390625 75.984375 
L 54.390625 0 
L 45.40625 0 
L 45.40625 8.203125 
Q 42.578125 3.328125 38.25 0.953125 
Q 33.9375 -1.421875 27.875 -1.421875 
Q 17.96875 -1.421875 11.734375 6.484375 
Q 5.515625 14.40625 5.515625 27.296875 
Q 5.515625 40.1875 11.734375 48.09375 
Q 17.96875 56 27.875 56 
Q 33.9375 56 38.25 53.625 
Q 42.578125 51.265625 45.40625 46.390625 
z
M 14.796875 27.296875 
Q 14.796875 17.390625 18.875 11.75 
Q 22.953125 6.109375 30.078125 6.109375 
Q 37.203125 6.109375 41.296875 11.75 
Q 45.40625 17.390625 45.40625 27.296875 
Q 45.40625 37.203125 41.296875 42.84375 
Q 37.203125 48.484375 30.078125 48.484375 
Q 22.953125 48.484375 18.875 42.84375 
Q 14.796875 37.203125 14.796875 27.296875 
z
" id="DejaVuSans-100"/>
      </defs>
      <g transform="translate(329.69403 274.718437)scale(0.1 -0.1)">
       <use xlink:href="#DejaVuSans-87"/>
       <use x="98.798828" xlink:href="#DejaVuSans-101"/>
       <use x="160.322266" xlink:href="#DejaVuSans-100"/>
       <use x="223.798828" xlink:href="#DejaVuSans-32"/>
       <use x="255.585938" xlink:href="#DejaVuSans-48"/>
       <use x="319.208984" xlink:href="#DejaVuSans-48"/>
       <use x="382.832031" xlink:href="#DejaVuSans-58"/>
       <use x="416.523438" xlink:href="#DejaVuSans-48"/>
       <use x="480.146484" xlink:href="#DejaVuSans-48"/>
      </g>
     </g>
    </g>
    <g id="xtick_3">
     <g id="line2d_3">
      <g>
       <use style="stroke:#000000;stroke-width:0.8;" x="518.540821" xlink:href="#m841d2f3149" y="260.12"/>
      </g>
     </g>
     <g id="text_3">
      <!-- Thu 00:00 -->
      <defs>
       <path d="M 54.890625 33.015625 
L 54.890625 0 
L 45.90625 0 
L 45.90625 32.71875 
Q 45.90625 40.484375 42.875 44.328125 
Q 39.84375 48.1875 33.796875 48.1875 
Q 26.515625 48.1875 22.3125 43.546875 
Q 18.109375 38.921875 18.109375 30.90625 
L 18.109375 0 
L 9.078125 0 
L 9.078125 75.984375 
L 18.109375 75.984375 
L 18.109375 46.1875 
Q 21.34375 51.125 25.703125 53.5625 
Q 30.078125 56 35.796875 56 
Q 45.21875 56 50.046875 50.171875 
Q 54.890625 44.34375 54.890625 33.015625 
z
" id="DejaVuSans-104"/>
      </defs>
      <g transform="translate(493.150978 274.718437)scale(0.1 -0.1)">
       <use xlink:href="#DejaVuSans-84"/>
       <use x="61.083984" xlink:href="#DejaVuSans-104"/>
       <use x="124.462891" xlink:href="#DejaVuSans-117"/>
       <use x="187.841797" xlink:href="#DejaVuSans-32"/>
       <use x="219.628906" xlink:href="#DejaVuSans-48"/>
       <use x="283.251953" xlink:href="#DejaVuSans-48"/>
       <use x="346.875" xlink:href="#DejaVuSans-58"/>
       <use x="380.566406" xlink:href="#DejaVuSans-48"/>
       <use x="444.189453" xlink:href="#DejaVuSans-48"/>
      </g>
     </g>
    </g>
    <g id="xtick_4">
     <g id="line2d_4">
      <g>
       <use style="stroke:#000000;stroke-width:0.8;" x="680.19855" xlink:href="#m841d2f3149" y="260.12"/>
      </g>
     </g>
     <g id="text_4">
      <!-- Fri 00:00 -->
      <defs>
       <path d="M 9.8125 72.90625 
L 51.703125 72.90625 
L 51.703125 64.59375 
L 19.671875 64.59375 
L 19.671875 43.109375 
L 48.578125 43.109375 
L 48.578125 34.8125 
L 19.671875 34.8125 
L 19.671875 0 
L 9.8125 0 
z
" id="DejaVuSans-70"/>
       <path d="M 41.109375 46.296875 
Q 39.59375 47.171875 37.8125 47.578125 
Q 36.03125 48 33.890625 48 
Q 26.265625 48 22.1875 43.046875 
Q 18.109375 38.09375 18.109375 28.8125 
L 18.109375 0 
L 9.078125 0 
L 9.078125 54.6875 
L 18.109375 54.6875 
L 18.109375 46.1875 
Q 20.953125 51.171875 25.484375 53.578125 
Q 30.03125 56 36.53125 56 
Q 37.453125 56 38.578125 55.875 
Q 39.703125 55.765625 41.0625 55.515625 
z
" id="DejaVuSans-114"/>
       <path d="M 9.421875 54.6875 
L 18.40625 54.6875 
L 18.40625 0 
L 9.421875 0 
z
M 9.421875 75.984375 
L 18.40625 75.984375 
L 18.40625 64.59375 
L 9.421875 64.59375 
z
" id="DejaVuSans-105"/>
      </defs>
      <g transform="translate(657.885269 274.718437)scale(0.1 -0.1)">
       <use xlink:href="#DejaVuSans-70"/>
       <use x="57.410156" xlink:href="#DejaVuSans-114"/>
       <use x="98.523438" xlink:href="#DejaVuSans-105"/>
       <use x="126.306641" xlink:href="#DejaVuSans-32"/>
       <use x="158.09375" xlink:href="#DejaVuSans-48"/>
       <use x="221.716797" xlink:href="#DejaVuSans-48"/>
       <use x="285.339844" xlink:href="#DejaVuSans-58"/>
       <use x="319.03125" xlink:href="#DejaVuSans-48"/>
       <use x="382.654297" xlink:href="#DejaVuSans-48"/>
      </g>
     </g>
    </g>
    <g id="xtick_5">
     <g id="line2d_5">
      <g>
       <use style="stroke:#000000;stroke-width:0.8;" x="841.856279" xlink:href="#m841d2f3149" y="260.12"/>
      </g>
     </g>
     <g id="text_5">
      <!-- Sat 00:00 -->
      <defs>
       <path d="M 53.515625 70.515625 
L 53.515625 60.890625 
Q 47.90625 63.578125 42.921875 64.890625 
Q 37.9375 66.21875 33.296875 66.21875 
Q 25.25 66.21875 20.875 63.09375 
Q 16.5 59.96875 16.5 54.203125 
Q 16.5 49.359375 19.40625 46.890625 
Q 22.3125 44.4375 30.421875 42.921875 
L 36.375 41.703125 
Q 47.40625 39.59375 52.65625 34.296875 
Q 57.90625 29 57.90625 20.125 
Q 57.90625 9.515625 50.796875 4.046875 
Q 43.703125 -1.421875 29.984375 -1.421875 
Q 24.8125 -1.421875 18.96875 -0.25 
Q 13.140625 0.921875 6.890625 3.21875 
L 6.890625 13.375 
Q 12.890625 10.015625 18.65625 8.296875 
Q 24.421875 6.59375 29.984375 6.59375 
Q 38.421875 6.59375 43.015625 9.90625 
Q 47.609375 13.234375 47.609375 19.390625 
Q 47.609375 24.75 44.3125 27.78125 
Q 41.015625 30.8125 33.5 32.328125 
L 27.484375 33.5 
Q 16.453125 35.6875 11.515625 40.375 
Q 6.59375 45.0625 6.59375 53.421875 
Q 6.59375 63.09375 13.40625 68.65625 
Q 20.21875 74.21875 32.171875 74.21875 
Q 37.3125 74.21875 42.625 73.28125 
Q 47.953125 72.359375 53.515625 70.515625 
z
" id="DejaVuSans-83"/>
       <path d="M 34.28125 27.484375 
Q 23.390625 27.484375 19.1875 25 
Q 14.984375 22.515625 14.984375 16.5 
Q 14.984375 11.71875 18.140625 8.90625 
Q 21.296875 6.109375 26.703125 6.109375 
Q 34.1875 6.109375 38.703125 11.40625 
Q 43.21875 16.703125 43.21875 25.484375 
L 43.21875 27.484375 
z
M 52.203125 31.203125 
L 52.203125 0 
L 43.21875 0 
L 43.21875 8.296875 
Q 40.140625 3.328125 35.546875 0.953125 
Q 30.953125 -1.421875 24.3125 -1.421875 
Q 15.921875 -1.421875 10.953125 3.296875 
Q 6 8.015625 6 15.921875 
Q 6 25.140625 12.171875 29.828125 
Q 18.359375 34.515625 30.609375 34.515625 
L 43.21875 34.515625 
L 43.21875 35.40625 
Q 43.21875 41.609375 39.140625 45 
Q 35.0625 48.390625 27.6875 48.390625 
Q 23 48.390625 18.546875 47.265625 
Q 14.109375 46.140625 10.015625 43.890625 
L 10.015625 52.203125 
Q 14.9375 54.109375 19.578125 55.046875 
Q 24.21875 56 28.609375 56 
Q 40.484375 56 46.34375 49.84375 
Q 52.203125 43.703125 52.203125 31.203125 
z
" id="DejaVuSans-97"/>
       <path d="M 18.3125 70.21875 
L 18.3125 54.6875 
L 36.8125 54.6875 
L 36.8125 47.703125 
L 18.3125 47.703125 
L 18.3125 18.015625 
Q 18.3125 11.328125 20.140625 9.421875 
Q 21.96875 7.515625 27.59375 7.515625 
L 36.8125 7.515625 
L 36.8125 0 
L 27.59375 0 
Q 17.1875 0 13.234375 3.875 
Q 9.28125 7.765625 9.28125 18.015625 
L 9.28125 47.703125 
L 2.6875 47.703125 
L 2.6875 54.6875 
L 9.28125 54.6875 
L 9.28125 70.21875 
z
" id="DejaVuSans-116"/>
      </defs>
      <g transform="translate(817.659404 274.718437)scale(0.1 -0.1)">
       <use xlink:href="#DejaVuSans-83"/>
       <use x="63.476562" xlink:href="#DejaVuSans-97"/>
       <use x="124.755859" xlink:href="#DejaVuSans-116"/>
       <use x="163.964844" xlink:href="#DejaVuSans-32"/>
       <use x="195.751953" xlink:href="#DejaVuSans-48"/>
       <use x="259.375" xlink:href="#DejaVuSans-48"/>
       <use x="322.998047" xlink:href="#DejaVuSans-58"/>
       <use x="356.689453" xlink:href="#DejaVuSans-48"/>
       <use x="420.3125" xlink:href="#DejaVuSans-48"/>
      </g>
     </g>
    </g>
    <g id="xtick_6">
     <g id="line2d_6">
      <g>
       <use style="stroke:#000000;stroke-width:0.8;" x="1003.514008" xlink:href="#m841d2f3149" y="260.12"/>
      </g>
     </g>
     <g id="text_6">
      <!-- Sun 00:00 -->
      <defs>
       <path d="M 54.890625 33.015625 
L 54.890625 0 
L 45.90625 0 
L 45.90625 32.71875 
Q 45.90625 40.484375 42.875 44.328125 
Q 39.84375 48.1875 33.796875 48.1875 
Q 26.515625 48.1875 22.3125 43.546875 
Q 18.109375 38.921875 18.109375 30.90625 
L 18.109375 0 
L 9.078125 0 
L 9.078125 54.6875 
L 18.109375 54.6875 
L 18.109375 46.1875 
Q 21.34375 51.125 25.703125 53.5625 
Q 30.078125 56 35.796875 56 
Q 45.21875 56 50.046875 50.171875 
Q 54.890625 44.34375 54.890625 33.015625 
z
" id="DejaVuSans-110"/>
      </defs>
      <g transform="translate(978.003852 274.718437)scale(0.1 -0.1)">
       <use xlink:href="#DejaVuSans-83"/>
       <use x="63.476562" xlink:href="#DejaVuSans-117"/>
       <use x="126.855469" xlink:href="#DejaVuSans-110"/>
       <use x="190.234375" xlink:href="#DejaVuSans-32"/>
       <use x="222.021484" xlink:href="#DejaVuSans-48"/>
       <use x="285.644531" xlink:href="#DejaVuSans-48"/>
       <use x="349.267578" xlink:href="#DejaVuSans-58"/>
       <use x="382.958984" xlink:href="#DejaVuSans-48"/>
       <use x="446.582031" xlink:href="#DejaVuSans-48"/>
      </g>
     </g>
    </g>
   </g>
   <g id="matplotlib.axis_2">
    <g id="ytick_1">
     <g id="line2d_7">
      <defs>
       <path d="M 0 0 
L -3.5 0 
" id="mc17c787357" style="stroke:#000000;stroke-width:0.8;"/>
      </defs>
      <g>
       <use style="stroke:#000000;stroke-width:0.8;" x="33.64" xlink:href="#mc17c787357" y="260.12"/>
      </g>
     </g>
     <g id="text_7">
      <!-- 0 -->
      <g transform="translate(20.2775 263.919219)scale(0.1 -0.1)">
       <use xlink:href="#DejaVuSans-48"/>
      </g>
     </g>
    </g>
    <g id="ytick_2">
     <g id="line2d_8">
      <g>
       <use style="stroke:#000000;stroke-width:0.8;" x="33.64" xlink:href="#mc17c787357" y="232.857778"/>
      </g>
     </g>
     <g id="text_8">
      <!-- 20 -->
      <defs>
       <path d="M 19.1875 8.296875 
L 53.609375 8.296875 
L 53.609375 0 
L 7.328125 0 
L 7.328125 8.296875 
Q 12.9375 14.109375 22.625 23.890625 
Q 32.328125 33.6875 34.8125 36.53125 
Q 39.546875 41.84375 41.421875 45.53125 
Q 43.3125 49.21875 43.3125 52.78125 
Q 43.3125 58.59375 39.234375 62.25 
Q 35.15625 65.921875 28.609375 65.921875 
Q 23.96875 65.921875 18.8125 64.3125 
Q 13.671875 62.703125 7.8125 59.421875 
L 7.8125 69.390625 
Q 13.765625 71.78125 18.9375 73 
Q 24.125 74.21875 28.421875 74.21875 
Q 39.75 74.21875 46.484375 68.546875 
Q 53.21875 62.890625 53.21875 53.421875 
Q 53.21875 48.921875 51.53125 44.890625 
Q 49.859375 40.875 45.40625 35.40625 
Q 44.1875 33.984375 37.640625 27.21875 
Q 31.109375 20.453125 19.1875 8.296875 
z
" id="DejaVuSans-50"/>
      </defs>
      <g transform="translate(13.915 236.656997)scale(0.1 -0.1)">
       <use xlink:href="#DejaVuSans-50"/>
       <use x="63.623047" xlink:href="#DejaVuSans-48"/>
      </g>
     </g>
    </g>
    <g id="ytick_3">
     <g id="line2d_9">
      <g>
       <use style="stroke:#000000;stroke-width:0.8;" x="33.64" xlink:href="#mc17c787357" y="205.595556"/>
      </g>
     </g>
     <g id="text_9">
      <!-- 40 -->
      <defs>
       <path d="M 37.796875 64.3125 
L 12.890625 25.390625 
L 37.796875 25.390625 
z
M 35.203125 72.90625 
L 47.609375 72.90625 
L 47.609375 25.390625 
L 58.015625 25.390625 
L 58.015625 17.1875 
L 47.609375 17.1875 
L 47.609375 0 
L 37.796875 0 
L 37.796875 17.1875 
L 4.890625 17.1875 
L 4.890625 26.703125 
z
" id="DejaVuSans-52"/>
      </defs>
      <g transform="translate(13.915 209.394774)scale(0.1 -0.1)">
       <use xlink:href="#DejaVuSans-52"/>
       <use x="63.623047" xlink:href="#DejaVuSans-48"/>
      </g>
     </g>
    </g>
    <g id="ytick_4">
     <g id="line2d_10">
      <g>
       <use style="stroke:#000000;stroke-width:0.8;" x="33.64" xlink:href="#mc17c787357" y="178.333333"/>
      </g>
     </g>
     <g id="text_10">
      <!-- 60 -->
      <defs>
       <path d="M 33.015625 40.375 
Q 26.375 40.375 22.484375 35.828125 
Q 18.609375 31.296875 18.609375 23.390625 
Q 18.609375 15.53125 22.484375 10.953125 
Q 26.375 6.390625 33.015625 6.390625 
Q 39.65625 6.390625 43.53125 10.953125 
Q 47.40625 15.53125 47.40625 23.390625 
Q 47.40625 31.296875 43.53125 35.828125 
Q 39.65625 40.375 33.015625 40.375 
z
M 52.59375 71.296875 
L 52.59375 62.3125 
Q 48.875 64.0625 45.09375 64.984375 
Q 41.3125 65.921875 37.59375 65.921875 
Q 27.828125 65.921875 22.671875 59.328125 
Q 17.53125 52.734375 16.796875 39.40625 
Q 19.671875 43.65625 24.015625 45.921875 
Q 28.375 48.1875 33.59375 48.1875 
Q 44.578125 48.1875 50.953125 41.515625 
Q 57.328125 34.859375 57.328125 23.390625 
Q 57.328125 12.15625 50.6875 5.359375 
Q 44.046875 -1.421875 33.015625 -1.421875 
Q 20.359375 -1.421875 13.671875 8.265625 
Q 6.984375 17.96875 6.984375 36.375 
Q 6.984375 53.65625 15.1875 63.9375 
Q 23.390625 74.21875 37.203125 74.21875 
Q 40.921875 74.21875 44.703125 73.484375 
Q 48.484375 72.75 52.59375 71.296875 
z
" id="DejaVuSans-54"/>
      </defs>
      <g transform="translate(13.915 182.132552)scale(0.1 -0.1)">
       <use xlink:href="#DejaVuSans-54"/>
       <use x="63.623047" xlink:href="#DejaVuSans-48"/>
      </g>
     </g>
    </g>
    <g id="ytick_5">
     <g id="line2d_11">
      <g>
       <use style="stroke:#000000;stroke-width:0.8;" x="33.64" xlink:href="#mc17c787357" y="151.071111"/>
      </g>
     </g>
     <g id="text_11">
      <!-- 80 -->
      <defs>
       <path d="M 31.78125 34.625 
Q 24.75 34.625 20.71875 30.859375 
Q 16.703125 27.09375 16.703125 20.515625 
Q 16.703125 13.921875 20.71875 10.15625 
Q 24.75 6.390625 31.78125 6.390625 
Q 38.8125 6.390625 42.859375 10.171875 
Q 46.921875 13.96875 46.921875 20.515625 
Q 46.921875 27.09375 42.890625 30.859375 
Q 38.875 34.625 31.78125 34.625 
z
M 21.921875 38.8125 
Q 15.578125 40.375 12.03125 44.71875 
Q 8.5 49.078125 8.5 55.328125 
Q 8.5 64.0625 14.71875 69.140625 
Q 20.953125 74.21875 31.78125 74.21875 
Q 42.671875 74.21875 48.875 69.140625 
Q 55.078125 64.0625 55.078125 55.328125 
Q 55.078125 49.078125 51.53125 44.71875 
Q 48 40.375 41.703125 38.8125 
Q 48.828125 37.15625 52.796875 32.3125 
Q 56.78125 27.484375 56.78125 20.515625 
Q 56.78125 9.90625 50.3125 4.234375 
Q 43.84375 -1.421875 31.78125 -1.421875 
Q 19.734375 -1.421875 13.25 4.234375 
Q 6.78125 9.90625 6.78125 20.515625 
Q 6.78125 27.484375 10.78125 32.3125 
Q 14.796875 37.15625 21.921875 38.8125 
z
M 18.3125 54.390625 
Q 18.3125 48.734375 21.84375 45.5625 
Q 25.390625 42.390625 31.78125 42.390625 
Q 38.140625 42.390625 41.71875 45.5625 
Q 45.3125 48.734375 45.3125 54.390625 
Q 45.3125 60.0625 41.71875 63.234375 
Q 38.140625 66.40625 31.78125 66.40625 
Q 25.390625 66.40625 21.84375 63.234375 
Q 18.3125 60.0625 18.3125 54.390625 
z
" id="DejaVuSans-56"/>
      </defs>
      <g transform="translate(13.915 154.87033)scale(0.1 -0.1)">
       <use xlink:href="#DejaVuSans-56"/>
       <use x="63.623047" xlink:href="#DejaVuSans-48"/>
      </g>
     </g>
    </g>
    <g id="ytick_6">
     <g id="line2d_12">
      <g>
       <use style="stroke:#000000;stroke-width:0.8;" x="33.64" xlink:href="#mc17c787357" y="123.808889"/>
      </g>
     </g>
     <g id="text_12">
      <!-- 100 -->
      <defs>
       <path d="M 12.40625 8.296875 
L 28.515625 8.296875 
L 28.515625 63.921875 
L 10.984375 60.40625 
L 10.984375 69.390625 
L 28.421875 72.90625 
L 38.28125 72.90625 
L 38.28125 8.296875 
L 54.390625 8.296875 
L 54.390625 0 
L 12.40625 0 
z
" id="DejaVuSans-49"/>
      </defs>
      <g transform="translate(7.5525 127.608108)scale(0.1 -0.1)">
       <use xlink:href="#DejaVuSans-49"/>
       <use x="63.623047" xlink:href="#DejaVuSans-48"/>
       <use x="127.246094" xlink:href="#DejaVuSans-48"/>
      </g>
     </g>
    </g>
    <g id="ytick_7">
     <g id="line2d_13">
      <g>
       <use style="stroke:#000000;stroke-width:0.8;" x="33.64" xlink:href="#mc17c787357" y="96.546667"/>
      </g>
     </g>
     <g id="text_13">
      <!-- 120 -->
      <g transform="translate(7.5525 100.345885)scale(0.1 -0.1)">
       <use xlink:href="#DejaVuSans-49"/>
       <use x="63.623047" xlink:href="#DejaVuSans-50"/>
       <use x="127.246094" xlink:href="#DejaVuSans-48"/>
      </g>
     </g>
    </g>
    <g id="ytick_8">
     <g id="line2d_14">
      <g>
       <use style="stroke:#000000;stroke-width:0.8;" x="33.64" xlink:href="#mc17c787357" y="69.284444"/>
      </g>
     </g>
     <g id="text_14">
      <!-- 140 -->
      <g transform="translate(7.5525 73.083663)scale(0.1 -0.1)">
       <use xlink:href="#DejaVuSans-49"/>
       <use x="63.623047" xlink:href="#DejaVuSans-52"/>
       <use x="127.246094" xlink:href="#DejaVuSans-48"/>
      </g>
     </g>
    </g>
    <g id="ytick_9">
     <g id="line2d_15">
      <g>
       <use style="stroke:#000000;stroke-width:0.8;" x="33.64" xlink:href="#mc17c787357" y="42.022222"/>
      </g>
     </g>
     <g id="text_15">
      <!-- 160 -->
      <g transform="translate(7.5525 45.821441)scale(0.1 -0.1)">
       <use xlink:href="#DejaVuSans-49"/>
       <use x="63.623047" xlink:href="#DejaVuSans-54"/>
       <use x="127.246094" xlink:href="#DejaVuSans-48"/>
      </g>
     </g>
    </g>
    <g id="ytick_10">
     <g id="line2d_16">
      <g>
       <use style="stroke:#000000;stroke-width:0.8;" x="33.64" xlink:href="#mc17c787357" y="14.76"/>
      </g>
     </g>
     <g id="text_16">
      <!-- 180 -->
      <g transform="translate(7.5525 18.559219)scale(0.1 -0.1)">
       <use xlink:href="#DejaVuSans-49"/>
       <use x="63.623047" xlink:href="#DejaVuSans-56"/>
       <use x="127.246094" xlink:href="#DejaVuSans-48"/>
      </g>
     </g>
    </g>
   </g>
   <g id="line2d_17">
    <path clip-path="url(#p757527561e)" d="M 33.64 260.12 
L 93.844638 260.12 
L 94.980489 257.393778 
L 96.138594 257.393778 
L 97.292958 253.304444 
L 98.447119 251.941333 
L 99.603971 249.215111 
L 100.759326 249.215111 
L 101.916309 246.488889 
L 103.071776 242.399556 
L 104.226516 242.399556 
L 105.381834 236.947111 
L 106.538616 235.584 
L 107.694708 235.584 
L 108.851576 232.857778 
L 110.005799 228.768444 
L 112.316177 228.768444 
L 113.470579 224.679111 
L 114.626227 221.952889 
L 115.781887 221.952889 
L 116.939622 219.226667 
L 118.095438 219.226667 
L 119.252069 221.952889 
L 120.406204 228.768444 
L 122.714313 228.768444 
L 125.023006 239.673333 
L 126.181087 239.673333 
L 127.33713 238.310222 
L 128.494195 235.584 
L 129.648322 235.584 
L 130.802546 227.405333 
L 131.956434 226.042222 
L 133.111133 223.316 
L 134.26529 223.316 
L 135.421878 221.952889 
L 137.731251 221.952889 
L 138.887665 209.684889 
L 140.041827 209.684889 
L 141.197095 208.321778 
L 142.351713 198.78 
L 143.509052 197.416889 
L 144.663629 197.416889 
L 145.818166 191.964444 
L 148.127612 191.964444 
L 149.284444 187.875111 
L 150.438679 189.238222 
L 151.593213 189.238222 
L 152.747647 174.244 
L 153.902548 166.065333 
L 155.057961 166.065333 
L 156.214535 141.529333 
L 157.371711 126.535111 
L 158.527621 126.535111 
L 161.997151 63.832 
L 163.154184 63.832 
L 164.310899 61.105778 
L 165.467473 61.105778 
L 166.624445 57.016444 
L 167.782239 76.1 
L 168.939807 84.278667 
L 170.096866 84.278667 
L 171.251919 87.004889 
L 173.561115 87.004889 
L 174.716333 92.457333 
L 175.871054 100.636 
L 177.027653 101.999111 
L 178.184274 101.999111 
L 179.338958 116.993333 
L 180.493868 116.993333 
L 181.649339 133.350667 
L 182.804419 157.886667 
L 183.95971 166.065333 
L 185.115393 166.065333 
L 186.270098 176.970222 
L 187.425201 190.601333 
L 189.737648 190.601333 
L 190.893083 260.12 
L 255.718392 260.12 
L 256.854267 258.756889 
L 258.009483 245.125778 
L 259.164012 245.125778 
L 260.317859 236.947111 
L 261.475147 236.947111 
L 262.629874 232.857778 
L 263.784409 227.405333 
L 264.938911 227.405333 
L 266.09458 224.679111 
L 267.250717 223.316 
L 270.718729 223.316 
L 271.873213 227.405333 
L 273.030376 227.405333 
L 274.189854 234.220889 
L 275.34435 235.584 
L 277.657285 235.584 
L 278.814051 232.857778 
L 279.969946 232.857778 
L 281.124183 228.768444 
L 282.278697 234.220889 
L 283.432586 231.494667 
L 284.590526 231.494667 
L 285.744789 232.857778 
L 286.899016 230.131556 
L 288.053632 230.131556 
L 289.208028 228.768444 
L 291.51884 215.137333 
L 292.67388 215.137333 
L 293.828823 204.232444 
L 294.983222 204.232444 
L 296.138406 208.321778 
L 297.292691 204.232444 
L 298.446769 204.232444 
L 299.600893 202.869333 
L 300.755026 206.958667 
L 301.911465 206.958667 
L 303.075235 201.506222 
L 304.231262 202.869333 
L 305.385733 193.327556 
L 306.540682 193.327556 
L 307.696453 179.696444 
L 308.853596 168.791556 
L 310.009164 168.791556 
L 311.166614 152.434222 
L 312.323906 130.624444 
L 313.477916 121.082667 
L 314.633584 121.082667 
L 315.788188 104.725333 
L 316.943331 99.272889 
L 318.09816 99.272889 
L 319.253642 82.915556 
L 320.410061 82.915556 
L 321.564765 69.284444 
L 322.720484 63.832 
L 323.875801 51.564 
L 325.031171 51.564 
L 326.185787 58.379556 
L 327.341184 37.932889 
L 328.497528 37.932889 
L 329.651928 46.111556 
L 330.807178 32.480444 
L 331.962423 32.480444 
L 333.117648 36.569778 
L 334.271807 31.117333 
L 335.427208 31.117333 
L 336.582664 29.754222 
L 337.73948 44.748444 
L 338.894699 63.832 
L 340.050165 63.832 
L 341.205214 77.463111 
L 342.362526 92.457333 
L 343.517182 92.457333 
L 344.672088 101.999111 
L 345.8273 108.814667 
L 346.982145 108.814667 
L 348.13813 134.713778 
L 349.293537 136.076889 
L 350.448407 136.076889 
L 351.603948 142.892444 
L 352.759136 260.12 
L 417.583802 260.12 
L 418.738555 258.756889 
L 419.89327 246.488889 
L 421.049885 246.488889 
L 422.204016 235.584 
L 423.35861 228.768444 
L 424.513831 220.589778 
L 425.668295 220.589778 
L 426.823822 215.137333 
L 427.980351 215.137333 
L 430.291868 204.232444 
L 431.448495 211.048 
L 432.603952 211.048 
L 434.91478 205.595556 
L 436.069711 205.595556 
L 437.22508 211.048 
L 438.380408 211.048 
L 439.537156 224.679111 
L 440.691923 224.679111 
L 441.847158 220.589778 
L 443.002087 220.589778 
L 444.161263 223.316 
L 445.3161 221.952889 
L 446.473316 221.952889 
L 447.629556 227.405333 
L 448.784761 223.316 
L 449.939973 223.316 
L 452.253261 215.137333 
L 453.4096 215.137333 
L 454.566201 212.411111 
L 455.721773 211.048 
L 456.87719 205.595556 
L 458.032147 205.595556 
L 459.188054 201.506222 
L 460.343118 200.143111 
L 461.498141 200.143111 
L 462.653457 197.416889 
L 463.808943 198.78 
L 464.964381 198.78 
L 466.119566 189.238222 
L 467.274719 183.785778 
L 468.430609 174.244 
L 469.584828 175.607111 
L 470.74427 172.880889 
L 471.899935 172.880889 
L 473.056063 167.428444 
L 474.214673 152.434222 
L 475.369216 144.255556 
L 476.523617 144.255556 
L 477.678965 121.082667 
L 478.834767 103.362222 
L 479.9905 103.362222 
L 481.148029 76.1 
L 482.303084 54.290222 
L 483.457025 54.290222 
L 484.611424 35.206667 
L 485.769174 32.480444 
L 486.923635 32.480444 
L 488.078258 28.391111 
L 489.234735 39.296 
L 490.391977 39.296 
L 491.546014 40.659111 
L 492.702899 54.290222 
L 493.863161 63.832 
L 495.018879 63.832 
L 497.332447 108.814667 
L 498.490178 108.814667 
L 499.646765 126.535111 
L 500.802581 141.529333 
L 501.958168 160.612889 
L 503.113797 160.612889 
L 504.268689 172.880889 
L 505.424069 172.880889 
L 506.581076 189.238222 
L 508.892873 200.143111 
L 510.048589 200.143111 
L 511.204664 201.506222 
L 515.825788 201.506222 
L 516.981824 260.12 
L 578.370066 260.12 
L 579.50624 257.393778 
L 580.661112 257.393778 
L 581.818031 249.215111 
L 582.972356 249.215111 
L 584.126344 247.852 
L 585.280335 239.673333 
L 587.589661 239.673333 
L 589.90119 234.220889 
L 591.05547 234.220889 
L 592.210098 238.310222 
L 593.364974 239.673333 
L 594.518927 239.673333 
L 596.828223 236.947111 
L 597.982663 236.947111 
L 599.13756 235.584 
L 600.292299 231.494667 
L 601.446264 232.857778 
L 603.758374 232.857778 
L 604.912582 234.220889 
L 606.068089 234.220889 
L 607.222173 227.405333 
L 608.377166 223.316 
L 609.531697 223.316 
L 610.688476 217.863556 
L 612.997973 217.863556 
L 614.15263 215.137333 
L 615.30824 217.863556 
L 616.46526 217.863556 
L 617.620487 228.768444 
L 618.777735 226.042222 
L 619.934288 219.226667 
L 621.088888 219.226667 
L 622.244222 215.137333 
L 623.401021 209.684889 
L 624.557029 209.684889 
L 625.711853 206.958667 
L 626.870718 206.958667 
L 628.027461 201.506222 
L 629.182378 204.232444 
L 630.339128 190.601333 
L 631.494077 190.601333 
L 632.649341 171.517778 
L 633.805265 161.976 
L 634.961606 161.976 
L 636.118311 144.255556 
L 637.273996 122.445778 
L 638.430677 122.445778 
L 639.58586 100.636 
L 640.741158 101.999111 
L 641.896517 91.094222 
L 643.053059 91.094222 
L 644.208021 88.368 
L 645.363178 72.010667 
L 646.518432 72.010667 
L 647.673815 50.200889 
L 648.829476 35.206667 
L 649.984968 35.206667 
L 651.140312 40.659111 
L 652.295422 31.117333 
L 653.450974 31.117333 
L 654.606524 39.296 
L 655.762403 50.200889 
L 656.917158 50.200889 
L 658.072475 51.564 
L 660.383136 67.921333 
L 663.848387 67.921333 
L 665.00394 87.004889 
L 666.159831 96.546667 
L 667.315819 96.546667 
L 668.47084 127.898222 
L 669.625857 146.981778 
L 670.782683 163.339111 
L 671.937829 163.339111 
L 673.093115 168.791556 
L 674.248896 176.970222 
L 675.404538 179.696444 
L 678.870195 179.696444 
L 680.025328 260.12 
L 740.278411 260.12 
L 741.413937 257.393778 
L 742.568747 257.393778 
L 743.722925 243.762667 
L 744.877585 223.316 
L 746.034297 216.500444 
L 747.188641 216.500444 
L 748.345405 208.321778 
L 750.657142 208.321778 
L 751.813741 197.416889 
L 754.127335 197.416889 
L 755.284933 193.327556 
L 758.750389 193.327556 
L 759.905827 189.238222 
L 761.061642 189.238222 
L 762.21719 191.964444 
L 763.372339 198.78 
L 764.527503 198.78 
L 765.682881 194.690667 
L 769.1484 194.690667 
L 770.302348 196.053778 
L 771.457373 196.053778 
L 772.613032 190.601333 
L 773.767534 200.143111 
L 774.922881 200.143111 
L 777.231818 202.869333 
L 778.386555 196.053778 
L 779.541713 196.053778 
L 780.696687 194.690667 
L 781.851883 197.416889 
L 783.007915 197.416889 
L 784.164469 190.601333 
L 785.320282 194.690667 
L 786.4756 194.690667 
L 787.630884 186.512 
L 788.786647 185.148889 
L 789.940767 185.148889 
L 791.095035 189.238222 
L 792.251818 182.422667 
L 793.406261 174.244 
L 794.561334 174.244 
L 795.715987 191.964444 
L 796.871231 191.964444 
L 798.026654 181.059556 
L 800.337636 146.981778 
L 801.494825 146.981778 
L 802.649824 133.350667 
L 803.805156 130.624444 
L 804.959617 130.624444 
L 806.114305 140.166222 
L 807.269167 137.44 
L 808.425741 131.987556 
L 809.580835 131.987556 
L 810.735298 123.808889 
L 811.892311 123.808889 
L 813.049291 108.814667 
L 814.204647 101.999111 
L 815.358955 97.909778 
L 816.516783 97.909778 
L 817.671845 96.546667 
L 818.826049 96.546667 
L 819.980777 95.183556 
L 821.135903 104.725333 
L 822.290429 119.719556 
L 823.444829 119.719556 
L 824.599599 121.082667 
L 825.753946 123.808889 
L 826.907951 123.808889 
L 828.062651 134.713778 
L 829.21685 140.166222 
L 830.371643 140.166222 
L 831.52611 155.160444 
L 832.680359 161.976 
L 833.837662 161.976 
L 834.992303 163.339111 
L 836.149121 167.428444 
L 837.30632 167.428444 
L 838.463863 179.696444 
L 839.621091 260.12 
L 904.420551 260.12 
L 905.574373 250.578222 
L 906.728769 246.488889 
L 907.885129 238.310222 
L 909.041573 238.310222 
L 911.350138 224.679111 
L 912.505554 224.679111 
L 913.659645 220.589778 
L 914.81429 211.048 
L 915.968912 211.048 
L 917.123356 206.958667 
L 918.277279 200.143111 
L 919.431201 200.143111 
L 920.58522 191.964444 
L 921.739021 186.512 
L 922.892596 186.512 
L 925.201212 178.333333 
L 926.355511 171.517778 
L 927.509405 171.517778 
L 928.665659 164.702222 
L 929.819294 164.702222 
L 930.975491 163.339111 
L 932.130372 151.071111 
L 933.285919 153.797333 
L 934.440638 153.797333 
L 935.59447 148.344889 
L 936.750808 146.981778 
L 937.907308 146.981778 
L 939.06177 149.708 
L 940.218182 153.797333 
L 941.371785 166.065333 
L 942.526256 166.065333 
L 943.680376 171.517778 
L 944.835228 171.517778 
L 945.990084 178.333333 
L 947.14434 176.970222 
L 949.454951 176.970222 
L 950.608864 178.333333 
L 951.765726 187.875111 
L 952.920191 187.875111 
L 954.073869 178.333333 
L 955.22859 178.333333 
L 956.384569 166.065333 
L 957.539517 176.970222 
L 958.695437 174.244 
L 961.004914 174.244 
L 962.158422 166.065333 
L 963.314673 166.065333 
L 964.471403 170.154667 
L 965.627111 168.791556 
L 966.783084 171.517778 
L 967.938667 171.517778 
L 969.094625 157.886667 
L 970.248277 167.428444 
L 971.404419 167.428444 
L 972.558656 164.702222 
L 973.715058 164.702222 
L 974.869984 156.523556 
L 976.024063 202.869333 
L 977.180936 202.869333 
L 978.335868 194.690667 
L 979.491889 191.964444 
L 980.648569 197.416889 
L 981.804664 197.416889 
L 984.113677 202.869333 
L 985.269656 209.684889 
L 986.423436 209.684889 
L 987.579681 208.321778 
L 988.734163 208.321778 
L 989.88988 212.411111 
L 991.045826 215.137333 
L 993.356526 215.137333 
L 994.510761 217.863556 
L 995.667461 226.042222 
L 997.974575 226.042222 
L 999.129552 260.12 
L 1066.238855 260.12 
L 1067.3957 251.941333 
L 1068.553415 247.852 
L 1069.709774 235.584 
L 1070.866589 235.584 
L 1072.021092 212.411111 
L 1073.175006 205.595556 
L 1074.329165 205.595556 
L 1075.484121 187.875111 
L 1077.795667 156.523556 
L 1078.951979 156.523556 
L 1080.10801 138.803111 
L 1081.264941 138.803111 
L 1082.418925 126.535111 
L 1083.575727 137.44 
L 1084.75892 137.44 
L 1085.914864 141.529333 
L 1087.069005 137.44 
L 1088.223357 137.44 
L 1089.377496 141.529333 
L 1090.534214 148.344889 
L 1091.688405 145.618667 
L 1092.846023 145.618667 
L 1094.000222 144.255556 
L 1095.154746 130.624444 
L 1096.308945 130.624444 
L 1097.463641 127.898222 
L 1098.617812 131.987556 
L 1099.774277 131.987556 
L 1100.928906 137.44 
L 1102.082833 141.529333 
L 1103.237117 141.529333 
L 1104.390932 127.898222 
L 1105.544913 122.445778 
L 1106.699462 123.808889 
L 1107.856382 123.808889 
L 1109.013108 125.172 
L 1110.169138 130.624444 
L 1111.326044 130.624444 
L 1112.482345 136.076889 
L 1113.638198 138.803111 
L 1115.947379 138.803111 
L 1117.102655 163.339111 
L 1118.257599 163.339111 
L 1119.414616 182.422667 
L 1120.568892 185.148889 
L 1121.724593 185.148889 
L 1122.882216 168.791556 
L 1124.036764 166.065333 
L 1125.190817 157.886667 
L 1126.347713 157.886667 
L 1127.502905 148.344889 
L 1129.812924 148.344889 
L 1130.968632 142.892444 
L 1133.28 142.892444 
L 1133.28 142.892444 
" style="fill:none;stroke:#1f77b4;stroke-linecap:square;stroke-width:1.5;"/>
   </g>
   <g id="patch_3">
    <path d="M 33.64 260.12 
L 33.64 14.76 
" style="fill:none;stroke:#000000;stroke-linecap:square;stroke-linejoin:miter;stroke-width:0.8;"/>
   </g>
   <g id="patch_4">
    <path d="M 1133.28 260.12 
L 1133.28 14.76 
" style="fill:none;stroke:#000000;stroke-linecap:square;stroke-linejoin:miter;stroke-width:0.8;"/>
   </g>
   <g id="patch_5">
    <path d="M 33.64 260.12 
L 1133.28 260.12 
" style="fill:none;stroke:#000000;stroke-linecap:square;stroke-linejoin:miter;stroke-width:0.8;"/>
   </g>
   <g id="patch_6">
    <path d="M 33.64 14.76 
L 1133.28 14.76 
" style="fill:none;stroke:#000000;stroke-linecap:square;stroke-linejoin:miter;stroke-width:0.8;"/>
   </g>
  </g>
 </g>
 <defs>
  <clipPath id="p757527561e">
   <rect height="245.36" width="1099.64" x="33.64" y="14.76"/>
  </clipPath>
 </defs>
</svg>
