<?xml version="1.0" encoding="utf-8" standalone="no"?>
<!DOCTYPE svg PUBLIC "-//W3C//DTD SVG 1.1//EN"
  "http://www.w3.org/Graphics/SVG/1.1/DTD/svg11.dtd">
<!-- Created with matplotlib (https://matplotlib.org/) -->
<svg height="288pt" version="1.1" viewBox="0 0 1152 288" width="1152pt" xmlns="http://www.w3.org/2000/svg" xmlns:xlink="http://www.w3.org/1999/xlink">
 <defs>
  <style type="text/css">
*{stroke-linecap:butt;stroke-linejoin:round;}
  </style>
 </defs>
 <g id="figure_1">
  <g id="patch_1">
   <path d="M 0 288 
L 1152 288 
L 1152 0 
L 0 0 
z
" style="fill:#ffffff;"/>
  </g>
  <g id="axes_1">
   <g id="patch_2">
    <path d="M 33.64 260.12 
L 1133.28 260.12 
L 1133.28 14.76 
L 33.64 14.76 
z
" style="fill:#ffffff;"/>
   </g>
   <g id="matplotlib.axis_1">
    <g id="xtick_1">
     <g id="line2d_1">
      <defs>
       <path d="M 0 0 
L 0 3.5 
" id="m2d19b85356" style="stroke:#000000;stroke-width:0.8;"/>
      </defs>
      <g>
       <use style="stroke:#000000;stroke-width:0.8;" x="203.210282" xlink:href="#m2d19b85356" y="260.12"/>
      </g>
     </g>
     <g id="text_1">
      <!-- Tue 00:00 -->
      <defs>
       <path d="M -0.296875 72.90625 
L 61.375 72.90625 
L 61.375 64.59375 
L 35.5 64.59375 
L 35.5 0 
L 25.59375 0 
L 25.59375 64.59375 
L -0.296875 64.59375 
z
" id="DejaVuSans-84"/>
       <path d="M 8.5 21.578125 
L 8.5 54.6875 
L 17.484375 54.6875 
L 17.484375 21.921875 
Q 17.484375 14.15625 20.5 10.265625 
Q 23.53125 6.390625 29.59375 6.390625 
Q 36.859375 6.390625 41.078125 11.03125 
Q 45.3125 15.671875 45.3125 23.6875 
L 45.3125 54.6875 
L 54.296875 54.6875 
L 54.296875 0 
L 45.3125 0 
L 45.3125 8.40625 
Q 42.046875 3.421875 37.71875 1 
Q 33.40625 -1.421875 27.6875 -1.421875 
Q 18.265625 -1.421875 13.375 4.4375 
Q 8.5 10.296875 8.5 21.578125 
z
M 31.109375 56 
z
" id="DejaVuSans-117"/>
       <path d="M 56.203125 29.59375 
L 56.203125 25.203125 
L 14.890625 25.203125 
Q 15.484375 15.921875 20.484375 11.0625 
Q 25.484375 6.203125 34.421875 6.203125 
Q 39.59375 6.203125 44.453125 7.46875 
Q 49.3125 8.734375 54.109375 11.28125 
L 54.109375 2.78125 
Q 49.265625 0.734375 44.1875 -0.34375 
Q 39.109375 -1.421875 33.890625 -1.421875 
Q 20.796875 -1.421875 13.15625 6.1875 
Q 5.515625 13.8125 5.515625 26.8125 
Q 5.515625 40.234375 12.765625 48.109375 
Q 20.015625 56 32.328125 56 
Q 43.359375 56 49.78125 48.890625 
Q 56.203125 41.796875 56.203125 29.59375 
z
M 47.21875 32.234375 
Q 47.125 39.59375 43.09375 43.984375 
Q 39.0625 48.390625 32.421875 48.390625 
Q 24.90625 48.390625 20.390625 44.140625 
Q 15.875 39.890625 15.1875 32.171875 
z
" id="DejaVuSans-101"/>
       <path id="DejaVuSans-32"/>
       <path d="M 31.78125 66.40625 
Q 24.171875 66.40625 20.328125 58.90625 
Q 16.5 51.421875 16.5 36.375 
Q 16.5 21.390625 20.328125 13.890625 
Q 24.171875 6.390625 31.78125 6.390625 
Q 39.453125 6.390625 43.28125 13.890625 
Q 47.125 21.390625 47.125 36.375 
Q 47.125 51.421875 43.28125 58.90625 
Q 39.453125 66.40625 31.78125 66.40625 
z
M 31.78125 74.21875 
Q 44.046875 74.21875 50.515625 64.515625 
Q 56.984375 54.828125 56.984375 36.375 
Q 56.984375 17.96875 50.515625 8.265625 
Q 44.046875 -1.421875 31.78125 -1.421875 
Q 19.53125 -1.421875 13.0625 8.265625 
Q 6.59375 17.96875 6.59375 36.375 
Q 6.59375 54.828125 13.0625 64.515625 
Q 19.53125 74.21875 31.78125 74.21875 
z
" id="DejaVuSans-48"/>
       <path d="M 11.71875 12.40625 
L 22.015625 12.40625 
L 22.015625 0 
L 11.71875 0 
z
M 11.71875 51.703125 
L 22.015625 51.703125 
L 22.015625 39.3125 
L 11.71875 39.3125 
z
" id="DejaVuSans-58"/>
      </defs>
      <g transform="translate(177.924345 274.718437)scale(0.1 -0.1)">
       <use xlink:href="#DejaVuSans-84"/>
       <use x="60.849609" xlink:href="#DejaVuSans-117"/>
       <use x="124.228516" xlink:href="#DejaVuSans-101"/>
       <use x="185.751953" xlink:href="#DejaVuSans-32"/>
       <use x="217.539062" xlink:href="#DejaVuSans-48"/>
       <use x="281.162109" xlink:href="#DejaVuSans-48"/>
       <use x="344.785156" xlink:href="#DejaVuSans-58"/>
       <use x="378.476562" xlink:href="#DejaVuSans-48"/>
       <use x="442.099609" xlink:href="#DejaVuSans-48"/>
      </g>
     </g>
    </g>
    <g id="xtick_2">
     <g id="line2d_2">
      <g>
       <use style="stroke:#000000;stroke-width:0.8;" x="373.39772" xlink:href="#m2d19b85356" y="260.12"/>
      </g>
     </g>
     <g id="text_2">
      <!-- Wed 00:00 -->
      <defs>
       <path d="M 3.328125 72.90625 
L 13.28125 72.90625 
L 28.609375 11.28125 
L 43.890625 72.90625 
L 54.984375 72.90625 
L 70.3125 11.28125 
L 85.59375 72.90625 
L 95.609375 72.90625 
L 77.296875 0 
L 64.890625 0 
L 49.515625 63.28125 
L 33.984375 0 
L 21.578125 0 
z
" id="DejaVuSans-87"/>
       <path d="M 45.40625 46.390625 
L 45.40625 75.984375 
L 54.390625 75.984375 
L 54.390625 0 
L 45.40625 0 
L 45.40625 8.203125 
Q 42.578125 3.328125 38.25 0.953125 
Q 33.9375 -1.421875 27.875 -1.421875 
Q 17.96875 -1.421875 11.734375 6.484375 
Q 5.515625 14.40625 5.515625 27.296875 
Q 5.515625 40.1875 11.734375 48.09375 
Q 17.96875 56 27.875 56 
Q 33.9375 56 38.25 53.625 
Q 42.578125 51.265625 45.40625 46.390625 
z
M 14.796875 27.296875 
Q 14.796875 17.390625 18.875 11.75 
Q 22.953125 6.109375 30.078125 6.109375 
Q 37.203125 6.109375 41.296875 11.75 
Q 45.40625 17.390625 45.40625 27.296875 
Q 45.40625 37.203125 41.296875 42.84375 
Q 37.203125 48.484375 30.078125 48.484375 
Q 22.953125 48.484375 18.875 42.84375 
Q 14.796875 37.203125 14.796875 27.296875 
z
" id="DejaVuSans-100"/>
      </defs>
      <g transform="translate(346.208657 274.718437)scale(0.1 -0.1)">
       <use xlink:href="#DejaVuSans-87"/>
       <use x="98.798828" xlink:href="#DejaVuSans-101"/>
       <use x="160.322266" xlink:href="#DejaVuSans-100"/>
       <use x="223.798828" xlink:href="#DejaVuSans-32"/>
       <use x="255.585938" xlink:href="#DejaVuSans-48"/>
       <use x="319.208984" xlink:href="#DejaVuSans-48"/>
       <use x="382.832031" xlink:href="#DejaVuSans-58"/>
       <use x="416.523438" xlink:href="#DejaVuSans-48"/>
       <use x="480.146484" xlink:href="#DejaVuSans-48"/>
      </g>
     </g>
    </g>
    <g id="xtick_3">
     <g id="line2d_3">
      <g>
       <use style="stroke:#000000;stroke-width:0.8;" x="543.585157" xlink:href="#m2d19b85356" y="260.12"/>
      </g>
     </g>
     <g id="text_3">
      <!-- Thu 00:00 -->
      <defs>
       <path d="M 54.890625 33.015625 
L 54.890625 0 
L 45.90625 0 
L 45.90625 32.71875 
Q 45.90625 40.484375 42.875 44.328125 
Q 39.84375 48.1875 33.796875 48.1875 
Q 26.515625 48.1875 22.3125 43.546875 
Q 18.109375 38.921875 18.109375 30.90625 
L 18.109375 0 
L 9.078125 0 
L 9.078125 75.984375 
L 18.109375 75.984375 
L 18.109375 46.1875 
Q 21.34375 51.125 25.703125 53.5625 
Q 30.078125 56 35.796875 56 
Q 45.21875 56 50.046875 50.171875 
Q 54.890625 44.34375 54.890625 33.015625 
z
" id="DejaVuSans-104"/>
      </defs>
      <g transform="translate(518.195314 274.718437)scale(0.1 -0.1)">
       <use xlink:href="#DejaVuSans-84"/>
       <use x="61.083984" xlink:href="#DejaVuSans-104"/>
       <use x="124.462891" xlink:href="#DejaVuSans-117"/>
       <use x="187.841797" xlink:href="#DejaVuSans-32"/>
       <use x="219.628906" xlink:href="#DejaVuSans-48"/>
       <use x="283.251953" xlink:href="#DejaVuSans-48"/>
       <use x="346.875" xlink:href="#DejaVuSans-58"/>
       <use x="380.566406" xlink:href="#DejaVuSans-48"/>
       <use x="444.189453" xlink:href="#DejaVuSans-48"/>
      </g>
     </g>
    </g>
    <g id="xtick_4">
     <g id="line2d_4">
      <g>
       <use style="stroke:#000000;stroke-width:0.8;" x="713.772595" xlink:href="#m2d19b85356" y="260.12"/>
      </g>
     </g>
     <g id="text_4">
      <!-- Fri 00:00 -->
      <defs>
       <path d="M 9.8125 72.90625 
L 51.703125 72.90625 
L 51.703125 64.59375 
L 19.671875 64.59375 
L 19.671875 43.109375 
L 48.578125 43.109375 
L 48.578125 34.8125 
L 19.671875 34.8125 
L 19.671875 0 
L 9.8125 0 
z
" id="DejaVuSans-70"/>
       <path d="M 41.109375 46.296875 
Q 39.59375 47.171875 37.8125 47.578125 
Q 36.03125 48 33.890625 48 
Q 26.265625 48 22.1875 43.046875 
Q 18.109375 38.09375 18.109375 28.8125 
L 18.109375 0 
L 9.078125 0 
L 9.078125 54.6875 
L 18.109375 54.6875 
L 18.109375 46.1875 
Q 20.953125 51.171875 25.484375 53.578125 
Q 30.03125 56 36.53125 56 
Q 37.453125 56 38.578125 55.875 
Q 39.703125 55.765625 41.0625 55.515625 
z
" id="DejaVuSans-114"/>
       <path d="M 9.421875 54.6875 
L 18.40625 54.6875 
L 18.40625 0 
L 9.421875 0 
z
M 9.421875 75.984375 
L 18.40625 75.984375 
L 18.40625 64.59375 
L 9.421875 64.59375 
z
" id="DejaVuSans-105"/>
      </defs>
      <g transform="translate(691.459314 274.718437)scale(0.1 -0.1)">
       <use xlink:href="#DejaVuSans-70"/>
       <use x="57.410156" xlink:href="#DejaVuSans-114"/>
       <use x="98.523438" xlink:href="#DejaVuSans-105"/>
       <use x="126.306641" xlink:href="#DejaVuSans-32"/>
       <use x="158.09375" xlink:href="#DejaVuSans-48"/>
       <use x="221.716797" xlink:href="#DejaVuSans-48"/>
       <use x="285.339844" xlink:href="#DejaVuSans-58"/>
       <use x="319.03125" xlink:href="#DejaVuSans-48"/>
       <use x="382.654297" xlink:href="#DejaVuSans-48"/>
      </g>
     </g>
    </g>
    <g id="xtick_5">
     <g id="line2d_5">
      <g>
       <use style="stroke:#000000;stroke-width:0.8;" x="883.960033" xlink:href="#m2d19b85356" y="260.12"/>
      </g>
     </g>
     <g id="text_5">
      <!-- Sat 00:00 -->
      <defs>
       <path d="M 53.515625 70.515625 
L 53.515625 60.890625 
Q 47.90625 63.578125 42.921875 64.890625 
Q 37.9375 66.21875 33.296875 66.21875 
Q 25.25 66.21875 20.875 63.09375 
Q 16.5 59.96875 16.5 54.203125 
Q 16.5 49.359375 19.40625 46.890625 
Q 22.3125 44.4375 30.421875 42.921875 
L 36.375 41.703125 
Q 47.40625 39.59375 52.65625 34.296875 
Q 57.90625 29 57.90625 20.125 
Q 57.90625 9.515625 50.796875 4.046875 
Q 43.703125 -1.421875 29.984375 -1.421875 
Q 24.8125 -1.421875 18.96875 -0.25 
Q 13.140625 0.921875 6.890625 3.21875 
L 6.890625 13.375 
Q 12.890625 10.015625 18.65625 8.296875 
Q 24.421875 6.59375 29.984375 6.59375 
Q 38.421875 6.59375 43.015625 9.90625 
Q 47.609375 13.234375 47.609375 19.390625 
Q 47.609375 24.75 44.3125 27.78125 
Q 41.015625 30.8125 33.5 32.328125 
L 27.484375 33.5 
Q 16.453125 35.6875 11.515625 40.375 
Q 6.59375 45.0625 6.59375 53.421875 
Q 6.59375 63.09375 13.40625 68.65625 
Q 20.21875 74.21875 32.171875 74.21875 
Q 37.3125 74.21875 42.625 73.28125 
Q 47.953125 72.359375 53.515625 70.515625 
z
" id="DejaVuSans-83"/>
       <path d="M 34.28125 27.484375 
Q 23.390625 27.484375 19.1875 25 
Q 14.984375 22.515625 14.984375 16.5 
Q 14.984375 11.71875 18.140625 8.90625 
Q 21.296875 6.109375 26.703125 6.109375 
Q 34.1875 6.109375 38.703125 11.40625 
Q 43.21875 16.703125 43.21875 25.484375 
L 43.21875 27.484375 
z
M 52.203125 31.203125 
L 52.203125 0 
L 43.21875 0 
L 43.21875 8.296875 
Q 40.140625 3.328125 35.546875 0.953125 
Q 30.953125 -1.421875 24.3125 -1.421875 
Q 15.921875 -1.421875 10.953125 3.296875 
Q 6 8.015625 6 15.921875 
Q 6 25.140625 12.171875 29.828125 
Q 18.359375 34.515625 30.609375 34.515625 
L 43.21875 34.515625 
L 43.21875 35.40625 
Q 43.21875 41.609375 39.140625 45 
Q 35.0625 48.390625 27.6875 48.390625 
Q 23 48.390625 18.546875 47.265625 
Q 14.109375 46.140625 10.015625 43.890625 
L 10.015625 52.203125 
Q 14.9375 54.109375 19.578125 55.046875 
Q 24.21875 56 28.609375 56 
Q 40.484375 56 46.34375 49.84375 
Q 52.203125 43.703125 52.203125 31.203125 
z
" id="DejaVuSans-97"/>
       <path d="M 18.3125 70.21875 
L 18.3125 54.6875 
L 36.8125 54.6875 
L 36.8125 47.703125 
L 18.3125 47.703125 
L 18.3125 18.015625 
Q 18.3125 11.328125 20.140625 9.421875 
Q 21.96875 7.515625 27.59375 7.515625 
L 36.8125 7.515625 
L 36.8125 0 
L 27.59375 0 
Q 17.1875 0 13.234375 3.875 
Q 9.28125 7.765625 9.28125 18.015625 
L 9.28125 47.703125 
L 2.6875 47.703125 
L 2.6875 54.6875 
L 9.28125 54.6875 
L 9.28125 70.21875 
z
" id="DejaVuSans-116"/>
      </defs>
      <g transform="translate(859.763158 274.718437)scale(0.1 -0.1)">
       <use xlink:href="#DejaVuSans-83"/>
       <use x="63.476562" xlink:href="#DejaVuSans-97"/>
       <use x="124.755859" xlink:href="#DejaVuSans-116"/>
       <use x="163.964844" xlink:href="#DejaVuSans-32"/>
       <use x="195.751953" xlink:href="#DejaVuSans-48"/>
       <use x="259.375" xlink:href="#DejaVuSans-48"/>
       <use x="322.998047" xlink:href="#DejaVuSans-58"/>
       <use x="356.689453" xlink:href="#DejaVuSans-48"/>
       <use x="420.3125" xlink:href="#DejaVuSans-48"/>
      </g>
     </g>
    </g>
    <g id="xtick_6">
     <g id="line2d_6">
      <g>
       <use style="stroke:#000000;stroke-width:0.8;" x="1054.14747" xlink:href="#m2d19b85356" y="260.12"/>
      </g>
     </g>
     <g id="text_6">
      <!-- Sun 00:00 -->
      <defs>
       <path d="M 54.890625 33.015625 
L 54.890625 0 
L 45.90625 0 
L 45.90625 32.71875 
Q 45.90625 40.484375 42.875 44.328125 
Q 39.84375 48.1875 33.796875 48.1875 
Q 26.515625 48.1875 22.3125 43.546875 
Q 18.109375 38.921875 18.109375 30.90625 
L 18.109375 0 
L 9.078125 0 
L 9.078125 54.6875 
L 18.109375 54.6875 
L 18.109375 46.1875 
Q 21.34375 51.125 25.703125 53.5625 
Q 30.078125 56 35.796875 56 
Q 45.21875 56 50.046875 50.171875 
Q 54.890625 44.34375 54.890625 33.015625 
z
" id="DejaVuSans-110"/>
      </defs>
      <g transform="translate(1028.637314 274.718437)scale(0.1 -0.1)">
       <use xlink:href="#DejaVuSans-83"/>
       <use x="63.476562" xlink:href="#DejaVuSans-117"/>
       <use x="126.855469" xlink:href="#DejaVuSans-110"/>
       <use x="190.234375" xlink:href="#DejaVuSans-32"/>
       <use x="222.021484" xlink:href="#DejaVuSans-48"/>
       <use x="285.644531" xlink:href="#DejaVuSans-48"/>
       <use x="349.267578" xlink:href="#DejaVuSans-58"/>
       <use x="382.958984" xlink:href="#DejaVuSans-48"/>
       <use x="446.582031" xlink:href="#DejaVuSans-48"/>
      </g>
     </g>
    </g>
   </g>
   <g id="matplotlib.axis_2">
    <g id="ytick_1">
     <g id="line2d_7">
      <defs>
       <path d="M 0 0 
L -3.5 0 
" id="m9453b3b547" style="stroke:#000000;stroke-width:0.8;"/>
      </defs>
      <g>
       <use style="stroke:#000000;stroke-width:0.8;" x="33.64" xlink:href="#m9453b3b547" y="260.12"/>
      </g>
     </g>
     <g id="text_7">
      <!-- 0 -->
      <g transform="translate(20.2775 263.919219)scale(0.1 -0.1)">
       <use xlink:href="#DejaVuSans-48"/>
      </g>
     </g>
    </g>
    <g id="ytick_2">
     <g id="line2d_8">
      <g>
       <use style="stroke:#000000;stroke-width:0.8;" x="33.64" xlink:href="#m9453b3b547" y="230.910476"/>
      </g>
     </g>
     <g id="text_8">
      <!-- 25 -->
      <defs>
       <path d="M 19.1875 8.296875 
L 53.609375 8.296875 
L 53.609375 0 
L 7.328125 0 
L 7.328125 8.296875 
Q 12.9375 14.109375 22.625 23.890625 
Q 32.328125 33.6875 34.8125 36.53125 
Q 39.546875 41.84375 41.421875 45.53125 
Q 43.3125 49.21875 43.3125 52.78125 
Q 43.3125 58.59375 39.234375 62.25 
Q 35.15625 65.921875 28.609375 65.921875 
Q 23.96875 65.921875 18.8125 64.3125 
Q 13.671875 62.703125 7.8125 59.421875 
L 7.8125 69.390625 
Q 13.765625 71.78125 18.9375 73 
Q 24.125 74.21875 28.421875 74.21875 
Q 39.75 74.21875 46.484375 68.546875 
Q 53.21875 62.890625 53.21875 53.421875 
Q 53.21875 48.921875 51.53125 44.890625 
Q 49.859375 40.875 45.40625 35.40625 
Q 44.1875 33.984375 37.640625 27.21875 
Q 31.109375 20.453125 19.1875 8.296875 
z
" id="DejaVuSans-50"/>
       <path d="M 10.796875 72.90625 
L 49.515625 72.90625 
L 49.515625 64.59375 
L 19.828125 64.59375 
L 19.828125 46.734375 
Q 21.96875 47.46875 24.109375 47.828125 
Q 26.265625 48.1875 28.421875 48.1875 
Q 40.625 48.1875 47.75 41.5 
Q 54.890625 34.8125 54.890625 23.390625 
Q 54.890625 11.625 47.5625 5.09375 
Q 40.234375 -1.421875 26.90625 -1.421875 
Q 22.3125 -1.421875 17.546875 -0.640625 
Q 12.796875 0.140625 7.71875 1.703125 
L 7.71875 11.625 
Q 12.109375 9.234375 16.796875 8.0625 
Q 21.484375 6.890625 26.703125 6.890625 
Q 35.15625 6.890625 40.078125 11.328125 
Q 45.015625 15.765625 45.015625 23.390625 
Q 45.015625 31 40.078125 35.4375 
Q 35.15625 39.890625 26.703125 39.890625 
Q 22.75 39.890625 18.8125 39.015625 
Q 14.890625 38.140625 10.796875 36.28125 
z
" id="DejaVuSans-53"/>
      </defs>
      <g transform="translate(13.915 234.709695)scale(0.1 -0.1)">
       <use xlink:href="#DejaVuSans-50"/>
       <use x="63.623047" xlink:href="#DejaVuSans-53"/>
      </g>
     </g>
    </g>
    <g id="ytick_3">
     <g id="line2d_9">
      <g>
       <use style="stroke:#000000;stroke-width:0.8;" x="33.64" xlink:href="#m9453b3b547" y="201.700952"/>
      </g>
     </g>
     <g id="text_9">
      <!-- 50 -->
      <g transform="translate(13.915 205.500171)scale(0.1 -0.1)">
       <use xlink:href="#DejaVuSans-53"/>
       <use x="63.623047" xlink:href="#DejaVuSans-48"/>
      </g>
     </g>
    </g>
    <g id="ytick_4">
     <g id="line2d_10">
      <g>
       <use style="stroke:#000000;stroke-width:0.8;" x="33.64" xlink:href="#m9453b3b547" y="172.491429"/>
      </g>
     </g>
     <g id="text_10">
      <!-- 75 -->
      <defs>
       <path d="M 8.203125 72.90625 
L 55.078125 72.90625 
L 55.078125 68.703125 
L 28.609375 0 
L 18.3125 0 
L 43.21875 64.59375 
L 8.203125 64.59375 
z
" id="DejaVuSans-55"/>
      </defs>
      <g transform="translate(13.915 176.290647)scale(0.1 -0.1)">
       <use xlink:href="#DejaVuSans-55"/>
       <use x="63.623047" xlink:href="#DejaVuSans-53"/>
      </g>
     </g>
    </g>
    <g id="ytick_5">
     <g id="line2d_11">
      <g>
       <use style="stroke:#000000;stroke-width:0.8;" x="33.64" xlink:href="#m9453b3b547" y="143.281905"/>
      </g>
     </g>
     <g id="text_11">
      <!-- 100 -->
      <defs>
       <path d="M 12.40625 8.296875 
L 28.515625 8.296875 
L 28.515625 63.921875 
L 10.984375 60.40625 
L 10.984375 69.390625 
L 28.421875 72.90625 
L 38.28125 72.90625 
L 38.28125 8.296875 
L 54.390625 8.296875 
L 54.390625 0 
L 12.40625 0 
z
" id="DejaVuSans-49"/>
      </defs>
      <g transform="translate(7.5525 147.081124)scale(0.1 -0.1)">
       <use xlink:href="#DejaVuSans-49"/>
       <use x="63.623047" xlink:href="#DejaVuSans-48"/>
       <use x="127.246094" xlink:href="#DejaVuSans-48"/>
      </g>
     </g>
    </g>
    <g id="ytick_6">
     <g id="line2d_12">
      <g>
       <use style="stroke:#000000;stroke-width:0.8;" x="33.64" xlink:href="#m9453b3b547" y="114.072381"/>
      </g>
     </g>
     <g id="text_12">
      <!-- 125 -->
      <g transform="translate(7.5525 117.8716)scale(0.1 -0.1)">
       <use xlink:href="#DejaVuSans-49"/>
       <use x="63.623047" xlink:href="#DejaVuSans-50"/>
       <use x="127.246094" xlink:href="#DejaVuSans-53"/>
      </g>
     </g>
    </g>
    <g id="ytick_7">
     <g id="line2d_13">
      <g>
       <use style="stroke:#000000;stroke-width:0.8;" x="33.64" xlink:href="#m9453b3b547" y="84.862857"/>
      </g>
     </g>
     <g id="text_13">
      <!-- 150 -->
      <g transform="translate(7.5525 88.662076)scale(0.1 -0.1)">
       <use xlink:href="#DejaVuSans-49"/>
       <use x="63.623047" xlink:href="#DejaVuSans-53"/>
       <use x="127.246094" xlink:href="#DejaVuSans-48"/>
      </g>
     </g>
    </g>
    <g id="ytick_8">
     <g id="line2d_14">
      <g>
       <use style="stroke:#000000;stroke-width:0.8;" x="33.64" xlink:href="#m9453b3b547" y="55.653333"/>
      </g>
     </g>
     <g id="text_14">
      <!-- 175 -->
      <g transform="translate(7.5525 59.452552)scale(0.1 -0.1)">
       <use xlink:href="#DejaVuSans-49"/>
       <use x="63.623047" xlink:href="#DejaVuSans-55"/>
       <use x="127.246094" xlink:href="#DejaVuSans-53"/>
      </g>
     </g>
    </g>
    <g id="ytick_9">
     <g id="line2d_15">
      <g>
       <use style="stroke:#000000;stroke-width:0.8;" x="33.64" xlink:href="#m9453b3b547" y="26.44381"/>
      </g>
     </g>
     <g id="text_15">
      <!-- 200 -->
      <g transform="translate(7.5525 30.243028)scale(0.1 -0.1)">
       <use xlink:href="#DejaVuSans-50"/>
       <use x="63.623047" xlink:href="#DejaVuSans-48"/>
       <use x="127.246094" xlink:href="#DejaVuSans-48"/>
      </g>
     </g>
    </g>
   </g>
   <g id="line2d_16">
    <path clip-path="url(#pe9771f4995)" d="M 33.64 225.068571 
L 97.020325 225.068571 
L 98.239381 220.395048 
L 99.457295 220.395048 
L 100.674609 218.058286 
L 101.889685 218.058286 
L 103.104629 211.048 
L 104.322157 211.048 
L 105.53756 200.532571 
L 106.752532 195.859048 
L 107.968666 195.859048 
L 109.184517 186.512 
L 110.399771 179.501714 
L 111.617681 177.164952 
L 117.707419 177.164952 
L 118.923461 183.006857 
L 120.141696 190.017143 
L 121.356686 190.017143 
L 122.571649 195.859048 
L 123.789113 195.859048 
L 125.004501 200.532571 
L 126.221324 195.859048 
L 127.438526 195.859048 
L 128.654099 193.522286 
L 129.869296 192.353905 
L 131.084387 188.848762 
L 132.299596 188.848762 
L 133.515823 187.680381 
L 134.732825 191.185524 
L 135.947857 191.185524 
L 137.165932 188.848762 
L 138.381303 185.343619 
L 139.596345 185.343619 
L 140.81383 183.006857 
L 142.029312 185.343619 
L 144.459551 185.343619 
L 145.677117 178.333333 
L 146.893185 177.164952 
L 148.110969 177.164952 
L 149.328547 179.501714 
L 150.546285 173.65981 
L 151.765791 173.65981 
L 152.983917 170.154667 
L 154.204775 170.154667 
L 155.422375 175.996571 
L 156.637472 165.481143 
L 157.85278 153.797333 
L 159.067838 153.797333 
L 160.282963 147.955429 
L 161.498571 138.608381 
L 162.713832 138.608381 
L 163.929704 124.58781 
L 165.146472 108.230476 
L 166.361636 108.230476 
L 167.579984 90.704762 
L 168.795846 79.020952 
L 170.01086 60.326857 
L 171.2269 60.326857 
L 172.442176 52.14819 
L 173.657081 83.694476 
L 176.089123 83.694476 
L 177.307014 86.031238 
L 178.52247 86.031238 
L 179.74048 88.368 
L 180.956672 89.536381 
L 182.172103 89.536381 
L 183.389228 105.893714 
L 184.609292 119.914286 
L 185.825258 119.914286 
L 187.042582 133.934857 
L 188.260311 153.797333 
L 189.478869 153.797333 
L 190.695002 161.976 
L 191.912259 168.986286 
L 193.127694 172.491429 
L 194.345629 172.491429 
L 195.563852 184.175238 
L 196.779652 192.353905 
L 197.995171 192.353905 
L 199.214521 260.12 
L 268.674126 260.12 
L 269.891337 241.425905 
L 271.109121 236.752381 
L 272.326726 236.752381 
L 273.542932 233.247238 
L 274.758559 222.73181 
L 275.975609 222.73181 
L 277.192545 213.384762 
L 278.410398 211.048 
L 279.628662 211.048 
L 280.84951 207.542857 
L 282.068828 205.206095 
L 283.286746 205.206095 
L 284.501782 202.869333 
L 285.72203 201.700952 
L 288.158377 201.700952 
L 289.37318 215.721524 
L 290.589849 216.889905 
L 291.807945 214.553143 
L 293.023539 216.889905 
L 294.239734 216.889905 
L 296.751393 205.206095 
L 299.261301 208.711238 
L 301.813742 208.711238 
L 303.028637 211.048 
L 304.245142 211.048 
L 305.460507 213.384762 
L 306.675588 212.216381 
L 307.89321 212.216381 
L 309.110666 207.542857 
L 311.542556 207.542857 
L 312.757782 202.869333 
L 313.976041 205.206095 
L 315.191319 205.206095 
L 316.407421 201.700952 
L 317.623226 191.185524 
L 318.838958 186.512 
L 320.053999 186.512 
L 321.269566 185.343619 
L 322.485142 173.65981 
L 323.703184 173.65981 
L 324.919836 172.491429 
L 326.137469 181.838476 
L 327.352966 181.838476 
L 329.785028 158.470857 
L 331.000819 158.470857 
L 332.218491 153.797333 
L 333.434597 150.29219 
L 334.650276 150.29219 
L 335.867504 154.965714 
L 337.083857 158.470857 
L 338.299574 158.470857 
L 339.517533 144.450286 
L 340.735682 135.103238 
L 341.951897 130.429714 
L 343.167755 130.429714 
L 344.383853 116.409143 
L 345.599779 116.409143 
L 348.035256 114.072381 
L 349.252947 110.567238 
L 350.471392 110.567238 
L 351.687832 112.904 
L 352.905271 117.577524 
L 354.121158 117.577524 
L 355.338991 126.924571 
L 356.554837 142.113524 
L 357.772038 152.628952 
L 358.989022 152.628952 
L 360.204042 159.639238 
L 361.424041 159.639238 
L 362.639168 170.154667 
L 363.856272 178.333333 
L 365.074088 178.333333 
L 366.289712 186.512 
L 367.507772 187.680381 
L 368.724894 190.017143 
L 369.940306 190.017143 
L 371.155235 260.12 
L 436.980892 260.12 
L 439.391482 248.43619 
L 440.606447 248.43619 
L 441.82196 242.594286 
L 443.037545 237.920762 
L 444.252506 237.920762 
L 445.468346 228.573714 
L 446.684428 228.573714 
L 447.89991 223.90019 
L 449.11473 220.395048 
L 450.330702 220.395048 
L 451.546116 225.068571 
L 452.762768 225.068571 
L 453.979229 227.405333 
L 455.197133 227.405333 
L 456.415567 226.236952 
L 457.633375 223.90019 
L 458.848764 223.90019 
L 460.064593 220.395048 
L 461.279892 229.742095 
L 463.712316 229.742095 
L 464.930151 227.405333 
L 466.146856 227.405333 
L 467.362424 218.058286 
L 468.579714 218.058286 
L 469.796206 212.216381 
L 472.229007 212.216381 
L 474.66196 207.542857 
L 475.884796 207.542857 
L 477.103514 201.700952 
L 478.322814 201.700952 
L 479.538397 202.869333 
L 480.753863 200.532571 
L 481.968644 200.532571 
L 483.18369 191.185524 
L 485.614895 191.185524 
L 486.850221 188.848762 
L 488.065957 188.848762 
L 489.280939 179.501714 
L 490.500514 179.501714 
L 491.717316 177.164952 
L 492.933186 171.323048 
L 494.151419 171.323048 
L 495.366381 161.976 
L 496.583071 145.618667 
L 497.798238 117.577524 
L 499.01404 117.577524 
L 500.23062 109.398857 
L 501.445856 88.368 
L 502.661513 88.368 
L 503.880239 66.168762 
L 505.096647 52.14819 
L 506.312326 52.14819 
L 507.527455 42.801143 
L 508.743221 48.643048 
L 509.961268 48.643048 
L 511.178974 35.790857 
L 512.394016 33.454095 
L 513.611512 33.454095 
L 514.830778 34.622476 
L 516.04865 27.61219 
L 517.26961 27.61219 
L 518.484823 33.454095 
L 519.702543 38.127619 
L 520.917459 38.127619 
L 522.136127 48.643048 
L 523.350761 50.97981 
L 524.566426 72.010667 
L 525.781434 72.010667 
L 526.999156 89.536381 
L 528.214658 89.536381 
L 529.430775 104.725333 
L 530.646963 132.766476 
L 531.863645 140.945143 
L 533.082454 140.945143 
L 534.299968 165.481143 
L 535.514603 177.164952 
L 536.730499 177.164952 
L 537.948787 183.006857 
L 539.165289 194.690667 
L 541.59927 194.690667 
L 542.815507 260.12 
L 608.634652 260.12 
L 609.851132 253.109714 
L 611.068384 253.109714 
L 612.284156 249.604571 
L 613.502144 244.931048 
L 614.716957 244.931048 
L 615.932853 239.089143 
L 617.149631 236.752381 
L 618.3654 236.752381 
L 620.796068 229.742095 
L 622.014066 229.742095 
L 623.231007 233.247238 
L 624.449377 232.078857 
L 625.665653 228.573714 
L 626.882808 228.573714 
L 628.098479 229.742095 
L 629.313765 227.405333 
L 630.532463 227.405333 
L 631.748713 221.563429 
L 632.96362 219.226667 
L 634.184412 219.226667 
L 635.399368 214.553143 
L 636.614939 208.711238 
L 637.830395 208.711238 
L 639.04607 212.216381 
L 640.262085 214.553143 
L 641.480129 214.553143 
L 642.697071 208.711238 
L 643.912561 213.384762 
L 646.344572 213.384762 
L 647.560835 209.879619 
L 648.779325 199.36419 
L 649.994184 199.36419 
L 652.429148 197.027429 
L 653.64489 197.027429 
L 656.079494 185.343619 
L 658.514381 185.343619 
L 659.729608 180.670095 
L 660.946166 180.670095 
L 662.16248 170.154667 
L 663.379325 165.481143 
L 664.594426 165.481143 
L 665.810325 158.470857 
L 667.025548 142.113524 
L 668.241097 128.092952 
L 669.45614 128.092952 
L 670.674906 103.556952 
L 671.895384 107.062095 
L 673.113546 107.062095 
L 674.331072 102.388571 
L 675.548848 80.189333 
L 676.764075 80.189333 
L 677.980153 66.168762 
L 679.195168 60.326857 
L 680.410288 60.326857 
L 681.627851 61.495238 
L 682.844629 48.643048 
L 684.060275 45.137905 
L 685.278178 45.137905 
L 686.493692 63.832 
L 687.709149 72.010667 
L 688.925307 72.010667 
L 690.141581 83.694476 
L 691.35757 90.704762 
L 692.575424 90.704762 
L 693.790349 95.378286 
L 695.014585 107.062095 
L 696.233958 107.062095 
L 697.449681 114.072381 
L 698.664685 129.261333 
L 699.881128 129.261333 
L 702.311652 157.302476 
L 703.530683 157.302476 
L 704.748914 161.976 
L 705.966424 177.164952 
L 707.183643 177.164952 
L 708.400634 184.175238 
L 709.617116 260.12 
L 779.095192 260.12 
L 780.310544 248.43619 
L 781.528409 242.594286 
L 782.747029 242.594286 
L 783.962098 234.415619 
L 785.17683 234.415619 
L 786.392573 222.73181 
L 787.607627 219.226667 
L 788.824909 214.553143 
L 790.043079 214.553143 
L 792.48021 205.206095 
L 793.698028 205.206095 
L 794.914265 201.700952 
L 796.131681 199.36419 
L 797.347816 205.206095 
L 798.563899 205.206095 
L 799.779289 207.542857 
L 800.997422 211.048 
L 802.214614 211.048 
L 803.434028 219.226667 
L 804.650044 219.226667 
L 805.865821 218.058286 
L 808.297551 218.058286 
L 809.512738 221.563429 
L 810.728543 218.058286 
L 813.16018 218.058286 
L 814.376099 221.563429 
L 815.592074 222.73181 
L 816.807262 222.73181 
L 819.240224 211.048 
L 820.455284 208.711238 
L 821.672375 208.711238 
L 822.887152 205.206095 
L 824.102411 209.879619 
L 825.317581 209.879619 
L 826.533275 202.869333 
L 827.750194 202.869333 
L 828.966554 195.859048 
L 830.182146 197.027429 
L 831.398442 192.353905 
L 832.614469 192.353905 
L 833.830582 187.680381 
L 835.04741 181.838476 
L 836.262706 181.838476 
L 837.478883 183.006857 
L 838.695394 178.333333 
L 839.913326 183.006857 
L 841.131055 183.006857 
L 842.346784 177.164952 
L 843.563044 177.164952 
L 844.781194 186.512 
L 845.9995 181.838476 
L 847.215606 181.838476 
L 848.431602 184.175238 
L 849.648861 188.848762 
L 850.864767 186.512 
L 852.082899 186.512 
L 853.297773 183.006857 
L 854.515638 177.164952 
L 855.732882 177.164952 
L 856.948261 178.333333 
L 858.163341 187.680381 
L 859.378312 187.680381 
L 860.594741 186.512 
L 863.029979 186.512 
L 864.247756 188.848762 
L 866.681228 188.848762 
L 867.899165 200.532571 
L 869.115339 200.532571 
L 870.331174 205.206095 
L 871.548275 205.206095 
L 872.766183 206.374476 
L 873.984279 206.374476 
L 875.201859 207.542857 
L 876.419235 209.879619 
L 880.073884 209.879619 
L 881.289801 260.12 
L 948.324282 260.12 
L 949.539883 258.951619 
L 950.755511 254.278095 
L 951.972288 243.762667 
L 953.189333 243.762667 
L 955.623148 236.752381 
L 956.840363 236.752381 
L 958.057426 229.742095 
L 959.274643 220.395048 
L 960.490491 220.395048 
L 961.705791 218.058286 
L 962.92126 216.889905 
L 964.139419 216.889905 
L 965.356556 206.374476 
L 966.572271 206.374476 
L 967.787481 198.19581 
L 969.004074 198.19581 
L 970.219402 195.859048 
L 972.649035 195.859048 
L 973.868833 197.027429 
L 975.084543 204.037714 
L 976.303698 204.037714 
L 977.518534 200.532571 
L 978.734054 199.36419 
L 979.949491 199.36419 
L 981.164967 194.690667 
L 982.380487 192.353905 
L 983.595641 192.353905 
L 984.810978 199.36419 
L 986.026587 198.19581 
L 987.243508 198.19581 
L 988.458855 199.36419 
L 989.673647 204.037714 
L 990.888913 204.037714 
L 992.106374 206.374476 
L 994.539835 197.027429 
L 995.756648 197.027429 
L 996.971056 198.19581 
L 998.186867 197.027429 
L 999.40424 197.027429 
L 1000.619758 205.206095 
L 1001.835635 211.048 
L 1003.050913 201.700952 
L 1005.481555 201.700952 
L 1006.697035 191.185524 
L 1007.913748 191.185524 
L 1009.129119 186.512 
L 1010.345448 186.512 
L 1011.560558 191.185524 
L 1012.775967 194.690667 
L 1013.991493 193.522286 
L 1015.206725 193.522286 
L 1016.422024 200.532571 
L 1017.637485 197.027429 
L 1018.853066 197.027429 
L 1020.06877 201.700952 
L 1021.284301 202.869333 
L 1022.499889 201.700952 
L 1023.715184 201.700952 
L 1024.930949 200.532571 
L 1026.146433 200.532571 
L 1027.362 199.36419 
L 1028.578969 212.216381 
L 1029.793518 212.216381 
L 1031.008503 214.553143 
L 1032.223356 225.068571 
L 1033.437786 227.405333 
L 1035.868328 227.405333 
L 1037.084997 229.742095 
L 1038.299745 229.742095 
L 1039.516573 233.247238 
L 1040.731037 235.584 
L 1041.948632 235.584 
L 1043.162904 236.752381 
L 1049.238098 236.752381 
L 1050.452537 260.12 
L 1117.498031 260.12 
L 1118.69381 257.783238 
L 1119.909739 257.783238 
L 1121.126896 243.762667 
L 1122.342062 237.920762 
L 1123.556725 237.920762 
L 1124.771616 221.563429 
L 1125.985888 208.711238 
L 1127.20062 202.869333 
L 1128.418965 202.869333 
L 1129.63607 192.353905 
L 1130.850837 192.353905 
L 1132.065684 165.481143 
L 1133.28 158.470857 
L 1133.28 158.470857 
" style="fill:none;stroke:#1f77b4;stroke-linecap:square;stroke-width:1.5;"/>
   </g>
   <g id="patch_3">
    <path d="M 33.64 260.12 
L 33.64 14.76 
" style="fill:none;stroke:#000000;stroke-linecap:square;stroke-linejoin:miter;stroke-width:0.8;"/>
   </g>
   <g id="patch_4">
    <path d="M 1133.28 260.12 
L 1133.28 14.76 
" style="fill:none;stroke:#000000;stroke-linecap:square;stroke-linejoin:miter;stroke-width:0.8;"/>
   </g>
   <g id="patch_5">
    <path d="M 33.64 260.12 
L 1133.28 260.12 
" style="fill:none;stroke:#000000;stroke-linecap:square;stroke-linejoin:miter;stroke-width:0.8;"/>
   </g>
   <g id="patch_6">
    <path d="M 33.64 14.76 
L 1133.28 14.76 
" style="fill:none;stroke:#000000;stroke-linecap:square;stroke-linejoin:miter;stroke-width:0.8;"/>
   </g>
  </g>
 </g>
 <defs>
  <clipPath id="pe9771f4995">
   <rect height="245.36" width="1099.64" x="33.64" y="14.76"/>
  </clipPath>
 </defs>
</svg>
