<?xml version="1.0" encoding="utf-8" standalone="no"?>
<!DOCTYPE svg PUBLIC "-//W3C//DTD SVG 1.1//EN"
  "http://www.w3.org/Graphics/SVG/1.1/DTD/svg11.dtd">
<!-- Created with matplotlib (https://matplotlib.org/) -->
<svg height="288pt" version="1.1" viewBox="0 0 1152 288" width="1152pt" xmlns="http://www.w3.org/2000/svg" xmlns:xlink="http://www.w3.org/1999/xlink">
 <defs>
  <style type="text/css">
*{stroke-linecap:butt;stroke-linejoin:round;}
  </style>
 </defs>
 <g id="figure_1">
  <g id="patch_1">
   <path d="M 0 288 
L 1152 288 
L 1152 0 
L 0 0 
z
" style="fill:#ffffff;"/>
  </g>
  <g id="axes_1">
   <g id="patch_2">
    <path d="M 33.64 260.12 
L 1133.28 260.12 
L 1133.28 14.76 
L 33.64 14.76 
z
" style="fill:#ffffff;"/>
   </g>
   <g id="matplotlib.axis_1">
    <g id="xtick_1">
     <g id="line2d_1">
      <defs>
       <path d="M 0 0 
L 0 3.5 
" id="m51117b096e" style="stroke:#000000;stroke-width:0.8;"/>
      </defs>
      <g>
       <use style="stroke:#000000;stroke-width:0.8;" x="147.439428" xlink:href="#m51117b096e" y="260.12"/>
      </g>
     </g>
     <g id="text_1">
      <!-- Mon 12:00 -->
      <defs>
       <path d="M 9.8125 72.90625 
L 24.515625 72.90625 
L 43.109375 23.296875 
L 61.8125 72.90625 
L 76.515625 72.90625 
L 76.515625 0 
L 66.890625 0 
L 66.890625 64.015625 
L 48.09375 14.015625 
L 38.1875 14.015625 
L 19.390625 64.015625 
L 19.390625 0 
L 9.8125 0 
z
" id="DejaVuSans-77"/>
       <path d="M 30.609375 48.390625 
Q 23.390625 48.390625 19.1875 42.75 
Q 14.984375 37.109375 14.984375 27.296875 
Q 14.984375 17.484375 19.15625 11.84375 
Q 23.34375 6.203125 30.609375 6.203125 
Q 37.796875 6.203125 41.984375 11.859375 
Q 46.1875 17.53125 46.1875 27.296875 
Q 46.1875 37.015625 41.984375 42.703125 
Q 37.796875 48.390625 30.609375 48.390625 
z
M 30.609375 56 
Q 42.328125 56 49.015625 48.375 
Q 55.71875 40.765625 55.71875 27.296875 
Q 55.71875 13.875 49.015625 6.21875 
Q 42.328125 -1.421875 30.609375 -1.421875 
Q 18.84375 -1.421875 12.171875 6.21875 
Q 5.515625 13.875 5.515625 27.296875 
Q 5.515625 40.765625 12.171875 48.375 
Q 18.84375 56 30.609375 56 
z
" id="DejaVuSans-111"/>
       <path d="M 54.890625 33.015625 
L 54.890625 0 
L 45.90625 0 
L 45.90625 32.71875 
Q 45.90625 40.484375 42.875 44.328125 
Q 39.84375 48.1875 33.796875 48.1875 
Q 26.515625 48.1875 22.3125 43.546875 
Q 18.109375 38.921875 18.109375 30.90625 
L 18.109375 0 
L 9.078125 0 
L 9.078125 54.6875 
L 18.109375 54.6875 
L 18.109375 46.1875 
Q 21.34375 51.125 25.703125 53.5625 
Q 30.078125 56 35.796875 56 
Q 45.21875 56 50.046875 50.171875 
Q 54.890625 44.34375 54.890625 33.015625 
z
" id="DejaVuSans-110"/>
       <path id="DejaVuSans-32"/>
       <path d="M 12.40625 8.296875 
L 28.515625 8.296875 
L 28.515625 63.921875 
L 10.984375 60.40625 
L 10.984375 69.390625 
L 28.421875 72.90625 
L 38.28125 72.90625 
L 38.28125 8.296875 
L 54.390625 8.296875 
L 54.390625 0 
L 12.40625 0 
z
" id="DejaVuSans-49"/>
       <path d="M 19.1875 8.296875 
L 53.609375 8.296875 
L 53.609375 0 
L 7.328125 0 
L 7.328125 8.296875 
Q 12.9375 14.109375 22.625 23.890625 
Q 32.328125 33.6875 34.8125 36.53125 
Q 39.546875 41.84375 41.421875 45.53125 
Q 43.3125 49.21875 43.3125 52.78125 
Q 43.3125 58.59375 39.234375 62.25 
Q 35.15625 65.921875 28.609375 65.921875 
Q 23.96875 65.921875 18.8125 64.3125 
Q 13.671875 62.703125 7.8125 59.421875 
L 7.8125 69.390625 
Q 13.765625 71.78125 18.9375 73 
Q 24.125 74.21875 28.421875 74.21875 
Q 39.75 74.21875 46.484375 68.546875 
Q 53.21875 62.890625 53.21875 53.421875 
Q 53.21875 48.921875 51.53125 44.890625 
Q 49.859375 40.875 45.40625 35.40625 
Q 44.1875 33.984375 37.640625 27.21875 
Q 31.109375 20.453125 19.1875 8.296875 
z
" id="DejaVuSans-50"/>
       <path d="M 11.71875 12.40625 
L 22.015625 12.40625 
L 22.015625 0 
L 11.71875 0 
z
M 11.71875 51.703125 
L 22.015625 51.703125 
L 22.015625 39.3125 
L 11.71875 39.3125 
z
" id="DejaVuSans-58"/>
       <path d="M 31.78125 66.40625 
Q 24.171875 66.40625 20.328125 58.90625 
Q 16.5 51.421875 16.5 36.375 
Q 16.5 21.390625 20.328125 13.890625 
Q 24.171875 6.390625 31.78125 6.390625 
Q 39.453125 6.390625 43.28125 13.890625 
Q 47.125 21.390625 47.125 36.375 
Q 47.125 51.421875 43.28125 58.90625 
Q 39.453125 66.40625 31.78125 66.40625 
z
M 31.78125 74.21875 
Q 44.046875 74.21875 50.515625 64.515625 
Q 56.984375 54.828125 56.984375 36.375 
Q 56.984375 17.96875 50.515625 8.265625 
Q 44.046875 -1.421875 31.78125 -1.421875 
Q 19.53125 -1.421875 13.0625 8.265625 
Q 6.59375 17.96875 6.59375 36.375 
Q 6.59375 54.828125 13.0625 64.515625 
Q 19.53125 74.21875 31.78125 74.21875 
z
" id="DejaVuSans-48"/>
      </defs>
      <g transform="translate(120.898803 274.718437)scale(0.1 -0.1)">
       <use xlink:href="#DejaVuSans-77"/>
       <use x="86.279297" xlink:href="#DejaVuSans-111"/>
       <use x="147.460938" xlink:href="#DejaVuSans-110"/>
       <use x="210.839844" xlink:href="#DejaVuSans-32"/>
       <use x="242.626953" xlink:href="#DejaVuSans-49"/>
       <use x="306.25" xlink:href="#DejaVuSans-50"/>
       <use x="369.873047" xlink:href="#DejaVuSans-58"/>
       <use x="403.564453" xlink:href="#DejaVuSans-48"/>
       <use x="467.1875" xlink:href="#DejaVuSans-48"/>
      </g>
     </g>
    </g>
    <g id="xtick_2">
     <g id="line2d_2">
      <g>
       <use style="stroke:#000000;stroke-width:0.8;" x="262.501868" xlink:href="#m51117b096e" y="260.12"/>
      </g>
     </g>
     <g id="text_2">
      <!-- Tue 00:00 -->
      <defs>
       <path d="M -0.296875 72.90625 
L 61.375 72.90625 
L 61.375 64.59375 
L 35.5 64.59375 
L 35.5 0 
L 25.59375 0 
L 25.59375 64.59375 
L -0.296875 64.59375 
z
" id="DejaVuSans-84"/>
       <path d="M 8.5 21.578125 
L 8.5 54.6875 
L 17.484375 54.6875 
L 17.484375 21.921875 
Q 17.484375 14.15625 20.5 10.265625 
Q 23.53125 6.390625 29.59375 6.390625 
Q 36.859375 6.390625 41.078125 11.03125 
Q 45.3125 15.671875 45.3125 23.6875 
L 45.3125 54.6875 
L 54.296875 54.6875 
L 54.296875 0 
L 45.3125 0 
L 45.3125 8.40625 
Q 42.046875 3.421875 37.71875 1 
Q 33.40625 -1.421875 27.6875 -1.421875 
Q 18.265625 -1.421875 13.375 4.4375 
Q 8.5 10.296875 8.5 21.578125 
z
M 31.109375 56 
z
" id="DejaVuSans-117"/>
       <path d="M 56.203125 29.59375 
L 56.203125 25.203125 
L 14.890625 25.203125 
Q 15.484375 15.921875 20.484375 11.0625 
Q 25.484375 6.203125 34.421875 6.203125 
Q 39.59375 6.203125 44.453125 7.46875 
Q 49.3125 8.734375 54.109375 11.28125 
L 54.109375 2.78125 
Q 49.265625 0.734375 44.1875 -0.34375 
Q 39.109375 -1.421875 33.890625 -1.421875 
Q 20.796875 -1.421875 13.15625 6.1875 
Q 5.515625 13.8125 5.515625 26.8125 
Q 5.515625 40.234375 12.765625 48.109375 
Q 20.015625 56 32.328125 56 
Q 43.359375 56 49.78125 48.890625 
Q 56.203125 41.796875 56.203125 29.59375 
z
M 47.21875 32.234375 
Q 47.125 39.59375 43.09375 43.984375 
Q 39.0625 48.390625 32.421875 48.390625 
Q 24.90625 48.390625 20.390625 44.140625 
Q 15.875 39.890625 15.1875 32.171875 
z
" id="DejaVuSans-101"/>
      </defs>
      <g transform="translate(237.21593 274.718437)scale(0.1 -0.1)">
       <use xlink:href="#DejaVuSans-84"/>
       <use x="60.849609" xlink:href="#DejaVuSans-117"/>
       <use x="124.228516" xlink:href="#DejaVuSans-101"/>
       <use x="185.751953" xlink:href="#DejaVuSans-32"/>
       <use x="217.539062" xlink:href="#DejaVuSans-48"/>
       <use x="281.162109" xlink:href="#DejaVuSans-48"/>
       <use x="344.785156" xlink:href="#DejaVuSans-58"/>
       <use x="378.476562" xlink:href="#DejaVuSans-48"/>
       <use x="442.099609" xlink:href="#DejaVuSans-48"/>
      </g>
     </g>
    </g>
    <g id="xtick_3">
     <g id="line2d_3">
      <g>
       <use style="stroke:#000000;stroke-width:0.8;" x="377.564307" xlink:href="#m51117b096e" y="260.12"/>
      </g>
     </g>
     <g id="text_3">
      <!-- Tue 12:00 -->
      <g transform="translate(352.278369 274.718437)scale(0.1 -0.1)">
       <use xlink:href="#DejaVuSans-84"/>
       <use x="60.849609" xlink:href="#DejaVuSans-117"/>
       <use x="124.228516" xlink:href="#DejaVuSans-101"/>
       <use x="185.751953" xlink:href="#DejaVuSans-32"/>
       <use x="217.539062" xlink:href="#DejaVuSans-49"/>
       <use x="281.162109" xlink:href="#DejaVuSans-50"/>
       <use x="344.785156" xlink:href="#DejaVuSans-58"/>
       <use x="378.476562" xlink:href="#DejaVuSans-48"/>
       <use x="442.099609" xlink:href="#DejaVuSans-48"/>
      </g>
     </g>
    </g>
    <g id="xtick_4">
     <g id="line2d_4">
      <g>
       <use style="stroke:#000000;stroke-width:0.8;" x="492.626746" xlink:href="#m51117b096e" y="260.12"/>
      </g>
     </g>
     <g id="text_4">
      <!-- Wed 00:00 -->
      <defs>
       <path d="M 3.328125 72.90625 
L 13.28125 72.90625 
L 28.609375 11.28125 
L 43.890625 72.90625 
L 54.984375 72.90625 
L 70.3125 11.28125 
L 85.59375 72.90625 
L 95.609375 72.90625 
L 77.296875 0 
L 64.890625 0 
L 49.515625 63.28125 
L 33.984375 0 
L 21.578125 0 
z
" id="DejaVuSans-87"/>
       <path d="M 45.40625 46.390625 
L 45.40625 75.984375 
L 54.390625 75.984375 
L 54.390625 0 
L 45.40625 0 
L 45.40625 8.203125 
Q 42.578125 3.328125 38.25 0.953125 
Q 33.9375 -1.421875 27.875 -1.421875 
Q 17.96875 -1.421875 11.734375 6.484375 
Q 5.515625 14.40625 5.515625 27.296875 
Q 5.515625 40.1875 11.734375 48.09375 
Q 17.96875 56 27.875 56 
Q 33.9375 56 38.25 53.625 
Q 42.578125 51.265625 45.40625 46.390625 
z
M 14.796875 27.296875 
Q 14.796875 17.390625 18.875 11.75 
Q 22.953125 6.109375 30.078125 6.109375 
Q 37.203125 6.109375 41.296875 11.75 
Q 45.40625 17.390625 45.40625 27.296875 
Q 45.40625 37.203125 41.296875 42.84375 
Q 37.203125 48.484375 30.078125 48.484375 
Q 22.953125 48.484375 18.875 42.84375 
Q 14.796875 37.203125 14.796875 27.296875 
z
" id="DejaVuSans-100"/>
      </defs>
      <g transform="translate(465.437684 274.718437)scale(0.1 -0.1)">
       <use xlink:href="#DejaVuSans-87"/>
       <use x="98.798828" xlink:href="#DejaVuSans-101"/>
       <use x="160.322266" xlink:href="#DejaVuSans-100"/>
       <use x="223.798828" xlink:href="#DejaVuSans-32"/>
       <use x="255.585938" xlink:href="#DejaVuSans-48"/>
       <use x="319.208984" xlink:href="#DejaVuSans-48"/>
       <use x="382.832031" xlink:href="#DejaVuSans-58"/>
       <use x="416.523438" xlink:href="#DejaVuSans-48"/>
       <use x="480.146484" xlink:href="#DejaVuSans-48"/>
      </g>
     </g>
    </g>
    <g id="xtick_5">
     <g id="line2d_5">
      <g>
       <use style="stroke:#000000;stroke-width:0.8;" x="607.689186" xlink:href="#m51117b096e" y="260.12"/>
      </g>
     </g>
     <g id="text_5">
      <!-- Wed 12:00 -->
      <g transform="translate(580.500123 274.718437)scale(0.1 -0.1)">
       <use xlink:href="#DejaVuSans-87"/>
       <use x="98.798828" xlink:href="#DejaVuSans-101"/>
       <use x="160.322266" xlink:href="#DejaVuSans-100"/>
       <use x="223.798828" xlink:href="#DejaVuSans-32"/>
       <use x="255.585938" xlink:href="#DejaVuSans-49"/>
       <use x="319.208984" xlink:href="#DejaVuSans-50"/>
       <use x="382.832031" xlink:href="#DejaVuSans-58"/>
       <use x="416.523438" xlink:href="#DejaVuSans-48"/>
       <use x="480.146484" xlink:href="#DejaVuSans-48"/>
      </g>
     </g>
    </g>
    <g id="xtick_6">
     <g id="line2d_6">
      <g>
       <use style="stroke:#000000;stroke-width:0.8;" x="722.751625" xlink:href="#m51117b096e" y="260.12"/>
      </g>
     </g>
     <g id="text_6">
      <!-- Thu 00:00 -->
      <defs>
       <path d="M 54.890625 33.015625 
L 54.890625 0 
L 45.90625 0 
L 45.90625 32.71875 
Q 45.90625 40.484375 42.875 44.328125 
Q 39.84375 48.1875 33.796875 48.1875 
Q 26.515625 48.1875 22.3125 43.546875 
Q 18.109375 38.921875 18.109375 30.90625 
L 18.109375 0 
L 9.078125 0 
L 9.078125 75.984375 
L 18.109375 75.984375 
L 18.109375 46.1875 
Q 21.34375 51.125 25.703125 53.5625 
Q 30.078125 56 35.796875 56 
Q 45.21875 56 50.046875 50.171875 
Q 54.890625 44.34375 54.890625 33.015625 
z
" id="DejaVuSans-104"/>
      </defs>
      <g transform="translate(697.361782 274.718437)scale(0.1 -0.1)">
       <use xlink:href="#DejaVuSans-84"/>
       <use x="61.083984" xlink:href="#DejaVuSans-104"/>
       <use x="124.462891" xlink:href="#DejaVuSans-117"/>
       <use x="187.841797" xlink:href="#DejaVuSans-32"/>
       <use x="219.628906" xlink:href="#DejaVuSans-48"/>
       <use x="283.251953" xlink:href="#DejaVuSans-48"/>
       <use x="346.875" xlink:href="#DejaVuSans-58"/>
       <use x="380.566406" xlink:href="#DejaVuSans-48"/>
       <use x="444.189453" xlink:href="#DejaVuSans-48"/>
      </g>
     </g>
    </g>
    <g id="xtick_7">
     <g id="line2d_7">
      <g>
       <use style="stroke:#000000;stroke-width:0.8;" x="837.814065" xlink:href="#m51117b096e" y="260.12"/>
      </g>
     </g>
     <g id="text_7">
      <!-- Thu 12:00 -->
      <g transform="translate(812.424221 274.718437)scale(0.1 -0.1)">
       <use xlink:href="#DejaVuSans-84"/>
       <use x="61.083984" xlink:href="#DejaVuSans-104"/>
       <use x="124.462891" xlink:href="#DejaVuSans-117"/>
       <use x="187.841797" xlink:href="#DejaVuSans-32"/>
       <use x="219.628906" xlink:href="#DejaVuSans-49"/>
       <use x="283.251953" xlink:href="#DejaVuSans-50"/>
       <use x="346.875" xlink:href="#DejaVuSans-58"/>
       <use x="380.566406" xlink:href="#DejaVuSans-48"/>
       <use x="444.189453" xlink:href="#DejaVuSans-48"/>
      </g>
     </g>
    </g>
    <g id="xtick_8">
     <g id="line2d_8">
      <g>
       <use style="stroke:#000000;stroke-width:0.8;" x="952.876504" xlink:href="#m51117b096e" y="260.12"/>
      </g>
     </g>
     <g id="text_8">
      <!-- Fri 00:00 -->
      <defs>
       <path d="M 9.8125 72.90625 
L 51.703125 72.90625 
L 51.703125 64.59375 
L 19.671875 64.59375 
L 19.671875 43.109375 
L 48.578125 43.109375 
L 48.578125 34.8125 
L 19.671875 34.8125 
L 19.671875 0 
L 9.8125 0 
z
" id="DejaVuSans-70"/>
       <path d="M 41.109375 46.296875 
Q 39.59375 47.171875 37.8125 47.578125 
Q 36.03125 48 33.890625 48 
Q 26.265625 48 22.1875 43.046875 
Q 18.109375 38.09375 18.109375 28.8125 
L 18.109375 0 
L 9.078125 0 
L 9.078125 54.6875 
L 18.109375 54.6875 
L 18.109375 46.1875 
Q 20.953125 51.171875 25.484375 53.578125 
Q 30.03125 56 36.53125 56 
Q 37.453125 56 38.578125 55.875 
Q 39.703125 55.765625 41.0625 55.515625 
z
" id="DejaVuSans-114"/>
       <path d="M 9.421875 54.6875 
L 18.40625 54.6875 
L 18.40625 0 
L 9.421875 0 
z
M 9.421875 75.984375 
L 18.40625 75.984375 
L 18.40625 64.59375 
L 9.421875 64.59375 
z
" id="DejaVuSans-105"/>
      </defs>
      <g transform="translate(930.563223 274.718437)scale(0.1 -0.1)">
       <use xlink:href="#DejaVuSans-70"/>
       <use x="57.410156" xlink:href="#DejaVuSans-114"/>
       <use x="98.523438" xlink:href="#DejaVuSans-105"/>
       <use x="126.306641" xlink:href="#DejaVuSans-32"/>
       <use x="158.09375" xlink:href="#DejaVuSans-48"/>
       <use x="221.716797" xlink:href="#DejaVuSans-48"/>
       <use x="285.339844" xlink:href="#DejaVuSans-58"/>
       <use x="319.03125" xlink:href="#DejaVuSans-48"/>
       <use x="382.654297" xlink:href="#DejaVuSans-48"/>
      </g>
     </g>
    </g>
    <g id="xtick_9">
     <g id="line2d_9">
      <g>
       <use style="stroke:#000000;stroke-width:0.8;" x="1067.938944" xlink:href="#m51117b096e" y="260.12"/>
      </g>
     </g>
     <g id="text_9">
      <!-- Fri 12:00 -->
      <g transform="translate(1045.625663 274.718437)scale(0.1 -0.1)">
       <use xlink:href="#DejaVuSans-70"/>
       <use x="57.410156" xlink:href="#DejaVuSans-114"/>
       <use x="98.523438" xlink:href="#DejaVuSans-105"/>
       <use x="126.306641" xlink:href="#DejaVuSans-32"/>
       <use x="158.09375" xlink:href="#DejaVuSans-49"/>
       <use x="221.716797" xlink:href="#DejaVuSans-50"/>
       <use x="285.339844" xlink:href="#DejaVuSans-58"/>
       <use x="319.03125" xlink:href="#DejaVuSans-48"/>
       <use x="382.654297" xlink:href="#DejaVuSans-48"/>
      </g>
     </g>
    </g>
   </g>
   <g id="matplotlib.axis_2">
    <g id="ytick_1">
     <g id="line2d_10">
      <defs>
       <path d="M 0 0 
L -3.5 0 
" id="md1dd892ddd" style="stroke:#000000;stroke-width:0.8;"/>
      </defs>
      <g>
       <use style="stroke:#000000;stroke-width:0.8;" x="33.64" xlink:href="#md1dd892ddd" y="260.12"/>
      </g>
     </g>
     <g id="text_10">
      <!-- 0 -->
      <g transform="translate(20.2775 263.919219)scale(0.1 -0.1)">
       <use xlink:href="#DejaVuSans-48"/>
      </g>
     </g>
    </g>
    <g id="ytick_2">
     <g id="line2d_11">
      <g>
       <use style="stroke:#000000;stroke-width:0.8;" x="33.64" xlink:href="#md1dd892ddd" y="232.857778"/>
      </g>
     </g>
     <g id="text_11">
      <!-- 20 -->
      <g transform="translate(13.915 236.656997)scale(0.1 -0.1)">
       <use xlink:href="#DejaVuSans-50"/>
       <use x="63.623047" xlink:href="#DejaVuSans-48"/>
      </g>
     </g>
    </g>
    <g id="ytick_3">
     <g id="line2d_12">
      <g>
       <use style="stroke:#000000;stroke-width:0.8;" x="33.64" xlink:href="#md1dd892ddd" y="205.595556"/>
      </g>
     </g>
     <g id="text_12">
      <!-- 40 -->
      <defs>
       <path d="M 37.796875 64.3125 
L 12.890625 25.390625 
L 37.796875 25.390625 
z
M 35.203125 72.90625 
L 47.609375 72.90625 
L 47.609375 25.390625 
L 58.015625 25.390625 
L 58.015625 17.1875 
L 47.609375 17.1875 
L 47.609375 0 
L 37.796875 0 
L 37.796875 17.1875 
L 4.890625 17.1875 
L 4.890625 26.703125 
z
" id="DejaVuSans-52"/>
      </defs>
      <g transform="translate(13.915 209.394774)scale(0.1 -0.1)">
       <use xlink:href="#DejaVuSans-52"/>
       <use x="63.623047" xlink:href="#DejaVuSans-48"/>
      </g>
     </g>
    </g>
    <g id="ytick_4">
     <g id="line2d_13">
      <g>
       <use style="stroke:#000000;stroke-width:0.8;" x="33.64" xlink:href="#md1dd892ddd" y="178.333333"/>
      </g>
     </g>
     <g id="text_13">
      <!-- 60 -->
      <defs>
       <path d="M 33.015625 40.375 
Q 26.375 40.375 22.484375 35.828125 
Q 18.609375 31.296875 18.609375 23.390625 
Q 18.609375 15.53125 22.484375 10.953125 
Q 26.375 6.390625 33.015625 6.390625 
Q 39.65625 6.390625 43.53125 10.953125 
Q 47.40625 15.53125 47.40625 23.390625 
Q 47.40625 31.296875 43.53125 35.828125 
Q 39.65625 40.375 33.015625 40.375 
z
M 52.59375 71.296875 
L 52.59375 62.3125 
Q 48.875 64.0625 45.09375 64.984375 
Q 41.3125 65.921875 37.59375 65.921875 
Q 27.828125 65.921875 22.671875 59.328125 
Q 17.53125 52.734375 16.796875 39.40625 
Q 19.671875 43.65625 24.015625 45.921875 
Q 28.375 48.1875 33.59375 48.1875 
Q 44.578125 48.1875 50.953125 41.515625 
Q 57.328125 34.859375 57.328125 23.390625 
Q 57.328125 12.15625 50.6875 5.359375 
Q 44.046875 -1.421875 33.015625 -1.421875 
Q 20.359375 -1.421875 13.671875 8.265625 
Q 6.984375 17.96875 6.984375 36.375 
Q 6.984375 53.65625 15.1875 63.9375 
Q 23.390625 74.21875 37.203125 74.21875 
Q 40.921875 74.21875 44.703125 73.484375 
Q 48.484375 72.75 52.59375 71.296875 
z
" id="DejaVuSans-54"/>
      </defs>
      <g transform="translate(13.915 182.132552)scale(0.1 -0.1)">
       <use xlink:href="#DejaVuSans-54"/>
       <use x="63.623047" xlink:href="#DejaVuSans-48"/>
      </g>
     </g>
    </g>
    <g id="ytick_5">
     <g id="line2d_14">
      <g>
       <use style="stroke:#000000;stroke-width:0.8;" x="33.64" xlink:href="#md1dd892ddd" y="151.071111"/>
      </g>
     </g>
     <g id="text_14">
      <!-- 80 -->
      <defs>
       <path d="M 31.78125 34.625 
Q 24.75 34.625 20.71875 30.859375 
Q 16.703125 27.09375 16.703125 20.515625 
Q 16.703125 13.921875 20.71875 10.15625 
Q 24.75 6.390625 31.78125 6.390625 
Q 38.8125 6.390625 42.859375 10.171875 
Q 46.921875 13.96875 46.921875 20.515625 
Q 46.921875 27.09375 42.890625 30.859375 
Q 38.875 34.625 31.78125 34.625 
z
M 21.921875 38.8125 
Q 15.578125 40.375 12.03125 44.71875 
Q 8.5 49.078125 8.5 55.328125 
Q 8.5 64.0625 14.71875 69.140625 
Q 20.953125 74.21875 31.78125 74.21875 
Q 42.671875 74.21875 48.875 69.140625 
Q 55.078125 64.0625 55.078125 55.328125 
Q 55.078125 49.078125 51.53125 44.71875 
Q 48 40.375 41.703125 38.8125 
Q 48.828125 37.15625 52.796875 32.3125 
Q 56.78125 27.484375 56.78125 20.515625 
Q 56.78125 9.90625 50.3125 4.234375 
Q 43.84375 -1.421875 31.78125 -1.421875 
Q 19.734375 -1.421875 13.25 4.234375 
Q 6.78125 9.90625 6.78125 20.515625 
Q 6.78125 27.484375 10.78125 32.3125 
Q 14.796875 37.15625 21.921875 38.8125 
z
M 18.3125 54.390625 
Q 18.3125 48.734375 21.84375 45.5625 
Q 25.390625 42.390625 31.78125 42.390625 
Q 38.140625 42.390625 41.71875 45.5625 
Q 45.3125 48.734375 45.3125 54.390625 
Q 45.3125 60.0625 41.71875 63.234375 
Q 38.140625 66.40625 31.78125 66.40625 
Q 25.390625 66.40625 21.84375 63.234375 
Q 18.3125 60.0625 18.3125 54.390625 
z
" id="DejaVuSans-56"/>
      </defs>
      <g transform="translate(13.915 154.87033)scale(0.1 -0.1)">
       <use xlink:href="#DejaVuSans-56"/>
       <use x="63.623047" xlink:href="#DejaVuSans-48"/>
      </g>
     </g>
    </g>
    <g id="ytick_6">
     <g id="line2d_15">
      <g>
       <use style="stroke:#000000;stroke-width:0.8;" x="33.64" xlink:href="#md1dd892ddd" y="123.808889"/>
      </g>
     </g>
     <g id="text_15">
      <!-- 100 -->
      <g transform="translate(7.5525 127.608108)scale(0.1 -0.1)">
       <use xlink:href="#DejaVuSans-49"/>
       <use x="63.623047" xlink:href="#DejaVuSans-48"/>
       <use x="127.246094" xlink:href="#DejaVuSans-48"/>
      </g>
     </g>
    </g>
    <g id="ytick_7">
     <g id="line2d_16">
      <g>
       <use style="stroke:#000000;stroke-width:0.8;" x="33.64" xlink:href="#md1dd892ddd" y="96.546667"/>
      </g>
     </g>
     <g id="text_16">
      <!-- 120 -->
      <g transform="translate(7.5525 100.345885)scale(0.1 -0.1)">
       <use xlink:href="#DejaVuSans-49"/>
       <use x="63.623047" xlink:href="#DejaVuSans-50"/>
       <use x="127.246094" xlink:href="#DejaVuSans-48"/>
      </g>
     </g>
    </g>
    <g id="ytick_8">
     <g id="line2d_17">
      <g>
       <use style="stroke:#000000;stroke-width:0.8;" x="33.64" xlink:href="#md1dd892ddd" y="69.284444"/>
      </g>
     </g>
     <g id="text_17">
      <!-- 140 -->
      <g transform="translate(7.5525 73.083663)scale(0.1 -0.1)">
       <use xlink:href="#DejaVuSans-49"/>
       <use x="63.623047" xlink:href="#DejaVuSans-52"/>
       <use x="127.246094" xlink:href="#DejaVuSans-48"/>
      </g>
     </g>
    </g>
    <g id="ytick_9">
     <g id="line2d_18">
      <g>
       <use style="stroke:#000000;stroke-width:0.8;" x="33.64" xlink:href="#md1dd892ddd" y="42.022222"/>
      </g>
     </g>
     <g id="text_18">
      <!-- 160 -->
      <g transform="translate(7.5525 45.821441)scale(0.1 -0.1)">
       <use xlink:href="#DejaVuSans-49"/>
       <use x="63.623047" xlink:href="#DejaVuSans-54"/>
       <use x="127.246094" xlink:href="#DejaVuSans-48"/>
      </g>
     </g>
    </g>
    <g id="ytick_10">
     <g id="line2d_19">
      <g>
       <use style="stroke:#000000;stroke-width:0.8;" x="33.64" xlink:href="#md1dd892ddd" y="14.76"/>
      </g>
     </g>
     <g id="text_19">
      <!-- 180 -->
      <g transform="translate(7.5525 18.559219)scale(0.1 -0.1)">
       <use xlink:href="#DejaVuSans-49"/>
       <use x="63.623047" xlink:href="#DejaVuSans-56"/>
       <use x="127.246094" xlink:href="#DejaVuSans-48"/>
      </g>
     </g>
    </g>
   </g>
   <g id="line2d_20">
    <path clip-path="url(#p98fb7cb0a8)" d="M 33.64 260.12 
L 120.981334 260.12 
L 122.625646 254.667556 
L 124.269181 254.667556 
L 125.916319 242.399556 
L 127.558841 241.036444 
L 129.201772 230.131556 
L 130.849547 230.131556 
L 132.498413 226.042222 
L 134.142345 224.679111 
L 137.429164 224.679111 
L 140.714743 216.500444 
L 142.35761 216.500444 
L 144.000307 221.952889 
L 145.643964 221.952889 
L 147.286293 231.494667 
L 148.931015 235.584 
L 152.217523 235.584 
L 155.507172 227.405333 
L 157.149801 227.405333 
L 158.792927 231.494667 
L 160.436821 224.679111 
L 162.079308 224.679111 
L 163.721513 227.405333 
L 165.371066 224.679111 
L 167.015078 226.042222 
L 168.658726 226.042222 
L 170.301783 231.494667 
L 171.945352 231.494667 
L 173.587511 230.131556 
L 175.229437 227.405333 
L 176.872505 227.405333 
L 178.517585 226.042222 
L 180.162587 221.952889 
L 181.807326 223.316 
L 183.453699 223.316 
L 185.097606 219.226667 
L 186.741184 216.500444 
L 188.384086 216.500444 
L 190.027426 206.958667 
L 191.671311 208.321778 
L 193.314828 205.595556 
L 194.959352 205.595556 
L 196.602693 198.78 
L 198.245713 198.78 
L 199.888947 197.416889 
L 203.177156 197.416889 
L 204.820002 193.327556 
L 206.463121 176.970222 
L 208.106087 159.249778 
L 209.751316 159.249778 
L 211.398652 149.708 
L 213.043459 136.076889 
L 216.332502 136.076889 
L 217.97671 140.166222 
L 219.619797 140.166222 
L 221.264829 141.529333 
L 222.909178 137.44 
L 224.552852 137.44 
L 226.198792 131.987556 
L 227.848297 111.540889 
L 229.49244 116.993333 
L 231.138887 116.993333 
L 232.783576 121.082667 
L 234.43178 126.535111 
L 239.362248 126.535111 
L 241.005363 142.892444 
L 244.290644 153.797333 
L 245.936953 153.797333 
L 247.580013 168.791556 
L 249.224631 179.696444 
L 250.867617 179.696444 
L 252.511766 185.148889 
L 254.155662 193.327556 
L 257.445908 193.327556 
L 259.089974 260.12 
L 348.115429 260.12 
L 349.732602 258.756889 
L 351.380501 258.756889 
L 353.023575 251.941333 
L 354.666603 246.488889 
L 356.313912 246.488889 
L 357.964062 243.762667 
L 359.608431 224.679111 
L 361.253542 216.500444 
L 362.897193 216.500444 
L 364.541377 213.774222 
L 366.18467 213.774222 
L 367.828862 211.048 
L 371.116911 211.048 
L 372.762009 204.232444 
L 374.406936 211.048 
L 377.693368 211.048 
L 380.983081 213.774222 
L 382.630285 213.774222 
L 384.275123 215.137333 
L 385.918966 226.042222 
L 387.563205 226.042222 
L 389.206817 236.947111 
L 390.852664 242.399556 
L 392.495244 242.399556 
L 395.78261 239.673333 
L 397.427679 236.947111 
L 404.00831 236.947111 
L 407.298454 231.494667 
L 408.944589 227.405333 
L 410.588895 227.405333 
L 412.233848 226.042222 
L 413.876854 226.042222 
L 415.520996 220.589778 
L 417.250463 217.863556 
L 418.896458 217.863556 
L 420.541339 211.048 
L 422.185096 197.416889 
L 423.829781 194.690667 
L 425.4764 194.690667 
L 427.125173 183.785778 
L 428.774016 175.607111 
L 430.420612 175.607111 
L 432.067881 151.071111 
L 433.71456 129.261333 
L 435.360056 129.261333 
L 437.003676 121.082667 
L 438.647271 103.362222 
L 440.291407 103.362222 
L 441.936093 93.820444 
L 443.586579 88.368 
L 445.230474 88.368 
L 446.873898 74.736889 
L 448.520381 77.463111 
L 450.169282 73.373778 
L 451.812866 73.373778 
L 453.457324 88.368 
L 455.103426 89.731111 
L 456.74736 89.731111 
L 458.394274 93.820444 
L 460.038021 115.630222 
L 461.683039 115.630222 
L 463.327404 131.987556 
L 464.970937 140.166222 
L 466.61454 140.166222 
L 468.257903 148.344889 
L 471.543707 148.344889 
L 473.189697 157.886667 
L 474.833558 163.339111 
L 476.480211 163.339111 
L 478.123031 168.791556 
L 479.769805 185.148889 
L 481.413228 185.148889 
L 484.711532 204.232444 
L 486.358214 260.12 
L 578.653812 260.12 
L 580.27112 258.756889 
L 581.91478 258.756889 
L 583.559831 241.036444 
L 585.207262 232.857778 
L 586.851923 230.131556 
L 588.496324 230.131556 
L 590.148989 226.042222 
L 593.439222 226.042222 
L 595.087368 224.679111 
L 596.732373 217.863556 
L 598.37723 217.863556 
L 600.021708 219.226667 
L 601.669413 216.500444 
L 603.315873 216.500444 
L 604.959758 219.226667 
L 606.604111 228.768444 
L 613.189617 228.768444 
L 614.833776 231.494667 
L 616.477311 238.310222 
L 618.124016 242.399556 
L 619.7712 242.399556 
L 621.415729 243.762667 
L 623.062004 242.399556 
L 624.70526 242.399556 
L 627.995627 236.947111 
L 629.639904 235.584 
L 631.283255 235.584 
L 632.928188 231.494667 
L 634.572219 231.494667 
L 636.216569 223.316 
L 637.860183 223.316 
L 639.504804 216.500444 
L 641.148986 216.500444 
L 642.795639 219.226667 
L 646.082246 219.226667 
L 647.729145 205.595556 
L 649.376264 204.232444 
L 651.024482 204.232444 
L 654.3181 190.601333 
L 655.961395 182.422667 
L 657.611969 182.422667 
L 659.256836 189.238222 
L 660.899859 189.238222 
L 662.542465 182.422667 
L 664.186952 167.428444 
L 665.83022 167.428444 
L 667.479671 164.702222 
L 669.122681 159.249778 
L 670.766524 151.071111 
L 672.409573 151.071111 
L 674.052885 155.160444 
L 675.698956 144.255556 
L 677.344133 144.255556 
L 678.989554 140.166222 
L 680.633993 126.535111 
L 682.280426 126.535111 
L 683.924772 125.172 
L 685.571368 131.987556 
L 687.214308 131.987556 
L 688.8588 111.540889 
L 690.502795 101.999111 
L 692.147119 97.909778 
L 693.79138 97.909778 
L 695.43488 101.999111 
L 697.079346 101.999111 
L 698.723849 108.814667 
L 700.370818 123.808889 
L 702.014153 137.44 
L 703.659575 137.44 
L 705.30429 153.797333 
L 706.951783 159.249778 
L 708.595032 159.249778 
L 710.239311 175.607111 
L 711.885351 187.875111 
L 713.534011 187.875111 
L 715.177161 196.053778 
L 716.821079 209.684889 
L 718.467667 209.684889 
L 720.113984 260.12 
L 810.759597 260.12 
L 812.403461 254.667556 
L 814.046929 254.667556 
L 815.69068 236.947111 
L 817.334353 227.405333 
L 818.977679 224.679111 
L 820.621082 224.679111 
L 822.264268 227.405333 
L 823.907083 227.405333 
L 825.549477 221.952889 
L 827.193292 220.589778 
L 828.83976 217.863556 
L 830.484218 217.863556 
L 832.128069 221.952889 
L 833.770781 220.589778 
L 835.415225 220.589778 
L 837.057507 224.679111 
L 838.700438 231.494667 
L 841.993808 231.494667 
L 843.637101 232.857778 
L 845.280208 232.857778 
L 846.924598 235.584 
L 848.568533 234.220889 
L 850.211458 234.220889 
L 851.853997 235.584 
L 853.497186 238.310222 
L 855.140865 243.762667 
L 860.070488 243.762667 
L 863.358256 238.310222 
L 865.005583 234.220889 
L 866.648666 234.220889 
L 868.291825 232.857778 
L 869.936125 228.768444 
L 876.515062 228.768444 
L 879.805136 226.042222 
L 881.449325 223.316 
L 883.092869 223.316 
L 886.383559 198.78 
L 888.028998 198.78 
L 889.674547 204.232444 
L 891.319987 204.232444 
L 892.96674 201.506222 
L 894.610284 189.238222 
L 896.254658 186.512 
L 897.898059 186.512 
L 901.185581 142.892444 
L 902.830845 142.892444 
L 904.47522 131.987556 
L 906.120325 136.076889 
L 907.764501 136.076889 
L 909.408818 119.719556 
L 911.053308 116.993333 
L 912.697336 116.993333 
L 914.341305 107.451556 
L 915.987535 108.814667 
L 917.632479 108.814667 
L 919.276147 103.362222 
L 920.920833 88.368 
L 922.566493 84.278667 
L 924.211858 84.278667 
L 925.856884 100.636 
L 927.50086 107.451556 
L 929.14461 107.451556 
L 930.78843 122.445778 
L 932.433587 160.612889 
L 934.077623 160.612889 
L 935.722291 163.339111 
L 937.366656 168.791556 
L 939.010566 168.791556 
L 940.655253 190.601333 
L 942.29956 198.78 
L 943.944456 211.048 
L 945.588485 211.048 
L 947.233161 260.12 
L 1039.519804 260.12 
L 1041.164604 256.030667 
L 1042.809019 250.578222 
L 1044.453381 250.578222 
L 1046.099367 238.310222 
L 1047.745544 234.220889 
L 1049.393546 234.220889 
L 1051.037627 228.768444 
L 1052.682138 226.042222 
L 1054.32868 220.589778 
L 1057.622978 220.589778 
L 1059.270289 221.952889 
L 1060.913214 221.952889 
L 1062.556771 220.589778 
L 1067.490585 220.589778 
L 1069.134037 223.316 
L 1070.778541 223.316 
L 1072.423571 224.679111 
L 1074.067482 227.405333 
L 1075.714026 227.405333 
L 1077.358247 220.589778 
L 1080.649101 217.863556 
L 1082.295291 217.863556 
L 1083.944913 215.137333 
L 1085.593699 215.137333 
L 1087.240544 213.774222 
L 1088.883814 211.048 
L 1090.529759 213.774222 
L 1092.174167 213.774222 
L 1095.461283 216.500444 
L 1097.103561 216.500444 
L 1098.746336 205.595556 
L 1100.389464 212.411111 
L 1102.032815 213.774222 
L 1103.675873 213.774222 
L 1105.318723 205.595556 
L 1106.964514 205.595556 
L 1108.60798 206.958667 
L 1110.250513 213.774222 
L 1111.894113 197.416889 
L 1113.539177 197.416889 
L 1115.185286 191.964444 
L 1116.828928 183.785778 
L 1118.476062 183.785778 
L 1120.119491 170.154667 
L 1121.762351 178.333333 
L 1123.409651 178.333333 
L 1125.052689 181.059556 
L 1126.697305 166.065333 
L 1128.340392 166.065333 
L 1129.987612 163.339111 
L 1131.634451 156.523556 
L 1133.28 140.166222 
L 1133.28 140.166222 
" style="fill:none;stroke:#1f77b4;stroke-linecap:square;stroke-width:1.5;"/>
   </g>
   <g id="patch_3">
    <path d="M 33.64 260.12 
L 33.64 14.76 
" style="fill:none;stroke:#000000;stroke-linecap:square;stroke-linejoin:miter;stroke-width:0.8;"/>
   </g>
   <g id="patch_4">
    <path d="M 1133.28 260.12 
L 1133.28 14.76 
" style="fill:none;stroke:#000000;stroke-linecap:square;stroke-linejoin:miter;stroke-width:0.8;"/>
   </g>
   <g id="patch_5">
    <path d="M 33.64 260.12 
L 1133.28 260.12 
" style="fill:none;stroke:#000000;stroke-linecap:square;stroke-linejoin:miter;stroke-width:0.8;"/>
   </g>
   <g id="patch_6">
    <path d="M 33.64 14.76 
L 1133.28 14.76 
" style="fill:none;stroke:#000000;stroke-linecap:square;stroke-linejoin:miter;stroke-width:0.8;"/>
   </g>
  </g>
 </g>
 <defs>
  <clipPath id="p98fb7cb0a8">
   <rect height="245.36" width="1099.64" x="33.64" y="14.76"/>
  </clipPath>
 </defs>
</svg>
