<?xml version="1.0" encoding="utf-8" standalone="no"?>
<!DOCTYPE svg PUBLIC "-//W3C//DTD SVG 1.1//EN"
  "http://www.w3.org/Graphics/SVG/1.1/DTD/svg11.dtd">
<!-- Created with matplotlib (https://matplotlib.org/) -->
<svg height="288pt" version="1.1" viewBox="0 0 1152 288" width="1152pt" xmlns="http://www.w3.org/2000/svg" xmlns:xlink="http://www.w3.org/1999/xlink">
 <defs>
  <style type="text/css">
*{stroke-linecap:butt;stroke-linejoin:round;}
  </style>
 </defs>
 <g id="figure_1">
  <g id="patch_1">
   <path d="M 0 288 
L 1152 288 
L 1152 0 
L 0 0 
z
" style="fill:#ffffff;"/>
  </g>
  <g id="axes_1">
   <g id="patch_2">
    <path d="M 33.64 260.12 
L 1133.28 260.12 
L 1133.28 14.76 
L 33.64 14.76 
z
" style="fill:#ffffff;"/>
   </g>
   <g id="matplotlib.axis_1">
    <g id="xtick_1">
     <g id="line2d_1">
      <defs>
       <path d="M 0 0 
L 0 3.5 
" id="m2409c3128a" style="stroke:#000000;stroke-width:0.8;"/>
      </defs>
      <g>
       <use style="stroke:#000000;stroke-width:0.8;" x="197.809428" xlink:href="#m2409c3128a" y="260.12"/>
      </g>
     </g>
     <g id="text_1">
      <!-- Tue 00:00 -->
      <defs>
       <path d="M -0.296875 72.90625 
L 61.375 72.90625 
L 61.375 64.59375 
L 35.5 64.59375 
L 35.5 0 
L 25.59375 0 
L 25.59375 64.59375 
L -0.296875 64.59375 
z
" id="DejaVuSans-84"/>
       <path d="M 8.5 21.578125 
L 8.5 54.6875 
L 17.484375 54.6875 
L 17.484375 21.921875 
Q 17.484375 14.15625 20.5 10.265625 
Q 23.53125 6.390625 29.59375 6.390625 
Q 36.859375 6.390625 41.078125 11.03125 
Q 45.3125 15.671875 45.3125 23.6875 
L 45.3125 54.6875 
L 54.296875 54.6875 
L 54.296875 0 
L 45.3125 0 
L 45.3125 8.40625 
Q 42.046875 3.421875 37.71875 1 
Q 33.40625 -1.421875 27.6875 -1.421875 
Q 18.265625 -1.421875 13.375 4.4375 
Q 8.5 10.296875 8.5 21.578125 
z
M 31.109375 56 
z
" id="DejaVuSans-117"/>
       <path d="M 56.203125 29.59375 
L 56.203125 25.203125 
L 14.890625 25.203125 
Q 15.484375 15.921875 20.484375 11.0625 
Q 25.484375 6.203125 34.421875 6.203125 
Q 39.59375 6.203125 44.453125 7.46875 
Q 49.3125 8.734375 54.109375 11.28125 
L 54.109375 2.78125 
Q 49.265625 0.734375 44.1875 -0.34375 
Q 39.109375 -1.421875 33.890625 -1.421875 
Q 20.796875 -1.421875 13.15625 6.1875 
Q 5.515625 13.8125 5.515625 26.8125 
Q 5.515625 40.234375 12.765625 48.109375 
Q 20.015625 56 32.328125 56 
Q 43.359375 56 49.78125 48.890625 
Q 56.203125 41.796875 56.203125 29.59375 
z
M 47.21875 32.234375 
Q 47.125 39.59375 43.09375 43.984375 
Q 39.0625 48.390625 32.421875 48.390625 
Q 24.90625 48.390625 20.390625 44.140625 
Q 15.875 39.890625 15.1875 32.171875 
z
" id="DejaVuSans-101"/>
       <path id="DejaVuSans-32"/>
       <path d="M 31.78125 66.40625 
Q 24.171875 66.40625 20.328125 58.90625 
Q 16.5 51.421875 16.5 36.375 
Q 16.5 21.390625 20.328125 13.890625 
Q 24.171875 6.390625 31.78125 6.390625 
Q 39.453125 6.390625 43.28125 13.890625 
Q 47.125 21.390625 47.125 36.375 
Q 47.125 51.421875 43.28125 58.90625 
Q 39.453125 66.40625 31.78125 66.40625 
z
M 31.78125 74.21875 
Q 44.046875 74.21875 50.515625 64.515625 
Q 56.984375 54.828125 56.984375 36.375 
Q 56.984375 17.96875 50.515625 8.265625 
Q 44.046875 -1.421875 31.78125 -1.421875 
Q 19.53125 -1.421875 13.0625 8.265625 
Q 6.59375 17.96875 6.59375 36.375 
Q 6.59375 54.828125 13.0625 64.515625 
Q 19.53125 74.21875 31.78125 74.21875 
z
" id="DejaVuSans-48"/>
       <path d="M 11.71875 12.40625 
L 22.015625 12.40625 
L 22.015625 0 
L 11.71875 0 
z
M 11.71875 51.703125 
L 22.015625 51.703125 
L 22.015625 39.3125 
L 11.71875 39.3125 
z
" id="DejaVuSans-58"/>
      </defs>
      <g transform="translate(172.523491 274.718437)scale(0.1 -0.1)">
       <use xlink:href="#DejaVuSans-84"/>
       <use x="60.849609" xlink:href="#DejaVuSans-117"/>
       <use x="124.228516" xlink:href="#DejaVuSans-101"/>
       <use x="185.751953" xlink:href="#DejaVuSans-32"/>
       <use x="217.539062" xlink:href="#DejaVuSans-48"/>
       <use x="281.162109" xlink:href="#DejaVuSans-48"/>
       <use x="344.785156" xlink:href="#DejaVuSans-58"/>
       <use x="378.476562" xlink:href="#DejaVuSans-48"/>
       <use x="442.099609" xlink:href="#DejaVuSans-48"/>
      </g>
     </g>
    </g>
    <g id="xtick_2">
     <g id="line2d_2">
      <g>
       <use style="stroke:#000000;stroke-width:0.8;" x="362.145437" xlink:href="#m2409c3128a" y="260.12"/>
      </g>
     </g>
     <g id="text_2">
      <!-- Wed 00:00 -->
      <defs>
       <path d="M 3.328125 72.90625 
L 13.28125 72.90625 
L 28.609375 11.28125 
L 43.890625 72.90625 
L 54.984375 72.90625 
L 70.3125 11.28125 
L 85.59375 72.90625 
L 95.609375 72.90625 
L 77.296875 0 
L 64.890625 0 
L 49.515625 63.28125 
L 33.984375 0 
L 21.578125 0 
z
" id="DejaVuSans-87"/>
       <path d="M 45.40625 46.390625 
L 45.40625 75.984375 
L 54.390625 75.984375 
L 54.390625 0 
L 45.40625 0 
L 45.40625 8.203125 
Q 42.578125 3.328125 38.25 0.953125 
Q 33.9375 -1.421875 27.875 -1.421875 
Q 17.96875 -1.421875 11.734375 6.484375 
Q 5.515625 14.40625 5.515625 27.296875 
Q 5.515625 40.1875 11.734375 48.09375 
Q 17.96875 56 27.875 56 
Q 33.9375 56 38.25 53.625 
Q 42.578125 51.265625 45.40625 46.390625 
z
M 14.796875 27.296875 
Q 14.796875 17.390625 18.875 11.75 
Q 22.953125 6.109375 30.078125 6.109375 
Q 37.203125 6.109375 41.296875 11.75 
Q 45.40625 17.390625 45.40625 27.296875 
Q 45.40625 37.203125 41.296875 42.84375 
Q 37.203125 48.484375 30.078125 48.484375 
Q 22.953125 48.484375 18.875 42.84375 
Q 14.796875 37.203125 14.796875 27.296875 
z
" id="DejaVuSans-100"/>
      </defs>
      <g transform="translate(334.956374 274.718437)scale(0.1 -0.1)">
       <use xlink:href="#DejaVuSans-87"/>
       <use x="98.798828" xlink:href="#DejaVuSans-101"/>
       <use x="160.322266" xlink:href="#DejaVuSans-100"/>
       <use x="223.798828" xlink:href="#DejaVuSans-32"/>
       <use x="255.585938" xlink:href="#DejaVuSans-48"/>
       <use x="319.208984" xlink:href="#DejaVuSans-48"/>
       <use x="382.832031" xlink:href="#DejaVuSans-58"/>
       <use x="416.523438" xlink:href="#DejaVuSans-48"/>
       <use x="480.146484" xlink:href="#DejaVuSans-48"/>
      </g>
     </g>
    </g>
    <g id="xtick_3">
     <g id="line2d_3">
      <g>
       <use style="stroke:#000000;stroke-width:0.8;" x="526.481445" xlink:href="#m2409c3128a" y="260.12"/>
      </g>
     </g>
     <g id="text_3">
      <!-- Thu 00:00 -->
      <defs>
       <path d="M 54.890625 33.015625 
L 54.890625 0 
L 45.90625 0 
L 45.90625 32.71875 
Q 45.90625 40.484375 42.875 44.328125 
Q 39.84375 48.1875 33.796875 48.1875 
Q 26.515625 48.1875 22.3125 43.546875 
Q 18.109375 38.921875 18.109375 30.90625 
L 18.109375 0 
L 9.078125 0 
L 9.078125 75.984375 
L 18.109375 75.984375 
L 18.109375 46.1875 
Q 21.34375 51.125 25.703125 53.5625 
Q 30.078125 56 35.796875 56 
Q 45.21875 56 50.046875 50.171875 
Q 54.890625 44.34375 54.890625 33.015625 
z
" id="DejaVuSans-104"/>
      </defs>
      <g transform="translate(501.091601 274.718437)scale(0.1 -0.1)">
       <use xlink:href="#DejaVuSans-84"/>
       <use x="61.083984" xlink:href="#DejaVuSans-104"/>
       <use x="124.462891" xlink:href="#DejaVuSans-117"/>
       <use x="187.841797" xlink:href="#DejaVuSans-32"/>
       <use x="219.628906" xlink:href="#DejaVuSans-48"/>
       <use x="283.251953" xlink:href="#DejaVuSans-48"/>
       <use x="346.875" xlink:href="#DejaVuSans-58"/>
       <use x="380.566406" xlink:href="#DejaVuSans-48"/>
       <use x="444.189453" xlink:href="#DejaVuSans-48"/>
      </g>
     </g>
    </g>
    <g id="xtick_4">
     <g id="line2d_4">
      <g>
       <use style="stroke:#000000;stroke-width:0.8;" x="690.817453" xlink:href="#m2409c3128a" y="260.12"/>
      </g>
     </g>
     <g id="text_4">
      <!-- Fri 00:00 -->
      <defs>
       <path d="M 9.8125 72.90625 
L 51.703125 72.90625 
L 51.703125 64.59375 
L 19.671875 64.59375 
L 19.671875 43.109375 
L 48.578125 43.109375 
L 48.578125 34.8125 
L 19.671875 34.8125 
L 19.671875 0 
L 9.8125 0 
z
" id="DejaVuSans-70"/>
       <path d="M 41.109375 46.296875 
Q 39.59375 47.171875 37.8125 47.578125 
Q 36.03125 48 33.890625 48 
Q 26.265625 48 22.1875 43.046875 
Q 18.109375 38.09375 18.109375 28.8125 
L 18.109375 0 
L 9.078125 0 
L 9.078125 54.6875 
L 18.109375 54.6875 
L 18.109375 46.1875 
Q 20.953125 51.171875 25.484375 53.578125 
Q 30.03125 56 36.53125 56 
Q 37.453125 56 38.578125 55.875 
Q 39.703125 55.765625 41.0625 55.515625 
z
" id="DejaVuSans-114"/>
       <path d="M 9.421875 54.6875 
L 18.40625 54.6875 
L 18.40625 0 
L 9.421875 0 
z
M 9.421875 75.984375 
L 18.40625 75.984375 
L 18.40625 64.59375 
L 9.421875 64.59375 
z
" id="DejaVuSans-105"/>
      </defs>
      <g transform="translate(668.504172 274.718437)scale(0.1 -0.1)">
       <use xlink:href="#DejaVuSans-70"/>
       <use x="57.410156" xlink:href="#DejaVuSans-114"/>
       <use x="98.523438" xlink:href="#DejaVuSans-105"/>
       <use x="126.306641" xlink:href="#DejaVuSans-32"/>
       <use x="158.09375" xlink:href="#DejaVuSans-48"/>
       <use x="221.716797" xlink:href="#DejaVuSans-48"/>
       <use x="285.339844" xlink:href="#DejaVuSans-58"/>
       <use x="319.03125" xlink:href="#DejaVuSans-48"/>
       <use x="382.654297" xlink:href="#DejaVuSans-48"/>
      </g>
     </g>
    </g>
    <g id="xtick_5">
     <g id="line2d_5">
      <g>
       <use style="stroke:#000000;stroke-width:0.8;" x="855.153462" xlink:href="#m2409c3128a" y="260.12"/>
      </g>
     </g>
     <g id="text_5">
      <!-- Sat 00:00 -->
      <defs>
       <path d="M 53.515625 70.515625 
L 53.515625 60.890625 
Q 47.90625 63.578125 42.921875 64.890625 
Q 37.9375 66.21875 33.296875 66.21875 
Q 25.25 66.21875 20.875 63.09375 
Q 16.5 59.96875 16.5 54.203125 
Q 16.5 49.359375 19.40625 46.890625 
Q 22.3125 44.4375 30.421875 42.921875 
L 36.375 41.703125 
Q 47.40625 39.59375 52.65625 34.296875 
Q 57.90625 29 57.90625 20.125 
Q 57.90625 9.515625 50.796875 4.046875 
Q 43.703125 -1.421875 29.984375 -1.421875 
Q 24.8125 -1.421875 18.96875 -0.25 
Q 13.140625 0.921875 6.890625 3.21875 
L 6.890625 13.375 
Q 12.890625 10.015625 18.65625 8.296875 
Q 24.421875 6.59375 29.984375 6.59375 
Q 38.421875 6.59375 43.015625 9.90625 
Q 47.609375 13.234375 47.609375 19.390625 
Q 47.609375 24.75 44.3125 27.78125 
Q 41.015625 30.8125 33.5 32.328125 
L 27.484375 33.5 
Q 16.453125 35.6875 11.515625 40.375 
Q 6.59375 45.0625 6.59375 53.421875 
Q 6.59375 63.09375 13.40625 68.65625 
Q 20.21875 74.21875 32.171875 74.21875 
Q 37.3125 74.21875 42.625 73.28125 
Q 47.953125 72.359375 53.515625 70.515625 
z
" id="DejaVuSans-83"/>
       <path d="M 34.28125 27.484375 
Q 23.390625 27.484375 19.1875 25 
Q 14.984375 22.515625 14.984375 16.5 
Q 14.984375 11.71875 18.140625 8.90625 
Q 21.296875 6.109375 26.703125 6.109375 
Q 34.1875 6.109375 38.703125 11.40625 
Q 43.21875 16.703125 43.21875 25.484375 
L 43.21875 27.484375 
z
M 52.203125 31.203125 
L 52.203125 0 
L 43.21875 0 
L 43.21875 8.296875 
Q 40.140625 3.328125 35.546875 0.953125 
Q 30.953125 -1.421875 24.3125 -1.421875 
Q 15.921875 -1.421875 10.953125 3.296875 
Q 6 8.015625 6 15.921875 
Q 6 25.140625 12.171875 29.828125 
Q 18.359375 34.515625 30.609375 34.515625 
L 43.21875 34.515625 
L 43.21875 35.40625 
Q 43.21875 41.609375 39.140625 45 
Q 35.0625 48.390625 27.6875 48.390625 
Q 23 48.390625 18.546875 47.265625 
Q 14.109375 46.140625 10.015625 43.890625 
L 10.015625 52.203125 
Q 14.9375 54.109375 19.578125 55.046875 
Q 24.21875 56 28.609375 56 
Q 40.484375 56 46.34375 49.84375 
Q 52.203125 43.703125 52.203125 31.203125 
z
" id="DejaVuSans-97"/>
       <path d="M 18.3125 70.21875 
L 18.3125 54.6875 
L 36.8125 54.6875 
L 36.8125 47.703125 
L 18.3125 47.703125 
L 18.3125 18.015625 
Q 18.3125 11.328125 20.140625 9.421875 
Q 21.96875 7.515625 27.59375 7.515625 
L 36.8125 7.515625 
L 36.8125 0 
L 27.59375 0 
Q 17.1875 0 13.234375 3.875 
Q 9.28125 7.765625 9.28125 18.015625 
L 9.28125 47.703125 
L 2.6875 47.703125 
L 2.6875 54.6875 
L 9.28125 54.6875 
L 9.28125 70.21875 
z
" id="DejaVuSans-116"/>
      </defs>
      <g transform="translate(830.956587 274.718437)scale(0.1 -0.1)">
       <use xlink:href="#DejaVuSans-83"/>
       <use x="63.476562" xlink:href="#DejaVuSans-97"/>
       <use x="124.755859" xlink:href="#DejaVuSans-116"/>
       <use x="163.964844" xlink:href="#DejaVuSans-32"/>
       <use x="195.751953" xlink:href="#DejaVuSans-48"/>
       <use x="259.375" xlink:href="#DejaVuSans-48"/>
       <use x="322.998047" xlink:href="#DejaVuSans-58"/>
       <use x="356.689453" xlink:href="#DejaVuSans-48"/>
       <use x="420.3125" xlink:href="#DejaVuSans-48"/>
      </g>
     </g>
    </g>
    <g id="xtick_6">
     <g id="line2d_6">
      <g>
       <use style="stroke:#000000;stroke-width:0.8;" x="1019.48947" xlink:href="#m2409c3128a" y="260.12"/>
      </g>
     </g>
     <g id="text_6">
      <!-- Sun 00:00 -->
      <defs>
       <path d="M 54.890625 33.015625 
L 54.890625 0 
L 45.90625 0 
L 45.90625 32.71875 
Q 45.90625 40.484375 42.875 44.328125 
Q 39.84375 48.1875 33.796875 48.1875 
Q 26.515625 48.1875 22.3125 43.546875 
Q 18.109375 38.921875 18.109375 30.90625 
L 18.109375 0 
L 9.078125 0 
L 9.078125 54.6875 
L 18.109375 54.6875 
L 18.109375 46.1875 
Q 21.34375 51.125 25.703125 53.5625 
Q 30.078125 56 35.796875 56 
Q 45.21875 56 50.046875 50.171875 
Q 54.890625 44.34375 54.890625 33.015625 
z
" id="DejaVuSans-110"/>
      </defs>
      <g transform="translate(993.979314 274.718437)scale(0.1 -0.1)">
       <use xlink:href="#DejaVuSans-83"/>
       <use x="63.476562" xlink:href="#DejaVuSans-117"/>
       <use x="126.855469" xlink:href="#DejaVuSans-110"/>
       <use x="190.234375" xlink:href="#DejaVuSans-32"/>
       <use x="222.021484" xlink:href="#DejaVuSans-48"/>
       <use x="285.644531" xlink:href="#DejaVuSans-48"/>
       <use x="349.267578" xlink:href="#DejaVuSans-58"/>
       <use x="382.958984" xlink:href="#DejaVuSans-48"/>
       <use x="446.582031" xlink:href="#DejaVuSans-48"/>
      </g>
     </g>
    </g>
   </g>
   <g id="matplotlib.axis_2">
    <g id="ytick_1">
     <g id="line2d_7">
      <defs>
       <path d="M 0 0 
L -3.5 0 
" id="m281dcb330a" style="stroke:#000000;stroke-width:0.8;"/>
      </defs>
      <g>
       <use style="stroke:#000000;stroke-width:0.8;" x="33.64" xlink:href="#m281dcb330a" y="260.12"/>
      </g>
     </g>
     <g id="text_7">
      <!-- 0 -->
      <g transform="translate(20.2775 263.919219)scale(0.1 -0.1)">
       <use xlink:href="#DejaVuSans-48"/>
      </g>
     </g>
    </g>
    <g id="ytick_2">
     <g id="line2d_8">
      <g>
       <use style="stroke:#000000;stroke-width:0.8;" x="33.64" xlink:href="#m281dcb330a" y="230.910476"/>
      </g>
     </g>
     <g id="text_8">
      <!-- 25 -->
      <defs>
       <path d="M 19.1875 8.296875 
L 53.609375 8.296875 
L 53.609375 0 
L 7.328125 0 
L 7.328125 8.296875 
Q 12.9375 14.109375 22.625 23.890625 
Q 32.328125 33.6875 34.8125 36.53125 
Q 39.546875 41.84375 41.421875 45.53125 
Q 43.3125 49.21875 43.3125 52.78125 
Q 43.3125 58.59375 39.234375 62.25 
Q 35.15625 65.921875 28.609375 65.921875 
Q 23.96875 65.921875 18.8125 64.3125 
Q 13.671875 62.703125 7.8125 59.421875 
L 7.8125 69.390625 
Q 13.765625 71.78125 18.9375 73 
Q 24.125 74.21875 28.421875 74.21875 
Q 39.75 74.21875 46.484375 68.546875 
Q 53.21875 62.890625 53.21875 53.421875 
Q 53.21875 48.921875 51.53125 44.890625 
Q 49.859375 40.875 45.40625 35.40625 
Q 44.1875 33.984375 37.640625 27.21875 
Q 31.109375 20.453125 19.1875 8.296875 
z
" id="DejaVuSans-50"/>
       <path d="M 10.796875 72.90625 
L 49.515625 72.90625 
L 49.515625 64.59375 
L 19.828125 64.59375 
L 19.828125 46.734375 
Q 21.96875 47.46875 24.109375 47.828125 
Q 26.265625 48.1875 28.421875 48.1875 
Q 40.625 48.1875 47.75 41.5 
Q 54.890625 34.8125 54.890625 23.390625 
Q 54.890625 11.625 47.5625 5.09375 
Q 40.234375 -1.421875 26.90625 -1.421875 
Q 22.3125 -1.421875 17.546875 -0.640625 
Q 12.796875 0.140625 7.71875 1.703125 
L 7.71875 11.625 
Q 12.109375 9.234375 16.796875 8.0625 
Q 21.484375 6.890625 26.703125 6.890625 
Q 35.15625 6.890625 40.078125 11.328125 
Q 45.015625 15.765625 45.015625 23.390625 
Q 45.015625 31 40.078125 35.4375 
Q 35.15625 39.890625 26.703125 39.890625 
Q 22.75 39.890625 18.8125 39.015625 
Q 14.890625 38.140625 10.796875 36.28125 
z
" id="DejaVuSans-53"/>
      </defs>
      <g transform="translate(13.915 234.709695)scale(0.1 -0.1)">
       <use xlink:href="#DejaVuSans-50"/>
       <use x="63.623047" xlink:href="#DejaVuSans-53"/>
      </g>
     </g>
    </g>
    <g id="ytick_3">
     <g id="line2d_9">
      <g>
       <use style="stroke:#000000;stroke-width:0.8;" x="33.64" xlink:href="#m281dcb330a" y="201.700952"/>
      </g>
     </g>
     <g id="text_9">
      <!-- 50 -->
      <g transform="translate(13.915 205.500171)scale(0.1 -0.1)">
       <use xlink:href="#DejaVuSans-53"/>
       <use x="63.623047" xlink:href="#DejaVuSans-48"/>
      </g>
     </g>
    </g>
    <g id="ytick_4">
     <g id="line2d_10">
      <g>
       <use style="stroke:#000000;stroke-width:0.8;" x="33.64" xlink:href="#m281dcb330a" y="172.491429"/>
      </g>
     </g>
     <g id="text_10">
      <!-- 75 -->
      <defs>
       <path d="M 8.203125 72.90625 
L 55.078125 72.90625 
L 55.078125 68.703125 
L 28.609375 0 
L 18.3125 0 
L 43.21875 64.59375 
L 8.203125 64.59375 
z
" id="DejaVuSans-55"/>
      </defs>
      <g transform="translate(13.915 176.290647)scale(0.1 -0.1)">
       <use xlink:href="#DejaVuSans-55"/>
       <use x="63.623047" xlink:href="#DejaVuSans-53"/>
      </g>
     </g>
    </g>
    <g id="ytick_5">
     <g id="line2d_11">
      <g>
       <use style="stroke:#000000;stroke-width:0.8;" x="33.64" xlink:href="#m281dcb330a" y="143.281905"/>
      </g>
     </g>
     <g id="text_11">
      <!-- 100 -->
      <defs>
       <path d="M 12.40625 8.296875 
L 28.515625 8.296875 
L 28.515625 63.921875 
L 10.984375 60.40625 
L 10.984375 69.390625 
L 28.421875 72.90625 
L 38.28125 72.90625 
L 38.28125 8.296875 
L 54.390625 8.296875 
L 54.390625 0 
L 12.40625 0 
z
" id="DejaVuSans-49"/>
      </defs>
      <g transform="translate(7.5525 147.081124)scale(0.1 -0.1)">
       <use xlink:href="#DejaVuSans-49"/>
       <use x="63.623047" xlink:href="#DejaVuSans-48"/>
       <use x="127.246094" xlink:href="#DejaVuSans-48"/>
      </g>
     </g>
    </g>
    <g id="ytick_6">
     <g id="line2d_12">
      <g>
       <use style="stroke:#000000;stroke-width:0.8;" x="33.64" xlink:href="#m281dcb330a" y="114.072381"/>
      </g>
     </g>
     <g id="text_12">
      <!-- 125 -->
      <g transform="translate(7.5525 117.8716)scale(0.1 -0.1)">
       <use xlink:href="#DejaVuSans-49"/>
       <use x="63.623047" xlink:href="#DejaVuSans-50"/>
       <use x="127.246094" xlink:href="#DejaVuSans-53"/>
      </g>
     </g>
    </g>
    <g id="ytick_7">
     <g id="line2d_13">
      <g>
       <use style="stroke:#000000;stroke-width:0.8;" x="33.64" xlink:href="#m281dcb330a" y="84.862857"/>
      </g>
     </g>
     <g id="text_13">
      <!-- 150 -->
      <g transform="translate(7.5525 88.662076)scale(0.1 -0.1)">
       <use xlink:href="#DejaVuSans-49"/>
       <use x="63.623047" xlink:href="#DejaVuSans-53"/>
       <use x="127.246094" xlink:href="#DejaVuSans-48"/>
      </g>
     </g>
    </g>
    <g id="ytick_8">
     <g id="line2d_14">
      <g>
       <use style="stroke:#000000;stroke-width:0.8;" x="33.64" xlink:href="#m281dcb330a" y="55.653333"/>
      </g>
     </g>
     <g id="text_14">
      <!-- 175 -->
      <g transform="translate(7.5525 59.452552)scale(0.1 -0.1)">
       <use xlink:href="#DejaVuSans-49"/>
       <use x="63.623047" xlink:href="#DejaVuSans-55"/>
       <use x="127.246094" xlink:href="#DejaVuSans-53"/>
      </g>
     </g>
    </g>
    <g id="ytick_9">
     <g id="line2d_15">
      <g>
       <use style="stroke:#000000;stroke-width:0.8;" x="33.64" xlink:href="#m281dcb330a" y="26.44381"/>
      </g>
     </g>
     <g id="text_15">
      <!-- 200 -->
      <g transform="translate(7.5525 30.243028)scale(0.1 -0.1)">
       <use xlink:href="#DejaVuSans-50"/>
       <use x="63.623047" xlink:href="#DejaVuSans-48"/>
       <use x="127.246094" xlink:href="#DejaVuSans-48"/>
      </g>
     </g>
    </g>
   </g>
   <g id="line2d_16">
    <path clip-path="url(#p56eb6f2e3b)" d="M 33.64 260.12 
L 95.995909 260.12 
L 97.170753 257.783238 
L 98.346348 257.783238 
L 99.522018 254.278095 
L 100.697531 254.278095 
L 103.046132 249.604571 
L 104.221144 248.43619 
L 105.394983 248.43619 
L 106.569178 247.26781 
L 108.918131 247.26781 
L 110.092953 242.594286 
L 111.26731 236.752381 
L 112.441171 236.752381 
L 113.615799 229.742095 
L 114.792033 226.236952 
L 115.966279 226.236952 
L 117.14074 222.73181 
L 120.662846 222.73181 
L 121.836771 219.226667 
L 123.010216 218.058286 
L 125.359405 218.058286 
L 126.533496 223.90019 
L 127.707709 223.90019 
L 128.883522 229.742095 
L 130.057299 227.405333 
L 131.232062 227.405333 
L 132.405991 232.078857 
L 133.579862 233.247238 
L 134.754662 236.752381 
L 135.929078 236.752381 
L 137.104983 234.415619 
L 138.278012 234.415619 
L 139.452178 230.910476 
L 141.799379 216.889905 
L 142.972805 216.889905 
L 144.146715 212.216381 
L 145.321355 208.711238 
L 146.496895 208.711238 
L 147.670565 197.027429 
L 148.849431 192.353905 
L 150.027691 186.512 
L 151.20123 186.512 
L 152.375831 187.680381 
L 153.549562 187.680381 
L 154.724079 181.838476 
L 155.898246 164.312762 
L 157.071636 164.312762 
L 158.245795 150.29219 
L 159.420511 139.776762 
L 160.595366 116.409143 
L 161.769117 116.409143 
L 162.942654 89.536381 
L 164.118494 89.536381 
L 165.292066 67.337143 
L 166.465655 53.316571 
L 167.638859 47.474667 
L 168.812354 47.474667 
L 169.986168 54.484952 
L 171.159574 59.158476 
L 172.334012 59.158476 
L 173.508676 76.68419 
L 174.681766 74.347429 
L 175.857663 74.347429 
L 177.032516 79.020952 
L 178.205793 81.357714 
L 179.381135 93.041524 
L 180.554456 93.041524 
L 181.728033 100.05181 
L 182.901477 109.398857 
L 184.074364 109.398857 
L 185.248434 122.251048 
L 186.421858 128.092952 
L 187.597431 128.092952 
L 188.770329 129.261333 
L 189.944028 132.766476 
L 191.117634 139.776762 
L 192.290308 139.776762 
L 193.462748 260.12 
L 259.360237 260.12 
L 260.515049 258.951619 
L 261.692075 243.762667 
L 262.868546 243.762667 
L 264.044747 240.257524 
L 265.218873 235.584 
L 267.570955 235.584 
L 268.744999 232.078857 
L 269.918857 232.078857 
L 271.093336 227.405333 
L 272.267836 223.90019 
L 273.440927 223.90019 
L 274.616428 222.73181 
L 276.963564 222.73181 
L 278.137543 225.068571 
L 279.313916 218.058286 
L 280.490003 219.226667 
L 281.663176 219.226667 
L 282.837545 216.889905 
L 284.012047 218.058286 
L 285.186708 218.058286 
L 286.360235 221.563429 
L 287.533469 219.226667 
L 288.707851 219.226667 
L 289.883082 214.553143 
L 291.056486 218.058286 
L 292.229553 218.058286 
L 293.402711 213.384762 
L 294.578617 212.216381 
L 295.754339 208.711238 
L 296.929113 208.711238 
L 299.276094 201.700952 
L 300.451643 201.700952 
L 301.627215 204.037714 
L 303.982561 204.037714 
L 305.155583 200.532571 
L 307.505048 200.532571 
L 308.680766 197.027429 
L 309.854874 187.680381 
L 311.028595 187.680381 
L 312.201812 184.175238 
L 313.375911 178.333333 
L 314.549907 178.333333 
L 315.725801 171.323048 
L 316.899991 156.134095 
L 318.074459 128.092952 
L 319.251689 128.092952 
L 320.430326 116.409143 
L 322.777796 116.409143 
L 323.955236 98.883429 
L 325.129442 98.883429 
L 326.302996 79.020952 
L 327.476403 67.337143 
L 328.649995 49.811429 
L 329.823651 49.811429 
L 330.998801 38.127619 
L 334.519447 38.127619 
L 335.695672 26.44381 
L 336.871742 26.44381 
L 338.045009 48.643048 
L 339.219159 60.326857 
L 340.392908 74.347429 
L 341.569165 74.347429 
L 343.916024 110.567238 
L 345.092597 110.567238 
L 346.266042 125.75619 
L 347.439846 137.44 
L 348.613141 151.460571 
L 349.789897 151.460571 
L 350.963658 161.976 
L 352.138125 161.976 
L 353.315078 166.649524 
L 354.488301 174.82819 
L 355.662717 175.996571 
L 358.011075 175.996571 
L 359.18402 260.12 
L 423.906673 260.12 
L 425.080065 255.446476 
L 427.428309 241.425905 
L 428.604008 241.425905 
L 429.778023 240.257524 
L 432.129493 240.257524 
L 433.303205 239.089143 
L 434.47701 239.089143 
L 435.652677 232.078857 
L 436.827951 232.078857 
L 438.002073 228.573714 
L 439.17767 228.573714 
L 440.352242 226.236952 
L 441.527492 225.068571 
L 446.226366 225.068571 
L 447.405513 226.236952 
L 449.752561 226.236952 
L 450.926213 223.90019 
L 452.101445 216.889905 
L 453.27497 219.226667 
L 454.451028 219.226667 
L 455.626786 221.563429 
L 456.800299 221.563429 
L 459.14813 214.553143 
L 460.324105 212.216381 
L 461.499822 212.216381 
L 462.673238 208.711238 
L 463.848595 206.374476 
L 465.024424 206.374476 
L 466.19839 209.879619 
L 467.373666 207.542857 
L 468.548895 206.374476 
L 469.725083 206.374476 
L 470.901624 205.206095 
L 472.075701 205.206095 
L 473.249978 198.19581 
L 474.425139 190.017143 
L 475.602096 190.017143 
L 476.778121 184.175238 
L 477.953516 171.323048 
L 479.126949 170.154667 
L 480.304518 170.154667 
L 481.480572 159.639238 
L 482.656625 159.639238 
L 483.831297 156.134095 
L 485.006963 153.797333 
L 486.183177 129.261333 
L 487.367485 129.261333 
L 488.54182 123.419429 
L 489.715912 115.240762 
L 490.891186 115.240762 
L 492.065662 98.883429 
L 493.239562 96.546667 
L 494.413997 96.546667 
L 495.588829 108.230476 
L 496.766852 101.22019 
L 497.939899 101.22019 
L 499.113182 96.546667 
L 500.28943 89.536381 
L 501.468346 95.378286 
L 502.644814 95.378286 
L 503.820364 94.209905 
L 504.996838 119.914286 
L 506.172367 119.914286 
L 507.345565 125.75619 
L 508.52124 144.450286 
L 509.697015 146.787048 
L 510.872487 146.787048 
L 512.048087 156.134095 
L 513.221117 156.134095 
L 514.397035 165.481143 
L 515.573234 171.323048 
L 516.746633 173.65981 
L 517.92299 173.65981 
L 519.098832 180.670095 
L 520.271704 181.838476 
L 522.623601 181.838476 
L 523.799588 260.12 
L 589.704865 260.12 
L 590.878081 256.614857 
L 592.051024 248.43619 
L 593.224482 248.43619 
L 594.400276 244.931048 
L 595.574163 242.594286 
L 596.748073 242.594286 
L 599.098104 235.584 
L 600.273074 230.910476 
L 601.449316 230.910476 
L 602.622899 229.742095 
L 603.797122 229.742095 
L 604.970626 226.236952 
L 606.146883 223.90019 
L 607.32121 223.90019 
L 609.670108 221.563429 
L 610.84427 225.068571 
L 612.019535 225.068571 
L 613.193554 222.73181 
L 614.368334 219.226667 
L 615.542794 219.226667 
L 616.717327 211.048 
L 617.89166 211.048 
L 619.0657 212.216381 
L 622.590149 212.216381 
L 623.765576 205.206095 
L 626.114134 205.206095 
L 627.289383 197.027429 
L 628.464625 194.690667 
L 629.640237 199.36419 
L 630.815714 199.36419 
L 631.996525 195.859048 
L 633.170758 195.859048 
L 634.344487 191.185524 
L 635.519124 184.175238 
L 636.693424 175.996571 
L 637.868805 175.996571 
L 639.043383 167.817905 
L 640.219479 161.976 
L 641.394871 161.976 
L 642.571009 157.302476 
L 643.747041 143.281905 
L 644.924259 143.281905 
L 646.100302 138.608381 
L 647.275779 128.092952 
L 648.451388 114.072381 
L 649.625862 114.072381 
L 650.79974 98.883429 
L 651.973393 104.725333 
L 653.147536 104.725333 
L 654.322409 86.031238 
L 655.496318 86.031238 
L 656.6755 70.842286 
L 657.85011 59.158476 
L 659.024986 46.306286 
L 660.201244 46.306286 
L 661.377747 28.780571 
L 662.553257 32.285714 
L 663.7272 32.285714 
L 664.902102 38.127619 
L 666.075087 31.117333 
L 667.248613 31.117333 
L 668.421996 41.632762 
L 669.596421 54.484952 
L 670.770316 62.663619 
L 671.944093 62.663619 
L 673.11717 76.68419 
L 674.29548 96.546667 
L 675.468695 96.546667 
L 676.644184 105.893714 
L 677.819656 121.082667 
L 678.993231 121.082667 
L 680.167017 126.924571 
L 681.342392 144.450286 
L 682.51784 144.450286 
L 683.691137 152.628952 
L 684.864885 158.470857 
L 687.214517 158.470857 
L 688.388057 260.12 
L 751.962551 260.12 
L 753.117298 256.614857 
L 754.291398 256.614857 
L 755.465343 254.278095 
L 756.63874 249.604571 
L 757.812472 247.26781 
L 758.988532 247.26781 
L 760.163311 242.594286 
L 761.337533 233.247238 
L 762.512373 233.247238 
L 763.685922 227.405333 
L 764.858975 227.405333 
L 766.032285 223.90019 
L 767.20846 223.90019 
L 768.381787 216.889905 
L 769.555556 216.889905 
L 770.729471 213.384762 
L 771.902849 215.721524 
L 773.076749 215.721524 
L 774.250624 216.889905 
L 775.424523 220.395048 
L 777.777322 220.395048 
L 778.950761 221.563429 
L 780.12441 221.563429 
L 781.298136 219.226667 
L 782.472082 225.068571 
L 784.818386 225.068571 
L 785.991525 220.395048 
L 787.166093 222.73181 
L 788.341525 222.73181 
L 789.51605 220.395048 
L 790.691809 220.395048 
L 791.866031 218.058286 
L 793.039438 206.374476 
L 794.212998 202.869333 
L 795.387843 202.869333 
L 796.560787 194.690667 
L 797.734851 187.680381 
L 798.907994 187.680381 
L 800.084137 181.838476 
L 801.262276 171.323048 
L 802.437285 164.312762 
L 803.614379 164.312762 
L 804.787563 158.470857 
L 805.961014 158.470857 
L 807.138106 153.797333 
L 808.312274 147.955429 
L 809.487043 145.618667 
L 810.663801 145.618667 
L 811.838373 137.44 
L 813.012517 150.29219 
L 814.186169 150.29219 
L 815.365506 161.976 
L 816.539272 160.807619 
L 817.712465 160.807619 
L 818.886064 150.29219 
L 820.059887 144.450286 
L 821.235286 144.450286 
L 822.409557 135.103238 
L 823.58343 126.924571 
L 824.759078 126.924571 
L 825.932883 125.75619 
L 827.10725 128.092952 
L 828.284645 125.75619 
L 829.469306 125.75619 
L 830.646776 130.429714 
L 831.824928 131.598095 
L 833.003668 131.598095 
L 834.190951 143.281905 
L 836.54857 143.281905 
L 837.727337 151.460571 
L 838.901904 158.470857 
L 840.081377 160.807619 
L 841.256394 160.807619 
L 842.432772 166.649524 
L 843.607124 166.649524 
L 844.78316 179.501714 
L 845.957641 185.343619 
L 847.131878 187.680381 
L 848.305181 187.680381 
L 849.480582 193.522286 
L 851.829003 193.522286 
L 853.013368 260.12 
L 916.576589 260.12 
L 917.730933 253.109714 
L 918.904923 251.941333 
L 920.079879 251.941333 
L 921.254947 241.425905 
L 922.42779 235.584 
L 923.600785 235.584 
L 924.774138 233.247238 
L 925.94693 233.247238 
L 927.119756 220.395048 
L 928.29452 209.879619 
L 929.467414 207.542857 
L 930.640653 207.542857 
L 932.986775 193.522286 
L 934.159345 193.522286 
L 936.508003 186.512 
L 937.680965 187.680381 
L 939.172014 187.680381 
L 940.345983 195.859048 
L 941.522156 199.36419 
L 942.695112 199.36419 
L 943.8704 200.532571 
L 945.047846 200.532571 
L 946.221226 187.680381 
L 947.394233 187.680381 
L 948.567269 180.670095 
L 949.740879 180.670095 
L 950.91488 175.996571 
L 952.087572 177.164952 
L 953.261735 177.164952 
L 954.437003 187.680381 
L 955.609998 186.512 
L 956.7833 180.670095 
L 957.956382 180.670095 
L 959.129782 181.838476 
L 960.302589 173.65981 
L 961.475635 173.65981 
L 962.649539 185.343619 
L 963.824189 198.19581 
L 964.997147 198.19581 
L 967.345964 205.206095 
L 968.520629 205.206095 
L 969.695645 204.037714 
L 970.870685 205.206095 
L 972.046248 201.700952 
L 973.222086 201.700952 
L 974.397472 202.869333 
L 975.57291 211.048 
L 976.748162 211.048 
L 977.922283 214.553143 
L 979.096466 215.721524 
L 980.271966 215.721524 
L 982.623092 208.711238 
L 983.799016 208.711238 
L 984.974494 204.037714 
L 986.150209 205.206095 
L 987.325737 205.206095 
L 988.502174 227.405333 
L 989.677614 216.889905 
L 990.852267 214.553143 
L 992.025864 214.553143 
L 993.19996 216.889905 
L 996.723586 216.889905 
L 997.897715 215.721524 
L 999.074468 215.721524 
L 1000.247627 218.058286 
L 1003.772108 218.058286 
L 1004.947474 222.73181 
L 1006.121905 222.73181 
L 1008.472995 234.415619 
L 1009.648478 234.415619 
L 1010.824432 235.584 
L 1014.347696 235.584 
L 1015.523219 239.089143 
L 1019.049402 239.089143 
L 1020.224559 260.12 
L 1082.788847 260.12 
L 1083.962401 246.099429 
L 1085.135246 236.752381 
L 1086.309409 236.752381 
L 1088.658241 220.395048 
L 1089.832358 220.395048 
L 1091.006203 211.048 
L 1092.180278 205.206095 
L 1093.355266 194.690667 
L 1094.529566 194.690667 
L 1095.703681 173.65981 
L 1096.879778 173.65981 
L 1098.053584 183.006857 
L 1099.227122 172.491429 
L 1100.400939 172.491429 
L 1101.575419 170.154667 
L 1102.749374 172.491429 
L 1103.924402 164.312762 
L 1105.100426 164.312762 
L 1106.273691 159.639238 
L 1107.448881 165.481143 
L 1108.622242 165.481143 
L 1109.795919 177.164952 
L 1110.968984 172.491429 
L 1112.146188 172.491429 
L 1113.321429 170.154667 
L 1115.66851 170.154667 
L 1116.841248 167.817905 
L 1118.01435 178.333333 
L 1119.191486 170.154667 
L 1120.36428 170.154667 
L 1121.537506 167.817905 
L 1122.712821 157.302476 
L 1123.886638 157.302476 
L 1125.060765 151.460571 
L 1126.234562 151.460571 
L 1127.407414 139.776762 
L 1128.58081 132.766476 
L 1129.754048 135.103238 
L 1130.927731 135.103238 
L 1132.106326 133.934857 
L 1133.28 130.429714 
L 1133.28 130.429714 
" style="fill:none;stroke:#1f77b4;stroke-linecap:square;stroke-width:1.5;"/>
   </g>
   <g id="patch_3">
    <path d="M 33.64 260.12 
L 33.64 14.76 
" style="fill:none;stroke:#000000;stroke-linecap:square;stroke-linejoin:miter;stroke-width:0.8;"/>
   </g>
   <g id="patch_4">
    <path d="M 1133.28 260.12 
L 1133.28 14.76 
" style="fill:none;stroke:#000000;stroke-linecap:square;stroke-linejoin:miter;stroke-width:0.8;"/>
   </g>
   <g id="patch_5">
    <path d="M 33.64 260.12 
L 1133.28 260.12 
" style="fill:none;stroke:#000000;stroke-linecap:square;stroke-linejoin:miter;stroke-width:0.8;"/>
   </g>
   <g id="patch_6">
    <path d="M 33.64 14.76 
L 1133.28 14.76 
" style="fill:none;stroke:#000000;stroke-linecap:square;stroke-linejoin:miter;stroke-width:0.8;"/>
   </g>
  </g>
 </g>
 <defs>
  <clipPath id="p56eb6f2e3b">
   <rect height="245.36" width="1099.64" x="33.64" y="14.76"/>
  </clipPath>
 </defs>
</svg>
