<?xml version="1.0" encoding="utf-8" standalone="no"?>
<!DOCTYPE svg PUBLIC "-//W3C//DTD SVG 1.1//EN"
  "http://www.w3.org/Graphics/SVG/1.1/DTD/svg11.dtd">
<!-- Created with matplotlib (https://matplotlib.org/) -->
<svg height="288pt" version="1.1" viewBox="0 0 1152 288" width="1152pt" xmlns="http://www.w3.org/2000/svg" xmlns:xlink="http://www.w3.org/1999/xlink">
 <defs>
  <style type="text/css">
*{stroke-linecap:butt;stroke-linejoin:round;}
  </style>
 </defs>
 <g id="figure_1">
  <g id="patch_1">
   <path d="M 0 288 
L 1152 288 
L 1152 0 
L 0 0 
z
" style="fill:#ffffff;"/>
  </g>
  <g id="axes_1">
   <g id="patch_2">
    <path d="M 33.64 260.12 
L 1133.28 260.12 
L 1133.28 14.76 
L 33.64 14.76 
z
" style="fill:#ffffff;"/>
   </g>
   <g id="matplotlib.axis_1">
    <g id="xtick_1">
     <g id="line2d_1">
      <defs>
       <path d="M 0 0 
L 0 3.5 
" id="mf9e3f02b2f" style="stroke:#000000;stroke-width:0.8;"/>
      </defs>
      <g>
       <use style="stroke:#000000;stroke-width:0.8;" x="231.924993" xlink:href="#mf9e3f02b2f" y="260.12"/>
      </g>
     </g>
     <g id="text_1">
      <!-- Tue 00:00 -->
      <defs>
       <path d="M -0.296875 72.90625 
L 61.375 72.90625 
L 61.375 64.59375 
L 35.5 64.59375 
L 35.5 0 
L 25.59375 0 
L 25.59375 64.59375 
L -0.296875 64.59375 
z
" id="DejaVuSans-84"/>
       <path d="M 8.5 21.578125 
L 8.5 54.6875 
L 17.484375 54.6875 
L 17.484375 21.921875 
Q 17.484375 14.15625 20.5 10.265625 
Q 23.53125 6.390625 29.59375 6.390625 
Q 36.859375 6.390625 41.078125 11.03125 
Q 45.3125 15.671875 45.3125 23.6875 
L 45.3125 54.6875 
L 54.296875 54.6875 
L 54.296875 0 
L 45.3125 0 
L 45.3125 8.40625 
Q 42.046875 3.421875 37.71875 1 
Q 33.40625 -1.421875 27.6875 -1.421875 
Q 18.265625 -1.421875 13.375 4.4375 
Q 8.5 10.296875 8.5 21.578125 
z
M 31.109375 56 
z
" id="DejaVuSans-117"/>
       <path d="M 56.203125 29.59375 
L 56.203125 25.203125 
L 14.890625 25.203125 
Q 15.484375 15.921875 20.484375 11.0625 
Q 25.484375 6.203125 34.421875 6.203125 
Q 39.59375 6.203125 44.453125 7.46875 
Q 49.3125 8.734375 54.109375 11.28125 
L 54.109375 2.78125 
Q 49.265625 0.734375 44.1875 -0.34375 
Q 39.109375 -1.421875 33.890625 -1.421875 
Q 20.796875 -1.421875 13.15625 6.1875 
Q 5.515625 13.8125 5.515625 26.8125 
Q 5.515625 40.234375 12.765625 48.109375 
Q 20.015625 56 32.328125 56 
Q 43.359375 56 49.78125 48.890625 
Q 56.203125 41.796875 56.203125 29.59375 
z
M 47.21875 32.234375 
Q 47.125 39.59375 43.09375 43.984375 
Q 39.0625 48.390625 32.421875 48.390625 
Q 24.90625 48.390625 20.390625 44.140625 
Q 15.875 39.890625 15.1875 32.171875 
z
" id="DejaVuSans-101"/>
       <path id="DejaVuSans-32"/>
       <path d="M 31.78125 66.40625 
Q 24.171875 66.40625 20.328125 58.90625 
Q 16.5 51.421875 16.5 36.375 
Q 16.5 21.390625 20.328125 13.890625 
Q 24.171875 6.390625 31.78125 6.390625 
Q 39.453125 6.390625 43.28125 13.890625 
Q 47.125 21.390625 47.125 36.375 
Q 47.125 51.421875 43.28125 58.90625 
Q 39.453125 66.40625 31.78125 66.40625 
z
M 31.78125 74.21875 
Q 44.046875 74.21875 50.515625 64.515625 
Q 56.984375 54.828125 56.984375 36.375 
Q 56.984375 17.96875 50.515625 8.265625 
Q 44.046875 -1.421875 31.78125 -1.421875 
Q 19.53125 -1.421875 13.0625 8.265625 
Q 6.59375 17.96875 6.59375 36.375 
Q 6.59375 54.828125 13.0625 64.515625 
Q 19.53125 74.21875 31.78125 74.21875 
z
" id="DejaVuSans-48"/>
       <path d="M 11.71875 12.40625 
L 22.015625 12.40625 
L 22.015625 0 
L 11.71875 0 
z
M 11.71875 51.703125 
L 22.015625 51.703125 
L 22.015625 39.3125 
L 11.71875 39.3125 
z
" id="DejaVuSans-58"/>
      </defs>
      <g transform="translate(206.639056 274.718437)scale(0.1 -0.1)">
       <use xlink:href="#DejaVuSans-84"/>
       <use x="60.849609" xlink:href="#DejaVuSans-117"/>
       <use x="124.228516" xlink:href="#DejaVuSans-101"/>
       <use x="185.751953" xlink:href="#DejaVuSans-32"/>
       <use x="217.539062" xlink:href="#DejaVuSans-48"/>
       <use x="281.162109" xlink:href="#DejaVuSans-48"/>
       <use x="344.785156" xlink:href="#DejaVuSans-58"/>
       <use x="378.476562" xlink:href="#DejaVuSans-48"/>
       <use x="442.099609" xlink:href="#DejaVuSans-48"/>
      </g>
     </g>
    </g>
    <g id="xtick_2">
     <g id="line2d_2">
      <g>
       <use style="stroke:#000000;stroke-width:0.8;" x="431.304255" xlink:href="#mf9e3f02b2f" y="260.12"/>
      </g>
     </g>
     <g id="text_2">
      <!-- Wed 00:00 -->
      <defs>
       <path d="M 3.328125 72.90625 
L 13.28125 72.90625 
L 28.609375 11.28125 
L 43.890625 72.90625 
L 54.984375 72.90625 
L 70.3125 11.28125 
L 85.59375 72.90625 
L 95.609375 72.90625 
L 77.296875 0 
L 64.890625 0 
L 49.515625 63.28125 
L 33.984375 0 
L 21.578125 0 
z
" id="DejaVuSans-87"/>
       <path d="M 45.40625 46.390625 
L 45.40625 75.984375 
L 54.390625 75.984375 
L 54.390625 0 
L 45.40625 0 
L 45.40625 8.203125 
Q 42.578125 3.328125 38.25 0.953125 
Q 33.9375 -1.421875 27.875 -1.421875 
Q 17.96875 -1.421875 11.734375 6.484375 
Q 5.515625 14.40625 5.515625 27.296875 
Q 5.515625 40.1875 11.734375 48.09375 
Q 17.96875 56 27.875 56 
Q 33.9375 56 38.25 53.625 
Q 42.578125 51.265625 45.40625 46.390625 
z
M 14.796875 27.296875 
Q 14.796875 17.390625 18.875 11.75 
Q 22.953125 6.109375 30.078125 6.109375 
Q 37.203125 6.109375 41.296875 11.75 
Q 45.40625 17.390625 45.40625 27.296875 
Q 45.40625 37.203125 41.296875 42.84375 
Q 37.203125 48.484375 30.078125 48.484375 
Q 22.953125 48.484375 18.875 42.84375 
Q 14.796875 37.203125 14.796875 27.296875 
z
" id="DejaVuSans-100"/>
      </defs>
      <g transform="translate(404.115192 274.718437)scale(0.1 -0.1)">
       <use xlink:href="#DejaVuSans-87"/>
       <use x="98.798828" xlink:href="#DejaVuSans-101"/>
       <use x="160.322266" xlink:href="#DejaVuSans-100"/>
       <use x="223.798828" xlink:href="#DejaVuSans-32"/>
       <use x="255.585938" xlink:href="#DejaVuSans-48"/>
       <use x="319.208984" xlink:href="#DejaVuSans-48"/>
       <use x="382.832031" xlink:href="#DejaVuSans-58"/>
       <use x="416.523438" xlink:href="#DejaVuSans-48"/>
       <use x="480.146484" xlink:href="#DejaVuSans-48"/>
      </g>
     </g>
    </g>
    <g id="xtick_3">
     <g id="line2d_3">
      <g>
       <use style="stroke:#000000;stroke-width:0.8;" x="630.683516" xlink:href="#mf9e3f02b2f" y="260.12"/>
      </g>
     </g>
     <g id="text_3">
      <!-- Thu 00:00 -->
      <defs>
       <path d="M 54.890625 33.015625 
L 54.890625 0 
L 45.90625 0 
L 45.90625 32.71875 
Q 45.90625 40.484375 42.875 44.328125 
Q 39.84375 48.1875 33.796875 48.1875 
Q 26.515625 48.1875 22.3125 43.546875 
Q 18.109375 38.921875 18.109375 30.90625 
L 18.109375 0 
L 9.078125 0 
L 9.078125 75.984375 
L 18.109375 75.984375 
L 18.109375 46.1875 
Q 21.34375 51.125 25.703125 53.5625 
Q 30.078125 56 35.796875 56 
Q 45.21875 56 50.046875 50.171875 
Q 54.890625 44.34375 54.890625 33.015625 
z
" id="DejaVuSans-104"/>
      </defs>
      <g transform="translate(605.293672 274.718437)scale(0.1 -0.1)">
       <use xlink:href="#DejaVuSans-84"/>
       <use x="61.083984" xlink:href="#DejaVuSans-104"/>
       <use x="124.462891" xlink:href="#DejaVuSans-117"/>
       <use x="187.841797" xlink:href="#DejaVuSans-32"/>
       <use x="219.628906" xlink:href="#DejaVuSans-48"/>
       <use x="283.251953" xlink:href="#DejaVuSans-48"/>
       <use x="346.875" xlink:href="#DejaVuSans-58"/>
       <use x="380.566406" xlink:href="#DejaVuSans-48"/>
       <use x="444.189453" xlink:href="#DejaVuSans-48"/>
      </g>
     </g>
    </g>
    <g id="xtick_4">
     <g id="line2d_4">
      <g>
       <use style="stroke:#000000;stroke-width:0.8;" x="830.062777" xlink:href="#mf9e3f02b2f" y="260.12"/>
      </g>
     </g>
     <g id="text_4">
      <!-- Fri 00:00 -->
      <defs>
       <path d="M 9.8125 72.90625 
L 51.703125 72.90625 
L 51.703125 64.59375 
L 19.671875 64.59375 
L 19.671875 43.109375 
L 48.578125 43.109375 
L 48.578125 34.8125 
L 19.671875 34.8125 
L 19.671875 0 
L 9.8125 0 
z
" id="DejaVuSans-70"/>
       <path d="M 41.109375 46.296875 
Q 39.59375 47.171875 37.8125 47.578125 
Q 36.03125 48 33.890625 48 
Q 26.265625 48 22.1875 43.046875 
Q 18.109375 38.09375 18.109375 28.8125 
L 18.109375 0 
L 9.078125 0 
L 9.078125 54.6875 
L 18.109375 54.6875 
L 18.109375 46.1875 
Q 20.953125 51.171875 25.484375 53.578125 
Q 30.03125 56 36.53125 56 
Q 37.453125 56 38.578125 55.875 
Q 39.703125 55.765625 41.0625 55.515625 
z
" id="DejaVuSans-114"/>
       <path d="M 9.421875 54.6875 
L 18.40625 54.6875 
L 18.40625 0 
L 9.421875 0 
z
M 9.421875 75.984375 
L 18.40625 75.984375 
L 18.40625 64.59375 
L 9.421875 64.59375 
z
" id="DejaVuSans-105"/>
      </defs>
      <g transform="translate(807.749496 274.718437)scale(0.1 -0.1)">
       <use xlink:href="#DejaVuSans-70"/>
       <use x="57.410156" xlink:href="#DejaVuSans-114"/>
       <use x="98.523438" xlink:href="#DejaVuSans-105"/>
       <use x="126.306641" xlink:href="#DejaVuSans-32"/>
       <use x="158.09375" xlink:href="#DejaVuSans-48"/>
       <use x="221.716797" xlink:href="#DejaVuSans-48"/>
       <use x="285.339844" xlink:href="#DejaVuSans-58"/>
       <use x="319.03125" xlink:href="#DejaVuSans-48"/>
       <use x="382.654297" xlink:href="#DejaVuSans-48"/>
      </g>
     </g>
    </g>
    <g id="xtick_5">
     <g id="line2d_5">
      <g>
       <use style="stroke:#000000;stroke-width:0.8;" x="1029.442039" xlink:href="#mf9e3f02b2f" y="260.12"/>
      </g>
     </g>
     <g id="text_5">
      <!-- Sat 00:00 -->
      <defs>
       <path d="M 53.515625 70.515625 
L 53.515625 60.890625 
Q 47.90625 63.578125 42.921875 64.890625 
Q 37.9375 66.21875 33.296875 66.21875 
Q 25.25 66.21875 20.875 63.09375 
Q 16.5 59.96875 16.5 54.203125 
Q 16.5 49.359375 19.40625 46.890625 
Q 22.3125 44.4375 30.421875 42.921875 
L 36.375 41.703125 
Q 47.40625 39.59375 52.65625 34.296875 
Q 57.90625 29 57.90625 20.125 
Q 57.90625 9.515625 50.796875 4.046875 
Q 43.703125 -1.421875 29.984375 -1.421875 
Q 24.8125 -1.421875 18.96875 -0.25 
Q 13.140625 0.921875 6.890625 3.21875 
L 6.890625 13.375 
Q 12.890625 10.015625 18.65625 8.296875 
Q 24.421875 6.59375 29.984375 6.59375 
Q 38.421875 6.59375 43.015625 9.90625 
Q 47.609375 13.234375 47.609375 19.390625 
Q 47.609375 24.75 44.3125 27.78125 
Q 41.015625 30.8125 33.5 32.328125 
L 27.484375 33.5 
Q 16.453125 35.6875 11.515625 40.375 
Q 6.59375 45.0625 6.59375 53.421875 
Q 6.59375 63.09375 13.40625 68.65625 
Q 20.21875 74.21875 32.171875 74.21875 
Q 37.3125 74.21875 42.625 73.28125 
Q 47.953125 72.359375 53.515625 70.515625 
z
" id="DejaVuSans-83"/>
       <path d="M 34.28125 27.484375 
Q 23.390625 27.484375 19.1875 25 
Q 14.984375 22.515625 14.984375 16.5 
Q 14.984375 11.71875 18.140625 8.90625 
Q 21.296875 6.109375 26.703125 6.109375 
Q 34.1875 6.109375 38.703125 11.40625 
Q 43.21875 16.703125 43.21875 25.484375 
L 43.21875 27.484375 
z
M 52.203125 31.203125 
L 52.203125 0 
L 43.21875 0 
L 43.21875 8.296875 
Q 40.140625 3.328125 35.546875 0.953125 
Q 30.953125 -1.421875 24.3125 -1.421875 
Q 15.921875 -1.421875 10.953125 3.296875 
Q 6 8.015625 6 15.921875 
Q 6 25.140625 12.171875 29.828125 
Q 18.359375 34.515625 30.609375 34.515625 
L 43.21875 34.515625 
L 43.21875 35.40625 
Q 43.21875 41.609375 39.140625 45 
Q 35.0625 48.390625 27.6875 48.390625 
Q 23 48.390625 18.546875 47.265625 
Q 14.109375 46.140625 10.015625 43.890625 
L 10.015625 52.203125 
Q 14.9375 54.109375 19.578125 55.046875 
Q 24.21875 56 28.609375 56 
Q 40.484375 56 46.34375 49.84375 
Q 52.203125 43.703125 52.203125 31.203125 
z
" id="DejaVuSans-97"/>
       <path d="M 18.3125 70.21875 
L 18.3125 54.6875 
L 36.8125 54.6875 
L 36.8125 47.703125 
L 18.3125 47.703125 
L 18.3125 18.015625 
Q 18.3125 11.328125 20.140625 9.421875 
Q 21.96875 7.515625 27.59375 7.515625 
L 36.8125 7.515625 
L 36.8125 0 
L 27.59375 0 
Q 17.1875 0 13.234375 3.875 
Q 9.28125 7.765625 9.28125 18.015625 
L 9.28125 47.703125 
L 2.6875 47.703125 
L 2.6875 54.6875 
L 9.28125 54.6875 
L 9.28125 70.21875 
z
" id="DejaVuSans-116"/>
      </defs>
      <g transform="translate(1005.245164 274.718437)scale(0.1 -0.1)">
       <use xlink:href="#DejaVuSans-83"/>
       <use x="63.476562" xlink:href="#DejaVuSans-97"/>
       <use x="124.755859" xlink:href="#DejaVuSans-116"/>
       <use x="163.964844" xlink:href="#DejaVuSans-32"/>
       <use x="195.751953" xlink:href="#DejaVuSans-48"/>
       <use x="259.375" xlink:href="#DejaVuSans-48"/>
       <use x="322.998047" xlink:href="#DejaVuSans-58"/>
       <use x="356.689453" xlink:href="#DejaVuSans-48"/>
       <use x="420.3125" xlink:href="#DejaVuSans-48"/>
      </g>
     </g>
    </g>
   </g>
   <g id="matplotlib.axis_2">
    <g id="ytick_1">
     <g id="line2d_6">
      <defs>
       <path d="M 0 0 
L -3.5 0 
" id="me76bdc22f2" style="stroke:#000000;stroke-width:0.8;"/>
      </defs>
      <g>
       <use style="stroke:#000000;stroke-width:0.8;" x="33.64" xlink:href="#me76bdc22f2" y="260.12"/>
      </g>
     </g>
     <g id="text_6">
      <!-- 0 -->
      <g transform="translate(20.2775 263.919219)scale(0.1 -0.1)">
       <use xlink:href="#DejaVuSans-48"/>
      </g>
     </g>
    </g>
    <g id="ytick_2">
     <g id="line2d_7">
      <g>
       <use style="stroke:#000000;stroke-width:0.8;" x="33.64" xlink:href="#me76bdc22f2" y="232.857778"/>
      </g>
     </g>
     <g id="text_7">
      <!-- 20 -->
      <defs>
       <path d="M 19.1875 8.296875 
L 53.609375 8.296875 
L 53.609375 0 
L 7.328125 0 
L 7.328125 8.296875 
Q 12.9375 14.109375 22.625 23.890625 
Q 32.328125 33.6875 34.8125 36.53125 
Q 39.546875 41.84375 41.421875 45.53125 
Q 43.3125 49.21875 43.3125 52.78125 
Q 43.3125 58.59375 39.234375 62.25 
Q 35.15625 65.921875 28.609375 65.921875 
Q 23.96875 65.921875 18.8125 64.3125 
Q 13.671875 62.703125 7.8125 59.421875 
L 7.8125 69.390625 
Q 13.765625 71.78125 18.9375 73 
Q 24.125 74.21875 28.421875 74.21875 
Q 39.75 74.21875 46.484375 68.546875 
Q 53.21875 62.890625 53.21875 53.421875 
Q 53.21875 48.921875 51.53125 44.890625 
Q 49.859375 40.875 45.40625 35.40625 
Q 44.1875 33.984375 37.640625 27.21875 
Q 31.109375 20.453125 19.1875 8.296875 
z
" id="DejaVuSans-50"/>
      </defs>
      <g transform="translate(13.915 236.656997)scale(0.1 -0.1)">
       <use xlink:href="#DejaVuSans-50"/>
       <use x="63.623047" xlink:href="#DejaVuSans-48"/>
      </g>
     </g>
    </g>
    <g id="ytick_3">
     <g id="line2d_8">
      <g>
       <use style="stroke:#000000;stroke-width:0.8;" x="33.64" xlink:href="#me76bdc22f2" y="205.595556"/>
      </g>
     </g>
     <g id="text_8">
      <!-- 40 -->
      <defs>
       <path d="M 37.796875 64.3125 
L 12.890625 25.390625 
L 37.796875 25.390625 
z
M 35.203125 72.90625 
L 47.609375 72.90625 
L 47.609375 25.390625 
L 58.015625 25.390625 
L 58.015625 17.1875 
L 47.609375 17.1875 
L 47.609375 0 
L 37.796875 0 
L 37.796875 17.1875 
L 4.890625 17.1875 
L 4.890625 26.703125 
z
" id="DejaVuSans-52"/>
      </defs>
      <g transform="translate(13.915 209.394774)scale(0.1 -0.1)">
       <use xlink:href="#DejaVuSans-52"/>
       <use x="63.623047" xlink:href="#DejaVuSans-48"/>
      </g>
     </g>
    </g>
    <g id="ytick_4">
     <g id="line2d_9">
      <g>
       <use style="stroke:#000000;stroke-width:0.8;" x="33.64" xlink:href="#me76bdc22f2" y="178.333333"/>
      </g>
     </g>
     <g id="text_9">
      <!-- 60 -->
      <defs>
       <path d="M 33.015625 40.375 
Q 26.375 40.375 22.484375 35.828125 
Q 18.609375 31.296875 18.609375 23.390625 
Q 18.609375 15.53125 22.484375 10.953125 
Q 26.375 6.390625 33.015625 6.390625 
Q 39.65625 6.390625 43.53125 10.953125 
Q 47.40625 15.53125 47.40625 23.390625 
Q 47.40625 31.296875 43.53125 35.828125 
Q 39.65625 40.375 33.015625 40.375 
z
M 52.59375 71.296875 
L 52.59375 62.3125 
Q 48.875 64.0625 45.09375 64.984375 
Q 41.3125 65.921875 37.59375 65.921875 
Q 27.828125 65.921875 22.671875 59.328125 
Q 17.53125 52.734375 16.796875 39.40625 
Q 19.671875 43.65625 24.015625 45.921875 
Q 28.375 48.1875 33.59375 48.1875 
Q 44.578125 48.1875 50.953125 41.515625 
Q 57.328125 34.859375 57.328125 23.390625 
Q 57.328125 12.15625 50.6875 5.359375 
Q 44.046875 -1.421875 33.015625 -1.421875 
Q 20.359375 -1.421875 13.671875 8.265625 
Q 6.984375 17.96875 6.984375 36.375 
Q 6.984375 53.65625 15.1875 63.9375 
Q 23.390625 74.21875 37.203125 74.21875 
Q 40.921875 74.21875 44.703125 73.484375 
Q 48.484375 72.75 52.59375 71.296875 
z
" id="DejaVuSans-54"/>
      </defs>
      <g transform="translate(13.915 182.132552)scale(0.1 -0.1)">
       <use xlink:href="#DejaVuSans-54"/>
       <use x="63.623047" xlink:href="#DejaVuSans-48"/>
      </g>
     </g>
    </g>
    <g id="ytick_5">
     <g id="line2d_10">
      <g>
       <use style="stroke:#000000;stroke-width:0.8;" x="33.64" xlink:href="#me76bdc22f2" y="151.071111"/>
      </g>
     </g>
     <g id="text_10">
      <!-- 80 -->
      <defs>
       <path d="M 31.78125 34.625 
Q 24.75 34.625 20.71875 30.859375 
Q 16.703125 27.09375 16.703125 20.515625 
Q 16.703125 13.921875 20.71875 10.15625 
Q 24.75 6.390625 31.78125 6.390625 
Q 38.8125 6.390625 42.859375 10.171875 
Q 46.921875 13.96875 46.921875 20.515625 
Q 46.921875 27.09375 42.890625 30.859375 
Q 38.875 34.625 31.78125 34.625 
z
M 21.921875 38.8125 
Q 15.578125 40.375 12.03125 44.71875 
Q 8.5 49.078125 8.5 55.328125 
Q 8.5 64.0625 14.71875 69.140625 
Q 20.953125 74.21875 31.78125 74.21875 
Q 42.671875 74.21875 48.875 69.140625 
Q 55.078125 64.0625 55.078125 55.328125 
Q 55.078125 49.078125 51.53125 44.71875 
Q 48 40.375 41.703125 38.8125 
Q 48.828125 37.15625 52.796875 32.3125 
Q 56.78125 27.484375 56.78125 20.515625 
Q 56.78125 9.90625 50.3125 4.234375 
Q 43.84375 -1.421875 31.78125 -1.421875 
Q 19.734375 -1.421875 13.25 4.234375 
Q 6.78125 9.90625 6.78125 20.515625 
Q 6.78125 27.484375 10.78125 32.3125 
Q 14.796875 37.15625 21.921875 38.8125 
z
M 18.3125 54.390625 
Q 18.3125 48.734375 21.84375 45.5625 
Q 25.390625 42.390625 31.78125 42.390625 
Q 38.140625 42.390625 41.71875 45.5625 
Q 45.3125 48.734375 45.3125 54.390625 
Q 45.3125 60.0625 41.71875 63.234375 
Q 38.140625 66.40625 31.78125 66.40625 
Q 25.390625 66.40625 21.84375 63.234375 
Q 18.3125 60.0625 18.3125 54.390625 
z
" id="DejaVuSans-56"/>
      </defs>
      <g transform="translate(13.915 154.87033)scale(0.1 -0.1)">
       <use xlink:href="#DejaVuSans-56"/>
       <use x="63.623047" xlink:href="#DejaVuSans-48"/>
      </g>
     </g>
    </g>
    <g id="ytick_6">
     <g id="line2d_11">
      <g>
       <use style="stroke:#000000;stroke-width:0.8;" x="33.64" xlink:href="#me76bdc22f2" y="123.808889"/>
      </g>
     </g>
     <g id="text_11">
      <!-- 100 -->
      <defs>
       <path d="M 12.40625 8.296875 
L 28.515625 8.296875 
L 28.515625 63.921875 
L 10.984375 60.40625 
L 10.984375 69.390625 
L 28.421875 72.90625 
L 38.28125 72.90625 
L 38.28125 8.296875 
L 54.390625 8.296875 
L 54.390625 0 
L 12.40625 0 
z
" id="DejaVuSans-49"/>
      </defs>
      <g transform="translate(7.5525 127.608108)scale(0.1 -0.1)">
       <use xlink:href="#DejaVuSans-49"/>
       <use x="63.623047" xlink:href="#DejaVuSans-48"/>
       <use x="127.246094" xlink:href="#DejaVuSans-48"/>
      </g>
     </g>
    </g>
    <g id="ytick_7">
     <g id="line2d_12">
      <g>
       <use style="stroke:#000000;stroke-width:0.8;" x="33.64" xlink:href="#me76bdc22f2" y="96.546667"/>
      </g>
     </g>
     <g id="text_12">
      <!-- 120 -->
      <g transform="translate(7.5525 100.345885)scale(0.1 -0.1)">
       <use xlink:href="#DejaVuSans-49"/>
       <use x="63.623047" xlink:href="#DejaVuSans-50"/>
       <use x="127.246094" xlink:href="#DejaVuSans-48"/>
      </g>
     </g>
    </g>
    <g id="ytick_8">
     <g id="line2d_13">
      <g>
       <use style="stroke:#000000;stroke-width:0.8;" x="33.64" xlink:href="#me76bdc22f2" y="69.284444"/>
      </g>
     </g>
     <g id="text_13">
      <!-- 140 -->
      <g transform="translate(7.5525 73.083663)scale(0.1 -0.1)">
       <use xlink:href="#DejaVuSans-49"/>
       <use x="63.623047" xlink:href="#DejaVuSans-52"/>
       <use x="127.246094" xlink:href="#DejaVuSans-48"/>
      </g>
     </g>
    </g>
    <g id="ytick_9">
     <g id="line2d_14">
      <g>
       <use style="stroke:#000000;stroke-width:0.8;" x="33.64" xlink:href="#me76bdc22f2" y="42.022222"/>
      </g>
     </g>
     <g id="text_14">
      <!-- 160 -->
      <g transform="translate(7.5525 45.821441)scale(0.1 -0.1)">
       <use xlink:href="#DejaVuSans-49"/>
       <use x="63.623047" xlink:href="#DejaVuSans-54"/>
       <use x="127.246094" xlink:href="#DejaVuSans-48"/>
      </g>
     </g>
    </g>
    <g id="ytick_10">
     <g id="line2d_15">
      <g>
       <use style="stroke:#000000;stroke-width:0.8;" x="33.64" xlink:href="#me76bdc22f2" y="14.76"/>
      </g>
     </g>
     <g id="text_15">
      <!-- 180 -->
      <g transform="translate(7.5525 18.559219)scale(0.1 -0.1)">
       <use xlink:href="#DejaVuSans-49"/>
       <use x="63.623047" xlink:href="#DejaVuSans-56"/>
       <use x="127.246094" xlink:href="#DejaVuSans-48"/>
      </g>
     </g>
    </g>
   </g>
   <g id="line2d_16">
    <path clip-path="url(#p6466fe4498)" d="M 33.64 260.12 
L 109.312177 260.12 
L 110.736803 254.667556 
L 112.160755 254.667556 
L 113.587829 242.399556 
L 115.010903 241.036444 
L 116.434332 230.131556 
L 117.861957 230.131556 
L 119.290528 226.042222 
L 120.714824 224.679111 
L 123.56251 224.679111 
L 126.409123 216.500444 
L 127.832496 216.500444 
L 129.255723 221.952889 
L 130.67978 221.952889 
L 132.102687 231.494667 
L 133.527668 235.584 
L 136.375085 235.584 
L 139.225223 227.405333 
L 140.648391 227.405333 
L 142.071988 231.494667 
L 143.496251 224.679111 
L 144.919295 224.679111 
L 146.342095 227.405333 
L 147.771261 224.679111 
L 149.195627 226.042222 
L 150.619676 226.042222 
L 152.043214 231.494667 
L 153.467196 231.494667 
L 154.889956 230.131556 
L 156.312514 227.405333 
L 157.736061 227.405333 
L 159.161352 226.042222 
L 160.586575 221.952889 
L 162.01157 223.316 
L 163.437981 223.316 
L 164.862256 219.226667 
L 166.286244 216.500444 
L 167.709649 216.500444 
L 169.133431 206.958667 
L 170.557687 208.321778 
L 171.981624 205.595556 
L 173.406432 205.595556 
L 174.830216 198.78 
L 176.253722 198.78 
L 177.677414 197.416889 
L 180.526304 197.416889 
L 181.949659 193.327556 
L 183.373251 176.970222 
L 184.79671 159.249778 
L 186.22213 159.249778 
L 187.649375 149.708 
L 189.074429 136.076889 
L 191.924043 136.076889 
L 193.348578 140.166222 
L 194.772142 140.166222 
L 196.19739 141.529333 
L 197.622048 137.44 
L 199.04612 137.44 
L 200.472156 131.987556 
L 201.90128 111.540889 
L 203.32576 116.993333 
L 204.752234 116.993333 
L 206.177187 121.082667 
L 207.605183 126.535111 
L 211.876921 126.535111 
L 213.30051 142.892444 
L 216.146863 153.797333 
L 217.573219 153.797333 
L 218.99676 168.791556 
L 220.421649 179.696444 
L 221.845126 179.696444 
L 223.26961 185.148889 
L 224.693875 193.327556 
L 227.544531 193.327556 
L 228.968942 260.12 
L 306.100235 260.12 
L 307.501348 258.756889 
L 308.92908 258.756889 
L 310.352633 251.941333 
L 311.776146 246.488889 
L 313.203368 246.488889 
L 314.633052 243.762667 
L 316.057726 224.679111 
L 317.483044 216.500444 
L 318.907096 216.500444 
L 320.33161 213.774222 
L 321.755353 213.774222 
L 323.179874 211.048 
L 326.028627 211.048 
L 327.453933 204.232444 
L 328.879091 211.048 
L 331.726442 211.048 
L 334.576636 213.774222 
L 336.003767 213.774222 
L 337.428848 215.137333 
L 338.853067 226.042222 
L 340.277628 226.042222 
L 341.701648 236.947111 
L 343.127603 242.399556 
L 344.550727 242.399556 
L 347.398888 239.673333 
L 348.824169 236.947111 
L 354.525601 236.947111 
L 357.376168 231.494667 
L 358.802373 227.405333 
L 360.226993 227.405333 
L 361.652174 226.042222 
L 363.075667 226.042222 
L 364.500146 220.589778 
L 365.998548 217.863556 
L 367.424632 217.863556 
L 368.84975 211.048 
L 370.273895 197.416889 
L 371.698843 194.690667 
L 373.125467 194.690667 
L 374.553957 183.785778 
L 375.982508 175.607111 
L 377.409112 175.607111 
L 378.8363 151.071111 
L 380.262976 129.261333 
L 381.688626 129.261333 
L 383.112653 121.082667 
L 384.536657 103.362222 
L 385.961129 103.362222 
L 387.386078 93.820444 
L 388.816053 88.368 
L 390.240316 88.368 
L 391.664173 74.736889 
L 393.090679 77.463111 
L 394.51928 73.373778 
L 395.943274 73.373778 
L 397.368026 88.368 
L 398.794202 89.731111 
L 400.2185 89.731111 
L 401.645379 93.820444 
L 403.069515 115.630222 
L 404.494752 115.630222 
L 405.919424 131.987556 
L 407.343374 140.166222 
L 408.767384 140.166222 
L 410.191188 148.344889 
L 413.037995 148.344889 
L 414.464074 157.886667 
L 415.888308 163.339111 
L 417.314962 163.339111 
L 418.738295 168.791556 
L 420.165053 185.148889 
L 421.588908 185.148889 
L 424.446545 204.232444 
L 425.873224 260.12 
L 505.837756 260.12 
L 507.238984 258.756889 
L 508.663045 258.756889 
L 510.08831 241.036444 
L 511.515638 232.857778 
L 512.940566 230.131556 
L 514.365268 230.131556 
L 515.79713 226.042222 
L 518.647774 226.042222 
L 520.075721 224.679111 
L 521.500947 217.863556 
L 522.926044 217.863556 
L 524.350813 219.226667 
L 525.778378 216.500444 
L 527.204865 216.500444 
L 528.62912 219.226667 
L 530.053781 228.768444 
L 535.759437 228.768444 
L 537.183929 231.494667 
L 538.607881 238.310222 
L 540.03458 242.399556 
L 541.461693 242.399556 
L 542.886507 243.762667 
L 544.312833 242.399556 
L 545.736543 242.399556 
L 548.587303 236.947111 
L 550.011899 235.584 
L 551.435691 235.584 
L 552.860854 231.494667 
L 554.285236 231.494667 
L 555.709894 223.316 
L 557.133915 223.316 
L 558.558808 216.500444 
L 559.983321 216.500444 
L 561.409974 219.226667 
L 564.257477 219.226667 
L 565.684343 205.595556 
L 567.111401 204.232444 
L 568.53941 204.232444 
L 571.392987 190.601333 
L 572.816731 182.422667 
L 574.246782 182.422667 
L 575.671888 189.238222 
L 577.095397 189.238222 
L 578.518544 182.422667 
L 579.943321 167.428444 
L 581.367042 167.428444 
L 582.796119 164.702222 
L 584.219616 159.249778 
L 585.643835 151.071111 
L 587.067366 151.071111 
L 588.491125 155.160444 
L 589.917274 144.255556 
L 591.342649 144.255556 
L 592.768235 140.166222 
L 594.19297 126.535111 
L 595.619433 126.535111 
L 597.044088 125.172 
L 598.470692 131.987556 
L 599.894128 131.987556 
L 601.31891 111.540889 
L 602.74326 101.999111 
L 604.167896 97.909778 
L 605.592477 97.909778 
L 607.016398 101.999111 
L 608.441157 101.999111 
L 609.865948 108.814667 
L 611.292875 123.808889 
L 612.716654 137.44 
L 614.142241 137.44 
L 615.567216 153.797333 
L 616.994596 159.249778 
L 618.418301 159.249778 
L 619.842898 175.607111 
L 621.26902 187.875111 
L 622.697412 187.875111 
L 624.121031 196.053778 
L 625.545315 209.684889 
L 626.971912 209.684889 
L 628.398274 260.12 
L 706.933265 260.12 
L 708.357503 254.667556 
L 709.781397 254.667556 
L 711.205536 236.947111 
L 712.629607 227.405333 
L 714.053379 224.679111 
L 715.477216 224.679111 
L 716.900865 227.405333 
L 718.324194 227.405333 
L 719.747157 221.952889 
L 721.171353 220.589778 
L 722.597846 217.863556 
L 724.022597 217.863556 
L 725.446823 221.952889 
L 726.870062 220.589778 
L 728.294802 220.589778 
L 729.717668 224.679111 
L 731.141097 231.494667 
L 733.994459 231.494667 
L 735.418202 232.857778 
L 736.841783 232.857778 
L 738.266476 235.584 
L 739.690774 234.220889 
L 741.114198 234.220889 
L 742.537287 235.584 
L 743.960939 238.310222 
L 745.385016 243.762667 
L 749.656021 243.762667 
L 752.50453 238.310222 
L 753.931768 234.220889 
L 755.355328 234.220889 
L 756.778955 232.857778 
L 758.203569 228.768444 
L 763.903534 228.768444 
L 766.75404 226.042222 
L 768.178559 223.316 
L 769.602519 223.316 
L 772.45356 198.78 
L 773.879161 198.78 
L 775.304858 204.232444 
L 776.730461 204.232444 
L 778.1572 201.506222 
L 779.58116 189.238222 
L 781.00584 186.512 
L 782.429676 186.512 
L 785.277971 142.892444 
L 786.703421 142.892444 
L 788.128101 131.987556 
L 789.553413 136.076889 
L 790.97792 136.076889 
L 792.40255 119.719556 
L 793.82733 116.993333 
L 795.251709 116.993333 
L 796.676037 107.451556 
L 798.102324 108.814667 
L 799.527497 108.814667 
L 800.951564 103.362222 
L 802.376513 88.368 
L 803.802307 84.278667 
L 805.227844 84.278667 
L 806.653088 100.636 
L 808.077422 107.451556 
L 809.501561 107.451556 
L 810.925759 122.445778 
L 812.351116 160.612889 
L 813.775503 160.612889 
L 815.200436 163.339111 
L 816.625108 168.791556 
L 818.049385 168.791556 
L 819.474335 190.601333 
L 820.898955 198.78 
L 822.324087 211.048 
L 823.748467 211.048 
L 825.173407 260.12 
L 905.13018 260.12 
L 906.555229 256.030667 
L 907.979943 250.578222 
L 909.404611 250.578222 
L 910.830687 238.310222 
L 912.256928 234.220889 
L 913.684751 234.220889 
L 915.109176 228.768444 
L 916.533974 226.042222 
L 917.960531 220.589778 
L 920.814697 220.589778 
L 922.241921 221.952889 
L 923.665344 221.952889 
L 925.089316 220.589778 
L 929.363952 220.589778 
L 930.787832 223.316 
L 932.212624 223.316 
L 933.637871 224.679111 
L 935.062149 227.405333 
L 936.488708 227.405333 
L 937.913254 220.589778 
L 940.764437 217.863556 
L 942.190689 217.863556 
L 943.619915 215.137333 
L 945.048416 215.137333 
L 946.475236 213.774222 
L 947.898958 211.048 
L 949.324998 213.774222 
L 950.749707 213.774222 
L 953.597651 216.500444 
L 955.020514 216.500444 
L 956.443807 205.595556 
L 957.867407 212.411111 
L 959.291199 213.774222 
L 960.714739 213.774222 
L 962.138097 205.595556 
L 963.564003 205.595556 
L 964.987896 206.958667 
L 966.41098 213.774222 
L 967.834988 197.416889 
L 969.260265 197.416889 
L 970.686447 191.964444 
L 972.110492 183.785778 
L 973.537563 183.785778 
L 974.961422 170.154667 
L 976.38479 178.333333 
L 977.812003 178.333333 
L 979.235525 181.059556 
L 980.660413 166.065333 
L 982.083978 166.065333 
L 983.511122 163.339111 
L 984.937937 156.523556 
L 986.363634 140.166222 
L 987.787779 140.166222 
L 989.211487 145.618667 
L 990.638849 145.618667 
L 992.063321 148.344889 
L 993.49081 146.981778 
L 994.917288 159.249778 
L 996.344369 159.249778 
L 997.768429 156.523556 
L 999.195514 159.249778 
L 1000.61916 159.249778 
L 1003.471015 170.154667 
L 1004.895519 176.970222 
L 1006.320632 176.970222 
L 1007.745291 179.696444 
L 1009.170467 179.696444 
L 1010.593796 190.601333 
L 1012.017793 197.416889 
L 1013.444391 197.416889 
L 1014.868732 206.958667 
L 1016.296683 215.137333 
L 1017.721165 217.863556 
L 1019.147672 217.863556 
L 1020.572847 221.952889 
L 1021.996802 227.405333 
L 1023.422987 227.405333 
L 1024.846915 260.12 
L 1106.214304 260.12 
L 1107.638521 258.756889 
L 1109.064736 238.310222 
L 1110.490618 238.310222 
L 1111.918097 221.952889 
L 1113.34132 212.411111 
L 1114.76717 212.411111 
L 1116.190421 208.321778 
L 1117.616506 201.506222 
L 1119.040069 201.506222 
L 1120.465905 190.601333 
L 1121.892227 181.059556 
L 1123.316296 182.422667 
L 1124.739729 182.422667 
L 1126.163433 179.696444 
L 1127.586085 187.875111 
L 1129.009989 187.875111 
L 1130.43299 197.416889 
L 1131.857317 197.416889 
L 1133.28 194.690667 
L 1133.28 194.690667 
" style="fill:none;stroke:#1f77b4;stroke-linecap:square;stroke-width:1.5;"/>
   </g>
   <g id="patch_3">
    <path d="M 33.64 260.12 
L 33.64 14.76 
" style="fill:none;stroke:#000000;stroke-linecap:square;stroke-linejoin:miter;stroke-width:0.8;"/>
   </g>
   <g id="patch_4">
    <path d="M 1133.28 260.12 
L 1133.28 14.76 
" style="fill:none;stroke:#000000;stroke-linecap:square;stroke-linejoin:miter;stroke-width:0.8;"/>
   </g>
   <g id="patch_5">
    <path d="M 33.64 260.12 
L 1133.28 260.12 
" style="fill:none;stroke:#000000;stroke-linecap:square;stroke-linejoin:miter;stroke-width:0.8;"/>
   </g>
   <g id="patch_6">
    <path d="M 33.64 14.76 
L 1133.28 14.76 
" style="fill:none;stroke:#000000;stroke-linecap:square;stroke-linejoin:miter;stroke-width:0.8;"/>
   </g>
  </g>
 </g>
 <defs>
  <clipPath id="p6466fe4498">
   <rect height="245.36" width="1099.64" x="33.64" y="14.76"/>
  </clipPath>
 </defs>
</svg>
