<?xml version="1.0" encoding="utf-8" standalone="no"?>
<!DOCTYPE svg PUBLIC "-//W3C//DTD SVG 1.1//EN"
  "http://www.w3.org/Graphics/SVG/1.1/DTD/svg11.dtd">
<!-- Created with matplotlib (https://matplotlib.org/) -->
<svg height="288pt" version="1.1" viewBox="0 0 1152 288" width="1152pt" xmlns="http://www.w3.org/2000/svg" xmlns:xlink="http://www.w3.org/1999/xlink">
 <defs>
  <style type="text/css">
*{stroke-linecap:butt;stroke-linejoin:round;}
  </style>
 </defs>
 <g id="figure_1">
  <g id="patch_1">
   <path d="M 0 288 
L 1152 288 
L 1152 0 
L 0 0 
z
" style="fill:#ffffff;"/>
  </g>
  <g id="axes_1">
   <g id="patch_2">
    <path d="M 33.64 260.12 
L 1133.28 260.12 
L 1133.28 14.76 
L 33.64 14.76 
z
" style="fill:#ffffff;"/>
   </g>
   <g id="matplotlib.axis_1">
    <g id="xtick_1">
     <g id="line2d_1">
      <defs>
       <path d="M 0 0 
L 0 3.5 
" id="m45e57a1583" style="stroke:#000000;stroke-width:0.8;"/>
      </defs>
      <g>
       <use style="stroke:#000000;stroke-width:0.8;" x="144.343027" xlink:href="#m45e57a1583" y="260.12"/>
      </g>
     </g>
     <g id="text_1">
      <!-- Mon 12:00 -->
      <defs>
       <path d="M 9.8125 72.90625 
L 24.515625 72.90625 
L 43.109375 23.296875 
L 61.8125 72.90625 
L 76.515625 72.90625 
L 76.515625 0 
L 66.890625 0 
L 66.890625 64.015625 
L 48.09375 14.015625 
L 38.1875 14.015625 
L 19.390625 64.015625 
L 19.390625 0 
L 9.8125 0 
z
" id="DejaVuSans-77"/>
       <path d="M 30.609375 48.390625 
Q 23.390625 48.390625 19.1875 42.75 
Q 14.984375 37.109375 14.984375 27.296875 
Q 14.984375 17.484375 19.15625 11.84375 
Q 23.34375 6.203125 30.609375 6.203125 
Q 37.796875 6.203125 41.984375 11.859375 
Q 46.1875 17.53125 46.1875 27.296875 
Q 46.1875 37.015625 41.984375 42.703125 
Q 37.796875 48.390625 30.609375 48.390625 
z
M 30.609375 56 
Q 42.328125 56 49.015625 48.375 
Q 55.71875 40.765625 55.71875 27.296875 
Q 55.71875 13.875 49.015625 6.21875 
Q 42.328125 -1.421875 30.609375 -1.421875 
Q 18.84375 -1.421875 12.171875 6.21875 
Q 5.515625 13.875 5.515625 27.296875 
Q 5.515625 40.765625 12.171875 48.375 
Q 18.84375 56 30.609375 56 
z
" id="DejaVuSans-111"/>
       <path d="M 54.890625 33.015625 
L 54.890625 0 
L 45.90625 0 
L 45.90625 32.71875 
Q 45.90625 40.484375 42.875 44.328125 
Q 39.84375 48.1875 33.796875 48.1875 
Q 26.515625 48.1875 22.3125 43.546875 
Q 18.109375 38.921875 18.109375 30.90625 
L 18.109375 0 
L 9.078125 0 
L 9.078125 54.6875 
L 18.109375 54.6875 
L 18.109375 46.1875 
Q 21.34375 51.125 25.703125 53.5625 
Q 30.078125 56 35.796875 56 
Q 45.21875 56 50.046875 50.171875 
Q 54.890625 44.34375 54.890625 33.015625 
z
" id="DejaVuSans-110"/>
       <path id="DejaVuSans-32"/>
       <path d="M 12.40625 8.296875 
L 28.515625 8.296875 
L 28.515625 63.921875 
L 10.984375 60.40625 
L 10.984375 69.390625 
L 28.421875 72.90625 
L 38.28125 72.90625 
L 38.28125 8.296875 
L 54.390625 8.296875 
L 54.390625 0 
L 12.40625 0 
z
" id="DejaVuSans-49"/>
       <path d="M 19.1875 8.296875 
L 53.609375 8.296875 
L 53.609375 0 
L 7.328125 0 
L 7.328125 8.296875 
Q 12.9375 14.109375 22.625 23.890625 
Q 32.328125 33.6875 34.8125 36.53125 
Q 39.546875 41.84375 41.421875 45.53125 
Q 43.3125 49.21875 43.3125 52.78125 
Q 43.3125 58.59375 39.234375 62.25 
Q 35.15625 65.921875 28.609375 65.921875 
Q 23.96875 65.921875 18.8125 64.3125 
Q 13.671875 62.703125 7.8125 59.421875 
L 7.8125 69.390625 
Q 13.765625 71.78125 18.9375 73 
Q 24.125 74.21875 28.421875 74.21875 
Q 39.75 74.21875 46.484375 68.546875 
Q 53.21875 62.890625 53.21875 53.421875 
Q 53.21875 48.921875 51.53125 44.890625 
Q 49.859375 40.875 45.40625 35.40625 
Q 44.1875 33.984375 37.640625 27.21875 
Q 31.109375 20.453125 19.1875 8.296875 
z
" id="DejaVuSans-50"/>
       <path d="M 11.71875 12.40625 
L 22.015625 12.40625 
L 22.015625 0 
L 11.71875 0 
z
M 11.71875 51.703125 
L 22.015625 51.703125 
L 22.015625 39.3125 
L 11.71875 39.3125 
z
" id="DejaVuSans-58"/>
       <path d="M 31.78125 66.40625 
Q 24.171875 66.40625 20.328125 58.90625 
Q 16.5 51.421875 16.5 36.375 
Q 16.5 21.390625 20.328125 13.890625 
Q 24.171875 6.390625 31.78125 6.390625 
Q 39.453125 6.390625 43.28125 13.890625 
Q 47.125 21.390625 47.125 36.375 
Q 47.125 51.421875 43.28125 58.90625 
Q 39.453125 66.40625 31.78125 66.40625 
z
M 31.78125 74.21875 
Q 44.046875 74.21875 50.515625 64.515625 
Q 56.984375 54.828125 56.984375 36.375 
Q 56.984375 17.96875 50.515625 8.265625 
Q 44.046875 -1.421875 31.78125 -1.421875 
Q 19.53125 -1.421875 13.0625 8.265625 
Q 6.59375 17.96875 6.59375 36.375 
Q 6.59375 54.828125 13.0625 64.515625 
Q 19.53125 74.21875 31.78125 74.21875 
z
" id="DejaVuSans-48"/>
      </defs>
      <g transform="translate(117.802402 274.718437)scale(0.1 -0.1)">
       <use xlink:href="#DejaVuSans-77"/>
       <use x="86.279297" xlink:href="#DejaVuSans-111"/>
       <use x="147.460938" xlink:href="#DejaVuSans-110"/>
       <use x="210.839844" xlink:href="#DejaVuSans-32"/>
       <use x="242.626953" xlink:href="#DejaVuSans-49"/>
       <use x="306.25" xlink:href="#DejaVuSans-50"/>
       <use x="369.873047" xlink:href="#DejaVuSans-58"/>
       <use x="403.564453" xlink:href="#DejaVuSans-48"/>
       <use x="467.1875" xlink:href="#DejaVuSans-48"/>
      </g>
     </g>
    </g>
    <g id="xtick_2">
     <g id="line2d_2">
      <g>
       <use style="stroke:#000000;stroke-width:0.8;" x="255.85481" xlink:href="#m45e57a1583" y="260.12"/>
      </g>
     </g>
     <g id="text_2">
      <!-- Tue 00:00 -->
      <defs>
       <path d="M -0.296875 72.90625 
L 61.375 72.90625 
L 61.375 64.59375 
L 35.5 64.59375 
L 35.5 0 
L 25.59375 0 
L 25.59375 64.59375 
L -0.296875 64.59375 
z
" id="DejaVuSans-84"/>
       <path d="M 8.5 21.578125 
L 8.5 54.6875 
L 17.484375 54.6875 
L 17.484375 21.921875 
Q 17.484375 14.15625 20.5 10.265625 
Q 23.53125 6.390625 29.59375 6.390625 
Q 36.859375 6.390625 41.078125 11.03125 
Q 45.3125 15.671875 45.3125 23.6875 
L 45.3125 54.6875 
L 54.296875 54.6875 
L 54.296875 0 
L 45.3125 0 
L 45.3125 8.40625 
Q 42.046875 3.421875 37.71875 1 
Q 33.40625 -1.421875 27.6875 -1.421875 
Q 18.265625 -1.421875 13.375 4.4375 
Q 8.5 10.296875 8.5 21.578125 
z
M 31.109375 56 
z
" id="DejaVuSans-117"/>
       <path d="M 56.203125 29.59375 
L 56.203125 25.203125 
L 14.890625 25.203125 
Q 15.484375 15.921875 20.484375 11.0625 
Q 25.484375 6.203125 34.421875 6.203125 
Q 39.59375 6.203125 44.453125 7.46875 
Q 49.3125 8.734375 54.109375 11.28125 
L 54.109375 2.78125 
Q 49.265625 0.734375 44.1875 -0.34375 
Q 39.109375 -1.421875 33.890625 -1.421875 
Q 20.796875 -1.421875 13.15625 6.1875 
Q 5.515625 13.8125 5.515625 26.8125 
Q 5.515625 40.234375 12.765625 48.109375 
Q 20.015625 56 32.328125 56 
Q 43.359375 56 49.78125 48.890625 
Q 56.203125 41.796875 56.203125 29.59375 
z
M 47.21875 32.234375 
Q 47.125 39.59375 43.09375 43.984375 
Q 39.0625 48.390625 32.421875 48.390625 
Q 24.90625 48.390625 20.390625 44.140625 
Q 15.875 39.890625 15.1875 32.171875 
z
" id="DejaVuSans-101"/>
      </defs>
      <g transform="translate(230.568872 274.718437)scale(0.1 -0.1)">
       <use xlink:href="#DejaVuSans-84"/>
       <use x="60.849609" xlink:href="#DejaVuSans-117"/>
       <use x="124.228516" xlink:href="#DejaVuSans-101"/>
       <use x="185.751953" xlink:href="#DejaVuSans-32"/>
       <use x="217.539062" xlink:href="#DejaVuSans-48"/>
       <use x="281.162109" xlink:href="#DejaVuSans-48"/>
       <use x="344.785156" xlink:href="#DejaVuSans-58"/>
       <use x="378.476562" xlink:href="#DejaVuSans-48"/>
       <use x="442.099609" xlink:href="#DejaVuSans-48"/>
      </g>
     </g>
    </g>
    <g id="xtick_3">
     <g id="line2d_3">
      <g>
       <use style="stroke:#000000;stroke-width:0.8;" x="367.366593" xlink:href="#m45e57a1583" y="260.12"/>
      </g>
     </g>
     <g id="text_3">
      <!-- Tue 12:00 -->
      <g transform="translate(342.080656 274.718437)scale(0.1 -0.1)">
       <use xlink:href="#DejaVuSans-84"/>
       <use x="60.849609" xlink:href="#DejaVuSans-117"/>
       <use x="124.228516" xlink:href="#DejaVuSans-101"/>
       <use x="185.751953" xlink:href="#DejaVuSans-32"/>
       <use x="217.539062" xlink:href="#DejaVuSans-49"/>
       <use x="281.162109" xlink:href="#DejaVuSans-50"/>
       <use x="344.785156" xlink:href="#DejaVuSans-58"/>
       <use x="378.476562" xlink:href="#DejaVuSans-48"/>
       <use x="442.099609" xlink:href="#DejaVuSans-48"/>
      </g>
     </g>
    </g>
    <g id="xtick_4">
     <g id="line2d_4">
      <g>
       <use style="stroke:#000000;stroke-width:0.8;" x="478.878376" xlink:href="#m45e57a1583" y="260.12"/>
      </g>
     </g>
     <g id="text_4">
      <!-- Wed 00:00 -->
      <defs>
       <path d="M 3.328125 72.90625 
L 13.28125 72.90625 
L 28.609375 11.28125 
L 43.890625 72.90625 
L 54.984375 72.90625 
L 70.3125 11.28125 
L 85.59375 72.90625 
L 95.609375 72.90625 
L 77.296875 0 
L 64.890625 0 
L 49.515625 63.28125 
L 33.984375 0 
L 21.578125 0 
z
" id="DejaVuSans-87"/>
       <path d="M 45.40625 46.390625 
L 45.40625 75.984375 
L 54.390625 75.984375 
L 54.390625 0 
L 45.40625 0 
L 45.40625 8.203125 
Q 42.578125 3.328125 38.25 0.953125 
Q 33.9375 -1.421875 27.875 -1.421875 
Q 17.96875 -1.421875 11.734375 6.484375 
Q 5.515625 14.40625 5.515625 27.296875 
Q 5.515625 40.1875 11.734375 48.09375 
Q 17.96875 56 27.875 56 
Q 33.9375 56 38.25 53.625 
Q 42.578125 51.265625 45.40625 46.390625 
z
M 14.796875 27.296875 
Q 14.796875 17.390625 18.875 11.75 
Q 22.953125 6.109375 30.078125 6.109375 
Q 37.203125 6.109375 41.296875 11.75 
Q 45.40625 17.390625 45.40625 27.296875 
Q 45.40625 37.203125 41.296875 42.84375 
Q 37.203125 48.484375 30.078125 48.484375 
Q 22.953125 48.484375 18.875 42.84375 
Q 14.796875 37.203125 14.796875 27.296875 
z
" id="DejaVuSans-100"/>
      </defs>
      <g transform="translate(451.689314 274.718437)scale(0.1 -0.1)">
       <use xlink:href="#DejaVuSans-87"/>
       <use x="98.798828" xlink:href="#DejaVuSans-101"/>
       <use x="160.322266" xlink:href="#DejaVuSans-100"/>
       <use x="223.798828" xlink:href="#DejaVuSans-32"/>
       <use x="255.585938" xlink:href="#DejaVuSans-48"/>
       <use x="319.208984" xlink:href="#DejaVuSans-48"/>
       <use x="382.832031" xlink:href="#DejaVuSans-58"/>
       <use x="416.523438" xlink:href="#DejaVuSans-48"/>
       <use x="480.146484" xlink:href="#DejaVuSans-48"/>
      </g>
     </g>
    </g>
    <g id="xtick_5">
     <g id="line2d_5">
      <g>
       <use style="stroke:#000000;stroke-width:0.8;" x="590.39016" xlink:href="#m45e57a1583" y="260.12"/>
      </g>
     </g>
     <g id="text_5">
      <!-- Wed 12:00 -->
      <g transform="translate(563.201097 274.718437)scale(0.1 -0.1)">
       <use xlink:href="#DejaVuSans-87"/>
       <use x="98.798828" xlink:href="#DejaVuSans-101"/>
       <use x="160.322266" xlink:href="#DejaVuSans-100"/>
       <use x="223.798828" xlink:href="#DejaVuSans-32"/>
       <use x="255.585938" xlink:href="#DejaVuSans-49"/>
       <use x="319.208984" xlink:href="#DejaVuSans-50"/>
       <use x="382.832031" xlink:href="#DejaVuSans-58"/>
       <use x="416.523438" xlink:href="#DejaVuSans-48"/>
       <use x="480.146484" xlink:href="#DejaVuSans-48"/>
      </g>
     </g>
    </g>
    <g id="xtick_6">
     <g id="line2d_6">
      <g>
       <use style="stroke:#000000;stroke-width:0.8;" x="701.901943" xlink:href="#m45e57a1583" y="260.12"/>
      </g>
     </g>
     <g id="text_6">
      <!-- Thu 00:00 -->
      <defs>
       <path d="M 54.890625 33.015625 
L 54.890625 0 
L 45.90625 0 
L 45.90625 32.71875 
Q 45.90625 40.484375 42.875 44.328125 
Q 39.84375 48.1875 33.796875 48.1875 
Q 26.515625 48.1875 22.3125 43.546875 
Q 18.109375 38.921875 18.109375 30.90625 
L 18.109375 0 
L 9.078125 0 
L 9.078125 75.984375 
L 18.109375 75.984375 
L 18.109375 46.1875 
Q 21.34375 51.125 25.703125 53.5625 
Q 30.078125 56 35.796875 56 
Q 45.21875 56 50.046875 50.171875 
Q 54.890625 44.34375 54.890625 33.015625 
z
" id="DejaVuSans-104"/>
      </defs>
      <g transform="translate(676.512099 274.718437)scale(0.1 -0.1)">
       <use xlink:href="#DejaVuSans-84"/>
       <use x="61.083984" xlink:href="#DejaVuSans-104"/>
       <use x="124.462891" xlink:href="#DejaVuSans-117"/>
       <use x="187.841797" xlink:href="#DejaVuSans-32"/>
       <use x="219.628906" xlink:href="#DejaVuSans-48"/>
       <use x="283.251953" xlink:href="#DejaVuSans-48"/>
       <use x="346.875" xlink:href="#DejaVuSans-58"/>
       <use x="380.566406" xlink:href="#DejaVuSans-48"/>
       <use x="444.189453" xlink:href="#DejaVuSans-48"/>
      </g>
     </g>
    </g>
    <g id="xtick_7">
     <g id="line2d_7">
      <g>
       <use style="stroke:#000000;stroke-width:0.8;" x="813.413726" xlink:href="#m45e57a1583" y="260.12"/>
      </g>
     </g>
     <g id="text_7">
      <!-- Thu 12:00 -->
      <g transform="translate(788.023882 274.718437)scale(0.1 -0.1)">
       <use xlink:href="#DejaVuSans-84"/>
       <use x="61.083984" xlink:href="#DejaVuSans-104"/>
       <use x="124.462891" xlink:href="#DejaVuSans-117"/>
       <use x="187.841797" xlink:href="#DejaVuSans-32"/>
       <use x="219.628906" xlink:href="#DejaVuSans-49"/>
       <use x="283.251953" xlink:href="#DejaVuSans-50"/>
       <use x="346.875" xlink:href="#DejaVuSans-58"/>
       <use x="380.566406" xlink:href="#DejaVuSans-48"/>
       <use x="444.189453" xlink:href="#DejaVuSans-48"/>
      </g>
     </g>
    </g>
    <g id="xtick_8">
     <g id="line2d_8">
      <g>
       <use style="stroke:#000000;stroke-width:0.8;" x="924.925509" xlink:href="#m45e57a1583" y="260.12"/>
      </g>
     </g>
     <g id="text_8">
      <!-- Fri 00:00 -->
      <defs>
       <path d="M 9.8125 72.90625 
L 51.703125 72.90625 
L 51.703125 64.59375 
L 19.671875 64.59375 
L 19.671875 43.109375 
L 48.578125 43.109375 
L 48.578125 34.8125 
L 19.671875 34.8125 
L 19.671875 0 
L 9.8125 0 
z
" id="DejaVuSans-70"/>
       <path d="M 41.109375 46.296875 
Q 39.59375 47.171875 37.8125 47.578125 
Q 36.03125 48 33.890625 48 
Q 26.265625 48 22.1875 43.046875 
Q 18.109375 38.09375 18.109375 28.8125 
L 18.109375 0 
L 9.078125 0 
L 9.078125 54.6875 
L 18.109375 54.6875 
L 18.109375 46.1875 
Q 20.953125 51.171875 25.484375 53.578125 
Q 30.03125 56 36.53125 56 
Q 37.453125 56 38.578125 55.875 
Q 39.703125 55.765625 41.0625 55.515625 
z
" id="DejaVuSans-114"/>
       <path d="M 9.421875 54.6875 
L 18.40625 54.6875 
L 18.40625 0 
L 9.421875 0 
z
M 9.421875 75.984375 
L 18.40625 75.984375 
L 18.40625 64.59375 
L 9.421875 64.59375 
z
" id="DejaVuSans-105"/>
      </defs>
      <g transform="translate(902.612228 274.718437)scale(0.1 -0.1)">
       <use xlink:href="#DejaVuSans-70"/>
       <use x="57.410156" xlink:href="#DejaVuSans-114"/>
       <use x="98.523438" xlink:href="#DejaVuSans-105"/>
       <use x="126.306641" xlink:href="#DejaVuSans-32"/>
       <use x="158.09375" xlink:href="#DejaVuSans-48"/>
       <use x="221.716797" xlink:href="#DejaVuSans-48"/>
       <use x="285.339844" xlink:href="#DejaVuSans-58"/>
       <use x="319.03125" xlink:href="#DejaVuSans-48"/>
       <use x="382.654297" xlink:href="#DejaVuSans-48"/>
      </g>
     </g>
    </g>
    <g id="xtick_9">
     <g id="line2d_9">
      <g>
       <use style="stroke:#000000;stroke-width:0.8;" x="1036.437292" xlink:href="#m45e57a1583" y="260.12"/>
      </g>
     </g>
     <g id="text_9">
      <!-- Fri 12:00 -->
      <g transform="translate(1014.124011 274.718437)scale(0.1 -0.1)">
       <use xlink:href="#DejaVuSans-70"/>
       <use x="57.410156" xlink:href="#DejaVuSans-114"/>
       <use x="98.523438" xlink:href="#DejaVuSans-105"/>
       <use x="126.306641" xlink:href="#DejaVuSans-32"/>
       <use x="158.09375" xlink:href="#DejaVuSans-49"/>
       <use x="221.716797" xlink:href="#DejaVuSans-50"/>
       <use x="285.339844" xlink:href="#DejaVuSans-58"/>
       <use x="319.03125" xlink:href="#DejaVuSans-48"/>
       <use x="382.654297" xlink:href="#DejaVuSans-48"/>
      </g>
     </g>
    </g>
   </g>
   <g id="matplotlib.axis_2">
    <g id="ytick_1">
     <g id="line2d_10">
      <defs>
       <path d="M 0 0 
L -3.5 0 
" id="mb27329cea0" style="stroke:#000000;stroke-width:0.8;"/>
      </defs>
      <g>
       <use style="stroke:#000000;stroke-width:0.8;" x="33.64" xlink:href="#mb27329cea0" y="260.12"/>
      </g>
     </g>
     <g id="text_10">
      <!-- 0 -->
      <g transform="translate(20.2775 263.919219)scale(0.1 -0.1)">
       <use xlink:href="#DejaVuSans-48"/>
      </g>
     </g>
    </g>
    <g id="ytick_2">
     <g id="line2d_11">
      <g>
       <use style="stroke:#000000;stroke-width:0.8;" x="33.64" xlink:href="#mb27329cea0" y="230.910476"/>
      </g>
     </g>
     <g id="text_11">
      <!-- 25 -->
      <defs>
       <path d="M 10.796875 72.90625 
L 49.515625 72.90625 
L 49.515625 64.59375 
L 19.828125 64.59375 
L 19.828125 46.734375 
Q 21.96875 47.46875 24.109375 47.828125 
Q 26.265625 48.1875 28.421875 48.1875 
Q 40.625 48.1875 47.75 41.5 
Q 54.890625 34.8125 54.890625 23.390625 
Q 54.890625 11.625 47.5625 5.09375 
Q 40.234375 -1.421875 26.90625 -1.421875 
Q 22.3125 -1.421875 17.546875 -0.640625 
Q 12.796875 0.140625 7.71875 1.703125 
L 7.71875 11.625 
Q 12.109375 9.234375 16.796875 8.0625 
Q 21.484375 6.890625 26.703125 6.890625 
Q 35.15625 6.890625 40.078125 11.328125 
Q 45.015625 15.765625 45.015625 23.390625 
Q 45.015625 31 40.078125 35.4375 
Q 35.15625 39.890625 26.703125 39.890625 
Q 22.75 39.890625 18.8125 39.015625 
Q 14.890625 38.140625 10.796875 36.28125 
z
" id="DejaVuSans-53"/>
      </defs>
      <g transform="translate(13.915 234.709695)scale(0.1 -0.1)">
       <use xlink:href="#DejaVuSans-50"/>
       <use x="63.623047" xlink:href="#DejaVuSans-53"/>
      </g>
     </g>
    </g>
    <g id="ytick_3">
     <g id="line2d_12">
      <g>
       <use style="stroke:#000000;stroke-width:0.8;" x="33.64" xlink:href="#mb27329cea0" y="201.700952"/>
      </g>
     </g>
     <g id="text_12">
      <!-- 50 -->
      <g transform="translate(13.915 205.500171)scale(0.1 -0.1)">
       <use xlink:href="#DejaVuSans-53"/>
       <use x="63.623047" xlink:href="#DejaVuSans-48"/>
      </g>
     </g>
    </g>
    <g id="ytick_4">
     <g id="line2d_13">
      <g>
       <use style="stroke:#000000;stroke-width:0.8;" x="33.64" xlink:href="#mb27329cea0" y="172.491429"/>
      </g>
     </g>
     <g id="text_13">
      <!-- 75 -->
      <defs>
       <path d="M 8.203125 72.90625 
L 55.078125 72.90625 
L 55.078125 68.703125 
L 28.609375 0 
L 18.3125 0 
L 43.21875 64.59375 
L 8.203125 64.59375 
z
" id="DejaVuSans-55"/>
      </defs>
      <g transform="translate(13.915 176.290647)scale(0.1 -0.1)">
       <use xlink:href="#DejaVuSans-55"/>
       <use x="63.623047" xlink:href="#DejaVuSans-53"/>
      </g>
     </g>
    </g>
    <g id="ytick_5">
     <g id="line2d_14">
      <g>
       <use style="stroke:#000000;stroke-width:0.8;" x="33.64" xlink:href="#mb27329cea0" y="143.281905"/>
      </g>
     </g>
     <g id="text_14">
      <!-- 100 -->
      <g transform="translate(7.5525 147.081124)scale(0.1 -0.1)">
       <use xlink:href="#DejaVuSans-49"/>
       <use x="63.623047" xlink:href="#DejaVuSans-48"/>
       <use x="127.246094" xlink:href="#DejaVuSans-48"/>
      </g>
     </g>
    </g>
    <g id="ytick_6">
     <g id="line2d_15">
      <g>
       <use style="stroke:#000000;stroke-width:0.8;" x="33.64" xlink:href="#mb27329cea0" y="114.072381"/>
      </g>
     </g>
     <g id="text_15">
      <!-- 125 -->
      <g transform="translate(7.5525 117.8716)scale(0.1 -0.1)">
       <use xlink:href="#DejaVuSans-49"/>
       <use x="63.623047" xlink:href="#DejaVuSans-50"/>
       <use x="127.246094" xlink:href="#DejaVuSans-53"/>
      </g>
     </g>
    </g>
    <g id="ytick_7">
     <g id="line2d_16">
      <g>
       <use style="stroke:#000000;stroke-width:0.8;" x="33.64" xlink:href="#mb27329cea0" y="84.862857"/>
      </g>
     </g>
     <g id="text_16">
      <!-- 150 -->
      <g transform="translate(7.5525 88.662076)scale(0.1 -0.1)">
       <use xlink:href="#DejaVuSans-49"/>
       <use x="63.623047" xlink:href="#DejaVuSans-53"/>
       <use x="127.246094" xlink:href="#DejaVuSans-48"/>
      </g>
     </g>
    </g>
    <g id="ytick_8">
     <g id="line2d_17">
      <g>
       <use style="stroke:#000000;stroke-width:0.8;" x="33.64" xlink:href="#mb27329cea0" y="55.653333"/>
      </g>
     </g>
     <g id="text_17">
      <!-- 175 -->
      <g transform="translate(7.5525 59.452552)scale(0.1 -0.1)">
       <use xlink:href="#DejaVuSans-49"/>
       <use x="63.623047" xlink:href="#DejaVuSans-55"/>
       <use x="127.246094" xlink:href="#DejaVuSans-53"/>
      </g>
     </g>
    </g>
    <g id="ytick_9">
     <g id="line2d_18">
      <g>
       <use style="stroke:#000000;stroke-width:0.8;" x="33.64" xlink:href="#mb27329cea0" y="26.44381"/>
      </g>
     </g>
     <g id="text_18">
      <!-- 200 -->
      <g transform="translate(7.5525 30.243028)scale(0.1 -0.1)">
       <use xlink:href="#DejaVuSans-50"/>
       <use x="63.623047" xlink:href="#DejaVuSans-48"/>
       <use x="127.246094" xlink:href="#DejaVuSans-48"/>
      </g>
     </g>
    </g>
   </g>
   <g id="line2d_19">
    <path clip-path="url(#pd4b436152d)" d="M 33.64 225.068571 
L 116.697283 225.068571 
L 118.294805 220.395048 
L 119.890831 220.395048 
L 121.48607 218.058286 
L 123.078377 218.058286 
L 124.67051 211.048 
L 126.266031 211.048 
L 127.858765 200.532571 
L 129.450936 195.859048 
L 131.044629 195.859048 
L 132.637951 186.512 
L 134.230491 179.501714 
L 135.826511 177.164952 
L 143.80686 177.164952 
L 145.400432 183.006857 
L 146.996878 190.017143 
L 148.589073 190.017143 
L 150.181231 195.859048 
L 151.776668 195.859048 
L 153.369383 200.532571 
L 154.963979 195.859048 
L 156.559072 195.859048 
L 158.152029 193.522286 
L 159.744495 192.353905 
L 161.336821 188.848762 
L 162.929302 188.848762 
L 164.523117 187.680381 
L 166.117947 191.185524 
L 167.710196 191.185524 
L 169.306432 188.848762 
L 170.899126 185.343619 
L 172.491388 185.343619 
L 174.086852 183.006857 
L 175.67969 185.343619 
L 178.864417 185.343619 
L 180.459987 178.333333 
L 182.053593 177.164952 
L 183.649449 177.164952 
L 185.245034 179.501714 
L 186.84083 173.65981 
L 188.438942 173.65981 
L 190.035245 170.154667 
L 191.635129 170.154667 
L 193.230743 175.996571 
L 194.823076 165.481143 
L 196.415688 153.797333 
L 198.007971 153.797333 
L 199.600341 147.955429 
L 201.193345 138.608381 
L 202.785894 138.608381 
L 204.379244 124.58781 
L 205.973768 108.230476 
L 207.56619 108.230476 
L 209.162784 90.704762 
L 210.756121 79.020952 
L 212.348347 60.326857 
L 213.941917 60.326857 
L 215.534485 52.14819 
L 217.126567 83.694476 
L 220.313658 83.694476 
L 221.909654 86.031238 
L 223.502458 86.031238 
L 225.098609 88.368 
L 226.692378 89.536381 
L 228.28515 89.536381 
L 229.880142 105.893714 
L 231.478985 119.914286 
L 233.072458 119.914286 
L 234.667711 133.934857 
L 236.263494 153.797333 
L 237.860363 153.797333 
L 239.454055 161.976 
L 241.04922 168.986286 
L 242.641996 172.491429 
L 244.23805 172.491429 
L 245.834481 184.175238 
L 247.427736 192.353905 
L 249.020623 192.353905 
L 250.618531 260.12 
L 341.642457 260.12 
L 343.237562 241.425905 
L 344.833417 236.752381 
L 346.429038 236.752381 
L 348.022825 233.247238 
L 349.615854 222.73181 
L 351.210748 222.73181 
L 352.805491 213.384762 
L 354.401437 211.048 
L 355.997922 211.048 
L 357.597793 207.542857 
L 359.195658 205.206095 
L 360.791689 205.206095 
L 362.383943 202.869333 
L 363.983028 201.700952 
L 367.175759 201.700952 
L 368.767707 215.721524 
L 370.362102 216.889905 
L 371.958366 214.553143 
L 373.551352 216.889905 
L 375.145124 216.889905 
L 378.436549 205.206095 
L 381.72568 208.711238 
L 385.070547 208.711238 
L 386.662617 211.048 
L 388.256795 211.048 
L 389.849482 213.384762 
L 391.441795 212.216381 
L 393.037438 212.216381 
L 394.632863 207.542857 
L 397.819753 207.542857 
L 399.412257 202.869333 
L 401.008735 205.206095 
L 402.601306 205.206095 
L 404.194958 201.700952 
L 405.788219 191.185524 
L 407.381385 186.512 
L 408.973646 186.512 
L 410.566597 185.343619 
L 412.159559 173.65981 
L 413.755752 173.65981 
L 415.350123 172.491429 
L 416.945781 181.838476 
L 418.53864 181.838476 
L 421.725756 158.470857 
L 423.318999 158.470857 
L 424.914707 153.797333 
L 426.508364 150.29219 
L 428.101461 150.29219 
L 429.696588 154.965714 
L 431.290567 158.470857 
L 432.883714 158.470857 
L 434.4798 144.450286 
L 436.076133 135.103238 
L 437.669932 130.429714 
L 439.263264 130.429714 
L 440.856909 116.409143 
L 442.45033 116.409143 
L 445.641921 114.072381 
L 447.237655 110.567238 
L 448.834376 110.567238 
L 450.428471 112.904 
L 452.023874 117.577524 
L 453.617242 117.577524 
L 455.213163 126.924571 
L 456.806478 142.113524 
L 458.40157 152.628952 
L 459.996376 152.628952 
L 461.588609 159.639238 
L 463.187368 159.639238 
L 464.77974 170.154667 
L 466.374706 178.333333 
L 467.970602 178.333333 
L 469.563627 186.512 
L 471.159845 187.680381 
L 472.754832 190.017143 
L 474.347579 190.017143 
L 475.939693 260.12 
L 562.201482 260.12 
L 565.36046 248.43619 
L 566.952621 248.43619 
L 568.545501 242.594286 
L 570.138474 237.920762 
L 571.73063 237.920762 
L 573.323937 228.573714 
L 574.917563 228.573714 
L 576.510401 223.90019 
L 578.102372 220.395048 
L 579.695853 220.395048 
L 581.288602 225.068571 
L 582.882974 225.068571 
L 584.477096 227.405333 
L 586.073109 227.405333 
L 587.669816 226.236952 
L 589.265703 223.90019 
L 590.85842 223.90019 
L 592.451713 220.395048 
L 594.044312 229.742095 
L 597.231903 229.742095 
L 598.827824 227.405333 
L 600.422266 227.405333 
L 602.015217 218.058286 
L 603.610425 218.058286 
L 605.204587 212.216381 
L 608.392672 212.216381 
L 611.580956 207.542857 
L 613.183432 207.542857 
L 614.780511 201.700952 
L 616.378353 201.700952 
L 617.971323 202.869333 
L 619.564142 200.532571 
L 621.156062 200.532571 
L 622.748329 191.185524 
L 625.934322 191.185524 
L 627.553166 188.848762 
L 629.146337 188.848762 
L 630.738521 179.501714 
L 632.336723 179.501714 
L 633.931291 177.164952 
L 635.524639 171.323048 
L 637.121083 171.323048 
L 638.71324 161.976 
L 640.307661 145.618667 
L 641.900087 117.577524 
L 643.493346 117.577524 
L 645.087623 109.398857 
L 646.680138 88.368 
L 648.273206 88.368 
L 649.870296 66.168762 
L 651.464349 52.14819 
L 653.057446 52.14819 
L 654.649822 42.801143 
L 656.243032 48.643048 
L 657.839233 48.643048 
L 659.434985 35.790857 
L 661.027247 33.454095 
L 662.622725 33.454095 
L 664.220523 34.622476 
L 665.816494 27.61219 
L 667.416512 27.61219 
L 669.008997 33.454095 
L 670.604768 38.127619 
L 672.196865 38.127619 
L 673.793879 48.643048 
L 675.385607 50.97981 
L 676.978685 72.010667 
L 678.570903 72.010667 
L 680.166677 89.536381 
L 681.759542 89.536381 
L 683.353213 104.725333 
L 684.946976 132.766476 
L 686.541387 140.945143 
L 688.138586 140.945143 
L 689.734087 165.481143 
L 691.325816 177.164952 
L 692.919197 177.164952 
L 694.515714 183.006857 
L 696.109889 194.690667 
L 699.29952 194.690667 
L 700.893348 260.12 
L 787.146603 260.12 
L 788.740749 253.109714 
L 790.335908 253.109714 
L 791.929126 249.604571 
L 793.525249 244.931048 
L 795.117211 244.931048 
L 796.710592 239.089143 
L 798.30513 236.752381 
L 799.898344 236.752381 
L 803.083633 229.742095 
L 804.679769 229.742095 
L 806.27452 233.247238 
L 807.871143 232.078857 
L 809.465022 228.573714 
L 811.060053 228.573714 
L 812.653139 229.742095 
L 814.245721 227.405333 
L 815.842774 227.405333 
L 817.436619 221.563429 
L 819.028705 219.226667 
L 820.628502 219.226667 
L 822.220651 214.553143 
L 823.813607 208.711238 
L 825.406411 208.711238 
L 826.999503 212.216381 
L 828.593039 214.553143 
L 830.189236 214.553143 
L 831.783988 208.711238 
L 833.376837 213.384762 
L 836.563886 213.384762 
L 838.157749 209.879619 
L 839.754529 199.36419 
L 841.346551 199.36419 
L 844.53747 197.027429 
L 846.130649 197.027429 
L 849.321097 185.343619 
L 852.511916 185.343619 
L 854.104419 180.670095 
L 855.698668 180.670095 
L 857.292598 170.154667 
L 858.887222 165.481143 
L 860.479561 165.481143 
L 862.072947 158.470857 
L 863.665447 142.113524 
L 865.258372 128.092952 
L 866.850636 128.092952 
L 868.447779 103.556952 
L 870.047164 107.062095 
L 871.643514 107.062095 
L 873.239031 102.388571 
L 874.834877 80.189333 
L 876.427382 80.189333 
L 878.021001 66.168762 
L 879.613227 60.326857 
L 881.205591 60.326857 
L 882.801158 61.495238 
L 884.395694 48.643048 
L 885.988749 45.137905 
L 887.584759 45.137905 
L 889.17764 63.832 
L 890.770445 72.010667 
L 892.36417 72.010667 
L 893.958047 83.694476 
L 895.55155 90.704762 
L 897.147498 90.704762 
L 898.739605 95.378286 
L 900.343916 107.062095 
L 901.941854 107.062095 
L 903.535008 114.072381 
L 905.12722 129.261333 
L 906.721319 129.261333 
L 909.906419 157.302476 
L 911.503909 157.302476 
L 913.100351 161.976 
L 914.695847 177.164952 
L 916.290961 177.164952 
L 917.885778 184.175238 
L 919.479927 260.12 
L 1010.528059 260.12 
L 1012.120726 248.43619 
L 1013.716689 242.594286 
L 1015.313639 242.594286 
L 1016.905937 234.415619 
L 1018.497793 234.415619 
L 1020.090974 222.73181 
L 1021.683251 219.226667 
L 1023.278448 214.553143 
L 1024.874809 214.553143 
L 1028.068569 205.206095 
L 1029.664469 205.206095 
L 1031.258297 201.700952 
L 1032.85367 199.36419 
L 1034.447364 205.206095 
L 1036.040991 205.206095 
L 1037.633708 207.542857 
L 1039.230021 211.048 
L 1040.825101 211.048 
L 1042.423092 219.226667 
L 1044.016631 219.226667 
L 1045.609855 218.058286 
L 1048.796537 218.058286 
L 1050.388989 221.563429 
L 1051.98225 218.058286 
L 1055.16881 218.058286 
L 1056.762222 221.563429 
L 1058.355707 222.73181 
L 1059.948159 222.73181 
L 1063.136456 211.048 
L 1064.728741 208.711238 
L 1066.323688 208.711238 
L 1067.915603 205.206095 
L 1069.508149 209.879619 
L 1071.100579 209.879619 
L 1072.693696 202.869333 
L 1074.288417 202.869333 
L 1075.882406 195.859048 
L 1077.47539 197.027429 
L 1079.069294 192.353905 
L 1080.662847 192.353905 
L 1082.256512 187.680381 
L 1083.851116 181.838476 
L 1085.443711 181.838476 
L 1087.03746 183.006857 
L 1088.631647 178.333333 
L 1090.227696 183.006857 
L 1091.82348 183.006857 
L 1093.416642 177.164952 
L 1095.0105 177.164952 
L 1096.606835 186.512 
L 1098.203375 181.838476 
L 1099.797031 181.838476 
L 1101.390544 184.175238 
L 1102.985711 188.848762 
L 1104.579104 186.512 
L 1106.175416 186.512 
L 1107.767458 183.006857 
L 1109.36342 177.164952 
L 1110.958567 177.164952 
L 1112.551271 178.333333 
L 1114.143582 187.680381 
L 1115.735752 187.680381 
L 1117.329832 186.512 
L 1120.52111 186.512 
L 1122.116957 188.848762 
L 1125.305921 188.848762 
L 1126.901976 200.532571 
L 1128.495721 200.532571 
L 1130.089022 205.206095 
L 1131.683983 205.206095 
L 1133.28 206.374476 
L 1133.28 206.374476 
" style="fill:none;stroke:#1f77b4;stroke-linecap:square;stroke-width:1.5;"/>
   </g>
   <g id="patch_3">
    <path d="M 33.64 260.12 
L 33.64 14.76 
" style="fill:none;stroke:#000000;stroke-linecap:square;stroke-linejoin:miter;stroke-width:0.8;"/>
   </g>
   <g id="patch_4">
    <path d="M 1133.28 260.12 
L 1133.28 14.76 
" style="fill:none;stroke:#000000;stroke-linecap:square;stroke-linejoin:miter;stroke-width:0.8;"/>
   </g>
   <g id="patch_5">
    <path d="M 33.64 260.12 
L 1133.28 260.12 
" style="fill:none;stroke:#000000;stroke-linecap:square;stroke-linejoin:miter;stroke-width:0.8;"/>
   </g>
   <g id="patch_6">
    <path d="M 33.64 14.76 
L 1133.28 14.76 
" style="fill:none;stroke:#000000;stroke-linecap:square;stroke-linejoin:miter;stroke-width:0.8;"/>
   </g>
  </g>
 </g>
 <defs>
  <clipPath id="pd4b436152d">
   <rect height="245.36" width="1099.64" x="33.64" y="14.76"/>
  </clipPath>
 </defs>
</svg>
