<?xml version="1.0" encoding="utf-8" standalone="no"?>
<!DOCTYPE svg PUBLIC "-//W3C//DTD SVG 1.1//EN"
  "http://www.w3.org/Graphics/SVG/1.1/DTD/svg11.dtd">
<!-- Created with matplotlib (https://matplotlib.org/) -->
<svg height="288pt" version="1.1" viewBox="0 0 1152 288" width="1152pt" xmlns="http://www.w3.org/2000/svg" xmlns:xlink="http://www.w3.org/1999/xlink">
 <defs>
  <style type="text/css">
*{stroke-linecap:butt;stroke-linejoin:round;}
  </style>
 </defs>
 <g id="figure_1">
  <g id="patch_1">
   <path d="M 0 288 
L 1152 288 
L 1152 0 
L 0 0 
z
" style="fill:#ffffff;"/>
  </g>
  <g id="axes_1">
   <g id="patch_2">
    <path d="M 33.64 260.12 
L 1133.28 260.12 
L 1133.28 14.76 
L 33.64 14.76 
z
" style="fill:#ffffff;"/>
   </g>
   <g id="matplotlib.axis_1">
    <g id="xtick_1">
     <g id="line2d_1">
      <defs>
       <path d="M 0 0 
L 0 3.5 
" id="m791751aeb5" style="stroke:#000000;stroke-width:0.8;"/>
      </defs>
      <g>
       <use style="stroke:#000000;stroke-width:0.8;" x="190.76004" xlink:href="#m791751aeb5" y="260.12"/>
      </g>
     </g>
     <g id="text_1">
      <!-- Tue 00:00 -->
      <defs>
       <path d="M -0.296875 72.90625 
L 61.375 72.90625 
L 61.375 64.59375 
L 35.5 64.59375 
L 35.5 0 
L 25.59375 0 
L 25.59375 64.59375 
L -0.296875 64.59375 
z
" id="DejaVuSans-84"/>
       <path d="M 8.5 21.578125 
L 8.5 54.6875 
L 17.484375 54.6875 
L 17.484375 21.921875 
Q 17.484375 14.15625 20.5 10.265625 
Q 23.53125 6.390625 29.59375 6.390625 
Q 36.859375 6.390625 41.078125 11.03125 
Q 45.3125 15.671875 45.3125 23.6875 
L 45.3125 54.6875 
L 54.296875 54.6875 
L 54.296875 0 
L 45.3125 0 
L 45.3125 8.40625 
Q 42.046875 3.421875 37.71875 1 
Q 33.40625 -1.421875 27.6875 -1.421875 
Q 18.265625 -1.421875 13.375 4.4375 
Q 8.5 10.296875 8.5 21.578125 
z
M 31.109375 56 
z
" id="DejaVuSans-117"/>
       <path d="M 56.203125 29.59375 
L 56.203125 25.203125 
L 14.890625 25.203125 
Q 15.484375 15.921875 20.484375 11.0625 
Q 25.484375 6.203125 34.421875 6.203125 
Q 39.59375 6.203125 44.453125 7.46875 
Q 49.3125 8.734375 54.109375 11.28125 
L 54.109375 2.78125 
Q 49.265625 0.734375 44.1875 -0.34375 
Q 39.109375 -1.421875 33.890625 -1.421875 
Q 20.796875 -1.421875 13.15625 6.1875 
Q 5.515625 13.8125 5.515625 26.8125 
Q 5.515625 40.234375 12.765625 48.109375 
Q 20.015625 56 32.328125 56 
Q 43.359375 56 49.78125 48.890625 
Q 56.203125 41.796875 56.203125 29.59375 
z
M 47.21875 32.234375 
Q 47.125 39.59375 43.09375 43.984375 
Q 39.0625 48.390625 32.421875 48.390625 
Q 24.90625 48.390625 20.390625 44.140625 
Q 15.875 39.890625 15.1875 32.171875 
z
" id="DejaVuSans-101"/>
       <path id="DejaVuSans-32"/>
       <path d="M 31.78125 66.40625 
Q 24.171875 66.40625 20.328125 58.90625 
Q 16.5 51.421875 16.5 36.375 
Q 16.5 21.390625 20.328125 13.890625 
Q 24.171875 6.390625 31.78125 6.390625 
Q 39.453125 6.390625 43.28125 13.890625 
Q 47.125 21.390625 47.125 36.375 
Q 47.125 51.421875 43.28125 58.90625 
Q 39.453125 66.40625 31.78125 66.40625 
z
M 31.78125 74.21875 
Q 44.046875 74.21875 50.515625 64.515625 
Q 56.984375 54.828125 56.984375 36.375 
Q 56.984375 17.96875 50.515625 8.265625 
Q 44.046875 -1.421875 31.78125 -1.421875 
Q 19.53125 -1.421875 13.0625 8.265625 
Q 6.59375 17.96875 6.59375 36.375 
Q 6.59375 54.828125 13.0625 64.515625 
Q 19.53125 74.21875 31.78125 74.21875 
z
" id="DejaVuSans-48"/>
       <path d="M 11.71875 12.40625 
L 22.015625 12.40625 
L 22.015625 0 
L 11.71875 0 
z
M 11.71875 51.703125 
L 22.015625 51.703125 
L 22.015625 39.3125 
L 11.71875 39.3125 
z
" id="DejaVuSans-58"/>
      </defs>
      <g transform="translate(165.474103 274.718437)scale(0.1 -0.1)">
       <use xlink:href="#DejaVuSans-84"/>
       <use x="60.849609" xlink:href="#DejaVuSans-117"/>
       <use x="124.228516" xlink:href="#DejaVuSans-101"/>
       <use x="185.751953" xlink:href="#DejaVuSans-32"/>
       <use x="217.539062" xlink:href="#DejaVuSans-48"/>
       <use x="281.162109" xlink:href="#DejaVuSans-48"/>
       <use x="344.785156" xlink:href="#DejaVuSans-58"/>
       <use x="378.476562" xlink:href="#DejaVuSans-48"/>
       <use x="442.099609" xlink:href="#DejaVuSans-48"/>
      </g>
     </g>
    </g>
    <g id="xtick_2">
     <g id="line2d_2">
      <g>
       <use style="stroke:#000000;stroke-width:0.8;" x="348.039507" xlink:href="#m791751aeb5" y="260.12"/>
      </g>
     </g>
     <g id="text_2">
      <!-- Wed 00:00 -->
      <defs>
       <path d="M 3.328125 72.90625 
L 13.28125 72.90625 
L 28.609375 11.28125 
L 43.890625 72.90625 
L 54.984375 72.90625 
L 70.3125 11.28125 
L 85.59375 72.90625 
L 95.609375 72.90625 
L 77.296875 0 
L 64.890625 0 
L 49.515625 63.28125 
L 33.984375 0 
L 21.578125 0 
z
" id="DejaVuSans-87"/>
       <path d="M 45.40625 46.390625 
L 45.40625 75.984375 
L 54.390625 75.984375 
L 54.390625 0 
L 45.40625 0 
L 45.40625 8.203125 
Q 42.578125 3.328125 38.25 0.953125 
Q 33.9375 -1.421875 27.875 -1.421875 
Q 17.96875 -1.421875 11.734375 6.484375 
Q 5.515625 14.40625 5.515625 27.296875 
Q 5.515625 40.1875 11.734375 48.09375 
Q 17.96875 56 27.875 56 
Q 33.9375 56 38.25 53.625 
Q 42.578125 51.265625 45.40625 46.390625 
z
M 14.796875 27.296875 
Q 14.796875 17.390625 18.875 11.75 
Q 22.953125 6.109375 30.078125 6.109375 
Q 37.203125 6.109375 41.296875 11.75 
Q 45.40625 17.390625 45.40625 27.296875 
Q 45.40625 37.203125 41.296875 42.84375 
Q 37.203125 48.484375 30.078125 48.484375 
Q 22.953125 48.484375 18.875 42.84375 
Q 14.796875 37.203125 14.796875 27.296875 
z
" id="DejaVuSans-100"/>
      </defs>
      <g transform="translate(320.850445 274.718437)scale(0.1 -0.1)">
       <use xlink:href="#DejaVuSans-87"/>
       <use x="98.798828" xlink:href="#DejaVuSans-101"/>
       <use x="160.322266" xlink:href="#DejaVuSans-100"/>
       <use x="223.798828" xlink:href="#DejaVuSans-32"/>
       <use x="255.585938" xlink:href="#DejaVuSans-48"/>
       <use x="319.208984" xlink:href="#DejaVuSans-48"/>
       <use x="382.832031" xlink:href="#DejaVuSans-58"/>
       <use x="416.523438" xlink:href="#DejaVuSans-48"/>
       <use x="480.146484" xlink:href="#DejaVuSans-48"/>
      </g>
     </g>
    </g>
    <g id="xtick_3">
     <g id="line2d_3">
      <g>
       <use style="stroke:#000000;stroke-width:0.8;" x="505.318975" xlink:href="#m791751aeb5" y="260.12"/>
      </g>
     </g>
     <g id="text_3">
      <!-- Thu 00:00 -->
      <defs>
       <path d="M 54.890625 33.015625 
L 54.890625 0 
L 45.90625 0 
L 45.90625 32.71875 
Q 45.90625 40.484375 42.875 44.328125 
Q 39.84375 48.1875 33.796875 48.1875 
Q 26.515625 48.1875 22.3125 43.546875 
Q 18.109375 38.921875 18.109375 30.90625 
L 18.109375 0 
L 9.078125 0 
L 9.078125 75.984375 
L 18.109375 75.984375 
L 18.109375 46.1875 
Q 21.34375 51.125 25.703125 53.5625 
Q 30.078125 56 35.796875 56 
Q 45.21875 56 50.046875 50.171875 
Q 54.890625 44.34375 54.890625 33.015625 
z
" id="DejaVuSans-104"/>
      </defs>
      <g transform="translate(479.929131 274.718437)scale(0.1 -0.1)">
       <use xlink:href="#DejaVuSans-84"/>
       <use x="61.083984" xlink:href="#DejaVuSans-104"/>
       <use x="124.462891" xlink:href="#DejaVuSans-117"/>
       <use x="187.841797" xlink:href="#DejaVuSans-32"/>
       <use x="219.628906" xlink:href="#DejaVuSans-48"/>
       <use x="283.251953" xlink:href="#DejaVuSans-48"/>
       <use x="346.875" xlink:href="#DejaVuSans-58"/>
       <use x="380.566406" xlink:href="#DejaVuSans-48"/>
       <use x="444.189453" xlink:href="#DejaVuSans-48"/>
      </g>
     </g>
    </g>
    <g id="xtick_4">
     <g id="line2d_4">
      <g>
       <use style="stroke:#000000;stroke-width:0.8;" x="662.598442" xlink:href="#m791751aeb5" y="260.12"/>
      </g>
     </g>
     <g id="text_4">
      <!-- Fri 00:00 -->
      <defs>
       <path d="M 9.8125 72.90625 
L 51.703125 72.90625 
L 51.703125 64.59375 
L 19.671875 64.59375 
L 19.671875 43.109375 
L 48.578125 43.109375 
L 48.578125 34.8125 
L 19.671875 34.8125 
L 19.671875 0 
L 9.8125 0 
z
" id="DejaVuSans-70"/>
       <path d="M 41.109375 46.296875 
Q 39.59375 47.171875 37.8125 47.578125 
Q 36.03125 48 33.890625 48 
Q 26.265625 48 22.1875 43.046875 
Q 18.109375 38.09375 18.109375 28.8125 
L 18.109375 0 
L 9.078125 0 
L 9.078125 54.6875 
L 18.109375 54.6875 
L 18.109375 46.1875 
Q 20.953125 51.171875 25.484375 53.578125 
Q 30.03125 56 36.53125 56 
Q 37.453125 56 38.578125 55.875 
Q 39.703125 55.765625 41.0625 55.515625 
z
" id="DejaVuSans-114"/>
       <path d="M 9.421875 54.6875 
L 18.40625 54.6875 
L 18.40625 0 
L 9.421875 0 
z
M 9.421875 75.984375 
L 18.40625 75.984375 
L 18.40625 64.59375 
L 9.421875 64.59375 
z
" id="DejaVuSans-105"/>
      </defs>
      <g transform="translate(640.285161 274.718437)scale(0.1 -0.1)">
       <use xlink:href="#DejaVuSans-70"/>
       <use x="57.410156" xlink:href="#DejaVuSans-114"/>
       <use x="98.523438" xlink:href="#DejaVuSans-105"/>
       <use x="126.306641" xlink:href="#DejaVuSans-32"/>
       <use x="158.09375" xlink:href="#DejaVuSans-48"/>
       <use x="221.716797" xlink:href="#DejaVuSans-48"/>
       <use x="285.339844" xlink:href="#DejaVuSans-58"/>
       <use x="319.03125" xlink:href="#DejaVuSans-48"/>
       <use x="382.654297" xlink:href="#DejaVuSans-48"/>
      </g>
     </g>
    </g>
    <g id="xtick_5">
     <g id="line2d_5">
      <g>
       <use style="stroke:#000000;stroke-width:0.8;" x="819.877909" xlink:href="#m791751aeb5" y="260.12"/>
      </g>
     </g>
     <g id="text_5">
      <!-- Sat 00:00 -->
      <defs>
       <path d="M 53.515625 70.515625 
L 53.515625 60.890625 
Q 47.90625 63.578125 42.921875 64.890625 
Q 37.9375 66.21875 33.296875 66.21875 
Q 25.25 66.21875 20.875 63.09375 
Q 16.5 59.96875 16.5 54.203125 
Q 16.5 49.359375 19.40625 46.890625 
Q 22.3125 44.4375 30.421875 42.921875 
L 36.375 41.703125 
Q 47.40625 39.59375 52.65625 34.296875 
Q 57.90625 29 57.90625 20.125 
Q 57.90625 9.515625 50.796875 4.046875 
Q 43.703125 -1.421875 29.984375 -1.421875 
Q 24.8125 -1.421875 18.96875 -0.25 
Q 13.140625 0.921875 6.890625 3.21875 
L 6.890625 13.375 
Q 12.890625 10.015625 18.65625 8.296875 
Q 24.421875 6.59375 29.984375 6.59375 
Q 38.421875 6.59375 43.015625 9.90625 
Q 47.609375 13.234375 47.609375 19.390625 
Q 47.609375 24.75 44.3125 27.78125 
Q 41.015625 30.8125 33.5 32.328125 
L 27.484375 33.5 
Q 16.453125 35.6875 11.515625 40.375 
Q 6.59375 45.0625 6.59375 53.421875 
Q 6.59375 63.09375 13.40625 68.65625 
Q 20.21875 74.21875 32.171875 74.21875 
Q 37.3125 74.21875 42.625 73.28125 
Q 47.953125 72.359375 53.515625 70.515625 
z
" id="DejaVuSans-83"/>
       <path d="M 34.28125 27.484375 
Q 23.390625 27.484375 19.1875 25 
Q 14.984375 22.515625 14.984375 16.5 
Q 14.984375 11.71875 18.140625 8.90625 
Q 21.296875 6.109375 26.703125 6.109375 
Q 34.1875 6.109375 38.703125 11.40625 
Q 43.21875 16.703125 43.21875 25.484375 
L 43.21875 27.484375 
z
M 52.203125 31.203125 
L 52.203125 0 
L 43.21875 0 
L 43.21875 8.296875 
Q 40.140625 3.328125 35.546875 0.953125 
Q 30.953125 -1.421875 24.3125 -1.421875 
Q 15.921875 -1.421875 10.953125 3.296875 
Q 6 8.015625 6 15.921875 
Q 6 25.140625 12.171875 29.828125 
Q 18.359375 34.515625 30.609375 34.515625 
L 43.21875 34.515625 
L 43.21875 35.40625 
Q 43.21875 41.609375 39.140625 45 
Q 35.0625 48.390625 27.6875 48.390625 
Q 23 48.390625 18.546875 47.265625 
Q 14.109375 46.140625 10.015625 43.890625 
L 10.015625 52.203125 
Q 14.9375 54.109375 19.578125 55.046875 
Q 24.21875 56 28.609375 56 
Q 40.484375 56 46.34375 49.84375 
Q 52.203125 43.703125 52.203125 31.203125 
z
" id="DejaVuSans-97"/>
       <path d="M 18.3125 70.21875 
L 18.3125 54.6875 
L 36.8125 54.6875 
L 36.8125 47.703125 
L 18.3125 47.703125 
L 18.3125 18.015625 
Q 18.3125 11.328125 20.140625 9.421875 
Q 21.96875 7.515625 27.59375 7.515625 
L 36.8125 7.515625 
L 36.8125 0 
L 27.59375 0 
Q 17.1875 0 13.234375 3.875 
Q 9.28125 7.765625 9.28125 18.015625 
L 9.28125 47.703125 
L 2.6875 47.703125 
L 2.6875 54.6875 
L 9.28125 54.6875 
L 9.28125 70.21875 
z
" id="DejaVuSans-116"/>
      </defs>
      <g transform="translate(795.681034 274.718437)scale(0.1 -0.1)">
       <use xlink:href="#DejaVuSans-83"/>
       <use x="63.476562" xlink:href="#DejaVuSans-97"/>
       <use x="124.755859" xlink:href="#DejaVuSans-116"/>
       <use x="163.964844" xlink:href="#DejaVuSans-32"/>
       <use x="195.751953" xlink:href="#DejaVuSans-48"/>
       <use x="259.375" xlink:href="#DejaVuSans-48"/>
       <use x="322.998047" xlink:href="#DejaVuSans-58"/>
       <use x="356.689453" xlink:href="#DejaVuSans-48"/>
       <use x="420.3125" xlink:href="#DejaVuSans-48"/>
      </g>
     </g>
    </g>
    <g id="xtick_6">
     <g id="line2d_6">
      <g>
       <use style="stroke:#000000;stroke-width:0.8;" x="977.157376" xlink:href="#m791751aeb5" y="260.12"/>
      </g>
     </g>
     <g id="text_6">
      <!-- Sun 00:00 -->
      <defs>
       <path d="M 54.890625 33.015625 
L 54.890625 0 
L 45.90625 0 
L 45.90625 32.71875 
Q 45.90625 40.484375 42.875 44.328125 
Q 39.84375 48.1875 33.796875 48.1875 
Q 26.515625 48.1875 22.3125 43.546875 
Q 18.109375 38.921875 18.109375 30.90625 
L 18.109375 0 
L 9.078125 0 
L 9.078125 54.6875 
L 18.109375 54.6875 
L 18.109375 46.1875 
Q 21.34375 51.125 25.703125 53.5625 
Q 30.078125 56 35.796875 56 
Q 45.21875 56 50.046875 50.171875 
Q 54.890625 44.34375 54.890625 33.015625 
z
" id="DejaVuSans-110"/>
      </defs>
      <g transform="translate(951.64722 274.718437)scale(0.1 -0.1)">
       <use xlink:href="#DejaVuSans-83"/>
       <use x="63.476562" xlink:href="#DejaVuSans-117"/>
       <use x="126.855469" xlink:href="#DejaVuSans-110"/>
       <use x="190.234375" xlink:href="#DejaVuSans-32"/>
       <use x="222.021484" xlink:href="#DejaVuSans-48"/>
       <use x="285.644531" xlink:href="#DejaVuSans-48"/>
       <use x="349.267578" xlink:href="#DejaVuSans-58"/>
       <use x="382.958984" xlink:href="#DejaVuSans-48"/>
       <use x="446.582031" xlink:href="#DejaVuSans-48"/>
      </g>
     </g>
    </g>
   </g>
   <g id="matplotlib.axis_2">
    <g id="ytick_1">
     <g id="line2d_7">
      <defs>
       <path d="M 0 0 
L -3.5 0 
" id="m2073290f7b" style="stroke:#000000;stroke-width:0.8;"/>
      </defs>
      <g>
       <use style="stroke:#000000;stroke-width:0.8;" x="33.64" xlink:href="#m2073290f7b" y="260.12"/>
      </g>
     </g>
     <g id="text_7">
      <!-- 0 -->
      <g transform="translate(20.2775 263.919219)scale(0.1 -0.1)">
       <use xlink:href="#DejaVuSans-48"/>
      </g>
     </g>
    </g>
    <g id="ytick_2">
     <g id="line2d_8">
      <g>
       <use style="stroke:#000000;stroke-width:0.8;" x="33.64" xlink:href="#m2073290f7b" y="230.910476"/>
      </g>
     </g>
     <g id="text_8">
      <!-- 25 -->
      <defs>
       <path d="M 19.1875 8.296875 
L 53.609375 8.296875 
L 53.609375 0 
L 7.328125 0 
L 7.328125 8.296875 
Q 12.9375 14.109375 22.625 23.890625 
Q 32.328125 33.6875 34.8125 36.53125 
Q 39.546875 41.84375 41.421875 45.53125 
Q 43.3125 49.21875 43.3125 52.78125 
Q 43.3125 58.59375 39.234375 62.25 
Q 35.15625 65.921875 28.609375 65.921875 
Q 23.96875 65.921875 18.8125 64.3125 
Q 13.671875 62.703125 7.8125 59.421875 
L 7.8125 69.390625 
Q 13.765625 71.78125 18.9375 73 
Q 24.125 74.21875 28.421875 74.21875 
Q 39.75 74.21875 46.484375 68.546875 
Q 53.21875 62.890625 53.21875 53.421875 
Q 53.21875 48.921875 51.53125 44.890625 
Q 49.859375 40.875 45.40625 35.40625 
Q 44.1875 33.984375 37.640625 27.21875 
Q 31.109375 20.453125 19.1875 8.296875 
z
" id="DejaVuSans-50"/>
       <path d="M 10.796875 72.90625 
L 49.515625 72.90625 
L 49.515625 64.59375 
L 19.828125 64.59375 
L 19.828125 46.734375 
Q 21.96875 47.46875 24.109375 47.828125 
Q 26.265625 48.1875 28.421875 48.1875 
Q 40.625 48.1875 47.75 41.5 
Q 54.890625 34.8125 54.890625 23.390625 
Q 54.890625 11.625 47.5625 5.09375 
Q 40.234375 -1.421875 26.90625 -1.421875 
Q 22.3125 -1.421875 17.546875 -0.640625 
Q 12.796875 0.140625 7.71875 1.703125 
L 7.71875 11.625 
Q 12.109375 9.234375 16.796875 8.0625 
Q 21.484375 6.890625 26.703125 6.890625 
Q 35.15625 6.890625 40.078125 11.328125 
Q 45.015625 15.765625 45.015625 23.390625 
Q 45.015625 31 40.078125 35.4375 
Q 35.15625 39.890625 26.703125 39.890625 
Q 22.75 39.890625 18.8125 39.015625 
Q 14.890625 38.140625 10.796875 36.28125 
z
" id="DejaVuSans-53"/>
      </defs>
      <g transform="translate(13.915 234.709695)scale(0.1 -0.1)">
       <use xlink:href="#DejaVuSans-50"/>
       <use x="63.623047" xlink:href="#DejaVuSans-53"/>
      </g>
     </g>
    </g>
    <g id="ytick_3">
     <g id="line2d_9">
      <g>
       <use style="stroke:#000000;stroke-width:0.8;" x="33.64" xlink:href="#m2073290f7b" y="201.700952"/>
      </g>
     </g>
     <g id="text_9">
      <!-- 50 -->
      <g transform="translate(13.915 205.500171)scale(0.1 -0.1)">
       <use xlink:href="#DejaVuSans-53"/>
       <use x="63.623047" xlink:href="#DejaVuSans-48"/>
      </g>
     </g>
    </g>
    <g id="ytick_4">
     <g id="line2d_10">
      <g>
       <use style="stroke:#000000;stroke-width:0.8;" x="33.64" xlink:href="#m2073290f7b" y="172.491429"/>
      </g>
     </g>
     <g id="text_10">
      <!-- 75 -->
      <defs>
       <path d="M 8.203125 72.90625 
L 55.078125 72.90625 
L 55.078125 68.703125 
L 28.609375 0 
L 18.3125 0 
L 43.21875 64.59375 
L 8.203125 64.59375 
z
" id="DejaVuSans-55"/>
      </defs>
      <g transform="translate(13.915 176.290647)scale(0.1 -0.1)">
       <use xlink:href="#DejaVuSans-55"/>
       <use x="63.623047" xlink:href="#DejaVuSans-53"/>
      </g>
     </g>
    </g>
    <g id="ytick_5">
     <g id="line2d_11">
      <g>
       <use style="stroke:#000000;stroke-width:0.8;" x="33.64" xlink:href="#m2073290f7b" y="143.281905"/>
      </g>
     </g>
     <g id="text_11">
      <!-- 100 -->
      <defs>
       <path d="M 12.40625 8.296875 
L 28.515625 8.296875 
L 28.515625 63.921875 
L 10.984375 60.40625 
L 10.984375 69.390625 
L 28.421875 72.90625 
L 38.28125 72.90625 
L 38.28125 8.296875 
L 54.390625 8.296875 
L 54.390625 0 
L 12.40625 0 
z
" id="DejaVuSans-49"/>
      </defs>
      <g transform="translate(7.5525 147.081124)scale(0.1 -0.1)">
       <use xlink:href="#DejaVuSans-49"/>
       <use x="63.623047" xlink:href="#DejaVuSans-48"/>
       <use x="127.246094" xlink:href="#DejaVuSans-48"/>
      </g>
     </g>
    </g>
    <g id="ytick_6">
     <g id="line2d_12">
      <g>
       <use style="stroke:#000000;stroke-width:0.8;" x="33.64" xlink:href="#m2073290f7b" y="114.072381"/>
      </g>
     </g>
     <g id="text_12">
      <!-- 125 -->
      <g transform="translate(7.5525 117.8716)scale(0.1 -0.1)">
       <use xlink:href="#DejaVuSans-49"/>
       <use x="63.623047" xlink:href="#DejaVuSans-50"/>
       <use x="127.246094" xlink:href="#DejaVuSans-53"/>
      </g>
     </g>
    </g>
    <g id="ytick_7">
     <g id="line2d_13">
      <g>
       <use style="stroke:#000000;stroke-width:0.8;" x="33.64" xlink:href="#m2073290f7b" y="84.862857"/>
      </g>
     </g>
     <g id="text_13">
      <!-- 150 -->
      <g transform="translate(7.5525 88.662076)scale(0.1 -0.1)">
       <use xlink:href="#DejaVuSans-49"/>
       <use x="63.623047" xlink:href="#DejaVuSans-53"/>
       <use x="127.246094" xlink:href="#DejaVuSans-48"/>
      </g>
     </g>
    </g>
    <g id="ytick_8">
     <g id="line2d_14">
      <g>
       <use style="stroke:#000000;stroke-width:0.8;" x="33.64" xlink:href="#m2073290f7b" y="55.653333"/>
      </g>
     </g>
     <g id="text_14">
      <!-- 175 -->
      <g transform="translate(7.5525 59.452552)scale(0.1 -0.1)">
       <use xlink:href="#DejaVuSans-49"/>
       <use x="63.623047" xlink:href="#DejaVuSans-55"/>
       <use x="127.246094" xlink:href="#DejaVuSans-53"/>
      </g>
     </g>
    </g>
    <g id="ytick_9">
     <g id="line2d_15">
      <g>
       <use style="stroke:#000000;stroke-width:0.8;" x="33.64" xlink:href="#m2073290f7b" y="26.44381"/>
      </g>
     </g>
     <g id="text_15">
      <!-- 200 -->
      <g transform="translate(7.5525 30.243028)scale(0.1 -0.1)">
       <use xlink:href="#DejaVuSans-50"/>
       <use x="63.623047" xlink:href="#DejaVuSans-48"/>
       <use x="127.246094" xlink:href="#DejaVuSans-48"/>
      </g>
     </g>
    </g>
   </g>
   <g id="line2d_16">
    <path clip-path="url(#pf430d6d0a1)" d="M 33.64 260.12 
L 93.318365 260.12 
L 94.442761 257.783238 
L 95.567876 257.783238 
L 96.693063 254.278095 
L 97.8181 254.278095 
L 100.065853 249.604571 
L 101.19041 248.43619 
L 102.313845 248.43619 
L 103.43762 247.26781 
L 105.68571 247.26781 
L 106.810086 242.594286 
L 107.934016 236.752381 
L 109.057472 236.752381 
L 110.181661 229.742095 
L 111.307388 226.236952 
L 112.431212 226.236952 
L 113.555242 222.73181 
L 116.92611 222.73181 
L 118.049627 219.226667 
L 119.172684 218.058286 
L 121.421 218.058286 
L 122.544676 223.90019 
L 123.668469 223.90019 
L 124.793792 229.742095 
L 125.917167 227.405333 
L 127.041487 227.405333 
L 128.165007 232.078857 
L 129.288473 233.247238 
L 130.412828 236.752381 
L 131.536814 236.752381 
L 132.662226 234.415619 
L 133.784886 234.415619 
L 134.908634 230.910476 
L 137.155046 216.889905 
L 138.278085 216.889905 
L 139.401588 212.216381 
L 140.525789 208.711238 
L 141.650852 208.711238 
L 142.774125 197.027429 
L 143.902371 192.353905 
L 145.030037 186.512 
L 146.153184 186.512 
L 147.277349 187.680381 
L 148.40068 187.680381 
L 149.524764 181.838476 
L 150.648512 164.312762 
L 151.771516 164.312762 
L 152.895258 150.29219 
L 154.019532 139.776762 
L 155.143939 116.409143 
L 156.267289 116.409143 
L 157.390435 89.536381 
L 158.515785 89.536381 
L 159.638964 67.337143 
L 160.762159 53.316571 
L 161.884987 47.474667 
L 163.008092 47.474667 
L 164.131503 54.484952 
L 165.254523 59.158476 
L 166.378531 59.158476 
L 167.502755 76.68419 
L 168.625473 74.347429 
L 169.750877 74.347429 
L 170.875283 79.020952 
L 171.998179 81.357714 
L 173.123052 93.041524 
L 174.245991 93.041524 
L 175.369175 100.05181 
L 176.492232 109.398857 
L 177.614756 109.398857 
L 178.738412 122.251048 
L 179.861449 128.092952 
L 180.986543 128.092952 
L 182.109077 129.261333 
L 183.232378 132.766476 
L 184.35559 139.776762 
L 185.477909 139.776762 
L 186.600005 260.12 
L 249.667875 260.12 
L 250.7731 258.951619 
L 251.899584 243.762667 
L 253.025538 243.762667 
L 254.151233 240.257524 
L 255.274942 235.584 
L 257.526027 235.584 
L 258.649658 232.078857 
L 259.773111 232.078857 
L 260.897158 227.405333 
L 262.021226 223.90019 
L 263.143944 223.90019 
L 264.26897 222.73181 
L 266.51532 222.73181 
L 267.638889 225.068571 
L 268.764748 218.058286 
L 269.890335 219.226667 
L 271.013131 219.226667 
L 272.137074 216.889905 
L 273.261143 218.058286 
L 274.385365 218.058286 
L 275.508501 221.563429 
L 276.631356 219.226667 
L 277.755311 219.226667 
L 278.880078 214.553143 
L 280.003096 218.058286 
L 281.125791 218.058286 
L 282.248575 213.384762 
L 283.373987 212.216381 
L 284.499224 208.711238 
L 285.623554 208.711238 
L 287.869756 201.700952 
L 288.994827 201.700952 
L 290.119921 204.037714 
L 292.374128 204.037714 
L 293.496782 200.532571 
L 295.745361 200.532571 
L 296.870595 197.027429 
L 297.994287 187.680381 
L 299.117608 187.680381 
L 300.240448 184.175238 
L 301.364131 178.333333 
L 302.487716 178.333333 
L 303.613117 171.323048 
L 304.736888 156.134095 
L 305.860924 128.092952 
L 306.987605 128.092952 
L 308.115631 116.409143 
L 310.362302 116.409143 
L 311.489183 98.883429 
L 312.612969 98.883429 
L 313.736131 79.020952 
L 314.859152 67.337143 
L 315.98235 49.811429 
L 317.10561 49.811429 
L 318.230299 38.127619 
L 321.59977 38.127619 
L 322.725488 26.44381 
L 323.851058 26.44381 
L 324.973946 48.643048 
L 326.097677 60.326857 
L 327.221026 74.347429 
L 328.346775 74.347429 
L 330.592861 110.567238 
L 331.718912 110.567238 
L 332.84197 125.75619 
L 333.965371 137.44 
L 335.088285 151.460571 
L 336.214511 151.460571 
L 337.337871 161.976 
L 338.461907 161.976 
L 339.588322 166.649524 
L 340.711167 174.82819 
L 341.835154 175.996571 
L 344.082674 175.996571 
L 345.205253 260.12 
L 407.148734 260.12 
L 408.271741 255.446476 
L 410.519152 241.425905 
L 411.644366 241.425905 
L 412.767969 240.257524 
L 415.018468 240.257524 
L 416.141782 239.089143 
L 417.265184 239.089143 
L 418.390368 232.078857 
L 419.515176 232.078857 
L 420.638881 228.573714 
L 421.763999 228.573714 
L 422.888135 226.236952 
L 424.01292 225.068571 
L 428.510026 225.068571 
L 429.63854 226.236952 
L 431.884807 226.236952 
L 433.008063 223.90019 
L 434.132831 216.889905 
L 435.255965 219.226667 
L 436.381523 219.226667 
L 437.506794 221.563429 
L 438.629917 221.563429 
L 440.876933 214.553143 
L 442.002411 212.216381 
L 443.127644 212.216381 
L 444.250674 208.711238 
L 445.375561 206.374476 
L 446.500901 206.374476 
L 447.624457 209.879619 
L 448.749267 207.542857 
L 449.874032 206.374476 
L 450.999715 206.374476 
L 452.125735 205.206095 
L 453.249398 205.206095 
L 454.373252 198.19581 
L 455.497952 190.017143 
L 456.62437 190.017143 
L 457.749897 184.175238 
L 458.874821 171.323048 
L 459.997867 170.154667 
L 461.124872 170.154667 
L 462.250426 159.639238 
L 463.37598 159.639238 
L 464.500212 156.134095 
L 465.625395 153.797333 
L 466.751102 129.261333 
L 467.884557 129.261333 
L 469.008466 123.419429 
L 470.132143 115.240762 
L 471.256951 115.240762 
L 472.380996 98.883429 
L 473.504489 96.546667 
L 474.628494 96.546667 
L 475.752878 108.230476 
L 476.880317 101.22019 
L 478.002995 101.22019 
L 479.125897 96.546667 
L 480.251638 89.536381 
L 481.37993 95.378286 
L 482.505882 95.378286 
L 483.630954 94.209905 
L 484.75691 119.914286 
L 485.881963 119.914286 
L 487.004784 125.75619 
L 488.129975 144.450286 
L 489.255263 146.787048 
L 490.380261 146.787048 
L 491.505381 156.134095 
L 492.628042 156.134095 
L 493.753466 165.481143 
L 494.879159 171.323048 
L 496.002173 173.65981 
L 497.128017 173.65981 
L 498.253369 180.670095 
L 499.375878 181.838476 
L 501.626785 181.838476 
L 502.752275 260.12 
L 565.827599 260.12 
L 566.950438 256.614857 
L 568.073015 248.43619 
L 569.196085 248.43619 
L 570.32139 244.931048 
L 571.444871 242.594286 
L 572.568374 242.594286 
L 574.817495 235.584 
L 575.942013 230.910476 
L 577.067746 230.910476 
L 578.190936 229.742095 
L 579.314738 229.742095 
L 580.437853 226.236952 
L 581.563601 223.90019 
L 582.687504 223.90019 
L 584.935541 221.563429 
L 586.059284 225.068571 
L 587.184084 225.068571 
L 588.30769 222.73181 
L 589.432026 219.226667 
L 590.556055 219.226667 
L 591.680154 211.048 
L 592.804061 211.048 
L 593.927688 212.216381 
L 597.300799 212.216381 
L 598.425753 205.206095 
L 600.673465 205.206095 
L 601.798248 197.027429 
L 602.923026 194.690667 
L 604.048158 199.36419 
L 605.17316 199.36419 
L 606.303267 195.859048 
L 607.427079 195.859048 
L 608.550409 191.185524 
L 609.674607 184.175238 
L 610.798482 175.996571 
L 611.923393 175.996571 
L 613.047536 167.817905 
L 614.17313 161.976 
L 615.298052 161.976 
L 616.423686 157.302476 
L 617.549219 143.281905 
L 618.675888 143.281905 
L 619.801432 138.608381 
L 620.926435 128.092952 
L 622.051563 114.072381 
L 623.175605 114.072381 
L 624.299078 98.883429 
L 625.422334 104.725333 
L 626.54606 104.725333 
L 627.670484 86.031238 
L 628.793986 86.031238 
L 629.922534 70.842286 
L 631.046707 59.158476 
L 632.171134 46.306286 
L 633.296884 46.306286 
L 634.422868 28.780571 
L 635.547902 32.285714 
L 636.671436 32.285714 
L 637.795888 38.127619 
L 638.918505 31.117333 
L 640.041641 31.117333 
L 641.16464 41.632762 
L 642.288635 54.484952 
L 643.412123 62.663619 
L 644.535498 62.663619 
L 645.658203 76.68419 
L 646.785918 96.546667 
L 647.908755 96.546667 
L 649.033769 105.893714 
L 650.158767 121.082667 
L 651.281948 121.082667 
L 652.405332 126.924571 
L 653.530237 144.450286 
L 654.655212 144.450286 
L 655.778128 152.628952 
L 656.901475 158.470857 
L 659.150215 158.470857 
L 660.273364 260.12 
L 721.117986 260.12 
L 722.223149 256.614857 
L 723.346834 256.614857 
L 724.47037 254.278095 
L 725.593381 249.604571 
L 726.716714 247.26781 
L 727.842274 247.26781 
L 728.966608 242.594286 
L 730.090409 233.247238 
L 731.214803 233.247238 
L 732.33796 227.405333 
L 733.460642 227.405333 
L 734.58357 223.90019 
L 735.70924 223.90019 
L 736.832185 216.889905 
L 737.955553 216.889905 
L 739.07906 213.384762 
L 740.202054 215.721524 
L 741.325547 215.721524 
L 742.449016 216.889905 
L 743.572509 220.395048 
L 745.824279 220.395048 
L 746.94733 221.563429 
L 748.070584 221.563429 
L 749.19391 219.226667 
L 750.317448 225.068571 
L 752.563002 225.068571 
L 753.685766 220.395048 
L 754.809898 222.73181 
L 755.934858 222.73181 
L 757.058949 220.395048 
L 758.184221 220.395048 
L 759.308022 218.058286 
L 760.431044 206.374476 
L 761.554211 202.869333 
L 762.678609 202.869333 
L 763.801188 194.690667 
L 764.924837 187.680381 
L 766.047606 187.680381 
L 767.173246 181.838476 
L 768.300796 171.323048 
L 769.42535 164.312762 
L 770.5519 164.312762 
L 771.674707 158.470857 
L 772.797771 158.470857 
L 773.924319 153.797333 
L 775.048069 147.955429 
L 776.172393 145.618667 
L 777.298621 145.618667 
L 778.422758 137.44 
L 779.546484 150.29219 
L 780.66974 150.29219 
L 781.798437 161.976 
L 782.921802 160.807619 
L 784.044618 160.807619 
L 785.167823 150.29219 
L 786.291242 144.450286 
L 787.416171 144.450286 
L 788.540018 135.103238 
L 789.663486 126.924571 
L 790.788652 126.924571 
L 791.912053 125.75619 
L 793.035994 128.092952 
L 794.162832 125.75619 
L 795.296624 125.75619 
L 796.423534 130.429714 
L 797.551096 131.598095 
L 798.679221 131.598095 
L 799.815523 143.281905 
L 802.071906 143.281905 
L 803.200057 151.460571 
L 804.324189 158.470857 
L 805.453016 160.807619 
L 806.577578 160.807619 
L 807.703442 166.649524 
L 808.827368 166.649524 
L 809.952905 179.501714 
L 811.076955 185.343619 
L 812.20077 187.680381 
L 813.323692 187.680381 
L 814.448621 193.522286 
L 816.696202 193.522286 
L 817.82971 260.12 
L 878.663545 260.12 
L 879.768322 253.109714 
L 880.891901 251.941333 
L 882.016405 251.941333 
L 883.141015 241.425905 
L 884.263497 235.584 
L 885.386124 235.584 
L 886.509093 233.247238 
L 887.631526 233.247238 
L 888.753992 220.395048 
L 889.878312 209.879619 
L 891.000842 207.542857 
L 892.123702 207.542857 
L 894.369082 193.522286 
L 895.491302 193.522286 
L 897.739109 186.512 
L 898.861705 187.680381 
L 900.288729 187.680381 
L 901.412288 195.859048 
L 902.537957 199.36419 
L 903.660546 199.36419 
L 904.785368 200.532571 
L 905.912254 200.532571 
L 907.03525 187.680381 
L 908.157888 187.680381 
L 909.280555 180.670095 
L 910.40377 180.670095 
L 911.527359 175.996571 
L 912.649697 177.164952 
L 913.773441 177.164952 
L 914.898244 187.680381 
L 916.020871 186.512 
L 917.143792 180.670095 
L 918.266501 180.670095 
L 919.389516 181.838476 
L 920.511963 173.65981 
L 921.634639 173.65981 
L 922.758136 185.343619 
L 923.882346 198.19581 
L 925.004938 198.19581 
L 927.252898 205.206095 
L 928.377123 205.206095 
L 929.501684 204.037714 
L 930.626268 205.206095 
L 931.751353 201.700952 
L 932.876701 201.700952 
L 934.001616 202.869333 
L 935.12658 211.048 
L 936.251368 211.048 
L 937.375072 214.553143 
L 938.498836 215.721524 
L 939.623861 215.721524 
L 941.87403 208.711238 
L 942.99946 208.711238 
L 944.124463 204.037714 
L 945.249694 205.206095 
L 946.374745 205.206095 
L 947.500666 227.405333 
L 948.625632 216.889905 
L 949.749846 214.553143 
L 950.87305 214.553143 
L 951.996731 216.889905 
L 955.369053 216.889905 
L 956.492766 215.721524 
L 957.618989 215.721524 
L 958.741773 218.058286 
L 962.114913 218.058286 
L 963.239809 222.73181 
L 964.363811 222.73181 
L 966.613946 234.415619 
L 967.738954 234.415619 
L 968.864413 235.584 
L 972.236389 235.584 
L 973.361435 239.089143 
L 976.736205 239.089143 
L 977.860901 260.12 
L 1037.738697 260.12 
L 1038.861859 246.099429 
L 1039.984342 236.752381 
L 1041.108086 236.752381 
L 1043.35606 220.395048 
L 1044.479761 220.395048 
L 1045.603202 211.048 
L 1046.726862 205.206095 
L 1047.851396 194.690667 
L 1048.975272 194.690667 
L 1050.098971 173.65981 
L 1051.224567 173.65981 
L 1052.34797 183.006857 
L 1053.471116 172.491429 
L 1054.59453 172.491429 
L 1055.718579 170.154667 
L 1056.842124 172.491429 
L 1057.966697 164.312762 
L 1059.092222 164.312762 
L 1060.215108 159.639238 
L 1061.339835 165.481143 
L 1062.462813 165.481143 
L 1063.586092 177.164952 
L 1064.708786 172.491429 
L 1065.835441 172.491429 
L 1066.960218 170.154667 
L 1069.206516 170.154667 
L 1070.328897 167.817905 
L 1071.451626 178.333333 
L 1072.578216 170.154667 
L 1073.700651 170.154667 
L 1074.823499 167.817905 
L 1075.948347 157.302476 
L 1077.07176 157.302476 
L 1078.19547 151.460571 
L 1079.318864 151.460571 
L 1080.441355 139.776762 
L 1081.564366 132.766476 
L 1082.687225 135.103238 
L 1083.810511 135.103238 
L 1084.938497 133.934857 
L 1086.061774 130.429714 
L 1087.184982 125.75619 
L 1090.557126 125.75619 
L 1091.68034 118.745905 
L 1095.055149 118.745905 
L 1096.180793 110.567238 
L 1097.304404 112.904 
L 1098.428929 112.904 
L 1099.551647 114.072381 
L 1100.674602 121.082667 
L 1101.800175 121.082667 
L 1102.923652 115.240762 
L 1104.047225 119.914286 
L 1105.1701 111.735619 
L 1106.294982 111.735619 
L 1107.42021 118.745905 
L 1108.545804 118.745905 
L 1109.670984 128.092952 
L 1110.795946 132.766476 
L 1111.920005 132.766476 
L 1113.043673 129.261333 
L 1114.168348 131.598095 
L 1115.293169 136.271619 
L 1116.417947 136.271619 
L 1117.541606 144.450286 
L 1118.664635 145.618667 
L 1119.789845 145.618667 
L 1120.913737 147.955429 
L 1122.038857 152.628952 
L 1123.161494 152.628952 
L 1125.410552 157.302476 
L 1128.78549 157.302476 
L 1129.908642 260.12 
L 1133.28 260.12 
L 1133.28 260.12 
" style="fill:none;stroke:#1f77b4;stroke-linecap:square;stroke-width:1.5;"/>
   </g>
   <g id="patch_3">
    <path d="M 33.64 260.12 
L 33.64 14.76 
" style="fill:none;stroke:#000000;stroke-linecap:square;stroke-linejoin:miter;stroke-width:0.8;"/>
   </g>
   <g id="patch_4">
    <path d="M 1133.28 260.12 
L 1133.28 14.76 
" style="fill:none;stroke:#000000;stroke-linecap:square;stroke-linejoin:miter;stroke-width:0.8;"/>
   </g>
   <g id="patch_5">
    <path d="M 33.64 260.12 
L 1133.28 260.12 
" style="fill:none;stroke:#000000;stroke-linecap:square;stroke-linejoin:miter;stroke-width:0.8;"/>
   </g>
   <g id="patch_6">
    <path d="M 33.64 14.76 
L 1133.28 14.76 
" style="fill:none;stroke:#000000;stroke-linecap:square;stroke-linejoin:miter;stroke-width:0.8;"/>
   </g>
  </g>
 </g>
 <defs>
  <clipPath id="pf430d6d0a1">
   <rect height="245.36" width="1099.64" x="33.64" y="14.76"/>
  </clipPath>
 </defs>
</svg>
