<?xml version="1.0" encoding="utf-8" standalone="no"?>
<!DOCTYPE svg PUBLIC "-//W3C//DTD SVG 1.1//EN"
  "http://www.w3.org/Graphics/SVG/1.1/DTD/svg11.dtd">
<!-- Created with matplotlib (https://matplotlib.org/) -->
<svg height="288pt" version="1.1" viewBox="0 0 1152 288" width="1152pt" xmlns="http://www.w3.org/2000/svg" xmlns:xlink="http://www.w3.org/1999/xlink">
 <defs>
  <style type="text/css">
*{stroke-linecap:butt;stroke-linejoin:round;}
  </style>
 </defs>
 <g id="figure_1">
  <g id="patch_1">
   <path d="M 0 288 
L 1152 288 
L 1152 0 
L 0 0 
z
" style="fill:#ffffff;"/>
  </g>
  <g id="axes_1">
   <g id="patch_2">
    <path d="M 33.64 260.12 
L 1133.28 260.12 
L 1133.28 14.76 
L 33.64 14.76 
z
" style="fill:#ffffff;"/>
   </g>
   <g id="matplotlib.axis_1">
    <g id="xtick_1">
     <g id="line2d_1">
      <defs>
       <path d="M 0 0 
L 0 3.5 
" id="m49a7a8f3e2" style="stroke:#000000;stroke-width:0.8;"/>
      </defs>
      <g>
       <use style="stroke:#000000;stroke-width:0.8;" x="199.650158" xlink:href="#m49a7a8f3e2" y="260.12"/>
      </g>
     </g>
     <g id="text_1">
      <!-- Tue 00:00 -->
      <defs>
       <path d="M -0.296875 72.90625 
L 61.375 72.90625 
L 61.375 64.59375 
L 35.5 64.59375 
L 35.5 0 
L 25.59375 0 
L 25.59375 64.59375 
L -0.296875 64.59375 
z
" id="DejaVuSans-84"/>
       <path d="M 8.5 21.578125 
L 8.5 54.6875 
L 17.484375 54.6875 
L 17.484375 21.921875 
Q 17.484375 14.15625 20.5 10.265625 
Q 23.53125 6.390625 29.59375 6.390625 
Q 36.859375 6.390625 41.078125 11.03125 
Q 45.3125 15.671875 45.3125 23.6875 
L 45.3125 54.6875 
L 54.296875 54.6875 
L 54.296875 0 
L 45.3125 0 
L 45.3125 8.40625 
Q 42.046875 3.421875 37.71875 1 
Q 33.40625 -1.421875 27.6875 -1.421875 
Q 18.265625 -1.421875 13.375 4.4375 
Q 8.5 10.296875 8.5 21.578125 
z
M 31.109375 56 
z
" id="DejaVuSans-117"/>
       <path d="M 56.203125 29.59375 
L 56.203125 25.203125 
L 14.890625 25.203125 
Q 15.484375 15.921875 20.484375 11.0625 
Q 25.484375 6.203125 34.421875 6.203125 
Q 39.59375 6.203125 44.453125 7.46875 
Q 49.3125 8.734375 54.109375 11.28125 
L 54.109375 2.78125 
Q 49.265625 0.734375 44.1875 -0.34375 
Q 39.109375 -1.421875 33.890625 -1.421875 
Q 20.796875 -1.421875 13.15625 6.1875 
Q 5.515625 13.8125 5.515625 26.8125 
Q 5.515625 40.234375 12.765625 48.109375 
Q 20.015625 56 32.328125 56 
Q 43.359375 56 49.78125 48.890625 
Q 56.203125 41.796875 56.203125 29.59375 
z
M 47.21875 32.234375 
Q 47.125 39.59375 43.09375 43.984375 
Q 39.0625 48.390625 32.421875 48.390625 
Q 24.90625 48.390625 20.390625 44.140625 
Q 15.875 39.890625 15.1875 32.171875 
z
" id="DejaVuSans-101"/>
       <path id="DejaVuSans-32"/>
       <path d="M 31.78125 66.40625 
Q 24.171875 66.40625 20.328125 58.90625 
Q 16.5 51.421875 16.5 36.375 
Q 16.5 21.390625 20.328125 13.890625 
Q 24.171875 6.390625 31.78125 6.390625 
Q 39.453125 6.390625 43.28125 13.890625 
Q 47.125 21.390625 47.125 36.375 
Q 47.125 51.421875 43.28125 58.90625 
Q 39.453125 66.40625 31.78125 66.40625 
z
M 31.78125 74.21875 
Q 44.046875 74.21875 50.515625 64.515625 
Q 56.984375 54.828125 56.984375 36.375 
Q 56.984375 17.96875 50.515625 8.265625 
Q 44.046875 -1.421875 31.78125 -1.421875 
Q 19.53125 -1.421875 13.0625 8.265625 
Q 6.59375 17.96875 6.59375 36.375 
Q 6.59375 54.828125 13.0625 64.515625 
Q 19.53125 74.21875 31.78125 74.21875 
z
" id="DejaVuSans-48"/>
       <path d="M 11.71875 12.40625 
L 22.015625 12.40625 
L 22.015625 0 
L 11.71875 0 
z
M 11.71875 51.703125 
L 22.015625 51.703125 
L 22.015625 39.3125 
L 11.71875 39.3125 
z
" id="DejaVuSans-58"/>
      </defs>
      <g transform="translate(174.364221 274.718437)scale(0.1 -0.1)">
       <use xlink:href="#DejaVuSans-84"/>
       <use x="60.849609" xlink:href="#DejaVuSans-117"/>
       <use x="124.228516" xlink:href="#DejaVuSans-101"/>
       <use x="185.751953" xlink:href="#DejaVuSans-32"/>
       <use x="217.539062" xlink:href="#DejaVuSans-48"/>
       <use x="281.162109" xlink:href="#DejaVuSans-48"/>
       <use x="344.785156" xlink:href="#DejaVuSans-58"/>
       <use x="378.476562" xlink:href="#DejaVuSans-48"/>
       <use x="442.099609" xlink:href="#DejaVuSans-48"/>
      </g>
     </g>
    </g>
    <g id="xtick_2">
     <g id="line2d_2">
      <g>
       <use style="stroke:#000000;stroke-width:0.8;" x="366.57647" xlink:href="#m49a7a8f3e2" y="260.12"/>
      </g>
     </g>
     <g id="text_2">
      <!-- Wed 00:00 -->
      <defs>
       <path d="M 3.328125 72.90625 
L 13.28125 72.90625 
L 28.609375 11.28125 
L 43.890625 72.90625 
L 54.984375 72.90625 
L 70.3125 11.28125 
L 85.59375 72.90625 
L 95.609375 72.90625 
L 77.296875 0 
L 64.890625 0 
L 49.515625 63.28125 
L 33.984375 0 
L 21.578125 0 
z
" id="DejaVuSans-87"/>
       <path d="M 45.40625 46.390625 
L 45.40625 75.984375 
L 54.390625 75.984375 
L 54.390625 0 
L 45.40625 0 
L 45.40625 8.203125 
Q 42.578125 3.328125 38.25 0.953125 
Q 33.9375 -1.421875 27.875 -1.421875 
Q 17.96875 -1.421875 11.734375 6.484375 
Q 5.515625 14.40625 5.515625 27.296875 
Q 5.515625 40.1875 11.734375 48.09375 
Q 17.96875 56 27.875 56 
Q 33.9375 56 38.25 53.625 
Q 42.578125 51.265625 45.40625 46.390625 
z
M 14.796875 27.296875 
Q 14.796875 17.390625 18.875 11.75 
Q 22.953125 6.109375 30.078125 6.109375 
Q 37.203125 6.109375 41.296875 11.75 
Q 45.40625 17.390625 45.40625 27.296875 
Q 45.40625 37.203125 41.296875 42.84375 
Q 37.203125 48.484375 30.078125 48.484375 
Q 22.953125 48.484375 18.875 42.84375 
Q 14.796875 37.203125 14.796875 27.296875 
z
" id="DejaVuSans-100"/>
      </defs>
      <g transform="translate(339.387408 274.718437)scale(0.1 -0.1)">
       <use xlink:href="#DejaVuSans-87"/>
       <use x="98.798828" xlink:href="#DejaVuSans-101"/>
       <use x="160.322266" xlink:href="#DejaVuSans-100"/>
       <use x="223.798828" xlink:href="#DejaVuSans-32"/>
       <use x="255.585938" xlink:href="#DejaVuSans-48"/>
       <use x="319.208984" xlink:href="#DejaVuSans-48"/>
       <use x="382.832031" xlink:href="#DejaVuSans-58"/>
       <use x="416.523438" xlink:href="#DejaVuSans-48"/>
       <use x="480.146484" xlink:href="#DejaVuSans-48"/>
      </g>
     </g>
    </g>
    <g id="xtick_3">
     <g id="line2d_3">
      <g>
       <use style="stroke:#000000;stroke-width:0.8;" x="533.502782" xlink:href="#m49a7a8f3e2" y="260.12"/>
      </g>
     </g>
     <g id="text_3">
      <!-- Thu 00:00 -->
      <defs>
       <path d="M 54.890625 33.015625 
L 54.890625 0 
L 45.90625 0 
L 45.90625 32.71875 
Q 45.90625 40.484375 42.875 44.328125 
Q 39.84375 48.1875 33.796875 48.1875 
Q 26.515625 48.1875 22.3125 43.546875 
Q 18.109375 38.921875 18.109375 30.90625 
L 18.109375 0 
L 9.078125 0 
L 9.078125 75.984375 
L 18.109375 75.984375 
L 18.109375 46.1875 
Q 21.34375 51.125 25.703125 53.5625 
Q 30.078125 56 35.796875 56 
Q 45.21875 56 50.046875 50.171875 
Q 54.890625 44.34375 54.890625 33.015625 
z
" id="DejaVuSans-104"/>
      </defs>
      <g transform="translate(508.112939 274.718437)scale(0.1 -0.1)">
       <use xlink:href="#DejaVuSans-84"/>
       <use x="61.083984" xlink:href="#DejaVuSans-104"/>
       <use x="124.462891" xlink:href="#DejaVuSans-117"/>
       <use x="187.841797" xlink:href="#DejaVuSans-32"/>
       <use x="219.628906" xlink:href="#DejaVuSans-48"/>
       <use x="283.251953" xlink:href="#DejaVuSans-48"/>
       <use x="346.875" xlink:href="#DejaVuSans-58"/>
       <use x="380.566406" xlink:href="#DejaVuSans-48"/>
       <use x="444.189453" xlink:href="#DejaVuSans-48"/>
      </g>
     </g>
    </g>
    <g id="xtick_4">
     <g id="line2d_4">
      <g>
       <use style="stroke:#000000;stroke-width:0.8;" x="700.429094" xlink:href="#m49a7a8f3e2" y="260.12"/>
      </g>
     </g>
     <g id="text_4">
      <!-- Fri 00:00 -->
      <defs>
       <path d="M 9.8125 72.90625 
L 51.703125 72.90625 
L 51.703125 64.59375 
L 19.671875 64.59375 
L 19.671875 43.109375 
L 48.578125 43.109375 
L 48.578125 34.8125 
L 19.671875 34.8125 
L 19.671875 0 
L 9.8125 0 
z
" id="DejaVuSans-70"/>
       <path d="M 41.109375 46.296875 
Q 39.59375 47.171875 37.8125 47.578125 
Q 36.03125 48 33.890625 48 
Q 26.265625 48 22.1875 43.046875 
Q 18.109375 38.09375 18.109375 28.8125 
L 18.109375 0 
L 9.078125 0 
L 9.078125 54.6875 
L 18.109375 54.6875 
L 18.109375 46.1875 
Q 20.953125 51.171875 25.484375 53.578125 
Q 30.03125 56 36.53125 56 
Q 37.453125 56 38.578125 55.875 
Q 39.703125 55.765625 41.0625 55.515625 
z
" id="DejaVuSans-114"/>
       <path d="M 9.421875 54.6875 
L 18.40625 54.6875 
L 18.40625 0 
L 9.421875 0 
z
M 9.421875 75.984375 
L 18.40625 75.984375 
L 18.40625 64.59375 
L 9.421875 64.59375 
z
" id="DejaVuSans-105"/>
      </defs>
      <g transform="translate(678.115813 274.718437)scale(0.1 -0.1)">
       <use xlink:href="#DejaVuSans-70"/>
       <use x="57.410156" xlink:href="#DejaVuSans-114"/>
       <use x="98.523438" xlink:href="#DejaVuSans-105"/>
       <use x="126.306641" xlink:href="#DejaVuSans-32"/>
       <use x="158.09375" xlink:href="#DejaVuSans-48"/>
       <use x="221.716797" xlink:href="#DejaVuSans-48"/>
       <use x="285.339844" xlink:href="#DejaVuSans-58"/>
       <use x="319.03125" xlink:href="#DejaVuSans-48"/>
       <use x="382.654297" xlink:href="#DejaVuSans-48"/>
      </g>
     </g>
    </g>
    <g id="xtick_5">
     <g id="line2d_5">
      <g>
       <use style="stroke:#000000;stroke-width:0.8;" x="867.355407" xlink:href="#m49a7a8f3e2" y="260.12"/>
      </g>
     </g>
     <g id="text_5">
      <!-- Sat 00:00 -->
      <defs>
       <path d="M 53.515625 70.515625 
L 53.515625 60.890625 
Q 47.90625 63.578125 42.921875 64.890625 
Q 37.9375 66.21875 33.296875 66.21875 
Q 25.25 66.21875 20.875 63.09375 
Q 16.5 59.96875 16.5 54.203125 
Q 16.5 49.359375 19.40625 46.890625 
Q 22.3125 44.4375 30.421875 42.921875 
L 36.375 41.703125 
Q 47.40625 39.59375 52.65625 34.296875 
Q 57.90625 29 57.90625 20.125 
Q 57.90625 9.515625 50.796875 4.046875 
Q 43.703125 -1.421875 29.984375 -1.421875 
Q 24.8125 -1.421875 18.96875 -0.25 
Q 13.140625 0.921875 6.890625 3.21875 
L 6.890625 13.375 
Q 12.890625 10.015625 18.65625 8.296875 
Q 24.421875 6.59375 29.984375 6.59375 
Q 38.421875 6.59375 43.015625 9.90625 
Q 47.609375 13.234375 47.609375 19.390625 
Q 47.609375 24.75 44.3125 27.78125 
Q 41.015625 30.8125 33.5 32.328125 
L 27.484375 33.5 
Q 16.453125 35.6875 11.515625 40.375 
Q 6.59375 45.0625 6.59375 53.421875 
Q 6.59375 63.09375 13.40625 68.65625 
Q 20.21875 74.21875 32.171875 74.21875 
Q 37.3125 74.21875 42.625 73.28125 
Q 47.953125 72.359375 53.515625 70.515625 
z
" id="DejaVuSans-83"/>
       <path d="M 34.28125 27.484375 
Q 23.390625 27.484375 19.1875 25 
Q 14.984375 22.515625 14.984375 16.5 
Q 14.984375 11.71875 18.140625 8.90625 
Q 21.296875 6.109375 26.703125 6.109375 
Q 34.1875 6.109375 38.703125 11.40625 
Q 43.21875 16.703125 43.21875 25.484375 
L 43.21875 27.484375 
z
M 52.203125 31.203125 
L 52.203125 0 
L 43.21875 0 
L 43.21875 8.296875 
Q 40.140625 3.328125 35.546875 0.953125 
Q 30.953125 -1.421875 24.3125 -1.421875 
Q 15.921875 -1.421875 10.953125 3.296875 
Q 6 8.015625 6 15.921875 
Q 6 25.140625 12.171875 29.828125 
Q 18.359375 34.515625 30.609375 34.515625 
L 43.21875 34.515625 
L 43.21875 35.40625 
Q 43.21875 41.609375 39.140625 45 
Q 35.0625 48.390625 27.6875 48.390625 
Q 23 48.390625 18.546875 47.265625 
Q 14.109375 46.140625 10.015625 43.890625 
L 10.015625 52.203125 
Q 14.9375 54.109375 19.578125 55.046875 
Q 24.21875 56 28.609375 56 
Q 40.484375 56 46.34375 49.84375 
Q 52.203125 43.703125 52.203125 31.203125 
z
" id="DejaVuSans-97"/>
       <path d="M 18.3125 70.21875 
L 18.3125 54.6875 
L 36.8125 54.6875 
L 36.8125 47.703125 
L 18.3125 47.703125 
L 18.3125 18.015625 
Q 18.3125 11.328125 20.140625 9.421875 
Q 21.96875 7.515625 27.59375 7.515625 
L 36.8125 7.515625 
L 36.8125 0 
L 27.59375 0 
Q 17.1875 0 13.234375 3.875 
Q 9.28125 7.765625 9.28125 18.015625 
L 9.28125 47.703125 
L 2.6875 47.703125 
L 2.6875 54.6875 
L 9.28125 54.6875 
L 9.28125 70.21875 
z
" id="DejaVuSans-116"/>
      </defs>
      <g transform="translate(843.158532 274.718437)scale(0.1 -0.1)">
       <use xlink:href="#DejaVuSans-83"/>
       <use x="63.476562" xlink:href="#DejaVuSans-97"/>
       <use x="124.755859" xlink:href="#DejaVuSans-116"/>
       <use x="163.964844" xlink:href="#DejaVuSans-32"/>
       <use x="195.751953" xlink:href="#DejaVuSans-48"/>
       <use x="259.375" xlink:href="#DejaVuSans-48"/>
       <use x="322.998047" xlink:href="#DejaVuSans-58"/>
       <use x="356.689453" xlink:href="#DejaVuSans-48"/>
       <use x="420.3125" xlink:href="#DejaVuSans-48"/>
      </g>
     </g>
    </g>
    <g id="xtick_6">
     <g id="line2d_6">
      <g>
       <use style="stroke:#000000;stroke-width:0.8;" x="1034.281719" xlink:href="#m49a7a8f3e2" y="260.12"/>
      </g>
     </g>
     <g id="text_6">
      <!-- Sun 00:00 -->
      <defs>
       <path d="M 54.890625 33.015625 
L 54.890625 0 
L 45.90625 0 
L 45.90625 32.71875 
Q 45.90625 40.484375 42.875 44.328125 
Q 39.84375 48.1875 33.796875 48.1875 
Q 26.515625 48.1875 22.3125 43.546875 
Q 18.109375 38.921875 18.109375 30.90625 
L 18.109375 0 
L 9.078125 0 
L 9.078125 54.6875 
L 18.109375 54.6875 
L 18.109375 46.1875 
Q 21.34375 51.125 25.703125 53.5625 
Q 30.078125 56 35.796875 56 
Q 45.21875 56 50.046875 50.171875 
Q 54.890625 44.34375 54.890625 33.015625 
z
" id="DejaVuSans-110"/>
      </defs>
      <g transform="translate(1008.771562 274.718437)scale(0.1 -0.1)">
       <use xlink:href="#DejaVuSans-83"/>
       <use x="63.476562" xlink:href="#DejaVuSans-117"/>
       <use x="126.855469" xlink:href="#DejaVuSans-110"/>
       <use x="190.234375" xlink:href="#DejaVuSans-32"/>
       <use x="222.021484" xlink:href="#DejaVuSans-48"/>
       <use x="285.644531" xlink:href="#DejaVuSans-48"/>
       <use x="349.267578" xlink:href="#DejaVuSans-58"/>
       <use x="382.958984" xlink:href="#DejaVuSans-48"/>
       <use x="446.582031" xlink:href="#DejaVuSans-48"/>
      </g>
     </g>
    </g>
   </g>
   <g id="matplotlib.axis_2">
    <g id="ytick_1">
     <g id="line2d_7">
      <defs>
       <path d="M 0 0 
L -3.5 0 
" id="m10cd7da1ac" style="stroke:#000000;stroke-width:0.8;"/>
      </defs>
      <g>
       <use style="stroke:#000000;stroke-width:0.8;" x="33.64" xlink:href="#m10cd7da1ac" y="260.12"/>
      </g>
     </g>
     <g id="text_7">
      <!-- 0 -->
      <g transform="translate(20.2775 263.919219)scale(0.1 -0.1)">
       <use xlink:href="#DejaVuSans-48"/>
      </g>
     </g>
    </g>
    <g id="ytick_2">
     <g id="line2d_8">
      <g>
       <use style="stroke:#000000;stroke-width:0.8;" x="33.64" xlink:href="#m10cd7da1ac" y="232.857778"/>
      </g>
     </g>
     <g id="text_8">
      <!-- 20 -->
      <defs>
       <path d="M 19.1875 8.296875 
L 53.609375 8.296875 
L 53.609375 0 
L 7.328125 0 
L 7.328125 8.296875 
Q 12.9375 14.109375 22.625 23.890625 
Q 32.328125 33.6875 34.8125 36.53125 
Q 39.546875 41.84375 41.421875 45.53125 
Q 43.3125 49.21875 43.3125 52.78125 
Q 43.3125 58.59375 39.234375 62.25 
Q 35.15625 65.921875 28.609375 65.921875 
Q 23.96875 65.921875 18.8125 64.3125 
Q 13.671875 62.703125 7.8125 59.421875 
L 7.8125 69.390625 
Q 13.765625 71.78125 18.9375 73 
Q 24.125 74.21875 28.421875 74.21875 
Q 39.75 74.21875 46.484375 68.546875 
Q 53.21875 62.890625 53.21875 53.421875 
Q 53.21875 48.921875 51.53125 44.890625 
Q 49.859375 40.875 45.40625 35.40625 
Q 44.1875 33.984375 37.640625 27.21875 
Q 31.109375 20.453125 19.1875 8.296875 
z
" id="DejaVuSans-50"/>
      </defs>
      <g transform="translate(13.915 236.656997)scale(0.1 -0.1)">
       <use xlink:href="#DejaVuSans-50"/>
       <use x="63.623047" xlink:href="#DejaVuSans-48"/>
      </g>
     </g>
    </g>
    <g id="ytick_3">
     <g id="line2d_9">
      <g>
       <use style="stroke:#000000;stroke-width:0.8;" x="33.64" xlink:href="#m10cd7da1ac" y="205.595556"/>
      </g>
     </g>
     <g id="text_9">
      <!-- 40 -->
      <defs>
       <path d="M 37.796875 64.3125 
L 12.890625 25.390625 
L 37.796875 25.390625 
z
M 35.203125 72.90625 
L 47.609375 72.90625 
L 47.609375 25.390625 
L 58.015625 25.390625 
L 58.015625 17.1875 
L 47.609375 17.1875 
L 47.609375 0 
L 37.796875 0 
L 37.796875 17.1875 
L 4.890625 17.1875 
L 4.890625 26.703125 
z
" id="DejaVuSans-52"/>
      </defs>
      <g transform="translate(13.915 209.394774)scale(0.1 -0.1)">
       <use xlink:href="#DejaVuSans-52"/>
       <use x="63.623047" xlink:href="#DejaVuSans-48"/>
      </g>
     </g>
    </g>
    <g id="ytick_4">
     <g id="line2d_10">
      <g>
       <use style="stroke:#000000;stroke-width:0.8;" x="33.64" xlink:href="#m10cd7da1ac" y="178.333333"/>
      </g>
     </g>
     <g id="text_10">
      <!-- 60 -->
      <defs>
       <path d="M 33.015625 40.375 
Q 26.375 40.375 22.484375 35.828125 
Q 18.609375 31.296875 18.609375 23.390625 
Q 18.609375 15.53125 22.484375 10.953125 
Q 26.375 6.390625 33.015625 6.390625 
Q 39.65625 6.390625 43.53125 10.953125 
Q 47.40625 15.53125 47.40625 23.390625 
Q 47.40625 31.296875 43.53125 35.828125 
Q 39.65625 40.375 33.015625 40.375 
z
M 52.59375 71.296875 
L 52.59375 62.3125 
Q 48.875 64.0625 45.09375 64.984375 
Q 41.3125 65.921875 37.59375 65.921875 
Q 27.828125 65.921875 22.671875 59.328125 
Q 17.53125 52.734375 16.796875 39.40625 
Q 19.671875 43.65625 24.015625 45.921875 
Q 28.375 48.1875 33.59375 48.1875 
Q 44.578125 48.1875 50.953125 41.515625 
Q 57.328125 34.859375 57.328125 23.390625 
Q 57.328125 12.15625 50.6875 5.359375 
Q 44.046875 -1.421875 33.015625 -1.421875 
Q 20.359375 -1.421875 13.671875 8.265625 
Q 6.984375 17.96875 6.984375 36.375 
Q 6.984375 53.65625 15.1875 63.9375 
Q 23.390625 74.21875 37.203125 74.21875 
Q 40.921875 74.21875 44.703125 73.484375 
Q 48.484375 72.75 52.59375 71.296875 
z
" id="DejaVuSans-54"/>
      </defs>
      <g transform="translate(13.915 182.132552)scale(0.1 -0.1)">
       <use xlink:href="#DejaVuSans-54"/>
       <use x="63.623047" xlink:href="#DejaVuSans-48"/>
      </g>
     </g>
    </g>
    <g id="ytick_5">
     <g id="line2d_11">
      <g>
       <use style="stroke:#000000;stroke-width:0.8;" x="33.64" xlink:href="#m10cd7da1ac" y="151.071111"/>
      </g>
     </g>
     <g id="text_11">
      <!-- 80 -->
      <defs>
       <path d="M 31.78125 34.625 
Q 24.75 34.625 20.71875 30.859375 
Q 16.703125 27.09375 16.703125 20.515625 
Q 16.703125 13.921875 20.71875 10.15625 
Q 24.75 6.390625 31.78125 6.390625 
Q 38.8125 6.390625 42.859375 10.171875 
Q 46.921875 13.96875 46.921875 20.515625 
Q 46.921875 27.09375 42.890625 30.859375 
Q 38.875 34.625 31.78125 34.625 
z
M 21.921875 38.8125 
Q 15.578125 40.375 12.03125 44.71875 
Q 8.5 49.078125 8.5 55.328125 
Q 8.5 64.0625 14.71875 69.140625 
Q 20.953125 74.21875 31.78125 74.21875 
Q 42.671875 74.21875 48.875 69.140625 
Q 55.078125 64.0625 55.078125 55.328125 
Q 55.078125 49.078125 51.53125 44.71875 
Q 48 40.375 41.703125 38.8125 
Q 48.828125 37.15625 52.796875 32.3125 
Q 56.78125 27.484375 56.78125 20.515625 
Q 56.78125 9.90625 50.3125 4.234375 
Q 43.84375 -1.421875 31.78125 -1.421875 
Q 19.734375 -1.421875 13.25 4.234375 
Q 6.78125 9.90625 6.78125 20.515625 
Q 6.78125 27.484375 10.78125 32.3125 
Q 14.796875 37.15625 21.921875 38.8125 
z
M 18.3125 54.390625 
Q 18.3125 48.734375 21.84375 45.5625 
Q 25.390625 42.390625 31.78125 42.390625 
Q 38.140625 42.390625 41.71875 45.5625 
Q 45.3125 48.734375 45.3125 54.390625 
Q 45.3125 60.0625 41.71875 63.234375 
Q 38.140625 66.40625 31.78125 66.40625 
Q 25.390625 66.40625 21.84375 63.234375 
Q 18.3125 60.0625 18.3125 54.390625 
z
" id="DejaVuSans-56"/>
      </defs>
      <g transform="translate(13.915 154.87033)scale(0.1 -0.1)">
       <use xlink:href="#DejaVuSans-56"/>
       <use x="63.623047" xlink:href="#DejaVuSans-48"/>
      </g>
     </g>
    </g>
    <g id="ytick_6">
     <g id="line2d_12">
      <g>
       <use style="stroke:#000000;stroke-width:0.8;" x="33.64" xlink:href="#m10cd7da1ac" y="123.808889"/>
      </g>
     </g>
     <g id="text_12">
      <!-- 100 -->
      <defs>
       <path d="M 12.40625 8.296875 
L 28.515625 8.296875 
L 28.515625 63.921875 
L 10.984375 60.40625 
L 10.984375 69.390625 
L 28.421875 72.90625 
L 38.28125 72.90625 
L 38.28125 8.296875 
L 54.390625 8.296875 
L 54.390625 0 
L 12.40625 0 
z
" id="DejaVuSans-49"/>
      </defs>
      <g transform="translate(7.5525 127.608108)scale(0.1 -0.1)">
       <use xlink:href="#DejaVuSans-49"/>
       <use x="63.623047" xlink:href="#DejaVuSans-48"/>
       <use x="127.246094" xlink:href="#DejaVuSans-48"/>
      </g>
     </g>
    </g>
    <g id="ytick_7">
     <g id="line2d_13">
      <g>
       <use style="stroke:#000000;stroke-width:0.8;" x="33.64" xlink:href="#m10cd7da1ac" y="96.546667"/>
      </g>
     </g>
     <g id="text_13">
      <!-- 120 -->
      <g transform="translate(7.5525 100.345885)scale(0.1 -0.1)">
       <use xlink:href="#DejaVuSans-49"/>
       <use x="63.623047" xlink:href="#DejaVuSans-50"/>
       <use x="127.246094" xlink:href="#DejaVuSans-48"/>
      </g>
     </g>
    </g>
    <g id="ytick_8">
     <g id="line2d_14">
      <g>
       <use style="stroke:#000000;stroke-width:0.8;" x="33.64" xlink:href="#m10cd7da1ac" y="69.284444"/>
      </g>
     </g>
     <g id="text_14">
      <!-- 140 -->
      <g transform="translate(7.5525 73.083663)scale(0.1 -0.1)">
       <use xlink:href="#DejaVuSans-49"/>
       <use x="63.623047" xlink:href="#DejaVuSans-52"/>
       <use x="127.246094" xlink:href="#DejaVuSans-48"/>
      </g>
     </g>
    </g>
    <g id="ytick_9">
     <g id="line2d_15">
      <g>
       <use style="stroke:#000000;stroke-width:0.8;" x="33.64" xlink:href="#m10cd7da1ac" y="42.022222"/>
      </g>
     </g>
     <g id="text_15">
      <!-- 160 -->
      <g transform="translate(7.5525 45.821441)scale(0.1 -0.1)">
       <use xlink:href="#DejaVuSans-49"/>
       <use x="63.623047" xlink:href="#DejaVuSans-54"/>
       <use x="127.246094" xlink:href="#DejaVuSans-48"/>
      </g>
     </g>
    </g>
    <g id="ytick_10">
     <g id="line2d_16">
      <g>
       <use style="stroke:#000000;stroke-width:0.8;" x="33.64" xlink:href="#m10cd7da1ac" y="14.76"/>
      </g>
     </g>
     <g id="text_16">
      <!-- 180 -->
      <g transform="translate(7.5525 18.559219)scale(0.1 -0.1)">
       <use xlink:href="#DejaVuSans-49"/>
       <use x="63.623047" xlink:href="#DejaVuSans-56"/>
       <use x="127.246094" xlink:href="#DejaVuSans-48"/>
      </g>
     </g>
    </g>
   </g>
   <g id="line2d_17">
    <path clip-path="url(#pe1d2f5785c)" d="M 33.64 260.12 
L 96.995022 260.12 
L 98.187761 254.667556 
L 99.379937 254.667556 
L 100.574726 242.399556 
L 101.766167 241.036444 
L 102.957904 230.131556 
L 104.153154 230.131556 
L 105.349197 226.042222 
L 106.541661 224.679111 
L 108.925829 224.679111 
L 111.309099 216.500444 
L 112.50079 216.500444 
L 113.692358 221.952889 
L 114.884621 221.952889 
L 116.075922 231.494667 
L 117.268959 235.584 
L 119.652902 235.584 
L 122.039124 227.405333 
L 123.230642 227.405333 
L 124.422521 231.494667 
L 125.614956 224.679111 
L 126.806372 224.679111 
L 127.997583 227.405333 
L 129.194123 224.679111 
L 130.386645 226.042222 
L 131.578902 226.042222 
L 132.770731 231.494667 
L 133.962931 231.494667 
L 135.154108 230.131556 
L 136.345117 227.405333 
L 137.536954 227.405333 
L 138.73025 226.042222 
L 139.923489 221.952889 
L 141.116538 223.316 
L 142.310772 223.316 
L 143.503218 219.226667 
L 144.695424 216.500444 
L 145.887141 216.500444 
L 147.079174 206.958667 
L 148.271604 208.321778 
L 149.463767 205.595556 
L 150.656659 205.595556 
L 151.848694 198.78 
L 153.040496 198.78 
L 154.232453 197.416889 
L 156.61763 197.416889 
L 157.809306 193.327556 
L 160.192942 159.249778 
L 161.386347 159.249778 
L 162.581279 149.708 
L 163.774377 136.076889 
L 166.160159 136.076889 
L 167.352823 140.166222 
L 168.544674 140.166222 
L 169.737935 141.529333 
L 170.930701 137.44 
L 172.122977 137.44 
L 173.316897 131.987556 
L 174.513403 111.540889 
L 175.70602 116.993333 
L 176.900307 116.993333 
L 178.09332 121.082667 
L 179.288882 126.535111 
L 182.865309 126.535111 
L 184.05718 142.892444 
L 186.440233 153.797333 
L 187.634421 153.797333 
L 188.826252 168.791556 
L 190.019212 179.696444 
L 191.21099 179.696444 
L 192.403611 185.148889 
L 193.596048 193.327556 
L 195.982703 193.327556 
L 197.175263 260.12 
L 261.751901 260.12 
L 262.924955 258.756889 
L 264.120295 258.756889 
L 265.312136 251.941333 
L 266.503944 246.488889 
L 267.698857 246.488889 
L 268.895831 243.762667 
L 270.088611 224.679111 
L 271.28193 216.500444 
L 272.47419 216.500444 
L 273.666836 213.774222 
L 274.858836 213.774222 
L 276.051488 211.048 
L 278.436549 211.048 
L 279.629858 204.232444 
L 280.823043 211.048 
L 283.206932 211.048 
L 285.5932 213.774222 
L 286.788037 213.774222 
L 287.981157 215.137333 
L 289.173556 226.042222 
L 290.366242 226.042222 
L 291.558474 236.947111 
L 292.752326 242.399556 
L 293.943809 242.399556 
L 296.328375 239.673333 
L 297.521662 236.947111 
L 302.295073 236.947111 
L 304.681653 231.494667 
L 305.875715 227.405333 
L 307.06845 227.405333 
L 308.261654 226.042222 
L 309.453445 226.042222 
L 310.646062 220.589778 
L 311.900569 217.863556 
L 313.094529 217.863556 
L 314.287681 211.048 
L 315.480018 197.416889 
L 316.673028 194.690667 
L 317.86744 194.690667 
L 319.063415 183.785778 
L 320.259441 175.607111 
L 321.453836 175.607111 
L 322.648721 151.071111 
L 323.843177 129.261333 
L 325.036775 129.261333 
L 326.229012 121.082667 
L 327.421231 103.362222 
L 328.613842 103.362222 
L 329.806853 93.820444 
L 331.00407 88.368 
L 332.196506 88.368 
L 333.388602 74.736889 
L 334.582916 77.463111 
L 335.778983 73.373778 
L 336.971194 73.373778 
L 338.164039 88.368 
L 339.358076 89.731111 
L 340.550542 89.731111 
L 341.745168 93.820444 
L 342.937498 115.630222 
L 344.130749 115.630222 
L 345.323526 131.987556 
L 346.5157 140.166222 
L 347.707925 140.166222 
L 348.899976 148.344889 
L 351.283408 148.344889 
L 352.477365 157.886667 
L 353.669776 163.339111 
L 354.864214 163.339111 
L 356.055871 168.791556 
L 357.250395 185.148889 
L 358.44249 185.148889 
L 360.834989 204.232444 
L 362.029448 260.12 
L 428.978158 260.12 
L 430.151309 258.756889 
L 431.343575 258.756889 
L 432.53685 241.036444 
L 433.731852 232.857778 
L 434.924844 230.131556 
L 436.117648 230.131556 
L 437.316446 226.042222 
L 439.703091 226.042222 
L 440.898611 224.679111 
L 442.091853 217.863556 
L 443.284987 217.863556 
L 444.477847 219.226667 
L 445.673047 216.500444 
L 446.867344 216.500444 
L 448.059774 219.226667 
L 449.252543 228.768444 
L 454.029489 228.768444 
L 455.222117 231.494667 
L 456.414293 238.310222 
L 457.608768 242.399556 
L 458.80359 242.399556 
L 459.996486 243.762667 
L 461.190649 242.399556 
L 462.382622 242.399556 
L 464.769365 236.947111 
L 465.962079 235.584 
L 467.15412 235.584 
L 468.34731 231.494667 
L 469.539846 231.494667 
L 470.732612 223.316 
L 471.924845 223.316 
L 473.117808 216.500444 
L 474.310453 216.500444 
L 475.50489 219.226667 
L 477.888905 219.226667 
L 479.083521 205.595556 
L 480.278296 204.232444 
L 481.473868 204.232444 
L 483.862969 190.601333 
L 485.05497 182.422667 
L 486.252252 182.422667 
L 487.445393 189.238222 
L 488.637197 189.238222 
L 489.828699 182.422667 
L 491.021565 167.428444 
L 492.213547 167.428444 
L 493.410014 164.702222 
L 494.601809 159.249778 
L 495.794207 151.071111 
L 496.98603 151.071111 
L 498.178044 155.160444 
L 499.372059 144.255556 
L 500.565426 144.255556 
L 501.758969 140.166222 
L 502.9518 126.535111 
L 504.146078 126.535111 
L 505.338842 125.172 
L 506.533237 131.987556 
L 507.724981 131.987556 
L 508.917851 111.540889 
L 510.11036 101.999111 
L 511.303108 97.909778 
L 512.49581 97.909778 
L 513.68796 101.999111 
L 514.880811 101.999111 
L 516.073689 108.814667 
L 518.460385 137.44 
L 519.653929 137.44 
L 520.846961 153.797333 
L 522.042007 159.249778 
L 523.233976 159.249778 
L 524.426691 175.607111 
L 525.620683 187.875111 
L 526.816576 187.875111 
L 528.008473 196.053778 
L 529.200926 209.684889 
L 530.395316 209.684889 
L 531.589509 260.12 
L 597.341365 260.12 
L 598.533779 254.667556 
L 599.725906 254.667556 
L 600.918238 236.947111 
L 602.110513 227.405333 
L 603.302538 224.679111 
L 604.494617 224.679111 
L 605.686539 227.405333 
L 606.878193 227.405333 
L 608.06954 221.952889 
L 609.26192 220.589778 
L 610.456223 217.863556 
L 611.649067 217.863556 
L 612.841472 221.952889 
L 614.03305 220.589778 
L 615.225886 220.589778 
L 616.417152 224.679111 
L 617.608889 231.494667 
L 619.99781 231.494667 
L 621.18981 232.857778 
L 622.381675 232.857778 
L 623.574471 235.584 
L 624.766936 234.220889 
L 625.95867 234.220889 
L 627.150123 235.584 
L 628.342047 238.310222 
L 629.534327 243.762667 
L 633.110141 243.762667 
L 635.494998 238.310222 
L 636.689924 234.220889 
L 637.881772 234.220889 
L 639.073675 232.857778 
L 640.266405 228.768444 
L 645.038587 228.768444 
L 647.425116 226.042222 
L 648.617766 223.316 
L 649.809949 223.316 
L 652.196925 198.78 
L 653.390482 198.78 
L 654.584118 204.232444 
L 655.777675 204.232444 
L 656.972185 201.506222 
L 658.164367 189.238222 
L 659.357151 186.512 
L 660.54923 186.512 
L 662.933908 142.892444 
L 664.127338 142.892444 
L 665.320123 131.987556 
L 666.513437 136.076889 
L 667.706077 136.076889 
L 668.89882 119.719556 
L 670.091688 116.993333 
L 671.284221 116.993333 
L 672.476712 107.451556 
L 673.670842 108.814667 
L 674.86404 108.814667 
L 676.056312 103.362222 
L 677.249322 88.368 
L 678.443039 84.278667 
L 679.636542 84.278667 
L 680.829798 100.636 
L 682.022294 107.451556 
L 683.214626 107.451556 
L 684.407008 122.445778 
L 685.600359 160.612889 
L 686.792898 160.612889 
L 687.985896 163.339111 
L 689.178674 168.791556 
L 690.371121 168.791556 
L 691.564132 190.601333 
L 692.756867 198.78 
L 693.95003 211.048 
L 695.142564 211.048 
L 696.335567 260.12 
L 763.277781 260.12 
L 764.470875 256.030667 
L 765.663689 250.578222 
L 766.856463 250.578222 
L 768.050417 238.310222 
L 769.244509 234.220889 
L 770.439925 234.220889 
L 771.632496 228.768444 
L 772.82538 226.042222 
L 774.019737 220.589778 
L 776.40933 220.589778 
L 777.604245 221.952889 
L 778.795978 221.952889 
L 779.988169 220.589778 
L 783.567023 220.589778 
L 784.759138 223.316 
L 785.952017 223.316 
L 787.145277 224.679111 
L 788.337725 227.405333 
L 789.532083 227.405333 
L 790.724756 220.589778 
L 793.111852 217.863556 
L 794.305954 217.863556 
L 795.502544 215.137333 
L 796.698529 215.137333 
L 797.893105 213.774222 
L 799.085088 211.048 
L 800.279012 213.774222 
L 801.471821 213.774222 
L 803.856205 216.500444 
L 805.047469 216.500444 
L 806.239092 205.595556 
L 807.430973 212.411111 
L 808.623015 213.774222 
L 809.814845 213.774222 
L 811.006523 205.595556 
L 812.200335 205.595556 
L 813.39246 206.958667 
L 814.583909 213.774222 
L 815.776132 197.416889 
L 816.969416 197.416889 
L 818.163459 191.964444 
L 819.355712 183.785778 
L 820.550498 183.785778 
L 821.742596 170.154667 
L 822.934283 178.333333 
L 824.129189 178.333333 
L 825.321004 181.059556 
L 826.513963 166.065333 
L 827.705814 166.065333 
L 828.900662 163.339111 
L 830.095235 156.523556 
L 831.288871 140.166222 
L 832.481208 140.166222 
L 833.673179 145.618667 
L 834.86821 145.618667 
L 836.060821 148.344889 
L 837.255957 146.981778 
L 838.450247 159.249778 
L 839.645042 159.249778 
L 840.837308 156.523556 
L 842.032107 159.249778 
L 843.224026 159.249778 
L 845.611685 170.154667 
L 846.804323 176.970222 
L 847.997469 176.970222 
L 849.190237 179.696444 
L 850.383438 179.696444 
L 851.575091 190.601333 
L 852.767304 197.416889 
L 853.961695 197.416889 
L 855.154196 206.958667 
L 856.349719 215.137333 
L 857.542339 217.863556 
L 858.736654 217.863556 
L 859.929852 221.952889 
L 861.12203 227.405333 
L 862.316076 227.405333 
L 863.508231 260.12 
L 931.631455 260.12 
L 932.823853 258.756889 
L 934.017923 238.310222 
L 935.211714 238.310222 
L 936.406843 221.952889 
L 937.598408 212.411111 
L 938.792171 212.411111 
L 939.983761 208.321778 
L 941.177722 201.506222 
L 942.369571 201.506222 
L 943.563324 190.601333 
L 944.757484 181.059556 
L 945.949757 182.422667 
L 947.141498 182.422667 
L 948.333466 179.696444 
L 949.524553 187.875111 
L 950.716688 187.875111 
L 951.908068 197.416889 
L 953.100556 197.416889 
L 954.29167 194.690667 
L 955.482902 197.416889 
L 956.674589 194.690667 
L 957.866737 194.690667 
L 959.058325 197.416889 
L 960.249453 201.506222 
L 961.440746 201.506222 
L 962.632777 200.143111 
L 963.826736 197.416889 
L 965.018398 202.869333 
L 966.210091 202.869333 
L 967.401566 206.958667 
L 968.592736 206.958667 
L 969.78414 194.690667 
L 970.975484 206.958667 
L 972.168277 208.321778 
L 973.35967 208.321778 
L 974.550878 211.048 
L 975.742161 211.048 
L 976.933396 206.958667 
L 978.127336 209.684889 
L 979.318583 209.684889 
L 980.51275 212.411111 
L 981.705272 209.684889 
L 982.896824 211.048 
L 984.090689 211.048 
L 985.282326 205.595556 
L 986.477368 208.321778 
L 987.669233 208.321778 
L 988.860608 212.411111 
L 990.052012 220.589778 
L 991.243488 217.863556 
L 992.434538 217.863556 
L 993.628776 234.220889 
L 994.820071 234.220889 
L 996.01161 236.947111 
L 997.205674 241.036444 
L 998.397379 236.947111 
L 1000.78526 236.947111 
L 1001.977971 234.220889 
L 1003.170959 234.220889 
L 1004.362481 230.131556 
L 1005.553803 236.947111 
L 1006.74584 236.947111 
L 1007.939994 235.584 
L 1009.131425 231.494667 
L 1010.323109 230.131556 
L 1015.091779 230.131556 
L 1016.283411 228.768444 
L 1017.474639 231.494667 
L 1018.665923 231.494667 
L 1019.857142 230.131556 
L 1022.240172 230.131556 
L 1023.431116 231.494667 
L 1025.814665 231.494667 
L 1027.006132 232.857778 
L 1029.38927 232.857778 
L 1030.581558 260.12 
L 1096.337739 260.12 
L 1097.510863 258.756889 
L 1098.703317 258.756889 
L 1099.894642 236.947111 
L 1101.086157 224.679111 
L 1102.277955 213.774222 
L 1103.469587 213.774222 
L 1105.855807 194.690667 
L 1107.047551 194.690667 
L 1108.239259 178.333333 
L 1109.431053 178.333333 
L 1110.622793 153.797333 
L 1111.814377 144.255556 
L 1113.006733 144.255556 
L 1114.198585 140.166222 
L 1115.390616 134.713778 
L 1116.582819 125.172 
L 1117.777292 125.172 
L 1118.971182 114.267111 
L 1120.163161 119.719556 
L 1121.357593 119.719556 
L 1122.549179 122.445778 
L 1123.740941 126.535111 
L 1124.932726 126.535111 
L 1126.124591 133.350667 
L 1127.318353 131.987556 
L 1128.509886 131.987556 
L 1130.894135 137.44 
L 1133.28 137.44 
L 1133.28 137.44 
" style="fill:none;stroke:#1f77b4;stroke-linecap:square;stroke-width:1.5;"/>
   </g>
   <g id="patch_3">
    <path d="M 33.64 260.12 
L 33.64 14.76 
" style="fill:none;stroke:#000000;stroke-linecap:square;stroke-linejoin:miter;stroke-width:0.8;"/>
   </g>
   <g id="patch_4">
    <path d="M 1133.28 260.12 
L 1133.28 14.76 
" style="fill:none;stroke:#000000;stroke-linecap:square;stroke-linejoin:miter;stroke-width:0.8;"/>
   </g>
   <g id="patch_5">
    <path d="M 33.64 260.12 
L 1133.28 260.12 
" style="fill:none;stroke:#000000;stroke-linecap:square;stroke-linejoin:miter;stroke-width:0.8;"/>
   </g>
   <g id="patch_6">
    <path d="M 33.64 14.76 
L 1133.28 14.76 
" style="fill:none;stroke:#000000;stroke-linecap:square;stroke-linejoin:miter;stroke-width:0.8;"/>
   </g>
  </g>
 </g>
 <defs>
  <clipPath id="pe1d2f5785c">
   <rect height="245.36" width="1099.64" x="33.64" y="14.76"/>
  </clipPath>
 </defs>
</svg>
