<?xml version="1.0" encoding="utf-8" standalone="no"?>
<!DOCTYPE svg PUBLIC "-//W3C//DTD SVG 1.1//EN"
  "http://www.w3.org/Graphics/SVG/1.1/DTD/svg11.dtd">
<!-- Created with matplotlib (https://matplotlib.org/) -->
<svg height="288pt" version="1.1" viewBox="0 0 1152 288" width="1152pt" xmlns="http://www.w3.org/2000/svg" xmlns:xlink="http://www.w3.org/1999/xlink">
 <defs>
  <style type="text/css">
*{stroke-linecap:butt;stroke-linejoin:round;}
  </style>
 </defs>
 <g id="figure_1">
  <g id="patch_1">
   <path d="M 0 288 
L 1152 288 
L 1152 0 
L 0 0 
z
" style="fill:#ffffff;"/>
  </g>
  <g id="axes_1">
   <g id="patch_2">
    <path d="M 33.64 260.12 
L 1133.28 260.12 
L 1133.28 14.76 
L 33.64 14.76 
z
" style="fill:#ffffff;"/>
   </g>
   <g id="matplotlib.axis_1">
    <g id="xtick_1">
     <g id="line2d_1">
      <defs>
       <path d="M 0 0 
L 0 3.5 
" id="mc460c5a3df" style="stroke:#000000;stroke-width:0.8;"/>
      </defs>
      <g>
       <use style="stroke:#000000;stroke-width:0.8;" x="146.972431" xlink:href="#mc460c5a3df" y="260.12"/>
      </g>
     </g>
     <g id="text_1">
      <!-- Mon 12:00 -->
      <defs>
       <path d="M 9.8125 72.90625 
L 24.515625 72.90625 
L 43.109375 23.296875 
L 61.8125 72.90625 
L 76.515625 72.90625 
L 76.515625 0 
L 66.890625 0 
L 66.890625 64.015625 
L 48.09375 14.015625 
L 38.1875 14.015625 
L 19.390625 64.015625 
L 19.390625 0 
L 9.8125 0 
z
" id="DejaVuSans-77"/>
       <path d="M 30.609375 48.390625 
Q 23.390625 48.390625 19.1875 42.75 
Q 14.984375 37.109375 14.984375 27.296875 
Q 14.984375 17.484375 19.15625 11.84375 
Q 23.34375 6.203125 30.609375 6.203125 
Q 37.796875 6.203125 41.984375 11.859375 
Q 46.1875 17.53125 46.1875 27.296875 
Q 46.1875 37.015625 41.984375 42.703125 
Q 37.796875 48.390625 30.609375 48.390625 
z
M 30.609375 56 
Q 42.328125 56 49.015625 48.375 
Q 55.71875 40.765625 55.71875 27.296875 
Q 55.71875 13.875 49.015625 6.21875 
Q 42.328125 -1.421875 30.609375 -1.421875 
Q 18.84375 -1.421875 12.171875 6.21875 
Q 5.515625 13.875 5.515625 27.296875 
Q 5.515625 40.765625 12.171875 48.375 
Q 18.84375 56 30.609375 56 
z
" id="DejaVuSans-111"/>
       <path d="M 54.890625 33.015625 
L 54.890625 0 
L 45.90625 0 
L 45.90625 32.71875 
Q 45.90625 40.484375 42.875 44.328125 
Q 39.84375 48.1875 33.796875 48.1875 
Q 26.515625 48.1875 22.3125 43.546875 
Q 18.109375 38.921875 18.109375 30.90625 
L 18.109375 0 
L 9.078125 0 
L 9.078125 54.6875 
L 18.109375 54.6875 
L 18.109375 46.1875 
Q 21.34375 51.125 25.703125 53.5625 
Q 30.078125 56 35.796875 56 
Q 45.21875 56 50.046875 50.171875 
Q 54.890625 44.34375 54.890625 33.015625 
z
" id="DejaVuSans-110"/>
       <path id="DejaVuSans-32"/>
       <path d="M 12.40625 8.296875 
L 28.515625 8.296875 
L 28.515625 63.921875 
L 10.984375 60.40625 
L 10.984375 69.390625 
L 28.421875 72.90625 
L 38.28125 72.90625 
L 38.28125 8.296875 
L 54.390625 8.296875 
L 54.390625 0 
L 12.40625 0 
z
" id="DejaVuSans-49"/>
       <path d="M 19.1875 8.296875 
L 53.609375 8.296875 
L 53.609375 0 
L 7.328125 0 
L 7.328125 8.296875 
Q 12.9375 14.109375 22.625 23.890625 
Q 32.328125 33.6875 34.8125 36.53125 
Q 39.546875 41.84375 41.421875 45.53125 
Q 43.3125 49.21875 43.3125 52.78125 
Q 43.3125 58.59375 39.234375 62.25 
Q 35.15625 65.921875 28.609375 65.921875 
Q 23.96875 65.921875 18.8125 64.3125 
Q 13.671875 62.703125 7.8125 59.421875 
L 7.8125 69.390625 
Q 13.765625 71.78125 18.9375 73 
Q 24.125 74.21875 28.421875 74.21875 
Q 39.75 74.21875 46.484375 68.546875 
Q 53.21875 62.890625 53.21875 53.421875 
Q 53.21875 48.921875 51.53125 44.890625 
Q 49.859375 40.875 45.40625 35.40625 
Q 44.1875 33.984375 37.640625 27.21875 
Q 31.109375 20.453125 19.1875 8.296875 
z
" id="DejaVuSans-50"/>
       <path d="M 11.71875 12.40625 
L 22.015625 12.40625 
L 22.015625 0 
L 11.71875 0 
z
M 11.71875 51.703125 
L 22.015625 51.703125 
L 22.015625 39.3125 
L 11.71875 39.3125 
z
" id="DejaVuSans-58"/>
       <path d="M 31.78125 66.40625 
Q 24.171875 66.40625 20.328125 58.90625 
Q 16.5 51.421875 16.5 36.375 
Q 16.5 21.390625 20.328125 13.890625 
Q 24.171875 6.390625 31.78125 6.390625 
Q 39.453125 6.390625 43.28125 13.890625 
Q 47.125 21.390625 47.125 36.375 
Q 47.125 51.421875 43.28125 58.90625 
Q 39.453125 66.40625 31.78125 66.40625 
z
M 31.78125 74.21875 
Q 44.046875 74.21875 50.515625 64.515625 
Q 56.984375 54.828125 56.984375 36.375 
Q 56.984375 17.96875 50.515625 8.265625 
Q 44.046875 -1.421875 31.78125 -1.421875 
Q 19.53125 -1.421875 13.0625 8.265625 
Q 6.59375 17.96875 6.59375 36.375 
Q 6.59375 54.828125 13.0625 64.515625 
Q 19.53125 74.21875 31.78125 74.21875 
z
" id="DejaVuSans-48"/>
      </defs>
      <g transform="translate(120.431806 274.718437)scale(0.1 -0.1)">
       <use xlink:href="#DejaVuSans-77"/>
       <use x="86.279297" xlink:href="#DejaVuSans-111"/>
       <use x="147.460938" xlink:href="#DejaVuSans-110"/>
       <use x="210.839844" xlink:href="#DejaVuSans-32"/>
       <use x="242.626953" xlink:href="#DejaVuSans-49"/>
       <use x="306.25" xlink:href="#DejaVuSans-50"/>
       <use x="369.873047" xlink:href="#DejaVuSans-58"/>
       <use x="403.564453" xlink:href="#DejaVuSans-48"/>
       <use x="467.1875" xlink:href="#DejaVuSans-48"/>
      </g>
     </g>
    </g>
    <g id="xtick_2">
     <g id="line2d_2">
      <g>
       <use style="stroke:#000000;stroke-width:0.8;" x="261.132828" xlink:href="#mc460c5a3df" y="260.12"/>
      </g>
     </g>
     <g id="text_2">
      <!-- Tue 00:00 -->
      <defs>
       <path d="M -0.296875 72.90625 
L 61.375 72.90625 
L 61.375 64.59375 
L 35.5 64.59375 
L 35.5 0 
L 25.59375 0 
L 25.59375 64.59375 
L -0.296875 64.59375 
z
" id="DejaVuSans-84"/>
       <path d="M 8.5 21.578125 
L 8.5 54.6875 
L 17.484375 54.6875 
L 17.484375 21.921875 
Q 17.484375 14.15625 20.5 10.265625 
Q 23.53125 6.390625 29.59375 6.390625 
Q 36.859375 6.390625 41.078125 11.03125 
Q 45.3125 15.671875 45.3125 23.6875 
L 45.3125 54.6875 
L 54.296875 54.6875 
L 54.296875 0 
L 45.3125 0 
L 45.3125 8.40625 
Q 42.046875 3.421875 37.71875 1 
Q 33.40625 -1.421875 27.6875 -1.421875 
Q 18.265625 -1.421875 13.375 4.4375 
Q 8.5 10.296875 8.5 21.578125 
z
M 31.109375 56 
z
" id="DejaVuSans-117"/>
       <path d="M 56.203125 29.59375 
L 56.203125 25.203125 
L 14.890625 25.203125 
Q 15.484375 15.921875 20.484375 11.0625 
Q 25.484375 6.203125 34.421875 6.203125 
Q 39.59375 6.203125 44.453125 7.46875 
Q 49.3125 8.734375 54.109375 11.28125 
L 54.109375 2.78125 
Q 49.265625 0.734375 44.1875 -0.34375 
Q 39.109375 -1.421875 33.890625 -1.421875 
Q 20.796875 -1.421875 13.15625 6.1875 
Q 5.515625 13.8125 5.515625 26.8125 
Q 5.515625 40.234375 12.765625 48.109375 
Q 20.015625 56 32.328125 56 
Q 43.359375 56 49.78125 48.890625 
Q 56.203125 41.796875 56.203125 29.59375 
z
M 47.21875 32.234375 
Q 47.125 39.59375 43.09375 43.984375 
Q 39.0625 48.390625 32.421875 48.390625 
Q 24.90625 48.390625 20.390625 44.140625 
Q 15.875 39.890625 15.1875 32.171875 
z
" id="DejaVuSans-101"/>
      </defs>
      <g transform="translate(235.846891 274.718437)scale(0.1 -0.1)">
       <use xlink:href="#DejaVuSans-84"/>
       <use x="60.849609" xlink:href="#DejaVuSans-117"/>
       <use x="124.228516" xlink:href="#DejaVuSans-101"/>
       <use x="185.751953" xlink:href="#DejaVuSans-32"/>
       <use x="217.539062" xlink:href="#DejaVuSans-48"/>
       <use x="281.162109" xlink:href="#DejaVuSans-48"/>
       <use x="344.785156" xlink:href="#DejaVuSans-58"/>
       <use x="378.476562" xlink:href="#DejaVuSans-48"/>
       <use x="442.099609" xlink:href="#DejaVuSans-48"/>
      </g>
     </g>
    </g>
    <g id="xtick_3">
     <g id="line2d_3">
      <g>
       <use style="stroke:#000000;stroke-width:0.8;" x="375.293226" xlink:href="#mc460c5a3df" y="260.12"/>
      </g>
     </g>
     <g id="text_3">
      <!-- Tue 12:00 -->
      <g transform="translate(350.007288 274.718437)scale(0.1 -0.1)">
       <use xlink:href="#DejaVuSans-84"/>
       <use x="60.849609" xlink:href="#DejaVuSans-117"/>
       <use x="124.228516" xlink:href="#DejaVuSans-101"/>
       <use x="185.751953" xlink:href="#DejaVuSans-32"/>
       <use x="217.539062" xlink:href="#DejaVuSans-49"/>
       <use x="281.162109" xlink:href="#DejaVuSans-50"/>
       <use x="344.785156" xlink:href="#DejaVuSans-58"/>
       <use x="378.476562" xlink:href="#DejaVuSans-48"/>
       <use x="442.099609" xlink:href="#DejaVuSans-48"/>
      </g>
     </g>
    </g>
    <g id="xtick_4">
     <g id="line2d_4">
      <g>
       <use style="stroke:#000000;stroke-width:0.8;" x="489.453623" xlink:href="#mc460c5a3df" y="260.12"/>
      </g>
     </g>
     <g id="text_4">
      <!-- Wed 00:00 -->
      <defs>
       <path d="M 3.328125 72.90625 
L 13.28125 72.90625 
L 28.609375 11.28125 
L 43.890625 72.90625 
L 54.984375 72.90625 
L 70.3125 11.28125 
L 85.59375 72.90625 
L 95.609375 72.90625 
L 77.296875 0 
L 64.890625 0 
L 49.515625 63.28125 
L 33.984375 0 
L 21.578125 0 
z
" id="DejaVuSans-87"/>
       <path d="M 45.40625 46.390625 
L 45.40625 75.984375 
L 54.390625 75.984375 
L 54.390625 0 
L 45.40625 0 
L 45.40625 8.203125 
Q 42.578125 3.328125 38.25 0.953125 
Q 33.9375 -1.421875 27.875 -1.421875 
Q 17.96875 -1.421875 11.734375 6.484375 
Q 5.515625 14.40625 5.515625 27.296875 
Q 5.515625 40.1875 11.734375 48.09375 
Q 17.96875 56 27.875 56 
Q 33.9375 56 38.25 53.625 
Q 42.578125 51.265625 45.40625 46.390625 
z
M 14.796875 27.296875 
Q 14.796875 17.390625 18.875 11.75 
Q 22.953125 6.109375 30.078125 6.109375 
Q 37.203125 6.109375 41.296875 11.75 
Q 45.40625 17.390625 45.40625 27.296875 
Q 45.40625 37.203125 41.296875 42.84375 
Q 37.203125 48.484375 30.078125 48.484375 
Q 22.953125 48.484375 18.875 42.84375 
Q 14.796875 37.203125 14.796875 27.296875 
z
" id="DejaVuSans-100"/>
      </defs>
      <g transform="translate(462.26456 274.718437)scale(0.1 -0.1)">
       <use xlink:href="#DejaVuSans-87"/>
       <use x="98.798828" xlink:href="#DejaVuSans-101"/>
       <use x="160.322266" xlink:href="#DejaVuSans-100"/>
       <use x="223.798828" xlink:href="#DejaVuSans-32"/>
       <use x="255.585938" xlink:href="#DejaVuSans-48"/>
       <use x="319.208984" xlink:href="#DejaVuSans-48"/>
       <use x="382.832031" xlink:href="#DejaVuSans-58"/>
       <use x="416.523438" xlink:href="#DejaVuSans-48"/>
       <use x="480.146484" xlink:href="#DejaVuSans-48"/>
      </g>
     </g>
    </g>
    <g id="xtick_5">
     <g id="line2d_5">
      <g>
       <use style="stroke:#000000;stroke-width:0.8;" x="603.61402" xlink:href="#mc460c5a3df" y="260.12"/>
      </g>
     </g>
     <g id="text_5">
      <!-- Wed 12:00 -->
      <g transform="translate(576.424957 274.718437)scale(0.1 -0.1)">
       <use xlink:href="#DejaVuSans-87"/>
       <use x="98.798828" xlink:href="#DejaVuSans-101"/>
       <use x="160.322266" xlink:href="#DejaVuSans-100"/>
       <use x="223.798828" xlink:href="#DejaVuSans-32"/>
       <use x="255.585938" xlink:href="#DejaVuSans-49"/>
       <use x="319.208984" xlink:href="#DejaVuSans-50"/>
       <use x="382.832031" xlink:href="#DejaVuSans-58"/>
       <use x="416.523438" xlink:href="#DejaVuSans-48"/>
       <use x="480.146484" xlink:href="#DejaVuSans-48"/>
      </g>
     </g>
    </g>
    <g id="xtick_6">
     <g id="line2d_6">
      <g>
       <use style="stroke:#000000;stroke-width:0.8;" x="717.774417" xlink:href="#mc460c5a3df" y="260.12"/>
      </g>
     </g>
     <g id="text_6">
      <!-- Thu 00:00 -->
      <defs>
       <path d="M 54.890625 33.015625 
L 54.890625 0 
L 45.90625 0 
L 45.90625 32.71875 
Q 45.90625 40.484375 42.875 44.328125 
Q 39.84375 48.1875 33.796875 48.1875 
Q 26.515625 48.1875 22.3125 43.546875 
Q 18.109375 38.921875 18.109375 30.90625 
L 18.109375 0 
L 9.078125 0 
L 9.078125 75.984375 
L 18.109375 75.984375 
L 18.109375 46.1875 
Q 21.34375 51.125 25.703125 53.5625 
Q 30.078125 56 35.796875 56 
Q 45.21875 56 50.046875 50.171875 
Q 54.890625 44.34375 54.890625 33.015625 
z
" id="DejaVuSans-104"/>
      </defs>
      <g transform="translate(692.384573 274.718437)scale(0.1 -0.1)">
       <use xlink:href="#DejaVuSans-84"/>
       <use x="61.083984" xlink:href="#DejaVuSans-104"/>
       <use x="124.462891" xlink:href="#DejaVuSans-117"/>
       <use x="187.841797" xlink:href="#DejaVuSans-32"/>
       <use x="219.628906" xlink:href="#DejaVuSans-48"/>
       <use x="283.251953" xlink:href="#DejaVuSans-48"/>
       <use x="346.875" xlink:href="#DejaVuSans-58"/>
       <use x="380.566406" xlink:href="#DejaVuSans-48"/>
       <use x="444.189453" xlink:href="#DejaVuSans-48"/>
      </g>
     </g>
    </g>
    <g id="xtick_7">
     <g id="line2d_7">
      <g>
       <use style="stroke:#000000;stroke-width:0.8;" x="831.934814" xlink:href="#mc460c5a3df" y="260.12"/>
      </g>
     </g>
     <g id="text_7">
      <!-- Thu 12:00 -->
      <g transform="translate(806.544971 274.718437)scale(0.1 -0.1)">
       <use xlink:href="#DejaVuSans-84"/>
       <use x="61.083984" xlink:href="#DejaVuSans-104"/>
       <use x="124.462891" xlink:href="#DejaVuSans-117"/>
       <use x="187.841797" xlink:href="#DejaVuSans-32"/>
       <use x="219.628906" xlink:href="#DejaVuSans-49"/>
       <use x="283.251953" xlink:href="#DejaVuSans-50"/>
       <use x="346.875" xlink:href="#DejaVuSans-58"/>
       <use x="380.566406" xlink:href="#DejaVuSans-48"/>
       <use x="444.189453" xlink:href="#DejaVuSans-48"/>
      </g>
     </g>
    </g>
    <g id="xtick_8">
     <g id="line2d_8">
      <g>
       <use style="stroke:#000000;stroke-width:0.8;" x="946.095211" xlink:href="#mc460c5a3df" y="260.12"/>
      </g>
     </g>
     <g id="text_8">
      <!-- Fri 00:00 -->
      <defs>
       <path d="M 9.8125 72.90625 
L 51.703125 72.90625 
L 51.703125 64.59375 
L 19.671875 64.59375 
L 19.671875 43.109375 
L 48.578125 43.109375 
L 48.578125 34.8125 
L 19.671875 34.8125 
L 19.671875 0 
L 9.8125 0 
z
" id="DejaVuSans-70"/>
       <path d="M 41.109375 46.296875 
Q 39.59375 47.171875 37.8125 47.578125 
Q 36.03125 48 33.890625 48 
Q 26.265625 48 22.1875 43.046875 
Q 18.109375 38.09375 18.109375 28.8125 
L 18.109375 0 
L 9.078125 0 
L 9.078125 54.6875 
L 18.109375 54.6875 
L 18.109375 46.1875 
Q 20.953125 51.171875 25.484375 53.578125 
Q 30.03125 56 36.53125 56 
Q 37.453125 56 38.578125 55.875 
Q 39.703125 55.765625 41.0625 55.515625 
z
" id="DejaVuSans-114"/>
       <path d="M 9.421875 54.6875 
L 18.40625 54.6875 
L 18.40625 0 
L 9.421875 0 
z
M 9.421875 75.984375 
L 18.40625 75.984375 
L 18.40625 64.59375 
L 9.421875 64.59375 
z
" id="DejaVuSans-105"/>
      </defs>
      <g transform="translate(923.78193 274.718437)scale(0.1 -0.1)">
       <use xlink:href="#DejaVuSans-70"/>
       <use x="57.410156" xlink:href="#DejaVuSans-114"/>
       <use x="98.523438" xlink:href="#DejaVuSans-105"/>
       <use x="126.306641" xlink:href="#DejaVuSans-32"/>
       <use x="158.09375" xlink:href="#DejaVuSans-48"/>
       <use x="221.716797" xlink:href="#DejaVuSans-48"/>
       <use x="285.339844" xlink:href="#DejaVuSans-58"/>
       <use x="319.03125" xlink:href="#DejaVuSans-48"/>
       <use x="382.654297" xlink:href="#DejaVuSans-48"/>
      </g>
     </g>
    </g>
    <g id="xtick_9">
     <g id="line2d_9">
      <g>
       <use style="stroke:#000000;stroke-width:0.8;" x="1060.255609" xlink:href="#mc460c5a3df" y="260.12"/>
      </g>
     </g>
     <g id="text_9">
      <!-- Fri 12:00 -->
      <g transform="translate(1037.942327 274.718437)scale(0.1 -0.1)">
       <use xlink:href="#DejaVuSans-70"/>
       <use x="57.410156" xlink:href="#DejaVuSans-114"/>
       <use x="98.523438" xlink:href="#DejaVuSans-105"/>
       <use x="126.306641" xlink:href="#DejaVuSans-32"/>
       <use x="158.09375" xlink:href="#DejaVuSans-49"/>
       <use x="221.716797" xlink:href="#DejaVuSans-50"/>
       <use x="285.339844" xlink:href="#DejaVuSans-58"/>
       <use x="319.03125" xlink:href="#DejaVuSans-48"/>
       <use x="382.654297" xlink:href="#DejaVuSans-48"/>
      </g>
     </g>
    </g>
   </g>
   <g id="matplotlib.axis_2">
    <g id="ytick_1">
     <g id="line2d_10">
      <defs>
       <path d="M 0 0 
L -3.5 0 
" id="m04418d0d7d" style="stroke:#000000;stroke-width:0.8;"/>
      </defs>
      <g>
       <use style="stroke:#000000;stroke-width:0.8;" x="33.64" xlink:href="#m04418d0d7d" y="260.12"/>
      </g>
     </g>
     <g id="text_10">
      <!-- 0 -->
      <g transform="translate(20.2775 263.919219)scale(0.1 -0.1)">
       <use xlink:href="#DejaVuSans-48"/>
      </g>
     </g>
    </g>
    <g id="ytick_2">
     <g id="line2d_11">
      <g>
       <use style="stroke:#000000;stroke-width:0.8;" x="33.64" xlink:href="#m04418d0d7d" y="230.910476"/>
      </g>
     </g>
     <g id="text_11">
      <!-- 25 -->
      <defs>
       <path d="M 10.796875 72.90625 
L 49.515625 72.90625 
L 49.515625 64.59375 
L 19.828125 64.59375 
L 19.828125 46.734375 
Q 21.96875 47.46875 24.109375 47.828125 
Q 26.265625 48.1875 28.421875 48.1875 
Q 40.625 48.1875 47.75 41.5 
Q 54.890625 34.8125 54.890625 23.390625 
Q 54.890625 11.625 47.5625 5.09375 
Q 40.234375 -1.421875 26.90625 -1.421875 
Q 22.3125 -1.421875 17.546875 -0.640625 
Q 12.796875 0.140625 7.71875 1.703125 
L 7.71875 11.625 
Q 12.109375 9.234375 16.796875 8.0625 
Q 21.484375 6.890625 26.703125 6.890625 
Q 35.15625 6.890625 40.078125 11.328125 
Q 45.015625 15.765625 45.015625 23.390625 
Q 45.015625 31 40.078125 35.4375 
Q 35.15625 39.890625 26.703125 39.890625 
Q 22.75 39.890625 18.8125 39.015625 
Q 14.890625 38.140625 10.796875 36.28125 
z
" id="DejaVuSans-53"/>
      </defs>
      <g transform="translate(13.915 234.709695)scale(0.1 -0.1)">
       <use xlink:href="#DejaVuSans-50"/>
       <use x="63.623047" xlink:href="#DejaVuSans-53"/>
      </g>
     </g>
    </g>
    <g id="ytick_3">
     <g id="line2d_12">
      <g>
       <use style="stroke:#000000;stroke-width:0.8;" x="33.64" xlink:href="#m04418d0d7d" y="201.700952"/>
      </g>
     </g>
     <g id="text_12">
      <!-- 50 -->
      <g transform="translate(13.915 205.500171)scale(0.1 -0.1)">
       <use xlink:href="#DejaVuSans-53"/>
       <use x="63.623047" xlink:href="#DejaVuSans-48"/>
      </g>
     </g>
    </g>
    <g id="ytick_4">
     <g id="line2d_13">
      <g>
       <use style="stroke:#000000;stroke-width:0.8;" x="33.64" xlink:href="#m04418d0d7d" y="172.491429"/>
      </g>
     </g>
     <g id="text_13">
      <!-- 75 -->
      <defs>
       <path d="M 8.203125 72.90625 
L 55.078125 72.90625 
L 55.078125 68.703125 
L 28.609375 0 
L 18.3125 0 
L 43.21875 64.59375 
L 8.203125 64.59375 
z
" id="DejaVuSans-55"/>
      </defs>
      <g transform="translate(13.915 176.290647)scale(0.1 -0.1)">
       <use xlink:href="#DejaVuSans-55"/>
       <use x="63.623047" xlink:href="#DejaVuSans-53"/>
      </g>
     </g>
    </g>
    <g id="ytick_5">
     <g id="line2d_14">
      <g>
       <use style="stroke:#000000;stroke-width:0.8;" x="33.64" xlink:href="#m04418d0d7d" y="143.281905"/>
      </g>
     </g>
     <g id="text_14">
      <!-- 100 -->
      <g transform="translate(7.5525 147.081124)scale(0.1 -0.1)">
       <use xlink:href="#DejaVuSans-49"/>
       <use x="63.623047" xlink:href="#DejaVuSans-48"/>
       <use x="127.246094" xlink:href="#DejaVuSans-48"/>
      </g>
     </g>
    </g>
    <g id="ytick_6">
     <g id="line2d_15">
      <g>
       <use style="stroke:#000000;stroke-width:0.8;" x="33.64" xlink:href="#m04418d0d7d" y="114.072381"/>
      </g>
     </g>
     <g id="text_15">
      <!-- 125 -->
      <g transform="translate(7.5525 117.8716)scale(0.1 -0.1)">
       <use xlink:href="#DejaVuSans-49"/>
       <use x="63.623047" xlink:href="#DejaVuSans-50"/>
       <use x="127.246094" xlink:href="#DejaVuSans-53"/>
      </g>
     </g>
    </g>
    <g id="ytick_7">
     <g id="line2d_16">
      <g>
       <use style="stroke:#000000;stroke-width:0.8;" x="33.64" xlink:href="#m04418d0d7d" y="84.862857"/>
      </g>
     </g>
     <g id="text_16">
      <!-- 150 -->
      <g transform="translate(7.5525 88.662076)scale(0.1 -0.1)">
       <use xlink:href="#DejaVuSans-49"/>
       <use x="63.623047" xlink:href="#DejaVuSans-53"/>
       <use x="127.246094" xlink:href="#DejaVuSans-48"/>
      </g>
     </g>
    </g>
    <g id="ytick_8">
     <g id="line2d_17">
      <g>
       <use style="stroke:#000000;stroke-width:0.8;" x="33.64" xlink:href="#m04418d0d7d" y="55.653333"/>
      </g>
     </g>
     <g id="text_17">
      <!-- 175 -->
      <g transform="translate(7.5525 59.452552)scale(0.1 -0.1)">
       <use xlink:href="#DejaVuSans-49"/>
       <use x="63.623047" xlink:href="#DejaVuSans-55"/>
       <use x="127.246094" xlink:href="#DejaVuSans-53"/>
      </g>
     </g>
    </g>
    <g id="ytick_9">
     <g id="line2d_18">
      <g>
       <use style="stroke:#000000;stroke-width:0.8;" x="33.64" xlink:href="#m04418d0d7d" y="26.44381"/>
      </g>
     </g>
     <g id="text_18">
      <!-- 200 -->
      <g transform="translate(7.5525 30.243028)scale(0.1 -0.1)">
       <use xlink:href="#DejaVuSans-50"/>
       <use x="63.623047" xlink:href="#DejaVuSans-48"/>
       <use x="127.246094" xlink:href="#DejaVuSans-48"/>
      </g>
     </g>
    </g>
   </g>
   <g id="line2d_19">
    <path clip-path="url(#p26ef2cabf8)" d="M 33.64 225.068571 
L 118.670049 225.068571 
L 120.305515 220.395048 
L 121.93945 220.395048 
L 123.572579 218.058286 
L 125.202706 218.058286 
L 126.832656 211.048 
L 128.466072 211.048 
L 130.096638 200.532571 
L 131.726626 195.859048 
L 133.358172 195.859048 
L 134.989338 186.512 
L 136.619704 179.501714 
L 138.253632 177.164952 
L 146.42353 177.164952 
L 148.054952 183.006857 
L 149.689317 190.017143 
L 151.319329 190.017143 
L 152.949303 195.859048 
L 154.582635 195.859048 
L 156.21318 200.532571 
L 157.845651 195.859048 
L 159.47863 195.859048 
L 161.109423 193.522286 
L 162.739713 192.353905 
L 164.36986 188.848762 
L 166.000165 188.848762 
L 167.631836 187.680381 
L 169.264547 191.185524 
L 170.894614 191.185524 
L 172.528765 188.848762 
L 174.159288 185.343619 
L 175.789369 185.343619 
L 177.422728 183.006857 
L 179.053399 185.343619 
L 182.31377 185.343619 
L 183.947237 178.333333 
L 185.578694 177.164952 
L 187.212455 177.164952 
L 188.845938 179.501714 
L 190.479637 173.65981 
L 192.115707 173.65981 
L 193.749925 170.154667 
L 195.387809 170.154667 
L 197.021323 175.996571 
L 198.651477 165.481143 
L 200.281916 153.797333 
L 201.912019 153.797333 
L 203.542211 147.955429 
L 205.173052 138.608381 
L 206.803426 138.608381 
L 208.434622 124.58781 
L 210.067019 108.230476 
L 211.697263 108.230476 
L 213.33178 90.704762 
L 214.962961 79.020952 
L 216.593005 60.326857 
L 218.224425 60.326857 
L 219.85482 52.14819 
L 221.484717 83.694476 
L 224.747507 83.694476 
L 226.381411 86.031238 
L 228.012048 86.031238 
L 229.64611 88.368 
L 231.277734 89.536381 
L 232.908338 89.536381 
L 234.541213 105.893714 
L 236.178031 119.914286 
L 237.809353 119.914286 
L 239.442496 133.934857 
L 241.076182 153.797333 
L 242.71098 153.797333 
L 244.342525 161.976 
L 245.975578 168.986286 
L 247.606186 172.491429 
L 249.240149 172.491429 
L 250.874498 184.175238 
L 252.505596 192.353905 
L 254.136317 192.353905 
L 255.772178 260.12 
L 348.958093 260.12 
L 350.591084 241.425905 
L 352.224844 236.752381 
L 353.858364 236.752381 
L 355.490007 233.247238 
L 357.120873 222.73181 
L 358.753648 222.73181 
L 360.38627 213.384762 
L 362.020123 211.048 
L 363.654527 211.048 
L 365.292398 207.542857 
L 366.928216 205.206095 
L 368.562155 205.206095 
L 370.192228 202.869333 
L 371.829294 201.700952 
L 375.097859 201.700952 
L 376.727619 215.721524 
L 378.359883 216.889905 
L 379.994061 214.553143 
L 381.624884 216.889905 
L 383.256512 216.889905 
L 386.626114 205.206095 
L 389.993367 208.711238 
L 393.417682 208.711238 
L 395.047566 211.048 
L 396.679609 211.048 
L 398.310125 213.384762 
L 399.940259 212.216381 
L 401.573801 212.216381 
L 403.20712 207.542857 
L 406.469706 207.542857 
L 408.100034 202.869333 
L 409.734431 205.206095 
L 411.364829 205.206095 
L 412.996333 201.700952 
L 414.627437 191.185524 
L 416.258444 186.512 
L 417.888524 186.512 
L 419.519311 185.343619 
L 421.150108 173.65981 
L 422.784214 173.65981 
L 424.416454 172.491429 
L 426.050012 181.838476 
L 427.680704 181.838476 
L 430.94352 158.470857 
L 432.574606 158.470857 
L 434.208215 153.797333 
L 435.839724 150.29219 
L 437.470661 150.29219 
L 439.103675 154.965714 
L 440.735514 158.470857 
L 442.366501 158.470857 
L 444.000497 144.450286 
L 445.634746 135.103238 
L 447.2664 130.429714 
L 448.897577 130.429714 
L 450.529075 116.409143 
L 452.160342 116.409143 
L 455.42774 114.072381 
L 457.061375 110.567238 
L 458.696021 110.567238 
L 460.327979 112.904 
L 461.961276 117.577524 
L 463.59249 117.577524 
L 465.226316 126.924571 
L 466.857475 142.113524 
L 468.490454 152.628952 
L 470.123139 152.628952 
L 471.753191 159.639238 
L 473.389923 159.639238 
L 475.020118 170.154667 
L 476.652967 178.333333 
L 478.286768 178.333333 
L 479.917631 186.512 
L 481.551761 187.680381 
L 483.184633 190.017143 
L 484.815211 190.017143 
L 486.44514 260.12 
L 574.755808 260.12 
L 577.989818 248.43619 
L 579.619796 248.43619 
L 581.25051 242.594286 
L 582.881319 237.920762 
L 584.511291 237.920762 
L 586.142443 228.573714 
L 587.77392 228.573714 
L 589.404592 223.90019 
L 591.034375 220.395048 
L 592.665704 220.395048 
L 594.296283 225.068571 
L 595.928525 225.068571 
L 597.56051 227.405333 
L 599.194431 227.405333 
L 600.829063 226.236952 
L 602.462856 223.90019 
L 604.093402 223.90019 
L 605.724539 220.395048 
L 607.354966 229.742095 
L 610.618268 229.742095 
L 612.252095 227.405333 
L 613.884408 227.405333 
L 615.515195 218.058286 
L 617.148292 218.058286 
L 618.780318 212.216381 
L 622.044126 212.216381 
L 625.308138 207.542857 
L 626.948675 207.542857 
L 628.583688 201.700952 
L 630.219482 201.700952 
L 631.850288 202.869333 
L 633.480939 200.532571 
L 635.11067 200.532571 
L 636.740757 191.185524 
L 640.002423 191.185524 
L 641.659717 188.848762 
L 643.29073 188.848762 
L 644.92073 179.501714 
L 646.556893 179.501714 
L 648.189335 177.164952 
L 649.820528 171.323048 
L 651.45489 171.323048 
L 653.084864 161.976 
L 654.717156 145.618667 
L 656.347405 117.577524 
L 657.978506 117.577524 
L 659.61065 109.398857 
L 661.240991 88.368 
L 662.871898 88.368 
L 664.506921 66.168762 
L 666.138836 52.14819 
L 667.769772 52.14819 
L 669.39997 42.801143 
L 671.031022 48.643048 
L 672.665135 48.643048 
L 674.29879 35.790857 
L 675.928871 33.454095 
L 677.562245 33.454095 
L 679.197993 34.622476 
L 680.831871 27.61219 
L 682.469892 27.61219 
L 684.100202 33.454095 
L 685.733876 38.127619 
L 687.363788 38.127619 
L 688.998734 48.643048 
L 690.628269 50.97981 
L 692.259185 72.010667 
L 693.889221 72.010667 
L 695.522898 89.536381 
L 697.153597 89.536381 
L 698.78512 104.725333 
L 700.416739 132.766476 
L 702.04902 140.945143 
L 703.684155 140.945143 
L 705.317552 165.481143 
L 706.947088 177.164952 
L 708.578315 177.164952 
L 710.212751 183.006857 
L 711.844791 194.690667 
L 715.110182 194.690667 
L 716.741866 260.12 
L 805.043798 260.12 
L 806.675808 253.109714 
L 808.308855 253.109714 
L 809.939915 249.604571 
L 811.573949 244.931048 
L 813.203723 244.931048 
L 814.834949 239.089143 
L 816.46736 236.752381 
L 818.098417 236.752381 
L 821.359362 229.742095 
L 822.993409 229.742095 
L 824.626038 233.247238 
L 826.260585 232.078857 
L 827.892321 228.573714 
L 829.525237 228.573714 
L 831.156162 229.742095 
L 832.786571 227.405333 
L 834.421557 227.405333 
L 836.053259 221.563429 
L 837.68316 219.226667 
L 839.320955 219.226667 
L 840.95092 214.553143 
L 842.581712 208.711238 
L 844.212348 208.711238 
L 845.843279 212.216381 
L 847.474665 214.553143 
L 849.108774 214.553143 
L 850.741404 208.711238 
L 852.372087 213.384762 
L 855.634834 213.384762 
L 857.266554 209.879619 
L 858.90126 199.36419 
L 860.531097 199.36419 
L 863.797806 197.027429 
L 865.428826 197.027429 
L 868.695052 185.343619 
L 871.96166 185.343619 
L 873.591988 180.670095 
L 875.224103 180.670095 
L 876.855892 170.154667 
L 878.488391 165.481143 
L 880.118552 165.481143 
L 881.749783 158.470857 
L 883.380108 142.113524 
L 885.010868 128.092952 
L 886.640952 128.092952 
L 888.276029 103.556952 
L 889.913403 107.062095 
L 891.547669 107.062095 
L 893.181083 102.388571 
L 894.814833 80.189333 
L 896.445162 80.189333 
L 898.076633 66.168762 
L 899.706678 60.326857 
L 901.336864 60.326857 
L 902.970328 61.495238 
L 904.602738 48.643048 
L 906.23363 45.137905 
L 907.867549 45.137905 
L 909.498264 63.832 
L 911.128901 72.010667 
L 912.76048 72.010667 
L 914.392215 83.694476 
L 916.023565 90.704762 
L 917.65742 90.704762 
L 919.287343 95.378286 
L 920.92976 107.062095 
L 922.565651 107.062095 
L 924.196646 114.072381 
L 925.826676 129.261333 
L 927.458637 129.261333 
L 930.71939 157.302476 
L 932.354823 157.302476 
L 933.989183 161.976 
L 935.622575 177.164952 
L 937.255577 177.164952 
L 938.888273 184.175238 
L 940.520286 260.12 
L 1033.730983 260.12 
L 1035.361479 248.43619 
L 1036.995348 242.594286 
L 1038.630229 242.594286 
L 1040.260347 234.415619 
L 1041.890012 234.415619 
L 1043.521034 222.73181 
L 1045.151131 219.226667 
L 1046.784217 214.553143 
L 1048.418495 214.553143 
L 1051.688112 205.206095 
L 1053.321918 205.206095 
L 1054.953602 201.700952 
L 1056.586868 199.36419 
L 1058.218416 205.206095 
L 1059.849894 205.206095 
L 1061.480442 207.542857 
L 1063.11467 211.048 
L 1064.747636 211.048 
L 1066.383583 219.226667 
L 1068.014971 219.226667 
L 1069.646037 218.058286 
L 1072.908409 218.058286 
L 1074.538685 221.563429 
L 1076.169788 218.058286 
L 1079.432035 218.058286 
L 1081.063293 221.563429 
L 1082.694626 222.73181 
L 1084.324903 222.73181 
L 1087.588927 211.048 
L 1089.219032 208.711238 
L 1090.851862 208.711238 
L 1092.481588 205.206095 
L 1094.111961 209.879619 
L 1095.742214 209.879619 
L 1097.37317 202.869333 
L 1099.005768 202.869333 
L 1100.637618 195.859048 
L 1102.268438 197.027429 
L 1103.9002 192.353905 
L 1105.531603 192.353905 
L 1107.163121 187.680381 
L 1108.795599 181.838476 
L 1110.426022 181.838476 
L 1112.057625 183.006857 
L 1113.689677 178.333333 
L 1115.323636 183.006857 
L 1116.957322 183.006857 
L 1118.588325 177.164952 
L 1120.22004 177.164952 
L 1121.854291 186.512 
L 1123.488751 181.838476 
L 1125.120259 181.838476 
L 1126.751622 184.175238 
L 1128.384677 188.848762 
L 1130.015916 186.512 
L 1131.650144 186.512 
L 1133.28 183.006857 
L 1133.28 183.006857 
" style="fill:none;stroke:#1f77b4;stroke-linecap:square;stroke-width:1.5;"/>
   </g>
   <g id="patch_3">
    <path d="M 33.64 260.12 
L 33.64 14.76 
" style="fill:none;stroke:#000000;stroke-linecap:square;stroke-linejoin:miter;stroke-width:0.8;"/>
   </g>
   <g id="patch_4">
    <path d="M 1133.28 260.12 
L 1133.28 14.76 
" style="fill:none;stroke:#000000;stroke-linecap:square;stroke-linejoin:miter;stroke-width:0.8;"/>
   </g>
   <g id="patch_5">
    <path d="M 33.64 260.12 
L 1133.28 260.12 
" style="fill:none;stroke:#000000;stroke-linecap:square;stroke-linejoin:miter;stroke-width:0.8;"/>
   </g>
   <g id="patch_6">
    <path d="M 33.64 14.76 
L 1133.28 14.76 
" style="fill:none;stroke:#000000;stroke-linecap:square;stroke-linejoin:miter;stroke-width:0.8;"/>
   </g>
  </g>
 </g>
 <defs>
  <clipPath id="p26ef2cabf8">
   <rect height="245.36" width="1099.64" x="33.64" y="14.76"/>
  </clipPath>
 </defs>
</svg>
